<?xml version="1.0" encoding="UTF-8" standalone="no"?>
<!DOCTYPE svg PUBLIC "-//W3C//DTD SVG 1.1//EN"
 "http://www.w3.org/Graphics/SVG/1.1/DTD/svg11.dtd">
<!-- Generated by graphviz version 2.38.0 (20140413.2041)
 -->
<!-- Title: pt Pages: 1 -->
<svg width="701pt" height="476pt"
 viewBox="0.00 0.00 700.60 476.00" xmlns="http://www.w3.org/2000/svg" xmlns:xlink="http://www.w3.org/1999/xlink">
<g id="graph0" class="graph" transform="scale(1 1) rotate(0) translate(4 472)">
<title>pt</title>
<!-- 3102463380784 -->
<g id="node1" class="node"><title>3102463380784</title>
<ellipse fill="none" stroke="black" cx="164.76" cy="-450" rx="27" ry="18"/>
<text text-anchor="middle" x="164.76" y="-446.5" font-family="Times New Roman,serif" font-size="15.00">seq</text>
</g>
<!-- 3102463381072 -->
<g id="node2" class="node"><title>3102463381072</title>
<ellipse fill="none" stroke="black" cx="59.7599" cy="-378" rx="59.5207" ry="18"/>
<text text-anchor="middle" x="59.7599" y="-374.5" font-family="Times New Roman,serif" font-size="15.00">Create Fine</text>
</g>
<!-- 3102463380784&#45;&#45;3102463381072 -->
<g id="edge1" class="edge"><title>3102463380784&#45;&#45;3102463381072</title>
<path fill="none" stroke="black" d="M145.988,-436.485C128.41,-424.767 102.083,-407.215 83.1463,-394.591"/>
</g>
<!-- 3102463381264 -->
<g id="node3" class="node"><title>3102463381264</title>
<ellipse fill="none" stroke="black" cx="164.76" cy="-378" rx="27" ry="18"/>
<text text-anchor="middle" x="164.76" y="-374.5" font-family="Times New Roman,serif" font-size="15.00">and</text>
</g>
<!-- 3102463380784&#45;&#45;3102463381264 -->
<g id="edge18" class="edge"><title>3102463380784&#45;&#45;3102463381264</title>
<path fill="none" stroke="black" d="M164.76,-431.697C164.76,-420.846 164.76,-406.917 164.76,-396.104"/>
</g>
<!-- 3102463381456 -->
<g id="node20" class="node"><title>3102463381456</title>
<ellipse fill="none" stroke="black" cx="330.76" cy="-378" rx="120.819" ry="18"/>
<text text-anchor="middle" x="330.76" y="-374.5" font-family="Times New Roman,serif" font-size="15.00">Send for Credit Collection</text>
</g>
<!-- 3102463380784&#45;&#45;3102463381456 -->
<g id="edge19" class="edge"><title>3102463380784&#45;&#45;3102463381456</title>
<path fill="none" stroke="black" d="M187.147,-439.559C214.139,-428.177 259.935,-408.866 292.554,-395.111"/>
</g>
<!-- 3102466474096 -->
<g id="node4" class="node"><title>3102466474096</title>
<ellipse fill="none" stroke="black" cx="106.76" cy="-306" rx="46.6143" ry="18"/>
<text text-anchor="middle" x="106.76" y="-302.5" font-family="Times New Roman,serif" font-size="15.00">xor loop</text>
</g>
<!-- 3102463381264&#45;&#45;3102466474096 -->
<g id="edge4" class="edge"><title>3102463381264&#45;&#45;3102466474096</title>
<path fill="none" stroke="black" d="M152.175,-361.811C142.846,-350.552 130.138,-335.215 120.537,-323.628"/>
</g>
<!-- 3102466474288 -->
<g id="node7" class="node"><title>3102466474288</title>
<ellipse fill="none" stroke="black" cx="222.76" cy="-306" rx="27" ry="18"/>
<text text-anchor="middle" x="222.76" y="-302.5" font-family="Times New Roman,serif" font-size="15.00">xor</text>
</g>
<!-- 3102463381264&#45;&#45;3102466474288 -->
<g id="edge17" class="edge"><title>3102463381264&#45;&#45;3102466474288</title>
<path fill="none" stroke="black" d="M177.345,-361.811C187.074,-350.07 200.477,-333.893 210.199,-322.159"/>
</g>
<!-- 3102466474384 -->
<g id="node5" class="node"><title>3102466474384</title>
<ellipse fill="black" stroke="black" cx="39.7599" cy="-234" rx="2.7" ry="2.7"/>
</g>
<!-- 3102466474096&#45;&#45;3102466474384 -->
<g id="edge2" class="edge"><title>3102466474096&#45;&#45;3102466474384</title>
<path fill="none" stroke="black" d="M91.2203,-288.765C73.9019,-270.671 47.4913,-243.078 41.1593,-236.462"/>
</g>
<!-- 3102466474480 -->
<g id="node6" class="node"><title>3102466474480</title>
<ellipse fill="none" stroke="black" cx="106.76" cy="-234" rx="45.7249" ry="18"/>
<text text-anchor="middle" x="106.76" y="-230.5" font-family="Times New Roman,serif" font-size="15.00">Payment</text>
</g>
<!-- 3102466474096&#45;&#45;3102466474480 -->
<g id="edge3" class="edge"><title>3102466474096&#45;&#45;3102466474480</title>
<path fill="none" stroke="black" d="M106.76,-287.697C106.76,-276.846 106.76,-262.917 106.76,-252.104"/>
</g>
<!-- 3102466474816 -->
<g id="node8" class="node"><title>3102466474816</title>
<ellipse fill="black" stroke="black" cx="173.76" cy="-234" rx="2.7" ry="2.7"/>
</g>
<!-- 3102466474288&#45;&#45;3102466474816 -->
<g id="edge5" class="edge"><title>3102466474288&#45;&#45;3102466474816</title>
<path fill="none" stroke="black" d="M211.885,-289.465C199.254,-271.42 179.538,-243.254 174.806,-236.494"/>
</g>
<!-- 3102466474960 -->
<g id="node9" class="node"><title>3102466474960</title>
<ellipse fill="none" stroke="black" cx="247.76" cy="-234" rx="52.6228" ry="18"/>
<text text-anchor="middle" x="247.76" y="-230.5" font-family="Times New Roman,serif" font-size="15.00">Send Fine</text>
</g>
<!-- 3102466474288&#45;&#45;3102466474960 -->
<g id="edge6" class="edge"><title>3102466474288&#45;&#45;3102466474960</title>
<path fill="none" stroke="black" d="M228.685,-288.411C232.612,-277.414 237.75,-263.027 241.704,-251.956"/>
</g>
<!-- 3102466475104 -->
<g id="node10" class="node"><title>3102466475104</title>
<ellipse fill="none" stroke="black" cx="345.76" cy="-234" rx="27" ry="18"/>
<text text-anchor="middle" x="345.76" y="-230.5" font-family="Times New Roman,serif" font-size="15.00">seq</text>
</g>
<!-- 3102466474288&#45;&#45;3102466475104 -->
<g id="edge16" class="edge"><title>3102466474288&#45;&#45;3102466475104</title>
<path fill="none" stroke="black" d="M242.796,-293.597C265.668,-280.581 302.864,-259.413 325.733,-246.398"/>
</g>
<!-- 3102466475344 -->
<g id="node11" class="node"><title>3102466475344</title>
<ellipse fill="none" stroke="black" cx="166.76" cy="-162" rx="52.6228" ry="18"/>
<text text-anchor="middle" x="166.76" y="-158.5" font-family="Times New Roman,serif" font-size="15.00">Send Fine</text>
</g>
<!-- 3102466475104&#45;&#45;3102466475344 -->
<g id="edge7" class="edge"><title>3102466475104&#45;&#45;3102466475344</title>
<path fill="none" stroke="black" d="M323.089,-224.134C292.045,-211.994 236.076,-190.107 200.209,-176.081"/>
</g>
<!-- 3102466475488 -->
<g id="node12" class="node"><title>3102466475488</title>
<ellipse fill="none" stroke="black" cx="345.76" cy="-162" rx="107.914" ry="18"/>
<text text-anchor="middle" x="345.76" y="-158.5" font-family="Times New Roman,serif" font-size="15.00">Insert Fine Notification</text>
</g>
<!-- 3102466475104&#45;&#45;3102466475488 -->
<g id="edge8" class="edge"><title>3102466475104&#45;&#45;3102466475488</title>
<path fill="none" stroke="black" d="M345.76,-215.697C345.76,-204.846 345.76,-190.917 345.76,-180.104"/>
</g>
<!-- 3102466475632 -->
<g id="node13" class="node"><title>3102466475632</title>
<ellipse fill="none" stroke="black" cx="498.76" cy="-162" rx="27" ry="18"/>
<text text-anchor="middle" x="498.76" y="-158.5" font-family="Times New Roman,serif" font-size="15.00">and</text>
</g>
<!-- 3102466475104&#45;&#45;3102466475632 -->
<g id="edge15" class="edge"><title>3102466475104&#45;&#45;3102466475632</title>
<path fill="none" stroke="black" d="M367.357,-223.119C396.352,-209.853 447.587,-186.412 476.778,-173.057"/>
</g>
<!-- 3102466475872 -->
<g id="node14" class="node"><title>3102466475872</title>
<ellipse fill="none" stroke="black" cx="448.76" cy="-90" rx="27" ry="18"/>
<text text-anchor="middle" x="448.76" y="-86.5" font-family="Times New Roman,serif" font-size="15.00">xor</text>
</g>
<!-- 3102466475632&#45;&#45;3102466475872 -->
<g id="edge11" class="edge"><title>3102466475632&#45;&#45;3102466475872</title>
<path fill="none" stroke="black" d="M487.663,-145.465C479.377,-133.865 468.104,-118.082 459.825,-106.492"/>
</g>
<!-- 3102466476016 -->
<g id="node17" class="node"><title>3102466476016</title>
<ellipse fill="none" stroke="black" cx="547.76" cy="-90" rx="46.6143" ry="18"/>
<text text-anchor="middle" x="547.76" y="-86.5" font-family="Times New Roman,serif" font-size="15.00">xor loop</text>
</g>
<!-- 3102466475632&#45;&#45;3102466476016 -->
<g id="edge14" class="edge"><title>3102466475632&#45;&#45;3102466476016</title>
<path fill="none" stroke="black" d="M509.635,-145.465C517.529,-134.187 528.191,-118.955 536.233,-107.467"/>
</g>
<!-- 3102466476112 -->
<g id="node15" class="node"><title>3102466476112</title>
<ellipse fill="black" stroke="black" cx="349.76" cy="-18" rx="2.7" ry="2.7"/>
</g>
<!-- 3102466475872&#45;&#45;3102466476112 -->
<g id="edge9" class="edge"><title>3102466475872&#45;&#45;3102466476112</title>
<path fill="none" stroke="black" d="M430.602,-76.1609C405.147,-58.1628 360.909,-26.8831 351.536,-20.2559"/>
</g>
<!-- 3102466476256 -->
<g id="node16" class="node"><title>3102466476256</title>
<ellipse fill="none" stroke="black" cx="448.76" cy="-18" rx="78.5434" ry="18"/>
<text text-anchor="middle" x="448.76" y="-14.5" font-family="Times New Roman,serif" font-size="15.00">Appeal to Judge</text>
</g>
<!-- 3102466475872&#45;&#45;3102466476256 -->
<g id="edge10" class="edge"><title>3102466475872&#45;&#45;3102466476256</title>
<path fill="none" stroke="black" d="M448.76,-71.6966C448.76,-60.8463 448.76,-46.9167 448.76,-36.1043"/>
</g>
<!-- 3102466476544 -->
<g id="node18" class="node"><title>3102466476544</title>
<ellipse fill="black" stroke="black" cx="547.76" cy="-18" rx="2.7" ry="2.7"/>
</g>
<!-- 3102466476016&#45;&#45;3102466476544 -->
<g id="edge12" class="edge"><title>3102466476016&#45;&#45;3102466476544</title>
<path fill="none" stroke="black" d="M547.76,-71.6966C547.76,-53.8826 547.76,-27.7686 547.76,-20.7764"/>
</g>
<!-- 3102466476688 -->
<g id="node19" class="node"><title>3102466476688</title>
<ellipse fill="none" stroke="black" cx="630.76" cy="-18" rx="61.6894" ry="18"/>
<text text-anchor="middle" x="630.76" y="-14.5" font-family="Times New Roman,serif" font-size="15.00">Add penalty</text>
</g>
<!-- 3102466476016&#45;&#45;3102466476688 -->
<g id="edge13" class="edge"><title>3102466476016&#45;&#45;3102466476688</title>
<path fill="none" stroke="black" d="M566.18,-73.4647C579.648,-62.1062 597.871,-46.7374 611.526,-35.2216"/>
</g>
</g>
</svg>
