<?xml version="1.0" encoding="UTF-8" standalone="no"?>
<!DOCTYPE svg PUBLIC "-//W3C//DTD SVG 1.1//EN"
 "http://www.w3.org/Graphics/SVG/1.1/DTD/svg11.dtd">
<!-- Generated by graphviz version 2.38.0 (20140413.2041)
 -->
<!-- Title: pt Pages: 1 -->
<svg width="1505pt" height="692pt"
 viewBox="0.00 0.00 1504.52 692.00" xmlns="http://www.w3.org/2000/svg" xmlns:xlink="http://www.w3.org/1999/xlink">
<g id="graph0" class="graph" transform="scale(1 1) rotate(0) translate(4 688)">
<title>pt</title>
<!-- 3102649518448 -->
<g id="node1" class="node"><title>3102649518448</title>
<ellipse fill="none" stroke="black" cx="602.811" cy="-666" rx="27" ry="18"/>
<text text-anchor="middle" x="602.811" y="-662.5" font-family="Times New Roman,serif" font-size="15.00">seq</text>
</g>
<!-- 3102649518016 -->
<g id="node2" class="node"><title>3102649518016</title>
<ellipse fill="none" stroke="black" cx="540.811" cy="-594" rx="59.5207" ry="18"/>
<text text-anchor="middle" x="540.811" y="-590.5" font-family="Times New Roman,serif" font-size="15.00">Create Fine</text>
</g>
<!-- 3102649518448&#45;&#45;3102649518016 -->
<g id="edge1" class="edge"><title>3102649518448&#45;&#45;3102649518016</title>
<path fill="none" stroke="black" d="M589.662,-650.155C579.71,-638.918 566.033,-623.476 555.681,-611.789"/>
</g>
<!-- 3102649519648 -->
<g id="node3" class="node"><title>3102649519648</title>
<ellipse fill="none" stroke="black" cx="664.811" cy="-594" rx="46.6143" ry="18"/>
<text text-anchor="middle" x="664.811" y="-590.5" font-family="Times New Roman,serif" font-size="15.00">xor loop</text>
</g>
<!-- 3102649518448&#45;&#45;3102649519648 -->
<g id="edge28" class="edge"><title>3102649518448&#45;&#45;3102649519648</title>
<path fill="none" stroke="black" d="M615.96,-650.155C626.055,-638.757 639.981,-623.034 650.382,-611.29"/>
</g>
<!-- 3102649519744 -->
<g id="node4" class="node"><title>3102649519744</title>
<ellipse fill="none" stroke="black" cx="630.811" cy="-522" rx="46.6143" ry="18"/>
<text text-anchor="middle" x="630.811" y="-518.5" font-family="Times New Roman,serif" font-size="15.00">xor loop</text>
</g>
<!-- 3102649519648&#45;&#45;3102649519744 -->
<g id="edge26" class="edge"><title>3102649519648&#45;&#45;3102649519744</title>
<path fill="none" stroke="black" d="M656.581,-576.055C651.235,-565.049 644.296,-550.764 638.966,-539.789"/>
</g>
<!-- 3102649519072 -->
<g id="node29" class="node"><title>3102649519072</title>
<ellipse fill="black" stroke="black" cx="697.811" cy="-522" rx="2.7" ry="2.7"/>
</g>
<!-- 3102649519648&#45;&#45;3102649519072 -->
<g id="edge27" class="edge"><title>3102649519648&#45;&#45;3102649519072</title>
<path fill="none" stroke="black" d="M672.799,-576.055C681.192,-558.252 693.632,-531.865 696.964,-524.796"/>
</g>
<!-- 3102649519360 -->
<g id="node5" class="node"><title>3102649519360</title>
<ellipse fill="none" stroke="black" cx="606.811" cy="-450" rx="27" ry="18"/>
<text text-anchor="middle" x="606.811" y="-446.5" font-family="Times New Roman,serif" font-size="15.00">seq</text>
</g>
<!-- 3102649519744&#45;&#45;3102649519360 -->
<g id="edge24" class="edge"><title>3102649519744&#45;&#45;3102649519360</title>
<path fill="none" stroke="black" d="M625.001,-504.055C621.228,-493.049 616.33,-478.764 612.567,-467.789"/>
</g>
<!-- 3102649519792 -->
<g id="node28" class="node"><title>3102649519792</title>
<ellipse fill="black" stroke="black" cx="654.811" cy="-450" rx="2.7" ry="2.7"/>
</g>
<!-- 3102649519744&#45;&#45;3102649519792 -->
<g id="edge25" class="edge"><title>3102649519744&#45;&#45;3102649519792</title>
<path fill="none" stroke="black" d="M636.621,-504.055C642.725,-486.252 651.772,-459.865 654.195,-452.796"/>
</g>
<!-- 3102649517104 -->
<g id="node6" class="node"><title>3102649517104</title>
<ellipse fill="none" stroke="black" cx="273.811" cy="-378" rx="27" ry="18"/>
<text text-anchor="middle" x="273.811" y="-374.5" font-family="Times New Roman,serif" font-size="15.00">xor</text>
</g>
<!-- 3102649519360&#45;&#45;3102649517104 -->
<g id="edge5" class="edge"><title>3102649519360&#45;&#45;3102649517104</title>
<path fill="none" stroke="black" d="M581.509,-443.681C519.735,-430.696 361.737,-397.483 299.532,-384.407"/>
</g>
<!-- 3102649517152 -->
<g id="node10" class="node"><title>3102649517152</title>
<ellipse fill="none" stroke="black" cx="606.811" cy="-378" rx="27" ry="18"/>
<text text-anchor="middle" x="606.811" y="-374.5" font-family="Times New Roman,serif" font-size="15.00">xor</text>
</g>
<!-- 3102649519360&#45;&#45;3102649517152 -->
<g id="edge8" class="edge"><title>3102649519360&#45;&#45;3102649517152</title>
<path fill="none" stroke="black" d="M606.811,-431.697C606.811,-420.846 606.811,-406.917 606.811,-396.104"/>
</g>
<!-- 3102649516720 -->
<g id="node13" class="node"><title>3102649516720</title>
<ellipse fill="none" stroke="black" cx="798.811" cy="-378" rx="27" ry="18"/>
<text text-anchor="middle" x="798.811" y="-374.5" font-family="Times New Roman,serif" font-size="15.00">xor</text>
</g>
<!-- 3102649519360&#45;&#45;3102649516720 -->
<g id="edge23" class="edge"><title>3102649519360&#45;&#45;3102649516720</title>
<path fill="none" stroke="black" d="M629.971,-440.556C666.874,-427.102 738.614,-400.947 775.569,-387.474"/>
</g>
<!-- 3102649516672 -->
<g id="node7" class="node"><title>3102649516672</title>
<ellipse fill="none" stroke="black" cx="52.8111" cy="-306" rx="52.6228" ry="18"/>
<text text-anchor="middle" x="52.8111" y="-302.5" font-family="Times New Roman,serif" font-size="15.00">Send Fine</text>
</g>
<!-- 3102649517104&#45;&#45;3102649516672 -->
<g id="edge2" class="edge"><title>3102649517104&#45;&#45;3102649516672</title>
<path fill="none" stroke="black" d="M249.739,-369.376C211.256,-357.186 135.588,-333.219 90.0742,-318.803"/>
</g>
<!-- 3102649517056 -->
<g id="node8" class="node"><title>3102649517056</title>
<ellipse fill="none" stroke="black" cx="169.811" cy="-306" rx="45.7249" ry="18"/>
<text text-anchor="middle" x="169.811" y="-302.5" font-family="Times New Roman,serif" font-size="15.00">Payment</text>
</g>
<!-- 3102649517104&#45;&#45;3102649517056 -->
<g id="edge3" class="edge"><title>3102649517104&#45;&#45;3102649517056</title>
<path fill="none" stroke="black" d="M255.218,-364.485C237.456,-352.531 210.677,-334.506 191.851,-321.834"/>
</g>
<!-- 3102649516912 -->
<g id="node9" class="node"><title>3102649516912</title>
<ellipse fill="none" stroke="black" cx="377.811" cy="-306" rx="144.571" ry="18"/>
<text text-anchor="middle" x="377.811" y="-302.5" font-family="Times New Roman,serif" font-size="15.00">Insert Date Appeal to Prefecture</text>
</g>
<!-- 3102649517104&#45;&#45;3102649516912 -->
<g id="edge4" class="edge"><title>3102649517104&#45;&#45;3102649516912</title>
<path fill="none" stroke="black" d="M292.404,-364.485C309.231,-353.16 334.151,-336.387 352.735,-323.878"/>
</g>
<!-- 3102649516240 -->
<g id="node11" class="node"><title>3102649516240</title>
<ellipse fill="black" stroke="black" cx="542.811" cy="-306" rx="2.7" ry="2.7"/>
</g>
<!-- 3102649517152&#45;&#45;3102649516240 -->
<g id="edge6" class="edge"><title>3102649517152&#45;&#45;3102649516240</title>
<path fill="none" stroke="black" d="M593.238,-362.155C576.8,-344.175 550.52,-315.432 544.207,-308.527"/>
</g>
<!-- 3102649516384 -->
<g id="node12" class="node"><title>3102649516384</title>
<ellipse fill="none" stroke="black" cx="670.811" cy="-306" rx="107.914" ry="18"/>
<text text-anchor="middle" x="670.811" y="-302.5" font-family="Times New Roman,serif" font-size="15.00">Insert Fine Notification</text>
</g>
<!-- 3102649517152&#45;&#45;3102649516384 -->
<g id="edge7" class="edge"><title>3102649517152&#45;&#45;3102649516384</title>
<path fill="none" stroke="black" d="M620.384,-362.155C630.584,-350.998 644.574,-335.696 655.232,-324.04"/>
</g>
<!-- 3102649516096 -->
<g id="node14" class="node"><title>3102649516096</title>
<ellipse fill="black" stroke="black" cx="798.811" cy="-306" rx="2.7" ry="2.7"/>
</g>
<!-- 3102649516720&#45;&#45;3102649516096 -->
<g id="edge9" class="edge"><title>3102649516720&#45;&#45;3102649516096</title>
<path fill="none" stroke="black" d="M798.811,-359.697C798.811,-341.883 798.811,-315.769 798.811,-308.776"/>
</g>
<!-- 3102634596240 -->
<g id="node15" class="node"><title>3102634596240</title>
<ellipse fill="none" stroke="black" cx="865.811" cy="-306" rx="46.6143" ry="18"/>
<text text-anchor="middle" x="865.811" y="-302.5" font-family="Times New Roman,serif" font-size="15.00">xor loop</text>
</g>
<!-- 3102649516720&#45;&#45;3102634596240 -->
<g id="edge22" class="edge"><title>3102649516720&#45;&#45;3102634596240</title>
<path fill="none" stroke="black" d="M812.693,-362.496C823.656,-351.043 838.945,-335.069 850.307,-323.198"/>
</g>
<!-- 3102634596336 -->
<g id="node16" class="node"><title>3102634596336</title>
<ellipse fill="none" stroke="black" cx="841.811" cy="-234" rx="27" ry="18"/>
<text text-anchor="middle" x="841.811" y="-230.5" font-family="Times New Roman,serif" font-size="15.00">xor</text>
</g>
<!-- 3102634596240&#45;&#45;3102634596336 -->
<g id="edge20" class="edge"><title>3102634596240&#45;&#45;3102634596336</title>
<path fill="none" stroke="black" d="M860.001,-288.055C856.228,-277.049 851.33,-262.764 847.567,-251.789"/>
</g>
<!-- 3102634596192 -->
<g id="node27" class="node"><title>3102634596192</title>
<ellipse fill="black" stroke="black" cx="889.811" cy="-234" rx="2.7" ry="2.7"/>
</g>
<!-- 3102634596240&#45;&#45;3102634596192 -->
<g id="edge21" class="edge"><title>3102634596240&#45;&#45;3102634596192</title>
<path fill="none" stroke="black" d="M871.621,-288.055C877.725,-270.252 886.772,-243.865 889.195,-236.796"/>
</g>
<!-- 3102634596288 -->
<g id="node17" class="node"><title>3102634596288</title>
<ellipse fill="none" stroke="black" cx="495.811" cy="-162" rx="78.5434" ry="18"/>
<text text-anchor="middle" x="495.811" y="-158.5" font-family="Times New Roman,serif" font-size="15.00">Appeal to Judge</text>
</g>
<!-- 3102634596336&#45;&#45;3102634596288 -->
<g id="edge10" class="edge"><title>3102634596336&#45;&#45;3102634596288</title>
<path fill="none" stroke="black" d="M816.369,-227.853C761.122,-216.676 629.031,-189.952 552.767,-174.523"/>
</g>
<!-- 3102634595664 -->
<g id="node18" class="node"><title>3102634595664</title>
<ellipse fill="none" stroke="black" cx="712.811" cy="-162" rx="120.43" ry="18"/>
<text text-anchor="middle" x="712.811" y="-158.5" font-family="Times New Roman,serif" font-size="15.00">Send Appeal to Prefecture</text>
</g>
<!-- 3102634596336&#45;&#45;3102634595664 -->
<g id="edge11" class="edge"><title>3102634596336&#45;&#45;3102634595664</title>
<path fill="none" stroke="black" d="M821.371,-221.908C800.342,-210.497 767.344,-192.591 743.244,-179.514"/>
</g>
<!-- 3102634598016 -->
<g id="node19" class="node"><title>3102634598016</title>
<ellipse fill="none" stroke="black" cx="971.811" cy="-162" rx="120.819" ry="18"/>
<text text-anchor="middle" x="971.811" y="-158.5" font-family="Times New Roman,serif" font-size="15.00">Send for Credit Collection</text>
</g>
<!-- 3102634596336&#45;&#45;3102634598016 -->
<g id="edge12" class="edge"><title>3102634596336&#45;&#45;3102634598016</title>
<path fill="none" stroke="black" d="M862.124,-222.063C883.261,-210.681 916.619,-192.719 941.003,-179.589"/>
</g>
<!-- 3102634596720 -->
<g id="node20" class="node"><title>3102634596720</title>
<ellipse fill="none" stroke="black" cx="1137.81" cy="-162" rx="27" ry="18"/>
<text text-anchor="middle" x="1137.81" y="-158.5" font-family="Times New Roman,serif" font-size="15.00">seq</text>
</g>
<!-- 3102634596336&#45;&#45;3102634596720 -->
<g id="edge19" class="edge"><title>3102634596336&#45;&#45;3102634596720</title>
<path fill="none" stroke="black" d="M866.793,-227.092C922.544,-213.908 1056.6,-182.205 1112.58,-168.966"/>
</g>
<!-- 3102634595616 -->
<g id="node21" class="node"><title>3102634595616</title>
<ellipse fill="none" stroke="black" cx="1095.81" cy="-90" rx="27" ry="18"/>
<text text-anchor="middle" x="1095.81" y="-86.5" font-family="Times New Roman,serif" font-size="15.00">xor</text>
</g>
<!-- 3102634596720&#45;&#45;3102634595616 -->
<g id="edge15" class="edge"><title>3102634596720&#45;&#45;3102634595616</title>
<path fill="none" stroke="black" d="M1128.28,-145.116C1121.5,-133.821 1112.43,-118.696 1105.6,-107.307"/>
</g>
<!-- 3102634595280 -->
<g id="node24" class="node"><title>3102634595280</title>
<ellipse fill="none" stroke="black" cx="1178.81" cy="-90" rx="27" ry="18"/>
<text text-anchor="middle" x="1178.81" y="-86.5" font-family="Times New Roman,serif" font-size="15.00">xor</text>
</g>
<!-- 3102634596720&#45;&#45;3102634595280 -->
<g id="edge18" class="edge"><title>3102634596720&#45;&#45;3102634595280</title>
<path fill="none" stroke="black" d="M1147.32,-144.765C1153.94,-133.456 1162.74,-118.437 1169.35,-107.147"/>
</g>
<!-- 3102634595040 -->
<g id="node22" class="node"><title>3102634595040</title>
<ellipse fill="none" stroke="black" cx="841.811" cy="-18" rx="173.941" ry="18"/>
<text text-anchor="middle" x="841.811" y="-14.5" font-family="Times New Roman,serif" font-size="15.00">Receive Result Appeal from Prefecture</text>
</g>
<!-- 3102634595616&#45;&#45;3102634595040 -->
<g id="edge13" class="edge"><title>3102634595616&#45;&#45;3102634595040</title>
<path fill="none" stroke="black" d="M1070.99,-82.1607C1031.61,-71.3068 953.739,-49.8464 899.769,-34.9725"/>
</g>
<!-- 3102634595232 -->
<g id="node23" class="node"><title>3102634595232</title>
<ellipse fill="none" stroke="black" cx="1095.81" cy="-18" rx="61.6894" ry="18"/>
<text text-anchor="middle" x="1095.81" y="-14.5" font-family="Times New Roman,serif" font-size="15.00">Add penalty</text>
</g>
<!-- 3102634595616&#45;&#45;3102634595232 -->
<g id="edge14" class="edge"><title>3102634595616&#45;&#45;3102634595232</title>
<path fill="none" stroke="black" d="M1095.81,-71.6966C1095.81,-60.8463 1095.81,-46.9167 1095.81,-36.1043"/>
</g>
<!-- 3102634652480 -->
<g id="node25" class="node"><title>3102634652480</title>
<ellipse fill="black" stroke="black" cx="1178.81" cy="-18" rx="2.7" ry="2.7"/>
</g>
<!-- 3102634595280&#45;&#45;3102634652480 -->
<g id="edge16" class="edge"><title>3102634595280&#45;&#45;3102634652480</title>
<path fill="none" stroke="black" d="M1178.81,-71.6966C1178.81,-53.8826 1178.81,-27.7686 1178.81,-20.7764"/>
</g>
<!-- 3102634653872 -->
<g id="node26" class="node"><title>3102634653872</title>
<ellipse fill="none" stroke="black" cx="1347.81" cy="-18" rx="148.91" ry="18"/>
<text text-anchor="middle" x="1347.81" y="-14.5" font-family="Times New Roman,serif" font-size="15.00">Notify Result Appeal to Offender</text>
</g>
<!-- 3102634595280&#45;&#45;3102634653872 -->
<g id="edge17" class="edge"><title>3102634595280&#45;&#45;3102634653872</title>
<path fill="none" stroke="black" d="M1201.25,-79.7045C1228.46,-68.4359 1274.79,-49.2446 1308.09,-35.4544"/>
</g>
</g>
</svg>
