<?xml version="1.0" encoding="UTF-8" standalone="no"?>
<!DOCTYPE svg PUBLIC "-//W3C//DTD SVG 1.1//EN"
 "http://www.w3.org/Graphics/SVG/1.1/DTD/svg11.dtd">
<!-- Generated by graphviz version 2.38.0 (20140413.2041)
 -->
<!-- Title: pt Pages: 1 -->
<svg width="1720pt" height="548pt"
 viewBox="0.00 0.00 1720.38 548.00" xmlns="http://www.w3.org/2000/svg" xmlns:xlink="http://www.w3.org/1999/xlink">
<g id="graph0" class="graph" transform="scale(1 1) rotate(0) translate(4 544)">
<title>pt</title>
<!-- 3102651090112 -->
<g id="node1" class="node"><title>3102651090112</title>
<ellipse fill="none" stroke="black" cx="979.536" cy="-522" rx="27" ry="18"/>
<text text-anchor="middle" x="979.536" y="-518.5" font-family="Times New Roman,serif" font-size="15.00">seq</text>
</g>
<!-- 3102651092704 -->
<g id="node2" class="node"><title>3102651092704</title>
<ellipse fill="none" stroke="black" cx="874.536" cy="-450" rx="59.5207" ry="18"/>
<text text-anchor="middle" x="874.536" y="-446.5" font-family="Times New Roman,serif" font-size="15.00">Create Fine</text>
</g>
<!-- 3102651090112&#45;&#45;3102651092704 -->
<g id="edge1" class="edge"><title>3102651090112&#45;&#45;3102651092704</title>
<path fill="none" stroke="black" d="M960.764,-508.485C943.185,-496.767 916.859,-479.215 897.922,-466.591"/>
</g>
<!-- 3102651089584 -->
<g id="node3" class="node"><title>3102651089584</title>
<ellipse fill="none" stroke="black" cx="979.536" cy="-450" rx="27" ry="18"/>
<text text-anchor="middle" x="979.536" y="-446.5" font-family="Times New Roman,serif" font-size="15.00">and</text>
</g>
<!-- 3102651090112&#45;&#45;3102651089584 -->
<g id="edge32" class="edge"><title>3102651090112&#45;&#45;3102651089584</title>
<path fill="none" stroke="black" d="M979.536,-503.697C979.536,-492.846 979.536,-478.917 979.536,-468.104"/>
</g>
<!-- 3102651091744 -->
<g id="node34" class="node"><title>3102651091744</title>
<ellipse fill="none" stroke="black" cx="1051.54" cy="-450" rx="27" ry="18"/>
<text text-anchor="middle" x="1051.54" y="-446.5" font-family="Times New Roman,serif" font-size="15.00">xor</text>
</g>
<!-- 3102651090112&#45;&#45;3102651091744 -->
<g id="edge35" class="edge"><title>3102651090112&#45;&#45;3102651091744</title>
<path fill="none" stroke="black" d="M994.106,-506.834C1006.52,-494.77 1024.27,-477.512 1036.74,-465.385"/>
</g>
<!-- 3102652311392 -->
<g id="node4" class="node"><title>3102652311392</title>
<ellipse fill="none" stroke="black" cx="537.536" cy="-378" rx="27" ry="18"/>
<text text-anchor="middle" x="537.536" y="-374.5" font-family="Times New Roman,serif" font-size="15.00">xor</text>
</g>
<!-- 3102651089584&#45;&#45;3102652311392 -->
<g id="edge14" class="edge"><title>3102651089584&#45;&#45;3102652311392</title>
<path fill="none" stroke="black" d="M953.537,-444.883C875.168,-432.471 641.827,-395.517 563.502,-383.112"/>
</g>
<!-- 3102652311152 -->
<g id="node17" class="node"><title>3102652311152</title>
<ellipse fill="none" stroke="black" cx="985.536" cy="-378" rx="27" ry="18"/>
<text text-anchor="middle" x="985.536" y="-374.5" font-family="Times New Roman,serif" font-size="15.00">and</text>
</g>
<!-- 3102651089584&#45;&#45;3102652311152 -->
<g id="edge31" class="edge"><title>3102651089584&#45;&#45;3102652311152</title>
<path fill="none" stroke="black" d="M981.019,-431.697C981.949,-420.846 983.143,-406.917 984.069,-396.104"/>
</g>
<!-- 3102651737136 -->
<g id="node5" class="node"><title>3102651737136</title>
<ellipse fill="black" stroke="black" cx="489.536" cy="-306" rx="2.7" ry="2.7"/>
</g>
<!-- 3102652311392&#45;&#45;3102651737136 -->
<g id="edge2" class="edge"><title>3102652311392&#45;&#45;3102651737136</title>
<path fill="none" stroke="black" d="M526.644,-361.116C514.473,-343.367 495.815,-316.158 490.809,-308.857"/>
</g>
<!-- 3102651739488 -->
<g id="node6" class="node"><title>3102651739488</title>
<ellipse fill="none" stroke="black" cx="537.536" cy="-306" rx="27" ry="18"/>
<text text-anchor="middle" x="537.536" y="-302.5" font-family="Times New Roman,serif" font-size="15.00">seq</text>
</g>
<!-- 3102652311392&#45;&#45;3102651739488 -->
<g id="edge13" class="edge"><title>3102652311392&#45;&#45;3102651739488</title>
<path fill="none" stroke="black" d="M537.536,-359.697C537.536,-348.846 537.536,-334.917 537.536,-324.104"/>
</g>
<!-- 3102651738624 -->
<g id="node7" class="node"><title>3102651738624</title>
<ellipse fill="none" stroke="black" cx="144.536" cy="-234" rx="144.571" ry="18"/>
<text text-anchor="middle" x="144.536" y="-230.5" font-family="Times New Roman,serif" font-size="15.00">Insert Date Appeal to Prefecture</text>
</g>
<!-- 3102651739488&#45;&#45;3102651738624 -->
<g id="edge3" class="edge"><title>3102651739488&#45;&#45;3102651738624</title>
<path fill="none" stroke="black" d="M511.75,-300.407C454.202,-290.157 313.322,-265.064 223.74,-249.108"/>
</g>
<!-- 3102651737376 -->
<g id="node8" class="node"><title>3102651737376</title>
<ellipse fill="none" stroke="black" cx="334.536" cy="-234" rx="27" ry="18"/>
<text text-anchor="middle" x="334.536" y="-230.5" font-family="Times New Roman,serif" font-size="15.00">xor</text>
</g>
<!-- 3102651739488&#45;&#45;3102651737376 -->
<g id="edge6" class="edge"><title>3102651739488&#45;&#45;3102651737376</title>
<path fill="none" stroke="black" d="M513.852,-296.833C474.736,-283.345 397.085,-256.569 358.069,-243.115"/>
</g>
<!-- 3102651738384 -->
<g id="node11" class="node"><title>3102651738384</title>
<ellipse fill="none" stroke="black" cx="537.536" cy="-234" rx="27" ry="18"/>
<text text-anchor="middle" x="537.536" y="-230.5" font-family="Times New Roman,serif" font-size="15.00">xor</text>
</g>
<!-- 3102651739488&#45;&#45;3102651738384 -->
<g id="edge9" class="edge"><title>3102651739488&#45;&#45;3102651738384</title>
<path fill="none" stroke="black" d="M537.536,-287.697C537.536,-276.846 537.536,-262.917 537.536,-252.104"/>
</g>
<!-- 3102651739392 -->
<g id="node14" class="node"><title>3102651739392</title>
<ellipse fill="none" stroke="black" cx="797.536" cy="-234" rx="27" ry="18"/>
<text text-anchor="middle" x="797.536" y="-230.5" font-family="Times New Roman,serif" font-size="15.00">xor</text>
</g>
<!-- 3102651739488&#45;&#45;3102651739392 -->
<g id="edge12" class="edge"><title>3102651739488&#45;&#45;3102651739392</title>
<path fill="none" stroke="black" d="M562.465,-298.288C612.162,-284.908 723.046,-255.055 772.681,-241.692"/>
</g>
<!-- 3102651739296 -->
<g id="node9" class="node"><title>3102651739296</title>
<ellipse fill="black" stroke="black" cx="127.536" cy="-162" rx="2.7" ry="2.7"/>
</g>
<!-- 3102651737376&#45;&#45;3102651739296 -->
<g id="edge4" class="edge"><title>3102651737376&#45;&#45;3102651739296</title>
<path fill="none" stroke="black" d="M310.79,-224.97C260.666,-208.02 147.219,-169.656 129.798,-163.765"/>
</g>
<!-- 3102651738576 -->
<g id="node10" class="node"><title>3102651738576</title>
<ellipse fill="none" stroke="black" cx="268.536" cy="-162" rx="120.43" ry="18"/>
<text text-anchor="middle" x="268.536" y="-158.5" font-family="Times New Roman,serif" font-size="15.00">Send Appeal to Prefecture</text>
</g>
<!-- 3102651737376&#45;&#45;3102651738576 -->
<g id="edge5" class="edge"><title>3102651737376&#45;&#45;3102651738576</title>
<path fill="none" stroke="black" d="M320.539,-218.155C310.019,-206.998 295.592,-191.696 284.602,-180.04"/>
</g>
<!-- 3102651739200 -->
<g id="node12" class="node"><title>3102651739200</title>
<ellipse fill="black" stroke="black" cx="409.536" cy="-162" rx="2.7" ry="2.7"/>
</g>
<!-- 3102651738384&#45;&#45;3102651739200 -->
<g id="edge7" class="edge"><title>3102651738384&#45;&#45;3102651739200</title>
<path fill="none" stroke="black" d="M517.254,-221.908C484.827,-204.175 423.718,-170.756 411.64,-164.151"/>
</g>
<!-- 3102651740064 -->
<g id="node13" class="node"><title>3102651740064</title>
<ellipse fill="none" stroke="black" cx="603.536" cy="-162" rx="173.941" ry="18"/>
<text text-anchor="middle" x="603.536" y="-158.5" font-family="Times New Roman,serif" font-size="15.00">Receive Result Appeal from Prefecture</text>
</g>
<!-- 3102651738384&#45;&#45;3102651740064 -->
<g id="edge8" class="edge"><title>3102651738384&#45;&#45;3102651740064</title>
<path fill="none" stroke="black" d="M551.532,-218.155C562.052,-206.998 576.479,-191.696 587.469,-180.04"/>
</g>
<!-- 3102651737184 -->
<g id="node15" class="node"><title>3102651737184</title>
<ellipse fill="black" stroke="black" cx="797.536" cy="-162" rx="2.7" ry="2.7"/>
</g>
<!-- 3102651739392&#45;&#45;3102651737184 -->
<g id="edge10" class="edge"><title>3102651739392&#45;&#45;3102651737184</title>
<path fill="none" stroke="black" d="M797.536,-215.697C797.536,-197.883 797.536,-171.769 797.536,-164.776"/>
</g>
<!-- 3102651737952 -->
<g id="node16" class="node"><title>3102651737952</title>
<ellipse fill="none" stroke="black" cx="966.536" cy="-162" rx="148.91" ry="18"/>
<text text-anchor="middle" x="966.536" y="-158.5" font-family="Times New Roman,serif" font-size="15.00">Notify Result Appeal to Offender</text>
</g>
<!-- 3102651739392&#45;&#45;3102651737952 -->
<g id="edge11" class="edge"><title>3102651739392&#45;&#45;3102651737952</title>
<path fill="none" stroke="black" d="M819.977,-223.705C847.183,-212.436 893.516,-193.245 926.81,-179.454"/>
</g>
<!-- 3102652313072 -->
<g id="node18" class="node"><title>3102652313072</title>
<ellipse fill="none" stroke="black" cx="985.536" cy="-306" rx="46.6143" ry="18"/>
<text text-anchor="middle" x="985.536" y="-302.5" font-family="Times New Roman,serif" font-size="15.00">xor loop</text>
</g>
<!-- 3102652311152&#45;&#45;3102652313072 -->
<g id="edge17" class="edge"><title>3102652311152&#45;&#45;3102652313072</title>
<path fill="none" stroke="black" d="M985.536,-359.697C985.536,-348.846 985.536,-334.917 985.536,-324.104"/>
</g>
<!-- 3102652312688 -->
<g id="node21" class="node"><title>3102652312688</title>
<ellipse fill="none" stroke="black" cx="1176.54" cy="-306" rx="27" ry="18"/>
<text text-anchor="middle" x="1176.54" y="-302.5" font-family="Times New Roman,serif" font-size="15.00">xor</text>
</g>
<!-- 3102652311152&#45;&#45;3102652312688 -->
<g id="edge30" class="edge"><title>3102652311152&#45;&#45;3102652312688</title>
<path fill="none" stroke="black" d="M1008.57,-368.556C1045.29,-355.102 1116.65,-328.947 1153.41,-315.474"/>
</g>
<!-- 3102652311008 -->
<g id="node19" class="node"><title>3102652311008</title>
<ellipse fill="black" stroke="black" cx="952.536" cy="-234" rx="2.7" ry="2.7"/>
</g>
<!-- 3102652313072&#45;&#45;3102652311008 -->
<g id="edge15" class="edge"><title>3102652313072&#45;&#45;3102652311008</title>
<path fill="none" stroke="black" d="M977.547,-288.055C969.154,-270.252 956.715,-243.865 953.382,-236.796"/>
</g>
<!-- 3102652309760 -->
<g id="node20" class="node"><title>3102652309760</title>
<ellipse fill="none" stroke="black" cx="1019.54" cy="-234" rx="45.7249" ry="18"/>
<text text-anchor="middle" x="1019.54" y="-230.5" font-family="Times New Roman,serif" font-size="15.00">Payment</text>
</g>
<!-- 3102652313072&#45;&#45;3102652309760 -->
<g id="edge16" class="edge"><title>3102652313072&#45;&#45;3102652309760</title>
<path fill="none" stroke="black" d="M993.766,-288.055C999.112,-277.049 1006.05,-262.764 1011.38,-251.789"/>
</g>
<!-- 3102651739728 -->
<g id="node22" class="node"><title>3102651739728</title>
<ellipse fill="black" stroke="black" cx="1139.54" cy="-234" rx="2.7" ry="2.7"/>
</g>
<!-- 3102652312688&#45;&#45;3102651739728 -->
<g id="edge18" class="edge"><title>3102652312688&#45;&#45;3102651739728</title>
<path fill="none" stroke="black" d="M1167.95,-288.765C1158.56,-270.994 1144.32,-244.06 1140.51,-236.836"/>
</g>
<!-- 3102651740112 -->
<g id="node23" class="node"><title>3102651740112</title>
<ellipse fill="none" stroke="black" cx="1213.54" cy="-234" rx="52.6228" ry="18"/>
<text text-anchor="middle" x="1213.54" y="-230.5" font-family="Times New Roman,serif" font-size="15.00">Send Fine</text>
</g>
<!-- 3102652312688&#45;&#45;3102651740112 -->
<g id="edge19" class="edge"><title>3102652312688&#45;&#45;3102651740112</title>
<path fill="none" stroke="black" d="M1185.12,-288.765C1190.92,-277.779 1198.58,-263.292 1204.48,-252.124"/>
</g>
<!-- 3102651739968 -->
<g id="node24" class="node"><title>3102651739968</title>
<ellipse fill="none" stroke="black" cx="1338.54" cy="-234" rx="27" ry="18"/>
<text text-anchor="middle" x="1338.54" y="-230.5" font-family="Times New Roman,serif" font-size="15.00">seq</text>
</g>
<!-- 3102652312688&#45;&#45;3102651739968 -->
<g id="edge29" class="edge"><title>3102652312688&#45;&#45;3102651739968</title>
<path fill="none" stroke="black" d="M1198.72,-295.414C1229.66,-282.046 1285.43,-257.948 1316.36,-244.583"/>
</g>
<!-- 3102651738672 -->
<g id="node25" class="node"><title>3102651738672</title>
<ellipse fill="none" stroke="black" cx="1186.54" cy="-162" rx="52.6228" ry="18"/>
<text text-anchor="middle" x="1186.54" y="-158.5" font-family="Times New Roman,serif" font-size="15.00">Send Fine</text>
</g>
<!-- 3102651739968&#45;&#45;3102651738672 -->
<g id="edge20" class="edge"><title>3102651739968&#45;&#45;3102651738672</title>
<path fill="none" stroke="black" d="M1316.76,-222.971C1290.49,-210.873 1246.19,-190.472 1216.66,-176.872"/>
</g>
<!-- 3102651737280 -->
<g id="node26" class="node"><title>3102651737280</title>
<ellipse fill="none" stroke="black" cx="1365.54" cy="-162" rx="107.914" ry="18"/>
<text text-anchor="middle" x="1365.54" y="-158.5" font-family="Times New Roman,serif" font-size="15.00">Insert Fine Notification</text>
</g>
<!-- 3102651739968&#45;&#45;3102651737280 -->
<g id="edge21" class="edge"><title>3102651739968&#45;&#45;3102651737280</title>
<path fill="none" stroke="black" d="M1344.93,-216.411C1349.11,-205.576 1354.56,-191.45 1358.81,-180.447"/>
</g>
<!-- 3102651740016 -->
<g id="node27" class="node"><title>3102651740016</title>
<ellipse fill="none" stroke="black" cx="1518.54" cy="-162" rx="27" ry="18"/>
<text text-anchor="middle" x="1518.54" y="-158.5" font-family="Times New Roman,serif" font-size="15.00">and</text>
</g>
<!-- 3102651739968&#45;&#45;3102651740016 -->
<g id="edge28" class="edge"><title>3102651739968&#45;&#45;3102651740016</title>
<path fill="none" stroke="black" d="M1361.33,-224.134C1395.86,-210.706 1461.05,-185.355 1495.64,-171.904"/>
</g>
<!-- 3102651738816 -->
<g id="node28" class="node"><title>3102651738816</title>
<ellipse fill="none" stroke="black" cx="1468.54" cy="-90" rx="27" ry="18"/>
<text text-anchor="middle" x="1468.54" y="-86.5" font-family="Times New Roman,serif" font-size="15.00">xor</text>
</g>
<!-- 3102651740016&#45;&#45;3102651738816 -->
<g id="edge24" class="edge"><title>3102651740016&#45;&#45;3102651738816</title>
<path fill="none" stroke="black" d="M1507.44,-145.465C1499.15,-133.865 1487.88,-118.082 1479.6,-106.492"/>
</g>
<!-- 3102651738864 -->
<g id="node31" class="node"><title>3102651738864</title>
<ellipse fill="none" stroke="black" cx="1567.54" cy="-90" rx="46.6143" ry="18"/>
<text text-anchor="middle" x="1567.54" y="-86.5" font-family="Times New Roman,serif" font-size="15.00">xor loop</text>
</g>
<!-- 3102651740016&#45;&#45;3102651738864 -->
<g id="edge27" class="edge"><title>3102651740016&#45;&#45;3102651738864</title>
<path fill="none" stroke="black" d="M1529.41,-145.465C1537.3,-134.187 1547.97,-118.955 1556.01,-107.467"/>
</g>
<!-- 3102651737472 -->
<g id="node29" class="node"><title>3102651737472</title>
<ellipse fill="black" stroke="black" cx="1369.54" cy="-18" rx="2.7" ry="2.7"/>
</g>
<!-- 3102651738816&#45;&#45;3102651737472 -->
<g id="edge22" class="edge"><title>3102651738816&#45;&#45;3102651737472</title>
<path fill="none" stroke="black" d="M1450.38,-76.1609C1424.92,-58.1628 1380.68,-26.8831 1371.31,-20.2559"/>
</g>
<!-- 3102651739920 -->
<g id="node30" class="node"><title>3102651739920</title>
<ellipse fill="none" stroke="black" cx="1468.54" cy="-18" rx="78.5434" ry="18"/>
<text text-anchor="middle" x="1468.54" y="-14.5" font-family="Times New Roman,serif" font-size="15.00">Appeal to Judge</text>
</g>
<!-- 3102651738816&#45;&#45;3102651739920 -->
<g id="edge23" class="edge"><title>3102651738816&#45;&#45;3102651739920</title>
<path fill="none" stroke="black" d="M1468.54,-71.6966C1468.54,-60.8463 1468.54,-46.9167 1468.54,-36.1043"/>
</g>
<!-- 3102651739440 -->
<g id="node32" class="node"><title>3102651739440</title>
<ellipse fill="black" stroke="black" cx="1567.54" cy="-18" rx="2.7" ry="2.7"/>
</g>
<!-- 3102651738864&#45;&#45;3102651739440 -->
<g id="edge25" class="edge"><title>3102651738864&#45;&#45;3102651739440</title>
<path fill="none" stroke="black" d="M1567.54,-71.6966C1567.54,-53.8826 1567.54,-27.7686 1567.54,-20.7764"/>
</g>
<!-- 3102651739056 -->
<g id="node33" class="node"><title>3102651739056</title>
<ellipse fill="none" stroke="black" cx="1650.54" cy="-18" rx="61.6894" ry="18"/>
<text text-anchor="middle" x="1650.54" y="-14.5" font-family="Times New Roman,serif" font-size="15.00">Add penalty</text>
</g>
<!-- 3102651738864&#45;&#45;3102651739056 -->
<g id="edge26" class="edge"><title>3102651738864&#45;&#45;3102651739056</title>
<path fill="none" stroke="black" d="M1585.96,-73.4647C1599.42,-62.1062 1617.65,-46.7374 1631.3,-35.2216"/>
</g>
<!-- 3102651737424 -->
<g id="node35" class="node"><title>3102651737424</title>
<ellipse fill="black" stroke="black" cx="1045.54" cy="-378" rx="2.7" ry="2.7"/>
</g>
<!-- 3102651091744&#45;&#45;3102651737424 -->
<g id="edge33" class="edge"><title>3102651091744&#45;&#45;3102651737424</title>
<path fill="none" stroke="black" d="M1050.05,-431.697C1048.53,-413.883 1046.29,-387.769 1045.69,-380.776"/>
</g>
<!-- 3102651739584 -->
<g id="node36" class="node"><title>3102651739584</title>
<ellipse fill="none" stroke="black" cx="1187.54" cy="-378" rx="120.819" ry="18"/>
<text text-anchor="middle" x="1187.54" y="-374.5" font-family="Times New Roman,serif" font-size="15.00">Send for Credit Collection</text>
</g>
<!-- 3102651091744&#45;&#45;3102651739584 -->
<g id="edge34" class="edge"><title>3102651091744&#45;&#45;3102651739584</title>
<path fill="none" stroke="black" d="M1072.19,-438.369C1094.33,-426.971 1129.78,-408.729 1155.53,-395.471"/>
</g>
</g>
</svg>
