<?xml version="1.0" encoding="UTF-8" standalone="no"?>
<!DOCTYPE svg PUBLIC "-//W3C//DTD SVG 1.1//EN"
 "http://www.w3.org/Graphics/SVG/1.1/DTD/svg11.dtd">
<!-- Generated by graphviz version 2.38.0 (20140413.2041)
 -->
<!-- Title: pt Pages: 1 -->
<svg width="1438pt" height="548pt"
 viewBox="0.00 0.00 1438.37 548.00" xmlns="http://www.w3.org/2000/svg" xmlns:xlink="http://www.w3.org/1999/xlink">
<g id="graph0" class="graph" transform="scale(1 1) rotate(0) translate(4 544)">
<title>pt</title>
<!-- 3102647393584 -->
<g id="node1" class="node"><title>3102647393584</title>
<ellipse fill="none" stroke="black" cx="769.522" cy="-522" rx="27" ry="18"/>
<text text-anchor="middle" x="769.522" y="-518.5" font-family="Times New Roman,serif" font-size="15.00">seq</text>
</g>
<!-- 3102647394016 -->
<g id="node2" class="node"><title>3102647394016</title>
<ellipse fill="none" stroke="black" cx="664.522" cy="-450" rx="59.5207" ry="18"/>
<text text-anchor="middle" x="664.522" y="-446.5" font-family="Times New Roman,serif" font-size="15.00">Create Fine</text>
</g>
<!-- 3102647393584&#45;&#45;3102647394016 -->
<g id="edge1" class="edge"><title>3102647393584&#45;&#45;3102647394016</title>
<path fill="none" stroke="black" d="M750.75,-508.485C733.171,-496.767 706.845,-479.215 687.908,-466.591"/>
</g>
<!-- 3102647390656 -->
<g id="node3" class="node"><title>3102647390656</title>
<ellipse fill="none" stroke="black" cx="769.522" cy="-450" rx="27" ry="18"/>
<text text-anchor="middle" x="769.522" y="-446.5" font-family="Times New Roman,serif" font-size="15.00">and</text>
</g>
<!-- 3102647393584&#45;&#45;3102647390656 -->
<g id="edge34" class="edge"><title>3102647393584&#45;&#45;3102647390656</title>
<path fill="none" stroke="black" d="M769.522,-503.697C769.522,-492.846 769.522,-478.917 769.522,-468.104"/>
</g>
<!-- 3102647394064 -->
<g id="node36" class="node"><title>3102647394064</title>
<ellipse fill="none" stroke="black" cx="841.522" cy="-450" rx="27" ry="18"/>
<text text-anchor="middle" x="841.522" y="-446.5" font-family="Times New Roman,serif" font-size="15.00">xor</text>
</g>
<!-- 3102647393584&#45;&#45;3102647394064 -->
<g id="edge37" class="edge"><title>3102647393584&#45;&#45;3102647394064</title>
<path fill="none" stroke="black" d="M784.092,-506.834C796.501,-494.77 814.252,-477.512 826.726,-465.385"/>
</g>
<!-- 3102647394160 -->
<g id="node4" class="node"><title>3102647394160</title>
<ellipse fill="none" stroke="black" cx="630.522" cy="-378" rx="27" ry="18"/>
<text text-anchor="middle" x="630.522" y="-374.5" font-family="Times New Roman,serif" font-size="15.00">xor</text>
</g>
<!-- 3102647390656&#45;&#45;3102647394160 -->
<g id="edge16" class="edge"><title>3102647390656&#45;&#45;3102647394160</title>
<path fill="none" stroke="black" d="M748.712,-438.52C722.508,-425.324 677.745,-402.781 651.474,-389.551"/>
</g>
<!-- 3102647394112 -->
<g id="node19" class="node"><title>3102647394112</title>
<ellipse fill="none" stroke="black" cx="775.522" cy="-378" rx="27" ry="18"/>
<text text-anchor="middle" x="775.522" y="-374.5" font-family="Times New Roman,serif" font-size="15.00">and</text>
</g>
<!-- 3102647390656&#45;&#45;3102647394112 -->
<g id="edge33" class="edge"><title>3102647390656&#45;&#45;3102647394112</title>
<path fill="none" stroke="black" d="M771.005,-431.697C771.935,-420.846 773.129,-406.917 774.056,-396.104"/>
</g>
<!-- 3102463723456 -->
<g id="node5" class="node"><title>3102463723456</title>
<ellipse fill="black" stroke="black" cx="563.522" cy="-306" rx="2.7" ry="2.7"/>
</g>
<!-- 3102647394160&#45;&#45;3102463723456 -->
<g id="edge2" class="edge"><title>3102647394160&#45;&#45;3102463723456</title>
<path fill="none" stroke="black" d="M616.639,-362.496C599.468,-344.555 571.678,-315.522 564.999,-308.544"/>
</g>
<!-- 3102463723696 -->
<g id="node6" class="node"><title>3102463723696</title>
<ellipse fill="none" stroke="black" cx="630.522" cy="-306" rx="46.6143" ry="18"/>
<text text-anchor="middle" x="630.522" y="-302.5" font-family="Times New Roman,serif" font-size="15.00">xor loop</text>
</g>
<!-- 3102647394160&#45;&#45;3102463723696 -->
<g id="edge15" class="edge"><title>3102647394160&#45;&#45;3102463723696</title>
<path fill="none" stroke="black" d="M630.522,-359.697C630.522,-348.846 630.522,-334.917 630.522,-324.104"/>
</g>
<!-- 3102463722688 -->
<g id="node7" class="node"><title>3102463722688</title>
<ellipse fill="none" stroke="black" cx="578.522" cy="-234" rx="27" ry="18"/>
<text text-anchor="middle" x="578.522" y="-230.5" font-family="Times New Roman,serif" font-size="15.00">xor</text>
</g>
<!-- 3102463723696&#45;&#45;3102463722688 -->
<g id="edge13" class="edge"><title>3102463723696&#45;&#45;3102463722688</title>
<path fill="none" stroke="black" d="M618.198,-288.411C609.669,-276.929 598.394,-261.751 590.044,-250.511"/>
</g>
<!-- 3102463723984 -->
<g id="node18" class="node"><title>3102463723984</title>
<ellipse fill="black" stroke="black" cx="630.522" cy="-234" rx="2.7" ry="2.7"/>
</g>
<!-- 3102463723696&#45;&#45;3102463723984 -->
<g id="edge14" class="edge"><title>3102463723696&#45;&#45;3102463723984</title>
<path fill="none" stroke="black" d="M630.522,-287.697C630.522,-269.883 630.522,-243.769 630.522,-236.776"/>
</g>
<!-- 3102463724368 -->
<g id="node8" class="node"><title>3102463724368</title>
<ellipse fill="none" stroke="black" cx="78.5217" cy="-162" rx="78.5434" ry="18"/>
<text text-anchor="middle" x="78.5217" y="-158.5" font-family="Times New Roman,serif" font-size="15.00">Appeal to Judge</text>
</g>
<!-- 3102463722688&#45;&#45;3102463724368 -->
<g id="edge3" class="edge"><title>3102463722688&#45;&#45;3102463724368</title>
<path fill="none" stroke="black" d="M552.344,-229.335C476.491,-218.716 254.913,-187.695 143.733,-172.13"/>
</g>
<!-- 3102463724944 -->
<g id="node9" class="node"><title>3102463724944</title>
<ellipse fill="none" stroke="black" cx="295.522" cy="-162" rx="120.43" ry="18"/>
<text text-anchor="middle" x="295.522" y="-158.5" font-family="Times New Roman,serif" font-size="15.00">Send Appeal to Prefecture</text>
</g>
<!-- 3102463722688&#45;&#45;3102463724944 -->
<g id="edge4" class="edge"><title>3102463722688&#45;&#45;3102463724944</title>
<path fill="none" stroke="black" d="M553.407,-226.788C509.172,-215.846 416.249,-192.862 354.872,-177.68"/>
</g>
<!-- 3102463721584 -->
<g id="node10" class="node"><title>3102463721584</title>
<ellipse fill="none" stroke="black" cx="578.522" cy="-162" rx="144.571" ry="18"/>
<text text-anchor="middle" x="578.522" y="-158.5" font-family="Times New Roman,serif" font-size="15.00">Insert Date Appeal to Prefecture</text>
</g>
<!-- 3102463722688&#45;&#45;3102463721584 -->
<g id="edge5" class="edge"><title>3102463722688&#45;&#45;3102463721584</title>
<path fill="none" stroke="black" d="M578.522,-215.697C578.522,-204.846 578.522,-190.917 578.522,-180.104"/>
</g>
<!-- 3102463724656 -->
<g id="node11" class="node"><title>3102463724656</title>
<ellipse fill="none" stroke="black" cx="768.522" cy="-162" rx="27" ry="18"/>
<text text-anchor="middle" x="768.522" y="-158.5" font-family="Times New Roman,serif" font-size="15.00">seq</text>
</g>
<!-- 3102463722688&#45;&#45;3102463724656 -->
<g id="edge12" class="edge"><title>3102463722688&#45;&#45;3102463724656</title>
<path fill="none" stroke="black" d="M601.819,-224.417C638.385,-210.945 708.832,-184.991 745.331,-171.544"/>
</g>
<!-- 3102463724704 -->
<g id="node12" class="node"><title>3102463724704</title>
<ellipse fill="none" stroke="black" cx="597.522" cy="-90" rx="27" ry="18"/>
<text text-anchor="middle" x="597.522" y="-86.5" font-family="Times New Roman,serif" font-size="15.00">xor</text>
</g>
<!-- 3102463724656&#45;&#45;3102463724704 -->
<g id="edge8" class="edge"><title>3102463724656&#45;&#45;3102463724704</title>
<path fill="none" stroke="black" d="M746.166,-151.849C713.394,-138.433 652.658,-113.57 619.882,-100.154"/>
</g>
<!-- 3102463724080 -->
<g id="node15" class="node"><title>3102463724080</title>
<ellipse fill="none" stroke="black" cx="791.522" cy="-90" rx="27" ry="18"/>
<text text-anchor="middle" x="791.522" y="-86.5" font-family="Times New Roman,serif" font-size="15.00">xor</text>
</g>
<!-- 3102463724656&#45;&#45;3102463724080 -->
<g id="edge11" class="edge"><title>3102463724656&#45;&#45;3102463724080</title>
<path fill="none" stroke="black" d="M774.089,-144.055C777.706,-133.049 782.399,-118.764 786.005,-107.789"/>
</g>
<!-- 3102463722784 -->
<g id="node13" class="node"><title>3102463722784</title>
<ellipse fill="none" stroke="black" cx="257.522" cy="-18" rx="148.91" ry="18"/>
<text text-anchor="middle" x="257.522" y="-14.5" font-family="Times New Roman,serif" font-size="15.00">Notify Result Appeal to Offender</text>
</g>
<!-- 3102463724704&#45;&#45;3102463722784 -->
<g id="edge6" class="edge"><title>3102463724704&#45;&#45;3102463722784</title>
<path fill="none" stroke="black" d="M571.966,-83.7386C521.08,-73.262 405.459,-49.4576 329.499,-33.8188"/>
</g>
<!-- 3102463722544 -->
<g id="node14" class="node"><title>3102463722544</title>
<ellipse fill="none" stroke="black" cx="597.522" cy="-18" rx="173.941" ry="18"/>
<text text-anchor="middle" x="597.522" y="-14.5" font-family="Times New Roman,serif" font-size="15.00">Receive Result Appeal from Prefecture</text>
</g>
<!-- 3102463724704&#45;&#45;3102463722544 -->
<g id="edge7" class="edge"><title>3102463724704&#45;&#45;3102463722544</title>
<path fill="none" stroke="black" d="M597.522,-71.6966C597.522,-60.8463 597.522,-46.9167 597.522,-36.1043"/>
</g>
<!-- 3102463722352 -->
<g id="node16" class="node"><title>3102463722352</title>
<ellipse fill="black" stroke="black" cx="791.522" cy="-18" rx="2.7" ry="2.7"/>
</g>
<!-- 3102463724080&#45;&#45;3102463722352 -->
<g id="edge9" class="edge"><title>3102463724080&#45;&#45;3102463722352</title>
<path fill="none" stroke="black" d="M791.522,-71.6966C791.522,-53.8826 791.522,-27.7686 791.522,-20.7764"/>
</g>
<!-- 3102463722160 -->
<g id="node17" class="node"><title>3102463722160</title>
<ellipse fill="none" stroke="black" cx="933.522" cy="-18" rx="120.819" ry="18"/>
<text text-anchor="middle" x="933.522" y="-14.5" font-family="Times New Roman,serif" font-size="15.00">Send for Credit Collection</text>
</g>
<!-- 3102463724080&#45;&#45;3102463722160 -->
<g id="edge10" class="edge"><title>3102463724080&#45;&#45;3102463722160</title>
<path fill="none" stroke="black" d="M812.781,-78.5203C835.914,-67.1164 873.206,-48.7333 900.23,-35.4115"/>
</g>
<!-- 3102463725232 -->
<g id="node20" class="node"><title>3102463725232</title>
<ellipse fill="none" stroke="black" cx="775.522" cy="-306" rx="46.6143" ry="18"/>
<text text-anchor="middle" x="775.522" y="-302.5" font-family="Times New Roman,serif" font-size="15.00">xor loop</text>
</g>
<!-- 3102647394112&#45;&#45;3102463725232 -->
<g id="edge19" class="edge"><title>3102647394112&#45;&#45;3102463725232</title>
<path fill="none" stroke="black" d="M775.522,-359.697C775.522,-348.846 775.522,-334.917 775.522,-324.104"/>
</g>
<!-- 3102463723216 -->
<g id="node23" class="node"><title>3102463723216</title>
<ellipse fill="none" stroke="black" cx="897.522" cy="-306" rx="27" ry="18"/>
<text text-anchor="middle" x="897.522" y="-302.5" font-family="Times New Roman,serif" font-size="15.00">xor</text>
</g>
<!-- 3102647394112&#45;&#45;3102463723216 -->
<g id="edge32" class="edge"><title>3102647394112&#45;&#45;3102463723216</title>
<path fill="none" stroke="black" d="M795.395,-365.597C818.081,-352.581 854.974,-331.413 877.657,-318.398"/>
</g>
<!-- 3102463723408 -->
<g id="node21" class="node"><title>3102463723408</title>
<ellipse fill="black" stroke="black" cx="710.522" cy="-234" rx="2.7" ry="2.7"/>
</g>
<!-- 3102463725232&#45;&#45;3102463723408 -->
<g id="edge17" class="edge"><title>3102463725232&#45;&#45;3102463723408</title>
<path fill="none" stroke="black" d="M760.446,-288.765C743.645,-270.671 718.022,-243.078 711.879,-236.462"/>
</g>
<!-- 3102463724512 -->
<g id="node22" class="node"><title>3102463724512</title>
<ellipse fill="none" stroke="black" cx="777.522" cy="-234" rx="45.7249" ry="18"/>
<text text-anchor="middle" x="777.522" y="-230.5" font-family="Times New Roman,serif" font-size="15.00">Payment</text>
</g>
<!-- 3102463725232&#45;&#45;3102463724512 -->
<g id="edge18" class="edge"><title>3102463725232&#45;&#45;3102463724512</title>
<path fill="none" stroke="black" d="M776.016,-287.697C776.326,-276.846 776.724,-262.917 777.033,-252.104"/>
</g>
<!-- 3102463721680 -->
<g id="node24" class="node"><title>3102463721680</title>
<ellipse fill="black" stroke="black" cx="853.522" cy="-234" rx="2.7" ry="2.7"/>
</g>
<!-- 3102463723216&#45;&#45;3102463721680 -->
<g id="edge20" class="edge"><title>3102463723216&#45;&#45;3102463721680</title>
<path fill="none" stroke="black" d="M887.537,-289.116C876.381,-271.367 859.278,-244.158 854.689,-236.857"/>
</g>
<!-- 3102463722112 -->
<g id="node25" class="node"><title>3102463722112</title>
<ellipse fill="none" stroke="black" cx="927.522" cy="-234" rx="52.6228" ry="18"/>
<text text-anchor="middle" x="927.522" y="-230.5" font-family="Times New Roman,serif" font-size="15.00">Send Fine</text>
</g>
<!-- 3102463723216&#45;&#45;3102463722112 -->
<g id="edge21" class="edge"><title>3102463723216&#45;&#45;3102463722112</title>
<path fill="none" stroke="black" d="M904.631,-288.411C909.344,-277.414 915.51,-263.027 920.255,-251.956"/>
</g>
<!-- 3102463723120 -->
<g id="node26" class="node"><title>3102463723120</title>
<ellipse fill="none" stroke="black" cx="1042.52" cy="-234" rx="27" ry="18"/>
<text text-anchor="middle" x="1042.52" y="-230.5" font-family="Times New Roman,serif" font-size="15.00">seq</text>
</g>
<!-- 3102463723216&#45;&#45;3102463723120 -->
<g id="edge31" class="edge"><title>3102463723216&#45;&#45;3102463723120</title>
<path fill="none" stroke="black" d="M918.917,-294.671C946.332,-281.437 993.582,-258.626 1021.04,-245.371"/>
</g>
<!-- 3102463724464 -->
<g id="node27" class="node"><title>3102463724464</title>
<ellipse fill="none" stroke="black" cx="866.522" cy="-162" rx="52.6228" ry="18"/>
<text text-anchor="middle" x="866.522" y="-158.5" font-family="Times New Roman,serif" font-size="15.00">Send Fine</text>
</g>
<!-- 3102463723120&#45;&#45;3102463724464 -->
<g id="edge22" class="edge"><title>3102463723120&#45;&#45;3102463724464</title>
<path fill="none" stroke="black" d="M1019.87,-223.992C989.328,-211.844 934.719,-190.124 899.583,-176.149"/>
</g>
<!-- 3102463724848 -->
<g id="node28" class="node"><title>3102463724848</title>
<ellipse fill="none" stroke="black" cx="1045.52" cy="-162" rx="107.914" ry="18"/>
<text text-anchor="middle" x="1045.52" y="-158.5" font-family="Times New Roman,serif" font-size="15.00">Insert Fine Notification</text>
</g>
<!-- 3102463723120&#45;&#45;3102463724848 -->
<g id="edge23" class="edge"><title>3102463723120&#45;&#45;3102463724848</title>
<path fill="none" stroke="black" d="M1043.26,-215.697C1043.73,-204.846 1044.33,-190.917 1044.79,-180.104"/>
</g>
<!-- 3102463723504 -->
<g id="node29" class="node"><title>3102463723504</title>
<ellipse fill="none" stroke="black" cx="1198.52" cy="-162" rx="27" ry="18"/>
<text text-anchor="middle" x="1198.52" y="-158.5" font-family="Times New Roman,serif" font-size="15.00">and</text>
</g>
<!-- 3102463723120&#45;&#45;3102463723504 -->
<g id="edge30" class="edge"><title>3102463723120&#45;&#45;3102463723504</title>
<path fill="none" stroke="black" d="M1064.21,-223.267C1093.93,-209.931 1147.01,-186.115 1176.76,-172.763"/>
</g>
<!-- 3102463725280 -->
<g id="node30" class="node"><title>3102463725280</title>
<ellipse fill="none" stroke="black" cx="1186.52" cy="-90" rx="27" ry="18"/>
<text text-anchor="middle" x="1186.52" y="-86.5" font-family="Times New Roman,serif" font-size="15.00">xor</text>
</g>
<!-- 3102463723504&#45;&#45;3102463725280 -->
<g id="edge26" class="edge"><title>3102463723504&#45;&#45;3102463725280</title>
<path fill="none" stroke="black" d="M1195.62,-144.055C1193.76,-133.211 1191.35,-119.183 1189.48,-108.275"/>
</g>
<!-- 3102463723840 -->
<g id="node33" class="node"><title>3102463723840</title>
<ellipse fill="none" stroke="black" cx="1285.52" cy="-90" rx="46.6143" ry="18"/>
<text text-anchor="middle" x="1285.52" y="-86.5" font-family="Times New Roman,serif" font-size="15.00">xor loop</text>
</g>
<!-- 3102463723504&#45;&#45;3102463723840 -->
<g id="edge29" class="edge"><title>3102463723504&#45;&#45;3102463723840</title>
<path fill="none" stroke="black" d="M1215.3,-147.503C1229.81,-135.823 1250.81,-118.926 1266.06,-106.655"/>
</g>
<!-- 3102463724560 -->
<g id="node31" class="node"><title>3102463724560</title>
<ellipse fill="black" stroke="black" cx="1087.52" cy="-18" rx="2.7" ry="2.7"/>
</g>
<!-- 3102463725280&#45;&#45;3102463724560 -->
<g id="edge24" class="edge"><title>3102463725280&#45;&#45;3102463724560</title>
<path fill="none" stroke="black" d="M1168.36,-76.1609C1142.91,-58.1628 1098.67,-26.8831 1089.3,-20.2559"/>
</g>
<!-- 3102632207504 -->
<g id="node32" class="node"><title>3102632207504</title>
<ellipse fill="none" stroke="black" cx="1186.52" cy="-18" rx="78.5434" ry="18"/>
<text text-anchor="middle" x="1186.52" y="-14.5" font-family="Times New Roman,serif" font-size="15.00">Appeal to Judge</text>
</g>
<!-- 3102463725280&#45;&#45;3102632207504 -->
<g id="edge25" class="edge"><title>3102463725280&#45;&#45;3102632207504</title>
<path fill="none" stroke="black" d="M1186.52,-71.6966C1186.52,-60.8463 1186.52,-46.9167 1186.52,-36.1043"/>
</g>
<!-- 3102642089552 -->
<g id="node34" class="node"><title>3102642089552</title>
<ellipse fill="black" stroke="black" cx="1285.52" cy="-18" rx="2.7" ry="2.7"/>
</g>
<!-- 3102463723840&#45;&#45;3102642089552 -->
<g id="edge27" class="edge"><title>3102463723840&#45;&#45;3102642089552</title>
<path fill="none" stroke="black" d="M1285.52,-71.6966C1285.52,-53.8826 1285.52,-27.7686 1285.52,-20.7764"/>
</g>
<!-- 3102642089792 -->
<g id="node35" class="node"><title>3102642089792</title>
<ellipse fill="none" stroke="black" cx="1368.52" cy="-18" rx="61.6894" ry="18"/>
<text text-anchor="middle" x="1368.52" y="-14.5" font-family="Times New Roman,serif" font-size="15.00">Add penalty</text>
</g>
<!-- 3102463723840&#45;&#45;3102642089792 -->
<g id="edge28" class="edge"><title>3102463723840&#45;&#45;3102642089792</title>
<path fill="none" stroke="black" d="M1303.94,-73.4647C1317.41,-62.1062 1335.63,-46.7374 1349.29,-35.2216"/>
</g>
<!-- 3102463722208 -->
<g id="node37" class="node"><title>3102463722208</title>
<ellipse fill="black" stroke="black" cx="835.522" cy="-378" rx="2.7" ry="2.7"/>
</g>
<!-- 3102647394064&#45;&#45;3102463722208 -->
<g id="edge35" class="edge"><title>3102647394064&#45;&#45;3102463722208</title>
<path fill="none" stroke="black" d="M840.039,-431.697C838.512,-413.883 836.273,-387.769 835.674,-380.776"/>
</g>
<!-- 3102463723312 -->
<g id="node38" class="node"><title>3102463723312</title>
<ellipse fill="none" stroke="black" cx="977.522" cy="-378" rx="120.819" ry="18"/>
<text text-anchor="middle" x="977.522" y="-374.5" font-family="Times New Roman,serif" font-size="15.00">Send for Credit Collection</text>
</g>
<!-- 3102647394064&#45;&#45;3102463723312 -->
<g id="edge36" class="edge"><title>3102647394064&#45;&#45;3102463723312</title>
<path fill="none" stroke="black" d="M862.177,-438.369C884.321,-426.971 919.762,-408.729 945.52,-395.471"/>
</g>
</g>
</svg>
