<?xml version="1.0" encoding="UTF-8" standalone="no"?>
<!DOCTYPE svg PUBLIC "-//W3C//DTD SVG 1.1//EN"
 "http://www.w3.org/Graphics/SVG/1.1/DTD/svg11.dtd">
<!-- Generated by graphviz version 2.38.0 (20140413.2041)
 -->
<!-- Title: pt Pages: 1 -->
<svg width="2249pt" height="620pt"
 viewBox="0.00 0.00 2248.67 620.00" xmlns="http://www.w3.org/2000/svg" xmlns:xlink="http://www.w3.org/1999/xlink">
<g id="graph0" class="graph" transform="scale(1 1) rotate(0) translate(4 616)">
<title>pt</title>
<!-- 3102655033600 -->
<g id="node1" class="node"><title>3102655033600</title>
<ellipse fill="none" stroke="black" cx="409.811" cy="-594" rx="27" ry="18"/>
<text text-anchor="middle" x="409.811" y="-590.5" font-family="Times New Roman,serif" font-size="15.00">and</text>
</g>
<!-- 3102655034080 -->
<g id="node2" class="node"><title>3102655034080</title>
<ellipse fill="none" stroke="black" cx="210.811" cy="-522" rx="27" ry="18"/>
<text text-anchor="middle" x="210.811" y="-518.5" font-family="Times New Roman,serif" font-size="15.00">xor</text>
</g>
<!-- 3102655033600&#45;&#45;3102655034080 -->
<g id="edge19" class="edge"><title>3102655033600&#45;&#45;3102655034080</title>
<path fill="none" stroke="black" d="M386.202,-584.695C347.799,-571.187 272.265,-544.617 234.082,-531.186"/>
</g>
<!-- 3102655034224 -->
<g id="node21" class="node"><title>3102655034224</title>
<ellipse fill="none" stroke="black" cx="633.811" cy="-522" rx="27" ry="18"/>
<text text-anchor="middle" x="633.811" y="-518.5" font-family="Times New Roman,serif" font-size="15.00">seq</text>
</g>
<!-- 3102655033600&#45;&#45;3102655034224 -->
<g id="edge62" class="edge"><title>3102655033600&#45;&#45;3102655034224</title>
<path fill="none" stroke="black" d="M433.783,-585.509C476.784,-572.071 566.552,-544.018 609.673,-530.543"/>
</g>
<!-- 3102464184480 -->
<g id="node3" class="node"><title>3102464184480</title>
<ellipse fill="black" stroke="black" cx="162.811" cy="-450" rx="2.7" ry="2.7"/>
</g>
<!-- 3102655034080&#45;&#45;3102464184480 -->
<g id="edge1" class="edge"><title>3102655034080&#45;&#45;3102464184480</title>
<path fill="none" stroke="black" d="M199.919,-505.116C187.749,-487.367 169.091,-460.158 164.084,-452.857"/>
</g>
<!-- 3102464185488 -->
<g id="node4" class="node"><title>3102464185488</title>
<ellipse fill="none" stroke="black" cx="210.811" cy="-450" rx="27" ry="18"/>
<text text-anchor="middle" x="210.811" y="-446.5" font-family="Times New Roman,serif" font-size="15.00">and</text>
</g>
<!-- 3102655034080&#45;&#45;3102464185488 -->
<g id="edge18" class="edge"><title>3102655034080&#45;&#45;3102464185488</title>
<path fill="none" stroke="black" d="M210.811,-503.697C210.811,-492.846 210.811,-478.917 210.811,-468.104"/>
</g>
<!-- 3102464185392 -->
<g id="node5" class="node"><title>3102464185392</title>
<ellipse fill="none" stroke="black" cx="69.8111" cy="-378" rx="46.6143" ry="18"/>
<text text-anchor="middle" x="69.8111" y="-374.5" font-family="Times New Roman,serif" font-size="15.00">xor loop</text>
</g>
<!-- 3102464185488&#45;&#45;3102464185392 -->
<g id="edge4" class="edge"><title>3102464185488&#45;&#45;3102464185392</title>
<path fill="none" stroke="black" d="M189.702,-438.52C165.118,-426.316 124.432,-406.117 97.3739,-392.684"/>
</g>
<!-- 3102464186736 -->
<g id="node8" class="node"><title>3102464186736</title>
<ellipse fill="none" stroke="black" cx="210.811" cy="-378" rx="27" ry="18"/>
<text text-anchor="middle" x="210.811" y="-374.5" font-family="Times New Roman,serif" font-size="15.00">xor</text>
</g>
<!-- 3102464185488&#45;&#45;3102464186736 -->
<g id="edge17" class="edge"><title>3102464185488&#45;&#45;3102464186736</title>
<path fill="none" stroke="black" d="M210.811,-431.697C210.811,-420.846 210.811,-406.917 210.811,-396.104"/>
</g>
<!-- 3102464184528 -->
<g id="node6" class="node"><title>3102464184528</title>
<ellipse fill="black" stroke="black" cx="2.81105" cy="-306" rx="2.7" ry="2.7"/>
</g>
<!-- 3102464185392&#45;&#45;3102464184528 -->
<g id="edge2" class="edge"><title>3102464185392&#45;&#45;3102464184528</title>
<path fill="none" stroke="black" d="M54.2715,-360.765C36.9531,-342.671 10.5425,-315.078 4.21044,-308.462"/>
</g>
<!-- 3102464186592 -->
<g id="node7" class="node"><title>3102464186592</title>
<ellipse fill="none" stroke="black" cx="69.8111" cy="-306" rx="45.7249" ry="18"/>
<text text-anchor="middle" x="69.8111" y="-302.5" font-family="Times New Roman,serif" font-size="15.00">Payment</text>
</g>
<!-- 3102464185392&#45;&#45;3102464186592 -->
<g id="edge3" class="edge"><title>3102464185392&#45;&#45;3102464186592</title>
<path fill="none" stroke="black" d="M69.8111,-359.697C69.8111,-348.846 69.8111,-334.917 69.8111,-324.104"/>
</g>
<!-- 3102649779152 -->
<g id="node9" class="node"><title>3102649779152</title>
<ellipse fill="black" stroke="black" cx="136.811" cy="-306" rx="2.7" ry="2.7"/>
</g>
<!-- 3102464186736&#45;&#45;3102649779152 -->
<g id="edge5" class="edge"><title>3102464186736&#45;&#45;3102649779152</title>
<path fill="none" stroke="black" d="M195.836,-362.834C176.916,-344.937 145.915,-315.612 138.46,-308.56"/>
</g>
<!-- 3102623925296 -->
<g id="node10" class="node"><title>3102623925296</title>
<ellipse fill="none" stroke="black" cx="210.811" cy="-306" rx="52.6228" ry="18"/>
<text text-anchor="middle" x="210.811" y="-302.5" font-family="Times New Roman,serif" font-size="15.00">Send Fine</text>
</g>
<!-- 3102464186736&#45;&#45;3102623925296 -->
<g id="edge6" class="edge"><title>3102464186736&#45;&#45;3102623925296</title>
<path fill="none" stroke="black" d="M210.811,-359.697C210.811,-348.846 210.811,-334.917 210.811,-324.104"/>
</g>
<!-- 3102654952544 -->
<g id="node11" class="node"><title>3102654952544</title>
<ellipse fill="none" stroke="black" cx="308.811" cy="-306" rx="27" ry="18"/>
<text text-anchor="middle" x="308.811" y="-302.5" font-family="Times New Roman,serif" font-size="15.00">seq</text>
</g>
<!-- 3102464186736&#45;&#45;3102654952544 -->
<g id="edge16" class="edge"><title>3102464186736&#45;&#45;3102654952544</title>
<path fill="none" stroke="black" d="M228.786,-364.161C246.468,-351.531 273.307,-332.36 290.95,-319.758"/>
</g>
<!-- 3102654952976 -->
<g id="node12" class="node"><title>3102654952976</title>
<ellipse fill="none" stroke="black" cx="52.8111" cy="-234" rx="52.6228" ry="18"/>
<text text-anchor="middle" x="52.8111" y="-230.5" font-family="Times New Roman,serif" font-size="15.00">Send Fine</text>
</g>
<!-- 3102654952544&#45;&#45;3102654952976 -->
<g id="edge7" class="edge"><title>3102654952544&#45;&#45;3102654952976</title>
<path fill="none" stroke="black" d="M284.265,-298.288C239.963,-286.174 146.278,-260.557 92.6749,-245.9"/>
</g>
<!-- 3102654954176 -->
<g id="node13" class="node"><title>3102654954176</title>
<ellipse fill="none" stroke="black" cx="231.811" cy="-234" rx="107.914" ry="18"/>
<text text-anchor="middle" x="231.811" y="-230.5" font-family="Times New Roman,serif" font-size="15.00">Insert Fine Notification</text>
</g>
<!-- 3102654952544&#45;&#45;3102654954176 -->
<g id="edge8" class="edge"><title>3102654952544&#45;&#45;3102654954176</title>
<path fill="none" stroke="black" d="M293.229,-290.834C280.837,-279.569 263.463,-263.775 250.356,-251.859"/>
</g>
<!-- 3102654955424 -->
<g id="node14" class="node"><title>3102654955424</title>
<ellipse fill="none" stroke="black" cx="384.811" cy="-234" rx="27" ry="18"/>
<text text-anchor="middle" x="384.811" y="-230.5" font-family="Times New Roman,serif" font-size="15.00">and</text>
</g>
<!-- 3102654952544&#45;&#45;3102654955424 -->
<g id="edge15" class="edge"><title>3102654952544&#45;&#45;3102654955424</title>
<path fill="none" stroke="black" d="M324.191,-290.834C337.376,-278.69 356.275,-261.283 369.454,-249.144"/>
</g>
<!-- 3102654943088 -->
<g id="node15" class="node"><title>3102654943088</title>
<ellipse fill="none" stroke="black" cx="249.811" cy="-162" rx="27" ry="18"/>
<text text-anchor="middle" x="249.811" y="-158.5" font-family="Times New Roman,serif" font-size="15.00">xor</text>
</g>
<!-- 3102654955424&#45;&#45;3102654943088 -->
<g id="edge11" class="edge"><title>3102654955424&#45;&#45;3102654943088</title>
<path fill="none" stroke="black" d="M364.013,-222.216C338.57,-209.023 295.764,-186.827 270.411,-173.681"/>
</g>
<!-- 3102654942560 -->
<g id="node18" class="node"><title>3102654942560</title>
<ellipse fill="none" stroke="black" cx="384.811" cy="-162" rx="46.6143" ry="18"/>
<text text-anchor="middle" x="384.811" y="-158.5" font-family="Times New Roman,serif" font-size="15.00">xor loop</text>
</g>
<!-- 3102654955424&#45;&#45;3102654942560 -->
<g id="edge14" class="edge"><title>3102654955424&#45;&#45;3102654942560</title>
<path fill="none" stroke="black" d="M384.811,-215.697C384.811,-204.846 384.811,-190.917 384.811,-180.104"/>
</g>
<!-- 3102654939440 -->
<g id="node16" class="node"><title>3102654939440</title>
<ellipse fill="black" stroke="black" cx="150.811" cy="-90" rx="2.7" ry="2.7"/>
</g>
<!-- 3102654943088&#45;&#45;3102654939440 -->
<g id="edge9" class="edge"><title>3102654943088&#45;&#45;3102654939440</title>
<path fill="none" stroke="black" d="M231.653,-148.161C206.198,-130.163 161.96,-98.8831 152.587,-92.2559"/>
</g>
<!-- 3102654942752 -->
<g id="node17" class="node"><title>3102654942752</title>
<ellipse fill="none" stroke="black" cx="249.811" cy="-90" rx="78.5434" ry="18"/>
<text text-anchor="middle" x="249.811" y="-86.5" font-family="Times New Roman,serif" font-size="15.00">Appeal to Judge</text>
</g>
<!-- 3102654943088&#45;&#45;3102654942752 -->
<g id="edge10" class="edge"><title>3102654943088&#45;&#45;3102654942752</title>
<path fill="none" stroke="black" d="M249.811,-143.697C249.811,-132.846 249.811,-118.917 249.811,-108.104"/>
</g>
<!-- 3102654941792 -->
<g id="node19" class="node"><title>3102654941792</title>
<ellipse fill="black" stroke="black" cx="348.811" cy="-90" rx="2.7" ry="2.7"/>
</g>
<!-- 3102654942560&#45;&#45;3102654941792 -->
<g id="edge12" class="edge"><title>3102654942560&#45;&#45;3102654941792</title>
<path fill="none" stroke="black" d="M376.096,-144.055C366.94,-126.252 353.37,-99.8653 349.735,-92.7963"/>
</g>
<!-- 3102654942416 -->
<g id="node20" class="node"><title>3102654942416</title>
<ellipse fill="none" stroke="black" cx="431.811" cy="-90" rx="61.6894" ry="18"/>
<text text-anchor="middle" x="431.811" y="-86.5" font-family="Times New Roman,serif" font-size="15.00">Add penalty</text>
</g>
<!-- 3102654942560&#45;&#45;3102654942416 -->
<g id="edge13" class="edge"><title>3102654942560&#45;&#45;3102654942416</title>
<path fill="none" stroke="black" d="M395.949,-144.411C403.333,-133.414 412.993,-119.027 420.426,-107.956"/>
</g>
<!-- 3102655036000 -->
<g id="node22" class="node"><title>3102655036000</title>
<ellipse fill="none" stroke="black" cx="571.811" cy="-450" rx="59.5207" ry="18"/>
<text text-anchor="middle" x="571.811" y="-446.5" font-family="Times New Roman,serif" font-size="15.00">Create Fine</text>
</g>
<!-- 3102655034224&#45;&#45;3102655036000 -->
<g id="edge20" class="edge"><title>3102655034224&#45;&#45;3102655036000</title>
<path fill="none" stroke="black" d="M620.662,-506.155C610.71,-494.918 597.033,-479.476 586.681,-467.789"/>
</g>
<!-- 3102655033408 -->
<g id="node23" class="node"><title>3102655033408</title>
<ellipse fill="none" stroke="black" cx="695.811" cy="-450" rx="46.6143" ry="18"/>
<text text-anchor="middle" x="695.811" y="-446.5" font-family="Times New Roman,serif" font-size="15.00">xor loop</text>
</g>
<!-- 3102655034224&#45;&#45;3102655033408 -->
<g id="edge54" class="edge"><title>3102655034224&#45;&#45;3102655033408</title>
<path fill="none" stroke="black" d="M646.96,-506.155C657.055,-494.757 670.981,-479.034 681.382,-467.29"/>
</g>
<!-- 3102655033840 -->
<g id="node57" class="node"><title>3102655033840</title>
<ellipse fill="none" stroke="black" cx="835.811" cy="-450" rx="27" ry="18"/>
<text text-anchor="middle" x="835.811" y="-446.5" font-family="Times New Roman,serif" font-size="15.00">xor</text>
</g>
<!-- 3102655034224&#45;&#45;3102655033840 -->
<g id="edge61" class="edge"><title>3102655034224&#45;&#45;3102655033840</title>
<path fill="none" stroke="black" d="M657.378,-512.833C696.302,-499.345 773.569,-472.569 812.394,-459.115"/>
</g>
<!-- 3102655033552 -->
<g id="node24" class="node"><title>3102655033552</title>
<ellipse fill="none" stroke="black" cx="671.811" cy="-378" rx="27" ry="18"/>
<text text-anchor="middle" x="671.811" y="-374.5" font-family="Times New Roman,serif" font-size="15.00">seq</text>
</g>
<!-- 3102655033408&#45;&#45;3102655033552 -->
<g id="edge52" class="edge"><title>3102655033408&#45;&#45;3102655033552</title>
<path fill="none" stroke="black" d="M690.001,-432.055C686.228,-421.049 681.33,-406.764 677.567,-395.789"/>
</g>
<!-- 3102655034704 -->
<g id="node56" class="node"><title>3102655034704</title>
<ellipse fill="black" stroke="black" cx="719.811" cy="-378" rx="2.7" ry="2.7"/>
</g>
<!-- 3102655033408&#45;&#45;3102655034704 -->
<g id="edge53" class="edge"><title>3102655033408&#45;&#45;3102655034704</title>
<path fill="none" stroke="black" d="M701.621,-432.055C707.725,-414.252 716.772,-387.865 719.195,-380.796"/>
</g>
<!-- 3102655034656 -->
<g id="node25" class="node"><title>3102655034656</title>
<ellipse fill="none" stroke="black" cx="624.811" cy="-306" rx="27" ry="18"/>
<text text-anchor="middle" x="624.811" y="-302.5" font-family="Times New Roman,serif" font-size="15.00">xor</text>
</g>
<!-- 3102655033552&#45;&#45;3102655034656 -->
<g id="edge28" class="edge"><title>3102655033552&#45;&#45;3102655034656</title>
<path fill="none" stroke="black" d="M661.146,-361.116C653.454,-349.66 643.116,-334.263 635.434,-322.821"/>
</g>
<!-- 3102655035520 -->
<g id="node33" class="node"><title>3102655035520</title>
<ellipse fill="none" stroke="black" cx="719.811" cy="-306" rx="27" ry="18"/>
<text text-anchor="middle" x="719.811" y="-302.5" font-family="Times New Roman,serif" font-size="15.00">xor</text>
</g>
<!-- 3102655033552&#45;&#45;3102655035520 -->
<g id="edge51" class="edge"><title>3102655033552&#45;&#45;3102655035520</title>
<path fill="none" stroke="black" d="M682.703,-361.116C690.558,-349.66 701.117,-334.263 708.962,-322.821"/>
</g>
<!-- 3102655034320 -->
<g id="node26" class="node"><title>3102655034320</title>
<ellipse fill="black" stroke="black" cx="576.811" cy="-234" rx="2.7" ry="2.7"/>
</g>
<!-- 3102655034656&#45;&#45;3102655034320 -->
<g id="edge21" class="edge"><title>3102655034656&#45;&#45;3102655034320</title>
<path fill="none" stroke="black" d="M613.919,-289.116C601.749,-271.367 583.091,-244.158 578.084,-236.857"/>
</g>
<!-- 3102655036960 -->
<g id="node27" class="node"><title>3102655036960</title>
<ellipse fill="none" stroke="black" cx="624.811" cy="-234" rx="27" ry="18"/>
<text text-anchor="middle" x="624.811" y="-230.5" font-family="Times New Roman,serif" font-size="15.00">seq</text>
</g>
<!-- 3102655034656&#45;&#45;3102655036960 -->
<g id="edge27" class="edge"><title>3102655034656&#45;&#45;3102655036960</title>
<path fill="none" stroke="black" d="M624.811,-287.697C624.811,-276.846 624.811,-262.917 624.811,-252.104"/>
</g>
<!-- 3102464187504 -->
<g id="node28" class="node"><title>3102464187504</title>
<ellipse fill="none" stroke="black" cx="526.811" cy="-162" rx="52.6228" ry="18"/>
<text text-anchor="middle" x="526.811" y="-158.5" font-family="Times New Roman,serif" font-size="15.00">Send Fine</text>
</g>
<!-- 3102655036960&#45;&#45;3102464187504 -->
<g id="edge22" class="edge"><title>3102655036960&#45;&#45;3102464187504</title>
<path fill="none" stroke="black" d="M606.836,-220.161C590.37,-208.399 565.962,-190.965 548.435,-178.446"/>
</g>
<!-- 3102464188176 -->
<g id="node29" class="node"><title>3102464188176</title>
<ellipse fill="none" stroke="black" cx="624.811" cy="-162" rx="27" ry="18"/>
<text text-anchor="middle" x="624.811" y="-158.5" font-family="Times New Roman,serif" font-size="15.00">xor</text>
</g>
<!-- 3102655036960&#45;&#45;3102464188176 -->
<g id="edge26" class="edge"><title>3102655036960&#45;&#45;3102464188176</title>
<path fill="none" stroke="black" d="M624.811,-215.697C624.811,-204.846 624.811,-190.917 624.811,-180.104"/>
</g>
<!-- 3102464188368 -->
<g id="node30" class="node"><title>3102464188368</title>
<ellipse fill="black" stroke="black" cx="514.811" cy="-90" rx="2.7" ry="2.7"/>
</g>
<!-- 3102464188176&#45;&#45;3102464188368 -->
<g id="edge23" class="edge"><title>3102464188176&#45;&#45;3102464188368</title>
<path fill="none" stroke="black" d="M605.651,-148.807C577.336,-130.788 526.574,-98.4857 516.556,-92.1101"/>
</g>
<!-- 3102464184816 -->
<g id="node31" class="node"><title>3102464184816</title>
<ellipse fill="none" stroke="black" cx="613.811" cy="-90" rx="78.5434" ry="18"/>
<text text-anchor="middle" x="613.811" y="-86.5" font-family="Times New Roman,serif" font-size="15.00">Appeal to Judge</text>
</g>
<!-- 3102464188176&#45;&#45;3102464184816 -->
<g id="edge24" class="edge"><title>3102464188176&#45;&#45;3102464184816</title>
<path fill="none" stroke="black" d="M622.148,-144.055C620.444,-133.211 618.24,-119.183 616.526,-108.275"/>
</g>
<!-- 3102464185200 -->
<g id="node32" class="node"><title>3102464185200</title>
<ellipse fill="none" stroke="black" cx="817.811" cy="-90" rx="107.914" ry="18"/>
<text text-anchor="middle" x="817.811" y="-86.5" font-family="Times New Roman,serif" font-size="15.00">Insert Fine Notification</text>
</g>
<!-- 3102464188176&#45;&#45;3102464185200 -->
<g id="edge25" class="edge"><title>3102464188176&#45;&#45;3102464185200</title>
<path fill="none" stroke="black" d="M648.091,-152.556C679.372,-141.211 735.553,-120.835 774.671,-106.647"/>
</g>
<!-- 3102464186784 -->
<g id="node34" class="node"><title>3102464186784</title>
<ellipse fill="black" stroke="black" cx="719.811" cy="-234" rx="2.7" ry="2.7"/>
</g>
<!-- 3102655035520&#45;&#45;3102464186784 -->
<g id="edge29" class="edge"><title>3102655035520&#45;&#45;3102464186784</title>
<path fill="none" stroke="black" d="M719.811,-287.697C719.811,-269.883 719.811,-243.769 719.811,-236.776"/>
</g>
<!-- 3102464187792 -->
<g id="node35" class="node"><title>3102464187792</title>
<ellipse fill="none" stroke="black" cx="1074.81" cy="-234" rx="46.6143" ry="18"/>
<text text-anchor="middle" x="1074.81" y="-230.5" font-family="Times New Roman,serif" font-size="15.00">xor loop</text>
</g>
<!-- 3102655035520&#45;&#45;3102464187792 -->
<g id="edge50" class="edge"><title>3102655035520&#45;&#45;3102464187792</title>
<path fill="none" stroke="black" d="M745.342,-299.966C806.232,-287.959 960.387,-257.562 1034.2,-243.008"/>
</g>
<!-- 3102464184912 -->
<g id="node36" class="node"><title>3102464184912</title>
<ellipse fill="none" stroke="black" cx="1080.81" cy="-162" rx="27" ry="18"/>
<text text-anchor="middle" x="1080.81" y="-158.5" font-family="Times New Roman,serif" font-size="15.00">seq</text>
</g>
<!-- 3102464187792&#45;&#45;3102464184912 -->
<g id="edge48" class="edge"><title>3102464187792&#45;&#45;3102464184912</title>
<path fill="none" stroke="black" d="M1076.29,-215.697C1077.22,-204.846 1078.42,-190.917 1079.34,-180.104"/>
</g>
<!-- 3102464187024 -->
<g id="node55" class="node"><title>3102464187024</title>
<ellipse fill="black" stroke="black" cx="1128.81" cy="-162" rx="2.7" ry="2.7"/>
</g>
<!-- 3102464187792&#45;&#45;3102464187024 -->
<g id="edge49" class="edge"><title>3102464187792&#45;&#45;3102464187024</title>
<path fill="none" stroke="black" d="M1087.61,-216.411C1101.33,-198.622 1121.9,-171.962 1127.41,-164.816"/>
</g>
<!-- 3102464187552 -->
<g id="node37" class="node"><title>3102464187552</title>
<ellipse fill="none" stroke="black" cx="970.811" cy="-90" rx="27" ry="18"/>
<text text-anchor="middle" x="970.811" y="-86.5" font-family="Times New Roman,serif" font-size="15.00">xor</text>
</g>
<!-- 3102464184912&#45;&#45;3102464187552 -->
<g id="edge32" class="edge"><title>3102464184912&#45;&#45;3102464187552</title>
<path fill="none" stroke="black" d="M1061.65,-148.807C1041.46,-135.959 1009.86,-115.848 989.752,-103.053"/>
</g>
<!-- 3102464185344 -->
<g id="node40" class="node"><title>3102464185344</title>
<ellipse fill="none" stroke="black" cx="1042.81" cy="-90" rx="27" ry="18"/>
<text text-anchor="middle" x="1042.81" y="-86.5" font-family="Times New Roman,serif" font-size="15.00">xor</text>
</g>
<!-- 3102464184912&#45;&#45;3102464185344 -->
<g id="edge35" class="edge"><title>3102464184912&#45;&#45;3102464185344</title>
<path fill="none" stroke="black" d="M1072,-144.765C1065.86,-133.456 1057.71,-118.437 1051.58,-107.147"/>
</g>
<!-- 3102464186352 -->
<g id="node43" class="node"><title>3102464186352</title>
<ellipse fill="none" stroke="black" cx="1119.81" cy="-90" rx="27" ry="18"/>
<text text-anchor="middle" x="1119.81" y="-86.5" font-family="Times New Roman,serif" font-size="15.00">xor</text>
</g>
<!-- 3102464184912&#45;&#45;3102464186352 -->
<g id="edge38" class="edge"><title>3102464184912&#45;&#45;3102464186352</title>
<path fill="none" stroke="black" d="M1089.86,-144.765C1096.16,-133.456 1104.52,-118.437 1110.81,-107.147"/>
</g>
<!-- 3102464187360 -->
<g id="node46" class="node"><title>3102464187360</title>
<ellipse fill="none" stroke="black" cx="1401.81" cy="-90" rx="27" ry="18"/>
<text text-anchor="middle" x="1401.81" y="-86.5" font-family="Times New Roman,serif" font-size="15.00">xor</text>
</g>
<!-- 3102464184912&#45;&#45;3102464187360 -->
<g id="edge41" class="edge"><title>3102464184912&#45;&#45;3102464187360</title>
<path fill="none" stroke="black" d="M1106,-155.507C1165.86,-142.454 1316.11,-109.689 1376.3,-96.5641"/>
</g>
<!-- 3102464187120 -->
<g id="node49" class="node"><title>3102464187120</title>
<ellipse fill="none" stroke="black" cx="1789.81" cy="-90" rx="27" ry="18"/>
<text text-anchor="middle" x="1789.81" y="-86.5" font-family="Times New Roman,serif" font-size="15.00">xor</text>
</g>
<!-- 3102464184912&#45;&#45;3102464187120 -->
<g id="edge44" class="edge"><title>3102464184912&#45;&#45;3102464187120</title>
<path fill="none" stroke="black" d="M1107.31,-158.384C1219.05,-147.351 1651.18,-104.687 1763.18,-93.6295"/>
</g>
<!-- 3102464188128 -->
<g id="node52" class="node"><title>3102464188128</title>
<ellipse fill="none" stroke="black" cx="2127.81" cy="-90" rx="27" ry="18"/>
<text text-anchor="middle" x="2127.81" y="-86.5" font-family="Times New Roman,serif" font-size="15.00">xor</text>
</g>
<!-- 3102464184912&#45;&#45;3102464188128 -->
<g id="edge47" class="edge"><title>3102464184912&#45;&#45;3102464188128</title>
<path fill="none" stroke="black" d="M1107.74,-159.199C1254.34,-149.398 1954.91,-102.56 2101.06,-92.7888"/>
</g>
<!-- 3102464187456 -->
<g id="node38" class="node"><title>3102464187456</title>
<ellipse fill="black" stroke="black" cx="623.811" cy="-18" rx="2.7" ry="2.7"/>
</g>
<!-- 3102464187552&#45;&#45;3102464187456 -->
<g id="edge30" class="edge"><title>3102464187552&#45;&#45;3102464187456</title>
<path fill="none" stroke="black" d="M945.295,-83.8527C869.855,-68.6343 651.541,-24.5939 626.216,-19.4851"/>
</g>
<!-- 3102464188080 -->
<g id="node39" class="node"><title>3102464188080</title>
<ellipse fill="none" stroke="black" cx="788.811" cy="-18" rx="144.571" ry="18"/>
<text text-anchor="middle" x="788.811" y="-14.5" font-family="Times New Roman,serif" font-size="15.00">Insert Date Appeal to Prefecture</text>
</g>
<!-- 3102464187552&#45;&#45;3102464188080 -->
<g id="edge31" class="edge"><title>3102464187552&#45;&#45;3102464188080</title>
<path fill="none" stroke="black" d="M947.761,-80.1345C918.491,-68.877 867.432,-49.2389 831.084,-35.2588"/>
</g>
<!-- 3102464187696 -->
<g id="node41" class="node"><title>3102464187696</title>
<ellipse fill="black" stroke="black" cx="953.811" cy="-18" rx="2.7" ry="2.7"/>
</g>
<!-- 3102464185344&#45;&#45;3102464187696 -->
<g id="edge33" class="edge"><title>3102464185344&#45;&#45;3102464187696</title>
<path fill="none" stroke="black" d="M1026.07,-75.8335C1003.11,-57.7741 963.731,-26.8019 955.391,-20.2428"/>
</g>
<!-- 3102464188320 -->
<g id="node42" class="node"><title>3102464188320</title>
<ellipse fill="none" stroke="black" cx="1036.81" cy="-18" rx="61.6894" ry="18"/>
<text text-anchor="middle" x="1036.81" y="-14.5" font-family="Times New Roman,serif" font-size="15.00">Add penalty</text>
</g>
<!-- 3102464185344&#45;&#45;3102464188320 -->
<g id="edge34" class="edge"><title>3102464185344&#45;&#45;3102464188320</title>
<path fill="none" stroke="black" d="M1041.33,-71.6966C1040.4,-60.8463 1039.2,-46.9167 1038.28,-36.1043"/>
</g>
<!-- 3102464185968 -->
<g id="node44" class="node"><title>3102464185968</title>
<ellipse fill="black" stroke="black" cx="1119.81" cy="-18" rx="2.7" ry="2.7"/>
</g>
<!-- 3102464186352&#45;&#45;3102464185968 -->
<g id="edge36" class="edge"><title>3102464186352&#45;&#45;3102464185968</title>
<path fill="none" stroke="black" d="M1119.81,-71.6966C1119.81,-53.8826 1119.81,-27.7686 1119.81,-20.7764"/>
</g>
<!-- 3102464187600 -->
<g id="node45" class="node"><title>3102464187600</title>
<ellipse fill="none" stroke="black" cx="1260.81" cy="-18" rx="120.43" ry="18"/>
<text text-anchor="middle" x="1260.81" y="-14.5" font-family="Times New Roman,serif" font-size="15.00">Send Appeal to Prefecture</text>
</g>
<!-- 3102464186352&#45;&#45;3102464187600 -->
<g id="edge37" class="edge"><title>3102464186352&#45;&#45;3102464187600</title>
<path fill="none" stroke="black" d="M1140.92,-78.5203C1163.89,-67.1164 1200.92,-48.7333 1227.75,-35.4115"/>
</g>
<!-- 3102464187936 -->
<g id="node47" class="node"><title>3102464187936</title>
<ellipse fill="black" stroke="black" cx="1401.81" cy="-18" rx="2.7" ry="2.7"/>
</g>
<!-- 3102464187360&#45;&#45;3102464187936 -->
<g id="edge39" class="edge"><title>3102464187360&#45;&#45;3102464187936</title>
<path fill="none" stroke="black" d="M1401.81,-71.6966C1401.81,-53.8826 1401.81,-27.7686 1401.81,-20.7764"/>
</g>
<!-- 3102464185008 -->
<g id="node48" class="node"><title>3102464185008</title>
<ellipse fill="none" stroke="black" cx="1595.81" cy="-18" rx="173.941" ry="18"/>
<text text-anchor="middle" x="1595.81" y="-14.5" font-family="Times New Roman,serif" font-size="15.00">Receive Result Appeal from Prefecture</text>
</g>
<!-- 3102464187360&#45;&#45;3102464185008 -->
<g id="edge40" class="edge"><title>3102464187360&#45;&#45;3102464185008</title>
<path fill="none" stroke="black" d="M1425.21,-80.5564C1456.05,-69.4293 1510.96,-49.615 1550.16,-35.472"/>
</g>
<!-- 3102464188224 -->
<g id="node50" class="node"><title>3102464188224</title>
<ellipse fill="black" stroke="black" cx="1789.81" cy="-18" rx="2.7" ry="2.7"/>
</g>
<!-- 3102464187120&#45;&#45;3102464188224 -->
<g id="edge42" class="edge"><title>3102464187120&#45;&#45;3102464188224</title>
<path fill="none" stroke="black" d="M1789.81,-71.6966C1789.81,-53.8826 1789.81,-27.7686 1789.81,-20.7764"/>
</g>
<!-- 3102464184576 -->
<g id="node51" class="node"><title>3102464184576</title>
<ellipse fill="none" stroke="black" cx="1958.81" cy="-18" rx="148.91" ry="18"/>
<text text-anchor="middle" x="1958.81" y="-14.5" font-family="Times New Roman,serif" font-size="15.00">Notify Result Appeal to Offender</text>
</g>
<!-- 3102464187120&#45;&#45;3102464184576 -->
<g id="edge43" class="edge"><title>3102464187120&#45;&#45;3102464184576</title>
<path fill="none" stroke="black" d="M1812.25,-79.7045C1839.46,-68.4359 1885.79,-49.2446 1919.09,-35.4544"/>
</g>
<!-- 3102464185632 -->
<g id="node53" class="node"><title>3102464185632</title>
<ellipse fill="black" stroke="black" cx="2127.81" cy="-18" rx="2.7" ry="2.7"/>
</g>
<!-- 3102464188128&#45;&#45;3102464185632 -->
<g id="edge45" class="edge"><title>3102464188128&#45;&#45;3102464185632</title>
<path fill="none" stroke="black" d="M2127.81,-71.6966C2127.81,-53.8826 2127.81,-27.7686 2127.81,-20.7764"/>
</g>
<!-- 3102464185584 -->
<g id="node54" class="node"><title>3102464185584</title>
<ellipse fill="none" stroke="black" cx="2194.81" cy="-18" rx="45.7249" ry="18"/>
<text text-anchor="middle" x="2194.81" y="-14.5" font-family="Times New Roman,serif" font-size="15.00">Payment</text>
</g>
<!-- 3102464188128&#45;&#45;3102464185584 -->
<g id="edge46" class="edge"><title>3102464188128&#45;&#45;3102464185584</title>
<path fill="none" stroke="black" d="M2141.69,-74.496C2152.66,-63.0429 2167.95,-47.0688 2179.31,-35.1982"/>
</g>
<!-- 3102464187744 -->
<g id="node58" class="node"><title>3102464187744</title>
<ellipse fill="black" stroke="black" cx="835.811" cy="-378" rx="2.7" ry="2.7"/>
</g>
<!-- 3102655033840&#45;&#45;3102464187744 -->
<g id="edge55" class="edge"><title>3102655033840&#45;&#45;3102464187744</title>
<path fill="none" stroke="black" d="M835.811,-431.697C835.811,-413.883 835.811,-387.769 835.811,-380.776"/>
</g>
<!-- 3102464187168 -->
<g id="node59" class="node"><title>3102464187168</title>
<ellipse fill="none" stroke="black" cx="931.811" cy="-378" rx="27" ry="18"/>
<text text-anchor="middle" x="931.811" y="-374.5" font-family="Times New Roman,serif" font-size="15.00">seq</text>
</g>
<!-- 3102655033840&#45;&#45;3102464187168 -->
<g id="edge60" class="edge"><title>3102655033840&#45;&#45;3102464187168</title>
<path fill="none" stroke="black" d="M853.419,-436.161C870.74,-423.531 897.032,-404.36 914.315,-391.758"/>
</g>
<!-- 3102464187312 -->
<g id="node60" class="node"><title>3102464187312</title>
<ellipse fill="none" stroke="black" cx="931.811" cy="-306" rx="120.819" ry="18"/>
<text text-anchor="middle" x="931.811" y="-302.5" font-family="Times New Roman,serif" font-size="15.00">Send for Credit Collection</text>
</g>
<!-- 3102464187168&#45;&#45;3102464187312 -->
<g id="edge56" class="edge"><title>3102464187168&#45;&#45;3102464187312</title>
<path fill="none" stroke="black" d="M931.811,-359.697C931.811,-348.846 931.811,-334.917 931.811,-324.104"/>
</g>
<!-- 3102464184432 -->
<g id="node61" class="node"><title>3102464184432</title>
<ellipse fill="none" stroke="black" cx="1141.81" cy="-306" rx="27" ry="18"/>
<text text-anchor="middle" x="1141.81" y="-302.5" font-family="Times New Roman,serif" font-size="15.00">xor</text>
</g>
<!-- 3102464187168&#45;&#45;3102464184432 -->
<g id="edge59" class="edge"><title>3102464187168&#45;&#45;3102464184432</title>
<path fill="none" stroke="black" d="M955.493,-369.106C995.932,-355.626 1077.84,-328.325 1118.22,-314.865"/>
</g>
<!-- 3102464186640 -->
<g id="node62" class="node"><title>3102464186640</title>
<ellipse fill="black" stroke="black" cx="1141.81" cy="-234" rx="2.7" ry="2.7"/>
</g>
<!-- 3102464184432&#45;&#45;3102464186640 -->
<g id="edge57" class="edge"><title>3102464184432&#45;&#45;3102464186640</title>
<path fill="none" stroke="black" d="M1141.81,-287.697C1141.81,-269.883 1141.81,-243.769 1141.81,-236.776"/>
</g>
<!-- 3102464184768 -->
<g id="node63" class="node"><title>3102464184768</title>
<ellipse fill="none" stroke="black" cx="1282.81" cy="-234" rx="120.43" ry="18"/>
<text text-anchor="middle" x="1282.81" y="-230.5" font-family="Times New Roman,serif" font-size="15.00">Send Appeal to Prefecture</text>
</g>
<!-- 3102464184432&#45;&#45;3102464184768 -->
<g id="edge58" class="edge"><title>3102464184432&#45;&#45;3102464184768</title>
<path fill="none" stroke="black" d="M1162.92,-294.52C1185.89,-283.116 1222.92,-264.733 1249.75,-251.412"/>
</g>
</g>
</svg>
