<?xml version="1.0" encoding="UTF-8" standalone="no"?>
<!DOCTYPE svg PUBLIC "-//W3C//DTD SVG 1.1//EN"
 "http://www.w3.org/Graphics/SVG/1.1/DTD/svg11.dtd">
<!-- Generated by graphviz version 2.38.0 (20140413.2041)
 -->
<!-- Title: pt Pages: 1 -->
<svg width="1599pt" height="548pt"
 viewBox="0.00 0.00 1599.06 548.00" xmlns="http://www.w3.org/2000/svg" xmlns:xlink="http://www.w3.org/1999/xlink">
<g id="graph0" class="graph" transform="scale(1 1) rotate(0) translate(4 544)">
<title>pt</title>
<!-- 3102630831584 -->
<g id="node1" class="node"><title>3102630831584</title>
<ellipse fill="none" stroke="black" cx="826.215" cy="-522" rx="27" ry="18"/>
<text text-anchor="middle" x="826.215" y="-518.5" font-family="Times New Roman,serif" font-size="15.00">seq</text>
</g>
<!-- 3102630832160 -->
<g id="node2" class="node"><title>3102630832160</title>
<ellipse fill="none" stroke="black" cx="721.215" cy="-450" rx="59.5207" ry="18"/>
<text text-anchor="middle" x="721.215" y="-446.5" font-family="Times New Roman,serif" font-size="15.00">Create Fine</text>
</g>
<!-- 3102630831584&#45;&#45;3102630832160 -->
<g id="edge1" class="edge"><title>3102630831584&#45;&#45;3102630832160</title>
<path fill="none" stroke="black" d="M807.443,-508.485C789.864,-496.767 763.538,-479.215 744.601,-466.591"/>
</g>
<!-- 3102630832352 -->
<g id="node3" class="node"><title>3102630832352</title>
<ellipse fill="none" stroke="black" cx="826.215" cy="-450" rx="27" ry="18"/>
<text text-anchor="middle" x="826.215" y="-446.5" font-family="Times New Roman,serif" font-size="15.00">and</text>
</g>
<!-- 3102630831584&#45;&#45;3102630832352 -->
<g id="edge36" class="edge"><title>3102630831584&#45;&#45;3102630832352</title>
<path fill="none" stroke="black" d="M826.215,-503.697C826.215,-492.846 826.215,-478.917 826.215,-468.104"/>
</g>
<!-- 3102630831632 -->
<g id="node38" class="node"><title>3102630831632</title>
<ellipse fill="none" stroke="black" cx="898.215" cy="-450" rx="27" ry="18"/>
<text text-anchor="middle" x="898.215" y="-446.5" font-family="Times New Roman,serif" font-size="15.00">xor</text>
</g>
<!-- 3102630831584&#45;&#45;3102630831632 -->
<g id="edge39" class="edge"><title>3102630831584&#45;&#45;3102630831632</title>
<path fill="none" stroke="black" d="M840.785,-506.834C853.194,-494.77 870.945,-477.512 883.419,-465.385"/>
</g>
<!-- 3102630832784 -->
<g id="node4" class="node"><title>3102630832784</title>
<ellipse fill="none" stroke="black" cx="715.215" cy="-378" rx="27" ry="18"/>
<text text-anchor="middle" x="715.215" y="-374.5" font-family="Times New Roman,serif" font-size="15.00">xor</text>
</g>
<!-- 3102630832352&#45;&#45;3102630832784 -->
<g id="edge18" class="edge"><title>3102630832352&#45;&#45;3102630832784</title>
<path fill="none" stroke="black" d="M807.133,-436.967C786.802,-424.145 754.797,-403.962 734.419,-391.111"/>
</g>
<!-- 3102630831728 -->
<g id="node21" class="node"><title>3102630831728</title>
<ellipse fill="none" stroke="black" cx="832.215" cy="-378" rx="27" ry="18"/>
<text text-anchor="middle" x="832.215" y="-374.5" font-family="Times New Roman,serif" font-size="15.00">and</text>
</g>
<!-- 3102630832352&#45;&#45;3102630831728 -->
<g id="edge35" class="edge"><title>3102630832352&#45;&#45;3102630831728</title>
<path fill="none" stroke="black" d="M827.698,-431.697C828.628,-420.846 829.822,-406.917 830.749,-396.104"/>
</g>
<!-- 3102630833168 -->
<g id="node5" class="node"><title>3102630833168</title>
<ellipse fill="black" stroke="black" cx="648.215" cy="-306" rx="2.7" ry="2.7"/>
</g>
<!-- 3102630832784&#45;&#45;3102630833168 -->
<g id="edge2" class="edge"><title>3102630832784&#45;&#45;3102630833168</title>
<path fill="none" stroke="black" d="M701.332,-362.496C684.161,-344.555 656.371,-315.522 649.692,-308.544"/>
</g>
<!-- 3102630832208 -->
<g id="node6" class="node"><title>3102630832208</title>
<ellipse fill="none" stroke="black" cx="715.215" cy="-306" rx="46.6143" ry="18"/>
<text text-anchor="middle" x="715.215" y="-302.5" font-family="Times New Roman,serif" font-size="15.00">xor loop</text>
</g>
<!-- 3102630832784&#45;&#45;3102630832208 -->
<g id="edge17" class="edge"><title>3102630832784&#45;&#45;3102630832208</title>
<path fill="none" stroke="black" d="M715.215,-359.697C715.215,-348.846 715.215,-334.917 715.215,-324.104"/>
</g>
<!-- 3102630831440 -->
<g id="node7" class="node"><title>3102630831440</title>
<ellipse fill="none" stroke="black" cx="666.215" cy="-234" rx="27" ry="18"/>
<text text-anchor="middle" x="666.215" y="-230.5" font-family="Times New Roman,serif" font-size="15.00">xor</text>
</g>
<!-- 3102630832208&#45;&#45;3102630831440 -->
<g id="edge15" class="edge"><title>3102630832208&#45;&#45;3102630831440</title>
<path fill="none" stroke="black" d="M703.602,-288.411C695.565,-276.929 684.941,-261.751 677.072,-250.511"/>
</g>
<!-- 3102630831296 -->
<g id="node20" class="node"><title>3102630831296</title>
<ellipse fill="black" stroke="black" cx="715.215" cy="-234" rx="2.7" ry="2.7"/>
</g>
<!-- 3102630832208&#45;&#45;3102630831296 -->
<g id="edge16" class="edge"><title>3102630832208&#45;&#45;3102630831296</title>
<path fill="none" stroke="black" d="M715.215,-287.697C715.215,-269.883 715.215,-243.769 715.215,-236.776"/>
</g>
<!-- 3102630831104 -->
<g id="node8" class="node"><title>3102630831104</title>
<ellipse fill="none" stroke="black" cx="425.215" cy="-162" rx="78.5434" ry="18"/>
<text text-anchor="middle" x="425.215" y="-158.5" font-family="Times New Roman,serif" font-size="15.00">Appeal to Judge</text>
</g>
<!-- 3102630831440&#45;&#45;3102630831104 -->
<g id="edge3" class="edge"><title>3102630831440&#45;&#45;3102630831104</title>
<path fill="none" stroke="black" d="M641.78,-225.903C602.051,-214.363 522.786,-191.34 471.963,-176.578"/>
</g>
<!-- 3102630831776 -->
<g id="node9" class="node"><title>3102630831776</title>
<ellipse fill="none" stroke="black" cx="666.215" cy="-162" rx="144.571" ry="18"/>
<text text-anchor="middle" x="666.215" y="-158.5" font-family="Times New Roman,serif" font-size="15.00">Insert Date Appeal to Prefecture</text>
</g>
<!-- 3102630831440&#45;&#45;3102630831776 -->
<g id="edge4" class="edge"><title>3102630831440&#45;&#45;3102630831776</title>
<path fill="none" stroke="black" d="M666.215,-215.697C666.215,-204.846 666.215,-190.917 666.215,-180.104"/>
</g>
<!-- 3102630832640 -->
<g id="node10" class="node"><title>3102630832640</title>
<ellipse fill="none" stroke="black" cx="856.215" cy="-162" rx="27" ry="18"/>
<text text-anchor="middle" x="856.215" y="-158.5" font-family="Times New Roman,serif" font-size="15.00">seq</text>
</g>
<!-- 3102630831440&#45;&#45;3102630832640 -->
<g id="edge14" class="edge"><title>3102630831440&#45;&#45;3102630832640</title>
<path fill="none" stroke="black" d="M689.512,-224.417C726.078,-210.945 796.525,-184.991 833.024,-171.544"/>
</g>
<!-- 3102646383328 -->
<g id="node11" class="node"><title>3102646383328</title>
<ellipse fill="none" stroke="black" cx="432.215" cy="-90" rx="27" ry="18"/>
<text text-anchor="middle" x="432.215" y="-86.5" font-family="Times New Roman,serif" font-size="15.00">xor</text>
</g>
<!-- 3102630832640&#45;&#45;3102646383328 -->
<g id="edge7" class="edge"><title>3102630832640&#45;&#45;3102646383328</title>
<path fill="none" stroke="black" d="M830.33,-156.727C754.635,-144.23 534.249,-107.845 458.299,-95.3065"/>
</g>
<!-- 3102646382944 -->
<g id="node14" class="node"><title>3102646382944</title>
<ellipse fill="none" stroke="black" cx="795.215" cy="-90" rx="27" ry="18"/>
<text text-anchor="middle" x="795.215" y="-86.5" font-family="Times New Roman,serif" font-size="15.00">xor</text>
</g>
<!-- 3102630832640&#45;&#45;3102646382944 -->
<g id="edge10" class="edge"><title>3102630832640&#45;&#45;3102646382944</title>
<path fill="none" stroke="black" d="M843.278,-146.155C832.926,-134.276 818.48,-117.697 808.133,-105.824"/>
</g>
<!-- 3102646384096 -->
<g id="node17" class="node"><title>3102646384096</title>
<ellipse fill="none" stroke="black" cx="964.215" cy="-90" rx="27" ry="18"/>
<text text-anchor="middle" x="964.215" y="-86.5" font-family="Times New Roman,serif" font-size="15.00">xor</text>
</g>
<!-- 3102630832640&#45;&#45;3102646384096 -->
<g id="edge13" class="edge"><title>3102630832640&#45;&#45;3102646384096</title>
<path fill="none" stroke="black" d="M875.027,-148.807C894.849,-135.959 925.877,-115.848 945.618,-103.053"/>
</g>
<!-- 3102646383520 -->
<g id="node12" class="node"><title>3102646383520</title>
<ellipse fill="none" stroke="black" cx="120.215" cy="-18" rx="120.43" ry="18"/>
<text text-anchor="middle" x="120.215" y="-14.5" font-family="Times New Roman,serif" font-size="15.00">Send Appeal to Prefecture</text>
</g>
<!-- 3102646383328&#45;&#45;3102646383520 -->
<g id="edge5" class="edge"><title>3102646383328&#45;&#45;3102646383520</title>
<path fill="none" stroke="black" d="M406.947,-83.3309C358.856,-72.5412 252.839,-48.7555 184.066,-33.3256"/>
</g>
<!-- 3102646382848 -->
<g id="node13" class="node"><title>3102646382848</title>
<ellipse fill="none" stroke="black" cx="432.215" cy="-18" rx="173.941" ry="18"/>
<text text-anchor="middle" x="432.215" y="-14.5" font-family="Times New Roman,serif" font-size="15.00">Receive Result Appeal from Prefecture</text>
</g>
<!-- 3102646383328&#45;&#45;3102646382848 -->
<g id="edge6" class="edge"><title>3102646383328&#45;&#45;3102646382848</title>
<path fill="none" stroke="black" d="M432.215,-71.6966C432.215,-60.8463 432.215,-46.9167 432.215,-36.1043"/>
</g>
<!-- 3102646383472 -->
<g id="node15" class="node"><title>3102646383472</title>
<ellipse fill="black" stroke="black" cx="626.215" cy="-18" rx="2.7" ry="2.7"/>
</g>
<!-- 3102646382944&#45;&#45;3102646383472 -->
<g id="edge8" class="edge"><title>3102646382944&#45;&#45;3102646383472</title>
<path fill="none" stroke="black" d="M772.773,-79.7045C730.752,-62.2995 643.1,-25.9938 628.345,-19.8823"/>
</g>
<!-- 3102646386304 -->
<g id="node16" class="node"><title>3102646386304</title>
<ellipse fill="none" stroke="black" cx="795.215" cy="-18" rx="148.91" ry="18"/>
<text text-anchor="middle" x="795.215" y="-14.5" font-family="Times New Roman,serif" font-size="15.00">Notify Result Appeal to Offender</text>
</g>
<!-- 3102646382944&#45;&#45;3102646386304 -->
<g id="edge9" class="edge"><title>3102646382944&#45;&#45;3102646386304</title>
<path fill="none" stroke="black" d="M795.215,-71.6966C795.215,-60.8463 795.215,-46.9167 795.215,-36.1043"/>
</g>
<!-- 3102646383760 -->
<g id="node18" class="node"><title>3102646383760</title>
<ellipse fill="black" stroke="black" cx="964.215" cy="-18" rx="2.7" ry="2.7"/>
</g>
<!-- 3102646384096&#45;&#45;3102646383760 -->
<g id="edge11" class="edge"><title>3102646384096&#45;&#45;3102646383760</title>
<path fill="none" stroke="black" d="M964.215,-71.6966C964.215,-53.8826 964.215,-27.7686 964.215,-20.7764"/>
</g>
<!-- 3102646383568 -->
<g id="node19" class="node"><title>3102646383568</title>
<ellipse fill="none" stroke="black" cx="1106.21" cy="-18" rx="120.819" ry="18"/>
<text text-anchor="middle" x="1106.21" y="-14.5" font-family="Times New Roman,serif" font-size="15.00">Send for Credit Collection</text>
</g>
<!-- 3102646384096&#45;&#45;3102646383568 -->
<g id="edge12" class="edge"><title>3102646384096&#45;&#45;3102646383568</title>
<path fill="none" stroke="black" d="M985.473,-78.5203C1008.61,-67.1164 1045.9,-48.7333 1072.92,-35.4115"/>
</g>
<!-- 3102630831392 -->
<g id="node22" class="node"><title>3102630831392</title>
<ellipse fill="none" stroke="black" cx="832.215" cy="-306" rx="46.6143" ry="18"/>
<text text-anchor="middle" x="832.215" y="-302.5" font-family="Times New Roman,serif" font-size="15.00">xor loop</text>
</g>
<!-- 3102630831728&#45;&#45;3102630831392 -->
<g id="edge21" class="edge"><title>3102630831728&#45;&#45;3102630831392</title>
<path fill="none" stroke="black" d="M832.215,-359.697C832.215,-348.846 832.215,-334.917 832.215,-324.104"/>
</g>
<!-- 3102646386112 -->
<g id="node25" class="node"><title>3102646386112</title>
<ellipse fill="none" stroke="black" cx="949.215" cy="-306" rx="27" ry="18"/>
<text text-anchor="middle" x="949.215" y="-302.5" font-family="Times New Roman,serif" font-size="15.00">xor</text>
</g>
<!-- 3102630831728&#45;&#45;3102646386112 -->
<g id="edge34" class="edge"><title>3102630831728&#45;&#45;3102646386112</title>
<path fill="none" stroke="black" d="M851.798,-365.284C873.395,-352.362 907.945,-331.692 929.568,-318.755"/>
</g>
<!-- 3102646383280 -->
<g id="node23" class="node"><title>3102646383280</title>
<ellipse fill="black" stroke="black" cx="765.215" cy="-234" rx="2.7" ry="2.7"/>
</g>
<!-- 3102630831392&#45;&#45;3102646383280 -->
<g id="edge19" class="edge"><title>3102630831392&#45;&#45;3102646383280</title>
<path fill="none" stroke="black" d="M816.675,-288.765C799.357,-270.671 772.946,-243.078 766.614,-236.462"/>
</g>
<!-- 3102646382752 -->
<g id="node24" class="node"><title>3102646382752</title>
<ellipse fill="none" stroke="black" cx="832.215" cy="-234" rx="45.7249" ry="18"/>
<text text-anchor="middle" x="832.215" y="-230.5" font-family="Times New Roman,serif" font-size="15.00">Payment</text>
</g>
<!-- 3102630831392&#45;&#45;3102646382752 -->
<g id="edge20" class="edge"><title>3102630831392&#45;&#45;3102646382752</title>
<path fill="none" stroke="black" d="M832.215,-287.697C832.215,-276.846 832.215,-262.917 832.215,-252.104"/>
</g>
<!-- 3102646385104 -->
<g id="node26" class="node"><title>3102646385104</title>
<ellipse fill="black" stroke="black" cx="900.215" cy="-234" rx="2.7" ry="2.7"/>
</g>
<!-- 3102646386112&#45;&#45;3102646385104 -->
<g id="edge22" class="edge"><title>3102646386112&#45;&#45;3102646385104</title>
<path fill="none" stroke="black" d="M938.34,-289.465C925.709,-271.42 905.992,-243.254 901.261,-236.494"/>
</g>
<!-- 3102646383904 -->
<g id="node27" class="node"><title>3102646383904</title>
<ellipse fill="none" stroke="black" cx="974.215" cy="-234" rx="52.6228" ry="18"/>
<text text-anchor="middle" x="974.215" y="-230.5" font-family="Times New Roman,serif" font-size="15.00">Send Fine</text>
</g>
<!-- 3102646386112&#45;&#45;3102646383904 -->
<g id="edge23" class="edge"><title>3102646386112&#45;&#45;3102646383904</title>
<path fill="none" stroke="black" d="M955.139,-288.411C959.067,-277.414 964.205,-263.027 968.159,-251.956"/>
</g>
<!-- 3102646382800 -->
<g id="node28" class="node"><title>3102646382800</title>
<ellipse fill="none" stroke="black" cx="1075.21" cy="-234" rx="27" ry="18"/>
<text text-anchor="middle" x="1075.21" y="-230.5" font-family="Times New Roman,serif" font-size="15.00">seq</text>
</g>
<!-- 3102646386112&#45;&#45;3102646382800 -->
<g id="edge33" class="edge"><title>3102646386112&#45;&#45;3102646382800</title>
<path fill="none" stroke="black" d="M969.459,-293.753C992.972,-280.691 1031.53,-259.27 1055.02,-246.219"/>
</g>
<!-- 3102646384192 -->
<g id="node29" class="node"><title>3102646384192</title>
<ellipse fill="none" stroke="black" cx="1015.21" cy="-162" rx="52.6228" ry="18"/>
<text text-anchor="middle" x="1015.21" y="-158.5" font-family="Times New Roman,serif" font-size="15.00">Send Fine</text>
</g>
<!-- 3102646382800&#45;&#45;3102646384192 -->
<g id="edge24" class="edge"><title>3102646382800&#45;&#45;3102646384192</title>
<path fill="none" stroke="black" d="M1062.2,-217.811C1052.55,-206.552 1039.4,-191.215 1029.47,-179.628"/>
</g>
<!-- 3102646384720 -->
<g id="node30" class="node"><title>3102646384720</title>
<ellipse fill="none" stroke="black" cx="1194.21" cy="-162" rx="107.914" ry="18"/>
<text text-anchor="middle" x="1194.21" y="-158.5" font-family="Times New Roman,serif" font-size="15.00">Insert Fine Notification</text>
</g>
<!-- 3102646382800&#45;&#45;3102646384720 -->
<g id="edge25" class="edge"><title>3102646382800&#45;&#45;3102646384720</title>
<path fill="none" stroke="black" d="M1094.87,-221.441C1114.27,-210.024 1144.15,-192.449 1166.07,-179.553"/>
</g>
<!-- 3102646385920 -->
<g id="node31" class="node"><title>3102646385920</title>
<ellipse fill="none" stroke="black" cx="1347.21" cy="-162" rx="27" ry="18"/>
<text text-anchor="middle" x="1347.21" y="-158.5" font-family="Times New Roman,serif" font-size="15.00">and</text>
</g>
<!-- 3102646382800&#45;&#45;3102646385920 -->
<g id="edge32" class="edge"><title>3102646382800&#45;&#45;3102646385920</title>
<path fill="none" stroke="black" d="M1100.32,-226.54C1152.13,-213.205 1270.41,-182.766 1322.17,-169.444"/>
</g>
<!-- 3102646385872 -->
<g id="node32" class="node"><title>3102646385872</title>
<ellipse fill="none" stroke="black" cx="1347.21" cy="-90" rx="27" ry="18"/>
<text text-anchor="middle" x="1347.21" y="-86.5" font-family="Times New Roman,serif" font-size="15.00">xor</text>
</g>
<!-- 3102646385920&#45;&#45;3102646385872 -->
<g id="edge28" class="edge"><title>3102646385920&#45;&#45;3102646385872</title>
<path fill="none" stroke="black" d="M1347.21,-143.697C1347.21,-132.846 1347.21,-118.917 1347.21,-108.104"/>
</g>
<!-- 3102646384480 -->
<g id="node35" class="node"><title>3102646384480</title>
<ellipse fill="none" stroke="black" cx="1446.21" cy="-90" rx="46.6143" ry="18"/>
<text text-anchor="middle" x="1446.21" y="-86.5" font-family="Times New Roman,serif" font-size="15.00">xor loop</text>
</g>
<!-- 3102646385920&#45;&#45;3102646384480 -->
<g id="edge31" class="edge"><title>3102646385920&#45;&#45;3102646384480</title>
<path fill="none" stroke="black" d="M1365.37,-148.161C1382.12,-136.32 1407,-118.731 1424.73,-106.194"/>
</g>
<!-- 3102646384672 -->
<g id="node33" class="node"><title>3102646384672</title>
<ellipse fill="black" stroke="black" cx="1248.21" cy="-18" rx="2.7" ry="2.7"/>
</g>
<!-- 3102646385872&#45;&#45;3102646384672 -->
<g id="edge26" class="edge"><title>3102646385872&#45;&#45;3102646384672</title>
<path fill="none" stroke="black" d="M1329.06,-76.1609C1303.6,-58.1628 1259.36,-26.8831 1249.99,-20.2559"/>
</g>
<!-- 3102646386064 -->
<g id="node34" class="node"><title>3102646386064</title>
<ellipse fill="none" stroke="black" cx="1347.21" cy="-18" rx="78.5434" ry="18"/>
<text text-anchor="middle" x="1347.21" y="-14.5" font-family="Times New Roman,serif" font-size="15.00">Appeal to Judge</text>
</g>
<!-- 3102646385872&#45;&#45;3102646386064 -->
<g id="edge27" class="edge"><title>3102646385872&#45;&#45;3102646386064</title>
<path fill="none" stroke="black" d="M1347.21,-71.6966C1347.21,-60.8463 1347.21,-46.9167 1347.21,-36.1043"/>
</g>
<!-- 3102646385728 -->
<g id="node36" class="node"><title>3102646385728</title>
<ellipse fill="black" stroke="black" cx="1446.21" cy="-18" rx="2.7" ry="2.7"/>
</g>
<!-- 3102646384480&#45;&#45;3102646385728 -->
<g id="edge29" class="edge"><title>3102646384480&#45;&#45;3102646385728</title>
<path fill="none" stroke="black" d="M1446.21,-71.6966C1446.21,-53.8826 1446.21,-27.7686 1446.21,-20.7764"/>
</g>
<!-- 3102646386352 -->
<g id="node37" class="node"><title>3102646386352</title>
<ellipse fill="none" stroke="black" cx="1529.21" cy="-18" rx="61.6894" ry="18"/>
<text text-anchor="middle" x="1529.21" y="-14.5" font-family="Times New Roman,serif" font-size="15.00">Add penalty</text>
</g>
<!-- 3102646384480&#45;&#45;3102646386352 -->
<g id="edge30" class="edge"><title>3102646384480&#45;&#45;3102646386352</title>
<path fill="none" stroke="black" d="M1464.64,-73.4647C1478.1,-62.1062 1496.33,-46.7374 1509.98,-35.2216"/>
</g>
<!-- 3102646383424 -->
<g id="node39" class="node"><title>3102646383424</title>
<ellipse fill="black" stroke="black" cx="892.215" cy="-378" rx="2.7" ry="2.7"/>
</g>
<!-- 3102630831632&#45;&#45;3102646383424 -->
<g id="edge37" class="edge"><title>3102630831632&#45;&#45;3102646383424</title>
<path fill="none" stroke="black" d="M896.731,-431.697C895.205,-413.883 892.966,-387.769 892.367,-380.776"/>
</g>
<!-- 3102646383856 -->
<g id="node40" class="node"><title>3102646383856</title>
<ellipse fill="none" stroke="black" cx="1034.21" cy="-378" rx="120.819" ry="18"/>
<text text-anchor="middle" x="1034.21" y="-374.5" font-family="Times New Roman,serif" font-size="15.00">Send for Credit Collection</text>
</g>
<!-- 3102630831632&#45;&#45;3102646383856 -->
<g id="edge38" class="edge"><title>3102630831632&#45;&#45;3102646383856</title>
<path fill="none" stroke="black" d="M918.87,-438.369C941.014,-426.971 976.455,-408.729 1002.21,-395.471"/>
</g>
</g>
</svg>
