<?xml version="1.0" encoding="UTF-8" standalone="no"?>
<!DOCTYPE svg PUBLIC "-//W3C//DTD SVG 1.1//EN"
 "http://www.w3.org/Graphics/SVG/1.1/DTD/svg11.dtd">
<!-- Generated by graphviz version 2.38.0 (20140413.2041)
 -->
<!-- Title: pt Pages: 1 -->
<svg width="1447pt" height="620pt"
 viewBox="0.00 0.00 1446.54 620.00" xmlns="http://www.w3.org/2000/svg" xmlns:xlink="http://www.w3.org/1999/xlink">
<g id="graph0" class="graph" transform="scale(1 1) rotate(0) translate(4 616)">
<title>pt</title>
<!-- 3102631079216 -->
<g id="node1" class="node"><title>3102631079216</title>
<ellipse fill="none" stroke="black" cx="768.7" cy="-594" rx="27" ry="18"/>
<text text-anchor="middle" x="768.7" y="-590.5" font-family="Times New Roman,serif" font-size="15.00">seq</text>
</g>
<!-- 3102465377760 -->
<g id="node2" class="node"><title>3102465377760</title>
<ellipse fill="none" stroke="black" cx="663.7" cy="-522" rx="59.5207" ry="18"/>
<text text-anchor="middle" x="663.7" y="-518.5" font-family="Times New Roman,serif" font-size="15.00">Create Fine</text>
</g>
<!-- 3102631079216&#45;&#45;3102465377760 -->
<g id="edge1" class="edge"><title>3102631079216&#45;&#45;3102465377760</title>
<path fill="none" stroke="black" d="M749.928,-580.485C732.35,-568.767 706.023,-551.215 687.086,-538.591"/>
</g>
<!-- 3102465378912 -->
<g id="node3" class="node"><title>3102465378912</title>
<ellipse fill="none" stroke="black" cx="768.7" cy="-522" rx="27" ry="18"/>
<text text-anchor="middle" x="768.7" y="-518.5" font-family="Times New Roman,serif" font-size="15.00">and</text>
</g>
<!-- 3102631079216&#45;&#45;3102465378912 -->
<g id="edge45" class="edge"><title>3102631079216&#45;&#45;3102465378912</title>
<path fill="none" stroke="black" d="M768.7,-575.697C768.7,-564.846 768.7,-550.917 768.7,-540.104"/>
</g>
<!-- 3102462407296 -->
<g id="node47" class="node"><title>3102462407296</title>
<ellipse fill="none" stroke="black" cx="840.7" cy="-522" rx="27" ry="18"/>
<text text-anchor="middle" x="840.7" y="-518.5" font-family="Times New Roman,serif" font-size="15.00">xor</text>
</g>
<!-- 3102631079216&#45;&#45;3102462407296 -->
<g id="edge48" class="edge"><title>3102631079216&#45;&#45;3102462407296</title>
<path fill="none" stroke="black" d="M783.27,-578.834C795.68,-566.77 813.431,-549.512 825.904,-537.385"/>
</g>
<!-- 3102465371824 -->
<g id="node4" class="node"><title>3102465371824</title>
<ellipse fill="none" stroke="black" cx="668.7" cy="-450" rx="27" ry="18"/>
<text text-anchor="middle" x="668.7" y="-446.5" font-family="Times New Roman,serif" font-size="15.00">xor</text>
</g>
<!-- 3102465378912&#45;&#45;3102465371824 -->
<g id="edge27" class="edge"><title>3102465378912&#45;&#45;3102465371824</title>
<path fill="none" stroke="black" d="M750.822,-508.485C732.732,-495.823 704.915,-476.351 686.76,-463.642"/>
</g>
<!-- 3102465379920 -->
<g id="node30" class="node"><title>3102465379920</title>
<ellipse fill="none" stroke="black" cx="774.7" cy="-450" rx="27" ry="18"/>
<text text-anchor="middle" x="774.7" y="-446.5" font-family="Times New Roman,serif" font-size="15.00">and</text>
</g>
<!-- 3102465378912&#45;&#45;3102465379920 -->
<g id="edge44" class="edge"><title>3102465378912&#45;&#45;3102465379920</title>
<path fill="none" stroke="black" d="M770.183,-503.697C771.113,-492.846 772.307,-478.917 773.234,-468.104"/>
</g>
<!-- 3102465476928 -->
<g id="node5" class="node"><title>3102465476928</title>
<ellipse fill="black" stroke="black" cx="620.7" cy="-378" rx="2.7" ry="2.7"/>
</g>
<!-- 3102465371824&#45;&#45;3102465476928 -->
<g id="edge2" class="edge"><title>3102465371824&#45;&#45;3102465476928</title>
<path fill="none" stroke="black" d="M657.808,-433.116C645.638,-415.367 626.98,-388.158 621.973,-380.857"/>
</g>
<!-- 3102465022752 -->
<g id="node6" class="node"><title>3102465022752</title>
<ellipse fill="none" stroke="black" cx="668.7" cy="-378" rx="27" ry="18"/>
<text text-anchor="middle" x="668.7" y="-374.5" font-family="Times New Roman,serif" font-size="15.00">seq</text>
</g>
<!-- 3102465371824&#45;&#45;3102465022752 -->
<g id="edge26" class="edge"><title>3102465371824&#45;&#45;3102465022752</title>
<path fill="none" stroke="black" d="M668.7,-431.697C668.7,-420.846 668.7,-406.917 668.7,-396.104"/>
</g>
<!-- 3102627025008 -->
<g id="node7" class="node"><title>3102627025008</title>
<ellipse fill="none" stroke="black" cx="382.7" cy="-306" rx="27" ry="18"/>
<text text-anchor="middle" x="382.7" y="-302.5" font-family="Times New Roman,serif" font-size="15.00">xor</text>
</g>
<!-- 3102465022752&#45;&#45;3102627025008 -->
<g id="edge5" class="edge"><title>3102465022752&#45;&#45;3102627025008</title>
<path fill="none" stroke="black" d="M643.82,-370.91C589.731,-357.672 461.948,-326.396 407.726,-313.125"/>
</g>
<!-- 3102627028608 -->
<g id="node10" class="node"><title>3102627028608</title>
<ellipse fill="none" stroke="black" cx="611.7" cy="-306" rx="27" ry="18"/>
<text text-anchor="middle" x="611.7" y="-302.5" font-family="Times New Roman,serif" font-size="15.00">xor</text>
</g>
<!-- 3102465022752&#45;&#45;3102627028608 -->
<g id="edge22" class="edge"><title>3102465022752&#45;&#45;3102627028608</title>
<path fill="none" stroke="black" d="M656.332,-361.811C646.771,-350.07 633.599,-333.893 624.044,-322.159"/>
</g>
<!-- 3102627025152 -->
<g id="node27" class="node"><title>3102627025152</title>
<ellipse fill="none" stroke="black" cx="683.7" cy="-306" rx="27" ry="18"/>
<text text-anchor="middle" x="683.7" y="-302.5" font-family="Times New Roman,serif" font-size="15.00">xor</text>
</g>
<!-- 3102465022752&#45;&#45;3102627025152 -->
<g id="edge25" class="edge"><title>3102465022752&#45;&#45;3102627025152</title>
<path fill="none" stroke="black" d="M672.331,-360.055C674.655,-349.211 677.661,-335.183 679.998,-324.275"/>
</g>
<!-- 3102627026832 -->
<g id="node8" class="node"><title>3102627026832</title>
<ellipse fill="black" stroke="black" cx="217.7" cy="-234" rx="2.7" ry="2.7"/>
</g>
<!-- 3102627025008&#45;&#45;3102627026832 -->
<g id="edge3" class="edge"><title>3102627025008&#45;&#45;3102627026832</title>
<path fill="none" stroke="black" d="M360.447,-295.559C319.28,-278.094 234.105,-241.96 219.769,-235.878"/>
</g>
<!-- 3102627027264 -->
<g id="node9" class="node"><title>3102627027264</title>
<ellipse fill="none" stroke="black" cx="382.7" cy="-234" rx="144.571" ry="18"/>
<text text-anchor="middle" x="382.7" y="-230.5" font-family="Times New Roman,serif" font-size="15.00">Insert Date Appeal to Prefecture</text>
</g>
<!-- 3102627025008&#45;&#45;3102627027264 -->
<g id="edge4" class="edge"><title>3102627025008&#45;&#45;3102627027264</title>
<path fill="none" stroke="black" d="M382.7,-287.697C382.7,-276.846 382.7,-262.917 382.7,-252.104"/>
</g>
<!-- 3102627026544 -->
<g id="node11" class="node"><title>3102627026544</title>
<ellipse fill="black" stroke="black" cx="547.7" cy="-234" rx="2.7" ry="2.7"/>
</g>
<!-- 3102627028608&#45;&#45;3102627026544 -->
<g id="edge6" class="edge"><title>3102627028608&#45;&#45;3102627026544</title>
<path fill="none" stroke="black" d="M598.127,-290.155C581.689,-272.175 555.409,-243.432 549.096,-236.527"/>
</g>
<!-- 3102627028800 -->
<g id="node12" class="node"><title>3102627028800</title>
<ellipse fill="none" stroke="black" cx="614.7" cy="-234" rx="46.6143" ry="18"/>
<text text-anchor="middle" x="614.7" y="-230.5" font-family="Times New Roman,serif" font-size="15.00">xor loop</text>
</g>
<!-- 3102627028608&#45;&#45;3102627028800 -->
<g id="edge21" class="edge"><title>3102627028608&#45;&#45;3102627028800</title>
<path fill="none" stroke="black" d="M612.442,-287.697C612.907,-276.846 613.504,-262.917 613.967,-252.104"/>
</g>
<!-- 3102627025536 -->
<g id="node13" class="node"><title>3102627025536</title>
<ellipse fill="none" stroke="black" cx="590.7" cy="-162" rx="27" ry="18"/>
<text text-anchor="middle" x="590.7" y="-158.5" font-family="Times New Roman,serif" font-size="15.00">seq</text>
</g>
<!-- 3102627028800&#45;&#45;3102627025536 -->
<g id="edge19" class="edge"><title>3102627028800&#45;&#45;3102627025536</title>
<path fill="none" stroke="black" d="M608.89,-216.055C605.117,-205.049 600.219,-190.764 596.456,-179.789"/>
</g>
<!-- 3102627028128 -->
<g id="node26" class="node"><title>3102627028128</title>
<ellipse fill="black" stroke="black" cx="638.7" cy="-162" rx="2.7" ry="2.7"/>
</g>
<!-- 3102627028800&#45;&#45;3102627028128 -->
<g id="edge20" class="edge"><title>3102627028800&#45;&#45;3102627028128</title>
<path fill="none" stroke="black" d="M620.51,-216.055C626.614,-198.252 635.66,-171.865 638.084,-164.796"/>
</g>
<!-- 3102627026640 -->
<g id="node14" class="node"><title>3102627026640</title>
<ellipse fill="none" stroke="black" cx="196.7" cy="-90" rx="27" ry="18"/>
<text text-anchor="middle" x="196.7" y="-86.5" font-family="Times New Roman,serif" font-size="15.00">xor</text>
</g>
<!-- 3102627025536&#45;&#45;3102627026640 -->
<g id="edge9" class="edge"><title>3102627025536&#45;&#45;3102627026640</title>
<path fill="none" stroke="black" d="M564.849,-156.407C493.373,-143.708 293.672,-108.229 222.39,-95.5642"/>
</g>
<!-- 3102627025296 -->
<g id="node17" class="node"><title>3102627025296</title>
<ellipse fill="none" stroke="black" cx="559.7" cy="-90" rx="27" ry="18"/>
<text text-anchor="middle" x="559.7" y="-86.5" font-family="Times New Roman,serif" font-size="15.00">xor</text>
</g>
<!-- 3102627025536&#45;&#45;3102627025296 -->
<g id="edge12" class="edge"><title>3102627025536&#45;&#45;3102627025296</title>
<path fill="none" stroke="black" d="M583.353,-144.411C578.412,-133.252 571.924,-118.604 566.994,-107.47"/>
</g>
<!-- 3102627027072 -->
<g id="node20" class="node"><title>3102627027072</title>
<ellipse fill="none" stroke="black" cx="728.7" cy="-90" rx="27" ry="18"/>
<text text-anchor="middle" x="728.7" y="-86.5" font-family="Times New Roman,serif" font-size="15.00">xor</text>
</g>
<!-- 3102627025536&#45;&#45;3102627027072 -->
<g id="edge15" class="edge"><title>3102627025536&#45;&#45;3102627027072</title>
<path fill="none" stroke="black" d="M611.659,-150.369C637.597,-137.212 681.515,-114.934 707.544,-101.732"/>
</g>
<!-- 3102627027216 -->
<g id="node23" class="node"><title>3102627027216</title>
<ellipse fill="none" stroke="black" cx="1012.7" cy="-90" rx="27" ry="18"/>
<text text-anchor="middle" x="1012.7" y="-86.5" font-family="Times New Roman,serif" font-size="15.00">xor</text>
</g>
<!-- 3102627025536&#45;&#45;3102627027216 -->
<g id="edge18" class="edge"><title>3102627025536&#45;&#45;3102627027216</title>
<path fill="none" stroke="black" d="M616.78,-156.674C692.432,-144.125 911.362,-107.81 986.795,-95.2971"/>
</g>
<!-- 3102627026784 -->
<g id="node15" class="node"><title>3102627026784</title>
<ellipse fill="black" stroke="black" cx="2.7" cy="-18" rx="2.7" ry="2.7"/>
</g>
<!-- 3102627026640&#45;&#45;3102627026784 -->
<g id="edge7" class="edge"><title>3102627026640&#45;&#45;3102627026784</title>
<path fill="none" stroke="black" d="M173.299,-80.5564C125.732,-63.393 20.8825,-25.5607 4.79009,-19.7542"/>
</g>
<!-- 3102627026928 -->
<g id="node16" class="node"><title>3102627026928</title>
<ellipse fill="none" stroke="black" cx="196.7" cy="-18" rx="173.941" ry="18"/>
<text text-anchor="middle" x="196.7" y="-14.5" font-family="Times New Roman,serif" font-size="15.00">Receive Result Appeal from Prefecture</text>
</g>
<!-- 3102627026640&#45;&#45;3102627026928 -->
<g id="edge8" class="edge"><title>3102627026640&#45;&#45;3102627026928</title>
<path fill="none" stroke="black" d="M196.7,-71.6966C196.7,-60.8463 196.7,-46.9167 196.7,-36.1043"/>
</g>
<!-- 3102627026400 -->
<g id="node18" class="node"><title>3102627026400</title>
<ellipse fill="black" stroke="black" cx="390.7" cy="-18" rx="2.7" ry="2.7"/>
</g>
<!-- 3102627025296&#45;&#45;3102627026400 -->
<g id="edge10" class="edge"><title>3102627025296&#45;&#45;3102627026400</title>
<path fill="none" stroke="black" d="M537.258,-79.7045C495.237,-62.2995 407.585,-25.9938 392.83,-19.8823"/>
</g>
<!-- 3102627027504 -->
<g id="node19" class="node"><title>3102627027504</title>
<ellipse fill="none" stroke="black" cx="559.7" cy="-18" rx="148.91" ry="18"/>
<text text-anchor="middle" x="559.7" y="-14.5" font-family="Times New Roman,serif" font-size="15.00">Notify Result Appeal to Offender</text>
</g>
<!-- 3102627025296&#45;&#45;3102627027504 -->
<g id="edge11" class="edge"><title>3102627025296&#45;&#45;3102627027504</title>
<path fill="none" stroke="black" d="M559.7,-71.6966C559.7,-60.8463 559.7,-46.9167 559.7,-36.1043"/>
</g>
<!-- 3102627024960 -->
<g id="node21" class="node"><title>3102627024960</title>
<ellipse fill="black" stroke="black" cx="728.7" cy="-18" rx="2.7" ry="2.7"/>
</g>
<!-- 3102627027072&#45;&#45;3102627024960 -->
<g id="edge13" class="edge"><title>3102627027072&#45;&#45;3102627024960</title>
<path fill="none" stroke="black" d="M728.7,-71.6966C728.7,-53.8826 728.7,-27.7686 728.7,-20.7764"/>
</g>
<!-- 3102627028032 -->
<g id="node22" class="node"><title>3102627028032</title>
<ellipse fill="none" stroke="black" cx="870.7" cy="-18" rx="120.819" ry="18"/>
<text text-anchor="middle" x="870.7" y="-14.5" font-family="Times New Roman,serif" font-size="15.00">Send for Credit Collection</text>
</g>
<!-- 3102627027072&#45;&#45;3102627028032 -->
<g id="edge14" class="edge"><title>3102627027072&#45;&#45;3102627028032</title>
<path fill="none" stroke="black" d="M749.959,-78.5203C773.092,-67.1164 810.384,-48.7333 837.408,-35.4115"/>
</g>
<!-- 3102627025344 -->
<g id="node24" class="node"><title>3102627025344</title>
<ellipse fill="black" stroke="black" cx="1012.7" cy="-18" rx="2.7" ry="2.7"/>
</g>
<!-- 3102627027216&#45;&#45;3102627025344 -->
<g id="edge16" class="edge"><title>3102627027216&#45;&#45;3102627025344</title>
<path fill="none" stroke="black" d="M1012.7,-71.6966C1012.7,-53.8826 1012.7,-27.7686 1012.7,-20.7764"/>
</g>
<!-- 3102627026016 -->
<g id="node25" class="node"><title>3102627026016</title>
<ellipse fill="none" stroke="black" cx="1153.7" cy="-18" rx="120.43" ry="18"/>
<text text-anchor="middle" x="1153.7" y="-14.5" font-family="Times New Roman,serif" font-size="15.00">Send Appeal to Prefecture</text>
</g>
<!-- 3102627027216&#45;&#45;3102627026016 -->
<g id="edge17" class="edge"><title>3102627027216&#45;&#45;3102627026016</title>
<path fill="none" stroke="black" d="M1033.81,-78.5203C1056.78,-67.1164 1093.81,-48.7333 1120.64,-35.4115"/>
</g>
<!-- 3102627025392 -->
<g id="node28" class="node"><title>3102627025392</title>
<ellipse fill="black" stroke="black" cx="681.7" cy="-234" rx="2.7" ry="2.7"/>
</g>
<!-- 3102627025152&#45;&#45;3102627025392 -->
<g id="edge23" class="edge"><title>3102627025152&#45;&#45;3102627025392</title>
<path fill="none" stroke="black" d="M683.206,-287.697C682.697,-269.883 681.951,-243.769 681.751,-236.776"/>
</g>
<!-- 3102627025872 -->
<g id="node29" class="node"><title>3102627025872</title>
<ellipse fill="none" stroke="black" cx="780.7" cy="-234" rx="78.5434" ry="18"/>
<text text-anchor="middle" x="780.7" y="-230.5" font-family="Times New Roman,serif" font-size="15.00">Appeal to Judge</text>
</g>
<!-- 3102627025152&#45;&#45;3102627025872 -->
<g id="edge24" class="edge"><title>3102627025152&#45;&#45;3102627025872</title>
<path fill="none" stroke="black" d="M701.491,-292.161C717.352,-280.715 740.657,-263.897 757.885,-251.464"/>
</g>
<!-- 3102627026688 -->
<g id="node31" class="node"><title>3102627026688</title>
<ellipse fill="none" stroke="black" cx="774.7" cy="-378" rx="46.6143" ry="18"/>
<text text-anchor="middle" x="774.7" y="-374.5" font-family="Times New Roman,serif" font-size="15.00">xor loop</text>
</g>
<!-- 3102465379920&#45;&#45;3102627026688 -->
<g id="edge30" class="edge"><title>3102465379920&#45;&#45;3102627026688</title>
<path fill="none" stroke="black" d="M774.7,-431.697C774.7,-420.846 774.7,-406.917 774.7,-396.104"/>
</g>
<!-- 3102627027408 -->
<g id="node34" class="node"><title>3102627027408</title>
<ellipse fill="none" stroke="black" cx="945.7" cy="-378" rx="27" ry="18"/>
<text text-anchor="middle" x="945.7" y="-374.5" font-family="Times New Roman,serif" font-size="15.00">xor</text>
</g>
<!-- 3102465379920&#45;&#45;3102627027408 -->
<g id="edge43" class="edge"><title>3102465379920&#45;&#45;3102627027408</title>
<path fill="none" stroke="black" d="M797.055,-439.849C829.827,-426.433 890.564,-401.57 923.339,-388.154"/>
</g>
<!-- 3102465423248 -->
<g id="node32" class="node"><title>3102465423248</title>
<ellipse fill="black" stroke="black" cx="745.7" cy="-306" rx="2.7" ry="2.7"/>
</g>
<!-- 3102627026688&#45;&#45;3102465423248 -->
<g id="edge28" class="edge"><title>3102627026688&#45;&#45;3102465423248</title>
<path fill="none" stroke="black" d="M767.68,-360.055C760.304,-342.252 749.373,-315.865 746.444,-308.796"/>
</g>
<!-- 3102465421904 -->
<g id="node33" class="node"><title>3102465421904</title>
<ellipse fill="none" stroke="black" cx="812.7" cy="-306" rx="45.7249" ry="18"/>
<text text-anchor="middle" x="812.7" y="-302.5" font-family="Times New Roman,serif" font-size="15.00">Payment</text>
</g>
<!-- 3102627026688&#45;&#45;3102465421904 -->
<g id="edge29" class="edge"><title>3102627026688&#45;&#45;3102465421904</title>
<path fill="none" stroke="black" d="M783.899,-360.055C789.873,-349.049 797.628,-334.764 803.586,-323.789"/>
</g>
<!-- 3102465423824 -->
<g id="node35" class="node"><title>3102465423824</title>
<ellipse fill="black" stroke="black" cx="908.7" cy="-306" rx="2.7" ry="2.7"/>
</g>
<!-- 3102627027408&#45;&#45;3102465423824 -->
<g id="edge31" class="edge"><title>3102627027408&#45;&#45;3102465423824</title>
<path fill="none" stroke="black" d="M937.118,-360.765C927.725,-342.994 913.489,-316.06 909.671,-308.836"/>
</g>
<!-- 3102631216176 -->
<g id="node36" class="node"><title>3102631216176</title>
<ellipse fill="none" stroke="black" cx="982.7" cy="-306" rx="52.6228" ry="18"/>
<text text-anchor="middle" x="982.7" y="-302.5" font-family="Times New Roman,serif" font-size="15.00">Send Fine</text>
</g>
<!-- 3102627027408&#45;&#45;3102631216176 -->
<g id="edge32" class="edge"><title>3102627027408&#45;&#45;3102631216176</title>
<path fill="none" stroke="black" d="M954.282,-360.765C960.088,-349.779 967.746,-335.292 973.649,-324.124"/>
</g>
<!-- 3102631218240 -->
<g id="node37" class="node"><title>3102631218240</title>
<ellipse fill="none" stroke="black" cx="1095.7" cy="-306" rx="27" ry="18"/>
<text text-anchor="middle" x="1095.7" y="-302.5" font-family="Times New Roman,serif" font-size="15.00">seq</text>
</g>
<!-- 3102627027408&#45;&#45;3102631218240 -->
<g id="edge42" class="edge"><title>3102627027408&#45;&#45;3102631218240</title>
<path fill="none" stroke="black" d="M967.191,-366.971C995.706,-353.664 1045.75,-330.308 1074.25,-317.011"/>
</g>
<!-- 3102631218096 -->
<g id="node38" class="node"><title>3102631218096</title>
<ellipse fill="none" stroke="black" cx="929.7" cy="-234" rx="52.6228" ry="18"/>
<text text-anchor="middle" x="929.7" y="-230.5" font-family="Times New Roman,serif" font-size="15.00">Send Fine</text>
</g>
<!-- 3102631218240&#45;&#45;3102631218096 -->
<g id="edge33" class="edge"><title>3102631218240&#45;&#45;3102631218096</title>
<path fill="none" stroke="black" d="M1073.31,-295.559C1044.55,-283.431 994.437,-262.299 961.668,-248.481"/>
</g>
<!-- 3102631216320 -->
<g id="node39" class="node"><title>3102631216320</title>
<ellipse fill="none" stroke="black" cx="1108.7" cy="-234" rx="107.914" ry="18"/>
<text text-anchor="middle" x="1108.7" y="-230.5" font-family="Times New Roman,serif" font-size="15.00">Insert Fine Notification</text>
</g>
<!-- 3102631218240&#45;&#45;3102631216320 -->
<g id="edge34" class="edge"><title>3102631218240&#45;&#45;3102631216320</title>
<path fill="none" stroke="black" d="M1098.85,-288.055C1100.86,-277.211 1103.47,-263.183 1105.49,-252.275"/>
</g>
<!-- 3102631216944 -->
<g id="node40" class="node"><title>3102631216944</title>
<ellipse fill="none" stroke="black" cx="1261.7" cy="-234" rx="27" ry="18"/>
<text text-anchor="middle" x="1261.7" y="-230.5" font-family="Times New Roman,serif" font-size="15.00">and</text>
</g>
<!-- 3102631218240&#45;&#45;3102631216944 -->
<g id="edge41" class="edge"><title>3102631218240&#45;&#45;3102631216944</title>
<path fill="none" stroke="black" d="M1118.09,-295.559C1149.86,-282.162 1207.68,-257.779 1239.4,-244.402"/>
</g>
<!-- 3102631218000 -->
<g id="node41" class="node"><title>3102631218000</title>
<ellipse fill="none" stroke="black" cx="1194.7" cy="-162" rx="27" ry="18"/>
<text text-anchor="middle" x="1194.7" y="-158.5" font-family="Times New Roman,serif" font-size="15.00">xor</text>
</g>
<!-- 3102631216944&#45;&#45;3102631218000 -->
<g id="edge37" class="edge"><title>3102631216944&#45;&#45;3102631218000</title>
<path fill="none" stroke="black" d="M1247.82,-218.496C1236.32,-206.482 1220.06,-189.494 1208.56,-177.485"/>
</g>
<!-- 3102631217568 -->
<g id="node44" class="node"><title>3102631217568</title>
<ellipse fill="none" stroke="black" cx="1293.7" cy="-162" rx="46.6143" ry="18"/>
<text text-anchor="middle" x="1293.7" y="-158.5" font-family="Times New Roman,serif" font-size="15.00">xor loop</text>
</g>
<!-- 3102631216944&#45;&#45;3102631217568 -->
<g id="edge40" class="edge"><title>3102631216944&#45;&#45;3102631217568</title>
<path fill="none" stroke="black" d="M1269.28,-216.411C1274.31,-205.414 1280.89,-191.027 1285.95,-179.956"/>
</g>
<!-- 3102631216656 -->
<g id="node42" class="node"><title>3102631216656</title>
<ellipse fill="black" stroke="black" cx="1095.7" cy="-90" rx="2.7" ry="2.7"/>
</g>
<!-- 3102631218000&#45;&#45;3102631216656 -->
<g id="edge35" class="edge"><title>3102631218000&#45;&#45;3102631216656</title>
<path fill="none" stroke="black" d="M1176.54,-148.161C1151.09,-130.163 1106.85,-98.8831 1097.48,-92.2559"/>
</g>
<!-- 3102631217376 -->
<g id="node43" class="node"><title>3102631217376</title>
<ellipse fill="none" stroke="black" cx="1194.7" cy="-90" rx="78.5434" ry="18"/>
<text text-anchor="middle" x="1194.7" y="-86.5" font-family="Times New Roman,serif" font-size="15.00">Appeal to Judge</text>
</g>
<!-- 3102631218000&#45;&#45;3102631217376 -->
<g id="edge36" class="edge"><title>3102631218000&#45;&#45;3102631217376</title>
<path fill="none" stroke="black" d="M1194.7,-143.697C1194.7,-132.846 1194.7,-118.917 1194.7,-108.104"/>
</g>
<!-- 3102631216704 -->
<g id="node45" class="node"><title>3102631216704</title>
<ellipse fill="black" stroke="black" cx="1293.7" cy="-90" rx="2.7" ry="2.7"/>
</g>
<!-- 3102631217568&#45;&#45;3102631216704 -->
<g id="edge38" class="edge"><title>3102631217568&#45;&#45;3102631216704</title>
<path fill="none" stroke="black" d="M1293.7,-143.697C1293.7,-125.883 1293.7,-99.7686 1293.7,-92.7764"/>
</g>
<!-- 3102631217472 -->
<g id="node46" class="node"><title>3102631217472</title>
<ellipse fill="none" stroke="black" cx="1376.7" cy="-90" rx="61.6894" ry="18"/>
<text text-anchor="middle" x="1376.7" y="-86.5" font-family="Times New Roman,serif" font-size="15.00">Add penalty</text>
</g>
<!-- 3102631217568&#45;&#45;3102631217472 -->
<g id="edge39" class="edge"><title>3102631217568&#45;&#45;3102631217472</title>
<path fill="none" stroke="black" d="M1312.12,-145.465C1325.59,-134.106 1343.81,-118.737 1357.47,-107.222"/>
</g>
<!-- 3102627026448 -->
<g id="node48" class="node"><title>3102627026448</title>
<ellipse fill="black" stroke="black" cx="834.7" cy="-450" rx="2.7" ry="2.7"/>
</g>
<!-- 3102462407296&#45;&#45;3102627026448 -->
<g id="edge46" class="edge"><title>3102462407296&#45;&#45;3102627026448</title>
<path fill="none" stroke="black" d="M839.217,-503.697C837.69,-485.883 835.452,-459.769 834.852,-452.776"/>
</g>
<!-- 3102627025776 -->
<g id="node49" class="node"><title>3102627025776</title>
<ellipse fill="none" stroke="black" cx="976.7" cy="-450" rx="120.819" ry="18"/>
<text text-anchor="middle" x="976.7" y="-446.5" font-family="Times New Roman,serif" font-size="15.00">Send for Credit Collection</text>
</g>
<!-- 3102462407296&#45;&#45;3102627025776 -->
<g id="edge47" class="edge"><title>3102462407296&#45;&#45;3102627025776</title>
<path fill="none" stroke="black" d="M861.355,-510.369C883.499,-498.971 918.94,-480.729 944.699,-467.471"/>
</g>
</g>
</svg>
