<?xml version="1.0" encoding="UTF-8" standalone="no"?>
<!DOCTYPE svg PUBLIC "-//W3C//DTD SVG 1.1//EN"
 "http://www.w3.org/Graphics/SVG/1.1/DTD/svg11.dtd">
<!-- Generated by graphviz version 2.38.0 (20140413.2041)
 -->
<!-- Title: pt Pages: 1 -->
<svg width="2427pt" height="476pt"
 viewBox="0.00 0.00 2426.54 476.00" xmlns="http://www.w3.org/2000/svg" xmlns:xlink="http://www.w3.org/1999/xlink">
<g id="graph0" class="graph" transform="scale(1 1) rotate(0) translate(4 472)">
<title>pt</title>
<!-- 1739120289344 -->
<g id="node1" class="node"><title>1739120289344</title>
<ellipse fill="none" stroke="black" cx="678.7" cy="-450" rx="27" ry="18"/>
<text text-anchor="middle" x="678.7" y="-446.5" font-family="Times New Roman,serif" font-size="15.00">seq</text>
</g>
<!-- 1739120289152 -->
<g id="node2" class="node"><title>1739120289152</title>
<ellipse fill="none" stroke="black" cx="573.7" cy="-378" rx="59.5207" ry="18"/>
<text text-anchor="middle" x="573.7" y="-374.5" font-family="Times New Roman,serif" font-size="15.00">Create Fine</text>
</g>
<!-- 1739120289344&#45;&#45;1739120289152 -->
<g id="edge1" class="edge"><title>1739120289344&#45;&#45;1739120289152</title>
<path fill="none" stroke="black" d="M659.928,-436.485C642.35,-424.767 616.023,-407.215 597.086,-394.591"/>
</g>
<!-- 1739120289968 -->
<g id="node3" class="node"><title>1739120289968</title>
<ellipse fill="none" stroke="black" cx="678.7" cy="-378" rx="27" ry="18"/>
<text text-anchor="middle" x="678.7" y="-374.5" font-family="Times New Roman,serif" font-size="15.00">and</text>
</g>
<!-- 1739120289344&#45;&#45;1739120289968 -->
<g id="edge42" class="edge"><title>1739120289344&#45;&#45;1739120289968</title>
<path fill="none" stroke="black" d="M678.7,-431.697C678.7,-420.846 678.7,-406.917 678.7,-396.104"/>
</g>
<!-- 1739120289392 -->
<g id="node44" class="node"><title>1739120289392</title>
<ellipse fill="none" stroke="black" cx="750.7" cy="-378" rx="27" ry="18"/>
<text text-anchor="middle" x="750.7" y="-374.5" font-family="Times New Roman,serif" font-size="15.00">xor</text>
</g>
<!-- 1739120289344&#45;&#45;1739120289392 -->
<g id="edge45" class="edge"><title>1739120289344&#45;&#45;1739120289392</title>
<path fill="none" stroke="black" d="M693.27,-434.834C705.68,-422.77 723.431,-405.512 735.904,-393.385"/>
</g>
<!-- 1739120288048 -->
<g id="node4" class="node"><title>1739120288048</title>
<ellipse fill="none" stroke="black" cx="208.7" cy="-306" rx="27" ry="18"/>
<text text-anchor="middle" x="208.7" y="-302.5" font-family="Times New Roman,serif" font-size="15.00">xor</text>
</g>
<!-- 1739120289968&#45;&#45;1739120288048 -->
<g id="edge11" class="edge"><title>1739120289968&#45;&#45;1739120288048</title>
<path fill="none" stroke="black" d="M652.424,-373.087C569.973,-360.807 316.986,-323.128 234.791,-310.886"/>
</g>
<!-- 1739120288912 -->
<g id="node14" class="node"><title>1739120288912</title>
<ellipse fill="none" stroke="black" cx="684.7" cy="-306" rx="27" ry="18"/>
<text text-anchor="middle" x="684.7" y="-302.5" font-family="Times New Roman,serif" font-size="15.00">seq</text>
</g>
<!-- 1739120289968&#45;&#45;1739120288912 -->
<g id="edge41" class="edge"><title>1739120289968&#45;&#45;1739120288912</title>
<path fill="none" stroke="black" d="M680.183,-359.697C681.113,-348.846 682.307,-334.917 683.234,-324.104"/>
</g>
<!-- 1739120287808 -->
<g id="node5" class="node"><title>1739120287808</title>
<ellipse fill="black" stroke="black" cx="160.7" cy="-234" rx="2.7" ry="2.7"/>
</g>
<!-- 1739120288048&#45;&#45;1739120287808 -->
<g id="edge2" class="edge"><title>1739120288048&#45;&#45;1739120287808</title>
<path fill="none" stroke="black" d="M197.808,-289.116C185.638,-271.367 166.98,-244.158 161.973,-236.857"/>
</g>
<!-- 1739120288768 -->
<g id="node6" class="node"><title>1739120288768</title>
<ellipse fill="none" stroke="black" cx="208.7" cy="-234" rx="27" ry="18"/>
<text text-anchor="middle" x="208.7" y="-230.5" font-family="Times New Roman,serif" font-size="15.00">seq</text>
</g>
<!-- 1739120288048&#45;&#45;1739120288768 -->
<g id="edge10" class="edge"><title>1739120288048&#45;&#45;1739120288768</title>
<path fill="none" stroke="black" d="M208.7,-287.697C208.7,-276.846 208.7,-262.917 208.7,-252.104"/>
</g>
<!-- 1739120896848 -->
<g id="node7" class="node"><title>1739120896848</title>
<ellipse fill="none" stroke="black" cx="60.7" cy="-162" rx="52.6228" ry="18"/>
<text text-anchor="middle" x="60.7" y="-158.5" font-family="Times New Roman,serif" font-size="15.00">Send Fine</text>
</g>
<!-- 1739120288768&#45;&#45;1739120896848 -->
<g id="edge3" class="edge"><title>1739120288768&#45;&#45;1739120896848</title>
<path fill="none" stroke="black" d="M187.18,-222.821C161.685,-210.763 119.069,-190.607 90.4345,-177.064"/>
</g>
<!-- 1739120894256 -->
<g id="node8" class="node"><title>1739120894256</title>
<ellipse fill="none" stroke="black" cx="158.7" cy="-162" rx="27" ry="18"/>
<text text-anchor="middle" x="158.7" y="-158.5" font-family="Times New Roman,serif" font-size="15.00">xor</text>
</g>
<!-- 1739120288768&#45;&#45;1739120894256 -->
<g id="edge6" class="edge"><title>1739120288768&#45;&#45;1739120894256</title>
<path fill="none" stroke="black" d="M197.603,-217.465C189.318,-205.865 178.044,-190.082 169.766,-178.492"/>
</g>
<!-- 1739120289104 -->
<g id="node11" class="node"><title>1739120289104</title>
<ellipse fill="none" stroke="black" cx="258.7" cy="-162" rx="27" ry="18"/>
<text text-anchor="middle" x="258.7" y="-158.5" font-family="Times New Roman,serif" font-size="15.00">xor</text>
</g>
<!-- 1739120288768&#45;&#45;1739120289104 -->
<g id="edge9" class="edge"><title>1739120288768&#45;&#45;1739120289104</title>
<path fill="none" stroke="black" d="M219.797,-217.465C228.082,-205.865 239.356,-190.082 247.634,-178.492"/>
</g>
<!-- 1739119705440 -->
<g id="node9" class="node"><title>1739119705440</title>
<ellipse fill="black" stroke="black" cx="2.7" cy="-90" rx="2.7" ry="2.7"/>
</g>
<!-- 1739120894256&#45;&#45;1739119705440 -->
<g id="edge4" class="edge"><title>1739120894256&#45;&#45;1739119705440</title>
<path fill="none" stroke="black" d="M137.009,-151.267C98.1629,-133.836 19.4188,-98.502 4.99575,-92.0301"/>
</g>
<!-- 1739119705104 -->
<g id="node10" class="node"><title>1739119705104</title>
<ellipse fill="none" stroke="black" cx="130.7" cy="-90" rx="107.914" ry="18"/>
<text text-anchor="middle" x="130.7" y="-86.5" font-family="Times New Roman,serif" font-size="15.00">Insert Fine Notification</text>
</g>
<!-- 1739120894256&#45;&#45;1739119705104 -->
<g id="edge5" class="edge"><title>1739120894256&#45;&#45;1739119705104</title>
<path fill="none" stroke="black" d="M152.064,-144.411C147.73,-133.576 142.08,-119.45 137.679,-108.447"/>
</g>
<!-- 1739119702704 -->
<g id="node12" class="node"><title>1739119702704</title>
<ellipse fill="black" stroke="black" cx="258.7" cy="-90" rx="2.7" ry="2.7"/>
</g>
<!-- 1739120289104&#45;&#45;1739119702704 -->
<g id="edge7" class="edge"><title>1739120289104&#45;&#45;1739119702704</title>
<path fill="none" stroke="black" d="M258.7,-143.697C258.7,-125.883 258.7,-99.7686 258.7,-92.7764"/>
</g>
<!-- 1739119705056 -->
<g id="node13" class="node"><title>1739119705056</title>
<ellipse fill="none" stroke="black" cx="423.7" cy="-90" rx="144.571" ry="18"/>
<text text-anchor="middle" x="423.7" y="-86.5" font-family="Times New Roman,serif" font-size="15.00">Insert Date Appeal to Prefecture</text>
</g>
<!-- 1739120289104&#45;&#45;1739119705056 -->
<g id="edge8" class="edge"><title>1739120289104&#45;&#45;1739119705056</title>
<path fill="none" stroke="black" d="M280.953,-151.559C307.606,-140.252 352.706,-121.119 385.085,-107.382"/>
</g>
<!-- 1739120288720 -->
<g id="node15" class="node"><title>1739120288720</title>
<ellipse fill="none" stroke="black" cx="647.7" cy="-234" rx="27" ry="18"/>
<text text-anchor="middle" x="647.7" y="-230.5" font-family="Times New Roman,serif" font-size="15.00">xor</text>
</g>
<!-- 1739120288912&#45;&#45;1739120288720 -->
<g id="edge14" class="edge"><title>1739120288912&#45;&#45;1739120288720</title>
<path fill="none" stroke="black" d="M676.118,-288.765C670.141,-277.456 662.202,-262.437 656.235,-251.147"/>
</g>
<!-- 1739120291552 -->
<g id="node18" class="node"><title>1739120291552</title>
<ellipse fill="none" stroke="black" cx="721.7" cy="-234" rx="27" ry="18"/>
<text text-anchor="middle" x="721.7" y="-230.5" font-family="Times New Roman,serif" font-size="15.00">xor</text>
</g>
<!-- 1739120288912&#45;&#45;1739120291552 -->
<g id="edge22" class="edge"><title>1739120288912&#45;&#45;1739120291552</title>
<path fill="none" stroke="black" d="M693.282,-288.765C699.259,-277.456 707.198,-262.437 713.165,-251.147"/>
</g>
<!-- 1739120290784 -->
<g id="node26" class="node"><title>1739120290784</title>
<ellipse fill="none" stroke="black" cx="1422.7" cy="-234" rx="27" ry="18"/>
<text text-anchor="middle" x="1422.7" y="-230.5" font-family="Times New Roman,serif" font-size="15.00">and</text>
</g>
<!-- 1739120288912&#45;&#45;1739120290784 -->
<g id="edge40" class="edge"><title>1739120288912&#45;&#45;1739120290784</title>
<path fill="none" stroke="black" d="M711.402,-302.467C826.655,-291.535 1280.85,-248.454 1396.03,-237.529"/>
</g>
<!-- 1739120291792 -->
<g id="node16" class="node"><title>1739120291792</title>
<ellipse fill="black" stroke="black" cx="573.7" cy="-162" rx="2.7" ry="2.7"/>
</g>
<!-- 1739120288720&#45;&#45;1739120291792 -->
<g id="edge12" class="edge"><title>1739120288720&#45;&#45;1739120291792</title>
<path fill="none" stroke="black" d="M632.725,-218.834C613.805,-200.937 582.804,-171.612 575.349,-164.56"/>
</g>
<!-- 1739120289200 -->
<g id="node17" class="node"><title>1739120289200</title>
<ellipse fill="none" stroke="black" cx="647.7" cy="-162" rx="52.6228" ry="18"/>
<text text-anchor="middle" x="647.7" y="-158.5" font-family="Times New Roman,serif" font-size="15.00">Send Fine</text>
</g>
<!-- 1739120288720&#45;&#45;1739120289200 -->
<g id="edge13" class="edge"><title>1739120288720&#45;&#45;1739120289200</title>
<path fill="none" stroke="black" d="M647.7,-215.697C647.7,-204.846 647.7,-190.917 647.7,-180.104"/>
</g>
<!-- 1739120291264 -->
<g id="node19" class="node"><title>1739120291264</title>
<ellipse fill="black" stroke="black" cx="721.7" cy="-162" rx="2.7" ry="2.7"/>
</g>
<!-- 1739120291552&#45;&#45;1739120291264 -->
<g id="edge15" class="edge"><title>1739120291552&#45;&#45;1739120291264</title>
<path fill="none" stroke="black" d="M721.7,-215.697C721.7,-197.883 721.7,-171.769 721.7,-164.776"/>
</g>
<!-- 1739120288576 -->
<g id="node20" class="node"><title>1739120288576</title>
<ellipse fill="none" stroke="black" cx="769.7" cy="-162" rx="27" ry="18"/>
<text text-anchor="middle" x="769.7" y="-158.5" font-family="Times New Roman,serif" font-size="15.00">seq</text>
</g>
<!-- 1739120291552&#45;&#45;1739120288576 -->
<g id="edge21" class="edge"><title>1739120291552&#45;&#45;1739120288576</title>
<path fill="none" stroke="black" d="M732.592,-217.116C740.447,-205.66 751.006,-190.263 758.851,-178.821"/>
</g>
<!-- 1739120287952 -->
<g id="node21" class="node"><title>1739120287952</title>
<ellipse fill="none" stroke="black" cx="693.7" cy="-90" rx="107.914" ry="18"/>
<text text-anchor="middle" x="693.7" y="-86.5" font-family="Times New Roman,serif" font-size="15.00">Insert Fine Notification</text>
</g>
<!-- 1739120288576&#45;&#45;1739120287952 -->
<g id="edge16" class="edge"><title>1739120288576&#45;&#45;1739120287952</title>
<path fill="none" stroke="black" d="M754.32,-146.834C742.089,-135.569 724.941,-119.775 712.004,-107.859"/>
</g>
<!-- 1739120291360 -->
<g id="node22" class="node"><title>1739120291360</title>
<ellipse fill="none" stroke="black" cx="846.7" cy="-90" rx="27" ry="18"/>
<text text-anchor="middle" x="846.7" y="-86.5" font-family="Times New Roman,serif" font-size="15.00">xor</text>
</g>
<!-- 1739120288576&#45;&#45;1739120291360 -->
<g id="edge20" class="edge"><title>1739120288576&#45;&#45;1739120291360</title>
<path fill="none" stroke="black" d="M785.282,-146.834C798.729,-134.61 818.041,-117.054 831.404,-104.906"/>
</g>
<!-- 1739120288384 -->
<g id="node23" class="node"><title>1739120288384</title>
<ellipse fill="black" stroke="black" cx="626.7" cy="-18" rx="2.7" ry="2.7"/>
</g>
<!-- 1739120291360&#45;&#45;1739120288384 -->
<g id="edge17" class="edge"><title>1739120291360&#45;&#45;1739120288384</title>
<path fill="none" stroke="black" d="M822.737,-81.3755C770.173,-64.6504 647.921,-25.7522 629.14,-19.7764"/>
</g>
<!-- 1739120289632 -->
<g id="node24" class="node"><title>1739120289632</title>
<ellipse fill="none" stroke="black" cx="725.7" cy="-18" rx="78.5434" ry="18"/>
<text text-anchor="middle" x="725.7" y="-14.5" font-family="Times New Roman,serif" font-size="15.00">Appeal to Judge</text>
</g>
<!-- 1739120291360&#45;&#45;1739120289632 -->
<g id="edge18" class="edge"><title>1739120291360&#45;&#45;1739120289632</title>
<path fill="none" stroke="black" d="M826.99,-77.5975C807.034,-66.0527 775.995,-48.0963 753.535,-35.1027"/>
</g>
<!-- 1739120289248 -->
<g id="node25" class="node"><title>1739120289248</title>
<ellipse fill="none" stroke="black" cx="966.7" cy="-18" rx="144.571" ry="18"/>
<text text-anchor="middle" x="966.7" y="-14.5" font-family="Times New Roman,serif" font-size="15.00">Insert Date Appeal to Prefecture</text>
</g>
<!-- 1739120291360&#45;&#45;1739120289248 -->
<g id="edge19" class="edge"><title>1739120291360&#45;&#45;1739120289248</title>
<path fill="none" stroke="black" d="M866.516,-77.4409C885.954,-66.102 915.806,-48.6882 937.871,-35.8168"/>
</g>
<!-- 1739120291648 -->
<g id="node27" class="node"><title>1739120291648</title>
<ellipse fill="none" stroke="black" cx="1422.7" cy="-162" rx="27" ry="18"/>
<text text-anchor="middle" x="1422.7" y="-158.5" font-family="Times New Roman,serif" font-size="15.00">seq</text>
</g>
<!-- 1739120290784&#45;&#45;1739120291648 -->
<g id="edge29" class="edge"><title>1739120290784&#45;&#45;1739120291648</title>
<path fill="none" stroke="black" d="M1422.7,-215.697C1422.7,-204.846 1422.7,-190.917 1422.7,-180.104"/>
</g>
<!-- 1739120290688 -->
<g id="node34" class="node"><title>1739120290688</title>
<ellipse fill="none" stroke="black" cx="2068.7" cy="-162" rx="27" ry="18"/>
<text text-anchor="middle" x="2068.7" y="-158.5" font-family="Times New Roman,serif" font-size="15.00">and</text>
</g>
<!-- 1739120290784&#45;&#45;1739120290688 -->
<g id="edge39" class="edge"><title>1739120290784&#45;&#45;1739120290688</title>
<path fill="none" stroke="black" d="M1449.23,-230.125C1553.93,-218.78 1937.84,-177.179 2042.31,-165.86"/>
</g>
<!-- 1739120290400 -->
<g id="node28" class="node"><title>1739120290400</title>
<ellipse fill="none" stroke="black" cx="1325.7" cy="-90" rx="27" ry="18"/>
<text text-anchor="middle" x="1325.7" y="-86.5" font-family="Times New Roman,serif" font-size="15.00">xor</text>
</g>
<!-- 1739120291648&#45;&#45;1739120290400 -->
<g id="edge25" class="edge"><title>1739120291648&#45;&#45;1739120290400</title>
<path fill="none" stroke="black" d="M1404.91,-148.161C1387.41,-135.531 1360.84,-116.36 1343.38,-103.758"/>
</g>
<!-- 1739120288432 -->
<g id="node31" class="node"><title>1739120288432</title>
<ellipse fill="none" stroke="black" cx="1519.7" cy="-90" rx="27" ry="18"/>
<text text-anchor="middle" x="1519.7" y="-86.5" font-family="Times New Roman,serif" font-size="15.00">xor</text>
</g>
<!-- 1739120291648&#45;&#45;1739120288432 -->
<g id="edge28" class="edge"><title>1739120291648&#45;&#45;1739120288432</title>
<path fill="none" stroke="black" d="M1440.49,-148.161C1457.99,-135.531 1484.56,-116.36 1502.02,-103.758"/>
</g>
<!-- 1739120290496 -->
<g id="node29" class="node"><title>1739120290496</title>
<ellipse fill="black" stroke="black" cx="1131.7" cy="-18" rx="2.7" ry="2.7"/>
</g>
<!-- 1739120290400&#45;&#45;1739120290496 -->
<g id="edge23" class="edge"><title>1739120290400&#45;&#45;1739120290496</title>
<path fill="none" stroke="black" d="M1302.3,-80.5564C1254.73,-63.393 1149.88,-25.5607 1133.79,-19.7542"/>
</g>
<!-- 1739120041360 -->
<g id="node30" class="node"><title>1739120041360</title>
<ellipse fill="none" stroke="black" cx="1325.7" cy="-18" rx="173.941" ry="18"/>
<text text-anchor="middle" x="1325.7" y="-14.5" font-family="Times New Roman,serif" font-size="15.00">Receive Result Appeal from Prefecture</text>
</g>
<!-- 1739120290400&#45;&#45;1739120041360 -->
<g id="edge24" class="edge"><title>1739120290400&#45;&#45;1739120041360</title>
<path fill="none" stroke="black" d="M1325.7,-71.6966C1325.7,-60.8463 1325.7,-46.9167 1325.7,-36.1043"/>
</g>
<!-- 1739120041744 -->
<g id="node32" class="node"><title>1739120041744</title>
<ellipse fill="black" stroke="black" cx="1519.7" cy="-18" rx="2.7" ry="2.7"/>
</g>
<!-- 1739120288432&#45;&#45;1739120041744 -->
<g id="edge26" class="edge"><title>1739120288432&#45;&#45;1739120041744</title>
<path fill="none" stroke="black" d="M1519.7,-71.6966C1519.7,-53.8826 1519.7,-27.7686 1519.7,-20.7764"/>
</g>
<!-- 1739120041264 -->
<g id="node33" class="node"><title>1739120041264</title>
<ellipse fill="none" stroke="black" cx="1688.7" cy="-18" rx="148.91" ry="18"/>
<text text-anchor="middle" x="1688.7" y="-14.5" font-family="Times New Roman,serif" font-size="15.00">Notify Result Appeal to Offender</text>
</g>
<!-- 1739120288432&#45;&#45;1739120041264 -->
<g id="edge27" class="edge"><title>1739120288432&#45;&#45;1739120041264</title>
<path fill="none" stroke="black" d="M1542.14,-79.7045C1569.35,-68.4359 1615.68,-49.2446 1648.97,-35.4544"/>
</g>
<!-- 1739120041648 -->
<g id="node35" class="node"><title>1739120041648</title>
<ellipse fill="none" stroke="black" cx="1998.7" cy="-90" rx="27" ry="18"/>
<text text-anchor="middle" x="1998.7" y="-86.5" font-family="Times New Roman,serif" font-size="15.00">xor</text>
</g>
<!-- 1739120290688&#45;&#45;1739120041648 -->
<g id="edge32" class="edge"><title>1739120290688&#45;&#45;1739120041648</title>
<path fill="none" stroke="black" d="M2054.2,-146.496C2042.18,-134.482 2025.19,-117.494 2013.19,-105.485"/>
</g>
<!-- 1739120287904 -->
<g id="node38" class="node"><title>1739120287904</title>
<ellipse fill="none" stroke="black" cx="2139.7" cy="-90" rx="46.6143" ry="18"/>
<text text-anchor="middle" x="2139.7" y="-86.5" font-family="Times New Roman,serif" font-size="15.00">xor loop</text>
</g>
<!-- 1739120290688&#45;&#45;1739120287904 -->
<g id="edge35" class="edge"><title>1739120290688&#45;&#45;1739120287904</title>
<path fill="none" stroke="black" d="M2083.41,-146.496C2095.11,-134.963 2111.46,-118.845 2123.52,-106.95"/>
</g>
<!-- 1739120041888 -->
<g id="node41" class="node"><title>1739120041888</title>
<ellipse fill="none" stroke="black" cx="2273.7" cy="-90" rx="27" ry="18"/>
<text text-anchor="middle" x="2273.7" y="-86.5" font-family="Times New Roman,serif" font-size="15.00">xor</text>
</g>
<!-- 1739120290688&#45;&#45;1739120041888 -->
<g id="edge38" class="edge"><title>1739120290688&#45;&#45;1739120041888</title>
<path fill="none" stroke="black" d="M2092.22,-152.97C2131.65,-139.503 2210.68,-112.52 2250.14,-99.0438"/>
</g>
<!-- 1739120895168 -->
<g id="node36" class="node"><title>1739120895168</title>
<ellipse fill="black" stroke="black" cx="1857.7" cy="-18" rx="2.7" ry="2.7"/>
</g>
<!-- 1739120041648&#45;&#45;1739120895168 -->
<g id="edge30" class="edge"><title>1739120041648&#45;&#45;1739120895168</title>
<path fill="none" stroke="black" d="M1977.59,-78.5203C1941.94,-60.8234 1872.44,-26.3188 1859.72,-20.0047"/>
</g>
<!-- 1739120894448 -->
<g id="node37" class="node"><title>1739120894448</title>
<ellipse fill="none" stroke="black" cx="1998.7" cy="-18" rx="120.43" ry="18"/>
<text text-anchor="middle" x="1998.7" y="-14.5" font-family="Times New Roman,serif" font-size="15.00">Send Appeal to Prefecture</text>
</g>
<!-- 1739120041648&#45;&#45;1739120894448 -->
<g id="edge31" class="edge"><title>1739120041648&#45;&#45;1739120894448</title>
<path fill="none" stroke="black" d="M1998.7,-71.6966C1998.7,-60.8463 1998.7,-46.9167 1998.7,-36.1043"/>
</g>
<!-- 1739120894304 -->
<g id="node39" class="node"><title>1739120894304</title>
<ellipse fill="black" stroke="black" cx="2139.7" cy="-18" rx="2.7" ry="2.7"/>
</g>
<!-- 1739120287904&#45;&#45;1739120894304 -->
<g id="edge33" class="edge"><title>1739120287904&#45;&#45;1739120894304</title>
<path fill="none" stroke="black" d="M2139.7,-71.6966C2139.7,-53.8826 2139.7,-27.7686 2139.7,-20.7764"/>
</g>
<!-- 1739120894064 -->
<g id="node40" class="node"><title>1739120894064</title>
<ellipse fill="none" stroke="black" cx="2206.7" cy="-18" rx="45.7249" ry="18"/>
<text text-anchor="middle" x="2206.7" y="-14.5" font-family="Times New Roman,serif" font-size="15.00">Payment</text>
</g>
<!-- 1739120287904&#45;&#45;1739120894064 -->
<g id="edge34" class="edge"><title>1739120287904&#45;&#45;1739120894064</title>
<path fill="none" stroke="black" d="M2155.24,-72.7646C2166.06,-61.456 2180.44,-46.4367 2191.24,-35.1473"/>
</g>
<!-- 1739120041216 -->
<g id="node42" class="node"><title>1739120041216</title>
<ellipse fill="black" stroke="black" cx="2273.7" cy="-18" rx="2.7" ry="2.7"/>
</g>
<!-- 1739120041888&#45;&#45;1739120041216 -->
<g id="edge36" class="edge"><title>1739120041888&#45;&#45;1739120041216</title>
<path fill="none" stroke="black" d="M2273.7,-71.6966C2273.7,-53.8826 2273.7,-27.7686 2273.7,-20.7764"/>
</g>
<!-- 1739120041696 -->
<g id="node43" class="node"><title>1739120041696</title>
<ellipse fill="none" stroke="black" cx="2356.7" cy="-18" rx="61.6894" ry="18"/>
<text text-anchor="middle" x="2356.7" y="-14.5" font-family="Times New Roman,serif" font-size="15.00">Add penalty</text>
</g>
<!-- 1739120041888&#45;&#45;1739120041696 -->
<g id="edge37" class="edge"><title>1739120041888&#45;&#45;1739120041696</title>
<path fill="none" stroke="black" d="M2290.1,-75.1703C2303.7,-63.6952 2323.08,-47.3569 2337.42,-35.2574"/>
</g>
<!-- 1739120290208 -->
<g id="node45" class="node"><title>1739120290208</title>
<ellipse fill="black" stroke="black" cx="744.7" cy="-306" rx="2.7" ry="2.7"/>
</g>
<!-- 1739120289392&#45;&#45;1739120290208 -->
<g id="edge43" class="edge"><title>1739120289392&#45;&#45;1739120290208</title>
<path fill="none" stroke="black" d="M749.217,-359.697C747.69,-341.883 745.452,-315.769 744.852,-308.776"/>
</g>
<!-- 1739120894832 -->
<g id="node46" class="node"><title>1739120894832</title>
<ellipse fill="none" stroke="black" cx="886.7" cy="-306" rx="120.819" ry="18"/>
<text text-anchor="middle" x="886.7" y="-302.5" font-family="Times New Roman,serif" font-size="15.00">Send for Credit Collection</text>
</g>
<!-- 1739120289392&#45;&#45;1739120894832 -->
<g id="edge44" class="edge"><title>1739120289392&#45;&#45;1739120894832</title>
<path fill="none" stroke="black" d="M771.355,-366.369C793.499,-354.971 828.94,-336.729 854.699,-323.471"/>
</g>
</g>
</svg>
