<?xml version="1.0" encoding="UTF-8" standalone="no"?>
<!DOCTYPE svg PUBLIC "-//W3C//DTD SVG 1.1//EN"
 "http://www.w3.org/Graphics/SVG/1.1/DTD/svg11.dtd">
<!-- Generated by graphviz version 2.38.0 (20140413.2041)
 -->
<!-- Title: pt Pages: 1 -->
<svg width="1892pt" height="764pt"
 viewBox="0.00 0.00 1891.56 764.00" xmlns="http://www.w3.org/2000/svg" xmlns:xlink="http://www.w3.org/1999/xlink">
<g id="graph0" class="graph" transform="scale(1 1) rotate(0) translate(4 760)">
<title>pt</title>
<!-- 1739141108112 -->
<g id="node1" class="node"><title>1739141108112</title>
<ellipse fill="none" stroke="black" cx="444.7" cy="-738" rx="27" ry="18"/>
<text text-anchor="middle" x="444.7" y="-734.5" font-family="Times New Roman,serif" font-size="15.00">and</text>
</g>
<!-- 1739148490736 -->
<g id="node2" class="node"><title>1739148490736</title>
<ellipse fill="none" stroke="black" cx="346.7" cy="-666" rx="27" ry="18"/>
<text text-anchor="middle" x="346.7" y="-662.5" font-family="Times New Roman,serif" font-size="15.00">xor</text>
</g>
<!-- 1739141108112&#45;&#45;1739148490736 -->
<g id="edge12" class="edge"><title>1739141108112&#45;&#45;1739148490736</title>
<path fill="none" stroke="black" d="M426.725,-724.161C409.043,-711.531 382.204,-692.36 364.561,-679.758"/>
</g>
<!-- 1739148490832 -->
<g id="node14" class="node"><title>1739148490832</title>
<ellipse fill="none" stroke="black" cx="522.7" cy="-666" rx="27" ry="18"/>
<text text-anchor="middle" x="522.7" y="-662.5" font-family="Times New Roman,serif" font-size="15.00">seq</text>
</g>
<!-- 1739141108112&#45;&#45;1739148490832 -->
<g id="edge48" class="edge"><title>1739141108112&#45;&#45;1739148490832</title>
<path fill="none" stroke="black" d="M460.11,-723.17C473.785,-710.898 493.657,-693.064 507.322,-680.801"/>
</g>
<!-- 1739148491168 -->
<g id="node3" class="node"><title>1739148491168</title>
<ellipse fill="black" stroke="black" cx="298.7" cy="-594" rx="2.7" ry="2.7"/>
</g>
<!-- 1739148490736&#45;&#45;1739148491168 -->
<g id="edge1" class="edge"><title>1739148490736&#45;&#45;1739148491168</title>
<path fill="none" stroke="black" d="M335.808,-649.116C323.638,-631.367 304.98,-604.158 299.973,-596.857"/>
</g>
<!-- 1739148490448 -->
<g id="node4" class="node"><title>1739148490448</title>
<ellipse fill="none" stroke="black" cx="346.7" cy="-594" rx="27" ry="18"/>
<text text-anchor="middle" x="346.7" y="-590.5" font-family="Times New Roman,serif" font-size="15.00">and</text>
</g>
<!-- 1739148490736&#45;&#45;1739148490448 -->
<g id="edge11" class="edge"><title>1739148490736&#45;&#45;1739148490448</title>
<path fill="none" stroke="black" d="M346.7,-647.697C346.7,-636.846 346.7,-622.917 346.7,-612.104"/>
</g>
<!-- 1739148072608 -->
<g id="node5" class="node"><title>1739148072608</title>
<ellipse fill="none" stroke="black" cx="143.7" cy="-522" rx="27" ry="18"/>
<text text-anchor="middle" x="143.7" y="-518.5" font-family="Times New Roman,serif" font-size="15.00">xor</text>
</g>
<!-- 1739148490448&#45;&#45;1739148072608 -->
<g id="edge4" class="edge"><title>1739148490448&#45;&#45;1739148072608</title>
<path fill="none" stroke="black" d="M323.016,-584.833C283.9,-571.345 206.25,-544.569 167.233,-531.115"/>
</g>
<!-- 1739148491744 -->
<g id="node8" class="node"><title>1739148491744</title>
<ellipse fill="none" stroke="black" cx="338.7" cy="-522" rx="46.6143" ry="18"/>
<text text-anchor="middle" x="338.7" y="-518.5" font-family="Times New Roman,serif" font-size="15.00">xor loop</text>
</g>
<!-- 1739148490448&#45;&#45;1739148491744 -->
<g id="edge7" class="edge"><title>1739148490448&#45;&#45;1739148491744</title>
<path fill="none" stroke="black" d="M344.722,-575.697C343.482,-564.846 341.89,-550.917 340.655,-540.104"/>
</g>
<!-- 1739148074960 -->
<g id="node11" class="node"><title>1739148074960</title>
<ellipse fill="none" stroke="black" cx="430.7" cy="-522" rx="27" ry="18"/>
<text text-anchor="middle" x="430.7" y="-518.5" font-family="Times New Roman,serif" font-size="15.00">xor</text>
</g>
<!-- 1739148490448&#45;&#45;1739148074960 -->
<g id="edge10" class="edge"><title>1739148490448&#45;&#45;1739148074960</title>
<path fill="none" stroke="black" d="M362.896,-579.503C377.771,-567.108 399.695,-548.838 414.554,-536.455"/>
</g>
<!-- 1739142936224 -->
<g id="node6" class="node"><title>1739142936224</title>
<ellipse fill="black" stroke="black" cx="2.7" cy="-450" rx="2.7" ry="2.7"/>
</g>
<!-- 1739148072608&#45;&#45;1739142936224 -->
<g id="edge2" class="edge"><title>1739148072608&#45;&#45;1739142936224</title>
<path fill="none" stroke="black" d="M122.591,-510.52C86.9442,-492.823 17.4421,-458.319 4.72371,-452.005"/>
</g>
<!-- 1739142937424 -->
<g id="node7" class="node"><title>1739142937424</title>
<ellipse fill="none" stroke="black" cx="143.7" cy="-450" rx="120.43" ry="18"/>
<text text-anchor="middle" x="143.7" y="-446.5" font-family="Times New Roman,serif" font-size="15.00">Send Appeal to Prefecture</text>
</g>
<!-- 1739148072608&#45;&#45;1739142937424 -->
<g id="edge3" class="edge"><title>1739148072608&#45;&#45;1739142937424</title>
<path fill="none" stroke="black" d="M143.7,-503.697C143.7,-492.846 143.7,-478.917 143.7,-468.104"/>
</g>
<!-- 1739148491936 -->
<g id="node9" class="node"><title>1739148491936</title>
<ellipse fill="black" stroke="black" cx="284.7" cy="-450" rx="2.7" ry="2.7"/>
</g>
<!-- 1739148491744&#45;&#45;1739148491936 -->
<g id="edge5" class="edge"><title>1739148491744&#45;&#45;1739148491936</title>
<path fill="none" stroke="black" d="M325.903,-504.411C312.18,-486.622 291.614,-459.962 286.101,-452.816"/>
</g>
<!-- 1739148516608 -->
<g id="node10" class="node"><title>1739148516608</title>
<ellipse fill="none" stroke="black" cx="351.7" cy="-450" rx="45.7249" ry="18"/>
<text text-anchor="middle" x="351.7" y="-446.5" font-family="Times New Roman,serif" font-size="15.00">Payment</text>
</g>
<!-- 1739148491744&#45;&#45;1739148516608 -->
<g id="edge6" class="edge"><title>1739148491744&#45;&#45;1739148516608</title>
<path fill="none" stroke="black" d="M341.913,-503.697C343.929,-492.846 346.515,-478.917 348.523,-468.104"/>
</g>
<!-- 1739142936560 -->
<g id="node12" class="node"><title>1739142936560</title>
<ellipse fill="black" stroke="black" cx="418.7" cy="-450" rx="2.7" ry="2.7"/>
</g>
<!-- 1739148074960&#45;&#45;1739142936560 -->
<g id="edge8" class="edge"><title>1739148074960&#45;&#45;1739142936560</title>
<path fill="none" stroke="black" d="M427.795,-504.055C424.743,-486.252 420.22,-459.865 419.008,-452.796"/>
</g>
<!-- 1739142938528 -->
<g id="node13" class="node"><title>1739142938528</title>
<ellipse fill="none" stroke="black" cx="501.7" cy="-450" rx="61.6894" ry="18"/>
<text text-anchor="middle" x="501.7" y="-446.5" font-family="Times New Roman,serif" font-size="15.00">Add penalty</text>
</g>
<!-- 1739148074960&#45;&#45;1739142938528 -->
<g id="edge9" class="edge"><title>1739148074960&#45;&#45;1739142938528</title>
<path fill="none" stroke="black" d="M445.411,-506.496C456.947,-495.123 473.004,-479.292 485.017,-467.448"/>
</g>
<!-- 1739148491072 -->
<g id="node15" class="node"><title>1739148491072</title>
<ellipse fill="none" stroke="black" cx="460.7" cy="-594" rx="59.5207" ry="18"/>
<text text-anchor="middle" x="460.7" y="-590.5" font-family="Times New Roman,serif" font-size="15.00">Create Fine</text>
</g>
<!-- 1739148490832&#45;&#45;1739148491072 -->
<g id="edge13" class="edge"><title>1739148490832&#45;&#45;1739148491072</title>
<path fill="none" stroke="black" d="M509.551,-650.155C499.599,-638.918 485.922,-623.476 475.57,-611.789"/>
</g>
<!-- 1739148491024 -->
<g id="node16" class="node"><title>1739148491024</title>
<ellipse fill="none" stroke="black" cx="584.7" cy="-594" rx="46.6143" ry="18"/>
<text text-anchor="middle" x="584.7" y="-590.5" font-family="Times New Roman,serif" font-size="15.00">xor loop</text>
</g>
<!-- 1739148490832&#45;&#45;1739148491024 -->
<g id="edge44" class="edge"><title>1739148490832&#45;&#45;1739148491024</title>
<path fill="none" stroke="black" d="M535.849,-650.155C545.944,-638.757 559.87,-623.034 570.271,-611.29"/>
</g>
<!-- 1739148490112 -->
<g id="node47" class="node"><title>1739148490112</title>
<ellipse fill="none" stroke="black" cx="676.7" cy="-594" rx="27" ry="18"/>
<text text-anchor="middle" x="676.7" y="-590.5" font-family="Times New Roman,serif" font-size="15.00">xor</text>
</g>
<!-- 1739148490832&#45;&#45;1739148490112 -->
<g id="edge47" class="edge"><title>1739148490832&#45;&#45;1739148490112</title>
<path fill="none" stroke="black" d="M544.438,-655.119C573.788,-641.778 625.779,-618.146 655.073,-604.831"/>
</g>
<!-- 1739148490688 -->
<g id="node17" class="node"><title>1739148490688</title>
<ellipse fill="none" stroke="black" cx="584.7" cy="-522" rx="27" ry="18"/>
<text text-anchor="middle" x="584.7" y="-518.5" font-family="Times New Roman,serif" font-size="15.00">xor</text>
</g>
<!-- 1739148491024&#45;&#45;1739148490688 -->
<g id="edge42" class="edge"><title>1739148491024&#45;&#45;1739148490688</title>
<path fill="none" stroke="black" d="M584.7,-575.697C584.7,-564.846 584.7,-550.917 584.7,-540.104"/>
</g>
<!-- 1739148490400 -->
<g id="node46" class="node"><title>1739148490400</title>
<ellipse fill="black" stroke="black" cx="632.7" cy="-522" rx="2.7" ry="2.7"/>
</g>
<!-- 1739148491024&#45;&#45;1739148490400 -->
<g id="edge43" class="edge"><title>1739148491024&#45;&#45;1739148490400</title>
<path fill="none" stroke="black" d="M596.075,-576.411C608.274,-558.622 626.554,-531.962 631.455,-524.816"/>
</g>
<!-- 1739148489536 -->
<g id="node18" class="node"><title>1739148489536</title>
<ellipse fill="black" stroke="black" cx="584.7" cy="-450" rx="2.7" ry="2.7"/>
</g>
<!-- 1739148490688&#45;&#45;1739148489536 -->
<g id="edge14" class="edge"><title>1739148490688&#45;&#45;1739148489536</title>
<path fill="none" stroke="black" d="M584.7,-503.697C584.7,-485.883 584.7,-459.769 584.7,-452.776"/>
</g>
<!-- 1739148490592 -->
<g id="node19" class="node"><title>1739148490592</title>
<ellipse fill="none" stroke="black" cx="632.7" cy="-450" rx="27" ry="18"/>
<text text-anchor="middle" x="632.7" y="-446.5" font-family="Times New Roman,serif" font-size="15.00">seq</text>
</g>
<!-- 1739148490688&#45;&#45;1739148490592 -->
<g id="edge41" class="edge"><title>1739148490688&#45;&#45;1739148490592</title>
<path fill="none" stroke="black" d="M595.592,-505.116C603.447,-493.66 614.006,-478.263 621.851,-466.821"/>
</g>
<!-- 1739148489728 -->
<g id="node20" class="node"><title>1739148489728</title>
<ellipse fill="none" stroke="black" cx="534.7" cy="-378" rx="52.6228" ry="18"/>
<text text-anchor="middle" x="534.7" y="-374.5" font-family="Times New Roman,serif" font-size="15.00">Send Fine</text>
</g>
<!-- 1739148490592&#45;&#45;1739148489728 -->
<g id="edge15" class="edge"><title>1739148490592&#45;&#45;1739148489728</title>
<path fill="none" stroke="black" d="M614.725,-436.161C598.259,-424.399 573.851,-406.965 556.324,-394.446"/>
</g>
<!-- 1739148489632 -->
<g id="node21" class="node"><title>1739148489632</title>
<ellipse fill="none" stroke="black" cx="632.7" cy="-378" rx="27" ry="18"/>
<text text-anchor="middle" x="632.7" y="-374.5" font-family="Times New Roman,serif" font-size="15.00">xor</text>
</g>
<!-- 1739148490592&#45;&#45;1739148489632 -->
<g id="edge18" class="edge"><title>1739148490592&#45;&#45;1739148489632</title>
<path fill="none" stroke="black" d="M632.7,-431.697C632.7,-420.846 632.7,-406.917 632.7,-396.104"/>
</g>
<!-- 1739148489296 -->
<g id="node24" class="node"><title>1739148489296</title>
<ellipse fill="none" stroke="black" cx="809.7" cy="-378" rx="27" ry="18"/>
<text text-anchor="middle" x="809.7" y="-374.5" font-family="Times New Roman,serif" font-size="15.00">xor</text>
</g>
<!-- 1739148490592&#45;&#45;1739148489296 -->
<g id="edge40" class="edge"><title>1739148490592&#45;&#45;1739148489296</title>
<path fill="none" stroke="black" d="M655.477,-439.992C689.464,-426.551 753.075,-401.394 787.01,-387.973"/>
</g>
<!-- 1739148489392 -->
<g id="node22" class="node"><title>1739148489392</title>
<ellipse fill="black" stroke="black" cx="504.7" cy="-306" rx="2.7" ry="2.7"/>
</g>
<!-- 1739148489632&#45;&#45;1739148489392 -->
<g id="edge16" class="edge"><title>1739148489632&#45;&#45;1739148489392</title>
<path fill="none" stroke="black" d="M612.418,-365.908C579.991,-348.175 518.882,-314.756 506.804,-308.151"/>
</g>
<!-- 1739148489248 -->
<g id="node23" class="node"><title>1739148489248</title>
<ellipse fill="none" stroke="black" cx="632.7" cy="-306" rx="107.914" ry="18"/>
<text text-anchor="middle" x="632.7" y="-302.5" font-family="Times New Roman,serif" font-size="15.00">Insert Fine Notification</text>
</g>
<!-- 1739148489632&#45;&#45;1739148489248 -->
<g id="edge17" class="edge"><title>1739148489632&#45;&#45;1739148489248</title>
<path fill="none" stroke="black" d="M632.7,-359.697C632.7,-348.846 632.7,-334.917 632.7,-324.104"/>
</g>
<!-- 1739148488960 -->
<g id="node25" class="node"><title>1739148488960</title>
<ellipse fill="black" stroke="black" cx="760.7" cy="-306" rx="2.7" ry="2.7"/>
</g>
<!-- 1739148489296&#45;&#45;1739148488960 -->
<g id="edge19" class="edge"><title>1739148489296&#45;&#45;1739148488960</title>
<path fill="none" stroke="black" d="M798.825,-361.465C786.194,-343.42 766.478,-315.254 761.746,-308.494"/>
</g>
<!-- 1739148491264 -->
<g id="node26" class="node"><title>1739148491264</title>
<ellipse fill="none" stroke="black" cx="859.7" cy="-306" rx="78.5434" ry="18"/>
<text text-anchor="middle" x="859.7" y="-302.5" font-family="Times New Roman,serif" font-size="15.00">Appeal to Judge</text>
</g>
<!-- 1739148489296&#45;&#45;1739148491264 -->
<g id="edge20" class="edge"><title>1739148489296&#45;&#45;1739148491264</title>
<path fill="none" stroke="black" d="M820.797,-361.465C828.737,-350.348 839.422,-335.39 847.584,-323.962"/>
</g>
<!-- 1739148492080 -->
<g id="node27" class="node"><title>1739148492080</title>
<ellipse fill="none" stroke="black" cx="983.7" cy="-306" rx="27" ry="18"/>
<text text-anchor="middle" x="983.7" y="-302.5" font-family="Times New Roman,serif" font-size="15.00">seq</text>
</g>
<!-- 1739148489296&#45;&#45;1739148492080 -->
<g id="edge39" class="edge"><title>1739148489296&#45;&#45;1739148492080</title>
<path fill="none" stroke="black" d="M832.447,-367.849C865.887,-354.396 927.938,-329.433 961.223,-316.043"/>
</g>
<!-- 1739148488912 -->
<g id="node28" class="node"><title>1739148488912</title>
<ellipse fill="none" stroke="black" cx="645.7" cy="-234" rx="144.571" ry="18"/>
<text text-anchor="middle" x="645.7" y="-230.5" font-family="Times New Roman,serif" font-size="15.00">Insert Date Appeal to Prefecture</text>
</g>
<!-- 1739148492080&#45;&#45;1739148488912 -->
<g id="edge21" class="edge"><title>1739148492080&#45;&#45;1739148488912</title>
<path fill="none" stroke="black" d="M958.295,-299.739C907.631,-289.246 792.418,-265.385 716.91,-249.748"/>
</g>
<!-- 1739148491600 -->
<g id="node29" class="node"><title>1739148491600</title>
<ellipse fill="none" stroke="black" cx="835.7" cy="-234" rx="27" ry="18"/>
<text text-anchor="middle" x="835.7" y="-230.5" font-family="Times New Roman,serif" font-size="15.00">xor</text>
</g>
<!-- 1739148492080&#45;&#45;1739148491600 -->
<g id="edge24" class="edge"><title>1739148492080&#45;&#45;1739148491600</title>
<path fill="none" stroke="black" d="M962.18,-294.821C934.12,-281.55 885.319,-258.468 857.246,-245.191"/>
</g>
<!-- 1739148492752 -->
<g id="node32" class="node"><title>1739148492752</title>
<ellipse fill="none" stroke="black" cx="983.7" cy="-234" rx="27" ry="18"/>
<text text-anchor="middle" x="983.7" y="-230.5" font-family="Times New Roman,serif" font-size="15.00">xor</text>
</g>
<!-- 1739148492080&#45;&#45;1739148492752 -->
<g id="edge27" class="edge"><title>1739148492080&#45;&#45;1739148492752</title>
<path fill="none" stroke="black" d="M983.7,-287.697C983.7,-276.846 983.7,-262.917 983.7,-252.104"/>
</g>
<!-- 1739148072416 -->
<g id="node35" class="node"><title>1739148072416</title>
<ellipse fill="none" stroke="black" cx="1162.7" cy="-234" rx="27" ry="18"/>
<text text-anchor="middle" x="1162.7" y="-230.5" font-family="Times New Roman,serif" font-size="15.00">xor</text>
</g>
<!-- 1739148492080&#45;&#45;1739148072416 -->
<g id="edge30" class="edge"><title>1739148492080&#45;&#45;1739148072416</title>
<path fill="none" stroke="black" d="M1006.37,-296.134C1040.71,-282.706 1105.54,-257.355 1139.93,-243.904"/>
</g>
<!-- 1739148073664 -->
<g id="node38" class="node"><title>1739148073664</title>
<ellipse fill="none" stroke="black" cx="1550.7" cy="-234" rx="27" ry="18"/>
<text text-anchor="middle" x="1550.7" y="-230.5" font-family="Times New Roman,serif" font-size="15.00">xor</text>
</g>
<!-- 1739148492080&#45;&#45;1739148073664 -->
<g id="edge38" class="edge"><title>1739148492080&#45;&#45;1739148073664</title>
<path fill="none" stroke="black" d="M1010.29,-301.718C1105.53,-289.96 1429.02,-250.022 1524.17,-238.275"/>
</g>
<!-- 1739148072896 -->
<g id="node30" class="node"><title>1739148072896</title>
<ellipse fill="black" stroke="black" cx="714.7" cy="-162" rx="2.7" ry="2.7"/>
</g>
<!-- 1739148491600&#45;&#45;1739148072896 -->
<g id="edge22" class="edge"><title>1739148491600&#45;&#45;1739148072896</title>
<path fill="none" stroke="black" d="M815.99,-221.597C785.185,-203.777 727.973,-170.678 716.669,-164.139"/>
</g>
<!-- 1739148073616 -->
<g id="node31" class="node"><title>1739148073616</title>
<ellipse fill="none" stroke="black" cx="797.7" cy="-162" rx="61.6894" ry="18"/>
<text text-anchor="middle" x="797.7" y="-158.5" font-family="Times New Roman,serif" font-size="15.00">Add penalty</text>
</g>
<!-- 1739148491600&#45;&#45;1739148073616 -->
<g id="edge23" class="edge"><title>1739148491600&#45;&#45;1739148073616</title>
<path fill="none" stroke="black" d="M826.887,-216.765C820.923,-205.779 813.058,-191.292 806.996,-180.124"/>
</g>
<!-- 1739148073184 -->
<g id="node33" class="node"><title>1739148073184</title>
<ellipse fill="black" stroke="black" cx="880.7" cy="-162" rx="2.7" ry="2.7"/>
</g>
<!-- 1739148492752&#45;&#45;1739148073184 -->
<g id="edge25" class="edge"><title>1739148492752&#45;&#45;1739148073184</title>
<path fill="none" stroke="black" d="M965.286,-220.485C938.9,-202.553 892.419,-170.965 882.567,-164.269"/>
</g>
<!-- 1739148074480 -->
<g id="node34" class="node"><title>1739148074480</title>
<ellipse fill="none" stroke="black" cx="1021.7" cy="-162" rx="120.43" ry="18"/>
<text text-anchor="middle" x="1021.7" y="-158.5" font-family="Times New Roman,serif" font-size="15.00">Send Appeal to Prefecture</text>
</g>
<!-- 1739148492752&#45;&#45;1739148074480 -->
<g id="edge26" class="edge"><title>1739148492752&#45;&#45;1739148074480</title>
<path fill="none" stroke="black" d="M992.513,-216.765C998.477,-205.779 1006.34,-191.292 1012.4,-180.124"/>
</g>
<!-- 1739148072368 -->
<g id="node36" class="node"><title>1739148072368</title>
<ellipse fill="black" stroke="black" cx="1162.7" cy="-162" rx="2.7" ry="2.7"/>
</g>
<!-- 1739148072416&#45;&#45;1739148072368 -->
<g id="edge28" class="edge"><title>1739148072416&#45;&#45;1739148072368</title>
<path fill="none" stroke="black" d="M1162.7,-215.697C1162.7,-197.883 1162.7,-171.769 1162.7,-164.776"/>
</g>
<!-- 1739148072944 -->
<g id="node37" class="node"><title>1739148072944</title>
<ellipse fill="none" stroke="black" cx="1356.7" cy="-162" rx="173.941" ry="18"/>
<text text-anchor="middle" x="1356.7" y="-158.5" font-family="Times New Roman,serif" font-size="15.00">Receive Result Appeal from Prefecture</text>
</g>
<!-- 1739148072416&#45;&#45;1739148072944 -->
<g id="edge29" class="edge"><title>1739148072416&#45;&#45;1739148072944</title>
<path fill="none" stroke="black" d="M1186.1,-224.556C1216.94,-213.429 1271.85,-193.615 1311.05,-179.472"/>
</g>
<!-- 1739148073088 -->
<g id="node39" class="node"><title>1739148073088</title>
<ellipse fill="black" stroke="black" cx="1550.7" cy="-162" rx="2.7" ry="2.7"/>
</g>
<!-- 1739148073664&#45;&#45;1739148073088 -->
<g id="edge31" class="edge"><title>1739148073664&#45;&#45;1739148073088</title>
<path fill="none" stroke="black" d="M1550.7,-215.697C1550.7,-197.883 1550.7,-171.769 1550.7,-164.776"/>
</g>
<!-- 1739148073328 -->
<g id="node40" class="node"><title>1739148073328</title>
<ellipse fill="none" stroke="black" cx="1598.7" cy="-162" rx="27" ry="18"/>
<text text-anchor="middle" x="1598.7" y="-158.5" font-family="Times New Roman,serif" font-size="15.00">seq</text>
</g>
<!-- 1739148073664&#45;&#45;1739148073328 -->
<g id="edge37" class="edge"><title>1739148073664&#45;&#45;1739148073328</title>
<path fill="none" stroke="black" d="M1561.59,-217.116C1569.45,-205.66 1580.01,-190.263 1587.85,-178.821"/>
</g>
<!-- 1739148073520 -->
<g id="node41" class="node"><title>1739148073520</title>
<ellipse fill="none" stroke="black" cx="1501.7" cy="-90" rx="148.91" ry="18"/>
<text text-anchor="middle" x="1501.7" y="-86.5" font-family="Times New Roman,serif" font-size="15.00">Notify Result Appeal to Offender</text>
</g>
<!-- 1739148073328&#45;&#45;1739148073520 -->
<g id="edge32" class="edge"><title>1739148073328&#45;&#45;1739148073520</title>
<path fill="none" stroke="black" d="M1580.91,-148.161C1565.27,-136.873 1542.38,-120.36 1525.23,-107.981"/>
</g>
<!-- 1739142935840 -->
<g id="node42" class="node"><title>1739142935840</title>
<ellipse fill="none" stroke="black" cx="1695.7" cy="-90" rx="27" ry="18"/>
<text text-anchor="middle" x="1695.7" y="-86.5" font-family="Times New Roman,serif" font-size="15.00">xor</text>
</g>
<!-- 1739148073328&#45;&#45;1739142935840 -->
<g id="edge36" class="edge"><title>1739148073328&#45;&#45;1739142935840</title>
<path fill="none" stroke="black" d="M1616.49,-148.161C1633.99,-135.531 1660.56,-116.36 1678.02,-103.758"/>
</g>
<!-- 1739142934880 -->
<g id="node43" class="node"><title>1739142934880</title>
<ellipse fill="black" stroke="black" cx="1596.7" cy="-18" rx="2.7" ry="2.7"/>
</g>
<!-- 1739142935840&#45;&#45;1739142934880 -->
<g id="edge33" class="edge"><title>1739142935840&#45;&#45;1739142934880</title>
<path fill="none" stroke="black" d="M1677.54,-76.1609C1652.09,-58.1628 1607.85,-26.8831 1598.48,-20.2559"/>
</g>
<!-- 1739142937760 -->
<g id="node44" class="node"><title>1739142937760</title>
<ellipse fill="none" stroke="black" cx="1695.7" cy="-18" rx="78.5434" ry="18"/>
<text text-anchor="middle" x="1695.7" y="-14.5" font-family="Times New Roman,serif" font-size="15.00">Appeal to Judge</text>
</g>
<!-- 1739142935840&#45;&#45;1739142937760 -->
<g id="edge34" class="edge"><title>1739142935840&#45;&#45;1739142937760</title>
<path fill="none" stroke="black" d="M1695.7,-71.6966C1695.7,-60.8463 1695.7,-46.9167 1695.7,-36.1043"/>
</g>
<!-- 1739142935216 -->
<g id="node45" class="node"><title>1739142935216</title>
<ellipse fill="none" stroke="black" cx="1837.7" cy="-18" rx="45.7249" ry="18"/>
<text text-anchor="middle" x="1837.7" y="-14.5" font-family="Times New Roman,serif" font-size="15.00">Payment</text>
</g>
<!-- 1739142935840&#45;&#45;1739142935216 -->
<g id="edge35" class="edge"><title>1739142935840&#45;&#45;1739142935216</title>
<path fill="none" stroke="black" d="M1716.96,-78.5203C1741.79,-66.2774 1782.95,-45.9903 1810.2,-32.558"/>
</g>
<!-- 1739148489680 -->
<g id="node48" class="node"><title>1739148489680</title>
<ellipse fill="black" stroke="black" cx="666.7" cy="-522" rx="2.7" ry="2.7"/>
</g>
<!-- 1739148490112&#45;&#45;1739148489680 -->
<g id="edge45" class="edge"><title>1739148490112&#45;&#45;1739148489680</title>
<path fill="none" stroke="black" d="M674.279,-576.055C671.736,-558.252 667.966,-531.865 666.957,-524.796"/>
</g>
<!-- 1739148489152 -->
<g id="node49" class="node"><title>1739148489152</title>
<ellipse fill="none" stroke="black" cx="808.7" cy="-522" rx="120.819" ry="18"/>
<text text-anchor="middle" x="808.7" y="-518.5" font-family="Times New Roman,serif" font-size="15.00">Send for Credit Collection</text>
</g>
<!-- 1739148490112&#45;&#45;1739148489152 -->
<g id="edge46" class="edge"><title>1739148490112&#45;&#45;1739148489152</title>
<path fill="none" stroke="black" d="M697.325,-582.063C718.788,-570.681 752.659,-552.719 777.418,-539.589"/>
</g>
</g>
</svg>
