<?xml version="1.0" encoding="UTF-8" standalone="no"?>
<!DOCTYPE svg PUBLIC "-//W3C//DTD SVG 1.1//EN"
 "http://www.w3.org/Graphics/SVG/1.1/DTD/svg11.dtd">
<!-- Generated by graphviz version 2.38.0 (20140413.2041)
 -->
<!-- Title: pt Pages: 1 -->
<svg width="2216pt" height="620pt"
 viewBox="0.00 0.00 2215.56 620.00" xmlns="http://www.w3.org/2000/svg" xmlns:xlink="http://www.w3.org/1999/xlink">
<g id="graph0" class="graph" transform="scale(1 1) rotate(0) translate(4 616)">
<title>pt</title>
<!-- 1739141140000 -->
<g id="node1" class="node"><title>1739141140000</title>
<ellipse fill="none" stroke="black" cx="533.7" cy="-594" rx="27" ry="18"/>
<text text-anchor="middle" x="533.7" y="-590.5" font-family="Times New Roman,serif" font-size="15.00">seq</text>
</g>
<!-- 1739141137216 -->
<g id="node2" class="node"><title>1739141137216</title>
<ellipse fill="none" stroke="black" cx="409.7" cy="-522" rx="59.5207" ry="18"/>
<text text-anchor="middle" x="409.7" y="-518.5" font-family="Times New Roman,serif" font-size="15.00">Create Fine</text>
</g>
<!-- 1739141140000&#45;&#45;1739141137216 -->
<g id="edge1" class="edge"><title>1739141140000&#45;&#45;1739141137216</title>
<path fill="none" stroke="black" d="M513.777,-581.753C492.828,-569.927 459.744,-551.251 436.513,-538.136"/>
</g>
<!-- 1739141137312 -->
<g id="node3" class="node"><title>1739141137312</title>
<ellipse fill="none" stroke="black" cx="533.7" cy="-522" rx="46.6143" ry="18"/>
<text text-anchor="middle" x="533.7" y="-518.5" font-family="Times New Roman,serif" font-size="15.00">xor loop</text>
</g>
<!-- 1739141140000&#45;&#45;1739141137312 -->
<g id="edge25" class="edge"><title>1739141140000&#45;&#45;1739141137312</title>
<path fill="none" stroke="black" d="M533.7,-575.697C533.7,-564.846 533.7,-550.917 533.7,-540.104"/>
</g>
<!-- 1739141140240 -->
<g id="node27" class="node"><title>1739141140240</title>
<ellipse fill="none" stroke="black" cx="678.7" cy="-522" rx="27" ry="18"/>
<text text-anchor="middle" x="678.7" y="-518.5" font-family="Times New Roman,serif" font-size="15.00">xor</text>
</g>
<!-- 1739141140000&#45;&#45;1739141140240 -->
<g id="edge49" class="edge"><title>1739141140000&#45;&#45;1739141140240</title>
<path fill="none" stroke="black" d="M555.095,-582.671C582.51,-569.437 629.76,-546.626 657.217,-533.371"/>
</g>
<!-- 1739141138464 -->
<g id="node4" class="node"><title>1739141138464</title>
<ellipse fill="none" stroke="black" cx="421.7" cy="-450" rx="27" ry="18"/>
<text text-anchor="middle" x="421.7" y="-446.5" font-family="Times New Roman,serif" font-size="15.00">seq</text>
</g>
<!-- 1739141137312&#45;&#45;1739141138464 -->
<g id="edge23" class="edge"><title>1739141137312&#45;&#45;1739141138464</title>
<path fill="none" stroke="black" d="M510.221,-506.326C489.567,-493.417 459.879,-474.862 440.69,-462.869"/>
</g>
<!-- 1739141136880 -->
<g id="node26" class="node"><title>1739141136880</title>
<ellipse fill="black" stroke="black" cx="533.7" cy="-450" rx="2.7" ry="2.7"/>
</g>
<!-- 1739141137312&#45;&#45;1739141136880 -->
<g id="edge24" class="edge"><title>1739141137312&#45;&#45;1739141136880</title>
<path fill="none" stroke="black" d="M533.7,-503.697C533.7,-485.883 533.7,-459.769 533.7,-452.776"/>
</g>
<!-- 1739141138176 -->
<g id="node5" class="node"><title>1739141138176</title>
<ellipse fill="none" stroke="black" cx="76.7" cy="-378" rx="27" ry="18"/>
<text text-anchor="middle" x="76.7" y="-374.5" font-family="Times New Roman,serif" font-size="15.00">xor</text>
</g>
<!-- 1739141138464&#45;&#45;1739141138176 -->
<g id="edge4" class="edge"><title>1739141138464&#45;&#45;1739141138176</title>
<path fill="none" stroke="black" d="M396.051,-443.796C332.181,-430.837 166.567,-397.234 102.518,-384.238"/>
</g>
<!-- 1739141138704 -->
<g id="node8" class="node"><title>1739141138704</title>
<ellipse fill="none" stroke="black" cx="413.7" cy="-378" rx="27" ry="18"/>
<text text-anchor="middle" x="413.7" y="-374.5" font-family="Times New Roman,serif" font-size="15.00">xor</text>
</g>
<!-- 1739141138464&#45;&#45;1739141138704 -->
<g id="edge15" class="edge"><title>1739141138464&#45;&#45;1739141138704</title>
<path fill="none" stroke="black" d="M419.722,-431.697C418.482,-420.846 416.89,-406.917 415.655,-396.104"/>
</g>
<!-- 1739141136544 -->
<g id="node19" class="node"><title>1739141136544</title>
<ellipse fill="none" stroke="black" cx="556.7" cy="-378" rx="27" ry="18"/>
<text text-anchor="middle" x="556.7" y="-374.5" font-family="Times New Roman,serif" font-size="15.00">xor</text>
</g>
<!-- 1739141138464&#45;&#45;1739141136544 -->
<g id="edge22" class="edge"><title>1739141138464&#45;&#45;1739141136544</title>
<path fill="none" stroke="black" d="M442.498,-438.216C467.941,-425.023 510.747,-402.827 536.1,-389.681"/>
</g>
<!-- 1739141138848 -->
<g id="node6" class="node"><title>1739141138848</title>
<ellipse fill="black" stroke="black" cx="2.7" cy="-306" rx="2.7" ry="2.7"/>
</g>
<!-- 1739141138176&#45;&#45;1739141138848 -->
<g id="edge2" class="edge"><title>1739141138176&#45;&#45;1739141138848</title>
<path fill="none" stroke="black" d="M61.725,-362.834C42.8049,-344.937 11.8039,-315.612 4.34935,-308.56"/>
</g>
<!-- 1739141139136 -->
<g id="node7" class="node"><title>1739141139136</title>
<ellipse fill="none" stroke="black" cx="76.7" cy="-306" rx="52.6228" ry="18"/>
<text text-anchor="middle" x="76.7" y="-302.5" font-family="Times New Roman,serif" font-size="15.00">Send Fine</text>
</g>
<!-- 1739141138176&#45;&#45;1739141139136 -->
<g id="edge3" class="edge"><title>1739141138176&#45;&#45;1739141139136</title>
<path fill="none" stroke="black" d="M76.7,-359.697C76.7,-348.846 76.7,-334.917 76.7,-324.104"/>
</g>
<!-- 1739141137936 -->
<g id="node9" class="node"><title>1739141137936</title>
<ellipse fill="black" stroke="black" cx="150.7" cy="-306" rx="2.7" ry="2.7"/>
</g>
<!-- 1739141138704&#45;&#45;1739141137936 -->
<g id="edge5" class="edge"><title>1739141138704&#45;&#45;1739141137936</title>
<path fill="none" stroke="black" d="M388.958,-370.415C327.835,-354.146 173.175,-312.982 152.904,-307.587"/>
</g>
<!-- 1739141139664 -->
<g id="node10" class="node"><title>1739141139664</title>
<ellipse fill="none" stroke="black" cx="315.7" cy="-306" rx="144.571" ry="18"/>
<text text-anchor="middle" x="315.7" y="-302.5" font-family="Times New Roman,serif" font-size="15.00">Insert Date Appeal to Prefecture</text>
</g>
<!-- 1739141138704&#45;&#45;1739141139664 -->
<g id="edge6" class="edge"><title>1739141138704&#45;&#45;1739141139664</title>
<path fill="none" stroke="black" d="M395.725,-364.161C379.922,-352.873 356.804,-336.36 339.474,-323.981"/>
</g>
<!-- 1739141136688 -->
<g id="node11" class="node"><title>1739141136688</title>
<ellipse fill="none" stroke="black" cx="505.7" cy="-306" rx="27" ry="18"/>
<text text-anchor="middle" x="505.7" y="-302.5" font-family="Times New Roman,serif" font-size="15.00">seq</text>
</g>
<!-- 1739141138704&#45;&#45;1739141136688 -->
<g id="edge14" class="edge"><title>1739141138704&#45;&#45;1739141136688</title>
<path fill="none" stroke="black" d="M431.004,-363.834C447.453,-351.319 472.051,-332.603 488.473,-320.107"/>
</g>
<!-- 1739141137264 -->
<g id="node12" class="node"><title>1739141137264</title>
<ellipse fill="none" stroke="black" cx="275.7" cy="-234" rx="27" ry="18"/>
<text text-anchor="middle" x="275.7" y="-230.5" font-family="Times New Roman,serif" font-size="15.00">xor</text>
</g>
<!-- 1739141136688&#45;&#45;1739141137264 -->
<g id="edge9" class="edge"><title>1739141136688&#45;&#45;1739141137264</title>
<path fill="none" stroke="black" d="M481.521,-297.641C437.347,-284.197 344.09,-255.814 299.9,-242.365"/>
</g>
<!-- 1739141137648 -->
<g id="node15" class="node"><title>1739141137648</title>
<ellipse fill="none" stroke="black" cx="502.7" cy="-234" rx="27" ry="18"/>
<text text-anchor="middle" x="502.7" y="-230.5" font-family="Times New Roman,serif" font-size="15.00">xor</text>
</g>
<!-- 1739141136688&#45;&#45;1739141137648 -->
<g id="edge13" class="edge"><title>1739141136688&#45;&#45;1739141137648</title>
<path fill="none" stroke="black" d="M504.958,-287.697C504.493,-276.846 503.896,-262.917 503.433,-252.104"/>
</g>
<!-- 1739141137744 -->
<g id="node13" class="node"><title>1739141137744</title>
<ellipse fill="black" stroke="black" cx="147.7" cy="-162" rx="2.7" ry="2.7"/>
</g>
<!-- 1739141137264&#45;&#45;1739141137744 -->
<g id="edge7" class="edge"><title>1739141137264&#45;&#45;1739141137744</title>
<path fill="none" stroke="black" d="M255.418,-221.908C222.991,-204.175 161.882,-170.756 149.804,-164.151"/>
</g>
<!-- 1739141138032 -->
<g id="node14" class="node"><title>1739141138032</title>
<ellipse fill="none" stroke="black" cx="275.7" cy="-162" rx="107.914" ry="18"/>
<text text-anchor="middle" x="275.7" y="-158.5" font-family="Times New Roman,serif" font-size="15.00">Insert Fine Notification</text>
</g>
<!-- 1739141137264&#45;&#45;1739141138032 -->
<g id="edge8" class="edge"><title>1739141137264&#45;&#45;1739141138032</title>
<path fill="none" stroke="black" d="M275.7,-215.697C275.7,-204.846 275.7,-190.917 275.7,-180.104"/>
</g>
<!-- 1739141138800 -->
<g id="node16" class="node"><title>1739141138800</title>
<ellipse fill="black" stroke="black" cx="403.7" cy="-162" rx="2.7" ry="2.7"/>
</g>
<!-- 1739141137648&#45;&#45;1739141138800 -->
<g id="edge10" class="edge"><title>1739141137648&#45;&#45;1739141138800</title>
<path fill="none" stroke="black" d="M484.542,-220.161C459.087,-202.163 414.849,-170.883 405.476,-164.256"/>
</g>
<!-- 1739141138992 -->
<g id="node17" class="node"><title>1739141138992</title>
<ellipse fill="none" stroke="black" cx="502.7" cy="-162" rx="78.5434" ry="18"/>
<text text-anchor="middle" x="502.7" y="-158.5" font-family="Times New Roman,serif" font-size="15.00">Appeal to Judge</text>
</g>
<!-- 1739141137648&#45;&#45;1739141138992 -->
<g id="edge11" class="edge"><title>1739141137648&#45;&#45;1739141138992</title>
<path fill="none" stroke="black" d="M502.7,-215.697C502.7,-204.846 502.7,-190.917 502.7,-180.104"/>
</g>
<!-- 1739141139184 -->
<g id="node18" class="node"><title>1739141139184</title>
<ellipse fill="none" stroke="black" cx="644.7" cy="-162" rx="45.7249" ry="18"/>
<text text-anchor="middle" x="644.7" y="-158.5" font-family="Times New Roman,serif" font-size="15.00">Payment</text>
</g>
<!-- 1739141137648&#45;&#45;1739141139184 -->
<g id="edge12" class="edge"><title>1739141137648&#45;&#45;1739141139184</title>
<path fill="none" stroke="black" d="M523.959,-222.52C548.794,-210.277 589.948,-189.99 617.197,-176.558"/>
</g>
<!-- 1739141138752 -->
<g id="node20" class="node"><title>1739141138752</title>
<ellipse fill="black" stroke="black" cx="556.7" cy="-306" rx="2.7" ry="2.7"/>
</g>
<!-- 1739141136544&#45;&#45;1739141138752 -->
<g id="edge16" class="edge"><title>1739141136544&#45;&#45;1739141138752</title>
<path fill="none" stroke="black" d="M556.7,-359.697C556.7,-341.883 556.7,-315.769 556.7,-308.776"/>
</g>
<!-- 1739141138512 -->
<g id="node21" class="node"><title>1739141138512</title>
<ellipse fill="none" stroke="black" cx="609.7" cy="-306" rx="27" ry="18"/>
<text text-anchor="middle" x="609.7" y="-302.5" font-family="Times New Roman,serif" font-size="15.00">and</text>
</g>
<!-- 1739141136544&#45;&#45;1739141138512 -->
<g id="edge21" class="edge"><title>1739141136544&#45;&#45;1739141138512</title>
<path fill="none" stroke="black" d="M568.462,-361.465C577.245,-349.865 589.195,-334.082 597.97,-322.492"/>
</g>
<!-- 1739141139760 -->
<g id="node22" class="node"><title>1739141139760</title>
<ellipse fill="none" stroke="black" cx="609.7" cy="-234" rx="61.6894" ry="18"/>
<text text-anchor="middle" x="609.7" y="-230.5" font-family="Times New Roman,serif" font-size="15.00">Add penalty</text>
</g>
<!-- 1739141138512&#45;&#45;1739141139760 -->
<g id="edge17" class="edge"><title>1739141138512&#45;&#45;1739141139760</title>
<path fill="none" stroke="black" d="M609.7,-287.697C609.7,-276.846 609.7,-262.917 609.7,-252.104"/>
</g>
<!-- 1739141140048 -->
<g id="node23" class="node"><title>1739141140048</title>
<ellipse fill="none" stroke="black" cx="716.7" cy="-234" rx="27" ry="18"/>
<text text-anchor="middle" x="716.7" y="-230.5" font-family="Times New Roman,serif" font-size="15.00">xor</text>
</g>
<!-- 1739141138512&#45;&#45;1739141140048 -->
<g id="edge20" class="edge"><title>1739141138512&#45;&#45;1739141140048</title>
<path fill="none" stroke="black" d="M628.338,-292.807C647.857,-280.037 678.343,-260.093 697.917,-247.288"/>
</g>
<!-- 1739141137360 -->
<g id="node24" class="node"><title>1739141137360</title>
<ellipse fill="black" stroke="black" cx="711.7" cy="-162" rx="2.7" ry="2.7"/>
</g>
<!-- 1739141140048&#45;&#45;1739141137360 -->
<g id="edge18" class="edge"><title>1739141140048&#45;&#45;1739141137360</title>
<path fill="none" stroke="black" d="M715.464,-215.697C714.192,-197.883 712.326,-171.769 711.827,-164.776"/>
</g>
<!-- 1739141152384 -->
<g id="node25" class="node"><title>1739141152384</title>
<ellipse fill="none" stroke="black" cx="876.7" cy="-162" rx="144.571" ry="18"/>
<text text-anchor="middle" x="876.7" y="-158.5" font-family="Times New Roman,serif" font-size="15.00">Insert Date Appeal to Prefecture</text>
</g>
<!-- 1739141140048&#45;&#45;1739141152384 -->
<g id="edge19" class="edge"><title>1739141140048&#45;&#45;1739141152384</title>
<path fill="none" stroke="black" d="M738.612,-223.414C764.459,-212.106 807.857,-193.119 839.11,-179.446"/>
</g>
<!-- 1739141137552 -->
<g id="node28" class="node"><title>1739141137552</title>
<ellipse fill="black" stroke="black" cx="588.7" cy="-450" rx="2.7" ry="2.7"/>
</g>
<!-- 1739141140240&#45;&#45;1739141137552 -->
<g id="edge26" class="edge"><title>1739141140240&#45;&#45;1739141137552</title>
<path fill="none" stroke="black" d="M661.772,-507.834C638.552,-489.774 598.731,-458.802 590.298,-452.243"/>
</g>
<!-- 1739141140336 -->
<g id="node29" class="node"><title>1739141140336</title>
<ellipse fill="none" stroke="black" cx="730.7" cy="-450" rx="120.819" ry="18"/>
<text text-anchor="middle" x="730.7" y="-446.5" font-family="Times New Roman,serif" font-size="15.00">Send for Credit Collection</text>
</g>
<!-- 1739141140240&#45;&#45;1739141140336 -->
<g id="edge27" class="edge"><title>1739141140240&#45;&#45;1739141140336</title>
<path fill="none" stroke="black" d="M690.24,-505.465C698.499,-494.348 709.611,-479.39 718.1,-467.962"/>
</g>
<!-- 1739141139568 -->
<g id="node30" class="node"><title>1739141139568</title>
<ellipse fill="none" stroke="black" cx="912.7" cy="-450" rx="27" ry="18"/>
<text text-anchor="middle" x="912.7" y="-446.5" font-family="Times New Roman,serif" font-size="15.00">seq</text>
</g>
<!-- 1739141140240&#45;&#45;1739141139568 -->
<g id="edge48" class="edge"><title>1739141140240&#45;&#45;1739141139568</title>
<path fill="none" stroke="black" d="M702.861,-513.772C747.701,-500.359 843.315,-471.756 888.32,-458.293"/>
</g>
<!-- 1739141139376 -->
<g id="node31" class="node"><title>1739141139376</title>
<ellipse fill="none" stroke="black" cx="912.7" cy="-378" rx="120.43" ry="18"/>
<text text-anchor="middle" x="912.7" y="-374.5" font-family="Times New Roman,serif" font-size="15.00">Send Appeal to Prefecture</text>
</g>
<!-- 1739141139568&#45;&#45;1739141139376 -->
<g id="edge28" class="edge"><title>1739141139568&#45;&#45;1739141139376</title>
<path fill="none" stroke="black" d="M912.7,-431.697C912.7,-420.846 912.7,-406.917 912.7,-396.104"/>
</g>
<!-- 1739141149168 -->
<g id="node32" class="node"><title>1739141149168</title>
<ellipse fill="none" stroke="black" cx="1085.7" cy="-378" rx="27" ry="18"/>
<text text-anchor="middle" x="1085.7" y="-374.5" font-family="Times New Roman,serif" font-size="15.00">xor</text>
</g>
<!-- 1739141139568&#45;&#45;1739141149168 -->
<g id="edge47" class="edge"><title>1739141139568&#45;&#45;1739141149168</title>
<path fill="none" stroke="black" d="M935.317,-439.849C968.472,-426.433 1029.92,-401.57 1063.08,-388.154"/>
</g>
<!-- 1739141151280 -->
<g id="node33" class="node"><title>1739141151280</title>
<ellipse fill="black" stroke="black" cx="1085.7" cy="-306" rx="2.7" ry="2.7"/>
</g>
<!-- 1739141149168&#45;&#45;1739141151280 -->
<g id="edge29" class="edge"><title>1739141149168&#45;&#45;1739141151280</title>
<path fill="none" stroke="black" d="M1085.7,-359.697C1085.7,-341.883 1085.7,-315.769 1085.7,-308.776"/>
</g>
<!-- 1739141152192 -->
<g id="node34" class="node"><title>1739141152192</title>
<ellipse fill="none" stroke="black" cx="1260.7" cy="-306" rx="27" ry="18"/>
<text text-anchor="middle" x="1260.7" y="-302.5" font-family="Times New Roman,serif" font-size="15.00">seq</text>
</g>
<!-- 1739141149168&#45;&#45;1739141152192 -->
<g id="edge46" class="edge"><title>1739141149168&#45;&#45;1739141152192</title>
<path fill="none" stroke="black" d="M1108.22,-367.992C1141.73,-354.588 1204.37,-329.532 1237.99,-316.084"/>
</g>
<!-- 1739141150080 -->
<g id="node35" class="node"><title>1739141150080</title>
<ellipse fill="none" stroke="black" cx="1041.7" cy="-234" rx="27" ry="18"/>
<text text-anchor="middle" x="1041.7" y="-230.5" font-family="Times New Roman,serif" font-size="15.00">xor</text>
</g>
<!-- 1739141152192&#45;&#45;1739141150080 -->
<g id="edge32" class="edge"><title>1739141152192&#45;&#45;1739141150080</title>
<path fill="none" stroke="black" d="M1236.85,-297.376C1194.72,-283.91 1107.63,-256.073 1065.52,-242.615"/>
</g>
<!-- 1739141150848 -->
<g id="node38" class="node"><title>1739141150848</title>
<ellipse fill="none" stroke="black" cx="1260.7" cy="-234" rx="173.941" ry="18"/>
<text text-anchor="middle" x="1260.7" y="-230.5" font-family="Times New Roman,serif" font-size="15.00">Receive Result Appeal from Prefecture</text>
</g>
<!-- 1739141152192&#45;&#45;1739141150848 -->
<g id="edge33" class="edge"><title>1739141152192&#45;&#45;1739141150848</title>
<path fill="none" stroke="black" d="M1260.7,-287.697C1260.7,-276.846 1260.7,-262.917 1260.7,-252.104"/>
</g>
<!-- 1739141149984 -->
<g id="node39" class="node"><title>1739141149984</title>
<ellipse fill="none" stroke="black" cx="1479.7" cy="-234" rx="27" ry="18"/>
<text text-anchor="middle" x="1479.7" y="-230.5" font-family="Times New Roman,serif" font-size="15.00">xor</text>
</g>
<!-- 1739141152192&#45;&#45;1739141149984 -->
<g id="edge36" class="edge"><title>1739141152192&#45;&#45;1739141149984</title>
<path fill="none" stroke="black" d="M1284.55,-297.376C1326.68,-283.91 1413.77,-256.073 1455.88,-242.615"/>
</g>
<!-- 1739141150176 -->
<g id="node42" class="node"><title>1739141150176</title>
<ellipse fill="none" stroke="black" cx="1790.7" cy="-234" rx="27" ry="18"/>
<text text-anchor="middle" x="1790.7" y="-230.5" font-family="Times New Roman,serif" font-size="15.00">xor</text>
</g>
<!-- 1739141152192&#45;&#45;1739141150176 -->
<g id="edge45" class="edge"><title>1739141152192&#45;&#45;1739141150176</title>
<path fill="none" stroke="black" d="M1286.98,-301.529C1377.22,-289.611 1673.78,-250.442 1764.26,-238.492"/>
</g>
<!-- 1739141150944 -->
<g id="node36" class="node"><title>1739141150944</title>
<ellipse fill="black" stroke="black" cx="1041.7" cy="-162" rx="2.7" ry="2.7"/>
</g>
<!-- 1739141150080&#45;&#45;1739141150944 -->
<g id="edge30" class="edge"><title>1739141150080&#45;&#45;1739141150944</title>
<path fill="none" stroke="black" d="M1041.7,-215.697C1041.7,-197.883 1041.7,-171.769 1041.7,-164.776"/>
</g>
<!-- 1739141151712 -->
<g id="node37" class="node"><title>1739141151712</title>
<ellipse fill="none" stroke="black" cx="1124.7" cy="-162" rx="61.6894" ry="18"/>
<text text-anchor="middle" x="1124.7" y="-158.5" font-family="Times New Roman,serif" font-size="15.00">Add penalty</text>
</g>
<!-- 1739141150080&#45;&#45;1739141151712 -->
<g id="edge31" class="edge"><title>1739141150080&#45;&#45;1739141151712</title>
<path fill="none" stroke="black" d="M1058.1,-219.17C1071.7,-207.695 1091.08,-191.357 1105.42,-179.257"/>
</g>
<!-- 1739141148736 -->
<g id="node40" class="node"><title>1739141148736</title>
<ellipse fill="black" stroke="black" cx="1310.7" cy="-162" rx="2.7" ry="2.7"/>
</g>
<!-- 1739141149984&#45;&#45;1739141148736 -->
<g id="edge34" class="edge"><title>1739141149984&#45;&#45;1739141148736</title>
<path fill="none" stroke="black" d="M1457.26,-223.705C1415.24,-206.3 1327.59,-169.994 1312.83,-163.882"/>
</g>
<!-- 1739141149120 -->
<g id="node41" class="node"><title>1739141149120</title>
<ellipse fill="none" stroke="black" cx="1479.7" cy="-162" rx="148.91" ry="18"/>
<text text-anchor="middle" x="1479.7" y="-158.5" font-family="Times New Roman,serif" font-size="15.00">Notify Result Appeal to Offender</text>
</g>
<!-- 1739141149984&#45;&#45;1739141149120 -->
<g id="edge35" class="edge"><title>1739141149984&#45;&#45;1739141149120</title>
<path fill="none" stroke="black" d="M1479.7,-215.697C1479.7,-204.846 1479.7,-190.917 1479.7,-180.104"/>
</g>
<!-- 1739141149408 -->
<g id="node43" class="node"><title>1739141149408</title>
<ellipse fill="black" stroke="black" cx="1648.7" cy="-162" rx="2.7" ry="2.7"/>
</g>
<!-- 1739141150176&#45;&#45;1739141149408 -->
<g id="edge37" class="edge"><title>1739141150176&#45;&#45;1739141149408</title>
<path fill="none" stroke="black" d="M1769.44,-222.52C1733.54,-204.823 1663.55,-170.319 1650.74,-164.005"/>
</g>
<!-- 1739141148880 -->
<g id="node44" class="node"><title>1739141148880</title>
<ellipse fill="none" stroke="black" cx="1790.7" cy="-162" rx="120.819" ry="18"/>
<text text-anchor="middle" x="1790.7" y="-158.5" font-family="Times New Roman,serif" font-size="15.00">Send for Credit Collection</text>
</g>
<!-- 1739141150176&#45;&#45;1739141148880 -->
<g id="edge38" class="edge"><title>1739141150176&#45;&#45;1739141148880</title>
<path fill="none" stroke="black" d="M1790.7,-215.697C1790.7,-204.846 1790.7,-190.917 1790.7,-180.104"/>
</g>
<!-- 1739141149696 -->
<g id="node45" class="node"><title>1739141149696</title>
<ellipse fill="none" stroke="black" cx="1975.7" cy="-162" rx="45.7249" ry="18"/>
<text text-anchor="middle" x="1975.7" y="-158.5" font-family="Times New Roman,serif" font-size="15.00">Payment</text>
</g>
<!-- 1739141150176&#45;&#45;1739141149696 -->
<g id="edge39" class="edge"><title>1739141150176&#45;&#45;1739141149696</title>
<path fill="none" stroke="black" d="M1813.76,-224.276C1846.59,-211.852 1906.94,-189.017 1943.97,-175.005"/>
</g>
<!-- 1739141150272 -->
<g id="node46" class="node"><title>1739141150272</title>
<ellipse fill="none" stroke="black" cx="2066.7" cy="-162" rx="27" ry="18"/>
<text text-anchor="middle" x="2066.7" y="-158.5" font-family="Times New Roman,serif" font-size="15.00">seq</text>
</g>
<!-- 1739141150176&#45;&#45;1739141150272 -->
<g id="edge44" class="edge"><title>1739141150176&#45;&#45;1739141150272</title>
<path fill="none" stroke="black" d="M1815.68,-226.665C1868.23,-213.337 1989.65,-182.541 2041.98,-169.271"/>
</g>
<!-- 1739141149072 -->
<g id="node47" class="node"><title>1739141149072</title>
<ellipse fill="none" stroke="black" cx="2004.7" cy="-90" rx="78.5434" ry="18"/>
<text text-anchor="middle" x="2004.7" y="-86.5" font-family="Times New Roman,serif" font-size="15.00">Appeal to Judge</text>
</g>
<!-- 1739141150272&#45;&#45;1739141149072 -->
<g id="edge40" class="edge"><title>1739141150272&#45;&#45;1739141149072</title>
<path fill="none" stroke="black" d="M2053.55,-146.155C2043.6,-134.918 2029.92,-119.476 2019.57,-107.789"/>
</g>
<!-- 1739141149264 -->
<g id="node48" class="node"><title>1739141149264</title>
<ellipse fill="none" stroke="black" cx="2128.7" cy="-90" rx="27" ry="18"/>
<text text-anchor="middle" x="2128.7" y="-86.5" font-family="Times New Roman,serif" font-size="15.00">xor</text>
</g>
<!-- 1739141150272&#45;&#45;1739141149264 -->
<g id="edge43" class="edge"><title>1739141150272&#45;&#45;1739141149264</title>
<path fill="none" stroke="black" d="M2079.85,-146.155C2090.37,-134.276 2105.05,-117.697 2115.57,-105.824"/>
</g>
<!-- 1739141150656 -->
<g id="node49" class="node"><title>1739141150656</title>
<ellipse fill="black" stroke="black" cx="2094.7" cy="-18" rx="2.7" ry="2.7"/>
</g>
<!-- 1739141149264&#45;&#45;1739141150656 -->
<g id="edge41" class="edge"><title>1739141149264&#45;&#45;1739141150656</title>
<path fill="none" stroke="black" d="M2120.81,-72.7646C2112.18,-54.9939 2099.1,-28.0601 2095.59,-20.8363"/>
</g>
<!-- 1739141150560 -->
<g id="node50" class="node"><title>1739141150560</title>
<ellipse fill="none" stroke="black" cx="2161.7" cy="-18" rx="45.7249" ry="18"/>
<text text-anchor="middle" x="2161.7" y="-14.5" font-family="Times New Roman,serif" font-size="15.00">Payment</text>
</g>
<!-- 1739141149264&#45;&#45;1739141150560 -->
<g id="edge42" class="edge"><title>1739141149264&#45;&#45;1739141150560</title>
<path fill="none" stroke="black" d="M2136.52,-72.411C2141.7,-61.4141 2148.49,-47.0274 2153.71,-35.9562"/>
</g>
</g>
</svg>
