<?xml version="1.0" encoding="UTF-8" standalone="no"?>
<!DOCTYPE svg PUBLIC "-//W3C//DTD SVG 1.1//EN"
 "http://www.w3.org/Graphics/SVG/1.1/DTD/svg11.dtd">
<!-- Generated by graphviz version 2.38.0 (20140413.2041)
 -->
<!-- Title: pt Pages: 1 -->
<svg width="1161pt" height="404pt"
 viewBox="0.00 0.00 1160.54 404.00" xmlns="http://www.w3.org/2000/svg" xmlns:xlink="http://www.w3.org/1999/xlink">
<g id="graph0" class="graph" transform="scale(1 1) rotate(0) translate(4 400)">
<title>pt</title>
<!-- 1738940458368 -->
<g id="node1" class="node"><title>1738940458368</title>
<ellipse fill="none" stroke="black" cx="492.7" cy="-378" rx="27" ry="18"/>
<text text-anchor="middle" x="492.7" y="-374.5" font-family="Times New Roman,serif" font-size="15.00">and</text>
</g>
<!-- 1738940457888 -->
<g id="node2" class="node"><title>1738940457888</title>
<ellipse fill="none" stroke="black" cx="380.7" cy="-306" rx="27" ry="18"/>
<text text-anchor="middle" x="380.7" y="-302.5" font-family="Times New Roman,serif" font-size="15.00">xor</text>
</g>
<!-- 1738940458368&#45;&#45;1738940457888 -->
<g id="edge12" class="edge"><title>1738940458368&#45;&#45;1738940457888</title>
<path fill="none" stroke="black" d="M473.701,-365.125C453.105,-352.253 420.424,-331.828 399.792,-318.933"/>
</g>
<!-- 1738940458128 -->
<g id="node14" class="node"><title>1738940458128</title>
<ellipse fill="none" stroke="black" cx="605.7" cy="-306" rx="27" ry="18"/>
<text text-anchor="middle" x="605.7" y="-302.5" font-family="Times New Roman,serif" font-size="15.00">seq</text>
</g>
<!-- 1738940458368&#45;&#45;1738940458128 -->
<g id="edge31" class="edge"><title>1738940458368&#45;&#45;1738940458128</title>
<path fill="none" stroke="black" d="M511.869,-365.125C532.648,-352.253 565.621,-331.828 586.437,-318.933"/>
</g>
<!-- 1738938607408 -->
<g id="node3" class="node"><title>1738938607408</title>
<ellipse fill="black" stroke="black" cx="332.7" cy="-234" rx="2.7" ry="2.7"/>
</g>
<!-- 1738940457888&#45;&#45;1738938607408 -->
<g id="edge1" class="edge"><title>1738940457888&#45;&#45;1738938607408</title>
<path fill="none" stroke="black" d="M369.808,-289.116C357.638,-271.367 338.98,-244.158 333.973,-236.857"/>
</g>
<!-- 1738938608560 -->
<g id="node4" class="node"><title>1738938608560</title>
<ellipse fill="none" stroke="black" cx="380.7" cy="-234" rx="27" ry="18"/>
<text text-anchor="middle" x="380.7" y="-230.5" font-family="Times New Roman,serif" font-size="15.00">and</text>
</g>
<!-- 1738940457888&#45;&#45;1738938608560 -->
<g id="edge11" class="edge"><title>1738940457888&#45;&#45;1738938608560</title>
<path fill="none" stroke="black" d="M380.7,-287.697C380.7,-276.846 380.7,-262.917 380.7,-252.104"/>
</g>
<!-- 1738938606928 -->
<g id="node5" class="node"><title>1738938606928</title>
<ellipse fill="none" stroke="black" cx="143.7" cy="-162" rx="27" ry="18"/>
<text text-anchor="middle" x="143.7" y="-158.5" font-family="Times New Roman,serif" font-size="15.00">xor</text>
</g>
<!-- 1738938608560&#45;&#45;1738938606928 -->
<g id="edge4" class="edge"><title>1738938608560&#45;&#45;1738938606928</title>
<path fill="none" stroke="black" d="M356.229,-225.772C310.696,-212.324 213.47,-183.607 168.037,-170.188"/>
</g>
<!-- 1738938606208 -->
<g id="node8" class="node"><title>1738938606208</title>
<ellipse fill="none" stroke="black" cx="338.7" cy="-162" rx="46.6143" ry="18"/>
<text text-anchor="middle" x="338.7" y="-158.5" font-family="Times New Roman,serif" font-size="15.00">xor loop</text>
</g>
<!-- 1738938608560&#45;&#45;1738938606208 -->
<g id="edge7" class="edge"><title>1738938608560&#45;&#45;1738938606208</title>
<path fill="none" stroke="black" d="M371.17,-217.116C364.49,-205.983 355.576,-191.127 348.778,-179.797"/>
</g>
<!-- 1738938609616 -->
<g id="node11" class="node"><title>1738938609616</title>
<ellipse fill="none" stroke="black" cx="430.7" cy="-162" rx="27" ry="18"/>
<text text-anchor="middle" x="430.7" y="-158.5" font-family="Times New Roman,serif" font-size="15.00">xor</text>
</g>
<!-- 1738938608560&#45;&#45;1738938609616 -->
<g id="edge10" class="edge"><title>1738938608560&#45;&#45;1738938609616</title>
<path fill="none" stroke="black" d="M391.797,-217.465C400.082,-205.865 411.356,-190.082 419.634,-178.492"/>
</g>
<!-- 1738938607696 -->
<g id="node6" class="node"><title>1738938607696</title>
<ellipse fill="black" stroke="black" cx="2.7" cy="-90" rx="2.7" ry="2.7"/>
</g>
<!-- 1738938606928&#45;&#45;1738938607696 -->
<g id="edge2" class="edge"><title>1738938606928&#45;&#45;1738938607696</title>
<path fill="none" stroke="black" d="M122.591,-150.52C86.9442,-132.823 17.4421,-98.3188 4.72371,-92.0047"/>
</g>
<!-- 1738938607984 -->
<g id="node7" class="node"><title>1738938607984</title>
<ellipse fill="none" stroke="black" cx="143.7" cy="-90" rx="120.43" ry="18"/>
<text text-anchor="middle" x="143.7" y="-86.5" font-family="Times New Roman,serif" font-size="15.00">Send Appeal to Prefecture</text>
</g>
<!-- 1738938606928&#45;&#45;1738938607984 -->
<g id="edge3" class="edge"><title>1738938606928&#45;&#45;1738938607984</title>
<path fill="none" stroke="black" d="M143.7,-143.697C143.7,-132.846 143.7,-118.917 143.7,-108.104"/>
</g>
<!-- 1738938609520 -->
<g id="node9" class="node"><title>1738938609520</title>
<ellipse fill="black" stroke="black" cx="284.7" cy="-90" rx="2.7" ry="2.7"/>
</g>
<!-- 1738938606208&#45;&#45;1738938609520 -->
<g id="edge5" class="edge"><title>1738938606208&#45;&#45;1738938609520</title>
<path fill="none" stroke="black" d="M325.903,-144.411C312.18,-126.622 291.614,-99.9625 286.101,-92.8163"/>
</g>
<!-- 1738938608416 -->
<g id="node10" class="node"><title>1738938608416</title>
<ellipse fill="none" stroke="black" cx="351.7" cy="-90" rx="45.7249" ry="18"/>
<text text-anchor="middle" x="351.7" y="-86.5" font-family="Times New Roman,serif" font-size="15.00">Payment</text>
</g>
<!-- 1738938606208&#45;&#45;1738938608416 -->
<g id="edge6" class="edge"><title>1738938606208&#45;&#45;1738938608416</title>
<path fill="none" stroke="black" d="M341.913,-143.697C343.929,-132.846 346.515,-118.917 348.523,-108.104"/>
</g>
<!-- 1738938605968 -->
<g id="node12" class="node"><title>1738938605968</title>
<ellipse fill="black" stroke="black" cx="418.7" cy="-90" rx="2.7" ry="2.7"/>
</g>
<!-- 1738938609616&#45;&#45;1738938605968 -->
<g id="edge8" class="edge"><title>1738938609616&#45;&#45;1738938605968</title>
<path fill="none" stroke="black" d="M427.795,-144.055C424.743,-126.252 420.22,-99.8653 419.008,-92.7963"/>
</g>
<!-- 1738938606544 -->
<g id="node13" class="node"><title>1738938606544</title>
<ellipse fill="none" stroke="black" cx="501.7" cy="-90" rx="61.6894" ry="18"/>
<text text-anchor="middle" x="501.7" y="-86.5" font-family="Times New Roman,serif" font-size="15.00">Add penalty</text>
</g>
<!-- 1738938609616&#45;&#45;1738938606544 -->
<g id="edge9" class="edge"><title>1738938609616&#45;&#45;1738938606544</title>
<path fill="none" stroke="black" d="M445.411,-146.496C456.947,-135.123 473.004,-119.292 485.017,-107.448"/>
</g>
<!-- 1738940457696 -->
<g id="node15" class="node"><title>1738940457696</title>
<ellipse fill="none" stroke="black" cx="500.7" cy="-234" rx="59.5207" ry="18"/>
<text text-anchor="middle" x="500.7" y="-230.5" font-family="Times New Roman,serif" font-size="15.00">Create Fine</text>
</g>
<!-- 1738940458128&#45;&#45;1738940457696 -->
<g id="edge13" class="edge"><title>1738940458128&#45;&#45;1738940457696</title>
<path fill="none" stroke="black" d="M586.928,-292.485C569.35,-280.767 543.023,-263.215 524.086,-250.591"/>
</g>
<!-- 1738940457648 -->
<g id="node16" class="node"><title>1738940457648</title>
<ellipse fill="none" stroke="black" cx="605.7" cy="-234" rx="27" ry="18"/>
<text text-anchor="middle" x="605.7" y="-230.5" font-family="Times New Roman,serif" font-size="15.00">xor</text>
</g>
<!-- 1738940458128&#45;&#45;1738940457648 -->
<g id="edge16" class="edge"><title>1738940458128&#45;&#45;1738940457648</title>
<path fill="none" stroke="black" d="M605.7,-287.697C605.7,-276.846 605.7,-262.917 605.7,-252.104"/>
</g>
<!-- 1738940458992 -->
<g id="node19" class="node"><title>1738940458992</title>
<ellipse fill="none" stroke="black" cx="679.7" cy="-234" rx="27" ry="18"/>
<text text-anchor="middle" x="679.7" y="-230.5" font-family="Times New Roman,serif" font-size="15.00">xor</text>
</g>
<!-- 1738940458128&#45;&#45;1738940458992 -->
<g id="edge26" class="edge"><title>1738940458128&#45;&#45;1738940458992</title>
<path fill="none" stroke="black" d="M620.675,-290.834C633.514,-278.69 651.915,-261.283 664.747,-249.144"/>
</g>
<!-- 1738940457264 -->
<g id="node29" class="node"><title>1738940457264</title>
<ellipse fill="none" stroke="black" cx="846.7" cy="-234" rx="27" ry="18"/>
<text text-anchor="middle" x="846.7" y="-230.5" font-family="Times New Roman,serif" font-size="15.00">xor</text>
</g>
<!-- 1738940458128&#45;&#45;1738940457264 -->
<g id="edge30" class="edge"><title>1738940458128&#45;&#45;1738940457264</title>
<path fill="none" stroke="black" d="M630.135,-297.903C676.326,-284.486 775.96,-255.547 822.201,-242.116"/>
</g>
<!-- 1738940458656 -->
<g id="node17" class="node"><title>1738940458656</title>
<ellipse fill="black" stroke="black" cx="531.7" cy="-162" rx="2.7" ry="2.7"/>
</g>
<!-- 1738940457648&#45;&#45;1738940458656 -->
<g id="edge14" class="edge"><title>1738940457648&#45;&#45;1738940458656</title>
<path fill="none" stroke="black" d="M590.725,-218.834C571.805,-200.937 540.804,-171.612 533.349,-164.56"/>
</g>
<!-- 1738940457072 -->
<g id="node18" class="node"><title>1738940457072</title>
<ellipse fill="none" stroke="black" cx="605.7" cy="-162" rx="52.6228" ry="18"/>
<text text-anchor="middle" x="605.7" y="-158.5" font-family="Times New Roman,serif" font-size="15.00">Send Fine</text>
</g>
<!-- 1738940457648&#45;&#45;1738940457072 -->
<g id="edge15" class="edge"><title>1738940457648&#45;&#45;1738940457072</title>
<path fill="none" stroke="black" d="M605.7,-215.697C605.7,-204.846 605.7,-190.917 605.7,-180.104"/>
</g>
<!-- 1738940457312 -->
<g id="node20" class="node"><title>1738940457312</title>
<ellipse fill="black" stroke="black" cx="679.7" cy="-162" rx="2.7" ry="2.7"/>
</g>
<!-- 1738940458992&#45;&#45;1738940457312 -->
<g id="edge17" class="edge"><title>1738940458992&#45;&#45;1738940457312</title>
<path fill="none" stroke="black" d="M679.7,-215.697C679.7,-197.883 679.7,-171.769 679.7,-164.776"/>
</g>
<!-- 1738940457504 -->
<g id="node21" class="node"><title>1738940457504</title>
<ellipse fill="none" stroke="black" cx="727.7" cy="-162" rx="27" ry="18"/>
<text text-anchor="middle" x="727.7" y="-158.5" font-family="Times New Roman,serif" font-size="15.00">seq</text>
</g>
<!-- 1738940458992&#45;&#45;1738940457504 -->
<g id="edge25" class="edge"><title>1738940458992&#45;&#45;1738940457504</title>
<path fill="none" stroke="black" d="M690.592,-217.116C698.447,-205.66 709.006,-190.263 716.851,-178.821"/>
</g>
<!-- 1738938609040 -->
<g id="node22" class="node"><title>1738938609040</title>
<ellipse fill="none" stroke="black" cx="689.7" cy="-90" rx="107.914" ry="18"/>
<text text-anchor="middle" x="689.7" y="-86.5" font-family="Times New Roman,serif" font-size="15.00">Insert Fine Notification</text>
</g>
<!-- 1738940457504&#45;&#45;1738938609040 -->
<g id="edge18" class="edge"><title>1738940457504&#45;&#45;1738938609040</title>
<path fill="none" stroke="black" d="M718.887,-144.765C712.923,-133.779 705.058,-119.292 698.996,-108.124"/>
</g>
<!-- 1738938606880 -->
<g id="node23" class="node"><title>1738938606880</title>
<ellipse fill="none" stroke="black" cx="842.7" cy="-90" rx="27" ry="18"/>
<text text-anchor="middle" x="842.7" y="-86.5" font-family="Times New Roman,serif" font-size="15.00">xor</text>
</g>
<!-- 1738940457504&#45;&#45;1738938606880 -->
<g id="edge21" class="edge"><title>1738940457504&#45;&#45;1738938606880</title>
<path fill="none" stroke="black" d="M746.948,-149.284C768.177,-136.362 802.135,-115.692 823.389,-102.755"/>
</g>
<!-- 1738938607840 -->
<g id="node26" class="node"><title>1738938607840</title>
<ellipse fill="none" stroke="black" cx="1007.7" cy="-90" rx="27" ry="18"/>
<text text-anchor="middle" x="1007.7" y="-86.5" font-family="Times New Roman,serif" font-size="15.00">xor</text>
</g>
<!-- 1738940457504&#45;&#45;1738938607840 -->
<g id="edge24" class="edge"><title>1738940457504&#45;&#45;1738938607840</title>
<path fill="none" stroke="black" d="M752.548,-154.788C805.683,-141.504 929.822,-110.469 982.908,-97.1981"/>
</g>
<!-- 1738938605824 -->
<g id="node24" class="node"><title>1738938605824</title>
<ellipse fill="black" stroke="black" cx="677.7" cy="-18" rx="2.7" ry="2.7"/>
</g>
<!-- 1738938606880&#45;&#45;1738938605824 -->
<g id="edge19" class="edge"><title>1738938606880&#45;&#45;1738938605824</title>
<path fill="none" stroke="black" d="M820.447,-79.5595C779.28,-62.0945 694.105,-25.9596 679.769,-19.8779"/>
</g>
<!-- 1738938608224 -->
<g id="node25" class="node"><title>1738938608224</title>
<ellipse fill="none" stroke="black" cx="842.7" cy="-18" rx="144.571" ry="18"/>
<text text-anchor="middle" x="842.7" y="-14.5" font-family="Times New Roman,serif" font-size="15.00">Insert Date Appeal to Prefecture</text>
</g>
<!-- 1738938606880&#45;&#45;1738938608224 -->
<g id="edge20" class="edge"><title>1738938606880&#45;&#45;1738938608224</title>
<path fill="none" stroke="black" d="M842.7,-71.6966C842.7,-60.8463 842.7,-46.9167 842.7,-36.1043"/>
</g>
<!-- 1738938608080 -->
<g id="node27" class="node"><title>1738938608080</title>
<ellipse fill="black" stroke="black" cx="1007.7" cy="-18" rx="2.7" ry="2.7"/>
</g>
<!-- 1738938607840&#45;&#45;1738938608080 -->
<g id="edge22" class="edge"><title>1738938607840&#45;&#45;1738938608080</title>
<path fill="none" stroke="black" d="M1007.7,-71.6966C1007.7,-53.8826 1007.7,-27.7686 1007.7,-20.7764"/>
</g>
<!-- 1738938605872 -->
<g id="node28" class="node"><title>1738938605872</title>
<ellipse fill="none" stroke="black" cx="1090.7" cy="-18" rx="61.6894" ry="18"/>
<text text-anchor="middle" x="1090.7" y="-14.5" font-family="Times New Roman,serif" font-size="15.00">Add penalty</text>
</g>
<!-- 1738938607840&#45;&#45;1738938605872 -->
<g id="edge23" class="edge"><title>1738938607840&#45;&#45;1738938605872</title>
<path fill="none" stroke="black" d="M1024.1,-75.1703C1037.7,-63.6952 1057.08,-47.3569 1071.42,-35.2574"/>
</g>
<!-- 1738938607888 -->
<g id="node30" class="node"><title>1738938607888</title>
<ellipse fill="black" stroke="black" cx="775.7" cy="-162" rx="2.7" ry="2.7"/>
</g>
<!-- 1738940457264&#45;&#45;1738938607888 -->
<g id="edge27" class="edge"><title>1738940457264&#45;&#45;1738938607888</title>
<path fill="none" stroke="black" d="M831.989,-218.496C813.792,-200.555 784.343,-171.522 777.266,-164.544"/>
</g>
<!-- 1738938607600 -->
<g id="node31" class="node"><title>1738938607600</title>
<ellipse fill="none" stroke="black" cx="917.7" cy="-162" rx="120.819" ry="18"/>
<text text-anchor="middle" x="917.7" y="-158.5" font-family="Times New Roman,serif" font-size="15.00">Send for Credit Collection</text>
</g>
<!-- 1738940457264&#45;&#45;1738938607600 -->
<g id="edge28" class="edge"><title>1738940457264&#45;&#45;1738938607600</title>
<path fill="none" stroke="black" d="M861.411,-218.496C872.784,-207.283 888.552,-191.737 900.507,-179.951"/>
</g>
<!-- 1738938606016 -->
<g id="node32" class="node"><title>1738938606016</title>
<ellipse fill="none" stroke="black" cx="1102.7" cy="-162" rx="45.7249" ry="18"/>
<text text-anchor="middle" x="1102.7" y="-158.5" font-family="Times New Roman,serif" font-size="15.00">Payment</text>
</g>
<!-- 1738940457264&#45;&#45;1738938606016 -->
<g id="edge29" class="edge"><title>1738940457264&#45;&#45;1738938606016</title>
<path fill="none" stroke="black" d="M871.246,-226.288C916.424,-213.935 1012.96,-187.539 1065.97,-173.044"/>
</g>
</g>
</svg>
