<?xml version="1.0" encoding="UTF-8" standalone="no"?>
<!DOCTYPE svg PUBLIC "-//W3C//DTD SVG 1.1//EN"
 "http://www.w3.org/Graphics/SVG/1.1/DTD/svg11.dtd">
<!-- Generated by graphviz version 2.38.0 (20140413.2041)
 -->
<!-- Title: pt Pages: 1 -->
<svg width="1722pt" height="908pt"
 viewBox="0.00 0.00 1722.40 908.00" xmlns="http://www.w3.org/2000/svg" xmlns:xlink="http://www.w3.org/1999/xlink">
<g id="graph0" class="graph" transform="scale(1 1) rotate(0) translate(4 904)">
<title>pt</title>
<!-- 1739141829536 -->
<g id="node1" class="node"><title>1739141829536</title>
<ellipse fill="none" stroke="black" cx="468.7" cy="-882" rx="27" ry="18"/>
<text text-anchor="middle" x="468.7" y="-878.5" font-family="Times New Roman,serif" font-size="15.00">and</text>
</g>
<!-- 1739121275472 -->
<g id="node2" class="node"><title>1739121275472</title>
<ellipse fill="none" stroke="black" cx="358.7" cy="-810" rx="27" ry="18"/>
<text text-anchor="middle" x="358.7" y="-806.5" font-family="Times New Roman,serif" font-size="15.00">xor</text>
</g>
<!-- 1739141829536&#45;&#45;1739121275472 -->
<g id="edge12" class="edge"><title>1739141829536&#45;&#45;1739121275472</title>
<path fill="none" stroke="black" d="M449.539,-868.807C429.35,-855.959 397.748,-835.848 377.641,-823.053"/>
</g>
<!-- 1739121278352 -->
<g id="node14" class="node"><title>1739121278352</title>
<ellipse fill="none" stroke="black" cx="546.7" cy="-810" rx="27" ry="18"/>
<text text-anchor="middle" x="546.7" y="-806.5" font-family="Times New Roman,serif" font-size="15.00">seq</text>
</g>
<!-- 1739141829536&#45;&#45;1739121278352 -->
<g id="edge55" class="edge"><title>1739141829536&#45;&#45;1739121278352</title>
<path fill="none" stroke="black" d="M484.11,-867.17C497.785,-854.898 517.657,-837.064 531.322,-824.801"/>
</g>
<!-- 1739121278256 -->
<g id="node3" class="node"><title>1739121278256</title>
<ellipse fill="black" stroke="black" cx="310.7" cy="-738" rx="2.7" ry="2.7"/>
</g>
<!-- 1739121275472&#45;&#45;1739121278256 -->
<g id="edge1" class="edge"><title>1739121275472&#45;&#45;1739121278256</title>
<path fill="none" stroke="black" d="M347.808,-793.116C335.638,-775.367 316.98,-748.158 311.973,-740.857"/>
</g>
<!-- 1739121277008 -->
<g id="node4" class="node"><title>1739121277008</title>
<ellipse fill="none" stroke="black" cx="358.7" cy="-738" rx="27" ry="18"/>
<text text-anchor="middle" x="358.7" y="-734.5" font-family="Times New Roman,serif" font-size="15.00">and</text>
</g>
<!-- 1739121275472&#45;&#45;1739121277008 -->
<g id="edge11" class="edge"><title>1739121275472&#45;&#45;1739121277008</title>
<path fill="none" stroke="black" d="M358.7,-791.697C358.7,-780.846 358.7,-766.917 358.7,-756.104"/>
</g>
<!-- 1739121454240 -->
<g id="node5" class="node"><title>1739121454240</title>
<ellipse fill="none" stroke="black" cx="143.7" cy="-666" rx="27" ry="18"/>
<text text-anchor="middle" x="143.7" y="-662.5" font-family="Times New Roman,serif" font-size="15.00">xor</text>
</g>
<!-- 1739121277008&#45;&#45;1739121454240 -->
<g id="edge4" class="edge"><title>1739121277008&#45;&#45;1739121454240</title>
<path fill="none" stroke="black" d="M334.87,-729.241C293.542,-715.786 209.039,-688.273 167.637,-674.793"/>
</g>
<!-- 1739121454432 -->
<g id="node8" class="node"><title>1739121454432</title>
<ellipse fill="none" stroke="black" cx="338.7" cy="-666" rx="46.6143" ry="18"/>
<text text-anchor="middle" x="338.7" y="-662.5" font-family="Times New Roman,serif" font-size="15.00">xor loop</text>
</g>
<!-- 1739121277008&#45;&#45;1739121454432 -->
<g id="edge7" class="edge"><title>1739121277008&#45;&#45;1739121454432</title>
<path fill="none" stroke="black" d="M353.859,-720.055C350.76,-709.211 346.752,-695.183 343.636,-684.275"/>
</g>
<!-- 1739121453760 -->
<g id="node11" class="node"><title>1739121453760</title>
<ellipse fill="none" stroke="black" cx="430.7" cy="-666" rx="27" ry="18"/>
<text text-anchor="middle" x="430.7" y="-662.5" font-family="Times New Roman,serif" font-size="15.00">xor</text>
</g>
<!-- 1739121277008&#45;&#45;1739121453760 -->
<g id="edge10" class="edge"><title>1739121277008&#45;&#45;1739121453760</title>
<path fill="none" stroke="black" d="M373.27,-722.834C385.68,-710.77 403.431,-693.512 415.904,-681.385"/>
</g>
<!-- 1739121455008 -->
<g id="node6" class="node"><title>1739121455008</title>
<ellipse fill="black" stroke="black" cx="2.7" cy="-594" rx="2.7" ry="2.7"/>
</g>
<!-- 1739121454240&#45;&#45;1739121455008 -->
<g id="edge2" class="edge"><title>1739121454240&#45;&#45;1739121455008</title>
<path fill="none" stroke="black" d="M122.591,-654.52C86.9442,-636.823 17.4421,-602.319 4.72371,-596.005"/>
</g>
<!-- 1739121454912 -->
<g id="node7" class="node"><title>1739121454912</title>
<ellipse fill="none" stroke="black" cx="143.7" cy="-594" rx="120.43" ry="18"/>
<text text-anchor="middle" x="143.7" y="-590.5" font-family="Times New Roman,serif" font-size="15.00">Send Appeal to Prefecture</text>
</g>
<!-- 1739121454240&#45;&#45;1739121454912 -->
<g id="edge3" class="edge"><title>1739121454240&#45;&#45;1739121454912</title>
<path fill="none" stroke="black" d="M143.7,-647.697C143.7,-636.846 143.7,-622.917 143.7,-612.104"/>
</g>
<!-- 1739121454720 -->
<g id="node9" class="node"><title>1739121454720</title>
<ellipse fill="black" stroke="black" cx="284.7" cy="-594" rx="2.7" ry="2.7"/>
</g>
<!-- 1739121454432&#45;&#45;1739121454720 -->
<g id="edge5" class="edge"><title>1739121454432&#45;&#45;1739121454720</title>
<path fill="none" stroke="black" d="M325.903,-648.411C312.18,-630.622 291.614,-603.962 286.101,-596.816"/>
</g>
<!-- 1739121291904 -->
<g id="node10" class="node"><title>1739121291904</title>
<ellipse fill="none" stroke="black" cx="351.7" cy="-594" rx="45.7249" ry="18"/>
<text text-anchor="middle" x="351.7" y="-590.5" font-family="Times New Roman,serif" font-size="15.00">Payment</text>
</g>
<!-- 1739121454432&#45;&#45;1739121291904 -->
<g id="edge6" class="edge"><title>1739121454432&#45;&#45;1739121291904</title>
<path fill="none" stroke="black" d="M341.913,-647.697C343.929,-636.846 346.515,-622.917 348.523,-612.104"/>
</g>
<!-- 1739121454624 -->
<g id="node12" class="node"><title>1739121454624</title>
<ellipse fill="black" stroke="black" cx="418.7" cy="-594" rx="2.7" ry="2.7"/>
</g>
<!-- 1739121453760&#45;&#45;1739121454624 -->
<g id="edge8" class="edge"><title>1739121453760&#45;&#45;1739121454624</title>
<path fill="none" stroke="black" d="M427.795,-648.055C424.743,-630.252 420.22,-603.865 419.008,-596.796"/>
</g>
<!-- 1739121452992 -->
<g id="node13" class="node"><title>1739121452992</title>
<ellipse fill="none" stroke="black" cx="501.7" cy="-594" rx="61.6894" ry="18"/>
<text text-anchor="middle" x="501.7" y="-590.5" font-family="Times New Roman,serif" font-size="15.00">Add penalty</text>
</g>
<!-- 1739121453760&#45;&#45;1739121452992 -->
<g id="edge9" class="edge"><title>1739121453760&#45;&#45;1739121452992</title>
<path fill="none" stroke="black" d="M445.411,-650.496C456.947,-639.123 473.004,-623.292 485.017,-611.448"/>
</g>
<!-- 1739121277872 -->
<g id="node15" class="node"><title>1739121277872</title>
<ellipse fill="none" stroke="black" cx="484.7" cy="-738" rx="59.5207" ry="18"/>
<text text-anchor="middle" x="484.7" y="-734.5" font-family="Times New Roman,serif" font-size="15.00">Create Fine</text>
</g>
<!-- 1739121278352&#45;&#45;1739121277872 -->
<g id="edge13" class="edge"><title>1739121278352&#45;&#45;1739121277872</title>
<path fill="none" stroke="black" d="M533.551,-794.155C523.599,-782.918 509.922,-767.476 499.57,-755.789"/>
</g>
<!-- 1739121275280 -->
<g id="node16" class="node"><title>1739121275280</title>
<ellipse fill="none" stroke="black" cx="608.7" cy="-738" rx="46.6143" ry="18"/>
<text text-anchor="middle" x="608.7" y="-734.5" font-family="Times New Roman,serif" font-size="15.00">xor loop</text>
</g>
<!-- 1739121278352&#45;&#45;1739121275280 -->
<g id="edge51" class="edge"><title>1739121278352&#45;&#45;1739121275280</title>
<path fill="none" stroke="black" d="M559.849,-794.155C569.944,-782.757 583.87,-767.034 594.271,-755.29"/>
</g>
<!-- 1739121277920 -->
<g id="node54" class="node"><title>1739121277920</title>
<ellipse fill="none" stroke="black" cx="700.7" cy="-738" rx="27" ry="18"/>
<text text-anchor="middle" x="700.7" y="-734.5" font-family="Times New Roman,serif" font-size="15.00">xor</text>
</g>
<!-- 1739121278352&#45;&#45;1739121277920 -->
<g id="edge54" class="edge"><title>1739121278352&#45;&#45;1739121277920</title>
<path fill="none" stroke="black" d="M568.438,-799.119C597.788,-785.778 649.779,-762.146 679.073,-748.831"/>
</g>
<!-- 1739121275808 -->
<g id="node17" class="node"><title>1739121275808</title>
<ellipse fill="none" stroke="black" cx="608.7" cy="-666" rx="27" ry="18"/>
<text text-anchor="middle" x="608.7" y="-662.5" font-family="Times New Roman,serif" font-size="15.00">seq</text>
</g>
<!-- 1739121275280&#45;&#45;1739121275808 -->
<g id="edge49" class="edge"><title>1739121275280&#45;&#45;1739121275808</title>
<path fill="none" stroke="black" d="M608.7,-719.697C608.7,-708.846 608.7,-694.917 608.7,-684.104"/>
</g>
<!-- 1739121275088 -->
<g id="node53" class="node"><title>1739121275088</title>
<ellipse fill="black" stroke="black" cx="656.7" cy="-666" rx="2.7" ry="2.7"/>
</g>
<!-- 1739121275280&#45;&#45;1739121275088 -->
<g id="edge50" class="edge"><title>1739121275280&#45;&#45;1739121275088</title>
<path fill="none" stroke="black" d="M620.075,-720.411C632.274,-702.622 650.554,-675.962 655.455,-668.816"/>
</g>
<!-- 1739121276384 -->
<g id="node18" class="node"><title>1739121276384</title>
<ellipse fill="none" stroke="black" cx="608.7" cy="-594" rx="27" ry="18"/>
<text text-anchor="middle" x="608.7" y="-590.5" font-family="Times New Roman,serif" font-size="15.00">xor</text>
</g>
<!-- 1739121275808&#45;&#45;1739121276384 -->
<g id="edge16" class="edge"><title>1739121275808&#45;&#45;1739121276384</title>
<path fill="none" stroke="black" d="M608.7,-647.697C608.7,-636.846 608.7,-622.917 608.7,-612.104"/>
</g>
<!-- 1739121276576 -->
<g id="node21" class="node"><title>1739121276576</title>
<ellipse fill="none" stroke="black" cx="682.7" cy="-594" rx="27" ry="18"/>
<text text-anchor="middle" x="682.7" y="-590.5" font-family="Times New Roman,serif" font-size="15.00">xor</text>
</g>
<!-- 1739121275808&#45;&#45;1739121276576 -->
<g id="edge48" class="edge"><title>1739121275808&#45;&#45;1739121276576</title>
<path fill="none" stroke="black" d="M623.675,-650.834C636.514,-638.69 654.915,-621.283 667.747,-609.144"/>
</g>
<!-- 1739121276672 -->
<g id="node19" class="node"><title>1739121276672</title>
<ellipse fill="black" stroke="black" cx="534.7" cy="-522" rx="2.7" ry="2.7"/>
</g>
<!-- 1739121276384&#45;&#45;1739121276672 -->
<g id="edge14" class="edge"><title>1739121276384&#45;&#45;1739121276672</title>
<path fill="none" stroke="black" d="M593.725,-578.834C574.805,-560.937 543.804,-531.612 536.349,-524.56"/>
</g>
<!-- 1739121276432 -->
<g id="node20" class="node"><title>1739121276432</title>
<ellipse fill="none" stroke="black" cx="608.7" cy="-522" rx="52.6228" ry="18"/>
<text text-anchor="middle" x="608.7" y="-518.5" font-family="Times New Roman,serif" font-size="15.00">Send Fine</text>
</g>
<!-- 1739121276384&#45;&#45;1739121276432 -->
<g id="edge15" class="edge"><title>1739121276384&#45;&#45;1739121276432</title>
<path fill="none" stroke="black" d="M608.7,-575.697C608.7,-564.846 608.7,-550.917 608.7,-540.104"/>
</g>
<!-- 1739121277440 -->
<g id="node22" class="node"><title>1739121277440</title>
<ellipse fill="black" stroke="black" cx="682.7" cy="-522" rx="2.7" ry="2.7"/>
</g>
<!-- 1739121276576&#45;&#45;1739121277440 -->
<g id="edge17" class="edge"><title>1739121276576&#45;&#45;1739121277440</title>
<path fill="none" stroke="black" d="M682.7,-575.697C682.7,-557.883 682.7,-531.769 682.7,-524.776"/>
</g>
<!-- 1739121277152 -->
<g id="node23" class="node"><title>1739121277152</title>
<ellipse fill="none" stroke="black" cx="749.7" cy="-522" rx="46.6143" ry="18"/>
<text text-anchor="middle" x="749.7" y="-518.5" font-family="Times New Roman,serif" font-size="15.00">xor loop</text>
</g>
<!-- 1739121276576&#45;&#45;1739121277152 -->
<g id="edge47" class="edge"><title>1739121276576&#45;&#45;1739121277152</title>
<path fill="none" stroke="black" d="M696.582,-578.496C707.545,-567.043 722.834,-551.069 734.196,-539.198"/>
</g>
<!-- 1739121278112 -->
<g id="node24" class="node"><title>1739121278112</title>
<ellipse fill="none" stroke="black" cx="725.7" cy="-450" rx="27" ry="18"/>
<text text-anchor="middle" x="725.7" y="-446.5" font-family="Times New Roman,serif" font-size="15.00">seq</text>
</g>
<!-- 1739121277152&#45;&#45;1739121278112 -->
<g id="edge45" class="edge"><title>1739121277152&#45;&#45;1739121278112</title>
<path fill="none" stroke="black" d="M743.89,-504.055C740.117,-493.049 735.219,-478.764 731.456,-467.789"/>
</g>
<!-- 1739121278880 -->
<g id="node52" class="node"><title>1739121278880</title>
<ellipse fill="black" stroke="black" cx="773.7" cy="-450" rx="2.7" ry="2.7"/>
</g>
<!-- 1739121277152&#45;&#45;1739121278880 -->
<g id="edge46" class="edge"><title>1739121277152&#45;&#45;1739121278880</title>
<path fill="none" stroke="black" d="M755.51,-504.055C761.614,-486.252 770.66,-459.865 773.084,-452.796"/>
</g>
<!-- 1739121274992 -->
<g id="node25" class="node"><title>1739121274992</title>
<ellipse fill="none" stroke="black" cx="587.7" cy="-378" rx="27" ry="18"/>
<text text-anchor="middle" x="587.7" y="-374.5" font-family="Times New Roman,serif" font-size="15.00">xor</text>
</g>
<!-- 1739121278112&#45;&#45;1739121274992 -->
<g id="edge26" class="edge"><title>1739121278112&#45;&#45;1739121274992</title>
<path fill="none" stroke="black" d="M704.741,-438.369C678.803,-425.212 634.885,-402.934 608.856,-389.732"/>
</g>
<!-- 1739121276912 -->
<g id="node34" class="node"><title>1739121276912</title>
<ellipse fill="none" stroke="black" cx="725.7" cy="-378" rx="27" ry="18"/>
<text text-anchor="middle" x="725.7" y="-374.5" font-family="Times New Roman,serif" font-size="15.00">xor</text>
</g>
<!-- 1739121278112&#45;&#45;1739121276912 -->
<g id="edge29" class="edge"><title>1739121278112&#45;&#45;1739121276912</title>
<path fill="none" stroke="black" d="M725.7,-431.697C725.7,-420.846 725.7,-406.917 725.7,-396.104"/>
</g>
<!-- 1739121276096 -->
<g id="node37" class="node"><title>1739121276096</title>
<ellipse fill="none" stroke="black" cx="877.7" cy="-378" rx="27" ry="18"/>
<text text-anchor="middle" x="877.7" y="-374.5" font-family="Times New Roman,serif" font-size="15.00">xor</text>
</g>
<!-- 1739121278112&#45;&#45;1739121276096 -->
<g id="edge44" class="edge"><title>1739121278112&#45;&#45;1739121276096</title>
<path fill="none" stroke="black" d="M747.478,-438.971C776.373,-425.664 827.088,-402.308 855.963,-389.011"/>
</g>
<!-- 1739121278832 -->
<g id="node26" class="node"><title>1739121278832</title>
<ellipse fill="black" stroke="black" cx="539.7" cy="-306" rx="2.7" ry="2.7"/>
</g>
<!-- 1739121274992&#45;&#45;1739121278832 -->
<g id="edge18" class="edge"><title>1739121274992&#45;&#45;1739121278832</title>
<path fill="none" stroke="black" d="M576.808,-361.116C564.638,-343.367 545.98,-316.158 540.973,-308.857"/>
</g>
<!-- 1739121276624 -->
<g id="node27" class="node"><title>1739121276624</title>
<ellipse fill="none" stroke="black" cx="587.7" cy="-306" rx="27" ry="18"/>
<text text-anchor="middle" x="587.7" y="-302.5" font-family="Times New Roman,serif" font-size="15.00">and</text>
</g>
<!-- 1739121274992&#45;&#45;1739121276624 -->
<g id="edge25" class="edge"><title>1739121274992&#45;&#45;1739121276624</title>
<path fill="none" stroke="black" d="M587.7,-359.697C587.7,-348.846 587.7,-334.917 587.7,-324.104"/>
</g>
<!-- 1739121278208 -->
<g id="node28" class="node"><title>1739121278208</title>
<ellipse fill="none" stroke="black" cx="381.7" cy="-234" rx="27" ry="18"/>
<text text-anchor="middle" x="381.7" y="-230.5" font-family="Times New Roman,serif" font-size="15.00">xor</text>
</g>
<!-- 1739121276624&#45;&#45;1739121278208 -->
<g id="edge21" class="edge"><title>1739121276624&#45;&#45;1739121278208</title>
<path fill="none" stroke="black" d="M564.069,-296.97C524.438,-283.503 445.03,-256.52 405.372,-243.044"/>
</g>
<!-- 1739121275376 -->
<g id="node31" class="node"><title>1739121275376</title>
<ellipse fill="none" stroke="black" cx="587.7" cy="-234" rx="27" ry="18"/>
<text text-anchor="middle" x="587.7" y="-230.5" font-family="Times New Roman,serif" font-size="15.00">xor</text>
</g>
<!-- 1739121276624&#45;&#45;1739121275376 -->
<g id="edge24" class="edge"><title>1739121276624&#45;&#45;1739121275376</title>
<path fill="none" stroke="black" d="M587.7,-287.697C587.7,-276.846 587.7,-262.917 587.7,-252.104"/>
</g>
<!-- 1739121275760 -->
<g id="node29" class="node"><title>1739121275760</title>
<ellipse fill="black" stroke="black" cx="253.7" cy="-162" rx="2.7" ry="2.7"/>
</g>
<!-- 1739121278208&#45;&#45;1739121275760 -->
<g id="edge19" class="edge"><title>1739121278208&#45;&#45;1739121275760</title>
<path fill="none" stroke="black" d="M361.418,-221.908C328.991,-204.175 267.882,-170.756 255.804,-164.151"/>
</g>
<!-- 1739121276144 -->
<g id="node30" class="node"><title>1739121276144</title>
<ellipse fill="none" stroke="black" cx="381.7" cy="-162" rx="107.914" ry="18"/>
<text text-anchor="middle" x="381.7" y="-158.5" font-family="Times New Roman,serif" font-size="15.00">Insert Fine Notification</text>
</g>
<!-- 1739121278208&#45;&#45;1739121276144 -->
<g id="edge20" class="edge"><title>1739121278208&#45;&#45;1739121276144</title>
<path fill="none" stroke="black" d="M381.7,-215.697C381.7,-204.846 381.7,-190.917 381.7,-180.104"/>
</g>
<!-- 1739121277296 -->
<g id="node32" class="node"><title>1739121277296</title>
<ellipse fill="black" stroke="black" cx="509.7" cy="-162" rx="2.7" ry="2.7"/>
</g>
<!-- 1739121275376&#45;&#45;1739121277296 -->
<g id="edge22" class="edge"><title>1739121275376&#45;&#45;1739121277296</title>
<path fill="none" stroke="black" d="M572.29,-219.17C552.4,-201.32 519.397,-171.702 511.457,-164.577"/>
</g>
<!-- 1739121278544 -->
<g id="node33" class="node"><title>1739121278544</title>
<ellipse fill="none" stroke="black" cx="674.7" cy="-162" rx="144.571" ry="18"/>
<text text-anchor="middle" x="674.7" y="-158.5" font-family="Times New Roman,serif" font-size="15.00">Insert Date Appeal to Prefecture</text>
</g>
<!-- 1739121275376&#45;&#45;1739121278544 -->
<g id="edge23" class="edge"><title>1739121275376&#45;&#45;1739121278544</title>
<path fill="none" stroke="black" d="M604.474,-219.503C618.498,-208.22 638.571,-192.07 653.667,-179.923"/>
</g>
<!-- 1739121275568 -->
<g id="node35" class="node"><title>1739121275568</title>
<ellipse fill="black" stroke="black" cx="694.7" cy="-306" rx="2.7" ry="2.7"/>
</g>
<!-- 1739121276912&#45;&#45;1739121275568 -->
<g id="edge27" class="edge"><title>1739121276912&#45;&#45;1739121275568</title>
<path fill="none" stroke="black" d="M718.353,-360.411C710.475,-342.622 698.669,-315.962 695.504,-308.816"/>
</g>
<!-- 1739121276000 -->
<g id="node36" class="node"><title>1739121276000</title>
<ellipse fill="none" stroke="black" cx="761.7" cy="-306" rx="45.7249" ry="18"/>
<text text-anchor="middle" x="761.7" y="-302.5" font-family="Times New Roman,serif" font-size="15.00">Payment</text>
</g>
<!-- 1739121276912&#45;&#45;1739121276000 -->
<g id="edge28" class="edge"><title>1739121276912&#45;&#45;1739121276000</title>
<path fill="none" stroke="black" d="M734.05,-360.765C739.699,-349.779 747.15,-335.292 752.893,-324.124"/>
</g>
<!-- 1739121278448 -->
<g id="node38" class="node"><title>1739121278448</title>
<ellipse fill="black" stroke="black" cx="877.7" cy="-306" rx="2.7" ry="2.7"/>
</g>
<!-- 1739121276096&#45;&#45;1739121278448 -->
<g id="edge30" class="edge"><title>1739121276096&#45;&#45;1739121278448</title>
<path fill="none" stroke="black" d="M877.7,-359.697C877.7,-341.883 877.7,-315.769 877.7,-308.776"/>
</g>
<!-- 1739121276528 -->
<g id="node39" class="node"><title>1739121276528</title>
<ellipse fill="none" stroke="black" cx="1023.7" cy="-306" rx="46.6143" ry="18"/>
<text text-anchor="middle" x="1023.7" y="-302.5" font-family="Times New Roman,serif" font-size="15.00">xor loop</text>
</g>
<!-- 1739121276096&#45;&#45;1739121276528 -->
<g id="edge43" class="edge"><title>1739121276096&#45;&#45;1739121276528</title>
<path fill="none" stroke="black" d="M898.93,-366.821C924.475,-354.574 967.446,-333.971 995.689,-320.43"/>
</g>
<!-- 1739121451360 -->
<g id="node40" class="node"><title>1739121451360</title>
<ellipse fill="none" stroke="black" cx="1023.7" cy="-234" rx="27" ry="18"/>
<text text-anchor="middle" x="1023.7" y="-230.5" font-family="Times New Roman,serif" font-size="15.00">xor</text>
</g>
<!-- 1739121276528&#45;&#45;1739121451360 -->
<g id="edge41" class="edge"><title>1739121276528&#45;&#45;1739121451360</title>
<path fill="none" stroke="black" d="M1023.7,-287.697C1023.7,-276.846 1023.7,-262.917 1023.7,-252.104"/>
</g>
<!-- 1739121452032 -->
<g id="node51" class="node"><title>1739121452032</title>
<ellipse fill="black" stroke="black" cx="1071.7" cy="-234" rx="2.7" ry="2.7"/>
</g>
<!-- 1739121276528&#45;&#45;1739121452032 -->
<g id="edge42" class="edge"><title>1739121276528&#45;&#45;1739121452032</title>
<path fill="none" stroke="black" d="M1035.08,-288.411C1047.27,-270.622 1065.55,-243.962 1070.45,-236.816"/>
</g>
<!-- 1739121451936 -->
<g id="node41" class="node"><title>1739121451936</title>
<ellipse fill="none" stroke="black" cx="915.7" cy="-162" rx="78.5434" ry="18"/>
<text text-anchor="middle" x="915.7" y="-158.5" font-family="Times New Roman,serif" font-size="15.00">Appeal to Judge</text>
</g>
<!-- 1739121451360&#45;&#45;1739121451936 -->
<g id="edge31" class="edge"><title>1739121451360&#45;&#45;1739121451936</title>
<path fill="none" stroke="black" d="M1004.89,-220.807C987.12,-209.291 960.35,-191.94 940.774,-179.252"/>
</g>
<!-- 1739121453184 -->
<g id="node42" class="node"><title>1739121453184</title>
<ellipse fill="none" stroke="black" cx="1132.7" cy="-162" rx="120.43" ry="18"/>
<text text-anchor="middle" x="1132.7" y="-158.5" font-family="Times New Roman,serif" font-size="15.00">Send Appeal to Prefecture</text>
</g>
<!-- 1739121451360&#45;&#45;1739121453184 -->
<g id="edge32" class="edge"><title>1739121451360&#45;&#45;1739121453184</title>
<path fill="none" stroke="black" d="M1042.69,-220.807C1060.37,-209.447 1086.9,-192.411 1106.58,-179.772"/>
</g>
<!-- 1739121453568 -->
<g id="node43" class="node"><title>1739121453568</title>
<ellipse fill="none" stroke="black" cx="1297.7" cy="-162" rx="27" ry="18"/>
<text text-anchor="middle" x="1297.7" y="-158.5" font-family="Times New Roman,serif" font-size="15.00">seq</text>
</g>
<!-- 1739121451360&#45;&#45;1739121453568 -->
<g id="edge40" class="edge"><title>1739121451360&#45;&#45;1739121453568</title>
<path fill="none" stroke="black" d="M1048.5,-226.665C1100.53,-213.371 1220.6,-182.697 1272.76,-169.372"/>
</g>
<!-- 1739121453616 -->
<g id="node44" class="node"><title>1739121453616</title>
<ellipse fill="none" stroke="black" cx="1078.7" cy="-90" rx="173.941" ry="18"/>
<text text-anchor="middle" x="1078.7" y="-86.5" font-family="Times New Roman,serif" font-size="15.00">Receive Result Appeal from Prefecture</text>
</g>
<!-- 1739121453568&#45;&#45;1739121453616 -->
<g id="edge33" class="edge"><title>1739121453568&#45;&#45;1739121453616</title>
<path fill="none" stroke="black" d="M1273.85,-153.376C1239.48,-142.391 1175.19,-121.842 1129.81,-107.337"/>
</g>
<!-- 1739121454528 -->
<g id="node45" class="node"><title>1739121454528</title>
<ellipse fill="none" stroke="black" cx="1297.7" cy="-90" rx="27" ry="18"/>
<text text-anchor="middle" x="1297.7" y="-86.5" font-family="Times New Roman,serif" font-size="15.00">xor</text>
</g>
<!-- 1739121453568&#45;&#45;1739121454528 -->
<g id="edge36" class="edge"><title>1739121453568&#45;&#45;1739121454528</title>
<path fill="none" stroke="black" d="M1297.7,-143.697C1297.7,-132.846 1297.7,-118.917 1297.7,-108.104"/>
</g>
<!-- 1739121454768 -->
<g id="node48" class="node"><title>1739121454768</title>
<ellipse fill="none" stroke="black" cx="1396.7" cy="-90" rx="27" ry="18"/>
<text text-anchor="middle" x="1396.7" y="-86.5" font-family="Times New Roman,serif" font-size="15.00">xor</text>
</g>
<!-- 1739121453568&#45;&#45;1739121454768 -->
<g id="edge39" class="edge"><title>1739121453568&#45;&#45;1739121454768</title>
<path fill="none" stroke="black" d="M1315.86,-148.161C1333.72,-135.531 1360.83,-116.36 1378.66,-103.758"/>
</g>
<!-- 1739121451648 -->
<g id="node46" class="node"><title>1739121451648</title>
<ellipse fill="black" stroke="black" cx="1198.7" cy="-18" rx="2.7" ry="2.7"/>
</g>
<!-- 1739121454528&#45;&#45;1739121451648 -->
<g id="edge34" class="edge"><title>1739121454528&#45;&#45;1739121451648</title>
<path fill="none" stroke="black" d="M1279.54,-76.1609C1254.09,-58.1628 1209.85,-26.8831 1200.48,-20.2559"/>
</g>
<!-- 1739121452800 -->
<g id="node47" class="node"><title>1739121452800</title>
<ellipse fill="none" stroke="black" cx="1297.7" cy="-18" rx="78.5434" ry="18"/>
<text text-anchor="middle" x="1297.7" y="-14.5" font-family="Times New Roman,serif" font-size="15.00">Appeal to Judge</text>
</g>
<!-- 1739121454528&#45;&#45;1739121452800 -->
<g id="edge35" class="edge"><title>1739121454528&#45;&#45;1739121452800</title>
<path fill="none" stroke="black" d="M1297.7,-71.6966C1297.7,-60.8463 1297.7,-46.9167 1297.7,-36.1043"/>
</g>
<!-- 1739121453664 -->
<g id="node49" class="node"><title>1739121453664</title>
<ellipse fill="black" stroke="black" cx="1396.7" cy="-18" rx="2.7" ry="2.7"/>
</g>
<!-- 1739121454768&#45;&#45;1739121453664 -->
<g id="edge37" class="edge"><title>1739121454768&#45;&#45;1739121453664</title>
<path fill="none" stroke="black" d="M1396.7,-71.6966C1396.7,-53.8826 1396.7,-27.7686 1396.7,-20.7764"/>
</g>
<!-- 1739121451168 -->
<g id="node50" class="node"><title>1739121451168</title>
<ellipse fill="none" stroke="black" cx="1565.7" cy="-18" rx="148.91" ry="18"/>
<text text-anchor="middle" x="1565.7" y="-14.5" font-family="Times New Roman,serif" font-size="15.00">Notify Result Appeal to Offender</text>
</g>
<!-- 1739121454768&#45;&#45;1739121451168 -->
<g id="edge38" class="edge"><title>1739121454768&#45;&#45;1739121451168</title>
<path fill="none" stroke="black" d="M1419.14,-79.7045C1446.35,-68.4359 1492.68,-49.2446 1525.97,-35.4544"/>
</g>
<!-- 1739121276960 -->
<g id="node55" class="node"><title>1739121276960</title>
<ellipse fill="black" stroke="black" cx="690.7" cy="-666" rx="2.7" ry="2.7"/>
</g>
<!-- 1739121277920&#45;&#45;1739121276960 -->
<g id="edge52" class="edge"><title>1739121277920&#45;&#45;1739121276960</title>
<path fill="none" stroke="black" d="M698.279,-720.055C695.736,-702.252 691.966,-675.865 690.957,-668.796"/>
</g>
<!-- 1739121277968 -->
<g id="node56" class="node"><title>1739121277968</title>
<ellipse fill="none" stroke="black" cx="832.7" cy="-666" rx="120.819" ry="18"/>
<text text-anchor="middle" x="832.7" y="-662.5" font-family="Times New Roman,serif" font-size="15.00">Send for Credit Collection</text>
</g>
<!-- 1739121277920&#45;&#45;1739121277968 -->
<g id="edge53" class="edge"><title>1739121277920&#45;&#45;1739121277968</title>
<path fill="none" stroke="black" d="M721.325,-726.063C742.788,-714.681 776.659,-696.719 801.418,-683.589"/>
</g>
</g>
</svg>
