<?xml version="1.0" encoding="UTF-8" standalone="no"?>
<!DOCTYPE svg PUBLIC "-//W3C//DTD SVG 1.1//EN"
 "http://www.w3.org/Graphics/SVG/1.1/DTD/svg11.dtd">
<!-- Generated by graphviz version 2.38.0 (20140413.2041)
 -->
<!-- Title: pt Pages: 1 -->
<svg width="1240pt" height="836pt"
 viewBox="0.00 0.00 1240.42 836.00" xmlns="http://www.w3.org/2000/svg" xmlns:xlink="http://www.w3.org/1999/xlink">
<g id="graph0" class="graph" transform="scale(1 1) rotate(0) translate(4 832)">
<title>pt</title>
<!-- 1739130153712 -->
<g id="node1" class="node"><title>1739130153712</title>
<ellipse fill="none" stroke="black" cx="507.7" cy="-810" rx="27" ry="18"/>
<text text-anchor="middle" x="507.7" y="-806.5" font-family="Times New Roman,serif" font-size="15.00">seq</text>
</g>
<!-- 1739122474144 -->
<g id="node2" class="node"><title>1739122474144</title>
<ellipse fill="none" stroke="black" cx="402.7" cy="-738" rx="59.5207" ry="18"/>
<text text-anchor="middle" x="402.7" y="-734.5" font-family="Times New Roman,serif" font-size="15.00">Create Fine</text>
</g>
<!-- 1739130153712&#45;&#45;1739122474144 -->
<g id="edge1" class="edge"><title>1739130153712&#45;&#45;1739122474144</title>
<path fill="none" stroke="black" d="M488.928,-796.485C471.35,-784.767 445.023,-767.215 426.086,-754.591"/>
</g>
<!-- 1739122472656 -->
<g id="node3" class="node"><title>1739122472656</title>
<ellipse fill="none" stroke="black" cx="507.7" cy="-738" rx="27" ry="18"/>
<text text-anchor="middle" x="507.7" y="-734.5" font-family="Times New Roman,serif" font-size="15.00">and</text>
</g>
<!-- 1739130153712&#45;&#45;1739122472656 -->
<g id="edge38" class="edge"><title>1739130153712&#45;&#45;1739122472656</title>
<path fill="none" stroke="black" d="M507.7,-791.697C507.7,-780.846 507.7,-766.917 507.7,-756.104"/>
</g>
<!-- 1739122474000 -->
<g id="node40" class="node"><title>1739122474000</title>
<ellipse fill="none" stroke="black" cx="579.7" cy="-738" rx="27" ry="18"/>
<text text-anchor="middle" x="579.7" y="-734.5" font-family="Times New Roman,serif" font-size="15.00">xor</text>
</g>
<!-- 1739130153712&#45;&#45;1739122474000 -->
<g id="edge41" class="edge"><title>1739130153712&#45;&#45;1739122474000</title>
<path fill="none" stroke="black" d="M522.27,-794.834C534.68,-782.77 552.431,-765.512 564.904,-753.385"/>
</g>
<!-- 1739122473280 -->
<g id="node4" class="node"><title>1739122473280</title>
<ellipse fill="none" stroke="black" cx="384.7" cy="-666" rx="27" ry="18"/>
<text text-anchor="middle" x="384.7" y="-662.5" font-family="Times New Roman,serif" font-size="15.00">and</text>
</g>
<!-- 1739122472656&#45;&#45;1739122473280 -->
<g id="edge11" class="edge"><title>1739122472656&#45;&#45;1739122473280</title>
<path fill="none" stroke="black" d="M487.664,-725.597C464.792,-712.581 427.596,-691.413 404.727,-678.398"/>
</g>
<!-- 1739122474288 -->
<g id="node14" class="node"><title>1739122474288</title>
<ellipse fill="none" stroke="black" cx="513.7" cy="-666" rx="27" ry="18"/>
<text text-anchor="middle" x="513.7" y="-662.5" font-family="Times New Roman,serif" font-size="15.00">xor</text>
</g>
<!-- 1739122472656&#45;&#45;1739122474288 -->
<g id="edge37" class="edge"><title>1739122472656&#45;&#45;1739122474288</title>
<path fill="none" stroke="black" d="M509.183,-719.697C510.113,-708.846 511.307,-694.917 512.234,-684.104"/>
</g>
<!-- 1739103264528 -->
<g id="node5" class="node"><title>1739103264528</title>
<ellipse fill="none" stroke="black" cx="143.7" cy="-594" rx="27" ry="18"/>
<text text-anchor="middle" x="143.7" y="-590.5" font-family="Times New Roman,serif" font-size="15.00">xor</text>
</g>
<!-- 1739122473280&#45;&#45;1739103264528 -->
<g id="edge4" class="edge"><title>1739122473280&#45;&#45;1739103264528</title>
<path fill="none" stroke="black" d="M360.265,-657.903C314.074,-644.486 214.44,-615.547 168.199,-602.116"/>
</g>
<!-- 1739103263712 -->
<g id="node8" class="node"><title>1739103263712</title>
<ellipse fill="none" stroke="black" cx="338.7" cy="-594" rx="46.6143" ry="18"/>
<text text-anchor="middle" x="338.7" y="-590.5" font-family="Times New Roman,serif" font-size="15.00">xor loop</text>
</g>
<!-- 1739122473280&#45;&#45;1739103263712 -->
<g id="edge7" class="edge"><title>1739122473280&#45;&#45;1739103263712</title>
<path fill="none" stroke="black" d="M374.262,-649.116C366.946,-637.983 357.183,-623.127 349.738,-611.797"/>
</g>
<!-- 1739103263136 -->
<g id="node11" class="node"><title>1739103263136</title>
<ellipse fill="none" stroke="black" cx="430.7" cy="-594" rx="27" ry="18"/>
<text text-anchor="middle" x="430.7" y="-590.5" font-family="Times New Roman,serif" font-size="15.00">xor</text>
</g>
<!-- 1739122473280&#45;&#45;1739103263136 -->
<g id="edge10" class="edge"><title>1739122473280&#45;&#45;1739103263136</title>
<path fill="none" stroke="black" d="M395.138,-649.116C402.666,-637.66 412.785,-622.263 420.303,-610.821"/>
</g>
<!-- 1739103263328 -->
<g id="node6" class="node"><title>1739103263328</title>
<ellipse fill="black" stroke="black" cx="2.7" cy="-522" rx="2.7" ry="2.7"/>
</g>
<!-- 1739103264528&#45;&#45;1739103263328 -->
<g id="edge2" class="edge"><title>1739103264528&#45;&#45;1739103263328</title>
<path fill="none" stroke="black" d="M122.591,-582.52C86.9442,-564.823 17.4421,-530.319 4.72371,-524.005"/>
</g>
<!-- 1739103261360 -->
<g id="node7" class="node"><title>1739103261360</title>
<ellipse fill="none" stroke="black" cx="143.7" cy="-522" rx="120.43" ry="18"/>
<text text-anchor="middle" x="143.7" y="-518.5" font-family="Times New Roman,serif" font-size="15.00">Send Appeal to Prefecture</text>
</g>
<!-- 1739103264528&#45;&#45;1739103261360 -->
<g id="edge3" class="edge"><title>1739103264528&#45;&#45;1739103261360</title>
<path fill="none" stroke="black" d="M143.7,-575.697C143.7,-564.846 143.7,-550.917 143.7,-540.104"/>
</g>
<!-- 1739103261312 -->
<g id="node9" class="node"><title>1739103261312</title>
<ellipse fill="black" stroke="black" cx="284.7" cy="-522" rx="2.7" ry="2.7"/>
</g>
<!-- 1739103263712&#45;&#45;1739103261312 -->
<g id="edge5" class="edge"><title>1739103263712&#45;&#45;1739103261312</title>
<path fill="none" stroke="black" d="M325.903,-576.411C312.18,-558.622 291.614,-531.962 286.101,-524.816"/>
</g>
<!-- 1739103264096 -->
<g id="node10" class="node"><title>1739103264096</title>
<ellipse fill="none" stroke="black" cx="351.7" cy="-522" rx="45.7249" ry="18"/>
<text text-anchor="middle" x="351.7" y="-518.5" font-family="Times New Roman,serif" font-size="15.00">Payment</text>
</g>
<!-- 1739103263712&#45;&#45;1739103264096 -->
<g id="edge6" class="edge"><title>1739103263712&#45;&#45;1739103264096</title>
<path fill="none" stroke="black" d="M341.913,-575.697C343.929,-564.846 346.515,-550.917 348.523,-540.104"/>
</g>
<!-- 1739103262992 -->
<g id="node12" class="node"><title>1739103262992</title>
<ellipse fill="black" stroke="black" cx="418.7" cy="-522" rx="2.7" ry="2.7"/>
</g>
<!-- 1739103263136&#45;&#45;1739103262992 -->
<g id="edge8" class="edge"><title>1739103263136&#45;&#45;1739103262992</title>
<path fill="none" stroke="black" d="M427.795,-576.055C424.743,-558.252 420.22,-531.865 419.008,-524.796"/>
</g>
<!-- 1739103262800 -->
<g id="node13" class="node"><title>1739103262800</title>
<ellipse fill="none" stroke="black" cx="501.7" cy="-522" rx="61.6894" ry="18"/>
<text text-anchor="middle" x="501.7" y="-518.5" font-family="Times New Roman,serif" font-size="15.00">Add penalty</text>
</g>
<!-- 1739103263136&#45;&#45;1739103262800 -->
<g id="edge9" class="edge"><title>1739103263136&#45;&#45;1739103262800</title>
<path fill="none" stroke="black" d="M445.411,-578.496C456.947,-567.123 473.004,-551.292 485.017,-539.448"/>
</g>
<!-- 1739103264240 -->
<g id="node15" class="node"><title>1739103264240</title>
<ellipse fill="black" stroke="black" cx="513.7" cy="-594" rx="2.7" ry="2.7"/>
</g>
<!-- 1739122474288&#45;&#45;1739103264240 -->
<g id="edge12" class="edge"><title>1739122474288&#45;&#45;1739103264240</title>
<path fill="none" stroke="black" d="M513.7,-647.697C513.7,-629.883 513.7,-603.769 513.7,-596.776"/>
</g>
<!-- 1739103262560 -->
<g id="node16" class="node"><title>1739103262560</title>
<ellipse fill="none" stroke="black" cx="608.7" cy="-594" rx="27" ry="18"/>
<text text-anchor="middle" x="608.7" y="-590.5" font-family="Times New Roman,serif" font-size="15.00">seq</text>
</g>
<!-- 1739122474288&#45;&#45;1739103262560 -->
<g id="edge36" class="edge"><title>1739122474288&#45;&#45;1739103262560</title>
<path fill="none" stroke="black" d="M531.124,-652.161C548.158,-639.61 573.958,-620.599 591.064,-607.995"/>
</g>
<!-- 1739103260832 -->
<g id="node17" class="node"><title>1739103260832</title>
<ellipse fill="none" stroke="black" cx="608.7" cy="-522" rx="27" ry="18"/>
<text text-anchor="middle" x="608.7" y="-518.5" font-family="Times New Roman,serif" font-size="15.00">and</text>
</g>
<!-- 1739103262560&#45;&#45;1739103260832 -->
<g id="edge32" class="edge"><title>1739103262560&#45;&#45;1739103260832</title>
<path fill="none" stroke="black" d="M608.7,-575.697C608.7,-564.846 608.7,-550.917 608.7,-540.104"/>
</g>
<!-- 1739103263856 -->
<g id="node37" class="node"><title>1739103263856</title>
<ellipse fill="none" stroke="black" cx="680.7" cy="-522" rx="27" ry="18"/>
<text text-anchor="middle" x="680.7" y="-518.5" font-family="Times New Roman,serif" font-size="15.00">xor</text>
</g>
<!-- 1739103262560&#45;&#45;1739103263856 -->
<g id="edge35" class="edge"><title>1739103262560&#45;&#45;1739103263856</title>
<path fill="none" stroke="black" d="M623.27,-578.834C635.68,-566.77 653.431,-549.512 665.904,-537.385"/>
</g>
<!-- 1739103261648 -->
<g id="node18" class="node"><title>1739103261648</title>
<ellipse fill="none" stroke="black" cx="516.7" cy="-450" rx="52.6228" ry="18"/>
<text text-anchor="middle" x="516.7" y="-446.5" font-family="Times New Roman,serif" font-size="15.00">Send Fine</text>
</g>
<!-- 1739103260832&#45;&#45;1739103261648 -->
<g id="edge13" class="edge"><title>1739103260832&#45;&#45;1739103261648</title>
<path fill="none" stroke="black" d="M591.396,-507.834C576.092,-496.19 553.735,-479.179 537.47,-466.803"/>
</g>
<!-- 1739103263088 -->
<g id="node19" class="node"><title>1739103263088</title>
<ellipse fill="none" stroke="black" cx="614.7" cy="-450" rx="27" ry="18"/>
<text text-anchor="middle" x="614.7" y="-446.5" font-family="Times New Roman,serif" font-size="15.00">xor</text>
</g>
<!-- 1739103260832&#45;&#45;1739103263088 -->
<g id="edge31" class="edge"><title>1739103260832&#45;&#45;1739103263088</title>
<path fill="none" stroke="black" d="M610.183,-503.697C611.113,-492.846 612.307,-478.917 613.234,-468.104"/>
</g>
<!-- 1739103262656 -->
<g id="node20" class="node"><title>1739103262656</title>
<ellipse fill="black" stroke="black" cx="580.7" cy="-378" rx="2.7" ry="2.7"/>
</g>
<!-- 1739103263088&#45;&#45;1739103262656 -->
<g id="edge14" class="edge"><title>1739103263088&#45;&#45;1739103262656</title>
<path fill="none" stroke="black" d="M606.814,-432.765C598.183,-414.994 585.101,-388.06 581.592,-380.836"/>
</g>
<!-- 1739103262848 -->
<g id="node21" class="node"><title>1739103262848</title>
<ellipse fill="none" stroke="black" cx="647.7" cy="-378" rx="46.6143" ry="18"/>
<text text-anchor="middle" x="647.7" y="-374.5" font-family="Times New Roman,serif" font-size="15.00">xor loop</text>
</g>
<!-- 1739103263088&#45;&#45;1739103262848 -->
<g id="edge30" class="edge"><title>1739103263088&#45;&#45;1739103262848</title>
<path fill="none" stroke="black" d="M622.521,-432.411C627.705,-421.414 634.487,-407.027 639.706,-395.956"/>
</g>
<!-- 1739103263232 -->
<g id="node22" class="node"><title>1739103263232</title>
<ellipse fill="none" stroke="black" cx="623.7" cy="-306" rx="27" ry="18"/>
<text text-anchor="middle" x="623.7" y="-302.5" font-family="Times New Roman,serif" font-size="15.00">seq</text>
</g>
<!-- 1739103262848&#45;&#45;1739103263232 -->
<g id="edge28" class="edge"><title>1739103262848&#45;&#45;1739103263232</title>
<path fill="none" stroke="black" d="M641.89,-360.055C638.117,-349.049 633.219,-334.764 629.456,-323.789"/>
</g>
<!-- 1739103264336 -->
<g id="node36" class="node"><title>1739103264336</title>
<ellipse fill="black" stroke="black" cx="671.7" cy="-306" rx="2.7" ry="2.7"/>
</g>
<!-- 1739103262848&#45;&#45;1739103264336 -->
<g id="edge29" class="edge"><title>1739103262848&#45;&#45;1739103264336</title>
<path fill="none" stroke="black" d="M653.51,-360.055C659.614,-342.252 668.66,-315.865 671.084,-308.796"/>
</g>
<!-- 1739103263376 -->
<g id="node23" class="node"><title>1739103263376</title>
<ellipse fill="none" stroke="black" cx="406.7" cy="-234" rx="27" ry="18"/>
<text text-anchor="middle" x="406.7" y="-230.5" font-family="Times New Roman,serif" font-size="15.00">xor</text>
</g>
<!-- 1739103263232&#45;&#45;1739103263376 -->
<g id="edge18" class="edge"><title>1739103263232&#45;&#45;1739103263376</title>
<path fill="none" stroke="black" d="M599.648,-297.241C557.826,-283.75 472.195,-256.127 430.529,-242.687"/>
</g>
<!-- 1739103262896 -->
<g id="node27" class="node"><title>1739103262896</title>
<ellipse fill="none" stroke="black" cx="732.7" cy="-234" rx="27" ry="18"/>
<text text-anchor="middle" x="732.7" y="-230.5" font-family="Times New Roman,serif" font-size="15.00">xor</text>
</g>
<!-- 1739103263232&#45;&#45;1739103262896 -->
<g id="edge27" class="edge"><title>1739103263232&#45;&#45;1739103262896</title>
<path fill="none" stroke="black" d="M642.686,-292.807C662.693,-279.959 694.007,-259.848 713.931,-247.053"/>
</g>
<!-- 1739103261504 -->
<g id="node24" class="node"><title>1739103261504</title>
<ellipse fill="none" stroke="black" cx="93.7" cy="-162" rx="78.5434" ry="18"/>
<text text-anchor="middle" x="93.7" y="-158.5" font-family="Times New Roman,serif" font-size="15.00">Appeal to Judge</text>
</g>
<!-- 1739103263376&#45;&#45;1739103261504 -->
<g id="edge15" class="edge"><title>1739103263376&#45;&#45;1739103261504</title>
<path fill="none" stroke="black" d="M381.351,-227.331C330.704,-216.004 216.018,-190.355 147.743,-175.086"/>
</g>
<!-- 1739103262080 -->
<g id="node25" class="node"><title>1739103262080</title>
<ellipse fill="none" stroke="black" cx="297.7" cy="-162" rx="107.914" ry="18"/>
<text text-anchor="middle" x="297.7" y="-158.5" font-family="Times New Roman,serif" font-size="15.00">Insert Fine Notification</text>
</g>
<!-- 1739103263376&#45;&#45;1739103262080 -->
<g id="edge16" class="edge"><title>1739103263376&#45;&#45;1739103262080</title>
<path fill="none" stroke="black" d="M387.714,-220.807C369.903,-209.369 343.13,-192.175 323.411,-179.511"/>
</g>
<!-- 1739103264144 -->
<g id="node26" class="node"><title>1739103264144</title>
<ellipse fill="none" stroke="black" cx="567.7" cy="-162" rx="144.571" ry="18"/>
<text text-anchor="middle" x="567.7" y="-158.5" font-family="Times New Roman,serif" font-size="15.00">Insert Date Appeal to Prefecture</text>
</g>
<!-- 1739103263376&#45;&#45;1739103264144 -->
<g id="edge17" class="edge"><title>1739103263376&#45;&#45;1739103264144</title>
<path fill="none" stroke="black" d="M428.749,-223.414C454.757,-212.106 498.427,-193.119 529.875,-179.446"/>
</g>
<!-- 1739103261792 -->
<g id="node28" class="node"><title>1739103261792</title>
<ellipse fill="black" stroke="black" cx="732.7" cy="-162" rx="2.7" ry="2.7"/>
</g>
<!-- 1739103262896&#45;&#45;1739103261792 -->
<g id="edge19" class="edge"><title>1739103262896&#45;&#45;1739103261792</title>
<path fill="none" stroke="black" d="M732.7,-215.697C732.7,-197.883 732.7,-171.769 732.7,-164.776"/>
</g>
<!-- 1739103260784 -->
<g id="node29" class="node"><title>1739103260784</title>
<ellipse fill="none" stroke="black" cx="780.7" cy="-162" rx="27" ry="18"/>
<text text-anchor="middle" x="780.7" y="-158.5" font-family="Times New Roman,serif" font-size="15.00">and</text>
</g>
<!-- 1739103262896&#45;&#45;1739103260784 -->
<g id="edge26" class="edge"><title>1739103262896&#45;&#45;1739103260784</title>
<path fill="none" stroke="black" d="M743.592,-217.116C751.447,-205.66 762.006,-190.263 769.851,-178.821"/>
</g>
<!-- 1738941652704 -->
<g id="node30" class="node"><title>1738941652704</title>
<ellipse fill="none" stroke="black" cx="695.7" cy="-90" rx="27" ry="18"/>
<text text-anchor="middle" x="695.7" y="-86.5" font-family="Times New Roman,serif" font-size="15.00">xor</text>
</g>
<!-- 1739103260784&#45;&#45;1738941652704 -->
<g id="edge22" class="edge"><title>1739103260784&#45;&#45;1738941652704</title>
<path fill="none" stroke="black" d="M764.311,-147.503C749.26,-135.108 727.074,-116.838 712.039,-104.455"/>
</g>
<!-- 1738941651744 -->
<g id="node33" class="node"><title>1738941651744</title>
<ellipse fill="none" stroke="black" cx="864.7" cy="-90" rx="27" ry="18"/>
<text text-anchor="middle" x="864.7" y="-86.5" font-family="Times New Roman,serif" font-size="15.00">xor</text>
</g>
<!-- 1739103260784&#45;&#45;1738941651744 -->
<g id="edge25" class="edge"><title>1739103260784&#45;&#45;1738941651744</title>
<path fill="none" stroke="black" d="M796.896,-147.503C811.771,-135.108 833.695,-116.838 848.554,-104.455"/>
</g>
<!-- 1738941650064 -->
<g id="node31" class="node"><title>1738941650064</title>
<ellipse fill="black" stroke="black" cx="526.7" cy="-18" rx="2.7" ry="2.7"/>
</g>
<!-- 1738941652704&#45;&#45;1738941650064 -->
<g id="edge20" class="edge"><title>1738941652704&#45;&#45;1738941650064</title>
<path fill="none" stroke="black" d="M673.258,-79.7045C631.237,-62.2995 543.585,-25.9938 528.83,-19.8823"/>
</g>
<!-- 1738941649632 -->
<g id="node32" class="node"><title>1738941649632</title>
<ellipse fill="none" stroke="black" cx="695.7" cy="-18" rx="148.91" ry="18"/>
<text text-anchor="middle" x="695.7" y="-14.5" font-family="Times New Roman,serif" font-size="15.00">Notify Result Appeal to Offender</text>
</g>
<!-- 1738941652704&#45;&#45;1738941649632 -->
<g id="edge21" class="edge"><title>1738941652704&#45;&#45;1738941649632</title>
<path fill="none" stroke="black" d="M695.7,-71.6966C695.7,-60.8463 695.7,-46.9167 695.7,-36.1043"/>
</g>
<!-- 1738941649104 -->
<g id="node34" class="node"><title>1738941649104</title>
<ellipse fill="black" stroke="black" cx="864.7" cy="-18" rx="2.7" ry="2.7"/>
</g>
<!-- 1738941651744&#45;&#45;1738941649104 -->
<g id="edge23" class="edge"><title>1738941651744&#45;&#45;1738941649104</title>
<path fill="none" stroke="black" d="M864.7,-71.6966C864.7,-53.8826 864.7,-27.7686 864.7,-20.7764"/>
</g>
<!-- 1738941650016 -->
<g id="node35" class="node"><title>1738941650016</title>
<ellipse fill="none" stroke="black" cx="1058.7" cy="-18" rx="173.941" ry="18"/>
<text text-anchor="middle" x="1058.7" y="-14.5" font-family="Times New Roman,serif" font-size="15.00">Receive Result Appeal from Prefecture</text>
</g>
<!-- 1738941651744&#45;&#45;1738941650016 -->
<g id="edge24" class="edge"><title>1738941651744&#45;&#45;1738941650016</title>
<path fill="none" stroke="black" d="M888.101,-80.5564C918.939,-69.4293 973.853,-49.615 1013.05,-35.472"/>
</g>
<!-- 1739103261024 -->
<g id="node38" class="node"><title>1739103261024</title>
<ellipse fill="black" stroke="black" cx="674.7" cy="-450" rx="2.7" ry="2.7"/>
</g>
<!-- 1739103263856&#45;&#45;1739103261024 -->
<g id="edge33" class="edge"><title>1739103263856&#45;&#45;1739103261024</title>
<path fill="none" stroke="black" d="M679.217,-503.697C677.69,-485.883 675.452,-459.769 674.852,-452.776"/>
</g>
<!-- 1739103262416 -->
<g id="node39" class="node"><title>1739103262416</title>
<ellipse fill="none" stroke="black" cx="816.7" cy="-450" rx="120.819" ry="18"/>
<text text-anchor="middle" x="816.7" y="-446.5" font-family="Times New Roman,serif" font-size="15.00">Send for Credit Collection</text>
</g>
<!-- 1739103263856&#45;&#45;1739103262416 -->
<g id="edge34" class="edge"><title>1739103263856&#45;&#45;1739103262416</title>
<path fill="none" stroke="black" d="M701.355,-510.369C723.499,-498.971 758.94,-480.729 784.699,-467.471"/>
</g>
<!-- 1739103263616 -->
<g id="node41" class="node"><title>1739103263616</title>
<ellipse fill="black" stroke="black" cx="573.7" cy="-666" rx="2.7" ry="2.7"/>
</g>
<!-- 1739122474000&#45;&#45;1739103263616 -->
<g id="edge39" class="edge"><title>1739122474000&#45;&#45;1739103263616</title>
<path fill="none" stroke="black" d="M578.217,-719.697C576.69,-701.883 574.452,-675.769 573.852,-668.776"/>
</g>
<!-- 1739103264672 -->
<g id="node42" class="node"><title>1739103264672</title>
<ellipse fill="none" stroke="black" cx="715.7" cy="-666" rx="120.819" ry="18"/>
<text text-anchor="middle" x="715.7" y="-662.5" font-family="Times New Roman,serif" font-size="15.00">Send for Credit Collection</text>
</g>
<!-- 1739122474000&#45;&#45;1739103264672 -->
<g id="edge40" class="edge"><title>1739122474000&#45;&#45;1739103264672</title>
<path fill="none" stroke="black" d="M600.355,-726.369C622.499,-714.971 657.94,-696.729 683.699,-683.471"/>
</g>
</g>
</svg>
