<?xml version="1.0" encoding="UTF-8" standalone="no"?>
<!DOCTYPE svg PUBLIC "-//W3C//DTD SVG 1.1//EN"
 "http://www.w3.org/Graphics/SVG/1.1/DTD/svg11.dtd">
<!-- Generated by graphviz version 2.38.0 (20140413.2041)
 -->
<!-- Title: pt Pages: 1 -->
<svg width="976pt" height="332pt"
 viewBox="0.00 0.00 975.54 332.00" xmlns="http://www.w3.org/2000/svg" xmlns:xlink="http://www.w3.org/1999/xlink">
<g id="graph0" class="graph" transform="scale(1 1) rotate(0) translate(4 328)">
<title>pt</title>
<!-- 1738939290048 -->
<g id="node1" class="node"><title>1738939290048</title>
<ellipse fill="none" stroke="black" cx="611.7" cy="-306" rx="27" ry="18"/>
<text text-anchor="middle" x="611.7" y="-302.5" font-family="Times New Roman,serif" font-size="15.00">seq</text>
</g>
<!-- 1738942507664 -->
<g id="node2" class="node"><title>1738942507664</title>
<ellipse fill="none" stroke="black" cx="506.7" cy="-234" rx="59.5207" ry="18"/>
<text text-anchor="middle" x="506.7" y="-230.5" font-family="Times New Roman,serif" font-size="15.00">Create Fine</text>
</g>
<!-- 1738939290048&#45;&#45;1738942507664 -->
<g id="edge1" class="edge"><title>1738939290048&#45;&#45;1738942507664</title>
<path fill="none" stroke="black" d="M592.928,-292.485C575.35,-280.767 549.023,-263.215 530.086,-250.591"/>
</g>
<!-- 1738942507136 -->
<g id="node3" class="node"><title>1738942507136</title>
<ellipse fill="none" stroke="black" cx="611.7" cy="-234" rx="27" ry="18"/>
<text text-anchor="middle" x="611.7" y="-230.5" font-family="Times New Roman,serif" font-size="15.00">and</text>
</g>
<!-- 1738939290048&#45;&#45;1738942507136 -->
<g id="edge19" class="edge"><title>1738939290048&#45;&#45;1738942507136</title>
<path fill="none" stroke="black" d="M611.7,-287.697C611.7,-276.846 611.7,-262.917 611.7,-252.104"/>
</g>
<!-- 1738942505840 -->
<g id="node21" class="node"><title>1738942505840</title>
<ellipse fill="none" stroke="black" cx="683.7" cy="-234" rx="27" ry="18"/>
<text text-anchor="middle" x="683.7" y="-230.5" font-family="Times New Roman,serif" font-size="15.00">xor</text>
</g>
<!-- 1738939290048&#45;&#45;1738942505840 -->
<g id="edge22" class="edge"><title>1738939290048&#45;&#45;1738942505840</title>
<path fill="none" stroke="black" d="M626.27,-290.834C638.68,-278.77 656.431,-261.512 668.904,-249.385"/>
</g>
<!-- 1738942506176 -->
<g id="node4" class="node"><title>1738942506176</title>
<ellipse fill="none" stroke="black" cx="214.7" cy="-162" rx="27" ry="18"/>
<text text-anchor="middle" x="214.7" y="-158.5" font-family="Times New Roman,serif" font-size="15.00">seq</text>
</g>
<!-- 1738942507136&#45;&#45;1738942506176 -->
<g id="edge8" class="edge"><title>1738942507136&#45;&#45;1738942506176</title>
<path fill="none" stroke="black" d="M585.958,-228.461C514.222,-215.812 312.618,-180.265 240.642,-167.574"/>
</g>
<!-- 1738942505696 -->
<g id="node11" class="node"><title>1738942505696</title>
<ellipse fill="none" stroke="black" cx="617.7" cy="-162" rx="27" ry="18"/>
<text text-anchor="middle" x="617.7" y="-158.5" font-family="Times New Roman,serif" font-size="15.00">and</text>
</g>
<!-- 1738942507136&#45;&#45;1738942505696 -->
<g id="edge18" class="edge"><title>1738942507136&#45;&#45;1738942505696</title>
<path fill="none" stroke="black" d="M613.183,-215.697C614.113,-204.846 615.307,-190.917 616.234,-180.104"/>
</g>
<!-- 1738942505888 -->
<g id="node5" class="node"><title>1738942505888</title>
<ellipse fill="none" stroke="black" cx="76.7" cy="-90" rx="27" ry="18"/>
<text text-anchor="middle" x="76.7" y="-86.5" font-family="Times New Roman,serif" font-size="15.00">xor</text>
</g>
<!-- 1738942506176&#45;&#45;1738942505888 -->
<g id="edge4" class="edge"><title>1738942506176&#45;&#45;1738942505888</title>
<path fill="none" stroke="black" d="M193.741,-150.369C167.803,-137.212 123.885,-114.934 97.8565,-101.732"/>
</g>
<!-- 1738942505648 -->
<g id="node8" class="node"><title>1738942505648</title>
<ellipse fill="none" stroke="black" cx="214.7" cy="-90" rx="27" ry="18"/>
<text text-anchor="middle" x="214.7" y="-86.5" font-family="Times New Roman,serif" font-size="15.00">xor</text>
</g>
<!-- 1738942506176&#45;&#45;1738942505648 -->
<g id="edge7" class="edge"><title>1738942506176&#45;&#45;1738942505648</title>
<path fill="none" stroke="black" d="M214.7,-143.697C214.7,-132.846 214.7,-118.917 214.7,-108.104"/>
</g>
<!-- 1738942505552 -->
<g id="node6" class="node"><title>1738942505552</title>
<ellipse fill="black" stroke="black" cx="2.7" cy="-18" rx="2.7" ry="2.7"/>
</g>
<!-- 1738942505888&#45;&#45;1738942505552 -->
<g id="edge2" class="edge"><title>1738942505888&#45;&#45;1738942505552</title>
<path fill="none" stroke="black" d="M61.725,-74.8345C42.8049,-56.937 11.8039,-27.6118 4.34935,-20.5602"/>
</g>
<!-- 1738942505744 -->
<g id="node7" class="node"><title>1738942505744</title>
<ellipse fill="none" stroke="black" cx="76.7" cy="-18" rx="52.6228" ry="18"/>
<text text-anchor="middle" x="76.7" y="-14.5" font-family="Times New Roman,serif" font-size="15.00">Send Fine</text>
</g>
<!-- 1738942505888&#45;&#45;1738942505744 -->
<g id="edge3" class="edge"><title>1738942505888&#45;&#45;1738942505744</title>
<path fill="none" stroke="black" d="M76.7,-71.6966C76.7,-60.8463 76.7,-46.9167 76.7,-36.1043"/>
</g>
<!-- 1738942505168 -->
<g id="node9" class="node"><title>1738942505168</title>
<ellipse fill="black" stroke="black" cx="150.7" cy="-18" rx="2.7" ry="2.7"/>
</g>
<!-- 1738942505648&#45;&#45;1738942505168 -->
<g id="edge5" class="edge"><title>1738942505648&#45;&#45;1738942505168</title>
<path fill="none" stroke="black" d="M201.127,-74.1548C184.689,-56.1754 158.409,-27.4321 152.096,-20.5271"/>
</g>
<!-- 1738941767248 -->
<g id="node10" class="node"><title>1738941767248</title>
<ellipse fill="none" stroke="black" cx="278.7" cy="-18" rx="107.914" ry="18"/>
<text text-anchor="middle" x="278.7" y="-14.5" font-family="Times New Roman,serif" font-size="15.00">Insert Fine Notification</text>
</g>
<!-- 1738942505648&#45;&#45;1738941767248 -->
<g id="edge6" class="edge"><title>1738942505648&#45;&#45;1738941767248</title>
<path fill="none" stroke="black" d="M228.273,-74.1548C238.473,-62.998 252.463,-47.6963 263.121,-36.04"/>
</g>
<!-- 1738941767152 -->
<g id="node12" class="node"><title>1738941767152</title>
<ellipse fill="none" stroke="black" cx="547.7" cy="-90" rx="27" ry="18"/>
<text text-anchor="middle" x="547.7" y="-86.5" font-family="Times New Roman,serif" font-size="15.00">xor</text>
</g>
<!-- 1738942505696&#45;&#45;1738941767152 -->
<g id="edge11" class="edge"><title>1738942505696&#45;&#45;1738941767152</title>
<path fill="none" stroke="black" d="M603.196,-146.496C591.182,-134.482 574.194,-117.494 562.185,-105.485"/>
</g>
<!-- 1738941766048 -->
<g id="node15" class="node"><title>1738941766048</title>
<ellipse fill="none" stroke="black" cx="688.7" cy="-90" rx="46.6143" ry="18"/>
<text text-anchor="middle" x="688.7" y="-86.5" font-family="Times New Roman,serif" font-size="15.00">xor loop</text>
</g>
<!-- 1738942505696&#45;&#45;1738941766048 -->
<g id="edge14" class="edge"><title>1738942505696&#45;&#45;1738941766048</title>
<path fill="none" stroke="black" d="M632.411,-146.496C644.109,-134.963 660.457,-118.845 672.522,-106.95"/>
</g>
<!-- 1738942506032 -->
<g id="node18" class="node"><title>1738942506032</title>
<ellipse fill="none" stroke="black" cx="822.7" cy="-90" rx="27" ry="18"/>
<text text-anchor="middle" x="822.7" y="-86.5" font-family="Times New Roman,serif" font-size="15.00">xor</text>
</g>
<!-- 1738942505696&#45;&#45;1738942506032 -->
<g id="edge17" class="edge"><title>1738942505696&#45;&#45;1738942506032</title>
<path fill="none" stroke="black" d="M641.216,-152.97C680.655,-139.503 759.677,-112.52 799.143,-99.0438"/>
</g>
<!-- 1738941766720 -->
<g id="node13" class="node"><title>1738941766720</title>
<ellipse fill="black" stroke="black" cx="406.7" cy="-18" rx="2.7" ry="2.7"/>
</g>
<!-- 1738941767152&#45;&#45;1738941766720 -->
<g id="edge9" class="edge"><title>1738941767152&#45;&#45;1738941766720</title>
<path fill="none" stroke="black" d="M526.591,-78.5203C490.944,-60.8234 421.442,-26.3188 408.724,-20.0047"/>
</g>
<!-- 1738941766144 -->
<g id="node14" class="node"><title>1738941766144</title>
<ellipse fill="none" stroke="black" cx="547.7" cy="-18" rx="120.43" ry="18"/>
<text text-anchor="middle" x="547.7" y="-14.5" font-family="Times New Roman,serif" font-size="15.00">Send Appeal to Prefecture</text>
</g>
<!-- 1738941767152&#45;&#45;1738941766144 -->
<g id="edge10" class="edge"><title>1738941767152&#45;&#45;1738941766144</title>
<path fill="none" stroke="black" d="M547.7,-71.6966C547.7,-60.8463 547.7,-46.9167 547.7,-36.1043"/>
</g>
<!-- 1738941764368 -->
<g id="node16" class="node"><title>1738941764368</title>
<ellipse fill="black" stroke="black" cx="688.7" cy="-18" rx="2.7" ry="2.7"/>
</g>
<!-- 1738941766048&#45;&#45;1738941764368 -->
<g id="edge12" class="edge"><title>1738941766048&#45;&#45;1738941764368</title>
<path fill="none" stroke="black" d="M688.7,-71.6966C688.7,-53.8826 688.7,-27.7686 688.7,-20.7764"/>
</g>
<!-- 1738942488784 -->
<g id="node17" class="node"><title>1738942488784</title>
<ellipse fill="none" stroke="black" cx="755.7" cy="-18" rx="45.7249" ry="18"/>
<text text-anchor="middle" x="755.7" y="-14.5" font-family="Times New Roman,serif" font-size="15.00">Payment</text>
</g>
<!-- 1738941766048&#45;&#45;1738942488784 -->
<g id="edge13" class="edge"><title>1738941766048&#45;&#45;1738942488784</title>
<path fill="none" stroke="black" d="M704.24,-72.7646C715.064,-61.456 729.439,-46.4367 740.245,-35.1473"/>
</g>
<!-- 1738941763648 -->
<g id="node19" class="node"><title>1738941763648</title>
<ellipse fill="black" stroke="black" cx="822.7" cy="-18" rx="2.7" ry="2.7"/>
</g>
<!-- 1738942506032&#45;&#45;1738941763648 -->
<g id="edge15" class="edge"><title>1738942506032&#45;&#45;1738941763648</title>
<path fill="none" stroke="black" d="M822.7,-71.6966C822.7,-53.8826 822.7,-27.7686 822.7,-20.7764"/>
</g>
<!-- 1738941766912 -->
<g id="node20" class="node"><title>1738941766912</title>
<ellipse fill="none" stroke="black" cx="905.7" cy="-18" rx="61.6894" ry="18"/>
<text text-anchor="middle" x="905.7" y="-14.5" font-family="Times New Roman,serif" font-size="15.00">Add penalty</text>
</g>
<!-- 1738942506032&#45;&#45;1738941766912 -->
<g id="edge16" class="edge"><title>1738942506032&#45;&#45;1738941766912</title>
<path fill="none" stroke="black" d="M839.098,-75.1703C852.704,-63.6952 872.077,-47.3569 886.423,-35.2574"/>
</g>
<!-- 1738941767632 -->
<g id="node22" class="node"><title>1738941767632</title>
<ellipse fill="black" stroke="black" cx="677.7" cy="-162" rx="2.7" ry="2.7"/>
</g>
<!-- 1738942505840&#45;&#45;1738941767632 -->
<g id="edge20" class="edge"><title>1738942505840&#45;&#45;1738941767632</title>
<path fill="none" stroke="black" d="M682.217,-215.697C680.69,-197.883 678.452,-171.769 677.852,-164.776"/>
</g>
<!-- 1738941764656 -->
<g id="node23" class="node"><title>1738941764656</title>
<ellipse fill="none" stroke="black" cx="819.7" cy="-162" rx="120.819" ry="18"/>
<text text-anchor="middle" x="819.7" y="-158.5" font-family="Times New Roman,serif" font-size="15.00">Send for Credit Collection</text>
</g>
<!-- 1738942505840&#45;&#45;1738941764656 -->
<g id="edge21" class="edge"><title>1738942505840&#45;&#45;1738941764656</title>
<path fill="none" stroke="black" d="M704.355,-222.369C726.499,-210.971 761.94,-192.729 787.699,-179.471"/>
</g>
</g>
</svg>
