<?xml version="1.0" encoding="UTF-8" standalone="no"?>
<!DOCTYPE svg PUBLIC "-//W3C//DTD SVG 1.1//EN"
 "http://www.w3.org/Graphics/SVG/1.1/DTD/svg11.dtd">
<!-- Generated by graphviz version 2.38.0 (20140413.2041)
 -->
<!-- Title: pt Pages: 1 -->
<svg width="1178pt" height="404pt"
 viewBox="0.00 0.00 1178.24 404.00" xmlns="http://www.w3.org/2000/svg" xmlns:xlink="http://www.w3.org/1999/xlink">
<g id="graph0" class="graph" transform="scale(1 1) rotate(0) translate(4 400)">
<title>pt</title>
<!-- 1738942920928 -->
<g id="node1" class="node"><title>1738942920928</title>
<ellipse fill="none" stroke="black" cx="532.7" cy="-378" rx="27" ry="18"/>
<text text-anchor="middle" x="532.7" y="-374.5" font-family="Times New Roman,serif" font-size="15.00">seq</text>
</g>
<!-- 1738942918912 -->
<g id="node2" class="node"><title>1738942918912</title>
<ellipse fill="none" stroke="black" cx="427.7" cy="-306" rx="59.5207" ry="18"/>
<text text-anchor="middle" x="427.7" y="-302.5" font-family="Times New Roman,serif" font-size="15.00">Create Fine</text>
</g>
<!-- 1738942920928&#45;&#45;1738942918912 -->
<g id="edge1" class="edge"><title>1738942920928&#45;&#45;1738942918912</title>
<path fill="none" stroke="black" d="M513.928,-364.485C496.35,-352.767 470.023,-335.215 451.086,-322.591"/>
</g>
<!-- 1738942919392 -->
<g id="node3" class="node"><title>1738942919392</title>
<ellipse fill="none" stroke="black" cx="532.7" cy="-306" rx="27" ry="18"/>
<text text-anchor="middle" x="532.7" y="-302.5" font-family="Times New Roman,serif" font-size="15.00">and</text>
</g>
<!-- 1738942920928&#45;&#45;1738942919392 -->
<g id="edge22" class="edge"><title>1738942920928&#45;&#45;1738942919392</title>
<path fill="none" stroke="black" d="M532.7,-359.697C532.7,-348.846 532.7,-334.917 532.7,-324.104"/>
</g>
<!-- 1738942920880 -->
<g id="node24" class="node"><title>1738942920880</title>
<ellipse fill="none" stroke="black" cx="604.7" cy="-306" rx="27" ry="18"/>
<text text-anchor="middle" x="604.7" y="-302.5" font-family="Times New Roman,serif" font-size="15.00">xor</text>
</g>
<!-- 1738942920928&#45;&#45;1738942920880 -->
<g id="edge25" class="edge"><title>1738942920928&#45;&#45;1738942920880</title>
<path fill="none" stroke="black" d="M547.27,-362.834C559.68,-350.77 577.431,-333.512 589.904,-321.385"/>
</g>
<!-- 1738942920688 -->
<g id="node4" class="node"><title>1738942920688</title>
<ellipse fill="none" stroke="black" cx="384.7" cy="-234" rx="27" ry="18"/>
<text text-anchor="middle" x="384.7" y="-230.5" font-family="Times New Roman,serif" font-size="15.00">and</text>
</g>
<!-- 1738942919392&#45;&#45;1738942920688 -->
<g id="edge11" class="edge"><title>1738942919392&#45;&#45;1738942920688</title>
<path fill="none" stroke="black" d="M511.18,-294.821C483.12,-281.55 434.319,-258.468 406.246,-245.191"/>
</g>
<!-- 1738942921024 -->
<g id="node14" class="node"><title>1738942921024</title>
<ellipse fill="none" stroke="black" cx="538.7" cy="-234" rx="27" ry="18"/>
<text text-anchor="middle" x="538.7" y="-230.5" font-family="Times New Roman,serif" font-size="15.00">xor</text>
</g>
<!-- 1738942919392&#45;&#45;1738942921024 -->
<g id="edge21" class="edge"><title>1738942919392&#45;&#45;1738942921024</title>
<path fill="none" stroke="black" d="M534.183,-287.697C535.113,-276.846 536.307,-262.917 537.234,-252.104"/>
</g>
<!-- 1738942919680 -->
<g id="node5" class="node"><title>1738942919680</title>
<ellipse fill="none" stroke="black" cx="143.7" cy="-162" rx="27" ry="18"/>
<text text-anchor="middle" x="143.7" y="-158.5" font-family="Times New Roman,serif" font-size="15.00">xor</text>
</g>
<!-- 1738942920688&#45;&#45;1738942919680 -->
<g id="edge4" class="edge"><title>1738942920688&#45;&#45;1738942919680</title>
<path fill="none" stroke="black" d="M360.265,-225.903C314.074,-212.486 214.44,-183.547 168.199,-170.116"/>
</g>
<!-- 1738942920496 -->
<g id="node8" class="node"><title>1738942920496</title>
<ellipse fill="none" stroke="black" cx="338.7" cy="-162" rx="46.6143" ry="18"/>
<text text-anchor="middle" x="338.7" y="-158.5" font-family="Times New Roman,serif" font-size="15.00">xor loop</text>
</g>
<!-- 1738942920688&#45;&#45;1738942920496 -->
<g id="edge7" class="edge"><title>1738942920688&#45;&#45;1738942920496</title>
<path fill="none" stroke="black" d="M374.262,-217.116C366.946,-205.983 357.183,-191.127 349.738,-179.797"/>
</g>
<!-- 1738942922080 -->
<g id="node11" class="node"><title>1738942922080</title>
<ellipse fill="none" stroke="black" cx="430.7" cy="-162" rx="27" ry="18"/>
<text text-anchor="middle" x="430.7" y="-158.5" font-family="Times New Roman,serif" font-size="15.00">xor</text>
</g>
<!-- 1738942920688&#45;&#45;1738942922080 -->
<g id="edge10" class="edge"><title>1738942920688&#45;&#45;1738942922080</title>
<path fill="none" stroke="black" d="M395.138,-217.116C402.666,-205.66 412.785,-190.263 420.303,-178.821"/>
</g>
<!-- 1738942922320 -->
<g id="node6" class="node"><title>1738942922320</title>
<ellipse fill="black" stroke="black" cx="2.7" cy="-90" rx="2.7" ry="2.7"/>
</g>
<!-- 1738942919680&#45;&#45;1738942922320 -->
<g id="edge2" class="edge"><title>1738942919680&#45;&#45;1738942922320</title>
<path fill="none" stroke="black" d="M122.591,-150.52C86.9442,-132.823 17.4421,-98.3188 4.72371,-92.0047"/>
</g>
<!-- 1738942921888 -->
<g id="node7" class="node"><title>1738942921888</title>
<ellipse fill="none" stroke="black" cx="143.7" cy="-90" rx="120.43" ry="18"/>
<text text-anchor="middle" x="143.7" y="-86.5" font-family="Times New Roman,serif" font-size="15.00">Send Appeal to Prefecture</text>
</g>
<!-- 1738942919680&#45;&#45;1738942921888 -->
<g id="edge3" class="edge"><title>1738942919680&#45;&#45;1738942921888</title>
<path fill="none" stroke="black" d="M143.7,-143.697C143.7,-132.846 143.7,-118.917 143.7,-108.104"/>
</g>
<!-- 1738942922608 -->
<g id="node9" class="node"><title>1738942922608</title>
<ellipse fill="black" stroke="black" cx="284.7" cy="-90" rx="2.7" ry="2.7"/>
</g>
<!-- 1738942920496&#45;&#45;1738942922608 -->
<g id="edge5" class="edge"><title>1738942920496&#45;&#45;1738942922608</title>
<path fill="none" stroke="black" d="M325.903,-144.411C312.18,-126.622 291.614,-99.9625 286.101,-92.8163"/>
</g>
<!-- 1738942922560 -->
<g id="node10" class="node"><title>1738942922560</title>
<ellipse fill="none" stroke="black" cx="351.7" cy="-90" rx="45.7249" ry="18"/>
<text text-anchor="middle" x="351.7" y="-86.5" font-family="Times New Roman,serif" font-size="15.00">Payment</text>
</g>
<!-- 1738942920496&#45;&#45;1738942922560 -->
<g id="edge6" class="edge"><title>1738942920496&#45;&#45;1738942922560</title>
<path fill="none" stroke="black" d="M341.913,-143.697C343.929,-132.846 346.515,-118.917 348.523,-108.104"/>
</g>
<!-- 1738942919584 -->
<g id="node12" class="node"><title>1738942919584</title>
<ellipse fill="black" stroke="black" cx="418.7" cy="-90" rx="2.7" ry="2.7"/>
</g>
<!-- 1738942922080&#45;&#45;1738942919584 -->
<g id="edge8" class="edge"><title>1738942922080&#45;&#45;1738942919584</title>
<path fill="none" stroke="black" d="M427.795,-144.055C424.743,-126.252 420.22,-99.8653 419.008,-92.7963"/>
</g>
<!-- 1738942921648 -->
<g id="node13" class="node"><title>1738942921648</title>
<ellipse fill="none" stroke="black" cx="501.7" cy="-90" rx="61.6894" ry="18"/>
<text text-anchor="middle" x="501.7" y="-86.5" font-family="Times New Roman,serif" font-size="15.00">Add penalty</text>
</g>
<!-- 1738942922080&#45;&#45;1738942921648 -->
<g id="edge9" class="edge"><title>1738942922080&#45;&#45;1738942921648</title>
<path fill="none" stroke="black" d="M445.411,-146.496C456.947,-135.123 473.004,-119.292 485.017,-107.448"/>
</g>
<!-- 1738942919152 -->
<g id="node15" class="node"><title>1738942919152</title>
<ellipse fill="black" stroke="black" cx="538.7" cy="-162" rx="2.7" ry="2.7"/>
</g>
<!-- 1738942921024&#45;&#45;1738942919152 -->
<g id="edge12" class="edge"><title>1738942921024&#45;&#45;1738942919152</title>
<path fill="none" stroke="black" d="M538.7,-215.697C538.7,-197.883 538.7,-171.769 538.7,-164.776"/>
</g>
<!-- 1738942918816 -->
<g id="node16" class="node"><title>1738942918816</title>
<ellipse fill="none" stroke="black" cx="683.7" cy="-162" rx="27" ry="18"/>
<text text-anchor="middle" x="683.7" y="-158.5" font-family="Times New Roman,serif" font-size="15.00">seq</text>
</g>
<!-- 1738942921024&#45;&#45;1738942918816 -->
<g id="edge20" class="edge"><title>1738942921024&#45;&#45;1738942918816</title>
<path fill="none" stroke="black" d="M560.095,-222.671C587.51,-209.437 634.76,-186.626 662.217,-173.371"/>
</g>
<!-- 1738942921408 -->
<g id="node17" class="node"><title>1738942921408</title>
<ellipse fill="none" stroke="black" cx="634.7" cy="-90" rx="52.6228" ry="18"/>
<text text-anchor="middle" x="634.7" y="-86.5" font-family="Times New Roman,serif" font-size="15.00">Send Fine</text>
</g>
<!-- 1738942918816&#45;&#45;1738942921408 -->
<g id="edge13" class="edge"><title>1738942918816&#45;&#45;1738942921408</title>
<path fill="none" stroke="black" d="M672.825,-145.465C665.044,-134.348 654.573,-119.39 646.573,-107.962"/>
</g>
<!-- 1738942921360 -->
<g id="node18" class="node"><title>1738942921360</title>
<ellipse fill="none" stroke="black" cx="732.7" cy="-90" rx="27" ry="18"/>
<text text-anchor="middle" x="732.7" y="-86.5" font-family="Times New Roman,serif" font-size="15.00">xor</text>
</g>
<!-- 1738942918816&#45;&#45;1738942921360 -->
<g id="edge16" class="edge"><title>1738942918816&#45;&#45;1738942921360</title>
<path fill="none" stroke="black" d="M694.575,-145.465C702.695,-133.865 713.743,-118.082 721.856,-106.492"/>
</g>
<!-- 1738942919824 -->
<g id="node21" class="node"><title>1738942919824</title>
<ellipse fill="none" stroke="black" cx="860.7" cy="-90" rx="27" ry="18"/>
<text text-anchor="middle" x="860.7" y="-86.5" font-family="Times New Roman,serif" font-size="15.00">xor</text>
</g>
<!-- 1738942918816&#45;&#45;1738942919824 -->
<g id="edge19" class="edge"><title>1738942918816&#45;&#45;1738942919824</title>
<path fill="none" stroke="black" d="M706.477,-151.992C740.464,-138.551 804.075,-113.394 838.01,-99.9734"/>
</g>
<!-- 1738942921696 -->
<g id="node19" class="node"><title>1738942921696</title>
<ellipse fill="black" stroke="black" cx="604.7" cy="-18" rx="2.7" ry="2.7"/>
</g>
<!-- 1738942921360&#45;&#45;1738942921696 -->
<g id="edge14" class="edge"><title>1738942921360&#45;&#45;1738942921696</title>
<path fill="none" stroke="black" d="M712.418,-77.9083C679.991,-60.1748 618.882,-26.756 606.804,-20.1507"/>
</g>
<!-- 1738942919440 -->
<g id="node20" class="node"><title>1738942919440</title>
<ellipse fill="none" stroke="black" cx="732.7" cy="-18" rx="107.914" ry="18"/>
<text text-anchor="middle" x="732.7" y="-14.5" font-family="Times New Roman,serif" font-size="15.00">Insert Fine Notification</text>
</g>
<!-- 1738942921360&#45;&#45;1738942919440 -->
<g id="edge15" class="edge"><title>1738942921360&#45;&#45;1738942919440</title>
<path fill="none" stroke="black" d="M732.7,-71.6966C732.7,-60.8463 732.7,-46.9167 732.7,-36.1043"/>
</g>
<!-- 1738942920448 -->
<g id="node22" class="node"><title>1738942920448</title>
<ellipse fill="black" stroke="black" cx="860.7" cy="-18" rx="2.7" ry="2.7"/>
</g>
<!-- 1738942919824&#45;&#45;1738942920448 -->
<g id="edge17" class="edge"><title>1738942919824&#45;&#45;1738942920448</title>
<path fill="none" stroke="black" d="M860.7,-71.6966C860.7,-53.8826 860.7,-27.7686 860.7,-20.7764"/>
</g>
<!-- 1738942920352 -->
<g id="node23" class="node"><title>1738942920352</title>
<ellipse fill="none" stroke="black" cx="1025.7" cy="-18" rx="144.571" ry="18"/>
<text text-anchor="middle" x="1025.7" y="-14.5" font-family="Times New Roman,serif" font-size="15.00">Insert Date Appeal to Prefecture</text>
</g>
<!-- 1738942919824&#45;&#45;1738942920352 -->
<g id="edge18" class="edge"><title>1738942919824&#45;&#45;1738942920352</title>
<path fill="none" stroke="black" d="M882.953,-79.5595C909.606,-68.252 954.706,-49.1186 987.085,-35.3822"/>
</g>
<!-- 1738942920016 -->
<g id="node25" class="node"><title>1738942920016</title>
<ellipse fill="black" stroke="black" cx="598.7" cy="-234" rx="2.7" ry="2.7"/>
</g>
<!-- 1738942920880&#45;&#45;1738942920016 -->
<g id="edge23" class="edge"><title>1738942920880&#45;&#45;1738942920016</title>
<path fill="none" stroke="black" d="M603.217,-287.697C601.69,-269.883 599.452,-243.769 598.852,-236.776"/>
</g>
<!-- 1738942921936 -->
<g id="node26" class="node"><title>1738942921936</title>
<ellipse fill="none" stroke="black" cx="740.7" cy="-234" rx="120.819" ry="18"/>
<text text-anchor="middle" x="740.7" y="-230.5" font-family="Times New Roman,serif" font-size="15.00">Send for Credit Collection</text>
</g>
<!-- 1738942920880&#45;&#45;1738942921936 -->
<g id="edge24" class="edge"><title>1738942920880&#45;&#45;1738942921936</title>
<path fill="none" stroke="black" d="M625.355,-294.369C647.499,-282.971 682.94,-264.729 708.699,-251.471"/>
</g>
</g>
</svg>
