<?xml version="1.0" encoding="UTF-8" standalone="no"?>
<!DOCTYPE svg PUBLIC "-//W3C//DTD SVG 1.1//EN"
 "http://www.w3.org/Graphics/SVG/1.1/DTD/svg11.dtd">
<!-- Generated by graphviz version 2.38.0 (20140413.2041)
 -->
<!-- Title: pt Pages: 1 -->
<svg width="1652pt" height="692pt"
 viewBox="0.00 0.00 1651.56 692.00" xmlns="http://www.w3.org/2000/svg" xmlns:xlink="http://www.w3.org/1999/xlink">
<g id="graph0" class="graph" transform="scale(1 1) rotate(0) translate(4 688)">
<title>pt</title>
<!-- 1739108731344 -->
<g id="node1" class="node"><title>1739108731344</title>
<ellipse fill="none" stroke="black" cx="468.7" cy="-666" rx="27" ry="18"/>
<text text-anchor="middle" x="468.7" y="-662.5" font-family="Times New Roman,serif" font-size="15.00">and</text>
</g>
<!-- 1739108732016 -->
<g id="node2" class="node"><title>1739108732016</title>
<ellipse fill="none" stroke="black" cx="358.7" cy="-594" rx="27" ry="18"/>
<text text-anchor="middle" x="358.7" y="-590.5" font-family="Times New Roman,serif" font-size="15.00">xor</text>
</g>
<!-- 1739108731344&#45;&#45;1739108732016 -->
<g id="edge12" class="edge"><title>1739108731344&#45;&#45;1739108732016</title>
<path fill="none" stroke="black" d="M449.539,-652.807C429.35,-639.959 397.748,-619.848 377.641,-607.053"/>
</g>
<!-- 1739108731440 -->
<g id="node14" class="node"><title>1739108731440</title>
<ellipse fill="none" stroke="black" cx="546.7" cy="-594" rx="27" ry="18"/>
<text text-anchor="middle" x="546.7" y="-590.5" font-family="Times New Roman,serif" font-size="15.00">seq</text>
</g>
<!-- 1739108731344&#45;&#45;1739108731440 -->
<g id="edge45" class="edge"><title>1739108731344&#45;&#45;1739108731440</title>
<path fill="none" stroke="black" d="M484.11,-651.17C497.785,-638.898 517.657,-621.064 531.322,-608.801"/>
</g>
<!-- 1739104093616 -->
<g id="node3" class="node"><title>1739104093616</title>
<ellipse fill="black" stroke="black" cx="310.7" cy="-522" rx="2.7" ry="2.7"/>
</g>
<!-- 1739108732016&#45;&#45;1739104093616 -->
<g id="edge1" class="edge"><title>1739108732016&#45;&#45;1739104093616</title>
<path fill="none" stroke="black" d="M347.808,-577.116C335.638,-559.367 316.98,-532.158 311.973,-524.857"/>
</g>
<!-- 1739104092896 -->
<g id="node4" class="node"><title>1739104092896</title>
<ellipse fill="none" stroke="black" cx="358.7" cy="-522" rx="27" ry="18"/>
<text text-anchor="middle" x="358.7" y="-518.5" font-family="Times New Roman,serif" font-size="15.00">and</text>
</g>
<!-- 1739108732016&#45;&#45;1739104092896 -->
<g id="edge11" class="edge"><title>1739108732016&#45;&#45;1739104092896</title>
<path fill="none" stroke="black" d="M358.7,-575.697C358.7,-564.846 358.7,-550.917 358.7,-540.104"/>
</g>
<!-- 1739109151648 -->
<g id="node5" class="node"><title>1739109151648</title>
<ellipse fill="none" stroke="black" cx="143.7" cy="-450" rx="27" ry="18"/>
<text text-anchor="middle" x="143.7" y="-446.5" font-family="Times New Roman,serif" font-size="15.00">xor</text>
</g>
<!-- 1739104092896&#45;&#45;1739109151648 -->
<g id="edge4" class="edge"><title>1739104092896&#45;&#45;1739109151648</title>
<path fill="none" stroke="black" d="M334.87,-513.241C293.542,-499.786 209.039,-472.273 167.637,-458.793"/>
</g>
<!-- 1739109151360 -->
<g id="node8" class="node"><title>1739109151360</title>
<ellipse fill="none" stroke="black" cx="338.7" cy="-450" rx="46.6143" ry="18"/>
<text text-anchor="middle" x="338.7" y="-446.5" font-family="Times New Roman,serif" font-size="15.00">xor loop</text>
</g>
<!-- 1739104092896&#45;&#45;1739109151360 -->
<g id="edge7" class="edge"><title>1739104092896&#45;&#45;1739109151360</title>
<path fill="none" stroke="black" d="M353.859,-504.055C350.76,-493.211 346.752,-479.183 343.636,-468.275"/>
</g>
<!-- 1739109150832 -->
<g id="node11" class="node"><title>1739109150832</title>
<ellipse fill="none" stroke="black" cx="430.7" cy="-450" rx="27" ry="18"/>
<text text-anchor="middle" x="430.7" y="-446.5" font-family="Times New Roman,serif" font-size="15.00">xor</text>
</g>
<!-- 1739104092896&#45;&#45;1739109150832 -->
<g id="edge10" class="edge"><title>1739104092896&#45;&#45;1739109150832</title>
<path fill="none" stroke="black" d="M373.27,-506.834C385.68,-494.77 403.431,-477.512 415.904,-465.385"/>
</g>
<!-- 1739109151984 -->
<g id="node6" class="node"><title>1739109151984</title>
<ellipse fill="black" stroke="black" cx="2.7" cy="-378" rx="2.7" ry="2.7"/>
</g>
<!-- 1739109151648&#45;&#45;1739109151984 -->
<g id="edge2" class="edge"><title>1739109151648&#45;&#45;1739109151984</title>
<path fill="none" stroke="black" d="M122.591,-438.52C86.9442,-420.823 17.4421,-386.319 4.72371,-380.005"/>
</g>
<!-- 1739109152080 -->
<g id="node7" class="node"><title>1739109152080</title>
<ellipse fill="none" stroke="black" cx="143.7" cy="-378" rx="120.43" ry="18"/>
<text text-anchor="middle" x="143.7" y="-374.5" font-family="Times New Roman,serif" font-size="15.00">Send Appeal to Prefecture</text>
</g>
<!-- 1739109151648&#45;&#45;1739109152080 -->
<g id="edge3" class="edge"><title>1739109151648&#45;&#45;1739109152080</title>
<path fill="none" stroke="black" d="M143.7,-431.697C143.7,-420.846 143.7,-406.917 143.7,-396.104"/>
</g>
<!-- 1739109152272 -->
<g id="node9" class="node"><title>1739109152272</title>
<ellipse fill="black" stroke="black" cx="284.7" cy="-378" rx="2.7" ry="2.7"/>
</g>
<!-- 1739109151360&#45;&#45;1739109152272 -->
<g id="edge5" class="edge"><title>1739109151360&#45;&#45;1739109152272</title>
<path fill="none" stroke="black" d="M325.903,-432.411C312.18,-414.622 291.614,-387.962 286.101,-380.816"/>
</g>
<!-- 1739109152368 -->
<g id="node10" class="node"><title>1739109152368</title>
<ellipse fill="none" stroke="black" cx="351.7" cy="-378" rx="45.7249" ry="18"/>
<text text-anchor="middle" x="351.7" y="-374.5" font-family="Times New Roman,serif" font-size="15.00">Payment</text>
</g>
<!-- 1739109151360&#45;&#45;1739109152368 -->
<g id="edge6" class="edge"><title>1739109151360&#45;&#45;1739109152368</title>
<path fill="none" stroke="black" d="M341.913,-431.697C343.929,-420.846 346.515,-406.917 348.523,-396.104"/>
</g>
<!-- 1739109151696 -->
<g id="node12" class="node"><title>1739109151696</title>
<ellipse fill="black" stroke="black" cx="418.7" cy="-378" rx="2.7" ry="2.7"/>
</g>
<!-- 1739109150832&#45;&#45;1739109151696 -->
<g id="edge8" class="edge"><title>1739109150832&#45;&#45;1739109151696</title>
<path fill="none" stroke="black" d="M427.795,-432.055C424.743,-414.252 420.22,-387.865 419.008,-380.796"/>
</g>
<!-- 1739109151792 -->
<g id="node13" class="node"><title>1739109151792</title>
<ellipse fill="none" stroke="black" cx="501.7" cy="-378" rx="61.6894" ry="18"/>
<text text-anchor="middle" x="501.7" y="-374.5" font-family="Times New Roman,serif" font-size="15.00">Add penalty</text>
</g>
<!-- 1739109150832&#45;&#45;1739109151792 -->
<g id="edge9" class="edge"><title>1739109150832&#45;&#45;1739109151792</title>
<path fill="none" stroke="black" d="M445.411,-434.496C456.947,-423.123 473.004,-407.292 485.017,-395.448"/>
</g>
<!-- 1739108731392 -->
<g id="node15" class="node"><title>1739108731392</title>
<ellipse fill="none" stroke="black" cx="484.7" cy="-522" rx="59.5207" ry="18"/>
<text text-anchor="middle" x="484.7" y="-518.5" font-family="Times New Roman,serif" font-size="15.00">Create Fine</text>
</g>
<!-- 1739108731440&#45;&#45;1739108731392 -->
<g id="edge13" class="edge"><title>1739108731440&#45;&#45;1739108731392</title>
<path fill="none" stroke="black" d="M533.551,-578.155C523.599,-566.918 509.922,-551.476 499.57,-539.789"/>
</g>
<!-- 1739108731776 -->
<g id="node16" class="node"><title>1739108731776</title>
<ellipse fill="none" stroke="black" cx="608.7" cy="-522" rx="46.6143" ry="18"/>
<text text-anchor="middle" x="608.7" y="-518.5" font-family="Times New Roman,serif" font-size="15.00">xor loop</text>
</g>
<!-- 1739108731440&#45;&#45;1739108731776 -->
<g id="edge41" class="edge"><title>1739108731440&#45;&#45;1739108731776</title>
<path fill="none" stroke="black" d="M559.849,-578.155C569.944,-566.757 583.87,-551.034 594.271,-539.29"/>
</g>
<!-- 1739108731824 -->
<g id="node44" class="node"><title>1739108731824</title>
<ellipse fill="none" stroke="black" cx="700.7" cy="-522" rx="27" ry="18"/>
<text text-anchor="middle" x="700.7" y="-518.5" font-family="Times New Roman,serif" font-size="15.00">xor</text>
</g>
<!-- 1739108731440&#45;&#45;1739108731824 -->
<g id="edge44" class="edge"><title>1739108731440&#45;&#45;1739108731824</title>
<path fill="none" stroke="black" d="M568.438,-583.119C597.788,-569.778 649.779,-546.146 679.073,-532.831"/>
</g>
<!-- 1739108730576 -->
<g id="node17" class="node"><title>1739108730576</title>
<ellipse fill="none" stroke="black" cx="608.7" cy="-450" rx="27" ry="18"/>
<text text-anchor="middle" x="608.7" y="-446.5" font-family="Times New Roman,serif" font-size="15.00">seq</text>
</g>
<!-- 1739108731776&#45;&#45;1739108730576 -->
<g id="edge39" class="edge"><title>1739108731776&#45;&#45;1739108730576</title>
<path fill="none" stroke="black" d="M608.7,-503.697C608.7,-492.846 608.7,-478.917 608.7,-468.104"/>
</g>
<!-- 1739107576656 -->
<g id="node43" class="node"><title>1739107576656</title>
<ellipse fill="black" stroke="black" cx="656.7" cy="-450" rx="2.7" ry="2.7"/>
</g>
<!-- 1739108731776&#45;&#45;1739107576656 -->
<g id="edge40" class="edge"><title>1739108731776&#45;&#45;1739107576656</title>
<path fill="none" stroke="black" d="M620.075,-504.411C632.274,-486.622 650.554,-459.962 655.455,-452.816"/>
</g>
<!-- 1739108723200 -->
<g id="node18" class="node"><title>1739108723200</title>
<ellipse fill="none" stroke="black" cx="608.7" cy="-378" rx="27" ry="18"/>
<text text-anchor="middle" x="608.7" y="-374.5" font-family="Times New Roman,serif" font-size="15.00">xor</text>
</g>
<!-- 1739108730576&#45;&#45;1739108723200 -->
<g id="edge16" class="edge"><title>1739108730576&#45;&#45;1739108723200</title>
<path fill="none" stroke="black" d="M608.7,-431.697C608.7,-420.846 608.7,-406.917 608.7,-396.104"/>
</g>
<!-- 1739108732112 -->
<g id="node21" class="node"><title>1739108732112</title>
<ellipse fill="none" stroke="black" cx="682.7" cy="-378" rx="27" ry="18"/>
<text text-anchor="middle" x="682.7" y="-374.5" font-family="Times New Roman,serif" font-size="15.00">xor</text>
</g>
<!-- 1739108730576&#45;&#45;1739108732112 -->
<g id="edge38" class="edge"><title>1739108730576&#45;&#45;1739108732112</title>
<path fill="none" stroke="black" d="M623.675,-434.834C636.514,-422.69 654.915,-405.283 667.747,-393.144"/>
</g>
<!-- 1739104093664 -->
<g id="node19" class="node"><title>1739104093664</title>
<ellipse fill="black" stroke="black" cx="534.7" cy="-306" rx="2.7" ry="2.7"/>
</g>
<!-- 1739108723200&#45;&#45;1739104093664 -->
<g id="edge14" class="edge"><title>1739108723200&#45;&#45;1739104093664</title>
<path fill="none" stroke="black" d="M593.725,-362.834C574.805,-344.937 543.804,-315.612 536.349,-308.56"/>
</g>
<!-- 1739108724448 -->
<g id="node20" class="node"><title>1739108724448</title>
<ellipse fill="none" stroke="black" cx="608.7" cy="-306" rx="52.6228" ry="18"/>
<text text-anchor="middle" x="608.7" y="-302.5" font-family="Times New Roman,serif" font-size="15.00">Send Fine</text>
</g>
<!-- 1739108723200&#45;&#45;1739108724448 -->
<g id="edge15" class="edge"><title>1739108723200&#45;&#45;1739108724448</title>
<path fill="none" stroke="black" d="M608.7,-359.697C608.7,-348.846 608.7,-334.917 608.7,-324.104"/>
</g>
<!-- 1739104092368 -->
<g id="node22" class="node"><title>1739104092368</title>
<ellipse fill="black" stroke="black" cx="682.7" cy="-306" rx="2.7" ry="2.7"/>
</g>
<!-- 1739108732112&#45;&#45;1739104092368 -->
<g id="edge17" class="edge"><title>1739108732112&#45;&#45;1739104092368</title>
<path fill="none" stroke="black" d="M682.7,-359.697C682.7,-341.883 682.7,-315.769 682.7,-308.776"/>
</g>
<!-- 1739104093232 -->
<g id="node23" class="node"><title>1739104093232</title>
<ellipse fill="none" stroke="black" cx="730.7" cy="-306" rx="27" ry="18"/>
<text text-anchor="middle" x="730.7" y="-302.5" font-family="Times New Roman,serif" font-size="15.00">seq</text>
</g>
<!-- 1739108732112&#45;&#45;1739104093232 -->
<g id="edge37" class="edge"><title>1739108732112&#45;&#45;1739104093232</title>
<path fill="none" stroke="black" d="M693.592,-361.116C701.447,-349.66 712.006,-334.263 719.851,-322.821"/>
</g>
<!-- 1739104092320 -->
<g id="node24" class="node"><title>1739104092320</title>
<ellipse fill="none" stroke="black" cx="653.7" cy="-234" rx="107.914" ry="18"/>
<text text-anchor="middle" x="653.7" y="-230.5" font-family="Times New Roman,serif" font-size="15.00">Insert Fine Notification</text>
</g>
<!-- 1739104093232&#45;&#45;1739104092320 -->
<g id="edge18" class="edge"><title>1739104093232&#45;&#45;1739104092320</title>
<path fill="none" stroke="black" d="M715.118,-290.834C702.726,-279.569 685.352,-263.775 672.244,-251.859"/>
</g>
<!-- 1739104092464 -->
<g id="node25" class="node"><title>1739104092464</title>
<ellipse fill="none" stroke="black" cx="806.7" cy="-234" rx="27" ry="18"/>
<text text-anchor="middle" x="806.7" y="-230.5" font-family="Times New Roman,serif" font-size="15.00">xor</text>
</g>
<!-- 1739104093232&#45;&#45;1739104092464 -->
<g id="edge36" class="edge"><title>1739104093232&#45;&#45;1739104092464</title>
<path fill="none" stroke="black" d="M746.08,-290.834C759.265,-278.69 778.164,-261.283 791.343,-249.144"/>
</g>
<!-- 1739104092272 -->
<g id="node26" class="node"><title>1739104092272</title>
<ellipse fill="black" stroke="black" cx="707.7" cy="-162" rx="2.7" ry="2.7"/>
</g>
<!-- 1739104092464&#45;&#45;1739104092272 -->
<g id="edge19" class="edge"><title>1739104092464&#45;&#45;1739104092272</title>
<path fill="none" stroke="black" d="M788.542,-220.161C763.087,-202.163 718.849,-170.883 709.476,-164.256"/>
</g>
<!-- 1739109067840 -->
<g id="node27" class="node"><title>1739109067840</title>
<ellipse fill="none" stroke="black" cx="806.7" cy="-162" rx="78.5434" ry="18"/>
<text text-anchor="middle" x="806.7" y="-158.5" font-family="Times New Roman,serif" font-size="15.00">Appeal to Judge</text>
</g>
<!-- 1739104092464&#45;&#45;1739109067840 -->
<g id="edge20" class="edge"><title>1739104092464&#45;&#45;1739109067840</title>
<path fill="none" stroke="black" d="M806.7,-215.697C806.7,-204.846 806.7,-190.917 806.7,-180.104"/>
</g>
<!-- 1739109067936 -->
<g id="node28" class="node"><title>1739109067936</title>
<ellipse fill="none" stroke="black" cx="930.7" cy="-162" rx="27" ry="18"/>
<text text-anchor="middle" x="930.7" y="-158.5" font-family="Times New Roman,serif" font-size="15.00">seq</text>
</g>
<!-- 1739104092464&#45;&#45;1739109067936 -->
<g id="edge35" class="edge"><title>1739104092464&#45;&#45;1739109067936</title>
<path fill="none" stroke="black" d="M826.623,-221.753C849.762,-208.691 887.708,-187.27 910.827,-174.219"/>
</g>
<!-- 1739109068176 -->
<g id="node29" class="node"><title>1739109068176</title>
<ellipse fill="none" stroke="black" cx="492.7" cy="-90" rx="144.571" ry="18"/>
<text text-anchor="middle" x="492.7" y="-86.5" font-family="Times New Roman,serif" font-size="15.00">Insert Date Appeal to Prefecture</text>
</g>
<!-- 1739109067936&#45;&#45;1739109068176 -->
<g id="edge21" class="edge"><title>1739109067936&#45;&#45;1739109068176</title>
<path fill="none" stroke="black" d="M904.613,-156.831C841.628,-146.765 678.999,-120.774 577.946,-104.624"/>
</g>
<!-- 1739109068272 -->
<g id="node30" class="node"><title>1739109068272</title>
<ellipse fill="none" stroke="black" cx="682.7" cy="-90" rx="27" ry="18"/>
<text text-anchor="middle" x="682.7" y="-86.5" font-family="Times New Roman,serif" font-size="15.00">xor</text>
</g>
<!-- 1739109067936&#45;&#45;1739109068272 -->
<g id="edge24" class="edge"><title>1739109067936&#45;&#45;1739109068272</title>
<path fill="none" stroke="black" d="M906.014,-154.032C858.478,-140.615 754.744,-111.335 707.286,-97.9396"/>
</g>
<!-- 1739109068464 -->
<g id="node33" class="node"><title>1739109068464</title>
<ellipse fill="none" stroke="black" cx="847.7" cy="-90" rx="120.43" ry="18"/>
<text text-anchor="middle" x="847.7" y="-86.5" font-family="Times New Roman,serif" font-size="15.00">Send Appeal to Prefecture</text>
</g>
<!-- 1739109067936&#45;&#45;1739109068464 -->
<g id="edge25" class="edge"><title>1739109067936&#45;&#45;1739109068464</title>
<path fill="none" stroke="black" d="M914.302,-147.17C900.885,-135.855 881.86,-119.81 867.577,-107.764"/>
</g>
<!-- 1739109068032 -->
<g id="node34" class="node"><title>1739109068032</title>
<ellipse fill="none" stroke="black" cx="1012.7" cy="-90" rx="27" ry="18"/>
<text text-anchor="middle" x="1012.7" y="-86.5" font-family="Times New Roman,serif" font-size="15.00">xor</text>
</g>
<!-- 1739109067936&#45;&#45;1739109068032 -->
<g id="edge28" class="edge"><title>1739109067936&#45;&#45;1739109068032</title>
<path fill="none" stroke="black" d="M946.901,-147.17C961.37,-134.819 982.439,-116.832 996.812,-104.563"/>
</g>
<!-- 1739109068752 -->
<g id="node37" class="node"><title>1739109068752</title>
<ellipse fill="none" stroke="black" cx="1192.7" cy="-90" rx="27" ry="18"/>
<text text-anchor="middle" x="1192.7" y="-86.5" font-family="Times New Roman,serif" font-size="15.00">xor</text>
</g>
<!-- 1739109067936&#45;&#45;1739109068752 -->
<g id="edge31" class="edge"><title>1739109067936&#45;&#45;1739109068752</title>
<path fill="none" stroke="black" d="M955.348,-154.415C1005.28,-141.073 1117.89,-110.988 1167.93,-97.6189"/>
</g>
<!-- 1739109150784 -->
<g id="node40" class="node"><title>1739109150784</title>
<ellipse fill="none" stroke="black" cx="1530.7" cy="-90" rx="27" ry="18"/>
<text text-anchor="middle" x="1530.7" y="-86.5" font-family="Times New Roman,serif" font-size="15.00">xor</text>
</g>
<!-- 1739109067936&#45;&#45;1739109150784 -->
<g id="edge34" class="edge"><title>1739109067936&#45;&#45;1739109150784</title>
<path fill="none" stroke="black" d="M957.255,-157.902C1056.48,-146.326 1404.84,-105.684 1504.11,-94.102"/>
</g>
<!-- 1739109068512 -->
<g id="node31" class="node"><title>1739109068512</title>
<ellipse fill="black" stroke="black" cx="612.7" cy="-18" rx="2.7" ry="2.7"/>
</g>
<!-- 1739109068272&#45;&#45;1739109068512 -->
<g id="edge22" class="edge"><title>1739109068272&#45;&#45;1739109068512</title>
<path fill="none" stroke="black" d="M668.196,-74.496C650.255,-56.5555 621.222,-27.5217 614.244,-20.5436"/>
</g>
<!-- 1739109068608 -->
<g id="node32" class="node"><title>1739109068608</title>
<ellipse fill="none" stroke="black" cx="695.7" cy="-18" rx="61.6894" ry="18"/>
<text text-anchor="middle" x="695.7" y="-14.5" font-family="Times New Roman,serif" font-size="15.00">Add penalty</text>
</g>
<!-- 1739109068272&#45;&#45;1739109068608 -->
<g id="edge23" class="edge"><title>1739109068272&#45;&#45;1739109068608</title>
<path fill="none" stroke="black" d="M685.847,-72.055C687.861,-61.2111 690.466,-47.183 692.492,-36.2753"/>
</g>
<!-- 1739109150880 -->
<g id="node35" class="node"><title>1739109150880</title>
<ellipse fill="black" stroke="black" cx="804.7" cy="-18" rx="2.7" ry="2.7"/>
</g>
<!-- 1739109068032&#45;&#45;1739109150880 -->
<g id="edge26" class="edge"><title>1739109068032&#45;&#45;1739109150880</title>
<path fill="none" stroke="black" d="M988.84,-80.9701C938.473,-64.0198 824.478,-25.6561 806.974,-19.7652"/>
</g>
<!-- 1739109150976 -->
<g id="node36" class="node"><title>1739109150976</title>
<ellipse fill="none" stroke="black" cx="998.7" cy="-18" rx="173.941" ry="18"/>
<text text-anchor="middle" x="998.7" y="-14.5" font-family="Times New Roman,serif" font-size="15.00">Receive Result Appeal from Prefecture</text>
</g>
<!-- 1739109068032&#45;&#45;1739109150976 -->
<g id="edge27" class="edge"><title>1739109068032&#45;&#45;1739109150976</title>
<path fill="none" stroke="black" d="M1009.31,-72.055C1007.14,-61.2111 1004.34,-47.183 1002.16,-36.2753"/>
</g>
<!-- 1739109151168 -->
<g id="node38" class="node"><title>1739109151168</title>
<ellipse fill="black" stroke="black" cx="1192.7" cy="-18" rx="2.7" ry="2.7"/>
</g>
<!-- 1739109068752&#45;&#45;1739109151168 -->
<g id="edge29" class="edge"><title>1739109068752&#45;&#45;1739109151168</title>
<path fill="none" stroke="black" d="M1192.7,-71.6966C1192.7,-53.8826 1192.7,-27.7686 1192.7,-20.7764"/>
</g>
<!-- 1739109151264 -->
<g id="node39" class="node"><title>1739109151264</title>
<ellipse fill="none" stroke="black" cx="1361.7" cy="-18" rx="148.91" ry="18"/>
<text text-anchor="middle" x="1361.7" y="-14.5" font-family="Times New Roman,serif" font-size="15.00">Notify Result Appeal to Offender</text>
</g>
<!-- 1739109068752&#45;&#45;1739109151264 -->
<g id="edge30" class="edge"><title>1739109068752&#45;&#45;1739109151264</title>
<path fill="none" stroke="black" d="M1215.14,-79.7045C1242.35,-68.4359 1288.68,-49.2446 1321.97,-35.4544"/>
</g>
<!-- 1739109151456 -->
<g id="node41" class="node"><title>1739109151456</title>
<ellipse fill="black" stroke="black" cx="1530.7" cy="-18" rx="2.7" ry="2.7"/>
</g>
<!-- 1739109150784&#45;&#45;1739109151456 -->
<g id="edge32" class="edge"><title>1739109150784&#45;&#45;1739109151456</title>
<path fill="none" stroke="black" d="M1530.7,-71.6966C1530.7,-53.8826 1530.7,-27.7686 1530.7,-20.7764"/>
</g>
<!-- 1739109151552 -->
<g id="node42" class="node"><title>1739109151552</title>
<ellipse fill="none" stroke="black" cx="1597.7" cy="-18" rx="45.7249" ry="18"/>
<text text-anchor="middle" x="1597.7" y="-14.5" font-family="Times New Roman,serif" font-size="15.00">Payment</text>
</g>
<!-- 1739109150784&#45;&#45;1739109151552 -->
<g id="edge33" class="edge"><title>1739109150784&#45;&#45;1739109151552</title>
<path fill="none" stroke="black" d="M1544.58,-74.496C1555.54,-63.0429 1570.83,-47.0688 1582.2,-35.1982"/>
</g>
<!-- 1739104093424 -->
<g id="node45" class="node"><title>1739104093424</title>
<ellipse fill="black" stroke="black" cx="690.7" cy="-450" rx="2.7" ry="2.7"/>
</g>
<!-- 1739108731824&#45;&#45;1739104093424 -->
<g id="edge42" class="edge"><title>1739108731824&#45;&#45;1739104093424</title>
<path fill="none" stroke="black" d="M698.279,-504.055C695.736,-486.252 691.966,-459.865 690.957,-452.796"/>
</g>
<!-- 1739104093904 -->
<g id="node46" class="node"><title>1739104093904</title>
<ellipse fill="none" stroke="black" cx="832.7" cy="-450" rx="120.819" ry="18"/>
<text text-anchor="middle" x="832.7" y="-446.5" font-family="Times New Roman,serif" font-size="15.00">Send for Credit Collection</text>
</g>
<!-- 1739108731824&#45;&#45;1739104093904 -->
<g id="edge43" class="edge"><title>1739108731824&#45;&#45;1739104093904</title>
<path fill="none" stroke="black" d="M721.325,-510.063C742.788,-498.681 776.659,-480.719 801.418,-467.589"/>
</g>
</g>
</svg>
