<?xml version="1.0" encoding="UTF-8" standalone="no"?>
<!DOCTYPE svg PUBLIC "-//W3C//DTD SVG 1.1//EN"
 "http://www.w3.org/Graphics/SVG/1.1/DTD/svg11.dtd">
<!-- Generated by graphviz version 2.38.0 (20140413.2041)
 -->
<!-- Title: pt Pages: 1 -->
<svg width="1982pt" height="620pt"
 viewBox="0.00 0.00 1981.56 620.00" xmlns="http://www.w3.org/2000/svg" xmlns:xlink="http://www.w3.org/1999/xlink">
<g id="graph0" class="graph" transform="scale(1 1) rotate(0) translate(4 616)">
<title>pt</title>
<!-- 1739138938864 -->
<g id="node1" class="node"><title>1739138938864</title>
<ellipse fill="none" stroke="black" cx="395.7" cy="-594" rx="27" ry="18"/>
<text text-anchor="middle" x="395.7" y="-590.5" font-family="Times New Roman,serif" font-size="15.00">seq</text>
</g>
<!-- 1739138939008 -->
<g id="node2" class="node"><title>1739138939008</title>
<ellipse fill="none" stroke="black" cx="271.7" cy="-522" rx="59.5207" ry="18"/>
<text text-anchor="middle" x="271.7" y="-518.5" font-family="Times New Roman,serif" font-size="15.00">Create Fine</text>
</g>
<!-- 1739138938864&#45;&#45;1739138939008 -->
<g id="edge1" class="edge"><title>1739138938864&#45;&#45;1739138939008</title>
<path fill="none" stroke="black" d="M375.777,-581.753C354.828,-569.927 321.744,-551.251 298.513,-538.136"/>
</g>
<!-- 1739138939248 -->
<g id="node3" class="node"><title>1739138939248</title>
<ellipse fill="none" stroke="black" cx="395.7" cy="-522" rx="46.6143" ry="18"/>
<text text-anchor="middle" x="395.7" y="-518.5" font-family="Times New Roman,serif" font-size="15.00">xor loop</text>
</g>
<!-- 1739138938864&#45;&#45;1739138939248 -->
<g id="edge29" class="edge"><title>1739138938864&#45;&#45;1739138939248</title>
<path fill="none" stroke="black" d="M395.7,-575.697C395.7,-564.846 395.7,-550.917 395.7,-540.104"/>
</g>
<!-- 1739138939200 -->
<g id="node31" class="node"><title>1739138939200</title>
<ellipse fill="none" stroke="black" cx="530.7" cy="-522" rx="27" ry="18"/>
<text text-anchor="middle" x="530.7" y="-518.5" font-family="Times New Roman,serif" font-size="15.00">xor</text>
</g>
<!-- 1739138938864&#45;&#45;1739138939200 -->
<g id="edge53" class="edge"><title>1739138938864&#45;&#45;1739138939200</title>
<path fill="none" stroke="black" d="M416.498,-582.216C441.941,-569.023 484.747,-546.827 510.1,-533.681"/>
</g>
<!-- 1739138939392 -->
<g id="node4" class="node"><title>1739138939392</title>
<ellipse fill="none" stroke="black" cx="322.7" cy="-450" rx="27" ry="18"/>
<text text-anchor="middle" x="322.7" y="-446.5" font-family="Times New Roman,serif" font-size="15.00">seq</text>
</g>
<!-- 1739138939248&#45;&#45;1739138939392 -->
<g id="edge27" class="edge"><title>1739138939248&#45;&#45;1739138939392</title>
<path fill="none" stroke="black" d="M379.135,-505.116C366.683,-493.176 349.767,-476.954 337.71,-465.393"/>
</g>
<!-- 1739138939632 -->
<g id="node30" class="node"><title>1739138939632</title>
<ellipse fill="black" stroke="black" cx="395.7" cy="-450" rx="2.7" ry="2.7"/>
</g>
<!-- 1739138939248&#45;&#45;1739138939632 -->
<g id="edge28" class="edge"><title>1739138939248&#45;&#45;1739138939632</title>
<path fill="none" stroke="black" d="M395.7,-503.697C395.7,-485.883 395.7,-459.769 395.7,-452.776"/>
</g>
<!-- 1739138939728 -->
<g id="node5" class="node"><title>1739138939728</title>
<ellipse fill="none" stroke="black" cx="76.7" cy="-378" rx="27" ry="18"/>
<text text-anchor="middle" x="76.7" y="-374.5" font-family="Times New Roman,serif" font-size="15.00">xor</text>
</g>
<!-- 1739138939392&#45;&#45;1739138939728 -->
<g id="edge4" class="edge"><title>1739138939392&#45;&#45;1739138939728</title>
<path fill="none" stroke="black" d="M298.213,-442.032C251.06,-428.615 148.163,-399.335 101.088,-385.94"/>
</g>
<!-- 1739138939920 -->
<g id="node8" class="node"><title>1739138939920</title>
<ellipse fill="none" stroke="black" cx="319.7" cy="-378" rx="27" ry="18"/>
<text text-anchor="middle" x="319.7" y="-374.5" font-family="Times New Roman,serif" font-size="15.00">xor</text>
</g>
<!-- 1739138939392&#45;&#45;1739138939920 -->
<g id="edge15" class="edge"><title>1739138939392&#45;&#45;1739138939920</title>
<path fill="none" stroke="black" d="M321.958,-431.697C321.493,-420.846 320.896,-406.917 320.433,-396.104"/>
</g>
<!-- 1739138939776 -->
<g id="node19" class="node"><title>1739138939776</title>
<ellipse fill="none" stroke="black" cx="556.7" cy="-378" rx="27" ry="18"/>
<text text-anchor="middle" x="556.7" y="-374.5" font-family="Times New Roman,serif" font-size="15.00">xor</text>
</g>
<!-- 1739138939392&#45;&#45;1739138939776 -->
<g id="edge26" class="edge"><title>1739138939392&#45;&#45;1739138939776</title>
<path fill="none" stroke="black" d="M346.861,-441.772C391.701,-428.359 487.315,-399.756 532.32,-386.293"/>
</g>
<!-- 1739138939872 -->
<g id="node6" class="node"><title>1739138939872</title>
<ellipse fill="black" stroke="black" cx="2.7" cy="-306" rx="2.7" ry="2.7"/>
</g>
<!-- 1739138939728&#45;&#45;1739138939872 -->
<g id="edge2" class="edge"><title>1739138939728&#45;&#45;1739138939872</title>
<path fill="none" stroke="black" d="M61.725,-362.834C42.8049,-344.937 11.8039,-315.612 4.34935,-308.56"/>
</g>
<!-- 1739138939824 -->
<g id="node7" class="node"><title>1739138939824</title>
<ellipse fill="none" stroke="black" cx="76.7" cy="-306" rx="52.6228" ry="18"/>
<text text-anchor="middle" x="76.7" y="-302.5" font-family="Times New Roman,serif" font-size="15.00">Send Fine</text>
</g>
<!-- 1739138939728&#45;&#45;1739138939824 -->
<g id="edge3" class="edge"><title>1739138939728&#45;&#45;1739138939824</title>
<path fill="none" stroke="black" d="M76.7,-359.697C76.7,-348.846 76.7,-334.917 76.7,-324.104"/>
</g>
<!-- 1739138940208 -->
<g id="node9" class="node"><title>1739138940208</title>
<ellipse fill="black" stroke="black" cx="150.7" cy="-306" rx="2.7" ry="2.7"/>
</g>
<!-- 1739138939920&#45;&#45;1739138940208 -->
<g id="edge5" class="edge"><title>1739138939920&#45;&#45;1739138940208</title>
<path fill="none" stroke="black" d="M297.258,-367.705C255.237,-350.3 167.585,-313.994 152.83,-307.882"/>
</g>
<!-- 1739138940304 -->
<g id="node10" class="node"><title>1739138940304</title>
<ellipse fill="none" stroke="black" cx="315.7" cy="-306" rx="144.571" ry="18"/>
<text text-anchor="middle" x="315.7" y="-302.5" font-family="Times New Roman,serif" font-size="15.00">Insert Date Appeal to Prefecture</text>
</g>
<!-- 1739138939920&#45;&#45;1739138940304 -->
<g id="edge6" class="edge"><title>1739138939920&#45;&#45;1739138940304</title>
<path fill="none" stroke="black" d="M318.711,-359.697C318.091,-348.846 317.295,-334.917 316.677,-324.104"/>
</g>
<!-- 1739138940400 -->
<g id="node11" class="node"><title>1739138940400</title>
<ellipse fill="none" stroke="black" cx="505.7" cy="-306" rx="27" ry="18"/>
<text text-anchor="middle" x="505.7" y="-302.5" font-family="Times New Roman,serif" font-size="15.00">seq</text>
</g>
<!-- 1739138939920&#45;&#45;1739138940400 -->
<g id="edge14" class="edge"><title>1739138939920&#45;&#45;1739138940400</title>
<path fill="none" stroke="black" d="M342.881,-368.276C378.718,-354.789 447.152,-329.034 482.811,-315.614"/>
</g>
<!-- 1739138940544 -->
<g id="node12" class="node"><title>1739138940544</title>
<ellipse fill="none" stroke="black" cx="275.7" cy="-234" rx="27" ry="18"/>
<text text-anchor="middle" x="275.7" y="-230.5" font-family="Times New Roman,serif" font-size="15.00">xor</text>
</g>
<!-- 1739138940400&#45;&#45;1739138940544 -->
<g id="edge9" class="edge"><title>1739138940400&#45;&#45;1739138940544</title>
<path fill="none" stroke="black" d="M481.521,-297.641C437.347,-284.197 344.09,-255.814 299.9,-242.365"/>
</g>
<!-- 1739138940784 -->
<g id="node15" class="node"><title>1739138940784</title>
<ellipse fill="none" stroke="black" cx="502.7" cy="-234" rx="27" ry="18"/>
<text text-anchor="middle" x="502.7" y="-230.5" font-family="Times New Roman,serif" font-size="15.00">xor</text>
</g>
<!-- 1739138940400&#45;&#45;1739138940784 -->
<g id="edge13" class="edge"><title>1739138940400&#45;&#45;1739138940784</title>
<path fill="none" stroke="black" d="M504.958,-287.697C504.493,-276.846 503.896,-262.917 503.433,-252.104"/>
</g>
<!-- 1739143627056 -->
<g id="node13" class="node"><title>1739143627056</title>
<ellipse fill="black" stroke="black" cx="147.7" cy="-162" rx="2.7" ry="2.7"/>
</g>
<!-- 1739138940544&#45;&#45;1739143627056 -->
<g id="edge7" class="edge"><title>1739138940544&#45;&#45;1739143627056</title>
<path fill="none" stroke="black" d="M255.418,-221.908C222.991,-204.175 161.882,-170.756 149.804,-164.151"/>
</g>
<!-- 1739143627008 -->
<g id="node14" class="node"><title>1739143627008</title>
<ellipse fill="none" stroke="black" cx="275.7" cy="-162" rx="107.914" ry="18"/>
<text text-anchor="middle" x="275.7" y="-158.5" font-family="Times New Roman,serif" font-size="15.00">Insert Fine Notification</text>
</g>
<!-- 1739138940544&#45;&#45;1739143627008 -->
<g id="edge8" class="edge"><title>1739138940544&#45;&#45;1739143627008</title>
<path fill="none" stroke="black" d="M275.7,-215.697C275.7,-204.846 275.7,-190.917 275.7,-180.104"/>
</g>
<!-- 1739143627488 -->
<g id="node16" class="node"><title>1739143627488</title>
<ellipse fill="black" stroke="black" cx="403.7" cy="-162" rx="2.7" ry="2.7"/>
</g>
<!-- 1739138940784&#45;&#45;1739143627488 -->
<g id="edge10" class="edge"><title>1739138940784&#45;&#45;1739143627488</title>
<path fill="none" stroke="black" d="M484.542,-220.161C459.087,-202.163 414.849,-170.883 405.476,-164.256"/>
</g>
<!-- 1739143627584 -->
<g id="node17" class="node"><title>1739143627584</title>
<ellipse fill="none" stroke="black" cx="502.7" cy="-162" rx="78.5434" ry="18"/>
<text text-anchor="middle" x="502.7" y="-158.5" font-family="Times New Roman,serif" font-size="15.00">Appeal to Judge</text>
</g>
<!-- 1739138940784&#45;&#45;1739143627584 -->
<g id="edge11" class="edge"><title>1739138940784&#45;&#45;1739143627584</title>
<path fill="none" stroke="black" d="M502.7,-215.697C502.7,-204.846 502.7,-190.917 502.7,-180.104"/>
</g>
<!-- 1739143627680 -->
<g id="node18" class="node"><title>1739143627680</title>
<ellipse fill="none" stroke="black" cx="644.7" cy="-162" rx="45.7249" ry="18"/>
<text text-anchor="middle" x="644.7" y="-158.5" font-family="Times New Roman,serif" font-size="15.00">Payment</text>
</g>
<!-- 1739138940784&#45;&#45;1739143627680 -->
<g id="edge12" class="edge"><title>1739138940784&#45;&#45;1739143627680</title>
<path fill="none" stroke="black" d="M523.959,-222.52C548.794,-210.277 589.948,-189.99 617.197,-176.558"/>
</g>
<!-- 1739138939488 -->
<g id="node20" class="node"><title>1739138939488</title>
<ellipse fill="black" stroke="black" cx="556.7" cy="-306" rx="2.7" ry="2.7"/>
</g>
<!-- 1739138939776&#45;&#45;1739138939488 -->
<g id="edge16" class="edge"><title>1739138939776&#45;&#45;1739138939488</title>
<path fill="none" stroke="black" d="M556.7,-359.697C556.7,-341.883 556.7,-315.769 556.7,-308.776"/>
</g>
<!-- 1739143626864 -->
<g id="node21" class="node"><title>1739143626864</title>
<ellipse fill="none" stroke="black" cx="609.7" cy="-306" rx="27" ry="18"/>
<text text-anchor="middle" x="609.7" y="-302.5" font-family="Times New Roman,serif" font-size="15.00">and</text>
</g>
<!-- 1739138939776&#45;&#45;1739143626864 -->
<g id="edge25" class="edge"><title>1739138939776&#45;&#45;1739143626864</title>
<path fill="none" stroke="black" d="M568.462,-361.465C577.245,-349.865 589.195,-334.082 597.97,-322.492"/>
</g>
<!-- 1739143627824 -->
<g id="node22" class="node"><title>1739143627824</title>
<ellipse fill="none" stroke="black" cx="609.7" cy="-234" rx="61.6894" ry="18"/>
<text text-anchor="middle" x="609.7" y="-230.5" font-family="Times New Roman,serif" font-size="15.00">Add penalty</text>
</g>
<!-- 1739143626864&#45;&#45;1739143627824 -->
<g id="edge17" class="edge"><title>1739143626864&#45;&#45;1739143627824</title>
<path fill="none" stroke="black" d="M609.7,-287.697C609.7,-276.846 609.7,-262.917 609.7,-252.104"/>
</g>
<!-- 1739143627920 -->
<g id="node23" class="node"><title>1739143627920</title>
<ellipse fill="none" stroke="black" cx="716.7" cy="-234" rx="27" ry="18"/>
<text text-anchor="middle" x="716.7" y="-230.5" font-family="Times New Roman,serif" font-size="15.00">xor</text>
</g>
<!-- 1739143626864&#45;&#45;1739143627920 -->
<g id="edge24" class="edge"><title>1739143626864&#45;&#45;1739143627920</title>
<path fill="none" stroke="black" d="M628.338,-292.807C647.857,-280.037 678.343,-260.093 697.917,-247.288"/>
</g>
<!-- 1739143628160 -->
<g id="node24" class="node"><title>1739143628160</title>
<ellipse fill="black" stroke="black" cx="711.7" cy="-162" rx="2.7" ry="2.7"/>
</g>
<!-- 1739143627920&#45;&#45;1739143628160 -->
<g id="edge18" class="edge"><title>1739143627920&#45;&#45;1739143628160</title>
<path fill="none" stroke="black" d="M715.464,-215.697C714.192,-197.883 712.326,-171.769 711.827,-164.776"/>
</g>
<!-- 1739143628256 -->
<g id="node25" class="node"><title>1739143628256</title>
<ellipse fill="none" stroke="black" cx="759.7" cy="-162" rx="27" ry="18"/>
<text text-anchor="middle" x="759.7" y="-158.5" font-family="Times New Roman,serif" font-size="15.00">seq</text>
</g>
<!-- 1739143627920&#45;&#45;1739143628256 -->
<g id="edge23" class="edge"><title>1739143627920&#45;&#45;1739143628256</title>
<path fill="none" stroke="black" d="M726.457,-217.116C733.495,-205.66 742.953,-190.263 749.981,-178.821"/>
</g>
<!-- 1739143628496 -->
<g id="node26" class="node"><title>1739143628496</title>
<ellipse fill="none" stroke="black" cx="664.7" cy="-90" rx="144.571" ry="18"/>
<text text-anchor="middle" x="664.7" y="-86.5" font-family="Times New Roman,serif" font-size="15.00">Insert Date Appeal to Prefecture</text>
</g>
<!-- 1739143628256&#45;&#45;1739143628496 -->
<g id="edge19" class="edge"><title>1739143628256&#45;&#45;1739143628496</title>
<path fill="none" stroke="black" d="M742.276,-148.161C726.956,-136.873 704.545,-120.36 687.746,-107.981"/>
</g>
<!-- 1739143628592 -->
<g id="node27" class="node"><title>1739143628592</title>
<ellipse fill="none" stroke="black" cx="854.7" cy="-90" rx="27" ry="18"/>
<text text-anchor="middle" x="854.7" y="-86.5" font-family="Times New Roman,serif" font-size="15.00">xor</text>
</g>
<!-- 1739143628256&#45;&#45;1739143628592 -->
<g id="edge22" class="edge"><title>1739143628256&#45;&#45;1739143628592</title>
<path fill="none" stroke="black" d="M777.124,-148.161C794.158,-135.61 819.958,-116.599 837.064,-103.995"/>
</g>
<!-- 1739143628880 -->
<g id="node28" class="node"><title>1739143628880</title>
<ellipse fill="black" stroke="black" cx="783.7" cy="-18" rx="2.7" ry="2.7"/>
</g>
<!-- 1739143628592&#45;&#45;1739143628880 -->
<g id="edge20" class="edge"><title>1739143628592&#45;&#45;1739143628880</title>
<path fill="none" stroke="black" d="M839.989,-74.496C821.792,-56.5555 792.343,-27.5217 785.266,-20.5436"/>
</g>
<!-- 1739143628928 -->
<g id="node29" class="node"><title>1739143628928</title>
<ellipse fill="none" stroke="black" cx="924.7" cy="-18" rx="120.43" ry="18"/>
<text text-anchor="middle" x="924.7" y="-14.5" font-family="Times New Roman,serif" font-size="15.00">Send Appeal to Prefecture</text>
</g>
<!-- 1739143628592&#45;&#45;1739143628928 -->
<g id="edge21" class="edge"><title>1739143628592&#45;&#45;1739143628928</title>
<path fill="none" stroke="black" d="M869.204,-74.496C880.417,-63.2831 895.963,-47.737 907.749,-35.9506"/>
</g>
<!-- 1739143628688 -->
<g id="node32" class="node"><title>1739143628688</title>
<ellipse fill="black" stroke="black" cx="430.7" cy="-450" rx="2.7" ry="2.7"/>
</g>
<!-- 1739138939200&#45;&#45;1739143628688 -->
<g id="edge30" class="edge"><title>1739138939200&#45;&#45;1739143628688</title>
<path fill="none" stroke="black" d="M512.822,-508.485C487.204,-490.553 442.078,-458.965 432.513,-452.269"/>
</g>
<!-- 1739143627344 -->
<g id="node33" class="node"><title>1739143627344</title>
<ellipse fill="none" stroke="black" cx="572.7" cy="-450" rx="120.819" ry="18"/>
<text text-anchor="middle" x="572.7" y="-446.5" font-family="Times New Roman,serif" font-size="15.00">Send for Credit Collection</text>
</g>
<!-- 1739138939200&#45;&#45;1739143627344 -->
<g id="edge31" class="edge"><title>1739138939200&#45;&#45;1739143627344</title>
<path fill="none" stroke="black" d="M540.23,-505.116C546.814,-494.144 555.566,-479.557 562.325,-468.292"/>
</g>
<!-- 1739143627872 -->
<g id="node34" class="node"><title>1739143627872</title>
<ellipse fill="none" stroke="black" cx="744.7" cy="-450" rx="27" ry="18"/>
<text text-anchor="middle" x="744.7" y="-446.5" font-family="Times New Roman,serif" font-size="15.00">seq</text>
</g>
<!-- 1739138939200&#45;&#45;1739143627872 -->
<g id="edge52" class="edge"><title>1739138939200&#45;&#45;1739143627872</title>
<path fill="none" stroke="black" d="M554.419,-513.241C595.555,-499.786 679.665,-472.273 720.874,-458.793"/>
</g>
<!-- 1739143627776 -->
<g id="node35" class="node"><title>1739143627776</title>
<ellipse fill="none" stroke="black" cx="744.7" cy="-378" rx="120.43" ry="18"/>
<text text-anchor="middle" x="744.7" y="-374.5" font-family="Times New Roman,serif" font-size="15.00">Send Appeal to Prefecture</text>
</g>
<!-- 1739143627872&#45;&#45;1739143627776 -->
<g id="edge32" class="edge"><title>1739143627872&#45;&#45;1739143627776</title>
<path fill="none" stroke="black" d="M744.7,-431.697C744.7,-420.846 744.7,-406.917 744.7,-396.104"/>
</g>
<!-- 1739143628400 -->
<g id="node36" class="node"><title>1739143628400</title>
<ellipse fill="none" stroke="black" cx="955.7" cy="-378" rx="27" ry="18"/>
<text text-anchor="middle" x="955.7" y="-374.5" font-family="Times New Roman,serif" font-size="15.00">xor</text>
</g>
<!-- 1739143627872&#45;&#45;1739143628400 -->
<g id="edge51" class="edge"><title>1739143627872&#45;&#45;1739143628400</title>
<path fill="none" stroke="black" d="M768.494,-441.106C809.126,-427.626 891.42,-400.325 931.993,-386.865"/>
</g>
<!-- 1739143629024 -->
<g id="node37" class="node"><title>1739143629024</title>
<ellipse fill="black" stroke="black" cx="955.7" cy="-306" rx="2.7" ry="2.7"/>
</g>
<!-- 1739143628400&#45;&#45;1739143629024 -->
<g id="edge33" class="edge"><title>1739143628400&#45;&#45;1739143629024</title>
<path fill="none" stroke="black" d="M955.7,-359.697C955.7,-341.883 955.7,-315.769 955.7,-308.776"/>
</g>
<!-- 1739143629120 -->
<g id="node38" class="node"><title>1739143629120</title>
<ellipse fill="none" stroke="black" cx="1026.7" cy="-306" rx="27" ry="18"/>
<text text-anchor="middle" x="1026.7" y="-302.5" font-family="Times New Roman,serif" font-size="15.00">seq</text>
</g>
<!-- 1739143628400&#45;&#45;1739143629120 -->
<g id="edge50" class="edge"><title>1739143628400&#45;&#45;1739143629120</title>
<path fill="none" stroke="black" d="M970.411,-362.496C982.597,-350.482 999.827,-333.494 1012.01,-321.485"/>
</g>
<!-- 1739143629456 -->
<g id="node39" class="node"><title>1739143629456</title>
<ellipse fill="none" stroke="black" cx="807.7" cy="-234" rx="27" ry="18"/>
<text text-anchor="middle" x="807.7" y="-230.5" font-family="Times New Roman,serif" font-size="15.00">xor</text>
</g>
<!-- 1739143629120&#45;&#45;1739143629456 -->
<g id="edge36" class="edge"><title>1739143629120&#45;&#45;1739143629456</title>
<path fill="none" stroke="black" d="M1002.85,-297.376C960.72,-283.91 873.63,-256.073 831.524,-242.615"/>
</g>
<!-- 1739143629600 -->
<g id="node42" class="node"><title>1739143629600</title>
<ellipse fill="none" stroke="black" cx="1026.7" cy="-234" rx="173.941" ry="18"/>
<text text-anchor="middle" x="1026.7" y="-230.5" font-family="Times New Roman,serif" font-size="15.00">Receive Result Appeal from Prefecture</text>
</g>
<!-- 1739143629120&#45;&#45;1739143629600 -->
<g id="edge37" class="edge"><title>1739143629120&#45;&#45;1739143629600</title>
<path fill="none" stroke="black" d="M1026.7,-287.697C1026.7,-276.846 1026.7,-262.917 1026.7,-252.104"/>
</g>
<!-- 1739143629312 -->
<g id="node43" class="node"><title>1739143629312</title>
<ellipse fill="none" stroke="black" cx="1245.7" cy="-234" rx="27" ry="18"/>
<text text-anchor="middle" x="1245.7" y="-230.5" font-family="Times New Roman,serif" font-size="15.00">xor</text>
</g>
<!-- 1739143629120&#45;&#45;1739143629312 -->
<g id="edge40" class="edge"><title>1739143629120&#45;&#45;1739143629312</title>
<path fill="none" stroke="black" d="M1050.55,-297.376C1092.68,-283.91 1179.77,-256.073 1221.88,-242.615"/>
</g>
<!-- 1739143629984 -->
<g id="node46" class="node"><title>1739143629984</title>
<ellipse fill="none" stroke="black" cx="1556.7" cy="-234" rx="27" ry="18"/>
<text text-anchor="middle" x="1556.7" y="-230.5" font-family="Times New Roman,serif" font-size="15.00">xor</text>
</g>
<!-- 1739143629120&#45;&#45;1739143629984 -->
<g id="edge49" class="edge"><title>1739143629120&#45;&#45;1739143629984</title>
<path fill="none" stroke="black" d="M1052.98,-301.529C1143.22,-289.611 1439.78,-250.442 1530.26,-238.492"/>
</g>
<!-- 1739143629696 -->
<g id="node40" class="node"><title>1739143629696</title>
<ellipse fill="black" stroke="black" cx="807.7" cy="-162" rx="2.7" ry="2.7"/>
</g>
<!-- 1739143629456&#45;&#45;1739143629696 -->
<g id="edge34" class="edge"><title>1739143629456&#45;&#45;1739143629696</title>
<path fill="none" stroke="black" d="M807.7,-215.697C807.7,-197.883 807.7,-171.769 807.7,-164.776"/>
</g>
<!-- 1739143629744 -->
<g id="node41" class="node"><title>1739143629744</title>
<ellipse fill="none" stroke="black" cx="890.7" cy="-162" rx="61.6894" ry="18"/>
<text text-anchor="middle" x="890.7" y="-158.5" font-family="Times New Roman,serif" font-size="15.00">Add penalty</text>
</g>
<!-- 1739143629456&#45;&#45;1739143629744 -->
<g id="edge35" class="edge"><title>1739143629456&#45;&#45;1739143629744</title>
<path fill="none" stroke="black" d="M824.098,-219.17C837.704,-207.695 857.077,-191.357 871.423,-179.257"/>
</g>
<!-- 1739143630080 -->
<g id="node44" class="node"><title>1739143630080</title>
<ellipse fill="black" stroke="black" cx="1076.7" cy="-162" rx="2.7" ry="2.7"/>
</g>
<!-- 1739143629312&#45;&#45;1739143630080 -->
<g id="edge38" class="edge"><title>1739143629312&#45;&#45;1739143630080</title>
<path fill="none" stroke="black" d="M1223.26,-223.705C1181.24,-206.3 1093.59,-169.994 1078.83,-163.882"/>
</g>
<!-- 1739143630176 -->
<g id="node45" class="node"><title>1739143630176</title>
<ellipse fill="none" stroke="black" cx="1245.7" cy="-162" rx="148.91" ry="18"/>
<text text-anchor="middle" x="1245.7" y="-158.5" font-family="Times New Roman,serif" font-size="15.00">Notify Result Appeal to Offender</text>
</g>
<!-- 1739143629312&#45;&#45;1739143630176 -->
<g id="edge39" class="edge"><title>1739143629312&#45;&#45;1739143630176</title>
<path fill="none" stroke="black" d="M1245.7,-215.697C1245.7,-204.846 1245.7,-190.917 1245.7,-180.104"/>
</g>
<!-- 1739143630368 -->
<g id="node47" class="node"><title>1739143630368</title>
<ellipse fill="black" stroke="black" cx="1414.7" cy="-162" rx="2.7" ry="2.7"/>
</g>
<!-- 1739143629984&#45;&#45;1739143630368 -->
<g id="edge41" class="edge"><title>1739143629984&#45;&#45;1739143630368</title>
<path fill="none" stroke="black" d="M1535.44,-222.52C1499.54,-204.823 1429.55,-170.319 1416.74,-164.005"/>
</g>
<!-- 1739143630512 -->
<g id="node48" class="node"><title>1739143630512</title>
<ellipse fill="none" stroke="black" cx="1556.7" cy="-162" rx="120.819" ry="18"/>
<text text-anchor="middle" x="1556.7" y="-158.5" font-family="Times New Roman,serif" font-size="15.00">Send for Credit Collection</text>
</g>
<!-- 1739143629984&#45;&#45;1739143630512 -->
<g id="edge42" class="edge"><title>1739143629984&#45;&#45;1739143630512</title>
<path fill="none" stroke="black" d="M1556.7,-215.697C1556.7,-204.846 1556.7,-190.917 1556.7,-180.104"/>
</g>
<!-- 1739101851712 -->
<g id="node49" class="node"><title>1739101851712</title>
<ellipse fill="none" stroke="black" cx="1741.7" cy="-162" rx="45.7249" ry="18"/>
<text text-anchor="middle" x="1741.7" y="-158.5" font-family="Times New Roman,serif" font-size="15.00">Payment</text>
</g>
<!-- 1739143629984&#45;&#45;1739101851712 -->
<g id="edge43" class="edge"><title>1739143629984&#45;&#45;1739101851712</title>
<path fill="none" stroke="black" d="M1579.76,-224.276C1612.59,-211.852 1672.94,-189.017 1709.97,-175.005"/>
</g>
<!-- 1739143630464 -->
<g id="node50" class="node"><title>1739143630464</title>
<ellipse fill="none" stroke="black" cx="1832.7" cy="-162" rx="27" ry="18"/>
<text text-anchor="middle" x="1832.7" y="-158.5" font-family="Times New Roman,serif" font-size="15.00">seq</text>
</g>
<!-- 1739143629984&#45;&#45;1739143630464 -->
<g id="edge48" class="edge"><title>1739143629984&#45;&#45;1739143630464</title>
<path fill="none" stroke="black" d="M1581.68,-226.665C1634.23,-213.337 1755.65,-182.541 1807.98,-169.271"/>
</g>
<!-- 1739101851760 -->
<g id="node51" class="node"><title>1739101851760</title>
<ellipse fill="none" stroke="black" cx="1770.7" cy="-90" rx="78.5434" ry="18"/>
<text text-anchor="middle" x="1770.7" y="-86.5" font-family="Times New Roman,serif" font-size="15.00">Appeal to Judge</text>
</g>
<!-- 1739143630464&#45;&#45;1739101851760 -->
<g id="edge44" class="edge"><title>1739143630464&#45;&#45;1739101851760</title>
<path fill="none" stroke="black" d="M1819.55,-146.155C1809.6,-134.918 1795.92,-119.476 1785.57,-107.789"/>
</g>
<!-- 1739101851856 -->
<g id="node52" class="node"><title>1739101851856</title>
<ellipse fill="none" stroke="black" cx="1894.7" cy="-90" rx="27" ry="18"/>
<text text-anchor="middle" x="1894.7" y="-86.5" font-family="Times New Roman,serif" font-size="15.00">xor</text>
</g>
<!-- 1739143630464&#45;&#45;1739101851856 -->
<g id="edge47" class="edge"><title>1739143630464&#45;&#45;1739101851856</title>
<path fill="none" stroke="black" d="M1845.85,-146.155C1856.37,-134.276 1871.05,-117.697 1881.57,-105.824"/>
</g>
<!-- 1739101852192 -->
<g id="node53" class="node"><title>1739101852192</title>
<ellipse fill="black" stroke="black" cx="1860.7" cy="-18" rx="2.7" ry="2.7"/>
</g>
<!-- 1739101851856&#45;&#45;1739101852192 -->
<g id="edge45" class="edge"><title>1739101851856&#45;&#45;1739101852192</title>
<path fill="none" stroke="black" d="M1886.81,-72.7646C1878.18,-54.9939 1865.1,-28.0601 1861.59,-20.8363"/>
</g>
<!-- 1739101852288 -->
<g id="node54" class="node"><title>1739101852288</title>
<ellipse fill="none" stroke="black" cx="1927.7" cy="-18" rx="45.7249" ry="18"/>
<text text-anchor="middle" x="1927.7" y="-14.5" font-family="Times New Roman,serif" font-size="15.00">Payment</text>
</g>
<!-- 1739101851856&#45;&#45;1739101852288 -->
<g id="edge46" class="edge"><title>1739101851856&#45;&#45;1739101852288</title>
<path fill="none" stroke="black" d="M1902.52,-72.411C1907.7,-61.4141 1914.49,-47.0274 1919.71,-35.9562"/>
</g>
</g>
</svg>
