<?xml version="1.0" encoding="UTF-8" standalone="no"?>
<!DOCTYPE svg PUBLIC "-//W3C//DTD SVG 1.1//EN"
 "http://www.w3.org/Graphics/SVG/1.1/DTD/svg11.dtd">
<!-- Generated by graphviz version 2.38.0 (20140413.2041)
 -->
<!-- Title: pt Pages: 1 -->
<svg width="1251pt" height="620pt"
 viewBox="0.00 0.00 1250.56 620.00" xmlns="http://www.w3.org/2000/svg" xmlns:xlink="http://www.w3.org/1999/xlink">
<g id="graph0" class="graph" transform="scale(1 1) rotate(0) translate(4 616)">
<title>pt</title>
<!-- 1739108663408 -->
<g id="node1" class="node"><title>1739108663408</title>
<ellipse fill="none" stroke="black" cx="369.7" cy="-594" rx="27" ry="18"/>
<text text-anchor="middle" x="369.7" y="-590.5" font-family="Times New Roman,serif" font-size="15.00">seq</text>
</g>
<!-- 1739108663552 -->
<g id="node2" class="node"><title>1739108663552</title>
<ellipse fill="none" stroke="black" cx="245.7" cy="-522" rx="59.5207" ry="18"/>
<text text-anchor="middle" x="245.7" y="-518.5" font-family="Times New Roman,serif" font-size="15.00">Create Fine</text>
</g>
<!-- 1739108663408&#45;&#45;1739108663552 -->
<g id="edge1" class="edge"><title>1739108663408&#45;&#45;1739108663552</title>
<path fill="none" stroke="black" d="M349.777,-581.753C328.828,-569.927 295.744,-551.251 272.513,-538.136"/>
</g>
<!-- 1739108663792 -->
<g id="node3" class="node"><title>1739108663792</title>
<ellipse fill="none" stroke="black" cx="369.7" cy="-522" rx="46.6143" ry="18"/>
<text text-anchor="middle" x="369.7" y="-518.5" font-family="Times New Roman,serif" font-size="15.00">xor loop</text>
</g>
<!-- 1739108663408&#45;&#45;1739108663792 -->
<g id="edge24" class="edge"><title>1739108663408&#45;&#45;1739108663792</title>
<path fill="none" stroke="black" d="M369.7,-575.697C369.7,-564.846 369.7,-550.917 369.7,-540.104"/>
</g>
<!-- 1739108667344 -->
<g id="node26" class="node"><title>1739108667344</title>
<ellipse fill="none" stroke="black" cx="498.7" cy="-522" rx="27" ry="18"/>
<text text-anchor="middle" x="498.7" y="-518.5" font-family="Times New Roman,serif" font-size="15.00">xor</text>
</g>
<!-- 1739108663408&#45;&#45;1739108667344 -->
<g id="edge40" class="edge"><title>1739108663408&#45;&#45;1739108667344</title>
<path fill="none" stroke="black" d="M390.14,-581.908C414.295,-568.801 454.242,-547.124 478.355,-534.04"/>
</g>
<!-- 1739108663936 -->
<g id="node4" class="node"><title>1739108663936</title>
<ellipse fill="none" stroke="black" cx="321.7" cy="-450" rx="27" ry="18"/>
<text text-anchor="middle" x="321.7" y="-446.5" font-family="Times New Roman,serif" font-size="15.00">seq</text>
</g>
<!-- 1739108663792&#45;&#45;1739108663936 -->
<g id="edge22" class="edge"><title>1739108663792&#45;&#45;1739108663936</title>
<path fill="none" stroke="black" d="M358.325,-504.411C350.562,-493.091 340.336,-478.178 332.663,-466.988"/>
</g>
<!-- 1739108664944 -->
<g id="node25" class="node"><title>1739108664944</title>
<ellipse fill="black" stroke="black" cx="369.7" cy="-450" rx="2.7" ry="2.7"/>
</g>
<!-- 1739108663792&#45;&#45;1739108664944 -->
<g id="edge23" class="edge"><title>1739108663792&#45;&#45;1739108664944</title>
<path fill="none" stroke="black" d="M369.7,-503.697C369.7,-485.883 369.7,-459.769 369.7,-452.776"/>
</g>
<!-- 1739108664272 -->
<g id="node5" class="node"><title>1739108664272</title>
<ellipse fill="none" stroke="black" cx="233.7" cy="-378" rx="27" ry="18"/>
<text text-anchor="middle" x="233.7" y="-374.5" font-family="Times New Roman,serif" font-size="15.00">xor</text>
</g>
<!-- 1739108663936&#45;&#45;1739108664272 -->
<g id="edge4" class="edge"><title>1739108663936&#45;&#45;1739108664272</title>
<path fill="none" stroke="black" d="M304.733,-435.503C289.05,-423.028 265.887,-404.603 250.317,-392.218"/>
</g>
<!-- 1739108664464 -->
<g id="node8" class="node"><title>1739108664464</title>
<ellipse fill="none" stroke="black" cx="321.7" cy="-378" rx="27" ry="18"/>
<text text-anchor="middle" x="321.7" y="-374.5" font-family="Times New Roman,serif" font-size="15.00">xor</text>
</g>
<!-- 1739108663936&#45;&#45;1739108664464 -->
<g id="edge14" class="edge"><title>1739108663936&#45;&#45;1739108664464</title>
<path fill="none" stroke="black" d="M321.7,-431.697C321.7,-420.846 321.7,-406.917 321.7,-396.104"/>
</g>
<!-- 1739108664608 -->
<g id="node18" class="node"><title>1739108664608</title>
<ellipse fill="none" stroke="black" cx="408.7" cy="-378" rx="27" ry="18"/>
<text text-anchor="middle" x="408.7" y="-374.5" font-family="Times New Roman,serif" font-size="15.00">xor</text>
</g>
<!-- 1739108663936&#45;&#45;1739108664608 -->
<g id="edge21" class="edge"><title>1739108663936&#45;&#45;1739108664608</title>
<path fill="none" stroke="black" d="M338.474,-435.503C353.88,-423.108 376.588,-404.838 391.977,-392.455"/>
</g>
<!-- 1739108664416 -->
<g id="node6" class="node"><title>1739108664416</title>
<ellipse fill="black" stroke="black" cx="159.7" cy="-306" rx="2.7" ry="2.7"/>
</g>
<!-- 1739108664272&#45;&#45;1739108664416 -->
<g id="edge2" class="edge"><title>1739108664272&#45;&#45;1739108664416</title>
<path fill="none" stroke="black" d="M218.725,-362.834C199.805,-344.937 168.804,-315.612 161.349,-308.56"/>
</g>
<!-- 1739108664368 -->
<g id="node7" class="node"><title>1739108664368</title>
<ellipse fill="none" stroke="black" cx="233.7" cy="-306" rx="52.6228" ry="18"/>
<text text-anchor="middle" x="233.7" y="-302.5" font-family="Times New Roman,serif" font-size="15.00">Send Fine</text>
</g>
<!-- 1739108664272&#45;&#45;1739108664368 -->
<g id="edge3" class="edge"><title>1739108664272&#45;&#45;1739108664368</title>
<path fill="none" stroke="black" d="M233.7,-359.697C233.7,-348.846 233.7,-334.917 233.7,-324.104"/>
</g>
<!-- 1739108664752 -->
<g id="node9" class="node"><title>1739108664752</title>
<ellipse fill="black" stroke="black" cx="307.7" cy="-306" rx="2.7" ry="2.7"/>
</g>
<!-- 1739108664464&#45;&#45;1739108664752 -->
<g id="edge5" class="edge"><title>1739108664464&#45;&#45;1739108664752</title>
<path fill="none" stroke="black" d="M318.311,-360.055C314.75,-342.252 309.473,-315.865 308.059,-308.796"/>
</g>
<!-- 1739108664848 -->
<g id="node10" class="node"><title>1739108664848</title>
<ellipse fill="none" stroke="black" cx="355.7" cy="-306" rx="27" ry="18"/>
<text text-anchor="middle" x="355.7" y="-302.5" font-family="Times New Roman,serif" font-size="15.00">seq</text>
</g>
<!-- 1739108664464&#45;&#45;1739108664848 -->
<g id="edge13" class="edge"><title>1739108664464&#45;&#45;1739108664848</title>
<path fill="none" stroke="black" d="M329.586,-360.765C335,-349.618 342.166,-334.865 347.621,-323.633"/>
</g>
<!-- 1739108664992 -->
<g id="node11" class="node"><title>1739108664992</title>
<ellipse fill="none" stroke="black" cx="130.7" cy="-234" rx="27" ry="18"/>
<text text-anchor="middle" x="130.7" y="-230.5" font-family="Times New Roman,serif" font-size="15.00">xor</text>
</g>
<!-- 1739108664848&#45;&#45;1739108664992 -->
<g id="edge8" class="edge"><title>1739108664848&#45;&#45;1739108664992</title>
<path fill="none" stroke="black" d="M331.621,-297.509C288.315,-284.036 197.786,-255.871 154.606,-242.437"/>
</g>
<!-- 1739108665280 -->
<g id="node14" class="node"><title>1739108665280</title>
<ellipse fill="none" stroke="black" cx="355.7" cy="-234" rx="27" ry="18"/>
<text text-anchor="middle" x="355.7" y="-230.5" font-family="Times New Roman,serif" font-size="15.00">xor</text>
</g>
<!-- 1739108664848&#45;&#45;1739108665280 -->
<g id="edge12" class="edge"><title>1739108664848&#45;&#45;1739108665280</title>
<path fill="none" stroke="black" d="M355.7,-287.697C355.7,-276.846 355.7,-262.917 355.7,-252.104"/>
</g>
<!-- 1739108665232 -->
<g id="node12" class="node"><title>1739108665232</title>
<ellipse fill="black" stroke="black" cx="2.7" cy="-162" rx="2.7" ry="2.7"/>
</g>
<!-- 1739108664992&#45;&#45;1739108665232 -->
<g id="edge6" class="edge"><title>1739108664992&#45;&#45;1739108665232</title>
<path fill="none" stroke="black" d="M110.418,-221.908C77.9911,-204.175 16.8824,-170.756 4.80418,-164.151"/>
</g>
<!-- 1739108665712 -->
<g id="node13" class="node"><title>1739108665712</title>
<ellipse fill="none" stroke="black" cx="130.7" cy="-162" rx="107.914" ry="18"/>
<text text-anchor="middle" x="130.7" y="-158.5" font-family="Times New Roman,serif" font-size="15.00">Insert Fine Notification</text>
</g>
<!-- 1739108664992&#45;&#45;1739108665712 -->
<g id="edge7" class="edge"><title>1739108664992&#45;&#45;1739108665712</title>
<path fill="none" stroke="black" d="M130.7,-215.697C130.7,-204.846 130.7,-190.917 130.7,-180.104"/>
</g>
<!-- 1739108666576 -->
<g id="node15" class="node"><title>1739108666576</title>
<ellipse fill="black" stroke="black" cx="258.7" cy="-162" rx="2.7" ry="2.7"/>
</g>
<!-- 1739108665280&#45;&#45;1739108666576 -->
<g id="edge9" class="edge"><title>1739108665280&#45;&#45;1739108666576</title>
<path fill="none" stroke="black" d="M337.909,-220.161C312.968,-202.163 269.624,-170.883 260.44,-164.256"/>
</g>
<!-- 1739108667104 -->
<g id="node16" class="node"><title>1739108667104</title>
<ellipse fill="none" stroke="black" cx="357.7" cy="-162" rx="78.5434" ry="18"/>
<text text-anchor="middle" x="357.7" y="-158.5" font-family="Times New Roman,serif" font-size="15.00">Appeal to Judge</text>
</g>
<!-- 1739108665280&#45;&#45;1739108667104 -->
<g id="edge10" class="edge"><title>1739108665280&#45;&#45;1739108667104</title>
<path fill="none" stroke="black" d="M356.194,-215.697C356.504,-204.846 356.902,-190.917 357.211,-180.104"/>
</g>
<!-- 1739108667008 -->
<g id="node17" class="node"><title>1739108667008</title>
<ellipse fill="none" stroke="black" cx="499.7" cy="-162" rx="45.7249" ry="18"/>
<text text-anchor="middle" x="499.7" y="-158.5" font-family="Times New Roman,serif" font-size="15.00">Payment</text>
</g>
<!-- 1739108665280&#45;&#45;1739108667008 -->
<g id="edge11" class="edge"><title>1739108665280&#45;&#45;1739108667008</title>
<path fill="none" stroke="black" d="M376.948,-222.671C402.139,-210.425 444.196,-189.981 471.941,-176.494"/>
</g>
<!-- 1739108664320 -->
<g id="node19" class="node"><title>1739108664320</title>
<ellipse fill="black" stroke="black" cx="408.7" cy="-306" rx="2.7" ry="2.7"/>
</g>
<!-- 1739108664608&#45;&#45;1739108664320 -->
<g id="edge15" class="edge"><title>1739108664608&#45;&#45;1739108664320</title>
<path fill="none" stroke="black" d="M408.7,-359.697C408.7,-341.883 408.7,-315.769 408.7,-308.776"/>
</g>
<!-- 1739108666000 -->
<g id="node20" class="node"><title>1739108666000</title>
<ellipse fill="none" stroke="black" cx="462.7" cy="-306" rx="27" ry="18"/>
<text text-anchor="middle" x="462.7" y="-302.5" font-family="Times New Roman,serif" font-size="15.00">and</text>
</g>
<!-- 1739108664608&#45;&#45;1739108666000 -->
<g id="edge20" class="edge"><title>1739108664608&#45;&#45;1739108666000</title>
<path fill="none" stroke="black" d="M420.684,-361.465C429.633,-349.865 441.808,-334.082 450.749,-322.492"/>
</g>
<!-- 1739108666816 -->
<g id="node21" class="node"><title>1739108666816</title>
<ellipse fill="none" stroke="black" cx="462.7" cy="-234" rx="61.6894" ry="18"/>
<text text-anchor="middle" x="462.7" y="-230.5" font-family="Times New Roman,serif" font-size="15.00">Add penalty</text>
</g>
<!-- 1739108666000&#45;&#45;1739108666816 -->
<g id="edge16" class="edge"><title>1739108666000&#45;&#45;1739108666816</title>
<path fill="none" stroke="black" d="M462.7,-287.697C462.7,-276.846 462.7,-262.917 462.7,-252.104"/>
</g>
<!-- 1739108667248 -->
<g id="node22" class="node"><title>1739108667248</title>
<ellipse fill="none" stroke="black" cx="569.7" cy="-234" rx="27" ry="18"/>
<text text-anchor="middle" x="569.7" y="-230.5" font-family="Times New Roman,serif" font-size="15.00">xor</text>
</g>
<!-- 1739108666000&#45;&#45;1739108667248 -->
<g id="edge19" class="edge"><title>1739108666000&#45;&#45;1739108667248</title>
<path fill="none" stroke="black" d="M481.338,-292.807C500.857,-280.037 531.343,-260.093 550.917,-247.288"/>
</g>
<!-- 1739109769280 -->
<g id="node23" class="node"><title>1739109769280</title>
<ellipse fill="black" stroke="black" cx="568.7" cy="-162" rx="2.7" ry="2.7"/>
</g>
<!-- 1739108667248&#45;&#45;1739109769280 -->
<g id="edge17" class="edge"><title>1739108667248&#45;&#45;1739109769280</title>
<path fill="none" stroke="black" d="M569.453,-215.697C569.198,-197.883 568.825,-171.769 568.725,-164.776"/>
</g>
<!-- 1739109769328 -->
<g id="node24" class="node"><title>1739109769328</title>
<ellipse fill="none" stroke="black" cx="733.7" cy="-162" rx="144.571" ry="18"/>
<text text-anchor="middle" x="733.7" y="-158.5" font-family="Times New Roman,serif" font-size="15.00">Insert Date Appeal to Prefecture</text>
</g>
<!-- 1739108667248&#45;&#45;1739109769328 -->
<g id="edge18" class="edge"><title>1739108667248&#45;&#45;1739109769328</title>
<path fill="none" stroke="black" d="M591.818,-223.559C618.31,-212.252 663.136,-193.119 695.319,-179.382"/>
</g>
<!-- 1739108665184 -->
<g id="node27" class="node"><title>1739108665184</title>
<ellipse fill="black" stroke="black" cx="392.7" cy="-450" rx="2.7" ry="2.7"/>
</g>
<!-- 1739108667344&#45;&#45;1739108665184 -->
<g id="edge25" class="edge"><title>1739108667344&#45;&#45;1739108665184</title>
<path fill="none" stroke="black" d="M480.236,-508.807C453.188,-490.945 404.885,-459.046 394.642,-452.282"/>
</g>
<!-- 1739108666288 -->
<g id="node28" class="node"><title>1739108666288</title>
<ellipse fill="none" stroke="black" cx="534.7" cy="-450" rx="120.819" ry="18"/>
<text text-anchor="middle" x="534.7" y="-446.5" font-family="Times New Roman,serif" font-size="15.00">Send for Credit Collection</text>
</g>
<!-- 1739108667344&#45;&#45;1739108666288 -->
<g id="edge26" class="edge"><title>1739108667344&#45;&#45;1739108666288</title>
<path fill="none" stroke="black" d="M507.05,-504.765C512.699,-493.779 520.15,-479.292 525.893,-468.124"/>
</g>
<!-- 1739108666864 -->
<g id="node29" class="node"><title>1739108666864</title>
<ellipse fill="none" stroke="black" cx="700.7" cy="-450" rx="27" ry="18"/>
<text text-anchor="middle" x="700.7" y="-446.5" font-family="Times New Roman,serif" font-size="15.00">seq</text>
</g>
<!-- 1739108667344&#45;&#45;1739108666864 -->
<g id="edge39" class="edge"><title>1739108667344&#45;&#45;1739108666864</title>
<path fill="none" stroke="black" d="M522.267,-512.833C561.191,-499.345 638.458,-472.569 677.283,-459.115"/>
</g>
<!-- 1739108667152 -->
<g id="node30" class="node"><title>1739108667152</title>
<ellipse fill="none" stroke="black" cx="669.7" cy="-378" rx="120.43" ry="18"/>
<text text-anchor="middle" x="669.7" y="-374.5" font-family="Times New Roman,serif" font-size="15.00">Send Appeal to Prefecture</text>
</g>
<!-- 1739108666864&#45;&#45;1739108667152 -->
<g id="edge27" class="edge"><title>1739108666864&#45;&#45;1739108667152</title>
<path fill="none" stroke="black" d="M693.353,-432.411C688.555,-421.576 682.299,-407.45 677.426,-396.447"/>
</g>
<!-- 1739109769664 -->
<g id="node31" class="node"><title>1739109769664</title>
<ellipse fill="none" stroke="black" cx="834.7" cy="-378" rx="27" ry="18"/>
<text text-anchor="middle" x="834.7" y="-374.5" font-family="Times New Roman,serif" font-size="15.00">xor</text>
</g>
<!-- 1739108666864&#45;&#45;1739109769664 -->
<g id="edge38" class="edge"><title>1739108666864&#45;&#45;1739109769664</title>
<path fill="none" stroke="black" d="M721.344,-438.216C746.451,-425.1 788.594,-403.085 813.812,-389.912"/>
</g>
<!-- 1739109770000 -->
<g id="node32" class="node"><title>1739109770000</title>
<ellipse fill="black" stroke="black" cx="810.7" cy="-306" rx="2.7" ry="2.7"/>
</g>
<!-- 1739109769664&#45;&#45;1739109770000 -->
<g id="edge28" class="edge"><title>1739109769664&#45;&#45;1739109770000</title>
<path fill="none" stroke="black" d="M828.89,-360.055C822.786,-342.252 813.74,-315.865 811.316,-308.796"/>
</g>
<!-- 1739109769808 -->
<g id="node33" class="node"><title>1739109769808</title>
<ellipse fill="none" stroke="black" cx="858.7" cy="-306" rx="27" ry="18"/>
<text text-anchor="middle" x="858.7" y="-302.5" font-family="Times New Roman,serif" font-size="15.00">seq</text>
</g>
<!-- 1739109769664&#45;&#45;1739109769808 -->
<g id="edge37" class="edge"><title>1739109769664&#45;&#45;1739109769808</title>
<path fill="none" stroke="black" d="M840.51,-360.055C844.283,-349.049 849.181,-334.764 852.944,-323.789"/>
</g>
<!-- 1739109770144 -->
<g id="node34" class="node"><title>1739109770144</title>
<ellipse fill="none" stroke="black" cx="823.7" cy="-234" rx="173.941" ry="18"/>
<text text-anchor="middle" x="823.7" y="-230.5" font-family="Times New Roman,serif" font-size="15.00">Receive Result Appeal from Prefecture</text>
</g>
<!-- 1739109769808&#45;&#45;1739109770144 -->
<g id="edge29" class="edge"><title>1739109769808&#45;&#45;1739109770144</title>
<path fill="none" stroke="black" d="M850.582,-288.765C845.09,-277.779 837.846,-263.292 832.262,-252.124"/>
</g>
<!-- 1739109770240 -->
<g id="node35" class="node"><title>1739109770240</title>
<ellipse fill="none" stroke="black" cx="1042.7" cy="-234" rx="27" ry="18"/>
<text text-anchor="middle" x="1042.7" y="-230.5" font-family="Times New Roman,serif" font-size="15.00">xor</text>
</g>
<!-- 1739109769808&#45;&#45;1739109770240 -->
<g id="edge36" class="edge"><title>1739109769808&#45;&#45;1739109770240</title>
<path fill="none" stroke="black" d="M881.632,-296.276C916.987,-282.825 984.414,-257.174 1019.77,-243.724"/>
</g>
<!-- 1739109770720 -->
<g id="node36" class="node"><title>1739109770720</title>
<ellipse fill="black" stroke="black" cx="1018.7" cy="-162" rx="2.7" ry="2.7"/>
</g>
<!-- 1739109770240&#45;&#45;1739109770720 -->
<g id="edge30" class="edge"><title>1739109770240&#45;&#45;1739109770720</title>
<path fill="none" stroke="black" d="M1036.89,-216.055C1030.79,-198.252 1021.74,-171.865 1019.32,-164.796"/>
</g>
<!-- 1739109770528 -->
<g id="node37" class="node"><title>1739109770528</title>
<ellipse fill="none" stroke="black" cx="1066.7" cy="-162" rx="27" ry="18"/>
<text text-anchor="middle" x="1066.7" y="-158.5" font-family="Times New Roman,serif" font-size="15.00">seq</text>
</g>
<!-- 1739109770240&#45;&#45;1739109770528 -->
<g id="edge35" class="edge"><title>1739109770240&#45;&#45;1739109770528</title>
<path fill="none" stroke="black" d="M1048.51,-216.055C1052.28,-205.049 1057.18,-190.764 1060.94,-179.789"/>
</g>
<!-- 1739109770672 -->
<g id="node38" class="node"><title>1739109770672</title>
<ellipse fill="none" stroke="black" cx="969.7" cy="-90" rx="148.91" ry="18"/>
<text text-anchor="middle" x="969.7" y="-86.5" font-family="Times New Roman,serif" font-size="15.00">Notify Result Appeal to Offender</text>
</g>
<!-- 1739109770528&#45;&#45;1739109770672 -->
<g id="edge31" class="edge"><title>1739109770528&#45;&#45;1739109770672</title>
<path fill="none" stroke="black" d="M1048.91,-148.161C1033.27,-136.873 1010.38,-120.36 993.231,-107.981"/>
</g>
<!-- 1739109770768 -->
<g id="node39" class="node"><title>1739109770768</title>
<ellipse fill="none" stroke="black" cx="1163.7" cy="-90" rx="27" ry="18"/>
<text text-anchor="middle" x="1163.7" y="-86.5" font-family="Times New Roman,serif" font-size="15.00">xor</text>
</g>
<!-- 1739109770528&#45;&#45;1739109770768 -->
<g id="edge34" class="edge"><title>1739109770528&#45;&#45;1739109770768</title>
<path fill="none" stroke="black" d="M1084.49,-148.161C1101.99,-135.531 1128.56,-116.36 1146.02,-103.758"/>
</g>
<!-- 1739109771200 -->
<g id="node40" class="node"><title>1739109771200</title>
<ellipse fill="black" stroke="black" cx="1129.7" cy="-18" rx="2.7" ry="2.7"/>
</g>
<!-- 1739109770768&#45;&#45;1739109771200 -->
<g id="edge32" class="edge"><title>1739109770768&#45;&#45;1739109771200</title>
<path fill="none" stroke="black" d="M1155.81,-72.7646C1147.18,-54.9939 1134.1,-28.0601 1130.59,-20.8363"/>
</g>
<!-- 1739109771104 -->
<g id="node41" class="node"><title>1739109771104</title>
<ellipse fill="none" stroke="black" cx="1196.7" cy="-18" rx="45.7249" ry="18"/>
<text text-anchor="middle" x="1196.7" y="-14.5" font-family="Times New Roman,serif" font-size="15.00">Payment</text>
</g>
<!-- 1739109770768&#45;&#45;1739109771104 -->
<g id="edge33" class="edge"><title>1739109770768&#45;&#45;1739109771104</title>
<path fill="none" stroke="black" d="M1171.52,-72.411C1176.7,-61.4141 1183.49,-47.0274 1188.71,-35.9562"/>
</g>
</g>
</svg>
