<?xml version="1.0" encoding="UTF-8" standalone="no"?>
<!DOCTYPE svg PUBLIC "-//W3C//DTD SVG 1.1//EN"
 "http://www.w3.org/Graphics/SVG/1.1/DTD/svg11.dtd">
<!-- Generated by graphviz version 2.38.0 (20140413.2041)
 -->
<!-- Title: pt Pages: 1 -->
<svg width="2095pt" height="620pt"
 viewBox="0.00 0.00 2094.56 620.00" xmlns="http://www.w3.org/2000/svg" xmlns:xlink="http://www.w3.org/1999/xlink">
<g id="graph0" class="graph" transform="scale(1 1) rotate(0) translate(4 616)">
<title>pt</title>
<!-- 1739137297952 -->
<g id="node1" class="node"><title>1739137297952</title>
<ellipse fill="none" stroke="black" cx="467.7" cy="-594" rx="27" ry="18"/>
<text text-anchor="middle" x="467.7" y="-590.5" font-family="Times New Roman,serif" font-size="15.00">seq</text>
</g>
<!-- 1739137298240 -->
<g id="node2" class="node"><title>1739137298240</title>
<ellipse fill="none" stroke="black" cx="343.7" cy="-522" rx="59.5207" ry="18"/>
<text text-anchor="middle" x="343.7" y="-518.5" font-family="Times New Roman,serif" font-size="15.00">Create Fine</text>
</g>
<!-- 1739137297952&#45;&#45;1739137298240 -->
<g id="edge1" class="edge"><title>1739137297952&#45;&#45;1739137298240</title>
<path fill="none" stroke="black" d="M447.777,-581.753C426.828,-569.927 393.744,-551.251 370.513,-538.136"/>
</g>
<!-- 1739137294544 -->
<g id="node3" class="node"><title>1739137294544</title>
<ellipse fill="none" stroke="black" cx="467.7" cy="-522" rx="46.6143" ry="18"/>
<text text-anchor="middle" x="467.7" y="-518.5" font-family="Times New Roman,serif" font-size="15.00">xor loop</text>
</g>
<!-- 1739137297952&#45;&#45;1739137294544 -->
<g id="edge29" class="edge"><title>1739137297952&#45;&#45;1739137294544</title>
<path fill="none" stroke="black" d="M467.7,-575.697C467.7,-564.846 467.7,-550.917 467.7,-540.104"/>
</g>
<!-- 1739137297040 -->
<g id="node31" class="node"><title>1739137297040</title>
<ellipse fill="none" stroke="black" cx="600.7" cy="-522" rx="27" ry="18"/>
<text text-anchor="middle" x="600.7" y="-518.5" font-family="Times New Roman,serif" font-size="15.00">xor</text>
</g>
<!-- 1739137297952&#45;&#45;1739137297040 -->
<g id="edge57" class="edge"><title>1739137297952&#45;&#45;1739137297040</title>
<path fill="none" stroke="black" d="M488.19,-582.216C513.11,-569.1 554.938,-547.085 579.968,-533.912"/>
</g>
<!-- 1739122189984 -->
<g id="node4" class="node"><title>1739122189984</title>
<ellipse fill="none" stroke="black" cx="402.7" cy="-450" rx="27" ry="18"/>
<text text-anchor="middle" x="402.7" y="-446.5" font-family="Times New Roman,serif" font-size="15.00">seq</text>
</g>
<!-- 1739137294544&#45;&#45;1739122189984 -->
<g id="edge27" class="edge"><title>1739137294544&#45;&#45;1739122189984</title>
<path fill="none" stroke="black" d="M452.624,-504.765C441.673,-492.971 426.975,-477.142 416.366,-465.717"/>
</g>
<!-- 1739122191904 -->
<g id="node30" class="node"><title>1739122191904</title>
<ellipse fill="black" stroke="black" cx="467.7" cy="-450" rx="2.7" ry="2.7"/>
</g>
<!-- 1739137294544&#45;&#45;1739122191904 -->
<g id="edge28" class="edge"><title>1739137294544&#45;&#45;1739122191904</title>
<path fill="none" stroke="black" d="M467.7,-503.697C467.7,-485.883 467.7,-459.769 467.7,-452.776"/>
</g>
<!-- 1739122190176 -->
<g id="node5" class="node"><title>1739122190176</title>
<ellipse fill="none" stroke="black" cx="76.7" cy="-378" rx="27" ry="18"/>
<text text-anchor="middle" x="76.7" y="-374.5" font-family="Times New Roman,serif" font-size="15.00">xor</text>
</g>
<!-- 1739122189984&#45;&#45;1739122190176 -->
<g id="edge4" class="edge"><title>1739122189984&#45;&#45;1739122190176</title>
<path fill="none" stroke="black" d="M377.391,-443.565C316.653,-430.524 163.167,-397.567 102.218,-384.479"/>
</g>
<!-- 1739122192192 -->
<g id="node8" class="node"><title>1739122192192</title>
<ellipse fill="none" stroke="black" cx="400.7" cy="-378" rx="27" ry="18"/>
<text text-anchor="middle" x="400.7" y="-374.5" font-family="Times New Roman,serif" font-size="15.00">xor</text>
</g>
<!-- 1739122189984&#45;&#45;1739122192192 -->
<g id="edge15" class="edge"><title>1739122189984&#45;&#45;1739122192192</title>
<path fill="none" stroke="black" d="M402.206,-431.697C401.896,-420.846 401.498,-406.917 401.189,-396.104"/>
</g>
<!-- 1739122192000 -->
<g id="node19" class="node"><title>1739122192000</title>
<ellipse fill="none" stroke="black" cx="556.7" cy="-378" rx="27" ry="18"/>
<text text-anchor="middle" x="556.7" y="-374.5" font-family="Times New Roman,serif" font-size="15.00">xor</text>
</g>
<!-- 1739122189984&#45;&#45;1739122192000 -->
<g id="edge26" class="edge"><title>1739122189984&#45;&#45;1739122192000</title>
<path fill="none" stroke="black" d="M424.438,-439.119C453.788,-425.778 505.779,-402.146 535.073,-388.831"/>
</g>
<!-- 1739122191616 -->
<g id="node6" class="node"><title>1739122191616</title>
<ellipse fill="black" stroke="black" cx="2.7" cy="-306" rx="2.7" ry="2.7"/>
</g>
<!-- 1739122190176&#45;&#45;1739122191616 -->
<g id="edge2" class="edge"><title>1739122190176&#45;&#45;1739122191616</title>
<path fill="none" stroke="black" d="M61.725,-362.834C42.8049,-344.937 11.8039,-315.612 4.34935,-308.56"/>
</g>
<!-- 1739122190752 -->
<g id="node7" class="node"><title>1739122190752</title>
<ellipse fill="none" stroke="black" cx="76.7" cy="-306" rx="52.6228" ry="18"/>
<text text-anchor="middle" x="76.7" y="-302.5" font-family="Times New Roman,serif" font-size="15.00">Send Fine</text>
</g>
<!-- 1739122190176&#45;&#45;1739122190752 -->
<g id="edge3" class="edge"><title>1739122190176&#45;&#45;1739122190752</title>
<path fill="none" stroke="black" d="M76.7,-359.697C76.7,-348.846 76.7,-334.917 76.7,-324.104"/>
</g>
<!-- 1739122189408 -->
<g id="node9" class="node"><title>1739122189408</title>
<ellipse fill="black" stroke="black" cx="150.7" cy="-306" rx="2.7" ry="2.7"/>
</g>
<!-- 1739122192192&#45;&#45;1739122189408 -->
<g id="edge5" class="edge"><title>1739122192192&#45;&#45;1739122189408</title>
<path fill="none" stroke="black" d="M376.274,-370.161C317.79,-353.785 173.082,-313.267 153.021,-307.65"/>
</g>
<!-- 1739122189792 -->
<g id="node10" class="node"><title>1739122189792</title>
<ellipse fill="none" stroke="black" cx="315.7" cy="-306" rx="144.571" ry="18"/>
<text text-anchor="middle" x="315.7" y="-302.5" font-family="Times New Roman,serif" font-size="15.00">Insert Date Appeal to Prefecture</text>
</g>
<!-- 1739122192192&#45;&#45;1739122189792 -->
<g id="edge6" class="edge"><title>1739122192192&#45;&#45;1739122189792</title>
<path fill="none" stroke="black" d="M384.311,-363.503C370.61,-352.22 350.999,-336.07 336.249,-323.923"/>
</g>
<!-- 1739122190464 -->
<g id="node11" class="node"><title>1739122190464</title>
<ellipse fill="none" stroke="black" cx="505.7" cy="-306" rx="27" ry="18"/>
<text text-anchor="middle" x="505.7" y="-302.5" font-family="Times New Roman,serif" font-size="15.00">seq</text>
</g>
<!-- 1739122192192&#45;&#45;1739122190464 -->
<g id="edge14" class="edge"><title>1739122192192&#45;&#45;1739122190464</title>
<path fill="none" stroke="black" d="M419.472,-364.485C438.584,-351.744 468.037,-332.108 487.091,-319.406"/>
</g>
<!-- 1739122188736 -->
<g id="node12" class="node"><title>1739122188736</title>
<ellipse fill="none" stroke="black" cx="275.7" cy="-234" rx="27" ry="18"/>
<text text-anchor="middle" x="275.7" y="-230.5" font-family="Times New Roman,serif" font-size="15.00">xor</text>
</g>
<!-- 1739122190464&#45;&#45;1739122188736 -->
<g id="edge9" class="edge"><title>1739122190464&#45;&#45;1739122188736</title>
<path fill="none" stroke="black" d="M481.521,-297.641C437.347,-284.197 344.09,-255.814 299.9,-242.365"/>
</g>
<!-- 1739122191808 -->
<g id="node15" class="node"><title>1739122191808</title>
<ellipse fill="none" stroke="black" cx="502.7" cy="-234" rx="27" ry="18"/>
<text text-anchor="middle" x="502.7" y="-230.5" font-family="Times New Roman,serif" font-size="15.00">xor</text>
</g>
<!-- 1739122190464&#45;&#45;1739122191808 -->
<g id="edge13" class="edge"><title>1739122190464&#45;&#45;1739122191808</title>
<path fill="none" stroke="black" d="M504.958,-287.697C504.493,-276.846 503.896,-262.917 503.433,-252.104"/>
</g>
<!-- 1739122188544 -->
<g id="node13" class="node"><title>1739122188544</title>
<ellipse fill="black" stroke="black" cx="147.7" cy="-162" rx="2.7" ry="2.7"/>
</g>
<!-- 1739122188736&#45;&#45;1739122188544 -->
<g id="edge7" class="edge"><title>1739122188736&#45;&#45;1739122188544</title>
<path fill="none" stroke="black" d="M255.418,-221.908C222.991,-204.175 161.882,-170.756 149.804,-164.151"/>
</g>
<!-- 1739122190848 -->
<g id="node14" class="node"><title>1739122190848</title>
<ellipse fill="none" stroke="black" cx="275.7" cy="-162" rx="107.914" ry="18"/>
<text text-anchor="middle" x="275.7" y="-158.5" font-family="Times New Roman,serif" font-size="15.00">Insert Fine Notification</text>
</g>
<!-- 1739122188736&#45;&#45;1739122190848 -->
<g id="edge8" class="edge"><title>1739122188736&#45;&#45;1739122190848</title>
<path fill="none" stroke="black" d="M275.7,-215.697C275.7,-204.846 275.7,-190.917 275.7,-180.104"/>
</g>
<!-- 1739122192096 -->
<g id="node16" class="node"><title>1739122192096</title>
<ellipse fill="black" stroke="black" cx="403.7" cy="-162" rx="2.7" ry="2.7"/>
</g>
<!-- 1739122191808&#45;&#45;1739122192096 -->
<g id="edge10" class="edge"><title>1739122191808&#45;&#45;1739122192096</title>
<path fill="none" stroke="black" d="M484.542,-220.161C459.087,-202.163 414.849,-170.883 405.476,-164.256"/>
</g>
<!-- 1739122191280 -->
<g id="node17" class="node"><title>1739122191280</title>
<ellipse fill="none" stroke="black" cx="502.7" cy="-162" rx="78.5434" ry="18"/>
<text text-anchor="middle" x="502.7" y="-158.5" font-family="Times New Roman,serif" font-size="15.00">Appeal to Judge</text>
</g>
<!-- 1739122191808&#45;&#45;1739122191280 -->
<g id="edge11" class="edge"><title>1739122191808&#45;&#45;1739122191280</title>
<path fill="none" stroke="black" d="M502.7,-215.697C502.7,-204.846 502.7,-190.917 502.7,-180.104"/>
</g>
<!-- 1739122188496 -->
<g id="node18" class="node"><title>1739122188496</title>
<ellipse fill="none" stroke="black" cx="644.7" cy="-162" rx="45.7249" ry="18"/>
<text text-anchor="middle" x="644.7" y="-158.5" font-family="Times New Roman,serif" font-size="15.00">Payment</text>
</g>
<!-- 1739122191808&#45;&#45;1739122188496 -->
<g id="edge12" class="edge"><title>1739122191808&#45;&#45;1739122188496</title>
<path fill="none" stroke="black" d="M523.959,-222.52C548.794,-210.277 589.948,-189.99 617.197,-176.558"/>
</g>
<!-- 1739122190272 -->
<g id="node20" class="node"><title>1739122190272</title>
<ellipse fill="black" stroke="black" cx="556.7" cy="-306" rx="2.7" ry="2.7"/>
</g>
<!-- 1739122192000&#45;&#45;1739122190272 -->
<g id="edge16" class="edge"><title>1739122192000&#45;&#45;1739122190272</title>
<path fill="none" stroke="black" d="M556.7,-359.697C556.7,-341.883 556.7,-315.769 556.7,-308.776"/>
</g>
<!-- 1739122188352 -->
<g id="node21" class="node"><title>1739122188352</title>
<ellipse fill="none" stroke="black" cx="609.7" cy="-306" rx="27" ry="18"/>
<text text-anchor="middle" x="609.7" y="-302.5" font-family="Times New Roman,serif" font-size="15.00">and</text>
</g>
<!-- 1739122192000&#45;&#45;1739122188352 -->
<g id="edge25" class="edge"><title>1739122192000&#45;&#45;1739122188352</title>
<path fill="none" stroke="black" d="M568.462,-361.465C577.245,-349.865 589.195,-334.082 597.97,-322.492"/>
</g>
<!-- 1739114595424 -->
<g id="node22" class="node"><title>1739114595424</title>
<ellipse fill="none" stroke="black" cx="609.7" cy="-234" rx="61.6894" ry="18"/>
<text text-anchor="middle" x="609.7" y="-230.5" font-family="Times New Roman,serif" font-size="15.00">Add penalty</text>
</g>
<!-- 1739122188352&#45;&#45;1739114595424 -->
<g id="edge17" class="edge"><title>1739122188352&#45;&#45;1739114595424</title>
<path fill="none" stroke="black" d="M609.7,-287.697C609.7,-276.846 609.7,-262.917 609.7,-252.104"/>
</g>
<!-- 1739114594656 -->
<g id="node23" class="node"><title>1739114594656</title>
<ellipse fill="none" stroke="black" cx="716.7" cy="-234" rx="27" ry="18"/>
<text text-anchor="middle" x="716.7" y="-230.5" font-family="Times New Roman,serif" font-size="15.00">xor</text>
</g>
<!-- 1739122188352&#45;&#45;1739114594656 -->
<g id="edge24" class="edge"><title>1739122188352&#45;&#45;1739114594656</title>
<path fill="none" stroke="black" d="M628.338,-292.807C647.857,-280.037 678.343,-260.093 697.917,-247.288"/>
</g>
<!-- 1739114594560 -->
<g id="node24" class="node"><title>1739114594560</title>
<ellipse fill="black" stroke="black" cx="711.7" cy="-162" rx="2.7" ry="2.7"/>
</g>
<!-- 1739114594656&#45;&#45;1739114594560 -->
<g id="edge18" class="edge"><title>1739114594656&#45;&#45;1739114594560</title>
<path fill="none" stroke="black" d="M715.464,-215.697C714.192,-197.883 712.326,-171.769 711.827,-164.776"/>
</g>
<!-- 1739114594752 -->
<g id="node25" class="node"><title>1739114594752</title>
<ellipse fill="none" stroke="black" cx="759.7" cy="-162" rx="27" ry="18"/>
<text text-anchor="middle" x="759.7" y="-158.5" font-family="Times New Roman,serif" font-size="15.00">seq</text>
</g>
<!-- 1739114594656&#45;&#45;1739114594752 -->
<g id="edge23" class="edge"><title>1739114594656&#45;&#45;1739114594752</title>
<path fill="none" stroke="black" d="M726.457,-217.116C733.495,-205.66 742.953,-190.263 749.981,-178.821"/>
</g>
<!-- 1739114596864 -->
<g id="node26" class="node"><title>1739114596864</title>
<ellipse fill="none" stroke="black" cx="664.7" cy="-90" rx="144.571" ry="18"/>
<text text-anchor="middle" x="664.7" y="-86.5" font-family="Times New Roman,serif" font-size="15.00">Insert Date Appeal to Prefecture</text>
</g>
<!-- 1739114594752&#45;&#45;1739114596864 -->
<g id="edge19" class="edge"><title>1739114594752&#45;&#45;1739114596864</title>
<path fill="none" stroke="black" d="M742.276,-148.161C726.956,-136.873 704.545,-120.36 687.746,-107.981"/>
</g>
<!-- 1739114595712 -->
<g id="node27" class="node"><title>1739114595712</title>
<ellipse fill="none" stroke="black" cx="854.7" cy="-90" rx="27" ry="18"/>
<text text-anchor="middle" x="854.7" y="-86.5" font-family="Times New Roman,serif" font-size="15.00">xor</text>
</g>
<!-- 1739114594752&#45;&#45;1739114595712 -->
<g id="edge22" class="edge"><title>1739114594752&#45;&#45;1739114595712</title>
<path fill="none" stroke="black" d="M777.124,-148.161C794.158,-135.61 819.958,-116.599 837.064,-103.995"/>
</g>
<!-- 1739114595856 -->
<g id="node28" class="node"><title>1739114595856</title>
<ellipse fill="black" stroke="black" cx="783.7" cy="-18" rx="2.7" ry="2.7"/>
</g>
<!-- 1739114595712&#45;&#45;1739114595856 -->
<g id="edge20" class="edge"><title>1739114595712&#45;&#45;1739114595856</title>
<path fill="none" stroke="black" d="M839.989,-74.496C821.792,-56.5555 792.343,-27.5217 785.266,-20.5436"/>
</g>
<!-- 1739114598256 -->
<g id="node29" class="node"><title>1739114598256</title>
<ellipse fill="none" stroke="black" cx="924.7" cy="-18" rx="120.43" ry="18"/>
<text text-anchor="middle" x="924.7" y="-14.5" font-family="Times New Roman,serif" font-size="15.00">Send Appeal to Prefecture</text>
</g>
<!-- 1739114595712&#45;&#45;1739114598256 -->
<g id="edge21" class="edge"><title>1739114595712&#45;&#45;1739114598256</title>
<path fill="none" stroke="black" d="M869.204,-74.496C880.417,-63.2831 895.963,-47.737 907.749,-35.9506"/>
</g>
<!-- 1739122189552 -->
<g id="node32" class="node"><title>1739122189552</title>
<ellipse fill="black" stroke="black" cx="498.7" cy="-450" rx="2.7" ry="2.7"/>
</g>
<!-- 1739137297040&#45;&#45;1739122189552 -->
<g id="edge30" class="edge"><title>1739137297040&#45;&#45;1739122189552</title>
<path fill="none" stroke="black" d="M582.464,-508.485C556.335,-490.553 510.305,-458.965 500.549,-452.269"/>
</g>
<!-- 1739114597248 -->
<g id="node33" class="node"><title>1739114597248</title>
<ellipse fill="none" stroke="black" cx="640.7" cy="-450" rx="120.819" ry="18"/>
<text text-anchor="middle" x="640.7" y="-446.5" font-family="Times New Roman,serif" font-size="15.00">Send for Credit Collection</text>
</g>
<!-- 1739137297040&#45;&#45;1739114597248 -->
<g id="edge31" class="edge"><title>1739137297040&#45;&#45;1739114597248</title>
<path fill="none" stroke="black" d="M609.977,-504.765C616.255,-493.779 624.533,-479.292 630.915,-468.124"/>
</g>
<!-- 1739122191040 -->
<g id="node34" class="node"><title>1739122191040</title>
<ellipse fill="none" stroke="black" cx="810.7" cy="-450" rx="27" ry="18"/>
<text text-anchor="middle" x="810.7" y="-446.5" font-family="Times New Roman,serif" font-size="15.00">seq</text>
</g>
<!-- 1739137297040&#45;&#45;1739122191040 -->
<g id="edge56" class="edge"><title>1739137297040&#45;&#45;1739122191040</title>
<path fill="none" stroke="black" d="M624.381,-513.106C664.821,-499.626 746.725,-472.325 787.105,-458.865"/>
</g>
<!-- 1739114598304 -->
<g id="node35" class="node"><title>1739114598304</title>
<ellipse fill="none" stroke="black" cx="810.7" cy="-378" rx="120.43" ry="18"/>
<text text-anchor="middle" x="810.7" y="-374.5" font-family="Times New Roman,serif" font-size="15.00">Send Appeal to Prefecture</text>
</g>
<!-- 1739122191040&#45;&#45;1739114598304 -->
<g id="edge32" class="edge"><title>1739122191040&#45;&#45;1739114598304</title>
<path fill="none" stroke="black" d="M810.7,-431.697C810.7,-420.846 810.7,-406.917 810.7,-396.104"/>
</g>
<!-- 1739114597344 -->
<g id="node36" class="node"><title>1739114597344</title>
<ellipse fill="none" stroke="black" cx="1170.7" cy="-378" rx="27" ry="18"/>
<text text-anchor="middle" x="1170.7" y="-374.5" font-family="Times New Roman,serif" font-size="15.00">xor</text>
</g>
<!-- 1739122191040&#45;&#45;1739114597344 -->
<g id="edge55" class="edge"><title>1739122191040&#45;&#45;1739114597344</title>
<path fill="none" stroke="black" d="M836.302,-444.022C902.483,-431.153 1078.68,-396.892 1144.99,-384"/>
</g>
<!-- 1739114597152 -->
<g id="node37" class="node"><title>1739114597152</title>
<ellipse fill="black" stroke="black" cx="1170.7" cy="-306" rx="2.7" ry="2.7"/>
</g>
<!-- 1739114597344&#45;&#45;1739114597152 -->
<g id="edge33" class="edge"><title>1739114597344&#45;&#45;1739114597152</title>
<path fill="none" stroke="black" d="M1170.7,-359.697C1170.7,-341.883 1170.7,-315.769 1170.7,-308.776"/>
</g>
<!-- 1739114597440 -->
<g id="node38" class="node"><title>1739114597440</title>
<ellipse fill="none" stroke="black" cx="1252.7" cy="-306" rx="27" ry="18"/>
<text text-anchor="middle" x="1252.7" y="-302.5" font-family="Times New Roman,serif" font-size="15.00">seq</text>
</g>
<!-- 1739114597344&#45;&#45;1739114597440 -->
<g id="edge54" class="edge"><title>1739114597344&#45;&#45;1739114597440</title>
<path fill="none" stroke="black" d="M1186.9,-363.17C1201.37,-350.819 1222.44,-332.832 1236.81,-320.563"/>
</g>
<!-- 1739114594608 -->
<g id="node39" class="node"><title>1739114594608</title>
<ellipse fill="none" stroke="black" cx="890.7" cy="-234" rx="27" ry="18"/>
<text text-anchor="middle" x="890.7" y="-230.5" font-family="Times New Roman,serif" font-size="15.00">xor</text>
</g>
<!-- 1739114597440&#45;&#45;1739114594608 -->
<g id="edge36" class="edge"><title>1739114597440&#45;&#45;1739114594608</title>
<path fill="none" stroke="black" d="M1226.96,-300.022C1160.41,-287.153 983.227,-252.892 916.555,-240"/>
</g>
<!-- 1739114595136 -->
<g id="node42" class="node"><title>1739114595136</title>
<ellipse fill="none" stroke="black" cx="1253.7" cy="-234" rx="27" ry="18"/>
<text text-anchor="middle" x="1253.7" y="-230.5" font-family="Times New Roman,serif" font-size="15.00">seq</text>
</g>
<!-- 1739114597440&#45;&#45;1739114595136 -->
<g id="edge44" class="edge"><title>1739114597440&#45;&#45;1739114595136</title>
<path fill="none" stroke="black" d="M1252.95,-287.697C1253.1,-276.846 1253.3,-262.917 1253.46,-252.104"/>
</g>
<!-- 1739114595760 -->
<g id="node50" class="node"><title>1739114595760</title>
<ellipse fill="none" stroke="black" cx="1628.7" cy="-234" rx="27" ry="18"/>
<text text-anchor="middle" x="1628.7" y="-230.5" font-family="Times New Roman,serif" font-size="15.00">xor</text>
</g>
<!-- 1739114597440&#45;&#45;1739114595760 -->
<g id="edge53" class="edge"><title>1739114597440&#45;&#45;1739114595760</title>
<path fill="none" stroke="black" d="M1278.54,-300.189C1347.23,-287.401 1533.78,-252.671 1602.68,-239.845"/>
</g>
<!-- 1739114595088 -->
<g id="node40" class="node"><title>1739114595088</title>
<ellipse fill="black" stroke="black" cx="807.7" cy="-162" rx="2.7" ry="2.7"/>
</g>
<!-- 1739114594608&#45;&#45;1739114595088 -->
<g id="edge34" class="edge"><title>1739114594608&#45;&#45;1739114595088</title>
<path fill="none" stroke="black" d="M874.302,-219.17C853.137,-201.32 818.019,-171.702 809.57,-164.577"/>
</g>
<!-- 1739114595184 -->
<g id="node41" class="node"><title>1739114595184</title>
<ellipse fill="none" stroke="black" cx="890.7" cy="-162" rx="61.6894" ry="18"/>
<text text-anchor="middle" x="890.7" y="-158.5" font-family="Times New Roman,serif" font-size="15.00">Add penalty</text>
</g>
<!-- 1739114594608&#45;&#45;1739114595184 -->
<g id="edge35" class="edge"><title>1739114594608&#45;&#45;1739114595184</title>
<path fill="none" stroke="black" d="M890.7,-215.697C890.7,-204.846 890.7,-190.917 890.7,-180.104"/>
</g>
<!-- 1739114595472 -->
<g id="node43" class="node"><title>1739114595472</title>
<ellipse fill="none" stroke="black" cx="1144.7" cy="-162" rx="173.941" ry="18"/>
<text text-anchor="middle" x="1144.7" y="-158.5" font-family="Times New Roman,serif" font-size="15.00">Receive Result Appeal from Prefecture</text>
</g>
<!-- 1739114595136&#45;&#45;1739114595472 -->
<g id="edge37" class="edge"><title>1739114595136&#45;&#45;1739114595472</title>
<path fill="none" stroke="black" d="M1234.71,-220.807C1217.15,-209.526 1190.86,-192.645 1171.23,-180.034"/>
</g>
<!-- 1739114595616 -->
<g id="node44" class="node"><title>1739114595616</title>
<ellipse fill="none" stroke="black" cx="1363.7" cy="-162" rx="27" ry="18"/>
<text text-anchor="middle" x="1363.7" y="-158.5" font-family="Times New Roman,serif" font-size="15.00">xor</text>
</g>
<!-- 1739114595136&#45;&#45;1739114595616 -->
<g id="edge40" class="edge"><title>1739114595136&#45;&#45;1739114595616</title>
<path fill="none" stroke="black" d="M1272.86,-220.807C1293.05,-207.959 1324.65,-187.848 1344.76,-175.053"/>
</g>
<!-- 1739114595952 -->
<g id="node47" class="node"><title>1739114595952</title>
<ellipse fill="none" stroke="black" cx="1438.7" cy="-162" rx="27" ry="18"/>
<text text-anchor="middle" x="1438.7" y="-158.5" font-family="Times New Roman,serif" font-size="15.00">xor</text>
</g>
<!-- 1739114595136&#45;&#45;1739114595952 -->
<g id="edge43" class="edge"><title>1739114595136&#45;&#45;1739114595952</title>
<path fill="none" stroke="black" d="M1276.76,-224.276C1312.3,-210.825 1380.1,-185.174 1415.64,-171.724"/>
</g>
<!-- 1739114596096 -->
<g id="node45" class="node"><title>1739114596096</title>
<ellipse fill="black" stroke="black" cx="1277.7" cy="-90" rx="2.7" ry="2.7"/>
</g>
<!-- 1739114595616&#45;&#45;1739114596096 -->
<g id="edge38" class="edge"><title>1739114595616&#45;&#45;1739114596096</title>
<path fill="none" stroke="black" d="M1347.12,-147.503C1325.25,-129.705 1288.5,-99.7933 1279.66,-92.5936"/>
</g>
<!-- 1739114596240 -->
<g id="node46" class="node"><title>1739114596240</title>
<ellipse fill="none" stroke="black" cx="1360.7" cy="-90" rx="61.6894" ry="18"/>
<text text-anchor="middle" x="1360.7" y="-86.5" font-family="Times New Roman,serif" font-size="15.00">Add penalty</text>
</g>
<!-- 1739114595616&#45;&#45;1739114596240 -->
<g id="edge39" class="edge"><title>1739114595616&#45;&#45;1739114596240</title>
<path fill="none" stroke="black" d="M1362.96,-143.697C1362.49,-132.846 1361.9,-118.917 1361.43,-108.104"/>
</g>
<!-- 1739114596528 -->
<g id="node48" class="node"><title>1739114596528</title>
<ellipse fill="black" stroke="black" cx="1443.7" cy="-90" rx="2.7" ry="2.7"/>
</g>
<!-- 1739114595952&#45;&#45;1739114596528 -->
<g id="edge41" class="edge"><title>1739114595952&#45;&#45;1739114596528</title>
<path fill="none" stroke="black" d="M1439.94,-143.697C1441.21,-125.883 1443.07,-99.7686 1443.57,-92.7764"/>
</g>
<!-- 1739114596624 -->
<g id="node49" class="node"><title>1739114596624</title>
<ellipse fill="none" stroke="black" cx="1612.7" cy="-90" rx="148.91" ry="18"/>
<text text-anchor="middle" x="1612.7" y="-86.5" font-family="Times New Roman,serif" font-size="15.00">Notify Result Appeal to Offender</text>
</g>
<!-- 1739114595952&#45;&#45;1739114596624 -->
<g id="edge42" class="edge"><title>1739114595952&#45;&#45;1739114596624</title>
<path fill="none" stroke="black" d="M1461.45,-151.849C1489.45,-140.583 1537.52,-121.244 1571.96,-107.39"/>
</g>
<!-- 1739114598208 -->
<g id="node51" class="node"><title>1739114598208</title>
<ellipse fill="black" stroke="black" cx="1486.7" cy="-162" rx="2.7" ry="2.7"/>
</g>
<!-- 1739114595760&#45;&#45;1739114598208 -->
<g id="edge45" class="edge"><title>1739114595760&#45;&#45;1739114598208</title>
<path fill="none" stroke="black" d="M1607.44,-222.52C1571.54,-204.823 1501.55,-170.319 1488.74,-164.005"/>
</g>
<!-- 1739114597104 -->
<g id="node52" class="node"><title>1739114597104</title>
<ellipse fill="none" stroke="black" cx="1628.7" cy="-162" rx="120.819" ry="18"/>
<text text-anchor="middle" x="1628.7" y="-158.5" font-family="Times New Roman,serif" font-size="15.00">Send for Credit Collection</text>
</g>
<!-- 1739114595760&#45;&#45;1739114597104 -->
<g id="edge46" class="edge"><title>1739114595760&#45;&#45;1739114597104</title>
<path fill="none" stroke="black" d="M1628.7,-215.697C1628.7,-204.846 1628.7,-190.917 1628.7,-180.104"/>
</g>
<!-- 1739114595568 -->
<g id="node53" class="node"><title>1739114595568</title>
<ellipse fill="none" stroke="black" cx="1813.7" cy="-162" rx="45.7249" ry="18"/>
<text text-anchor="middle" x="1813.7" y="-158.5" font-family="Times New Roman,serif" font-size="15.00">Payment</text>
</g>
<!-- 1739114595760&#45;&#45;1739114595568 -->
<g id="edge47" class="edge"><title>1739114595760&#45;&#45;1739114595568</title>
<path fill="none" stroke="black" d="M1651.76,-224.276C1684.59,-211.852 1744.94,-189.017 1781.97,-175.005"/>
</g>
<!-- 1739114596720 -->
<g id="node54" class="node"><title>1739114596720</title>
<ellipse fill="none" stroke="black" cx="1904.7" cy="-162" rx="27" ry="18"/>
<text text-anchor="middle" x="1904.7" y="-158.5" font-family="Times New Roman,serif" font-size="15.00">seq</text>
</g>
<!-- 1739114595760&#45;&#45;1739114596720 -->
<g id="edge52" class="edge"><title>1739114595760&#45;&#45;1739114596720</title>
<path fill="none" stroke="black" d="M1653.68,-226.665C1706.23,-213.337 1827.65,-182.541 1879.98,-169.271"/>
</g>
<!-- 1739114597488 -->
<g id="node55" class="node"><title>1739114597488</title>
<ellipse fill="none" stroke="black" cx="1883.7" cy="-90" rx="78.5434" ry="18"/>
<text text-anchor="middle" x="1883.7" y="-86.5" font-family="Times New Roman,serif" font-size="15.00">Appeal to Judge</text>
</g>
<!-- 1739114596720&#45;&#45;1739114597488 -->
<g id="edge48" class="edge"><title>1739114596720&#45;&#45;1739114597488</title>
<path fill="none" stroke="black" d="M1899.62,-144.055C1896.36,-133.211 1892.15,-119.183 1888.88,-108.275"/>
</g>
<!-- 1739114597728 -->
<g id="node56" class="node"><title>1739114597728</title>
<ellipse fill="none" stroke="black" cx="2007.7" cy="-90" rx="27" ry="18"/>
<text text-anchor="middle" x="2007.7" y="-86.5" font-family="Times New Roman,serif" font-size="15.00">xor</text>
</g>
<!-- 1739114596720&#45;&#45;1739114597728 -->
<g id="edge51" class="edge"><title>1739114596720&#45;&#45;1739114597728</title>
<path fill="none" stroke="black" d="M1923.11,-148.485C1941.86,-135.744 1970.75,-116.108 1989.45,-103.406"/>
</g>
<!-- 1739137159376 -->
<g id="node57" class="node"><title>1739137159376</title>
<ellipse fill="black" stroke="black" cx="1973.7" cy="-18" rx="2.7" ry="2.7"/>
</g>
<!-- 1739114597728&#45;&#45;1739137159376 -->
<g id="edge49" class="edge"><title>1739114597728&#45;&#45;1739137159376</title>
<path fill="none" stroke="black" d="M1999.81,-72.7646C1991.18,-54.9939 1978.1,-28.0601 1974.59,-20.8363"/>
</g>
<!-- 1739114598112 -->
<g id="node58" class="node"><title>1739114598112</title>
<ellipse fill="none" stroke="black" cx="2040.7" cy="-18" rx="45.7249" ry="18"/>
<text text-anchor="middle" x="2040.7" y="-14.5" font-family="Times New Roman,serif" font-size="15.00">Payment</text>
</g>
<!-- 1739114597728&#45;&#45;1739114598112 -->
<g id="edge50" class="edge"><title>1739114597728&#45;&#45;1739114598112</title>
<path fill="none" stroke="black" d="M2015.52,-72.411C2020.7,-61.4141 2027.49,-47.0274 2032.71,-35.9562"/>
</g>
</g>
</svg>
