<?xml version="1.0" encoding="UTF-8" standalone="no"?>
<!DOCTYPE svg PUBLIC "-//W3C//DTD SVG 1.1//EN"
 "http://www.w3.org/Graphics/SVG/1.1/DTD/svg11.dtd">
<!-- Generated by graphviz version 2.38.0 (20140413.2041)
 -->
<!-- Title: pt Pages: 1 -->
<svg width="1785pt" height="548pt"
 viewBox="0.00 0.00 1784.61 548.00" xmlns="http://www.w3.org/2000/svg" xmlns:xlink="http://www.w3.org/1999/xlink">
<g id="graph0" class="graph" transform="scale(1 1) rotate(0) translate(4 544)">
<title>pt</title>
<!-- 1739111679072 -->
<g id="node1" class="node"><title>1739111679072</title>
<ellipse fill="none" stroke="black" cx="555.7" cy="-522" rx="27" ry="18"/>
<text text-anchor="middle" x="555.7" y="-518.5" font-family="Times New Roman,serif" font-size="15.00">seq</text>
</g>
<!-- 1739111681328 -->
<g id="node2" class="node"><title>1739111681328</title>
<ellipse fill="none" stroke="black" cx="450.7" cy="-450" rx="59.5207" ry="18"/>
<text text-anchor="middle" x="450.7" y="-446.5" font-family="Times New Roman,serif" font-size="15.00">Create Fine</text>
</g>
<!-- 1739111679072&#45;&#45;1739111681328 -->
<g id="edge1" class="edge"><title>1739111679072&#45;&#45;1739111681328</title>
<path fill="none" stroke="black" d="M536.928,-508.485C519.35,-496.767 493.023,-479.215 474.086,-466.591"/>
</g>
<!-- 1739111681568 -->
<g id="node3" class="node"><title>1739111681568</title>
<ellipse fill="none" stroke="black" cx="555.7" cy="-450" rx="27" ry="18"/>
<text text-anchor="middle" x="555.7" y="-446.5" font-family="Times New Roman,serif" font-size="15.00">and</text>
</g>
<!-- 1739111679072&#45;&#45;1739111681568 -->
<g id="edge34" class="edge"><title>1739111679072&#45;&#45;1739111681568</title>
<path fill="none" stroke="black" d="M555.7,-503.697C555.7,-492.846 555.7,-478.917 555.7,-468.104"/>
</g>
<!-- 1739111614496 -->
<g id="node36" class="node"><title>1739111614496</title>
<ellipse fill="none" stroke="black" cx="627.7" cy="-450" rx="27" ry="18"/>
<text text-anchor="middle" x="627.7" y="-446.5" font-family="Times New Roman,serif" font-size="15.00">xor</text>
</g>
<!-- 1739111679072&#45;&#45;1739111614496 -->
<g id="edge37" class="edge"><title>1739111679072&#45;&#45;1739111614496</title>
<path fill="none" stroke="black" d="M570.27,-506.834C582.68,-494.77 600.431,-477.512 612.904,-465.385"/>
</g>
<!-- 1739111613056 -->
<g id="node4" class="node"><title>1739111613056</title>
<ellipse fill="none" stroke="black" cx="384.7" cy="-378" rx="27" ry="18"/>
<text text-anchor="middle" x="384.7" y="-374.5" font-family="Times New Roman,serif" font-size="15.00">and</text>
</g>
<!-- 1739111681568&#45;&#45;1739111613056 -->
<g id="edge11" class="edge"><title>1739111681568&#45;&#45;1739111613056</title>
<path fill="none" stroke="black" d="M533.345,-439.849C500.573,-426.433 439.836,-401.57 407.061,-388.154"/>
</g>
<!-- 1739111613152 -->
<g id="node14" class="node"><title>1739111613152</title>
<ellipse fill="none" stroke="black" cx="561.7" cy="-378" rx="27" ry="18"/>
<text text-anchor="middle" x="561.7" y="-374.5" font-family="Times New Roman,serif" font-size="15.00">xor</text>
</g>
<!-- 1739111681568&#45;&#45;1739111613152 -->
<g id="edge33" class="edge"><title>1739111681568&#45;&#45;1739111613152</title>
<path fill="none" stroke="black" d="M557.183,-431.697C558.113,-420.846 559.307,-406.917 560.234,-396.104"/>
</g>
<!-- 1739111612576 -->
<g id="node5" class="node"><title>1739111612576</title>
<ellipse fill="none" stroke="black" cx="143.7" cy="-306" rx="27" ry="18"/>
<text text-anchor="middle" x="143.7" y="-302.5" font-family="Times New Roman,serif" font-size="15.00">xor</text>
</g>
<!-- 1739111613056&#45;&#45;1739111612576 -->
<g id="edge4" class="edge"><title>1739111613056&#45;&#45;1739111612576</title>
<path fill="none" stroke="black" d="M360.265,-369.903C314.074,-356.486 214.44,-327.547 168.199,-314.116"/>
</g>
<!-- 1739111614064 -->
<g id="node8" class="node"><title>1739111614064</title>
<ellipse fill="none" stroke="black" cx="338.7" cy="-306" rx="46.6143" ry="18"/>
<text text-anchor="middle" x="338.7" y="-302.5" font-family="Times New Roman,serif" font-size="15.00">xor loop</text>
</g>
<!-- 1739111613056&#45;&#45;1739111614064 -->
<g id="edge7" class="edge"><title>1739111613056&#45;&#45;1739111614064</title>
<path fill="none" stroke="black" d="M374.262,-361.116C366.946,-349.983 357.183,-335.127 349.738,-323.797"/>
</g>
<!-- 1739111612624 -->
<g id="node11" class="node"><title>1739111612624</title>
<ellipse fill="none" stroke="black" cx="430.7" cy="-306" rx="27" ry="18"/>
<text text-anchor="middle" x="430.7" y="-302.5" font-family="Times New Roman,serif" font-size="15.00">xor</text>
</g>
<!-- 1739111613056&#45;&#45;1739111612624 -->
<g id="edge10" class="edge"><title>1739111613056&#45;&#45;1739111612624</title>
<path fill="none" stroke="black" d="M395.138,-361.116C402.666,-349.66 412.785,-334.263 420.303,-322.821"/>
</g>
<!-- 1739111613440 -->
<g id="node6" class="node"><title>1739111613440</title>
<ellipse fill="black" stroke="black" cx="2.7" cy="-234" rx="2.7" ry="2.7"/>
</g>
<!-- 1739111612576&#45;&#45;1739111613440 -->
<g id="edge2" class="edge"><title>1739111612576&#45;&#45;1739111613440</title>
<path fill="none" stroke="black" d="M122.591,-294.52C86.9442,-276.823 17.4421,-242.319 4.72371,-236.005"/>
</g>
<!-- 1739111612816 -->
<g id="node7" class="node"><title>1739111612816</title>
<ellipse fill="none" stroke="black" cx="143.7" cy="-234" rx="120.43" ry="18"/>
<text text-anchor="middle" x="143.7" y="-230.5" font-family="Times New Roman,serif" font-size="15.00">Send Appeal to Prefecture</text>
</g>
<!-- 1739111612576&#45;&#45;1739111612816 -->
<g id="edge3" class="edge"><title>1739111612576&#45;&#45;1739111612816</title>
<path fill="none" stroke="black" d="M143.7,-287.697C143.7,-276.846 143.7,-262.917 143.7,-252.104"/>
</g>
<!-- 1739111614160 -->
<g id="node9" class="node"><title>1739111614160</title>
<ellipse fill="black" stroke="black" cx="284.7" cy="-234" rx="2.7" ry="2.7"/>
</g>
<!-- 1739111614064&#45;&#45;1739111614160 -->
<g id="edge5" class="edge"><title>1739111614064&#45;&#45;1739111614160</title>
<path fill="none" stroke="black" d="M325.903,-288.411C312.18,-270.622 291.614,-243.962 286.101,-236.816"/>
</g>
<!-- 1739111614544 -->
<g id="node10" class="node"><title>1739111614544</title>
<ellipse fill="none" stroke="black" cx="351.7" cy="-234" rx="45.7249" ry="18"/>
<text text-anchor="middle" x="351.7" y="-230.5" font-family="Times New Roman,serif" font-size="15.00">Payment</text>
</g>
<!-- 1739111614064&#45;&#45;1739111614544 -->
<g id="edge6" class="edge"><title>1739111614064&#45;&#45;1739111614544</title>
<path fill="none" stroke="black" d="M341.913,-287.697C343.929,-276.846 346.515,-262.917 348.523,-252.104"/>
</g>
<!-- 1739111612720 -->
<g id="node12" class="node"><title>1739111612720</title>
<ellipse fill="black" stroke="black" cx="418.7" cy="-234" rx="2.7" ry="2.7"/>
</g>
<!-- 1739111612624&#45;&#45;1739111612720 -->
<g id="edge8" class="edge"><title>1739111612624&#45;&#45;1739111612720</title>
<path fill="none" stroke="black" d="M427.795,-288.055C424.743,-270.252 420.22,-243.865 419.008,-236.796"/>
</g>
<!-- 1739111615072 -->
<g id="node13" class="node"><title>1739111615072</title>
<ellipse fill="none" stroke="black" cx="501.7" cy="-234" rx="61.6894" ry="18"/>
<text text-anchor="middle" x="501.7" y="-230.5" font-family="Times New Roman,serif" font-size="15.00">Add penalty</text>
</g>
<!-- 1739111612624&#45;&#45;1739111615072 -->
<g id="edge9" class="edge"><title>1739111612624&#45;&#45;1739111615072</title>
<path fill="none" stroke="black" d="M445.411,-290.496C456.947,-279.123 473.004,-263.292 485.017,-251.448"/>
</g>
<!-- 1739111613536 -->
<g id="node15" class="node"><title>1739111613536</title>
<ellipse fill="black" stroke="black" cx="561.7" cy="-306" rx="2.7" ry="2.7"/>
</g>
<!-- 1739111613152&#45;&#45;1739111613536 -->
<g id="edge12" class="edge"><title>1739111613152&#45;&#45;1739111613536</title>
<path fill="none" stroke="black" d="M561.7,-359.697C561.7,-341.883 561.7,-315.769 561.7,-308.776"/>
</g>
<!-- 1739111614304 -->
<g id="node16" class="node"><title>1739111614304</title>
<ellipse fill="none" stroke="black" cx="765.7" cy="-306" rx="27" ry="18"/>
<text text-anchor="middle" x="765.7" y="-302.5" font-family="Times New Roman,serif" font-size="15.00">seq</text>
</g>
<!-- 1739111613152&#45;&#45;1739111614304 -->
<g id="edge32" class="edge"><title>1739111613152&#45;&#45;1739111614304</title>
<path fill="none" stroke="black" d="M585.101,-368.97C624.348,-355.503 702.985,-328.52 742.258,-315.044"/>
</g>
<!-- 1739111614208 -->
<g id="node17" class="node"><title>1739111614208</title>
<ellipse fill="none" stroke="black" cx="608.7" cy="-234" rx="27" ry="18"/>
<text text-anchor="middle" x="608.7" y="-230.5" font-family="Times New Roman,serif" font-size="15.00">and</text>
</g>
<!-- 1739111614304&#45;&#45;1739111614208 -->
<g id="edge21" class="edge"><title>1739111614304&#45;&#45;1739111614208</title>
<path fill="none" stroke="black" d="M743.87,-295.267C713.959,-281.931 660.543,-258.115 630.597,-244.763"/>
</g>
<!-- 1739111613392 -->
<g id="node26" class="node"><title>1739111613392</title>
<ellipse fill="none" stroke="black" cx="765.7" cy="-234" rx="27" ry="18"/>
<text text-anchor="middle" x="765.7" y="-230.5" font-family="Times New Roman,serif" font-size="15.00">xor</text>
</g>
<!-- 1739111614304&#45;&#45;1739111613392 -->
<g id="edge24" class="edge"><title>1739111614304&#45;&#45;1739111613392</title>
<path fill="none" stroke="black" d="M765.7,-287.697C765.7,-276.846 765.7,-262.917 765.7,-252.104"/>
</g>
<!-- 1739111615744 -->
<g id="node29" class="node"><title>1739111615744</title>
<ellipse fill="none" stroke="black" cx="1001.7" cy="-234" rx="27" ry="18"/>
<text text-anchor="middle" x="1001.7" y="-230.5" font-family="Times New Roman,serif" font-size="15.00">xor</text>
</g>
<!-- 1739111614304&#45;&#45;1739111615744 -->
<g id="edge27" class="edge"><title>1739111614304&#45;&#45;1739111615744</title>
<path fill="none" stroke="black" d="M790.067,-297.772C835.408,-284.324 932.225,-255.607 977.465,-242.188"/>
</g>
<!-- 1739111613008 -->
<g id="node32" class="node"><title>1739111613008</title>
<ellipse fill="none" stroke="black" cx="1389.7" cy="-234" rx="27" ry="18"/>
<text text-anchor="middle" x="1389.7" y="-230.5" font-family="Times New Roman,serif" font-size="15.00">xor</text>
</g>
<!-- 1739111614304&#45;&#45;1739111613008 -->
<g id="edge31" class="edge"><title>1739111614304&#45;&#45;1739111613008</title>
<path fill="none" stroke="black" d="M792.114,-302.037C894.065,-290.6 1261.32,-249.402 1363.28,-237.964"/>
</g>
<!-- 1739111615456 -->
<g id="node18" class="node"><title>1739111615456</title>
<ellipse fill="none" stroke="black" cx="350.7" cy="-162" rx="27" ry="18"/>
<text text-anchor="middle" x="350.7" y="-158.5" font-family="Times New Roman,serif" font-size="15.00">xor</text>
</g>
<!-- 1739111614208&#45;&#45;1739111615456 -->
<g id="edge15" class="edge"><title>1739111614208&#45;&#45;1739111615456</title>
<path fill="none" stroke="black" d="M583.962,-226.288C534.648,-212.908 424.616,-183.055 375.363,-169.692"/>
</g>
<!-- 1739111615936 -->
<g id="node21" class="node"><title>1739111615936</title>
<ellipse fill="none" stroke="black" cx="565.7" cy="-162" rx="27" ry="18"/>
<text text-anchor="middle" x="565.7" y="-158.5" font-family="Times New Roman,serif" font-size="15.00">seq</text>
</g>
<!-- 1739111614208&#45;&#45;1739111615936 -->
<g id="edge20" class="edge"><title>1739111614208&#45;&#45;1739111615936</title>
<path fill="none" stroke="black" d="M598.943,-217.116C591.905,-205.66 582.447,-190.263 575.419,-178.821"/>
</g>
<!-- 1739111615984 -->
<g id="node19" class="node"><title>1739111615984</title>
<ellipse fill="black" stroke="black" cx="185.7" cy="-90" rx="2.7" ry="2.7"/>
</g>
<!-- 1739111615456&#45;&#45;1739111615984 -->
<g id="edge13" class="edge"><title>1739111615456&#45;&#45;1739111615984</title>
<path fill="none" stroke="black" d="M328.447,-151.559C287.28,-134.094 202.105,-97.9596 187.769,-91.8779"/>
</g>
<!-- 1739111615504 -->
<g id="node20" class="node"><title>1739111615504</title>
<ellipse fill="none" stroke="black" cx="350.7" cy="-90" rx="144.571" ry="18"/>
<text text-anchor="middle" x="350.7" y="-86.5" font-family="Times New Roman,serif" font-size="15.00">Insert Date Appeal to Prefecture</text>
</g>
<!-- 1739111615456&#45;&#45;1739111615504 -->
<g id="edge14" class="edge"><title>1739111615456&#45;&#45;1739111615504</title>
<path fill="none" stroke="black" d="M350.7,-143.697C350.7,-132.846 350.7,-118.917 350.7,-108.104"/>
</g>
<!-- 1739111615264 -->
<g id="node22" class="node"><title>1739111615264</title>
<ellipse fill="none" stroke="black" cx="565.7" cy="-90" rx="52.6228" ry="18"/>
<text text-anchor="middle" x="565.7" y="-86.5" font-family="Times New Roman,serif" font-size="15.00">Send Fine</text>
</g>
<!-- 1739111615936&#45;&#45;1739111615264 -->
<g id="edge16" class="edge"><title>1739111615936&#45;&#45;1739111615264</title>
<path fill="none" stroke="black" d="M565.7,-143.697C565.7,-132.846 565.7,-118.917 565.7,-108.104"/>
</g>
<!-- 1739111614640 -->
<g id="node23" class="node"><title>1739111614640</title>
<ellipse fill="none" stroke="black" cx="663.7" cy="-90" rx="27" ry="18"/>
<text text-anchor="middle" x="663.7" y="-86.5" font-family="Times New Roman,serif" font-size="15.00">xor</text>
</g>
<!-- 1739111615936&#45;&#45;1739111614640 -->
<g id="edge19" class="edge"><title>1739111615936&#45;&#45;1739111614640</title>
<path fill="none" stroke="black" d="M583.675,-148.161C601.357,-135.531 628.196,-116.36 645.839,-103.758"/>
</g>
<!-- 1739111615840 -->
<g id="node24" class="node"><title>1739111615840</title>
<ellipse fill="black" stroke="black" cx="599.7" cy="-18" rx="2.7" ry="2.7"/>
</g>
<!-- 1739111614640&#45;&#45;1739111615840 -->
<g id="edge17" class="edge"><title>1739111614640&#45;&#45;1739111615840</title>
<path fill="none" stroke="black" d="M650.127,-74.1548C633.689,-56.1754 607.409,-27.4321 601.096,-20.5271"/>
</g>
<!-- 1739111615216 -->
<g id="node25" class="node"><title>1739111615216</title>
<ellipse fill="none" stroke="black" cx="727.7" cy="-18" rx="107.914" ry="18"/>
<text text-anchor="middle" x="727.7" y="-14.5" font-family="Times New Roman,serif" font-size="15.00">Insert Fine Notification</text>
</g>
<!-- 1739111614640&#45;&#45;1739111615216 -->
<g id="edge18" class="edge"><title>1739111614640&#45;&#45;1739111615216</title>
<path fill="none" stroke="black" d="M677.273,-74.1548C687.473,-62.998 701.463,-47.6963 712.121,-36.04"/>
</g>
<!-- 1739111613584 -->
<g id="node27" class="node"><title>1739111613584</title>
<ellipse fill="black" stroke="black" cx="613.7" cy="-162" rx="2.7" ry="2.7"/>
</g>
<!-- 1739111613392&#45;&#45;1739111613584 -->
<g id="edge22" class="edge"><title>1739111613392&#45;&#45;1739111613584</title>
<path fill="none" stroke="black" d="M743.922,-222.971C705.833,-205.43 629.83,-170.428 615.915,-164.02"/>
</g>
<!-- 1739111615408 -->
<g id="node28" class="node"><title>1739111615408</title>
<ellipse fill="none" stroke="black" cx="807.7" cy="-162" rx="173.941" ry="18"/>
<text text-anchor="middle" x="807.7" y="-158.5" font-family="Times New Roman,serif" font-size="15.00">Receive Result Appeal from Prefecture</text>
</g>
<!-- 1739111613392&#45;&#45;1739111615408 -->
<g id="edge23" class="edge"><title>1739111613392&#45;&#45;1739111615408</title>
<path fill="none" stroke="black" d="M775.23,-217.116C781.814,-206.144 790.566,-191.557 797.325,-180.292"/>
</g>
<!-- 1739111616320 -->
<g id="node30" class="node"><title>1739111616320</title>
<ellipse fill="black" stroke="black" cx="1001.7" cy="-162" rx="2.7" ry="2.7"/>
</g>
<!-- 1739111615744&#45;&#45;1739111616320 -->
<g id="edge25" class="edge"><title>1739111615744&#45;&#45;1739111616320</title>
<path fill="none" stroke="black" d="M1001.7,-215.697C1001.7,-197.883 1001.7,-171.769 1001.7,-164.776"/>
</g>
<!-- 1739111615024 -->
<g id="node31" class="node"><title>1739111615024</title>
<ellipse fill="none" stroke="black" cx="1170.7" cy="-162" rx="148.91" ry="18"/>
<text text-anchor="middle" x="1170.7" y="-158.5" font-family="Times New Roman,serif" font-size="15.00">Notify Result Appeal to Offender</text>
</g>
<!-- 1739111615744&#45;&#45;1739111615024 -->
<g id="edge26" class="edge"><title>1739111615744&#45;&#45;1739111615024</title>
<path fill="none" stroke="black" d="M1024.14,-223.705C1051.35,-212.436 1097.68,-193.245 1130.97,-179.454"/>
</g>
<!-- 1739111614928 -->
<g id="node33" class="node"><title>1739111614928</title>
<ellipse fill="black" stroke="black" cx="1339.7" cy="-162" rx="2.7" ry="2.7"/>
</g>
<!-- 1739111613008&#45;&#45;1739111614928 -->
<g id="edge28" class="edge"><title>1739111613008&#45;&#45;1739111614928</title>
<path fill="none" stroke="black" d="M1378.6,-217.465C1365.71,-199.42 1345.6,-171.254 1340.77,-164.494"/>
</g>
<!-- 1739111616080 -->
<g id="node34" class="node"><title>1739111616080</title>
<ellipse fill="none" stroke="black" cx="1438.7" cy="-162" rx="78.5434" ry="18"/>
<text text-anchor="middle" x="1438.7" y="-158.5" font-family="Times New Roman,serif" font-size="15.00">Appeal to Judge</text>
</g>
<!-- 1739111613008&#45;&#45;1739111616080 -->
<g id="edge29" class="edge"><title>1739111613008&#45;&#45;1739111616080</title>
<path fill="none" stroke="black" d="M1400.57,-217.465C1408.36,-206.348 1418.83,-191.39 1426.83,-179.962"/>
</g>
<!-- 1739111703552 -->
<g id="node35" class="node"><title>1739111703552</title>
<ellipse fill="none" stroke="black" cx="1655.7" cy="-162" rx="120.819" ry="18"/>
<text text-anchor="middle" x="1655.7" y="-158.5" font-family="Times New Roman,serif" font-size="15.00">Send for Credit Collection</text>
</g>
<!-- 1739111613008&#45;&#45;1739111703552 -->
<g id="edge30" class="edge"><title>1739111613008&#45;&#45;1739111703552</title>
<path fill="none" stroke="black" d="M1414.72,-226.415C1456.63,-215.387 1542,-192.922 1599.04,-177.911"/>
</g>
<!-- 1739111614688 -->
<g id="node37" class="node"><title>1739111614688</title>
<ellipse fill="black" stroke="black" cx="621.7" cy="-378" rx="2.7" ry="2.7"/>
</g>
<!-- 1739111614496&#45;&#45;1739111614688 -->
<g id="edge35" class="edge"><title>1739111614496&#45;&#45;1739111614688</title>
<path fill="none" stroke="black" d="M626.217,-431.697C624.69,-413.883 622.452,-387.769 621.852,-380.776"/>
</g>
<!-- 1739111612480 -->
<g id="node38" class="node"><title>1739111612480</title>
<ellipse fill="none" stroke="black" cx="763.7" cy="-378" rx="120.819" ry="18"/>
<text text-anchor="middle" x="763.7" y="-374.5" font-family="Times New Roman,serif" font-size="15.00">Send for Credit Collection</text>
</g>
<!-- 1739111614496&#45;&#45;1739111612480 -->
<g id="edge36" class="edge"><title>1739111614496&#45;&#45;1739111612480</title>
<path fill="none" stroke="black" d="M648.355,-438.369C670.499,-426.971 705.94,-408.729 731.699,-395.471"/>
</g>
</g>
</svg>
