<?xml version="1.0" encoding="UTF-8" standalone="no"?>
<!DOCTYPE svg PUBLIC "-//W3C//DTD SVG 1.1//EN"
 "http://www.w3.org/Graphics/SVG/1.1/DTD/svg11.dtd">
<!-- Generated by graphviz version 2.38.0 (20140413.2041)
 -->
<!-- Title: pt Pages: 1 -->
<svg width="1564pt" height="620pt"
 viewBox="0.00 0.00 1564.40 620.00" xmlns="http://www.w3.org/2000/svg" xmlns:xlink="http://www.w3.org/1999/xlink">
<g id="graph0" class="graph" transform="scale(1 1) rotate(0) translate(4 616)">
<title>pt</title>
<!-- 1739100031824 -->
<g id="node1" class="node"><title>1739100031824</title>
<ellipse fill="none" stroke="black" cx="246.7" cy="-594" rx="27" ry="18"/>
<text text-anchor="middle" x="246.7" y="-590.5" font-family="Times New Roman,serif" font-size="15.00">seq</text>
</g>
<!-- 1739100031296 -->
<g id="node2" class="node"><title>1739100031296</title>
<ellipse fill="none" stroke="black" cx="122.7" cy="-522" rx="59.5207" ry="18"/>
<text text-anchor="middle" x="122.7" y="-518.5" font-family="Times New Roman,serif" font-size="15.00">Create Fine</text>
</g>
<!-- 1739100031824&#45;&#45;1739100031296 -->
<g id="edge1" class="edge"><title>1739100031824&#45;&#45;1739100031296</title>
<path fill="none" stroke="black" d="M226.777,-581.753C205.828,-569.927 172.744,-551.251 149.513,-538.136"/>
</g>
<!-- 1739100031872 -->
<g id="node3" class="node"><title>1739100031872</title>
<ellipse fill="none" stroke="black" cx="246.7" cy="-522" rx="46.6143" ry="18"/>
<text text-anchor="middle" x="246.7" y="-518.5" font-family="Times New Roman,serif" font-size="15.00">xor loop</text>
</g>
<!-- 1739100031824&#45;&#45;1739100031872 -->
<g id="edge38" class="edge"><title>1739100031824&#45;&#45;1739100031872</title>
<path fill="none" stroke="black" d="M246.7,-575.697C246.7,-564.846 246.7,-550.917 246.7,-540.104"/>
</g>
<!-- 1739100031920 -->
<g id="node40" class="node"><title>1739100031920</title>
<ellipse fill="none" stroke="black" cx="350.7" cy="-522" rx="27" ry="18"/>
<text text-anchor="middle" x="350.7" y="-518.5" font-family="Times New Roman,serif" font-size="15.00">xor</text>
</g>
<!-- 1739100031824&#45;&#45;1739100031920 -->
<g id="edge45" class="edge"><title>1739100031824&#45;&#45;1739100031920</title>
<path fill="none" stroke="black" d="M265.293,-580.485C284.223,-567.744 313.396,-548.108 332.268,-535.406"/>
</g>
<!-- 1739100032160 -->
<g id="node4" class="node"><title>1739100032160</title>
<ellipse fill="none" stroke="black" cx="191.7" cy="-450" rx="27" ry="18"/>
<text text-anchor="middle" x="191.7" y="-446.5" font-family="Times New Roman,serif" font-size="15.00">seq</text>
</g>
<!-- 1739100031872&#45;&#45;1739100032160 -->
<g id="edge36" class="edge"><title>1739100031872&#45;&#45;1739100032160</title>
<path fill="none" stroke="black" d="M233.666,-504.411C224.644,-492.929 212.719,-477.751 203.887,-466.511"/>
</g>
<!-- 1739100030720 -->
<g id="node39" class="node"><title>1739100030720</title>
<ellipse fill="black" stroke="black" cx="246.7" cy="-450" rx="2.7" ry="2.7"/>
</g>
<!-- 1739100031872&#45;&#45;1739100030720 -->
<g id="edge37" class="edge"><title>1739100031872&#45;&#45;1739100030720</title>
<path fill="none" stroke="black" d="M246.7,-503.697C246.7,-485.883 246.7,-459.769 246.7,-452.776"/>
</g>
<!-- 1739100032400 -->
<g id="node5" class="node"><title>1739100032400</title>
<ellipse fill="none" stroke="black" cx="76.7" cy="-378" rx="27" ry="18"/>
<text text-anchor="middle" x="76.7" y="-374.5" font-family="Times New Roman,serif" font-size="15.00">xor</text>
</g>
<!-- 1739100032160&#45;&#45;1739100032400 -->
<g id="edge4" class="edge"><title>1739100032160&#45;&#45;1739100032400</title>
<path fill="none" stroke="black" d="M172.452,-437.284C151.223,-424.362 117.265,-403.692 96.0112,-390.755"/>
</g>
<!-- 1739100031392 -->
<g id="node8" class="node"><title>1739100031392</title>
<ellipse fill="none" stroke="black" cx="185.7" cy="-378" rx="27" ry="18"/>
<text text-anchor="middle" x="185.7" y="-374.5" font-family="Times New Roman,serif" font-size="15.00">xor</text>
</g>
<!-- 1739100032160&#45;&#45;1739100031392 -->
<g id="edge13" class="edge"><title>1739100032160&#45;&#45;1739100031392</title>
<path fill="none" stroke="black" d="M190.217,-431.697C189.287,-420.846 188.093,-406.917 187.166,-396.104"/>
</g>
<!-- 1739100031200 -->
<g id="node17" class="node"><title>1739100031200</title>
<ellipse fill="none" stroke="black" cx="257.7" cy="-378" rx="27" ry="18"/>
<text text-anchor="middle" x="257.7" y="-374.5" font-family="Times New Roman,serif" font-size="15.00">xor</text>
</g>
<!-- 1739100032160&#45;&#45;1739100031200 -->
<g id="edge35" class="edge"><title>1739100032160&#45;&#45;1739100031200</title>
<path fill="none" stroke="black" d="M205.697,-434.155C216.897,-422.276 232.528,-405.697 243.723,-393.824"/>
</g>
<!-- 1739100029232 -->
<g id="node6" class="node"><title>1739100029232</title>
<ellipse fill="black" stroke="black" cx="2.7" cy="-306" rx="2.7" ry="2.7"/>
</g>
<!-- 1739100032400&#45;&#45;1739100029232 -->
<g id="edge2" class="edge"><title>1739100032400&#45;&#45;1739100029232</title>
<path fill="none" stroke="black" d="M61.725,-362.834C42.8049,-344.937 11.8039,-315.612 4.34935,-308.56"/>
</g>
<!-- 1739100029904 -->
<g id="node7" class="node"><title>1739100029904</title>
<ellipse fill="none" stroke="black" cx="76.7" cy="-306" rx="52.6228" ry="18"/>
<text text-anchor="middle" x="76.7" y="-302.5" font-family="Times New Roman,serif" font-size="15.00">Send Fine</text>
</g>
<!-- 1739100032400&#45;&#45;1739100029904 -->
<g id="edge3" class="edge"><title>1739100032400&#45;&#45;1739100029904</title>
<path fill="none" stroke="black" d="M76.7,-359.697C76.7,-348.846 76.7,-334.917 76.7,-324.104"/>
</g>
<!-- 1739100030768 -->
<g id="node9" class="node"><title>1739100030768</title>
<ellipse fill="black" stroke="black" cx="150.7" cy="-306" rx="2.7" ry="2.7"/>
</g>
<!-- 1739100031392&#45;&#45;1739100030768 -->
<g id="edge5" class="edge"><title>1739100031392&#45;&#45;1739100030768</title>
<path fill="none" stroke="black" d="M177.582,-360.765C168.697,-342.994 155.23,-316.06 151.618,-308.836"/>
</g>
<!-- 1739100032064 -->
<g id="node10" class="node"><title>1739100032064</title>
<ellipse fill="none" stroke="black" cx="198.7" cy="-306" rx="27" ry="18"/>
<text text-anchor="middle" x="198.7" y="-302.5" font-family="Times New Roman,serif" font-size="15.00">and</text>
</g>
<!-- 1739100031392&#45;&#45;1739100032064 -->
<g id="edge12" class="edge"><title>1739100031392&#45;&#45;1739100032064</title>
<path fill="none" stroke="black" d="M188.847,-360.055C190.861,-349.211 193.466,-335.183 195.492,-324.275"/>
</g>
<!-- 1739100029328 -->
<g id="node11" class="node"><title>1739100029328</title>
<ellipse fill="none" stroke="black" cx="116.7" cy="-234" rx="27" ry="18"/>
<text text-anchor="middle" x="116.7" y="-230.5" font-family="Times New Roman,serif" font-size="15.00">xor</text>
</g>
<!-- 1739100032064&#45;&#45;1739100029328 -->
<g id="edge8" class="edge"><title>1739100032064&#45;&#45;1739100029328</title>
<path fill="none" stroke="black" d="M182.499,-291.17C168.03,-278.819 146.961,-260.832 132.588,-248.563"/>
</g>
<!-- 1739100032880 -->
<g id="node14" class="node"><title>1739100032880</title>
<ellipse fill="none" stroke="black" cx="198.7" cy="-234" rx="27" ry="18"/>
<text text-anchor="middle" x="198.7" y="-230.5" font-family="Times New Roman,serif" font-size="15.00">xor</text>
</g>
<!-- 1739100032064&#45;&#45;1739100032880 -->
<g id="edge11" class="edge"><title>1739100032064&#45;&#45;1739100032880</title>
<path fill="none" stroke="black" d="M198.7,-287.697C198.7,-276.846 198.7,-262.917 198.7,-252.104"/>
</g>
<!-- 1739100032592 -->
<g id="node12" class="node"><title>1739100032592</title>
<ellipse fill="black" stroke="black" cx="49.7" cy="-162" rx="2.7" ry="2.7"/>
</g>
<!-- 1739100029328&#45;&#45;1739100032592 -->
<g id="edge6" class="edge"><title>1739100029328&#45;&#45;1739100032592</title>
<path fill="none" stroke="black" d="M102.818,-218.496C85.6459,-200.555 57.8565,-171.522 51.1775,-164.544"/>
</g>
<!-- 1739100030912 -->
<g id="node13" class="node"><title>1739100030912</title>
<ellipse fill="none" stroke="black" cx="116.7" cy="-162" rx="45.7249" ry="18"/>
<text text-anchor="middle" x="116.7" y="-158.5" font-family="Times New Roman,serif" font-size="15.00">Payment</text>
</g>
<!-- 1739100029328&#45;&#45;1739100030912 -->
<g id="edge7" class="edge"><title>1739100029328&#45;&#45;1739100030912</title>
<path fill="none" stroke="black" d="M116.7,-215.697C116.7,-204.846 116.7,-190.917 116.7,-180.104"/>
</g>
<!-- 1739135676576 -->
<g id="node15" class="node"><title>1739135676576</title>
<ellipse fill="black" stroke="black" cx="183.7" cy="-162" rx="2.7" ry="2.7"/>
</g>
<!-- 1739100032880&#45;&#45;1739135676576 -->
<g id="edge9" class="edge"><title>1739100032880&#45;&#45;1739135676576</title>
<path fill="none" stroke="black" d="M195.069,-216.055C191.254,-198.252 185.6,-171.865 184.085,-164.796"/>
</g>
<!-- 1739135678448 -->
<g id="node16" class="node"><title>1739135678448</title>
<ellipse fill="none" stroke="black" cx="311.7" cy="-162" rx="107.914" ry="18"/>
<text text-anchor="middle" x="311.7" y="-158.5" font-family="Times New Roman,serif" font-size="15.00">Insert Fine Notification</text>
</g>
<!-- 1739100032880&#45;&#45;1739135678448 -->
<g id="edge10" class="edge"><title>1739100032880&#45;&#45;1739135678448</title>
<path fill="none" stroke="black" d="M217.869,-221.125C236.255,-209.736 264.189,-192.432 284.8,-179.664"/>
</g>
<!-- 1739100032352 -->
<g id="node18" class="node"><title>1739100032352</title>
<ellipse fill="black" stroke="black" cx="257.7" cy="-306" rx="2.7" ry="2.7"/>
</g>
<!-- 1739100031200&#45;&#45;1739100032352 -->
<g id="edge14" class="edge"><title>1739100031200&#45;&#45;1739100032352</title>
<path fill="none" stroke="black" d="M257.7,-359.697C257.7,-341.883 257.7,-315.769 257.7,-308.776"/>
</g>
<!-- 1739100030816 -->
<g id="node19" class="node"><title>1739100030816</title>
<ellipse fill="none" stroke="black" cx="515.7" cy="-306" rx="46.6143" ry="18"/>
<text text-anchor="middle" x="515.7" y="-302.5" font-family="Times New Roman,serif" font-size="15.00">xor loop</text>
</g>
<!-- 1739100031200&#45;&#45;1739100030816 -->
<g id="edge34" class="edge"><title>1739100031200&#45;&#45;1739100030816</title>
<path fill="none" stroke="black" d="M282.438,-370.288C327.969,-357.935 425.257,-331.539 478.681,-317.044"/>
</g>
<!-- 1739135677248 -->
<g id="node20" class="node"><title>1739135677248</title>
<ellipse fill="none" stroke="black" cx="515.7" cy="-234" rx="27" ry="18"/>
<text text-anchor="middle" x="515.7" y="-230.5" font-family="Times New Roman,serif" font-size="15.00">xor</text>
</g>
<!-- 1739100030816&#45;&#45;1739135677248 -->
<g id="edge32" class="edge"><title>1739100030816&#45;&#45;1739135677248</title>
<path fill="none" stroke="black" d="M515.7,-287.697C515.7,-276.846 515.7,-262.917 515.7,-252.104"/>
</g>
<!-- 1739135680224 -->
<g id="node38" class="node"><title>1739135680224</title>
<ellipse fill="black" stroke="black" cx="563.7" cy="-234" rx="2.7" ry="2.7"/>
</g>
<!-- 1739100030816&#45;&#45;1739135680224 -->
<g id="edge33" class="edge"><title>1739100030816&#45;&#45;1739135680224</title>
<path fill="none" stroke="black" d="M527.075,-288.411C539.274,-270.622 557.554,-243.962 562.455,-236.816"/>
</g>
<!-- 1739135677056 -->
<g id="node21" class="node"><title>1739135677056</title>
<ellipse fill="none" stroke="black" cx="515.7" cy="-162" rx="78.5434" ry="18"/>
<text text-anchor="middle" x="515.7" y="-158.5" font-family="Times New Roman,serif" font-size="15.00">Appeal to Judge</text>
</g>
<!-- 1739135677248&#45;&#45;1739135677056 -->
<g id="edge15" class="edge"><title>1739135677248&#45;&#45;1739135677056</title>
<path fill="none" stroke="black" d="M515.7,-215.697C515.7,-204.846 515.7,-190.917 515.7,-180.104"/>
</g>
<!-- 1739135677824 -->
<g id="node22" class="node"><title>1739135677824</title>
<ellipse fill="none" stroke="black" cx="639.7" cy="-162" rx="27" ry="18"/>
<text text-anchor="middle" x="639.7" y="-158.5" font-family="Times New Roman,serif" font-size="15.00">seq</text>
</g>
<!-- 1739135677248&#45;&#45;1739135677824 -->
<g id="edge31" class="edge"><title>1739135677248&#45;&#45;1739135677824</title>
<path fill="none" stroke="black" d="M535.623,-221.753C558.762,-208.691 596.708,-187.27 619.827,-174.219"/>
</g>
<!-- 1739135680272 -->
<g id="node23" class="node"><title>1739135680272</title>
<ellipse fill="none" stroke="black" cx="237.7" cy="-90" rx="27" ry="18"/>
<text text-anchor="middle" x="237.7" y="-86.5" font-family="Times New Roman,serif" font-size="15.00">xor</text>
</g>
<!-- 1739135677824&#45;&#45;1739135680272 -->
<g id="edge18" class="edge"><title>1739135677824&#45;&#45;1739135680272</title>
<path fill="none" stroke="black" d="M613.942,-156.515C541.419,-143.886 336.081,-108.131 263.503,-95.4931"/>
</g>
<!-- 1739135676960 -->
<g id="node26" class="node"><title>1739135676960</title>
<ellipse fill="none" stroke="black" cx="485.7" cy="-90" rx="27" ry="18"/>
<text text-anchor="middle" x="485.7" y="-86.5" font-family="Times New Roman,serif" font-size="15.00">xor</text>
</g>
<!-- 1739135677824&#45;&#45;1739135676960 -->
<g id="edge21" class="edge"><title>1739135677824&#45;&#45;1739135676960</title>
<path fill="none" stroke="black" d="M617.962,-151.119C588.612,-137.778 536.621,-114.146 507.327,-100.831"/>
</g>
<!-- 1739135680128 -->
<g id="node29" class="node"><title>1739135680128</title>
<ellipse fill="none" stroke="black" cx="639.7" cy="-90" rx="27" ry="18"/>
<text text-anchor="middle" x="639.7" y="-86.5" font-family="Times New Roman,serif" font-size="15.00">xor</text>
</g>
<!-- 1739135677824&#45;&#45;1739135680128 -->
<g id="edge24" class="edge"><title>1739135677824&#45;&#45;1739135680128</title>
<path fill="none" stroke="black" d="M639.7,-143.697C639.7,-132.846 639.7,-118.917 639.7,-108.104"/>
</g>
<!-- 1739135678880 -->
<g id="node32" class="node"><title>1739135678880</title>
<ellipse fill="none" stroke="black" cx="850.7" cy="-90" rx="27" ry="18"/>
<text text-anchor="middle" x="850.7" y="-86.5" font-family="Times New Roman,serif" font-size="15.00">xor</text>
</g>
<!-- 1739135677824&#45;&#45;1739135678880 -->
<g id="edge27" class="edge"><title>1739135677824&#45;&#45;1739135678880</title>
<path fill="none" stroke="black" d="M663.494,-153.106C704.126,-139.626 786.42,-112.325 826.993,-98.865"/>
</g>
<!-- 1739135678112 -->
<g id="node35" class="node"><title>1739135678112</title>
<ellipse fill="none" stroke="black" cx="1238.7" cy="-90" rx="27" ry="18"/>
<text text-anchor="middle" x="1238.7" y="-86.5" font-family="Times New Roman,serif" font-size="15.00">xor</text>
</g>
<!-- 1739135677824&#45;&#45;1739135678112 -->
<g id="edge30" class="edge"><title>1739135677824&#45;&#45;1739135678112</title>
<path fill="none" stroke="black" d="M666.211,-157.902C765.268,-146.326 1113.04,-105.684 1212.16,-94.102"/>
</g>
<!-- 1739135678784 -->
<g id="node24" class="node"><title>1739135678784</title>
<ellipse fill="black" stroke="black" cx="72.7" cy="-18" rx="2.7" ry="2.7"/>
</g>
<!-- 1739135680272&#45;&#45;1739135678784 -->
<g id="edge16" class="edge"><title>1739135680272&#45;&#45;1739135678784</title>
<path fill="none" stroke="black" d="M215.447,-79.5595C174.28,-62.0945 89.1048,-25.9596 74.7694,-19.8779"/>
</g>
<!-- 1739135677104 -->
<g id="node25" class="node"><title>1739135677104</title>
<ellipse fill="none" stroke="black" cx="237.7" cy="-18" rx="144.571" ry="18"/>
<text text-anchor="middle" x="237.7" y="-14.5" font-family="Times New Roman,serif" font-size="15.00">Insert Date Appeal to Prefecture</text>
</g>
<!-- 1739135680272&#45;&#45;1739135677104 -->
<g id="edge17" class="edge"><title>1739135680272&#45;&#45;1739135677104</title>
<path fill="none" stroke="black" d="M237.7,-71.6966C237.7,-60.8463 237.7,-46.9167 237.7,-36.1043"/>
</g>
<!-- 1739135678736 -->
<g id="node27" class="node"><title>1739135678736</title>
<ellipse fill="black" stroke="black" cx="402.7" cy="-18" rx="2.7" ry="2.7"/>
</g>
<!-- 1739135676960&#45;&#45;1739135678736 -->
<g id="edge19" class="edge"><title>1739135676960&#45;&#45;1739135678736</title>
<path fill="none" stroke="black" d="M469.302,-75.1703C448.137,-57.3201 413.019,-27.7024 404.57,-20.5768"/>
</g>
<!-- 1739135678592 -->
<g id="node28" class="node"><title>1739135678592</title>
<ellipse fill="none" stroke="black" cx="485.7" cy="-18" rx="61.6894" ry="18"/>
<text text-anchor="middle" x="485.7" y="-14.5" font-family="Times New Roman,serif" font-size="15.00">Add penalty</text>
</g>
<!-- 1739135676960&#45;&#45;1739135678592 -->
<g id="edge20" class="edge"><title>1739135676960&#45;&#45;1739135678592</title>
<path fill="none" stroke="black" d="M485.7,-71.6966C485.7,-60.8463 485.7,-46.9167 485.7,-36.1043"/>
</g>
<!-- 1739135677584 -->
<g id="node30" class="node"><title>1739135677584</title>
<ellipse fill="black" stroke="black" cx="568.7" cy="-18" rx="2.7" ry="2.7"/>
</g>
<!-- 1739135680128&#45;&#45;1739135677584 -->
<g id="edge22" class="edge"><title>1739135680128&#45;&#45;1739135677584</title>
<path fill="none" stroke="black" d="M624.989,-74.496C606.792,-56.5555 577.343,-27.5217 570.266,-20.5436"/>
</g>
<!-- 1739135678016 -->
<g id="node31" class="node"><title>1739135678016</title>
<ellipse fill="none" stroke="black" cx="709.7" cy="-18" rx="120.43" ry="18"/>
<text text-anchor="middle" x="709.7" y="-14.5" font-family="Times New Roman,serif" font-size="15.00">Send Appeal to Prefecture</text>
</g>
<!-- 1739135680128&#45;&#45;1739135678016 -->
<g id="edge23" class="edge"><title>1739135680128&#45;&#45;1739135678016</title>
<path fill="none" stroke="black" d="M654.204,-74.496C665.417,-63.2831 680.963,-47.737 692.749,-35.9506"/>
</g>
<!-- 1739135676528 -->
<g id="node33" class="node"><title>1739135676528</title>
<ellipse fill="black" stroke="black" cx="850.7" cy="-18" rx="2.7" ry="2.7"/>
</g>
<!-- 1739135678880&#45;&#45;1739135676528 -->
<g id="edge25" class="edge"><title>1739135678880&#45;&#45;1739135676528</title>
<path fill="none" stroke="black" d="M850.7,-71.6966C850.7,-53.8826 850.7,-27.7686 850.7,-20.7764"/>
</g>
<!-- 1739106547840 -->
<g id="node34" class="node"><title>1739106547840</title>
<ellipse fill="none" stroke="black" cx="1044.7" cy="-18" rx="173.941" ry="18"/>
<text text-anchor="middle" x="1044.7" y="-14.5" font-family="Times New Roman,serif" font-size="15.00">Receive Result Appeal from Prefecture</text>
</g>
<!-- 1739135678880&#45;&#45;1739106547840 -->
<g id="edge26" class="edge"><title>1739135678880&#45;&#45;1739106547840</title>
<path fill="none" stroke="black" d="M874.101,-80.5564C904.939,-69.4293 959.853,-49.615 999.049,-35.472"/>
</g>
<!-- 1739106547984 -->
<g id="node36" class="node"><title>1739106547984</title>
<ellipse fill="black" stroke="black" cx="1238.7" cy="-18" rx="2.7" ry="2.7"/>
</g>
<!-- 1739135678112&#45;&#45;1739106547984 -->
<g id="edge28" class="edge"><title>1739135678112&#45;&#45;1739106547984</title>
<path fill="none" stroke="black" d="M1238.7,-71.6966C1238.7,-53.8826 1238.7,-27.7686 1238.7,-20.7764"/>
</g>
<!-- 1739106547648 -->
<g id="node37" class="node"><title>1739106547648</title>
<ellipse fill="none" stroke="black" cx="1407.7" cy="-18" rx="148.91" ry="18"/>
<text text-anchor="middle" x="1407.7" y="-14.5" font-family="Times New Roman,serif" font-size="15.00">Notify Result Appeal to Offender</text>
</g>
<!-- 1739135678112&#45;&#45;1739106547648 -->
<g id="edge29" class="edge"><title>1739135678112&#45;&#45;1739106547648</title>
<path fill="none" stroke="black" d="M1261.14,-79.7045C1288.35,-68.4359 1334.68,-49.2446 1367.97,-35.4544"/>
</g>
<!-- 1739135679648 -->
<g id="node41" class="node"><title>1739135679648</title>
<ellipse fill="black" stroke="black" cx="350.7" cy="-450" rx="2.7" ry="2.7"/>
</g>
<!-- 1739100031920&#45;&#45;1739135679648 -->
<g id="edge39" class="edge"><title>1739100031920&#45;&#45;1739135679648</title>
<path fill="none" stroke="black" d="M350.7,-503.697C350.7,-485.883 350.7,-459.769 350.7,-452.776"/>
</g>
<!-- 1739135677008 -->
<g id="node42" class="node"><title>1739135677008</title>
<ellipse fill="none" stroke="black" cx="423.7" cy="-450" rx="27" ry="18"/>
<text text-anchor="middle" x="423.7" y="-446.5" font-family="Times New Roman,serif" font-size="15.00">seq</text>
</g>
<!-- 1739100031920&#45;&#45;1739135677008 -->
<g id="edge44" class="edge"><title>1739100031920&#45;&#45;1739135677008</title>
<path fill="none" stroke="black" d="M365.473,-506.834C378.138,-494.69 396.291,-477.283 408.949,-465.144"/>
</g>
<!-- 1739135678496 -->
<g id="node43" class="node"><title>1739135678496</title>
<ellipse fill="none" stroke="black" cx="423.7" cy="-378" rx="120.819" ry="18"/>
<text text-anchor="middle" x="423.7" y="-374.5" font-family="Times New Roman,serif" font-size="15.00">Send for Credit Collection</text>
</g>
<!-- 1739135677008&#45;&#45;1739135678496 -->
<g id="edge40" class="edge"><title>1739135677008&#45;&#45;1739135678496</title>
<path fill="none" stroke="black" d="M423.7,-431.697C423.7,-420.846 423.7,-406.917 423.7,-396.104"/>
</g>
<!-- 1739135678544 -->
<g id="node44" class="node"><title>1739135678544</title>
<ellipse fill="none" stroke="black" cx="589.7" cy="-378" rx="27" ry="18"/>
<text text-anchor="middle" x="589.7" y="-374.5" font-family="Times New Roman,serif" font-size="15.00">xor</text>
</g>
<!-- 1739135677008&#45;&#45;1739135678544 -->
<g id="edge43" class="edge"><title>1739135677008&#45;&#45;1739135678544</title>
<path fill="none" stroke="black" d="M446.087,-439.559C477.858,-426.162 535.681,-401.779 567.403,-388.402"/>
</g>
<!-- 1739106548320 -->
<g id="node45" class="node"><title>1739106548320</title>
<ellipse fill="black" stroke="black" cx="584.7" cy="-306" rx="2.7" ry="2.7"/>
</g>
<!-- 1739135678544&#45;&#45;1739106548320 -->
<g id="edge41" class="edge"><title>1739135678544&#45;&#45;1739106548320</title>
<path fill="none" stroke="black" d="M588.464,-359.697C587.192,-341.883 585.326,-315.769 584.827,-308.776"/>
</g>
<!-- 1739106548896 -->
<g id="node46" class="node"><title>1739106548896</title>
<ellipse fill="none" stroke="black" cx="725.7" cy="-306" rx="120.43" ry="18"/>
<text text-anchor="middle" x="725.7" y="-302.5" font-family="Times New Roman,serif" font-size="15.00">Send Appeal to Prefecture</text>
</g>
<!-- 1739135678544&#45;&#45;1739106548896 -->
<g id="edge42" class="edge"><title>1739135678544&#45;&#45;1739106548896</title>
<path fill="none" stroke="black" d="M610.355,-366.369C632.499,-354.971 667.94,-336.729 693.699,-323.471"/>
</g>
</g>
</svg>
