<?xml version="1.0" encoding="UTF-8" standalone="no"?>
<!DOCTYPE svg PUBLIC "-//W3C//DTD SVG 1.1//EN"
 "http://www.w3.org/Graphics/SVG/1.1/DTD/svg11.dtd">
<!-- Generated by graphviz version 2.38.0 (20140413.2041)
 -->
<!-- Title: pt Pages: 1 -->
<svg width="1041pt" height="620pt"
 viewBox="0.00 0.00 1040.61 620.00" xmlns="http://www.w3.org/2000/svg" xmlns:xlink="http://www.w3.org/1999/xlink">
<g id="graph0" class="graph" transform="scale(1 1) rotate(0) translate(4 616)">
<title>pt</title>
<!-- 1738942236800 -->
<g id="node1" class="node"><title>1738942236800</title>
<ellipse fill="none" stroke="black" cx="559.7" cy="-594" rx="27" ry="18"/>
<text text-anchor="middle" x="559.7" y="-590.5" font-family="Times New Roman,serif" font-size="15.00">seq</text>
</g>
<!-- 1738942236944 -->
<g id="node2" class="node"><title>1738942236944</title>
<ellipse fill="none" stroke="black" cx="507.7" cy="-522" rx="59.5207" ry="18"/>
<text text-anchor="middle" x="507.7" y="-518.5" font-family="Times New Roman,serif" font-size="15.00">Create Fine</text>
</g>
<!-- 1738942236800&#45;&#45;1738942236944 -->
<g id="edge1" class="edge"><title>1738942236800&#45;&#45;1738942236944</title>
<path fill="none" stroke="black" d="M548.16,-577.465C539.901,-566.348 528.789,-551.39 520.3,-539.962"/>
</g>
<!-- 1738942237280 -->
<g id="node3" class="node"><title>1738942237280</title>
<ellipse fill="none" stroke="black" cx="612.7" cy="-522" rx="27" ry="18"/>
<text text-anchor="middle" x="612.7" y="-518.5" font-family="Times New Roman,serif" font-size="15.00">seq</text>
</g>
<!-- 1738942236800&#45;&#45;1738942237280 -->
<g id="edge30" class="edge"><title>1738942236800&#45;&#45;1738942237280</title>
<path fill="none" stroke="black" d="M571.462,-577.465C580.245,-565.865 592.195,-550.082 600.97,-538.492"/>
</g>
<!-- 1738942237568 -->
<g id="node4" class="node"><title>1738942237568</title>
<ellipse fill="none" stroke="black" cx="575.7" cy="-450" rx="27" ry="18"/>
<text text-anchor="middle" x="575.7" y="-446.5" font-family="Times New Roman,serif" font-size="15.00">xor</text>
</g>
<!-- 1738942237280&#45;&#45;1738942237568 -->
<g id="edge4" class="edge"><title>1738942237280&#45;&#45;1738942237568</title>
<path fill="none" stroke="black" d="M604.118,-504.765C598.141,-493.456 590.202,-478.437 584.235,-467.147"/>
</g>
<!-- 1738942238000 -->
<g id="node7" class="node"><title>1738942238000</title>
<ellipse fill="none" stroke="black" cx="649.7" cy="-450" rx="27" ry="18"/>
<text text-anchor="middle" x="649.7" y="-446.5" font-family="Times New Roman,serif" font-size="15.00">xor</text>
</g>
<!-- 1738942237280&#45;&#45;1738942238000 -->
<g id="edge29" class="edge"><title>1738942237280&#45;&#45;1738942238000</title>
<path fill="none" stroke="black" d="M621.282,-504.765C627.259,-493.456 635.198,-478.437 641.165,-467.147"/>
</g>
<!-- 1738942238336 -->
<g id="node5" class="node"><title>1738942238336</title>
<ellipse fill="black" stroke="black" cx="501.7" cy="-378" rx="2.7" ry="2.7"/>
</g>
<!-- 1738942237568&#45;&#45;1738942238336 -->
<g id="edge2" class="edge"><title>1738942237568&#45;&#45;1738942238336</title>
<path fill="none" stroke="black" d="M560.725,-434.834C541.805,-416.937 510.804,-387.612 503.349,-380.56"/>
</g>
<!-- 1738942237760 -->
<g id="node6" class="node"><title>1738942237760</title>
<ellipse fill="none" stroke="black" cx="575.7" cy="-378" rx="52.6228" ry="18"/>
<text text-anchor="middle" x="575.7" y="-374.5" font-family="Times New Roman,serif" font-size="15.00">Send Fine</text>
</g>
<!-- 1738942237568&#45;&#45;1738942237760 -->
<g id="edge3" class="edge"><title>1738942237568&#45;&#45;1738942237760</title>
<path fill="none" stroke="black" d="M575.7,-431.697C575.7,-420.846 575.7,-406.917 575.7,-396.104"/>
</g>
<!-- 1738942237856 -->
<g id="node8" class="node"><title>1738942237856</title>
<ellipse fill="black" stroke="black" cx="649.7" cy="-378" rx="2.7" ry="2.7"/>
</g>
<!-- 1738942238000&#45;&#45;1738942237856 -->
<g id="edge5" class="edge"><title>1738942238000&#45;&#45;1738942237856</title>
<path fill="none" stroke="black" d="M649.7,-431.697C649.7,-413.883 649.7,-387.769 649.7,-380.776"/>
</g>
<!-- 1738942237376 -->
<g id="node9" class="node"><title>1738942237376</title>
<ellipse fill="none" stroke="black" cx="697.7" cy="-378" rx="27" ry="18"/>
<text text-anchor="middle" x="697.7" y="-374.5" font-family="Times New Roman,serif" font-size="15.00">seq</text>
</g>
<!-- 1738942238000&#45;&#45;1738942237376 -->
<g id="edge28" class="edge"><title>1738942238000&#45;&#45;1738942237376</title>
<path fill="none" stroke="black" d="M660.592,-433.116C668.447,-421.66 679.006,-406.263 686.851,-394.821"/>
</g>
<!-- 1738942177440 -->
<g id="node10" class="node"><title>1738942177440</title>
<ellipse fill="none" stroke="black" cx="625.7" cy="-306" rx="27" ry="18"/>
<text text-anchor="middle" x="625.7" y="-302.5" font-family="Times New Roman,serif" font-size="15.00">seq</text>
</g>
<!-- 1738942237376&#45;&#45;1738942177440 -->
<g id="edge24" class="edge"><title>1738942237376&#45;&#45;1738942177440</title>
<path fill="none" stroke="black" d="M683.13,-362.834C670.72,-350.77 652.969,-333.512 640.496,-321.385"/>
</g>
<!-- 1738942177344 -->
<g id="node29" class="node"><title>1738942177344</title>
<ellipse fill="none" stroke="black" cx="769.7" cy="-306" rx="27" ry="18"/>
<text text-anchor="middle" x="769.7" y="-302.5" font-family="Times New Roman,serif" font-size="15.00">xor</text>
</g>
<!-- 1738942237376&#45;&#45;1738942177344 -->
<g id="edge27" class="edge"><title>1738942237376&#45;&#45;1738942177344</title>
<path fill="none" stroke="black" d="M712.27,-362.834C724.68,-350.77 742.431,-333.512 754.904,-321.385"/>
</g>
<!-- 1738942177632 -->
<g id="node11" class="node"><title>1738942177632</title>
<ellipse fill="none" stroke="black" cx="130.7" cy="-234" rx="27" ry="18"/>
<text text-anchor="middle" x="130.7" y="-230.5" font-family="Times New Roman,serif" font-size="15.00">xor</text>
</g>
<!-- 1738942177440&#45;&#45;1738942177632 -->
<g id="edge8" class="edge"><title>1738942177440&#45;&#45;1738942177632</title>
<path fill="none" stroke="black" d="M599.436,-301.286C513.691,-289.16 242.555,-250.818 156.901,-238.705"/>
</g>
<!-- 1738942177824 -->
<g id="node14" class="node"><title>1738942177824</title>
<ellipse fill="none" stroke="black" cx="423.7" cy="-234" rx="27" ry="18"/>
<text text-anchor="middle" x="423.7" y="-230.5" font-family="Times New Roman,serif" font-size="15.00">xor</text>
</g>
<!-- 1738942177440&#45;&#45;1738942177824 -->
<g id="edge11" class="edge"><title>1738942177440&#45;&#45;1738942177824</title>
<path fill="none" stroke="black" d="M602.133,-296.833C563.209,-283.345 485.942,-256.569 447.117,-243.115"/>
</g>
<!-- 1738942178112 -->
<g id="node17" class="node"><title>1738942178112</title>
<ellipse fill="none" stroke="black" cx="625.7" cy="-234" rx="27" ry="18"/>
<text text-anchor="middle" x="625.7" y="-230.5" font-family="Times New Roman,serif" font-size="15.00">and</text>
</g>
<!-- 1738942177440&#45;&#45;1738942178112 -->
<g id="edge20" class="edge"><title>1738942177440&#45;&#45;1738942178112</title>
<path fill="none" stroke="black" d="M625.7,-287.697C625.7,-276.846 625.7,-262.917 625.7,-252.104"/>
</g>
<!-- 1738942178880 -->
<g id="node26" class="node"><title>1738942178880</title>
<ellipse fill="none" stroke="black" cx="721.7" cy="-234" rx="27" ry="18"/>
<text text-anchor="middle" x="721.7" y="-230.5" font-family="Times New Roman,serif" font-size="15.00">xor</text>
</g>
<!-- 1738942177440&#45;&#45;1738942178880 -->
<g id="edge23" class="edge"><title>1738942177440&#45;&#45;1738942178880</title>
<path fill="none" stroke="black" d="M643.308,-292.161C660.629,-279.531 686.921,-260.36 704.204,-247.758"/>
</g>
<!-- 1738942177872 -->
<g id="node12" class="node"><title>1738942177872</title>
<ellipse fill="black" stroke="black" cx="2.7" cy="-162" rx="2.7" ry="2.7"/>
</g>
<!-- 1738942177632&#45;&#45;1738942177872 -->
<g id="edge6" class="edge"><title>1738942177632&#45;&#45;1738942177872</title>
<path fill="none" stroke="black" d="M110.418,-221.908C77.9911,-204.175 16.8824,-170.756 4.80418,-164.151"/>
</g>
<!-- 1738942177968 -->
<g id="node13" class="node"><title>1738942177968</title>
<ellipse fill="none" stroke="black" cx="130.7" cy="-162" rx="107.914" ry="18"/>
<text text-anchor="middle" x="130.7" y="-158.5" font-family="Times New Roman,serif" font-size="15.00">Insert Fine Notification</text>
</g>
<!-- 1738942177632&#45;&#45;1738942177968 -->
<g id="edge7" class="edge"><title>1738942177632&#45;&#45;1738942177968</title>
<path fill="none" stroke="black" d="M130.7,-215.697C130.7,-204.846 130.7,-190.917 130.7,-180.104"/>
</g>
<!-- 1738942178160 -->
<g id="node15" class="node"><title>1738942178160</title>
<ellipse fill="black" stroke="black" cx="258.7" cy="-162" rx="2.7" ry="2.7"/>
</g>
<!-- 1738942177824&#45;&#45;1738942178160 -->
<g id="edge9" class="edge"><title>1738942177824&#45;&#45;1738942178160</title>
<path fill="none" stroke="black" d="M401.447,-223.559C360.28,-206.094 275.105,-169.96 260.769,-163.878"/>
</g>
<!-- 1738942178256 -->
<g id="node16" class="node"><title>1738942178256</title>
<ellipse fill="none" stroke="black" cx="423.7" cy="-162" rx="144.571" ry="18"/>
<text text-anchor="middle" x="423.7" y="-158.5" font-family="Times New Roman,serif" font-size="15.00">Insert Date Appeal to Prefecture</text>
</g>
<!-- 1738942177824&#45;&#45;1738942178256 -->
<g id="edge10" class="edge"><title>1738942177824&#45;&#45;1738942178256</title>
<path fill="none" stroke="black" d="M423.7,-215.697C423.7,-204.846 423.7,-190.917 423.7,-180.104"/>
</g>
<!-- 1738942178448 -->
<g id="node18" class="node"><title>1738942178448</title>
<ellipse fill="none" stroke="black" cx="613.7" cy="-162" rx="27" ry="18"/>
<text text-anchor="middle" x="613.7" y="-158.5" font-family="Times New Roman,serif" font-size="15.00">xor</text>
</g>
<!-- 1738942178112&#45;&#45;1738942178448 -->
<g id="edge16" class="edge"><title>1738942178112&#45;&#45;1738942178448</title>
<path fill="none" stroke="black" d="M622.795,-216.055C620.936,-205.211 618.531,-191.183 616.661,-180.275"/>
</g>
<!-- 1738942178640 -->
<g id="node23" class="node"><title>1738942178640</title>
<ellipse fill="none" stroke="black" cx="685.7" cy="-162" rx="27" ry="18"/>
<text text-anchor="middle" x="685.7" y="-158.5" font-family="Times New Roman,serif" font-size="15.00">xor</text>
</g>
<!-- 1738942178112&#45;&#45;1738942178640 -->
<g id="edge19" class="edge"><title>1738942178112&#45;&#45;1738942178640</title>
<path fill="none" stroke="black" d="M638.719,-217.811C648.783,-206.07 662.649,-189.893 672.706,-178.159"/>
</g>
<!-- 1738942178688 -->
<g id="node19" class="node"><title>1738942178688</title>
<ellipse fill="black" stroke="black" cx="547.7" cy="-90" rx="2.7" ry="2.7"/>
</g>
<!-- 1738942178448&#45;&#45;1738942178688 -->
<g id="edge12" class="edge"><title>1738942178448&#45;&#45;1738942178688</title>
<path fill="none" stroke="black" d="M599.703,-146.155C582.751,-128.175 555.65,-99.4321 549.14,-92.5271"/>
</g>
<!-- 1738942178784 -->
<g id="node20" class="node"><title>1738942178784</title>
<ellipse fill="none" stroke="black" cx="614.7" cy="-90" rx="46.6143" ry="18"/>
<text text-anchor="middle" x="614.7" y="-86.5" font-family="Times New Roman,serif" font-size="15.00">xor loop</text>
</g>
<!-- 1738942178448&#45;&#45;1738942178784 -->
<g id="edge15" class="edge"><title>1738942178448&#45;&#45;1738942178784</title>
<path fill="none" stroke="black" d="M613.947,-143.697C614.102,-132.846 614.301,-118.917 614.456,-108.104"/>
</g>
<!-- 1738942179024 -->
<g id="node21" class="node"><title>1738942179024</title>
<ellipse fill="none" stroke="black" cx="580.7" cy="-18" rx="45.7249" ry="18"/>
<text text-anchor="middle" x="580.7" y="-14.5" font-family="Times New Roman,serif" font-size="15.00">Payment</text>
</g>
<!-- 1738942178784&#45;&#45;1738942179024 -->
<g id="edge13" class="edge"><title>1738942178784&#45;&#45;1738942179024</title>
<path fill="none" stroke="black" d="M606.47,-72.055C601.124,-61.0492 594.185,-46.7636 588.855,-35.789"/>
</g>
<!-- 1738942179120 -->
<g id="node22" class="node"><title>1738942179120</title>
<ellipse fill="black" stroke="black" cx="647.7" cy="-18" rx="2.7" ry="2.7"/>
</g>
<!-- 1738942178784&#45;&#45;1738942179120 -->
<g id="edge14" class="edge"><title>1738942178784&#45;&#45;1738942179120</title>
<path fill="none" stroke="black" d="M622.688,-72.055C631.081,-54.2515 643.521,-27.8653 646.853,-20.7963"/>
</g>
<!-- 1738942178928 -->
<g id="node24" class="node"><title>1738942178928</title>
<ellipse fill="black" stroke="black" cx="683.7" cy="-90" rx="2.7" ry="2.7"/>
</g>
<!-- 1738942178640&#45;&#45;1738942178928 -->
<g id="edge17" class="edge"><title>1738942178640&#45;&#45;1738942178928</title>
<path fill="none" stroke="black" d="M685.206,-143.697C684.697,-125.883 683.951,-99.7686 683.751,-92.7764"/>
</g>
<!-- 1738942179264 -->
<g id="node25" class="node"><title>1738942179264</title>
<ellipse fill="none" stroke="black" cx="766.7" cy="-90" rx="61.6894" ry="18"/>
<text text-anchor="middle" x="766.7" y="-86.5" font-family="Times New Roman,serif" font-size="15.00">Add penalty</text>
</g>
<!-- 1738942178640&#45;&#45;1738942179264 -->
<g id="edge18" class="edge"><title>1738942178640&#45;&#45;1738942179264</title>
<path fill="none" stroke="black" d="M701.703,-147.17C714.981,-135.695 733.887,-119.357 747.888,-107.257"/>
</g>
<!-- 1738942177488 -->
<g id="node27" class="node"><title>1738942177488</title>
<ellipse fill="black" stroke="black" cx="733.7" cy="-162" rx="2.7" ry="2.7"/>
</g>
<!-- 1738942178880&#45;&#45;1738942177488 -->
<g id="edge21" class="edge"><title>1738942178880&#45;&#45;1738942177488</title>
<path fill="none" stroke="black" d="M724.605,-216.055C727.657,-198.252 732.18,-171.865 733.392,-164.796"/>
</g>
<!-- 1738942179408 -->
<g id="node28" class="node"><title>1738942179408</title>
<ellipse fill="none" stroke="black" cx="874.7" cy="-162" rx="120.43" ry="18"/>
<text text-anchor="middle" x="874.7" y="-158.5" font-family="Times New Roman,serif" font-size="15.00">Send Appeal to Prefecture</text>
</g>
<!-- 1738942178880&#45;&#45;1738942179408 -->
<g id="edge22" class="edge"><title>1738942178880&#45;&#45;1738942179408</title>
<path fill="none" stroke="black" d="M743.297,-223.119C768.173,-211.738 809.42,-192.867 839.071,-179.301"/>
</g>
<!-- 1738942177728 -->
<g id="node30" class="node"><title>1738942177728</title>
<ellipse fill="black" stroke="black" cx="769.7" cy="-234" rx="2.7" ry="2.7"/>
</g>
<!-- 1738942177344&#45;&#45;1738942177728 -->
<g id="edge25" class="edge"><title>1738942177344&#45;&#45;1738942177728</title>
<path fill="none" stroke="black" d="M769.7,-287.697C769.7,-269.883 769.7,-243.769 769.7,-236.776"/>
</g>
<!-- 1738942179552 -->
<g id="node31" class="node"><title>1738942179552</title>
<ellipse fill="none" stroke="black" cx="911.7" cy="-234" rx="120.819" ry="18"/>
<text text-anchor="middle" x="911.7" y="-230.5" font-family="Times New Roman,serif" font-size="15.00">Send for Credit Collection</text>
</g>
<!-- 1738942177344&#45;&#45;1738942179552 -->
<g id="edge26" class="edge"><title>1738942177344&#45;&#45;1738942179552</title>
<path fill="none" stroke="black" d="M790.959,-294.52C814.092,-283.116 851.384,-264.733 878.408,-251.412"/>
</g>
</g>
</svg>
