<?xml version="1.0" encoding="UTF-8" standalone="no"?>
<!DOCTYPE svg PUBLIC "-//W3C//DTD SVG 1.1//EN"
 "http://www.w3.org/Graphics/SVG/1.1/DTD/svg11.dtd">
<!-- Generated by graphviz version 2.38.0 (20140413.2041)
 -->
<!-- Title: pt Pages: 1 -->
<svg width="954pt" height="260pt"
 viewBox="0.00 0.00 953.56 260.00" xmlns="http://www.w3.org/2000/svg" xmlns:xlink="http://www.w3.org/1999/xlink">
<g id="graph0" class="graph" transform="scale(1 1) rotate(0) translate(4 256)">
<title>pt</title>
<!-- 1738938749328 -->
<g id="node1" class="node"><title>1738938749328</title>
<ellipse fill="none" stroke="black" cx="289.7" cy="-234" rx="27" ry="18"/>
<text text-anchor="middle" x="289.7" y="-230.5" font-family="Times New Roman,serif" font-size="15.00">seq</text>
</g>
<!-- 1738938750912 -->
<g id="node2" class="node"><title>1738938750912</title>
<ellipse fill="none" stroke="black" cx="237.7" cy="-162" rx="59.5207" ry="18"/>
<text text-anchor="middle" x="237.7" y="-158.5" font-family="Times New Roman,serif" font-size="15.00">Create Fine</text>
</g>
<!-- 1738938749328&#45;&#45;1738938750912 -->
<g id="edge1" class="edge"><title>1738938749328&#45;&#45;1738938750912</title>
<path fill="none" stroke="black" d="M278.16,-217.465C269.901,-206.348 258.789,-191.39 250.3,-179.962"/>
</g>
<!-- 1738938750144 -->
<g id="node3" class="node"><title>1738938750144</title>
<ellipse fill="none" stroke="black" cx="342.7" cy="-162" rx="27" ry="18"/>
<text text-anchor="middle" x="342.7" y="-158.5" font-family="Times New Roman,serif" font-size="15.00">seq</text>
</g>
<!-- 1738938749328&#45;&#45;1738938750144 -->
<g id="edge15" class="edge"><title>1738938749328&#45;&#45;1738938750144</title>
<path fill="none" stroke="black" d="M301.462,-217.465C310.245,-205.865 322.195,-190.082 330.97,-178.492"/>
</g>
<!-- 1738938749424 -->
<g id="node4" class="node"><title>1738938749424</title>
<ellipse fill="none" stroke="black" cx="76.7" cy="-90" rx="27" ry="18"/>
<text text-anchor="middle" x="76.7" y="-86.5" font-family="Times New Roman,serif" font-size="15.00">xor</text>
</g>
<!-- 1738938750144&#45;&#45;1738938749424 -->
<g id="edge4" class="edge"><title>1738938750144&#45;&#45;1738938749424</title>
<path fill="none" stroke="black" d="M317.675,-154.415C266.849,-141.039 152.072,-110.835 101.464,-97.5169"/>
</g>
<!-- 1738938752544 -->
<g id="node7" class="node"><title>1738938752544</title>
<ellipse fill="none" stroke="black" cx="278.7" cy="-90" rx="27" ry="18"/>
<text text-anchor="middle" x="278.7" y="-86.5" font-family="Times New Roman,serif" font-size="15.00">xor</text>
</g>
<!-- 1738938750144&#45;&#45;1738938752544 -->
<g id="edge7" class="edge"><title>1738938750144&#45;&#45;1738938752544</title>
<path fill="none" stroke="black" d="M329.127,-146.155C318.266,-134.276 303.109,-117.697 292.253,-105.824"/>
</g>
<!-- 1738938750624 -->
<g id="node10" class="node"><title>1738938750624</title>
<ellipse fill="none" stroke="black" cx="406.7" cy="-90" rx="27" ry="18"/>
<text text-anchor="middle" x="406.7" y="-86.5" font-family="Times New Roman,serif" font-size="15.00">xor</text>
</g>
<!-- 1738938750144&#45;&#45;1738938750624 -->
<g id="edge10" class="edge"><title>1738938750144&#45;&#45;1738938750624</title>
<path fill="none" stroke="black" d="M356.273,-146.155C367.134,-134.276 382.291,-117.697 393.147,-105.824"/>
</g>
<!-- 1738938751920 -->
<g id="node13" class="node"><title>1738938751920</title>
<ellipse fill="none" stroke="black" cx="643.7" cy="-90" rx="27" ry="18"/>
<text text-anchor="middle" x="643.7" y="-86.5" font-family="Times New Roman,serif" font-size="15.00">xor</text>
</g>
<!-- 1738938750144&#45;&#45;1738938751920 -->
<g id="edge14" class="edge"><title>1738938750144&#45;&#45;1738938751920</title>
<path fill="none" stroke="black" d="M367.845,-155.152C424.504,-141.976 561.623,-110.088 618.415,-96.8803"/>
</g>
<!-- 1738938751968 -->
<g id="node5" class="node"><title>1738938751968</title>
<ellipse fill="black" stroke="black" cx="2.7" cy="-18" rx="2.7" ry="2.7"/>
</g>
<!-- 1738938749424&#45;&#45;1738938751968 -->
<g id="edge2" class="edge"><title>1738938749424&#45;&#45;1738938751968</title>
<path fill="none" stroke="black" d="M61.725,-74.8345C42.8049,-56.937 11.8039,-27.6118 4.34935,-20.5602"/>
</g>
<!-- 1738938752496 -->
<g id="node6" class="node"><title>1738938752496</title>
<ellipse fill="none" stroke="black" cx="76.7" cy="-18" rx="52.6228" ry="18"/>
<text text-anchor="middle" x="76.7" y="-14.5" font-family="Times New Roman,serif" font-size="15.00">Send Fine</text>
</g>
<!-- 1738938749424&#45;&#45;1738938752496 -->
<g id="edge3" class="edge"><title>1738938749424&#45;&#45;1738938752496</title>
<path fill="none" stroke="black" d="M76.7,-71.6966C76.7,-60.8463 76.7,-46.9167 76.7,-36.1043"/>
</g>
<!-- 1738938749856 -->
<g id="node8" class="node"><title>1738938749856</title>
<ellipse fill="black" stroke="black" cx="150.7" cy="-18" rx="2.7" ry="2.7"/>
</g>
<!-- 1738938752544&#45;&#45;1738938749856 -->
<g id="edge5" class="edge"><title>1738938752544&#45;&#45;1738938749856</title>
<path fill="none" stroke="black" d="M258.418,-77.9083C225.991,-60.1748 164.882,-26.756 152.804,-20.1507"/>
</g>
<!-- 1738938749184 -->
<g id="node9" class="node"><title>1738938749184</title>
<ellipse fill="none" stroke="black" cx="278.7" cy="-18" rx="107.914" ry="18"/>
<text text-anchor="middle" x="278.7" y="-14.5" font-family="Times New Roman,serif" font-size="15.00">Insert Fine Notification</text>
</g>
<!-- 1738938752544&#45;&#45;1738938749184 -->
<g id="edge6" class="edge"><title>1738938752544&#45;&#45;1738938749184</title>
<path fill="none" stroke="black" d="M278.7,-71.6966C278.7,-60.8463 278.7,-46.9167 278.7,-36.1043"/>
</g>
<!-- 1738938749088 -->
<g id="node11" class="node"><title>1738938749088</title>
<ellipse fill="black" stroke="black" cx="406.7" cy="-18" rx="2.7" ry="2.7"/>
</g>
<!-- 1738938750624&#45;&#45;1738938749088 -->
<g id="edge8" class="edge"><title>1738938750624&#45;&#45;1738938749088</title>
<path fill="none" stroke="black" d="M406.7,-71.6966C406.7,-53.8826 406.7,-27.7686 406.7,-20.7764"/>
</g>
<!-- 1738938750048 -->
<g id="node12" class="node"><title>1738938750048</title>
<ellipse fill="none" stroke="black" cx="489.7" cy="-18" rx="61.6894" ry="18"/>
<text text-anchor="middle" x="489.7" y="-14.5" font-family="Times New Roman,serif" font-size="15.00">Add penalty</text>
</g>
<!-- 1738938750624&#45;&#45;1738938750048 -->
<g id="edge9" class="edge"><title>1738938750624&#45;&#45;1738938750048</title>
<path fill="none" stroke="black" d="M423.098,-75.1703C436.704,-63.6952 456.077,-47.3569 470.423,-35.2574"/>
</g>
<!-- 1738942559040 -->
<g id="node14" class="node"><title>1738942559040</title>
<ellipse fill="black" stroke="black" cx="572.7" cy="-18" rx="2.7" ry="2.7"/>
</g>
<!-- 1738938751920&#45;&#45;1738942559040 -->
<g id="edge11" class="edge"><title>1738938751920&#45;&#45;1738942559040</title>
<path fill="none" stroke="black" d="M628.989,-74.496C610.792,-56.5555 581.343,-27.5217 574.266,-20.5436"/>
</g>
<!-- 1738942559520 -->
<g id="node15" class="node"><title>1738942559520</title>
<ellipse fill="none" stroke="black" cx="714.7" cy="-18" rx="120.819" ry="18"/>
<text text-anchor="middle" x="714.7" y="-14.5" font-family="Times New Roman,serif" font-size="15.00">Send for Credit Collection</text>
</g>
<!-- 1738938751920&#45;&#45;1738942559520 -->
<g id="edge12" class="edge"><title>1738938751920&#45;&#45;1738942559520</title>
<path fill="none" stroke="black" d="M658.411,-74.496C669.784,-63.2831 685.552,-47.737 697.507,-35.9506"/>
</g>
<!-- 1738942559568 -->
<g id="node16" class="node"><title>1738942559568</title>
<ellipse fill="none" stroke="black" cx="899.7" cy="-18" rx="45.7249" ry="18"/>
<text text-anchor="middle" x="899.7" y="-14.5" font-family="Times New Roman,serif" font-size="15.00">Payment</text>
</g>
<!-- 1738938751920&#45;&#45;1738942559568 -->
<g id="edge13" class="edge"><title>1738938751920&#45;&#45;1738942559568</title>
<path fill="none" stroke="black" d="M668.246,-82.2881C713.424,-69.9348 809.958,-43.5389 862.968,-29.0438"/>
</g>
</g>
</svg>
