<?xml version="1.0" encoding="UTF-8" standalone="no"?>
<!DOCTYPE svg PUBLIC "-//W3C//DTD SVG 1.1//EN"
 "http://www.w3.org/Graphics/SVG/1.1/DTD/svg11.dtd">
<!-- Generated by graphviz version 2.38.0 (20140413.2041)
 -->
<!-- Title: pt Pages: 1 -->
<svg width="1418pt" height="332pt"
 viewBox="0.00 0.00 1417.56 332.00" xmlns="http://www.w3.org/2000/svg" xmlns:xlink="http://www.w3.org/1999/xlink">
<g id="graph0" class="graph" transform="scale(1 1) rotate(0) translate(4 328)">
<title>pt</title>
<!-- 1738939293504 -->
<g id="node1" class="node"><title>1738939293504</title>
<ellipse fill="none" stroke="black" cx="453.7" cy="-306" rx="27" ry="18"/>
<text text-anchor="middle" x="453.7" y="-302.5" font-family="Times New Roman,serif" font-size="15.00">and</text>
</g>
<!-- 1738939290768 -->
<g id="node2" class="node"><title>1738939290768</title>
<ellipse fill="none" stroke="black" cx="329.7" cy="-234" rx="27" ry="18"/>
<text text-anchor="middle" x="329.7" y="-230.5" font-family="Times New Roman,serif" font-size="15.00">xor</text>
</g>
<!-- 1738939293504&#45;&#45;1738939290768 -->
<g id="edge12" class="edge"><title>1738939293504&#45;&#45;1738939290768</title>
<path fill="none" stroke="black" d="M433.777,-293.753C410.638,-280.691 372.692,-259.27 349.573,-246.219"/>
</g>
<!-- 1738939290864 -->
<g id="node14" class="node"><title>1738939290864</title>
<ellipse fill="none" stroke="black" cx="578.7" cy="-234" rx="27" ry="18"/>
<text text-anchor="middle" x="578.7" y="-230.5" font-family="Times New Roman,serif" font-size="15.00">seq</text>
</g>
<!-- 1738939293504&#45;&#45;1738939290864 -->
<g id="edge27" class="edge"><title>1738939293504&#45;&#45;1738939290864</title>
<path fill="none" stroke="black" d="M473.783,-293.753C497.11,-280.691 535.361,-259.27 558.666,-246.219"/>
</g>
<!-- 1738939291872 -->
<g id="node3" class="node"><title>1738939291872</title>
<ellipse fill="black" stroke="black" cx="281.7" cy="-162" rx="2.7" ry="2.7"/>
</g>
<!-- 1738939290768&#45;&#45;1738939291872 -->
<g id="edge1" class="edge"><title>1738939290768&#45;&#45;1738939291872</title>
<path fill="none" stroke="black" d="M318.808,-217.116C306.638,-199.367 287.98,-172.158 282.973,-164.857"/>
</g>
<!-- 1738939291488 -->
<g id="node4" class="node"><title>1738939291488</title>
<ellipse fill="none" stroke="black" cx="329.7" cy="-162" rx="27" ry="18"/>
<text text-anchor="middle" x="329.7" y="-158.5" font-family="Times New Roman,serif" font-size="15.00">and</text>
</g>
<!-- 1738939290768&#45;&#45;1738939291488 -->
<g id="edge11" class="edge"><title>1738939290768&#45;&#45;1738939291488</title>
<path fill="none" stroke="black" d="M329.7,-215.697C329.7,-204.846 329.7,-190.917 329.7,-180.104"/>
</g>
<!-- 1738939292304 -->
<g id="node5" class="node"><title>1738939292304</title>
<ellipse fill="none" stroke="black" cx="143.7" cy="-90" rx="27" ry="18"/>
<text text-anchor="middle" x="143.7" y="-86.5" font-family="Times New Roman,serif" font-size="15.00">xor</text>
</g>
<!-- 1738939291488&#45;&#45;1738939292304 -->
<g id="edge4" class="edge"><title>1738939291488&#45;&#45;1738939292304</title>
<path fill="none" stroke="black" d="M306.519,-152.276C270.682,-138.789 202.248,-113.034 166.589,-99.6141"/>
</g>
<!-- 1738939292688 -->
<g id="node8" class="node"><title>1738939292688</title>
<ellipse fill="none" stroke="black" cx="326.7" cy="-90" rx="46.6143" ry="18"/>
<text text-anchor="middle" x="326.7" y="-86.5" font-family="Times New Roman,serif" font-size="15.00">xor loop</text>
</g>
<!-- 1738939291488&#45;&#45;1738939292688 -->
<g id="edge7" class="edge"><title>1738939291488&#45;&#45;1738939292688</title>
<path fill="none" stroke="black" d="M328.958,-143.697C328.493,-132.846 327.896,-118.917 327.433,-108.104"/>
</g>
<!-- 1738939291680 -->
<g id="node11" class="node"><title>1738939291680</title>
<ellipse fill="none" stroke="black" cx="418.7" cy="-90" rx="27" ry="18"/>
<text text-anchor="middle" x="418.7" y="-86.5" font-family="Times New Roman,serif" font-size="15.00">xor</text>
</g>
<!-- 1738939291488&#45;&#45;1738939291680 -->
<g id="edge10" class="edge"><title>1738939291488&#45;&#45;1738939291680</title>
<path fill="none" stroke="black" d="M346.44,-147.834C362.251,-135.398 385.847,-116.839 401.732,-104.345"/>
</g>
<!-- 1738939292976 -->
<g id="node6" class="node"><title>1738939292976</title>
<ellipse fill="black" stroke="black" cx="2.7" cy="-18" rx="2.7" ry="2.7"/>
</g>
<!-- 1738939292304&#45;&#45;1738939292976 -->
<g id="edge2" class="edge"><title>1738939292304&#45;&#45;1738939292976</title>
<path fill="none" stroke="black" d="M122.591,-78.5203C86.9442,-60.8234 17.4421,-26.3188 4.72371,-20.0047"/>
</g>
<!-- 1738939293072 -->
<g id="node7" class="node"><title>1738939293072</title>
<ellipse fill="none" stroke="black" cx="143.7" cy="-18" rx="120.43" ry="18"/>
<text text-anchor="middle" x="143.7" y="-14.5" font-family="Times New Roman,serif" font-size="15.00">Send Appeal to Prefecture</text>
</g>
<!-- 1738939292304&#45;&#45;1738939293072 -->
<g id="edge3" class="edge"><title>1738939292304&#45;&#45;1738939293072</title>
<path fill="none" stroke="black" d="M143.7,-71.6966C143.7,-60.8463 143.7,-46.9167 143.7,-36.1043"/>
</g>
<!-- 1738939018640 -->
<g id="node9" class="node"><title>1738939018640</title>
<ellipse fill="black" stroke="black" cx="284.7" cy="-18" rx="2.7" ry="2.7"/>
</g>
<!-- 1738939292688&#45;&#45;1738939018640 -->
<g id="edge5" class="edge"><title>1738939292688&#45;&#45;1738939018640</title>
<path fill="none" stroke="black" d="M316.747,-72.411C306.073,-54.622 290.077,-27.9625 285.79,-20.8163"/>
</g>
<!-- 1738939018160 -->
<g id="node10" class="node"><title>1738939018160</title>
<ellipse fill="none" stroke="black" cx="351.7" cy="-18" rx="45.7249" ry="18"/>
<text text-anchor="middle" x="351.7" y="-14.5" font-family="Times New Roman,serif" font-size="15.00">Payment</text>
</g>
<!-- 1738939292688&#45;&#45;1738939018160 -->
<g id="edge6" class="edge"><title>1738939292688&#45;&#45;1738939018160</title>
<path fill="none" stroke="black" d="M332.752,-72.055C336.625,-61.2111 341.635,-47.183 345.53,-36.2753"/>
</g>
<!-- 1738939292208 -->
<g id="node12" class="node"><title>1738939292208</title>
<ellipse fill="black" stroke="black" cx="418.7" cy="-18" rx="2.7" ry="2.7"/>
</g>
<!-- 1738939291680&#45;&#45;1738939292208 -->
<g id="edge8" class="edge"><title>1738939291680&#45;&#45;1738939292208</title>
<path fill="none" stroke="black" d="M418.7,-71.6966C418.7,-53.8826 418.7,-27.7686 418.7,-20.7764"/>
</g>
<!-- 1738939292880 -->
<g id="node13" class="node"><title>1738939292880</title>
<ellipse fill="none" stroke="black" cx="501.7" cy="-18" rx="61.6894" ry="18"/>
<text text-anchor="middle" x="501.7" y="-14.5" font-family="Times New Roman,serif" font-size="15.00">Add penalty</text>
</g>
<!-- 1738939291680&#45;&#45;1738939292880 -->
<g id="edge9" class="edge"><title>1738939291680&#45;&#45;1738939292880</title>
<path fill="none" stroke="black" d="M435.098,-75.1703C448.704,-63.6952 468.077,-47.3569 482.423,-35.2574"/>
</g>
<!-- 1738939292832 -->
<g id="node15" class="node"><title>1738939292832</title>
<ellipse fill="none" stroke="black" cx="436.7" cy="-162" rx="59.5207" ry="18"/>
<text text-anchor="middle" x="436.7" y="-158.5" font-family="Times New Roman,serif" font-size="15.00">Create Fine</text>
</g>
<!-- 1738939290864&#45;&#45;1738939292832 -->
<g id="edge13" class="edge"><title>1738939290864&#45;&#45;1738939292832</title>
<path fill="none" stroke="black" d="M557.441,-222.52C533.302,-210.621 493.747,-191.122 466.527,-177.704"/>
</g>
<!-- 1738939293456 -->
<g id="node16" class="node"><title>1738939293456</title>
<ellipse fill="none" stroke="black" cx="541.7" cy="-162" rx="27" ry="18"/>
<text text-anchor="middle" x="541.7" y="-158.5" font-family="Times New Roman,serif" font-size="15.00">xor</text>
</g>
<!-- 1738939290864&#45;&#45;1738939293456 -->
<g id="edge16" class="edge"><title>1738939290864&#45;&#45;1738939293456</title>
<path fill="none" stroke="black" d="M570.118,-216.765C564.141,-205.456 556.202,-190.437 550.235,-179.147"/>
</g>
<!-- 1738939290336 -->
<g id="node19" class="node"><title>1738939290336</title>
<ellipse fill="none" stroke="black" cx="614.7" cy="-162" rx="27" ry="18"/>
<text text-anchor="middle" x="614.7" y="-158.5" font-family="Times New Roman,serif" font-size="15.00">xor</text>
</g>
<!-- 1738939290864&#45;&#45;1738939290336 -->
<g id="edge19" class="edge"><title>1738939290864&#45;&#45;1738939290336</title>
<path fill="none" stroke="black" d="M587.05,-216.765C592.865,-205.456 600.59,-190.437 606.396,-179.147"/>
</g>
<!-- 1738939290096 -->
<g id="node22" class="node"><title>1738939290096</title>
<ellipse fill="none" stroke="black" cx="870.7" cy="-162" rx="27" ry="18"/>
<text text-anchor="middle" x="870.7" y="-158.5" font-family="Times New Roman,serif" font-size="15.00">xor</text>
</g>
<!-- 1738939290864&#45;&#45;1738939290096 -->
<g id="edge22" class="edge"><title>1738939290864&#45;&#45;1738939290096</title>
<path fill="none" stroke="black" d="M603.596,-227.032C658.625,-213.84 790.099,-182.322 845.453,-169.052"/>
</g>
<!-- 1738939291008 -->
<g id="node25" class="node"><title>1738939291008</title>
<ellipse fill="none" stroke="black" cx="1107.7" cy="-162" rx="27" ry="18"/>
<text text-anchor="middle" x="1107.7" y="-158.5" font-family="Times New Roman,serif" font-size="15.00">xor</text>
</g>
<!-- 1738939290864&#45;&#45;1738939291008 -->
<g id="edge26" class="edge"><title>1738939290864&#45;&#45;1738939291008</title>
<path fill="none" stroke="black" d="M604.933,-229.529C694.996,-217.611 991.005,-178.442 1081.31,-166.492"/>
</g>
<!-- 1738939290384 -->
<g id="node17" class="node"><title>1738939290384</title>
<ellipse fill="black" stroke="black" cx="466.7" cy="-90" rx="2.7" ry="2.7"/>
</g>
<!-- 1738939293456&#45;&#45;1738939290384 -->
<g id="edge14" class="edge"><title>1738939293456&#45;&#45;1738939290384</title>
<path fill="none" stroke="black" d="M526.523,-146.834C507.347,-128.937 475.927,-99.6118 468.372,-92.5602"/>
</g>
<!-- 1738939290528 -->
<g id="node18" class="node"><title>1738939290528</title>
<ellipse fill="none" stroke="black" cx="540.7" cy="-90" rx="52.6228" ry="18"/>
<text text-anchor="middle" x="540.7" y="-86.5" font-family="Times New Roman,serif" font-size="15.00">Send Fine</text>
</g>
<!-- 1738939293456&#45;&#45;1738939290528 -->
<g id="edge15" class="edge"><title>1738939293456&#45;&#45;1738939290528</title>
<path fill="none" stroke="black" d="M541.453,-143.697C541.298,-132.846 541.099,-118.917 540.944,-108.104"/>
</g>
<!-- 1738939290144 -->
<g id="node20" class="node"><title>1738939290144</title>
<ellipse fill="black" stroke="black" cx="614.7" cy="-90" rx="2.7" ry="2.7"/>
</g>
<!-- 1738939290336&#45;&#45;1738939290144 -->
<g id="edge17" class="edge"><title>1738939290336&#45;&#45;1738939290144</title>
<path fill="none" stroke="black" d="M614.7,-143.697C614.7,-125.883 614.7,-99.7686 614.7,-92.7764"/>
</g>
<!-- 1738939292448 -->
<g id="node21" class="node"><title>1738939292448</title>
<ellipse fill="none" stroke="black" cx="742.7" cy="-90" rx="107.914" ry="18"/>
<text text-anchor="middle" x="742.7" y="-86.5" font-family="Times New Roman,serif" font-size="15.00">Insert Fine Notification</text>
</g>
<!-- 1738939290336&#45;&#45;1738939292448 -->
<g id="edge18" class="edge"><title>1738939290336&#45;&#45;1738939292448</title>
<path fill="none" stroke="black" d="M634.982,-149.908C655.848,-138.497 688.59,-120.591 712.503,-107.514"/>
</g>
<!-- 1738939290480 -->
<g id="node23" class="node"><title>1738939290480</title>
<ellipse fill="black" stroke="black" cx="870.7" cy="-90" rx="2.7" ry="2.7"/>
</g>
<!-- 1738939290096&#45;&#45;1738939290480 -->
<g id="edge20" class="edge"><title>1738939290096&#45;&#45;1738939290480</title>
<path fill="none" stroke="black" d="M870.7,-143.697C870.7,-125.883 870.7,-99.7686 870.7,-92.7764"/>
</g>
<!-- 1738939291104 -->
<g id="node24" class="node"><title>1738939291104</title>
<ellipse fill="none" stroke="black" cx="953.7" cy="-90" rx="61.6894" ry="18"/>
<text text-anchor="middle" x="953.7" y="-86.5" font-family="Times New Roman,serif" font-size="15.00">Add penalty</text>
</g>
<!-- 1738939290096&#45;&#45;1738939291104 -->
<g id="edge21" class="edge"><title>1738939290096&#45;&#45;1738939291104</title>
<path fill="none" stroke="black" d="M887.098,-147.17C900.704,-135.695 920.077,-119.357 934.423,-107.257"/>
</g>
<!-- 1738939290960 -->
<g id="node26" class="node"><title>1738939290960</title>
<ellipse fill="black" stroke="black" cx="1036.7" cy="-90" rx="2.7" ry="2.7"/>
</g>
<!-- 1738939291008&#45;&#45;1738939290960 -->
<g id="edge23" class="edge"><title>1738939291008&#45;&#45;1738939290960</title>
<path fill="none" stroke="black" d="M1092.99,-146.496C1074.79,-128.555 1045.34,-99.5217 1038.27,-92.5436"/>
</g>
<!-- 1738939292160 -->
<g id="node27" class="node"><title>1738939292160</title>
<ellipse fill="none" stroke="black" cx="1178.7" cy="-90" rx="120.819" ry="18"/>
<text text-anchor="middle" x="1178.7" y="-86.5" font-family="Times New Roman,serif" font-size="15.00">Send for Credit Collection</text>
</g>
<!-- 1738939291008&#45;&#45;1738939292160 -->
<g id="edge24" class="edge"><title>1738939291008&#45;&#45;1738939292160</title>
<path fill="none" stroke="black" d="M1122.41,-146.496C1133.78,-135.283 1149.55,-119.737 1161.51,-107.951"/>
</g>
<!-- 1738939292016 -->
<g id="node28" class="node"><title>1738939292016</title>
<ellipse fill="none" stroke="black" cx="1363.7" cy="-90" rx="45.7249" ry="18"/>
<text text-anchor="middle" x="1363.7" y="-86.5" font-family="Times New Roman,serif" font-size="15.00">Payment</text>
</g>
<!-- 1738939291008&#45;&#45;1738939292016 -->
<g id="edge25" class="edge"><title>1738939291008&#45;&#45;1738939292016</title>
<path fill="none" stroke="black" d="M1132.25,-154.288C1177.42,-141.935 1273.96,-115.539 1326.97,-101.044"/>
</g>
</g>
</svg>
