<?xml version="1.0" encoding="UTF-8" standalone="no"?>
<!DOCTYPE svg PUBLIC "-//W3C//DTD SVG 1.1//EN"
 "http://www.w3.org/Graphics/SVG/1.1/DTD/svg11.dtd">
<!-- Generated by graphviz version 2.38.0 (20140413.2041)
 -->
<!-- Title: pt Pages: 1 -->
<svg width="1332pt" height="332pt"
 viewBox="0.00 0.00 1331.61 332.00" xmlns="http://www.w3.org/2000/svg" xmlns:xlink="http://www.w3.org/1999/xlink">
<g id="graph0" class="graph" transform="scale(1 1) rotate(0) translate(4 328)">
<title>pt</title>
<!-- 1738938978704 -->
<g id="node1" class="node"><title>1738938978704</title>
<ellipse fill="none" stroke="black" cx="460.7" cy="-306" rx="27" ry="18"/>
<text text-anchor="middle" x="460.7" y="-302.5" font-family="Times New Roman,serif" font-size="15.00">and</text>
</g>
<!-- 1738938981296 -->
<g id="node2" class="node"><title>1738938981296</title>
<ellipse fill="none" stroke="black" cx="361.7" cy="-234" rx="27" ry="18"/>
<text text-anchor="middle" x="361.7" y="-230.5" font-family="Times New Roman,serif" font-size="15.00">xor</text>
</g>
<!-- 1738938978704&#45;&#45;1738938981296 -->
<g id="edge12" class="edge"><title>1738938978704&#45;&#45;1738938981296</title>
<path fill="none" stroke="black" d="M442.542,-292.161C424.679,-279.531 397.566,-260.36 379.743,-247.758"/>
</g>
<!-- 1738938980192 -->
<g id="node14" class="node"><title>1738938980192</title>
<ellipse fill="none" stroke="black" cx="559.7" cy="-234" rx="27" ry="18"/>
<text text-anchor="middle" x="559.7" y="-230.5" font-family="Times New Roman,serif" font-size="15.00">seq</text>
</g>
<!-- 1738938978704&#45;&#45;1738938980192 -->
<g id="edge21" class="edge"><title>1738938978704&#45;&#45;1738938980192</title>
<path fill="none" stroke="black" d="M478.858,-292.161C496.721,-279.531 523.834,-260.36 541.657,-247.758"/>
</g>
<!-- 1738938982112 -->
<g id="node3" class="node"><title>1738938982112</title>
<ellipse fill="black" stroke="black" cx="313.7" cy="-162" rx="2.7" ry="2.7"/>
</g>
<!-- 1738938981296&#45;&#45;1738938982112 -->
<g id="edge1" class="edge"><title>1738938981296&#45;&#45;1738938982112</title>
<path fill="none" stroke="black" d="M350.808,-217.116C338.638,-199.367 319.98,-172.158 314.973,-164.857"/>
</g>
<!-- 1738938980672 -->
<g id="node4" class="node"><title>1738938980672</title>
<ellipse fill="none" stroke="black" cx="361.7" cy="-162" rx="27" ry="18"/>
<text text-anchor="middle" x="361.7" y="-158.5" font-family="Times New Roman,serif" font-size="15.00">and</text>
</g>
<!-- 1738938981296&#45;&#45;1738938980672 -->
<g id="edge11" class="edge"><title>1738938981296&#45;&#45;1738938980672</title>
<path fill="none" stroke="black" d="M361.7,-215.697C361.7,-204.846 361.7,-190.917 361.7,-180.104"/>
</g>
<!-- 1739098380464 -->
<g id="node5" class="node"><title>1739098380464</title>
<ellipse fill="none" stroke="black" cx="143.7" cy="-90" rx="27" ry="18"/>
<text text-anchor="middle" x="143.7" y="-86.5" font-family="Times New Roman,serif" font-size="15.00">xor</text>
</g>
<!-- 1738938980672&#45;&#45;1739098380464 -->
<g id="edge4" class="edge"><title>1738938980672&#45;&#45;1739098380464</title>
<path fill="none" stroke="black" d="M337.955,-153.376C296.021,-139.91 209.329,-112.073 167.416,-98.6151"/>
</g>
<!-- 1739098381376 -->
<g id="node8" class="node"><title>1739098381376</title>
<ellipse fill="none" stroke="black" cx="338.7" cy="-90" rx="46.6143" ry="18"/>
<text text-anchor="middle" x="338.7" y="-86.5" font-family="Times New Roman,serif" font-size="15.00">xor loop</text>
</g>
<!-- 1738938980672&#45;&#45;1739098381376 -->
<g id="edge7" class="edge"><title>1738938980672&#45;&#45;1739098381376</title>
<path fill="none" stroke="black" d="M356.132,-144.055C352.569,-133.211 347.96,-119.183 344.376,-108.275"/>
</g>
<!-- 1739098379696 -->
<g id="node11" class="node"><title>1739098379696</title>
<ellipse fill="none" stroke="black" cx="430.7" cy="-90" rx="27" ry="18"/>
<text text-anchor="middle" x="430.7" y="-86.5" font-family="Times New Roman,serif" font-size="15.00">xor</text>
</g>
<!-- 1738938980672&#45;&#45;1739098379696 -->
<g id="edge10" class="edge"><title>1738938980672&#45;&#45;1739098379696</title>
<path fill="none" stroke="black" d="M375.997,-146.496C387.839,-134.482 404.584,-117.494 416.421,-105.485"/>
</g>
<!-- 1739098381616 -->
<g id="node6" class="node"><title>1739098381616</title>
<ellipse fill="black" stroke="black" cx="2.7" cy="-18" rx="2.7" ry="2.7"/>
</g>
<!-- 1739098380464&#45;&#45;1739098381616 -->
<g id="edge2" class="edge"><title>1739098380464&#45;&#45;1739098381616</title>
<path fill="none" stroke="black" d="M122.591,-78.5203C86.9442,-60.8234 17.4421,-26.3188 4.72371,-20.0047"/>
</g>
<!-- 1739098381904 -->
<g id="node7" class="node"><title>1739098381904</title>
<ellipse fill="none" stroke="black" cx="143.7" cy="-18" rx="120.43" ry="18"/>
<text text-anchor="middle" x="143.7" y="-14.5" font-family="Times New Roman,serif" font-size="15.00">Send Appeal to Prefecture</text>
</g>
<!-- 1739098380464&#45;&#45;1739098381904 -->
<g id="edge3" class="edge"><title>1739098380464&#45;&#45;1739098381904</title>
<path fill="none" stroke="black" d="M143.7,-71.6966C143.7,-60.8463 143.7,-46.9167 143.7,-36.1043"/>
</g>
<!-- 1739098378640 -->
<g id="node9" class="node"><title>1739098378640</title>
<ellipse fill="black" stroke="black" cx="284.7" cy="-18" rx="2.7" ry="2.7"/>
</g>
<!-- 1739098381376&#45;&#45;1739098378640 -->
<g id="edge5" class="edge"><title>1739098381376&#45;&#45;1739098378640</title>
<path fill="none" stroke="black" d="M325.903,-72.411C312.18,-54.622 291.614,-27.9625 286.101,-20.8163"/>
</g>
<!-- 1739098380752 -->
<g id="node10" class="node"><title>1739098380752</title>
<ellipse fill="none" stroke="black" cx="351.7" cy="-18" rx="45.7249" ry="18"/>
<text text-anchor="middle" x="351.7" y="-14.5" font-family="Times New Roman,serif" font-size="15.00">Payment</text>
</g>
<!-- 1739098381376&#45;&#45;1739098380752 -->
<g id="edge6" class="edge"><title>1739098381376&#45;&#45;1739098380752</title>
<path fill="none" stroke="black" d="M341.913,-71.6966C343.929,-60.8463 346.515,-46.9167 348.523,-36.1043"/>
</g>
<!-- 1739098380608 -->
<g id="node12" class="node"><title>1739098380608</title>
<ellipse fill="black" stroke="black" cx="418.7" cy="-18" rx="2.7" ry="2.7"/>
</g>
<!-- 1739098379696&#45;&#45;1739098380608 -->
<g id="edge8" class="edge"><title>1739098379696&#45;&#45;1739098380608</title>
<path fill="none" stroke="black" d="M427.795,-72.055C424.743,-54.2515 420.22,-27.8653 419.008,-20.7963"/>
</g>
<!-- 1739098381040 -->
<g id="node13" class="node"><title>1739098381040</title>
<ellipse fill="none" stroke="black" cx="501.7" cy="-18" rx="61.6894" ry="18"/>
<text text-anchor="middle" x="501.7" y="-14.5" font-family="Times New Roman,serif" font-size="15.00">Add penalty</text>
</g>
<!-- 1739098379696&#45;&#45;1739098381040 -->
<g id="edge9" class="edge"><title>1739098379696&#45;&#45;1739098381040</title>
<path fill="none" stroke="black" d="M445.411,-74.496C456.947,-63.123 473.004,-47.292 485.017,-35.4478"/>
</g>
<!-- 1738938981344 -->
<g id="node15" class="node"><title>1738938981344</title>
<ellipse fill="none" stroke="black" cx="559.7" cy="-162" rx="59.5207" ry="18"/>
<text text-anchor="middle" x="559.7" y="-158.5" font-family="Times New Roman,serif" font-size="15.00">Create Fine</text>
</g>
<!-- 1738938980192&#45;&#45;1738938981344 -->
<g id="edge13" class="edge"><title>1738938980192&#45;&#45;1738938981344</title>
<path fill="none" stroke="black" d="M559.7,-215.697C559.7,-204.846 559.7,-190.917 559.7,-180.104"/>
</g>
<!-- 1738938981584 -->
<g id="node16" class="node"><title>1738938981584</title>
<ellipse fill="none" stroke="black" cx="710.7" cy="-162" rx="27" ry="18"/>
<text text-anchor="middle" x="710.7" y="-158.5" font-family="Times New Roman,serif" font-size="15.00">xor</text>
</g>
<!-- 1738938980192&#45;&#45;1738938981584 -->
<g id="edge20" class="edge"><title>1738938980192&#45;&#45;1738938981584</title>
<path fill="none" stroke="black" d="M581.335,-222.971C610.04,-209.664 660.421,-186.308 689.106,-173.011"/>
</g>
<!-- 1738938978944 -->
<g id="node17" class="node"><title>1738938978944</title>
<ellipse fill="none" stroke="black" cx="710.7" cy="-90" rx="45.7249" ry="18"/>
<text text-anchor="middle" x="710.7" y="-86.5" font-family="Times New Roman,serif" font-size="15.00">Payment</text>
</g>
<!-- 1738938981584&#45;&#45;1738938978944 -->
<g id="edge14" class="edge"><title>1738938981584&#45;&#45;1738938978944</title>
<path fill="none" stroke="black" d="M710.7,-143.697C710.7,-132.846 710.7,-118.917 710.7,-108.104"/>
</g>
<!-- 1738938981824 -->
<g id="node18" class="node"><title>1738938981824</title>
<ellipse fill="none" stroke="black" cx="813.7" cy="-90" rx="27" ry="18"/>
<text text-anchor="middle" x="813.7" y="-86.5" font-family="Times New Roman,serif" font-size="15.00">seq</text>
</g>
<!-- 1738938981584&#45;&#45;1738938981824 -->
<g id="edge19" class="edge"><title>1738938981584&#45;&#45;1738938981824</title>
<path fill="none" stroke="black" d="M729.114,-148.485C747.862,-135.744 776.755,-116.108 795.445,-103.406"/>
</g>
<!-- 1738938980048 -->
<g id="node19" class="node"><title>1738938980048</title>
<ellipse fill="none" stroke="black" cx="634.7" cy="-18" rx="52.6228" ry="18"/>
<text text-anchor="middle" x="634.7" y="-14.5" font-family="Times New Roman,serif" font-size="15.00">Send Fine</text>
</g>
<!-- 1738938981824&#45;&#45;1738938980048 -->
<g id="edge15" class="edge"><title>1738938981824&#45;&#45;1738938980048</title>
<path fill="none" stroke="black" d="M791.03,-80.1345C759.985,-67.994 704.016,-46.1069 668.149,-32.0805"/>
</g>
<!-- 1739098382096 -->
<g id="node20" class="node"><title>1739098382096</title>
<ellipse fill="none" stroke="black" cx="813.7" cy="-18" rx="107.914" ry="18"/>
<text text-anchor="middle" x="813.7" y="-14.5" font-family="Times New Roman,serif" font-size="15.00">Insert Fine Notification</text>
</g>
<!-- 1738938981824&#45;&#45;1739098382096 -->
<g id="edge16" class="edge"><title>1738938981824&#45;&#45;1739098382096</title>
<path fill="none" stroke="black" d="M813.7,-71.6966C813.7,-60.8463 813.7,-46.9167 813.7,-36.1043"/>
</g>
<!-- 1739098378400 -->
<g id="node21" class="node"><title>1739098378400</title>
<ellipse fill="none" stroke="black" cx="1001.7" cy="-18" rx="61.6894" ry="18"/>
<text text-anchor="middle" x="1001.7" y="-14.5" font-family="Times New Roman,serif" font-size="15.00">Add penalty</text>
</g>
<!-- 1738938981824&#45;&#45;1739098378400 -->
<g id="edge17" class="edge"><title>1738938981824&#45;&#45;1739098378400</title>
<path fill="none" stroke="black" d="M836.752,-80.4166C868.815,-68.4786 927.205,-46.7376 965.215,-32.5849"/>
</g>
<!-- 1739098378736 -->
<g id="node22" class="node"><title>1739098378736</title>
<ellipse fill="none" stroke="black" cx="1202.7" cy="-18" rx="120.819" ry="18"/>
<text text-anchor="middle" x="1202.7" y="-14.5" font-family="Times New Roman,serif" font-size="15.00">Send for Credit Collection</text>
</g>
<!-- 1738938981824&#45;&#45;1739098378736 -->
<g id="edge18" class="edge"><title>1738938981824&#45;&#45;1739098378736</title>
<path fill="none" stroke="black" d="M839.525,-84.3529C897.644,-73.8945 1040.52,-48.1836 1128.75,-32.3065"/>
</g>
</g>
</svg>
