<?xml version="1.0" encoding="UTF-8" standalone="no"?>
<!DOCTYPE svg PUBLIC "-//W3C//DTD SVG 1.1//EN"
 "http://www.w3.org/Graphics/SVG/1.1/DTD/svg11.dtd">
<!-- Generated by graphviz version 2.38.0 (20140413.2041)
 -->
<!-- Title: pt Pages: 1 -->
<svg width="1576pt" height="548pt"
 viewBox="0.00 0.00 1575.56 548.00" xmlns="http://www.w3.org/2000/svg" xmlns:xlink="http://www.w3.org/1999/xlink">
<g id="graph0" class="graph" transform="scale(1 1) rotate(0) translate(4 544)">
<title>pt</title>
<!-- 1739118194256 -->
<g id="node1" class="node"><title>1739118194256</title>
<ellipse fill="none" stroke="black" cx="500.7" cy="-522" rx="27" ry="18"/>
<text text-anchor="middle" x="500.7" y="-518.5" font-family="Times New Roman,serif" font-size="15.00">seq</text>
</g>
<!-- 1739118194496 -->
<g id="node2" class="node"><title>1739118194496</title>
<ellipse fill="none" stroke="black" cx="376.7" cy="-450" rx="59.5207" ry="18"/>
<text text-anchor="middle" x="376.7" y="-446.5" font-family="Times New Roman,serif" font-size="15.00">Create Fine</text>
</g>
<!-- 1739118194256&#45;&#45;1739118194496 -->
<g id="edge1" class="edge"><title>1739118194256&#45;&#45;1739118194496</title>
<path fill="none" stroke="black" d="M480.777,-509.753C459.828,-497.927 426.744,-479.251 403.513,-466.136"/>
</g>
<!-- 1739118194640 -->
<g id="node3" class="node"><title>1739118194640</title>
<ellipse fill="none" stroke="black" cx="500.7" cy="-450" rx="46.6143" ry="18"/>
<text text-anchor="middle" x="500.7" y="-446.5" font-family="Times New Roman,serif" font-size="15.00">xor loop</text>
</g>
<!-- 1739118194256&#45;&#45;1739118194640 -->
<g id="edge26" class="edge"><title>1739118194256&#45;&#45;1739118194640</title>
<path fill="none" stroke="black" d="M500.7,-503.697C500.7,-492.846 500.7,-478.917 500.7,-468.104"/>
</g>
<!-- 1739118291888 -->
<g id="node28" class="node"><title>1739118291888</title>
<ellipse fill="none" stroke="black" cx="629.7" cy="-450" rx="27" ry="18"/>
<text text-anchor="middle" x="629.7" y="-446.5" font-family="Times New Roman,serif" font-size="15.00">xor</text>
</g>
<!-- 1739118194256&#45;&#45;1739118291888 -->
<g id="edge44" class="edge"><title>1739118194256&#45;&#45;1739118291888</title>
<path fill="none" stroke="black" d="M521.14,-509.908C545.295,-496.801 585.242,-475.124 609.355,-462.04"/>
</g>
<!-- 1739118289488 -->
<g id="node4" class="node"><title>1739118289488</title>
<ellipse fill="none" stroke="black" cx="452.7" cy="-378" rx="27" ry="18"/>
<text text-anchor="middle" x="452.7" y="-374.5" font-family="Times New Roman,serif" font-size="15.00">seq</text>
</g>
<!-- 1739118194640&#45;&#45;1739118289488 -->
<g id="edge24" class="edge"><title>1739118194640&#45;&#45;1739118289488</title>
<path fill="none" stroke="black" d="M489.325,-432.411C481.562,-421.091 471.336,-406.178 463.663,-394.988"/>
</g>
<!-- 1739118290736 -->
<g id="node27" class="node"><title>1739118290736</title>
<ellipse fill="black" stroke="black" cx="500.7" cy="-378" rx="2.7" ry="2.7"/>
</g>
<!-- 1739118194640&#45;&#45;1739118290736 -->
<g id="edge25" class="edge"><title>1739118194640&#45;&#45;1739118290736</title>
<path fill="none" stroke="black" d="M500.7,-431.697C500.7,-413.883 500.7,-387.769 500.7,-380.776"/>
</g>
<!-- 1739118289824 -->
<g id="node5" class="node"><title>1739118289824</title>
<ellipse fill="none" stroke="black" cx="315.7" cy="-306" rx="27" ry="18"/>
<text text-anchor="middle" x="315.7" y="-302.5" font-family="Times New Roman,serif" font-size="15.00">seq</text>
</g>
<!-- 1739118289488&#45;&#45;1739118289824 -->
<g id="edge16" class="edge"><title>1739118289488&#45;&#45;1739118289824</title>
<path fill="none" stroke="black" d="M431.893,-366.369C406.143,-353.212 362.543,-330.934 336.703,-317.732"/>
</g>
<!-- 1739118290112 -->
<g id="node20" class="node"><title>1739118290112</title>
<ellipse fill="none" stroke="black" cx="465.7" cy="-306" rx="27" ry="18"/>
<text text-anchor="middle" x="465.7" y="-302.5" font-family="Times New Roman,serif" font-size="15.00">xor</text>
</g>
<!-- 1739118289488&#45;&#45;1739118290112 -->
<g id="edge23" class="edge"><title>1739118289488&#45;&#45;1739118290112</title>
<path fill="none" stroke="black" d="M455.847,-360.055C457.861,-349.211 460.466,-335.183 462.492,-324.275"/>
</g>
<!-- 1739118289968 -->
<g id="node6" class="node"><title>1739118289968</title>
<ellipse fill="none" stroke="black" cx="76.7" cy="-234" rx="27" ry="18"/>
<text text-anchor="middle" x="76.7" y="-230.5" font-family="Times New Roman,serif" font-size="15.00">xor</text>
</g>
<!-- 1739118289824&#45;&#45;1739118289968 -->
<g id="edge4" class="edge"><title>1739118289824&#45;&#45;1739118289968</title>
<path fill="none" stroke="black" d="M291.468,-297.903C245.66,-284.486 146.853,-255.547 100.996,-242.116"/>
</g>
<!-- 1739118290016 -->
<g id="node9" class="node"><title>1739118290016</title>
<ellipse fill="none" stroke="black" cx="315.7" cy="-234" rx="27" ry="18"/>
<text text-anchor="middle" x="315.7" y="-230.5" font-family="Times New Roman,serif" font-size="15.00">xor</text>
</g>
<!-- 1739118289824&#45;&#45;1739118290016 -->
<g id="edge15" class="edge"><title>1739118289824&#45;&#45;1739118290016</title>
<path fill="none" stroke="black" d="M315.7,-287.697C315.7,-276.846 315.7,-262.917 315.7,-252.104"/>
</g>
<!-- 1739118290304 -->
<g id="node7" class="node"><title>1739118290304</title>
<ellipse fill="black" stroke="black" cx="2.7" cy="-162" rx="2.7" ry="2.7"/>
</g>
<!-- 1739118289968&#45;&#45;1739118290304 -->
<g id="edge2" class="edge"><title>1739118289968&#45;&#45;1739118290304</title>
<path fill="none" stroke="black" d="M61.725,-218.834C42.8049,-200.937 11.8039,-171.612 4.34935,-164.56"/>
</g>
<!-- 1739118290064 -->
<g id="node8" class="node"><title>1739118290064</title>
<ellipse fill="none" stroke="black" cx="76.7" cy="-162" rx="52.6228" ry="18"/>
<text text-anchor="middle" x="76.7" y="-158.5" font-family="Times New Roman,serif" font-size="15.00">Send Fine</text>
</g>
<!-- 1739118289968&#45;&#45;1739118290064 -->
<g id="edge3" class="edge"><title>1739118289968&#45;&#45;1739118290064</title>
<path fill="none" stroke="black" d="M76.7,-215.697C76.7,-204.846 76.7,-190.917 76.7,-180.104"/>
</g>
<!-- 1739118290448 -->
<g id="node10" class="node"><title>1739118290448</title>
<ellipse fill="black" stroke="black" cx="150.7" cy="-162" rx="2.7" ry="2.7"/>
</g>
<!-- 1739118290016&#45;&#45;1739118290448 -->
<g id="edge5" class="edge"><title>1739118290016&#45;&#45;1739118290448</title>
<path fill="none" stroke="black" d="M293.447,-223.559C252.28,-206.094 167.105,-169.96 152.769,-163.878"/>
</g>
<!-- 1739118290544 -->
<g id="node11" class="node"><title>1739118290544</title>
<ellipse fill="none" stroke="black" cx="315.7" cy="-162" rx="144.571" ry="18"/>
<text text-anchor="middle" x="315.7" y="-158.5" font-family="Times New Roman,serif" font-size="15.00">Insert Date Appeal to Prefecture</text>
</g>
<!-- 1739118290016&#45;&#45;1739118290544 -->
<g id="edge6" class="edge"><title>1739118290016&#45;&#45;1739118290544</title>
<path fill="none" stroke="black" d="M315.7,-215.697C315.7,-204.846 315.7,-190.917 315.7,-180.104"/>
</g>
<!-- 1739118290640 -->
<g id="node12" class="node"><title>1739118290640</title>
<ellipse fill="none" stroke="black" cx="505.7" cy="-162" rx="27" ry="18"/>
<text text-anchor="middle" x="505.7" y="-158.5" font-family="Times New Roman,serif" font-size="15.00">seq</text>
</g>
<!-- 1739118290016&#45;&#45;1739118290640 -->
<g id="edge14" class="edge"><title>1739118290016&#45;&#45;1739118290640</title>
<path fill="none" stroke="black" d="M338.998,-224.417C375.563,-210.945 446.01,-184.991 482.509,-171.544"/>
</g>
<!-- 1739118290976 -->
<g id="node13" class="node"><title>1739118290976</title>
<ellipse fill="none" stroke="black" cx="328.7" cy="-90" rx="27" ry="18"/>
<text text-anchor="middle" x="328.7" y="-86.5" font-family="Times New Roman,serif" font-size="15.00">xor</text>
</g>
<!-- 1739118290640&#45;&#45;1739118290976 -->
<g id="edge9" class="edge"><title>1739118290640&#45;&#45;1739118290976</title>
<path fill="none" stroke="black" d="M482.923,-151.992C448.936,-138.551 385.325,-113.394 351.39,-99.9734"/>
</g>
<!-- 1739118291168 -->
<g id="node16" class="node"><title>1739118291168</title>
<ellipse fill="none" stroke="black" cx="505.7" cy="-90" rx="27" ry="18"/>
<text text-anchor="middle" x="505.7" y="-86.5" font-family="Times New Roman,serif" font-size="15.00">xor</text>
</g>
<!-- 1739118290640&#45;&#45;1739118291168 -->
<g id="edge13" class="edge"><title>1739118290640&#45;&#45;1739118291168</title>
<path fill="none" stroke="black" d="M505.7,-143.697C505.7,-132.846 505.7,-118.917 505.7,-108.104"/>
</g>
<!-- 1739118291120 -->
<g id="node14" class="node"><title>1739118291120</title>
<ellipse fill="black" stroke="black" cx="200.7" cy="-18" rx="2.7" ry="2.7"/>
</g>
<!-- 1739118290976&#45;&#45;1739118291120 -->
<g id="edge7" class="edge"><title>1739118290976&#45;&#45;1739118291120</title>
<path fill="none" stroke="black" d="M308.418,-77.9083C275.991,-60.1748 214.882,-26.756 202.804,-20.1507"/>
</g>
<!-- 1739118291216 -->
<g id="node15" class="node"><title>1739118291216</title>
<ellipse fill="none" stroke="black" cx="328.7" cy="-18" rx="107.914" ry="18"/>
<text text-anchor="middle" x="328.7" y="-14.5" font-family="Times New Roman,serif" font-size="15.00">Insert Fine Notification</text>
</g>
<!-- 1739118290976&#45;&#45;1739118291216 -->
<g id="edge8" class="edge"><title>1739118290976&#45;&#45;1739118291216</title>
<path fill="none" stroke="black" d="M328.7,-71.6966C328.7,-60.8463 328.7,-46.9167 328.7,-36.1043"/>
</g>
<!-- 1739118291408 -->
<g id="node17" class="node"><title>1739118291408</title>
<ellipse fill="black" stroke="black" cx="456.7" cy="-18" rx="2.7" ry="2.7"/>
</g>
<!-- 1739118291168&#45;&#45;1739118291408 -->
<g id="edge10" class="edge"><title>1739118291168&#45;&#45;1739118291408</title>
<path fill="none" stroke="black" d="M494.825,-73.4647C482.194,-55.42 462.478,-27.254 457.746,-20.4944"/>
</g>
<!-- 1739118291504 -->
<g id="node18" class="node"><title>1739118291504</title>
<ellipse fill="none" stroke="black" cx="555.7" cy="-18" rx="78.5434" ry="18"/>
<text text-anchor="middle" x="555.7" y="-14.5" font-family="Times New Roman,serif" font-size="15.00">Appeal to Judge</text>
</g>
<!-- 1739118291168&#45;&#45;1739118291504 -->
<g id="edge11" class="edge"><title>1739118291168&#45;&#45;1739118291504</title>
<path fill="none" stroke="black" d="M516.797,-73.4647C524.737,-62.3479 535.422,-47.3896 543.584,-35.9618"/>
</g>
<!-- 1739118291600 -->
<g id="node19" class="node"><title>1739118291600</title>
<ellipse fill="none" stroke="black" cx="697.7" cy="-18" rx="45.7249" ry="18"/>
<text text-anchor="middle" x="697.7" y="-14.5" font-family="Times New Roman,serif" font-size="15.00">Payment</text>
</g>
<!-- 1739118291168&#45;&#45;1739118291600 -->
<g id="edge12" class="edge"><title>1739118291168&#45;&#45;1739118291600</title>
<path fill="none" stroke="black" d="M528.86,-80.5564C562.871,-68.1566 626.472,-44.9687 665.161,-30.8631"/>
</g>
<!-- 1739118290496 -->
<g id="node21" class="node"><title>1739118290496</title>
<ellipse fill="black" stroke="black" cx="465.7" cy="-234" rx="2.7" ry="2.7"/>
</g>
<!-- 1739118290112&#45;&#45;1739118290496 -->
<g id="edge17" class="edge"><title>1739118290112&#45;&#45;1739118290496</title>
<path fill="none" stroke="black" d="M465.7,-287.697C465.7,-269.883 465.7,-243.769 465.7,-236.776"/>
</g>
<!-- 1739118290880 -->
<g id="node22" class="node"><title>1739118290880</title>
<ellipse fill="none" stroke="black" cx="612.7" cy="-234" rx="27" ry="18"/>
<text text-anchor="middle" x="612.7" y="-230.5" font-family="Times New Roman,serif" font-size="15.00">and</text>
</g>
<!-- 1739118290112&#45;&#45;1739118290880 -->
<g id="edge22" class="edge"><title>1739118290112&#45;&#45;1739118290880</title>
<path fill="none" stroke="black" d="M487.075,-294.821C514.945,-281.55 563.416,-258.468 591.299,-245.191"/>
</g>
<!-- 1739118291696 -->
<g id="node23" class="node"><title>1739118291696</title>
<ellipse fill="none" stroke="black" cx="612.7" cy="-162" rx="61.6894" ry="18"/>
<text text-anchor="middle" x="612.7" y="-158.5" font-family="Times New Roman,serif" font-size="15.00">Add penalty</text>
</g>
<!-- 1739118290880&#45;&#45;1739118291696 -->
<g id="edge18" class="edge"><title>1739118290880&#45;&#45;1739118291696</title>
<path fill="none" stroke="black" d="M612.7,-215.697C612.7,-204.846 612.7,-190.917 612.7,-180.104"/>
</g>
<!-- 1739118291792 -->
<g id="node24" class="node"><title>1739118291792</title>
<ellipse fill="none" stroke="black" cx="719.7" cy="-162" rx="27" ry="18"/>
<text text-anchor="middle" x="719.7" y="-158.5" font-family="Times New Roman,serif" font-size="15.00">xor</text>
</g>
<!-- 1739118290880&#45;&#45;1739118291792 -->
<g id="edge21" class="edge"><title>1739118290880&#45;&#45;1739118291792</title>
<path fill="none" stroke="black" d="M631.338,-220.807C650.857,-208.037 681.343,-188.093 700.917,-175.288"/>
</g>
<!-- 1739118292128 -->
<g id="node25" class="node"><title>1739118292128</title>
<ellipse fill="black" stroke="black" cx="636.7" cy="-90" rx="2.7" ry="2.7"/>
</g>
<!-- 1739118291792&#45;&#45;1739118292128 -->
<g id="edge19" class="edge"><title>1739118291792&#45;&#45;1739118292128</title>
<path fill="none" stroke="black" d="M703.302,-147.17C682.137,-129.32 647.019,-99.7024 638.57,-92.5768"/>
</g>
<!-- 1739118292224 -->
<g id="node26" class="node"><title>1739118292224</title>
<ellipse fill="none" stroke="black" cx="801.7" cy="-90" rx="144.571" ry="18"/>
<text text-anchor="middle" x="801.7" y="-86.5" font-family="Times New Roman,serif" font-size="15.00">Insert Date Appeal to Prefecture</text>
</g>
<!-- 1739118291792&#45;&#45;1739118292224 -->
<g id="edge20" class="edge"><title>1739118291792&#45;&#45;1739118292224</title>
<path fill="none" stroke="black" d="M735.901,-147.17C749.063,-135.934 767.687,-120.036 781.763,-108.019"/>
</g>
<!-- 1739118290208 -->
<g id="node29" class="node"><title>1739118290208</title>
<ellipse fill="black" stroke="black" cx="523.7" cy="-378" rx="2.7" ry="2.7"/>
</g>
<!-- 1739118291888&#45;&#45;1739118290208 -->
<g id="edge27" class="edge"><title>1739118291888&#45;&#45;1739118290208</title>
<path fill="none" stroke="black" d="M611.236,-436.807C584.188,-418.945 535.885,-387.046 525.642,-380.282"/>
</g>
<!-- 1739118291312 -->
<g id="node30" class="node"><title>1739118291312</title>
<ellipse fill="none" stroke="black" cx="665.7" cy="-378" rx="120.819" ry="18"/>
<text text-anchor="middle" x="665.7" y="-374.5" font-family="Times New Roman,serif" font-size="15.00">Send for Credit Collection</text>
</g>
<!-- 1739118291888&#45;&#45;1739118291312 -->
<g id="edge28" class="edge"><title>1739118291888&#45;&#45;1739118291312</title>
<path fill="none" stroke="black" d="M638.05,-432.765C643.699,-421.779 651.15,-407.292 656.893,-396.124"/>
</g>
<!-- 1739118291456 -->
<g id="node31" class="node"><title>1739118291456</title>
<ellipse fill="none" stroke="black" cx="831.7" cy="-378" rx="27" ry="18"/>
<text text-anchor="middle" x="831.7" y="-374.5" font-family="Times New Roman,serif" font-size="15.00">seq</text>
</g>
<!-- 1739118291888&#45;&#45;1739118291456 -->
<g id="edge43" class="edge"><title>1739118291888&#45;&#45;1739118291456</title>
<path fill="none" stroke="black" d="M653.267,-440.833C692.191,-427.345 769.458,-400.569 808.283,-387.115"/>
</g>
<!-- 1739118290832 -->
<g id="node32" class="node"><title>1739118290832</title>
<ellipse fill="none" stroke="black" cx="654.7" cy="-306" rx="120.43" ry="18"/>
<text text-anchor="middle" x="654.7" y="-302.5" font-family="Times New Roman,serif" font-size="15.00">Send Appeal to Prefecture</text>
</g>
<!-- 1739118291456&#45;&#45;1739118290832 -->
<g id="edge29" class="edge"><title>1739118291456&#45;&#45;1739118290832</title>
<path fill="none" stroke="black" d="M808.923,-367.992C780.258,-356.656 730.521,-336.986 695.287,-323.052"/>
</g>
<!-- 1739118292272 -->
<g id="node33" class="node"><title>1739118292272</title>
<ellipse fill="none" stroke="black" cx="819.7" cy="-306" rx="27" ry="18"/>
<text text-anchor="middle" x="819.7" y="-302.5" font-family="Times New Roman,serif" font-size="15.00">xor</text>
</g>
<!-- 1739118291456&#45;&#45;1739118292272 -->
<g id="edge32" class="edge"><title>1739118291456&#45;&#45;1739118292272</title>
<path fill="none" stroke="black" d="M828.795,-360.055C826.936,-349.211 824.531,-335.183 822.661,-324.275"/>
</g>
<!-- 1739118292464 -->
<g id="node36" class="node"><title>1739118292464</title>
<ellipse fill="none" stroke="black" cx="896.7" cy="-306" rx="27" ry="18"/>
<text text-anchor="middle" x="896.7" y="-302.5" font-family="Times New Roman,serif" font-size="15.00">xor</text>
</g>
<!-- 1739118291456&#45;&#45;1739118292464 -->
<g id="edge35" class="edge"><title>1739118291456&#45;&#45;1739118292464</title>
<path fill="none" stroke="black" d="M845.485,-362.155C856.516,-350.276 871.91,-333.697 882.935,-321.824"/>
</g>
<!-- 1739118292752 -->
<g id="node39" class="node"><title>1739118292752</title>
<ellipse fill="none" stroke="black" cx="1284.7" cy="-306" rx="27" ry="18"/>
<text text-anchor="middle" x="1284.7" y="-302.5" font-family="Times New Roman,serif" font-size="15.00">xor</text>
</g>
<!-- 1739118291456&#45;&#45;1739118292752 -->
<g id="edge42" class="edge"><title>1739118291456&#45;&#45;1739118292752</title>
<path fill="none" stroke="black" d="M857.682,-372.985C937.489,-360.653 1178.5,-323.411 1258.54,-311.042"/>
</g>
<!-- 1739118292608 -->
<g id="node34" class="node"><title>1739118292608</title>
<ellipse fill="black" stroke="black" cx="730.7" cy="-234" rx="2.7" ry="2.7"/>
</g>
<!-- 1739118292272&#45;&#45;1739118292608 -->
<g id="edge30" class="edge"><title>1739118292272&#45;&#45;1739118292608</title>
<path fill="none" stroke="black" d="M802.96,-291.834C779.998,-273.774 740.62,-242.802 732.28,-236.243"/>
</g>
<!-- 1739118292704 -->
<g id="node35" class="node"><title>1739118292704</title>
<ellipse fill="none" stroke="black" cx="813.7" cy="-234" rx="61.6894" ry="18"/>
<text text-anchor="middle" x="813.7" y="-230.5" font-family="Times New Roman,serif" font-size="15.00">Add penalty</text>
</g>
<!-- 1739118292272&#45;&#45;1739118292704 -->
<g id="edge31" class="edge"><title>1739118292272&#45;&#45;1739118292704</title>
<path fill="none" stroke="black" d="M818.217,-287.697C817.287,-276.846 816.093,-262.917 815.166,-252.104"/>
</g>
<!-- 1739118292896 -->
<g id="node37" class="node"><title>1739118292896</title>
<ellipse fill="black" stroke="black" cx="896.7" cy="-234" rx="2.7" ry="2.7"/>
</g>
<!-- 1739118292464&#45;&#45;1739118292896 -->
<g id="edge33" class="edge"><title>1739118292464&#45;&#45;1739118292896</title>
<path fill="none" stroke="black" d="M896.7,-287.697C896.7,-269.883 896.7,-243.769 896.7,-236.776"/>
</g>
<!-- 1739118292944 -->
<g id="node38" class="node"><title>1739118292944</title>
<ellipse fill="none" stroke="black" cx="1090.7" cy="-234" rx="173.941" ry="18"/>
<text text-anchor="middle" x="1090.7" y="-230.5" font-family="Times New Roman,serif" font-size="15.00">Receive Result Appeal from Prefecture</text>
</g>
<!-- 1739118292464&#45;&#45;1739118292944 -->
<g id="edge34" class="edge"><title>1739118292464&#45;&#45;1739118292944</title>
<path fill="none" stroke="black" d="M920.101,-296.556C950.939,-285.429 1005.85,-265.615 1045.05,-251.472"/>
</g>
<!-- 1739117535296 -->
<g id="node40" class="node"><title>1739117535296</title>
<ellipse fill="black" stroke="black" cx="1284.7" cy="-234" rx="2.7" ry="2.7"/>
</g>
<!-- 1739118292752&#45;&#45;1739117535296 -->
<g id="edge36" class="edge"><title>1739118292752&#45;&#45;1739117535296</title>
<path fill="none" stroke="black" d="M1284.7,-287.697C1284.7,-269.883 1284.7,-243.769 1284.7,-236.776"/>
</g>
<!-- 1739117535344 -->
<g id="node41" class="node"><title>1739117535344</title>
<ellipse fill="none" stroke="black" cx="1332.7" cy="-234" rx="27" ry="18"/>
<text text-anchor="middle" x="1332.7" y="-230.5" font-family="Times New Roman,serif" font-size="15.00">seq</text>
</g>
<!-- 1739118292752&#45;&#45;1739117535344 -->
<g id="edge41" class="edge"><title>1739118292752&#45;&#45;1739117535344</title>
<path fill="none" stroke="black" d="M1295.59,-289.116C1303.45,-277.66 1314.01,-262.263 1321.85,-250.821"/>
</g>
<!-- 1739117535680 -->
<g id="node42" class="node"><title>1739117535680</title>
<ellipse fill="none" stroke="black" cx="1235.7" cy="-162" rx="148.91" ry="18"/>
<text text-anchor="middle" x="1235.7" y="-158.5" font-family="Times New Roman,serif" font-size="15.00">Notify Result Appeal to Offender</text>
</g>
<!-- 1739117535344&#45;&#45;1739117535680 -->
<g id="edge37" class="edge"><title>1739117535344&#45;&#45;1739117535680</title>
<path fill="none" stroke="black" d="M1314.91,-220.161C1299.27,-208.873 1276.38,-192.36 1259.23,-179.981"/>
</g>
<!-- 1739117535776 -->
<g id="node43" class="node"><title>1739117535776</title>
<ellipse fill="none" stroke="black" cx="1429.7" cy="-162" rx="27" ry="18"/>
<text text-anchor="middle" x="1429.7" y="-158.5" font-family="Times New Roman,serif" font-size="15.00">xor</text>
</g>
<!-- 1739117535344&#45;&#45;1739117535776 -->
<g id="edge40" class="edge"><title>1739117535344&#45;&#45;1739117535776</title>
<path fill="none" stroke="black" d="M1350.49,-220.161C1367.99,-207.531 1394.56,-188.36 1412.02,-175.758"/>
</g>
<!-- 1739117535920 -->
<g id="node44" class="node"><title>1739117535920</title>
<ellipse fill="none" stroke="black" cx="1336.7" cy="-90" rx="120.819" ry="18"/>
<text text-anchor="middle" x="1336.7" y="-86.5" font-family="Times New Roman,serif" font-size="15.00">Send for Credit Collection</text>
</g>
<!-- 1739117535776&#45;&#45;1739117535920 -->
<g id="edge38" class="edge"><title>1739117535776&#45;&#45;1739117535920</title>
<path fill="none" stroke="black" d="M1412.21,-147.834C1397.16,-136.507 1375.36,-120.101 1359.05,-107.824"/>
</g>
<!-- 1739117536016 -->
<g id="node45" class="node"><title>1739117536016</title>
<ellipse fill="none" stroke="black" cx="1521.7" cy="-90" rx="45.7249" ry="18"/>
<text text-anchor="middle" x="1521.7" y="-86.5" font-family="Times New Roman,serif" font-size="15.00">Payment</text>
</g>
<!-- 1739117535776&#45;&#45;1739117536016 -->
<g id="edge39" class="edge"><title>1739117535776&#45;&#45;1739117536016</title>
<path fill="none" stroke="black" d="M1447,-147.834C1462.52,-136.032 1485.27,-118.715 1501.59,-106.301"/>
</g>
</g>
</svg>
