<?xml version="1.0" encoding="UTF-8" standalone="no"?>
<!DOCTYPE svg PUBLIC "-//W3C//DTD SVG 1.1//EN"
 "http://www.w3.org/Graphics/SVG/1.1/DTD/svg11.dtd">
<!-- Generated by graphviz version 2.38.0 (20140413.2041)
 -->
<!-- Title: pt Pages: 1 -->
<svg width="2067pt" height="620pt"
 viewBox="0.00 0.00 2067.40 620.00" xmlns="http://www.w3.org/2000/svg" xmlns:xlink="http://www.w3.org/1999/xlink">
<g id="graph0" class="graph" transform="scale(1 1) rotate(0) translate(4 616)">
<title>pt</title>
<!-- 1408181464320 -->
<g id="node1" class="node"><title>1408181464320</title>
<ellipse fill="none" stroke="black" cx="238.7" cy="-594" rx="27" ry="18"/>
<text text-anchor="middle" x="238.7" y="-590.5" font-family="Times New Roman,serif" font-size="15.00">and</text>
</g>
<!-- 1408181461392 -->
<g id="node2" class="node"><title>1408181461392</title>
<ellipse fill="none" stroke="black" cx="185.7" cy="-522" rx="27" ry="18"/>
<text text-anchor="middle" x="185.7" y="-518.5" font-family="Times New Roman,serif" font-size="15.00">xor</text>
</g>
<!-- 1408181464320&#45;&#45;1408181461392 -->
<g id="edge7" class="edge"><title>1408181464320&#45;&#45;1408181461392</title>
<path fill="none" stroke="black" d="M226.938,-577.465C218.155,-565.865 206.205,-550.082 197.43,-538.492"/>
</g>
<!-- 1408181464656 -->
<g id="node9" class="node"><title>1408181464656</title>
<ellipse fill="none" stroke="black" cx="292.7" cy="-522" rx="27" ry="18"/>
<text text-anchor="middle" x="292.7" y="-518.5" font-family="Times New Roman,serif" font-size="15.00">and</text>
</g>
<!-- 1408181464320&#45;&#45;1408181464656 -->
<g id="edge51" class="edge"><title>1408181464320&#45;&#45;1408181464656</title>
<path fill="none" stroke="black" d="M250.684,-577.465C259.633,-565.865 271.808,-550.082 280.749,-538.492"/>
</g>
<!-- 1408183241216 -->
<g id="node3" class="node"><title>1408183241216</title>
<ellipse fill="black" stroke="black" cx="137.7" cy="-450" rx="2.7" ry="2.7"/>
</g>
<!-- 1408181461392&#45;&#45;1408183241216 -->
<g id="edge1" class="edge"><title>1408181461392&#45;&#45;1408183241216</title>
<path fill="none" stroke="black" d="M174.808,-505.116C162.638,-487.367 143.98,-460.158 138.973,-452.857"/>
</g>
<!-- 1408183238720 -->
<g id="node4" class="node"><title>1408183238720</title>
<ellipse fill="none" stroke="black" cx="185.7" cy="-450" rx="27" ry="18"/>
<text text-anchor="middle" x="185.7" y="-446.5" font-family="Times New Roman,serif" font-size="15.00">and</text>
</g>
<!-- 1408181461392&#45;&#45;1408183238720 -->
<g id="edge6" class="edge"><title>1408181461392&#45;&#45;1408183238720</title>
<path fill="none" stroke="black" d="M185.7,-503.697C185.7,-492.846 185.7,-478.917 185.7,-468.104"/>
</g>
<!-- 1408181593568 -->
<g id="node5" class="node"><title>1408181593568</title>
<ellipse fill="none" stroke="black" cx="59.7" cy="-378" rx="46.6143" ry="18"/>
<text text-anchor="middle" x="59.7" y="-374.5" font-family="Times New Roman,serif" font-size="15.00">xor loop</text>
</g>
<!-- 1408183238720&#45;&#45;1408181593568 -->
<g id="edge4" class="edge"><title>1408183238720&#45;&#45;1408181593568</title>
<path fill="none" stroke="black" d="M165.456,-437.753C143.613,-425.618 108.785,-406.27 85.1151,-393.119"/>
</g>
<!-- 1408181594048 -->
<g id="node8" class="node"><title>1408181594048</title>
<ellipse fill="none" stroke="black" cx="185.7" cy="-378" rx="61.6894" ry="18"/>
<text text-anchor="middle" x="185.7" y="-374.5" font-family="Times New Roman,serif" font-size="15.00">Add penalty</text>
</g>
<!-- 1408183238720&#45;&#45;1408181594048 -->
<g id="edge5" class="edge"><title>1408183238720&#45;&#45;1408181594048</title>
<path fill="none" stroke="black" d="M185.7,-431.697C185.7,-420.846 185.7,-406.917 185.7,-396.104"/>
</g>
<!-- 1408181593376 -->
<g id="node6" class="node"><title>1408181593376</title>
<ellipse fill="black" stroke="black" cx="2.7" cy="-306" rx="2.7" ry="2.7"/>
</g>
<!-- 1408181593568&#45;&#45;1408181593376 -->
<g id="edge2" class="edge"><title>1408181593568&#45;&#45;1408181593376</title>
<path fill="none" stroke="black" d="M46.1918,-360.411C31.4431,-342.299 9.20621,-314.99 3.87744,-308.446"/>
</g>
<!-- 1408181592752 -->
<g id="node7" class="node"><title>1408181592752</title>
<ellipse fill="none" stroke="black" cx="69.7" cy="-306" rx="45.7249" ry="18"/>
<text text-anchor="middle" x="69.7" y="-302.5" font-family="Times New Roman,serif" font-size="15.00">Payment</text>
</g>
<!-- 1408181593568&#45;&#45;1408181592752 -->
<g id="edge3" class="edge"><title>1408181593568&#45;&#45;1408181592752</title>
<path fill="none" stroke="black" d="M62.1719,-359.697C63.722,-348.846 65.7119,-334.917 67.2565,-324.104"/>
</g>
<!-- 1408181462112 -->
<g id="node10" class="node"><title>1408181462112</title>
<ellipse fill="none" stroke="black" cx="292.7" cy="-450" rx="27" ry="18"/>
<text text-anchor="middle" x="292.7" y="-446.5" font-family="Times New Roman,serif" font-size="15.00">xor</text>
</g>
<!-- 1408181464656&#45;&#45;1408181462112 -->
<g id="edge18" class="edge"><title>1408181464656&#45;&#45;1408181462112</title>
<path fill="none" stroke="black" d="M292.7,-503.697C292.7,-492.846 292.7,-478.917 292.7,-468.104"/>
</g>
<!-- 1408181461488 -->
<g id="node21" class="node"><title>1408181461488</title>
<ellipse fill="none" stroke="black" cx="600.7" cy="-450" rx="27" ry="18"/>
<text text-anchor="middle" x="600.7" y="-446.5" font-family="Times New Roman,serif" font-size="15.00">seq</text>
</g>
<!-- 1408181464656&#45;&#45;1408181461488 -->
<g id="edge50" class="edge"><title>1408181464656&#45;&#45;1408181461488</title>
<path fill="none" stroke="black" d="M317.905,-515.272C375.804,-502.113 517.761,-469.85 575.579,-456.709"/>
</g>
<!-- 1408183240976 -->
<g id="node11" class="node"><title>1408183240976</title>
<ellipse fill="black" stroke="black" cx="268.7" cy="-378" rx="2.7" ry="2.7"/>
</g>
<!-- 1408181462112&#45;&#45;1408183240976 -->
<g id="edge8" class="edge"><title>1408181462112&#45;&#45;1408183240976</title>
<path fill="none" stroke="black" d="M286.89,-432.055C280.786,-414.252 271.74,-387.865 269.316,-380.796"/>
</g>
<!-- 1408183238816 -->
<g id="node12" class="node"><title>1408183238816</title>
<ellipse fill="none" stroke="black" cx="316.7" cy="-378" rx="27" ry="18"/>
<text text-anchor="middle" x="316.7" y="-374.5" font-family="Times New Roman,serif" font-size="15.00">and</text>
</g>
<!-- 1408181462112&#45;&#45;1408183238816 -->
<g id="edge17" class="edge"><title>1408181462112&#45;&#45;1408183238816</title>
<path fill="none" stroke="black" d="M298.51,-432.055C302.283,-421.049 307.181,-406.764 310.944,-395.789"/>
</g>
<!-- 1408183241024 -->
<g id="node13" class="node"><title>1408183241024</title>
<ellipse fill="none" stroke="black" cx="184.7" cy="-306" rx="46.6143" ry="18"/>
<text text-anchor="middle" x="184.7" y="-302.5" font-family="Times New Roman,serif" font-size="15.00">xor loop</text>
</g>
<!-- 1408183238816&#45;&#45;1408183241024 -->
<g id="edge11" class="edge"><title>1408183238816&#45;&#45;1408183241024</title>
<path fill="none" stroke="black" d="M296.075,-366.063C273.162,-353.912 236.107,-334.261 211.095,-320.997"/>
</g>
<!-- 1408183238864 -->
<g id="node16" class="node"><title>1408183238864</title>
<ellipse fill="none" stroke="black" cx="316.7" cy="-306" rx="27" ry="18"/>
<text text-anchor="middle" x="316.7" y="-302.5" font-family="Times New Roman,serif" font-size="15.00">seq</text>
</g>
<!-- 1408183238816&#45;&#45;1408183238864 -->
<g id="edge16" class="edge"><title>1408183238816&#45;&#45;1408183238864</title>
<path fill="none" stroke="black" d="M316.7,-359.697C316.7,-348.846 316.7,-334.917 316.7,-324.104"/>
</g>
<!-- 1408181592416 -->
<g id="node14" class="node"><title>1408181592416</title>
<ellipse fill="black" stroke="black" cx="117.7" cy="-234" rx="2.7" ry="2.7"/>
</g>
<!-- 1408183241024&#45;&#45;1408181592416 -->
<g id="edge9" class="edge"><title>1408183241024&#45;&#45;1408181592416</title>
<path fill="none" stroke="black" d="M169.16,-288.765C151.842,-270.671 125.431,-243.078 119.099,-236.462"/>
</g>
<!-- 1408181593088 -->
<g id="node15" class="node"><title>1408181593088</title>
<ellipse fill="none" stroke="black" cx="184.7" cy="-234" rx="45.7249" ry="18"/>
<text text-anchor="middle" x="184.7" y="-230.5" font-family="Times New Roman,serif" font-size="15.00">Payment</text>
</g>
<!-- 1408183241024&#45;&#45;1408181593088 -->
<g id="edge10" class="edge"><title>1408183241024&#45;&#45;1408181593088</title>
<path fill="none" stroke="black" d="M184.7,-287.697C184.7,-276.846 184.7,-262.917 184.7,-252.104"/>
</g>
<!-- 1408181594912 -->
<g id="node17" class="node"><title>1408181594912</title>
<ellipse fill="none" stroke="black" cx="310.7" cy="-234" rx="61.6894" ry="18"/>
<text text-anchor="middle" x="310.7" y="-230.5" font-family="Times New Roman,serif" font-size="15.00">Add penalty</text>
</g>
<!-- 1408183238864&#45;&#45;1408181594912 -->
<g id="edge12" class="edge"><title>1408183238864&#45;&#45;1408181594912</title>
<path fill="none" stroke="black" d="M315.217,-287.697C314.287,-276.846 313.093,-262.917 312.166,-252.104"/>
</g>
<!-- 1408181595872 -->
<g id="node18" class="node"><title>1408181595872</title>
<ellipse fill="none" stroke="black" cx="417.7" cy="-234" rx="27" ry="18"/>
<text text-anchor="middle" x="417.7" y="-230.5" font-family="Times New Roman,serif" font-size="15.00">xor</text>
</g>
<!-- 1408183238864&#45;&#45;1408181595872 -->
<g id="edge15" class="edge"><title>1408183238864&#45;&#45;1408181595872</title>
<path fill="none" stroke="black" d="M334.757,-292.485C353.027,-279.823 381.123,-260.351 399.459,-247.642"/>
</g>
<!-- 1408181595152 -->
<g id="node19" class="node"><title>1408181595152</title>
<ellipse fill="black" stroke="black" cx="346.7" cy="-162" rx="2.7" ry="2.7"/>
</g>
<!-- 1408181595872&#45;&#45;1408181595152 -->
<g id="edge13" class="edge"><title>1408181595872&#45;&#45;1408181595152</title>
<path fill="none" stroke="black" d="M402.989,-218.496C384.792,-200.555 355.343,-171.522 348.266,-164.544"/>
</g>
<!-- 1408181592464 -->
<g id="node20" class="node"><title>1408181592464</title>
<ellipse fill="none" stroke="black" cx="488.7" cy="-162" rx="120.819" ry="18"/>
<text text-anchor="middle" x="488.7" y="-158.5" font-family="Times New Roman,serif" font-size="15.00">Send for Credit Collection</text>
</g>
<!-- 1408181595872&#45;&#45;1408181592464 -->
<g id="edge14" class="edge"><title>1408181595872&#45;&#45;1408181592464</title>
<path fill="none" stroke="black" d="M432.411,-218.496C443.784,-207.283 459.552,-191.737 471.507,-179.951"/>
</g>
<!-- 1408181464800 -->
<g id="node22" class="node"><title>1408181464800</title>
<ellipse fill="none" stroke="black" cx="495.7" cy="-378" rx="59.5207" ry="18"/>
<text text-anchor="middle" x="495.7" y="-374.5" font-family="Times New Roman,serif" font-size="15.00">Create Fine</text>
</g>
<!-- 1408181461488&#45;&#45;1408181464800 -->
<g id="edge19" class="edge"><title>1408181461488&#45;&#45;1408181464800</title>
<path fill="none" stroke="black" d="M581.928,-436.485C564.35,-424.767 538.023,-407.215 519.086,-394.591"/>
</g>
<!-- 1408181464272 -->
<g id="node23" class="node"><title>1408181464272</title>
<ellipse fill="none" stroke="black" cx="600.7" cy="-378" rx="27" ry="18"/>
<text text-anchor="middle" x="600.7" y="-374.5" font-family="Times New Roman,serif" font-size="15.00">and</text>
</g>
<!-- 1408181461488&#45;&#45;1408181464272 -->
<g id="edge26" class="edge"><title>1408181461488&#45;&#45;1408181464272</title>
<path fill="none" stroke="black" d="M600.7,-431.697C600.7,-420.846 600.7,-406.917 600.7,-396.104"/>
</g>
<!-- 1408181464704 -->
<g id="node30" class="node"><title>1408181464704</title>
<ellipse fill="none" stroke="black" cx="672.7" cy="-378" rx="27" ry="18"/>
<text text-anchor="middle" x="672.7" y="-374.5" font-family="Times New Roman,serif" font-size="15.00">xor</text>
</g>
<!-- 1408181461488&#45;&#45;1408181464704 -->
<g id="edge29" class="edge"><title>1408181461488&#45;&#45;1408181464704</title>
<path fill="none" stroke="black" d="M615.27,-434.834C627.68,-422.77 645.431,-405.512 657.904,-393.385"/>
</g>
<!-- 1408183241504 -->
<g id="node33" class="node"><title>1408183241504</title>
<ellipse fill="none" stroke="black" cx="965.7" cy="-378" rx="27" ry="18"/>
<text text-anchor="middle" x="965.7" y="-374.5" font-family="Times New Roman,serif" font-size="15.00">xor</text>
</g>
<!-- 1408181461488&#45;&#45;1408183241504 -->
<g id="edge49" class="edge"><title>1408181461488&#45;&#45;1408183241504</title>
<path fill="none" stroke="black" d="M626.366,-444.078C693.383,-431.225 873.077,-396.763 940.062,-383.917"/>
</g>
<!-- 1408183240880 -->
<g id="node24" class="node"><title>1408183240880</title>
<ellipse fill="none" stroke="black" cx="539.7" cy="-306" rx="27" ry="18"/>
<text text-anchor="middle" x="539.7" y="-302.5" font-family="Times New Roman,serif" font-size="15.00">xor</text>
</g>
<!-- 1408181464272&#45;&#45;1408183240880 -->
<g id="edge22" class="edge"><title>1408181464272&#45;&#45;1408183240880</title>
<path fill="none" stroke="black" d="M587.763,-362.155C577.412,-350.276 562.965,-333.697 552.618,-321.824"/>
</g>
<!-- 1408183241648 -->
<g id="node27" class="node"><title>1408183241648</title>
<ellipse fill="none" stroke="black" cx="612.7" cy="-306" rx="27" ry="18"/>
<text text-anchor="middle" x="612.7" y="-302.5" font-family="Times New Roman,serif" font-size="15.00">xor</text>
</g>
<!-- 1408181464272&#45;&#45;1408183241648 -->
<g id="edge25" class="edge"><title>1408181464272&#45;&#45;1408183241648</title>
<path fill="none" stroke="black" d="M603.605,-360.055C605.464,-349.211 607.869,-335.183 609.739,-324.275"/>
</g>
<!-- 1408183239344 -->
<g id="node25" class="node"><title>1408183239344</title>
<ellipse fill="black" stroke="black" cx="465.7" cy="-234" rx="2.7" ry="2.7"/>
</g>
<!-- 1408183240880&#45;&#45;1408183239344 -->
<g id="edge20" class="edge"><title>1408183240880&#45;&#45;1408183239344</title>
<path fill="none" stroke="black" d="M524.725,-290.834C505.805,-272.937 474.804,-243.612 467.349,-236.56"/>
</g>
<!-- 1408183239248 -->
<g id="node26" class="node"><title>1408183239248</title>
<ellipse fill="none" stroke="black" cx="539.7" cy="-234" rx="52.6228" ry="18"/>
<text text-anchor="middle" x="539.7" y="-230.5" font-family="Times New Roman,serif" font-size="15.00">Send Fine</text>
</g>
<!-- 1408183240880&#45;&#45;1408183239248 -->
<g id="edge21" class="edge"><title>1408183240880&#45;&#45;1408183239248</title>
<path fill="none" stroke="black" d="M539.7,-287.697C539.7,-276.846 539.7,-262.917 539.7,-252.104"/>
</g>
<!-- 1408183239488 -->
<g id="node28" class="node"><title>1408183239488</title>
<ellipse fill="black" stroke="black" cx="613.7" cy="-234" rx="2.7" ry="2.7"/>
</g>
<!-- 1408183241648&#45;&#45;1408183239488 -->
<g id="edge23" class="edge"><title>1408183241648&#45;&#45;1408183239488</title>
<path fill="none" stroke="black" d="M612.947,-287.697C613.202,-269.883 613.575,-243.769 613.675,-236.776"/>
</g>
<!-- 1408183240592 -->
<g id="node29" class="node"><title>1408183240592</title>
<ellipse fill="none" stroke="black" cx="680.7" cy="-234" rx="45.7249" ry="18"/>
<text text-anchor="middle" x="680.7" y="-230.5" font-family="Times New Roman,serif" font-size="15.00">Payment</text>
</g>
<!-- 1408183241648&#45;&#45;1408183240592 -->
<g id="edge24" class="edge"><title>1408183241648&#45;&#45;1408183240592</title>
<path fill="none" stroke="black" d="M626.79,-290.496C637.993,-278.963 653.65,-262.845 665.206,-250.95"/>
</g>
<!-- 1408183242176 -->
<g id="node31" class="node"><title>1408183242176</title>
<ellipse fill="black" stroke="black" cx="660.7" cy="-306" rx="2.7" ry="2.7"/>
</g>
<!-- 1408181464704&#45;&#45;1408183242176 -->
<g id="edge27" class="edge"><title>1408181464704&#45;&#45;1408183242176</title>
<path fill="none" stroke="black" d="M669.795,-360.055C666.743,-342.252 662.22,-315.865 661.008,-308.796"/>
</g>
<!-- 1408183241984 -->
<g id="node32" class="node"><title>1408183241984</title>
<ellipse fill="none" stroke="black" cx="788.7" cy="-306" rx="107.914" ry="18"/>
<text text-anchor="middle" x="788.7" y="-302.5" font-family="Times New Roman,serif" font-size="15.00">Insert Fine Notification</text>
</g>
<!-- 1408181464704&#45;&#45;1408183241984 -->
<g id="edge28" class="edge"><title>1408181464704&#45;&#45;1408183241984</title>
<path fill="none" stroke="black" d="M692.116,-365.284C711.078,-353.841 740.11,-336.322 761.394,-323.478"/>
</g>
<!-- 1408183239680 -->
<g id="node34" class="node"><title>1408183239680</title>
<ellipse fill="black" stroke="black" cx="916.7" cy="-306" rx="2.7" ry="2.7"/>
</g>
<!-- 1408183241504&#45;&#45;1408183239680 -->
<g id="edge30" class="edge"><title>1408183241504&#45;&#45;1408183239680</title>
<path fill="none" stroke="black" d="M954.825,-361.465C942.194,-343.42 922.478,-315.254 917.746,-308.494"/>
</g>
<!-- 1408183242512 -->
<g id="node35" class="node"><title>1408183242512</title>
<ellipse fill="none" stroke="black" cx="1015.7" cy="-306" rx="78.5434" ry="18"/>
<text text-anchor="middle" x="1015.7" y="-302.5" font-family="Times New Roman,serif" font-size="15.00">Appeal to Judge</text>
</g>
<!-- 1408183241504&#45;&#45;1408183242512 -->
<g id="edge31" class="edge"><title>1408183241504&#45;&#45;1408183242512</title>
<path fill="none" stroke="black" d="M976.797,-361.465C984.737,-350.348 995.422,-335.39 1003.58,-323.962"/>
</g>
<!-- 1408183242416 -->
<g id="node36" class="node"><title>1408183242416</title>
<ellipse fill="none" stroke="black" cx="1139.7" cy="-306" rx="27" ry="18"/>
<text text-anchor="middle" x="1139.7" y="-302.5" font-family="Times New Roman,serif" font-size="15.00">seq</text>
</g>
<!-- 1408183241504&#45;&#45;1408183242416 -->
<g id="edge48" class="edge"><title>1408183241504&#45;&#45;1408183242416</title>
<path fill="none" stroke="black" d="M988.447,-367.849C1021.89,-354.396 1083.94,-329.433 1117.22,-316.043"/>
</g>
<!-- 1408183242608 -->
<g id="node37" class="node"><title>1408183242608</title>
<ellipse fill="none" stroke="black" cx="932.7" cy="-234" rx="27" ry="18"/>
<text text-anchor="middle" x="932.7" y="-230.5" font-family="Times New Roman,serif" font-size="15.00">xor</text>
</g>
<!-- 1408183242416&#45;&#45;1408183242608 -->
<g id="edge34" class="edge"><title>1408183242416&#45;&#45;1408183242608</title>
<path fill="none" stroke="black" d="M1115.95,-296.97C1076.02,-283.467 995.912,-256.376 956.169,-242.936"/>
</g>
<!-- 1408183242368 -->
<g id="node40" class="node"><title>1408183242368</title>
<ellipse fill="none" stroke="black" cx="1139.7" cy="-234" rx="27" ry="18"/>
<text text-anchor="middle" x="1139.7" y="-230.5" font-family="Times New Roman,serif" font-size="15.00">xor</text>
</g>
<!-- 1408183242416&#45;&#45;1408183242368 -->
<g id="edge37" class="edge"><title>1408183242416&#45;&#45;1408183242368</title>
<path fill="none" stroke="black" d="M1139.7,-287.697C1139.7,-276.846 1139.7,-262.917 1139.7,-252.104"/>
</g>
<!-- 1408183242080 -->
<g id="node43" class="node"><title>1408183242080</title>
<ellipse fill="none" stroke="black" cx="1381.7" cy="-234" rx="27" ry="18"/>
<text text-anchor="middle" x="1381.7" y="-230.5" font-family="Times New Roman,serif" font-size="15.00">xor</text>
</g>
<!-- 1408183242416&#45;&#45;1408183242080 -->
<g id="edge47" class="edge"><title>1408183242416&#45;&#45;1408183242080</title>
<path fill="none" stroke="black" d="M1164.24,-297.903C1210.74,-284.452 1311.18,-255.397 1357.46,-242.012"/>
</g>
<!-- 1408183239632 -->
<g id="node38" class="node"><title>1408183239632</title>
<ellipse fill="black" stroke="black" cx="767.7" cy="-162" rx="2.7" ry="2.7"/>
</g>
<!-- 1408183242608&#45;&#45;1408183239632 -->
<g id="edge32" class="edge"><title>1408183242608&#45;&#45;1408183239632</title>
<path fill="none" stroke="black" d="M910.447,-223.559C869.28,-206.094 784.105,-169.96 769.769,-163.878"/>
</g>
<!-- 1408183241792 -->
<g id="node39" class="node"><title>1408183241792</title>
<ellipse fill="none" stroke="black" cx="932.7" cy="-162" rx="144.571" ry="18"/>
<text text-anchor="middle" x="932.7" y="-158.5" font-family="Times New Roman,serif" font-size="15.00">Insert Date Appeal to Prefecture</text>
</g>
<!-- 1408183242608&#45;&#45;1408183241792 -->
<g id="edge33" class="edge"><title>1408183242608&#45;&#45;1408183241792</title>
<path fill="none" stroke="black" d="M932.7,-215.697C932.7,-204.846 932.7,-190.917 932.7,-180.104"/>
</g>
<!-- 1408183238912 -->
<g id="node41" class="node"><title>1408183238912</title>
<ellipse fill="black" stroke="black" cx="1097.7" cy="-162" rx="2.7" ry="2.7"/>
</g>
<!-- 1408183242368&#45;&#45;1408183238912 -->
<g id="edge35" class="edge"><title>1408183242368&#45;&#45;1408183238912</title>
<path fill="none" stroke="black" d="M1130.17,-217.116C1119.52,-199.367 1103.19,-172.158 1098.81,-164.857"/>
</g>
<!-- 1408183242032 -->
<g id="node42" class="node"><title>1408183242032</title>
<ellipse fill="none" stroke="black" cx="1180.7" cy="-162" rx="61.6894" ry="18"/>
<text text-anchor="middle" x="1180.7" y="-158.5" font-family="Times New Roman,serif" font-size="15.00">Add penalty</text>
</g>
<!-- 1408183242368&#45;&#45;1408183242032 -->
<g id="edge36" class="edge"><title>1408183242368&#45;&#45;1408183242032</title>
<path fill="none" stroke="black" d="M1149.21,-216.765C1155.64,-205.779 1164.13,-191.292 1170.67,-180.124"/>
</g>
<!-- 1408183240928 -->
<g id="node44" class="node"><title>1408183240928</title>
<ellipse fill="none" stroke="black" cx="1381.7" cy="-162" rx="120.819" ry="18"/>
<text text-anchor="middle" x="1381.7" y="-158.5" font-family="Times New Roman,serif" font-size="15.00">Send for Credit Collection</text>
</g>
<!-- 1408183242080&#45;&#45;1408183240928 -->
<g id="edge38" class="edge"><title>1408183242080&#45;&#45;1408183240928</title>
<path fill="none" stroke="black" d="M1381.7,-215.697C1381.7,-204.846 1381.7,-190.917 1381.7,-180.104"/>
</g>
<!-- 1408183240736 -->
<g id="node45" class="node"><title>1408183240736</title>
<ellipse fill="none" stroke="black" cx="1547.7" cy="-162" rx="27" ry="18"/>
<text text-anchor="middle" x="1547.7" y="-158.5" font-family="Times New Roman,serif" font-size="15.00">seq</text>
</g>
<!-- 1408183242080&#45;&#45;1408183240736 -->
<g id="edge46" class="edge"><title>1408183242080&#45;&#45;1408183240736</title>
<path fill="none" stroke="black" d="M1404.09,-223.559C1435.86,-210.162 1493.68,-185.779 1525.4,-172.402"/>
</g>
<!-- 1408183239440 -->
<g id="node46" class="node"><title>1408183239440</title>
<ellipse fill="none" stroke="black" cx="1382.7" cy="-90" rx="120.43" ry="18"/>
<text text-anchor="middle" x="1382.7" y="-86.5" font-family="Times New Roman,serif" font-size="15.00">Send Appeal to Prefecture</text>
</g>
<!-- 1408183240736&#45;&#45;1408183239440 -->
<g id="edge39" class="edge"><title>1408183240736&#45;&#45;1408183239440</title>
<path fill="none" stroke="black" d="M1525.45,-151.559C1498.62,-140.177 1453.1,-120.866 1420.68,-107.111"/>
</g>
<!-- 1408183242560 -->
<g id="node47" class="node"><title>1408183242560</title>
<ellipse fill="none" stroke="black" cx="1547.7" cy="-90" rx="27" ry="18"/>
<text text-anchor="middle" x="1547.7" y="-86.5" font-family="Times New Roman,serif" font-size="15.00">xor</text>
</g>
<!-- 1408183240736&#45;&#45;1408183242560 -->
<g id="edge42" class="edge"><title>1408183240736&#45;&#45;1408183242560</title>
<path fill="none" stroke="black" d="M1547.7,-143.697C1547.7,-132.846 1547.7,-118.917 1547.7,-108.104"/>
</g>
<!-- 1408183241888 -->
<g id="node50" class="node"><title>1408183241888</title>
<ellipse fill="none" stroke="black" cx="1741.7" cy="-90" rx="27" ry="18"/>
<text text-anchor="middle" x="1741.7" y="-86.5" font-family="Times New Roman,serif" font-size="15.00">xor</text>
</g>
<!-- 1408183240736&#45;&#45;1408183241888 -->
<g id="edge45" class="edge"><title>1408183240736&#45;&#45;1408183241888</title>
<path fill="none" stroke="black" d="M1571.1,-152.556C1608.49,-139.066 1681.27,-112.805 1718.52,-99.3646"/>
</g>
<!-- 1408181594672 -->
<g id="node48" class="node"><title>1408181594672</title>
<ellipse fill="black" stroke="black" cx="1353.7" cy="-18" rx="2.7" ry="2.7"/>
</g>
<!-- 1408183242560&#45;&#45;1408181594672 -->
<g id="edge40" class="edge"><title>1408183242560&#45;&#45;1408181594672</title>
<path fill="none" stroke="black" d="M1524.3,-80.5564C1476.73,-63.393 1371.88,-25.5607 1355.79,-19.7542"/>
</g>
<!-- 1408181593904 -->
<g id="node49" class="node"><title>1408181593904</title>
<ellipse fill="none" stroke="black" cx="1547.7" cy="-18" rx="173.941" ry="18"/>
<text text-anchor="middle" x="1547.7" y="-14.5" font-family="Times New Roman,serif" font-size="15.00">Receive Result Appeal from Prefecture</text>
</g>
<!-- 1408183242560&#45;&#45;1408181593904 -->
<g id="edge41" class="edge"><title>1408183242560&#45;&#45;1408181593904</title>
<path fill="none" stroke="black" d="M1547.7,-71.6966C1547.7,-60.8463 1547.7,-46.9167 1547.7,-36.1043"/>
</g>
<!-- 1408181592560 -->
<g id="node51" class="node"><title>1408181592560</title>
<ellipse fill="black" stroke="black" cx="1741.7" cy="-18" rx="2.7" ry="2.7"/>
</g>
<!-- 1408183241888&#45;&#45;1408181592560 -->
<g id="edge43" class="edge"><title>1408183241888&#45;&#45;1408181592560</title>
<path fill="none" stroke="black" d="M1741.7,-71.6966C1741.7,-53.8826 1741.7,-27.7686 1741.7,-20.7764"/>
</g>
<!-- 1408181592800 -->
<g id="node52" class="node"><title>1408181592800</title>
<ellipse fill="none" stroke="black" cx="1910.7" cy="-18" rx="148.91" ry="18"/>
<text text-anchor="middle" x="1910.7" y="-14.5" font-family="Times New Roman,serif" font-size="15.00">Notify Result Appeal to Offender</text>
</g>
<!-- 1408183241888&#45;&#45;1408181592800 -->
<g id="edge44" class="edge"><title>1408183241888&#45;&#45;1408181592800</title>
<path fill="none" stroke="black" d="M1764.14,-79.7045C1791.35,-68.4359 1837.68,-49.2446 1870.97,-35.4544"/>
</g>
</g>
</svg>
