<?xml version="1.0" encoding="UTF-8" standalone="no"?>
<!DOCTYPE svg PUBLIC "-//W3C//DTD SVG 1.1//EN"
 "http://www.w3.org/Graphics/SVG/1.1/DTD/svg11.dtd">
<!-- Generated by graphviz version 2.38.0 (20140413.2041)
 -->
<!-- Title: pt Pages: 1 -->
<svg width="1095pt" height="476pt"
 viewBox="0.00 0.00 1094.92 476.00" xmlns="http://www.w3.org/2000/svg" xmlns:xlink="http://www.w3.org/1999/xlink">
<g id="graph0" class="graph" transform="scale(1 1) rotate(0) translate(4 472)">
<title>pt</title>
<!-- 1408158754224 -->
<g id="node1" class="node"><title>1408158754224</title>
<ellipse fill="none" stroke="black" cx="644.707" cy="-450" rx="27" ry="18"/>
<text text-anchor="middle" x="644.707" y="-446.5" font-family="Times New Roman,serif" font-size="15.00">seq</text>
</g>
<!-- 1408158754848 -->
<g id="node2" class="node"><title>1408158754848</title>
<ellipse fill="none" stroke="black" cx="503.707" cy="-378" rx="59.5207" ry="18"/>
<text text-anchor="middle" x="503.707" y="-374.5" font-family="Times New Roman,serif" font-size="15.00">Create Fine</text>
</g>
<!-- 1408158754224&#45;&#45;1408158754848 -->
<g id="edge1" class="edge"><title>1408158754224&#45;&#45;1408158754848</title>
<path fill="none" stroke="black" d="M623.598,-438.52C599.628,-426.621 560.352,-407.122 533.324,-393.704"/>
</g>
<!-- 1408158754944 -->
<g id="node3" class="node"><title>1408158754944</title>
<ellipse fill="none" stroke="black" cx="608.707" cy="-378" rx="27" ry="18"/>
<text text-anchor="middle" x="608.707" y="-374.5" font-family="Times New Roman,serif" font-size="15.00">xor</text>
</g>
<!-- 1408158754224&#45;&#45;1408158754944 -->
<g id="edge4" class="edge"><title>1408158754224&#45;&#45;1408158754944</title>
<path fill="none" stroke="black" d="M636.357,-432.765C630.541,-421.456 622.817,-406.437 617.011,-395.147"/>
</g>
<!-- 1408158754608 -->
<g id="node6" class="node"><title>1408158754608</title>
<ellipse fill="none" stroke="black" cx="681.707" cy="-378" rx="27" ry="18"/>
<text text-anchor="middle" x="681.707" y="-374.5" font-family="Times New Roman,serif" font-size="15.00">xor</text>
</g>
<!-- 1408158754224&#45;&#45;1408158754608 -->
<g id="edge29" class="edge"><title>1408158754224&#45;&#45;1408158754608</title>
<path fill="none" stroke="black" d="M653.288,-432.765C659.266,-421.456 667.205,-406.437 673.172,-395.147"/>
</g>
<!-- 1408158755184 -->
<g id="node31" class="node"><title>1408158755184</title>
<ellipse fill="none" stroke="black" cx="777.707" cy="-378" rx="27" ry="18"/>
<text text-anchor="middle" x="777.707" y="-374.5" font-family="Times New Roman,serif" font-size="15.00">xor</text>
</g>
<!-- 1408158754224&#45;&#45;1408158755184 -->
<g id="edge32" class="edge"><title>1408158754224&#45;&#45;1408158755184</title>
<path fill="none" stroke="black" d="M665.197,-438.216C690.117,-425.1 731.945,-403.085 756.975,-389.912"/>
</g>
<!-- 1408158755040 -->
<g id="node4" class="node"><title>1408158755040</title>
<ellipse fill="black" stroke="black" cx="533.707" cy="-306" rx="2.7" ry="2.7"/>
</g>
<!-- 1408158754944&#45;&#45;1408158755040 -->
<g id="edge2" class="edge"><title>1408158754944&#45;&#45;1408158755040</title>
<path fill="none" stroke="black" d="M593.529,-362.834C574.354,-344.937 542.934,-315.612 535.378,-308.56"/>
</g>
<!-- 1408158754560 -->
<g id="node5" class="node"><title>1408158754560</title>
<ellipse fill="none" stroke="black" cx="607.707" cy="-306" rx="52.6228" ry="18"/>
<text text-anchor="middle" x="607.707" y="-302.5" font-family="Times New Roman,serif" font-size="15.00">Send Fine</text>
</g>
<!-- 1408158754944&#45;&#45;1408158754560 -->
<g id="edge3" class="edge"><title>1408158754944&#45;&#45;1408158754560</title>
<path fill="none" stroke="black" d="M608.46,-359.697C608.305,-348.846 608.106,-334.917 607.951,-324.104"/>
</g>
<!-- 1408158754416 -->
<g id="node7" class="node"><title>1408158754416</title>
<ellipse fill="black" stroke="black" cx="681.707" cy="-306" rx="2.7" ry="2.7"/>
</g>
<!-- 1408158754608&#45;&#45;1408158754416 -->
<g id="edge5" class="edge"><title>1408158754608&#45;&#45;1408158754416</title>
<path fill="none" stroke="black" d="M681.707,-359.697C681.707,-341.883 681.707,-315.769 681.707,-308.776"/>
</g>
<!-- 1408158755616 -->
<g id="node8" class="node"><title>1408158755616</title>
<ellipse fill="none" stroke="black" cx="729.707" cy="-306" rx="27" ry="18"/>
<text text-anchor="middle" x="729.707" y="-302.5" font-family="Times New Roman,serif" font-size="15.00">seq</text>
</g>
<!-- 1408158754608&#45;&#45;1408158755616 -->
<g id="edge28" class="edge"><title>1408158754608&#45;&#45;1408158755616</title>
<path fill="none" stroke="black" d="M692.599,-361.116C700.454,-349.66 711.012,-334.263 718.858,-322.821"/>
</g>
<!-- 1408158755760 -->
<g id="node9" class="node"><title>1408158755760</title>
<ellipse fill="none" stroke="black" cx="298.707" cy="-234" rx="27" ry="18"/>
<text text-anchor="middle" x="298.707" y="-230.5" font-family="Times New Roman,serif" font-size="15.00">xor</text>
</g>
<!-- 1408158755616&#45;&#45;1408158755760 -->
<g id="edge15" class="edge"><title>1408158755616&#45;&#45;1408158755760</title>
<path fill="none" stroke="black" d="M703.716,-300.779C626.913,-288.305 401.578,-251.708 324.731,-239.227"/>
</g>
<!-- 1408158755952 -->
<g id="node19" class="node"><title>1408158755952</title>
<ellipse fill="none" stroke="black" cx="729.707" cy="-234" rx="27" ry="18"/>
<text text-anchor="middle" x="729.707" y="-230.5" font-family="Times New Roman,serif" font-size="15.00">and</text>
</g>
<!-- 1408158755616&#45;&#45;1408158755952 -->
<g id="edge24" class="edge"><title>1408158755616&#45;&#45;1408158755952</title>
<path fill="none" stroke="black" d="M729.707,-287.697C729.707,-276.846 729.707,-262.917 729.707,-252.104"/>
</g>
<!-- 1408158756624 -->
<g id="node28" class="node"><title>1408158756624</title>
<ellipse fill="none" stroke="black" cx="825.707" cy="-234" rx="27" ry="18"/>
<text text-anchor="middle" x="825.707" y="-230.5" font-family="Times New Roman,serif" font-size="15.00">xor</text>
</g>
<!-- 1408158755616&#45;&#45;1408158756624 -->
<g id="edge27" class="edge"><title>1408158755616&#45;&#45;1408158756624</title>
<path fill="none" stroke="black" d="M747.315,-292.161C764.636,-279.531 790.928,-260.36 808.211,-247.758"/>
</g>
<!-- 1408158756096 -->
<g id="node10" class="node"><title>1408158756096</title>
<ellipse fill="black" stroke="black" cx="250.707" cy="-162" rx="2.7" ry="2.7"/>
</g>
<!-- 1408158755760&#45;&#45;1408158756096 -->
<g id="edge6" class="edge"><title>1408158755760&#45;&#45;1408158756096</title>
<path fill="none" stroke="black" d="M287.815,-217.116C275.644,-199.367 256.987,-172.158 251.98,-164.857"/>
</g>
<!-- 1408158756192 -->
<g id="node11" class="node"><title>1408158756192</title>
<ellipse fill="none" stroke="black" cx="298.707" cy="-162" rx="27" ry="18"/>
<text text-anchor="middle" x="298.707" y="-158.5" font-family="Times New Roman,serif" font-size="15.00">seq</text>
</g>
<!-- 1408158755760&#45;&#45;1408158756192 -->
<g id="edge14" class="edge"><title>1408158755760&#45;&#45;1408158756192</title>
<path fill="none" stroke="black" d="M298.707,-215.697C298.707,-204.846 298.707,-190.917 298.707,-180.104"/>
</g>
<!-- 1408158756336 -->
<g id="node12" class="node"><title>1408158756336</title>
<ellipse fill="none" stroke="black" cx="107.707" cy="-90" rx="107.914" ry="18"/>
<text text-anchor="middle" x="107.707" y="-86.5" font-family="Times New Roman,serif" font-size="15.00">Insert Fine Notification</text>
</g>
<!-- 1408158756192&#45;&#45;1408158756336 -->
<g id="edge7" class="edge"><title>1408158756192&#45;&#45;1408158756336</title>
<path fill="none" stroke="black" d="M275.668,-152.556C244.711,-141.211 189.113,-120.835 150.4,-106.647"/>
</g>
<!-- 1408158756432 -->
<g id="node13" class="node"><title>1408158756432</title>
<ellipse fill="none" stroke="black" cx="260.707" cy="-90" rx="27" ry="18"/>
<text text-anchor="middle" x="260.707" y="-86.5" font-family="Times New Roman,serif" font-size="15.00">xor</text>
</g>
<!-- 1408158756192&#45;&#45;1408158756432 -->
<g id="edge10" class="edge"><title>1408158756192&#45;&#45;1408158756432</title>
<path fill="none" stroke="black" d="M289.893,-144.765C283.754,-133.456 275.601,-118.437 269.472,-107.147"/>
</g>
<!-- 1408158754752 -->
<g id="node16" class="node"><title>1408158754752</title>
<ellipse fill="none" stroke="black" cx="337.707" cy="-90" rx="27" ry="18"/>
<text text-anchor="middle" x="337.707" y="-86.5" font-family="Times New Roman,serif" font-size="15.00">xor</text>
</g>
<!-- 1408158756192&#45;&#45;1408158754752 -->
<g id="edge13" class="edge"><title>1408158756192&#45;&#45;1408158754752</title>
<path fill="none" stroke="black" d="M307.752,-144.765C314.053,-133.456 322.421,-118.437 328.71,-107.147"/>
</g>
<!-- 1408158756576 -->
<g id="node14" class="node"><title>1408158756576</title>
<ellipse fill="black" stroke="black" cx="171.707" cy="-18" rx="2.7" ry="2.7"/>
</g>
<!-- 1408158756432&#45;&#45;1408158756576 -->
<g id="edge8" class="edge"><title>1408158756432&#45;&#45;1408158756576</title>
<path fill="none" stroke="black" d="M243.967,-75.8335C221.005,-57.7741 181.626,-26.8019 173.287,-20.2428"/>
</g>
<!-- 1408158756816 -->
<g id="node15" class="node"><title>1408158756816</title>
<ellipse fill="none" stroke="black" cx="254.707" cy="-18" rx="61.6894" ry="18"/>
<text text-anchor="middle" x="254.707" y="-14.5" font-family="Times New Roman,serif" font-size="15.00">Add penalty</text>
</g>
<!-- 1408158756432&#45;&#45;1408158756816 -->
<g id="edge9" class="edge"><title>1408158756432&#45;&#45;1408158756816</title>
<path fill="none" stroke="black" d="M259.224,-71.6966C258.294,-60.8463 257.1,-46.9167 256.173,-36.1043"/>
</g>
<!-- 1408158712592 -->
<g id="node17" class="node"><title>1408158712592</title>
<ellipse fill="black" stroke="black" cx="337.707" cy="-18" rx="2.7" ry="2.7"/>
</g>
<!-- 1408158754752&#45;&#45;1408158712592 -->
<g id="edge11" class="edge"><title>1408158754752&#45;&#45;1408158712592</title>
<path fill="none" stroke="black" d="M337.707,-71.6966C337.707,-53.8826 337.707,-27.7686 337.707,-20.7764"/>
</g>
<!-- 1408158712736 -->
<g id="node18" class="node"><title>1408158712736</title>
<ellipse fill="none" stroke="black" cx="502.707" cy="-18" rx="144.571" ry="18"/>
<text text-anchor="middle" x="502.707" y="-14.5" font-family="Times New Roman,serif" font-size="15.00">Insert Date Appeal to Prefecture</text>
</g>
<!-- 1408158754752&#45;&#45;1408158712736 -->
<g id="edge12" class="edge"><title>1408158754752&#45;&#45;1408158712736</title>
<path fill="none" stroke="black" d="M359.959,-79.5595C386.613,-68.252 431.713,-49.1186 464.092,-35.3822"/>
</g>
<!-- 1408158756384 -->
<g id="node20" class="node"><title>1408158756384</title>
<ellipse fill="none" stroke="black" cx="705.707" cy="-162" rx="27" ry="18"/>
<text text-anchor="middle" x="705.707" y="-158.5" font-family="Times New Roman,serif" font-size="15.00">xor</text>
</g>
<!-- 1408158755952&#45;&#45;1408158756384 -->
<g id="edge20" class="edge"><title>1408158755952&#45;&#45;1408158756384</title>
<path fill="none" stroke="black" d="M723.897,-216.055C720.124,-205.049 715.226,-190.764 711.463,-179.789"/>
</g>
<!-- 1408158755856 -->
<g id="node25" class="node"><title>1408158755856</title>
<ellipse fill="none" stroke="black" cx="777.707" cy="-162" rx="27" ry="18"/>
<text text-anchor="middle" x="777.707" y="-158.5" font-family="Times New Roman,serif" font-size="15.00">xor</text>
</g>
<!-- 1408158755952&#45;&#45;1408158755856 -->
<g id="edge23" class="edge"><title>1408158755952&#45;&#45;1408158755856</title>
<path fill="none" stroke="black" d="M740.599,-217.116C748.454,-205.66 759.012,-190.263 766.858,-178.821"/>
</g>
<!-- 1408158712688 -->
<g id="node21" class="node"><title>1408158712688</title>
<ellipse fill="black" stroke="black" cx="643.707" cy="-90" rx="2.7" ry="2.7"/>
</g>
<!-- 1408158756384&#45;&#45;1408158712688 -->
<g id="edge16" class="edge"><title>1408158756384&#45;&#45;1408158712688</title>
<path fill="none" stroke="black" d="M692.558,-146.155C676.634,-128.175 651.175,-99.4321 645.059,-92.5271"/>
</g>
<!-- 1408158713072 -->
<g id="node22" class="node"><title>1408158713072</title>
<ellipse fill="none" stroke="black" cx="710.707" cy="-90" rx="46.6143" ry="18"/>
<text text-anchor="middle" x="710.707" y="-86.5" font-family="Times New Roman,serif" font-size="15.00">xor loop</text>
</g>
<!-- 1408158756384&#45;&#45;1408158713072 -->
<g id="edge19" class="edge"><title>1408158756384&#45;&#45;1408158713072</title>
<path fill="none" stroke="black" d="M706.943,-143.697C707.718,-132.846 708.713,-118.917 709.485,-108.104"/>
</g>
<!-- 1408158713504 -->
<g id="node23" class="node"><title>1408158713504</title>
<ellipse fill="none" stroke="black" cx="710.707" cy="-18" rx="45.7249" ry="18"/>
<text text-anchor="middle" x="710.707" y="-14.5" font-family="Times New Roman,serif" font-size="15.00">Payment</text>
</g>
<!-- 1408158713072&#45;&#45;1408158713504 -->
<g id="edge17" class="edge"><title>1408158713072&#45;&#45;1408158713504</title>
<path fill="none" stroke="black" d="M710.707,-71.6966C710.707,-60.8463 710.707,-46.9167 710.707,-36.1043"/>
</g>
<!-- 1408158713408 -->
<g id="node24" class="node"><title>1408158713408</title>
<ellipse fill="black" stroke="black" cx="777.707" cy="-18" rx="2.7" ry="2.7"/>
</g>
<!-- 1408158713072&#45;&#45;1408158713408 -->
<g id="edge18" class="edge"><title>1408158713072&#45;&#45;1408158713408</title>
<path fill="none" stroke="black" d="M726.246,-72.7646C743.565,-54.6708 769.975,-27.0776 776.307,-20.462"/>
</g>
<!-- 1408158712928 -->
<g id="node26" class="node"><title>1408158712928</title>
<ellipse fill="black" stroke="black" cx="777.707" cy="-90" rx="2.7" ry="2.7"/>
</g>
<!-- 1408158755856&#45;&#45;1408158712928 -->
<g id="edge21" class="edge"><title>1408158755856&#45;&#45;1408158712928</title>
<path fill="none" stroke="black" d="M777.707,-143.697C777.707,-125.883 777.707,-99.7686 777.707,-92.7764"/>
</g>
<!-- 1408158713264 -->
<g id="node27" class="node"><title>1408158713264</title>
<ellipse fill="none" stroke="black" cx="860.707" cy="-90" rx="61.6894" ry="18"/>
<text text-anchor="middle" x="860.707" y="-86.5" font-family="Times New Roman,serif" font-size="15.00">Add penalty</text>
</g>
<!-- 1408158755856&#45;&#45;1408158713264 -->
<g id="edge22" class="edge"><title>1408158755856&#45;&#45;1408158713264</title>
<path fill="none" stroke="black" d="M794.105,-147.17C807.711,-135.695 827.084,-119.357 841.43,-107.257"/>
</g>
<!-- 1408158712208 -->
<g id="node29" class="node"><title>1408158712208</title>
<ellipse fill="black" stroke="black" cx="825.707" cy="-162" rx="2.7" ry="2.7"/>
</g>
<!-- 1408158756624&#45;&#45;1408158712208 -->
<g id="edge25" class="edge"><title>1408158756624&#45;&#45;1408158712208</title>
<path fill="none" stroke="black" d="M825.707,-215.697C825.707,-197.883 825.707,-171.769 825.707,-164.776"/>
</g>
<!-- 1408158713648 -->
<g id="node30" class="node"><title>1408158713648</title>
<ellipse fill="none" stroke="black" cx="966.707" cy="-162" rx="120.43" ry="18"/>
<text text-anchor="middle" x="966.707" y="-158.5" font-family="Times New Roman,serif" font-size="15.00">Send Appeal to Prefecture</text>
</g>
<!-- 1408158756624&#45;&#45;1408158713648 -->
<g id="edge26" class="edge"><title>1408158756624&#45;&#45;1408158713648</title>
<path fill="none" stroke="black" d="M846.816,-222.52C869.786,-211.116 906.815,-192.733 933.649,-179.412"/>
</g>
<!-- 1408158756000 -->
<g id="node32" class="node"><title>1408158756000</title>
<ellipse fill="black" stroke="black" cx="777.707" cy="-306" rx="2.7" ry="2.7"/>
</g>
<!-- 1408158755184&#45;&#45;1408158756000 -->
<g id="edge30" class="edge"><title>1408158755184&#45;&#45;1408158756000</title>
<path fill="none" stroke="black" d="M777.707,-359.697C777.707,-341.883 777.707,-315.769 777.707,-308.776"/>
</g>
<!-- 1408158712976 -->
<g id="node33" class="node"><title>1408158712976</title>
<ellipse fill="none" stroke="black" cx="919.707" cy="-306" rx="120.819" ry="18"/>
<text text-anchor="middle" x="919.707" y="-302.5" font-family="Times New Roman,serif" font-size="15.00">Send for Credit Collection</text>
</g>
<!-- 1408158755184&#45;&#45;1408158712976 -->
<g id="edge31" class="edge"><title>1408158755184&#45;&#45;1408158712976</title>
<path fill="none" stroke="black" d="M798.966,-366.52C822.099,-355.116 859.391,-336.733 886.415,-323.412"/>
</g>
</g>
</svg>
