<?xml version="1.0" encoding="UTF-8" standalone="no"?>
<!DOCTYPE svg PUBLIC "-//W3C//DTD SVG 1.1//EN"
 "http://www.w3.org/Graphics/SVG/1.1/DTD/svg11.dtd">
<!-- Generated by graphviz version 2.38.0 (20140413.2041)
 -->
<!-- Title: pt Pages: 1 -->
<svg width="2892pt" height="620pt"
 viewBox="0.00 0.00 2892.08 620.00" xmlns="http://www.w3.org/2000/svg" xmlns:xlink="http://www.w3.org/1999/xlink">
<g id="graph0" class="graph" transform="scale(1 1) rotate(0) translate(4 616)">
<title>pt</title>
<!-- 1408168372352 -->
<g id="node1" class="node"><title>1408168372352</title>
<ellipse fill="none" stroke="black" cx="328.557" cy="-594" rx="27" ry="18"/>
<text text-anchor="middle" x="328.557" y="-590.5" font-family="Times New Roman,serif" font-size="15.00">and</text>
</g>
<!-- 1408174067776 -->
<g id="node2" class="node"><title>1408174067776</title>
<ellipse fill="none" stroke="black" cx="172.557" cy="-522" rx="27" ry="18"/>
<text text-anchor="middle" x="172.557" y="-518.5" font-family="Times New Roman,serif" font-size="15.00">xor</text>
</g>
<!-- 1408168372352&#45;&#45;1408174067776 -->
<g id="edge7" class="edge"><title>1408168372352&#45;&#45;1408174067776</title>
<path fill="none" stroke="black" d="M306.866,-583.267C277.145,-569.931 224.07,-546.115 194.315,-532.763"/>
</g>
<!-- 1408174069888 -->
<g id="node9" class="node"><title>1408174069888</title>
<ellipse fill="none" stroke="black" cx="328.557" cy="-522" rx="27" ry="18"/>
<text text-anchor="middle" x="328.557" y="-518.5" font-family="Times New Roman,serif" font-size="15.00">xor</text>
</g>
<!-- 1408168372352&#45;&#45;1408174069888 -->
<g id="edge18" class="edge"><title>1408168372352&#45;&#45;1408174069888</title>
<path fill="none" stroke="black" d="M328.557,-575.697C328.557,-564.846 328.557,-550.917 328.557,-540.104"/>
</g>
<!-- 1408174069024 -->
<g id="node20" class="node"><title>1408174069024</title>
<ellipse fill="none" stroke="black" cx="847.557" cy="-522" rx="27" ry="18"/>
<text text-anchor="middle" x="847.557" y="-518.5" font-family="Times New Roman,serif" font-size="15.00">seq</text>
</g>
<!-- 1408168372352&#45;&#45;1408174069024 -->
<g id="edge69" class="edge"><title>1408168372352&#45;&#45;1408174069024</title>
<path fill="none" stroke="black" d="M355.008,-589.432C444.038,-577.425 732.209,-538.558 821.16,-526.56"/>
</g>
<!-- 1408174068832 -->
<g id="node3" class="node"><title>1408174068832</title>
<ellipse fill="black" stroke="black" cx="124.557" cy="-450" rx="2.7" ry="2.7"/>
</g>
<!-- 1408174067776&#45;&#45;1408174068832 -->
<g id="edge1" class="edge"><title>1408174067776&#45;&#45;1408174068832</title>
<path fill="none" stroke="black" d="M161.665,-505.116C149.495,-487.367 130.837,-460.158 125.83,-452.857"/>
</g>
<!-- 1408174069648 -->
<g id="node4" class="node"><title>1408174069648</title>
<ellipse fill="none" stroke="black" cx="172.557" cy="-450" rx="27" ry="18"/>
<text text-anchor="middle" x="172.557" y="-446.5" font-family="Times New Roman,serif" font-size="15.00">and</text>
</g>
<!-- 1408174067776&#45;&#45;1408174069648 -->
<g id="edge6" class="edge"><title>1408174067776&#45;&#45;1408174069648</title>
<path fill="none" stroke="black" d="M172.557,-503.697C172.557,-492.846 172.557,-478.917 172.557,-468.104"/>
</g>
<!-- 1408174069456 -->
<g id="node5" class="node"><title>1408174069456</title>
<ellipse fill="none" stroke="black" cx="46.5571" cy="-378" rx="46.6143" ry="18"/>
<text text-anchor="middle" x="46.5571" y="-374.5" font-family="Times New Roman,serif" font-size="15.00">xor loop</text>
</g>
<!-- 1408174069648&#45;&#45;1408174069456 -->
<g id="edge4" class="edge"><title>1408174069648&#45;&#45;1408174069456</title>
<path fill="none" stroke="black" d="M152.313,-437.753C130.47,-425.618 95.6423,-406.27 71.9722,-393.119"/>
</g>
<!-- 1408174068256 -->
<g id="node8" class="node"><title>1408174068256</title>
<ellipse fill="none" stroke="black" cx="172.557" cy="-378" rx="61.6894" ry="18"/>
<text text-anchor="middle" x="172.557" y="-374.5" font-family="Times New Roman,serif" font-size="15.00">Add penalty</text>
</g>
<!-- 1408174069648&#45;&#45;1408174068256 -->
<g id="edge5" class="edge"><title>1408174069648&#45;&#45;1408174068256</title>
<path fill="none" stroke="black" d="M172.557,-431.697C172.557,-420.846 172.557,-406.917 172.557,-396.104"/>
</g>
<!-- 1408174069072 -->
<g id="node6" class="node"><title>1408174069072</title>
<ellipse fill="black" stroke="black" cx="12.5571" cy="-306" rx="2.7" ry="2.7"/>
</g>
<!-- 1408174069456&#45;&#45;1408174069072 -->
<g id="edge2" class="edge"><title>1408174069456&#45;&#45;1408174069072</title>
<path fill="none" stroke="black" d="M38.3267,-360.055C29.6793,-342.252 16.8631,-315.865 13.4296,-308.796"/>
</g>
<!-- 1408189471424 -->
<g id="node7" class="node"><title>1408189471424</title>
<ellipse fill="none" stroke="black" cx="79.5571" cy="-306" rx="45.7249" ry="18"/>
<text text-anchor="middle" x="79.5571" y="-302.5" font-family="Times New Roman,serif" font-size="15.00">Payment</text>
</g>
<!-- 1408174069456&#45;&#45;1408189471424 -->
<g id="edge3" class="edge"><title>1408174069456&#45;&#45;1408189471424</title>
<path fill="none" stroke="black" d="M54.5455,-360.055C59.7339,-349.049 66.4686,-334.764 71.6423,-323.789"/>
</g>
<!-- 1408177163904 -->
<g id="node10" class="node"><title>1408177163904</title>
<ellipse fill="black" stroke="black" cx="304.557" cy="-450" rx="2.7" ry="2.7"/>
</g>
<!-- 1408174069888&#45;&#45;1408177163904 -->
<g id="edge8" class="edge"><title>1408174069888&#45;&#45;1408177163904</title>
<path fill="none" stroke="black" d="M322.747,-504.055C316.643,-486.252 307.597,-459.865 305.173,-452.796"/>
</g>
<!-- 1408177163568 -->
<g id="node11" class="node"><title>1408177163568</title>
<ellipse fill="none" stroke="black" cx="352.557" cy="-450" rx="27" ry="18"/>
<text text-anchor="middle" x="352.557" y="-446.5" font-family="Times New Roman,serif" font-size="15.00">and</text>
</g>
<!-- 1408174069888&#45;&#45;1408177163568 -->
<g id="edge17" class="edge"><title>1408174069888&#45;&#45;1408177163568</title>
<path fill="none" stroke="black" d="M334.367,-504.055C338.14,-493.049 343.038,-478.764 346.801,-467.789"/>
</g>
<!-- 1408189905648 -->
<g id="node12" class="node"><title>1408189905648</title>
<ellipse fill="none" stroke="black" cx="298.557" cy="-378" rx="46.6143" ry="18"/>
<text text-anchor="middle" x="298.557" y="-374.5" font-family="Times New Roman,serif" font-size="15.00">xor loop</text>
</g>
<!-- 1408177163568&#45;&#45;1408189905648 -->
<g id="edge11" class="edge"><title>1408177163568&#45;&#45;1408189905648</title>
<path fill="none" stroke="black" d="M340.573,-433.465C331.873,-422.187 320.123,-406.955 311.26,-395.467"/>
</g>
<!-- 1408189906656 -->
<g id="node15" class="node"><title>1408189906656</title>
<ellipse fill="none" stroke="black" cx="407.557" cy="-378" rx="27" ry="18"/>
<text text-anchor="middle" x="407.557" y="-374.5" font-family="Times New Roman,serif" font-size="15.00">seq</text>
</g>
<!-- 1408177163568&#45;&#45;1408189906656 -->
<g id="edge16" class="edge"><title>1408177163568&#45;&#45;1408189906656</title>
<path fill="none" stroke="black" d="M364.491,-433.811C373.717,-422.07 386.427,-405.893 395.646,-394.159"/>
</g>
<!-- 1408189904352 -->
<g id="node13" class="node"><title>1408189904352</title>
<ellipse fill="black" stroke="black" cx="214.557" cy="-306" rx="2.7" ry="2.7"/>
</g>
<!-- 1408189905648&#45;&#45;1408189904352 -->
<g id="edge9" class="edge"><title>1408189905648&#45;&#45;1408189904352</title>
<path fill="none" stroke="black" d="M279.915,-361.465C258.261,-343.42 224.462,-315.254 216.35,-308.494"/>
</g>
<!-- 1408189906464 -->
<g id="node14" class="node"><title>1408189906464</title>
<ellipse fill="none" stroke="black" cx="281.557" cy="-306" rx="45.7249" ry="18"/>
<text text-anchor="middle" x="281.557" y="-302.5" font-family="Times New Roman,serif" font-size="15.00">Payment</text>
</g>
<!-- 1408189905648&#45;&#45;1408189906464 -->
<g id="edge10" class="edge"><title>1408189905648&#45;&#45;1408189906464</title>
<path fill="none" stroke="black" d="M294.442,-360.055C291.808,-349.211 288.402,-335.183 285.753,-324.275"/>
</g>
<!-- 1408189905024 -->
<g id="node16" class="node"><title>1408189905024</title>
<ellipse fill="none" stroke="black" cx="407.557" cy="-306" rx="61.6894" ry="18"/>
<text text-anchor="middle" x="407.557" y="-302.5" font-family="Times New Roman,serif" font-size="15.00">Add penalty</text>
</g>
<!-- 1408189906656&#45;&#45;1408189905024 -->
<g id="edge12" class="edge"><title>1408189906656&#45;&#45;1408189905024</title>
<path fill="none" stroke="black" d="M407.557,-359.697C407.557,-348.846 407.557,-334.917 407.557,-324.104"/>
</g>
<!-- 1408192180576 -->
<g id="node17" class="node"><title>1408192180576</title>
<ellipse fill="none" stroke="black" cx="514.557" cy="-306" rx="27" ry="18"/>
<text text-anchor="middle" x="514.557" y="-302.5" font-family="Times New Roman,serif" font-size="15.00">xor</text>
</g>
<!-- 1408189906656&#45;&#45;1408192180576 -->
<g id="edge15" class="edge"><title>1408189906656&#45;&#45;1408192180576</title>
<path fill="none" stroke="black" d="M426.195,-364.807C445.714,-352.037 476.2,-332.093 495.774,-319.288"/>
</g>
<!-- 1408192181584 -->
<g id="node18" class="node"><title>1408192181584</title>
<ellipse fill="black" stroke="black" cx="372.557" cy="-234" rx="2.7" ry="2.7"/>
</g>
<!-- 1408192180576&#45;&#45;1408192181584 -->
<g id="edge13" class="edge"><title>1408192180576&#45;&#45;1408192181584</title>
<path fill="none" stroke="black" d="M493.298,-294.52C457.399,-276.823 387.404,-242.319 374.595,-236.005"/>
</g>
<!-- 1408192180528 -->
<g id="node19" class="node"><title>1408192180528</title>
<ellipse fill="none" stroke="black" cx="514.557" cy="-234" rx="120.819" ry="18"/>
<text text-anchor="middle" x="514.557" y="-230.5" font-family="Times New Roman,serif" font-size="15.00">Send for Credit Collection</text>
</g>
<!-- 1408192180576&#45;&#45;1408192180528 -->
<g id="edge14" class="edge"><title>1408192180576&#45;&#45;1408192180528</title>
<path fill="none" stroke="black" d="M514.557,-287.697C514.557,-276.846 514.557,-262.917 514.557,-252.104"/>
</g>
<!-- 1408204074288 -->
<g id="node21" class="node"><title>1408204074288</title>
<ellipse fill="none" stroke="black" cx="795.557" cy="-450" rx="59.5207" ry="18"/>
<text text-anchor="middle" x="795.557" y="-446.5" font-family="Times New Roman,serif" font-size="15.00">Create Fine</text>
</g>
<!-- 1408174069024&#45;&#45;1408204074288 -->
<g id="edge19" class="edge"><title>1408174069024&#45;&#45;1408204074288</title>
<path fill="none" stroke="black" d="M836.017,-505.465C827.758,-494.348 816.647,-479.39 808.157,-467.962"/>
</g>
<!-- 1408204074576 -->
<g id="node22" class="node"><title>1408204074576</title>
<ellipse fill="none" stroke="black" cx="900.557" cy="-450" rx="27" ry="18"/>
<text text-anchor="middle" x="900.557" y="-446.5" font-family="Times New Roman,serif" font-size="15.00">xor</text>
</g>
<!-- 1408174069024&#45;&#45;1408204074576 -->
<g id="edge39" class="edge"><title>1408174069024&#45;&#45;1408204074576</title>
<path fill="none" stroke="black" d="M859.32,-505.465C868.103,-493.865 880.052,-478.082 888.828,-466.492"/>
</g>
<!-- 1408204074144 -->
<g id="node42" class="node"><title>1408204074144</title>
<ellipse fill="none" stroke="black" cx="1402.56" cy="-450" rx="27" ry="18"/>
<text text-anchor="middle" x="1402.56" y="-446.5" font-family="Times New Roman,serif" font-size="15.00">xor</text>
</g>
<!-- 1408174069024&#45;&#45;1408204074144 -->
<g id="edge68" class="edge"><title>1408174069024&#45;&#45;1408204074144</title>
<path fill="none" stroke="black" d="M873.953,-517.671C967.553,-505.865 1282.98,-466.082 1376.32,-454.309"/>
</g>
<!-- 1408204074048 -->
<g id="node23" class="node"><title>1408204074048</title>
<ellipse fill="black" stroke="black" cx="876.557" cy="-378" rx="2.7" ry="2.7"/>
</g>
<!-- 1408204074576&#45;&#45;1408204074048 -->
<g id="edge20" class="edge"><title>1408204074576&#45;&#45;1408204074048</title>
<path fill="none" stroke="black" d="M894.747,-432.055C888.643,-414.252 879.597,-387.865 877.173,-380.796"/>
</g>
<!-- 1408204073808 -->
<g id="node24" class="node"><title>1408204073808</title>
<ellipse fill="none" stroke="black" cx="924.557" cy="-378" rx="27" ry="18"/>
<text text-anchor="middle" x="924.557" y="-374.5" font-family="Times New Roman,serif" font-size="15.00">seq</text>
</g>
<!-- 1408204074576&#45;&#45;1408204073808 -->
<g id="edge38" class="edge"><title>1408204074576&#45;&#45;1408204073808</title>
<path fill="none" stroke="black" d="M906.367,-432.055C910.14,-421.049 915.038,-406.764 918.801,-395.789"/>
</g>
<!-- 1408196540688 -->
<g id="node25" class="node"><title>1408196540688</title>
<ellipse fill="none" stroke="black" cx="781.557" cy="-306" rx="27" ry="18"/>
<text text-anchor="middle" x="781.557" y="-302.5" font-family="Times New Roman,serif" font-size="15.00">seq</text>
</g>
<!-- 1408204073808&#45;&#45;1408196540688 -->
<g id="edge31" class="edge"><title>1408204073808&#45;&#45;1408196540688</title>
<path fill="none" stroke="black" d="M903.457,-366.671C876.42,-353.437 829.822,-330.626 802.744,-317.371"/>
</g>
<!-- 1408196541024 -->
<g id="node36" class="node"><title>1408196541024</title>
<ellipse fill="none" stroke="black" cx="924.557" cy="-306" rx="27" ry="18"/>
<text text-anchor="middle" x="924.557" y="-302.5" font-family="Times New Roman,serif" font-size="15.00">xor</text>
</g>
<!-- 1408204073808&#45;&#45;1408196541024 -->
<g id="edge34" class="edge"><title>1408204073808&#45;&#45;1408196541024</title>
<path fill="none" stroke="black" d="M924.557,-359.697C924.557,-348.846 924.557,-334.917 924.557,-324.104"/>
</g>
<!-- 1408199317920 -->
<g id="node39" class="node"><title>1408199317920</title>
<ellipse fill="none" stroke="black" cx="1159.56" cy="-306" rx="27" ry="18"/>
<text text-anchor="middle" x="1159.56" y="-302.5" font-family="Times New Roman,serif" font-size="15.00">xor</text>
</g>
<!-- 1408204073808&#45;&#45;1408199317920 -->
<g id="edge37" class="edge"><title>1408204073808&#45;&#45;1408199317920</title>
<path fill="none" stroke="black" d="M948.821,-369.772C993.97,-356.324 1090.38,-327.607 1135.43,-314.188"/>
</g>
<!-- 1408196539968 -->
<g id="node26" class="node"><title>1408196539968</title>
<ellipse fill="none" stroke="black" cx="680.557" cy="-234" rx="27" ry="18"/>
<text text-anchor="middle" x="680.557" y="-230.5" font-family="Times New Roman,serif" font-size="15.00">xor</text>
</g>
<!-- 1408196540688&#45;&#45;1408196539968 -->
<g id="edge23" class="edge"><title>1408196540688&#45;&#45;1408196539968</title>
<path fill="none" stroke="black" d="M763.5,-292.485C745.23,-279.823 717.134,-260.351 698.798,-247.642"/>
</g>
<!-- 1408196542416 -->
<g id="node29" class="node"><title>1408196542416</title>
<ellipse fill="none" stroke="black" cx="781.557" cy="-234" rx="27" ry="18"/>
<text text-anchor="middle" x="781.557" y="-230.5" font-family="Times New Roman,serif" font-size="15.00">and</text>
</g>
<!-- 1408196540688&#45;&#45;1408196542416 -->
<g id="edge30" class="edge"><title>1408196540688&#45;&#45;1408196542416</title>
<path fill="none" stroke="black" d="M781.557,-287.697C781.557,-276.846 781.557,-262.917 781.557,-252.104"/>
</g>
<!-- 1408196541696 -->
<g id="node27" class="node"><title>1408196541696</title>
<ellipse fill="black" stroke="black" cx="485.557" cy="-162" rx="2.7" ry="2.7"/>
</g>
<!-- 1408196539968&#45;&#45;1408196541696 -->
<g id="edge21" class="edge"><title>1408196539968&#45;&#45;1408196541696</title>
<path fill="none" stroke="black" d="M657.422,-224.695C609.804,-207.602 503.922,-169.592 487.668,-163.758"/>
</g>
<!-- 1408196541072 -->
<g id="node28" class="node"><title>1408196541072</title>
<ellipse fill="none" stroke="black" cx="650.557" cy="-162" rx="144.571" ry="18"/>
<text text-anchor="middle" x="650.557" y="-158.5" font-family="Times New Roman,serif" font-size="15.00">Insert Date Appeal to Prefecture</text>
</g>
<!-- 1408196539968&#45;&#45;1408196541072 -->
<g id="edge22" class="edge"><title>1408196539968&#45;&#45;1408196541072</title>
<path fill="none" stroke="black" d="M673.448,-216.411C668.804,-205.576 662.75,-191.45 658.034,-180.447"/>
</g>
<!-- 1408199318928 -->
<g id="node30" class="node"><title>1408199318928</title>
<ellipse fill="none" stroke="black" cx="840.557" cy="-162" rx="27" ry="18"/>
<text text-anchor="middle" x="840.557" y="-158.5" font-family="Times New Roman,serif" font-size="15.00">xor</text>
</g>
<!-- 1408196542416&#45;&#45;1408199318928 -->
<g id="edge26" class="edge"><title>1408196542416&#45;&#45;1408199318928</title>
<path fill="none" stroke="black" d="M794.359,-217.811C804.256,-206.07 817.89,-189.893 827.78,-178.159"/>
</g>
<!-- 1408199316672 -->
<g id="node33" class="node"><title>1408199316672</title>
<ellipse fill="none" stroke="black" cx="914.557" cy="-162" rx="27" ry="18"/>
<text text-anchor="middle" x="914.557" y="-158.5" font-family="Times New Roman,serif" font-size="15.00">xor</text>
</g>
<!-- 1408196542416&#45;&#45;1408199316672 -->
<g id="edge29" class="edge"><title>1408196542416&#45;&#45;1408199316672</title>
<path fill="none" stroke="black" d="M802.047,-222.216C826.967,-209.1 868.796,-187.085 893.825,-173.912"/>
</g>
<!-- 1408199318688 -->
<g id="node31" class="node"><title>1408199318688</title>
<ellipse fill="black" stroke="black" cx="766.557" cy="-90" rx="2.7" ry="2.7"/>
</g>
<!-- 1408199318928&#45;&#45;1408199318688 -->
<g id="edge24" class="edge"><title>1408199318928&#45;&#45;1408199318688</title>
<path fill="none" stroke="black" d="M825.582,-146.834C806.662,-128.937 775.661,-99.6118 768.206,-92.5602"/>
</g>
<!-- 1408199317344 -->
<g id="node32" class="node"><title>1408199317344</title>
<ellipse fill="none" stroke="black" cx="840.557" cy="-90" rx="52.6228" ry="18"/>
<text text-anchor="middle" x="840.557" y="-86.5" font-family="Times New Roman,serif" font-size="15.00">Send Fine</text>
</g>
<!-- 1408199318928&#45;&#45;1408199317344 -->
<g id="edge25" class="edge"><title>1408199318928&#45;&#45;1408199317344</title>
<path fill="none" stroke="black" d="M840.557,-143.697C840.557,-132.846 840.557,-118.917 840.557,-108.104"/>
</g>
<!-- 1408199317632 -->
<g id="node34" class="node"><title>1408199317632</title>
<ellipse fill="black" stroke="black" cx="914.557" cy="-90" rx="2.7" ry="2.7"/>
</g>
<!-- 1408199316672&#45;&#45;1408199317632 -->
<g id="edge27" class="edge"><title>1408199316672&#45;&#45;1408199317632</title>
<path fill="none" stroke="black" d="M914.557,-143.697C914.557,-125.883 914.557,-99.7686 914.557,-92.7764"/>
</g>
<!-- 1408199317392 -->
<g id="node35" class="node"><title>1408199317392</title>
<ellipse fill="none" stroke="black" cx="981.557" cy="-90" rx="45.7249" ry="18"/>
<text text-anchor="middle" x="981.557" y="-86.5" font-family="Times New Roman,serif" font-size="15.00">Payment</text>
</g>
<!-- 1408199316672&#45;&#45;1408199317392 -->
<g id="edge28" class="edge"><title>1408199316672&#45;&#45;1408199317392</title>
<path fill="none" stroke="black" d="M928.44,-146.496C939.402,-135.043 954.691,-119.069 966.053,-107.198"/>
</g>
<!-- 1408199317680 -->
<g id="node37" class="node"><title>1408199317680</title>
<ellipse fill="black" stroke="black" cx="829.557" cy="-234" rx="2.7" ry="2.7"/>
</g>
<!-- 1408196541024&#45;&#45;1408199317680 -->
<g id="edge32" class="edge"><title>1408196541024&#45;&#45;1408199317680</title>
<path fill="none" stroke="black" d="M907.133,-292.161C882.707,-274.163 840.256,-242.883 831.262,-236.256"/>
</g>
<!-- 1408199318160 -->
<g id="node38" class="node"><title>1408199318160</title>
<ellipse fill="none" stroke="black" cx="994.557" cy="-234" rx="144.571" ry="18"/>
<text text-anchor="middle" x="994.557" y="-230.5" font-family="Times New Roman,serif" font-size="15.00">Insert Date Appeal to Prefecture</text>
</g>
<!-- 1408196541024&#45;&#45;1408199318160 -->
<g id="edge33" class="edge"><title>1408196541024&#45;&#45;1408199318160</title>
<path fill="none" stroke="black" d="M939.061,-290.496C950.274,-279.283 965.82,-263.737 977.606,-251.951"/>
</g>
<!-- 1408199318016 -->
<g id="node40" class="node"><title>1408199318016</title>
<ellipse fill="black" stroke="black" cx="1159.56" cy="-234" rx="2.7" ry="2.7"/>
</g>
<!-- 1408199317920&#45;&#45;1408199318016 -->
<g id="edge35" class="edge"><title>1408199317920&#45;&#45;1408199318016</title>
<path fill="none" stroke="black" d="M1159.56,-287.697C1159.56,-269.883 1159.56,-243.769 1159.56,-236.776"/>
</g>
<!-- 1408199317824 -->
<g id="node41" class="node"><title>1408199317824</title>
<ellipse fill="none" stroke="black" cx="1287.56" cy="-234" rx="107.914" ry="18"/>
<text text-anchor="middle" x="1287.56" y="-230.5" font-family="Times New Roman,serif" font-size="15.00">Insert Fine Notification</text>
</g>
<!-- 1408199317920&#45;&#45;1408199317824 -->
<g id="edge36" class="edge"><title>1408199317920&#45;&#45;1408199317824</title>
<path fill="none" stroke="black" d="M1179.84,-293.908C1200.71,-282.497 1233.45,-264.591 1257.36,-251.514"/>
</g>
<!-- 1408199317584 -->
<g id="node43" class="node"><title>1408199317584</title>
<ellipse fill="none" stroke="black" cx="1340.56" cy="-378" rx="78.5434" ry="18"/>
<text text-anchor="middle" x="1340.56" y="-374.5" font-family="Times New Roman,serif" font-size="15.00">Appeal to Judge</text>
</g>
<!-- 1408204074144&#45;&#45;1408199317584 -->
<g id="edge40" class="edge"><title>1408204074144&#45;&#45;1408199317584</title>
<path fill="none" stroke="black" d="M1389.41,-434.155C1379.46,-422.918 1365.78,-407.476 1355.43,-395.789"/>
</g>
<!-- 1408199318976 -->
<g id="node44" class="node"><title>1408199318976</title>
<ellipse fill="none" stroke="black" cx="1464.56" cy="-378" rx="27" ry="18"/>
<text text-anchor="middle" x="1464.56" y="-374.5" font-family="Times New Roman,serif" font-size="15.00">seq</text>
</g>
<!-- 1408204074144&#45;&#45;1408199318976 -->
<g id="edge44" class="edge"><title>1408204074144&#45;&#45;1408199318976</title>
<path fill="none" stroke="black" d="M1415.71,-434.155C1426.23,-422.276 1440.91,-405.697 1451.43,-393.824"/>
</g>
<!-- 1408199318784 -->
<g id="node48" class="node"><title>1408199318784</title>
<ellipse fill="none" stroke="black" cx="1567.56" cy="-378" rx="27" ry="18"/>
<text text-anchor="middle" x="1567.56" y="-374.5" font-family="Times New Roman,serif" font-size="15.00">seq</text>
</g>
<!-- 1408204074144&#45;&#45;1408199318784 -->
<g id="edge67" class="edge"><title>1408204074144&#45;&#45;1408199318784</title>
<path fill="none" stroke="black" d="M1424.81,-439.559C1456.39,-426.162 1513.86,-401.779 1545.39,-388.402"/>
</g>
<!-- 1408199315616 -->
<g id="node45" class="node"><title>1408199315616</title>
<ellipse fill="none" stroke="black" cx="1464.56" cy="-306" rx="27" ry="18"/>
<text text-anchor="middle" x="1464.56" y="-302.5" font-family="Times New Roman,serif" font-size="15.00">xor</text>
</g>
<!-- 1408199318976&#45;&#45;1408199315616 -->
<g id="edge43" class="edge"><title>1408199318976&#45;&#45;1408199315616</title>
<path fill="none" stroke="black" d="M1464.56,-359.697C1464.56,-348.846 1464.56,-334.917 1464.56,-324.104"/>
</g>
<!-- 1408199316960 -->
<g id="node46" class="node"><title>1408199316960</title>
<ellipse fill="black" stroke="black" cx="1415.56" cy="-234" rx="2.7" ry="2.7"/>
</g>
<!-- 1408199315616&#45;&#45;1408199316960 -->
<g id="edge41" class="edge"><title>1408199315616&#45;&#45;1408199316960</title>
<path fill="none" stroke="black" d="M1453.68,-289.465C1441.05,-271.42 1421.33,-243.254 1416.6,-236.494"/>
</g>
<!-- 1408199316240 -->
<g id="node47" class="node"><title>1408199316240</title>
<ellipse fill="none" stroke="black" cx="1482.56" cy="-234" rx="45.7249" ry="18"/>
<text text-anchor="middle" x="1482.56" y="-230.5" font-family="Times New Roman,serif" font-size="15.00">Payment</text>
</g>
<!-- 1408199315616&#45;&#45;1408199316240 -->
<g id="edge42" class="edge"><title>1408199315616&#45;&#45;1408199316240</title>
<path fill="none" stroke="black" d="M1468.91,-288.055C1471.7,-277.211 1475.31,-263.183 1478.11,-252.275"/>
</g>
<!-- 1408177164048 -->
<g id="node49" class="node"><title>1408177164048</title>
<ellipse fill="none" stroke="black" cx="1567.56" cy="-306" rx="27" ry="18"/>
<text text-anchor="middle" x="1567.56" y="-302.5" font-family="Times New Roman,serif" font-size="15.00">xor</text>
</g>
<!-- 1408199318784&#45;&#45;1408177164048 -->
<g id="edge47" class="edge"><title>1408199318784&#45;&#45;1408177164048</title>
<path fill="none" stroke="black" d="M1567.56,-359.697C1567.56,-348.846 1567.56,-334.917 1567.56,-324.104"/>
</g>
<!-- 1408177160688 -->
<g id="node52" class="node"><title>1408177160688</title>
<ellipse fill="none" stroke="black" cx="1904.56" cy="-306" rx="27" ry="18"/>
<text text-anchor="middle" x="1904.56" y="-302.5" font-family="Times New Roman,serif" font-size="15.00">seq</text>
</g>
<!-- 1408199318784&#45;&#45;1408177160688 -->
<g id="edge66" class="edge"><title>1408199318784&#45;&#45;1408177160688</title>
<path fill="none" stroke="black" d="M1592.89,-371.739C1655.34,-358.766 1816.17,-325.359 1878.93,-312.322"/>
</g>
<!-- 1408177164000 -->
<g id="node50" class="node"><title>1408177164000</title>
<ellipse fill="black" stroke="black" cx="1549.56" cy="-234" rx="2.7" ry="2.7"/>
</g>
<!-- 1408177164048&#45;&#45;1408177164000 -->
<g id="edge45" class="edge"><title>1408177164048&#45;&#45;1408177164000</title>
<path fill="none" stroke="black" d="M1563.2,-288.055C1558.62,-270.252 1551.84,-243.865 1550.02,-236.796"/>
</g>
<!-- 1408177162128 -->
<g id="node51" class="node"><title>1408177162128</title>
<ellipse fill="none" stroke="black" cx="1714.56" cy="-234" rx="144.571" ry="18"/>
<text text-anchor="middle" x="1714.56" y="-230.5" font-family="Times New Roman,serif" font-size="15.00">Insert Date Appeal to Prefecture</text>
</g>
<!-- 1408177164048&#45;&#45;1408177162128 -->
<g id="edge46" class="edge"><title>1408177164048&#45;&#45;1408177162128</title>
<path fill="none" stroke="black" d="M1588.93,-294.821C1612.74,-283.484 1651.58,-264.987 1679.78,-251.559"/>
</g>
<!-- 1408177164096 -->
<g id="node53" class="node"><title>1408177164096</title>
<ellipse fill="none" stroke="black" cx="1904.56" cy="-234" rx="27" ry="18"/>
<text text-anchor="middle" x="1904.56" y="-230.5" font-family="Times New Roman,serif" font-size="15.00">xor</text>
</g>
<!-- 1408177160688&#45;&#45;1408177164096 -->
<g id="edge50" class="edge"><title>1408177160688&#45;&#45;1408177164096</title>
<path fill="none" stroke="black" d="M1904.56,-287.697C1904.56,-276.846 1904.56,-262.917 1904.56,-252.104"/>
</g>
<!-- 1408177161552 -->
<g id="node56" class="node"><title>1408177161552</title>
<ellipse fill="none" stroke="black" cx="2105.56" cy="-234" rx="27" ry="18"/>
<text text-anchor="middle" x="2105.56" y="-230.5" font-family="Times New Roman,serif" font-size="15.00">xor</text>
</g>
<!-- 1408177160688&#45;&#45;1408177161552 -->
<g id="edge65" class="edge"><title>1408177160688&#45;&#45;1408177161552</title>
<path fill="none" stroke="black" d="M1928.01,-296.833C1966.74,-283.345 2043.62,-256.569 2082.26,-243.115"/>
</g>
<!-- 1408177164240 -->
<g id="node54" class="node"><title>1408177164240</title>
<ellipse fill="black" stroke="black" cx="1821.56" cy="-162" rx="2.7" ry="2.7"/>
</g>
<!-- 1408177164096&#45;&#45;1408177164240 -->
<g id="edge48" class="edge"><title>1408177164096&#45;&#45;1408177164240</title>
<path fill="none" stroke="black" d="M1888.16,-219.17C1866.99,-201.32 1831.88,-171.702 1823.43,-164.577"/>
</g>
<!-- 1408177163232 -->
<g id="node55" class="node"><title>1408177163232</title>
<ellipse fill="none" stroke="black" cx="1904.56" cy="-162" rx="61.6894" ry="18"/>
<text text-anchor="middle" x="1904.56" y="-158.5" font-family="Times New Roman,serif" font-size="15.00">Add penalty</text>
</g>
<!-- 1408177164096&#45;&#45;1408177163232 -->
<g id="edge49" class="edge"><title>1408177164096&#45;&#45;1408177163232</title>
<path fill="none" stroke="black" d="M1904.56,-215.697C1904.56,-204.846 1904.56,-190.917 1904.56,-180.104"/>
</g>
<!-- 1408177161648 -->
<g id="node57" class="node"><title>1408177161648</title>
<ellipse fill="none" stroke="black" cx="2105.56" cy="-162" rx="120.819" ry="18"/>
<text text-anchor="middle" x="2105.56" y="-158.5" font-family="Times New Roman,serif" font-size="15.00">Send for Credit Collection</text>
</g>
<!-- 1408177161552&#45;&#45;1408177161648 -->
<g id="edge51" class="edge"><title>1408177161552&#45;&#45;1408177161648</title>
<path fill="none" stroke="black" d="M2105.56,-215.697C2105.56,-204.846 2105.56,-190.917 2105.56,-180.104"/>
</g>
<!-- 1408177160448 -->
<g id="node58" class="node"><title>1408177160448</title>
<ellipse fill="none" stroke="black" cx="2271.56" cy="-162" rx="27" ry="18"/>
<text text-anchor="middle" x="2271.56" y="-158.5" font-family="Times New Roman,serif" font-size="15.00">seq</text>
</g>
<!-- 1408177161552&#45;&#45;1408177160448 -->
<g id="edge64" class="edge"><title>1408177161552&#45;&#45;1408177160448</title>
<path fill="none" stroke="black" d="M2127.94,-223.559C2159.72,-210.162 2217.54,-185.779 2249.26,-172.402"/>
</g>
<!-- 1408177162320 -->
<g id="node59" class="node"><title>1408177162320</title>
<ellipse fill="none" stroke="black" cx="1839.56" cy="-90" rx="27" ry="18"/>
<text text-anchor="middle" x="1839.56" y="-86.5" font-family="Times New Roman,serif" font-size="15.00">xor</text>
</g>
<!-- 1408177160448&#45;&#45;1408177162320 -->
<g id="edge54" class="edge"><title>1408177160448&#45;&#45;1408177162320</title>
<path fill="none" stroke="black" d="M2245.51,-156.779C2168.53,-144.305 1942.67,-107.708 1865.64,-95.2267"/>
</g>
<!-- 1408166138496 -->
<g id="node62" class="node"><title>1408166138496</title>
<ellipse fill="none" stroke="black" cx="2174.56" cy="-90" rx="27" ry="18"/>
<text text-anchor="middle" x="2174.56" y="-86.5" font-family="Times New Roman,serif" font-size="15.00">xor</text>
</g>
<!-- 1408177160448&#45;&#45;1408166138496 -->
<g id="edge57" class="edge"><title>1408177160448&#45;&#45;1408166138496</title>
<path fill="none" stroke="black" d="M2253.77,-148.161C2236.26,-135.531 2209.7,-116.36 2192.24,-103.758"/>
</g>
<!-- 1408166138352 -->
<g id="node65" class="node"><title>1408166138352</title>
<ellipse fill="none" stroke="black" cx="2368.56" cy="-90" rx="27" ry="18"/>
<text text-anchor="middle" x="2368.56" y="-86.5" font-family="Times New Roman,serif" font-size="15.00">xor</text>
</g>
<!-- 1408177160448&#45;&#45;1408166138352 -->
<g id="edge60" class="edge"><title>1408177160448&#45;&#45;1408166138352</title>
<path fill="none" stroke="black" d="M2289.35,-148.161C2306.85,-135.531 2333.42,-116.36 2350.88,-103.758"/>
</g>
<!-- 1408166138208 -->
<g id="node68" class="node"><title>1408166138208</title>
<ellipse fill="none" stroke="black" cx="2706.56" cy="-90" rx="27" ry="18"/>
<text text-anchor="middle" x="2706.56" y="-86.5" font-family="Times New Roman,serif" font-size="15.00">xor</text>
</g>
<!-- 1408177160448&#45;&#45;1408166138208 -->
<g id="edge63" class="edge"><title>1408177160448&#45;&#45;1408166138208</title>
<path fill="none" stroke="black" d="M2297.47,-156.831C2374.74,-144.395 2603.05,-107.656 2680.51,-95.1915"/>
</g>
<!-- 1408166138256 -->
<g id="node60" class="node"><title>1408166138256</title>
<ellipse fill="black" stroke="black" cx="1698.56" cy="-18" rx="2.7" ry="2.7"/>
</g>
<!-- 1408177162320&#45;&#45;1408166138256 -->
<g id="edge52" class="edge"><title>1408177162320&#45;&#45;1408166138256</title>
<path fill="none" stroke="black" d="M1818.45,-78.5203C1782.8,-60.8234 1713.3,-26.3188 1700.58,-20.0047"/>
</g>
<!-- 1408166138544 -->
<g id="node61" class="node"><title>1408166138544</title>
<ellipse fill="none" stroke="black" cx="1839.56" cy="-18" rx="120.43" ry="18"/>
<text text-anchor="middle" x="1839.56" y="-14.5" font-family="Times New Roman,serif" font-size="15.00">Send Appeal to Prefecture</text>
</g>
<!-- 1408177162320&#45;&#45;1408166138544 -->
<g id="edge53" class="edge"><title>1408177162320&#45;&#45;1408166138544</title>
<path fill="none" stroke="black" d="M1839.56,-71.6966C1839.56,-60.8463 1839.56,-46.9167 1839.56,-36.1043"/>
</g>
<!-- 1408166139120 -->
<g id="node63" class="node"><title>1408166139120</title>
<ellipse fill="black" stroke="black" cx="1980.56" cy="-18" rx="2.7" ry="2.7"/>
</g>
<!-- 1408166138496&#45;&#45;1408166139120 -->
<g id="edge55" class="edge"><title>1408166138496&#45;&#45;1408166139120</title>
<path fill="none" stroke="black" d="M2151.16,-80.5564C2103.59,-63.393 1998.74,-25.5607 1982.65,-19.7542"/>
</g>
<!-- 1408166138160 -->
<g id="node64" class="node"><title>1408166138160</title>
<ellipse fill="none" stroke="black" cx="2174.56" cy="-18" rx="173.941" ry="18"/>
<text text-anchor="middle" x="2174.56" y="-14.5" font-family="Times New Roman,serif" font-size="15.00">Receive Result Appeal from Prefecture</text>
</g>
<!-- 1408166138496&#45;&#45;1408166138160 -->
<g id="edge56" class="edge"><title>1408166138496&#45;&#45;1408166138160</title>
<path fill="none" stroke="black" d="M2174.56,-71.6966C2174.56,-60.8463 2174.56,-46.9167 2174.56,-36.1043"/>
</g>
<!-- 1408166137920 -->
<g id="node66" class="node"><title>1408166137920</title>
<ellipse fill="black" stroke="black" cx="2368.56" cy="-18" rx="2.7" ry="2.7"/>
</g>
<!-- 1408166138352&#45;&#45;1408166137920 -->
<g id="edge58" class="edge"><title>1408166138352&#45;&#45;1408166137920</title>
<path fill="none" stroke="black" d="M2368.56,-71.6966C2368.56,-53.8826 2368.56,-27.7686 2368.56,-20.7764"/>
</g>
<!-- 1408166139072 -->
<g id="node67" class="node"><title>1408166139072</title>
<ellipse fill="none" stroke="black" cx="2537.56" cy="-18" rx="148.91" ry="18"/>
<text text-anchor="middle" x="2537.56" y="-14.5" font-family="Times New Roman,serif" font-size="15.00">Notify Result Appeal to Offender</text>
</g>
<!-- 1408166138352&#45;&#45;1408166139072 -->
<g id="edge59" class="edge"><title>1408166138352&#45;&#45;1408166139072</title>
<path fill="none" stroke="black" d="M2391,-79.7045C2418.2,-68.4359 2464.54,-49.2446 2497.83,-35.4544"/>
</g>
<!-- 1408189905792 -->
<g id="node69" class="node"><title>1408189905792</title>
<ellipse fill="black" stroke="black" cx="2706.56" cy="-18" rx="2.7" ry="2.7"/>
</g>
<!-- 1408166138208&#45;&#45;1408189905792 -->
<g id="edge61" class="edge"><title>1408166138208&#45;&#45;1408189905792</title>
<path fill="none" stroke="black" d="M2706.56,-71.6966C2706.56,-53.8826 2706.56,-27.7686 2706.56,-20.7764"/>
</g>
<!-- 1408189905264 -->
<g id="node70" class="node"><title>1408189905264</title>
<ellipse fill="none" stroke="black" cx="2805.56" cy="-18" rx="78.5434" ry="18"/>
<text text-anchor="middle" x="2805.56" y="-14.5" font-family="Times New Roman,serif" font-size="15.00">Appeal to Judge</text>
</g>
<!-- 1408166138208&#45;&#45;1408189905264 -->
<g id="edge62" class="edge"><title>1408166138208&#45;&#45;1408189905264</title>
<path fill="none" stroke="black" d="M2724.72,-76.1609C2740.9,-64.7148 2764.69,-47.8968 2782.27,-35.4644"/>
</g>
</g>
</svg>
