<?xml version="1.0" encoding="UTF-8" standalone="no"?>
<!DOCTYPE svg PUBLIC "-//W3C//DTD SVG 1.1//EN"
 "http://www.w3.org/Graphics/SVG/1.1/DTD/svg11.dtd">
<!-- Generated by graphviz version 2.38.0 (20140413.2041)
 -->
<!-- Title: pt Pages: 1 -->
<svg width="2128pt" height="548pt"
 viewBox="0.00 0.00 2127.66 548.00" xmlns="http://www.w3.org/2000/svg" xmlns:xlink="http://www.w3.org/1999/xlink">
<g id="graph0" class="graph" transform="scale(1 1) rotate(0) translate(4 544)">
<title>pt</title>
<!-- 1408198058768 -->
<g id="node1" class="node"><title>1408198058768</title>
<ellipse fill="none" stroke="black" cx="743.811" cy="-522" rx="27" ry="18"/>
<text text-anchor="middle" x="743.811" y="-518.5" font-family="Times New Roman,serif" font-size="15.00">seq</text>
</g>
<!-- 1408179230128 -->
<g id="node2" class="node"><title>1408179230128</title>
<ellipse fill="none" stroke="black" cx="681.811" cy="-450" rx="59.5207" ry="18"/>
<text text-anchor="middle" x="681.811" y="-446.5" font-family="Times New Roman,serif" font-size="15.00">Create Fine</text>
</g>
<!-- 1408198058768&#45;&#45;1408179230128 -->
<g id="edge1" class="edge"><title>1408198058768&#45;&#45;1408179230128</title>
<path fill="none" stroke="black" d="M730.662,-506.155C720.71,-494.918 707.033,-479.476 696.681,-467.789"/>
</g>
<!-- 1408192261280 -->
<g id="node3" class="node"><title>1408192261280</title>
<ellipse fill="none" stroke="black" cx="805.811" cy="-450" rx="46.6143" ry="18"/>
<text text-anchor="middle" x="805.811" y="-446.5" font-family="Times New Roman,serif" font-size="15.00">xor loop</text>
</g>
<!-- 1408198058768&#45;&#45;1408192261280 -->
<g id="edge26" class="edge"><title>1408198058768&#45;&#45;1408192261280</title>
<path fill="none" stroke="black" d="M756.96,-506.155C767.055,-494.757 780.981,-479.034 791.382,-467.29"/>
</g>
<!-- 1408192259504 -->
<g id="node4" class="node"><title>1408192259504</title>
<ellipse fill="none" stroke="black" cx="771.811" cy="-378" rx="46.6143" ry="18"/>
<text text-anchor="middle" x="771.811" y="-374.5" font-family="Times New Roman,serif" font-size="15.00">xor loop</text>
</g>
<!-- 1408192261280&#45;&#45;1408192259504 -->
<g id="edge24" class="edge"><title>1408192261280&#45;&#45;1408192259504</title>
<path fill="none" stroke="black" d="M797.581,-432.055C792.235,-421.049 785.296,-406.764 779.966,-395.789"/>
</g>
<!-- 1408192261904 -->
<g id="node27" class="node"><title>1408192261904</title>
<ellipse fill="black" stroke="black" cx="838.811" cy="-378" rx="2.7" ry="2.7"/>
</g>
<!-- 1408192261280&#45;&#45;1408192261904 -->
<g id="edge25" class="edge"><title>1408192261280&#45;&#45;1408192261904</title>
<path fill="none" stroke="black" d="M813.799,-432.055C822.192,-414.252 834.632,-387.865 837.964,-380.796"/>
</g>
<!-- 1408192261088 -->
<g id="node5" class="node"><title>1408192261088</title>
<ellipse fill="none" stroke="black" cx="747.811" cy="-306" rx="27" ry="18"/>
<text text-anchor="middle" x="747.811" y="-302.5" font-family="Times New Roman,serif" font-size="15.00">seq</text>
</g>
<!-- 1408192259504&#45;&#45;1408192261088 -->
<g id="edge22" class="edge"><title>1408192259504&#45;&#45;1408192261088</title>
<path fill="none" stroke="black" d="M766.001,-360.055C762.228,-349.049 757.33,-334.764 753.567,-323.789"/>
</g>
<!-- 1408192261376 -->
<g id="node26" class="node"><title>1408192261376</title>
<ellipse fill="black" stroke="black" cx="795.811" cy="-306" rx="2.7" ry="2.7"/>
</g>
<!-- 1408192259504&#45;&#45;1408192261376 -->
<g id="edge23" class="edge"><title>1408192259504&#45;&#45;1408192261376</title>
<path fill="none" stroke="black" d="M777.621,-360.055C783.725,-342.252 792.772,-315.865 795.195,-308.796"/>
</g>
<!-- 1408192258160 -->
<g id="node6" class="node"><title>1408192258160</title>
<ellipse fill="none" stroke="black" cx="606.811" cy="-234" rx="27" ry="18"/>
<text text-anchor="middle" x="606.811" y="-230.5" font-family="Times New Roman,serif" font-size="15.00">xor</text>
</g>
<!-- 1408192261088&#45;&#45;1408192258160 -->
<g id="edge11" class="edge"><title>1408192261088&#45;&#45;1408192258160</title>
<path fill="none" stroke="black" d="M726.702,-294.52C700.121,-281.324 654.714,-258.781 628.064,-245.551"/>
</g>
<!-- 1408192258544 -->
<g id="node16" class="node"><title>1408192258544</title>
<ellipse fill="none" stroke="black" cx="889.811" cy="-234" rx="27" ry="18"/>
<text text-anchor="middle" x="889.811" y="-230.5" font-family="Times New Roman,serif" font-size="15.00">xor</text>
</g>
<!-- 1408192261088&#45;&#45;1408192258544 -->
<g id="edge21" class="edge"><title>1408192261088&#45;&#45;1408192258544</title>
<path fill="none" stroke="black" d="M769.07,-294.52C795.84,-281.324 841.569,-258.781 868.407,-245.551"/>
</g>
<!-- 1408192262000 -->
<g id="node7" class="node"><title>1408192262000</title>
<ellipse fill="none" stroke="black" cx="482.811" cy="-162" rx="78.5434" ry="18"/>
<text text-anchor="middle" x="482.811" y="-158.5" font-family="Times New Roman,serif" font-size="15.00">Appeal to Judge</text>
</g>
<!-- 1408192258160&#45;&#45;1408192262000 -->
<g id="edge2" class="edge"><title>1408192258160&#45;&#45;1408192262000</title>
<path fill="none" stroke="black" d="M586.888,-221.753C566.35,-210.159 534.148,-191.981 511.002,-178.914"/>
</g>
<!-- 1408192259024 -->
<g id="node8" class="node"><title>1408192259024</title>
<ellipse fill="none" stroke="black" cx="606.811" cy="-162" rx="27" ry="18"/>
<text text-anchor="middle" x="606.811" y="-158.5" font-family="Times New Roman,serif" font-size="15.00">seq</text>
</g>
<!-- 1408192258160&#45;&#45;1408192259024 -->
<g id="edge10" class="edge"><title>1408192258160&#45;&#45;1408192259024</title>
<path fill="none" stroke="black" d="M606.811,-215.697C606.811,-204.846 606.811,-190.917 606.811,-180.104"/>
</g>
<!-- 1408192258448 -->
<g id="node9" class="node"><title>1408192258448</title>
<ellipse fill="none" stroke="black" cx="273.811" cy="-90" rx="27" ry="18"/>
<text text-anchor="middle" x="273.811" y="-86.5" font-family="Times New Roman,serif" font-size="15.00">xor</text>
</g>
<!-- 1408192259024&#45;&#45;1408192258448 -->
<g id="edge6" class="edge"><title>1408192259024&#45;&#45;1408192258448</title>
<path fill="none" stroke="black" d="M581.509,-155.681C519.735,-142.696 361.737,-109.483 299.532,-96.4068"/>
</g>
<!-- 1408192258640 -->
<g id="node13" class="node"><title>1408192258640</title>
<ellipse fill="none" stroke="black" cx="606.811" cy="-90" rx="27" ry="18"/>
<text text-anchor="middle" x="606.811" y="-86.5" font-family="Times New Roman,serif" font-size="15.00">xor</text>
</g>
<!-- 1408192259024&#45;&#45;1408192258640 -->
<g id="edge9" class="edge"><title>1408192259024&#45;&#45;1408192258640</title>
<path fill="none" stroke="black" d="M606.811,-143.697C606.811,-132.846 606.811,-118.917 606.811,-108.104"/>
</g>
<!-- 1408192261616 -->
<g id="node10" class="node"><title>1408192261616</title>
<ellipse fill="none" stroke="black" cx="52.8111" cy="-18" rx="52.6228" ry="18"/>
<text text-anchor="middle" x="52.8111" y="-14.5" font-family="Times New Roman,serif" font-size="15.00">Send Fine</text>
</g>
<!-- 1408192258448&#45;&#45;1408192261616 -->
<g id="edge3" class="edge"><title>1408192258448&#45;&#45;1408192261616</title>
<path fill="none" stroke="black" d="M249.739,-81.3755C211.256,-69.1861 135.588,-45.2189 90.0742,-30.8028"/>
</g>
<!-- 1408192261520 -->
<g id="node11" class="node"><title>1408192261520</title>
<ellipse fill="none" stroke="black" cx="169.811" cy="-18" rx="45.7249" ry="18"/>
<text text-anchor="middle" x="169.811" y="-14.5" font-family="Times New Roman,serif" font-size="15.00">Payment</text>
</g>
<!-- 1408192258448&#45;&#45;1408192261520 -->
<g id="edge4" class="edge"><title>1408192258448&#45;&#45;1408192261520</title>
<path fill="none" stroke="black" d="M255.218,-76.4854C237.456,-64.5306 210.677,-46.5062 191.851,-33.8345"/>
</g>
<!-- 1408192260224 -->
<g id="node12" class="node"><title>1408192260224</title>
<ellipse fill="none" stroke="black" cx="377.811" cy="-18" rx="144.571" ry="18"/>
<text text-anchor="middle" x="377.811" y="-14.5" font-family="Times New Roman,serif" font-size="15.00">Insert Date Appeal to Prefecture</text>
</g>
<!-- 1408192258448&#45;&#45;1408192260224 -->
<g id="edge5" class="edge"><title>1408192258448&#45;&#45;1408192260224</title>
<path fill="none" stroke="black" d="M292.404,-76.4854C309.231,-65.1598 334.151,-48.3867 352.735,-35.8781"/>
</g>
<!-- 1408192259600 -->
<g id="node14" class="node"><title>1408192259600</title>
<ellipse fill="black" stroke="black" cx="542.811" cy="-18" rx="2.7" ry="2.7"/>
</g>
<!-- 1408192258640&#45;&#45;1408192259600 -->
<g id="edge7" class="edge"><title>1408192258640&#45;&#45;1408192259600</title>
<path fill="none" stroke="black" d="M593.238,-74.1548C576.8,-56.1754 550.52,-27.4321 544.207,-20.5271"/>
</g>
<!-- 1408192259552 -->
<g id="node15" class="node"><title>1408192259552</title>
<ellipse fill="none" stroke="black" cx="670.811" cy="-18" rx="107.914" ry="18"/>
<text text-anchor="middle" x="670.811" y="-14.5" font-family="Times New Roman,serif" font-size="15.00">Insert Fine Notification</text>
</g>
<!-- 1408192258640&#45;&#45;1408192259552 -->
<g id="edge8" class="edge"><title>1408192258640&#45;&#45;1408192259552</title>
<path fill="none" stroke="black" d="M620.384,-74.1548C630.584,-62.998 644.574,-47.6963 655.232,-36.04"/>
</g>
<!-- 1408192261664 -->
<g id="node17" class="node"><title>1408192261664</title>
<ellipse fill="black" stroke="black" cx="889.811" cy="-162" rx="2.7" ry="2.7"/>
</g>
<!-- 1408192258544&#45;&#45;1408192261664 -->
<g id="edge12" class="edge"><title>1408192258544&#45;&#45;1408192261664</title>
<path fill="none" stroke="black" d="M889.811,-215.697C889.811,-197.883 889.811,-171.769 889.811,-164.776"/>
</g>
<!-- 1408192260656 -->
<g id="node18" class="node"><title>1408192260656</title>
<ellipse fill="none" stroke="black" cx="1387.81" cy="-162" rx="46.6143" ry="18"/>
<text text-anchor="middle" x="1387.81" y="-158.5" font-family="Times New Roman,serif" font-size="15.00">xor loop</text>
</g>
<!-- 1408192258544&#45;&#45;1408192260656 -->
<g id="edge20" class="edge"><title>1408192258544&#45;&#45;1408192260656</title>
<path fill="none" stroke="black" d="M916.234,-229.286C997.573,-217.853 1244.73,-183.112 1344.93,-169.027"/>
</g>
<!-- 1408192260320 -->
<g id="node19" class="node"><title>1408192260320</title>
<ellipse fill="none" stroke="black" cx="1387.81" cy="-90" rx="27" ry="18"/>
<text text-anchor="middle" x="1387.81" y="-86.5" font-family="Times New Roman,serif" font-size="15.00">xor</text>
</g>
<!-- 1408192260656&#45;&#45;1408192260320 -->
<g id="edge18" class="edge"><title>1408192260656&#45;&#45;1408192260320</title>
<path fill="none" stroke="black" d="M1387.81,-143.697C1387.81,-132.846 1387.81,-118.917 1387.81,-108.104"/>
</g>
<!-- 1408192262096 -->
<g id="node25" class="node"><title>1408192262096</title>
<ellipse fill="black" stroke="black" cx="1435.81" cy="-90" rx="2.7" ry="2.7"/>
</g>
<!-- 1408192260656&#45;&#45;1408192262096 -->
<g id="edge19" class="edge"><title>1408192260656&#45;&#45;1408192262096</title>
<path fill="none" stroke="black" d="M1399.19,-144.411C1411.38,-126.622 1429.67,-99.9625 1434.57,-92.8163"/>
</g>
<!-- 1408192261184 -->
<g id="node20" class="node"><title>1408192261184</title>
<ellipse fill="none" stroke="black" cx="944.811" cy="-18" rx="148.91" ry="18"/>
<text text-anchor="middle" x="944.811" y="-14.5" font-family="Times New Roman,serif" font-size="15.00">Notify Result Appeal to Offender</text>
</g>
<!-- 1408192260320&#45;&#45;1408192261184 -->
<g id="edge13" class="edge"><title>1408192260320&#45;&#45;1408192261184</title>
<path fill="none" stroke="black" d="M1361.75,-84.8825C1298.32,-74.8597 1133.6,-48.8311 1031.21,-32.6515"/>
</g>
<!-- 1408192260560 -->
<g id="node21" class="node"><title>1408192260560</title>
<ellipse fill="none" stroke="black" cx="1231.81" cy="-18" rx="120.43" ry="18"/>
<text text-anchor="middle" x="1231.81" y="-14.5" font-family="Times New Roman,serif" font-size="15.00">Send Appeal to Prefecture</text>
</g>
<!-- 1408192260320&#45;&#45;1408192260560 -->
<g id="edge14" class="edge"><title>1408192260320&#45;&#45;1408192260560</title>
<path fill="none" stroke="black" d="M1366.12,-79.2668C1340.75,-67.8841 1298.37,-48.8671 1268,-35.2381"/>
</g>
<!-- 1408192259360 -->
<g id="node22" class="node"><title>1408192259360</title>
<ellipse fill="none" stroke="black" cx="1543.81" cy="-18" rx="173.941" ry="18"/>
<text text-anchor="middle" x="1543.81" y="-14.5" font-family="Times New Roman,serif" font-size="15.00">Receive Result Appeal from Prefecture</text>
</g>
<!-- 1408192260320&#45;&#45;1408192259360 -->
<g id="edge15" class="edge"><title>1408192260320&#45;&#45;1408192259360</title>
<path fill="none" stroke="black" d="M1409.5,-79.2668C1434.62,-67.9968 1476.41,-49.2429 1506.72,-35.6445"/>
</g>
<!-- 1408192258880 -->
<g id="node23" class="node"><title>1408192258880</title>
<ellipse fill="none" stroke="black" cx="1856.81" cy="-18" rx="120.819" ry="18"/>
<text text-anchor="middle" x="1856.81" y="-14.5" font-family="Times New Roman,serif" font-size="15.00">Send for Credit Collection</text>
</g>
<!-- 1408192260320&#45;&#45;1408192258880 -->
<g id="edge16" class="edge"><title>1408192260320&#45;&#45;1408192258880</title>
<path fill="none" stroke="black" d="M1414.03,-85.0865C1482.03,-74.9373 1666.28,-47.438 1774.47,-31.2897"/>
</g>
<!-- 1408192260128 -->
<g id="node24" class="node"><title>1408192260128</title>
<ellipse fill="none" stroke="black" cx="2057.81" cy="-18" rx="61.6894" ry="18"/>
<text text-anchor="middle" x="2057.81" y="-14.5" font-family="Times New Roman,serif" font-size="15.00">Add penalty</text>
</g>
<!-- 1408192260320&#45;&#45;1408192260128 -->
<g id="edge17" class="edge"><title>1408192260320&#45;&#45;1408192260128</title>
<path fill="none" stroke="black" d="M1414.49,-86.2127C1513.67,-75.8508 1862.49,-39.4068 2000.75,-24.9618"/>
</g>
</g>
</svg>
