<?xml version="1.0" encoding="UTF-8" standalone="no"?>
<!DOCTYPE svg PUBLIC "-//W3C//DTD SVG 1.1//EN"
 "http://www.w3.org/Graphics/SVG/1.1/DTD/svg11.dtd">
<!-- Generated by graphviz version 2.38.0 (20140413.2041)
 -->
<!-- Title: pt Pages: 1 -->
<svg width="1107pt" height="476pt"
 viewBox="0.00 0.00 1106.60 476.00" xmlns="http://www.w3.org/2000/svg" xmlns:xlink="http://www.w3.org/1999/xlink">
<g id="graph0" class="graph" transform="scale(1 1) rotate(0) translate(4 472)">
<title>pt</title>
<!-- 1408001719024 -->
<g id="node1" class="node"><title>1408001719024</title>
<ellipse fill="none" stroke="black" cx="306.76" cy="-450" rx="27" ry="18"/>
<text text-anchor="middle" x="306.76" y="-446.5" font-family="Times New Roman,serif" font-size="15.00">seq</text>
</g>
<!-- 1408001668240 -->
<g id="node2" class="node"><title>1408001668240</title>
<ellipse fill="none" stroke="black" cx="59.7599" cy="-378" rx="59.5207" ry="18"/>
<text text-anchor="middle" x="59.7599" y="-374.5" font-family="Times New Roman,serif" font-size="15.00">Create Fine</text>
</g>
<!-- 1408001719024&#45;&#45;1408001668240 -->
<g id="edge1" class="edge"><title>1408001719024&#45;&#45;1408001668240</title>
<path fill="none" stroke="black" d="M282.174,-442.032C240.076,-430.102 153.726,-405.63 101.874,-390.935"/>
</g>
<!-- 1408001669488 -->
<g id="node3" class="node"><title>1408001669488</title>
<ellipse fill="none" stroke="black" cx="164.76" cy="-378" rx="27" ry="18"/>
<text text-anchor="middle" x="164.76" y="-374.5" font-family="Times New Roman,serif" font-size="15.00">xor</text>
</g>
<!-- 1408001719024&#45;&#45;1408001669488 -->
<g id="edge4" class="edge"><title>1408001719024&#45;&#45;1408001669488</title>
<path fill="none" stroke="black" d="M285.501,-438.52C258.731,-425.324 213.002,-402.781 186.164,-389.551"/>
</g>
<!-- 1408001668336 -->
<g id="node6" class="node"><title>1408001668336</title>
<ellipse fill="none" stroke="black" cx="270.76" cy="-378" rx="27" ry="18"/>
<text text-anchor="middle" x="270.76" y="-374.5" font-family="Times New Roman,serif" font-size="15.00">xor</text>
</g>
<!-- 1408001719024&#45;&#45;1408001668336 -->
<g id="edge7" class="edge"><title>1408001719024&#45;&#45;1408001668336</title>
<path fill="none" stroke="black" d="M298.41,-432.765C292.594,-421.456 284.87,-406.437 279.064,-395.147"/>
</g>
<!-- 1408001667376 -->
<g id="node9" class="node"><title>1408001667376</title>
<ellipse fill="none" stroke="black" cx="342.76" cy="-378" rx="27" ry="18"/>
<text text-anchor="middle" x="342.76" y="-374.5" font-family="Times New Roman,serif" font-size="15.00">xor</text>
</g>
<!-- 1408001719024&#45;&#45;1408001667376 -->
<g id="edge10" class="edge"><title>1408001719024&#45;&#45;1408001667376</title>
<path fill="none" stroke="black" d="M315.109,-432.765C320.925,-421.456 328.65,-406.437 334.456,-395.147"/>
</g>
<!-- 1408001714928 -->
<g id="node12" class="node"><title>1408001714928</title>
<ellipse fill="none" stroke="black" cx="487.76" cy="-378" rx="27" ry="18"/>
<text text-anchor="middle" x="487.76" y="-374.5" font-family="Times New Roman,serif" font-size="15.00">xor</text>
</g>
<!-- 1408001719024&#45;&#45;1408001714928 -->
<g id="edge26" class="edge"><title>1408001719024&#45;&#45;1408001714928</title>
<path fill="none" stroke="black" d="M329.684,-440.134C364.5,-426.67 430.317,-401.215 465.022,-387.794"/>
</g>
<!-- 1408001714688 -->
<g id="node28" class="node"><title>1408001714688</title>
<ellipse fill="none" stroke="black" cx="583.76" cy="-378" rx="27" ry="18"/>
<text text-anchor="middle" x="583.76" y="-374.5" font-family="Times New Roman,serif" font-size="15.00">xor</text>
</g>
<!-- 1408001719024&#45;&#45;1408001714688 -->
<g id="edge29" class="edge"><title>1408001719024&#45;&#45;1408001714688</title>
<path fill="none" stroke="black" d="M331.83,-442.665C384.568,-429.337 506.433,-398.541 558.946,-385.271"/>
</g>
<!-- 1408001715024 -->
<g id="node4" class="node"><title>1408001715024</title>
<ellipse fill="black" stroke="black" cx="57.7599" cy="-306" rx="2.7" ry="2.7"/>
</g>
<!-- 1408001669488&#45;&#45;1408001715024 -->
<g id="edge2" class="edge"><title>1408001669488&#45;&#45;1408001715024</title>
<path fill="none" stroke="black" d="M146.122,-364.807C118.579,-346.788 69.2024,-314.486 59.4568,-308.11"/>
</g>
<!-- 1408001670832 -->
<g id="node5" class="node"><title>1408001670832</title>
<ellipse fill="none" stroke="black" cx="131.76" cy="-306" rx="52.6228" ry="18"/>
<text text-anchor="middle" x="131.76" y="-302.5" font-family="Times New Roman,serif" font-size="15.00">Send Fine</text>
</g>
<!-- 1408001669488&#45;&#45;1408001670832 -->
<g id="edge3" class="edge"><title>1408001669488&#45;&#45;1408001670832</title>
<path fill="none" stroke="black" d="M156.939,-360.411C151.755,-349.414 144.973,-335.027 139.754,-323.956"/>
</g>
<!-- 1408001715216 -->
<g id="node7" class="node"><title>1408001715216</title>
<ellipse fill="black" stroke="black" cx="205.76" cy="-306" rx="2.7" ry="2.7"/>
</g>
<!-- 1408001668336&#45;&#45;1408001715216 -->
<g id="edge5" class="edge"><title>1408001668336&#45;&#45;1408001715216</title>
<path fill="none" stroke="black" d="M256.975,-362.155C240.28,-344.175 213.59,-315.432 207.178,-308.527"/>
</g>
<!-- 1408001714640 -->
<g id="node8" class="node"><title>1408001714640</title>
<ellipse fill="none" stroke="black" cx="272.76" cy="-306" rx="45.7249" ry="18"/>
<text text-anchor="middle" x="272.76" y="-302.5" font-family="Times New Roman,serif" font-size="15.00">Payment</text>
</g>
<!-- 1408001668336&#45;&#45;1408001714640 -->
<g id="edge6" class="edge"><title>1408001668336&#45;&#45;1408001714640</title>
<path fill="none" stroke="black" d="M271.254,-359.697C271.564,-348.846 271.962,-334.917 272.271,-324.104"/>
</g>
<!-- 1408001715792 -->
<g id="node10" class="node"><title>1408001715792</title>
<ellipse fill="black" stroke="black" cx="339.76" cy="-306" rx="2.7" ry="2.7"/>
</g>
<!-- 1408001667376&#45;&#45;1408001715792 -->
<g id="edge8" class="edge"><title>1408001667376&#45;&#45;1408001715792</title>
<path fill="none" stroke="black" d="M342.018,-359.697C341.255,-341.883 340.136,-315.769 339.836,-308.776"/>
</g>
<!-- 1408001714544 -->
<g id="node11" class="node"><title>1408001714544</title>
<ellipse fill="none" stroke="black" cx="413.76" cy="-306" rx="52.6228" ry="18"/>
<text text-anchor="middle" x="413.76" y="-302.5" font-family="Times New Roman,serif" font-size="15.00">Send Fine</text>
</g>
<!-- 1408001667376&#45;&#45;1408001714544 -->
<g id="edge9" class="edge"><title>1408001667376&#45;&#45;1408001714544</title>
<path fill="none" stroke="black" d="M357.471,-362.496C369.088,-351.043 385.29,-335.069 397.33,-323.198"/>
</g>
<!-- 1408001715504 -->
<g id="node13" class="node"><title>1408001715504</title>
<ellipse fill="black" stroke="black" cx="487.76" cy="-306" rx="2.7" ry="2.7"/>
</g>
<!-- 1408001714928&#45;&#45;1408001715504 -->
<g id="edge11" class="edge"><title>1408001714928&#45;&#45;1408001715504</title>
<path fill="none" stroke="black" d="M487.76,-359.697C487.76,-341.883 487.76,-315.769 487.76,-308.776"/>
</g>
<!-- 1408001640768 -->
<g id="node14" class="node"><title>1408001640768</title>
<ellipse fill="none" stroke="black" cx="535.76" cy="-306" rx="27" ry="18"/>
<text text-anchor="middle" x="535.76" y="-302.5" font-family="Times New Roman,serif" font-size="15.00">seq</text>
</g>
<!-- 1408001714928&#45;&#45;1408001640768 -->
<g id="edge25" class="edge"><title>1408001714928&#45;&#45;1408001640768</title>
<path fill="none" stroke="black" d="M498.652,-361.116C506.507,-349.66 517.065,-334.263 524.911,-322.821"/>
</g>
<!-- 1408001639712 -->
<g id="node15" class="node"><title>1408001639712</title>
<ellipse fill="none" stroke="black" cx="382.76" cy="-234" rx="107.914" ry="18"/>
<text text-anchor="middle" x="382.76" y="-230.5" font-family="Times New Roman,serif" font-size="15.00">Insert Fine Notification</text>
</g>
<!-- 1408001640768&#45;&#45;1408001639712 -->
<g id="edge12" class="edge"><title>1408001640768&#45;&#45;1408001639712</title>
<path fill="none" stroke="black" d="M514.163,-295.119C489.122,-283.662 447.492,-264.616 417.801,-251.032"/>
</g>
<!-- 1408001642016 -->
<g id="node16" class="node"><title>1408001642016</title>
<ellipse fill="none" stroke="black" cx="535.76" cy="-234" rx="27" ry="18"/>
<text text-anchor="middle" x="535.76" y="-230.5" font-family="Times New Roman,serif" font-size="15.00">xor</text>
</g>
<!-- 1408001640768&#45;&#45;1408001642016 -->
<g id="edge15" class="edge"><title>1408001640768&#45;&#45;1408001642016</title>
<path fill="none" stroke="black" d="M535.76,-287.697C535.76,-276.846 535.76,-262.917 535.76,-252.104"/>
</g>
<!-- 1408001642400 -->
<g id="node19" class="node"><title>1408001642400</title>
<ellipse fill="none" stroke="black" cx="725.76" cy="-234" rx="27" ry="18"/>
<text text-anchor="middle" x="725.76" y="-230.5" font-family="Times New Roman,serif" font-size="15.00">and</text>
</g>
<!-- 1408001640768&#45;&#45;1408001642400 -->
<g id="edge24" class="edge"><title>1408001640768&#45;&#45;1408001642400</title>
<path fill="none" stroke="black" d="M559.058,-296.417C595.623,-282.945 666.07,-256.991 702.569,-243.544"/>
</g>
<!-- 1408001641920 -->
<g id="node17" class="node"><title>1408001641920</title>
<ellipse fill="black" stroke="black" cx="370.76" cy="-162" rx="2.7" ry="2.7"/>
</g>
<!-- 1408001642016&#45;&#45;1408001641920 -->
<g id="edge13" class="edge"><title>1408001642016&#45;&#45;1408001641920</title>
<path fill="none" stroke="black" d="M513.507,-223.559C472.34,-206.094 387.165,-169.96 372.829,-163.878"/>
</g>
<!-- 1408001641536 -->
<g id="node18" class="node"><title>1408001641536</title>
<ellipse fill="none" stroke="black" cx="535.76" cy="-162" rx="144.571" ry="18"/>
<text text-anchor="middle" x="535.76" y="-158.5" font-family="Times New Roman,serif" font-size="15.00">Insert Date Appeal to Prefecture</text>
</g>
<!-- 1408001642016&#45;&#45;1408001641536 -->
<g id="edge14" class="edge"><title>1408001642016&#45;&#45;1408001641536</title>
<path fill="none" stroke="black" d="M535.76,-215.697C535.76,-204.846 535.76,-190.917 535.76,-180.104"/>
</g>
<!-- 1408001641824 -->
<g id="node20" class="node"><title>1408001641824</title>
<ellipse fill="none" stroke="black" cx="725.76" cy="-162" rx="27" ry="18"/>
<text text-anchor="middle" x="725.76" y="-158.5" font-family="Times New Roman,serif" font-size="15.00">xor</text>
</g>
<!-- 1408001642400&#45;&#45;1408001641824 -->
<g id="edge18" class="edge"><title>1408001642400&#45;&#45;1408001641824</title>
<path fill="none" stroke="black" d="M725.76,-215.697C725.76,-204.846 725.76,-190.917 725.76,-180.104"/>
</g>
<!-- 1408001638752 -->
<g id="node23" class="node"><title>1408001638752</title>
<ellipse fill="none" stroke="black" cx="910.76" cy="-162" rx="27" ry="18"/>
<text text-anchor="middle" x="910.76" y="-158.5" font-family="Times New Roman,serif" font-size="15.00">and</text>
</g>
<!-- 1408001642400&#45;&#45;1408001638752 -->
<g id="edge23" class="edge"><title>1408001642400&#45;&#45;1408001638752</title>
<path fill="none" stroke="black" d="M748.816,-224.276C784.364,-210.825 852.157,-185.174 887.704,-171.724"/>
</g>
<!-- 1408001638704 -->
<g id="node21" class="node"><title>1408001638704</title>
<ellipse fill="black" stroke="black" cx="584.76" cy="-90" rx="2.7" ry="2.7"/>
</g>
<!-- 1408001641824&#45;&#45;1408001638704 -->
<g id="edge16" class="edge"><title>1408001641824&#45;&#45;1408001638704</title>
<path fill="none" stroke="black" d="M704.651,-150.52C669.004,-132.823 599.502,-98.3188 586.784,-92.0047"/>
</g>
<!-- 1408001639664 -->
<g id="node22" class="node"><title>1408001639664</title>
<ellipse fill="none" stroke="black" cx="725.76" cy="-90" rx="120.43" ry="18"/>
<text text-anchor="middle" x="725.76" y="-86.5" font-family="Times New Roman,serif" font-size="15.00">Send Appeal to Prefecture</text>
</g>
<!-- 1408001641824&#45;&#45;1408001639664 -->
<g id="edge17" class="edge"><title>1408001641824&#45;&#45;1408001639664</title>
<path fill="none" stroke="black" d="M725.76,-143.697C725.76,-132.846 725.76,-118.917 725.76,-108.104"/>
</g>
<!-- 1408001638656 -->
<g id="node24" class="node"><title>1408001638656</title>
<ellipse fill="none" stroke="black" cx="910.76" cy="-90" rx="46.6143" ry="18"/>
<text text-anchor="middle" x="910.76" y="-86.5" font-family="Times New Roman,serif" font-size="15.00">xor loop</text>
</g>
<!-- 1408001638752&#45;&#45;1408001638656 -->
<g id="edge21" class="edge"><title>1408001638752&#45;&#45;1408001638656</title>
<path fill="none" stroke="black" d="M910.76,-143.697C910.76,-132.846 910.76,-118.917 910.76,-108.104"/>
</g>
<!-- 1408001639328 -->
<g id="node27" class="node"><title>1408001639328</title>
<ellipse fill="none" stroke="black" cx="1036.76" cy="-90" rx="61.6894" ry="18"/>
<text text-anchor="middle" x="1036.76" y="-86.5" font-family="Times New Roman,serif" font-size="15.00">Add penalty</text>
</g>
<!-- 1408001638752&#45;&#45;1408001639328 -->
<g id="edge22" class="edge"><title>1408001638752&#45;&#45;1408001639328</title>
<path fill="none" stroke="black" d="M931.004,-149.753C952.152,-138.005 985.47,-119.495 1009.05,-106.394"/>
</g>
<!-- 1408001636768 -->
<g id="node25" class="node"><title>1408001636768</title>
<ellipse fill="black" stroke="black" cx="876.76" cy="-18" rx="2.7" ry="2.7"/>
</g>
<!-- 1408001638656&#45;&#45;1408001636768 -->
<g id="edge19" class="edge"><title>1408001638656&#45;&#45;1408001636768</title>
<path fill="none" stroke="black" d="M902.529,-72.055C893.882,-54.2515 881.066,-27.8653 877.632,-20.7963"/>
</g>
<!-- 1408001637008 -->
<g id="node26" class="node"><title>1408001637008</title>
<ellipse fill="none" stroke="black" cx="943.76" cy="-18" rx="45.7249" ry="18"/>
<text text-anchor="middle" x="943.76" y="-14.5" font-family="Times New Roman,serif" font-size="15.00">Payment</text>
</g>
<!-- 1408001638656&#45;&#45;1408001637008 -->
<g id="edge20" class="edge"><title>1408001638656&#45;&#45;1408001637008</title>
<path fill="none" stroke="black" d="M918.748,-72.055C923.937,-61.0492 930.671,-46.7636 935.845,-35.789"/>
</g>
<!-- 1408001640480 -->
<g id="node29" class="node"><title>1408001640480</title>
<ellipse fill="black" stroke="black" cx="583.76" cy="-306" rx="2.7" ry="2.7"/>
</g>
<!-- 1408001714688&#45;&#45;1408001640480 -->
<g id="edge27" class="edge"><title>1408001714688&#45;&#45;1408001640480</title>
<path fill="none" stroke="black" d="M583.76,-359.697C583.76,-341.883 583.76,-315.769 583.76,-308.776"/>
</g>
<!-- 1408001640192 -->
<g id="node30" class="node"><title>1408001640192</title>
<ellipse fill="none" stroke="black" cx="725.76" cy="-306" rx="120.819" ry="18"/>
<text text-anchor="middle" x="725.76" y="-302.5" font-family="Times New Roman,serif" font-size="15.00">Send for Credit Collection</text>
</g>
<!-- 1408001714688&#45;&#45;1408001640192 -->
<g id="edge28" class="edge"><title>1408001714688&#45;&#45;1408001640192</title>
<path fill="none" stroke="black" d="M605.019,-366.52C628.152,-355.116 665.444,-336.733 692.468,-323.412"/>
</g>
</g>
</svg>
