<?xml version="1.0" encoding="UTF-8" standalone="no"?>
<!DOCTYPE svg PUBLIC "-//W3C//DTD SVG 1.1//EN"
 "http://www.w3.org/Graphics/SVG/1.1/DTD/svg11.dtd">
<!-- Generated by graphviz version 2.38.0 (20140413.2041)
 -->
<!-- Title: pt Pages: 1 -->
<svg width="2018pt" height="908pt"
 viewBox="0.00 0.00 2017.61 908.00" xmlns="http://www.w3.org/2000/svg" xmlns:xlink="http://www.w3.org/1999/xlink">
<g id="graph0" class="graph" transform="scale(1 1) rotate(0) translate(4 904)">
<title>pt</title>
<!-- 1408171010560 -->
<g id="node1" class="node"><title>1408171010560</title>
<ellipse fill="none" stroke="black" cx="525.7" cy="-882" rx="27" ry="18"/>
<text text-anchor="middle" x="525.7" y="-878.5" font-family="Times New Roman,serif" font-size="15.00">seq</text>
</g>
<!-- 1408171009408 -->
<g id="node2" class="node"><title>1408171009408</title>
<ellipse fill="none" stroke="black" cx="383.7" cy="-810" rx="59.5207" ry="18"/>
<text text-anchor="middle" x="383.7" y="-806.5" font-family="Times New Roman,serif" font-size="15.00">Create Fine</text>
</g>
<!-- 1408171010560&#45;&#45;1408171009408 -->
<g id="edge1" class="edge"><title>1408171010560&#45;&#45;1408171009408</title>
<path fill="none" stroke="black" d="M504.441,-870.52C480.302,-858.621 440.747,-839.122 413.527,-825.704"/>
</g>
<!-- 1408193307360 -->
<g id="node3" class="node"><title>1408193307360</title>
<ellipse fill="none" stroke="black" cx="488.7" cy="-810" rx="27" ry="18"/>
<text text-anchor="middle" x="488.7" y="-806.5" font-family="Times New Roman,serif" font-size="15.00">xor</text>
</g>
<!-- 1408171010560&#45;&#45;1408193307360 -->
<g id="edge13" class="edge"><title>1408171010560&#45;&#45;1408193307360</title>
<path fill="none" stroke="black" d="M517.118,-864.765C511.141,-853.456 503.202,-838.437 497.235,-827.147"/>
</g>
<!-- 1408193307216 -->
<g id="node15" class="node"><title>1408193307216</title>
<ellipse fill="none" stroke="black" cx="563.7" cy="-810" rx="27" ry="18"/>
<text text-anchor="middle" x="563.7" y="-806.5" font-family="Times New Roman,serif" font-size="15.00">xor</text>
</g>
<!-- 1408171010560&#45;&#45;1408193307216 -->
<g id="edge61" class="edge"><title>1408171010560&#45;&#45;1408193307216</title>
<path fill="none" stroke="black" d="M534.513,-864.765C540.652,-853.456 548.806,-838.437 554.934,-827.147"/>
</g>
<!-- 1408193309040 -->
<g id="node63" class="node"><title>1408193309040</title>
<ellipse fill="none" stroke="black" cx="661.7" cy="-810" rx="27" ry="18"/>
<text text-anchor="middle" x="661.7" y="-806.5" font-family="Times New Roman,serif" font-size="15.00">xor</text>
</g>
<!-- 1408171010560&#45;&#45;1408193309040 -->
<g id="edge64" class="edge"><title>1408171010560&#45;&#45;1408193309040</title>
<path fill="none" stroke="black" d="M546.355,-870.369C571.917,-857.212 615.199,-834.934 640.85,-821.732"/>
</g>
<!-- 1408193309856 -->
<g id="node4" class="node"><title>1408193309856</title>
<ellipse fill="black" stroke="black" cx="433.7" cy="-738" rx="2.7" ry="2.7"/>
</g>
<!-- 1408193307360&#45;&#45;1408193309856 -->
<g id="edge2" class="edge"><title>1408193307360&#45;&#45;1408193309856</title>
<path fill="none" stroke="black" d="M476.766,-793.811C462.612,-775.797 440.255,-747.343 434.887,-740.511"/>
</g>
<!-- 1408193307840 -->
<g id="node5" class="node"><title>1408193307840</title>
<ellipse fill="none" stroke="black" cx="481.7" cy="-738" rx="27" ry="18"/>
<text text-anchor="middle" x="481.7" y="-734.5" font-family="Times New Roman,serif" font-size="15.00">seq</text>
</g>
<!-- 1408193307360&#45;&#45;1408193307840 -->
<g id="edge12" class="edge"><title>1408193307360&#45;&#45;1408193307840</title>
<path fill="none" stroke="black" d="M486.97,-791.697C485.885,-780.846 484.492,-766.917 483.41,-756.104"/>
</g>
<!-- 1408193306928 -->
<g id="node6" class="node"><title>1408193306928</title>
<ellipse fill="none" stroke="black" cx="76.7" cy="-666" rx="27" ry="18"/>
<text text-anchor="middle" x="76.7" y="-662.5" font-family="Times New Roman,serif" font-size="15.00">xor</text>
</g>
<!-- 1408193307840&#45;&#45;1408193306928 -->
<g id="edge5" class="edge"><title>1408193307840&#45;&#45;1408193306928</title>
<path fill="none" stroke="black" d="M455.749,-732.515C382.598,-719.871 175.321,-684.046 102.435,-671.448"/>
</g>
<!-- 1408193308992 -->
<g id="node9" class="node"><title>1408193308992</title>
<ellipse fill="none" stroke="black" cx="315.7" cy="-666" rx="27" ry="18"/>
<text text-anchor="middle" x="315.7" y="-662.5" font-family="Times New Roman,serif" font-size="15.00">xor</text>
</g>
<!-- 1408193307840&#45;&#45;1408193308992 -->
<g id="edge8" class="edge"><title>1408193307840&#45;&#45;1408193308992</title>
<path fill="none" stroke="black" d="M459.313,-727.559C427.542,-714.162 369.719,-689.779 337.997,-676.402"/>
</g>
<!-- 1408193308800 -->
<g id="node12" class="node"><title>1408193308800</title>
<ellipse fill="none" stroke="black" cx="481.7" cy="-666" rx="27" ry="18"/>
<text text-anchor="middle" x="481.7" y="-662.5" font-family="Times New Roman,serif" font-size="15.00">xor</text>
</g>
<!-- 1408193307840&#45;&#45;1408193308800 -->
<g id="edge11" class="edge"><title>1408193307840&#45;&#45;1408193308800</title>
<path fill="none" stroke="black" d="M481.7,-719.697C481.7,-708.846 481.7,-694.917 481.7,-684.104"/>
</g>
<!-- 1408193310672 -->
<g id="node7" class="node"><title>1408193310672</title>
<ellipse fill="black" stroke="black" cx="2.7" cy="-594" rx="2.7" ry="2.7"/>
</g>
<!-- 1408193306928&#45;&#45;1408193310672 -->
<g id="edge3" class="edge"><title>1408193306928&#45;&#45;1408193310672</title>
<path fill="none" stroke="black" d="M61.725,-650.834C42.8049,-632.937 11.8039,-603.612 4.34935,-596.56"/>
</g>
<!-- 1408193306736 -->
<g id="node8" class="node"><title>1408193306736</title>
<ellipse fill="none" stroke="black" cx="76.7" cy="-594" rx="52.6228" ry="18"/>
<text text-anchor="middle" x="76.7" y="-590.5" font-family="Times New Roman,serif" font-size="15.00">Send Fine</text>
</g>
<!-- 1408193306928&#45;&#45;1408193306736 -->
<g id="edge4" class="edge"><title>1408193306928&#45;&#45;1408193306736</title>
<path fill="none" stroke="black" d="M76.7,-647.697C76.7,-636.846 76.7,-622.917 76.7,-612.104"/>
</g>
<!-- 1408193309280 -->
<g id="node10" class="node"><title>1408193309280</title>
<ellipse fill="black" stroke="black" cx="150.7" cy="-594" rx="2.7" ry="2.7"/>
</g>
<!-- 1408193308992&#45;&#45;1408193309280 -->
<g id="edge6" class="edge"><title>1408193308992&#45;&#45;1408193309280</title>
<path fill="none" stroke="black" d="M293.447,-655.559C252.28,-638.094 167.105,-601.96 152.769,-595.878"/>
</g>
<!-- 1408193308464 -->
<g id="node11" class="node"><title>1408193308464</title>
<ellipse fill="none" stroke="black" cx="315.7" cy="-594" rx="144.571" ry="18"/>
<text text-anchor="middle" x="315.7" y="-590.5" font-family="Times New Roman,serif" font-size="15.00">Insert Date Appeal to Prefecture</text>
</g>
<!-- 1408193308992&#45;&#45;1408193308464 -->
<g id="edge7" class="edge"><title>1408193308992&#45;&#45;1408193308464</title>
<path fill="none" stroke="black" d="M315.7,-647.697C315.7,-636.846 315.7,-622.917 315.7,-612.104"/>
</g>
<!-- 1408193307408 -->
<g id="node13" class="node"><title>1408193307408</title>
<ellipse fill="black" stroke="black" cx="480.7" cy="-594" rx="2.7" ry="2.7"/>
</g>
<!-- 1408193308800&#45;&#45;1408193307408 -->
<g id="edge9" class="edge"><title>1408193308800&#45;&#45;1408193307408</title>
<path fill="none" stroke="black" d="M481.453,-647.697C481.198,-629.883 480.825,-603.769 480.725,-596.776"/>
</g>
<!-- 1408193308128 -->
<g id="node14" class="node"><title>1408193308128</title>
<ellipse fill="none" stroke="black" cx="547.7" cy="-594" rx="45.7249" ry="18"/>
<text text-anchor="middle" x="547.7" y="-590.5" font-family="Times New Roman,serif" font-size="15.00">Payment</text>
</g>
<!-- 1408193308800&#45;&#45;1408193308128 -->
<g id="edge10" class="edge"><title>1408193308800&#45;&#45;1408193308128</title>
<path fill="none" stroke="black" d="M495.697,-650.155C506.443,-638.757 521.268,-623.034 532.34,-611.29"/>
</g>
<!-- 1408193308752 -->
<g id="node16" class="node"><title>1408193308752</title>
<ellipse fill="black" stroke="black" cx="563.7" cy="-738" rx="2.7" ry="2.7"/>
</g>
<!-- 1408193307216&#45;&#45;1408193308752 -->
<g id="edge14" class="edge"><title>1408193307216&#45;&#45;1408193308752</title>
<path fill="none" stroke="black" d="M563.7,-791.697C563.7,-773.883 563.7,-747.769 563.7,-740.776"/>
</g>
<!-- 1408193310000 -->
<g id="node17" class="node"><title>1408193310000</title>
<ellipse fill="none" stroke="black" cx="613.7" cy="-738" rx="27" ry="18"/>
<text text-anchor="middle" x="613.7" y="-734.5" font-family="Times New Roman,serif" font-size="15.00">seq</text>
</g>
<!-- 1408193307216&#45;&#45;1408193310000 -->
<g id="edge60" class="edge"><title>1408193307216&#45;&#45;1408193310000</title>
<path fill="none" stroke="black" d="M574.797,-793.465C583.082,-781.865 594.356,-766.082 602.634,-754.492"/>
</g>
<!-- 1408193308416 -->
<g id="node18" class="node"><title>1408193308416</title>
<ellipse fill="none" stroke="black" cx="614.7" cy="-666" rx="27" ry="18"/>
<text text-anchor="middle" x="614.7" y="-662.5" font-family="Times New Roman,serif" font-size="15.00">xor</text>
</g>
<!-- 1408193310000&#45;&#45;1408193308416 -->
<g id="edge56" class="edge"><title>1408193310000&#45;&#45;1408193308416</title>
<path fill="none" stroke="black" d="M613.947,-719.697C614.102,-708.846 614.301,-694.917 614.456,-684.104"/>
</g>
<!-- 1408193307456 -->
<g id="node60" class="node"><title>1408193307456</title>
<ellipse fill="none" stroke="black" cx="748.7" cy="-666" rx="27" ry="18"/>
<text text-anchor="middle" x="748.7" y="-662.5" font-family="Times New Roman,serif" font-size="15.00">xor</text>
</g>
<!-- 1408193310000&#45;&#45;1408193307456 -->
<g id="edge59" class="edge"><title>1408193310000&#45;&#45;1408193307456</title>
<path fill="none" stroke="black" d="M634.498,-726.216C659.941,-713.023 702.747,-690.827 728.1,-677.681"/>
</g>
<!-- 1408193308704 -->
<g id="node19" class="node"><title>1408193308704</title>
<ellipse fill="black" stroke="black" cx="614.7" cy="-594" rx="2.7" ry="2.7"/>
</g>
<!-- 1408193308416&#45;&#45;1408193308704 -->
<g id="edge15" class="edge"><title>1408193308416&#45;&#45;1408193308704</title>
<path fill="none" stroke="black" d="M614.7,-647.697C614.7,-629.883 614.7,-603.769 614.7,-596.776"/>
</g>
<!-- 1408193308896 -->
<g id="node20" class="node"><title>1408193308896</title>
<ellipse fill="none" stroke="black" cx="681.7" cy="-594" rx="46.6143" ry="18"/>
<text text-anchor="middle" x="681.7" y="-590.5" font-family="Times New Roman,serif" font-size="15.00">xor loop</text>
</g>
<!-- 1408193308416&#45;&#45;1408193308896 -->
<g id="edge55" class="edge"><title>1408193308416&#45;&#45;1408193308896</title>
<path fill="none" stroke="black" d="M628.582,-650.496C639.545,-639.043 654.834,-623.069 666.196,-611.198"/>
</g>
<!-- 1408193309184 -->
<g id="node21" class="node"><title>1408193309184</title>
<ellipse fill="none" stroke="black" cx="657.7" cy="-522" rx="27" ry="18"/>
<text text-anchor="middle" x="657.7" y="-518.5" font-family="Times New Roman,serif" font-size="15.00">and</text>
</g>
<!-- 1408193308896&#45;&#45;1408193309184 -->
<g id="edge53" class="edge"><title>1408193308896&#45;&#45;1408193309184</title>
<path fill="none" stroke="black" d="M675.89,-576.055C672.117,-565.049 667.219,-550.764 663.456,-539.789"/>
</g>
<!-- 1408193306688 -->
<g id="node59" class="node"><title>1408193306688</title>
<ellipse fill="black" stroke="black" cx="705.7" cy="-522" rx="2.7" ry="2.7"/>
</g>
<!-- 1408193308896&#45;&#45;1408193306688 -->
<g id="edge54" class="edge"><title>1408193308896&#45;&#45;1408193306688</title>
<path fill="none" stroke="black" d="M687.51,-576.055C693.614,-558.252 702.66,-531.865 705.084,-524.796"/>
</g>
<!-- 1408163180608 -->
<g id="node22" class="node"><title>1408163180608</title>
<ellipse fill="none" stroke="black" cx="592.7" cy="-450" rx="27" ry="18"/>
<text text-anchor="middle" x="592.7" y="-446.5" font-family="Times New Roman,serif" font-size="15.00">xor</text>
</g>
<!-- 1408193309184&#45;&#45;1408163180608 -->
<g id="edge22" class="edge"><title>1408193309184&#45;&#45;1408163180608</title>
<path fill="none" stroke="black" d="M643.915,-506.155C632.884,-494.276 617.49,-477.697 606.465,-465.824"/>
</g>
<!-- 1408193309424 -->
<g id="node29" class="node"><title>1408193309424</title>
<ellipse fill="none" stroke="black" cx="753.7" cy="-450" rx="27" ry="18"/>
<text text-anchor="middle" x="753.7" y="-446.5" font-family="Times New Roman,serif" font-size="15.00">seq</text>
</g>
<!-- 1408193309184&#45;&#45;1408193309424 -->
<g id="edge52" class="edge"><title>1408193309184&#45;&#45;1408193309424</title>
<path fill="none" stroke="black" d="M675.308,-508.161C692.629,-495.531 718.921,-476.36 736.204,-463.758"/>
</g>
<!-- 1408177924320 -->
<g id="node23" class="node"><title>1408177924320</title>
<ellipse fill="black" stroke="black" cx="544.7" cy="-378" rx="2.7" ry="2.7"/>
</g>
<!-- 1408163180608&#45;&#45;1408177924320 -->
<g id="edge16" class="edge"><title>1408163180608&#45;&#45;1408177924320</title>
<path fill="none" stroke="black" d="M581.808,-433.116C569.638,-415.367 550.98,-388.158 545.973,-380.857"/>
</g>
<!-- 1408163184112 -->
<g id="node24" class="node"><title>1408163184112</title>
<ellipse fill="none" stroke="black" cx="592.7" cy="-378" rx="27" ry="18"/>
<text text-anchor="middle" x="592.7" y="-374.5" font-family="Times New Roman,serif" font-size="15.00">and</text>
</g>
<!-- 1408163180608&#45;&#45;1408163184112 -->
<g id="edge21" class="edge"><title>1408163180608&#45;&#45;1408163184112</title>
<path fill="none" stroke="black" d="M592.7,-431.697C592.7,-420.846 592.7,-406.917 592.7,-396.104"/>
</g>
<!-- 1408177924032 -->
<g id="node25" class="node"><title>1408177924032</title>
<ellipse fill="none" stroke="black" cx="466.7" cy="-306" rx="46.6143" ry="18"/>
<text text-anchor="middle" x="466.7" y="-302.5" font-family="Times New Roman,serif" font-size="15.00">xor loop</text>
</g>
<!-- 1408163184112&#45;&#45;1408177924032 -->
<g id="edge19" class="edge"><title>1408163184112&#45;&#45;1408177924032</title>
<path fill="none" stroke="black" d="M572.456,-365.753C550.613,-353.618 515.785,-334.27 492.115,-321.119"/>
</g>
<!-- 1408177923936 -->
<g id="node28" class="node"><title>1408177923936</title>
<ellipse fill="none" stroke="black" cx="592.7" cy="-306" rx="61.6894" ry="18"/>
<text text-anchor="middle" x="592.7" y="-302.5" font-family="Times New Roman,serif" font-size="15.00">Add penalty</text>
</g>
<!-- 1408163184112&#45;&#45;1408177923936 -->
<g id="edge20" class="edge"><title>1408163184112&#45;&#45;1408177923936</title>
<path fill="none" stroke="black" d="M592.7,-359.697C592.7,-348.846 592.7,-334.917 592.7,-324.104"/>
</g>
<!-- 1408177923648 -->
<g id="node26" class="node"><title>1408177923648</title>
<ellipse fill="black" stroke="black" cx="409.7" cy="-234" rx="2.7" ry="2.7"/>
</g>
<!-- 1408177924032&#45;&#45;1408177923648 -->
<g id="edge17" class="edge"><title>1408177924032&#45;&#45;1408177923648</title>
<path fill="none" stroke="black" d="M453.192,-288.411C438.443,-270.299 416.206,-242.99 410.877,-236.446"/>
</g>
<!-- 1408177923168 -->
<g id="node27" class="node"><title>1408177923168</title>
<ellipse fill="none" stroke="black" cx="476.7" cy="-234" rx="45.7249" ry="18"/>
<text text-anchor="middle" x="476.7" y="-230.5" font-family="Times New Roman,serif" font-size="15.00">Payment</text>
</g>
<!-- 1408177924032&#45;&#45;1408177923168 -->
<g id="edge18" class="edge"><title>1408177924032&#45;&#45;1408177923168</title>
<path fill="none" stroke="black" d="M469.172,-287.697C470.722,-276.846 472.712,-262.917 474.257,-252.104"/>
</g>
<!-- 1408163180752 -->
<g id="node30" class="node"><title>1408163180752</title>
<ellipse fill="none" stroke="black" cx="717.7" cy="-378" rx="27" ry="18"/>
<text text-anchor="middle" x="717.7" y="-374.5" font-family="Times New Roman,serif" font-size="15.00">xor</text>
</g>
<!-- 1408193309424&#45;&#45;1408163180752 -->
<g id="edge31" class="edge"><title>1408193309424&#45;&#45;1408163180752</title>
<path fill="none" stroke="black" d="M745.35,-432.765C739.535,-421.456 731.81,-406.437 726.004,-395.147"/>
</g>
<!-- 1408163180896 -->
<g id="node39" class="node"><title>1408163180896</title>
<ellipse fill="none" stroke="black" cx="789.7" cy="-378" rx="27" ry="18"/>
<text text-anchor="middle" x="789.7" y="-374.5" font-family="Times New Roman,serif" font-size="15.00">xor</text>
</g>
<!-- 1408193309424&#45;&#45;1408163180896 -->
<g id="edge34" class="edge"><title>1408193309424&#45;&#45;1408163180896</title>
<path fill="none" stroke="black" d="M762.05,-432.765C767.865,-421.456 775.59,-406.437 781.396,-395.147"/>
</g>
<!-- 1408163181904 -->
<g id="node42" class="node"><title>1408163181904</title>
<ellipse fill="none" stroke="black" cx="1092.7" cy="-378" rx="27" ry="18"/>
<text text-anchor="middle" x="1092.7" y="-374.5" font-family="Times New Roman,serif" font-size="15.00">xor</text>
</g>
<!-- 1408193309424&#45;&#45;1408163181904 -->
<g id="edge51" class="edge"><title>1408193309424&#45;&#45;1408163181904</title>
<path fill="none" stroke="black" d="M779.18,-443.739C842.004,-430.766 1003.79,-397.359 1066.92,-384.322"/>
</g>
<!-- 1408163180992 -->
<g id="node31" class="node"><title>1408163180992</title>
<ellipse fill="black" stroke="black" cx="675.7" cy="-306" rx="2.7" ry="2.7"/>
</g>
<!-- 1408163180752&#45;&#45;1408163180992 -->
<g id="edge23" class="edge"><title>1408163180752&#45;&#45;1408163180992</title>
<path fill="none" stroke="black" d="M708.17,-361.116C697.52,-343.367 681.195,-316.158 676.814,-308.857"/>
</g>
<!-- 1408163181136 -->
<g id="node32" class="node"><title>1408163181136</title>
<ellipse fill="none" stroke="black" cx="723.7" cy="-306" rx="27" ry="18"/>
<text text-anchor="middle" x="723.7" y="-302.5" font-family="Times New Roman,serif" font-size="15.00">and</text>
</g>
<!-- 1408163180752&#45;&#45;1408163181136 -->
<g id="edge30" class="edge"><title>1408163180752&#45;&#45;1408163181136</title>
<path fill="none" stroke="black" d="M719.183,-359.697C720.113,-348.846 721.307,-334.917 722.234,-324.104"/>
</g>
<!-- 1408163181376 -->
<g id="node33" class="node"><title>1408163181376</title>
<ellipse fill="none" stroke="black" cx="576.7" cy="-234" rx="27" ry="18"/>
<text text-anchor="middle" x="576.7" y="-230.5" font-family="Times New Roman,serif" font-size="15.00">xor</text>
</g>
<!-- 1408163181136&#45;&#45;1408163181376 -->
<g id="edge26" class="edge"><title>1408163181136&#45;&#45;1408163181376</title>
<path fill="none" stroke="black" d="M702.325,-294.821C674.455,-281.55 625.984,-258.468 598.101,-245.191"/>
</g>
<!-- 1408163181520 -->
<g id="node36" class="node"><title>1408163181520</title>
<ellipse fill="none" stroke="black" cx="723.7" cy="-234" rx="27" ry="18"/>
<text text-anchor="middle" x="723.7" y="-230.5" font-family="Times New Roman,serif" font-size="15.00">xor</text>
</g>
<!-- 1408163181136&#45;&#45;1408163181520 -->
<g id="edge29" class="edge"><title>1408163181136&#45;&#45;1408163181520</title>
<path fill="none" stroke="black" d="M723.7,-287.697C723.7,-276.846 723.7,-262.917 723.7,-252.104"/>
</g>
<!-- 1408163181616 -->
<g id="node34" class="node"><title>1408163181616</title>
<ellipse fill="black" stroke="black" cx="448.7" cy="-162" rx="2.7" ry="2.7"/>
</g>
<!-- 1408163181376&#45;&#45;1408163181616 -->
<g id="edge24" class="edge"><title>1408163181376&#45;&#45;1408163181616</title>
<path fill="none" stroke="black" d="M556.418,-221.908C523.991,-204.175 462.882,-170.756 450.804,-164.151"/>
</g>
<!-- 1408163181760 -->
<g id="node35" class="node"><title>1408163181760</title>
<ellipse fill="none" stroke="black" cx="576.7" cy="-162" rx="107.914" ry="18"/>
<text text-anchor="middle" x="576.7" y="-158.5" font-family="Times New Roman,serif" font-size="15.00">Insert Fine Notification</text>
</g>
<!-- 1408163181376&#45;&#45;1408163181760 -->
<g id="edge25" class="edge"><title>1408163181376&#45;&#45;1408163181760</title>
<path fill="none" stroke="black" d="M576.7,-215.697C576.7,-204.846 576.7,-190.917 576.7,-180.104"/>
</g>
<!-- 1408163182048 -->
<g id="node37" class="node"><title>1408163182048</title>
<ellipse fill="black" stroke="black" cx="704.7" cy="-162" rx="2.7" ry="2.7"/>
</g>
<!-- 1408163181520&#45;&#45;1408163182048 -->
<g id="edge27" class="edge"><title>1408163181520&#45;&#45;1408163182048</title>
<path fill="none" stroke="black" d="M719.101,-216.055C714.268,-198.252 707.106,-171.865 705.188,-164.796"/>
</g>
<!-- 1408163182192 -->
<g id="node38" class="node"><title>1408163182192</title>
<ellipse fill="none" stroke="black" cx="869.7" cy="-162" rx="144.571" ry="18"/>
<text text-anchor="middle" x="869.7" y="-158.5" font-family="Times New Roman,serif" font-size="15.00">Insert Date Appeal to Prefecture</text>
</g>
<!-- 1408163181520&#45;&#45;1408163182192 -->
<g id="edge28" class="edge"><title>1408163181520&#45;&#45;1408163182192</title>
<path fill="none" stroke="black" d="M744.93,-222.821C768.577,-211.484 807.156,-192.987 835.163,-179.559"/>
</g>
<!-- 1408163182288 -->
<g id="node40" class="node"><title>1408163182288</title>
<ellipse fill="black" stroke="black" cx="777.7" cy="-306" rx="2.7" ry="2.7"/>
</g>
<!-- 1408163180896&#45;&#45;1408163182288 -->
<g id="edge32" class="edge"><title>1408163180896&#45;&#45;1408163182288</title>
<path fill="none" stroke="black" d="M786.795,-360.055C783.743,-342.252 779.22,-315.865 778.008,-308.796"/>
</g>
<!-- 1408163182480 -->
<g id="node41" class="node"><title>1408163182480</title>
<ellipse fill="none" stroke="black" cx="851.7" cy="-306" rx="52.6228" ry="18"/>
<text text-anchor="middle" x="851.7" y="-302.5" font-family="Times New Roman,serif" font-size="15.00">Send Fine</text>
</g>
<!-- 1408163180896&#45;&#45;1408163182480 -->
<g id="edge33" class="edge"><title>1408163180896&#45;&#45;1408163182480</title>
<path fill="none" stroke="black" d="M802.849,-362.155C812.801,-350.918 826.478,-335.476 836.83,-323.789"/>
</g>
<!-- 1408163183008 -->
<g id="node43" class="node"><title>1408163183008</title>
<ellipse fill="black" stroke="black" cx="1092.7" cy="-306" rx="2.7" ry="2.7"/>
</g>
<!-- 1408163181904&#45;&#45;1408163183008 -->
<g id="edge35" class="edge"><title>1408163181904&#45;&#45;1408163183008</title>
<path fill="none" stroke="black" d="M1092.7,-359.697C1092.7,-341.883 1092.7,-315.769 1092.7,-308.776"/>
</g>
<!-- 1408163183248 -->
<g id="node44" class="node"><title>1408163183248</title>
<ellipse fill="none" stroke="black" cx="1218.7" cy="-306" rx="46.6143" ry="18"/>
<text text-anchor="middle" x="1218.7" y="-302.5" font-family="Times New Roman,serif" font-size="15.00">xor loop</text>
</g>
<!-- 1408163181904&#45;&#45;1408163183248 -->
<g id="edge50" class="edge"><title>1408163181904&#45;&#45;1408163183248</title>
<path fill="none" stroke="black" d="M1112.94,-365.753C1134.79,-353.618 1169.61,-334.27 1193.28,-321.119"/>
</g>
<!-- 1408163183392 -->
<g id="node45" class="node"><title>1408163183392</title>
<ellipse fill="none" stroke="black" cx="1218.7" cy="-234" rx="27" ry="18"/>
<text text-anchor="middle" x="1218.7" y="-230.5" font-family="Times New Roman,serif" font-size="15.00">xor</text>
</g>
<!-- 1408163183248&#45;&#45;1408163183392 -->
<g id="edge48" class="edge"><title>1408163183248&#45;&#45;1408163183392</title>
<path fill="none" stroke="black" d="M1218.7,-287.697C1218.7,-276.846 1218.7,-262.917 1218.7,-252.104"/>
</g>
<!-- 1408163183488 -->
<g id="node58" class="node"><title>1408163183488</title>
<ellipse fill="black" stroke="black" cx="1266.7" cy="-234" rx="2.7" ry="2.7"/>
</g>
<!-- 1408163183248&#45;&#45;1408163183488 -->
<g id="edge49" class="edge"><title>1408163183248&#45;&#45;1408163183488</title>
<path fill="none" stroke="black" d="M1230.08,-288.411C1242.27,-270.622 1260.55,-243.962 1265.45,-236.816"/>
</g>
<!-- 1408163183728 -->
<g id="node46" class="node"><title>1408163183728</title>
<ellipse fill="none" stroke="black" cx="1110.7" cy="-162" rx="78.5434" ry="18"/>
<text text-anchor="middle" x="1110.7" y="-158.5" font-family="Times New Roman,serif" font-size="15.00">Appeal to Judge</text>
</g>
<!-- 1408163183392&#45;&#45;1408163183728 -->
<g id="edge36" class="edge"><title>1408163183392&#45;&#45;1408163183728</title>
<path fill="none" stroke="black" d="M1199.89,-220.807C1182.12,-209.291 1155.35,-191.94 1135.77,-179.252"/>
</g>
<!-- 1408163183776 -->
<g id="node47" class="node"><title>1408163183776</title>
<ellipse fill="none" stroke="black" cx="1327.7" cy="-162" rx="120.43" ry="18"/>
<text text-anchor="middle" x="1327.7" y="-158.5" font-family="Times New Roman,serif" font-size="15.00">Send Appeal to Prefecture</text>
</g>
<!-- 1408163183392&#45;&#45;1408163183776 -->
<g id="edge37" class="edge"><title>1408163183392&#45;&#45;1408163183776</title>
<path fill="none" stroke="black" d="M1237.69,-220.807C1255.37,-209.447 1281.9,-192.411 1301.58,-179.772"/>
</g>
<!-- 1408163184016 -->
<g id="node48" class="node"><title>1408163184016</title>
<ellipse fill="none" stroke="black" cx="1492.7" cy="-162" rx="27" ry="18"/>
<text text-anchor="middle" x="1492.7" y="-158.5" font-family="Times New Roman,serif" font-size="15.00">seq</text>
</g>
<!-- 1408163183392&#45;&#45;1408163184016 -->
<g id="edge47" class="edge"><title>1408163183392&#45;&#45;1408163184016</title>
<path fill="none" stroke="black" d="M1243.5,-226.665C1295.53,-213.371 1415.6,-182.697 1467.76,-169.372"/>
</g>
<!-- 1408163184160 -->
<g id="node49" class="node"><title>1408163184160</title>
<ellipse fill="none" stroke="black" cx="1214.7" cy="-90" rx="27" ry="18"/>
<text text-anchor="middle" x="1214.7" y="-86.5" font-family="Times New Roman,serif" font-size="15.00">xor</text>
</g>
<!-- 1408163184016&#45;&#45;1408163184160 -->
<g id="edge40" class="edge"><title>1408163184016&#45;&#45;1408163184160</title>
<path fill="none" stroke="black" d="M1467.54,-154.665C1414.61,-141.337 1292.31,-110.541 1239.6,-97.2707"/>
</g>
<!-- 1408163184400 -->
<g id="node52" class="node"><title>1408163184400</title>
<ellipse fill="none" stroke="black" cx="1492.7" cy="-90" rx="27" ry="18"/>
<text text-anchor="middle" x="1492.7" y="-86.5" font-family="Times New Roman,serif" font-size="15.00">xor</text>
</g>
<!-- 1408163184016&#45;&#45;1408163184400 -->
<g id="edge43" class="edge"><title>1408163184016&#45;&#45;1408163184400</title>
<path fill="none" stroke="black" d="M1492.7,-143.697C1492.7,-132.846 1492.7,-118.917 1492.7,-108.104"/>
</g>
<!-- 1408177924656 -->
<g id="node55" class="node"><title>1408177924656</title>
<ellipse fill="none" stroke="black" cx="1746.7" cy="-90" rx="27" ry="18"/>
<text text-anchor="middle" x="1746.7" y="-86.5" font-family="Times New Roman,serif" font-size="15.00">xor</text>
</g>
<!-- 1408163184016&#45;&#45;1408177924656 -->
<g id="edge46" class="edge"><title>1408163184016&#45;&#45;1408177924656</title>
<path fill="none" stroke="black" d="M1517.52,-154.161C1566.2,-140.744 1673.69,-111.12 1722.16,-97.7641"/>
</g>
<!-- 1408163184496 -->
<g id="node50" class="node"><title>1408163184496</title>
<ellipse fill="black" stroke="black" cx="1020.7" cy="-18" rx="2.7" ry="2.7"/>
</g>
<!-- 1408163184160&#45;&#45;1408163184496 -->
<g id="edge38" class="edge"><title>1408163184160&#45;&#45;1408163184496</title>
<path fill="none" stroke="black" d="M1191.3,-80.5564C1143.73,-63.393 1038.88,-25.5607 1022.79,-19.7542"/>
</g>
<!-- 1408163184544 -->
<g id="node51" class="node"><title>1408163184544</title>
<ellipse fill="none" stroke="black" cx="1214.7" cy="-18" rx="173.941" ry="18"/>
<text text-anchor="middle" x="1214.7" y="-14.5" font-family="Times New Roman,serif" font-size="15.00">Receive Result Appeal from Prefecture</text>
</g>
<!-- 1408163184160&#45;&#45;1408163184544 -->
<g id="edge39" class="edge"><title>1408163184160&#45;&#45;1408163184544</title>
<path fill="none" stroke="black" d="M1214.7,-71.6966C1214.7,-60.8463 1214.7,-46.9167 1214.7,-36.1043"/>
</g>
<!-- 1408177925952 -->
<g id="node53" class="node"><title>1408177925952</title>
<ellipse fill="black" stroke="black" cx="1408.7" cy="-18" rx="2.7" ry="2.7"/>
</g>
<!-- 1408163184400&#45;&#45;1408177925952 -->
<g id="edge41" class="edge"><title>1408163184400&#45;&#45;1408177925952</title>
<path fill="none" stroke="black" d="M1476.5,-75.5033C1455.15,-57.7048 1419.25,-27.7933 1410.61,-20.5936"/>
</g>
<!-- 1408177925856 -->
<g id="node54" class="node"><title>1408177925856</title>
<ellipse fill="none" stroke="black" cx="1577.7" cy="-18" rx="148.91" ry="18"/>
<text text-anchor="middle" x="1577.7" y="-14.5" font-family="Times New Roman,serif" font-size="15.00">Notify Result Appeal to Offender</text>
</g>
<!-- 1408163184400&#45;&#45;1408177925856 -->
<g id="edge42" class="edge"><title>1408163184400&#45;&#45;1408177925856</title>
<path fill="none" stroke="black" d="M1509.09,-75.5033C1522.79,-64.2203 1542.4,-48.0695 1557.15,-35.9227"/>
</g>
<!-- 1408177925184 -->
<g id="node56" class="node"><title>1408177925184</title>
<ellipse fill="black" stroke="black" cx="1746.7" cy="-18" rx="2.7" ry="2.7"/>
</g>
<!-- 1408177924656&#45;&#45;1408177925184 -->
<g id="edge44" class="edge"><title>1408177924656&#45;&#45;1408177925184</title>
<path fill="none" stroke="black" d="M1746.7,-71.6966C1746.7,-53.8826 1746.7,-27.7686 1746.7,-20.7764"/>
</g>
<!-- 1408177924512 -->
<g id="node57" class="node"><title>1408177924512</title>
<ellipse fill="none" stroke="black" cx="1888.7" cy="-18" rx="120.819" ry="18"/>
<text text-anchor="middle" x="1888.7" y="-14.5" font-family="Times New Roman,serif" font-size="15.00">Send for Credit Collection</text>
</g>
<!-- 1408177924656&#45;&#45;1408177924512 -->
<g id="edge45" class="edge"><title>1408177924656&#45;&#45;1408177924512</title>
<path fill="none" stroke="black" d="M1767.96,-78.5203C1791.09,-67.1164 1828.38,-48.7333 1855.41,-35.4115"/>
</g>
<!-- 1408177922880 -->
<g id="node61" class="node"><title>1408177922880</title>
<ellipse fill="black" stroke="black" cx="748.7" cy="-594" rx="2.7" ry="2.7"/>
</g>
<!-- 1408193307456&#45;&#45;1408177922880 -->
<g id="edge57" class="edge"><title>1408193307456&#45;&#45;1408177922880</title>
<path fill="none" stroke="black" d="M748.7,-647.697C748.7,-629.883 748.7,-603.769 748.7,-596.776"/>
</g>
<!-- 1408177922304 -->
<g id="node62" class="node"><title>1408177922304</title>
<ellipse fill="none" stroke="black" cx="815.7" cy="-594" rx="45.7249" ry="18"/>
<text text-anchor="middle" x="815.7" y="-590.5" font-family="Times New Roman,serif" font-size="15.00">Payment</text>
</g>
<!-- 1408193307456&#45;&#45;1408177922304 -->
<g id="edge58" class="edge"><title>1408193307456&#45;&#45;1408177922304</title>
<path fill="none" stroke="black" d="M762.582,-650.496C773.545,-639.043 788.834,-623.069 800.196,-611.198"/>
</g>
<!-- 1408177925280 -->
<g id="node64" class="node"><title>1408177925280</title>
<ellipse fill="black" stroke="black" cx="661.7" cy="-738" rx="2.7" ry="2.7"/>
</g>
<!-- 1408193309040&#45;&#45;1408177925280 -->
<g id="edge62" class="edge"><title>1408193309040&#45;&#45;1408177925280</title>
<path fill="none" stroke="black" d="M661.7,-791.697C661.7,-773.883 661.7,-747.769 661.7,-740.776"/>
</g>
<!-- 1408177922112 -->
<g id="node65" class="node"><title>1408177922112</title>
<ellipse fill="none" stroke="black" cx="803.7" cy="-738" rx="120.819" ry="18"/>
<text text-anchor="middle" x="803.7" y="-734.5" font-family="Times New Roman,serif" font-size="15.00">Send for Credit Collection</text>
</g>
<!-- 1408193309040&#45;&#45;1408177922112 -->
<g id="edge63" class="edge"><title>1408193309040&#45;&#45;1408177922112</title>
<path fill="none" stroke="black" d="M682.959,-798.52C706.092,-787.116 743.384,-768.733 770.408,-755.412"/>
</g>
</g>
</svg>
