<?xml version="1.0" encoding="UTF-8" standalone="no"?>
<!DOCTYPE svg PUBLIC "-//W3C//DTD SVG 1.1//EN"
 "http://www.w3.org/Graphics/SVG/1.1/DTD/svg11.dtd">
<!-- Generated by graphviz version 2.38.0 (20140413.2041)
 -->
<!-- Title: pt Pages: 1 -->
<svg width="1300pt" height="836pt"
 viewBox="0.00 0.00 1299.58 836.00" xmlns="http://www.w3.org/2000/svg" xmlns:xlink="http://www.w3.org/1999/xlink">
<g id="graph0" class="graph" transform="scale(1 1) rotate(0) translate(4 832)">
<title>pt</title>
<!-- 1408177031536 -->
<g id="node1" class="node"><title>1408177031536</title>
<ellipse fill="none" stroke="black" cx="644.862" cy="-810" rx="27" ry="18"/>
<text text-anchor="middle" x="644.862" y="-806.5" font-family="Times New Roman,serif" font-size="15.00">seq</text>
</g>
<!-- 1408177031824 -->
<g id="node2" class="node"><title>1408177031824</title>
<ellipse fill="none" stroke="black" cx="603.862" cy="-738" rx="27" ry="18"/>
<text text-anchor="middle" x="603.862" y="-734.5" font-family="Times New Roman,serif" font-size="15.00">seq</text>
</g>
<!-- 1408177031536&#45;&#45;1408177031824 -->
<g id="edge45" class="edge"><title>1408177031536&#45;&#45;1408177031824</title>
<path fill="none" stroke="black" d="M635.353,-792.765C628.729,-781.456 619.932,-766.437 613.32,-755.147"/>
</g>
<!-- 1408177030048 -->
<g id="node47" class="node"><title>1408177030048</title>
<ellipse fill="none" stroke="black" cx="686.862" cy="-738" rx="27" ry="18"/>
<text text-anchor="middle" x="686.862" y="-734.5" font-family="Times New Roman,serif" font-size="15.00">xor</text>
</g>
<!-- 1408177031536&#45;&#45;1408177030048 -->
<g id="edge52" class="edge"><title>1408177031536&#45;&#45;1408177030048</title>
<path fill="none" stroke="black" d="M654.393,-793.116C661.169,-781.821 670.245,-766.696 677.078,-755.307"/>
</g>
<!-- 1408177032880 -->
<g id="node3" class="node"><title>1408177032880</title>
<ellipse fill="none" stroke="black" cx="479.862" cy="-666" rx="59.5207" ry="18"/>
<text text-anchor="middle" x="479.862" y="-662.5" font-family="Times New Roman,serif" font-size="15.00">Create Fine</text>
</g>
<!-- 1408177031824&#45;&#45;1408177032880 -->
<g id="edge1" class="edge"><title>1408177031824&#45;&#45;1408177032880</title>
<path fill="none" stroke="black" d="M583.939,-725.753C562.99,-713.927 529.906,-695.251 506.675,-682.136"/>
</g>
<!-- 1408177029904 -->
<g id="node4" class="node"><title>1408177029904</title>
<ellipse fill="none" stroke="black" cx="603.862" cy="-666" rx="46.6143" ry="18"/>
<text text-anchor="middle" x="603.862" y="-662.5" font-family="Times New Roman,serif" font-size="15.00">xor loop</text>
</g>
<!-- 1408177031824&#45;&#45;1408177029904 -->
<g id="edge44" class="edge"><title>1408177031824&#45;&#45;1408177029904</title>
<path fill="none" stroke="black" d="M603.862,-719.697C603.862,-708.846 603.862,-694.917 603.862,-684.104"/>
</g>
<!-- 1408177029520 -->
<g id="node5" class="node"><title>1408177029520</title>
<ellipse fill="none" stroke="black" cx="555.862" cy="-594" rx="27" ry="18"/>
<text text-anchor="middle" x="555.862" y="-590.5" font-family="Times New Roman,serif" font-size="15.00">seq</text>
</g>
<!-- 1408177029904&#45;&#45;1408177029520 -->
<g id="edge42" class="edge"><title>1408177029904&#45;&#45;1408177029520</title>
<path fill="none" stroke="black" d="M592.487,-648.411C584.724,-637.091 574.499,-622.178 566.826,-610.988"/>
</g>
<!-- 1408177029664 -->
<g id="node46" class="node"><title>1408177029664</title>
<ellipse fill="black" stroke="black" cx="603.862" cy="-594" rx="2.7" ry="2.7"/>
</g>
<!-- 1408177029904&#45;&#45;1408177029664 -->
<g id="edge43" class="edge"><title>1408177029904&#45;&#45;1408177029664</title>
<path fill="none" stroke="black" d="M603.862,-647.697C603.862,-629.883 603.862,-603.769 603.862,-596.776"/>
</g>
<!-- 1408177029328 -->
<g id="node6" class="node"><title>1408177029328</title>
<ellipse fill="none" stroke="black" cx="442.862" cy="-522" rx="27" ry="18"/>
<text text-anchor="middle" x="442.862" y="-518.5" font-family="Times New Roman,serif" font-size="15.00">xor</text>
</g>
<!-- 1408177029520&#45;&#45;1408177029328 -->
<g id="edge17" class="edge"><title>1408177029520&#45;&#45;1408177029328</title>
<path fill="none" stroke="black" d="M536.693,-581.125C515.914,-568.253 482.941,-547.828 462.125,-534.933"/>
</g>
<!-- 1408177029184 -->
<g id="node22" class="node"><title>1408177029184</title>
<ellipse fill="none" stroke="black" cx="555.862" cy="-522" rx="27" ry="18"/>
<text text-anchor="middle" x="555.862" y="-518.5" font-family="Times New Roman,serif" font-size="15.00">xor</text>
</g>
<!-- 1408177029520&#45;&#45;1408177029184 -->
<g id="edge20" class="edge"><title>1408177029520&#45;&#45;1408177029184</title>
<path fill="none" stroke="black" d="M555.862,-575.697C555.862,-564.846 555.862,-550.917 555.862,-540.104"/>
</g>
<!-- 1408165280208 -->
<g id="node25" class="node"><title>1408165280208</title>
<ellipse fill="none" stroke="black" cx="707.862" cy="-522" rx="27" ry="18"/>
<text text-anchor="middle" x="707.862" y="-518.5" font-family="Times New Roman,serif" font-size="15.00">xor</text>
</g>
<!-- 1408177029520&#45;&#45;1408165280208 -->
<g id="edge41" class="edge"><title>1408177029520&#45;&#45;1408165280208</title>
<path fill="none" stroke="black" d="M577.64,-582.971C606.535,-569.664 657.25,-546.308 686.125,-533.011"/>
</g>
<!-- 1408165280496 -->
<g id="node7" class="node"><title>1408165280496</title>
<ellipse fill="black" stroke="black" cx="375.862" cy="-450" rx="2.7" ry="2.7"/>
</g>
<!-- 1408177029328&#45;&#45;1408165280496 -->
<g id="edge2" class="edge"><title>1408177029328&#45;&#45;1408165280496</title>
<path fill="none" stroke="black" d="M428.98,-506.496C411.808,-488.555 384.019,-459.522 377.34,-452.544"/>
</g>
<!-- 1408165280592 -->
<g id="node8" class="node"><title>1408165280592</title>
<ellipse fill="none" stroke="black" cx="442.862" cy="-450" rx="46.6143" ry="18"/>
<text text-anchor="middle" x="442.862" y="-446.5" font-family="Times New Roman,serif" font-size="15.00">xor loop</text>
</g>
<!-- 1408177029328&#45;&#45;1408165280592 -->
<g id="edge16" class="edge"><title>1408177029328&#45;&#45;1408165280592</title>
<path fill="none" stroke="black" d="M442.862,-503.697C442.862,-492.846 442.862,-478.917 442.862,-468.104"/>
</g>
<!-- 1408165280688 -->
<g id="node9" class="node"><title>1408165280688</title>
<ellipse fill="none" stroke="black" cx="418.862" cy="-378" rx="27" ry="18"/>
<text text-anchor="middle" x="418.862" y="-374.5" font-family="Times New Roman,serif" font-size="15.00">seq</text>
</g>
<!-- 1408165280592&#45;&#45;1408165280688 -->
<g id="edge14" class="edge"><title>1408165280592&#45;&#45;1408165280688</title>
<path fill="none" stroke="black" d="M437.053,-432.055C433.279,-421.049 428.381,-406.764 424.618,-395.789"/>
</g>
<!-- 1408165281024 -->
<g id="node21" class="node"><title>1408165281024</title>
<ellipse fill="black" stroke="black" cx="466.862" cy="-378" rx="2.7" ry="2.7"/>
</g>
<!-- 1408165280592&#45;&#45;1408165281024 -->
<g id="edge15" class="edge"><title>1408165280592&#45;&#45;1408165281024</title>
<path fill="none" stroke="black" d="M448.672,-432.055C454.776,-414.252 463.823,-387.865 466.246,-380.796"/>
</g>
<!-- 1408165280784 -->
<g id="node10" class="node"><title>1408165280784</title>
<ellipse fill="none" stroke="black" cx="335.862" cy="-306" rx="27" ry="18"/>
<text text-anchor="middle" x="335.862" y="-302.5" font-family="Times New Roman,serif" font-size="15.00">xor</text>
</g>
<!-- 1408165280688&#45;&#45;1408165280784 -->
<g id="edge10" class="edge"><title>1408165280688&#45;&#45;1408165280784</title>
<path fill="none" stroke="black" d="M402.464,-363.17C387.819,-350.819 366.492,-332.832 351.944,-320.563"/>
</g>
<!-- 1408165280736 -->
<g id="node18" class="node"><title>1408165280736</title>
<ellipse fill="none" stroke="black" cx="491.862" cy="-306" rx="27" ry="18"/>
<text text-anchor="middle" x="491.862" y="-302.5" font-family="Times New Roman,serif" font-size="15.00">xor</text>
</g>
<!-- 1408165280688&#45;&#45;1408165280736 -->
<g id="edge13" class="edge"><title>1408165280688&#45;&#45;1408165280736</title>
<path fill="none" stroke="black" d="M433.635,-362.834C446.3,-350.69 464.453,-333.283 477.112,-321.144"/>
</g>
<!-- 1408165281744 -->
<g id="node11" class="node"><title>1408165281744</title>
<ellipse fill="none" stroke="black" cx="45.8622" cy="-234" rx="45.7249" ry="18"/>
<text text-anchor="middle" x="45.8622" y="-230.5" font-family="Times New Roman,serif" font-size="15.00">Payment</text>
</g>
<!-- 1408165280784&#45;&#45;1408165281744 -->
<g id="edge3" class="edge"><title>1408165280784&#45;&#45;1408165281744</title>
<path fill="none" stroke="black" d="M310.886,-298.971C260.052,-286.701 144.285,-258.757 83.9808,-244.201"/>
</g>
<!-- 1408165280544 -->
<g id="node12" class="node"><title>1408165280544</title>
<ellipse fill="none" stroke="black" cx="253.862" cy="-234" rx="144.571" ry="18"/>
<text text-anchor="middle" x="253.862" y="-230.5" font-family="Times New Roman,serif" font-size="15.00">Insert Date Appeal to Prefecture</text>
</g>
<!-- 1408165280784&#45;&#45;1408165280544 -->
<g id="edge4" class="edge"><title>1408165280784&#45;&#45;1408165280544</title>
<path fill="none" stroke="black" d="M319.662,-291.17C306.499,-279.934 287.875,-264.036 273.799,-252.019"/>
</g>
<!-- 1408165281408 -->
<g id="node13" class="node"><title>1408165281408</title>
<ellipse fill="none" stroke="black" cx="443.862" cy="-234" rx="27" ry="18"/>
<text text-anchor="middle" x="443.862" y="-230.5" font-family="Times New Roman,serif" font-size="15.00">seq</text>
</g>
<!-- 1408165280784&#45;&#45;1408165281408 -->
<g id="edge9" class="edge"><title>1408165280784&#45;&#45;1408165281408</title>
<path fill="none" stroke="black" d="M354.674,-292.807C374.497,-279.959 405.525,-259.848 425.266,-247.053"/>
</g>
<!-- 1408165281120 -->
<g id="node14" class="node"><title>1408165281120</title>
<ellipse fill="none" stroke="black" cx="378.862" cy="-162" rx="52.6228" ry="18"/>
<text text-anchor="middle" x="378.862" y="-158.5" font-family="Times New Roman,serif" font-size="15.00">Send Fine</text>
</g>
<!-- 1408165281408&#45;&#45;1408165281120 -->
<g id="edge5" class="edge"><title>1408165281408&#45;&#45;1408165281120</title>
<path fill="none" stroke="black" d="M430.077,-218.155C419.494,-206.757 404.894,-191.034 393.989,-179.29"/>
</g>
<!-- 1408165280352 -->
<g id="node15" class="node"><title>1408165280352</title>
<ellipse fill="none" stroke="black" cx="476.862" cy="-162" rx="27" ry="18"/>
<text text-anchor="middle" x="476.862" y="-158.5" font-family="Times New Roman,serif" font-size="15.00">xor</text>
</g>
<!-- 1408165281408&#45;&#45;1408165280352 -->
<g id="edge8" class="edge"><title>1408165281408&#45;&#45;1408165280352</title>
<path fill="none" stroke="black" d="M451.683,-216.411C456.943,-205.252 463.849,-190.604 469.098,-179.47"/>
</g>
<!-- 1408165280880 -->
<g id="node16" class="node"><title>1408165280880</title>
<ellipse fill="black" stroke="black" cx="444.862" cy="-90" rx="2.7" ry="2.7"/>
</g>
<!-- 1408165280352&#45;&#45;1408165280880 -->
<g id="edge6" class="edge"><title>1408165280352&#45;&#45;1408165280880</title>
<path fill="none" stroke="black" d="M469.279,-144.411C461.147,-126.622 448.959,-99.9625 445.693,-92.8163"/>
</g>
<!-- 1408165280160 -->
<g id="node17" class="node"><title>1408165280160</title>
<ellipse fill="none" stroke="black" cx="585.862" cy="-90" rx="120.43" ry="18"/>
<text text-anchor="middle" x="585.862" y="-86.5" font-family="Times New Roman,serif" font-size="15.00">Send Appeal to Prefecture</text>
</g>
<!-- 1408165280352&#45;&#45;1408165280160 -->
<g id="edge7" class="edge"><title>1408165280352&#45;&#45;1408165280160</title>
<path fill="none" stroke="black" d="M495.849,-148.807C513.537,-137.447 540.066,-120.411 559.745,-107.772"/>
</g>
<!-- 1408165280016 -->
<g id="node19" class="node"><title>1408165280016</title>
<ellipse fill="black" stroke="black" cx="491.862" cy="-234" rx="2.7" ry="2.7"/>
</g>
<!-- 1408165280736&#45;&#45;1408165280016 -->
<g id="edge11" class="edge"><title>1408165280736&#45;&#45;1408165280016</title>
<path fill="none" stroke="black" d="M491.862,-287.697C491.862,-269.883 491.862,-243.769 491.862,-236.776"/>
</g>
<!-- 1408165279536 -->
<g id="node20" class="node"><title>1408165279536</title>
<ellipse fill="none" stroke="black" cx="619.862" cy="-234" rx="107.914" ry="18"/>
<text text-anchor="middle" x="619.862" y="-230.5" font-family="Times New Roman,serif" font-size="15.00">Insert Fine Notification</text>
</g>
<!-- 1408165280736&#45;&#45;1408165279536 -->
<g id="edge12" class="edge"><title>1408165280736&#45;&#45;1408165279536</title>
<path fill="none" stroke="black" d="M512.144,-293.908C533.01,-282.497 565.752,-264.591 589.665,-251.514"/>
</g>
<!-- 1408165280304 -->
<g id="node23" class="node"><title>1408165280304</title>
<ellipse fill="black" stroke="black" cx="509.862" cy="-450" rx="2.7" ry="2.7"/>
</g>
<!-- 1408177029184&#45;&#45;1408165280304 -->
<g id="edge18" class="edge"><title>1408177029184&#45;&#45;1408165280304</title>
<path fill="none" stroke="black" d="M545.424,-505.116C533.761,-487.367 515.88,-460.158 511.082,-452.857"/>
</g>
<!-- 1408165281360 -->
<g id="node24" class="node"><title>1408165281360</title>
<ellipse fill="none" stroke="black" cx="608.862" cy="-450" rx="78.5434" ry="18"/>
<text text-anchor="middle" x="608.862" y="-446.5" font-family="Times New Roman,serif" font-size="15.00">Appeal to Judge</text>
</g>
<!-- 1408177029184&#45;&#45;1408165281360 -->
<g id="edge19" class="edge"><title>1408177029184&#45;&#45;1408165281360</title>
<path fill="none" stroke="black" d="M567.625,-505.465C576.042,-494.348 587.367,-479.39 596.02,-467.962"/>
</g>
<!-- 1408165280256 -->
<g id="node26" class="node"><title>1408165280256</title>
<ellipse fill="black" stroke="black" cx="707.862" cy="-450" rx="2.7" ry="2.7"/>
</g>
<!-- 1408165280208&#45;&#45;1408165280256 -->
<g id="edge21" class="edge"><title>1408165280208&#45;&#45;1408165280256</title>
<path fill="none" stroke="black" d="M707.862,-503.697C707.862,-485.883 707.862,-459.769 707.862,-452.776"/>
</g>
<!-- 1408165281648 -->
<g id="node27" class="node"><title>1408165281648</title>
<ellipse fill="none" stroke="black" cx="755.862" cy="-450" rx="27" ry="18"/>
<text text-anchor="middle" x="755.862" y="-446.5" font-family="Times New Roman,serif" font-size="15.00">and</text>
</g>
<!-- 1408165280208&#45;&#45;1408165281648 -->
<g id="edge40" class="edge"><title>1408165280208&#45;&#45;1408165281648</title>
<path fill="none" stroke="black" d="M718.754,-505.116C726.61,-493.66 737.168,-478.263 745.013,-466.821"/>
</g>
<!-- 1408165281600 -->
<g id="node28" class="node"><title>1408165281600</title>
<ellipse fill="none" stroke="black" cx="714.862" cy="-378" rx="27" ry="18"/>
<text text-anchor="middle" x="714.862" y="-374.5" font-family="Times New Roman,serif" font-size="15.00">xor</text>
</g>
<!-- 1408165281648&#45;&#45;1408165281600 -->
<g id="edge24" class="edge"><title>1408165281648&#45;&#45;1408165281600</title>
<path fill="none" stroke="black" d="M746.353,-432.765C739.729,-421.456 730.932,-406.437 724.32,-395.147"/>
</g>
<!-- 1408165281264 -->
<g id="node31" class="node"><title>1408165281264</title>
<ellipse fill="none" stroke="black" cx="797.862" cy="-378" rx="27" ry="18"/>
<text text-anchor="middle" x="797.862" y="-374.5" font-family="Times New Roman,serif" font-size="15.00">xor</text>
</g>
<!-- 1408165281648&#45;&#45;1408165281264 -->
<g id="edge39" class="edge"><title>1408165281648&#45;&#45;1408165281264</title>
<path fill="none" stroke="black" d="M765.393,-433.116C772.169,-421.821 781.245,-406.696 788.078,-395.307"/>
</g>
<!-- 1408165281312 -->
<g id="node29" class="node"><title>1408165281312</title>
<ellipse fill="black" stroke="black" cx="631.862" cy="-306" rx="2.7" ry="2.7"/>
</g>
<!-- 1408165281600&#45;&#45;1408165281312 -->
<g id="edge22" class="edge"><title>1408165281600&#45;&#45;1408165281312</title>
<path fill="none" stroke="black" d="M698.464,-363.17C677.299,-345.32 642.181,-315.702 633.732,-308.577"/>
</g>
<!-- 1408165278912 -->
<g id="node30" class="node"><title>1408165278912</title>
<ellipse fill="none" stroke="black" cx="714.862" cy="-306" rx="61.6894" ry="18"/>
<text text-anchor="middle" x="714.862" y="-302.5" font-family="Times New Roman,serif" font-size="15.00">Add penalty</text>
</g>
<!-- 1408165281600&#45;&#45;1408165278912 -->
<g id="edge23" class="edge"><title>1408165281600&#45;&#45;1408165278912</title>
<path fill="none" stroke="black" d="M714.862,-359.697C714.862,-348.846 714.862,-334.917 714.862,-324.104"/>
</g>
<!-- 1408165278816 -->
<g id="node32" class="node"><title>1408165278816</title>
<ellipse fill="black" stroke="black" cx="797.862" cy="-306" rx="2.7" ry="2.7"/>
</g>
<!-- 1408165281264&#45;&#45;1408165278816 -->
<g id="edge25" class="edge"><title>1408165281264&#45;&#45;1408165278816</title>
<path fill="none" stroke="black" d="M797.862,-359.697C797.862,-341.883 797.862,-315.769 797.862,-308.776"/>
</g>
<!-- 1408165278720 -->
<g id="node33" class="node"><title>1408165278720</title>
<ellipse fill="none" stroke="black" cx="845.862" cy="-306" rx="27" ry="18"/>
<text text-anchor="middle" x="845.862" y="-302.5" font-family="Times New Roman,serif" font-size="15.00">seq</text>
</g>
<!-- 1408165281264&#45;&#45;1408165278720 -->
<g id="edge38" class="edge"><title>1408165281264&#45;&#45;1408165278720</title>
<path fill="none" stroke="black" d="M808.754,-361.116C816.61,-349.66 827.168,-334.263 835.013,-322.821"/>
</g>
<!-- 1408165278384 -->
<g id="node34" class="node"><title>1408165278384</title>
<ellipse fill="none" stroke="black" cx="809.862" cy="-234" rx="27" ry="18"/>
<text text-anchor="middle" x="809.862" y="-230.5" font-family="Times New Roman,serif" font-size="15.00">xor</text>
</g>
<!-- 1408165278720&#45;&#45;1408165278384 -->
<g id="edge34" class="edge"><title>1408165278720&#45;&#45;1408165278384</title>
<path fill="none" stroke="black" d="M837.513,-288.765C831.697,-277.456 823.973,-262.437 818.167,-251.147"/>
</g>
<!-- 1408165278432 -->
<g id="node43" class="node"><title>1408165278432</title>
<ellipse fill="none" stroke="black" cx="881.862" cy="-234" rx="27" ry="18"/>
<text text-anchor="middle" x="881.862" y="-230.5" font-family="Times New Roman,serif" font-size="15.00">xor</text>
</g>
<!-- 1408165278720&#45;&#45;1408165278432 -->
<g id="edge37" class="edge"><title>1408165278720&#45;&#45;1408165278432</title>
<path fill="none" stroke="black" d="M854.212,-288.765C860.028,-277.456 867.752,-262.437 873.558,-251.147"/>
</g>
<!-- 1408165278480 -->
<g id="node35" class="node"><title>1408165278480</title>
<ellipse fill="black" stroke="black" cx="767.862" cy="-162" rx="2.7" ry="2.7"/>
</g>
<!-- 1408165278384&#45;&#45;1408165278480 -->
<g id="edge26" class="edge"><title>1408165278384&#45;&#45;1408165278480</title>
<path fill="none" stroke="black" d="M800.332,-217.116C789.683,-199.367 773.357,-172.158 768.976,-164.857"/>
</g>
<!-- 1408165278096 -->
<g id="node36" class="node"><title>1408165278096</title>
<ellipse fill="none" stroke="black" cx="815.862" cy="-162" rx="27" ry="18"/>
<text text-anchor="middle" x="815.862" y="-158.5" font-family="Times New Roman,serif" font-size="15.00">and</text>
</g>
<!-- 1408165278384&#45;&#45;1408165278096 -->
<g id="edge33" class="edge"><title>1408165278384&#45;&#45;1408165278096</title>
<path fill="none" stroke="black" d="M811.345,-215.697C812.275,-204.846 813.469,-190.917 814.396,-180.104"/>
</g>
<!-- 1408165278240 -->
<g id="node37" class="node"><title>1408165278240</title>
<ellipse fill="none" stroke="black" cx="782.862" cy="-90" rx="27" ry="18"/>
<text text-anchor="middle" x="782.862" y="-86.5" font-family="Times New Roman,serif" font-size="15.00">xor</text>
</g>
<!-- 1408165278096&#45;&#45;1408165278240 -->
<g id="edge29" class="edge"><title>1408165278096&#45;&#45;1408165278240</title>
<path fill="none" stroke="black" d="M808.042,-144.411C802.781,-133.252 795.875,-118.604 790.627,-107.47"/>
</g>
<!-- 1408165277856 -->
<g id="node40" class="node"><title>1408165277856</title>
<ellipse fill="none" stroke="black" cx="923.862" cy="-90" rx="27" ry="18"/>
<text text-anchor="middle" x="923.862" y="-86.5" font-family="Times New Roman,serif" font-size="15.00">xor</text>
</g>
<!-- 1408165278096&#45;&#45;1408165277856 -->
<g id="edge32" class="edge"><title>1408165278096&#45;&#45;1408165277856</title>
<path fill="none" stroke="black" d="M834.674,-148.807C854.497,-135.959 885.525,-115.848 905.266,-103.053"/>
</g>
<!-- 1408165277760 -->
<g id="node38" class="node"><title>1408165277760</title>
<ellipse fill="black" stroke="black" cx="641.862" cy="-18" rx="2.7" ry="2.7"/>
</g>
<!-- 1408165278240&#45;&#45;1408165277760 -->
<g id="edge27" class="edge"><title>1408165278240&#45;&#45;1408165277760</title>
<path fill="none" stroke="black" d="M761.753,-78.5203C726.106,-60.8234 656.604,-26.3188 643.886,-20.0047"/>
</g>
<!-- 1407997995136 -->
<g id="node39" class="node"><title>1407997995136</title>
<ellipse fill="none" stroke="black" cx="782.862" cy="-18" rx="120.43" ry="18"/>
<text text-anchor="middle" x="782.862" y="-14.5" font-family="Times New Roman,serif" font-size="15.00">Send Appeal to Prefecture</text>
</g>
<!-- 1408165278240&#45;&#45;1407997995136 -->
<g id="edge28" class="edge"><title>1408165278240&#45;&#45;1407997995136</title>
<path fill="none" stroke="black" d="M782.862,-71.6966C782.862,-60.8463 782.862,-46.9167 782.862,-36.1043"/>
</g>
<!-- 1407997993264 -->
<g id="node41" class="node"><title>1407997993264</title>
<ellipse fill="black" stroke="black" cx="923.862" cy="-18" rx="2.7" ry="2.7"/>
</g>
<!-- 1408165277856&#45;&#45;1407997993264 -->
<g id="edge30" class="edge"><title>1408165277856&#45;&#45;1407997993264</title>
<path fill="none" stroke="black" d="M923.862,-71.6966C923.862,-53.8826 923.862,-27.7686 923.862,-20.7764"/>
</g>
<!-- 1407997996000 -->
<g id="node42" class="node"><title>1407997996000</title>
<ellipse fill="none" stroke="black" cx="1117.86" cy="-18" rx="173.941" ry="18"/>
<text text-anchor="middle" x="1117.86" y="-14.5" font-family="Times New Roman,serif" font-size="15.00">Receive Result Appeal from Prefecture</text>
</g>
<!-- 1408165277856&#45;&#45;1407997996000 -->
<g id="edge31" class="edge"><title>1408165277856&#45;&#45;1407997996000</title>
<path fill="none" stroke="black" d="M947.263,-80.5564C978.101,-69.4293 1033.01,-49.615 1072.21,-35.472"/>
</g>
<!-- 1408165278528 -->
<g id="node44" class="node"><title>1408165278528</title>
<ellipse fill="black" stroke="black" cx="875.862" cy="-162" rx="2.7" ry="2.7"/>
</g>
<!-- 1408165278432&#45;&#45;1408165278528 -->
<g id="edge35" class="edge"><title>1408165278432&#45;&#45;1408165278528</title>
<path fill="none" stroke="black" d="M880.379,-215.697C878.852,-197.883 876.614,-171.769 876.014,-164.776"/>
</g>
<!-- 1408165278576 -->
<g id="node45" class="node"><title>1408165278576</title>
<ellipse fill="none" stroke="black" cx="1044.86" cy="-162" rx="148.91" ry="18"/>
<text text-anchor="middle" x="1044.86" y="-158.5" font-family="Times New Roman,serif" font-size="15.00">Notify Result Appeal to Offender</text>
</g>
<!-- 1408165278432&#45;&#45;1408165278576 -->
<g id="edge36" class="edge"><title>1408165278432&#45;&#45;1408165278576</title>
<path fill="none" stroke="black" d="M904.185,-223.414C930.516,-212.106 974.729,-193.119 1006.57,-179.446"/>
</g>
<!-- 1408165278336 -->
<g id="node48" class="node"><title>1408165278336</title>
<ellipse fill="black" stroke="black" cx="686.862" cy="-666" rx="2.7" ry="2.7"/>
</g>
<!-- 1408177030048&#45;&#45;1408165278336 -->
<g id="edge46" class="edge"><title>1408177030048&#45;&#45;1408165278336</title>
<path fill="none" stroke="black" d="M686.862,-719.697C686.862,-701.883 686.862,-675.769 686.862,-668.776"/>
</g>
<!-- 1408165280640 -->
<g id="node49" class="node"><title>1408165280640</title>
<ellipse fill="none" stroke="black" cx="745.862" cy="-666" rx="27" ry="18"/>
<text text-anchor="middle" x="745.862" y="-662.5" font-family="Times New Roman,serif" font-size="15.00">seq</text>
</g>
<!-- 1408177030048&#45;&#45;1408165280640 -->
<g id="edge51" class="edge"><title>1408177030048&#45;&#45;1408165280640</title>
<path fill="none" stroke="black" d="M699.664,-721.811C709.561,-710.07 723.195,-693.893 733.085,-682.159"/>
</g>
<!-- 1408165281504 -->
<g id="node50" class="node"><title>1408165281504</title>
<ellipse fill="none" stroke="black" cx="745.862" cy="-594" rx="120.819" ry="18"/>
<text text-anchor="middle" x="745.862" y="-590.5" font-family="Times New Roman,serif" font-size="15.00">Send for Credit Collection</text>
</g>
<!-- 1408165280640&#45;&#45;1408165281504 -->
<g id="edge47" class="edge"><title>1408165280640&#45;&#45;1408165281504</title>
<path fill="none" stroke="black" d="M745.862,-647.697C745.862,-636.846 745.862,-622.917 745.862,-612.104"/>
</g>
<!-- 1408165279104 -->
<g id="node51" class="node"><title>1408165279104</title>
<ellipse fill="none" stroke="black" cx="911.862" cy="-594" rx="27" ry="18"/>
<text text-anchor="middle" x="911.862" y="-590.5" font-family="Times New Roman,serif" font-size="15.00">xor</text>
</g>
<!-- 1408165280640&#45;&#45;1408165279104 -->
<g id="edge50" class="edge"><title>1408165280640&#45;&#45;1408165279104</title>
<path fill="none" stroke="black" d="M768.25,-655.559C800.02,-642.162 857.844,-617.779 889.565,-604.402"/>
</g>
<!-- 1407997993024 -->
<g id="node52" class="node"><title>1407997993024</title>
<ellipse fill="black" stroke="black" cx="812.862" cy="-522" rx="2.7" ry="2.7"/>
</g>
<!-- 1408165279104&#45;&#45;1407997993024 -->
<g id="edge48" class="edge"><title>1408165279104&#45;&#45;1407997993024</title>
<path fill="none" stroke="black" d="M893.704,-580.161C868.25,-562.163 824.011,-530.883 814.638,-524.256"/>
</g>
<!-- 1408165277904 -->
<g id="node53" class="node"><title>1408165277904</title>
<ellipse fill="none" stroke="black" cx="953.862" cy="-522" rx="120.43" ry="18"/>
<text text-anchor="middle" x="953.862" y="-518.5" font-family="Times New Roman,serif" font-size="15.00">Send Appeal to Prefecture</text>
</g>
<!-- 1408165279104&#45;&#45;1408165277904 -->
<g id="edge49" class="edge"><title>1408165279104&#45;&#45;1408165277904</title>
<path fill="none" stroke="black" d="M921.393,-577.116C927.976,-566.144 936.728,-551.557 943.487,-540.292"/>
</g>
</g>
</svg>
