<?xml version="1.0" encoding="UTF-8" standalone="no"?>
<!DOCTYPE svg PUBLIC "-//W3C//DTD SVG 1.1//EN"
 "http://www.w3.org/Graphics/SVG/1.1/DTD/svg11.dtd">
<!-- Generated by graphviz version 2.38.0 (20140413.2041)
 -->
<!-- Title: pt Pages: 1 -->
<svg width="1693pt" height="1052pt"
 viewBox="0.00 0.00 1693.28 1052.00" xmlns="http://www.w3.org/2000/svg" xmlns:xlink="http://www.w3.org/1999/xlink">
<g id="graph0" class="graph" transform="scale(1 1) rotate(0) translate(4 1048)">
<title>pt</title>
<!-- 1408194565696 -->
<g id="node1" class="node"><title>1408194565696</title>
<ellipse fill="none" stroke="black" cx="377.76" cy="-1026" rx="27" ry="18"/>
<text text-anchor="middle" x="377.76" y="-1022.5" font-family="Times New Roman,serif" font-size="15.00">seq</text>
</g>
<!-- 1408194565984 -->
<g id="node2" class="node"><title>1408194565984</title>
<ellipse fill="none" stroke="black" cx="59.7599" cy="-954" rx="59.5207" ry="18"/>
<text text-anchor="middle" x="59.7599" y="-950.5" font-family="Times New Roman,serif" font-size="15.00">Create Fine</text>
</g>
<!-- 1408194565696&#45;&#45;1408194565984 -->
<g id="edge1" class="edge"><title>1408194565696&#45;&#45;1408194565984</title>
<path fill="none" stroke="black" d="M352.541,-1019.45C299.289,-1007.73 174.679,-980.297 106.449,-965.277"/>
</g>
<!-- 1408176560736 -->
<g id="node3" class="node"><title>1408176560736</title>
<ellipse fill="none" stroke="black" cx="164.76" cy="-954" rx="27" ry="18"/>
<text text-anchor="middle" x="164.76" y="-950.5" font-family="Times New Roman,serif" font-size="15.00">xor</text>
</g>
<!-- 1408194565696&#45;&#45;1408176560736 -->
<g id="edge4" class="edge"><title>1408194565696&#45;&#45;1408176560736</title>
<path fill="none" stroke="black" d="M354.151,-1017.24C313.208,-1003.79 229.491,-976.273 188.474,-962.793"/>
</g>
<!-- 1408194564976 -->
<g id="node6" class="node"><title>1408194564976</title>
<ellipse fill="none" stroke="black" cx="270.76" cy="-954" rx="27" ry="18"/>
<text text-anchor="middle" x="270.76" y="-950.5" font-family="Times New Roman,serif" font-size="15.00">xor</text>
</g>
<!-- 1408194565696&#45;&#45;1408194564976 -->
<g id="edge7" class="edge"><title>1408194565696&#45;&#45;1408194564976</title>
<path fill="none" stroke="black" d="M359.122,-1012.81C339.603,-1000.04 309.117,-980.093 289.543,-967.288"/>
</g>
<!-- 1408176561024 -->
<g id="node9" class="node"><title>1408176561024</title>
<ellipse fill="none" stroke="black" cx="377.76" cy="-954" rx="27" ry="18"/>
<text text-anchor="middle" x="377.76" y="-950.5" font-family="Times New Roman,serif" font-size="15.00">xor</text>
</g>
<!-- 1408194565696&#45;&#45;1408176561024 -->
<g id="edge10" class="edge"><title>1408194565696&#45;&#45;1408176561024</title>
<path fill="none" stroke="black" d="M377.76,-1007.7C377.76,-996.846 377.76,-982.917 377.76,-972.104"/>
</g>
<!-- 1408176558432 -->
<g id="node12" class="node"><title>1408176558432</title>
<ellipse fill="none" stroke="black" cx="485.76" cy="-954" rx="27" ry="18"/>
<text text-anchor="middle" x="485.76" y="-950.5" font-family="Times New Roman,serif" font-size="15.00">xor</text>
</g>
<!-- 1408194565696&#45;&#45;1408176558432 -->
<g id="edge13" class="edge"><title>1408194565696&#45;&#45;1408176558432</title>
<path fill="none" stroke="black" d="M396.572,-1012.81C416.395,-999.959 447.422,-979.848 467.163,-967.053"/>
</g>
<!-- 1408176560832 -->
<g id="node15" class="node"><title>1408176560832</title>
<ellipse fill="none" stroke="black" cx="619.76" cy="-954" rx="27" ry="18"/>
<text text-anchor="middle" x="619.76" y="-950.5" font-family="Times New Roman,serif" font-size="15.00">xor</text>
</g>
<!-- 1408194565696&#45;&#45;1408176560832 -->
<g id="edge65" class="edge"><title>1408194565696&#45;&#45;1408176560832</title>
<path fill="none" stroke="black" d="M402.296,-1017.9C448.799,-1004.45 549.245,-975.397 595.519,-962.012"/>
</g>
<!-- 1408192613776 -->
<g id="node67" class="node"><title>1408192613776</title>
<ellipse fill="none" stroke="black" cx="715.76" cy="-954" rx="27" ry="18"/>
<text text-anchor="middle" x="715.76" y="-950.5" font-family="Times New Roman,serif" font-size="15.00">xor</text>
</g>
<!-- 1408194565696&#45;&#45;1408192613776 -->
<g id="edge68" class="edge"><title>1408194565696&#45;&#45;1408192613776</title>
<path fill="none" stroke="black" d="M403.165,-1019.74C465.804,-1006.77 627.113,-973.359 690.06,-960.322"/>
</g>
<!-- 1408176560160 -->
<g id="node4" class="node"><title>1408176560160</title>
<ellipse fill="black" stroke="black" cx="55.7599" cy="-882" rx="2.7" ry="2.7"/>
</g>
<!-- 1408176560736&#45;&#45;1408176560160 -->
<g id="edge2" class="edge"><title>1408176560736&#45;&#45;1408176560160</title>
<path fill="none" stroke="black" d="M145.774,-940.807C117.716,-922.788 67.4162,-890.486 57.4885,-884.11"/>
</g>
<!-- 1408176558528 -->
<g id="node5" class="node"><title>1408176558528</title>
<ellipse fill="none" stroke="black" cx="129.76" cy="-882" rx="52.6228" ry="18"/>
<text text-anchor="middle" x="129.76" y="-878.5" font-family="Times New Roman,serif" font-size="15.00">Send Fine</text>
</g>
<!-- 1408176560736&#45;&#45;1408176558528 -->
<g id="edge3" class="edge"><title>1408176560736&#45;&#45;1408176558528</title>
<path fill="none" stroke="black" d="M156.642,-936.765C151.149,-925.779 143.906,-911.292 138.322,-900.124"/>
</g>
<!-- 1408176561216 -->
<g id="node7" class="node"><title>1408176561216</title>
<ellipse fill="black" stroke="black" cx="203.76" cy="-882" rx="2.7" ry="2.7"/>
</g>
<!-- 1408194564976&#45;&#45;1408176561216 -->
<g id="edge5" class="edge"><title>1408194564976&#45;&#45;1408176561216</title>
<path fill="none" stroke="black" d="M256.877,-938.496C239.706,-920.555 211.916,-891.522 205.237,-884.544"/>
</g>
<!-- 1408176560640 -->
<g id="node8" class="node"><title>1408176560640</title>
<ellipse fill="none" stroke="black" cx="270.76" cy="-882" rx="45.7249" ry="18"/>
<text text-anchor="middle" x="270.76" y="-878.5" font-family="Times New Roman,serif" font-size="15.00">Payment</text>
</g>
<!-- 1408194564976&#45;&#45;1408176560640 -->
<g id="edge6" class="edge"><title>1408194564976&#45;&#45;1408176560640</title>
<path fill="none" stroke="black" d="M270.76,-935.697C270.76,-924.846 270.76,-910.917 270.76,-900.104"/>
</g>
<!-- 1408176559104 -->
<g id="node10" class="node"><title>1408176559104</title>
<ellipse fill="black" stroke="black" cx="337.76" cy="-882" rx="2.7" ry="2.7"/>
</g>
<!-- 1408176561024&#45;&#45;1408176559104 -->
<g id="edge8" class="edge"><title>1408176561024&#45;&#45;1408176559104</title>
<path fill="none" stroke="black" d="M368.483,-936.765C358.328,-918.994 342.937,-892.06 338.809,-884.836"/>
</g>
<!-- 1408205994064 -->
<g id="node11" class="node"><title>1408205994064</title>
<ellipse fill="none" stroke="black" cx="411.76" cy="-882" rx="52.6228" ry="18"/>
<text text-anchor="middle" x="411.76" y="-878.5" font-family="Times New Roman,serif" font-size="15.00">Send Fine</text>
</g>
<!-- 1408176561024&#45;&#45;1408205994064 -->
<g id="edge9" class="edge"><title>1408176561024&#45;&#45;1408205994064</title>
<path fill="none" stroke="black" d="M385.646,-936.765C390.981,-925.779 398.018,-911.292 403.443,-900.124"/>
</g>
<!-- 1408192612192 -->
<g id="node13" class="node"><title>1408192612192</title>
<ellipse fill="black" stroke="black" cx="485.76" cy="-882" rx="2.7" ry="2.7"/>
</g>
<!-- 1408176558432&#45;&#45;1408192612192 -->
<g id="edge11" class="edge"><title>1408176558432&#45;&#45;1408192612192</title>
<path fill="none" stroke="black" d="M485.76,-935.697C485.76,-917.883 485.76,-891.769 485.76,-884.776"/>
</g>
<!-- 1408192614016 -->
<g id="node14" class="node"><title>1408192614016</title>
<ellipse fill="none" stroke="black" cx="552.76" cy="-882" rx="45.7249" ry="18"/>
<text text-anchor="middle" x="552.76" y="-878.5" font-family="Times New Roman,serif" font-size="15.00">Payment</text>
</g>
<!-- 1408176558432&#45;&#45;1408192614016 -->
<g id="edge12" class="edge"><title>1408176558432&#45;&#45;1408192614016</title>
<path fill="none" stroke="black" d="M499.642,-938.496C510.605,-927.043 525.894,-911.069 537.256,-899.198"/>
</g>
<!-- 1408192614256 -->
<g id="node16" class="node"><title>1408192614256</title>
<ellipse fill="black" stroke="black" cx="619.76" cy="-882" rx="2.7" ry="2.7"/>
</g>
<!-- 1408176560832&#45;&#45;1408192614256 -->
<g id="edge14" class="edge"><title>1408176560832&#45;&#45;1408192614256</title>
<path fill="none" stroke="black" d="M619.76,-935.697C619.76,-917.883 619.76,-891.769 619.76,-884.776"/>
</g>
<!-- 1408192613680 -->
<g id="node17" class="node"><title>1408192613680</title>
<ellipse fill="none" stroke="black" cx="667.76" cy="-882" rx="27" ry="18"/>
<text text-anchor="middle" x="667.76" y="-878.5" font-family="Times New Roman,serif" font-size="15.00">seq</text>
</g>
<!-- 1408176560832&#45;&#45;1408192613680 -->
<g id="edge64" class="edge"><title>1408176560832&#45;&#45;1408192613680</title>
<path fill="none" stroke="black" d="M630.652,-937.116C638.507,-925.66 649.065,-910.263 656.911,-898.821"/>
</g>
<!-- 1408192611952 -->
<g id="node18" class="node"><title>1408192611952</title>
<ellipse fill="none" stroke="black" cx="558.76" cy="-810" rx="27" ry="18"/>
<text text-anchor="middle" x="558.76" y="-806.5" font-family="Times New Roman,serif" font-size="15.00">xor</text>
</g>
<!-- 1408192613680&#45;&#45;1408192611952 -->
<g id="edge22" class="edge"><title>1408192613680&#45;&#45;1408192611952</title>
<path fill="none" stroke="black" d="M648.774,-868.807C628.767,-855.959 597.452,-835.848 577.529,-823.053"/>
</g>
<!-- 1408192611664 -->
<g id="node26" class="node"><title>1408192611664</title>
<ellipse fill="none" stroke="black" cx="667.76" cy="-810" rx="27" ry="18"/>
<text text-anchor="middle" x="667.76" y="-806.5" font-family="Times New Roman,serif" font-size="15.00">xor</text>
</g>
<!-- 1408192613680&#45;&#45;1408192611664 -->
<g id="edge25" class="edge"><title>1408192613680&#45;&#45;1408192611664</title>
<path fill="none" stroke="black" d="M667.76,-863.697C667.76,-852.846 667.76,-838.917 667.76,-828.104"/>
</g>
<!-- 1408192611904 -->
<g id="node29" class="node"><title>1408192611904</title>
<ellipse fill="none" stroke="black" cx="804.76" cy="-810" rx="27" ry="18"/>
<text text-anchor="middle" x="804.76" y="-806.5" font-family="Times New Roman,serif" font-size="15.00">xor</text>
</g>
<!-- 1408192613680&#45;&#45;1408192611904 -->
<g id="edge63" class="edge"><title>1408192613680&#45;&#45;1408192611904</title>
<path fill="none" stroke="black" d="M688.567,-870.369C714.317,-857.212 757.917,-834.934 783.757,-821.732"/>
</g>
<!-- 1408192611712 -->
<g id="node19" class="node"><title>1408192611712</title>
<ellipse fill="black" stroke="black" cx="510.76" cy="-738" rx="2.7" ry="2.7"/>
</g>
<!-- 1408192611952&#45;&#45;1408192611712 -->
<g id="edge15" class="edge"><title>1408192611952&#45;&#45;1408192611712</title>
<path fill="none" stroke="black" d="M547.868,-793.116C535.697,-775.367 517.04,-748.158 512.033,-740.857"/>
</g>
<!-- 1408192612048 -->
<g id="node20" class="node"><title>1408192612048</title>
<ellipse fill="none" stroke="black" cx="558.76" cy="-738" rx="27" ry="18"/>
<text text-anchor="middle" x="558.76" y="-734.5" font-family="Times New Roman,serif" font-size="15.00">seq</text>
</g>
<!-- 1408192611952&#45;&#45;1408192612048 -->
<g id="edge21" class="edge"><title>1408192611952&#45;&#45;1408192612048</title>
<path fill="none" stroke="black" d="M558.76,-791.697C558.76,-780.846 558.76,-766.917 558.76,-756.104"/>
</g>
<!-- 1408192610992 -->
<g id="node21" class="node"><title>1408192610992</title>
<ellipse fill="none" stroke="black" cx="413.76" cy="-666" rx="27" ry="18"/>
<text text-anchor="middle" x="413.76" y="-662.5" font-family="Times New Roman,serif" font-size="15.00">xor</text>
</g>
<!-- 1408192612048&#45;&#45;1408192610992 -->
<g id="edge19" class="edge"><title>1408192612048&#45;&#45;1408192610992</title>
<path fill="none" stroke="black" d="M537.365,-726.671C509.95,-713.437 462.7,-690.626 435.243,-677.371"/>
</g>
<!-- 1408192612432 -->
<g id="node25" class="node"><title>1408192612432</title>
<ellipse fill="none" stroke="black" cx="566.76" cy="-666" rx="107.914" ry="18"/>
<text text-anchor="middle" x="566.76" y="-662.5" font-family="Times New Roman,serif" font-size="15.00">Insert Fine Notification</text>
</g>
<!-- 1408192612048&#45;&#45;1408192612432 -->
<g id="edge20" class="edge"><title>1408192612048&#45;&#45;1408192612432</title>
<path fill="none" stroke="black" d="M560.737,-719.697C561.977,-708.846 563.569,-694.917 564.805,-684.104"/>
</g>
<!-- 1408192611376 -->
<g id="node22" class="node"><title>1408192611376</title>
<ellipse fill="black" stroke="black" cx="339.76" cy="-594" rx="2.7" ry="2.7"/>
</g>
<!-- 1408192610992&#45;&#45;1408192611376 -->
<g id="edge16" class="edge"><title>1408192610992&#45;&#45;1408192611376</title>
<path fill="none" stroke="black" d="M398.785,-650.834C379.865,-632.937 348.864,-603.612 341.409,-596.56"/>
</g>
<!-- 1408192613008 -->
<g id="node23" class="node"><title>1408192613008</title>
<ellipse fill="none" stroke="black" cx="413.76" cy="-594" rx="52.6228" ry="18"/>
<text text-anchor="middle" x="413.76" y="-590.5" font-family="Times New Roman,serif" font-size="15.00">Send Fine</text>
</g>
<!-- 1408192610992&#45;&#45;1408192613008 -->
<g id="edge17" class="edge"><title>1408192610992&#45;&#45;1408192613008</title>
<path fill="none" stroke="black" d="M413.76,-647.697C413.76,-636.846 413.76,-622.917 413.76,-612.104"/>
</g>
<!-- 1408192611808 -->
<g id="node24" class="node"><title>1408192611808</title>
<ellipse fill="none" stroke="black" cx="628.76" cy="-594" rx="144.571" ry="18"/>
<text text-anchor="middle" x="628.76" y="-590.5" font-family="Times New Roman,serif" font-size="15.00">Insert Date Appeal to Prefecture</text>
</g>
<!-- 1408192610992&#45;&#45;1408192611808 -->
<g id="edge18" class="edge"><title>1408192610992&#45;&#45;1408192611808</title>
<path fill="none" stroke="black" d="M437.59,-657.241C471.702,-646.135 535.228,-625.452 579.654,-610.988"/>
</g>
<!-- 1408192610368 -->
<g id="node27" class="node"><title>1408192610368</title>
<ellipse fill="black" stroke="black" cx="606.76" cy="-738" rx="2.7" ry="2.7"/>
</g>
<!-- 1408192611664&#45;&#45;1408192610368 -->
<g id="edge23" class="edge"><title>1408192611664&#45;&#45;1408192610368</title>
<path fill="none" stroke="black" d="M654.823,-794.155C639.156,-776.175 614.108,-747.432 608.091,-740.527"/>
</g>
<!-- 1408192613968 -->
<g id="node28" class="node"><title>1408192613968</title>
<ellipse fill="none" stroke="black" cx="705.76" cy="-738" rx="78.5434" ry="18"/>
<text text-anchor="middle" x="705.76" y="-734.5" font-family="Times New Roman,serif" font-size="15.00">Appeal to Judge</text>
</g>
<!-- 1408192611664&#45;&#45;1408192613968 -->
<g id="edge24" class="edge"><title>1408192611664&#45;&#45;1408192613968</title>
<path fill="none" stroke="black" d="M676.573,-792.765C682.537,-781.779 690.401,-767.292 696.464,-756.124"/>
</g>
<!-- 1408192610656 -->
<g id="node30" class="node"><title>1408192610656</title>
<ellipse fill="black" stroke="black" cx="804.76" cy="-738" rx="2.7" ry="2.7"/>
</g>
<!-- 1408192611904&#45;&#45;1408192610656 -->
<g id="edge26" class="edge"><title>1408192611904&#45;&#45;1408192610656</title>
<path fill="none" stroke="black" d="M804.76,-791.697C804.76,-773.883 804.76,-747.769 804.76,-740.776"/>
</g>
<!-- 1408192612288 -->
<g id="node31" class="node"><title>1408192612288</title>
<ellipse fill="none" stroke="black" cx="871.76" cy="-738" rx="46.6143" ry="18"/>
<text text-anchor="middle" x="871.76" y="-734.5" font-family="Times New Roman,serif" font-size="15.00">xor loop</text>
</g>
<!-- 1408192611904&#45;&#45;1408192612288 -->
<g id="edge62" class="edge"><title>1408192611904&#45;&#45;1408192612288</title>
<path fill="none" stroke="black" d="M818.642,-794.496C829.605,-783.043 844.894,-767.069 856.256,-755.198"/>
</g>
<!-- 1408192610512 -->
<g id="node32" class="node"><title>1408192610512</title>
<ellipse fill="none" stroke="black" cx="841.76" cy="-666" rx="46.6143" ry="18"/>
<text text-anchor="middle" x="841.76" y="-662.5" font-family="Times New Roman,serif" font-size="15.00">xor loop</text>
</g>
<!-- 1408192612288&#45;&#45;1408192610512 -->
<g id="edge60" class="edge"><title>1408192612288&#45;&#45;1408192610512</title>
<path fill="none" stroke="black" d="M864.498,-720.055C859.781,-709.049 853.659,-694.764 848.955,-683.789"/>
</g>
<!-- 1408192612960 -->
<g id="node66" class="node"><title>1408192612960</title>
<ellipse fill="black" stroke="black" cx="908.76" cy="-666" rx="2.7" ry="2.7"/>
</g>
<!-- 1408192612288&#45;&#45;1408192612960 -->
<g id="edge61" class="edge"><title>1408192612288&#45;&#45;1408192612960</title>
<path fill="none" stroke="black" d="M880.717,-720.055C890.127,-702.252 904.074,-675.865 907.81,-668.796"/>
</g>
<!-- 1408192613152 -->
<g id="node33" class="node"><title>1408192613152</title>
<ellipse fill="none" stroke="black" cx="826.76" cy="-594" rx="27" ry="18"/>
<text text-anchor="middle" x="826.76" y="-590.5" font-family="Times New Roman,serif" font-size="15.00">and</text>
</g>
<!-- 1408192610512&#45;&#45;1408192613152 -->
<g id="edge58" class="edge"><title>1408192610512&#45;&#45;1408192613152</title>
<path fill="none" stroke="black" d="M838.052,-647.697C835.727,-636.846 832.742,-622.917 830.425,-612.104"/>
</g>
<!-- 1408192613728 -->
<g id="node65" class="node"><title>1408192613728</title>
<ellipse fill="black" stroke="black" cx="874.76" cy="-594" rx="2.7" ry="2.7"/>
</g>
<!-- 1408192610512&#45;&#45;1408192613728 -->
<g id="edge59" class="edge"><title>1408192610512&#45;&#45;1408192613728</title>
<path fill="none" stroke="black" d="M849.748,-648.055C858.141,-630.252 870.581,-603.865 873.913,-596.796"/>
</g>
<!-- 1408192610560 -->
<g id="node34" class="node"><title>1408192610560</title>
<ellipse fill="none" stroke="black" cx="702.76" cy="-522" rx="27" ry="18"/>
<text text-anchor="middle" x="702.76" y="-518.5" font-family="Times New Roman,serif" font-size="15.00">xor</text>
</g>
<!-- 1408192613152&#45;&#45;1408192610560 -->
<g id="edge33" class="edge"><title>1408192613152&#45;&#45;1408192610560</title>
<path fill="none" stroke="black" d="M806.837,-581.753C783.697,-568.691 745.752,-547.27 722.633,-534.219"/>
</g>
<!-- 1408192614352 -->
<g id="node41" class="node"><title>1408192614352</title>
<ellipse fill="none" stroke="black" cx="867.76" cy="-522" rx="27" ry="18"/>
<text text-anchor="middle" x="867.76" y="-518.5" font-family="Times New Roman,serif" font-size="15.00">seq</text>
</g>
<!-- 1408192613152&#45;&#45;1408192614352 -->
<g id="edge57" class="edge"><title>1408192613152&#45;&#45;1408192614352</title>
<path fill="none" stroke="black" d="M836.269,-576.765C842.893,-565.456 851.69,-550.437 858.302,-539.147"/>
</g>
<!-- 1408194640624 -->
<g id="node35" class="node"><title>1408194640624</title>
<ellipse fill="black" stroke="black" cx="654.76" cy="-450" rx="2.7" ry="2.7"/>
</g>
<!-- 1408192610560&#45;&#45;1408194640624 -->
<g id="edge27" class="edge"><title>1408192610560&#45;&#45;1408194640624</title>
<path fill="none" stroke="black" d="M691.868,-505.116C679.697,-487.367 661.04,-460.158 656.033,-452.857"/>
</g>
<!-- 1408194637984 -->
<g id="node36" class="node"><title>1408194637984</title>
<ellipse fill="none" stroke="black" cx="702.76" cy="-450" rx="27" ry="18"/>
<text text-anchor="middle" x="702.76" y="-446.5" font-family="Times New Roman,serif" font-size="15.00">and</text>
</g>
<!-- 1408192610560&#45;&#45;1408194637984 -->
<g id="edge32" class="edge"><title>1408192610560&#45;&#45;1408194637984</title>
<path fill="none" stroke="black" d="M702.76,-503.697C702.76,-492.846 702.76,-478.917 702.76,-468.104"/>
</g>
<!-- 1408194638368 -->
<g id="node37" class="node"><title>1408194638368</title>
<ellipse fill="none" stroke="black" cx="576.76" cy="-378" rx="46.6143" ry="18"/>
<text text-anchor="middle" x="576.76" y="-374.5" font-family="Times New Roman,serif" font-size="15.00">xor loop</text>
</g>
<!-- 1408194637984&#45;&#45;1408194638368 -->
<g id="edge30" class="edge"><title>1408194637984&#45;&#45;1408194638368</title>
<path fill="none" stroke="black" d="M682.516,-437.753C660.672,-425.618 625.845,-406.27 602.175,-393.119"/>
</g>
<!-- 1408194640912 -->
<g id="node40" class="node"><title>1408194640912</title>
<ellipse fill="none" stroke="black" cx="702.76" cy="-378" rx="61.6894" ry="18"/>
<text text-anchor="middle" x="702.76" y="-374.5" font-family="Times New Roman,serif" font-size="15.00">Add penalty</text>
</g>
<!-- 1408194637984&#45;&#45;1408194640912 -->
<g id="edge31" class="edge"><title>1408194637984&#45;&#45;1408194640912</title>
<path fill="none" stroke="black" d="M702.76,-431.697C702.76,-420.846 702.76,-406.917 702.76,-396.104"/>
</g>
<!-- 1408194640720 -->
<g id="node38" class="node"><title>1408194640720</title>
<ellipse fill="black" stroke="black" cx="543.76" cy="-306" rx="2.7" ry="2.7"/>
</g>
<!-- 1408194638368&#45;&#45;1408194640720 -->
<g id="edge28" class="edge"><title>1408194638368&#45;&#45;1408194640720</title>
<path fill="none" stroke="black" d="M568.771,-360.055C560.378,-342.252 547.939,-315.865 544.607,-308.796"/>
</g>
<!-- 1408194641056 -->
<g id="node39" class="node"><title>1408194641056</title>
<ellipse fill="none" stroke="black" cx="610.76" cy="-306" rx="45.7249" ry="18"/>
<text text-anchor="middle" x="610.76" y="-302.5" font-family="Times New Roman,serif" font-size="15.00">Payment</text>
</g>
<!-- 1408194638368&#45;&#45;1408194641056 -->
<g id="edge29" class="edge"><title>1408194638368&#45;&#45;1408194641056</title>
<path fill="none" stroke="black" d="M584.99,-360.055C590.336,-349.049 597.275,-334.764 602.605,-323.789"/>
</g>
<!-- 1408192610464 -->
<g id="node42" class="node"><title>1408192610464</title>
<ellipse fill="none" stroke="black" cx="867.76" cy="-450" rx="27" ry="18"/>
<text text-anchor="middle" x="867.76" y="-446.5" font-family="Times New Roman,serif" font-size="15.00">xor</text>
</g>
<!-- 1408192614352&#45;&#45;1408192610464 -->
<g id="edge36" class="edge"><title>1408192614352&#45;&#45;1408192610464</title>
<path fill="none" stroke="black" d="M867.76,-503.697C867.76,-492.846 867.76,-478.917 867.76,-468.104"/>
</g>
<!-- 1408192612336 -->
<g id="node45" class="node"><title>1408192612336</title>
<ellipse fill="none" stroke="black" cx="1140.76" cy="-450" rx="46.6143" ry="18"/>
<text text-anchor="middle" x="1140.76" y="-446.5" font-family="Times New Roman,serif" font-size="15.00">xor loop</text>
</g>
<!-- 1408192614352&#45;&#45;1408192612336 -->
<g id="edge56" class="edge"><title>1408192614352&#45;&#45;1408192612336</title>
<path fill="none" stroke="black" d="M892.468,-514.665C940.376,-502.381 1046.16,-475.256 1102.96,-460.693"/>
</g>
<!-- 1408192612768 -->
<g id="node43" class="node"><title>1408192612768</title>
<ellipse fill="black" stroke="black" cx="785.76" cy="-378" rx="2.7" ry="2.7"/>
</g>
<!-- 1408192610464&#45;&#45;1408192612768 -->
<g id="edge34" class="edge"><title>1408192610464&#45;&#45;1408192612768</title>
<path fill="none" stroke="black" d="M851.559,-435.17C830.649,-417.32 795.954,-387.702 787.607,-380.577"/>
</g>
<!-- 1408192745680 -->
<g id="node44" class="node"><title>1408192745680</title>
<ellipse fill="none" stroke="black" cx="950.76" cy="-378" rx="144.571" ry="18"/>
<text text-anchor="middle" x="950.76" y="-374.5" font-family="Times New Roman,serif" font-size="15.00">Insert Date Appeal to Prefecture</text>
</g>
<!-- 1408192610464&#45;&#45;1408192745680 -->
<g id="edge35" class="edge"><title>1408192610464&#45;&#45;1408192745680</title>
<path fill="none" stroke="black" d="M884.158,-435.17C897.481,-423.934 916.332,-408.036 930.58,-396.019"/>
</g>
<!-- 1408194638416 -->
<g id="node46" class="node"><title>1408194638416</title>
<ellipse fill="none" stroke="black" cx="1140.76" cy="-378" rx="27" ry="18"/>
<text text-anchor="middle" x="1140.76" y="-374.5" font-family="Times New Roman,serif" font-size="15.00">seq</text>
</g>
<!-- 1408192612336&#45;&#45;1408194638416 -->
<g id="edge54" class="edge"><title>1408192612336&#45;&#45;1408194638416</title>
<path fill="none" stroke="black" d="M1140.76,-431.697C1140.76,-420.846 1140.76,-406.917 1140.76,-396.104"/>
</g>
<!-- 1408194639904 -->
<g id="node64" class="node"><title>1408194639904</title>
<ellipse fill="black" stroke="black" cx="1188.76" cy="-378" rx="2.7" ry="2.7"/>
</g>
<!-- 1408192612336&#45;&#45;1408194639904 -->
<g id="edge55" class="edge"><title>1408192612336&#45;&#45;1408194639904</title>
<path fill="none" stroke="black" d="M1152.14,-432.411C1164.33,-414.622 1182.61,-387.962 1187.51,-380.816"/>
</g>
<!-- 1408194640528 -->
<g id="node47" class="node"><title>1408194640528</title>
<ellipse fill="none" stroke="black" cx="1069.76" cy="-306" rx="27" ry="18"/>
<text text-anchor="middle" x="1069.76" y="-302.5" font-family="Times New Roman,serif" font-size="15.00">xor</text>
</g>
<!-- 1408194638416&#45;&#45;1408194640528 -->
<g id="edge39" class="edge"><title>1408194638416&#45;&#45;1408194640528</title>
<path fill="none" stroke="black" d="M1126.05,-362.496C1113.86,-350.482 1096.63,-333.494 1084.45,-321.485"/>
</g>
<!-- 1408194638752 -->
<g id="node50" class="node"><title>1408194638752</title>
<ellipse fill="none" stroke="black" cx="1210.76" cy="-306" rx="27" ry="18"/>
<text text-anchor="middle" x="1210.76" y="-302.5" font-family="Times New Roman,serif" font-size="15.00">xor</text>
</g>
<!-- 1408194638416&#45;&#45;1408194638752 -->
<g id="edge53" class="edge"><title>1408194638416&#45;&#45;1408194638752</title>
<path fill="none" stroke="black" d="M1155.26,-362.496C1167.28,-350.482 1184.27,-333.494 1196.27,-321.485"/>
</g>
<!-- 1408194640576 -->
<g id="node48" class="node"><title>1408194640576</title>
<ellipse fill="black" stroke="black" cx="928.76" cy="-234" rx="2.7" ry="2.7"/>
</g>
<!-- 1408194640528&#45;&#45;1408194640576 -->
<g id="edge37" class="edge"><title>1408194640528&#45;&#45;1408194640576</title>
<path fill="none" stroke="black" d="M1048.65,-294.52C1013,-276.823 943.502,-242.319 930.784,-236.005"/>
</g>
<!-- 1408194638608 -->
<g id="node49" class="node"><title>1408194638608</title>
<ellipse fill="none" stroke="black" cx="1069.76" cy="-234" rx="120.43" ry="18"/>
<text text-anchor="middle" x="1069.76" y="-230.5" font-family="Times New Roman,serif" font-size="15.00">Send Appeal to Prefecture</text>
</g>
<!-- 1408194640528&#45;&#45;1408194638608 -->
<g id="edge38" class="edge"><title>1408194640528&#45;&#45;1408194638608</title>
<path fill="none" stroke="black" d="M1069.76,-287.697C1069.76,-276.846 1069.76,-262.917 1069.76,-252.104"/>
</g>
<!-- 1408194640336 -->
<g id="node51" class="node"><title>1408194640336</title>
<ellipse fill="black" stroke="black" cx="1210.76" cy="-234" rx="2.7" ry="2.7"/>
</g>
<!-- 1408194638752&#45;&#45;1408194640336 -->
<g id="edge40" class="edge"><title>1408194638752&#45;&#45;1408194640336</title>
<path fill="none" stroke="black" d="M1210.76,-287.697C1210.76,-269.883 1210.76,-243.769 1210.76,-236.776"/>
</g>
<!-- 1408194639280 -->
<g id="node52" class="node"><title>1408194639280</title>
<ellipse fill="none" stroke="black" cx="1277.76" cy="-234" rx="46.6143" ry="18"/>
<text text-anchor="middle" x="1277.76" y="-230.5" font-family="Times New Roman,serif" font-size="15.00">xor loop</text>
</g>
<!-- 1408194638752&#45;&#45;1408194639280 -->
<g id="edge52" class="edge"><title>1408194638752&#45;&#45;1408194639280</title>
<path fill="none" stroke="black" d="M1224.64,-290.496C1235.6,-279.043 1250.89,-263.069 1262.26,-251.198"/>
</g>
<!-- 1408194637936 -->
<g id="node53" class="node"><title>1408194637936</title>
<ellipse fill="none" stroke="black" cx="1253.76" cy="-162" rx="27" ry="18"/>
<text text-anchor="middle" x="1253.76" y="-158.5" font-family="Times New Roman,serif" font-size="15.00">seq</text>
</g>
<!-- 1408194639280&#45;&#45;1408194637936 -->
<g id="edge50" class="edge"><title>1408194639280&#45;&#45;1408194637936</title>
<path fill="none" stroke="black" d="M1271.95,-216.055C1268.18,-205.049 1263.28,-190.764 1259.52,-179.789"/>
</g>
<!-- 1408194638656 -->
<g id="node63" class="node"><title>1408194638656</title>
<ellipse fill="black" stroke="black" cx="1301.76" cy="-162" rx="2.7" ry="2.7"/>
</g>
<!-- 1408194639280&#45;&#45;1408194638656 -->
<g id="edge51" class="edge"><title>1408194639280&#45;&#45;1408194638656</title>
<path fill="none" stroke="black" d="M1283.57,-216.055C1289.67,-198.252 1298.72,-171.865 1301.14,-164.796"/>
</g>
<!-- 1408194638704 -->
<g id="node54" class="node"><title>1408194638704</title>
<ellipse fill="none" stroke="black" cx="975.76" cy="-90" rx="27" ry="18"/>
<text text-anchor="middle" x="975.76" y="-86.5" font-family="Times New Roman,serif" font-size="15.00">xor</text>
</g>
<!-- 1408194637936&#45;&#45;1408194638704 -->
<g id="edge43" class="edge"><title>1408194637936&#45;&#45;1408194638704</title>
<path fill="none" stroke="black" d="M1228.6,-154.665C1175.67,-141.337 1053.37,-110.541 1000.66,-97.2707"/>
</g>
<!-- 1408194638992 -->
<g id="node57" class="node"><title>1408194638992</title>
<ellipse fill="none" stroke="black" cx="1253.76" cy="-90" rx="27" ry="18"/>
<text text-anchor="middle" x="1253.76" y="-86.5" font-family="Times New Roman,serif" font-size="15.00">xor</text>
</g>
<!-- 1408194637936&#45;&#45;1408194638992 -->
<g id="edge46" class="edge"><title>1408194637936&#45;&#45;1408194638992</title>
<path fill="none" stroke="black" d="M1253.76,-143.697C1253.76,-132.846 1253.76,-118.917 1253.76,-108.104"/>
</g>
<!-- 1408194640288 -->
<g id="node60" class="node"><title>1408194640288</title>
<ellipse fill="none" stroke="black" cx="1507.76" cy="-90" rx="27" ry="18"/>
<text text-anchor="middle" x="1507.76" y="-86.5" font-family="Times New Roman,serif" font-size="15.00">xor</text>
</g>
<!-- 1408194637936&#45;&#45;1408194640288 -->
<g id="edge49" class="edge"><title>1408194637936&#45;&#45;1408194640288</title>
<path fill="none" stroke="black" d="M1278.58,-154.161C1327.26,-140.744 1434.75,-111.12 1483.22,-97.7641"/>
</g>
<!-- 1408194639232 -->
<g id="node55" class="node"><title>1408194639232</title>
<ellipse fill="black" stroke="black" cx="781.76" cy="-18" rx="2.7" ry="2.7"/>
</g>
<!-- 1408194638704&#45;&#45;1408194639232 -->
<g id="edge41" class="edge"><title>1408194638704&#45;&#45;1408194639232</title>
<path fill="none" stroke="black" d="M952.359,-80.5564C904.792,-63.393 799.942,-25.5607 783.85,-19.7542"/>
</g>
<!-- 1408194639136 -->
<g id="node56" class="node"><title>1408194639136</title>
<ellipse fill="none" stroke="black" cx="975.76" cy="-18" rx="173.941" ry="18"/>
<text text-anchor="middle" x="975.76" y="-14.5" font-family="Times New Roman,serif" font-size="15.00">Receive Result Appeal from Prefecture</text>
</g>
<!-- 1408194638704&#45;&#45;1408194639136 -->
<g id="edge42" class="edge"><title>1408194638704&#45;&#45;1408194639136</title>
<path fill="none" stroke="black" d="M975.76,-71.6966C975.76,-60.8463 975.76,-46.9167 975.76,-36.1043"/>
</g>
<!-- 1408194640192 -->
<g id="node58" class="node"><title>1408194640192</title>
<ellipse fill="black" stroke="black" cx="1169.76" cy="-18" rx="2.7" ry="2.7"/>
</g>
<!-- 1408194638992&#45;&#45;1408194640192 -->
<g id="edge44" class="edge"><title>1408194638992&#45;&#45;1408194640192</title>
<path fill="none" stroke="black" d="M1237.56,-75.5033C1216.21,-57.7048 1180.31,-27.7933 1171.67,-20.5936"/>
</g>
<!-- 1408194640432 -->
<g id="node59" class="node"><title>1408194640432</title>
<ellipse fill="none" stroke="black" cx="1338.76" cy="-18" rx="148.91" ry="18"/>
<text text-anchor="middle" x="1338.76" y="-14.5" font-family="Times New Roman,serif" font-size="15.00">Notify Result Appeal to Offender</text>
</g>
<!-- 1408194638992&#45;&#45;1408194640432 -->
<g id="edge45" class="edge"><title>1408194638992&#45;&#45;1408194640432</title>
<path fill="none" stroke="black" d="M1270.15,-75.5033C1283.85,-64.2203 1303.46,-48.0695 1318.21,-35.9227"/>
</g>
<!-- 1408194640864 -->
<g id="node61" class="node"><title>1408194640864</title>
<ellipse fill="black" stroke="black" cx="1507.76" cy="-18" rx="2.7" ry="2.7"/>
</g>
<!-- 1408194640288&#45;&#45;1408194640864 -->
<g id="edge47" class="edge"><title>1408194640288&#45;&#45;1408194640864</title>
<path fill="none" stroke="black" d="M1507.76,-71.6966C1507.76,-53.8826 1507.76,-27.7686 1507.76,-20.7764"/>
</g>
<!-- 1408194640960 -->
<g id="node62" class="node"><title>1408194640960</title>
<ellipse fill="none" stroke="black" cx="1606.76" cy="-18" rx="78.5434" ry="18"/>
<text text-anchor="middle" x="1606.76" y="-14.5" font-family="Times New Roman,serif" font-size="15.00">Appeal to Judge</text>
</g>
<!-- 1408194640288&#45;&#45;1408194640960 -->
<g id="edge48" class="edge"><title>1408194640288&#45;&#45;1408194640960</title>
<path fill="none" stroke="black" d="M1525.92,-76.1609C1542.11,-64.7148 1565.89,-47.8968 1583.47,-35.4644"/>
</g>
<!-- 1408192612240 -->
<g id="node68" class="node"><title>1408192612240</title>
<ellipse fill="black" stroke="black" cx="715.76" cy="-882" rx="2.7" ry="2.7"/>
</g>
<!-- 1408192613776&#45;&#45;1408192612240 -->
<g id="edge66" class="edge"><title>1408192613776&#45;&#45;1408192612240</title>
<path fill="none" stroke="black" d="M715.76,-935.697C715.76,-917.883 715.76,-891.769 715.76,-884.776"/>
</g>
<!-- 1408192610944 -->
<g id="node69" class="node"><title>1408192610944</title>
<ellipse fill="none" stroke="black" cx="857.76" cy="-882" rx="120.819" ry="18"/>
<text text-anchor="middle" x="857.76" y="-878.5" font-family="Times New Roman,serif" font-size="15.00">Send for Credit Collection</text>
</g>
<!-- 1408192613776&#45;&#45;1408192610944 -->
<g id="edge67" class="edge"><title>1408192613776&#45;&#45;1408192610944</title>
<path fill="none" stroke="black" d="M737.019,-942.52C760.152,-931.116 797.444,-912.733 824.468,-899.412"/>
</g>
</g>
</svg>
