<?xml version="1.0" encoding="UTF-8" standalone="no"?>
<!DOCTYPE svg PUBLIC "-//W3C//DTD SVG 1.1//EN"
 "http://www.w3.org/Graphics/SVG/1.1/DTD/svg11.dtd">
<!-- Generated by graphviz version 2.38.0 (20140413.2041)
 -->
<!-- Title: pt Pages: 1 -->
<svg width="1436pt" height="836pt"
 viewBox="0.00 0.00 1435.58 836.00" xmlns="http://www.w3.org/2000/svg" xmlns:xlink="http://www.w3.org/1999/xlink">
<g id="graph0" class="graph" transform="scale(1 1) rotate(0) translate(4 832)">
<title>pt</title>
<!-- 1408174229056 -->
<g id="node1" class="node"><title>1408174229056</title>
<ellipse fill="none" stroke="black" cx="712.862" cy="-810" rx="27" ry="18"/>
<text text-anchor="middle" x="712.862" y="-806.5" font-family="Times New Roman,serif" font-size="15.00">seq</text>
</g>
<!-- 1408174229392 -->
<g id="node2" class="node"><title>1408174229392</title>
<ellipse fill="none" stroke="black" cx="671.862" cy="-738" rx="27" ry="18"/>
<text text-anchor="middle" x="671.862" y="-734.5" font-family="Times New Roman,serif" font-size="15.00">seq</text>
</g>
<!-- 1408174229056&#45;&#45;1408174229392 -->
<g id="edge48" class="edge"><title>1408174229056&#45;&#45;1408174229392</title>
<path fill="none" stroke="black" d="M703.353,-792.765C696.729,-781.456 687.932,-766.437 681.32,-755.147"/>
</g>
<!-- 1408174228000 -->
<g id="node50" class="node"><title>1408174228000</title>
<ellipse fill="none" stroke="black" cx="754.862" cy="-738" rx="27" ry="18"/>
<text text-anchor="middle" x="754.862" y="-734.5" font-family="Times New Roman,serif" font-size="15.00">xor</text>
</g>
<!-- 1408174229056&#45;&#45;1408174228000 -->
<g id="edge55" class="edge"><title>1408174229056&#45;&#45;1408174228000</title>
<path fill="none" stroke="black" d="M722.393,-793.116C729.169,-781.821 738.245,-766.696 745.078,-755.307"/>
</g>
<!-- 1408174229008 -->
<g id="node3" class="node"><title>1408174229008</title>
<ellipse fill="none" stroke="black" cx="547.862" cy="-666" rx="59.5207" ry="18"/>
<text text-anchor="middle" x="547.862" y="-662.5" font-family="Times New Roman,serif" font-size="15.00">Create Fine</text>
</g>
<!-- 1408174229392&#45;&#45;1408174229008 -->
<g id="edge1" class="edge"><title>1408174229392&#45;&#45;1408174229008</title>
<path fill="none" stroke="black" d="M651.939,-725.753C630.99,-713.927 597.906,-695.251 574.675,-682.136"/>
</g>
<!-- 1408174230976 -->
<g id="node4" class="node"><title>1408174230976</title>
<ellipse fill="none" stroke="black" cx="671.862" cy="-666" rx="46.6143" ry="18"/>
<text text-anchor="middle" x="671.862" y="-662.5" font-family="Times New Roman,serif" font-size="15.00">xor loop</text>
</g>
<!-- 1408174229392&#45;&#45;1408174230976 -->
<g id="edge47" class="edge"><title>1408174229392&#45;&#45;1408174230976</title>
<path fill="none" stroke="black" d="M671.862,-719.697C671.862,-708.846 671.862,-694.917 671.862,-684.104"/>
</g>
<!-- 1408174229584 -->
<g id="node5" class="node"><title>1408174229584</title>
<ellipse fill="none" stroke="black" cx="623.862" cy="-594" rx="27" ry="18"/>
<text text-anchor="middle" x="623.862" y="-590.5" font-family="Times New Roman,serif" font-size="15.00">seq</text>
</g>
<!-- 1408174230976&#45;&#45;1408174229584 -->
<g id="edge45" class="edge"><title>1408174230976&#45;&#45;1408174229584</title>
<path fill="none" stroke="black" d="M660.487,-648.411C652.724,-637.091 642.499,-622.178 634.826,-610.988"/>
</g>
<!-- 1408174230112 -->
<g id="node49" class="node"><title>1408174230112</title>
<ellipse fill="black" stroke="black" cx="671.862" cy="-594" rx="2.7" ry="2.7"/>
</g>
<!-- 1408174230976&#45;&#45;1408174230112 -->
<g id="edge46" class="edge"><title>1408174230976&#45;&#45;1408174230112</title>
<path fill="none" stroke="black" d="M671.862,-647.697C671.862,-629.883 671.862,-603.769 671.862,-596.776"/>
</g>
<!-- 1408157336432 -->
<g id="node6" class="node"><title>1408157336432</title>
<ellipse fill="none" stroke="black" cx="510.862" cy="-522" rx="27" ry="18"/>
<text text-anchor="middle" x="510.862" y="-518.5" font-family="Times New Roman,serif" font-size="15.00">xor</text>
</g>
<!-- 1408174229584&#45;&#45;1408157336432 -->
<g id="edge20" class="edge"><title>1408174229584&#45;&#45;1408157336432</title>
<path fill="none" stroke="black" d="M604.693,-581.125C583.914,-568.253 550.941,-547.828 530.125,-534.933"/>
</g>
<!-- 1408157335904 -->
<g id="node25" class="node"><title>1408157335904</title>
<ellipse fill="none" stroke="black" cx="623.862" cy="-522" rx="27" ry="18"/>
<text text-anchor="middle" x="623.862" y="-518.5" font-family="Times New Roman,serif" font-size="15.00">xor</text>
</g>
<!-- 1408174229584&#45;&#45;1408157335904 -->
<g id="edge23" class="edge"><title>1408174229584&#45;&#45;1408157335904</title>
<path fill="none" stroke="black" d="M623.862,-575.697C623.862,-564.846 623.862,-550.917 623.862,-540.104"/>
</g>
<!-- 1408157339504 -->
<g id="node28" class="node"><title>1408157339504</title>
<ellipse fill="none" stroke="black" cx="775.862" cy="-522" rx="27" ry="18"/>
<text text-anchor="middle" x="775.862" y="-518.5" font-family="Times New Roman,serif" font-size="15.00">xor</text>
</g>
<!-- 1408174229584&#45;&#45;1408157339504 -->
<g id="edge44" class="edge"><title>1408174229584&#45;&#45;1408157339504</title>
<path fill="none" stroke="black" d="M645.64,-582.971C674.535,-569.664 725.25,-546.308 754.125,-533.011"/>
</g>
<!-- 1408157336240 -->
<g id="node7" class="node"><title>1408157336240</title>
<ellipse fill="black" stroke="black" cx="443.862" cy="-450" rx="2.7" ry="2.7"/>
</g>
<!-- 1408157336432&#45;&#45;1408157336240 -->
<g id="edge2" class="edge"><title>1408157336432&#45;&#45;1408157336240</title>
<path fill="none" stroke="black" d="M496.98,-506.496C479.808,-488.555 452.019,-459.522 445.34,-452.544"/>
</g>
<!-- 1408157336480 -->
<g id="node8" class="node"><title>1408157336480</title>
<ellipse fill="none" stroke="black" cx="510.862" cy="-450" rx="46.6143" ry="18"/>
<text text-anchor="middle" x="510.862" y="-446.5" font-family="Times New Roman,serif" font-size="15.00">xor loop</text>
</g>
<!-- 1408157336432&#45;&#45;1408157336480 -->
<g id="edge19" class="edge"><title>1408157336432&#45;&#45;1408157336480</title>
<path fill="none" stroke="black" d="M510.862,-503.697C510.862,-492.846 510.862,-478.917 510.862,-468.104"/>
</g>
<!-- 1408157339168 -->
<g id="node9" class="node"><title>1408157339168</title>
<ellipse fill="none" stroke="black" cx="486.862" cy="-378" rx="27" ry="18"/>
<text text-anchor="middle" x="486.862" y="-374.5" font-family="Times New Roman,serif" font-size="15.00">seq</text>
</g>
<!-- 1408157336480&#45;&#45;1408157339168 -->
<g id="edge17" class="edge"><title>1408157336480&#45;&#45;1408157339168</title>
<path fill="none" stroke="black" d="M505.053,-432.055C501.279,-421.049 496.381,-406.764 492.618,-395.789"/>
</g>
<!-- 1408157338496 -->
<g id="node24" class="node"><title>1408157338496</title>
<ellipse fill="black" stroke="black" cx="534.862" cy="-378" rx="2.7" ry="2.7"/>
</g>
<!-- 1408157336480&#45;&#45;1408157338496 -->
<g id="edge18" class="edge"><title>1408157336480&#45;&#45;1408157338496</title>
<path fill="none" stroke="black" d="M516.672,-432.055C522.776,-414.252 531.823,-387.865 534.246,-380.796"/>
</g>
<!-- 1408157338016 -->
<g id="node10" class="node"><title>1408157338016</title>
<ellipse fill="none" stroke="black" cx="336.862" cy="-306" rx="27" ry="18"/>
<text text-anchor="middle" x="336.862" y="-302.5" font-family="Times New Roman,serif" font-size="15.00">xor</text>
</g>
<!-- 1408157339168&#45;&#45;1408157338016 -->
<g id="edge13" class="edge"><title>1408157339168&#45;&#45;1408157338016</title>
<path fill="none" stroke="black" d="M465.371,-366.971C436.856,-353.664 386.809,-330.308 358.314,-317.011"/>
</g>
<!-- 1408157335760 -->
<g id="node21" class="node"><title>1408157335760</title>
<ellipse fill="none" stroke="black" cx="491.862" cy="-306" rx="27" ry="18"/>
<text text-anchor="middle" x="491.862" y="-302.5" font-family="Times New Roman,serif" font-size="15.00">xor</text>
</g>
<!-- 1408157339168&#45;&#45;1408157335760 -->
<g id="edge16" class="edge"><title>1408157339168&#45;&#45;1408157335760</title>
<path fill="none" stroke="black" d="M488.098,-359.697C488.873,-348.846 489.868,-334.917 490.64,-324.104"/>
</g>
<!-- 1408157337056 -->
<g id="node11" class="node"><title>1408157337056</title>
<ellipse fill="none" stroke="black" cx="45.8622" cy="-234" rx="45.7249" ry="18"/>
<text text-anchor="middle" x="45.8622" y="-230.5" font-family="Times New Roman,serif" font-size="15.00">Payment</text>
</g>
<!-- 1408157338016&#45;&#45;1408157337056 -->
<g id="edge3" class="edge"><title>1408157338016&#45;&#45;1408157337056</title>
<path fill="none" stroke="black" d="M311.8,-298.971C260.79,-286.701 144.624,-258.757 84.1122,-244.201"/>
</g>
<!-- 1408157337920 -->
<g id="node12" class="node"><title>1408157337920</title>
<ellipse fill="none" stroke="black" cx="253.862" cy="-234" rx="144.571" ry="18"/>
<text text-anchor="middle" x="253.862" y="-230.5" font-family="Times New Roman,serif" font-size="15.00">Insert Date Appeal to Prefecture</text>
</g>
<!-- 1408157338016&#45;&#45;1408157337920 -->
<g id="edge4" class="edge"><title>1408157338016&#45;&#45;1408157337920</title>
<path fill="none" stroke="black" d="M320.464,-291.17C307.141,-279.934 288.29,-264.036 274.042,-252.019"/>
</g>
<!-- 1408157336768 -->
<g id="node13" class="node"><title>1408157336768</title>
<ellipse fill="none" stroke="black" cx="443.862" cy="-234" rx="27" ry="18"/>
<text text-anchor="middle" x="443.862" y="-230.5" font-family="Times New Roman,serif" font-size="15.00">seq</text>
</g>
<!-- 1408157338016&#45;&#45;1408157336768 -->
<g id="edge12" class="edge"><title>1408157338016&#45;&#45;1408157336768</title>
<path fill="none" stroke="black" d="M355.5,-292.807C375.02,-280.037 405.505,-260.093 425.079,-247.288"/>
</g>
<!-- 1408157337392 -->
<g id="node14" class="node"><title>1408157337392</title>
<ellipse fill="none" stroke="black" cx="345.862" cy="-162" rx="52.6228" ry="18"/>
<text text-anchor="middle" x="345.862" y="-158.5" font-family="Times New Roman,serif" font-size="15.00">Send Fine</text>
</g>
<!-- 1408157336768&#45;&#45;1408157337392 -->
<g id="edge5" class="edge"><title>1408157336768&#45;&#45;1408157337392</title>
<path fill="none" stroke="black" d="M425.888,-220.161C409.421,-208.399 385.013,-190.965 367.486,-178.446"/>
</g>
<!-- 1408157339552 -->
<g id="node15" class="node"><title>1408157339552</title>
<ellipse fill="none" stroke="black" cx="443.862" cy="-162" rx="27" ry="18"/>
<text text-anchor="middle" x="443.862" y="-158.5" font-family="Times New Roman,serif" font-size="15.00">xor</text>
</g>
<!-- 1408157336768&#45;&#45;1408157339552 -->
<g id="edge8" class="edge"><title>1408157336768&#45;&#45;1408157339552</title>
<path fill="none" stroke="black" d="M443.862,-215.697C443.862,-204.846 443.862,-190.917 443.862,-180.104"/>
</g>
<!-- 1408157339120 -->
<g id="node18" class="node"><title>1408157339120</title>
<ellipse fill="none" stroke="black" cx="608.862" cy="-162" rx="27" ry="18"/>
<text text-anchor="middle" x="608.862" y="-158.5" font-family="Times New Roman,serif" font-size="15.00">xor</text>
</g>
<!-- 1408157336768&#45;&#45;1408157339120 -->
<g id="edge11" class="edge"><title>1408157336768&#45;&#45;1408157339120</title>
<path fill="none" stroke="black" d="M466.115,-223.559C497.694,-210.162 555.169,-185.779 586.699,-172.402"/>
</g>
<!-- 1408157338400 -->
<g id="node16" class="node"><title>1408157338400</title>
<ellipse fill="black" stroke="black" cx="278.862" cy="-90" rx="2.7" ry="2.7"/>
</g>
<!-- 1408157339552&#45;&#45;1408157338400 -->
<g id="edge6" class="edge"><title>1408157339552&#45;&#45;1408157338400</title>
<path fill="none" stroke="black" d="M421.61,-151.559C380.442,-134.094 295.267,-97.9596 280.932,-91.8779"/>
</g>
<!-- 1408157336288 -->
<g id="node17" class="node"><title>1408157336288</title>
<ellipse fill="none" stroke="black" cx="443.862" cy="-90" rx="144.571" ry="18"/>
<text text-anchor="middle" x="443.862" y="-86.5" font-family="Times New Roman,serif" font-size="15.00">Insert Date Appeal to Prefecture</text>
</g>
<!-- 1408157339552&#45;&#45;1408157336288 -->
<g id="edge7" class="edge"><title>1408157339552&#45;&#45;1408157336288</title>
<path fill="none" stroke="black" d="M443.862,-143.697C443.862,-132.846 443.862,-118.917 443.862,-108.104"/>
</g>
<!-- 1408157336672 -->
<g id="node19" class="node"><title>1408157336672</title>
<ellipse fill="black" stroke="black" cx="608.862" cy="-90" rx="2.7" ry="2.7"/>
</g>
<!-- 1408157339120&#45;&#45;1408157336672 -->
<g id="edge9" class="edge"><title>1408157339120&#45;&#45;1408157336672</title>
<path fill="none" stroke="black" d="M608.862,-143.697C608.862,-125.883 608.862,-99.7686 608.862,-92.7764"/>
</g>
<!-- 1408157337488 -->
<g id="node20" class="node"><title>1408157337488</title>
<ellipse fill="none" stroke="black" cx="749.862" cy="-90" rx="120.43" ry="18"/>
<text text-anchor="middle" x="749.862" y="-86.5" font-family="Times New Roman,serif" font-size="15.00">Send Appeal to Prefecture</text>
</g>
<!-- 1408157339120&#45;&#45;1408157337488 -->
<g id="edge10" class="edge"><title>1408157339120&#45;&#45;1408157337488</title>
<path fill="none" stroke="black" d="M629.971,-150.52C652.942,-139.116 689.971,-120.733 716.805,-107.412"/>
</g>
<!-- 1408157335808 -->
<g id="node22" class="node"><title>1408157335808</title>
<ellipse fill="black" stroke="black" cx="491.862" cy="-234" rx="2.7" ry="2.7"/>
</g>
<!-- 1408157335760&#45;&#45;1408157335808 -->
<g id="edge14" class="edge"><title>1408157335760&#45;&#45;1408157335808</title>
<path fill="none" stroke="black" d="M491.862,-287.697C491.862,-269.883 491.862,-243.769 491.862,-236.776"/>
</g>
<!-- 1408157338160 -->
<g id="node23" class="node"><title>1408157338160</title>
<ellipse fill="none" stroke="black" cx="619.862" cy="-234" rx="107.914" ry="18"/>
<text text-anchor="middle" x="619.862" y="-230.5" font-family="Times New Roman,serif" font-size="15.00">Insert Fine Notification</text>
</g>
<!-- 1408157335760&#45;&#45;1408157338160 -->
<g id="edge15" class="edge"><title>1408157335760&#45;&#45;1408157338160</title>
<path fill="none" stroke="black" d="M512.144,-293.908C533.01,-282.497 565.752,-264.591 589.665,-251.514"/>
</g>
<!-- 1408157337344 -->
<g id="node26" class="node"><title>1408157337344</title>
<ellipse fill="black" stroke="black" cx="577.862" cy="-450" rx="2.7" ry="2.7"/>
</g>
<!-- 1408157335904&#45;&#45;1408157337344 -->
<g id="edge21" class="edge"><title>1408157335904&#45;&#45;1408157337344</title>
<path fill="none" stroke="black" d="M613.424,-505.116C601.761,-487.367 583.88,-460.158 579.082,-452.857"/>
</g>
<!-- 1408157338208 -->
<g id="node27" class="node"><title>1408157338208</title>
<ellipse fill="none" stroke="black" cx="676.862" cy="-450" rx="78.5434" ry="18"/>
<text text-anchor="middle" x="676.862" y="-446.5" font-family="Times New Roman,serif" font-size="15.00">Appeal to Judge</text>
</g>
<!-- 1408157335904&#45;&#45;1408157338208 -->
<g id="edge22" class="edge"><title>1408157335904&#45;&#45;1408157338208</title>
<path fill="none" stroke="black" d="M635.625,-505.465C644.042,-494.348 655.367,-479.39 664.02,-467.962"/>
</g>
<!-- 1408157336816 -->
<g id="node29" class="node"><title>1408157336816</title>
<ellipse fill="black" stroke="black" cx="775.862" cy="-450" rx="2.7" ry="2.7"/>
</g>
<!-- 1408157339504&#45;&#45;1408157336816 -->
<g id="edge24" class="edge"><title>1408157339504&#45;&#45;1408157336816</title>
<path fill="none" stroke="black" d="M775.862,-503.697C775.862,-485.883 775.862,-459.769 775.862,-452.776"/>
</g>
<!-- 1408157338976 -->
<g id="node30" class="node"><title>1408157338976</title>
<ellipse fill="none" stroke="black" cx="823.862" cy="-450" rx="27" ry="18"/>
<text text-anchor="middle" x="823.862" y="-446.5" font-family="Times New Roman,serif" font-size="15.00">and</text>
</g>
<!-- 1408157339504&#45;&#45;1408157338976 -->
<g id="edge43" class="edge"><title>1408157339504&#45;&#45;1408157338976</title>
<path fill="none" stroke="black" d="M786.754,-505.116C794.61,-493.66 805.168,-478.263 813.013,-466.821"/>
</g>
<!-- 1407999436592 -->
<g id="node31" class="node"><title>1407999436592</title>
<ellipse fill="none" stroke="black" cx="801.862" cy="-378" rx="27" ry="18"/>
<text text-anchor="middle" x="801.862" y="-374.5" font-family="Times New Roman,serif" font-size="15.00">xor</text>
</g>
<!-- 1408157338976&#45;&#45;1407999436592 -->
<g id="edge27" class="edge"><title>1408157338976&#45;&#45;1407999436592</title>
<path fill="none" stroke="black" d="M818.537,-432.055C815.078,-421.049 810.588,-406.764 807.139,-395.789"/>
</g>
<!-- 1407999436640 -->
<g id="node34" class="node"><title>1407999436640</title>
<ellipse fill="none" stroke="black" cx="884.862" cy="-378" rx="27" ry="18"/>
<text text-anchor="middle" x="884.862" y="-374.5" font-family="Times New Roman,serif" font-size="15.00">xor</text>
</g>
<!-- 1408157338976&#45;&#45;1407999436640 -->
<g id="edge42" class="edge"><title>1408157338976&#45;&#45;1407999436640</title>
<path fill="none" stroke="black" d="M836.799,-434.155C847.151,-422.276 861.597,-405.697 871.944,-393.824"/>
</g>
<!-- 1407999436448 -->
<g id="node32" class="node"><title>1407999436448</title>
<ellipse fill="black" stroke="black" cx="718.862" cy="-306" rx="2.7" ry="2.7"/>
</g>
<!-- 1407999436592&#45;&#45;1407999436448 -->
<g id="edge25" class="edge"><title>1407999436592&#45;&#45;1407999436448</title>
<path fill="none" stroke="black" d="M785.464,-363.17C764.299,-345.32 729.181,-315.702 720.732,-308.577"/>
</g>
<!-- 1407999438080 -->
<g id="node33" class="node"><title>1407999438080</title>
<ellipse fill="none" stroke="black" cx="801.862" cy="-306" rx="61.6894" ry="18"/>
<text text-anchor="middle" x="801.862" y="-302.5" font-family="Times New Roman,serif" font-size="15.00">Add penalty</text>
</g>
<!-- 1407999436592&#45;&#45;1407999438080 -->
<g id="edge26" class="edge"><title>1407999436592&#45;&#45;1407999438080</title>
<path fill="none" stroke="black" d="M801.862,-359.697C801.862,-348.846 801.862,-334.917 801.862,-324.104"/>
</g>
<!-- 1407999437600 -->
<g id="node35" class="node"><title>1407999437600</title>
<ellipse fill="black" stroke="black" cx="884.862" cy="-306" rx="2.7" ry="2.7"/>
</g>
<!-- 1407999436640&#45;&#45;1407999437600 -->
<g id="edge28" class="edge"><title>1407999436640&#45;&#45;1407999437600</title>
<path fill="none" stroke="black" d="M884.862,-359.697C884.862,-341.883 884.862,-315.769 884.862,-308.776"/>
</g>
<!-- 1407999436688 -->
<g id="node36" class="node"><title>1407999436688</title>
<ellipse fill="none" stroke="black" cx="932.862" cy="-306" rx="27" ry="18"/>
<text text-anchor="middle" x="932.862" y="-302.5" font-family="Times New Roman,serif" font-size="15.00">seq</text>
</g>
<!-- 1407999436640&#45;&#45;1407999436688 -->
<g id="edge41" class="edge"><title>1407999436640&#45;&#45;1407999436688</title>
<path fill="none" stroke="black" d="M895.754,-361.116C903.61,-349.66 914.168,-334.263 922.013,-322.821"/>
</g>
<!-- 1407999436208 -->
<g id="node37" class="node"><title>1407999436208</title>
<ellipse fill="none" stroke="black" cx="921.862" cy="-234" rx="27" ry="18"/>
<text text-anchor="middle" x="921.862" y="-230.5" font-family="Times New Roman,serif" font-size="15.00">xor</text>
</g>
<!-- 1407999436688&#45;&#45;1407999436208 -->
<g id="edge37" class="edge"><title>1407999436688&#45;&#45;1407999436208</title>
<path fill="none" stroke="black" d="M930.199,-288.055C928.495,-277.211 926.291,-263.183 924.577,-252.275"/>
</g>
<!-- 1407999435200 -->
<g id="node46" class="node"><title>1407999435200</title>
<ellipse fill="none" stroke="black" cx="993.862" cy="-234" rx="27" ry="18"/>
<text text-anchor="middle" x="993.862" y="-230.5" font-family="Times New Roman,serif" font-size="15.00">xor</text>
</g>
<!-- 1407999436688&#45;&#45;1407999435200 -->
<g id="edge40" class="edge"><title>1407999436688&#45;&#45;1407999435200</title>
<path fill="none" stroke="black" d="M945.799,-290.155C956.151,-278.276 970.597,-261.697 980.944,-249.824"/>
</g>
<!-- 1407999438800 -->
<g id="node38" class="node"><title>1407999438800</title>
<ellipse fill="black" stroke="black" cx="879.862" cy="-162" rx="2.7" ry="2.7"/>
</g>
<!-- 1407999436208&#45;&#45;1407999438800 -->
<g id="edge29" class="edge"><title>1407999436208&#45;&#45;1407999438800</title>
<path fill="none" stroke="black" d="M912.332,-217.116C901.683,-199.367 885.357,-172.158 880.976,-164.857"/>
</g>
<!-- 1407999437120 -->
<g id="node39" class="node"><title>1407999437120</title>
<ellipse fill="none" stroke="black" cx="927.862" cy="-162" rx="27" ry="18"/>
<text text-anchor="middle" x="927.862" y="-158.5" font-family="Times New Roman,serif" font-size="15.00">and</text>
</g>
<!-- 1407999436208&#45;&#45;1407999437120 -->
<g id="edge36" class="edge"><title>1407999436208&#45;&#45;1407999437120</title>
<path fill="none" stroke="black" d="M923.345,-215.697C924.275,-204.846 925.469,-190.917 926.396,-180.104"/>
</g>
<!-- 1407999437840 -->
<g id="node40" class="node"><title>1407999437840</title>
<ellipse fill="none" stroke="black" cx="918.862" cy="-90" rx="27" ry="18"/>
<text text-anchor="middle" x="918.862" y="-86.5" font-family="Times New Roman,serif" font-size="15.00">xor</text>
</g>
<!-- 1407999437120&#45;&#45;1407999437840 -->
<g id="edge32" class="edge"><title>1407999437120&#45;&#45;1407999437840</title>
<path fill="none" stroke="black" d="M925.684,-144.055C924.289,-133.211 922.486,-119.183 921.083,-108.275"/>
</g>
<!-- 1407999436544 -->
<g id="node43" class="node"><title>1407999436544</title>
<ellipse fill="none" stroke="black" cx="1059.86" cy="-90" rx="27" ry="18"/>
<text text-anchor="middle" x="1059.86" y="-86.5" font-family="Times New Roman,serif" font-size="15.00">xor</text>
</g>
<!-- 1407999437120&#45;&#45;1407999436544 -->
<g id="edge35" class="edge"><title>1407999437120&#45;&#45;1407999436544</title>
<path fill="none" stroke="black" d="M948.487,-150.063C973.286,-136.912 1014.65,-114.977 1039.38,-101.861"/>
</g>
<!-- 1407999435344 -->
<g id="node41" class="node"><title>1407999435344</title>
<ellipse fill="black" stroke="black" cx="777.862" cy="-18" rx="2.7" ry="2.7"/>
</g>
<!-- 1407999437840&#45;&#45;1407999435344 -->
<g id="edge30" class="edge"><title>1407999437840&#45;&#45;1407999435344</title>
<path fill="none" stroke="black" d="M897.753,-78.5203C862.106,-60.8234 792.604,-26.3188 779.886,-20.0047"/>
</g>
<!-- 1407999438272 -->
<g id="node42" class="node"><title>1407999438272</title>
<ellipse fill="none" stroke="black" cx="918.862" cy="-18" rx="120.43" ry="18"/>
<text text-anchor="middle" x="918.862" y="-14.5" font-family="Times New Roman,serif" font-size="15.00">Send Appeal to Prefecture</text>
</g>
<!-- 1407999437840&#45;&#45;1407999438272 -->
<g id="edge31" class="edge"><title>1407999437840&#45;&#45;1407999438272</title>
<path fill="none" stroke="black" d="M918.862,-71.6966C918.862,-60.8463 918.862,-46.9167 918.862,-36.1043"/>
</g>
<!-- 1407999435872 -->
<g id="node44" class="node"><title>1407999435872</title>
<ellipse fill="black" stroke="black" cx="1059.86" cy="-18" rx="2.7" ry="2.7"/>
</g>
<!-- 1407999436544&#45;&#45;1407999435872 -->
<g id="edge33" class="edge"><title>1407999436544&#45;&#45;1407999435872</title>
<path fill="none" stroke="black" d="M1059.86,-71.6966C1059.86,-53.8826 1059.86,-27.7686 1059.86,-20.7764"/>
</g>
<!-- 1407999438656 -->
<g id="node45" class="node"><title>1407999438656</title>
<ellipse fill="none" stroke="black" cx="1253.86" cy="-18" rx="173.941" ry="18"/>
<text text-anchor="middle" x="1253.86" y="-14.5" font-family="Times New Roman,serif" font-size="15.00">Receive Result Appeal from Prefecture</text>
</g>
<!-- 1407999436544&#45;&#45;1407999438656 -->
<g id="edge34" class="edge"><title>1407999436544&#45;&#45;1407999438656</title>
<path fill="none" stroke="black" d="M1083.26,-80.5564C1114.1,-69.4293 1169.01,-49.615 1208.21,-35.472"/>
</g>
<!-- 1407999436400 -->
<g id="node47" class="node"><title>1407999436400</title>
<ellipse fill="black" stroke="black" cx="987.862" cy="-162" rx="2.7" ry="2.7"/>
</g>
<!-- 1407999435200&#45;&#45;1407999436400 -->
<g id="edge38" class="edge"><title>1407999435200&#45;&#45;1407999436400</title>
<path fill="none" stroke="black" d="M992.379,-215.697C990.852,-197.883 988.614,-171.769 988.014,-164.776"/>
</g>
<!-- 1407999435488 -->
<g id="node48" class="node"><title>1407999435488</title>
<ellipse fill="none" stroke="black" cx="1156.86" cy="-162" rx="148.91" ry="18"/>
<text text-anchor="middle" x="1156.86" y="-158.5" font-family="Times New Roman,serif" font-size="15.00">Notify Result Appeal to Offender</text>
</g>
<!-- 1407999435200&#45;&#45;1407999435488 -->
<g id="edge39" class="edge"><title>1407999435200&#45;&#45;1407999435488</title>
<path fill="none" stroke="black" d="M1016.18,-223.414C1042.52,-212.106 1086.73,-193.119 1118.57,-179.446"/>
</g>
<!-- 1408157335664 -->
<g id="node51" class="node"><title>1408157335664</title>
<ellipse fill="black" stroke="black" cx="754.862" cy="-666" rx="2.7" ry="2.7"/>
</g>
<!-- 1408174228000&#45;&#45;1408157335664 -->
<g id="edge49" class="edge"><title>1408174228000&#45;&#45;1408157335664</title>
<path fill="none" stroke="black" d="M754.862,-719.697C754.862,-701.883 754.862,-675.769 754.862,-668.776"/>
</g>
<!-- 1408157337200 -->
<g id="node52" class="node"><title>1408157337200</title>
<ellipse fill="none" stroke="black" cx="813.862" cy="-666" rx="27" ry="18"/>
<text text-anchor="middle" x="813.862" y="-662.5" font-family="Times New Roman,serif" font-size="15.00">seq</text>
</g>
<!-- 1408174228000&#45;&#45;1408157337200 -->
<g id="edge54" class="edge"><title>1408174228000&#45;&#45;1408157337200</title>
<path fill="none" stroke="black" d="M767.664,-721.811C777.561,-710.07 791.195,-693.893 801.085,-682.159"/>
</g>
<!-- 1407999434864 -->
<g id="node53" class="node"><title>1407999434864</title>
<ellipse fill="none" stroke="black" cx="813.862" cy="-594" rx="120.819" ry="18"/>
<text text-anchor="middle" x="813.862" y="-590.5" font-family="Times New Roman,serif" font-size="15.00">Send for Credit Collection</text>
</g>
<!-- 1408157337200&#45;&#45;1407999434864 -->
<g id="edge50" class="edge"><title>1408157337200&#45;&#45;1407999434864</title>
<path fill="none" stroke="black" d="M813.862,-647.697C813.862,-636.846 813.862,-622.917 813.862,-612.104"/>
</g>
<!-- 1407999435536 -->
<g id="node54" class="node"><title>1407999435536</title>
<ellipse fill="none" stroke="black" cx="979.862" cy="-594" rx="27" ry="18"/>
<text text-anchor="middle" x="979.862" y="-590.5" font-family="Times New Roman,serif" font-size="15.00">xor</text>
</g>
<!-- 1408157337200&#45;&#45;1407999435536 -->
<g id="edge53" class="edge"><title>1408157337200&#45;&#45;1407999435536</title>
<path fill="none" stroke="black" d="M836.25,-655.559C868.02,-642.162 925.844,-617.779 957.565,-604.402"/>
</g>
<!-- 1407999437696 -->
<g id="node55" class="node"><title>1407999437696</title>
<ellipse fill="black" stroke="black" cx="880.862" cy="-522" rx="2.7" ry="2.7"/>
</g>
<!-- 1407999435536&#45;&#45;1407999437696 -->
<g id="edge51" class="edge"><title>1407999435536&#45;&#45;1407999437696</title>
<path fill="none" stroke="black" d="M961.704,-580.161C936.25,-562.163 892.011,-530.883 882.638,-524.256"/>
</g>
<!-- 1407999435776 -->
<g id="node56" class="node"><title>1407999435776</title>
<ellipse fill="none" stroke="black" cx="1021.86" cy="-522" rx="120.43" ry="18"/>
<text text-anchor="middle" x="1021.86" y="-518.5" font-family="Times New Roman,serif" font-size="15.00">Send Appeal to Prefecture</text>
</g>
<!-- 1407999435536&#45;&#45;1407999435776 -->
<g id="edge52" class="edge"><title>1407999435536&#45;&#45;1407999435776</title>
<path fill="none" stroke="black" d="M989.393,-577.116C995.976,-566.144 1004.73,-551.557 1011.49,-540.292"/>
</g>
</g>
</svg>
