<?xml version="1.0" encoding="UTF-8" standalone="no"?>
<!DOCTYPE svg PUBLIC "-//W3C//DTD SVG 1.1//EN"
 "http://www.w3.org/Graphics/SVG/1.1/DTD/svg11.dtd">
<!-- Generated by graphviz version 2.38.0 (20140413.2041)
 -->
<!-- Title: pt Pages: 1 -->
<svg width="1645pt" height="620pt"
 viewBox="0.00 0.00 1645.28 620.00" xmlns="http://www.w3.org/2000/svg" xmlns:xlink="http://www.w3.org/1999/xlink">
<g id="graph0" class="graph" transform="scale(1 1) rotate(0) translate(4 616)">
<title>pt</title>
<!-- 1408204691776 -->
<g id="node1" class="node"><title>1408204691776</title>
<ellipse fill="none" stroke="black" cx="328.557" cy="-594" rx="27" ry="18"/>
<text text-anchor="middle" x="328.557" y="-590.5" font-family="Times New Roman,serif" font-size="15.00">and</text>
</g>
<!-- 1408204689808 -->
<g id="node2" class="node"><title>1408204689808</title>
<ellipse fill="none" stroke="black" cx="172.557" cy="-522" rx="27" ry="18"/>
<text text-anchor="middle" x="172.557" y="-518.5" font-family="Times New Roman,serif" font-size="15.00">xor</text>
</g>
<!-- 1408204691776&#45;&#45;1408204689808 -->
<g id="edge7" class="edge"><title>1408204691776&#45;&#45;1408204689808</title>
<path fill="none" stroke="black" d="M306.866,-583.267C277.145,-569.931 224.07,-546.115 194.315,-532.763"/>
</g>
<!-- 1408204690096 -->
<g id="node9" class="node"><title>1408204690096</title>
<ellipse fill="none" stroke="black" cx="328.557" cy="-522" rx="27" ry="18"/>
<text text-anchor="middle" x="328.557" y="-518.5" font-family="Times New Roman,serif" font-size="15.00">xor</text>
</g>
<!-- 1408204691776&#45;&#45;1408204690096 -->
<g id="edge22" class="edge"><title>1408204691776&#45;&#45;1408204690096</title>
<path fill="none" stroke="black" d="M328.557,-575.697C328.557,-564.846 328.557,-550.917 328.557,-540.104"/>
</g>
<!-- 1408204692304 -->
<g id="node24" class="node"><title>1408204692304</title>
<ellipse fill="none" stroke="black" cx="627.557" cy="-522" rx="27" ry="18"/>
<text text-anchor="middle" x="627.557" y="-518.5" font-family="Times New Roman,serif" font-size="15.00">seq</text>
</g>
<!-- 1408204691776&#45;&#45;1408204692304 -->
<g id="edge60" class="edge"><title>1408204691776&#45;&#45;1408204692304</title>
<path fill="none" stroke="black" d="M353.535,-587.152C409.818,-573.976 546.026,-542.088 602.44,-528.88"/>
</g>
<!-- 1408204690720 -->
<g id="node3" class="node"><title>1408204690720</title>
<ellipse fill="black" stroke="black" cx="124.557" cy="-450" rx="2.7" ry="2.7"/>
</g>
<!-- 1408204689808&#45;&#45;1408204690720 -->
<g id="edge1" class="edge"><title>1408204689808&#45;&#45;1408204690720</title>
<path fill="none" stroke="black" d="M161.665,-505.116C149.495,-487.367 130.837,-460.158 125.83,-452.857"/>
</g>
<!-- 1408204691392 -->
<g id="node4" class="node"><title>1408204691392</title>
<ellipse fill="none" stroke="black" cx="172.557" cy="-450" rx="27" ry="18"/>
<text text-anchor="middle" x="172.557" y="-446.5" font-family="Times New Roman,serif" font-size="15.00">and</text>
</g>
<!-- 1408204689808&#45;&#45;1408204691392 -->
<g id="edge6" class="edge"><title>1408204689808&#45;&#45;1408204691392</title>
<path fill="none" stroke="black" d="M172.557,-503.697C172.557,-492.846 172.557,-478.917 172.557,-468.104"/>
</g>
<!-- 1408204690384 -->
<g id="node5" class="node"><title>1408204690384</title>
<ellipse fill="none" stroke="black" cx="46.5571" cy="-378" rx="46.6143" ry="18"/>
<text text-anchor="middle" x="46.5571" y="-374.5" font-family="Times New Roman,serif" font-size="15.00">xor loop</text>
</g>
<!-- 1408204691392&#45;&#45;1408204690384 -->
<g id="edge4" class="edge"><title>1408204691392&#45;&#45;1408204690384</title>
<path fill="none" stroke="black" d="M152.313,-437.753C130.47,-425.618 95.6423,-406.27 71.9722,-393.119"/>
</g>
<!-- 1408204689904 -->
<g id="node8" class="node"><title>1408204689904</title>
<ellipse fill="none" stroke="black" cx="172.557" cy="-378" rx="61.6894" ry="18"/>
<text text-anchor="middle" x="172.557" y="-374.5" font-family="Times New Roman,serif" font-size="15.00">Add penalty</text>
</g>
<!-- 1408204691392&#45;&#45;1408204689904 -->
<g id="edge5" class="edge"><title>1408204691392&#45;&#45;1408204689904</title>
<path fill="none" stroke="black" d="M172.557,-431.697C172.557,-420.846 172.557,-406.917 172.557,-396.104"/>
</g>
<!-- 1408204692640 -->
<g id="node6" class="node"><title>1408204692640</title>
<ellipse fill="black" stroke="black" cx="13.5571" cy="-306" rx="2.7" ry="2.7"/>
</g>
<!-- 1408204690384&#45;&#45;1408204692640 -->
<g id="edge2" class="edge"><title>1408204690384&#45;&#45;1408204692640</title>
<path fill="none" stroke="black" d="M38.5687,-360.055C30.1757,-342.252 17.7365,-315.865 14.4039,-308.796"/>
</g>
<!-- 1408204691104 -->
<g id="node7" class="node"><title>1408204691104</title>
<ellipse fill="none" stroke="black" cx="80.5571" cy="-306" rx="45.7249" ry="18"/>
<text text-anchor="middle" x="80.5571" y="-302.5" font-family="Times New Roman,serif" font-size="15.00">Payment</text>
</g>
<!-- 1408204690384&#45;&#45;1408204691104 -->
<g id="edge3" class="edge"><title>1408204690384&#45;&#45;1408204691104</title>
<path fill="none" stroke="black" d="M54.7876,-360.055C60.1332,-349.049 67.072,-334.764 72.4025,-323.789"/>
</g>
<!-- 1408199205024 -->
<g id="node10" class="node"><title>1408199205024</title>
<ellipse fill="black" stroke="black" cx="304.557" cy="-450" rx="2.7" ry="2.7"/>
</g>
<!-- 1408204690096&#45;&#45;1408199205024 -->
<g id="edge8" class="edge"><title>1408204690096&#45;&#45;1408199205024</title>
<path fill="none" stroke="black" d="M322.747,-504.055C316.643,-486.252 307.597,-459.865 305.173,-452.796"/>
</g>
<!-- 1408164029392 -->
<g id="node11" class="node"><title>1408164029392</title>
<ellipse fill="none" stroke="black" cx="352.557" cy="-450" rx="27" ry="18"/>
<text text-anchor="middle" x="352.557" y="-446.5" font-family="Times New Roman,serif" font-size="15.00">and</text>
</g>
<!-- 1408204690096&#45;&#45;1408164029392 -->
<g id="edge21" class="edge"><title>1408204690096&#45;&#45;1408164029392</title>
<path fill="none" stroke="black" d="M334.367,-504.055C338.14,-493.049 343.038,-478.764 346.801,-467.789"/>
</g>
<!-- 1408164029344 -->
<g id="node12" class="node"><title>1408164029344</title>
<ellipse fill="none" stroke="black" cx="298.557" cy="-378" rx="46.6143" ry="18"/>
<text text-anchor="middle" x="298.557" y="-374.5" font-family="Times New Roman,serif" font-size="15.00">xor loop</text>
</g>
<!-- 1408164029392&#45;&#45;1408164029344 -->
<g id="edge11" class="edge"><title>1408164029392&#45;&#45;1408164029344</title>
<path fill="none" stroke="black" d="M340.573,-433.465C331.873,-422.187 320.123,-406.955 311.26,-395.467"/>
</g>
<!-- 1408164030016 -->
<g id="node15" class="node"><title>1408164030016</title>
<ellipse fill="none" stroke="black" cx="407.557" cy="-378" rx="27" ry="18"/>
<text text-anchor="middle" x="407.557" y="-374.5" font-family="Times New Roman,serif" font-size="15.00">seq</text>
</g>
<!-- 1408164029392&#45;&#45;1408164030016 -->
<g id="edge20" class="edge"><title>1408164029392&#45;&#45;1408164030016</title>
<path fill="none" stroke="black" d="M364.491,-433.811C373.717,-422.07 386.427,-405.893 395.646,-394.159"/>
</g>
<!-- 1408180562912 -->
<g id="node13" class="node"><title>1408180562912</title>
<ellipse fill="black" stroke="black" cx="214.557" cy="-306" rx="2.7" ry="2.7"/>
</g>
<!-- 1408164029344&#45;&#45;1408180562912 -->
<g id="edge9" class="edge"><title>1408164029344&#45;&#45;1408180562912</title>
<path fill="none" stroke="black" d="M279.915,-361.465C258.261,-343.42 224.462,-315.254 216.35,-308.494"/>
</g>
<!-- 1408180562528 -->
<g id="node14" class="node"><title>1408180562528</title>
<ellipse fill="none" stroke="black" cx="281.557" cy="-306" rx="45.7249" ry="18"/>
<text text-anchor="middle" x="281.557" y="-302.5" font-family="Times New Roman,serif" font-size="15.00">Payment</text>
</g>
<!-- 1408164029344&#45;&#45;1408180562528 -->
<g id="edge10" class="edge"><title>1408164029344&#45;&#45;1408180562528</title>
<path fill="none" stroke="black" d="M294.442,-360.055C291.808,-349.211 288.402,-335.183 285.753,-324.275"/>
</g>
<!-- 1408180563008 -->
<g id="node16" class="node"><title>1408180563008</title>
<ellipse fill="none" stroke="black" cx="407.557" cy="-306" rx="61.6894" ry="18"/>
<text text-anchor="middle" x="407.557" y="-302.5" font-family="Times New Roman,serif" font-size="15.00">Add penalty</text>
</g>
<!-- 1408164030016&#45;&#45;1408180563008 -->
<g id="edge12" class="edge"><title>1408164030016&#45;&#45;1408180563008</title>
<path fill="none" stroke="black" d="M407.557,-359.697C407.557,-348.846 407.557,-334.917 407.557,-324.104"/>
</g>
<!-- 1408180563920 -->
<g id="node17" class="node"><title>1408180563920</title>
<ellipse fill="none" stroke="black" cx="514.557" cy="-306" rx="27" ry="18"/>
<text text-anchor="middle" x="514.557" y="-302.5" font-family="Times New Roman,serif" font-size="15.00">xor</text>
</g>
<!-- 1408164030016&#45;&#45;1408180563920 -->
<g id="edge19" class="edge"><title>1408164030016&#45;&#45;1408180563920</title>
<path fill="none" stroke="black" d="M426.195,-364.807C445.714,-352.037 476.2,-332.093 495.774,-319.288"/>
</g>
<!-- 1408180563392 -->
<g id="node18" class="node"><title>1408180563392</title>
<ellipse fill="black" stroke="black" cx="466.557" cy="-234" rx="2.7" ry="2.7"/>
</g>
<!-- 1408180563920&#45;&#45;1408180563392 -->
<g id="edge13" class="edge"><title>1408180563920&#45;&#45;1408180563392</title>
<path fill="none" stroke="black" d="M503.665,-289.116C491.495,-271.367 472.837,-244.158 467.83,-236.857"/>
</g>
<!-- 1408180563488 -->
<g id="node19" class="node"><title>1408180563488</title>
<ellipse fill="none" stroke="black" cx="514.557" cy="-234" rx="27" ry="18"/>
<text text-anchor="middle" x="514.557" y="-230.5" font-family="Times New Roman,serif" font-size="15.00">seq</text>
</g>
<!-- 1408180563920&#45;&#45;1408180563488 -->
<g id="edge18" class="edge"><title>1408180563920&#45;&#45;1408180563488</title>
<path fill="none" stroke="black" d="M514.557,-287.697C514.557,-276.846 514.557,-262.917 514.557,-252.104"/>
</g>
<!-- 1408180563440 -->
<g id="node20" class="node"><title>1408180563440</title>
<ellipse fill="none" stroke="black" cx="348.557" cy="-162" rx="120.819" ry="18"/>
<text text-anchor="middle" x="348.557" y="-158.5" font-family="Times New Roman,serif" font-size="15.00">Send for Credit Collection</text>
</g>
<!-- 1408180563488&#45;&#45;1408180563440 -->
<g id="edge14" class="edge"><title>1408180563488&#45;&#45;1408180563440</title>
<path fill="none" stroke="black" d="M492.17,-223.559C465.178,-212.177 419.382,-192.866 386.763,-179.111"/>
</g>
<!-- 1408180563200 -->
<g id="node21" class="node"><title>1408180563200</title>
<ellipse fill="none" stroke="black" cx="514.557" cy="-162" rx="27" ry="18"/>
<text text-anchor="middle" x="514.557" y="-158.5" font-family="Times New Roman,serif" font-size="15.00">xor</text>
</g>
<!-- 1408180563488&#45;&#45;1408180563200 -->
<g id="edge17" class="edge"><title>1408180563488&#45;&#45;1408180563200</title>
<path fill="none" stroke="black" d="M514.557,-215.697C514.557,-204.846 514.557,-190.917 514.557,-180.104"/>
</g>
<!-- 1408180562672 -->
<g id="node22" class="node"><title>1408180562672</title>
<ellipse fill="black" stroke="black" cx="386.557" cy="-90" rx="2.7" ry="2.7"/>
</g>
<!-- 1408180563200&#45;&#45;1408180562672 -->
<g id="edge15" class="edge"><title>1408180563200&#45;&#45;1408180562672</title>
<path fill="none" stroke="black" d="M494.275,-149.908C461.848,-132.175 400.74,-98.756 388.661,-92.1507"/>
</g>
<!-- 1408180562720 -->
<g id="node23" class="node"><title>1408180562720</title>
<ellipse fill="none" stroke="black" cx="527.557" cy="-90" rx="120.43" ry="18"/>
<text text-anchor="middle" x="527.557" y="-86.5" font-family="Times New Roman,serif" font-size="15.00">Send Appeal to Prefecture</text>
</g>
<!-- 1408180563200&#45;&#45;1408180562720 -->
<g id="edge16" class="edge"><title>1408180563200&#45;&#45;1408180562720</title>
<path fill="none" stroke="black" d="M517.704,-144.055C519.718,-133.211 522.323,-119.183 524.349,-108.275"/>
</g>
<!-- 1408204693456 -->
<g id="node25" class="node"><title>1408204693456</title>
<ellipse fill="none" stroke="black" cx="627.557" cy="-450" rx="59.5207" ry="18"/>
<text text-anchor="middle" x="627.557" y="-446.5" font-family="Times New Roman,serif" font-size="15.00">Create Fine</text>
</g>
<!-- 1408204692304&#45;&#45;1408204693456 -->
<g id="edge23" class="edge"><title>1408204692304&#45;&#45;1408204693456</title>
<path fill="none" stroke="black" d="M627.557,-503.697C627.557,-492.846 627.557,-478.917 627.557,-468.104"/>
</g>
<!-- 1408199206032 -->
<g id="node26" class="node"><title>1408199206032</title>
<ellipse fill="none" stroke="black" cx="888.557" cy="-450" rx="27" ry="18"/>
<text text-anchor="middle" x="888.557" y="-446.5" font-family="Times New Roman,serif" font-size="15.00">seq</text>
</g>
<!-- 1408204692304&#45;&#45;1408199206032 -->
<g id="edge59" class="edge"><title>1408204692304&#45;&#45;1408199206032</title>
<path fill="none" stroke="black" d="M652.111,-514.415C701.856,-501.073 814.029,-470.988 863.878,-457.619"/>
</g>
<!-- 1408199206176 -->
<g id="node27" class="node"><title>1408199206176</title>
<ellipse fill="none" stroke="black" cx="888.557" cy="-378" rx="46.6143" ry="18"/>
<text text-anchor="middle" x="888.557" y="-374.5" font-family="Times New Roman,serif" font-size="15.00">xor loop</text>
</g>
<!-- 1408199206032&#45;&#45;1408199206176 -->
<g id="edge55" class="edge"><title>1408199206032&#45;&#45;1408199206176</title>
<path fill="none" stroke="black" d="M888.557,-431.697C888.557,-420.846 888.557,-406.917 888.557,-396.104"/>
</g>
<!-- 1408199206944 -->
<g id="node59" class="node"><title>1408199206944</title>
<ellipse fill="none" stroke="black" cx="980.557" cy="-378" rx="27" ry="18"/>
<text text-anchor="middle" x="980.557" y="-374.5" font-family="Times New Roman,serif" font-size="15.00">xor</text>
</g>
<!-- 1408199206032&#45;&#45;1408199206944 -->
<g id="edge58" class="edge"><title>1408199206032&#45;&#45;1408199206944</title>
<path fill="none" stroke="black" d="M905.862,-435.834C922.31,-423.319 946.908,-404.603 963.33,-392.107"/>
</g>
<!-- 1408199207856 -->
<g id="node28" class="node"><title>1408199207856</title>
<ellipse fill="none" stroke="black" cx="888.557" cy="-306" rx="27" ry="18"/>
<text text-anchor="middle" x="888.557" y="-302.5" font-family="Times New Roman,serif" font-size="15.00">seq</text>
</g>
<!-- 1408199206176&#45;&#45;1408199207856 -->
<g id="edge53" class="edge"><title>1408199206176&#45;&#45;1408199207856</title>
<path fill="none" stroke="black" d="M888.557,-359.697C888.557,-348.846 888.557,-334.917 888.557,-324.104"/>
</g>
<!-- 1408199207712 -->
<g id="node58" class="node"><title>1408199207712</title>
<ellipse fill="black" stroke="black" cx="936.557" cy="-306" rx="2.7" ry="2.7"/>
</g>
<!-- 1408199206176&#45;&#45;1408199207712 -->
<g id="edge54" class="edge"><title>1408199206176&#45;&#45;1408199207712</title>
<path fill="none" stroke="black" d="M899.932,-360.411C912.131,-342.622 930.411,-315.962 935.312,-308.816"/>
</g>
<!-- 1408199205120 -->
<g id="node29" class="node"><title>1408199205120</title>
<ellipse fill="none" stroke="black" cx="636.557" cy="-234" rx="27" ry="18"/>
<text text-anchor="middle" x="636.557" y="-230.5" font-family="Times New Roman,serif" font-size="15.00">xor</text>
</g>
<!-- 1408199207856&#45;&#45;1408199205120 -->
<g id="edge26" class="edge"><title>1408199207856&#45;&#45;1408199205120</title>
<path fill="none" stroke="black" d="M863.935,-298.161C815.759,-284.778 709.535,-255.272 661.279,-241.867"/>
</g>
<!-- 1408199206080 -->
<g id="node32" class="node"><title>1408199206080</title>
<ellipse fill="none" stroke="black" cx="777.557" cy="-234" rx="27" ry="18"/>
<text text-anchor="middle" x="777.557" y="-230.5" font-family="Times New Roman,serif" font-size="15.00">xor</text>
</g>
<!-- 1408199207856&#45;&#45;1408199206080 -->
<g id="edge34" class="edge"><title>1408199207856&#45;&#45;1408199206080</title>
<path fill="none" stroke="black" d="M869.476,-292.967C849.144,-280.145 817.139,-259.962 796.761,-247.111"/>
</g>
<!-- 1408199205792 -->
<g id="node40" class="node"><title>1408199205792</title>
<ellipse fill="none" stroke="black" cx="888.557" cy="-234" rx="27" ry="18"/>
<text text-anchor="middle" x="888.557" y="-230.5" font-family="Times New Roman,serif" font-size="15.00">xor</text>
</g>
<!-- 1408199207856&#45;&#45;1408199205792 -->
<g id="edge37" class="edge"><title>1408199207856&#45;&#45;1408199205792</title>
<path fill="none" stroke="black" d="M888.557,-287.697C888.557,-276.846 888.557,-262.917 888.557,-252.104"/>
</g>
<!-- 1408199206416 -->
<g id="node43" class="node"><title>1408199206416</title>
<ellipse fill="none" stroke="black" cx="1010.56" cy="-234" rx="27" ry="18"/>
<text text-anchor="middle" x="1010.56" y="-230.5" font-family="Times New Roman,serif" font-size="15.00">xor</text>
</g>
<!-- 1408199207856&#45;&#45;1408199206416 -->
<g id="edge46" class="edge"><title>1408199207856&#45;&#45;1408199206416</title>
<path fill="none" stroke="black" d="M908.43,-293.597C931.117,-280.581 968.01,-259.413 990.693,-246.398"/>
</g>
<!-- 1408199205360 -->
<g id="node52" class="node"><title>1408199205360</title>
<ellipse fill="none" stroke="black" cx="1106.56" cy="-234" rx="27" ry="18"/>
<text text-anchor="middle" x="1106.56" y="-230.5" font-family="Times New Roman,serif" font-size="15.00">xor</text>
</g>
<!-- 1408199207856&#45;&#45;1408199205360 -->
<g id="edge49" class="edge"><title>1408199207856&#45;&#45;1408199205360</title>
<path fill="none" stroke="black" d="M912.302,-297.376C954.236,-283.91 1040.93,-256.073 1082.84,-242.615"/>
</g>
<!-- 1408164031408 -->
<g id="node55" class="node"><title>1408164031408</title>
<ellipse fill="none" stroke="black" cx="1444.56" cy="-234" rx="27" ry="18"/>
<text text-anchor="middle" x="1444.56" y="-230.5" font-family="Times New Roman,serif" font-size="15.00">xor</text>
</g>
<!-- 1408199207856&#45;&#45;1408164031408 -->
<g id="edge52" class="edge"><title>1408199207856&#45;&#45;1408164031408</title>
<path fill="none" stroke="black" d="M915,-301.671C1008.77,-289.865 1324.76,-250.082 1418.28,-238.309"/>
</g>
<!-- 1408199205552 -->
<g id="node30" class="node"><title>1408199205552</title>
<ellipse fill="black" stroke="black" cx="562.557" cy="-162" rx="2.7" ry="2.7"/>
</g>
<!-- 1408199205120&#45;&#45;1408199205552 -->
<g id="edge24" class="edge"><title>1408199205120&#45;&#45;1408199205552</title>
<path fill="none" stroke="black" d="M621.582,-218.834C602.662,-200.937 571.661,-171.612 564.206,-164.56"/>
</g>
<!-- 1408199208672 -->
<g id="node31" class="node"><title>1408199208672</title>
<ellipse fill="none" stroke="black" cx="636.557" cy="-162" rx="52.6228" ry="18"/>
<text text-anchor="middle" x="636.557" y="-158.5" font-family="Times New Roman,serif" font-size="15.00">Send Fine</text>
</g>
<!-- 1408199205120&#45;&#45;1408199208672 -->
<g id="edge25" class="edge"><title>1408199205120&#45;&#45;1408199208672</title>
<path fill="none" stroke="black" d="M636.557,-215.697C636.557,-204.846 636.557,-190.917 636.557,-180.104"/>
</g>
<!-- 1408199207280 -->
<g id="node33" class="node"><title>1408199207280</title>
<ellipse fill="black" stroke="black" cx="710.557" cy="-162" rx="2.7" ry="2.7"/>
</g>
<!-- 1408199206080&#45;&#45;1408199207280 -->
<g id="edge27" class="edge"><title>1408199206080&#45;&#45;1408199207280</title>
<path fill="none" stroke="black" d="M763.675,-218.496C746.503,-200.555 718.714,-171.522 712.035,-164.544"/>
</g>
<!-- 1408199208624 -->
<g id="node34" class="node"><title>1408199208624</title>
<ellipse fill="none" stroke="black" cx="777.557" cy="-162" rx="46.6143" ry="18"/>
<text text-anchor="middle" x="777.557" y="-158.5" font-family="Times New Roman,serif" font-size="15.00">xor loop</text>
</g>
<!-- 1408199206080&#45;&#45;1408199208624 -->
<g id="edge33" class="edge"><title>1408199206080&#45;&#45;1408199208624</title>
<path fill="none" stroke="black" d="M777.557,-215.697C777.557,-204.846 777.557,-190.917 777.557,-180.104"/>
</g>
<!-- 1408199205696 -->
<g id="node35" class="node"><title>1408199205696</title>
<ellipse fill="none" stroke="black" cx="704.557" cy="-90" rx="27" ry="18"/>
<text text-anchor="middle" x="704.557" y="-86.5" font-family="Times New Roman,serif" font-size="15.00">xor</text>
</g>
<!-- 1408199208624&#45;&#45;1408199205696 -->
<g id="edge31" class="edge"><title>1408199208624&#45;&#45;1408199205696</title>
<path fill="none" stroke="black" d="M760.992,-145.116C748.541,-133.176 731.624,-116.954 719.567,-105.393"/>
</g>
<!-- 1408199206368 -->
<g id="node39" class="node"><title>1408199206368</title>
<ellipse fill="black" stroke="black" cx="777.557" cy="-90" rx="2.7" ry="2.7"/>
</g>
<!-- 1408199208624&#45;&#45;1408199206368 -->
<g id="edge32" class="edge"><title>1408199208624&#45;&#45;1408199206368</title>
<path fill="none" stroke="black" d="M777.557,-143.697C777.557,-125.883 777.557,-99.7686 777.557,-92.7764"/>
</g>
<!-- 1408199207616 -->
<g id="node36" class="node"><title>1408199207616</title>
<ellipse fill="none" stroke="black" cx="380.557" cy="-18" rx="45.7249" ry="18"/>
<text text-anchor="middle" x="380.557" y="-14.5" font-family="Times New Roman,serif" font-size="15.00">Payment</text>
</g>
<!-- 1408199205696&#45;&#45;1408199207616 -->
<g id="edge28" class="edge"><title>1408199205696&#45;&#45;1408199207616</title>
<path fill="none" stroke="black" d="M679.133,-83.5072C622.743,-71.3242 486.875,-41.9699 419.619,-27.4393"/>
</g>
<!-- 1408199207760 -->
<g id="node37" class="node"><title>1408199207760</title>
<ellipse fill="none" stroke="black" cx="552.557" cy="-18" rx="107.914" ry="18"/>
<text text-anchor="middle" x="552.557" y="-14.5" font-family="Times New Roman,serif" font-size="15.00">Insert Fine Notification</text>
</g>
<!-- 1408199205696&#45;&#45;1408199207760 -->
<g id="edge29" class="edge"><title>1408199205696&#45;&#45;1408199207760</title>
<path fill="none" stroke="black" d="M682.779,-78.9707C657.906,-67.5161 616.866,-48.6159 587.505,-35.0944"/>
</g>
<!-- 1408199208528 -->
<g id="node38" class="node"><title>1408199208528</title>
<ellipse fill="none" stroke="black" cx="822.557" cy="-18" rx="144.571" ry="18"/>
<text text-anchor="middle" x="822.557" y="-14.5" font-family="Times New Roman,serif" font-size="15.00">Insert Date Appeal to Prefecture</text>
</g>
<!-- 1408199205696&#45;&#45;1408199208528 -->
<g id="edge30" class="edge"><title>1408199205696&#45;&#45;1408199208528</title>
<path fill="none" stroke="black" d="M724.042,-77.4409C743.157,-66.102 772.511,-48.6882 794.209,-35.8168"/>
</g>
<!-- 1408199208048 -->
<g id="node41" class="node"><title>1408199208048</title>
<ellipse fill="black" stroke="black" cx="844.557" cy="-162" rx="2.7" ry="2.7"/>
</g>
<!-- 1408199205792&#45;&#45;1408199208048 -->
<g id="edge35" class="edge"><title>1408199205792&#45;&#45;1408199208048</title>
<path fill="none" stroke="black" d="M878.573,-217.116C867.417,-199.367 850.314,-172.158 845.724,-164.857"/>
</g>
<!-- 1408164028816 -->
<g id="node42" class="node"><title>1408164028816</title>
<ellipse fill="none" stroke="black" cx="927.557" cy="-162" rx="61.6894" ry="18"/>
<text text-anchor="middle" x="927.557" y="-158.5" font-family="Times New Roman,serif" font-size="15.00">Add penalty</text>
</g>
<!-- 1408199205792&#45;&#45;1408164028816 -->
<g id="edge36" class="edge"><title>1408199205792&#45;&#45;1408164028816</title>
<path fill="none" stroke="black" d="M897.603,-216.765C903.723,-205.779 911.795,-191.292 918.017,-180.124"/>
</g>
<!-- 1408164030640 -->
<g id="node44" class="node"><title>1408164030640</title>
<ellipse fill="black" stroke="black" cx="1010.56" cy="-162" rx="2.7" ry="2.7"/>
</g>
<!-- 1408199206416&#45;&#45;1408164030640 -->
<g id="edge38" class="edge"><title>1408199206416&#45;&#45;1408164030640</title>
<path fill="none" stroke="black" d="M1010.56,-215.697C1010.56,-197.883 1010.56,-171.769 1010.56,-164.776"/>
</g>
<!-- 1408164030976 -->
<g id="node45" class="node"><title>1408164030976</title>
<ellipse fill="none" stroke="black" cx="1058.56" cy="-162" rx="27" ry="18"/>
<text text-anchor="middle" x="1058.56" y="-158.5" font-family="Times New Roman,serif" font-size="15.00">and</text>
</g>
<!-- 1408199206416&#45;&#45;1408164030976 -->
<g id="edge45" class="edge"><title>1408199206416&#45;&#45;1408164030976</title>
<path fill="none" stroke="black" d="M1021.45,-217.116C1029.3,-205.66 1039.86,-190.263 1047.71,-178.821"/>
</g>
<!-- 1408164031120 -->
<g id="node46" class="node"><title>1408164031120</title>
<ellipse fill="none" stroke="black" cx="1058.56" cy="-90" rx="27" ry="18"/>
<text text-anchor="middle" x="1058.56" y="-86.5" font-family="Times New Roman,serif" font-size="15.00">xor</text>
</g>
<!-- 1408164030976&#45;&#45;1408164031120 -->
<g id="edge41" class="edge"><title>1408164030976&#45;&#45;1408164031120</title>
<path fill="none" stroke="black" d="M1058.56,-143.697C1058.56,-132.846 1058.56,-118.917 1058.56,-108.104"/>
</g>
<!-- 1408164029104 -->
<g id="node49" class="node"><title>1408164029104</title>
<ellipse fill="none" stroke="black" cx="1269.56" cy="-90" rx="27" ry="18"/>
<text text-anchor="middle" x="1269.56" y="-86.5" font-family="Times New Roman,serif" font-size="15.00">xor</text>
</g>
<!-- 1408164030976&#45;&#45;1408164029104 -->
<g id="edge44" class="edge"><title>1408164030976&#45;&#45;1408164029104</title>
<path fill="none" stroke="black" d="M1082.35,-153.106C1122.98,-139.626 1205.28,-112.325 1245.85,-98.865"/>
</g>
<!-- 1408164030352 -->
<g id="node47" class="node"><title>1408164030352</title>
<ellipse fill="black" stroke="black" cx="987.557" cy="-18" rx="2.7" ry="2.7"/>
</g>
<!-- 1408164031120&#45;&#45;1408164030352 -->
<g id="edge39" class="edge"><title>1408164031120&#45;&#45;1408164030352</title>
<path fill="none" stroke="black" d="M1043.85,-74.496C1025.65,-56.5555 996.201,-27.5217 989.123,-20.5436"/>
</g>
<!-- 1408164031216 -->
<g id="node48" class="node"><title>1408164031216</title>
<ellipse fill="none" stroke="black" cx="1128.56" cy="-18" rx="120.43" ry="18"/>
<text text-anchor="middle" x="1128.56" y="-14.5" font-family="Times New Roman,serif" font-size="15.00">Send Appeal to Prefecture</text>
</g>
<!-- 1408164031120&#45;&#45;1408164031216 -->
<g id="edge40" class="edge"><title>1408164031120&#45;&#45;1408164031216</title>
<path fill="none" stroke="black" d="M1073.06,-74.496C1084.27,-63.2831 1099.82,-47.737 1111.61,-35.9506"/>
</g>
<!-- 1408164029440 -->
<g id="node50" class="node"><title>1408164029440</title>
<ellipse fill="black" stroke="black" cx="1269.56" cy="-18" rx="2.7" ry="2.7"/>
</g>
<!-- 1408164029104&#45;&#45;1408164029440 -->
<g id="edge42" class="edge"><title>1408164029104&#45;&#45;1408164029440</title>
<path fill="none" stroke="black" d="M1269.56,-71.6966C1269.56,-53.8826 1269.56,-27.7686 1269.56,-20.7764"/>
</g>
<!-- 1408164029008 -->
<g id="node51" class="node"><title>1408164029008</title>
<ellipse fill="none" stroke="black" cx="1463.56" cy="-18" rx="173.941" ry="18"/>
<text text-anchor="middle" x="1463.56" y="-14.5" font-family="Times New Roman,serif" font-size="15.00">Receive Result Appeal from Prefecture</text>
</g>
<!-- 1408164029104&#45;&#45;1408164029008 -->
<g id="edge43" class="edge"><title>1408164029104&#45;&#45;1408164029008</title>
<path fill="none" stroke="black" d="M1292.96,-80.5564C1323.8,-69.4293 1378.71,-49.615 1417.91,-35.472"/>
</g>
<!-- 1408164028912 -->
<g id="node53" class="node"><title>1408164028912</title>
<ellipse fill="black" stroke="black" cx="1106.56" cy="-162" rx="2.7" ry="2.7"/>
</g>
<!-- 1408199205360&#45;&#45;1408164028912 -->
<g id="edge47" class="edge"><title>1408199205360&#45;&#45;1408164028912</title>
<path fill="none" stroke="black" d="M1106.56,-215.697C1106.56,-197.883 1106.56,-171.769 1106.56,-164.776"/>
</g>
<!-- 1408164030688 -->
<g id="node54" class="node"><title>1408164030688</title>
<ellipse fill="none" stroke="black" cx="1275.56" cy="-162" rx="148.91" ry="18"/>
<text text-anchor="middle" x="1275.56" y="-158.5" font-family="Times New Roman,serif" font-size="15.00">Notify Result Appeal to Offender</text>
</g>
<!-- 1408199205360&#45;&#45;1408164030688 -->
<g id="edge48" class="edge"><title>1408199205360&#45;&#45;1408164030688</title>
<path fill="none" stroke="black" d="M1129,-223.705C1156.2,-212.436 1202.54,-193.245 1235.83,-179.454"/>
</g>
<!-- 1408164030736 -->
<g id="node56" class="node"><title>1408164030736</title>
<ellipse fill="black" stroke="black" cx="1444.56" cy="-162" rx="2.7" ry="2.7"/>
</g>
<!-- 1408164031408&#45;&#45;1408164030736 -->
<g id="edge50" class="edge"><title>1408164031408&#45;&#45;1408164030736</title>
<path fill="none" stroke="black" d="M1444.56,-215.697C1444.56,-197.883 1444.56,-171.769 1444.56,-164.776"/>
</g>
<!-- 1408164030304 -->
<g id="node57" class="node"><title>1408164030304</title>
<ellipse fill="none" stroke="black" cx="1543.56" cy="-162" rx="78.5434" ry="18"/>
<text text-anchor="middle" x="1543.56" y="-158.5" font-family="Times New Roman,serif" font-size="15.00">Appeal to Judge</text>
</g>
<!-- 1408164031408&#45;&#45;1408164030304 -->
<g id="edge51" class="edge"><title>1408164031408&#45;&#45;1408164030304</title>
<path fill="none" stroke="black" d="M1462.72,-220.161C1478.9,-208.715 1502.69,-191.897 1520.27,-179.464"/>
</g>
<!-- 1408164030208 -->
<g id="node60" class="node"><title>1408164030208</title>
<ellipse fill="black" stroke="black" cx="970.557" cy="-306" rx="2.7" ry="2.7"/>
</g>
<!-- 1408199206944&#45;&#45;1408164030208 -->
<g id="edge56" class="edge"><title>1408199206944&#45;&#45;1408164030208</title>
<path fill="none" stroke="black" d="M978.136,-360.055C975.593,-342.252 971.824,-315.865 970.814,-308.796"/>
</g>
<!-- 1408164028720 -->
<g id="node61" class="node"><title>1408164028720</title>
<ellipse fill="none" stroke="black" cx="1112.56" cy="-306" rx="120.819" ry="18"/>
<text text-anchor="middle" x="1112.56" y="-302.5" font-family="Times New Roman,serif" font-size="15.00">Send for Credit Collection</text>
</g>
<!-- 1408199206944&#45;&#45;1408164028720 -->
<g id="edge57" class="edge"><title>1408199206944&#45;&#45;1408164028720</title>
<path fill="none" stroke="black" d="M1001.18,-366.063C1022.65,-354.681 1056.52,-336.719 1081.27,-323.589"/>
</g>
</g>
</svg>
