<?xml version="1.0" encoding="UTF-8" standalone="no"?>
<!DOCTYPE svg PUBLIC "-//W3C//DTD SVG 1.1//EN"
 "http://www.w3.org/Graphics/SVG/1.1/DTD/svg11.dtd">
<!-- Generated by graphviz version 2.38.0 (20140413.2041)
 -->
<!-- Title: pt Pages: 1 -->
<svg width="2217pt" height="620pt"
 viewBox="0.00 0.00 2216.56 620.00" xmlns="http://www.w3.org/2000/svg" xmlns:xlink="http://www.w3.org/1999/xlink">
<g id="graph0" class="graph" transform="scale(1 1) rotate(0) translate(4 616)">
<title>pt</title>
<!-- 1408183784784 -->
<g id="node1" class="node"><title>1408183784784</title>
<ellipse fill="none" stroke="black" cx="394.7" cy="-594" rx="27" ry="18"/>
<text text-anchor="middle" x="394.7" y="-590.5" font-family="Times New Roman,serif" font-size="15.00">seq</text>
</g>
<!-- 1408183785024 -->
<g id="node2" class="node"><title>1408183785024</title>
<ellipse fill="none" stroke="black" cx="253.7" cy="-522" rx="59.5207" ry="18"/>
<text text-anchor="middle" x="253.7" y="-518.5" font-family="Times New Roman,serif" font-size="15.00">Create Fine</text>
</g>
<!-- 1408183784784&#45;&#45;1408183785024 -->
<g id="edge1" class="edge"><title>1408183784784&#45;&#45;1408183785024</title>
<path fill="none" stroke="black" d="M373.591,-582.52C349.622,-570.621 310.345,-551.122 283.317,-537.704"/>
</g>
<!-- 1408183785168 -->
<g id="node3" class="node"><title>1408183785168</title>
<ellipse fill="none" stroke="black" cx="358.7" cy="-522" rx="27" ry="18"/>
<text text-anchor="middle" x="358.7" y="-518.5" font-family="Times New Roman,serif" font-size="15.00">xor</text>
</g>
<!-- 1408183784784&#45;&#45;1408183785168 -->
<g id="edge4" class="edge"><title>1408183784784&#45;&#45;1408183785168</title>
<path fill="none" stroke="black" d="M386.35,-576.765C380.535,-565.456 372.81,-550.437 367.004,-539.147"/>
</g>
<!-- 1408183785360 -->
<g id="node6" class="node"><title>1408183785360</title>
<ellipse fill="none" stroke="black" cx="430.7" cy="-522" rx="27" ry="18"/>
<text text-anchor="middle" x="430.7" y="-518.5" font-family="Times New Roman,serif" font-size="15.00">xor</text>
</g>
<!-- 1408183784784&#45;&#45;1408183785360 -->
<g id="edge7" class="edge"><title>1408183784784&#45;&#45;1408183785360</title>
<path fill="none" stroke="black" d="M403.05,-576.765C408.865,-565.456 416.59,-550.437 422.396,-539.147"/>
</g>
<!-- 1408183785600 -->
<g id="node9" class="node"><title>1408183785600</title>
<ellipse fill="none" stroke="black" cx="573.7" cy="-522" rx="27" ry="18"/>
<text text-anchor="middle" x="573.7" y="-518.5" font-family="Times New Roman,serif" font-size="15.00">xor</text>
</g>
<!-- 1408183784784&#45;&#45;1408183785600 -->
<g id="edge46" class="edge"><title>1408183784784&#45;&#45;1408183785600</title>
<path fill="none" stroke="black" d="M417.37,-584.134C451.708,-570.706 516.536,-545.355 550.932,-531.904"/>
</g>
<!-- 1408183785408 -->
<g id="node4" class="node"><title>1408183785408</title>
<ellipse fill="black" stroke="black" cx="291.7" cy="-450" rx="2.7" ry="2.7"/>
</g>
<!-- 1408183785168&#45;&#45;1408183785408 -->
<g id="edge2" class="edge"><title>1408183785168&#45;&#45;1408183785408</title>
<path fill="none" stroke="black" d="M344.818,-506.496C327.646,-488.555 299.857,-459.522 293.177,-452.544"/>
</g>
<!-- 1408183785264 -->
<g id="node5" class="node"><title>1408183785264</title>
<ellipse fill="none" stroke="black" cx="358.7" cy="-450" rx="45.7249" ry="18"/>
<text text-anchor="middle" x="358.7" y="-446.5" font-family="Times New Roman,serif" font-size="15.00">Payment</text>
</g>
<!-- 1408183785168&#45;&#45;1408183785264 -->
<g id="edge3" class="edge"><title>1408183785168&#45;&#45;1408183785264</title>
<path fill="none" stroke="black" d="M358.7,-503.697C358.7,-492.846 358.7,-478.917 358.7,-468.104"/>
</g>
<!-- 1408183785648 -->
<g id="node7" class="node"><title>1408183785648</title>
<ellipse fill="black" stroke="black" cx="425.7" cy="-450" rx="2.7" ry="2.7"/>
</g>
<!-- 1408183785360&#45;&#45;1408183785648 -->
<g id="edge5" class="edge"><title>1408183785360&#45;&#45;1408183785648</title>
<path fill="none" stroke="black" d="M429.464,-503.697C428.192,-485.883 426.326,-459.769 425.827,-452.776"/>
</g>
<!-- 1408183785744 -->
<g id="node8" class="node"><title>1408183785744</title>
<ellipse fill="none" stroke="black" cx="499.7" cy="-450" rx="52.6228" ry="18"/>
<text text-anchor="middle" x="499.7" y="-446.5" font-family="Times New Roman,serif" font-size="15.00">Send Fine</text>
</g>
<!-- 1408183785360&#45;&#45;1408183785744 -->
<g id="edge6" class="edge"><title>1408183785360&#45;&#45;1408183785744</title>
<path fill="none" stroke="black" d="M444.997,-506.496C456.286,-495.043 472.032,-479.069 483.733,-467.198"/>
</g>
<!-- 1408183785936 -->
<g id="node10" class="node"><title>1408183785936</title>
<ellipse fill="black" stroke="black" cx="573.7" cy="-450" rx="2.7" ry="2.7"/>
</g>
<!-- 1408183785600&#45;&#45;1408183785936 -->
<g id="edge8" class="edge"><title>1408183785600&#45;&#45;1408183785936</title>
<path fill="none" stroke="black" d="M573.7,-503.697C573.7,-485.883 573.7,-459.769 573.7,-452.776"/>
</g>
<!-- 1408183786032 -->
<g id="node11" class="node"><title>1408183786032</title>
<ellipse fill="none" stroke="black" cx="621.7" cy="-450" rx="27" ry="18"/>
<text text-anchor="middle" x="621.7" y="-446.5" font-family="Times New Roman,serif" font-size="15.00">seq</text>
</g>
<!-- 1408183785600&#45;&#45;1408183786032 -->
<g id="edge45" class="edge"><title>1408183785600&#45;&#45;1408183786032</title>
<path fill="none" stroke="black" d="M584.592,-505.116C592.447,-493.66 603.006,-478.263 610.851,-466.821"/>
</g>
<!-- 1408183786320 -->
<g id="node12" class="node"><title>1408183786320</title>
<ellipse fill="none" stroke="black" cx="419.7" cy="-378" rx="27" ry="18"/>
<text text-anchor="middle" x="419.7" y="-374.5" font-family="Times New Roman,serif" font-size="15.00">seq</text>
</g>
<!-- 1408183786032&#45;&#45;1408183786320 -->
<g id="edge25" class="edge"><title>1408183786032&#45;&#45;1408183786320</title>
<path fill="none" stroke="black" d="M598.133,-440.833C559.209,-427.345 481.942,-400.569 443.117,-387.115"/>
</g>
<!-- 1408183786944 -->
<g id="node29" class="node"><title>1408183786944</title>
<ellipse fill="none" stroke="black" cx="814.7" cy="-378" rx="27" ry="18"/>
<text text-anchor="middle" x="814.7" y="-374.5" font-family="Times New Roman,serif" font-size="15.00">xor</text>
</g>
<!-- 1408183786032&#45;&#45;1408183786944 -->
<g id="edge44" class="edge"><title>1408183786032&#45;&#45;1408183786944</title>
<path fill="none" stroke="black" d="M644.98,-440.556C682.176,-427.066 754.58,-400.805 791.638,-387.365"/>
</g>
<!-- 1408183786896 -->
<g id="node13" class="node"><title>1408183786896</title>
<ellipse fill="none" stroke="black" cx="130.7" cy="-306" rx="27" ry="18"/>
<text text-anchor="middle" x="130.7" y="-302.5" font-family="Times New Roman,serif" font-size="15.00">xor</text>
</g>
<!-- 1408183786320&#45;&#45;1408183786896 -->
<g id="edge11" class="edge"><title>1408183786320&#45;&#45;1408183786896</title>
<path fill="none" stroke="black" d="M394.81,-370.971C340.18,-357.739 210.301,-326.281 155.633,-313.039"/>
</g>
<!-- 1408183787088 -->
<g id="node16" class="node"><title>1408183787088</title>
<ellipse fill="none" stroke="black" cx="357.7" cy="-306" rx="27" ry="18"/>
<text text-anchor="middle" x="357.7" y="-302.5" font-family="Times New Roman,serif" font-size="15.00">xor</text>
</g>
<!-- 1408183786320&#45;&#45;1408183787088 -->
<g id="edge14" class="edge"><title>1408183786320&#45;&#45;1408183787088</title>
<path fill="none" stroke="black" d="M406.551,-362.155C396.03,-350.276 381.346,-333.697 370.83,-321.824"/>
</g>
<!-- 1408183787376 -->
<g id="node19" class="node"><title>1408183787376</title>
<ellipse fill="none" stroke="black" cx="481.7" cy="-306" rx="27" ry="18"/>
<text text-anchor="middle" x="481.7" y="-302.5" font-family="Times New Roman,serif" font-size="15.00">and</text>
</g>
<!-- 1408183786320&#45;&#45;1408183787376 -->
<g id="edge24" class="edge"><title>1408183786320&#45;&#45;1408183787376</title>
<path fill="none" stroke="black" d="M432.849,-362.155C443.37,-350.276 458.054,-333.697 468.57,-321.824"/>
</g>
<!-- 1408183787232 -->
<g id="node14" class="node"><title>1408183787232</title>
<ellipse fill="black" stroke="black" cx="2.7" cy="-234" rx="2.7" ry="2.7"/>
</g>
<!-- 1408183786896&#45;&#45;1408183787232 -->
<g id="edge9" class="edge"><title>1408183786896&#45;&#45;1408183787232</title>
<path fill="none" stroke="black" d="M110.418,-293.908C77.9911,-276.175 16.8824,-242.756 4.80418,-236.151"/>
</g>
<!-- 1408183787328 -->
<g id="node15" class="node"><title>1408183787328</title>
<ellipse fill="none" stroke="black" cx="130.7" cy="-234" rx="107.914" ry="18"/>
<text text-anchor="middle" x="130.7" y="-230.5" font-family="Times New Roman,serif" font-size="15.00">Insert Fine Notification</text>
</g>
<!-- 1408183786896&#45;&#45;1408183787328 -->
<g id="edge10" class="edge"><title>1408183786896&#45;&#45;1408183787328</title>
<path fill="none" stroke="black" d="M130.7,-287.697C130.7,-276.846 130.7,-262.917 130.7,-252.104"/>
</g>
<!-- 1408183787472 -->
<g id="node17" class="node"><title>1408183787472</title>
<ellipse fill="black" stroke="black" cx="258.7" cy="-234" rx="2.7" ry="2.7"/>
</g>
<!-- 1408183787088&#45;&#45;1408183787472 -->
<g id="edge12" class="edge"><title>1408183787088&#45;&#45;1408183787472</title>
<path fill="none" stroke="black" d="M339.542,-292.161C314.087,-274.163 269.849,-242.883 260.476,-236.256"/>
</g>
<!-- 1408183786416 -->
<g id="node18" class="node"><title>1408183786416</title>
<ellipse fill="none" stroke="black" cx="357.7" cy="-234" rx="78.5434" ry="18"/>
<text text-anchor="middle" x="357.7" y="-230.5" font-family="Times New Roman,serif" font-size="15.00">Appeal to Judge</text>
</g>
<!-- 1408183787088&#45;&#45;1408183786416 -->
<g id="edge13" class="edge"><title>1408183787088&#45;&#45;1408183786416</title>
<path fill="none" stroke="black" d="M357.7,-287.697C357.7,-276.846 357.7,-262.917 357.7,-252.104"/>
</g>
<!-- 1408183636080 -->
<g id="node20" class="node"><title>1408183636080</title>
<ellipse fill="none" stroke="black" cx="481.7" cy="-234" rx="27" ry="18"/>
<text text-anchor="middle" x="481.7" y="-230.5" font-family="Times New Roman,serif" font-size="15.00">xor</text>
</g>
<!-- 1408183787376&#45;&#45;1408183636080 -->
<g id="edge17" class="edge"><title>1408183787376&#45;&#45;1408183636080</title>
<path fill="none" stroke="black" d="M481.7,-287.697C481.7,-276.846 481.7,-262.917 481.7,-252.104"/>
</g>
<!-- 1408183636272 -->
<g id="node23" class="node"><title>1408183636272</title>
<ellipse fill="none" stroke="black" cx="575.7" cy="-234" rx="27" ry="18"/>
<text text-anchor="middle" x="575.7" y="-230.5" font-family="Times New Roman,serif" font-size="15.00">xor</text>
</g>
<!-- 1408183787376&#45;&#45;1408183636272 -->
<g id="edge23" class="edge"><title>1408183787376&#45;&#45;1408183636272</title>
<path fill="none" stroke="black" d="M499.381,-291.834C516.293,-279.239 541.638,-260.366 558.416,-247.871"/>
</g>
<!-- 1408183636416 -->
<g id="node21" class="node"><title>1408183636416</title>
<ellipse fill="black" stroke="black" cx="375.7" cy="-162" rx="2.7" ry="2.7"/>
</g>
<!-- 1408183636080&#45;&#45;1408183636416 -->
<g id="edge15" class="edge"><title>1408183636080&#45;&#45;1408183636416</title>
<path fill="none" stroke="black" d="M463.236,-220.807C436.188,-202.945 387.885,-171.046 377.642,-164.282"/>
</g>
<!-- 1408183638336 -->
<g id="node22" class="node"><title>1408183638336</title>
<ellipse fill="none" stroke="black" cx="458.7" cy="-162" rx="61.6894" ry="18"/>
<text text-anchor="middle" x="458.7" y="-158.5" font-family="Times New Roman,serif" font-size="15.00">Add penalty</text>
</g>
<!-- 1408183636080&#45;&#45;1408183638336 -->
<g id="edge16" class="edge"><title>1408183636080&#45;&#45;1408183638336</title>
<path fill="none" stroke="black" d="M476.132,-216.055C472.569,-205.211 467.96,-191.183 464.376,-180.275"/>
</g>
<!-- 1408183638720 -->
<g id="node24" class="node"><title>1408183638720</title>
<ellipse fill="black" stroke="black" cx="541.7" cy="-162" rx="2.7" ry="2.7"/>
</g>
<!-- 1408183636272&#45;&#45;1408183638720 -->
<g id="edge18" class="edge"><title>1408183636272&#45;&#45;1408183638720</title>
<path fill="none" stroke="black" d="M567.814,-216.765C559.183,-198.994 546.101,-172.06 542.592,-164.836"/>
</g>
<!-- 1408183638816 -->
<g id="node25" class="node"><title>1408183638816</title>
<ellipse fill="none" stroke="black" cx="608.7" cy="-162" rx="46.6143" ry="18"/>
<text text-anchor="middle" x="608.7" y="-158.5" font-family="Times New Roman,serif" font-size="15.00">xor loop</text>
</g>
<!-- 1408183636272&#45;&#45;1408183638816 -->
<g id="edge21" class="edge"><title>1408183636272&#45;&#45;1408183638816</title>
<path fill="none" stroke="black" d="M583.521,-216.411C588.705,-205.414 595.487,-191.027 600.706,-179.956"/>
</g>
<!-- 1408183638864 -->
<g id="node28" class="node"><title>1408183638864</title>
<ellipse fill="none" stroke="black" cx="817.7" cy="-162" rx="144.571" ry="18"/>
<text text-anchor="middle" x="817.7" y="-158.5" font-family="Times New Roman,serif" font-size="15.00">Insert Date Appeal to Prefecture</text>
</g>
<!-- 1408183636272&#45;&#45;1408183638864 -->
<g id="edge22" class="edge"><title>1408183636272&#45;&#45;1408183638864</title>
<path fill="none" stroke="black" d="M600.236,-225.903C638.208,-214.919 712.144,-193.533 763.188,-178.768"/>
</g>
<!-- 1408183639104 -->
<g id="node26" class="node"><title>1408183639104</title>
<ellipse fill="none" stroke="black" cx="574.7" cy="-90" rx="45.7249" ry="18"/>
<text text-anchor="middle" x="574.7" y="-86.5" font-family="Times New Roman,serif" font-size="15.00">Payment</text>
</g>
<!-- 1408183638816&#45;&#45;1408183639104 -->
<g id="edge19" class="edge"><title>1408183638816&#45;&#45;1408183639104</title>
<path fill="none" stroke="black" d="M600.47,-144.055C595.124,-133.049 588.185,-118.764 582.855,-107.789"/>
</g>
<!-- 1408183639200 -->
<g id="node27" class="node"><title>1408183639200</title>
<ellipse fill="black" stroke="black" cx="641.7" cy="-90" rx="2.7" ry="2.7"/>
</g>
<!-- 1408183638816&#45;&#45;1408183639200 -->
<g id="edge20" class="edge"><title>1408183638816&#45;&#45;1408183639200</title>
<path fill="none" stroke="black" d="M616.688,-144.055C625.081,-126.252 637.521,-99.8653 640.853,-92.7963"/>
</g>
<!-- 1408183636176 -->
<g id="node30" class="node"><title>1408183636176</title>
<ellipse fill="black" stroke="black" cx="743.7" cy="-306" rx="2.7" ry="2.7"/>
</g>
<!-- 1408183786944&#45;&#45;1408183636176 -->
<g id="edge26" class="edge"><title>1408183786944&#45;&#45;1408183636176</title>
<path fill="none" stroke="black" d="M799.989,-362.496C781.792,-344.555 752.343,-315.522 745.266,-308.544"/>
</g>
<!-- 1408183637808 -->
<g id="node31" class="node"><title>1408183637808</title>
<ellipse fill="none" stroke="black" cx="885.7" cy="-306" rx="120.819" ry="18"/>
<text text-anchor="middle" x="885.7" y="-302.5" font-family="Times New Roman,serif" font-size="15.00">Send for Credit Collection</text>
</g>
<!-- 1408183786944&#45;&#45;1408183637808 -->
<g id="edge27" class="edge"><title>1408183786944&#45;&#45;1408183637808</title>
<path fill="none" stroke="black" d="M829.411,-362.496C840.784,-351.283 856.552,-335.737 868.507,-323.951"/>
</g>
<!-- 1408183639008 -->
<g id="node32" class="node"><title>1408183639008</title>
<ellipse fill="none" stroke="black" cx="1265.7" cy="-306" rx="27" ry="18"/>
<text text-anchor="middle" x="1265.7" y="-302.5" font-family="Times New Roman,serif" font-size="15.00">seq</text>
</g>
<!-- 1408183786944&#45;&#45;1408183639008 -->
<g id="edge43" class="edge"><title>1408183786944&#45;&#45;1408183639008</title>
<path fill="none" stroke="black" d="M840.897,-372.934C920.702,-360.547 1160.19,-323.377 1239.71,-311.034"/>
</g>
<!-- 1408183639488 -->
<g id="node33" class="node"><title>1408183639488</title>
<ellipse fill="none" stroke="black" cx="1265.7" cy="-234" rx="27" ry="18"/>
<text text-anchor="middle" x="1265.7" y="-230.5" font-family="Times New Roman,serif" font-size="15.00">seq</text>
</g>
<!-- 1408183639008&#45;&#45;1408183639488 -->
<g id="edge35" class="edge"><title>1408183639008&#45;&#45;1408183639488</title>
<path fill="none" stroke="black" d="M1265.7,-287.697C1265.7,-276.846 1265.7,-262.917 1265.7,-252.104"/>
</g>
<!-- 1408183639824 -->
<g id="node41" class="node"><title>1408183639824</title>
<ellipse fill="none" stroke="black" cx="1609.7" cy="-234" rx="27" ry="18"/>
<text text-anchor="middle" x="1609.7" y="-230.5" font-family="Times New Roman,serif" font-size="15.00">xor</text>
</g>
<!-- 1408183639008&#45;&#45;1408183639824 -->
<g id="edge42" class="edge"><title>1408183639008&#45;&#45;1408183639824</title>
<path fill="none" stroke="black" d="M1291.27,-299.796C1354.96,-286.837 1520.09,-253.234 1583.96,-240.238"/>
</g>
<!-- 1408183639632 -->
<g id="node34" class="node"><title>1408183639632</title>
<ellipse fill="none" stroke="black" cx="1100.7" cy="-162" rx="120.43" ry="18"/>
<text text-anchor="middle" x="1100.7" y="-158.5" font-family="Times New Roman,serif" font-size="15.00">Send Appeal to Prefecture</text>
</g>
<!-- 1408183639488&#45;&#45;1408183639632 -->
<g id="edge28" class="edge"><title>1408183639488&#45;&#45;1408183639632</title>
<path fill="none" stroke="black" d="M1243.45,-223.559C1216.62,-212.177 1171.1,-192.866 1138.68,-179.111"/>
</g>
<!-- 1408183639728 -->
<g id="node35" class="node"><title>1408183639728</title>
<ellipse fill="none" stroke="black" cx="1265.7" cy="-162" rx="27" ry="18"/>
<text text-anchor="middle" x="1265.7" y="-158.5" font-family="Times New Roman,serif" font-size="15.00">xor</text>
</g>
<!-- 1408183639488&#45;&#45;1408183639728 -->
<g id="edge31" class="edge"><title>1408183639488&#45;&#45;1408183639728</title>
<path fill="none" stroke="black" d="M1265.7,-215.697C1265.7,-204.846 1265.7,-190.917 1265.7,-180.104"/>
</g>
<!-- 1408183639920 -->
<g id="node38" class="node"><title>1408183639920</title>
<ellipse fill="none" stroke="black" cx="1342.7" cy="-162" rx="27" ry="18"/>
<text text-anchor="middle" x="1342.7" y="-158.5" font-family="Times New Roman,serif" font-size="15.00">xor</text>
</g>
<!-- 1408183639488&#45;&#45;1408183639920 -->
<g id="edge34" class="edge"><title>1408183639488&#45;&#45;1408183639920</title>
<path fill="none" stroke="black" d="M1281.28,-218.834C1294.73,-206.61 1314.04,-189.054 1327.4,-176.906"/>
</g>
<!-- 1408183637952 -->
<g id="node36" class="node"><title>1408183637952</title>
<ellipse fill="black" stroke="black" cx="1176.7" cy="-90" rx="2.7" ry="2.7"/>
</g>
<!-- 1408183639728&#45;&#45;1408183637952 -->
<g id="edge29" class="edge"><title>1408183639728&#45;&#45;1408183637952</title>
<path fill="none" stroke="black" d="M1248.96,-147.834C1226,-129.774 1186.62,-98.8019 1178.28,-92.2428"/>
</g>
<!-- 1408183638624 -->
<g id="node37" class="node"><title>1408183638624</title>
<ellipse fill="none" stroke="black" cx="1259.7" cy="-90" rx="61.6894" ry="18"/>
<text text-anchor="middle" x="1259.7" y="-86.5" font-family="Times New Roman,serif" font-size="15.00">Add penalty</text>
</g>
<!-- 1408183639728&#45;&#45;1408183638624 -->
<g id="edge30" class="edge"><title>1408183639728&#45;&#45;1408183638624</title>
<path fill="none" stroke="black" d="M1264.22,-143.697C1263.29,-132.846 1262.09,-118.917 1261.17,-108.104"/>
</g>
<!-- 1408183689328 -->
<g id="node39" class="node"><title>1408183689328</title>
<ellipse fill="black" stroke="black" cx="1342.7" cy="-90" rx="2.7" ry="2.7"/>
</g>
<!-- 1408183639920&#45;&#45;1408183689328 -->
<g id="edge32" class="edge"><title>1408183639920&#45;&#45;1408183689328</title>
<path fill="none" stroke="black" d="M1342.7,-143.697C1342.7,-125.883 1342.7,-99.7686 1342.7,-92.7764"/>
</g>
<!-- 1408183689424 -->
<g id="node40" class="node"><title>1408183689424</title>
<ellipse fill="none" stroke="black" cx="1536.7" cy="-90" rx="173.941" ry="18"/>
<text text-anchor="middle" x="1536.7" y="-86.5" font-family="Times New Roman,serif" font-size="15.00">Receive Result Appeal from Prefecture</text>
</g>
<!-- 1408183639920&#45;&#45;1408183689424 -->
<g id="edge33" class="edge"><title>1408183639920&#45;&#45;1408183689424</title>
<path fill="none" stroke="black" d="M1366.1,-152.556C1396.94,-141.429 1451.85,-121.615 1491.05,-107.472"/>
</g>
<!-- 1408183689376 -->
<g id="node42" class="node"><title>1408183689376</title>
<ellipse fill="black" stroke="black" cx="1609.7" cy="-162" rx="2.7" ry="2.7"/>
</g>
<!-- 1408183639824&#45;&#45;1408183689376 -->
<g id="edge36" class="edge"><title>1408183639824&#45;&#45;1408183689376</title>
<path fill="none" stroke="black" d="M1609.7,-215.697C1609.7,-197.883 1609.7,-171.769 1609.7,-164.776"/>
</g>
<!-- 1408183689664 -->
<g id="node43" class="node"><title>1408183689664</title>
<ellipse fill="none" stroke="black" cx="1876.7" cy="-162" rx="27" ry="18"/>
<text text-anchor="middle" x="1876.7" y="-158.5" font-family="Times New Roman,serif" font-size="15.00">seq</text>
</g>
<!-- 1408183639824&#45;&#45;1408183689664 -->
<g id="edge41" class="edge"><title>1408183639824&#45;&#45;1408183689664</title>
<path fill="none" stroke="black" d="M1634.34,-226.54C1685.08,-213.239 1800.72,-182.921 1851.73,-169.546"/>
</g>
<!-- 1408183689808 -->
<g id="node44" class="node"><title>1408183689808</title>
<ellipse fill="none" stroke="black" cx="1876.7" cy="-90" rx="148.91" ry="18"/>
<text text-anchor="middle" x="1876.7" y="-86.5" font-family="Times New Roman,serif" font-size="15.00">Notify Result Appeal to Offender</text>
</g>
<!-- 1408183689664&#45;&#45;1408183689808 -->
<g id="edge37" class="edge"><title>1408183689664&#45;&#45;1408183689808</title>
<path fill="none" stroke="black" d="M1876.7,-143.697C1876.7,-132.846 1876.7,-118.917 1876.7,-108.104"/>
</g>
<!-- 1408183689904 -->
<g id="node45" class="node"><title>1408183689904</title>
<ellipse fill="none" stroke="black" cx="2070.7" cy="-90" rx="27" ry="18"/>
<text text-anchor="middle" x="2070.7" y="-86.5" font-family="Times New Roman,serif" font-size="15.00">xor</text>
</g>
<!-- 1408183689664&#45;&#45;1408183689904 -->
<g id="edge40" class="edge"><title>1408183689664&#45;&#45;1408183689904</title>
<path fill="none" stroke="black" d="M1900.1,-152.556C1937.49,-139.066 2010.27,-112.805 2047.52,-99.3646"/>
</g>
<!-- 1408183690240 -->
<g id="node46" class="node"><title>1408183690240</title>
<ellipse fill="none" stroke="black" cx="1977.7" cy="-18" rx="120.819" ry="18"/>
<text text-anchor="middle" x="1977.7" y="-14.5" font-family="Times New Roman,serif" font-size="15.00">Send for Credit Collection</text>
</g>
<!-- 1408183689904&#45;&#45;1408183690240 -->
<g id="edge38" class="edge"><title>1408183689904&#45;&#45;1408183690240</title>
<path fill="none" stroke="black" d="M2053.21,-75.8335C2038.16,-64.5068 2016.36,-48.1005 2000.05,-35.8238"/>
</g>
<!-- 1408183690336 -->
<g id="node47" class="node"><title>1408183690336</title>
<ellipse fill="none" stroke="black" cx="2162.7" cy="-18" rx="45.7249" ry="18"/>
<text text-anchor="middle" x="2162.7" y="-14.5" font-family="Times New Roman,serif" font-size="15.00">Payment</text>
</g>
<!-- 1408183689904&#45;&#45;1408183690336 -->
<g id="edge39" class="edge"><title>1408183689904&#45;&#45;1408183690336</title>
<path fill="none" stroke="black" d="M2088,-75.8335C2103.52,-64.0315 2126.27,-46.7148 2142.59,-34.301"/>
</g>
</g>
</svg>
