<?xml version="1.0" encoding="UTF-8" standalone="no"?>
<!DOCTYPE svg PUBLIC "-//W3C//DTD SVG 1.1//EN"
 "http://www.w3.org/Graphics/SVG/1.1/DTD/svg11.dtd">
<!-- Generated by graphviz version 2.38.0 (20140413.2041)
 -->
<!-- Title: pt Pages: 1 -->
<svg width="1888pt" height="1052pt"
 viewBox="0.00 0.00 1888.28 1052.00" xmlns="http://www.w3.org/2000/svg" xmlns:xlink="http://www.w3.org/1999/xlink">
<g id="graph0" class="graph" transform="scale(1 1) rotate(0) translate(4 1048)">
<title>pt</title>
<!-- 1408192236272 -->
<g id="node1" class="node"><title>1408192236272</title>
<ellipse fill="none" stroke="black" cx="377.76" cy="-1026" rx="27" ry="18"/>
<text text-anchor="middle" x="377.76" y="-1022.5" font-family="Times New Roman,serif" font-size="15.00">seq</text>
</g>
<!-- 1408192236080 -->
<g id="node2" class="node"><title>1408192236080</title>
<ellipse fill="none" stroke="black" cx="59.7599" cy="-954" rx="59.5207" ry="18"/>
<text text-anchor="middle" x="59.7599" y="-950.5" font-family="Times New Roman,serif" font-size="15.00">Create Fine</text>
</g>
<!-- 1408192236272&#45;&#45;1408192236080 -->
<g id="edge1" class="edge"><title>1408192236272&#45;&#45;1408192236080</title>
<path fill="none" stroke="black" d="M352.541,-1019.45C299.289,-1007.73 174.679,-980.297 106.449,-965.277"/>
</g>
<!-- 1408192236512 -->
<g id="node3" class="node"><title>1408192236512</title>
<ellipse fill="none" stroke="black" cx="164.76" cy="-954" rx="27" ry="18"/>
<text text-anchor="middle" x="164.76" y="-950.5" font-family="Times New Roman,serif" font-size="15.00">xor</text>
</g>
<!-- 1408192236272&#45;&#45;1408192236512 -->
<g id="edge4" class="edge"><title>1408192236272&#45;&#45;1408192236512</title>
<path fill="none" stroke="black" d="M354.151,-1017.24C313.208,-1003.79 229.491,-976.273 188.474,-962.793"/>
</g>
<!-- 1408192234256 -->
<g id="node6" class="node"><title>1408192234256</title>
<ellipse fill="none" stroke="black" cx="270.76" cy="-954" rx="27" ry="18"/>
<text text-anchor="middle" x="270.76" y="-950.5" font-family="Times New Roman,serif" font-size="15.00">xor</text>
</g>
<!-- 1408192236272&#45;&#45;1408192234256 -->
<g id="edge7" class="edge"><title>1408192236272&#45;&#45;1408192234256</title>
<path fill="none" stroke="black" d="M359.122,-1012.81C339.603,-1000.04 309.117,-980.093 289.543,-967.288"/>
</g>
<!-- 1408192237040 -->
<g id="node9" class="node"><title>1408192237040</title>
<ellipse fill="none" stroke="black" cx="377.76" cy="-954" rx="27" ry="18"/>
<text text-anchor="middle" x="377.76" y="-950.5" font-family="Times New Roman,serif" font-size="15.00">xor</text>
</g>
<!-- 1408192236272&#45;&#45;1408192237040 -->
<g id="edge10" class="edge"><title>1408192236272&#45;&#45;1408192237040</title>
<path fill="none" stroke="black" d="M377.76,-1007.7C377.76,-996.846 377.76,-982.917 377.76,-972.104"/>
</g>
<!-- 1408192235072 -->
<g id="node12" class="node"><title>1408192235072</title>
<ellipse fill="none" stroke="black" cx="485.76" cy="-954" rx="27" ry="18"/>
<text text-anchor="middle" x="485.76" y="-950.5" font-family="Times New Roman,serif" font-size="15.00">xor</text>
</g>
<!-- 1408192236272&#45;&#45;1408192235072 -->
<g id="edge13" class="edge"><title>1408192236272&#45;&#45;1408192235072</title>
<path fill="none" stroke="black" d="M396.572,-1012.81C416.395,-999.959 447.422,-979.848 467.163,-967.053"/>
</g>
<!-- 1408192235504 -->
<g id="node15" class="node"><title>1408192235504</title>
<ellipse fill="none" stroke="black" cx="619.76" cy="-954" rx="27" ry="18"/>
<text text-anchor="middle" x="619.76" y="-950.5" font-family="Times New Roman,serif" font-size="15.00">xor</text>
</g>
<!-- 1408192236272&#45;&#45;1408192235504 -->
<g id="edge63" class="edge"><title>1408192236272&#45;&#45;1408192235504</title>
<path fill="none" stroke="black" d="M402.296,-1017.9C448.799,-1004.45 549.245,-975.397 595.519,-962.012"/>
</g>
<!-- 1408192234640 -->
<g id="node65" class="node"><title>1408192234640</title>
<ellipse fill="none" stroke="black" cx="715.76" cy="-954" rx="27" ry="18"/>
<text text-anchor="middle" x="715.76" y="-950.5" font-family="Times New Roman,serif" font-size="15.00">xor</text>
</g>
<!-- 1408192236272&#45;&#45;1408192234640 -->
<g id="edge66" class="edge"><title>1408192236272&#45;&#45;1408192234640</title>
<path fill="none" stroke="black" d="M403.165,-1019.74C465.804,-1006.77 627.113,-973.359 690.06,-960.322"/>
</g>
<!-- 1408192234352 -->
<g id="node4" class="node"><title>1408192234352</title>
<ellipse fill="black" stroke="black" cx="55.7599" cy="-882" rx="2.7" ry="2.7"/>
</g>
<!-- 1408192236512&#45;&#45;1408192234352 -->
<g id="edge2" class="edge"><title>1408192236512&#45;&#45;1408192234352</title>
<path fill="none" stroke="black" d="M145.774,-940.807C117.716,-922.788 67.4162,-890.486 57.4885,-884.11"/>
</g>
<!-- 1408192234736 -->
<g id="node5" class="node"><title>1408192234736</title>
<ellipse fill="none" stroke="black" cx="129.76" cy="-882" rx="52.6228" ry="18"/>
<text text-anchor="middle" x="129.76" y="-878.5" font-family="Times New Roman,serif" font-size="15.00">Send Fine</text>
</g>
<!-- 1408192236512&#45;&#45;1408192234736 -->
<g id="edge3" class="edge"><title>1408192236512&#45;&#45;1408192234736</title>
<path fill="none" stroke="black" d="M156.642,-936.765C151.149,-925.779 143.906,-911.292 138.322,-900.124"/>
</g>
<!-- 1408192235888 -->
<g id="node7" class="node"><title>1408192235888</title>
<ellipse fill="black" stroke="black" cx="203.76" cy="-882" rx="2.7" ry="2.7"/>
</g>
<!-- 1408192234256&#45;&#45;1408192235888 -->
<g id="edge5" class="edge"><title>1408192234256&#45;&#45;1408192235888</title>
<path fill="none" stroke="black" d="M256.877,-938.496C239.706,-920.555 211.916,-891.522 205.237,-884.544"/>
</g>
<!-- 1408192235552 -->
<g id="node8" class="node"><title>1408192235552</title>
<ellipse fill="none" stroke="black" cx="270.76" cy="-882" rx="45.7249" ry="18"/>
<text text-anchor="middle" x="270.76" y="-878.5" font-family="Times New Roman,serif" font-size="15.00">Payment</text>
</g>
<!-- 1408192234256&#45;&#45;1408192235552 -->
<g id="edge6" class="edge"><title>1408192234256&#45;&#45;1408192235552</title>
<path fill="none" stroke="black" d="M270.76,-935.697C270.76,-924.846 270.76,-910.917 270.76,-900.104"/>
</g>
<!-- 1408192234496 -->
<g id="node10" class="node"><title>1408192234496</title>
<ellipse fill="black" stroke="black" cx="337.76" cy="-882" rx="2.7" ry="2.7"/>
</g>
<!-- 1408192237040&#45;&#45;1408192234496 -->
<g id="edge8" class="edge"><title>1408192237040&#45;&#45;1408192234496</title>
<path fill="none" stroke="black" d="M368.483,-936.765C358.328,-918.994 342.937,-892.06 338.809,-884.836"/>
</g>
<!-- 1408192236992 -->
<g id="node11" class="node"><title>1408192236992</title>
<ellipse fill="none" stroke="black" cx="411.76" cy="-882" rx="52.6228" ry="18"/>
<text text-anchor="middle" x="411.76" y="-878.5" font-family="Times New Roman,serif" font-size="15.00">Send Fine</text>
</g>
<!-- 1408192237040&#45;&#45;1408192236992 -->
<g id="edge9" class="edge"><title>1408192237040&#45;&#45;1408192236992</title>
<path fill="none" stroke="black" d="M385.646,-936.765C390.981,-925.779 398.018,-911.292 403.443,-900.124"/>
</g>
<!-- 1408192236320 -->
<g id="node13" class="node"><title>1408192236320</title>
<ellipse fill="black" stroke="black" cx="485.76" cy="-882" rx="2.7" ry="2.7"/>
</g>
<!-- 1408192235072&#45;&#45;1408192236320 -->
<g id="edge11" class="edge"><title>1408192235072&#45;&#45;1408192236320</title>
<path fill="none" stroke="black" d="M485.76,-935.697C485.76,-917.883 485.76,-891.769 485.76,-884.776"/>
</g>
<!-- 1408192237136 -->
<g id="node14" class="node"><title>1408192237136</title>
<ellipse fill="none" stroke="black" cx="552.76" cy="-882" rx="45.7249" ry="18"/>
<text text-anchor="middle" x="552.76" y="-878.5" font-family="Times New Roman,serif" font-size="15.00">Payment</text>
</g>
<!-- 1408192235072&#45;&#45;1408192237136 -->
<g id="edge12" class="edge"><title>1408192235072&#45;&#45;1408192237136</title>
<path fill="none" stroke="black" d="M499.642,-938.496C510.605,-927.043 525.894,-911.069 537.256,-899.198"/>
</g>
<!-- 1408192235024 -->
<g id="node16" class="node"><title>1408192235024</title>
<ellipse fill="black" stroke="black" cx="619.76" cy="-882" rx="2.7" ry="2.7"/>
</g>
<!-- 1408192235504&#45;&#45;1408192235024 -->
<g id="edge14" class="edge"><title>1408192235504&#45;&#45;1408192235024</title>
<path fill="none" stroke="black" d="M619.76,-935.697C619.76,-917.883 619.76,-891.769 619.76,-884.776"/>
</g>
<!-- 1408192234976 -->
<g id="node17" class="node"><title>1408192234976</title>
<ellipse fill="none" stroke="black" cx="667.76" cy="-882" rx="27" ry="18"/>
<text text-anchor="middle" x="667.76" y="-878.5" font-family="Times New Roman,serif" font-size="15.00">seq</text>
</g>
<!-- 1408192235504&#45;&#45;1408192234976 -->
<g id="edge62" class="edge"><title>1408192235504&#45;&#45;1408192234976</title>
<path fill="none" stroke="black" d="M630.652,-937.116C638.507,-925.66 649.065,-910.263 656.911,-898.821"/>
</g>
<!-- 1408192235360 -->
<g id="node18" class="node"><title>1408192235360</title>
<ellipse fill="none" stroke="black" cx="401.76" cy="-810" rx="27" ry="18"/>
<text text-anchor="middle" x="401.76" y="-806.5" font-family="Times New Roman,serif" font-size="15.00">xor</text>
</g>
<!-- 1408192234976&#45;&#45;1408192235360 -->
<g id="edge17" class="edge"><title>1408192234976&#45;&#45;1408192235360</title>
<path fill="none" stroke="black" d="M642.735,-874.415C591.909,-861.039 477.132,-830.835 426.524,-817.517"/>
</g>
<!-- 1408192237328 -->
<g id="node21" class="node"><title>1408192237328</title>
<ellipse fill="none" stroke="black" cx="603.76" cy="-810" rx="27" ry="18"/>
<text text-anchor="middle" x="603.76" y="-806.5" font-family="Times New Roman,serif" font-size="15.00">xor</text>
</g>
<!-- 1408192234976&#45;&#45;1408192237328 -->
<g id="edge20" class="edge"><title>1408192234976&#45;&#45;1408192237328</title>
<path fill="none" stroke="black" d="M654.187,-866.155C643.326,-854.276 628.169,-837.697 617.313,-825.824"/>
</g>
<!-- 1408192236176 -->
<g id="node24" class="node"><title>1408192236176</title>
<ellipse fill="none" stroke="black" cx="731.76" cy="-810" rx="27" ry="18"/>
<text text-anchor="middle" x="731.76" y="-806.5" font-family="Times New Roman,serif" font-size="15.00">xor</text>
</g>
<!-- 1408192234976&#45;&#45;1408192236176 -->
<g id="edge23" class="edge"><title>1408192234976&#45;&#45;1408192236176</title>
<path fill="none" stroke="black" d="M681.333,-866.155C692.194,-854.276 707.351,-837.697 718.207,-825.824"/>
</g>
<!-- 1408192236944 -->
<g id="node27" class="node"><title>1408192236944</title>
<ellipse fill="none" stroke="black" cx="929.76" cy="-810" rx="27" ry="18"/>
<text text-anchor="middle" x="929.76" y="-806.5" font-family="Times New Roman,serif" font-size="15.00">xor</text>
</g>
<!-- 1408192234976&#45;&#45;1408192236944 -->
<g id="edge61" class="edge"><title>1408192234976&#45;&#45;1408192236944</title>
<path fill="none" stroke="black" d="M692.408,-874.415C742.343,-861.073 854.946,-830.988 904.986,-817.619"/>
</g>
<!-- 1408192236608 -->
<g id="node19" class="node"><title>1408192236608</title>
<ellipse fill="black" stroke="black" cx="327.76" cy="-738" rx="2.7" ry="2.7"/>
</g>
<!-- 1408192235360&#45;&#45;1408192236608 -->
<g id="edge15" class="edge"><title>1408192235360&#45;&#45;1408192236608</title>
<path fill="none" stroke="black" d="M386.785,-794.834C367.865,-776.937 336.864,-747.612 329.409,-740.56"/>
</g>
<!-- 1408192235216 -->
<g id="node20" class="node"><title>1408192235216</title>
<ellipse fill="none" stroke="black" cx="401.76" cy="-738" rx="52.6228" ry="18"/>
<text text-anchor="middle" x="401.76" y="-734.5" font-family="Times New Roman,serif" font-size="15.00">Send Fine</text>
</g>
<!-- 1408192235360&#45;&#45;1408192235216 -->
<g id="edge16" class="edge"><title>1408192235360&#45;&#45;1408192235216</title>
<path fill="none" stroke="black" d="M401.76,-791.697C401.76,-780.846 401.76,-766.917 401.76,-756.104"/>
</g>
<!-- 1408192237424 -->
<g id="node22" class="node"><title>1408192237424</title>
<ellipse fill="black" stroke="black" cx="475.76" cy="-738" rx="2.7" ry="2.7"/>
</g>
<!-- 1408192237328&#45;&#45;1408192237424 -->
<g id="edge18" class="edge"><title>1408192237328&#45;&#45;1408192237424</title>
<path fill="none" stroke="black" d="M583.478,-797.908C551.051,-780.175 489.942,-746.756 477.864,-740.151"/>
</g>
<!-- 1408192234592 -->
<g id="node23" class="node"><title>1408192234592</title>
<ellipse fill="none" stroke="black" cx="603.76" cy="-738" rx="107.914" ry="18"/>
<text text-anchor="middle" x="603.76" y="-734.5" font-family="Times New Roman,serif" font-size="15.00">Insert Fine Notification</text>
</g>
<!-- 1408192237328&#45;&#45;1408192234592 -->
<g id="edge19" class="edge"><title>1408192237328&#45;&#45;1408192234592</title>
<path fill="none" stroke="black" d="M603.76,-791.697C603.76,-780.846 603.76,-766.917 603.76,-756.104"/>
</g>
<!-- 1408192235696 -->
<g id="node25" class="node"><title>1408192235696</title>
<ellipse fill="black" stroke="black" cx="731.76" cy="-738" rx="2.7" ry="2.7"/>
</g>
<!-- 1408192236176&#45;&#45;1408192235696 -->
<g id="edge21" class="edge"><title>1408192236176&#45;&#45;1408192235696</title>
<path fill="none" stroke="black" d="M731.76,-791.697C731.76,-773.883 731.76,-747.769 731.76,-740.776"/>
</g>
<!-- 1408192261424 -->
<g id="node26" class="node"><title>1408192261424</title>
<ellipse fill="none" stroke="black" cx="830.76" cy="-738" rx="78.5434" ry="18"/>
<text text-anchor="middle" x="830.76" y="-734.5" font-family="Times New Roman,serif" font-size="15.00">Appeal to Judge</text>
</g>
<!-- 1408192236176&#45;&#45;1408192261424 -->
<g id="edge22" class="edge"><title>1408192236176&#45;&#45;1408192261424</title>
<path fill="none" stroke="black" d="M749.918,-796.161C766.106,-784.715 789.892,-767.897 807.474,-755.464"/>
</g>
<!-- 1408192260464 -->
<g id="node28" class="node"><title>1408192260464</title>
<ellipse fill="black" stroke="black" cx="929.76" cy="-738" rx="2.7" ry="2.7"/>
</g>
<!-- 1408192236944&#45;&#45;1408192260464 -->
<g id="edge24" class="edge"><title>1408192236944&#45;&#45;1408192260464</title>
<path fill="none" stroke="black" d="M929.76,-791.697C929.76,-773.883 929.76,-747.769 929.76,-740.776"/>
</g>
<!-- 1408192258352 -->
<g id="node29" class="node"><title>1408192258352</title>
<ellipse fill="none" stroke="black" cx="996.76" cy="-738" rx="46.6143" ry="18"/>
<text text-anchor="middle" x="996.76" y="-734.5" font-family="Times New Roman,serif" font-size="15.00">xor loop</text>
</g>
<!-- 1408192236944&#45;&#45;1408192258352 -->
<g id="edge60" class="edge"><title>1408192236944&#45;&#45;1408192258352</title>
<path fill="none" stroke="black" d="M943.642,-794.496C954.605,-783.043 969.894,-767.069 981.256,-755.198"/>
</g>
<!-- 1408192258400 -->
<g id="node30" class="node"><title>1408192258400</title>
<ellipse fill="none" stroke="black" cx="962.76" cy="-666" rx="46.6143" ry="18"/>
<text text-anchor="middle" x="962.76" y="-662.5" font-family="Times New Roman,serif" font-size="15.00">xor loop</text>
</g>
<!-- 1408192258352&#45;&#45;1408192258400 -->
<g id="edge58" class="edge"><title>1408192258352&#45;&#45;1408192258400</title>
<path fill="none" stroke="black" d="M988.529,-720.055C983.184,-709.049 976.245,-694.764 970.915,-683.789"/>
</g>
<!-- 1408192258784 -->
<g id="node64" class="node"><title>1408192258784</title>
<ellipse fill="black" stroke="black" cx="1029.76" cy="-666" rx="2.7" ry="2.7"/>
</g>
<!-- 1408192258352&#45;&#45;1408192258784 -->
<g id="edge59" class="edge"><title>1408192258352&#45;&#45;1408192258784</title>
<path fill="none" stroke="black" d="M1004.75,-720.055C1013.14,-702.252 1025.58,-675.865 1028.91,-668.796"/>
</g>
<!-- 1408192258688 -->
<g id="node31" class="node"><title>1408192258688</title>
<ellipse fill="none" stroke="black" cx="938.76" cy="-594" rx="27" ry="18"/>
<text text-anchor="middle" x="938.76" y="-590.5" font-family="Times New Roman,serif" font-size="15.00">and</text>
</g>
<!-- 1408192258400&#45;&#45;1408192258688 -->
<g id="edge56" class="edge"><title>1408192258400&#45;&#45;1408192258688</title>
<path fill="none" stroke="black" d="M956.95,-648.055C953.177,-637.049 948.279,-622.764 944.516,-611.789"/>
</g>
<!-- 1408192258736 -->
<g id="node63" class="node"><title>1408192258736</title>
<ellipse fill="black" stroke="black" cx="986.76" cy="-594" rx="2.7" ry="2.7"/>
</g>
<!-- 1408192258400&#45;&#45;1408192258736 -->
<g id="edge57" class="edge"><title>1408192258400&#45;&#45;1408192258736</title>
<path fill="none" stroke="black" d="M968.57,-648.055C974.674,-630.252 983.72,-603.865 986.144,-596.796"/>
</g>
<!-- 1408192113200 -->
<g id="node32" class="node"><title>1408192113200</title>
<ellipse fill="none" stroke="black" cx="897.76" cy="-522" rx="27" ry="18"/>
<text text-anchor="middle" x="897.76" y="-518.5" font-family="Times New Roman,serif" font-size="15.00">xor</text>
</g>
<!-- 1408192258688&#45;&#45;1408192113200 -->
<g id="edge31" class="edge"><title>1408192258688&#45;&#45;1408192113200</title>
<path fill="none" stroke="black" d="M929.251,-576.765C922.627,-565.456 913.83,-550.437 907.218,-539.147"/>
</g>
<!-- 1408192112912 -->
<g id="node39" class="node"><title>1408192112912</title>
<ellipse fill="none" stroke="black" cx="1062.76" cy="-522" rx="27" ry="18"/>
<text text-anchor="middle" x="1062.76" y="-518.5" font-family="Times New Roman,serif" font-size="15.00">seq</text>
</g>
<!-- 1408192258688&#45;&#45;1408192112912 -->
<g id="edge55" class="edge"><title>1408192258688&#45;&#45;1408192112912</title>
<path fill="none" stroke="black" d="M958.683,-581.753C981.822,-568.691 1019.77,-547.27 1042.89,-534.219"/>
</g>
<!-- 1408192112480 -->
<g id="node33" class="node"><title>1408192112480</title>
<ellipse fill="black" stroke="black" cx="849.76" cy="-450" rx="2.7" ry="2.7"/>
</g>
<!-- 1408192113200&#45;&#45;1408192112480 -->
<g id="edge25" class="edge"><title>1408192113200&#45;&#45;1408192112480</title>
<path fill="none" stroke="black" d="M886.868,-505.116C874.697,-487.367 856.04,-460.158 851.033,-452.857"/>
</g>
<!-- 1408195849952 -->
<g id="node34" class="node"><title>1408195849952</title>
<ellipse fill="none" stroke="black" cx="897.76" cy="-450" rx="27" ry="18"/>
<text text-anchor="middle" x="897.76" y="-446.5" font-family="Times New Roman,serif" font-size="15.00">and</text>
</g>
<!-- 1408192113200&#45;&#45;1408195849952 -->
<g id="edge30" class="edge"><title>1408192113200&#45;&#45;1408195849952</title>
<path fill="none" stroke="black" d="M897.76,-503.697C897.76,-492.846 897.76,-478.917 897.76,-468.104"/>
</g>
<!-- 1408195713440 -->
<g id="node35" class="node"><title>1408195713440</title>
<ellipse fill="none" stroke="black" cx="771.76" cy="-378" rx="46.6143" ry="18"/>
<text text-anchor="middle" x="771.76" y="-374.5" font-family="Times New Roman,serif" font-size="15.00">xor loop</text>
</g>
<!-- 1408195849952&#45;&#45;1408195713440 -->
<g id="edge28" class="edge"><title>1408195849952&#45;&#45;1408195713440</title>
<path fill="none" stroke="black" d="M877.516,-437.753C855.672,-425.618 820.845,-406.27 797.175,-393.119"/>
</g>
<!-- 1408195713536 -->
<g id="node38" class="node"><title>1408195713536</title>
<ellipse fill="none" stroke="black" cx="897.76" cy="-378" rx="61.6894" ry="18"/>
<text text-anchor="middle" x="897.76" y="-374.5" font-family="Times New Roman,serif" font-size="15.00">Add penalty</text>
</g>
<!-- 1408195849952&#45;&#45;1408195713536 -->
<g id="edge29" class="edge"><title>1408195849952&#45;&#45;1408195713536</title>
<path fill="none" stroke="black" d="M897.76,-431.697C897.76,-420.846 897.76,-406.917 897.76,-396.104"/>
</g>
<!-- 1408199361776 -->
<g id="node36" class="node"><title>1408199361776</title>
<ellipse fill="black" stroke="black" cx="738.76" cy="-306" rx="2.7" ry="2.7"/>
</g>
<!-- 1408195713440&#45;&#45;1408199361776 -->
<g id="edge26" class="edge"><title>1408195713440&#45;&#45;1408199361776</title>
<path fill="none" stroke="black" d="M763.771,-360.055C755.378,-342.252 742.939,-315.865 739.607,-308.796"/>
</g>
<!-- 1408199362064 -->
<g id="node37" class="node"><title>1408199362064</title>
<ellipse fill="none" stroke="black" cx="805.76" cy="-306" rx="45.7249" ry="18"/>
<text text-anchor="middle" x="805.76" y="-302.5" font-family="Times New Roman,serif" font-size="15.00">Payment</text>
</g>
<!-- 1408195713440&#45;&#45;1408199362064 -->
<g id="edge27" class="edge"><title>1408195713440&#45;&#45;1408199362064</title>
<path fill="none" stroke="black" d="M779.99,-360.055C785.336,-349.049 792.275,-334.764 797.605,-323.789"/>
</g>
<!-- 1408192112576 -->
<g id="node40" class="node"><title>1408192112576</title>
<ellipse fill="none" stroke="black" cx="1062.76" cy="-450" rx="27" ry="18"/>
<text text-anchor="middle" x="1062.76" y="-446.5" font-family="Times New Roman,serif" font-size="15.00">xor</text>
</g>
<!-- 1408192112912&#45;&#45;1408192112576 -->
<g id="edge34" class="edge"><title>1408192112912&#45;&#45;1408192112576</title>
<path fill="none" stroke="black" d="M1062.76,-503.697C1062.76,-492.846 1062.76,-478.917 1062.76,-468.104"/>
</g>
<!-- 1408192114496 -->
<g id="node43" class="node"><title>1408192114496</title>
<ellipse fill="none" stroke="black" cx="1335.76" cy="-450" rx="46.6143" ry="18"/>
<text text-anchor="middle" x="1335.76" y="-446.5" font-family="Times New Roman,serif" font-size="15.00">xor loop</text>
</g>
<!-- 1408192112912&#45;&#45;1408192114496 -->
<g id="edge54" class="edge"><title>1408192112912&#45;&#45;1408192114496</title>
<path fill="none" stroke="black" d="M1087.47,-514.665C1135.38,-502.381 1241.16,-475.256 1297.96,-460.693"/>
</g>
<!-- 1408192112816 -->
<g id="node41" class="node"><title>1408192112816</title>
<ellipse fill="black" stroke="black" cx="980.76" cy="-378" rx="2.7" ry="2.7"/>
</g>
<!-- 1408192112576&#45;&#45;1408192112816 -->
<g id="edge32" class="edge"><title>1408192112576&#45;&#45;1408192112816</title>
<path fill="none" stroke="black" d="M1046.56,-435.17C1025.65,-417.32 990.954,-387.702 982.607,-380.577"/>
</g>
<!-- 1408192114304 -->
<g id="node42" class="node"><title>1408192114304</title>
<ellipse fill="none" stroke="black" cx="1145.76" cy="-378" rx="144.571" ry="18"/>
<text text-anchor="middle" x="1145.76" y="-374.5" font-family="Times New Roman,serif" font-size="15.00">Insert Date Appeal to Prefecture</text>
</g>
<!-- 1408192112576&#45;&#45;1408192114304 -->
<g id="edge33" class="edge"><title>1408192112576&#45;&#45;1408192114304</title>
<path fill="none" stroke="black" d="M1079.16,-435.17C1092.48,-423.934 1111.33,-408.036 1125.58,-396.019"/>
</g>
<!-- 1408192112720 -->
<g id="node44" class="node"><title>1408192112720</title>
<ellipse fill="none" stroke="black" cx="1335.76" cy="-378" rx="27" ry="18"/>
<text text-anchor="middle" x="1335.76" y="-374.5" font-family="Times New Roman,serif" font-size="15.00">seq</text>
</g>
<!-- 1408192114496&#45;&#45;1408192112720 -->
<g id="edge52" class="edge"><title>1408192114496&#45;&#45;1408192112720</title>
<path fill="none" stroke="black" d="M1335.76,-431.697C1335.76,-420.846 1335.76,-406.917 1335.76,-396.104"/>
</g>
<!-- 1408195850048 -->
<g id="node62" class="node"><title>1408195850048</title>
<ellipse fill="black" stroke="black" cx="1383.76" cy="-378" rx="2.7" ry="2.7"/>
</g>
<!-- 1408192114496&#45;&#45;1408195850048 -->
<g id="edge53" class="edge"><title>1408192114496&#45;&#45;1408195850048</title>
<path fill="none" stroke="black" d="M1347.14,-432.411C1359.33,-414.622 1377.61,-387.962 1382.51,-380.816"/>
</g>
<!-- 1408195849424 -->
<g id="node45" class="node"><title>1408195849424</title>
<ellipse fill="none" stroke="black" cx="1264.76" cy="-306" rx="27" ry="18"/>
<text text-anchor="middle" x="1264.76" y="-302.5" font-family="Times New Roman,serif" font-size="15.00">xor</text>
</g>
<!-- 1408192112720&#45;&#45;1408195849424 -->
<g id="edge37" class="edge"><title>1408192112720&#45;&#45;1408195849424</title>
<path fill="none" stroke="black" d="M1321.05,-362.496C1308.86,-350.482 1291.63,-333.494 1279.45,-321.485"/>
</g>
<!-- 1408195849616 -->
<g id="node48" class="node"><title>1408195849616</title>
<ellipse fill="none" stroke="black" cx="1405.76" cy="-306" rx="27" ry="18"/>
<text text-anchor="middle" x="1405.76" y="-302.5" font-family="Times New Roman,serif" font-size="15.00">xor</text>
</g>
<!-- 1408192112720&#45;&#45;1408195849616 -->
<g id="edge51" class="edge"><title>1408192112720&#45;&#45;1408195849616</title>
<path fill="none" stroke="black" d="M1350.26,-362.496C1362.28,-350.482 1379.27,-333.494 1391.27,-321.485"/>
</g>
<!-- 1408195711616 -->
<g id="node46" class="node"><title>1408195711616</title>
<ellipse fill="black" stroke="black" cx="1123.76" cy="-234" rx="2.7" ry="2.7"/>
</g>
<!-- 1408195849424&#45;&#45;1408195711616 -->
<g id="edge35" class="edge"><title>1408195849424&#45;&#45;1408195711616</title>
<path fill="none" stroke="black" d="M1243.65,-294.52C1208,-276.823 1138.5,-242.319 1125.78,-236.005"/>
</g>
<!-- 1408195714352 -->
<g id="node47" class="node"><title>1408195714352</title>
<ellipse fill="none" stroke="black" cx="1264.76" cy="-234" rx="120.43" ry="18"/>
<text text-anchor="middle" x="1264.76" y="-230.5" font-family="Times New Roman,serif" font-size="15.00">Send Appeal to Prefecture</text>
</g>
<!-- 1408195849424&#45;&#45;1408195714352 -->
<g id="edge36" class="edge"><title>1408195849424&#45;&#45;1408195714352</title>
<path fill="none" stroke="black" d="M1264.76,-287.697C1264.76,-276.846 1264.76,-262.917 1264.76,-252.104"/>
</g>
<!-- 1408195712960 -->
<g id="node49" class="node"><title>1408195712960</title>
<ellipse fill="black" stroke="black" cx="1405.76" cy="-234" rx="2.7" ry="2.7"/>
</g>
<!-- 1408195849616&#45;&#45;1408195712960 -->
<g id="edge38" class="edge"><title>1408195849616&#45;&#45;1408195712960</title>
<path fill="none" stroke="black" d="M1405.76,-287.697C1405.76,-269.883 1405.76,-243.769 1405.76,-236.776"/>
</g>
<!-- 1408195714160 -->
<g id="node50" class="node"><title>1408195714160</title>
<ellipse fill="none" stroke="black" cx="1472.76" cy="-234" rx="46.6143" ry="18"/>
<text text-anchor="middle" x="1472.76" y="-230.5" font-family="Times New Roman,serif" font-size="15.00">xor loop</text>
</g>
<!-- 1408195849616&#45;&#45;1408195714160 -->
<g id="edge50" class="edge"><title>1408195849616&#45;&#45;1408195714160</title>
<path fill="none" stroke="black" d="M1419.64,-290.496C1430.6,-279.043 1445.89,-263.069 1457.26,-251.198"/>
</g>
<!-- 1408195711232 -->
<g id="node51" class="node"><title>1408195711232</title>
<ellipse fill="none" stroke="black" cx="1448.76" cy="-162" rx="27" ry="18"/>
<text text-anchor="middle" x="1448.76" y="-158.5" font-family="Times New Roman,serif" font-size="15.00">seq</text>
</g>
<!-- 1408195714160&#45;&#45;1408195711232 -->
<g id="edge48" class="edge"><title>1408195714160&#45;&#45;1408195711232</title>
<path fill="none" stroke="black" d="M1466.95,-216.055C1463.18,-205.049 1458.28,-190.764 1454.52,-179.789"/>
</g>
<!-- 1408195711136 -->
<g id="node61" class="node"><title>1408195711136</title>
<ellipse fill="black" stroke="black" cx="1496.76" cy="-162" rx="2.7" ry="2.7"/>
</g>
<!-- 1408195714160&#45;&#45;1408195711136 -->
<g id="edge49" class="edge"><title>1408195714160&#45;&#45;1408195711136</title>
<path fill="none" stroke="black" d="M1478.57,-216.055C1484.67,-198.252 1493.72,-171.865 1496.14,-164.796"/>
</g>
<!-- 1408195714064 -->
<g id="node52" class="node"><title>1408195714064</title>
<ellipse fill="none" stroke="black" cx="1170.76" cy="-90" rx="27" ry="18"/>
<text text-anchor="middle" x="1170.76" y="-86.5" font-family="Times New Roman,serif" font-size="15.00">xor</text>
</g>
<!-- 1408195711232&#45;&#45;1408195714064 -->
<g id="edge41" class="edge"><title>1408195711232&#45;&#45;1408195714064</title>
<path fill="none" stroke="black" d="M1423.6,-154.665C1370.67,-141.337 1248.37,-110.541 1195.66,-97.2707"/>
</g>
<!-- 1408195711760 -->
<g id="node55" class="node"><title>1408195711760</title>
<ellipse fill="none" stroke="black" cx="1448.76" cy="-90" rx="27" ry="18"/>
<text text-anchor="middle" x="1448.76" y="-86.5" font-family="Times New Roman,serif" font-size="15.00">xor</text>
</g>
<!-- 1408195711232&#45;&#45;1408195711760 -->
<g id="edge44" class="edge"><title>1408195711232&#45;&#45;1408195711760</title>
<path fill="none" stroke="black" d="M1448.76,-143.697C1448.76,-132.846 1448.76,-118.917 1448.76,-108.104"/>
</g>
<!-- 1408199361152 -->
<g id="node58" class="node"><title>1408199361152</title>
<ellipse fill="none" stroke="black" cx="1702.76" cy="-90" rx="27" ry="18"/>
<text text-anchor="middle" x="1702.76" y="-86.5" font-family="Times New Roman,serif" font-size="15.00">xor</text>
</g>
<!-- 1408195711232&#45;&#45;1408199361152 -->
<g id="edge47" class="edge"><title>1408195711232&#45;&#45;1408199361152</title>
<path fill="none" stroke="black" d="M1473.58,-154.161C1522.26,-140.744 1629.75,-111.12 1678.22,-97.7641"/>
</g>
<!-- 1408199361296 -->
<g id="node53" class="node"><title>1408199361296</title>
<ellipse fill="black" stroke="black" cx="976.76" cy="-18" rx="2.7" ry="2.7"/>
</g>
<!-- 1408195714064&#45;&#45;1408199361296 -->
<g id="edge39" class="edge"><title>1408195714064&#45;&#45;1408199361296</title>
<path fill="none" stroke="black" d="M1147.36,-80.5564C1099.79,-63.393 994.942,-25.5607 978.85,-19.7542"/>
</g>
<!-- 1408199361392 -->
<g id="node54" class="node"><title>1408199361392</title>
<ellipse fill="none" stroke="black" cx="1170.76" cy="-18" rx="173.941" ry="18"/>
<text text-anchor="middle" x="1170.76" y="-14.5" font-family="Times New Roman,serif" font-size="15.00">Receive Result Appeal from Prefecture</text>
</g>
<!-- 1408195714064&#45;&#45;1408199361392 -->
<g id="edge40" class="edge"><title>1408195714064&#45;&#45;1408199361392</title>
<path fill="none" stroke="black" d="M1170.76,-71.6966C1170.76,-60.8463 1170.76,-46.9167 1170.76,-36.1043"/>
</g>
<!-- 1408199361584 -->
<g id="node56" class="node"><title>1408199361584</title>
<ellipse fill="black" stroke="black" cx="1364.76" cy="-18" rx="2.7" ry="2.7"/>
</g>
<!-- 1408195711760&#45;&#45;1408199361584 -->
<g id="edge42" class="edge"><title>1408195711760&#45;&#45;1408199361584</title>
<path fill="none" stroke="black" d="M1432.56,-75.5033C1411.21,-57.7048 1375.31,-27.7933 1366.67,-20.5936"/>
</g>
<!-- 1408199361680 -->
<g id="node57" class="node"><title>1408199361680</title>
<ellipse fill="none" stroke="black" cx="1533.76" cy="-18" rx="148.91" ry="18"/>
<text text-anchor="middle" x="1533.76" y="-14.5" font-family="Times New Roman,serif" font-size="15.00">Notify Result Appeal to Offender</text>
</g>
<!-- 1408195711760&#45;&#45;1408199361680 -->
<g id="edge43" class="edge"><title>1408195711760&#45;&#45;1408199361680</title>
<path fill="none" stroke="black" d="M1465.15,-75.5033C1478.85,-64.2203 1498.46,-48.0695 1513.21,-35.9227"/>
</g>
<!-- 1408199361872 -->
<g id="node59" class="node"><title>1408199361872</title>
<ellipse fill="black" stroke="black" cx="1702.76" cy="-18" rx="2.7" ry="2.7"/>
</g>
<!-- 1408199361152&#45;&#45;1408199361872 -->
<g id="edge45" class="edge"><title>1408199361152&#45;&#45;1408199361872</title>
<path fill="none" stroke="black" d="M1702.76,-71.6966C1702.76,-53.8826 1702.76,-27.7686 1702.76,-20.7764"/>
</g>
<!-- 1408199361968 -->
<g id="node60" class="node"><title>1408199361968</title>
<ellipse fill="none" stroke="black" cx="1801.76" cy="-18" rx="78.5434" ry="18"/>
<text text-anchor="middle" x="1801.76" y="-14.5" font-family="Times New Roman,serif" font-size="15.00">Appeal to Judge</text>
</g>
<!-- 1408199361152&#45;&#45;1408199361968 -->
<g id="edge46" class="edge"><title>1408199361152&#45;&#45;1408199361968</title>
<path fill="none" stroke="black" d="M1720.92,-76.1609C1737.11,-64.7148 1760.89,-47.8968 1778.47,-35.4644"/>
</g>
<!-- 1408192235984 -->
<g id="node66" class="node"><title>1408192235984</title>
<ellipse fill="black" stroke="black" cx="715.76" cy="-882" rx="2.7" ry="2.7"/>
</g>
<!-- 1408192234640&#45;&#45;1408192235984 -->
<g id="edge64" class="edge"><title>1408192234640&#45;&#45;1408192235984</title>
<path fill="none" stroke="black" d="M715.76,-935.697C715.76,-917.883 715.76,-891.769 715.76,-884.776"/>
</g>
<!-- 1408192235648 -->
<g id="node67" class="node"><title>1408192235648</title>
<ellipse fill="none" stroke="black" cx="857.76" cy="-882" rx="120.819" ry="18"/>
<text text-anchor="middle" x="857.76" y="-878.5" font-family="Times New Roman,serif" font-size="15.00">Send for Credit Collection</text>
</g>
<!-- 1408192234640&#45;&#45;1408192235648 -->
<g id="edge65" class="edge"><title>1408192234640&#45;&#45;1408192235648</title>
<path fill="none" stroke="black" d="M737.019,-942.52C760.152,-931.116 797.444,-912.733 824.468,-899.412"/>
</g>
</g>
</svg>
