<?xml version="1.0" encoding="UTF-8" standalone="no"?>
<!DOCTYPE svg PUBLIC "-//W3C//DTD SVG 1.1//EN"
 "http://www.w3.org/Graphics/SVG/1.1/DTD/svg11.dtd">
<!-- Generated by graphviz version 2.38.0 (20140413.2041)
 -->
<!-- Title: pt Pages: 1 -->
<svg width="1992pt" height="476pt"
 viewBox="0.00 0.00 1992.46 476.00" xmlns="http://www.w3.org/2000/svg" xmlns:xlink="http://www.w3.org/1999/xlink">
<g id="graph0" class="graph" transform="scale(1 1) rotate(0) translate(4 472)">
<title>pt</title>
<!-- 1408162232544 -->
<g id="node1" class="node"><title>1408162232544</title>
<ellipse fill="none" stroke="black" cx="306.76" cy="-450" rx="27" ry="18"/>
<text text-anchor="middle" x="306.76" y="-446.5" font-family="Times New Roman,serif" font-size="15.00">seq</text>
</g>
<!-- 1408162230624 -->
<g id="node2" class="node"><title>1408162230624</title>
<ellipse fill="none" stroke="black" cx="59.7599" cy="-378" rx="59.5207" ry="18"/>
<text text-anchor="middle" x="59.7599" y="-374.5" font-family="Times New Roman,serif" font-size="15.00">Create Fine</text>
</g>
<!-- 1408162232544&#45;&#45;1408162230624 -->
<g id="edge1" class="edge"><title>1408162232544&#45;&#45;1408162230624</title>
<path fill="none" stroke="black" d="M282.174,-442.032C240.076,-430.102 153.726,-405.63 101.874,-390.935"/>
</g>
<!-- 1408167541200 -->
<g id="node3" class="node"><title>1408167541200</title>
<ellipse fill="none" stroke="black" cx="164.76" cy="-378" rx="27" ry="18"/>
<text text-anchor="middle" x="164.76" y="-374.5" font-family="Times New Roman,serif" font-size="15.00">xor</text>
</g>
<!-- 1408162232544&#45;&#45;1408167541200 -->
<g id="edge4" class="edge"><title>1408162232544&#45;&#45;1408167541200</title>
<path fill="none" stroke="black" d="M285.501,-438.52C258.731,-425.324 213.002,-402.781 186.164,-389.551"/>
</g>
<!-- 1408162233696 -->
<g id="node6" class="node"><title>1408162233696</title>
<ellipse fill="none" stroke="black" cx="270.76" cy="-378" rx="27" ry="18"/>
<text text-anchor="middle" x="270.76" y="-374.5" font-family="Times New Roman,serif" font-size="15.00">xor</text>
</g>
<!-- 1408162232544&#45;&#45;1408162233696 -->
<g id="edge7" class="edge"><title>1408162232544&#45;&#45;1408162233696</title>
<path fill="none" stroke="black" d="M298.41,-432.765C292.594,-421.456 284.87,-406.437 279.064,-395.147"/>
</g>
<!-- 1408167541632 -->
<g id="node9" class="node"><title>1408167541632</title>
<ellipse fill="none" stroke="black" cx="342.76" cy="-378" rx="27" ry="18"/>
<text text-anchor="middle" x="342.76" y="-374.5" font-family="Times New Roman,serif" font-size="15.00">xor</text>
</g>
<!-- 1408162232544&#45;&#45;1408167541632 -->
<g id="edge10" class="edge"><title>1408162232544&#45;&#45;1408167541632</title>
<path fill="none" stroke="black" d="M315.109,-432.765C320.925,-421.456 328.65,-406.437 334.456,-395.147"/>
</g>
<!-- 1408167542592 -->
<g id="node12" class="node"><title>1408167542592</title>
<ellipse fill="none" stroke="black" cx="487.76" cy="-378" rx="27" ry="18"/>
<text text-anchor="middle" x="487.76" y="-374.5" font-family="Times New Roman,serif" font-size="15.00">xor</text>
</g>
<!-- 1408162232544&#45;&#45;1408167542592 -->
<g id="edge36" class="edge"><title>1408162232544&#45;&#45;1408167542592</title>
<path fill="none" stroke="black" d="M329.684,-440.134C364.5,-426.67 430.317,-401.215 465.022,-387.794"/>
</g>
<!-- 1408167541920 -->
<g id="node38" class="node"><title>1408167541920</title>
<ellipse fill="none" stroke="black" cx="583.76" cy="-378" rx="27" ry="18"/>
<text text-anchor="middle" x="583.76" y="-374.5" font-family="Times New Roman,serif" font-size="15.00">xor</text>
</g>
<!-- 1408162232544&#45;&#45;1408167541920 -->
<g id="edge39" class="edge"><title>1408162232544&#45;&#45;1408167541920</title>
<path fill="none" stroke="black" d="M331.83,-442.665C384.568,-429.337 506.433,-398.541 558.946,-385.271"/>
</g>
<!-- 1408167542400 -->
<g id="node4" class="node"><title>1408167542400</title>
<ellipse fill="black" stroke="black" cx="57.7599" cy="-306" rx="2.7" ry="2.7"/>
</g>
<!-- 1408167541200&#45;&#45;1408167542400 -->
<g id="edge2" class="edge"><title>1408167541200&#45;&#45;1408167542400</title>
<path fill="none" stroke="black" d="M146.122,-364.807C118.579,-346.788 69.2024,-314.486 59.4568,-308.11"/>
</g>
<!-- 1408167542064 -->
<g id="node5" class="node"><title>1408167542064</title>
<ellipse fill="none" stroke="black" cx="131.76" cy="-306" rx="52.6228" ry="18"/>
<text text-anchor="middle" x="131.76" y="-302.5" font-family="Times New Roman,serif" font-size="15.00">Send Fine</text>
</g>
<!-- 1408167541200&#45;&#45;1408167542064 -->
<g id="edge3" class="edge"><title>1408167541200&#45;&#45;1408167542064</title>
<path fill="none" stroke="black" d="M156.939,-360.411C151.755,-349.414 144.973,-335.027 139.754,-323.956"/>
</g>
<!-- 1408167542304 -->
<g id="node7" class="node"><title>1408167542304</title>
<ellipse fill="black" stroke="black" cx="205.76" cy="-306" rx="2.7" ry="2.7"/>
</g>
<!-- 1408162233696&#45;&#45;1408167542304 -->
<g id="edge5" class="edge"><title>1408162233696&#45;&#45;1408167542304</title>
<path fill="none" stroke="black" d="M256.975,-362.155C240.28,-344.175 213.59,-315.432 207.178,-308.527"/>
</g>
<!-- 1408167541680 -->
<g id="node8" class="node"><title>1408167541680</title>
<ellipse fill="none" stroke="black" cx="272.76" cy="-306" rx="45.7249" ry="18"/>
<text text-anchor="middle" x="272.76" y="-302.5" font-family="Times New Roman,serif" font-size="15.00">Payment</text>
</g>
<!-- 1408162233696&#45;&#45;1408167541680 -->
<g id="edge6" class="edge"><title>1408162233696&#45;&#45;1408167541680</title>
<path fill="none" stroke="black" d="M271.254,-359.697C271.564,-348.846 271.962,-334.917 272.271,-324.104"/>
</g>
<!-- 1408167542256 -->
<g id="node10" class="node"><title>1408167542256</title>
<ellipse fill="black" stroke="black" cx="339.76" cy="-306" rx="2.7" ry="2.7"/>
</g>
<!-- 1408167541632&#45;&#45;1408167542256 -->
<g id="edge8" class="edge"><title>1408167541632&#45;&#45;1408167542256</title>
<path fill="none" stroke="black" d="M342.018,-359.697C341.255,-341.883 340.136,-315.769 339.836,-308.776"/>
</g>
<!-- 1408167541824 -->
<g id="node11" class="node"><title>1408167541824</title>
<ellipse fill="none" stroke="black" cx="413.76" cy="-306" rx="52.6228" ry="18"/>
<text text-anchor="middle" x="413.76" y="-302.5" font-family="Times New Roman,serif" font-size="15.00">Send Fine</text>
</g>
<!-- 1408167541632&#45;&#45;1408167541824 -->
<g id="edge9" class="edge"><title>1408167541632&#45;&#45;1408167541824</title>
<path fill="none" stroke="black" d="M357.471,-362.496C369.088,-351.043 385.29,-335.069 397.33,-323.198"/>
</g>
<!-- 1408167542208 -->
<g id="node13" class="node"><title>1408167542208</title>
<ellipse fill="black" stroke="black" cx="487.76" cy="-306" rx="2.7" ry="2.7"/>
</g>
<!-- 1408167542592&#45;&#45;1408167542208 -->
<g id="edge11" class="edge"><title>1408167542592&#45;&#45;1408167542208</title>
<path fill="none" stroke="black" d="M487.76,-359.697C487.76,-341.883 487.76,-315.769 487.76,-308.776"/>
</g>
<!-- 1408166518400 -->
<g id="node14" class="node"><title>1408166518400</title>
<ellipse fill="none" stroke="black" cx="535.76" cy="-306" rx="27" ry="18"/>
<text text-anchor="middle" x="535.76" y="-302.5" font-family="Times New Roman,serif" font-size="15.00">seq</text>
</g>
<!-- 1408167542592&#45;&#45;1408166518400 -->
<g id="edge35" class="edge"><title>1408167542592&#45;&#45;1408166518400</title>
<path fill="none" stroke="black" d="M498.652,-361.116C506.507,-349.66 517.065,-334.263 524.911,-322.821"/>
</g>
<!-- 1408166516768 -->
<g id="node15" class="node"><title>1408166516768</title>
<ellipse fill="none" stroke="black" cx="382.76" cy="-234" rx="107.914" ry="18"/>
<text text-anchor="middle" x="382.76" y="-230.5" font-family="Times New Roman,serif" font-size="15.00">Insert Fine Notification</text>
</g>
<!-- 1408166518400&#45;&#45;1408166516768 -->
<g id="edge12" class="edge"><title>1408166518400&#45;&#45;1408166516768</title>
<path fill="none" stroke="black" d="M514.163,-295.119C489.122,-283.662 447.492,-264.616 417.801,-251.032"/>
</g>
<!-- 1408166516912 -->
<g id="node16" class="node"><title>1408166516912</title>
<ellipse fill="none" stroke="black" cx="535.76" cy="-234" rx="27" ry="18"/>
<text text-anchor="middle" x="535.76" y="-230.5" font-family="Times New Roman,serif" font-size="15.00">xor</text>
</g>
<!-- 1408166518400&#45;&#45;1408166516912 -->
<g id="edge15" class="edge"><title>1408166518400&#45;&#45;1408166516912</title>
<path fill="none" stroke="black" d="M535.76,-287.697C535.76,-276.846 535.76,-262.917 535.76,-252.104"/>
</g>
<!-- 1408166518256 -->
<g id="node19" class="node"><title>1408166518256</title>
<ellipse fill="none" stroke="black" cx="725.76" cy="-234" rx="27" ry="18"/>
<text text-anchor="middle" x="725.76" y="-230.5" font-family="Times New Roman,serif" font-size="15.00">and</text>
</g>
<!-- 1408166518400&#45;&#45;1408166518256 -->
<g id="edge34" class="edge"><title>1408166518400&#45;&#45;1408166518256</title>
<path fill="none" stroke="black" d="M559.058,-296.417C595.623,-282.945 666.07,-256.991 702.569,-243.544"/>
</g>
<!-- 1408166517392 -->
<g id="node17" class="node"><title>1408166517392</title>
<ellipse fill="black" stroke="black" cx="370.76" cy="-162" rx="2.7" ry="2.7"/>
</g>
<!-- 1408166516912&#45;&#45;1408166517392 -->
<g id="edge13" class="edge"><title>1408166516912&#45;&#45;1408166517392</title>
<path fill="none" stroke="black" d="M513.507,-223.559C472.34,-206.094 387.165,-169.96 372.829,-163.878"/>
</g>
<!-- 1408166517584 -->
<g id="node18" class="node"><title>1408166517584</title>
<ellipse fill="none" stroke="black" cx="535.76" cy="-162" rx="144.571" ry="18"/>
<text text-anchor="middle" x="535.76" y="-158.5" font-family="Times New Roman,serif" font-size="15.00">Insert Date Appeal to Prefecture</text>
</g>
<!-- 1408166516912&#45;&#45;1408166517584 -->
<g id="edge14" class="edge"><title>1408166516912&#45;&#45;1408166517584</title>
<path fill="none" stroke="black" d="M535.76,-215.697C535.76,-204.846 535.76,-190.917 535.76,-180.104"/>
</g>
<!-- 1408166539568 -->
<g id="node20" class="node"><title>1408166539568</title>
<ellipse fill="none" stroke="black" cx="725.76" cy="-162" rx="27" ry="18"/>
<text text-anchor="middle" x="725.76" y="-158.5" font-family="Times New Roman,serif" font-size="15.00">and</text>
</g>
<!-- 1408166518256&#45;&#45;1408166539568 -->
<g id="edge20" class="edge"><title>1408166518256&#45;&#45;1408166539568</title>
<path fill="none" stroke="black" d="M725.76,-215.697C725.76,-204.846 725.76,-190.917 725.76,-180.104"/>
</g>
<!-- 1408166540336 -->
<g id="node25" class="node"><title>1408166540336</title>
<ellipse fill="none" stroke="black" cx="1066.76" cy="-162" rx="27" ry="18"/>
<text text-anchor="middle" x="1066.76" y="-158.5" font-family="Times New Roman,serif" font-size="15.00">seq</text>
</g>
<!-- 1408166518256&#45;&#45;1408166540336 -->
<g id="edge33" class="edge"><title>1408166518256&#45;&#45;1408166540336</title>
<path fill="none" stroke="black" d="M751.112,-227.796C814.241,-214.837 977.935,-181.234 1041.24,-168.238"/>
</g>
<!-- 1408166539952 -->
<g id="node21" class="node"><title>1408166539952</title>
<ellipse fill="none" stroke="black" cx="599.76" cy="-90" rx="46.6143" ry="18"/>
<text text-anchor="middle" x="599.76" y="-86.5" font-family="Times New Roman,serif" font-size="15.00">xor loop</text>
</g>
<!-- 1408166539568&#45;&#45;1408166539952 -->
<g id="edge18" class="edge"><title>1408166539568&#45;&#45;1408166539952</title>
<path fill="none" stroke="black" d="M705.516,-149.753C683.672,-137.618 648.845,-118.27 625.175,-105.119"/>
</g>
<!-- 1408166539760 -->
<g id="node24" class="node"><title>1408166539760</title>
<ellipse fill="none" stroke="black" cx="725.76" cy="-90" rx="61.6894" ry="18"/>
<text text-anchor="middle" x="725.76" y="-86.5" font-family="Times New Roman,serif" font-size="15.00">Add penalty</text>
</g>
<!-- 1408166539568&#45;&#45;1408166539760 -->
<g id="edge19" class="edge"><title>1408166539568&#45;&#45;1408166539760</title>
<path fill="none" stroke="black" d="M725.76,-143.697C725.76,-132.846 725.76,-118.917 725.76,-108.104"/>
</g>
<!-- 1408166540816 -->
<g id="node22" class="node"><title>1408166540816</title>
<ellipse fill="black" stroke="black" cx="532.76" cy="-18" rx="2.7" ry="2.7"/>
</g>
<!-- 1408166539952&#45;&#45;1408166540816 -->
<g id="edge16" class="edge"><title>1408166539952&#45;&#45;1408166540816</title>
<path fill="none" stroke="black" d="M584.22,-72.7646C566.902,-54.6708 540.491,-27.0776 534.159,-20.462"/>
</g>
<!-- 1408166540048 -->
<g id="node23" class="node"><title>1408166540048</title>
<ellipse fill="none" stroke="black" cx="599.76" cy="-18" rx="45.7249" ry="18"/>
<text text-anchor="middle" x="599.76" y="-14.5" font-family="Times New Roman,serif" font-size="15.00">Payment</text>
</g>
<!-- 1408166539952&#45;&#45;1408166540048 -->
<g id="edge17" class="edge"><title>1408166539952&#45;&#45;1408166540048</title>
<path fill="none" stroke="black" d="M599.76,-71.6966C599.76,-60.8463 599.76,-46.9167 599.76,-36.1043"/>
</g>
<!-- 1408166540096 -->
<g id="node26" class="node"><title>1408166540096</title>
<ellipse fill="none" stroke="black" cx="832.76" cy="-90" rx="27" ry="18"/>
<text text-anchor="middle" x="832.76" y="-86.5" font-family="Times New Roman,serif" font-size="15.00">xor</text>
</g>
<!-- 1408166540336&#45;&#45;1408166540096 -->
<g id="edge23" class="edge"><title>1408166540336&#45;&#45;1408166540096</title>
<path fill="none" stroke="black" d="M1042.6,-153.772C997.759,-140.359 902.145,-111.756 857.14,-98.2931"/>
</g>
<!-- 1408166539616 -->
<g id="node29" class="node"><title>1408166539616</title>
<ellipse fill="none" stroke="black" cx="1066.76" cy="-90" rx="27" ry="18"/>
<text text-anchor="middle" x="1066.76" y="-86.5" font-family="Times New Roman,serif" font-size="15.00">xor</text>
</g>
<!-- 1408166540336&#45;&#45;1408166539616 -->
<g id="edge26" class="edge"><title>1408166540336&#45;&#45;1408166539616</title>
<path fill="none" stroke="black" d="M1066.76,-143.697C1066.76,-132.846 1066.76,-118.917 1066.76,-108.104"/>
</g>
<!-- 1408166541344 -->
<g id="node32" class="node"><title>1408166541344</title>
<ellipse fill="none" stroke="black" cx="1278.76" cy="-90" rx="27" ry="18"/>
<text text-anchor="middle" x="1278.76" y="-86.5" font-family="Times New Roman,serif" font-size="15.00">xor</text>
</g>
<!-- 1408166540336&#45;&#45;1408166541344 -->
<g id="edge29" class="edge"><title>1408166540336&#45;&#45;1408166541344</title>
<path fill="none" stroke="black" d="M1090.67,-153.106C1131.49,-139.626 1214.18,-112.325 1254.94,-98.865"/>
</g>
<!-- 1408166540960 -->
<g id="node35" class="node"><title>1408166540960</title>
<ellipse fill="none" stroke="black" cx="1666.76" cy="-90" rx="27" ry="18"/>
<text text-anchor="middle" x="1666.76" y="-86.5" font-family="Times New Roman,serif" font-size="15.00">xor</text>
</g>
<!-- 1408166540336&#45;&#45;1408166540960 -->
<g id="edge32" class="edge"><title>1408166540336&#45;&#45;1408166540960</title>
<path fill="none" stroke="black" d="M1093.32,-157.902C1192.54,-146.326 1540.89,-105.684 1640.17,-94.102"/>
</g>
<!-- 1408166540144 -->
<g id="node27" class="node"><title>1408166540144</title>
<ellipse fill="black" stroke="black" cx="666.76" cy="-18" rx="2.7" ry="2.7"/>
</g>
<!-- 1408166540096&#45;&#45;1408166540144 -->
<g id="edge21" class="edge"><title>1408166540096&#45;&#45;1408166540144</title>
<path fill="none" stroke="black" d="M810.372,-79.5595C768.955,-62.0945 683.264,-25.9596 668.842,-19.8779"/>
</g>
<!-- 1408166539376 -->
<g id="node28" class="node"><title>1408166539376</title>
<ellipse fill="none" stroke="black" cx="831.76" cy="-18" rx="144.571" ry="18"/>
<text text-anchor="middle" x="831.76" y="-14.5" font-family="Times New Roman,serif" font-size="15.00">Insert Date Appeal to Prefecture</text>
</g>
<!-- 1408166540096&#45;&#45;1408166539376 -->
<g id="edge22" class="edge"><title>1408166540096&#45;&#45;1408166539376</title>
<path fill="none" stroke="black" d="M832.513,-71.6966C832.358,-60.8463 832.159,-46.9167 832.004,-36.1043"/>
</g>
<!-- 1408166539808 -->
<g id="node30" class="node"><title>1408166539808</title>
<ellipse fill="black" stroke="black" cx="996.76" cy="-18" rx="2.7" ry="2.7"/>
</g>
<!-- 1408166539616&#45;&#45;1408166539808 -->
<g id="edge24" class="edge"><title>1408166539616&#45;&#45;1408166539808</title>
<path fill="none" stroke="black" d="M1052.26,-74.496C1034.32,-56.5555 1005.28,-27.5217 998.304,-20.5436"/>
</g>
<!-- 1408166540528 -->
<g id="node31" class="node"><title>1408166540528</title>
<ellipse fill="none" stroke="black" cx="1137.76" cy="-18" rx="120.43" ry="18"/>
<text text-anchor="middle" x="1137.76" y="-14.5" font-family="Times New Roman,serif" font-size="15.00">Send Appeal to Prefecture</text>
</g>
<!-- 1408166539616&#45;&#45;1408166540528 -->
<g id="edge25" class="edge"><title>1408166539616&#45;&#45;1408166540528</title>
<path fill="none" stroke="black" d="M1081.47,-74.496C1092.84,-63.2831 1108.61,-47.737 1120.57,-35.9506"/>
</g>
<!-- 1408159875280 -->
<g id="node33" class="node"><title>1408159875280</title>
<ellipse fill="black" stroke="black" cx="1278.76" cy="-18" rx="2.7" ry="2.7"/>
</g>
<!-- 1408166541344&#45;&#45;1408159875280 -->
<g id="edge27" class="edge"><title>1408166541344&#45;&#45;1408159875280</title>
<path fill="none" stroke="black" d="M1278.76,-71.6966C1278.76,-53.8826 1278.76,-27.7686 1278.76,-20.7764"/>
</g>
<!-- 1408165845024 -->
<g id="node34" class="node"><title>1408165845024</title>
<ellipse fill="none" stroke="black" cx="1472.76" cy="-18" rx="173.941" ry="18"/>
<text text-anchor="middle" x="1472.76" y="-14.5" font-family="Times New Roman,serif" font-size="15.00">Receive Result Appeal from Prefecture</text>
</g>
<!-- 1408166541344&#45;&#45;1408165845024 -->
<g id="edge28" class="edge"><title>1408166541344&#45;&#45;1408165845024</title>
<path fill="none" stroke="black" d="M1302.16,-80.5564C1333,-69.4293 1387.91,-49.615 1427.11,-35.472"/>
</g>
<!-- 1408165846416 -->
<g id="node36" class="node"><title>1408165846416</title>
<ellipse fill="black" stroke="black" cx="1666.76" cy="-18" rx="2.7" ry="2.7"/>
</g>
<!-- 1408166540960&#45;&#45;1408165846416 -->
<g id="edge30" class="edge"><title>1408166540960&#45;&#45;1408165846416</title>
<path fill="none" stroke="black" d="M1666.76,-71.6966C1666.76,-53.8826 1666.76,-27.7686 1666.76,-20.7764"/>
</g>
<!-- 1408165845888 -->
<g id="node37" class="node"><title>1408165845888</title>
<ellipse fill="none" stroke="black" cx="1835.76" cy="-18" rx="148.91" ry="18"/>
<text text-anchor="middle" x="1835.76" y="-14.5" font-family="Times New Roman,serif" font-size="15.00">Notify Result Appeal to Offender</text>
</g>
<!-- 1408166540960&#45;&#45;1408165845888 -->
<g id="edge31" class="edge"><title>1408166540960&#45;&#45;1408165845888</title>
<path fill="none" stroke="black" d="M1689.2,-79.7045C1716.41,-68.4359 1762.74,-49.2446 1796.03,-35.4544"/>
</g>
<!-- 1408165619648 -->
<g id="node39" class="node"><title>1408165619648</title>
<ellipse fill="black" stroke="black" cx="583.76" cy="-306" rx="2.7" ry="2.7"/>
</g>
<!-- 1408167541920&#45;&#45;1408165619648 -->
<g id="edge37" class="edge"><title>1408167541920&#45;&#45;1408165619648</title>
<path fill="none" stroke="black" d="M583.76,-359.697C583.76,-341.883 583.76,-315.769 583.76,-308.776"/>
</g>
<!-- 1408166517632 -->
<g id="node40" class="node"><title>1408166517632</title>
<ellipse fill="none" stroke="black" cx="725.76" cy="-306" rx="120.819" ry="18"/>
<text text-anchor="middle" x="725.76" y="-302.5" font-family="Times New Roman,serif" font-size="15.00">Send for Credit Collection</text>
</g>
<!-- 1408167541920&#45;&#45;1408166517632 -->
<g id="edge38" class="edge"><title>1408167541920&#45;&#45;1408166517632</title>
<path fill="none" stroke="black" d="M605.019,-366.52C628.152,-355.116 665.444,-336.733 692.468,-323.412"/>
</g>
</g>
</svg>
