<?xml version="1.0" encoding="UTF-8" standalone="no"?>
<!DOCTYPE svg PUBLIC "-//W3C//DTD SVG 1.1//EN"
 "http://www.w3.org/Graphics/SVG/1.1/DTD/svg11.dtd">
<!-- Generated by graphviz version 2.38.0 (20140413.2041)
 -->
<!-- Title: pt Pages: 1 -->
<svg width="1134pt" height="476pt"
 viewBox="0.00 0.00 1133.60 476.00" xmlns="http://www.w3.org/2000/svg" xmlns:xlink="http://www.w3.org/1999/xlink">
<g id="graph0" class="graph" transform="scale(1 1) rotate(0) translate(4 472)">
<title>pt</title>
<!-- 1408159375808 -->
<g id="node1" class="node"><title>1408159375808</title>
<ellipse fill="none" stroke="black" cx="306.76" cy="-450" rx="27" ry="18"/>
<text text-anchor="middle" x="306.76" y="-446.5" font-family="Times New Roman,serif" font-size="15.00">seq</text>
</g>
<!-- 1408159377296 -->
<g id="node2" class="node"><title>1408159377296</title>
<ellipse fill="none" stroke="black" cx="59.7599" cy="-378" rx="59.5207" ry="18"/>
<text text-anchor="middle" x="59.7599" y="-374.5" font-family="Times New Roman,serif" font-size="15.00">Create Fine</text>
</g>
<!-- 1408159375808&#45;&#45;1408159377296 -->
<g id="edge1" class="edge"><title>1408159375808&#45;&#45;1408159377296</title>
<path fill="none" stroke="black" d="M282.174,-442.032C240.076,-430.102 153.726,-405.63 101.874,-390.935"/>
</g>
<!-- 1408159377440 -->
<g id="node3" class="node"><title>1408159377440</title>
<ellipse fill="none" stroke="black" cx="164.76" cy="-378" rx="27" ry="18"/>
<text text-anchor="middle" x="164.76" y="-374.5" font-family="Times New Roman,serif" font-size="15.00">xor</text>
</g>
<!-- 1408159375808&#45;&#45;1408159377440 -->
<g id="edge4" class="edge"><title>1408159375808&#45;&#45;1408159377440</title>
<path fill="none" stroke="black" d="M285.501,-438.52C258.731,-425.324 213.002,-402.781 186.164,-389.551"/>
</g>
<!-- 1408159377632 -->
<g id="node6" class="node"><title>1408159377632</title>
<ellipse fill="none" stroke="black" cx="270.76" cy="-378" rx="27" ry="18"/>
<text text-anchor="middle" x="270.76" y="-374.5" font-family="Times New Roman,serif" font-size="15.00">xor</text>
</g>
<!-- 1408159375808&#45;&#45;1408159377632 -->
<g id="edge7" class="edge"><title>1408159375808&#45;&#45;1408159377632</title>
<path fill="none" stroke="black" d="M298.41,-432.765C292.594,-421.456 284.87,-406.437 279.064,-395.147"/>
</g>
<!-- 1408159377872 -->
<g id="node9" class="node"><title>1408159377872</title>
<ellipse fill="none" stroke="black" cx="342.76" cy="-378" rx="27" ry="18"/>
<text text-anchor="middle" x="342.76" y="-374.5" font-family="Times New Roman,serif" font-size="15.00">xor</text>
</g>
<!-- 1408159375808&#45;&#45;1408159377872 -->
<g id="edge10" class="edge"><title>1408159375808&#45;&#45;1408159377872</title>
<path fill="none" stroke="black" d="M315.109,-432.765C320.925,-421.456 328.65,-406.437 334.456,-395.147"/>
</g>
<!-- 1408159378160 -->
<g id="node12" class="node"><title>1408159378160</title>
<ellipse fill="none" stroke="black" cx="487.76" cy="-378" rx="27" ry="18"/>
<text text-anchor="middle" x="487.76" y="-374.5" font-family="Times New Roman,serif" font-size="15.00">xor</text>
</g>
<!-- 1408159375808&#45;&#45;1408159378160 -->
<g id="edge30" class="edge"><title>1408159375808&#45;&#45;1408159378160</title>
<path fill="none" stroke="black" d="M329.684,-440.134C364.5,-426.67 430.317,-401.215 465.022,-387.794"/>
</g>
<!-- 1408159378448 -->
<g id="node32" class="node"><title>1408159378448</title>
<ellipse fill="none" stroke="black" cx="583.76" cy="-378" rx="27" ry="18"/>
<text text-anchor="middle" x="583.76" y="-374.5" font-family="Times New Roman,serif" font-size="15.00">xor</text>
</g>
<!-- 1408159375808&#45;&#45;1408159378448 -->
<g id="edge33" class="edge"><title>1408159375808&#45;&#45;1408159378448</title>
<path fill="none" stroke="black" d="M331.83,-442.665C384.568,-429.337 506.433,-398.541 558.946,-385.271"/>
</g>
<!-- 1408159377680 -->
<g id="node4" class="node"><title>1408159377680</title>
<ellipse fill="black" stroke="black" cx="57.7599" cy="-306" rx="2.7" ry="2.7"/>
</g>
<!-- 1408159377440&#45;&#45;1408159377680 -->
<g id="edge2" class="edge"><title>1408159377440&#45;&#45;1408159377680</title>
<path fill="none" stroke="black" d="M146.122,-364.807C118.579,-346.788 69.2024,-314.486 59.4568,-308.11"/>
</g>
<!-- 1408159377536 -->
<g id="node5" class="node"><title>1408159377536</title>
<ellipse fill="none" stroke="black" cx="131.76" cy="-306" rx="52.6228" ry="18"/>
<text text-anchor="middle" x="131.76" y="-302.5" font-family="Times New Roman,serif" font-size="15.00">Send Fine</text>
</g>
<!-- 1408159377440&#45;&#45;1408159377536 -->
<g id="edge3" class="edge"><title>1408159377440&#45;&#45;1408159377536</title>
<path fill="none" stroke="black" d="M156.939,-360.411C151.755,-349.414 144.973,-335.027 139.754,-323.956"/>
</g>
<!-- 1408159377920 -->
<g id="node7" class="node"><title>1408159377920</title>
<ellipse fill="black" stroke="black" cx="205.76" cy="-306" rx="2.7" ry="2.7"/>
</g>
<!-- 1408159377632&#45;&#45;1408159377920 -->
<g id="edge5" class="edge"><title>1408159377632&#45;&#45;1408159377920</title>
<path fill="none" stroke="black" d="M256.975,-362.155C240.28,-344.175 213.59,-315.432 207.178,-308.527"/>
</g>
<!-- 1408159378016 -->
<g id="node8" class="node"><title>1408159378016</title>
<ellipse fill="none" stroke="black" cx="272.76" cy="-306" rx="45.7249" ry="18"/>
<text text-anchor="middle" x="272.76" y="-302.5" font-family="Times New Roman,serif" font-size="15.00">Payment</text>
</g>
<!-- 1408159377632&#45;&#45;1408159378016 -->
<g id="edge6" class="edge"><title>1408159377632&#45;&#45;1408159378016</title>
<path fill="none" stroke="black" d="M271.254,-359.697C271.564,-348.846 271.962,-334.917 272.271,-324.104"/>
</g>
<!-- 1408159378304 -->
<g id="node10" class="node"><title>1408159378304</title>
<ellipse fill="black" stroke="black" cx="339.76" cy="-306" rx="2.7" ry="2.7"/>
</g>
<!-- 1408159377872&#45;&#45;1408159378304 -->
<g id="edge8" class="edge"><title>1408159377872&#45;&#45;1408159378304</title>
<path fill="none" stroke="black" d="M342.018,-359.697C341.255,-341.883 340.136,-315.769 339.836,-308.776"/>
</g>
<!-- 1408159378208 -->
<g id="node11" class="node"><title>1408159378208</title>
<ellipse fill="none" stroke="black" cx="413.76" cy="-306" rx="52.6228" ry="18"/>
<text text-anchor="middle" x="413.76" y="-302.5" font-family="Times New Roman,serif" font-size="15.00">Send Fine</text>
</g>
<!-- 1408159377872&#45;&#45;1408159378208 -->
<g id="edge9" class="edge"><title>1408159377872&#45;&#45;1408159378208</title>
<path fill="none" stroke="black" d="M357.471,-362.496C369.088,-351.043 385.29,-335.069 397.33,-323.198"/>
</g>
<!-- 1408159378496 -->
<g id="node13" class="node"><title>1408159378496</title>
<ellipse fill="black" stroke="black" cx="487.76" cy="-306" rx="2.7" ry="2.7"/>
</g>
<!-- 1408159378160&#45;&#45;1408159378496 -->
<g id="edge11" class="edge"><title>1408159378160&#45;&#45;1408159378496</title>
<path fill="none" stroke="black" d="M487.76,-359.697C487.76,-341.883 487.76,-315.769 487.76,-308.776"/>
</g>
<!-- 1408159378592 -->
<g id="node14" class="node"><title>1408159378592</title>
<ellipse fill="none" stroke="black" cx="535.76" cy="-306" rx="27" ry="18"/>
<text text-anchor="middle" x="535.76" y="-302.5" font-family="Times New Roman,serif" font-size="15.00">seq</text>
</g>
<!-- 1408159378160&#45;&#45;1408159378592 -->
<g id="edge29" class="edge"><title>1408159378160&#45;&#45;1408159378592</title>
<path fill="none" stroke="black" d="M498.652,-361.116C506.507,-349.66 517.065,-334.263 524.911,-322.821"/>
</g>
<!-- 1408159378832 -->
<g id="node15" class="node"><title>1408159378832</title>
<ellipse fill="none" stroke="black" cx="382.76" cy="-234" rx="107.914" ry="18"/>
<text text-anchor="middle" x="382.76" y="-230.5" font-family="Times New Roman,serif" font-size="15.00">Insert Fine Notification</text>
</g>
<!-- 1408159378592&#45;&#45;1408159378832 -->
<g id="edge12" class="edge"><title>1408159378592&#45;&#45;1408159378832</title>
<path fill="none" stroke="black" d="M514.163,-295.119C489.122,-283.662 447.492,-264.616 417.801,-251.032"/>
</g>
<!-- 1408159378928 -->
<g id="node16" class="node"><title>1408159378928</title>
<ellipse fill="none" stroke="black" cx="535.76" cy="-234" rx="27" ry="18"/>
<text text-anchor="middle" x="535.76" y="-230.5" font-family="Times New Roman,serif" font-size="15.00">xor</text>
</g>
<!-- 1408159378592&#45;&#45;1408159378928 -->
<g id="edge15" class="edge"><title>1408159378592&#45;&#45;1408159378928</title>
<path fill="none" stroke="black" d="M535.76,-287.697C535.76,-276.846 535.76,-262.917 535.76,-252.104"/>
</g>
<!-- 1408159379120 -->
<g id="node19" class="node"><title>1408159379120</title>
<ellipse fill="none" stroke="black" cx="725.76" cy="-234" rx="27" ry="18"/>
<text text-anchor="middle" x="725.76" y="-230.5" font-family="Times New Roman,serif" font-size="15.00">and</text>
</g>
<!-- 1408159378592&#45;&#45;1408159379120 -->
<g id="edge28" class="edge"><title>1408159378592&#45;&#45;1408159379120</title>
<path fill="none" stroke="black" d="M559.058,-296.417C595.623,-282.945 666.07,-256.991 702.569,-243.544"/>
</g>
<!-- 1408159379168 -->
<g id="node17" class="node"><title>1408159379168</title>
<ellipse fill="black" stroke="black" cx="370.76" cy="-162" rx="2.7" ry="2.7"/>
</g>
<!-- 1408159378928&#45;&#45;1408159379168 -->
<g id="edge13" class="edge"><title>1408159378928&#45;&#45;1408159379168</title>
<path fill="none" stroke="black" d="M513.507,-223.559C472.34,-206.094 387.165,-169.96 372.829,-163.878"/>
</g>
<!-- 1408159379264 -->
<g id="node18" class="node"><title>1408159379264</title>
<ellipse fill="none" stroke="black" cx="535.76" cy="-162" rx="144.571" ry="18"/>
<text text-anchor="middle" x="535.76" y="-158.5" font-family="Times New Roman,serif" font-size="15.00">Insert Date Appeal to Prefecture</text>
</g>
<!-- 1408159378928&#45;&#45;1408159379264 -->
<g id="edge14" class="edge"><title>1408159378928&#45;&#45;1408159379264</title>
<path fill="none" stroke="black" d="M535.76,-215.697C535.76,-204.846 535.76,-190.917 535.76,-180.104"/>
</g>
<!-- 1408158765120 -->
<g id="node20" class="node"><title>1408158765120</title>
<ellipse fill="none" stroke="black" cx="725.76" cy="-162" rx="27" ry="18"/>
<text text-anchor="middle" x="725.76" y="-158.5" font-family="Times New Roman,serif" font-size="15.00">seq</text>
</g>
<!-- 1408159379120&#45;&#45;1408158765120 -->
<g id="edge22" class="edge"><title>1408159379120&#45;&#45;1408158765120</title>
<path fill="none" stroke="black" d="M725.76,-215.697C725.76,-204.846 725.76,-190.917 725.76,-180.104"/>
</g>
<!-- 1408158765168 -->
<g id="node27" class="node"><title>1408158765168</title>
<ellipse fill="none" stroke="black" cx="937.76" cy="-162" rx="27" ry="18"/>
<text text-anchor="middle" x="937.76" y="-158.5" font-family="Times New Roman,serif" font-size="15.00">and</text>
</g>
<!-- 1408159379120&#45;&#45;1408158765168 -->
<g id="edge27" class="edge"><title>1408159379120&#45;&#45;1408158765168</title>
<path fill="none" stroke="black" d="M749.667,-225.106C790.491,-211.626 873.176,-184.325 913.94,-170.865"/>
</g>
<!-- 1408158765360 -->
<g id="node21" class="node"><title>1408158765360</title>
<ellipse fill="none" stroke="black" cx="490.76" cy="-90" rx="27" ry="18"/>
<text text-anchor="middle" x="490.76" y="-86.5" font-family="Times New Roman,serif" font-size="15.00">xor</text>
</g>
<!-- 1408158765120&#45;&#45;1408158765360 -->
<g id="edge18" class="edge"><title>1408158765120&#45;&#45;1408158765360</title>
<path fill="none" stroke="black" d="M701.496,-153.772C656.347,-140.324 559.941,-111.607 514.892,-98.1883"/>
</g>
<!-- 1408158765552 -->
<g id="node24" class="node"><title>1408158765552</title>
<ellipse fill="none" stroke="black" cx="725.76" cy="-90" rx="27" ry="18"/>
<text text-anchor="middle" x="725.76" y="-86.5" font-family="Times New Roman,serif" font-size="15.00">xor</text>
</g>
<!-- 1408158765120&#45;&#45;1408158765552 -->
<g id="edge21" class="edge"><title>1408158765120&#45;&#45;1408158765552</title>
<path fill="none" stroke="black" d="M725.76,-143.697C725.76,-132.846 725.76,-118.917 725.76,-108.104"/>
</g>
<!-- 1408158765600 -->
<g id="node22" class="node"><title>1408158765600</title>
<ellipse fill="black" stroke="black" cx="325.76" cy="-18" rx="2.7" ry="2.7"/>
</g>
<!-- 1408158765360&#45;&#45;1408158765600 -->
<g id="edge16" class="edge"><title>1408158765360&#45;&#45;1408158765600</title>
<path fill="none" stroke="black" d="M468.507,-79.5595C427.34,-62.0945 342.165,-25.9596 327.829,-19.8779"/>
</g>
<!-- 1408158765696 -->
<g id="node23" class="node"><title>1408158765696</title>
<ellipse fill="none" stroke="black" cx="490.76" cy="-18" rx="144.571" ry="18"/>
<text text-anchor="middle" x="490.76" y="-14.5" font-family="Times New Roman,serif" font-size="15.00">Insert Date Appeal to Prefecture</text>
</g>
<!-- 1408158765360&#45;&#45;1408158765696 -->
<g id="edge17" class="edge"><title>1408158765360&#45;&#45;1408158765696</title>
<path fill="none" stroke="black" d="M490.76,-71.6966C490.76,-60.8463 490.76,-46.9167 490.76,-36.1043"/>
</g>
<!-- 1408158765888 -->
<g id="node25" class="node"><title>1408158765888</title>
<ellipse fill="black" stroke="black" cx="655.76" cy="-18" rx="2.7" ry="2.7"/>
</g>
<!-- 1408158765552&#45;&#45;1408158765888 -->
<g id="edge19" class="edge"><title>1408158765552&#45;&#45;1408158765888</title>
<path fill="none" stroke="black" d="M711.256,-74.496C693.315,-56.5555 664.282,-27.5217 657.304,-20.5436"/>
</g>
<!-- 1408158765984 -->
<g id="node26" class="node"><title>1408158765984</title>
<ellipse fill="none" stroke="black" cx="796.76" cy="-18" rx="120.43" ry="18"/>
<text text-anchor="middle" x="796.76" y="-14.5" font-family="Times New Roman,serif" font-size="15.00">Send Appeal to Prefecture</text>
</g>
<!-- 1408158765552&#45;&#45;1408158765984 -->
<g id="edge20" class="edge"><title>1408158765552&#45;&#45;1408158765984</title>
<path fill="none" stroke="black" d="M740.471,-74.496C751.844,-63.2831 767.612,-47.737 779.567,-35.9506"/>
</g>
<!-- 1408158765216 -->
<g id="node28" class="node"><title>1408158765216</title>
<ellipse fill="none" stroke="black" cx="937.76" cy="-90" rx="46.6143" ry="18"/>
<text text-anchor="middle" x="937.76" y="-86.5" font-family="Times New Roman,serif" font-size="15.00">xor loop</text>
</g>
<!-- 1408158765168&#45;&#45;1408158765216 -->
<g id="edge25" class="edge"><title>1408158765168&#45;&#45;1408158765216</title>
<path fill="none" stroke="black" d="M937.76,-143.697C937.76,-132.846 937.76,-118.917 937.76,-108.104"/>
</g>
<!-- 1408158766224 -->
<g id="node31" class="node"><title>1408158766224</title>
<ellipse fill="none" stroke="black" cx="1063.76" cy="-90" rx="61.6894" ry="18"/>
<text text-anchor="middle" x="1063.76" y="-86.5" font-family="Times New Roman,serif" font-size="15.00">Add penalty</text>
</g>
<!-- 1408158765168&#45;&#45;1408158766224 -->
<g id="edge26" class="edge"><title>1408158765168&#45;&#45;1408158766224</title>
<path fill="none" stroke="black" d="M958.004,-149.753C979.152,-138.005 1012.47,-119.495 1036.05,-106.394"/>
</g>
<!-- 1408158766272 -->
<g id="node29" class="node"><title>1408158766272</title>
<ellipse fill="black" stroke="black" cx="937.76" cy="-18" rx="2.7" ry="2.7"/>
</g>
<!-- 1408158765216&#45;&#45;1408158766272 -->
<g id="edge23" class="edge"><title>1408158765216&#45;&#45;1408158766272</title>
<path fill="none" stroke="black" d="M937.76,-71.6966C937.76,-53.8826 937.76,-27.7686 937.76,-20.7764"/>
</g>
<!-- 1408158766368 -->
<g id="node30" class="node"><title>1408158766368</title>
<ellipse fill="none" stroke="black" cx="1004.76" cy="-18" rx="45.7249" ry="18"/>
<text text-anchor="middle" x="1004.76" y="-14.5" font-family="Times New Roman,serif" font-size="15.00">Payment</text>
</g>
<!-- 1408158765216&#45;&#45;1408158766368 -->
<g id="edge24" class="edge"><title>1408158765216&#45;&#45;1408158766368</title>
<path fill="none" stroke="black" d="M953.299,-72.7646C964.123,-61.456 978.499,-46.4367 989.305,-35.1473"/>
</g>
<!-- 1408159379360 -->
<g id="node33" class="node"><title>1408159379360</title>
<ellipse fill="black" stroke="black" cx="583.76" cy="-306" rx="2.7" ry="2.7"/>
</g>
<!-- 1408159378448&#45;&#45;1408159379360 -->
<g id="edge31" class="edge"><title>1408159378448&#45;&#45;1408159379360</title>
<path fill="none" stroke="black" d="M583.76,-359.697C583.76,-341.883 583.76,-315.769 583.76,-308.776"/>
</g>
<!-- 1408159378784 -->
<g id="node34" class="node"><title>1408159378784</title>
<ellipse fill="none" stroke="black" cx="725.76" cy="-306" rx="120.819" ry="18"/>
<text text-anchor="middle" x="725.76" y="-302.5" font-family="Times New Roman,serif" font-size="15.00">Send for Credit Collection</text>
</g>
<!-- 1408159378448&#45;&#45;1408159378784 -->
<g id="edge32" class="edge"><title>1408159378448&#45;&#45;1408159378784</title>
<path fill="none" stroke="black" d="M605.019,-366.52C628.152,-355.116 665.444,-336.733 692.468,-323.412"/>
</g>
</g>
</svg>
