<?xml version="1.0" encoding="UTF-8" standalone="no"?>
<!DOCTYPE svg PUBLIC "-//W3C//DTD SVG 1.1//EN"
 "http://www.w3.org/Graphics/SVG/1.1/DTD/svg11.dtd">
<!-- Generated by graphviz version 2.38.0 (20140413.2041)
 -->
<!-- Title: pt Pages: 1 -->
<svg width="2829pt" height="764pt"
 viewBox="0.00 0.00 2829.08 764.00" xmlns="http://www.w3.org/2000/svg" xmlns:xlink="http://www.w3.org/1999/xlink">
<g id="graph0" class="graph" transform="scale(1 1) rotate(0) translate(4 760)">
<title>pt</title>
<!-- 1408174311888 -->
<g id="node1" class="node"><title>1408174311888</title>
<ellipse fill="none" stroke="black" cx="328.557" cy="-738" rx="27" ry="18"/>
<text text-anchor="middle" x="328.557" y="-734.5" font-family="Times New Roman,serif" font-size="15.00">and</text>
</g>
<!-- 1408174313136 -->
<g id="node2" class="node"><title>1408174313136</title>
<ellipse fill="none" stroke="black" cx="172.557" cy="-666" rx="27" ry="18"/>
<text text-anchor="middle" x="172.557" y="-662.5" font-family="Times New Roman,serif" font-size="15.00">xor</text>
</g>
<!-- 1408174311888&#45;&#45;1408174313136 -->
<g id="edge7" class="edge"><title>1408174311888&#45;&#45;1408174313136</title>
<path fill="none" stroke="black" d="M306.866,-727.267C277.145,-713.931 224.07,-690.115 194.315,-676.763"/>
</g>
<!-- 1408174310592 -->
<g id="node9" class="node"><title>1408174310592</title>
<ellipse fill="none" stroke="black" cx="328.557" cy="-666" rx="27" ry="18"/>
<text text-anchor="middle" x="328.557" y="-662.5" font-family="Times New Roman,serif" font-size="15.00">xor</text>
</g>
<!-- 1408174311888&#45;&#45;1408174310592 -->
<g id="edge22" class="edge"><title>1408174311888&#45;&#45;1408174310592</title>
<path fill="none" stroke="black" d="M328.557,-719.697C328.557,-708.846 328.557,-694.917 328.557,-684.104"/>
</g>
<!-- 1408174312464 -->
<g id="node24" class="node"><title>1408174312464</title>
<ellipse fill="none" stroke="black" cx="936.557" cy="-666" rx="27" ry="18"/>
<text text-anchor="middle" x="936.557" y="-662.5" font-family="Times New Roman,serif" font-size="15.00">seq</text>
</g>
<!-- 1408174311888&#45;&#45;1408174312464 -->
<g id="edge75" class="edge"><title>1408174311888&#45;&#45;1408174312464</title>
<path fill="none" stroke="black" d="M355.073,-733.947C455.182,-722.421 809.556,-681.622 909.902,-670.069"/>
</g>
<!-- 1408174309872 -->
<g id="node3" class="node"><title>1408174309872</title>
<ellipse fill="black" stroke="black" cx="124.557" cy="-594" rx="2.7" ry="2.7"/>
</g>
<!-- 1408174313136&#45;&#45;1408174309872 -->
<g id="edge1" class="edge"><title>1408174313136&#45;&#45;1408174309872</title>
<path fill="none" stroke="black" d="M161.665,-649.116C149.495,-631.367 130.837,-604.158 125.83,-596.857"/>
</g>
<!-- 1408174312896 -->
<g id="node4" class="node"><title>1408174312896</title>
<ellipse fill="none" stroke="black" cx="172.557" cy="-594" rx="27" ry="18"/>
<text text-anchor="middle" x="172.557" y="-590.5" font-family="Times New Roman,serif" font-size="15.00">and</text>
</g>
<!-- 1408174313136&#45;&#45;1408174312896 -->
<g id="edge6" class="edge"><title>1408174313136&#45;&#45;1408174312896</title>
<path fill="none" stroke="black" d="M172.557,-647.697C172.557,-636.846 172.557,-622.917 172.557,-612.104"/>
</g>
<!-- 1408174309488 -->
<g id="node5" class="node"><title>1408174309488</title>
<ellipse fill="none" stroke="black" cx="46.5571" cy="-522" rx="46.6143" ry="18"/>
<text text-anchor="middle" x="46.5571" y="-518.5" font-family="Times New Roman,serif" font-size="15.00">xor loop</text>
</g>
<!-- 1408174312896&#45;&#45;1408174309488 -->
<g id="edge4" class="edge"><title>1408174312896&#45;&#45;1408174309488</title>
<path fill="none" stroke="black" d="M152.313,-581.753C130.47,-569.618 95.6423,-550.27 71.9722,-537.119"/>
</g>
<!-- 1408174312368 -->
<g id="node8" class="node"><title>1408174312368</title>
<ellipse fill="none" stroke="black" cx="172.557" cy="-522" rx="61.6894" ry="18"/>
<text text-anchor="middle" x="172.557" y="-518.5" font-family="Times New Roman,serif" font-size="15.00">Add penalty</text>
</g>
<!-- 1408174312896&#45;&#45;1408174312368 -->
<g id="edge5" class="edge"><title>1408174312896&#45;&#45;1408174312368</title>
<path fill="none" stroke="black" d="M172.557,-575.697C172.557,-564.846 172.557,-550.917 172.557,-540.104"/>
</g>
<!-- 1408174311840 -->
<g id="node6" class="node"><title>1408174311840</title>
<ellipse fill="black" stroke="black" cx="12.5571" cy="-450" rx="2.7" ry="2.7"/>
</g>
<!-- 1408174309488&#45;&#45;1408174311840 -->
<g id="edge2" class="edge"><title>1408174309488&#45;&#45;1408174311840</title>
<path fill="none" stroke="black" d="M38.3267,-504.055C29.6793,-486.252 16.8631,-459.865 13.4296,-452.796"/>
</g>
<!-- 1408174310016 -->
<g id="node7" class="node"><title>1408174310016</title>
<ellipse fill="none" stroke="black" cx="79.5571" cy="-450" rx="45.7249" ry="18"/>
<text text-anchor="middle" x="79.5571" y="-446.5" font-family="Times New Roman,serif" font-size="15.00">Payment</text>
</g>
<!-- 1408174309488&#45;&#45;1408174310016 -->
<g id="edge3" class="edge"><title>1408174309488&#45;&#45;1408174310016</title>
<path fill="none" stroke="black" d="M54.5455,-504.055C59.7339,-493.049 66.4686,-478.764 71.6423,-467.789"/>
</g>
<!-- 1408220840816 -->
<g id="node10" class="node"><title>1408220840816</title>
<ellipse fill="black" stroke="black" cx="304.557" cy="-594" rx="2.7" ry="2.7"/>
</g>
<!-- 1408174310592&#45;&#45;1408220840816 -->
<g id="edge8" class="edge"><title>1408174310592&#45;&#45;1408220840816</title>
<path fill="none" stroke="black" d="M322.747,-648.055C316.643,-630.252 307.597,-603.865 305.173,-596.796"/>
</g>
<!-- 1408220841392 -->
<g id="node11" class="node"><title>1408220841392</title>
<ellipse fill="none" stroke="black" cx="352.557" cy="-594" rx="27" ry="18"/>
<text text-anchor="middle" x="352.557" y="-590.5" font-family="Times New Roman,serif" font-size="15.00">and</text>
</g>
<!-- 1408174310592&#45;&#45;1408220841392 -->
<g id="edge21" class="edge"><title>1408174310592&#45;&#45;1408220841392</title>
<path fill="none" stroke="black" d="M334.367,-648.055C338.14,-637.049 343.038,-622.764 346.801,-611.789"/>
</g>
<!-- 1408220841488 -->
<g id="node12" class="node"><title>1408220841488</title>
<ellipse fill="none" stroke="black" cx="298.557" cy="-522" rx="46.6143" ry="18"/>
<text text-anchor="middle" x="298.557" y="-518.5" font-family="Times New Roman,serif" font-size="15.00">xor loop</text>
</g>
<!-- 1408220841392&#45;&#45;1408220841488 -->
<g id="edge11" class="edge"><title>1408220841392&#45;&#45;1408220841488</title>
<path fill="none" stroke="black" d="M340.573,-577.465C331.873,-566.187 320.123,-550.955 311.26,-539.467"/>
</g>
<!-- 1408220842976 -->
<g id="node15" class="node"><title>1408220842976</title>
<ellipse fill="none" stroke="black" cx="407.557" cy="-522" rx="27" ry="18"/>
<text text-anchor="middle" x="407.557" y="-518.5" font-family="Times New Roman,serif" font-size="15.00">seq</text>
</g>
<!-- 1408220841392&#45;&#45;1408220842976 -->
<g id="edge20" class="edge"><title>1408220841392&#45;&#45;1408220842976</title>
<path fill="none" stroke="black" d="M364.491,-577.811C373.717,-566.07 386.427,-549.893 395.646,-538.159"/>
</g>
<!-- 1407999587952 -->
<g id="node13" class="node"><title>1407999587952</title>
<ellipse fill="black" stroke="black" cx="214.557" cy="-450" rx="2.7" ry="2.7"/>
</g>
<!-- 1408220841488&#45;&#45;1407999587952 -->
<g id="edge9" class="edge"><title>1408220841488&#45;&#45;1407999587952</title>
<path fill="none" stroke="black" d="M279.915,-505.465C258.261,-487.42 224.462,-459.254 216.35,-452.494"/>
</g>
<!-- 1407999587904 -->
<g id="node14" class="node"><title>1407999587904</title>
<ellipse fill="none" stroke="black" cx="281.557" cy="-450" rx="45.7249" ry="18"/>
<text text-anchor="middle" x="281.557" y="-446.5" font-family="Times New Roman,serif" font-size="15.00">Payment</text>
</g>
<!-- 1408220841488&#45;&#45;1407999587904 -->
<g id="edge10" class="edge"><title>1408220841488&#45;&#45;1407999587904</title>
<path fill="none" stroke="black" d="M294.442,-504.055C291.808,-493.211 288.402,-479.183 285.753,-468.275"/>
</g>
<!-- 1407997940256 -->
<g id="node16" class="node"><title>1407997940256</title>
<ellipse fill="none" stroke="black" cx="407.557" cy="-450" rx="61.6894" ry="18"/>
<text text-anchor="middle" x="407.557" y="-446.5" font-family="Times New Roman,serif" font-size="15.00">Add penalty</text>
</g>
<!-- 1408220842976&#45;&#45;1407997940256 -->
<g id="edge12" class="edge"><title>1408220842976&#45;&#45;1407997940256</title>
<path fill="none" stroke="black" d="M407.557,-503.697C407.557,-492.846 407.557,-478.917 407.557,-468.104"/>
</g>
<!-- 1407997940880 -->
<g id="node17" class="node"><title>1407997940880</title>
<ellipse fill="none" stroke="black" cx="514.557" cy="-450" rx="27" ry="18"/>
<text text-anchor="middle" x="514.557" y="-446.5" font-family="Times New Roman,serif" font-size="15.00">xor</text>
</g>
<!-- 1408220842976&#45;&#45;1407997940880 -->
<g id="edge19" class="edge"><title>1408220842976&#45;&#45;1407997940880</title>
<path fill="none" stroke="black" d="M426.195,-508.807C445.714,-496.037 476.2,-476.093 495.774,-463.288"/>
</g>
<!-- 1407997940304 -->
<g id="node18" class="node"><title>1407997940304</title>
<ellipse fill="black" stroke="black" cx="466.557" cy="-378" rx="2.7" ry="2.7"/>
</g>
<!-- 1407997940880&#45;&#45;1407997940304 -->
<g id="edge13" class="edge"><title>1407997940880&#45;&#45;1407997940304</title>
<path fill="none" stroke="black" d="M503.665,-433.116C491.495,-415.367 472.837,-388.158 467.83,-380.857"/>
</g>
<!-- 1407997943712 -->
<g id="node19" class="node"><title>1407997943712</title>
<ellipse fill="none" stroke="black" cx="514.557" cy="-378" rx="27" ry="18"/>
<text text-anchor="middle" x="514.557" y="-374.5" font-family="Times New Roman,serif" font-size="15.00">seq</text>
</g>
<!-- 1407997940880&#45;&#45;1407997943712 -->
<g id="edge18" class="edge"><title>1407997940880&#45;&#45;1407997943712</title>
<path fill="none" stroke="black" d="M514.557,-431.697C514.557,-420.846 514.557,-406.917 514.557,-396.104"/>
</g>
<!-- 1407997942800 -->
<g id="node20" class="node"><title>1407997942800</title>
<ellipse fill="none" stroke="black" cx="431.557" cy="-306" rx="120.819" ry="18"/>
<text text-anchor="middle" x="431.557" y="-302.5" font-family="Times New Roman,serif" font-size="15.00">Send for Credit Collection</text>
</g>
<!-- 1407997943712&#45;&#45;1407997942800 -->
<g id="edge14" class="edge"><title>1407997943712&#45;&#45;1407997942800</title>
<path fill="none" stroke="black" d="M498.159,-363.17C484.742,-351.855 465.717,-335.81 451.434,-323.764"/>
</g>
<!-- 1407997943376 -->
<g id="node21" class="node"><title>1407997943376</title>
<ellipse fill="none" stroke="black" cx="597.557" cy="-306" rx="27" ry="18"/>
<text text-anchor="middle" x="597.557" y="-302.5" font-family="Times New Roman,serif" font-size="15.00">xor</text>
</g>
<!-- 1407997943712&#45;&#45;1407997943376 -->
<g id="edge17" class="edge"><title>1407997943712&#45;&#45;1407997943376</title>
<path fill="none" stroke="black" d="M530.955,-363.17C545.601,-350.819 566.927,-332.832 581.475,-320.563"/>
</g>
<!-- 1408233492432 -->
<g id="node22" class="node"><title>1408233492432</title>
<ellipse fill="black" stroke="black" cx="526.557" cy="-234" rx="2.7" ry="2.7"/>
</g>
<!-- 1407997943376&#45;&#45;1408233492432 -->
<g id="edge15" class="edge"><title>1407997943376&#45;&#45;1408233492432</title>
<path fill="none" stroke="black" d="M582.846,-290.496C564.649,-272.555 535.201,-243.522 528.123,-236.544"/>
</g>
<!-- 1408233489984 -->
<g id="node23" class="node"><title>1408233489984</title>
<ellipse fill="none" stroke="black" cx="667.557" cy="-234" rx="120.43" ry="18"/>
<text text-anchor="middle" x="667.557" y="-230.5" font-family="Times New Roman,serif" font-size="15.00">Send Appeal to Prefecture</text>
</g>
<!-- 1407997943376&#45;&#45;1408233489984 -->
<g id="edge16" class="edge"><title>1407997943376&#45;&#45;1408233489984</title>
<path fill="none" stroke="black" d="M612.061,-290.496C623.274,-279.283 638.82,-263.737 650.606,-251.951"/>
</g>
<!-- 1408174309584 -->
<g id="node25" class="node"><title>1408174309584</title>
<ellipse fill="none" stroke="black" cx="884.557" cy="-594" rx="59.5207" ry="18"/>
<text text-anchor="middle" x="884.557" y="-590.5" font-family="Times New Roman,serif" font-size="15.00">Create Fine</text>
</g>
<!-- 1408174312464&#45;&#45;1408174309584 -->
<g id="edge23" class="edge"><title>1408174312464&#45;&#45;1408174309584</title>
<path fill="none" stroke="black" d="M925.017,-649.465C916.758,-638.348 905.647,-623.39 897.157,-611.962"/>
</g>
<!-- 1408174313232 -->
<g id="node26" class="node"><title>1408174313232</title>
<ellipse fill="none" stroke="black" cx="989.557" cy="-594" rx="27" ry="18"/>
<text text-anchor="middle" x="989.557" y="-590.5" font-family="Times New Roman,serif" font-size="15.00">xor</text>
</g>
<!-- 1408174312464&#45;&#45;1408174313232 -->
<g id="edge42" class="edge"><title>1408174312464&#45;&#45;1408174313232</title>
<path fill="none" stroke="black" d="M948.32,-649.465C957.103,-637.865 969.052,-622.082 977.828,-610.492"/>
</g>
<!-- 1408174309680 -->
<g id="node45" class="node"><title>1408174309680</title>
<ellipse fill="none" stroke="black" cx="1610.56" cy="-594" rx="27" ry="18"/>
<text text-anchor="middle" x="1610.56" y="-590.5" font-family="Times New Roman,serif" font-size="15.00">xor</text>
</g>
<!-- 1408174312464&#45;&#45;1408174309680 -->
<g id="edge74" class="edge"><title>1408174312464&#45;&#45;1408174309680</title>
<path fill="none" stroke="black" d="M962.979,-662.256C1070.68,-651.071 1475.92,-608.983 1583.95,-597.763"/>
</g>
<!-- 1408174311936 -->
<g id="node27" class="node"><title>1408174311936</title>
<ellipse fill="black" stroke="black" cx="965.557" cy="-522" rx="2.7" ry="2.7"/>
</g>
<!-- 1408174313232&#45;&#45;1408174311936 -->
<g id="edge24" class="edge"><title>1408174313232&#45;&#45;1408174311936</title>
<path fill="none" stroke="black" d="M983.747,-576.055C977.643,-558.252 968.597,-531.865 966.173,-524.796"/>
</g>
<!-- 1408174312944 -->
<g id="node28" class="node"><title>1408174312944</title>
<ellipse fill="none" stroke="black" cx="1013.56" cy="-522" rx="27" ry="18"/>
<text text-anchor="middle" x="1013.56" y="-518.5" font-family="Times New Roman,serif" font-size="15.00">seq</text>
</g>
<!-- 1408174313232&#45;&#45;1408174312944 -->
<g id="edge41" class="edge"><title>1408174313232&#45;&#45;1408174312944</title>
<path fill="none" stroke="black" d="M995.367,-576.055C999.14,-565.049 1004.04,-550.764 1007.8,-539.789"/>
</g>
<!-- 1408220842160 -->
<g id="node29" class="node"><title>1408220842160</title>
<ellipse fill="none" stroke="black" cx="727.557" cy="-450" rx="27" ry="18"/>
<text text-anchor="middle" x="727.557" y="-446.5" font-family="Times New Roman,serif" font-size="15.00">xor</text>
</g>
<!-- 1408174312944&#45;&#45;1408220842160 -->
<g id="edge27" class="edge"><title>1408174312944&#45;&#45;1408220842160</title>
<path fill="none" stroke="black" d="M988.677,-514.91C934.588,-501.672 806.805,-470.396 752.584,-457.125"/>
</g>
<!-- 1408220842736 -->
<g id="node32" class="node"><title>1408220842736</title>
<ellipse fill="none" stroke="black" cx="977.557" cy="-450" rx="27" ry="18"/>
<text text-anchor="middle" x="977.557" y="-446.5" font-family="Times New Roman,serif" font-size="15.00">and</text>
</g>
<!-- 1408174312944&#45;&#45;1408220842736 -->
<g id="edge34" class="edge"><title>1408174312944&#45;&#45;1408220842736</title>
<path fill="none" stroke="black" d="M1005.21,-504.765C999.392,-493.456 991.667,-478.437 985.861,-467.147"/>
</g>
<!-- 1408220841152 -->
<g id="node39" class="node"><title>1408220841152</title>
<ellipse fill="none" stroke="black" cx="1049.56" cy="-450" rx="27" ry="18"/>
<text text-anchor="middle" x="1049.56" y="-446.5" font-family="Times New Roman,serif" font-size="15.00">xor</text>
</g>
<!-- 1408174312944&#45;&#45;1408220841152 -->
<g id="edge37" class="edge"><title>1408174312944&#45;&#45;1408220841152</title>
<path fill="none" stroke="black" d="M1021.91,-504.765C1027.72,-493.456 1035.45,-478.437 1041.25,-467.147"/>
</g>
<!-- 1408220842400 -->
<g id="node42" class="node"><title>1408220842400</title>
<ellipse fill="none" stroke="black" cx="1367.56" cy="-450" rx="27" ry="18"/>
<text text-anchor="middle" x="1367.56" y="-446.5" font-family="Times New Roman,serif" font-size="15.00">xor</text>
</g>
<!-- 1408174312944&#45;&#45;1408220842400 -->
<g id="edge40" class="edge"><title>1408174312944&#45;&#45;1408220842400</title>
<path fill="none" stroke="black" d="M1039.02,-515.966C1104.17,-503.082 1276.43,-469.02 1341.85,-456.083"/>
</g>
<!-- 1408220842592 -->
<g id="node30" class="node"><title>1408220842592</title>
<ellipse fill="black" stroke="black" cx="562.557" cy="-378" rx="2.7" ry="2.7"/>
</g>
<!-- 1408220842160&#45;&#45;1408220842592 -->
<g id="edge25" class="edge"><title>1408220842160&#45;&#45;1408220842592</title>
<path fill="none" stroke="black" d="M705.304,-439.559C664.137,-422.094 578.962,-385.96 564.626,-379.878"/>
</g>
<!-- 1408220842448 -->
<g id="node31" class="node"><title>1408220842448</title>
<ellipse fill="none" stroke="black" cx="727.557" cy="-378" rx="144.571" ry="18"/>
<text text-anchor="middle" x="727.557" y="-374.5" font-family="Times New Roman,serif" font-size="15.00">Insert Date Appeal to Prefecture</text>
</g>
<!-- 1408220842160&#45;&#45;1408220842448 -->
<g id="edge26" class="edge"><title>1408220842160&#45;&#45;1408220842448</title>
<path fill="none" stroke="black" d="M727.557,-431.697C727.557,-420.846 727.557,-406.917 727.557,-396.104"/>
</g>
<!-- 1408220841632 -->
<g id="node33" class="node"><title>1408220841632</title>
<ellipse fill="none" stroke="black" cx="917.557" cy="-378" rx="27" ry="18"/>
<text text-anchor="middle" x="917.557" y="-374.5" font-family="Times New Roman,serif" font-size="15.00">xor</text>
</g>
<!-- 1408220842736&#45;&#45;1408220841632 -->
<g id="edge30" class="edge"><title>1408220842736&#45;&#45;1408220841632</title>
<path fill="none" stroke="black" d="M964.538,-433.811C954.474,-422.07 940.608,-405.893 930.551,-394.159"/>
</g>
<!-- 1408220843936 -->
<g id="node36" class="node"><title>1408220843936</title>
<ellipse fill="none" stroke="black" cx="989.557" cy="-378" rx="27" ry="18"/>
<text text-anchor="middle" x="989.557" y="-374.5" font-family="Times New Roman,serif" font-size="15.00">xor</text>
</g>
<!-- 1408220842736&#45;&#45;1408220843936 -->
<g id="edge33" class="edge"><title>1408220842736&#45;&#45;1408220843936</title>
<path fill="none" stroke="black" d="M980.462,-432.055C982.321,-421.211 984.726,-407.183 986.596,-396.275"/>
</g>
<!-- 1408220843744 -->
<g id="node34" class="node"><title>1408220843744</title>
<ellipse fill="black" stroke="black" cx="842.557" cy="-306" rx="2.7" ry="2.7"/>
</g>
<!-- 1408220841632&#45;&#45;1408220843744 -->
<g id="edge28" class="edge"><title>1408220841632&#45;&#45;1408220843744</title>
<path fill="none" stroke="black" d="M902.38,-362.834C883.204,-344.937 851.784,-315.612 844.229,-308.56"/>
</g>
<!-- 1408220840720 -->
<g id="node35" class="node"><title>1408220840720</title>
<ellipse fill="none" stroke="black" cx="916.557" cy="-306" rx="52.6228" ry="18"/>
<text text-anchor="middle" x="916.557" y="-302.5" font-family="Times New Roman,serif" font-size="15.00">Send Fine</text>
</g>
<!-- 1408220841632&#45;&#45;1408220840720 -->
<g id="edge29" class="edge"><title>1408220841632&#45;&#45;1408220840720</title>
<path fill="none" stroke="black" d="M917.31,-359.697C917.155,-348.846 916.956,-334.917 916.801,-324.104"/>
</g>
<!-- 1408220840576 -->
<g id="node37" class="node"><title>1408220840576</title>
<ellipse fill="black" stroke="black" cx="990.557" cy="-306" rx="2.7" ry="2.7"/>
</g>
<!-- 1408220843936&#45;&#45;1408220840576 -->
<g id="edge31" class="edge"><title>1408220843936&#45;&#45;1408220840576</title>
<path fill="none" stroke="black" d="M989.804,-359.697C990.059,-341.883 990.432,-315.769 990.532,-308.776"/>
</g>
<!-- 1408220843216 -->
<g id="node38" class="node"><title>1408220843216</title>
<ellipse fill="none" stroke="black" cx="1057.56" cy="-306" rx="45.7249" ry="18"/>
<text text-anchor="middle" x="1057.56" y="-302.5" font-family="Times New Roman,serif" font-size="15.00">Payment</text>
</g>
<!-- 1408220843936&#45;&#45;1408220843216 -->
<g id="edge32" class="edge"><title>1408220843936&#45;&#45;1408220843216</title>
<path fill="none" stroke="black" d="M1003.65,-362.496C1014.85,-350.963 1030.51,-334.845 1042.06,-322.95"/>
</g>
<!-- 1408220843408 -->
<g id="node40" class="node"><title>1408220843408</title>
<ellipse fill="black" stroke="black" cx="1037.56" cy="-378" rx="2.7" ry="2.7"/>
</g>
<!-- 1408220841152&#45;&#45;1408220843408 -->
<g id="edge35" class="edge"><title>1408220841152&#45;&#45;1408220843408</title>
<path fill="none" stroke="black" d="M1046.65,-432.055C1043.6,-414.252 1039.08,-387.865 1037.87,-380.796"/>
</g>
<!-- 1408220840528 -->
<g id="node41" class="node"><title>1408220840528</title>
<ellipse fill="none" stroke="black" cx="1202.56" cy="-378" rx="144.571" ry="18"/>
<text text-anchor="middle" x="1202.56" y="-374.5" font-family="Times New Roman,serif" font-size="15.00">Insert Date Appeal to Prefecture</text>
</g>
<!-- 1408220841152&#45;&#45;1408220840528 -->
<g id="edge36" class="edge"><title>1408220841152&#45;&#45;1408220840528</title>
<path fill="none" stroke="black" d="M1071.15,-439.119C1095.95,-427.776 1137,-408.991 1166.63,-395.436"/>
</g>
<!-- 1408220842496 -->
<g id="node43" class="node"><title>1408220842496</title>
<ellipse fill="black" stroke="black" cx="1367.56" cy="-378" rx="2.7" ry="2.7"/>
</g>
<!-- 1408220842400&#45;&#45;1408220842496 -->
<g id="edge38" class="edge"><title>1408220842400&#45;&#45;1408220842496</title>
<path fill="none" stroke="black" d="M1367.56,-431.697C1367.56,-413.883 1367.56,-387.769 1367.56,-380.776"/>
</g>
<!-- 1408220842208 -->
<g id="node44" class="node"><title>1408220842208</title>
<ellipse fill="none" stroke="black" cx="1495.56" cy="-378" rx="107.914" ry="18"/>
<text text-anchor="middle" x="1495.56" y="-374.5" font-family="Times New Roman,serif" font-size="15.00">Insert Fine Notification</text>
</g>
<!-- 1408220842400&#45;&#45;1408220842208 -->
<g id="edge39" class="edge"><title>1408220842400&#45;&#45;1408220842208</title>
<path fill="none" stroke="black" d="M1387.84,-437.908C1408.71,-426.497 1441.45,-408.591 1465.36,-395.514"/>
</g>
<!-- 1408220842304 -->
<g id="node46" class="node"><title>1408220842304</title>
<ellipse fill="none" stroke="black" cx="1548.56" cy="-522" rx="78.5434" ry="18"/>
<text text-anchor="middle" x="1548.56" y="-518.5" font-family="Times New Roman,serif" font-size="15.00">Appeal to Judge</text>
</g>
<!-- 1408174309680&#45;&#45;1408220842304 -->
<g id="edge43" class="edge"><title>1408174309680&#45;&#45;1408220842304</title>
<path fill="none" stroke="black" d="M1597.41,-578.155C1587.46,-566.918 1573.78,-551.476 1563.43,-539.789"/>
</g>
<!-- 1408220843456 -->
<g id="node47" class="node"><title>1408220843456</title>
<ellipse fill="none" stroke="black" cx="1672.56" cy="-522" rx="27" ry="18"/>
<text text-anchor="middle" x="1672.56" y="-518.5" font-family="Times New Roman,serif" font-size="15.00">seq</text>
</g>
<!-- 1408174309680&#45;&#45;1408220843456 -->
<g id="edge47" class="edge"><title>1408174309680&#45;&#45;1408220843456</title>
<path fill="none" stroke="black" d="M1623.71,-578.155C1634.23,-566.276 1648.91,-549.697 1659.43,-537.824"/>
</g>
<!-- 1408220842256 -->
<g id="node51" class="node"><title>1408220842256</title>
<ellipse fill="none" stroke="black" cx="1775.56" cy="-522" rx="27" ry="18"/>
<text text-anchor="middle" x="1775.56" y="-518.5" font-family="Times New Roman,serif" font-size="15.00">seq</text>
</g>
<!-- 1408174309680&#45;&#45;1408220842256 -->
<g id="edge73" class="edge"><title>1408174309680&#45;&#45;1408220842256</title>
<path fill="none" stroke="black" d="M1632.81,-583.559C1664.39,-570.162 1721.86,-545.779 1753.39,-532.402"/>
</g>
<!-- 1408220841536 -->
<g id="node48" class="node"><title>1408220841536</title>
<ellipse fill="none" stroke="black" cx="1672.56" cy="-450" rx="27" ry="18"/>
<text text-anchor="middle" x="1672.56" y="-446.5" font-family="Times New Roman,serif" font-size="15.00">xor</text>
</g>
<!-- 1408220843456&#45;&#45;1408220841536 -->
<g id="edge46" class="edge"><title>1408220843456&#45;&#45;1408220841536</title>
<path fill="none" stroke="black" d="M1672.56,-503.697C1672.56,-492.846 1672.56,-478.917 1672.56,-468.104"/>
</g>
<!-- 1408220843840 -->
<g id="node49" class="node"><title>1408220843840</title>
<ellipse fill="black" stroke="black" cx="1623.56" cy="-378" rx="2.7" ry="2.7"/>
</g>
<!-- 1408220841536&#45;&#45;1408220843840 -->
<g id="edge44" class="edge"><title>1408220841536&#45;&#45;1408220843840</title>
<path fill="none" stroke="black" d="M1661.68,-433.465C1649.05,-415.42 1629.33,-387.254 1624.6,-380.494"/>
</g>
<!-- 1408220842784 -->
<g id="node50" class="node"><title>1408220842784</title>
<ellipse fill="none" stroke="black" cx="1690.56" cy="-378" rx="45.7249" ry="18"/>
<text text-anchor="middle" x="1690.56" y="-374.5" font-family="Times New Roman,serif" font-size="15.00">Payment</text>
</g>
<!-- 1408220841536&#45;&#45;1408220842784 -->
<g id="edge45" class="edge"><title>1408220841536&#45;&#45;1408220842784</title>
<path fill="none" stroke="black" d="M1676.91,-432.055C1679.7,-421.211 1683.31,-407.183 1686.11,-396.275"/>
</g>
<!-- 1408220840912 -->
<g id="node52" class="node"><title>1408220840912</title>
<ellipse fill="none" stroke="black" cx="1775.56" cy="-450" rx="27" ry="18"/>
<text text-anchor="middle" x="1775.56" y="-446.5" font-family="Times New Roman,serif" font-size="15.00">xor</text>
</g>
<!-- 1408220842256&#45;&#45;1408220840912 -->
<g id="edge50" class="edge"><title>1408220842256&#45;&#45;1408220840912</title>
<path fill="none" stroke="black" d="M1775.56,-503.697C1775.56,-492.846 1775.56,-478.917 1775.56,-468.104"/>
</g>
<!-- 1408220841728 -->
<g id="node55" class="node"><title>1408220841728</title>
<ellipse fill="none" stroke="black" cx="2087.56" cy="-450" rx="27" ry="18"/>
<text text-anchor="middle" x="2087.56" y="-446.5" font-family="Times New Roman,serif" font-size="15.00">xor</text>
</g>
<!-- 1408220842256&#45;&#45;1408220841728 -->
<g id="edge72" class="edge"><title>1408220842256&#45;&#45;1408220841728</title>
<path fill="none" stroke="black" d="M1800.83,-515.331C1859.29,-502.214 2003.36,-469.89 2062.05,-456.722"/>
</g>
<!-- 1408220843168 -->
<g id="node53" class="node"><title>1408220843168</title>
<ellipse fill="black" stroke="black" cx="1757.56" cy="-378" rx="2.7" ry="2.7"/>
</g>
<!-- 1408220840912&#45;&#45;1408220843168 -->
<g id="edge48" class="edge"><title>1408220840912&#45;&#45;1408220843168</title>
<path fill="none" stroke="black" d="M1771.2,-432.055C1766.62,-414.252 1759.84,-387.865 1758.02,-380.796"/>
</g>
<!-- 1408220843504 -->
<g id="node54" class="node"><title>1408220843504</title>
<ellipse fill="none" stroke="black" cx="1922.56" cy="-378" rx="144.571" ry="18"/>
<text text-anchor="middle" x="1922.56" y="-374.5" font-family="Times New Roman,serif" font-size="15.00">Insert Date Appeal to Prefecture</text>
</g>
<!-- 1408220840912&#45;&#45;1408220843504 -->
<g id="edge49" class="edge"><title>1408220840912&#45;&#45;1408220843504</title>
<path fill="none" stroke="black" d="M1796.93,-438.821C1820.74,-427.484 1859.58,-408.987 1887.78,-395.559"/>
</g>
<!-- 1408220842064 -->
<g id="node56" class="node"><title>1408220842064</title>
<ellipse fill="black" stroke="black" cx="2087.56" cy="-378" rx="2.7" ry="2.7"/>
</g>
<!-- 1408220841728&#45;&#45;1408220842064 -->
<g id="edge51" class="edge"><title>1408220841728&#45;&#45;1408220842064</title>
<path fill="none" stroke="black" d="M2087.56,-431.697C2087.56,-413.883 2087.56,-387.769 2087.56,-380.776"/>
</g>
<!-- 1408220842688 -->
<g id="node57" class="node"><title>1408220842688</title>
<ellipse fill="none" stroke="black" cx="2135.56" cy="-378" rx="27" ry="18"/>
<text text-anchor="middle" x="2135.56" y="-374.5" font-family="Times New Roman,serif" font-size="15.00">seq</text>
</g>
<!-- 1408220841728&#45;&#45;1408220842688 -->
<g id="edge71" class="edge"><title>1408220841728&#45;&#45;1408220842688</title>
<path fill="none" stroke="black" d="M2098.45,-433.116C2106.3,-421.66 2116.86,-406.263 2124.71,-394.821"/>
</g>
<!-- 1408220841776 -->
<g id="node58" class="node"><title>1408220841776</title>
<ellipse fill="none" stroke="black" cx="2034.56" cy="-306" rx="27" ry="18"/>
<text text-anchor="middle" x="2034.56" y="-302.5" font-family="Times New Roman,serif" font-size="15.00">xor</text>
</g>
<!-- 1408220842688&#45;&#45;1408220841776 -->
<g id="edge54" class="edge"><title>1408220842688&#45;&#45;1408220841776</title>
<path fill="none" stroke="black" d="M2117.5,-364.485C2099.23,-351.823 2071.13,-332.351 2052.8,-319.642"/>
</g>
<!-- 1408220841104 -->
<g id="node61" class="node"><title>1408220841104</title>
<ellipse fill="none" stroke="black" cx="2235.56" cy="-306" rx="27" ry="18"/>
<text text-anchor="middle" x="2235.56" y="-302.5" font-family="Times New Roman,serif" font-size="15.00">xor</text>
</g>
<!-- 1408220842688&#45;&#45;1408220841104 -->
<g id="edge70" class="edge"><title>1408220842688&#45;&#45;1408220841104</title>
<path fill="none" stroke="black" d="M2153.44,-364.485C2171.52,-351.823 2199.34,-332.351 2217.5,-319.642"/>
</g>
<!-- 1407999587616 -->
<g id="node59" class="node"><title>1407999587616</title>
<ellipse fill="black" stroke="black" cx="1951.56" cy="-234" rx="2.7" ry="2.7"/>
</g>
<!-- 1408220841776&#45;&#45;1407999587616 -->
<g id="edge52" class="edge"><title>1408220841776&#45;&#45;1407999587616</title>
<path fill="none" stroke="black" d="M2018.16,-291.17C1996.99,-273.32 1961.88,-243.702 1953.43,-236.577"/>
</g>
<!-- 1407999587664 -->
<g id="node60" class="node"><title>1407999587664</title>
<ellipse fill="none" stroke="black" cx="2034.56" cy="-234" rx="61.6894" ry="18"/>
<text text-anchor="middle" x="2034.56" y="-230.5" font-family="Times New Roman,serif" font-size="15.00">Add penalty</text>
</g>
<!-- 1408220841776&#45;&#45;1407999587664 -->
<g id="edge53" class="edge"><title>1408220841776&#45;&#45;1407999587664</title>
<path fill="none" stroke="black" d="M2034.56,-287.697C2034.56,-276.846 2034.56,-262.917 2034.56,-252.104"/>
</g>
<!-- 1407999587856 -->
<g id="node62" class="node"><title>1407999587856</title>
<ellipse fill="none" stroke="black" cx="2235.56" cy="-234" rx="120.819" ry="18"/>
<text text-anchor="middle" x="2235.56" y="-230.5" font-family="Times New Roman,serif" font-size="15.00">Send for Credit Collection</text>
</g>
<!-- 1408220841104&#45;&#45;1407999587856 -->
<g id="edge55" class="edge"><title>1408220841104&#45;&#45;1407999587856</title>
<path fill="none" stroke="black" d="M2235.56,-287.697C2235.56,-276.846 2235.56,-262.917 2235.56,-252.104"/>
</g>
<!-- 1407999588048 -->
<g id="node63" class="node"><title>1407999588048</title>
<ellipse fill="none" stroke="black" cx="2401.56" cy="-234" rx="27" ry="18"/>
<text text-anchor="middle" x="2401.56" y="-230.5" font-family="Times New Roman,serif" font-size="15.00">seq</text>
</g>
<!-- 1408220841104&#45;&#45;1407999588048 -->
<g id="edge69" class="edge"><title>1408220841104&#45;&#45;1407999588048</title>
<path fill="none" stroke="black" d="M2257.94,-295.559C2289.72,-282.162 2347.54,-257.779 2379.26,-244.402"/>
</g>
<!-- 1408172572480 -->
<g id="node64" class="node"><title>1408172572480</title>
<ellipse fill="none" stroke="black" cx="2257.56" cy="-162" rx="27" ry="18"/>
<text text-anchor="middle" x="2257.56" y="-158.5" font-family="Times New Roman,serif" font-size="15.00">and</text>
</g>
<!-- 1407999588048&#45;&#45;1408172572480 -->
<g id="edge62" class="edge"><title>1407999588048&#45;&#45;1408172572480</title>
<path fill="none" stroke="black" d="M2380.31,-222.671C2353.08,-209.437 2306.16,-186.626 2278.89,-173.371"/>
</g>
<!-- 1408172570896 -->
<g id="node71" class="node"><title>1408172570896</title>
<ellipse fill="none" stroke="black" cx="2401.56" cy="-162" rx="27" ry="18"/>
<text text-anchor="middle" x="2401.56" y="-158.5" font-family="Times New Roman,serif" font-size="15.00">xor</text>
</g>
<!-- 1407999588048&#45;&#45;1408172570896 -->
<g id="edge65" class="edge"><title>1407999588048&#45;&#45;1408172570896</title>
<path fill="none" stroke="black" d="M2401.56,-215.697C2401.56,-204.846 2401.56,-190.917 2401.56,-180.104"/>
</g>
<!-- 1407997943184 -->
<g id="node74" class="node"><title>1407997943184</title>
<ellipse fill="none" stroke="black" cx="2643.56" cy="-162" rx="27" ry="18"/>
<text text-anchor="middle" x="2643.56" y="-158.5" font-family="Times New Roman,serif" font-size="15.00">xor</text>
</g>
<!-- 1407999588048&#45;&#45;1407997943184 -->
<g id="edge68" class="edge"><title>1407999588048&#45;&#45;1407997943184</title>
<path fill="none" stroke="black" d="M2426.09,-225.903C2472.6,-212.452 2573.04,-183.397 2619.32,-170.012"/>
</g>
<!-- 1407997942896 -->
<g id="node65" class="node"><title>1407997942896</title>
<ellipse fill="none" stroke="black" cx="2116.56" cy="-90" rx="27" ry="18"/>
<text text-anchor="middle" x="2116.56" y="-86.5" font-family="Times New Roman,serif" font-size="15.00">xor</text>
</g>
<!-- 1408172572480&#45;&#45;1407997942896 -->
<g id="edge58" class="edge"><title>1408172572480&#45;&#45;1407997942896</title>
<path fill="none" stroke="black" d="M2236.45,-150.52C2209.87,-137.324 2164.46,-114.781 2137.81,-101.551"/>
</g>
<!-- 1407997943616 -->
<g id="node68" class="node"><title>1407997943616</title>
<ellipse fill="none" stroke="black" cx="2257.56" cy="-90" rx="27" ry="18"/>
<text text-anchor="middle" x="2257.56" y="-86.5" font-family="Times New Roman,serif" font-size="15.00">xor</text>
</g>
<!-- 1408172572480&#45;&#45;1407997943616 -->
<g id="edge61" class="edge"><title>1408172572480&#45;&#45;1407997943616</title>
<path fill="none" stroke="black" d="M2257.56,-143.697C2257.56,-132.846 2257.56,-118.917 2257.56,-108.104"/>
</g>
<!-- 1407997943232 -->
<g id="node66" class="node"><title>1407997943232</title>
<ellipse fill="black" stroke="black" cx="1975.56" cy="-18" rx="2.7" ry="2.7"/>
</g>
<!-- 1407997942896&#45;&#45;1407997943232 -->
<g id="edge56" class="edge"><title>1407997942896&#45;&#45;1407997943232</title>
<path fill="none" stroke="black" d="M2095.45,-78.5203C2059.8,-60.8234 1990.3,-26.3188 1977.58,-20.0047"/>
</g>
<!-- 1407997940784 -->
<g id="node67" class="node"><title>1407997940784</title>
<ellipse fill="none" stroke="black" cx="2116.56" cy="-18" rx="120.43" ry="18"/>
<text text-anchor="middle" x="2116.56" y="-14.5" font-family="Times New Roman,serif" font-size="15.00">Send Appeal to Prefecture</text>
</g>
<!-- 1407997942896&#45;&#45;1407997940784 -->
<g id="edge57" class="edge"><title>1407997942896&#45;&#45;1407997940784</title>
<path fill="none" stroke="black" d="M2116.56,-71.6966C2116.56,-60.8463 2116.56,-46.9167 2116.56,-36.1043"/>
</g>
<!-- 1407997940688 -->
<g id="node69" class="node"><title>1407997940688</title>
<ellipse fill="black" stroke="black" cx="2257.56" cy="-18" rx="2.7" ry="2.7"/>
</g>
<!-- 1407997943616&#45;&#45;1407997940688 -->
<g id="edge59" class="edge"><title>1407997943616&#45;&#45;1407997940688</title>
<path fill="none" stroke="black" d="M2257.56,-71.6966C2257.56,-53.8826 2257.56,-27.7686 2257.56,-20.7764"/>
</g>
<!-- 1407997943568 -->
<g id="node70" class="node"><title>1407997943568</title>
<ellipse fill="none" stroke="black" cx="2451.56" cy="-18" rx="173.941" ry="18"/>
<text text-anchor="middle" x="2451.56" y="-14.5" font-family="Times New Roman,serif" font-size="15.00">Receive Result Appeal from Prefecture</text>
</g>
<!-- 1407997943616&#45;&#45;1407997943568 -->
<g id="edge60" class="edge"><title>1407997943616&#45;&#45;1407997943568</title>
<path fill="none" stroke="black" d="M2280.96,-80.5564C2311.8,-69.4293 2366.71,-49.615 2405.91,-35.472"/>
</g>
<!-- 1407997942848 -->
<g id="node72" class="node"><title>1407997942848</title>
<ellipse fill="black" stroke="black" cx="2305.56" cy="-90" rx="2.7" ry="2.7"/>
</g>
<!-- 1408172570896&#45;&#45;1407997942848 -->
<g id="edge63" class="edge"><title>1408172570896&#45;&#45;1407997942848</title>
<path fill="none" stroke="black" d="M2383.95,-148.161C2359.27,-130.163 2316.37,-98.8831 2307.28,-92.2559"/>
</g>
<!-- 1407997940976 -->
<g id="node73" class="node"><title>1407997940976</title>
<ellipse fill="none" stroke="black" cx="2474.56" cy="-90" rx="148.91" ry="18"/>
<text text-anchor="middle" x="2474.56" y="-86.5" font-family="Times New Roman,serif" font-size="15.00">Notify Result Appeal to Offender</text>
</g>
<!-- 1408172570896&#45;&#45;1407997940976 -->
<g id="edge64" class="edge"><title>1408172570896&#45;&#45;1407997940976</title>
<path fill="none" stroke="black" d="M2416.33,-146.834C2428,-135.649 2444.32,-119.999 2456.71,-108.113"/>
</g>
<!-- 1407997943664 -->
<g id="node75" class="node"><title>1407997943664</title>
<ellipse fill="black" stroke="black" cx="2643.56" cy="-90" rx="2.7" ry="2.7"/>
</g>
<!-- 1407997943184&#45;&#45;1407997943664 -->
<g id="edge66" class="edge"><title>1407997943184&#45;&#45;1407997943664</title>
<path fill="none" stroke="black" d="M2643.56,-143.697C2643.56,-125.883 2643.56,-99.7686 2643.56,-92.7764"/>
</g>
<!-- 1407997941120 -->
<g id="node76" class="node"><title>1407997941120</title>
<ellipse fill="none" stroke="black" cx="2742.56" cy="-90" rx="78.5434" ry="18"/>
<text text-anchor="middle" x="2742.56" y="-86.5" font-family="Times New Roman,serif" font-size="15.00">Appeal to Judge</text>
</g>
<!-- 1407997943184&#45;&#45;1407997941120 -->
<g id="edge67" class="edge"><title>1407997943184&#45;&#45;1407997941120</title>
<path fill="none" stroke="black" d="M2661.72,-148.161C2677.9,-136.715 2701.69,-119.897 2719.27,-107.464"/>
</g>
</g>
</svg>
