<?xml version="1.0" encoding="UTF-8" standalone="no"?>
<!DOCTYPE svg PUBLIC "-//W3C//DTD SVG 1.1//EN"
 "http://www.w3.org/Graphics/SVG/1.1/DTD/svg11.dtd">
<!-- Generated by graphviz version 2.38.0 (20140413.2041)
 -->
<!-- Title: pt Pages: 1 -->
<svg width="1296pt" height="476pt"
 viewBox="0.00 0.00 1296.22 476.00" xmlns="http://www.w3.org/2000/svg" xmlns:xlink="http://www.w3.org/1999/xlink">
<g id="graph0" class="graph" transform="scale(1 1) rotate(0) translate(4 472)">
<title>pt</title>
<!-- 1981417138832 -->
<g id="node1" class="node"><title>1981417138832</title>
<ellipse fill="none" stroke="black" cx="641.7" cy="-450" rx="27" ry="18"/>
<text text-anchor="middle" x="641.7" y="-446.5" font-family="Times New Roman,serif" font-size="15.00">seq</text>
</g>
<!-- 1981417138976 -->
<g id="node2" class="node"><title>1981417138976</title>
<ellipse fill="none" stroke="black" cx="536.7" cy="-378" rx="59.5207" ry="18"/>
<text text-anchor="middle" x="536.7" y="-374.5" font-family="Times New Roman,serif" font-size="15.00">Create Fine</text>
</g>
<!-- 1981417138832&#45;&#45;1981417138976 -->
<g id="edge1" class="edge"><title>1981417138832&#45;&#45;1981417138976</title>
<path fill="none" stroke="black" d="M622.928,-436.485C605.35,-424.767 579.023,-407.215 560.086,-394.591"/>
</g>
<!-- 1981417138112 -->
<g id="node3" class="node"><title>1981417138112</title>
<ellipse fill="none" stroke="black" cx="641.7" cy="-378" rx="27" ry="18"/>
<text text-anchor="middle" x="641.7" y="-374.5" font-family="Times New Roman,serif" font-size="15.00">and</text>
</g>
<!-- 1981417138832&#45;&#45;1981417138112 -->
<g id="edge25" class="edge"><title>1981417138832&#45;&#45;1981417138112</title>
<path fill="none" stroke="black" d="M641.7,-431.697C641.7,-420.846 641.7,-406.917 641.7,-396.104"/>
</g>
<!-- 1981417139840 -->
<g id="node27" class="node"><title>1981417139840</title>
<ellipse fill="none" stroke="black" cx="713.7" cy="-378" rx="27" ry="18"/>
<text text-anchor="middle" x="713.7" y="-374.5" font-family="Times New Roman,serif" font-size="15.00">xor</text>
</g>
<!-- 1981417138832&#45;&#45;1981417139840 -->
<g id="edge28" class="edge"><title>1981417138832&#45;&#45;1981417139840</title>
<path fill="none" stroke="black" d="M656.27,-434.834C668.68,-422.77 686.431,-405.512 698.904,-393.385"/>
</g>
<!-- 1981417139984 -->
<g id="node4" class="node"><title>1981417139984</title>
<ellipse fill="none" stroke="black" cx="402.7" cy="-306" rx="27" ry="18"/>
<text text-anchor="middle" x="402.7" y="-302.5" font-family="Times New Roman,serif" font-size="15.00">seq</text>
</g>
<!-- 1981417138112&#45;&#45;1981417139984 -->
<g id="edge8" class="edge"><title>1981417138112&#45;&#45;1981417139984</title>
<path fill="none" stroke="black" d="M617.468,-369.903C571.66,-356.486 472.853,-327.547 426.996,-314.116"/>
</g>
<!-- 1981417137728 -->
<g id="node11" class="node"><title>1981417137728</title>
<ellipse fill="none" stroke="black" cx="647.7" cy="-306" rx="27" ry="18"/>
<text text-anchor="middle" x="647.7" y="-302.5" font-family="Times New Roman,serif" font-size="15.00">and</text>
</g>
<!-- 1981417138112&#45;&#45;1981417137728 -->
<g id="edge24" class="edge"><title>1981417138112&#45;&#45;1981417137728</title>
<path fill="none" stroke="black" d="M643.183,-359.697C644.113,-348.846 645.307,-334.917 646.234,-324.104"/>
</g>
<!-- 1981417136960 -->
<g id="node5" class="node"><title>1981417136960</title>
<ellipse fill="none" stroke="black" cx="167.7" cy="-234" rx="27" ry="18"/>
<text text-anchor="middle" x="167.7" y="-230.5" font-family="Times New Roman,serif" font-size="15.00">xor</text>
</g>
<!-- 1981417139984&#45;&#45;1981417136960 -->
<g id="edge4" class="edge"><title>1981417139984&#45;&#45;1981417136960</title>
<path fill="none" stroke="black" d="M378.436,-297.772C333.287,-284.324 236.881,-255.607 191.832,-242.188"/>
</g>
<!-- 1981417137344 -->
<g id="node8" class="node"><title>1981417137344</title>
<ellipse fill="none" stroke="black" cx="402.7" cy="-234" rx="27" ry="18"/>
<text text-anchor="middle" x="402.7" y="-230.5" font-family="Times New Roman,serif" font-size="15.00">xor</text>
</g>
<!-- 1981417139984&#45;&#45;1981417137344 -->
<g id="edge7" class="edge"><title>1981417139984&#45;&#45;1981417137344</title>
<path fill="none" stroke="black" d="M402.7,-287.697C402.7,-276.846 402.7,-262.917 402.7,-252.104"/>
</g>
<!-- 1981417133104 -->
<g id="node6" class="node"><title>1981417133104</title>
<ellipse fill="black" stroke="black" cx="2.7" cy="-162" rx="2.7" ry="2.7"/>
</g>
<!-- 1981417136960&#45;&#45;1981417133104 -->
<g id="edge2" class="edge"><title>1981417136960&#45;&#45;1981417133104</title>
<path fill="none" stroke="black" d="M145.447,-223.559C104.28,-206.094 19.1048,-169.96 4.76938,-163.878"/>
</g>
<!-- 1981417135840 -->
<g id="node7" class="node"><title>1981417135840</title>
<ellipse fill="none" stroke="black" cx="167.7" cy="-162" rx="144.571" ry="18"/>
<text text-anchor="middle" x="167.7" y="-158.5" font-family="Times New Roman,serif" font-size="15.00">Insert Date Appeal to Prefecture</text>
</g>
<!-- 1981417136960&#45;&#45;1981417135840 -->
<g id="edge3" class="edge"><title>1981417136960&#45;&#45;1981417135840</title>
<path fill="none" stroke="black" d="M167.7,-215.697C167.7,-204.846 167.7,-190.917 167.7,-180.104"/>
</g>
<!-- 1981417135120 -->
<g id="node9" class="node"><title>1981417135120</title>
<ellipse fill="black" stroke="black" cx="332.7" cy="-162" rx="2.7" ry="2.7"/>
</g>
<!-- 1981417137344&#45;&#45;1981417135120 -->
<g id="edge5" class="edge"><title>1981417137344&#45;&#45;1981417135120</title>
<path fill="none" stroke="black" d="M388.196,-218.496C370.255,-200.555 341.222,-171.522 334.244,-164.544"/>
</g>
<!-- 1981417135600 -->
<g id="node10" class="node"><title>1981417135600</title>
<ellipse fill="none" stroke="black" cx="473.7" cy="-162" rx="120.43" ry="18"/>
<text text-anchor="middle" x="473.7" y="-158.5" font-family="Times New Roman,serif" font-size="15.00">Send Appeal to Prefecture</text>
</g>
<!-- 1981417137344&#45;&#45;1981417135600 -->
<g id="edge6" class="edge"><title>1981417137344&#45;&#45;1981417135600</title>
<path fill="none" stroke="black" d="M417.411,-218.496C428.784,-207.283 444.552,-191.737 456.507,-179.951"/>
</g>
<!-- 1981417132912 -->
<g id="node12" class="node"><title>1981417132912</title>
<ellipse fill="none" stroke="black" cx="647.7" cy="-234" rx="46.6143" ry="18"/>
<text text-anchor="middle" x="647.7" y="-230.5" font-family="Times New Roman,serif" font-size="15.00">xor loop</text>
</g>
<!-- 1981417137728&#45;&#45;1981417132912 -->
<g id="edge11" class="edge"><title>1981417137728&#45;&#45;1981417132912</title>
<path fill="none" stroke="black" d="M647.7,-287.697C647.7,-276.846 647.7,-262.917 647.7,-252.104"/>
</g>
<!-- 1981417134640 -->
<g id="node15" class="node"><title>1981417134640</title>
<ellipse fill="none" stroke="black" cx="785.7" cy="-234" rx="27" ry="18"/>
<text text-anchor="middle" x="785.7" y="-230.5" font-family="Times New Roman,serif" font-size="15.00">xor</text>
</g>
<!-- 1981417137728&#45;&#45;1981417134640 -->
<g id="edge23" class="edge"><title>1981417137728&#45;&#45;1981417134640</title>
<path fill="none" stroke="black" d="M668.659,-294.369C694.597,-281.212 738.515,-258.934 764.544,-245.732"/>
</g>
<!-- 1981417133248 -->
<g id="node13" class="node"><title>1981417133248</title>
<ellipse fill="black" stroke="black" cx="614.7" cy="-162" rx="2.7" ry="2.7"/>
</g>
<!-- 1981417132912&#45;&#45;1981417133248 -->
<g id="edge9" class="edge"><title>1981417132912&#45;&#45;1981417133248</title>
<path fill="none" stroke="black" d="M639.712,-216.055C631.319,-198.252 618.879,-171.865 615.547,-164.796"/>
</g>
<!-- 1981417133680 -->
<g id="node14" class="node"><title>1981417133680</title>
<ellipse fill="none" stroke="black" cx="681.7" cy="-162" rx="45.7249" ry="18"/>
<text text-anchor="middle" x="681.7" y="-158.5" font-family="Times New Roman,serif" font-size="15.00">Payment</text>
</g>
<!-- 1981417132912&#45;&#45;1981417133680 -->
<g id="edge10" class="edge"><title>1981417132912&#45;&#45;1981417133680</title>
<path fill="none" stroke="black" d="M655.93,-216.055C661.276,-205.049 668.215,-190.764 673.545,-179.789"/>
</g>
<!-- 1981417133440 -->
<g id="node16" class="node"><title>1981417133440</title>
<ellipse fill="black" stroke="black" cx="748.7" cy="-162" rx="2.7" ry="2.7"/>
</g>
<!-- 1981417134640&#45;&#45;1981417133440 -->
<g id="edge12" class="edge"><title>1981417134640&#45;&#45;1981417133440</title>
<path fill="none" stroke="black" d="M777.118,-216.765C767.725,-198.994 753.489,-172.06 749.671,-164.836"/>
</g>
<!-- 1981417132768 -->
<g id="node17" class="node"><title>1981417132768</title>
<ellipse fill="none" stroke="black" cx="822.7" cy="-162" rx="52.6228" ry="18"/>
<text text-anchor="middle" x="822.7" y="-158.5" font-family="Times New Roman,serif" font-size="15.00">Send Fine</text>
</g>
<!-- 1981417134640&#45;&#45;1981417132768 -->
<g id="edge13" class="edge"><title>1981417134640&#45;&#45;1981417132768</title>
<path fill="none" stroke="black" d="M794.282,-216.765C800.088,-205.779 807.746,-191.292 813.649,-180.124"/>
</g>
<!-- 1981417132240 -->
<g id="node18" class="node"><title>1981417132240</title>
<ellipse fill="none" stroke="black" cx="920.7" cy="-162" rx="27" ry="18"/>
<text text-anchor="middle" x="920.7" y="-158.5" font-family="Times New Roman,serif" font-size="15.00">seq</text>
</g>
<!-- 1981417134640&#45;&#45;1981417132240 -->
<g id="edge22" class="edge"><title>1981417134640&#45;&#45;1981417132240</title>
<path fill="none" stroke="black" d="M806.498,-222.216C831.941,-209.023 874.747,-186.827 900.1,-173.681"/>
</g>
<!-- 1981417134784 -->
<g id="node19" class="node"><title>1981417134784</title>
<ellipse fill="none" stroke="black" cx="655.7" cy="-90" rx="52.6228" ry="18"/>
<text text-anchor="middle" x="655.7" y="-86.5" font-family="Times New Roman,serif" font-size="15.00">Send Fine</text>
</g>
<!-- 1981417132240&#45;&#45;1981417134784 -->
<g id="edge14" class="edge"><title>1981417132240&#45;&#45;1981417134784</title>
<path fill="none" stroke="black" d="M895.769,-154.415C849.901,-142.298 751.755,-116.373 696.205,-101.699"/>
</g>
<!-- 1981417133968 -->
<g id="node20" class="node"><title>1981417133968</title>
<ellipse fill="none" stroke="black" cx="834.7" cy="-90" rx="107.914" ry="18"/>
<text text-anchor="middle" x="834.7" y="-86.5" font-family="Times New Roman,serif" font-size="15.00">Insert Fine Notification</text>
</g>
<!-- 1981417132240&#45;&#45;1981417133968 -->
<g id="edge15" class="edge"><title>1981417132240&#45;&#45;1981417133968</title>
<path fill="none" stroke="black" d="M904.118,-147.503C890.256,-136.22 870.414,-120.07 855.491,-107.923"/>
</g>
<!-- 1981417135312 -->
<g id="node21" class="node"><title>1981417135312</title>
<ellipse fill="none" stroke="black" cx="1006.7" cy="-90" rx="46.6143" ry="18"/>
<text text-anchor="middle" x="1006.7" y="-86.5" font-family="Times New Roman,serif" font-size="15.00">xor loop</text>
</g>
<!-- 1981417132240&#45;&#45;1981417135312 -->
<g id="edge18" class="edge"><title>1981417132240&#45;&#45;1981417135312</title>
<path fill="none" stroke="black" d="M937.282,-147.503C951.632,-135.823 972.391,-118.926 987.467,-106.655"/>
</g>
<!-- 1981417132864 -->
<g id="node24" class="node"><title>1981417132864</title>
<ellipse fill="none" stroke="black" cx="1117.7" cy="-90" rx="46.6143" ry="18"/>
<text text-anchor="middle" x="1117.7" y="-86.5" font-family="Times New Roman,serif" font-size="15.00">xor loop</text>
</g>
<!-- 1981417132240&#45;&#45;1981417132864 -->
<g id="edge21" class="edge"><title>1981417132240&#45;&#45;1981417132864</title>
<path fill="none" stroke="black" d="M944.072,-152.695C978.929,-140.31 1044.69,-116.943 1084.51,-102.792"/>
</g>
<!-- 1981417132288 -->
<g id="node22" class="node"><title>1981417132288</title>
<ellipse fill="black" stroke="black" cx="930.7" cy="-18" rx="2.7" ry="2.7"/>
</g>
<!-- 1981417135312&#45;&#45;1981417132288 -->
<g id="edge16" class="edge"><title>1981417135312&#45;&#45;1981417132288</title>
<path fill="none" stroke="black" d="M989.454,-73.1159C969.834,-55.0446 939.565,-27.1656 932.305,-20.4782"/>
</g>
<!-- 1981417132480 -->
<g id="node23" class="node"><title>1981417132480</title>
<ellipse fill="none" stroke="black" cx="1013.7" cy="-18" rx="61.6894" ry="18"/>
<text text-anchor="middle" x="1013.7" y="-14.5" font-family="Times New Roman,serif" font-size="15.00">Add penalty</text>
</g>
<!-- 1981417135312&#45;&#45;1981417132480 -->
<g id="edge17" class="edge"><title>1981417135312&#45;&#45;1981417132480</title>
<path fill="none" stroke="black" d="M1008.43,-71.6966C1009.52,-60.8463 1010.91,-46.9167 1011.99,-36.1043"/>
</g>
<!-- 1981417133392 -->
<g id="node25" class="node"><title>1981417133392</title>
<ellipse fill="black" stroke="black" cx="1110.7" cy="-18" rx="2.7" ry="2.7"/>
</g>
<!-- 1981417132864&#45;&#45;1981417133392 -->
<g id="edge19" class="edge"><title>1981417132864&#45;&#45;1981417133392</title>
<path fill="none" stroke="black" d="M1115.97,-71.6966C1114.19,-53.8826 1111.58,-27.7686 1110.88,-20.7764"/>
</g>
<!-- 1981417134400 -->
<g id="node26" class="node"><title>1981417134400</title>
<ellipse fill="none" stroke="black" cx="1209.7" cy="-18" rx="78.5434" ry="18"/>
<text text-anchor="middle" x="1209.7" y="-14.5" font-family="Times New Roman,serif" font-size="15.00">Appeal to Judge</text>
</g>
<!-- 1981417132864&#45;&#45;1981417134400 -->
<g id="edge20" class="edge"><title>1981417132864&#45;&#45;1981417134400</title>
<path fill="none" stroke="black" d="M1138.12,-73.4647C1152.94,-62.1868 1172.96,-46.9552 1188.06,-35.4672"/>
</g>
<!-- 1981417134256 -->
<g id="node28" class="node"><title>1981417134256</title>
<ellipse fill="black" stroke="black" cx="707.7" cy="-306" rx="2.7" ry="2.7"/>
</g>
<!-- 1981417139840&#45;&#45;1981417134256 -->
<g id="edge26" class="edge"><title>1981417139840&#45;&#45;1981417134256</title>
<path fill="none" stroke="black" d="M712.217,-359.697C710.69,-341.883 708.452,-315.769 707.852,-308.776"/>
</g>
<!-- 1981417135024 -->
<g id="node29" class="node"><title>1981417135024</title>
<ellipse fill="none" stroke="black" cx="849.7" cy="-306" rx="120.819" ry="18"/>
<text text-anchor="middle" x="849.7" y="-302.5" font-family="Times New Roman,serif" font-size="15.00">Send for Credit Collection</text>
</g>
<!-- 1981417139840&#45;&#45;1981417135024 -->
<g id="edge27" class="edge"><title>1981417139840&#45;&#45;1981417135024</title>
<path fill="none" stroke="black" d="M734.355,-366.369C756.499,-354.971 791.94,-336.729 817.699,-323.471"/>
</g>
</g>
</svg>
