<?xml version="1.0" encoding="UTF-8" standalone="no"?>
<!DOCTYPE svg PUBLIC "-//W3C//DTD SVG 1.1//EN"
 "http://www.w3.org/Graphics/SVG/1.1/DTD/svg11.dtd">
<!-- Generated by graphviz version 2.38.0 (20140413.2041)
 -->
<!-- Title: pt Pages: 1 -->
<svg width="1274pt" height="548pt"
 viewBox="0.00 0.00 1274.41 548.00" xmlns="http://www.w3.org/2000/svg" xmlns:xlink="http://www.w3.org/1999/xlink">
<g id="graph0" class="graph" transform="scale(1 1) rotate(0) translate(4 544)">
<title>pt</title>
<!-- 1981581059024 -->
<g id="node1" class="node"><title>1981581059024</title>
<ellipse fill="none" stroke="black" cx="212.707" cy="-522" rx="27" ry="18"/>
<text text-anchor="middle" x="212.707" y="-518.5" font-family="Times New Roman,serif" font-size="15.00">seq</text>
</g>
<!-- 1981581058160 -->
<g id="node2" class="node"><title>1981581058160</title>
<ellipse fill="none" stroke="black" cx="107.707" cy="-450" rx="59.5207" ry="18"/>
<text text-anchor="middle" x="107.707" y="-446.5" font-family="Times New Roman,serif" font-size="15.00">Create Fine</text>
</g>
<!-- 1981581059024&#45;&#45;1981581058160 -->
<g id="edge1" class="edge"><title>1981581059024&#45;&#45;1981581058160</title>
<path fill="none" stroke="black" d="M193.935,-508.485C176.357,-496.767 150.03,-479.215 131.093,-466.591"/>
</g>
<!-- 1981581060752 -->
<g id="node3" class="node"><title>1981581060752</title>
<ellipse fill="none" stroke="black" cx="212.707" cy="-450" rx="27" ry="18"/>
<text text-anchor="middle" x="212.707" y="-446.5" font-family="Times New Roman,serif" font-size="15.00">and</text>
</g>
<!-- 1981581059024&#45;&#45;1981581060752 -->
<g id="edge26" class="edge"><title>1981581059024&#45;&#45;1981581060752</title>
<path fill="none" stroke="black" d="M212.707,-503.697C212.707,-492.846 212.707,-478.917 212.707,-468.104"/>
</g>
<!-- 1981581059936 -->
<g id="node28" class="node"><title>1981581059936</title>
<ellipse fill="none" stroke="black" cx="284.707" cy="-450" rx="27" ry="18"/>
<text text-anchor="middle" x="284.707" y="-446.5" font-family="Times New Roman,serif" font-size="15.00">xor</text>
</g>
<!-- 1981581059024&#45;&#45;1981581059936 -->
<g id="edge29" class="edge"><title>1981581059024&#45;&#45;1981581059936</title>
<path fill="none" stroke="black" d="M227.277,-506.834C239.687,-494.77 257.437,-477.512 269.911,-465.385"/>
</g>
<!-- 1981581058784 -->
<g id="node4" class="node"><title>1981581058784</title>
<ellipse fill="none" stroke="black" cx="102.707" cy="-378" rx="46.6143" ry="18"/>
<text text-anchor="middle" x="102.707" y="-374.5" font-family="Times New Roman,serif" font-size="15.00">xor loop</text>
</g>
<!-- 1981581060752&#45;&#45;1981581058784 -->
<g id="edge4" class="edge"><title>1981581060752&#45;&#45;1981581058784</title>
<path fill="none" stroke="black" d="M193.546,-436.807C174.711,-424.821 145.942,-406.513 125.842,-393.722"/>
</g>
<!-- 1981581059168 -->
<g id="node7" class="node"><title>1981581059168</title>
<ellipse fill="none" stroke="black" cx="218.707" cy="-378" rx="27" ry="18"/>
<text text-anchor="middle" x="218.707" y="-374.5" font-family="Times New Roman,serif" font-size="15.00">xor</text>
</g>
<!-- 1981581060752&#45;&#45;1981581059168 -->
<g id="edge25" class="edge"><title>1981581060752&#45;&#45;1981581059168</title>
<path fill="none" stroke="black" d="M214.19,-431.697C215.12,-420.846 216.314,-406.917 217.241,-396.104"/>
</g>
<!-- 1981581062048 -->
<g id="node5" class="node"><title>1981581062048</title>
<ellipse fill="black" stroke="black" cx="35.7068" cy="-306" rx="2.7" ry="2.7"/>
</g>
<!-- 1981581058784&#45;&#45;1981581062048 -->
<g id="edge2" class="edge"><title>1981581058784&#45;&#45;1981581062048</title>
<path fill="none" stroke="black" d="M87.1672,-360.765C69.8488,-342.671 43.4382,-315.078 37.1061,-308.462"/>
</g>
<!-- 1981581059648 -->
<g id="node6" class="node"><title>1981581059648</title>
<ellipse fill="none" stroke="black" cx="102.707" cy="-306" rx="45.7249" ry="18"/>
<text text-anchor="middle" x="102.707" y="-302.5" font-family="Times New Roman,serif" font-size="15.00">Payment</text>
</g>
<!-- 1981581058784&#45;&#45;1981581059648 -->
<g id="edge3" class="edge"><title>1981581058784&#45;&#45;1981581059648</title>
<path fill="none" stroke="black" d="M102.707,-359.697C102.707,-348.846 102.707,-334.917 102.707,-324.104"/>
</g>
<!-- 1981581062096 -->
<g id="node8" class="node"><title>1981581062096</title>
<ellipse fill="black" stroke="black" cx="169.707" cy="-306" rx="2.7" ry="2.7"/>
</g>
<!-- 1981581059168&#45;&#45;1981581062096 -->
<g id="edge5" class="edge"><title>1981581059168&#45;&#45;1981581062096</title>
<path fill="none" stroke="black" d="M207.832,-361.465C195.201,-343.42 175.485,-315.254 170.753,-308.494"/>
</g>
<!-- 1981581061904 -->
<g id="node9" class="node"><title>1981581061904</title>
<ellipse fill="none" stroke="black" cx="243.707" cy="-306" rx="52.6228" ry="18"/>
<text text-anchor="middle" x="243.707" y="-302.5" font-family="Times New Roman,serif" font-size="15.00">Send Fine</text>
</g>
<!-- 1981581059168&#45;&#45;1981581061904 -->
<g id="edge6" class="edge"><title>1981581059168&#45;&#45;1981581061904</title>
<path fill="none" stroke="black" d="M224.631,-360.411C228.559,-349.414 233.697,-335.027 237.651,-323.956"/>
</g>
<!-- 1981581061808 -->
<g id="node10" class="node"><title>1981581061808</title>
<ellipse fill="none" stroke="black" cx="341.707" cy="-306" rx="27" ry="18"/>
<text text-anchor="middle" x="341.707" y="-302.5" font-family="Times New Roman,serif" font-size="15.00">seq</text>
</g>
<!-- 1981581059168&#45;&#45;1981581061808 -->
<g id="edge24" class="edge"><title>1981581059168&#45;&#45;1981581061808</title>
<path fill="none" stroke="black" d="M238.743,-365.597C261.615,-352.581 298.81,-331.413 321.68,-318.398"/>
</g>
<!-- 1981581061472 -->
<g id="node11" class="node"><title>1981581061472</title>
<ellipse fill="none" stroke="black" cx="292.707" cy="-234" rx="52.6228" ry="18"/>
<text text-anchor="middle" x="292.707" y="-230.5" font-family="Times New Roman,serif" font-size="15.00">Send Fine</text>
</g>
<!-- 1981581061808&#45;&#45;1981581061472 -->
<g id="edge7" class="edge"><title>1981581061808&#45;&#45;1981581061472</title>
<path fill="none" stroke="black" d="M330.832,-289.465C323.05,-278.348 312.579,-263.39 304.58,-251.962"/>
</g>
<!-- 1981581060992 -->
<g id="node12" class="node"><title>1981581060992</title>
<ellipse fill="none" stroke="black" cx="390.707" cy="-234" rx="27" ry="18"/>
<text text-anchor="middle" x="390.707" y="-230.5" font-family="Times New Roman,serif" font-size="15.00">seq</text>
</g>
<!-- 1981581061808&#45;&#45;1981581060992 -->
<g id="edge23" class="edge"><title>1981581061808&#45;&#45;1981581060992</title>
<path fill="none" stroke="black" d="M352.581,-289.465C360.702,-277.865 371.75,-262.082 379.862,-250.492"/>
</g>
<!-- 1981581061280 -->
<g id="node13" class="node"><title>1981581061280</title>
<ellipse fill="none" stroke="black" cx="107.707" cy="-162" rx="107.914" ry="18"/>
<text text-anchor="middle" x="107.707" y="-158.5" font-family="Times New Roman,serif" font-size="15.00">Insert Fine Notification</text>
</g>
<!-- 1981581060992&#45;&#45;1981581061280 -->
<g id="edge8" class="edge"><title>1981581060992&#45;&#45;1981581061280</title>
<path fill="none" stroke="black" d="M365.592,-226.788C320.952,-215.746 226.725,-192.439 165.376,-177.264"/>
</g>
<!-- 1981581061184 -->
<g id="node14" class="node"><title>1981581061184</title>
<ellipse fill="none" stroke="black" cx="260.707" cy="-162" rx="27" ry="18"/>
<text text-anchor="middle" x="260.707" y="-158.5" font-family="Times New Roman,serif" font-size="15.00">and</text>
</g>
<!-- 1981581060992&#45;&#45;1981581061184 -->
<g id="edge13" class="edge"><title>1981581060992&#45;&#45;1981581061184</title>
<path fill="none" stroke="black" d="M370.394,-222.063C346.114,-208.989 305.711,-187.233 281.306,-174.092"/>
</g>
<!-- 1981581061136 -->
<g id="node19" class="node"><title>1981581061136</title>
<ellipse fill="none" stroke="black" cx="390.707" cy="-162" rx="27" ry="18"/>
<text text-anchor="middle" x="390.707" y="-158.5" font-family="Times New Roman,serif" font-size="15.00">xor</text>
</g>
<!-- 1981581060992&#45;&#45;1981581061136 -->
<g id="edge16" class="edge"><title>1981581060992&#45;&#45;1981581061136</title>
<path fill="none" stroke="black" d="M390.707,-215.697C390.707,-204.846 390.707,-190.917 390.707,-180.104"/>
</g>
<!-- 1981581060464 -->
<g id="node22" class="node"><title>1981581060464</title>
<ellipse fill="none" stroke="black" cx="560.707" cy="-162" rx="27" ry="18"/>
<text text-anchor="middle" x="560.707" y="-158.5" font-family="Times New Roman,serif" font-size="15.00">xor</text>
</g>
<!-- 1981581060992&#45;&#45;1981581060464 -->
<g id="edge19" class="edge"><title>1981581060992&#45;&#45;1981581060464</title>
<path fill="none" stroke="black" d="M413.281,-223.705C445.887,-210.279 505.804,-185.607 538.309,-172.222"/>
</g>
<!-- 1981581059312 -->
<g id="node25" class="node"><title>1981581059312</title>
<ellipse fill="none" stroke="black" cx="948.707" cy="-162" rx="27" ry="18"/>
<text text-anchor="middle" x="948.707" y="-158.5" font-family="Times New Roman,serif" font-size="15.00">xor</text>
</g>
<!-- 1981581060992&#45;&#45;1981581059312 -->
<g id="edge22" class="edge"><title>1981581060992&#45;&#45;1981581059312</title>
<path fill="none" stroke="black" d="M417.245,-229.671C511.352,-217.865 828.481,-178.082 922.331,-166.309"/>
</g>
<!-- 1981581060848 -->
<g id="node15" class="node"><title>1981581060848</title>
<ellipse fill="none" stroke="black" cx="123.707" cy="-90" rx="61.6894" ry="18"/>
<text text-anchor="middle" x="123.707" y="-86.5" font-family="Times New Roman,serif" font-size="15.00">Add penalty</text>
</g>
<!-- 1981581061184&#45;&#45;1981581060848 -->
<g id="edge9" class="edge"><title>1981581061184&#45;&#45;1981581060848</title>
<path fill="none" stroke="black" d="M239.899,-150.369C216.695,-138.512 178.994,-119.249 152.858,-105.895"/>
</g>
<!-- 1981581060560 -->
<g id="node16" class="node"><title>1981581060560</title>
<ellipse fill="none" stroke="black" cx="230.707" cy="-90" rx="27" ry="18"/>
<text text-anchor="middle" x="230.707" y="-86.5" font-family="Times New Roman,serif" font-size="15.00">xor</text>
</g>
<!-- 1981581061184&#45;&#45;1981581060560 -->
<g id="edge12" class="edge"><title>1981581061184&#45;&#45;1981581060560</title>
<path fill="none" stroke="black" d="M253.597,-144.411C248.815,-133.252 242.537,-118.604 237.765,-107.47"/>
</g>
<!-- 1981581060656 -->
<g id="node17" class="node"><title>1981581060656</title>
<ellipse fill="black" stroke="black" cx="148.707" cy="-18" rx="2.7" ry="2.7"/>
</g>
<!-- 1981581060560&#45;&#45;1981581060656 -->
<g id="edge10" class="edge"><title>1981581060560&#45;&#45;1981581060656</title>
<path fill="none" stroke="black" d="M214.506,-75.1703C193.596,-57.3201 158.901,-27.7024 150.554,-20.5768"/>
</g>
<!-- 1981581059264 -->
<g id="node18" class="node"><title>1981581059264</title>
<ellipse fill="none" stroke="black" cx="313.707" cy="-18" rx="144.571" ry="18"/>
<text text-anchor="middle" x="313.707" y="-14.5" font-family="Times New Roman,serif" font-size="15.00">Insert Date Appeal to Prefecture</text>
</g>
<!-- 1981581060560&#45;&#45;1981581059264 -->
<g id="edge11" class="edge"><title>1981581060560&#45;&#45;1981581059264</title>
<path fill="none" stroke="black" d="M247.105,-75.1703C260.428,-63.9342 279.279,-48.0356 293.527,-36.019"/>
</g>
<!-- 1981581058352 -->
<g id="node20" class="node"><title>1981581058352</title>
<ellipse fill="black" stroke="black" cx="278.707" cy="-90" rx="2.7" ry="2.7"/>
</g>
<!-- 1981581061136&#45;&#45;1981581058352 -->
<g id="edge14" class="edge"><title>1981581061136&#45;&#45;1981581058352</title>
<path fill="none" stroke="black" d="M371.707,-149.125C342.999,-131.182 290.807,-98.5625 280.501,-92.1217"/>
</g>
<!-- 1981581060080 -->
<g id="node21" class="node"><title>1981581060080</title>
<ellipse fill="none" stroke="black" cx="419.707" cy="-90" rx="120.43" ry="18"/>
<text text-anchor="middle" x="419.707" y="-86.5" font-family="Times New Roman,serif" font-size="15.00">Send Appeal to Prefecture</text>
</g>
<!-- 1981581061136&#45;&#45;1981581060080 -->
<g id="edge15" class="edge"><title>1981581061136&#45;&#45;1981581060080</title>
<path fill="none" stroke="black" d="M397.579,-144.411C402.068,-133.576 407.92,-119.45 412.479,-108.447"/>
</g>
<!-- 1981581059552 -->
<g id="node23" class="node"><title>1981581059552</title>
<ellipse fill="black" stroke="black" cx="560.707" cy="-90" rx="2.7" ry="2.7"/>
</g>
<!-- 1981581060464&#45;&#45;1981581059552 -->
<g id="edge17" class="edge"><title>1981581060464&#45;&#45;1981581059552</title>
<path fill="none" stroke="black" d="M560.707,-143.697C560.707,-125.883 560.707,-99.7686 560.707,-92.7764"/>
</g>
<!-- 1981581059600 -->
<g id="node24" class="node"><title>1981581059600</title>
<ellipse fill="none" stroke="black" cx="754.707" cy="-90" rx="173.941" ry="18"/>
<text text-anchor="middle" x="754.707" y="-86.5" font-family="Times New Roman,serif" font-size="15.00">Receive Result Appeal from Prefecture</text>
</g>
<!-- 1981581060464&#45;&#45;1981581059600 -->
<g id="edge18" class="edge"><title>1981581060464&#45;&#45;1981581059600</title>
<path fill="none" stroke="black" d="M584.108,-152.556C614.946,-141.429 669.859,-121.615 709.056,-107.472"/>
</g>
<!-- 1981581058592 -->
<g id="node26" class="node"><title>1981581058592</title>
<ellipse fill="black" stroke="black" cx="948.707" cy="-90" rx="2.7" ry="2.7"/>
</g>
<!-- 1981581059312&#45;&#45;1981581058592 -->
<g id="edge20" class="edge"><title>1981581059312&#45;&#45;1981581058592</title>
<path fill="none" stroke="black" d="M948.707,-143.697C948.707,-125.883 948.707,-99.7686 948.707,-92.7764"/>
</g>
<!-- 1981581058256 -->
<g id="node27" class="node"><title>1981581058256</title>
<ellipse fill="none" stroke="black" cx="1117.71" cy="-90" rx="148.91" ry="18"/>
<text text-anchor="middle" x="1117.71" y="-86.5" font-family="Times New Roman,serif" font-size="15.00">Notify Result Appeal to Offender</text>
</g>
<!-- 1981581059312&#45;&#45;1981581058256 -->
<g id="edge21" class="edge"><title>1981581059312&#45;&#45;1981581058256</title>
<path fill="none" stroke="black" d="M971.149,-151.705C998.354,-140.436 1044.69,-121.245 1077.98,-107.454"/>
</g>
<!-- 1981581061376 -->
<g id="node29" class="node"><title>1981581061376</title>
<ellipse fill="black" stroke="black" cx="278.707" cy="-378" rx="2.7" ry="2.7"/>
</g>
<!-- 1981581059936&#45;&#45;1981581061376 -->
<g id="edge27" class="edge"><title>1981581059936&#45;&#45;1981581061376</title>
<path fill="none" stroke="black" d="M283.224,-431.697C281.697,-413.883 279.458,-387.769 278.859,-380.776"/>
</g>
<!-- 1981581061856 -->
<g id="node30" class="node"><title>1981581061856</title>
<ellipse fill="none" stroke="black" cx="420.707" cy="-378" rx="120.819" ry="18"/>
<text text-anchor="middle" x="420.707" y="-374.5" font-family="Times New Roman,serif" font-size="15.00">Send for Credit Collection</text>
</g>
<!-- 1981581059936&#45;&#45;1981581061856 -->
<g id="edge28" class="edge"><title>1981581059936&#45;&#45;1981581061856</title>
<path fill="none" stroke="black" d="M305.362,-438.369C327.506,-426.971 362.947,-408.729 388.705,-395.471"/>
</g>
</g>
</svg>
