<?xml version="1.0" encoding="UTF-8" standalone="no"?>
<!DOCTYPE svg PUBLIC "-//W3C//DTD SVG 1.1//EN"
 "http://www.w3.org/Graphics/SVG/1.1/DTD/svg11.dtd">
<!-- Generated by graphviz version 2.38.0 (20140413.2041)
 -->
<!-- Title: pt Pages: 1 -->
<svg width="2406pt" height="620pt"
 viewBox="0.00 0.00 2405.66 620.00" xmlns="http://www.w3.org/2000/svg" xmlns:xlink="http://www.w3.org/1999/xlink">
<g id="graph0" class="graph" transform="scale(1 1) rotate(0) translate(4 616)">
<title>pt</title>
<!-- 1981581149952 -->
<g id="node1" class="node"><title>1981581149952</title>
<ellipse fill="none" stroke="black" cx="429.811" cy="-594" rx="27" ry="18"/>
<text text-anchor="middle" x="429.811" y="-590.5" font-family="Times New Roman,serif" font-size="15.00">and</text>
</g>
<!-- 1981599996512 -->
<g id="node2" class="node"><title>1981599996512</title>
<ellipse fill="none" stroke="black" cx="305.811" cy="-522" rx="27" ry="18"/>
<text text-anchor="middle" x="305.811" y="-518.5" font-family="Times New Roman,serif" font-size="15.00">xor</text>
</g>
<!-- 1981581149952&#45;&#45;1981599996512 -->
<g id="edge18" class="edge"><title>1981581149952&#45;&#45;1981599996512</title>
<path fill="none" stroke="black" d="M409.888,-581.753C386.749,-568.691 348.803,-547.27 325.684,-534.219"/>
</g>
<!-- 1981599995024 -->
<g id="node20" class="node"><title>1981599995024</title>
<ellipse fill="none" stroke="black" cx="554.811" cy="-522" rx="27" ry="18"/>
<text text-anchor="middle" x="554.811" y="-518.5" font-family="Times New Roman,serif" font-size="15.00">seq</text>
</g>
<!-- 1981581149952&#45;&#45;1981599995024 -->
<g id="edge45" class="edge"><title>1981581149952&#45;&#45;1981599995024</title>
<path fill="none" stroke="black" d="M449.894,-581.753C473.221,-568.691 511.472,-547.27 534.777,-534.219"/>
</g>
<!-- 1981585968672 -->
<g id="node3" class="node"><title>1981585968672</title>
<ellipse fill="black" stroke="black" cx="257.811" cy="-450" rx="2.7" ry="2.7"/>
</g>
<!-- 1981599996512&#45;&#45;1981585968672 -->
<g id="edge1" class="edge"><title>1981599996512&#45;&#45;1981585968672</title>
<path fill="none" stroke="black" d="M294.919,-505.116C282.749,-487.367 264.091,-460.158 259.084,-452.857"/>
</g>
<!-- 1981585967952 -->
<g id="node4" class="node"><title>1981585967952</title>
<ellipse fill="none" stroke="black" cx="305.811" cy="-450" rx="27" ry="18"/>
<text text-anchor="middle" x="305.811" y="-446.5" font-family="Times New Roman,serif" font-size="15.00">and</text>
</g>
<!-- 1981599996512&#45;&#45;1981585967952 -->
<g id="edge17" class="edge"><title>1981599996512&#45;&#45;1981585967952</title>
<path fill="none" stroke="black" d="M305.811,-503.697C305.811,-492.846 305.811,-478.917 305.811,-468.104"/>
</g>
<!-- 1981581209408 -->
<g id="node5" class="node"><title>1981581209408</title>
<ellipse fill="none" stroke="black" cx="164.811" cy="-378" rx="46.6143" ry="18"/>
<text text-anchor="middle" x="164.811" y="-374.5" font-family="Times New Roman,serif" font-size="15.00">xor loop</text>
</g>
<!-- 1981585967952&#45;&#45;1981581209408 -->
<g id="edge4" class="edge"><title>1981585967952&#45;&#45;1981581209408</title>
<path fill="none" stroke="black" d="M284.702,-438.52C260.118,-426.316 219.432,-406.117 192.374,-392.684"/>
</g>
<!-- 1981581207872 -->
<g id="node8" class="node"><title>1981581207872</title>
<ellipse fill="none" stroke="black" cx="305.811" cy="-378" rx="27" ry="18"/>
<text text-anchor="middle" x="305.811" y="-374.5" font-family="Times New Roman,serif" font-size="15.00">xor</text>
</g>
<!-- 1981585967952&#45;&#45;1981581207872 -->
<g id="edge16" class="edge"><title>1981585967952&#45;&#45;1981581207872</title>
<path fill="none" stroke="black" d="M305.811,-431.697C305.811,-420.846 305.811,-406.917 305.811,-396.104"/>
</g>
<!-- 1981581241360 -->
<g id="node6" class="node"><title>1981581241360</title>
<ellipse fill="black" stroke="black" cx="97.8111" cy="-306" rx="2.7" ry="2.7"/>
</g>
<!-- 1981581209408&#45;&#45;1981581241360 -->
<g id="edge2" class="edge"><title>1981581209408&#45;&#45;1981581241360</title>
<path fill="none" stroke="black" d="M149.272,-360.765C131.953,-342.671 105.542,-315.078 99.2104,-308.462"/>
</g>
<!-- 1981581240064 -->
<g id="node7" class="node"><title>1981581240064</title>
<ellipse fill="none" stroke="black" cx="164.811" cy="-306" rx="45.7249" ry="18"/>
<text text-anchor="middle" x="164.811" y="-302.5" font-family="Times New Roman,serif" font-size="15.00">Payment</text>
</g>
<!-- 1981581209408&#45;&#45;1981581240064 -->
<g id="edge3" class="edge"><title>1981581209408&#45;&#45;1981581240064</title>
<path fill="none" stroke="black" d="M164.811,-359.697C164.811,-348.846 164.811,-334.917 164.811,-324.104"/>
</g>
<!-- 1981581240448 -->
<g id="node9" class="node"><title>1981581240448</title>
<ellipse fill="black" stroke="black" cx="231.811" cy="-306" rx="2.7" ry="2.7"/>
</g>
<!-- 1981581207872&#45;&#45;1981581240448 -->
<g id="edge5" class="edge"><title>1981581207872&#45;&#45;1981581240448</title>
<path fill="none" stroke="black" d="M290.836,-362.834C271.916,-344.937 240.915,-315.612 233.46,-308.56"/>
</g>
<!-- 1981581241120 -->
<g id="node10" class="node"><title>1981581241120</title>
<ellipse fill="none" stroke="black" cx="305.811" cy="-306" rx="52.6228" ry="18"/>
<text text-anchor="middle" x="305.811" y="-302.5" font-family="Times New Roman,serif" font-size="15.00">Send Fine</text>
</g>
<!-- 1981581207872&#45;&#45;1981581241120 -->
<g id="edge6" class="edge"><title>1981581207872&#45;&#45;1981581241120</title>
<path fill="none" stroke="black" d="M305.811,-359.697C305.811,-348.846 305.811,-334.917 305.811,-324.104"/>
</g>
<!-- 1981581242224 -->
<g id="node11" class="node"><title>1981581242224</title>
<ellipse fill="none" stroke="black" cx="403.811" cy="-306" rx="27" ry="18"/>
<text text-anchor="middle" x="403.811" y="-302.5" font-family="Times New Roman,serif" font-size="15.00">seq</text>
</g>
<!-- 1981581207872&#45;&#45;1981581242224 -->
<g id="edge15" class="edge"><title>1981581207872&#45;&#45;1981581242224</title>
<path fill="none" stroke="black" d="M323.786,-364.161C341.468,-351.531 368.307,-332.36 385.95,-319.758"/>
</g>
<!-- 1981581240016 -->
<g id="node12" class="node"><title>1981581240016</title>
<ellipse fill="none" stroke="black" cx="52.8111" cy="-234" rx="52.6228" ry="18"/>
<text text-anchor="middle" x="52.8111" y="-230.5" font-family="Times New Roman,serif" font-size="15.00">Send Fine</text>
</g>
<!-- 1981581242224&#45;&#45;1981581240016 -->
<g id="edge7" class="edge"><title>1981581242224&#45;&#45;1981581240016</title>
<path fill="none" stroke="black" d="M378.285,-299.909C319.048,-288.096 171.636,-258.697 97.2456,-243.862"/>
</g>
<!-- 1981581240832 -->
<g id="node13" class="node"><title>1981581240832</title>
<ellipse fill="none" stroke="black" cx="231.811" cy="-234" rx="107.914" ry="18"/>
<text text-anchor="middle" x="231.811" y="-230.5" font-family="Times New Roman,serif" font-size="15.00">Insert Fine Notification</text>
</g>
<!-- 1981581242224&#45;&#45;1981581240832 -->
<g id="edge8" class="edge"><title>1981581242224&#45;&#45;1981581240832</title>
<path fill="none" stroke="black" d="M381.325,-295.849C353.279,-284.434 304.87,-264.733 270.746,-250.846"/>
</g>
<!-- 1981581239824 -->
<g id="node14" class="node"><title>1981581239824</title>
<ellipse fill="none" stroke="black" cx="403.811" cy="-234" rx="46.6143" ry="18"/>
<text text-anchor="middle" x="403.811" y="-230.5" font-family="Times New Roman,serif" font-size="15.00">xor loop</text>
</g>
<!-- 1981581242224&#45;&#45;1981581239824 -->
<g id="edge11" class="edge"><title>1981581242224&#45;&#45;1981581239824</title>
<path fill="none" stroke="black" d="M403.811,-287.697C403.811,-276.846 403.811,-262.917 403.811,-252.104"/>
</g>
<!-- 1981581242272 -->
<g id="node17" class="node"><title>1981581242272</title>
<ellipse fill="none" stroke="black" cx="514.811" cy="-234" rx="46.6143" ry="18"/>
<text text-anchor="middle" x="514.811" y="-230.5" font-family="Times New Roman,serif" font-size="15.00">xor loop</text>
</g>
<!-- 1981581242224&#45;&#45;1981581242272 -->
<g id="edge14" class="edge"><title>1981581242224&#45;&#45;1981581242272</title>
<path fill="none" stroke="black" d="M422.893,-292.967C441.86,-281.005 470.988,-262.636 491.357,-249.791"/>
</g>
<!-- 1981581239776 -->
<g id="node15" class="node"><title>1981581239776</title>
<ellipse fill="black" stroke="black" cx="320.811" cy="-162" rx="2.7" ry="2.7"/>
</g>
<!-- 1981581239824&#45;&#45;1981581239776 -->
<g id="edge9" class="edge"><title>1981581239824&#45;&#45;1981581239776</title>
<path fill="none" stroke="black" d="M385.391,-217.465C363.995,-199.42 330.598,-171.254 322.583,-164.494"/>
</g>
<!-- 1981681918304 -->
<g id="node16" class="node"><title>1981681918304</title>
<ellipse fill="none" stroke="black" cx="403.811" cy="-162" rx="61.6894" ry="18"/>
<text text-anchor="middle" x="403.811" y="-158.5" font-family="Times New Roman,serif" font-size="15.00">Add penalty</text>
</g>
<!-- 1981581239824&#45;&#45;1981681918304 -->
<g id="edge10" class="edge"><title>1981581239824&#45;&#45;1981681918304</title>
<path fill="none" stroke="black" d="M403.811,-215.697C403.811,-204.846 403.811,-190.917 403.811,-180.104"/>
</g>
<!-- 1981681918112 -->
<g id="node18" class="node"><title>1981681918112</title>
<ellipse fill="black" stroke="black" cx="486.811" cy="-162" rx="2.7" ry="2.7"/>
</g>
<!-- 1981581242272&#45;&#45;1981681918112 -->
<g id="edge12" class="edge"><title>1981581242272&#45;&#45;1981681918112</title>
<path fill="none" stroke="black" d="M508.033,-216.055C500.912,-198.252 490.357,-171.865 487.53,-164.796"/>
</g>
<!-- 1981681918544 -->
<g id="node19" class="node"><title>1981681918544</title>
<ellipse fill="none" stroke="black" cx="585.811" cy="-162" rx="78.5434" ry="18"/>
<text text-anchor="middle" x="585.811" y="-158.5" font-family="Times New Roman,serif" font-size="15.00">Appeal to Judge</text>
</g>
<!-- 1981581242272&#45;&#45;1981681918544 -->
<g id="edge13" class="edge"><title>1981581242272&#45;&#45;1981681918544</title>
<path fill="none" stroke="black" d="M531.278,-216.765C542.585,-205.618 557.548,-190.865 568.94,-179.633"/>
</g>
<!-- 1981599996992 -->
<g id="node21" class="node"><title>1981599996992</title>
<ellipse fill="none" stroke="black" cx="554.811" cy="-450" rx="59.5207" ry="18"/>
<text text-anchor="middle" x="554.811" y="-446.5" font-family="Times New Roman,serif" font-size="15.00">Create Fine</text>
</g>
<!-- 1981599995024&#45;&#45;1981599996992 -->
<g id="edge19" class="edge"><title>1981599995024&#45;&#45;1981599996992</title>
<path fill="none" stroke="black" d="M554.811,-503.697C554.811,-492.846 554.811,-478.917 554.811,-468.104"/>
</g>
<!-- 1981599994400 -->
<g id="node22" class="node"><title>1981599994400</title>
<ellipse fill="none" stroke="black" cx="822.811" cy="-450" rx="46.6143" ry="18"/>
<text text-anchor="middle" x="822.811" y="-446.5" font-family="Times New Roman,serif" font-size="15.00">xor loop</text>
</g>
<!-- 1981599995024&#45;&#45;1981599994400 -->
<g id="edge44" class="edge"><title>1981599995024&#45;&#45;1981599994400</title>
<path fill="none" stroke="black" d="M579.543,-514.54C626.711,-502.22 729.768,-475.302 785.406,-460.77"/>
</g>
<!-- 1981585968144 -->
<g id="node23" class="node"><title>1981585968144</title>
<ellipse fill="none" stroke="black" cx="822.811" cy="-378" rx="46.6143" ry="18"/>
<text text-anchor="middle" x="822.811" y="-374.5" font-family="Times New Roman,serif" font-size="15.00">xor loop</text>
</g>
<!-- 1981599994400&#45;&#45;1981585968144 -->
<g id="edge42" class="edge"><title>1981599994400&#45;&#45;1981585968144</title>
<path fill="none" stroke="black" d="M822.811,-431.697C822.811,-420.846 822.811,-406.917 822.811,-396.104"/>
</g>
<!-- 1981585967520 -->
<g id="node46" class="node"><title>1981585967520</title>
<ellipse fill="black" stroke="black" cx="889.811" cy="-378" rx="2.7" ry="2.7"/>
</g>
<!-- 1981599994400&#45;&#45;1981585967520 -->
<g id="edge43" class="edge"><title>1981599994400&#45;&#45;1981585967520</title>
<path fill="none" stroke="black" d="M838.351,-432.765C855.669,-414.671 882.08,-387.078 888.412,-380.462"/>
</g>
<!-- 1981585967664 -->
<g id="node24" class="node"><title>1981585967664</title>
<ellipse fill="none" stroke="black" cx="822.811" cy="-306" rx="27" ry="18"/>
<text text-anchor="middle" x="822.811" y="-302.5" font-family="Times New Roman,serif" font-size="15.00">seq</text>
</g>
<!-- 1981585968144&#45;&#45;1981585967664 -->
<g id="edge40" class="edge"><title>1981585968144&#45;&#45;1981585967664</title>
<path fill="none" stroke="black" d="M822.811,-359.697C822.811,-348.846 822.811,-334.917 822.811,-324.104"/>
</g>
<!-- 1981585967904 -->
<g id="node45" class="node"><title>1981585967904</title>
<ellipse fill="black" stroke="black" cx="870.811" cy="-306" rx="2.7" ry="2.7"/>
</g>
<!-- 1981585968144&#45;&#45;1981585967904 -->
<g id="edge41" class="edge"><title>1981585968144&#45;&#45;1981585967904</title>
<path fill="none" stroke="black" d="M834.186,-360.411C846.385,-342.622 864.665,-315.962 869.566,-308.816"/>
</g>
<!-- 1981585968480 -->
<g id="node25" class="node"><title>1981585968480</title>
<ellipse fill="none" stroke="black" cx="822.811" cy="-234" rx="27" ry="18"/>
<text text-anchor="middle" x="822.811" y="-230.5" font-family="Times New Roman,serif" font-size="15.00">xor</text>
</g>
<!-- 1981585967664&#45;&#45;1981585968480 -->
<g id="edge29" class="edge"><title>1981585967664&#45;&#45;1981585968480</title>
<path fill="none" stroke="black" d="M822.811,-287.697C822.811,-276.846 822.811,-262.917 822.811,-252.104"/>
</g>
<!-- 1981585968096 -->
<g id="node35" class="node"><title>1981585968096</title>
<ellipse fill="none" stroke="black" cx="1155.81" cy="-234" rx="27" ry="18"/>
<text text-anchor="middle" x="1155.81" y="-230.5" font-family="Times New Roman,serif" font-size="15.00">xor</text>
</g>
<!-- 1981585967664&#45;&#45;1981585968096 -->
<g id="edge39" class="edge"><title>1981585967664&#45;&#45;1981585968096</title>
<path fill="none" stroke="black" d="M848.113,-299.681C909.887,-286.696 1067.88,-253.483 1130.09,-240.407"/>
</g>
<!-- 1981585967232 -->
<g id="node26" class="node"><title>1981585967232</title>
<ellipse fill="none" stroke="black" cx="760.811" cy="-162" rx="78.5434" ry="18"/>
<text text-anchor="middle" x="760.811" y="-158.5" font-family="Times New Roman,serif" font-size="15.00">Appeal to Judge</text>
</g>
<!-- 1981585968480&#45;&#45;1981585967232 -->
<g id="edge20" class="edge"><title>1981585968480&#45;&#45;1981585967232</title>
<path fill="none" stroke="black" d="M809.662,-218.155C799.71,-206.918 786.033,-191.476 775.681,-179.789"/>
</g>
<!-- 1981585969008 -->
<g id="node27" class="node"><title>1981585969008</title>
<ellipse fill="none" stroke="black" cx="884.811" cy="-162" rx="27" ry="18"/>
<text text-anchor="middle" x="884.811" y="-158.5" font-family="Times New Roman,serif" font-size="15.00">seq</text>
</g>
<!-- 1981585968480&#45;&#45;1981585969008 -->
<g id="edge28" class="edge"><title>1981585968480&#45;&#45;1981585969008</title>
<path fill="none" stroke="black" d="M835.96,-218.155C846.481,-206.276 861.165,-189.697 871.681,-177.824"/>
</g>
<!-- 1981585968384 -->
<g id="node28" class="node"><title>1981585968384</title>
<ellipse fill="none" stroke="black" cx="551.811" cy="-90" rx="27" ry="18"/>
<text text-anchor="middle" x="551.811" y="-86.5" font-family="Times New Roman,serif" font-size="15.00">xor</text>
</g>
<!-- 1981585969008&#45;&#45;1981585968384 -->
<g id="edge24" class="edge"><title>1981585969008&#45;&#45;1981585968384</title>
<path fill="none" stroke="black" d="M859.509,-155.681C797.735,-142.696 639.737,-109.483 577.532,-96.4068"/>
</g>
<!-- 1981585968576 -->
<g id="node32" class="node"><title>1981585968576</title>
<ellipse fill="none" stroke="black" cx="884.811" cy="-90" rx="27" ry="18"/>
<text text-anchor="middle" x="884.811" y="-86.5" font-family="Times New Roman,serif" font-size="15.00">xor</text>
</g>
<!-- 1981585969008&#45;&#45;1981585968576 -->
<g id="edge27" class="edge"><title>1981585969008&#45;&#45;1981585968576</title>
<path fill="none" stroke="black" d="M884.811,-143.697C884.811,-132.846 884.811,-118.917 884.811,-108.104"/>
</g>
<!-- 1981585967712 -->
<g id="node29" class="node"><title>1981585967712</title>
<ellipse fill="none" stroke="black" cx="330.811" cy="-18" rx="52.6228" ry="18"/>
<text text-anchor="middle" x="330.811" y="-14.5" font-family="Times New Roman,serif" font-size="15.00">Send Fine</text>
</g>
<!-- 1981585968384&#45;&#45;1981585967712 -->
<g id="edge21" class="edge"><title>1981585968384&#45;&#45;1981585967712</title>
<path fill="none" stroke="black" d="M527.739,-81.3755C489.256,-69.1861 413.588,-45.2189 368.074,-30.8028"/>
</g>
<!-- 1981581206384 -->
<g id="node30" class="node"><title>1981581206384</title>
<ellipse fill="none" stroke="black" cx="447.811" cy="-18" rx="45.7249" ry="18"/>
<text text-anchor="middle" x="447.811" y="-14.5" font-family="Times New Roman,serif" font-size="15.00">Payment</text>
</g>
<!-- 1981585968384&#45;&#45;1981581206384 -->
<g id="edge22" class="edge"><title>1981585968384&#45;&#45;1981581206384</title>
<path fill="none" stroke="black" d="M533.218,-76.4854C515.456,-64.5306 488.677,-46.5062 469.851,-33.8345"/>
</g>
<!-- 1981581209216 -->
<g id="node31" class="node"><title>1981581209216</title>
<ellipse fill="none" stroke="black" cx="655.811" cy="-18" rx="144.571" ry="18"/>
<text text-anchor="middle" x="655.811" y="-14.5" font-family="Times New Roman,serif" font-size="15.00">Insert Date Appeal to Prefecture</text>
</g>
<!-- 1981585968384&#45;&#45;1981581209216 -->
<g id="edge23" class="edge"><title>1981585968384&#45;&#45;1981581209216</title>
<path fill="none" stroke="black" d="M570.404,-76.4854C587.231,-65.1598 612.151,-48.3867 630.735,-35.8781"/>
</g>
<!-- 1981581205952 -->
<g id="node33" class="node"><title>1981581205952</title>
<ellipse fill="black" stroke="black" cx="820.811" cy="-18" rx="2.7" ry="2.7"/>
</g>
<!-- 1981585968576&#45;&#45;1981581205952 -->
<g id="edge25" class="edge"><title>1981585968576&#45;&#45;1981581205952</title>
<path fill="none" stroke="black" d="M871.238,-74.1548C854.8,-56.1754 828.52,-27.4321 822.207,-20.5271"/>
</g>
<!-- 1981581207008 -->
<g id="node34" class="node"><title>1981581207008</title>
<ellipse fill="none" stroke="black" cx="948.811" cy="-18" rx="107.914" ry="18"/>
<text text-anchor="middle" x="948.811" y="-14.5" font-family="Times New Roman,serif" font-size="15.00">Insert Fine Notification</text>
</g>
<!-- 1981585968576&#45;&#45;1981581207008 -->
<g id="edge26" class="edge"><title>1981585968576&#45;&#45;1981581207008</title>
<path fill="none" stroke="black" d="M898.384,-74.1548C908.584,-62.998 922.574,-47.6963 933.232,-36.04"/>
</g>
<!-- 1981585968864 -->
<g id="node36" class="node"><title>1981585968864</title>
<ellipse fill="black" stroke="black" cx="1155.81" cy="-162" rx="2.7" ry="2.7"/>
</g>
<!-- 1981585968096&#45;&#45;1981585968864 -->
<g id="edge30" class="edge"><title>1981585968096&#45;&#45;1981585968864</title>
<path fill="none" stroke="black" d="M1155.81,-215.697C1155.81,-197.883 1155.81,-171.769 1155.81,-164.776"/>
</g>
<!-- 1981585968624 -->
<g id="node37" class="node"><title>1981585968624</title>
<ellipse fill="none" stroke="black" cx="1665.81" cy="-162" rx="46.6143" ry="18"/>
<text text-anchor="middle" x="1665.81" y="-158.5" font-family="Times New Roman,serif" font-size="15.00">xor loop</text>
</g>
<!-- 1981585968096&#45;&#45;1981585968624 -->
<g id="edge38" class="edge"><title>1981585968096&#45;&#45;1981585968624</title>
<path fill="none" stroke="black" d="M1182.16,-229.384C1264.87,-218.031 1519.94,-183.022 1622.47,-168.948"/>
</g>
<!-- 1981581208016 -->
<g id="node38" class="node"><title>1981581208016</title>
<ellipse fill="none" stroke="black" cx="1665.81" cy="-90" rx="27" ry="18"/>
<text text-anchor="middle" x="1665.81" y="-86.5" font-family="Times New Roman,serif" font-size="15.00">xor</text>
</g>
<!-- 1981585968624&#45;&#45;1981581208016 -->
<g id="edge36" class="edge"><title>1981585968624&#45;&#45;1981581208016</title>
<path fill="none" stroke="black" d="M1665.81,-143.697C1665.81,-132.846 1665.81,-118.917 1665.81,-108.104"/>
</g>
<!-- 1981581208256 -->
<g id="node44" class="node"><title>1981581208256</title>
<ellipse fill="black" stroke="black" cx="1713.81" cy="-90" rx="2.7" ry="2.7"/>
</g>
<!-- 1981585968624&#45;&#45;1981581208256 -->
<g id="edge37" class="edge"><title>1981585968624&#45;&#45;1981581208256</title>
<path fill="none" stroke="black" d="M1677.19,-144.411C1689.38,-126.622 1707.67,-99.9625 1712.57,-92.8163"/>
</g>
<!-- 1981581208112 -->
<g id="node39" class="node"><title>1981581208112</title>
<ellipse fill="none" stroke="black" cx="1222.81" cy="-18" rx="148.91" ry="18"/>
<text text-anchor="middle" x="1222.81" y="-14.5" font-family="Times New Roman,serif" font-size="15.00">Notify Result Appeal to Offender</text>
</g>
<!-- 1981581208016&#45;&#45;1981581208112 -->
<g id="edge31" class="edge"><title>1981581208016&#45;&#45;1981581208112</title>
<path fill="none" stroke="black" d="M1639.75,-84.8825C1576.32,-74.8597 1411.6,-48.8311 1309.21,-32.6515"/>
</g>
<!-- 1981581206960 -->
<g id="node40" class="node"><title>1981581206960</title>
<ellipse fill="none" stroke="black" cx="1509.81" cy="-18" rx="120.43" ry="18"/>
<text text-anchor="middle" x="1509.81" y="-14.5" font-family="Times New Roman,serif" font-size="15.00">Send Appeal to Prefecture</text>
</g>
<!-- 1981581208016&#45;&#45;1981581206960 -->
<g id="edge32" class="edge"><title>1981581208016&#45;&#45;1981581206960</title>
<path fill="none" stroke="black" d="M1644.12,-79.2668C1618.75,-67.8841 1576.37,-48.8671 1546,-35.2381"/>
</g>
<!-- 1981581208544 -->
<g id="node41" class="node"><title>1981581208544</title>
<ellipse fill="none" stroke="black" cx="1821.81" cy="-18" rx="173.941" ry="18"/>
<text text-anchor="middle" x="1821.81" y="-14.5" font-family="Times New Roman,serif" font-size="15.00">Receive Result Appeal from Prefecture</text>
</g>
<!-- 1981581208016&#45;&#45;1981581208544 -->
<g id="edge33" class="edge"><title>1981581208016&#45;&#45;1981581208544</title>
<path fill="none" stroke="black" d="M1687.5,-79.2668C1712.62,-67.9968 1754.41,-49.2429 1784.72,-35.6445"/>
</g>
<!-- 1981581209312 -->
<g id="node42" class="node"><title>1981581209312</title>
<ellipse fill="none" stroke="black" cx="2134.81" cy="-18" rx="120.819" ry="18"/>
<text text-anchor="middle" x="2134.81" y="-14.5" font-family="Times New Roman,serif" font-size="15.00">Send for Credit Collection</text>
</g>
<!-- 1981581208016&#45;&#45;1981581209312 -->
<g id="edge34" class="edge"><title>1981581208016&#45;&#45;1981581209312</title>
<path fill="none" stroke="black" d="M1692.03,-85.0865C1760.03,-74.9373 1944.28,-47.438 2052.47,-31.2897"/>
</g>
<!-- 1981581209504 -->
<g id="node43" class="node"><title>1981581209504</title>
<ellipse fill="none" stroke="black" cx="2335.81" cy="-18" rx="61.6894" ry="18"/>
<text text-anchor="middle" x="2335.81" y="-14.5" font-family="Times New Roman,serif" font-size="15.00">Add penalty</text>
</g>
<!-- 1981581208016&#45;&#45;1981581209504 -->
<g id="edge35" class="edge"><title>1981581208016&#45;&#45;1981581209504</title>
<path fill="none" stroke="black" d="M1692.49,-86.2127C1791.67,-75.8508 2140.49,-39.4068 2278.75,-24.9618"/>
</g>
</g>
</svg>
