<?xml version="1.0" encoding="UTF-8" standalone="no"?>
<!DOCTYPE svg PUBLIC "-//W3C//DTD SVG 1.1//EN"
 "http://www.w3.org/Graphics/SVG/1.1/DTD/svg11.dtd">
<!-- Generated by graphviz version 2.38.0 (20140413.2041)
 -->
<!-- Title: pt Pages: 1 -->
<svg width="1479pt" height="692pt"
 viewBox="0.00 0.00 1478.52 692.00" xmlns="http://www.w3.org/2000/svg" xmlns:xlink="http://www.w3.org/1999/xlink">
<g id="graph0" class="graph" transform="scale(1 1) rotate(0) translate(4 688)">
<title>pt</title>
<!-- 1981596730608 -->
<g id="node1" class="node"><title>1981596730608</title>
<ellipse fill="none" stroke="black" cx="504.811" cy="-666" rx="27" ry="18"/>
<text text-anchor="middle" x="504.811" y="-662.5" font-family="Times New Roman,serif" font-size="15.00">seq</text>
</g>
<!-- 1981596731760 -->
<g id="node2" class="node"><title>1981596731760</title>
<ellipse fill="none" stroke="black" cx="399.811" cy="-594" rx="59.5207" ry="18"/>
<text text-anchor="middle" x="399.811" y="-590.5" font-family="Times New Roman,serif" font-size="15.00">Create Fine</text>
</g>
<!-- 1981596730608&#45;&#45;1981596731760 -->
<g id="edge1" class="edge"><title>1981596730608&#45;&#45;1981596731760</title>
<path fill="none" stroke="black" d="M486.039,-652.485C468.461,-640.767 442.134,-623.215 423.198,-610.591"/>
</g>
<!-- 1981596733008 -->
<g id="node3" class="node"><title>1981596733008</title>
<ellipse fill="none" stroke="black" cx="504.811" cy="-594" rx="27" ry="18"/>
<text text-anchor="middle" x="504.811" y="-590.5" font-family="Times New Roman,serif" font-size="15.00">and</text>
</g>
<!-- 1981596730608&#45;&#45;1981596733008 -->
<g id="edge39" class="edge"><title>1981596730608&#45;&#45;1981596733008</title>
<path fill="none" stroke="black" d="M504.811,-647.697C504.811,-636.846 504.811,-622.917 504.811,-612.104"/>
</g>
<!-- 1981596731472 -->
<g id="node41" class="node"><title>1981596731472</title>
<ellipse fill="none" stroke="black" cx="576.811" cy="-594" rx="27" ry="18"/>
<text text-anchor="middle" x="576.811" y="-590.5" font-family="Times New Roman,serif" font-size="15.00">xor</text>
</g>
<!-- 1981596730608&#45;&#45;1981596731472 -->
<g id="edge42" class="edge"><title>1981596730608&#45;&#45;1981596731472</title>
<path fill="none" stroke="black" d="M519.381,-650.834C531.791,-638.77 549.542,-621.512 562.015,-609.385"/>
</g>
<!-- 1981596731232 -->
<g id="node4" class="node"><title>1981596731232</title>
<ellipse fill="none" stroke="black" cx="305.811" cy="-522" rx="27" ry="18"/>
<text text-anchor="middle" x="305.811" y="-518.5" font-family="Times New Roman,serif" font-size="15.00">and</text>
</g>
<!-- 1981596733008&#45;&#45;1981596731232 -->
<g id="edge17" class="edge"><title>1981596733008&#45;&#45;1981596731232</title>
<path fill="none" stroke="black" d="M481.202,-584.695C442.799,-571.187 367.265,-544.617 329.082,-531.186"/>
</g>
<!-- 1981596537760 -->
<g id="node20" class="node"><title>1981596537760</title>
<ellipse fill="none" stroke="black" cx="510.811" cy="-522" rx="27" ry="18"/>
<text text-anchor="middle" x="510.811" y="-518.5" font-family="Times New Roman,serif" font-size="15.00">xor</text>
</g>
<!-- 1981596733008&#45;&#45;1981596537760 -->
<g id="edge38" class="edge"><title>1981596733008&#45;&#45;1981596537760</title>
<path fill="none" stroke="black" d="M506.294,-575.697C507.224,-564.846 508.418,-550.917 509.345,-540.104"/>
</g>
<!-- 1981596662512 -->
<g id="node5" class="node"><title>1981596662512</title>
<ellipse fill="none" stroke="black" cx="164.811" cy="-450" rx="46.6143" ry="18"/>
<text text-anchor="middle" x="164.811" y="-446.5" font-family="Times New Roman,serif" font-size="15.00">xor loop</text>
</g>
<!-- 1981596731232&#45;&#45;1981596662512 -->
<g id="edge4" class="edge"><title>1981596731232&#45;&#45;1981596662512</title>
<path fill="none" stroke="black" d="M284.702,-510.52C260.118,-498.316 219.432,-478.117 192.374,-464.684"/>
</g>
<!-- 1981596660976 -->
<g id="node8" class="node"><title>1981596660976</title>
<ellipse fill="none" stroke="black" cx="305.811" cy="-450" rx="27" ry="18"/>
<text text-anchor="middle" x="305.811" y="-446.5" font-family="Times New Roman,serif" font-size="15.00">xor</text>
</g>
<!-- 1981596731232&#45;&#45;1981596660976 -->
<g id="edge16" class="edge"><title>1981596731232&#45;&#45;1981596660976</title>
<path fill="none" stroke="black" d="M305.811,-503.697C305.811,-492.846 305.811,-478.917 305.811,-468.104"/>
</g>
<!-- 1981596660112 -->
<g id="node6" class="node"><title>1981596660112</title>
<ellipse fill="black" stroke="black" cx="97.8111" cy="-378" rx="2.7" ry="2.7"/>
</g>
<!-- 1981596662512&#45;&#45;1981596660112 -->
<g id="edge2" class="edge"><title>1981596662512&#45;&#45;1981596660112</title>
<path fill="none" stroke="black" d="M149.272,-432.765C131.953,-414.671 105.542,-387.078 99.2104,-380.462"/>
</g>
<!-- 1981596662560 -->
<g id="node7" class="node"><title>1981596662560</title>
<ellipse fill="none" stroke="black" cx="164.811" cy="-378" rx="45.7249" ry="18"/>
<text text-anchor="middle" x="164.811" y="-374.5" font-family="Times New Roman,serif" font-size="15.00">Payment</text>
</g>
<!-- 1981596662512&#45;&#45;1981596662560 -->
<g id="edge3" class="edge"><title>1981596662512&#45;&#45;1981596662560</title>
<path fill="none" stroke="black" d="M164.811,-431.697C164.811,-420.846 164.811,-406.917 164.811,-396.104"/>
</g>
<!-- 1981596661408 -->
<g id="node9" class="node"><title>1981596661408</title>
<ellipse fill="black" stroke="black" cx="231.811" cy="-378" rx="2.7" ry="2.7"/>
</g>
<!-- 1981596660976&#45;&#45;1981596661408 -->
<g id="edge5" class="edge"><title>1981596660976&#45;&#45;1981596661408</title>
<path fill="none" stroke="black" d="M290.836,-434.834C271.916,-416.937 240.915,-387.612 233.46,-380.56"/>
</g>
<!-- 1981596661792 -->
<g id="node10" class="node"><title>1981596661792</title>
<ellipse fill="none" stroke="black" cx="305.811" cy="-378" rx="52.6228" ry="18"/>
<text text-anchor="middle" x="305.811" y="-374.5" font-family="Times New Roman,serif" font-size="15.00">Send Fine</text>
</g>
<!-- 1981596660976&#45;&#45;1981596661792 -->
<g id="edge6" class="edge"><title>1981596660976&#45;&#45;1981596661792</title>
<path fill="none" stroke="black" d="M305.811,-431.697C305.811,-420.846 305.811,-406.917 305.811,-396.104"/>
</g>
<!-- 1981596661504 -->
<g id="node11" class="node"><title>1981596661504</title>
<ellipse fill="none" stroke="black" cx="403.811" cy="-378" rx="27" ry="18"/>
<text text-anchor="middle" x="403.811" y="-374.5" font-family="Times New Roman,serif" font-size="15.00">seq</text>
</g>
<!-- 1981596660976&#45;&#45;1981596661504 -->
<g id="edge15" class="edge"><title>1981596660976&#45;&#45;1981596661504</title>
<path fill="none" stroke="black" d="M323.786,-436.161C341.468,-423.531 368.307,-404.36 385.95,-391.758"/>
</g>
<!-- 1981596663280 -->
<g id="node12" class="node"><title>1981596663280</title>
<ellipse fill="none" stroke="black" cx="52.8111" cy="-306" rx="52.6228" ry="18"/>
<text text-anchor="middle" x="52.8111" y="-302.5" font-family="Times New Roman,serif" font-size="15.00">Send Fine</text>
</g>
<!-- 1981596661504&#45;&#45;1981596663280 -->
<g id="edge7" class="edge"><title>1981596661504&#45;&#45;1981596663280</title>
<path fill="none" stroke="black" d="M378.285,-371.909C319.048,-360.096 171.636,-330.697 97.2456,-315.862"/>
</g>
<!-- 1981596661888 -->
<g id="node13" class="node"><title>1981596661888</title>
<ellipse fill="none" stroke="black" cx="231.811" cy="-306" rx="107.914" ry="18"/>
<text text-anchor="middle" x="231.811" y="-302.5" font-family="Times New Roman,serif" font-size="15.00">Insert Fine Notification</text>
</g>
<!-- 1981596661504&#45;&#45;1981596661888 -->
<g id="edge8" class="edge"><title>1981596661504&#45;&#45;1981596661888</title>
<path fill="none" stroke="black" d="M381.325,-367.849C353.279,-356.434 304.87,-336.733 270.746,-322.846"/>
</g>
<!-- 1981596662032 -->
<g id="node14" class="node"><title>1981596662032</title>
<ellipse fill="none" stroke="black" cx="403.811" cy="-306" rx="46.6143" ry="18"/>
<text text-anchor="middle" x="403.811" y="-302.5" font-family="Times New Roman,serif" font-size="15.00">xor loop</text>
</g>
<!-- 1981596661504&#45;&#45;1981596662032 -->
<g id="edge11" class="edge"><title>1981596661504&#45;&#45;1981596662032</title>
<path fill="none" stroke="black" d="M403.811,-359.697C403.811,-348.846 403.811,-334.917 403.811,-324.104"/>
</g>
<!-- 1981596662656 -->
<g id="node17" class="node"><title>1981596662656</title>
<ellipse fill="none" stroke="black" cx="514.811" cy="-306" rx="46.6143" ry="18"/>
<text text-anchor="middle" x="514.811" y="-302.5" font-family="Times New Roman,serif" font-size="15.00">xor loop</text>
</g>
<!-- 1981596661504&#45;&#45;1981596662656 -->
<g id="edge14" class="edge"><title>1981596661504&#45;&#45;1981596662656</title>
<path fill="none" stroke="black" d="M422.893,-364.967C441.86,-353.005 470.988,-334.636 491.357,-321.791"/>
</g>
<!-- 1981596662944 -->
<g id="node15" class="node"><title>1981596662944</title>
<ellipse fill="black" stroke="black" cx="320.811" cy="-234" rx="2.7" ry="2.7"/>
</g>
<!-- 1981596662032&#45;&#45;1981596662944 -->
<g id="edge9" class="edge"><title>1981596662032&#45;&#45;1981596662944</title>
<path fill="none" stroke="black" d="M385.391,-289.465C363.995,-271.42 330.598,-243.254 322.583,-236.494"/>
</g>
<!-- 1981596662752 -->
<g id="node16" class="node"><title>1981596662752</title>
<ellipse fill="none" stroke="black" cx="403.811" cy="-234" rx="61.6894" ry="18"/>
<text text-anchor="middle" x="403.811" y="-230.5" font-family="Times New Roman,serif" font-size="15.00">Add penalty</text>
</g>
<!-- 1981596662032&#45;&#45;1981596662752 -->
<g id="edge10" class="edge"><title>1981596662032&#45;&#45;1981596662752</title>
<path fill="none" stroke="black" d="M403.811,-287.697C403.811,-276.846 403.811,-262.917 403.811,-252.104"/>
</g>
<!-- 1981596662848 -->
<g id="node18" class="node"><title>1981596662848</title>
<ellipse fill="black" stroke="black" cx="486.811" cy="-234" rx="2.7" ry="2.7"/>
</g>
<!-- 1981596662656&#45;&#45;1981596662848 -->
<g id="edge12" class="edge"><title>1981596662656&#45;&#45;1981596662848</title>
<path fill="none" stroke="black" d="M508.033,-288.055C500.912,-270.252 490.357,-243.865 487.53,-236.796"/>
</g>
<!-- 1981596662896 -->
<g id="node19" class="node"><title>1981596662896</title>
<ellipse fill="none" stroke="black" cx="585.811" cy="-234" rx="78.5434" ry="18"/>
<text text-anchor="middle" x="585.811" y="-230.5" font-family="Times New Roman,serif" font-size="15.00">Appeal to Judge</text>
</g>
<!-- 1981596662656&#45;&#45;1981596662896 -->
<g id="edge13" class="edge"><title>1981596662656&#45;&#45;1981596662896</title>
<path fill="none" stroke="black" d="M531.278,-288.765C542.585,-277.618 557.548,-262.865 568.94,-251.633"/>
</g>
<!-- 1981596537712 -->
<g id="node21" class="node"><title>1981596537712</title>
<ellipse fill="black" stroke="black" cx="510.811" cy="-450" rx="2.7" ry="2.7"/>
</g>
<!-- 1981596537760&#45;&#45;1981596537712 -->
<g id="edge18" class="edge"><title>1981596537760&#45;&#45;1981596537712</title>
<path fill="none" stroke="black" d="M510.811,-503.697C510.811,-485.883 510.811,-459.769 510.811,-452.776"/>
</g>
<!-- 1981596537856 -->
<g id="node22" class="node"><title>1981596537856</title>
<ellipse fill="none" stroke="black" cx="709.811" cy="-450" rx="46.6143" ry="18"/>
<text text-anchor="middle" x="709.811" y="-446.5" font-family="Times New Roman,serif" font-size="15.00">xor loop</text>
</g>
<!-- 1981596537760&#45;&#45;1981596537856 -->
<g id="edge37" class="edge"><title>1981596537760&#45;&#45;1981596537856</title>
<path fill="none" stroke="black" d="M534.42,-512.695C569.734,-500.273 636.447,-476.806 676.641,-462.668"/>
</g>
<!-- 1981580836384 -->
<g id="node23" class="node"><title>1981580836384</title>
<ellipse fill="none" stroke="black" cx="709.811" cy="-378" rx="27" ry="18"/>
<text text-anchor="middle" x="709.811" y="-374.5" font-family="Times New Roman,serif" font-size="15.00">seq</text>
</g>
<!-- 1981596537856&#45;&#45;1981580836384 -->
<g id="edge35" class="edge"><title>1981596537856&#45;&#45;1981580836384</title>
<path fill="none" stroke="black" d="M709.811,-431.697C709.811,-420.846 709.811,-406.917 709.811,-396.104"/>
</g>
<!-- 1981596661264 -->
<g id="node40" class="node"><title>1981596661264</title>
<ellipse fill="black" stroke="black" cx="757.811" cy="-378" rx="2.7" ry="2.7"/>
</g>
<!-- 1981596537856&#45;&#45;1981596661264 -->
<g id="edge36" class="edge"><title>1981596537856&#45;&#45;1981596661264</title>
<path fill="none" stroke="black" d="M721.186,-432.411C733.385,-414.622 751.665,-387.962 756.566,-380.816"/>
</g>
<!-- 1981596663760 -->
<g id="node24" class="node"><title>1981596663760</title>
<ellipse fill="none" stroke="black" cx="709.811" cy="-306" rx="46.6143" ry="18"/>
<text text-anchor="middle" x="709.811" y="-302.5" font-family="Times New Roman,serif" font-size="15.00">xor loop</text>
</g>
<!-- 1981580836384&#45;&#45;1981596663760 -->
<g id="edge31" class="edge"><title>1981580836384&#45;&#45;1981596663760</title>
<path fill="none" stroke="black" d="M709.811,-359.697C709.811,-348.846 709.811,-334.917 709.811,-324.104"/>
</g>
<!-- 1981596659920 -->
<g id="node37" class="node"><title>1981596659920</title>
<ellipse fill="none" stroke="black" cx="801.811" cy="-306" rx="27" ry="18"/>
<text text-anchor="middle" x="801.811" y="-302.5" font-family="Times New Roman,serif" font-size="15.00">xor</text>
</g>
<!-- 1981580836384&#45;&#45;1981596659920 -->
<g id="edge34" class="edge"><title>1981580836384&#45;&#45;1981596659920</title>
<path fill="none" stroke="black" d="M727.116,-363.834C743.564,-351.319 768.162,-332.603 784.584,-320.107"/>
</g>
<!-- 1981596662272 -->
<g id="node25" class="node"><title>1981596662272</title>
<ellipse fill="none" stroke="black" cx="709.811" cy="-234" rx="27" ry="18"/>
<text text-anchor="middle" x="709.811" y="-230.5" font-family="Times New Roman,serif" font-size="15.00">xor</text>
</g>
<!-- 1981596663760&#45;&#45;1981596662272 -->
<g id="edge29" class="edge"><title>1981596663760&#45;&#45;1981596662272</title>
<path fill="none" stroke="black" d="M709.811,-287.697C709.811,-276.846 709.811,-262.917 709.811,-252.104"/>
</g>
<!-- 1981596660496 -->
<g id="node36" class="node"><title>1981596660496</title>
<ellipse fill="black" stroke="black" cx="757.811" cy="-234" rx="2.7" ry="2.7"/>
</g>
<!-- 1981596663760&#45;&#45;1981596660496 -->
<g id="edge30" class="edge"><title>1981596663760&#45;&#45;1981596660496</title>
<path fill="none" stroke="black" d="M721.186,-288.411C733.385,-270.622 751.665,-243.962 756.566,-236.816"/>
</g>
<!-- 1981596661312 -->
<g id="node26" class="node"><title>1981596661312</title>
<ellipse fill="none" stroke="black" cx="485.811" cy="-162" rx="61.6894" ry="18"/>
<text text-anchor="middle" x="485.811" y="-158.5" font-family="Times New Roman,serif" font-size="15.00">Add penalty</text>
</g>
<!-- 1981596662272&#45;&#45;1981596661312 -->
<g id="edge19" class="edge"><title>1981596662272&#45;&#45;1981596661312</title>
<path fill="none" stroke="black" d="M685.839,-225.509C647.804,-213.623 573.18,-190.303 526.611,-175.75"/>
</g>
<!-- 1981596663616 -->
<g id="node27" class="node"><title>1981596663616</title>
<ellipse fill="none" stroke="black" cx="709.811" cy="-162" rx="144.571" ry="18"/>
<text text-anchor="middle" x="709.811" y="-158.5" font-family="Times New Roman,serif" font-size="15.00">Insert Date Appeal to Prefecture</text>
</g>
<!-- 1981596662272&#45;&#45;1981596663616 -->
<g id="edge20" class="edge"><title>1981596662272&#45;&#45;1981596663616</title>
<path fill="none" stroke="black" d="M709.811,-215.697C709.811,-204.846 709.811,-190.917 709.811,-180.104"/>
</g>
<!-- 1981596661360 -->
<g id="node28" class="node"><title>1981596661360</title>
<ellipse fill="none" stroke="black" cx="899.811" cy="-162" rx="27" ry="18"/>
<text text-anchor="middle" x="899.811" y="-158.5" font-family="Times New Roman,serif" font-size="15.00">seq</text>
</g>
<!-- 1981596662272&#45;&#45;1981596661360 -->
<g id="edge28" class="edge"><title>1981596662272&#45;&#45;1981596661360</title>
<path fill="none" stroke="black" d="M733.109,-224.417C769.674,-210.945 840.121,-184.991 876.62,-171.544"/>
</g>
<!-- 1981596659776 -->
<g id="node29" class="node"><title>1981596659776</title>
<ellipse fill="none" stroke="black" cx="772.811" cy="-90" rx="27" ry="18"/>
<text text-anchor="middle" x="772.811" y="-86.5" font-family="Times New Roman,serif" font-size="15.00">xor</text>
</g>
<!-- 1981596661360&#45;&#45;1981596659776 -->
<g id="edge24" class="edge"><title>1981596661360&#45;&#45;1981596659776</title>
<path fill="none" stroke="black" d="M879.688,-149.908C856.047,-136.878 817.042,-115.379 793.261,-102.272"/>
</g>
<!-- 1981596660256 -->
<g id="node33" class="node"><title>1981596660256</title>
<ellipse fill="none" stroke="black" cx="1152.81" cy="-90" rx="27" ry="18"/>
<text text-anchor="middle" x="1152.81" y="-86.5" font-family="Times New Roman,serif" font-size="15.00">xor</text>
</g>
<!-- 1981596661360&#45;&#45;1981596660256 -->
<g id="edge27" class="edge"><title>1981596661360&#45;&#45;1981596660256</title>
<path fill="none" stroke="black" d="M924.53,-154.161C973.022,-140.744 1080.09,-111.12 1128.36,-97.7641"/>
</g>
<!-- 1981596662224 -->
<g id="node30" class="node"><title>1981596662224</title>
<ellipse fill="none" stroke="black" cx="429.811" cy="-18" rx="78.5434" ry="18"/>
<text text-anchor="middle" x="429.811" y="-14.5" font-family="Times New Roman,serif" font-size="15.00">Appeal to Judge</text>
</g>
<!-- 1981596659776&#45;&#45;1981596662224 -->
<g id="edge21" class="edge"><title>1981596659776&#45;&#45;1981596662224</title>
<path fill="none" stroke="black" d="M747.311,-83.7958C692.428,-72.5952 561.98,-45.9733 486.475,-30.5641"/>
</g>
<!-- 1981596659968 -->
<g id="node31" class="node"><title>1981596659968</title>
<ellipse fill="none" stroke="black" cx="646.811" cy="-18" rx="120.43" ry="18"/>
<text text-anchor="middle" x="646.811" y="-14.5" font-family="Times New Roman,serif" font-size="15.00">Send Appeal to Prefecture</text>
</g>
<!-- 1981596659776&#45;&#45;1981596659968 -->
<g id="edge22" class="edge"><title>1981596659776&#45;&#45;1981596659968</title>
<path fill="none" stroke="black" d="M752.567,-77.7533C732.115,-66.391 700.28,-48.705 676.879,-35.7042"/>
</g>
<!-- 1981596660064 -->
<g id="node32" class="node"><title>1981596660064</title>
<ellipse fill="none" stroke="black" cx="958.811" cy="-18" rx="173.941" ry="18"/>
<text text-anchor="middle" x="958.811" y="-14.5" font-family="Times New Roman,serif" font-size="15.00">Receive Result Appeal from Prefecture</text>
</g>
<!-- 1981596659776&#45;&#45;1981596660064 -->
<g id="edge23" class="edge"><title>1981596659776&#45;&#45;1981596660064</title>
<path fill="none" stroke="black" d="M795.992,-80.276C825.694,-69.0978 877.787,-49.4928 915.054,-35.4675"/>
</g>
<!-- 1981596660352 -->
<g id="node34" class="node"><title>1981596660352</title>
<ellipse fill="black" stroke="black" cx="1152.81" cy="-18" rx="2.7" ry="2.7"/>
</g>
<!-- 1981596660256&#45;&#45;1981596660352 -->
<g id="edge25" class="edge"><title>1981596660256&#45;&#45;1981596660352</title>
<path fill="none" stroke="black" d="M1152.81,-71.6966C1152.81,-53.8826 1152.81,-27.7686 1152.81,-20.7764"/>
</g>
<!-- 1981596660400 -->
<g id="node35" class="node"><title>1981596660400</title>
<ellipse fill="none" stroke="black" cx="1321.81" cy="-18" rx="148.91" ry="18"/>
<text text-anchor="middle" x="1321.81" y="-14.5" font-family="Times New Roman,serif" font-size="15.00">Notify Result Appeal to Offender</text>
</g>
<!-- 1981596660256&#45;&#45;1981596660400 -->
<g id="edge26" class="edge"><title>1981596660256&#45;&#45;1981596660400</title>
<path fill="none" stroke="black" d="M1175.25,-79.7045C1202.46,-68.4359 1248.79,-49.2446 1282.09,-35.4544"/>
</g>
<!-- 1981596660832 -->
<g id="node38" class="node"><title>1981596660832</title>
<ellipse fill="black" stroke="black" cx="790.811" cy="-234" rx="2.7" ry="2.7"/>
</g>
<!-- 1981596659920&#45;&#45;1981596660832 -->
<g id="edge32" class="edge"><title>1981596659920&#45;&#45;1981596660832</title>
<path fill="none" stroke="black" d="M799.148,-288.055C796.351,-270.252 792.204,-243.865 791.093,-236.796"/>
</g>
<!-- 1981596660304 -->
<g id="node39" class="node"><title>1981596660304</title>
<ellipse fill="none" stroke="black" cx="932.811" cy="-234" rx="120.819" ry="18"/>
<text text-anchor="middle" x="932.811" y="-230.5" font-family="Times New Roman,serif" font-size="15.00">Send for Credit Collection</text>
</g>
<!-- 1981596659920&#45;&#45;1981596660304 -->
<g id="edge33" class="edge"><title>1981596659920&#45;&#45;1981596660304</title>
<path fill="none" stroke="black" d="M822.28,-294.063C843.58,-282.681 877.195,-264.719 901.766,-251.589"/>
</g>
<!-- 1981596660160 -->
<g id="node42" class="node"><title>1981596660160</title>
<ellipse fill="black" stroke="black" cx="570.811" cy="-522" rx="2.7" ry="2.7"/>
</g>
<!-- 1981596731472&#45;&#45;1981596660160 -->
<g id="edge40" class="edge"><title>1981596731472&#45;&#45;1981596660160</title>
<path fill="none" stroke="black" d="M575.328,-575.697C573.801,-557.883 571.563,-531.769 570.963,-524.776"/>
</g>
<!-- 1981596662800 -->
<g id="node43" class="node"><title>1981596662800</title>
<ellipse fill="none" stroke="black" cx="669.811" cy="-522" rx="78.5434" ry="18"/>
<text text-anchor="middle" x="669.811" y="-518.5" font-family="Times New Roman,serif" font-size="15.00">Appeal to Judge</text>
</g>
<!-- 1981596731472&#45;&#45;1981596662800 -->
<g id="edge41" class="edge"><title>1981596731472&#45;&#45;1981596662800</title>
<path fill="none" stroke="black" d="M594.304,-579.834C609.563,-568.348 631.76,-551.641 648.141,-539.311"/>
</g>
</g>
</svg>
