<?xml version="1.0" encoding="UTF-8" standalone="no"?>
<!DOCTYPE svg PUBLIC "-//W3C//DTD SVG 1.1//EN"
 "http://www.w3.org/Graphics/SVG/1.1/DTD/svg11.dtd">
<!-- Generated by graphviz version 2.38.0 (20140413.2041)
 -->
<!-- Title: pt Pages: 1 -->
<svg width="1919pt" height="692pt"
 viewBox="0.00 0.00 1918.52 692.00" xmlns="http://www.w3.org/2000/svg" xmlns:xlink="http://www.w3.org/1999/xlink">
<g id="graph0" class="graph" transform="scale(1 1) rotate(0) translate(4 688)">
<title>pt</title>
<!-- 1981579168448 -->
<g id="node1" class="node"><title>1981579168448</title>
<ellipse fill="none" stroke="black" cx="614.811" cy="-666" rx="27" ry="18"/>
<text text-anchor="middle" x="614.811" y="-662.5" font-family="Times New Roman,serif" font-size="15.00">seq</text>
</g>
<!-- 1981579166816 -->
<g id="node2" class="node"><title>1981579166816</title>
<ellipse fill="none" stroke="black" cx="509.811" cy="-594" rx="59.5207" ry="18"/>
<text text-anchor="middle" x="509.811" y="-590.5" font-family="Times New Roman,serif" font-size="15.00">Create Fine</text>
</g>
<!-- 1981579168448&#45;&#45;1981579166816 -->
<g id="edge1" class="edge"><title>1981579168448&#45;&#45;1981579166816</title>
<path fill="none" stroke="black" d="M596.039,-652.485C578.461,-640.767 552.134,-623.215 533.198,-610.591"/>
</g>
<!-- 1981579166432 -->
<g id="node3" class="node"><title>1981579166432</title>
<ellipse fill="none" stroke="black" cx="614.811" cy="-594" rx="27" ry="18"/>
<text text-anchor="middle" x="614.811" y="-590.5" font-family="Times New Roman,serif" font-size="15.00">and</text>
</g>
<!-- 1981579168448&#45;&#45;1981579166432 -->
<g id="edge42" class="edge"><title>1981579168448&#45;&#45;1981579166432</title>
<path fill="none" stroke="black" d="M614.811,-647.697C614.811,-636.846 614.811,-622.917 614.811,-612.104"/>
</g>
<!-- 1981579168352 -->
<g id="node44" class="node"><title>1981579168352</title>
<ellipse fill="none" stroke="black" cx="686.811" cy="-594" rx="27" ry="18"/>
<text text-anchor="middle" x="686.811" y="-590.5" font-family="Times New Roman,serif" font-size="15.00">xor</text>
</g>
<!-- 1981579168448&#45;&#45;1981579168352 -->
<g id="edge45" class="edge"><title>1981579168448&#45;&#45;1981579168352</title>
<path fill="none" stroke="black" d="M629.381,-650.834C641.791,-638.77 659.542,-621.512 672.015,-609.385"/>
</g>
<!-- 1981579167776 -->
<g id="node4" class="node"><title>1981579167776</title>
<ellipse fill="none" stroke="black" cx="305.811" cy="-522" rx="27" ry="18"/>
<text text-anchor="middle" x="305.811" y="-518.5" font-family="Times New Roman,serif" font-size="15.00">and</text>
</g>
<!-- 1981579166432&#45;&#45;1981579167776 -->
<g id="edge17" class="edge"><title>1981579166432&#45;&#45;1981579167776</title>
<path fill="none" stroke="black" d="M589.524,-587.272C531.437,-574.113 389.02,-541.85 331.014,-528.709"/>
</g>
<!-- 1981579167584 -->
<g id="node20" class="node"><title>1981579167584</title>
<ellipse fill="none" stroke="black" cx="620.811" cy="-522" rx="27" ry="18"/>
<text text-anchor="middle" x="620.811" y="-518.5" font-family="Times New Roman,serif" font-size="15.00">xor</text>
</g>
<!-- 1981579166432&#45;&#45;1981579167584 -->
<g id="edge41" class="edge"><title>1981579166432&#45;&#45;1981579167584</title>
<path fill="none" stroke="black" d="M616.294,-575.697C617.224,-564.846 618.418,-550.917 619.345,-540.104"/>
</g>
<!-- 1981579168832 -->
<g id="node5" class="node"><title>1981579168832</title>
<ellipse fill="none" stroke="black" cx="164.811" cy="-450" rx="46.6143" ry="18"/>
<text text-anchor="middle" x="164.811" y="-446.5" font-family="Times New Roman,serif" font-size="15.00">xor loop</text>
</g>
<!-- 1981579167776&#45;&#45;1981579168832 -->
<g id="edge4" class="edge"><title>1981579167776&#45;&#45;1981579168832</title>
<path fill="none" stroke="black" d="M284.702,-510.52C260.118,-498.316 219.432,-478.117 192.374,-464.684"/>
</g>
<!-- 1981579168400 -->
<g id="node8" class="node"><title>1981579168400</title>
<ellipse fill="none" stroke="black" cx="305.811" cy="-450" rx="27" ry="18"/>
<text text-anchor="middle" x="305.811" y="-446.5" font-family="Times New Roman,serif" font-size="15.00">xor</text>
</g>
<!-- 1981579167776&#45;&#45;1981579168400 -->
<g id="edge16" class="edge"><title>1981579167776&#45;&#45;1981579168400</title>
<path fill="none" stroke="black" d="M305.811,-503.697C305.811,-492.846 305.811,-478.917 305.811,-468.104"/>
</g>
<!-- 1981579167536 -->
<g id="node6" class="node"><title>1981579167536</title>
<ellipse fill="black" stroke="black" cx="97.8111" cy="-378" rx="2.7" ry="2.7"/>
</g>
<!-- 1981579168832&#45;&#45;1981579167536 -->
<g id="edge2" class="edge"><title>1981579168832&#45;&#45;1981579167536</title>
<path fill="none" stroke="black" d="M149.272,-432.765C131.953,-414.671 105.542,-387.078 99.2104,-380.462"/>
</g>
<!-- 1981579166672 -->
<g id="node7" class="node"><title>1981579166672</title>
<ellipse fill="none" stroke="black" cx="164.811" cy="-378" rx="45.7249" ry="18"/>
<text text-anchor="middle" x="164.811" y="-374.5" font-family="Times New Roman,serif" font-size="15.00">Payment</text>
</g>
<!-- 1981579168832&#45;&#45;1981579166672 -->
<g id="edge3" class="edge"><title>1981579168832&#45;&#45;1981579166672</title>
<path fill="none" stroke="black" d="M164.811,-431.697C164.811,-420.846 164.811,-406.917 164.811,-396.104"/>
</g>
<!-- 1981583157856 -->
<g id="node9" class="node"><title>1981583157856</title>
<ellipse fill="black" stroke="black" cx="231.811" cy="-378" rx="2.7" ry="2.7"/>
</g>
<!-- 1981579168400&#45;&#45;1981583157856 -->
<g id="edge5" class="edge"><title>1981579168400&#45;&#45;1981583157856</title>
<path fill="none" stroke="black" d="M290.836,-434.834C271.916,-416.937 240.915,-387.612 233.46,-380.56"/>
</g>
<!-- 1981583156656 -->
<g id="node10" class="node"><title>1981583156656</title>
<ellipse fill="none" stroke="black" cx="305.811" cy="-378" rx="52.6228" ry="18"/>
<text text-anchor="middle" x="305.811" y="-374.5" font-family="Times New Roman,serif" font-size="15.00">Send Fine</text>
</g>
<!-- 1981579168400&#45;&#45;1981583156656 -->
<g id="edge6" class="edge"><title>1981579168400&#45;&#45;1981583156656</title>
<path fill="none" stroke="black" d="M305.811,-431.697C305.811,-420.846 305.811,-406.917 305.811,-396.104"/>
</g>
<!-- 1981583155792 -->
<g id="node11" class="node"><title>1981583155792</title>
<ellipse fill="none" stroke="black" cx="403.811" cy="-378" rx="27" ry="18"/>
<text text-anchor="middle" x="403.811" y="-374.5" font-family="Times New Roman,serif" font-size="15.00">seq</text>
</g>
<!-- 1981579168400&#45;&#45;1981583155792 -->
<g id="edge15" class="edge"><title>1981579168400&#45;&#45;1981583155792</title>
<path fill="none" stroke="black" d="M323.786,-436.161C341.468,-423.531 368.307,-404.36 385.95,-391.758"/>
</g>
<!-- 1981597381872 -->
<g id="node12" class="node"><title>1981597381872</title>
<ellipse fill="none" stroke="black" cx="52.8111" cy="-306" rx="52.6228" ry="18"/>
<text text-anchor="middle" x="52.8111" y="-302.5" font-family="Times New Roman,serif" font-size="15.00">Send Fine</text>
</g>
<!-- 1981583155792&#45;&#45;1981597381872 -->
<g id="edge7" class="edge"><title>1981583155792&#45;&#45;1981597381872</title>
<path fill="none" stroke="black" d="M378.285,-371.909C319.048,-360.096 171.636,-330.697 97.2456,-315.862"/>
</g>
<!-- 1981597382112 -->
<g id="node13" class="node"><title>1981597382112</title>
<ellipse fill="none" stroke="black" cx="231.811" cy="-306" rx="107.914" ry="18"/>
<text text-anchor="middle" x="231.811" y="-302.5" font-family="Times New Roman,serif" font-size="15.00">Insert Fine Notification</text>
</g>
<!-- 1981583155792&#45;&#45;1981597382112 -->
<g id="edge8" class="edge"><title>1981583155792&#45;&#45;1981597382112</title>
<path fill="none" stroke="black" d="M381.325,-367.849C353.279,-356.434 304.87,-336.733 270.746,-322.846"/>
</g>
<!-- 1981597382160 -->
<g id="node14" class="node"><title>1981597382160</title>
<ellipse fill="none" stroke="black" cx="403.811" cy="-306" rx="46.6143" ry="18"/>
<text text-anchor="middle" x="403.811" y="-302.5" font-family="Times New Roman,serif" font-size="15.00">xor loop</text>
</g>
<!-- 1981583155792&#45;&#45;1981597382160 -->
<g id="edge11" class="edge"><title>1981583155792&#45;&#45;1981597382160</title>
<path fill="none" stroke="black" d="M403.811,-359.697C403.811,-348.846 403.811,-334.917 403.811,-324.104"/>
</g>
<!-- 1981597382400 -->
<g id="node17" class="node"><title>1981597382400</title>
<ellipse fill="none" stroke="black" cx="514.811" cy="-306" rx="46.6143" ry="18"/>
<text text-anchor="middle" x="514.811" y="-302.5" font-family="Times New Roman,serif" font-size="15.00">xor loop</text>
</g>
<!-- 1981583155792&#45;&#45;1981597382400 -->
<g id="edge14" class="edge"><title>1981583155792&#45;&#45;1981597382400</title>
<path fill="none" stroke="black" d="M422.893,-364.967C441.86,-353.005 470.988,-334.636 491.357,-321.791"/>
</g>
<!-- 1981597382496 -->
<g id="node15" class="node"><title>1981597382496</title>
<ellipse fill="black" stroke="black" cx="327.811" cy="-234" rx="2.7" ry="2.7"/>
</g>
<!-- 1981597382160&#45;&#45;1981597382496 -->
<g id="edge9" class="edge"><title>1981597382160&#45;&#45;1981597382496</title>
<path fill="none" stroke="black" d="M386.565,-289.116C366.945,-271.045 336.677,-243.166 329.416,-236.478"/>
</g>
<!-- 1981597382544 -->
<g id="node16" class="node"><title>1981597382544</title>
<ellipse fill="none" stroke="black" cx="410.811" cy="-234" rx="61.6894" ry="18"/>
<text text-anchor="middle" x="410.811" y="-230.5" font-family="Times New Roman,serif" font-size="15.00">Add penalty</text>
</g>
<!-- 1981597382160&#45;&#45;1981597382544 -->
<g id="edge10" class="edge"><title>1981597382160&#45;&#45;1981597382544</title>
<path fill="none" stroke="black" d="M405.541,-287.697C406.626,-276.846 408.019,-262.917 409.101,-252.104"/>
</g>
<!-- 1981597382832 -->
<g id="node18" class="node"><title>1981597382832</title>
<ellipse fill="black" stroke="black" cx="507.811" cy="-234" rx="2.7" ry="2.7"/>
</g>
<!-- 1981597382400&#45;&#45;1981597382832 -->
<g id="edge12" class="edge"><title>1981597382400&#45;&#45;1981597382832</title>
<path fill="none" stroke="black" d="M513.081,-287.697C511.299,-269.883 508.688,-243.769 507.989,-236.776"/>
</g>
<!-- 1981597383072 -->
<g id="node19" class="node"><title>1981597383072</title>
<ellipse fill="none" stroke="black" cx="606.811" cy="-234" rx="78.5434" ry="18"/>
<text text-anchor="middle" x="606.811" y="-230.5" font-family="Times New Roman,serif" font-size="15.00">Appeal to Judge</text>
</g>
<!-- 1981597382400&#45;&#45;1981597383072 -->
<g id="edge13" class="edge"><title>1981597382400&#45;&#45;1981597383072</title>
<path fill="none" stroke="black" d="M535.229,-289.465C550.051,-278.187 570.07,-262.955 585.168,-251.467"/>
</g>
<!-- 1981597382784 -->
<g id="node21" class="node"><title>1981597382784</title>
<ellipse fill="black" stroke="black" cx="620.811" cy="-450" rx="2.7" ry="2.7"/>
</g>
<!-- 1981579167584&#45;&#45;1981597382784 -->
<g id="edge18" class="edge"><title>1981579167584&#45;&#45;1981597382784</title>
<path fill="none" stroke="black" d="M620.811,-503.697C620.811,-485.883 620.811,-459.769 620.811,-452.776"/>
</g>
<!-- 1981597383120 -->
<g id="node22" class="node"><title>1981597383120</title>
<ellipse fill="none" stroke="black" cx="981.811" cy="-450" rx="27" ry="18"/>
<text text-anchor="middle" x="981.811" y="-446.5" font-family="Times New Roman,serif" font-size="15.00">seq</text>
</g>
<!-- 1981579167584&#45;&#45;1981597383120 -->
<g id="edge40" class="edge"><title>1981579167584&#45;&#45;1981597383120</title>
<path fill="none" stroke="black" d="M646.484,-516.022C712.849,-503.153 889.54,-468.892 956.028,-456"/>
</g>
<!-- 1981597383456 -->
<g id="node23" class="node"><title>1981597383456</title>
<ellipse fill="none" stroke="black" cx="746.811" cy="-378" rx="27" ry="18"/>
<text text-anchor="middle" x="746.811" y="-374.5" font-family="Times New Roman,serif" font-size="15.00">xor</text>
</g>
<!-- 1981597383120&#45;&#45;1981597383456 -->
<g id="edge21" class="edge"><title>1981597383120&#45;&#45;1981597383456</title>
<path fill="none" stroke="black" d="M957.547,-441.772C912.398,-428.324 815.992,-399.607 770.943,-386.188"/>
</g>
<!-- 1981597383504 -->
<g id="node26" class="node"><title>1981597383504</title>
<ellipse fill="none" stroke="black" cx="981.811" cy="-378" rx="27" ry="18"/>
<text text-anchor="middle" x="981.811" y="-374.5" font-family="Times New Roman,serif" font-size="15.00">xor</text>
</g>
<!-- 1981597383120&#45;&#45;1981597383504 -->
<g id="edge24" class="edge"><title>1981597383120&#45;&#45;1981597383504</title>
<path fill="none" stroke="black" d="M981.811,-431.697C981.811,-420.846 981.811,-406.917 981.811,-396.104"/>
</g>
<!-- 1981597384032 -->
<g id="node29" class="node"><title>1981597384032</title>
<ellipse fill="none" stroke="black" cx="1193.81" cy="-378" rx="27" ry="18"/>
<text text-anchor="middle" x="1193.81" y="-374.5" font-family="Times New Roman,serif" font-size="15.00">xor</text>
</g>
<!-- 1981597383120&#45;&#45;1981597384032 -->
<g id="edge27" class="edge"><title>1981597383120&#45;&#45;1981597384032</title>
<path fill="none" stroke="black" d="M1005.72,-441.106C1046.54,-427.626 1129.23,-400.325 1169.99,-386.865"/>
</g>
<!-- 1981597384368 -->
<g id="node32" class="node"><title>1981597384368</title>
<ellipse fill="none" stroke="black" cx="1359.81" cy="-378" rx="27" ry="18"/>
<text text-anchor="middle" x="1359.81" y="-374.5" font-family="Times New Roman,serif" font-size="15.00">xor</text>
</g>
<!-- 1981597383120&#45;&#45;1981597384368 -->
<g id="edge39" class="edge"><title>1981597383120&#45;&#45;1981597384368</title>
<path fill="none" stroke="black" d="M1007.5,-444.244C1076.45,-431.473 1265.09,-396.541 1334.09,-383.763"/>
</g>
<!-- 1981597383600 -->
<g id="node24" class="node"><title>1981597383600</title>
<ellipse fill="black" stroke="black" cx="581.811" cy="-306" rx="2.7" ry="2.7"/>
</g>
<!-- 1981597383456&#45;&#45;1981597383600 -->
<g id="edge19" class="edge"><title>1981597383456&#45;&#45;1981597383600</title>
<path fill="none" stroke="black" d="M724.558,-367.559C683.391,-350.094 598.216,-313.96 583.88,-307.878"/>
</g>
<!-- 1981597383840 -->
<g id="node25" class="node"><title>1981597383840</title>
<ellipse fill="none" stroke="black" cx="746.811" cy="-306" rx="144.571" ry="18"/>
<text text-anchor="middle" x="746.811" y="-302.5" font-family="Times New Roman,serif" font-size="15.00">Insert Date Appeal to Prefecture</text>
</g>
<!-- 1981597383456&#45;&#45;1981597383840 -->
<g id="edge20" class="edge"><title>1981597383456&#45;&#45;1981597383840</title>
<path fill="none" stroke="black" d="M746.811,-359.697C746.811,-348.846 746.811,-334.917 746.811,-324.104"/>
</g>
<!-- 1981597384128 -->
<g id="node27" class="node"><title>1981597384128</title>
<ellipse fill="black" stroke="black" cx="911.811" cy="-306" rx="2.7" ry="2.7"/>
</g>
<!-- 1981597383504&#45;&#45;1981597384128 -->
<g id="edge22" class="edge"><title>1981597383504&#45;&#45;1981597384128</title>
<path fill="none" stroke="black" d="M967.307,-362.496C949.367,-344.555 920.333,-315.522 913.355,-308.544"/>
</g>
<!-- 1981597384176 -->
<g id="node28" class="node"><title>1981597384176</title>
<ellipse fill="none" stroke="black" cx="1052.81" cy="-306" rx="120.43" ry="18"/>
<text text-anchor="middle" x="1052.81" y="-302.5" font-family="Times New Roman,serif" font-size="15.00">Send Appeal to Prefecture</text>
</g>
<!-- 1981597383504&#45;&#45;1981597384176 -->
<g id="edge23" class="edge"><title>1981597383504&#45;&#45;1981597384176</title>
<path fill="none" stroke="black" d="M996.522,-362.496C1007.9,-351.283 1023.66,-335.737 1035.62,-323.951"/>
</g>
<!-- 1981597384464 -->
<g id="node30" class="node"><title>1981597384464</title>
<ellipse fill="black" stroke="black" cx="1193.81" cy="-306" rx="2.7" ry="2.7"/>
</g>
<!-- 1981597384032&#45;&#45;1981597384464 -->
<g id="edge25" class="edge"><title>1981597384032&#45;&#45;1981597384464</title>
<path fill="none" stroke="black" d="M1193.81,-359.697C1193.81,-341.883 1193.81,-315.769 1193.81,-308.776"/>
</g>
<!-- 1981597384656 -->
<g id="node31" class="node"><title>1981597384656</title>
<ellipse fill="none" stroke="black" cx="1276.81" cy="-306" rx="61.6894" ry="18"/>
<text text-anchor="middle" x="1276.81" y="-302.5" font-family="Times New Roman,serif" font-size="15.00">Add penalty</text>
</g>
<!-- 1981597384032&#45;&#45;1981597384656 -->
<g id="edge26" class="edge"><title>1981597384032&#45;&#45;1981597384656</title>
<path fill="none" stroke="black" d="M1210.21,-363.17C1223.82,-351.695 1243.19,-335.357 1257.53,-323.257"/>
</g>
<!-- 1981581017152 -->
<g id="node33" class="node"><title>1981581017152</title>
<ellipse fill="black" stroke="black" cx="1359.81" cy="-306" rx="2.7" ry="2.7"/>
</g>
<!-- 1981597384368&#45;&#45;1981581017152 -->
<g id="edge28" class="edge"><title>1981597384368&#45;&#45;1981581017152</title>
<path fill="none" stroke="black" d="M1359.81,-359.697C1359.81,-341.883 1359.81,-315.769 1359.81,-308.776"/>
</g>
<!-- 1981581017440 -->
<g id="node34" class="node"><title>1981581017440</title>
<ellipse fill="none" stroke="black" cx="1426.81" cy="-306" rx="46.6143" ry="18"/>
<text text-anchor="middle" x="1426.81" y="-302.5" font-family="Times New Roman,serif" font-size="15.00">xor loop</text>
</g>
<!-- 1981597384368&#45;&#45;1981581017440 -->
<g id="edge38" class="edge"><title>1981597384368&#45;&#45;1981581017440</title>
<path fill="none" stroke="black" d="M1373.69,-362.496C1384.66,-351.043 1399.95,-335.069 1411.31,-323.198"/>
</g>
<!-- 1981581017584 -->
<g id="node35" class="node"><title>1981581017584</title>
<ellipse fill="none" stroke="black" cx="1402.81" cy="-234" rx="27" ry="18"/>
<text text-anchor="middle" x="1402.81" y="-230.5" font-family="Times New Roman,serif" font-size="15.00">xor</text>
</g>
<!-- 1981581017440&#45;&#45;1981581017584 -->
<g id="edge36" class="edge"><title>1981581017440&#45;&#45;1981581017584</title>
<path fill="none" stroke="black" d="M1421,-288.055C1417.23,-277.049 1412.33,-262.764 1408.57,-251.789"/>
</g>
<!-- 1981581017728 -->
<g id="node43" class="node"><title>1981581017728</title>
<ellipse fill="black" stroke="black" cx="1450.81" cy="-234" rx="2.7" ry="2.7"/>
</g>
<!-- 1981581017440&#45;&#45;1981581017728 -->
<g id="edge37" class="edge"><title>1981581017440&#45;&#45;1981581017728</title>
<path fill="none" stroke="black" d="M1432.62,-288.055C1438.72,-270.252 1447.77,-243.865 1450.2,-236.796"/>
</g>
<!-- 1981581018016 -->
<g id="node36" class="node"><title>1981581018016</title>
<ellipse fill="none" stroke="black" cx="1143.81" cy="-162" rx="120.43" ry="18"/>
<text text-anchor="middle" x="1143.81" y="-158.5" font-family="Times New Roman,serif" font-size="15.00">Send Appeal to Prefecture</text>
</g>
<!-- 1981581017584&#45;&#45;1981581018016 -->
<g id="edge29" class="edge"><title>1981581017584&#45;&#45;1981581018016</title>
<path fill="none" stroke="black" d="M1377.98,-226.288C1337.08,-215.235 1254.59,-192.94 1199.26,-177.987"/>
</g>
<!-- 1981581017680 -->
<g id="node37" class="node"><title>1981581017680</title>
<ellipse fill="none" stroke="black" cx="1402.81" cy="-162" rx="120.819" ry="18"/>
<text text-anchor="middle" x="1402.81" y="-158.5" font-family="Times New Roman,serif" font-size="15.00">Send for Credit Collection</text>
</g>
<!-- 1981581017584&#45;&#45;1981581017680 -->
<g id="edge30" class="edge"><title>1981581017584&#45;&#45;1981581017680</title>
<path fill="none" stroke="black" d="M1402.81,-215.697C1402.81,-204.846 1402.81,-190.917 1402.81,-180.104"/>
</g>
<!-- 1981581018256 -->
<g id="node38" class="node"><title>1981581018256</title>
<ellipse fill="none" stroke="black" cx="1568.81" cy="-162" rx="27" ry="18"/>
<text text-anchor="middle" x="1568.81" y="-158.5" font-family="Times New Roman,serif" font-size="15.00">seq</text>
</g>
<!-- 1981581017584&#45;&#45;1981581018256 -->
<g id="edge35" class="edge"><title>1981581017584&#45;&#45;1981581018256</title>
<path fill="none" stroke="black" d="M1425.2,-223.559C1456.97,-210.162 1514.79,-185.779 1546.51,-172.402"/>
</g>
<!-- 1981581018496 -->
<g id="node39" class="node"><title>1981581018496</title>
<ellipse fill="none" stroke="black" cx="1458.81" cy="-90" rx="173.941" ry="18"/>
<text text-anchor="middle" x="1458.81" y="-86.5" font-family="Times New Roman,serif" font-size="15.00">Receive Result Appeal from Prefecture</text>
</g>
<!-- 1981581018256&#45;&#45;1981581018496 -->
<g id="edge31" class="edge"><title>1981581018256&#45;&#45;1981581018496</title>
<path fill="none" stroke="black" d="M1549.65,-148.807C1531.92,-137.526 1505.4,-120.645 1485.58,-108.034"/>
</g>
<!-- 1981581018640 -->
<g id="node40" class="node"><title>1981581018640</title>
<ellipse fill="none" stroke="black" cx="1677.81" cy="-90" rx="27" ry="18"/>
<text text-anchor="middle" x="1677.81" y="-86.5" font-family="Times New Roman,serif" font-size="15.00">xor</text>
</g>
<!-- 1981581018256&#45;&#45;1981581018640 -->
<g id="edge34" class="edge"><title>1981581018256&#45;&#45;1981581018640</title>
<path fill="none" stroke="black" d="M1587.8,-148.807C1607.8,-135.959 1639.12,-115.848 1659.04,-103.053"/>
</g>
<!-- 1981581017920 -->
<g id="node41" class="node"><title>1981581017920</title>
<ellipse fill="black" stroke="black" cx="1592.81" cy="-18" rx="2.7" ry="2.7"/>
</g>
<!-- 1981581018640&#45;&#45;1981581017920 -->
<g id="edge32" class="edge"><title>1981581018640&#45;&#45;1981581017920</title>
<path fill="none" stroke="black" d="M1661.42,-75.5033C1639.81,-57.7048 1603.49,-27.7933 1594.75,-20.5936"/>
</g>
<!-- 1981581019024 -->
<g id="node42" class="node"><title>1981581019024</title>
<ellipse fill="none" stroke="black" cx="1761.81" cy="-18" rx="148.91" ry="18"/>
<text text-anchor="middle" x="1761.81" y="-14.5" font-family="Times New Roman,serif" font-size="15.00">Notify Result Appeal to Offender</text>
</g>
<!-- 1981581018640&#45;&#45;1981581019024 -->
<g id="edge33" class="edge"><title>1981581018640&#45;&#45;1981581019024</title>
<path fill="none" stroke="black" d="M1694.01,-75.5033C1707.55,-64.2203 1726.93,-48.0695 1741.5,-35.9227"/>
</g>
<!-- 1981597380960 -->
<g id="node45" class="node"><title>1981597380960</title>
<ellipse fill="black" stroke="black" cx="680.811" cy="-522" rx="2.7" ry="2.7"/>
</g>
<!-- 1981579168352&#45;&#45;1981597380960 -->
<g id="edge43" class="edge"><title>1981579168352&#45;&#45;1981597380960</title>
<path fill="none" stroke="black" d="M685.328,-575.697C683.801,-557.883 681.563,-531.769 680.963,-524.776"/>
</g>
<!-- 1981581017488 -->
<g id="node46" class="node"><title>1981581017488</title>
<ellipse fill="none" stroke="black" cx="779.811" cy="-522" rx="78.5434" ry="18"/>
<text text-anchor="middle" x="779.811" y="-518.5" font-family="Times New Roman,serif" font-size="15.00">Appeal to Judge</text>
</g>
<!-- 1981579168352&#45;&#45;1981581017488 -->
<g id="edge44" class="edge"><title>1981579168352&#45;&#45;1981581017488</title>
<path fill="none" stroke="black" d="M704.304,-579.834C719.563,-568.348 741.76,-551.641 758.141,-539.311"/>
</g>
</g>
</svg>
