<?xml version="1.0" encoding="UTF-8" standalone="no"?>
<!DOCTYPE svg PUBLIC "-//W3C//DTD SVG 1.1//EN"
 "http://www.w3.org/Graphics/SVG/1.1/DTD/svg11.dtd">
<!-- Generated by graphviz version 2.38.0 (20140413.2041)
 -->
<!-- Title: pt Pages: 1 -->
<svg width="1521pt" height="620pt"
 viewBox="0.00 0.00 1521.40 620.00" xmlns="http://www.w3.org/2000/svg" xmlns:xlink="http://www.w3.org/1999/xlink">
<g id="graph0" class="graph" transform="scale(1 1) rotate(0) translate(4 616)">
<title>pt</title>
<!-- 1981598860816 -->
<g id="node1" class="node"><title>1981598860816</title>
<ellipse fill="none" stroke="black" cx="205.7" cy="-594" rx="27" ry="18"/>
<text text-anchor="middle" x="205.7" y="-590.5" font-family="Times New Roman,serif" font-size="15.00">seq</text>
</g>
<!-- 1981603395856 -->
<g id="node2" class="node"><title>1981603395856</title>
<ellipse fill="none" stroke="black" cx="81.7" cy="-522" rx="59.5207" ry="18"/>
<text text-anchor="middle" x="81.7" y="-518.5" font-family="Times New Roman,serif" font-size="15.00">Create Fine</text>
</g>
<!-- 1981598860816&#45;&#45;1981603395856 -->
<g id="edge1" class="edge"><title>1981598860816&#45;&#45;1981603395856</title>
<path fill="none" stroke="black" d="M185.777,-581.753C164.828,-569.927 131.744,-551.251 108.513,-538.136"/>
</g>
<!-- 1981603396288 -->
<g id="node3" class="node"><title>1981603396288</title>
<ellipse fill="none" stroke="black" cx="205.7" cy="-522" rx="46.6143" ry="18"/>
<text text-anchor="middle" x="205.7" y="-518.5" font-family="Times New Roman,serif" font-size="15.00">xor loop</text>
</g>
<!-- 1981598860816&#45;&#45;1981603396288 -->
<g id="edge38" class="edge"><title>1981598860816&#45;&#45;1981603396288</title>
<path fill="none" stroke="black" d="M205.7,-575.697C205.7,-564.846 205.7,-550.917 205.7,-540.104"/>
</g>
<!-- 1981603396672 -->
<g id="node40" class="node"><title>1981603396672</title>
<ellipse fill="none" stroke="black" cx="297.7" cy="-522" rx="27" ry="18"/>
<text text-anchor="middle" x="297.7" y="-518.5" font-family="Times New Roman,serif" font-size="15.00">xor</text>
</g>
<!-- 1981598860816&#45;&#45;1981603396672 -->
<g id="edge41" class="edge"><title>1981598860816&#45;&#45;1981603396672</title>
<path fill="none" stroke="black" d="M223.004,-579.834C239.453,-567.319 264.051,-548.603 280.473,-536.107"/>
</g>
<!-- 1981603395904 -->
<g id="node4" class="node"><title>1981603395904</title>
<ellipse fill="none" stroke="black" cx="174.7" cy="-450" rx="27" ry="18"/>
<text text-anchor="middle" x="174.7" y="-446.5" font-family="Times New Roman,serif" font-size="15.00">seq</text>
</g>
<!-- 1981603396288&#45;&#45;1981603395904 -->
<g id="edge36" class="edge"><title>1981603396288&#45;&#45;1981603395904</title>
<path fill="none" stroke="black" d="M198.196,-504.055C193.322,-493.049 186.995,-478.764 182.135,-467.789"/>
</g>
<!-- 1981603396240 -->
<g id="node39" class="node"><title>1981603396240</title>
<ellipse fill="black" stroke="black" cx="222.7" cy="-450" rx="2.7" ry="2.7"/>
</g>
<!-- 1981603396288&#45;&#45;1981603396240 -->
<g id="edge37" class="edge"><title>1981603396288&#45;&#45;1981603396240</title>
<path fill="none" stroke="black" d="M209.815,-504.055C214.139,-486.252 220.547,-459.865 222.264,-452.796"/>
</g>
<!-- 1981603396480 -->
<g id="node5" class="node"><title>1981603396480</title>
<ellipse fill="none" stroke="black" cx="76.7" cy="-378" rx="27" ry="18"/>
<text text-anchor="middle" x="76.7" y="-374.5" font-family="Times New Roman,serif" font-size="15.00">xor</text>
</g>
<!-- 1981603395904&#45;&#45;1981603396480 -->
<g id="edge4" class="edge"><title>1981603395904&#45;&#45;1981603396480</title>
<path fill="none" stroke="black" d="M156.725,-436.161C139.043,-423.531 112.204,-404.36 94.5608,-391.758"/>
</g>
<!-- 1981603394512 -->
<g id="node8" class="node"><title>1981603394512</title>
<ellipse fill="none" stroke="black" cx="174.7" cy="-378" rx="27" ry="18"/>
<text text-anchor="middle" x="174.7" y="-374.5" font-family="Times New Roman,serif" font-size="15.00">xor</text>
</g>
<!-- 1981603395904&#45;&#45;1981603394512 -->
<g id="edge13" class="edge"><title>1981603395904&#45;&#45;1981603394512</title>
<path fill="none" stroke="black" d="M174.7,-431.697C174.7,-420.846 174.7,-406.917 174.7,-396.104"/>
</g>
<!-- 1981603397296 -->
<g id="node17" class="node"><title>1981603397296</title>
<ellipse fill="none" stroke="black" cx="299.7" cy="-378" rx="27" ry="18"/>
<text text-anchor="middle" x="299.7" y="-374.5" font-family="Times New Roman,serif" font-size="15.00">xor</text>
</g>
<!-- 1981603395904&#45;&#45;1981603397296 -->
<g id="edge35" class="edge"><title>1981603395904&#45;&#45;1981603397296</title>
<path fill="none" stroke="black" d="M194.783,-437.753C218.11,-424.691 256.361,-403.27 279.666,-390.219"/>
</g>
<!-- 1981603395808 -->
<g id="node6" class="node"><title>1981603395808</title>
<ellipse fill="black" stroke="black" cx="2.7" cy="-306" rx="2.7" ry="2.7"/>
</g>
<!-- 1981603396480&#45;&#45;1981603395808 -->
<g id="edge2" class="edge"><title>1981603396480&#45;&#45;1981603395808</title>
<path fill="none" stroke="black" d="M61.725,-362.834C42.8049,-344.937 11.8039,-315.612 4.34935,-308.56"/>
</g>
<!-- 1981603395568 -->
<g id="node7" class="node"><title>1981603395568</title>
<ellipse fill="none" stroke="black" cx="76.7" cy="-306" rx="52.6228" ry="18"/>
<text text-anchor="middle" x="76.7" y="-302.5" font-family="Times New Roman,serif" font-size="15.00">Send Fine</text>
</g>
<!-- 1981603396480&#45;&#45;1981603395568 -->
<g id="edge3" class="edge"><title>1981603396480&#45;&#45;1981603395568</title>
<path fill="none" stroke="black" d="M76.7,-359.697C76.7,-348.846 76.7,-334.917 76.7,-324.104"/>
</g>
<!-- 1981603395616 -->
<g id="node9" class="node"><title>1981603395616</title>
<ellipse fill="black" stroke="black" cx="150.7" cy="-306" rx="2.7" ry="2.7"/>
</g>
<!-- 1981603394512&#45;&#45;1981603395616 -->
<g id="edge5" class="edge"><title>1981603394512&#45;&#45;1981603395616</title>
<path fill="none" stroke="black" d="M168.89,-360.055C162.786,-342.252 153.74,-315.865 151.316,-308.796"/>
</g>
<!-- 1981603395760 -->
<g id="node10" class="node"><title>1981603395760</title>
<ellipse fill="none" stroke="black" cx="198.7" cy="-306" rx="27" ry="18"/>
<text text-anchor="middle" x="198.7" y="-302.5" font-family="Times New Roman,serif" font-size="15.00">and</text>
</g>
<!-- 1981603394512&#45;&#45;1981603395760 -->
<g id="edge12" class="edge"><title>1981603394512&#45;&#45;1981603395760</title>
<path fill="none" stroke="black" d="M180.51,-360.055C184.283,-349.049 189.181,-334.764 192.944,-323.789"/>
</g>
<!-- 1981603395232 -->
<g id="node11" class="node"><title>1981603395232</title>
<ellipse fill="none" stroke="black" cx="73.7" cy="-234" rx="27" ry="18"/>
<text text-anchor="middle" x="73.7" y="-230.5" font-family="Times New Roman,serif" font-size="15.00">xor</text>
</g>
<!-- 1981603395760&#45;&#45;1981603395232 -->
<g id="edge8" class="edge"><title>1981603395760&#45;&#45;1981603395232</title>
<path fill="none" stroke="black" d="M178.617,-293.753C155.29,-280.691 117.039,-259.27 93.7336,-246.219"/>
</g>
<!-- 1981603394896 -->
<g id="node14" class="node"><title>1981603394896</title>
<ellipse fill="none" stroke="black" cx="198.7" cy="-234" rx="27" ry="18"/>
<text text-anchor="middle" x="198.7" y="-230.5" font-family="Times New Roman,serif" font-size="15.00">xor</text>
</g>
<!-- 1981603395760&#45;&#45;1981603394896 -->
<g id="edge11" class="edge"><title>1981603395760&#45;&#45;1981603394896</title>
<path fill="none" stroke="black" d="M198.7,-287.697C198.7,-276.846 198.7,-262.917 198.7,-252.104"/>
</g>
<!-- 1981600758656 -->
<g id="node12" class="node"><title>1981600758656</title>
<ellipse fill="black" stroke="black" cx="6.7" cy="-162" rx="2.7" ry="2.7"/>
</g>
<!-- 1981603395232&#45;&#45;1981600758656 -->
<g id="edge6" class="edge"><title>1981603395232&#45;&#45;1981600758656</title>
<path fill="none" stroke="black" d="M59.8176,-218.496C42.6459,-200.555 14.8565,-171.522 8.17748,-164.544"/>
</g>
<!-- 1981600759136 -->
<g id="node13" class="node"><title>1981600759136</title>
<ellipse fill="none" stroke="black" cx="73.7" cy="-162" rx="45.7249" ry="18"/>
<text text-anchor="middle" x="73.7" y="-158.5" font-family="Times New Roman,serif" font-size="15.00">Payment</text>
</g>
<!-- 1981603395232&#45;&#45;1981600759136 -->
<g id="edge7" class="edge"><title>1981603395232&#45;&#45;1981600759136</title>
<path fill="none" stroke="black" d="M73.7,-215.697C73.7,-204.846 73.7,-190.917 73.7,-180.104"/>
</g>
<!-- 1981600758896 -->
<g id="node15" class="node"><title>1981600758896</title>
<ellipse fill="black" stroke="black" cx="140.7" cy="-162" rx="2.7" ry="2.7"/>
</g>
<!-- 1981603394896&#45;&#45;1981600758896 -->
<g id="edge9" class="edge"><title>1981603394896&#45;&#45;1981600758896</title>
<path fill="none" stroke="black" d="M186.115,-217.811C171.189,-199.797 147.613,-171.343 141.952,-164.511"/>
</g>
<!-- 1981603334272 -->
<g id="node16" class="node"><title>1981603334272</title>
<ellipse fill="none" stroke="black" cx="268.7" cy="-162" rx="107.914" ry="18"/>
<text text-anchor="middle" x="268.7" y="-158.5" font-family="Times New Roman,serif" font-size="15.00">Insert Fine Notification</text>
</g>
<!-- 1981603394896&#45;&#45;1981603334272 -->
<g id="edge10" class="edge"><title>1981603394896&#45;&#45;1981603334272</title>
<path fill="none" stroke="black" d="M213.204,-218.496C224.417,-207.283 239.963,-191.737 251.749,-179.951"/>
</g>
<!-- 1981603395136 -->
<g id="node18" class="node"><title>1981603395136</title>
<ellipse fill="black" stroke="black" cx="299.7" cy="-306" rx="2.7" ry="2.7"/>
</g>
<!-- 1981603397296&#45;&#45;1981603395136 -->
<g id="edge14" class="edge"><title>1981603397296&#45;&#45;1981603395136</title>
<path fill="none" stroke="black" d="M299.7,-359.697C299.7,-341.883 299.7,-315.769 299.7,-308.776"/>
</g>
<!-- 1981603396096 -->
<g id="node19" class="node"><title>1981603396096</title>
<ellipse fill="none" stroke="black" cx="472.7" cy="-306" rx="46.6143" ry="18"/>
<text text-anchor="middle" x="472.7" y="-302.5" font-family="Times New Roman,serif" font-size="15.00">xor loop</text>
</g>
<!-- 1981603397296&#45;&#45;1981603396096 -->
<g id="edge34" class="edge"><title>1981603397296&#45;&#45;1981603396096</title>
<path fill="none" stroke="black" d="M322.317,-367.849C352.816,-355.508 407.256,-333.48 441.593,-319.587"/>
</g>
<!-- 1981603334032 -->
<g id="node20" class="node"><title>1981603334032</title>
<ellipse fill="none" stroke="black" cx="472.7" cy="-234" rx="27" ry="18"/>
<text text-anchor="middle" x="472.7" y="-230.5" font-family="Times New Roman,serif" font-size="15.00">xor</text>
</g>
<!-- 1981603396096&#45;&#45;1981603334032 -->
<g id="edge32" class="edge"><title>1981603396096&#45;&#45;1981603334032</title>
<path fill="none" stroke="black" d="M472.7,-287.697C472.7,-276.846 472.7,-262.917 472.7,-252.104"/>
</g>
<!-- 1981603334704 -->
<g id="node38" class="node"><title>1981603334704</title>
<ellipse fill="black" stroke="black" cx="520.7" cy="-234" rx="2.7" ry="2.7"/>
</g>
<!-- 1981603396096&#45;&#45;1981603334704 -->
<g id="edge33" class="edge"><title>1981603396096&#45;&#45;1981603334704</title>
<path fill="none" stroke="black" d="M484.075,-288.411C496.274,-270.622 514.554,-243.962 519.455,-236.816"/>
</g>
<!-- 1981603334752 -->
<g id="node21" class="node"><title>1981603334752</title>
<ellipse fill="none" stroke="black" cx="472.7" cy="-162" rx="78.5434" ry="18"/>
<text text-anchor="middle" x="472.7" y="-158.5" font-family="Times New Roman,serif" font-size="15.00">Appeal to Judge</text>
</g>
<!-- 1981603334032&#45;&#45;1981603334752 -->
<g id="edge15" class="edge"><title>1981603334032&#45;&#45;1981603334752</title>
<path fill="none" stroke="black" d="M472.7,-215.697C472.7,-204.846 472.7,-190.917 472.7,-180.104"/>
</g>
<!-- 1981603334656 -->
<g id="node22" class="node"><title>1981603334656</title>
<ellipse fill="none" stroke="black" cx="596.7" cy="-162" rx="27" ry="18"/>
<text text-anchor="middle" x="596.7" y="-158.5" font-family="Times New Roman,serif" font-size="15.00">seq</text>
</g>
<!-- 1981603334032&#45;&#45;1981603334656 -->
<g id="edge31" class="edge"><title>1981603334032&#45;&#45;1981603334656</title>
<path fill="none" stroke="black" d="M492.623,-221.753C515.762,-208.691 553.708,-187.27 576.827,-174.219"/>
</g>
<!-- 1981603335952 -->
<g id="node23" class="node"><title>1981603335952</title>
<ellipse fill="none" stroke="black" cx="194.7" cy="-90" rx="27" ry="18"/>
<text text-anchor="middle" x="194.7" y="-86.5" font-family="Times New Roman,serif" font-size="15.00">xor</text>
</g>
<!-- 1981603334656&#45;&#45;1981603335952 -->
<g id="edge18" class="edge"><title>1981603334656&#45;&#45;1981603335952</title>
<path fill="none" stroke="black" d="M570.942,-156.515C498.419,-143.886 293.081,-108.131 220.503,-95.4931"/>
</g>
<!-- 1981603335712 -->
<g id="node26" class="node"><title>1981603335712</title>
<ellipse fill="none" stroke="black" cx="442.7" cy="-90" rx="27" ry="18"/>
<text text-anchor="middle" x="442.7" y="-86.5" font-family="Times New Roman,serif" font-size="15.00">xor</text>
</g>
<!-- 1981603334656&#45;&#45;1981603335712 -->
<g id="edge21" class="edge"><title>1981603334656&#45;&#45;1981603335712</title>
<path fill="none" stroke="black" d="M574.962,-151.119C545.612,-137.778 493.621,-114.146 464.327,-100.831"/>
</g>
<!-- 1981603336000 -->
<g id="node29" class="node"><title>1981603336000</title>
<ellipse fill="none" stroke="black" cx="596.7" cy="-90" rx="27" ry="18"/>
<text text-anchor="middle" x="596.7" y="-86.5" font-family="Times New Roman,serif" font-size="15.00">xor</text>
</g>
<!-- 1981603334656&#45;&#45;1981603336000 -->
<g id="edge24" class="edge"><title>1981603334656&#45;&#45;1981603336000</title>
<path fill="none" stroke="black" d="M596.7,-143.697C596.7,-132.846 596.7,-118.917 596.7,-108.104"/>
</g>
<!-- 1981603336048 -->
<g id="node32" class="node"><title>1981603336048</title>
<ellipse fill="none" stroke="black" cx="807.7" cy="-90" rx="27" ry="18"/>
<text text-anchor="middle" x="807.7" y="-86.5" font-family="Times New Roman,serif" font-size="15.00">xor</text>
</g>
<!-- 1981603334656&#45;&#45;1981603336048 -->
<g id="edge27" class="edge"><title>1981603334656&#45;&#45;1981603336048</title>
<path fill="none" stroke="black" d="M620.494,-153.106C661.126,-139.626 743.42,-112.325 783.993,-98.865"/>
</g>
<!-- 1981603335808 -->
<g id="node35" class="node"><title>1981603335808</title>
<ellipse fill="none" stroke="black" cx="1195.7" cy="-90" rx="27" ry="18"/>
<text text-anchor="middle" x="1195.7" y="-86.5" font-family="Times New Roman,serif" font-size="15.00">xor</text>
</g>
<!-- 1981603334656&#45;&#45;1981603335808 -->
<g id="edge30" class="edge"><title>1981603334656&#45;&#45;1981603335808</title>
<path fill="none" stroke="black" d="M623.211,-157.902C722.268,-146.326 1070.04,-105.684 1169.16,-94.102"/>
</g>
<!-- 1981603335760 -->
<g id="node24" class="node"><title>1981603335760</title>
<ellipse fill="black" stroke="black" cx="29.7" cy="-18" rx="2.7" ry="2.7"/>
</g>
<!-- 1981603335952&#45;&#45;1981603335760 -->
<g id="edge16" class="edge"><title>1981603335952&#45;&#45;1981603335760</title>
<path fill="none" stroke="black" d="M172.447,-79.5595C131.28,-62.0945 46.1048,-25.9596 31.7694,-19.8779"/>
</g>
<!-- 1981602403616 -->
<g id="node25" class="node"><title>1981602403616</title>
<ellipse fill="none" stroke="black" cx="194.7" cy="-18" rx="144.571" ry="18"/>
<text text-anchor="middle" x="194.7" y="-14.5" font-family="Times New Roman,serif" font-size="15.00">Insert Date Appeal to Prefecture</text>
</g>
<!-- 1981603335952&#45;&#45;1981602403616 -->
<g id="edge17" class="edge"><title>1981603335952&#45;&#45;1981602403616</title>
<path fill="none" stroke="black" d="M194.7,-71.6966C194.7,-60.8463 194.7,-46.9167 194.7,-36.1043"/>
</g>
<!-- 1981602403472 -->
<g id="node27" class="node"><title>1981602403472</title>
<ellipse fill="black" stroke="black" cx="359.7" cy="-18" rx="2.7" ry="2.7"/>
</g>
<!-- 1981603335712&#45;&#45;1981602403472 -->
<g id="edge19" class="edge"><title>1981603335712&#45;&#45;1981602403472</title>
<path fill="none" stroke="black" d="M426.302,-75.1703C405.137,-57.3201 370.019,-27.7024 361.57,-20.5768"/>
</g>
<!-- 1981602403952 -->
<g id="node28" class="node"><title>1981602403952</title>
<ellipse fill="none" stroke="black" cx="442.7" cy="-18" rx="61.6894" ry="18"/>
<text text-anchor="middle" x="442.7" y="-14.5" font-family="Times New Roman,serif" font-size="15.00">Add penalty</text>
</g>
<!-- 1981603335712&#45;&#45;1981602403952 -->
<g id="edge20" class="edge"><title>1981603335712&#45;&#45;1981602403952</title>
<path fill="none" stroke="black" d="M442.7,-71.6966C442.7,-60.8463 442.7,-46.9167 442.7,-36.1043"/>
</g>
<!-- 1981602402560 -->
<g id="node30" class="node"><title>1981602402560</title>
<ellipse fill="black" stroke="black" cx="525.7" cy="-18" rx="2.7" ry="2.7"/>
</g>
<!-- 1981603336000&#45;&#45;1981602402560 -->
<g id="edge22" class="edge"><title>1981603336000&#45;&#45;1981602402560</title>
<path fill="none" stroke="black" d="M581.989,-74.496C563.792,-56.5555 534.343,-27.5217 527.266,-20.5436"/>
</g>
<!-- 1981600775568 -->
<g id="node31" class="node"><title>1981600775568</title>
<ellipse fill="none" stroke="black" cx="666.7" cy="-18" rx="120.43" ry="18"/>
<text text-anchor="middle" x="666.7" y="-14.5" font-family="Times New Roman,serif" font-size="15.00">Send Appeal to Prefecture</text>
</g>
<!-- 1981603336000&#45;&#45;1981600775568 -->
<g id="edge23" class="edge"><title>1981603336000&#45;&#45;1981600775568</title>
<path fill="none" stroke="black" d="M611.204,-74.496C622.417,-63.2831 637.963,-47.737 649.749,-35.9506"/>
</g>
<!-- 1981598770032 -->
<g id="node33" class="node"><title>1981598770032</title>
<ellipse fill="black" stroke="black" cx="807.7" cy="-18" rx="2.7" ry="2.7"/>
</g>
<!-- 1981603336048&#45;&#45;1981598770032 -->
<g id="edge25" class="edge"><title>1981603336048&#45;&#45;1981598770032</title>
<path fill="none" stroke="black" d="M807.7,-71.6966C807.7,-53.8826 807.7,-27.7686 807.7,-20.7764"/>
</g>
<!-- 1981598769840 -->
<g id="node34" class="node"><title>1981598769840</title>
<ellipse fill="none" stroke="black" cx="1001.7" cy="-18" rx="173.941" ry="18"/>
<text text-anchor="middle" x="1001.7" y="-14.5" font-family="Times New Roman,serif" font-size="15.00">Receive Result Appeal from Prefecture</text>
</g>
<!-- 1981603336048&#45;&#45;1981598769840 -->
<g id="edge26" class="edge"><title>1981603336048&#45;&#45;1981598769840</title>
<path fill="none" stroke="black" d="M831.101,-80.5564C861.939,-69.4293 916.853,-49.615 956.049,-35.472"/>
</g>
<!-- 1981598771904 -->
<g id="node36" class="node"><title>1981598771904</title>
<ellipse fill="black" stroke="black" cx="1195.7" cy="-18" rx="2.7" ry="2.7"/>
</g>
<!-- 1981603335808&#45;&#45;1981598771904 -->
<g id="edge28" class="edge"><title>1981603335808&#45;&#45;1981598771904</title>
<path fill="none" stroke="black" d="M1195.7,-71.6966C1195.7,-53.8826 1195.7,-27.7686 1195.7,-20.7764"/>
</g>
<!-- 1981598771712 -->
<g id="node37" class="node"><title>1981598771712</title>
<ellipse fill="none" stroke="black" cx="1364.7" cy="-18" rx="148.91" ry="18"/>
<text text-anchor="middle" x="1364.7" y="-14.5" font-family="Times New Roman,serif" font-size="15.00">Notify Result Appeal to Offender</text>
</g>
<!-- 1981603335808&#45;&#45;1981598771712 -->
<g id="edge29" class="edge"><title>1981603335808&#45;&#45;1981598771712</title>
<path fill="none" stroke="black" d="M1218.14,-79.7045C1245.35,-68.4359 1291.68,-49.2446 1324.97,-35.4544"/>
</g>
<!-- 1981603397584 -->
<g id="node41" class="node"><title>1981603397584</title>
<ellipse fill="black" stroke="black" cx="279.7" cy="-450" rx="2.7" ry="2.7"/>
</g>
<!-- 1981603396672&#45;&#45;1981603397584 -->
<g id="edge39" class="edge"><title>1981603396672&#45;&#45;1981603397584</title>
<path fill="none" stroke="black" d="M293.343,-504.055C288.765,-486.252 281.98,-459.865 280.162,-452.796"/>
</g>
<!-- 1981603333408 -->
<g id="node42" class="node"><title>1981603333408</title>
<ellipse fill="none" stroke="black" cx="421.7" cy="-450" rx="120.819" ry="18"/>
<text text-anchor="middle" x="421.7" y="-446.5" font-family="Times New Roman,serif" font-size="15.00">Send for Credit Collection</text>
</g>
<!-- 1981603396672&#45;&#45;1981603333408 -->
<g id="edge40" class="edge"><title>1981603396672&#45;&#45;1981603333408</title>
<path fill="none" stroke="black" d="M317.623,-509.753C337.75,-498.391 369.08,-480.705 392.11,-467.704"/>
</g>
</g>
</svg>
