<?xml version="1.0" encoding="UTF-8" standalone="no"?>
<!DOCTYPE svg PUBLIC "-//W3C//DTD SVG 1.1//EN"
 "http://www.w3.org/Graphics/SVG/1.1/DTD/svg11.dtd">
<!-- Generated by graphviz version 2.38.0 (20140413.2041)
 -->
<!-- Title: pt Pages: 1 -->
<svg width="1323pt" height="692pt"
 viewBox="0.00 0.00 1323.22 692.00" xmlns="http://www.w3.org/2000/svg" xmlns:xlink="http://www.w3.org/1999/xlink">
<g id="graph0" class="graph" transform="scale(1 1) rotate(0) translate(4 688)">
<title>pt</title>
<!-- 1981578936080 -->
<g id="node1" class="node"><title>1981578936080</title>
<ellipse fill="none" stroke="black" cx="572.7" cy="-666" rx="27" ry="18"/>
<text text-anchor="middle" x="572.7" y="-662.5" font-family="Times New Roman,serif" font-size="15.00">seq</text>
</g>
<!-- 1981416101296 -->
<g id="node2" class="node"><title>1981416101296</title>
<ellipse fill="none" stroke="black" cx="467.7" cy="-594" rx="59.5207" ry="18"/>
<text text-anchor="middle" x="467.7" y="-590.5" font-family="Times New Roman,serif" font-size="15.00">Create Fine</text>
</g>
<!-- 1981578936080&#45;&#45;1981416101296 -->
<g id="edge1" class="edge"><title>1981578936080&#45;&#45;1981416101296</title>
<path fill="none" stroke="black" d="M553.928,-652.485C536.35,-640.767 510.023,-623.215 491.086,-610.591"/>
</g>
<!-- 1981416102016 -->
<g id="node3" class="node"><title>1981416102016</title>
<ellipse fill="none" stroke="black" cx="572.7" cy="-594" rx="27" ry="18"/>
<text text-anchor="middle" x="572.7" y="-590.5" font-family="Times New Roman,serif" font-size="15.00">and</text>
</g>
<!-- 1981578936080&#45;&#45;1981416102016 -->
<g id="edge39" class="edge"><title>1981578936080&#45;&#45;1981416102016</title>
<path fill="none" stroke="black" d="M572.7,-647.697C572.7,-636.846 572.7,-622.917 572.7,-612.104"/>
</g>
<!-- 1981414454656 -->
<g id="node41" class="node"><title>1981414454656</title>
<ellipse fill="none" stroke="black" cx="644.7" cy="-594" rx="27" ry="18"/>
<text text-anchor="middle" x="644.7" y="-590.5" font-family="Times New Roman,serif" font-size="15.00">xor</text>
</g>
<!-- 1981578936080&#45;&#45;1981414454656 -->
<g id="edge42" class="edge"><title>1981578936080&#45;&#45;1981414454656</title>
<path fill="none" stroke="black" d="M587.27,-650.834C599.68,-638.77 617.431,-621.512 629.904,-609.385"/>
</g>
<!-- 1981414456096 -->
<g id="node4" class="node"><title>1981414456096</title>
<ellipse fill="none" stroke="black" cx="462.7" cy="-522" rx="27" ry="18"/>
<text text-anchor="middle" x="462.7" y="-518.5" font-family="Times New Roman,serif" font-size="15.00">xor</text>
</g>
<!-- 1981416102016&#45;&#45;1981414456096 -->
<g id="edge22" class="edge"><title>1981416102016&#45;&#45;1981414456096</title>
<path fill="none" stroke="black" d="M553.539,-580.807C533.35,-567.959 501.748,-547.848 481.641,-535.053"/>
</g>
<!-- 1981414454992 -->
<g id="node25" class="node"><title>1981414454992</title>
<ellipse fill="none" stroke="black" cx="578.7" cy="-522" rx="27" ry="18"/>
<text text-anchor="middle" x="578.7" y="-518.5" font-family="Times New Roman,serif" font-size="15.00">and</text>
</g>
<!-- 1981416102016&#45;&#45;1981414454992 -->
<g id="edge38" class="edge"><title>1981416102016&#45;&#45;1981414454992</title>
<path fill="none" stroke="black" d="M574.183,-575.697C575.113,-564.846 576.307,-550.917 577.234,-540.104"/>
</g>
<!-- 1981414455184 -->
<g id="node5" class="node"><title>1981414455184</title>
<ellipse fill="black" stroke="black" cx="414.7" cy="-450" rx="2.7" ry="2.7"/>
</g>
<!-- 1981414456096&#45;&#45;1981414455184 -->
<g id="edge2" class="edge"><title>1981414456096&#45;&#45;1981414455184</title>
<path fill="none" stroke="black" d="M451.808,-505.116C439.638,-487.367 420.98,-460.158 415.973,-452.857"/>
</g>
<!-- 1981414453600 -->
<g id="node6" class="node"><title>1981414453600</title>
<ellipse fill="none" stroke="black" cx="462.7" cy="-450" rx="27" ry="18"/>
<text text-anchor="middle" x="462.7" y="-446.5" font-family="Times New Roman,serif" font-size="15.00">seq</text>
</g>
<!-- 1981414456096&#45;&#45;1981414453600 -->
<g id="edge21" class="edge"><title>1981414456096&#45;&#45;1981414453600</title>
<path fill="none" stroke="black" d="M462.7,-503.697C462.7,-492.846 462.7,-478.917 462.7,-468.104"/>
</g>
<!-- 1981414454512 -->
<g id="node7" class="node"><title>1981414454512</title>
<ellipse fill="none" stroke="black" cx="167.7" cy="-378" rx="27" ry="18"/>
<text text-anchor="middle" x="167.7" y="-374.5" font-family="Times New Roman,serif" font-size="15.00">xor</text>
</g>
<!-- 1981414453600&#45;&#45;1981414454512 -->
<g id="edge5" class="edge"><title>1981414453600&#45;&#45;1981414454512</title>
<path fill="none" stroke="black" d="M437.548,-443.032C381.815,-429.807 248.463,-398.164 192.788,-384.953"/>
</g>
<!-- 1981414454032 -->
<g id="node10" class="node"><title>1981414454032</title>
<ellipse fill="none" stroke="black" cx="415.7" cy="-378" rx="27" ry="18"/>
<text text-anchor="middle" x="415.7" y="-374.5" font-family="Times New Roman,serif" font-size="15.00">xor</text>
</g>
<!-- 1981414453600&#45;&#45;1981414454032 -->
<g id="edge8" class="edge"><title>1981414453600&#45;&#45;1981414454032</title>
<path fill="none" stroke="black" d="M452.035,-433.116C444.343,-421.66 434.005,-406.263 426.323,-394.821"/>
</g>
<!-- 1981414456864 -->
<g id="node13" class="node"><title>1981414456864</title>
<ellipse fill="none" stroke="black" cx="498.7" cy="-378" rx="27" ry="18"/>
<text text-anchor="middle" x="498.7" y="-374.5" font-family="Times New Roman,serif" font-size="15.00">xor</text>
</g>
<!-- 1981414453600&#45;&#45;1981414456864 -->
<g id="edge20" class="edge"><title>1981414453600&#45;&#45;1981414456864</title>
<path fill="none" stroke="black" d="M471.05,-432.765C476.865,-421.456 484.59,-406.437 490.396,-395.147"/>
</g>
<!-- 1981414456912 -->
<g id="node8" class="node"><title>1981414456912</title>
<ellipse fill="black" stroke="black" cx="2.7" cy="-306" rx="2.7" ry="2.7"/>
</g>
<!-- 1981414454512&#45;&#45;1981414456912 -->
<g id="edge3" class="edge"><title>1981414454512&#45;&#45;1981414456912</title>
<path fill="none" stroke="black" d="M145.447,-367.559C104.28,-350.094 19.1048,-313.96 4.76938,-307.878"/>
</g>
<!-- 1981414456816 -->
<g id="node9" class="node"><title>1981414456816</title>
<ellipse fill="none" stroke="black" cx="167.7" cy="-306" rx="144.571" ry="18"/>
<text text-anchor="middle" x="167.7" y="-302.5" font-family="Times New Roman,serif" font-size="15.00">Insert Date Appeal to Prefecture</text>
</g>
<!-- 1981414454512&#45;&#45;1981414456816 -->
<g id="edge4" class="edge"><title>1981414454512&#45;&#45;1981414456816</title>
<path fill="none" stroke="black" d="M167.7,-359.697C167.7,-348.846 167.7,-334.917 167.7,-324.104"/>
</g>
<!-- 1981414456000 -->
<g id="node11" class="node"><title>1981414456000</title>
<ellipse fill="black" stroke="black" cx="332.7" cy="-306" rx="2.7" ry="2.7"/>
</g>
<!-- 1981414454032&#45;&#45;1981414456000 -->
<g id="edge6" class="edge"><title>1981414454032&#45;&#45;1981414456000</title>
<path fill="none" stroke="black" d="M399.302,-363.17C378.137,-345.32 343.019,-315.702 334.57,-308.577"/>
</g>
<!-- 1981415073296 -->
<g id="node12" class="node"><title>1981415073296</title>
<ellipse fill="none" stroke="black" cx="415.7" cy="-306" rx="61.6894" ry="18"/>
<text text-anchor="middle" x="415.7" y="-302.5" font-family="Times New Roman,serif" font-size="15.00">Add penalty</text>
</g>
<!-- 1981414454032&#45;&#45;1981415073296 -->
<g id="edge7" class="edge"><title>1981414454032&#45;&#45;1981415073296</title>
<path fill="none" stroke="black" d="M415.7,-359.697C415.7,-348.846 415.7,-334.917 415.7,-324.104"/>
</g>
<!-- 1981415072720 -->
<g id="node14" class="node"><title>1981415072720</title>
<ellipse fill="black" stroke="black" cx="498.7" cy="-306" rx="2.7" ry="2.7"/>
</g>
<!-- 1981414456864&#45;&#45;1981415072720 -->
<g id="edge9" class="edge"><title>1981414456864&#45;&#45;1981415072720</title>
<path fill="none" stroke="black" d="M498.7,-359.697C498.7,-341.883 498.7,-315.769 498.7,-308.776"/>
</g>
<!-- 1981415074640 -->
<g id="node15" class="node"><title>1981415074640</title>
<ellipse fill="none" stroke="black" cx="565.7" cy="-306" rx="46.6143" ry="18"/>
<text text-anchor="middle" x="565.7" y="-302.5" font-family="Times New Roman,serif" font-size="15.00">xor loop</text>
</g>
<!-- 1981414456864&#45;&#45;1981415074640 -->
<g id="edge19" class="edge"><title>1981414456864&#45;&#45;1981415074640</title>
<path fill="none" stroke="black" d="M512.582,-362.496C523.545,-351.043 538.834,-335.069 550.196,-323.198"/>
</g>
<!-- 1981415075072 -->
<g id="node16" class="node"><title>1981415075072</title>
<ellipse fill="none" stroke="black" cx="541.7" cy="-234" rx="27" ry="18"/>
<text text-anchor="middle" x="541.7" y="-230.5" font-family="Times New Roman,serif" font-size="15.00">xor</text>
</g>
<!-- 1981415074640&#45;&#45;1981415075072 -->
<g id="edge17" class="edge"><title>1981415074640&#45;&#45;1981415075072</title>
<path fill="none" stroke="black" d="M559.89,-288.055C556.117,-277.049 551.219,-262.764 547.456,-251.789"/>
</g>
<!-- 1981415072288 -->
<g id="node24" class="node"><title>1981415072288</title>
<ellipse fill="black" stroke="black" cx="589.7" cy="-234" rx="2.7" ry="2.7"/>
</g>
<!-- 1981415074640&#45;&#45;1981415072288 -->
<g id="edge18" class="edge"><title>1981415074640&#45;&#45;1981415072288</title>
<path fill="none" stroke="black" d="M571.51,-288.055C577.614,-270.252 586.66,-243.865 589.084,-236.796"/>
</g>
<!-- 1981415075360 -->
<g id="node17" class="node"><title>1981415075360</title>
<ellipse fill="none" stroke="black" cx="282.7" cy="-162" rx="120.43" ry="18"/>
<text text-anchor="middle" x="282.7" y="-158.5" font-family="Times New Roman,serif" font-size="15.00">Send Appeal to Prefecture</text>
</g>
<!-- 1981415075072&#45;&#45;1981415075360 -->
<g id="edge10" class="edge"><title>1981415075072&#45;&#45;1981415075360</title>
<path fill="none" stroke="black" d="M516.866,-226.288C475.97,-215.235 393.479,-192.94 338.15,-177.987"/>
</g>
<!-- 1981415074736 -->
<g id="node18" class="node"><title>1981415074736</title>
<ellipse fill="none" stroke="black" cx="541.7" cy="-162" rx="120.819" ry="18"/>
<text text-anchor="middle" x="541.7" y="-158.5" font-family="Times New Roman,serif" font-size="15.00">Send for Credit Collection</text>
</g>
<!-- 1981415075072&#45;&#45;1981415074736 -->
<g id="edge11" class="edge"><title>1981415075072&#45;&#45;1981415074736</title>
<path fill="none" stroke="black" d="M541.7,-215.697C541.7,-204.846 541.7,-190.917 541.7,-180.104"/>
</g>
<!-- 1981415072336 -->
<g id="node19" class="node"><title>1981415072336</title>
<ellipse fill="none" stroke="black" cx="707.7" cy="-162" rx="27" ry="18"/>
<text text-anchor="middle" x="707.7" y="-158.5" font-family="Times New Roman,serif" font-size="15.00">seq</text>
</g>
<!-- 1981415075072&#45;&#45;1981415072336 -->
<g id="edge16" class="edge"><title>1981415075072&#45;&#45;1981415072336</title>
<path fill="none" stroke="black" d="M564.087,-223.559C595.858,-210.162 653.681,-185.779 685.403,-172.402"/>
</g>
<!-- 1981415071904 -->
<g id="node20" class="node"><title>1981415071904</title>
<ellipse fill="none" stroke="black" cx="597.7" cy="-90" rx="173.941" ry="18"/>
<text text-anchor="middle" x="597.7" y="-86.5" font-family="Times New Roman,serif" font-size="15.00">Receive Result Appeal from Prefecture</text>
</g>
<!-- 1981415072336&#45;&#45;1981415071904 -->
<g id="edge12" class="edge"><title>1981415072336&#45;&#45;1981415071904</title>
<path fill="none" stroke="black" d="M688.539,-148.807C670.812,-137.526 644.286,-120.645 624.468,-108.034"/>
</g>
<!-- 1981415073968 -->
<g id="node21" class="node"><title>1981415073968</title>
<ellipse fill="none" stroke="black" cx="816.7" cy="-90" rx="27" ry="18"/>
<text text-anchor="middle" x="816.7" y="-86.5" font-family="Times New Roman,serif" font-size="15.00">xor</text>
</g>
<!-- 1981415072336&#45;&#45;1981415073968 -->
<g id="edge15" class="edge"><title>1981415072336&#45;&#45;1981415073968</title>
<path fill="none" stroke="black" d="M726.686,-148.807C746.693,-135.959 778.007,-115.848 797.931,-103.053"/>
</g>
<!-- 1981415073392 -->
<g id="node22" class="node"><title>1981415073392</title>
<ellipse fill="black" stroke="black" cx="731.7" cy="-18" rx="2.7" ry="2.7"/>
</g>
<!-- 1981415073968&#45;&#45;1981415073392 -->
<g id="edge13" class="edge"><title>1981415073968&#45;&#45;1981415073392</title>
<path fill="none" stroke="black" d="M800.311,-75.5033C778.699,-57.7048 742.378,-27.7933 733.635,-20.5936"/>
</g>
<!-- 1981415072144 -->
<g id="node23" class="node"><title>1981415072144</title>
<ellipse fill="none" stroke="black" cx="900.7" cy="-18" rx="148.91" ry="18"/>
<text text-anchor="middle" x="900.7" y="-14.5" font-family="Times New Roman,serif" font-size="15.00">Notify Result Appeal to Offender</text>
</g>
<!-- 1981415073968&#45;&#45;1981415072144 -->
<g id="edge14" class="edge"><title>1981415073968&#45;&#45;1981415072144</title>
<path fill="none" stroke="black" d="M832.896,-75.5033C846.436,-64.2203 865.817,-48.0695 880.393,-35.9227"/>
</g>
<!-- 1981415072432 -->
<g id="node26" class="node"><title>1981415072432</title>
<ellipse fill="none" stroke="black" cx="578.7" cy="-450" rx="46.6143" ry="18"/>
<text text-anchor="middle" x="578.7" y="-446.5" font-family="Times New Roman,serif" font-size="15.00">xor loop</text>
</g>
<!-- 1981414454992&#45;&#45;1981415072432 -->
<g id="edge25" class="edge"><title>1981414454992&#45;&#45;1981415072432</title>
<path fill="none" stroke="black" d="M578.7,-503.697C578.7,-492.846 578.7,-478.917 578.7,-468.104"/>
</g>
<!-- 1981415075216 -->
<g id="node29" class="node"><title>1981415075216</title>
<ellipse fill="none" stroke="black" cx="724.7" cy="-450" rx="27" ry="18"/>
<text text-anchor="middle" x="724.7" y="-446.5" font-family="Times New Roman,serif" font-size="15.00">xor</text>
</g>
<!-- 1981414454992&#45;&#45;1981415075216 -->
<g id="edge37" class="edge"><title>1981414454992&#45;&#45;1981415075216</title>
<path fill="none" stroke="black" d="M599.93,-510.821C627.61,-497.55 675.752,-474.468 703.445,-461.191"/>
</g>
<!-- 1981415074304 -->
<g id="node27" class="node"><title>1981415074304</title>
<ellipse fill="black" stroke="black" cx="549.7" cy="-378" rx="2.7" ry="2.7"/>
</g>
<!-- 1981415072432&#45;&#45;1981415074304 -->
<g id="edge23" class="edge"><title>1981415072432&#45;&#45;1981415074304</title>
<path fill="none" stroke="black" d="M571.68,-432.055C564.304,-414.252 553.373,-387.865 550.444,-380.796"/>
</g>
<!-- 1981586117008 -->
<g id="node28" class="node"><title>1981586117008</title>
<ellipse fill="none" stroke="black" cx="616.7" cy="-378" rx="45.7249" ry="18"/>
<text text-anchor="middle" x="616.7" y="-374.5" font-family="Times New Roman,serif" font-size="15.00">Payment</text>
</g>
<!-- 1981415072432&#45;&#45;1981586117008 -->
<g id="edge24" class="edge"><title>1981415072432&#45;&#45;1981586117008</title>
<path fill="none" stroke="black" d="M587.899,-432.055C593.873,-421.049 601.628,-406.764 607.586,-395.789"/>
</g>
<!-- 1981589034608 -->
<g id="node30" class="node"><title>1981589034608</title>
<ellipse fill="black" stroke="black" cx="687.7" cy="-378" rx="2.7" ry="2.7"/>
</g>
<!-- 1981415075216&#45;&#45;1981589034608 -->
<g id="edge26" class="edge"><title>1981415075216&#45;&#45;1981589034608</title>
<path fill="none" stroke="black" d="M716.118,-432.765C706.725,-414.994 692.489,-388.06 688.671,-380.836"/>
</g>
<!-- 1981589034368 -->
<g id="node31" class="node"><title>1981589034368</title>
<ellipse fill="none" stroke="black" cx="761.7" cy="-378" rx="52.6228" ry="18"/>
<text text-anchor="middle" x="761.7" y="-374.5" font-family="Times New Roman,serif" font-size="15.00">Send Fine</text>
</g>
<!-- 1981415075216&#45;&#45;1981589034368 -->
<g id="edge27" class="edge"><title>1981415075216&#45;&#45;1981589034368</title>
<path fill="none" stroke="black" d="M733.282,-432.765C739.088,-421.779 746.746,-407.292 752.649,-396.124"/>
</g>
<!-- 1981589036576 -->
<g id="node32" class="node"><title>1981589036576</title>
<ellipse fill="none" stroke="black" cx="861.7" cy="-378" rx="27" ry="18"/>
<text text-anchor="middle" x="861.7" y="-374.5" font-family="Times New Roman,serif" font-size="15.00">seq</text>
</g>
<!-- 1981415075216&#45;&#45;1981589036576 -->
<g id="edge36" class="edge"><title>1981415075216&#45;&#45;1981589036576</title>
<path fill="none" stroke="black" d="M745.507,-438.369C771.257,-425.212 814.857,-402.934 840.697,-389.732"/>
</g>
<!-- 1981589034800 -->
<g id="node33" class="node"><title>1981589034800</title>
<ellipse fill="none" stroke="black" cx="682.7" cy="-306" rx="52.6228" ry="18"/>
<text text-anchor="middle" x="682.7" y="-302.5" font-family="Times New Roman,serif" font-size="15.00">Send Fine</text>
</g>
<!-- 1981589036576&#45;&#45;1981589034800 -->
<g id="edge28" class="edge"><title>1981589036576&#45;&#45;1981589034800</title>
<path fill="none" stroke="black" d="M839.03,-368.134C807.985,-355.994 752.016,-334.107 716.149,-320.081"/>
</g>
<!-- 1981589035856 -->
<g id="node34" class="node"><title>1981589035856</title>
<ellipse fill="none" stroke="black" cx="861.7" cy="-306" rx="107.914" ry="18"/>
<text text-anchor="middle" x="861.7" y="-302.5" font-family="Times New Roman,serif" font-size="15.00">Insert Fine Notification</text>
</g>
<!-- 1981589036576&#45;&#45;1981589035856 -->
<g id="edge29" class="edge"><title>1981589036576&#45;&#45;1981589035856</title>
<path fill="none" stroke="black" d="M861.7,-359.697C861.7,-348.846 861.7,-334.917 861.7,-324.104"/>
</g>
<!-- 1981589034176 -->
<g id="node35" class="node"><title>1981589034176</title>
<ellipse fill="none" stroke="black" cx="1033.7" cy="-306" rx="46.6143" ry="18"/>
<text text-anchor="middle" x="1033.7" y="-302.5" font-family="Times New Roman,serif" font-size="15.00">xor loop</text>
</g>
<!-- 1981589036576&#45;&#45;1981589034176 -->
<g id="edge32" class="edge"><title>1981589036576&#45;&#45;1981589034176</title>
<path fill="none" stroke="black" d="M884.186,-367.849C914.509,-355.508 968.634,-333.48 1002.77,-319.587"/>
</g>
<!-- 1981588052576 -->
<g id="node38" class="node"><title>1981588052576</title>
<ellipse fill="none" stroke="black" cx="1144.7" cy="-306" rx="46.6143" ry="18"/>
<text text-anchor="middle" x="1144.7" y="-302.5" font-family="Times New Roman,serif" font-size="15.00">xor loop</text>
</g>
<!-- 1981589036576&#45;&#45;1981588052576 -->
<g id="edge35" class="edge"><title>1981589036576&#45;&#45;1981588052576</title>
<path fill="none" stroke="black" d="M886.814,-370.788C936.46,-358.508 1047.44,-331.058 1106.31,-316.496"/>
</g>
<!-- 1981588051040 -->
<g id="node36" class="node"><title>1981588051040</title>
<ellipse fill="black" stroke="black" cx="957.7" cy="-234" rx="2.7" ry="2.7"/>
</g>
<!-- 1981589034176&#45;&#45;1981588051040 -->
<g id="edge30" class="edge"><title>1981589034176&#45;&#45;1981588051040</title>
<path fill="none" stroke="black" d="M1016.45,-289.116C996.834,-271.045 966.565,-243.166 959.305,-236.478"/>
</g>
<!-- 1981588052624 -->
<g id="node37" class="node"><title>1981588052624</title>
<ellipse fill="none" stroke="black" cx="1040.7" cy="-234" rx="61.6894" ry="18"/>
<text text-anchor="middle" x="1040.7" y="-230.5" font-family="Times New Roman,serif" font-size="15.00">Add penalty</text>
</g>
<!-- 1981589034176&#45;&#45;1981588052624 -->
<g id="edge31" class="edge"><title>1981589034176&#45;&#45;1981588052624</title>
<path fill="none" stroke="black" d="M1035.43,-287.697C1036.52,-276.846 1037.91,-262.917 1038.99,-252.104"/>
</g>
<!-- 1981588051088 -->
<g id="node39" class="node"><title>1981588051088</title>
<ellipse fill="black" stroke="black" cx="1137.7" cy="-234" rx="2.7" ry="2.7"/>
</g>
<!-- 1981588052576&#45;&#45;1981588051088 -->
<g id="edge33" class="edge"><title>1981588052576&#45;&#45;1981588051088</title>
<path fill="none" stroke="black" d="M1142.97,-287.697C1141.19,-269.883 1138.58,-243.769 1137.88,-236.776"/>
</g>
<!-- 1981588051376 -->
<g id="node40" class="node"><title>1981588051376</title>
<ellipse fill="none" stroke="black" cx="1236.7" cy="-234" rx="78.5434" ry="18"/>
<text text-anchor="middle" x="1236.7" y="-230.5" font-family="Times New Roman,serif" font-size="15.00">Appeal to Judge</text>
</g>
<!-- 1981588052576&#45;&#45;1981588051376 -->
<g id="edge34" class="edge"><title>1981588052576&#45;&#45;1981588051376</title>
<path fill="none" stroke="black" d="M1165.12,-289.465C1179.94,-278.187 1199.96,-262.955 1215.06,-251.467"/>
</g>
<!-- 1981589035328 -->
<g id="node42" class="node"><title>1981589035328</title>
<ellipse fill="black" stroke="black" cx="638.7" cy="-522" rx="2.7" ry="2.7"/>
</g>
<!-- 1981414454656&#45;&#45;1981589035328 -->
<g id="edge40" class="edge"><title>1981414454656&#45;&#45;1981589035328</title>
<path fill="none" stroke="black" d="M643.217,-575.697C641.69,-557.883 639.452,-531.769 638.852,-524.776"/>
</g>
<!-- 1981588050752 -->
<g id="node43" class="node"><title>1981588050752</title>
<ellipse fill="none" stroke="black" cx="737.7" cy="-522" rx="78.5434" ry="18"/>
<text text-anchor="middle" x="737.7" y="-518.5" font-family="Times New Roman,serif" font-size="15.00">Appeal to Judge</text>
</g>
<!-- 1981414454656&#45;&#45;1981588050752 -->
<g id="edge41" class="edge"><title>1981414454656&#45;&#45;1981588050752</title>
<path fill="none" stroke="black" d="M662.193,-579.834C677.451,-568.348 699.649,-551.641 716.029,-539.311"/>
</g>
</g>
</svg>
