<?xml version="1.0" encoding="UTF-8" standalone="no"?>
<!DOCTYPE svg PUBLIC "-//W3C//DTD SVG 1.1//EN"
 "http://www.w3.org/Graphics/SVG/1.1/DTD/svg11.dtd">
<!-- Generated by graphviz version 2.38.0 (20140413.2041)
 -->
<!-- Title: pt Pages: 1 -->
<svg width="1628pt" height="548pt"
 viewBox="0.00 0.00 1627.56 548.00" xmlns="http://www.w3.org/2000/svg" xmlns:xlink="http://www.w3.org/1999/xlink">
<g id="graph0" class="graph" transform="scale(1 1) rotate(0) translate(4 544)">
<title>pt</title>
<!-- 1981594293104 -->
<g id="node1" class="node"><title>1981594293104</title>
<ellipse fill="none" stroke="black" cx="435.7" cy="-522" rx="27" ry="18"/>
<text text-anchor="middle" x="435.7" y="-518.5" font-family="Times New Roman,serif" font-size="15.00">seq</text>
</g>
<!-- 1981588610736 -->
<g id="node2" class="node"><title>1981588610736</title>
<ellipse fill="none" stroke="black" cx="311.7" cy="-450" rx="59.5207" ry="18"/>
<text text-anchor="middle" x="311.7" y="-446.5" font-family="Times New Roman,serif" font-size="15.00">Create Fine</text>
</g>
<!-- 1981594293104&#45;&#45;1981588610736 -->
<g id="edge1" class="edge"><title>1981594293104&#45;&#45;1981588610736</title>
<path fill="none" stroke="black" d="M415.777,-509.753C394.828,-497.927 361.744,-479.251 338.513,-466.136"/>
</g>
<!-- 1981588607472 -->
<g id="node3" class="node"><title>1981588607472</title>
<ellipse fill="none" stroke="black" cx="435.7" cy="-450" rx="46.6143" ry="18"/>
<text text-anchor="middle" x="435.7" y="-446.5" font-family="Times New Roman,serif" font-size="15.00">xor loop</text>
</g>
<!-- 1981594293104&#45;&#45;1981588607472 -->
<g id="edge36" class="edge"><title>1981594293104&#45;&#45;1981588607472</title>
<path fill="none" stroke="black" d="M435.7,-503.697C435.7,-492.846 435.7,-478.917 435.7,-468.104"/>
</g>
<!-- 1981588608624 -->
<g id="node38" class="node"><title>1981588608624</title>
<ellipse fill="none" stroke="black" cx="527.7" cy="-450" rx="27" ry="18"/>
<text text-anchor="middle" x="527.7" y="-446.5" font-family="Times New Roman,serif" font-size="15.00">xor</text>
</g>
<!-- 1981594293104&#45;&#45;1981588608624 -->
<g id="edge39" class="edge"><title>1981594293104&#45;&#45;1981588608624</title>
<path fill="none" stroke="black" d="M453.004,-507.834C469.453,-495.319 494.051,-476.603 510.473,-464.107"/>
</g>
<!-- 1981588608240 -->
<g id="node4" class="node"><title>1981588608240</title>
<ellipse fill="none" stroke="black" cx="404.7" cy="-378" rx="27" ry="18"/>
<text text-anchor="middle" x="404.7" y="-374.5" font-family="Times New Roman,serif" font-size="15.00">seq</text>
</g>
<!-- 1981588607472&#45;&#45;1981588608240 -->
<g id="edge34" class="edge"><title>1981588607472&#45;&#45;1981588608240</title>
<path fill="none" stroke="black" d="M428.196,-432.055C423.322,-421.049 416.995,-406.764 412.135,-395.789"/>
</g>
<!-- 1981588610304 -->
<g id="node37" class="node"><title>1981588610304</title>
<ellipse fill="black" stroke="black" cx="452.7" cy="-378" rx="2.7" ry="2.7"/>
</g>
<!-- 1981588607472&#45;&#45;1981588610304 -->
<g id="edge35" class="edge"><title>1981588607472&#45;&#45;1981588610304</title>
<path fill="none" stroke="black" d="M439.815,-432.055C444.139,-414.252 450.547,-387.865 452.264,-380.796"/>
</g>
<!-- 1981584794480 -->
<g id="node5" class="node"><title>1981584794480</title>
<ellipse fill="none" stroke="black" cx="138.7" cy="-306" rx="27" ry="18"/>
<text text-anchor="middle" x="138.7" y="-302.5" font-family="Times New Roman,serif" font-size="15.00">xor</text>
</g>
<!-- 1981588608240&#45;&#45;1981584794480 -->
<g id="edge4" class="edge"><title>1981588608240&#45;&#45;1981584794480</title>
<path fill="none" stroke="black" d="M379.675,-370.415C328.849,-357.039 214.072,-326.835 163.464,-313.517"/>
</g>
<!-- 1981584797360 -->
<g id="node8" class="node"><title>1981584797360</title>
<ellipse fill="none" stroke="black" cx="340.7" cy="-306" rx="27" ry="18"/>
<text text-anchor="middle" x="340.7" y="-302.5" font-family="Times New Roman,serif" font-size="15.00">xor</text>
</g>
<!-- 1981588608240&#45;&#45;1981584797360 -->
<g id="edge7" class="edge"><title>1981588608240&#45;&#45;1981584797360</title>
<path fill="none" stroke="black" d="M391.127,-362.155C380.266,-350.276 365.109,-333.697 354.253,-321.824"/>
</g>
<!-- 1981584794768 -->
<g id="node11" class="node"><title>1981584794768</title>
<ellipse fill="none" stroke="black" cx="468.7" cy="-306" rx="27" ry="18"/>
<text text-anchor="middle" x="468.7" y="-302.5" font-family="Times New Roman,serif" font-size="15.00">xor</text>
</g>
<!-- 1981588608240&#45;&#45;1981584794768 -->
<g id="edge10" class="edge"><title>1981588608240&#45;&#45;1981584794768</title>
<path fill="none" stroke="black" d="M418.273,-362.155C429.134,-350.276 444.291,-333.697 455.147,-321.824"/>
</g>
<!-- 1981584796880 -->
<g id="node14" class="node"><title>1981584796880</title>
<ellipse fill="none" stroke="black" cx="666.7" cy="-306" rx="27" ry="18"/>
<text text-anchor="middle" x="666.7" y="-302.5" font-family="Times New Roman,serif" font-size="15.00">xor</text>
</g>
<!-- 1981588608240&#45;&#45;1981584796880 -->
<g id="edge33" class="edge"><title>1981588608240&#45;&#45;1981584796880</title>
<path fill="none" stroke="black" d="M429.348,-370.415C479.283,-357.073 591.887,-326.988 641.926,-313.619"/>
</g>
<!-- 1981584794432 -->
<g id="node6" class="node"><title>1981584794432</title>
<ellipse fill="black" stroke="black" cx="64.7" cy="-234" rx="2.7" ry="2.7"/>
</g>
<!-- 1981584794480&#45;&#45;1981584794432 -->
<g id="edge2" class="edge"><title>1981584794480&#45;&#45;1981584794432</title>
<path fill="none" stroke="black" d="M123.725,-290.834C104.805,-272.937 73.8039,-243.612 66.3493,-236.56"/>
</g>
<!-- 1981584796736 -->
<g id="node7" class="node"><title>1981584796736</title>
<ellipse fill="none" stroke="black" cx="138.7" cy="-234" rx="52.6228" ry="18"/>
<text text-anchor="middle" x="138.7" y="-230.5" font-family="Times New Roman,serif" font-size="15.00">Send Fine</text>
</g>
<!-- 1981584794480&#45;&#45;1981584796736 -->
<g id="edge3" class="edge"><title>1981584794480&#45;&#45;1981584796736</title>
<path fill="none" stroke="black" d="M138.7,-287.697C138.7,-276.846 138.7,-262.917 138.7,-252.104"/>
</g>
<!-- 1981584795200 -->
<g id="node9" class="node"><title>1981584795200</title>
<ellipse fill="black" stroke="black" cx="212.7" cy="-234" rx="2.7" ry="2.7"/>
</g>
<!-- 1981584797360&#45;&#45;1981584795200 -->
<g id="edge5" class="edge"><title>1981584797360&#45;&#45;1981584795200</title>
<path fill="none" stroke="black" d="M320.418,-293.908C287.991,-276.175 226.882,-242.756 214.804,-236.151"/>
</g>
<!-- 1981584796496 -->
<g id="node10" class="node"><title>1981584796496</title>
<ellipse fill="none" stroke="black" cx="340.7" cy="-234" rx="107.914" ry="18"/>
<text text-anchor="middle" x="340.7" y="-230.5" font-family="Times New Roman,serif" font-size="15.00">Insert Fine Notification</text>
</g>
<!-- 1981584797360&#45;&#45;1981584796496 -->
<g id="edge6" class="edge"><title>1981584797360&#45;&#45;1981584796496</title>
<path fill="none" stroke="black" d="M340.7,-287.697C340.7,-276.846 340.7,-262.917 340.7,-252.104"/>
</g>
<!-- 1981584797120 -->
<g id="node12" class="node"><title>1981584797120</title>
<ellipse fill="black" stroke="black" cx="468.7" cy="-234" rx="2.7" ry="2.7"/>
</g>
<!-- 1981584794768&#45;&#45;1981584797120 -->
<g id="edge8" class="edge"><title>1981584794768&#45;&#45;1981584797120</title>
<path fill="none" stroke="black" d="M468.7,-287.697C468.7,-269.883 468.7,-243.769 468.7,-236.776"/>
</g>
<!-- 1981584794240 -->
<g id="node13" class="node"><title>1981584794240</title>
<ellipse fill="none" stroke="black" cx="567.7" cy="-234" rx="78.5434" ry="18"/>
<text text-anchor="middle" x="567.7" y="-230.5" font-family="Times New Roman,serif" font-size="15.00">Appeal to Judge</text>
</g>
<!-- 1981584794768&#45;&#45;1981584794240 -->
<g id="edge9" class="edge"><title>1981584794768&#45;&#45;1981584794240</title>
<path fill="none" stroke="black" d="M486.858,-292.161C503.046,-280.715 526.832,-263.897 544.415,-251.464"/>
</g>
<!-- 1981584860784 -->
<g id="node15" class="node"><title>1981584860784</title>
<ellipse fill="black" stroke="black" cx="666.7" cy="-234" rx="2.7" ry="2.7"/>
</g>
<!-- 1981584796880&#45;&#45;1981584860784 -->
<g id="edge11" class="edge"><title>1981584796880&#45;&#45;1981584860784</title>
<path fill="none" stroke="black" d="M666.7,-287.697C666.7,-269.883 666.7,-243.769 666.7,-236.776"/>
</g>
<!-- 1981584860880 -->
<g id="node16" class="node"><title>1981584860880</title>
<ellipse fill="none" stroke="black" cx="733.7" cy="-234" rx="46.6143" ry="18"/>
<text text-anchor="middle" x="733.7" y="-230.5" font-family="Times New Roman,serif" font-size="15.00">xor loop</text>
</g>
<!-- 1981584796880&#45;&#45;1981584860880 -->
<g id="edge32" class="edge"><title>1981584796880&#45;&#45;1981584860880</title>
<path fill="none" stroke="black" d="M680.582,-290.496C691.545,-279.043 706.834,-263.069 718.196,-251.198"/>
</g>
<!-- 1981584902320 -->
<g id="node17" class="node"><title>1981584902320</title>
<ellipse fill="none" stroke="black" cx="709.7" cy="-162" rx="27" ry="18"/>
<text text-anchor="middle" x="709.7" y="-158.5" font-family="Times New Roman,serif" font-size="15.00">seq</text>
</g>
<!-- 1981584860880&#45;&#45;1981584902320 -->
<g id="edge30" class="edge"><title>1981584860880&#45;&#45;1981584902320</title>
<path fill="none" stroke="black" d="M727.89,-216.055C724.117,-205.049 719.219,-190.764 715.456,-179.789"/>
</g>
<!-- 1981584901072 -->
<g id="node36" class="node"><title>1981584901072</title>
<ellipse fill="black" stroke="black" cx="757.7" cy="-162" rx="2.7" ry="2.7"/>
</g>
<!-- 1981584860880&#45;&#45;1981584901072 -->
<g id="edge31" class="edge"><title>1981584860880&#45;&#45;1981584901072</title>
<path fill="none" stroke="black" d="M739.51,-216.055C745.614,-198.252 754.66,-171.865 757.084,-164.796"/>
</g>
<!-- 1981584902752 -->
<g id="node18" class="node"><title>1981584902752</title>
<ellipse fill="none" stroke="black" cx="167.7" cy="-90" rx="27" ry="18"/>
<text text-anchor="middle" x="167.7" y="-86.5" font-family="Times New Roman,serif" font-size="15.00">xor</text>
</g>
<!-- 1981584902320&#45;&#45;1981584902752 -->
<g id="edge14" class="edge"><title>1981584902320&#45;&#45;1981584902752</title>
<path fill="none" stroke="black" d="M683.191,-157.576C591.164,-145.691 286.106,-106.292 194.158,-94.417"/>
</g>
<!-- 1981584904096 -->
<g id="node21" class="node"><title>1981584904096</title>
<ellipse fill="none" stroke="black" cx="415.7" cy="-90" rx="27" ry="18"/>
<text text-anchor="middle" x="415.7" y="-86.5" font-family="Times New Roman,serif" font-size="15.00">xor</text>
</g>
<!-- 1981584902320&#45;&#45;1981584904096 -->
<g id="edge17" class="edge"><title>1981584902320&#45;&#45;1981584904096</title>
<path fill="none" stroke="black" d="M684.634,-155.032C629.089,-141.807 496.189,-110.164 440.703,-96.9531"/>
</g>
<!-- 1981584900736 -->
<g id="node24" class="node"><title>1981584900736</title>
<ellipse fill="none" stroke="black" cx="639.7" cy="-90" rx="27" ry="18"/>
<text text-anchor="middle" x="639.7" y="-86.5" font-family="Times New Roman,serif" font-size="15.00">xor</text>
</g>
<!-- 1981584902320&#45;&#45;1981584900736 -->
<g id="edge20" class="edge"><title>1981584902320&#45;&#45;1981584900736</title>
<path fill="none" stroke="black" d="M695.196,-146.496C683.182,-134.482 666.194,-117.494 654.185,-105.485"/>
</g>
<!-- 1981584903760 -->
<g id="node27" class="node"><title>1981584903760</title>
<ellipse fill="none" stroke="black" cx="780.7" cy="-90" rx="27" ry="18"/>
<text text-anchor="middle" x="780.7" y="-86.5" font-family="Times New Roman,serif" font-size="15.00">xor</text>
</g>
<!-- 1981584902320&#45;&#45;1981584903760 -->
<g id="edge23" class="edge"><title>1981584902320&#45;&#45;1981584903760</title>
<path fill="none" stroke="black" d="M724.411,-146.496C736.597,-134.482 753.827,-117.494 766.008,-105.485"/>
</g>
<!-- 1981584902128 -->
<g id="node30" class="node"><title>1981584902128</title>
<ellipse fill="none" stroke="black" cx="1168.7" cy="-90" rx="27" ry="18"/>
<text text-anchor="middle" x="1168.7" y="-86.5" font-family="Times New Roman,serif" font-size="15.00">xor</text>
</g>
<!-- 1981584902320&#45;&#45;1981584902128 -->
<g id="edge26" class="edge"><title>1981584902320&#45;&#45;1981584902128</title>
<path fill="none" stroke="black" d="M735.693,-157.036C816.387,-144.73 1062.02,-107.27 1142.71,-94.9639"/>
</g>
<!-- 1981584900160 -->
<g id="node33" class="node"><title>1981584900160</title>
<ellipse fill="none" stroke="black" cx="1506.7" cy="-90" rx="27" ry="18"/>
<text text-anchor="middle" x="1506.7" y="-86.5" font-family="Times New Roman,serif" font-size="15.00">xor</text>
</g>
<!-- 1981584902320&#45;&#45;1981584900160 -->
<g id="edge29" class="edge"><title>1981584902320&#45;&#45;1981584900160</title>
<path fill="none" stroke="black" d="M736.674,-158.631C858.764,-147.908 1358.91,-103.981 1480.14,-93.3329"/>
</g>
<!-- 1981584902992 -->
<g id="node19" class="node"><title>1981584902992</title>
<ellipse fill="black" stroke="black" cx="2.7" cy="-18" rx="2.7" ry="2.7"/>
</g>
<!-- 1981584902752&#45;&#45;1981584902992 -->
<g id="edge12" class="edge"><title>1981584902752&#45;&#45;1981584902992</title>
<path fill="none" stroke="black" d="M145.447,-79.5595C104.28,-62.0945 19.1048,-25.9596 4.76938,-19.8779"/>
</g>
<!-- 1981584903472 -->
<g id="node20" class="node"><title>1981584903472</title>
<ellipse fill="none" stroke="black" cx="167.7" cy="-18" rx="144.571" ry="18"/>
<text text-anchor="middle" x="167.7" y="-14.5" font-family="Times New Roman,serif" font-size="15.00">Insert Date Appeal to Prefecture</text>
</g>
<!-- 1981584902752&#45;&#45;1981584903472 -->
<g id="edge13" class="edge"><title>1981584902752&#45;&#45;1981584903472</title>
<path fill="none" stroke="black" d="M167.7,-71.6966C167.7,-60.8463 167.7,-46.9167 167.7,-36.1043"/>
</g>
<!-- 1981584901840 -->
<g id="node22" class="node"><title>1981584901840</title>
<ellipse fill="black" stroke="black" cx="332.7" cy="-18" rx="2.7" ry="2.7"/>
</g>
<!-- 1981584904096&#45;&#45;1981584901840 -->
<g id="edge15" class="edge"><title>1981584904096&#45;&#45;1981584901840</title>
<path fill="none" stroke="black" d="M399.302,-75.1703C378.137,-57.3201 343.019,-27.7024 334.57,-20.5768"/>
</g>
<!-- 1981584901456 -->
<g id="node23" class="node"><title>1981584901456</title>
<ellipse fill="none" stroke="black" cx="415.7" cy="-18" rx="61.6894" ry="18"/>
<text text-anchor="middle" x="415.7" y="-14.5" font-family="Times New Roman,serif" font-size="15.00">Add penalty</text>
</g>
<!-- 1981584904096&#45;&#45;1981584901456 -->
<g id="edge16" class="edge"><title>1981584904096&#45;&#45;1981584901456</title>
<path fill="none" stroke="black" d="M415.7,-71.6966C415.7,-60.8463 415.7,-46.9167 415.7,-36.1043"/>
</g>
<!-- 1981584904048 -->
<g id="node25" class="node"><title>1981584904048</title>
<ellipse fill="black" stroke="black" cx="498.7" cy="-18" rx="2.7" ry="2.7"/>
</g>
<!-- 1981584900736&#45;&#45;1981584904048 -->
<g id="edge18" class="edge"><title>1981584900736&#45;&#45;1981584904048</title>
<path fill="none" stroke="black" d="M618.591,-78.5203C582.944,-60.8234 513.442,-26.3188 500.724,-20.0047"/>
</g>
<!-- 1981584900544 -->
<g id="node26" class="node"><title>1981584900544</title>
<ellipse fill="none" stroke="black" cx="639.7" cy="-18" rx="120.43" ry="18"/>
<text text-anchor="middle" x="639.7" y="-14.5" font-family="Times New Roman,serif" font-size="15.00">Send Appeal to Prefecture</text>
</g>
<!-- 1981584900736&#45;&#45;1981584900544 -->
<g id="edge19" class="edge"><title>1981584900736&#45;&#45;1981584900544</title>
<path fill="none" stroke="black" d="M639.7,-71.6966C639.7,-60.8463 639.7,-46.9167 639.7,-36.1043"/>
</g>
<!-- 1981584903952 -->
<g id="node28" class="node"><title>1981584903952</title>
<ellipse fill="black" stroke="black" cx="780.7" cy="-18" rx="2.7" ry="2.7"/>
</g>
<!-- 1981584903760&#45;&#45;1981584903952 -->
<g id="edge21" class="edge"><title>1981584903760&#45;&#45;1981584903952</title>
<path fill="none" stroke="black" d="M780.7,-71.6966C780.7,-53.8826 780.7,-27.7686 780.7,-20.7764"/>
</g>
<!-- 1981584900784 -->
<g id="node29" class="node"><title>1981584900784</title>
<ellipse fill="none" stroke="black" cx="974.7" cy="-18" rx="173.941" ry="18"/>
<text text-anchor="middle" x="974.7" y="-14.5" font-family="Times New Roman,serif" font-size="15.00">Receive Result Appeal from Prefecture</text>
</g>
<!-- 1981584903760&#45;&#45;1981584900784 -->
<g id="edge22" class="edge"><title>1981584903760&#45;&#45;1981584900784</title>
<path fill="none" stroke="black" d="M804.101,-80.5564C834.939,-69.4293 889.853,-49.615 929.049,-35.472"/>
</g>
<!-- 1981584901696 -->
<g id="node31" class="node"><title>1981584901696</title>
<ellipse fill="black" stroke="black" cx="1168.7" cy="-18" rx="2.7" ry="2.7"/>
</g>
<!-- 1981584902128&#45;&#45;1981584901696 -->
<g id="edge24" class="edge"><title>1981584902128&#45;&#45;1981584901696</title>
<path fill="none" stroke="black" d="M1168.7,-71.6966C1168.7,-53.8826 1168.7,-27.7686 1168.7,-20.7764"/>
</g>
<!-- 1981584902704 -->
<g id="node32" class="node"><title>1981584902704</title>
<ellipse fill="none" stroke="black" cx="1337.7" cy="-18" rx="148.91" ry="18"/>
<text text-anchor="middle" x="1337.7" y="-14.5" font-family="Times New Roman,serif" font-size="15.00">Notify Result Appeal to Offender</text>
</g>
<!-- 1981584902128&#45;&#45;1981584902704 -->
<g id="edge25" class="edge"><title>1981584902128&#45;&#45;1981584902704</title>
<path fill="none" stroke="black" d="M1191.14,-79.7045C1218.35,-68.4359 1264.68,-49.2446 1297.97,-35.4544"/>
</g>
<!-- 1981584900352 -->
<g id="node34" class="node"><title>1981584900352</title>
<ellipse fill="black" stroke="black" cx="1506.7" cy="-18" rx="2.7" ry="2.7"/>
</g>
<!-- 1981584900160&#45;&#45;1981584900352 -->
<g id="edge27" class="edge"><title>1981584900160&#45;&#45;1981584900352</title>
<path fill="none" stroke="black" d="M1506.7,-71.6966C1506.7,-53.8826 1506.7,-27.7686 1506.7,-20.7764"/>
</g>
<!-- 1981590346336 -->
<g id="node35" class="node"><title>1981590346336</title>
<ellipse fill="none" stroke="black" cx="1573.7" cy="-18" rx="45.7249" ry="18"/>
<text text-anchor="middle" x="1573.7" y="-14.5" font-family="Times New Roman,serif" font-size="15.00">Payment</text>
</g>
<!-- 1981584900160&#45;&#45;1981590346336 -->
<g id="edge28" class="edge"><title>1981584900160&#45;&#45;1981590346336</title>
<path fill="none" stroke="black" d="M1520.58,-74.496C1531.54,-63.0429 1546.83,-47.0688 1558.2,-35.1982"/>
</g>
<!-- 1981584795776 -->
<g id="node39" class="node"><title>1981584795776</title>
<ellipse fill="black" stroke="black" cx="509.7" cy="-378" rx="2.7" ry="2.7"/>
</g>
<!-- 1981588608624&#45;&#45;1981584795776 -->
<g id="edge37" class="edge"><title>1981588608624&#45;&#45;1981584795776</title>
<path fill="none" stroke="black" d="M523.343,-432.055C518.765,-414.252 511.98,-387.865 510.162,-380.796"/>
</g>
<!-- 1981584902464 -->
<g id="node40" class="node"><title>1981584902464</title>
<ellipse fill="none" stroke="black" cx="651.7" cy="-378" rx="120.819" ry="18"/>
<text text-anchor="middle" x="651.7" y="-374.5" font-family="Times New Roman,serif" font-size="15.00">Send for Credit Collection</text>
</g>
<!-- 1981588608624&#45;&#45;1981584902464 -->
<g id="edge38" class="edge"><title>1981588608624&#45;&#45;1981584902464</title>
<path fill="none" stroke="black" d="M547.623,-437.753C567.75,-426.391 599.08,-408.705 622.11,-395.704"/>
</g>
</g>
</svg>
