<?xml version="1.0" encoding="UTF-8" standalone="no"?>
<!DOCTYPE svg PUBLIC "-//W3C//DTD SVG 1.1//EN"
 "http://www.w3.org/Graphics/SVG/1.1/DTD/svg11.dtd">
<!-- Generated by graphviz version 2.38.0 (20140413.2041)
 -->
<!-- Title: pt Pages: 1 -->
<svg width="1628pt" height="620pt"
 viewBox="0.00 0.00 1627.56 620.00" xmlns="http://www.w3.org/2000/svg" xmlns:xlink="http://www.w3.org/1999/xlink">
<g id="graph0" class="graph" transform="scale(1 1) rotate(0) translate(4 616)">
<title>pt</title>
<!-- 1981599798416 -->
<g id="node1" class="node"><title>1981599798416</title>
<ellipse fill="none" stroke="black" cx="421.7" cy="-594" rx="27" ry="18"/>
<text text-anchor="middle" x="421.7" y="-590.5" font-family="Times New Roman,serif" font-size="15.00">seq</text>
</g>
<!-- 1981599798080 -->
<g id="node2" class="node"><title>1981599798080</title>
<ellipse fill="none" stroke="black" cx="369.7" cy="-522" rx="59.5207" ry="18"/>
<text text-anchor="middle" x="369.7" y="-518.5" font-family="Times New Roman,serif" font-size="15.00">Create Fine</text>
</g>
<!-- 1981599798416&#45;&#45;1981599798080 -->
<g id="edge1" class="edge"><title>1981599798416&#45;&#45;1981599798080</title>
<path fill="none" stroke="black" d="M410.16,-577.465C401.901,-566.348 390.789,-551.39 382.3,-539.962"/>
</g>
<!-- 1981599798128 -->
<g id="node3" class="node"><title>1981599798128</title>
<ellipse fill="none" stroke="black" cx="474.7" cy="-522" rx="27" ry="18"/>
<text text-anchor="middle" x="474.7" y="-518.5" font-family="Times New Roman,serif" font-size="15.00">seq</text>
</g>
<!-- 1981599798416&#45;&#45;1981599798128 -->
<g id="edge40" class="edge"><title>1981599798416&#45;&#45;1981599798128</title>
<path fill="none" stroke="black" d="M433.462,-577.465C442.245,-565.865 454.195,-550.082 462.97,-538.492"/>
</g>
<!-- 1981599797504 -->
<g id="node4" class="node"><title>1981599797504</title>
<ellipse fill="none" stroke="black" cx="428.7" cy="-450" rx="46.6143" ry="18"/>
<text text-anchor="middle" x="428.7" y="-446.5" font-family="Times New Roman,serif" font-size="15.00">xor loop</text>
</g>
<!-- 1981599798128&#45;&#45;1981599797504 -->
<g id="edge36" class="edge"><title>1981599798128&#45;&#45;1981599797504</title>
<path fill="none" stroke="black" d="M464.262,-505.116C456.946,-493.983 447.183,-479.127 439.738,-467.797"/>
</g>
<!-- 1981599797648 -->
<g id="node39" class="node"><title>1981599797648</title>
<ellipse fill="none" stroke="black" cx="520.7" cy="-450" rx="27" ry="18"/>
<text text-anchor="middle" x="520.7" y="-446.5" font-family="Times New Roman,serif" font-size="15.00">xor</text>
</g>
<!-- 1981599798128&#45;&#45;1981599797648 -->
<g id="edge39" class="edge"><title>1981599798128&#45;&#45;1981599797648</title>
<path fill="none" stroke="black" d="M485.138,-505.116C492.666,-493.66 502.785,-478.263 510.303,-466.821"/>
</g>
<!-- 1981599797840 -->
<g id="node5" class="node"><title>1981599797840</title>
<ellipse fill="none" stroke="black" cx="404.7" cy="-378" rx="27" ry="18"/>
<text text-anchor="middle" x="404.7" y="-374.5" font-family="Times New Roman,serif" font-size="15.00">seq</text>
</g>
<!-- 1981599797504&#45;&#45;1981599797840 -->
<g id="edge34" class="edge"><title>1981599797504&#45;&#45;1981599797840</title>
<path fill="none" stroke="black" d="M422.89,-432.055C419.117,-421.049 414.219,-406.764 410.456,-395.789"/>
</g>
<!-- 1981599797792 -->
<g id="node38" class="node"><title>1981599797792</title>
<ellipse fill="black" stroke="black" cx="452.7" cy="-378" rx="2.7" ry="2.7"/>
</g>
<!-- 1981599797504&#45;&#45;1981599797792 -->
<g id="edge35" class="edge"><title>1981599797504&#45;&#45;1981599797792</title>
<path fill="none" stroke="black" d="M434.51,-432.055C440.614,-414.252 449.66,-387.865 452.084,-380.796"/>
</g>
<!-- 1981593210688 -->
<g id="node6" class="node"><title>1981593210688</title>
<ellipse fill="none" stroke="black" cx="138.7" cy="-306" rx="27" ry="18"/>
<text text-anchor="middle" x="138.7" y="-302.5" font-family="Times New Roman,serif" font-size="15.00">xor</text>
</g>
<!-- 1981599797840&#45;&#45;1981593210688 -->
<g id="edge4" class="edge"><title>1981599797840&#45;&#45;1981593210688</title>
<path fill="none" stroke="black" d="M379.675,-370.415C328.849,-357.039 214.072,-326.835 163.464,-313.517"/>
</g>
<!-- 1981599797408 -->
<g id="node9" class="node"><title>1981599797408</title>
<ellipse fill="none" stroke="black" cx="340.7" cy="-306" rx="27" ry="18"/>
<text text-anchor="middle" x="340.7" y="-302.5" font-family="Times New Roman,serif" font-size="15.00">xor</text>
</g>
<!-- 1981599797840&#45;&#45;1981599797408 -->
<g id="edge7" class="edge"><title>1981599797840&#45;&#45;1981599797408</title>
<path fill="none" stroke="black" d="M391.127,-362.155C380.266,-350.276 365.109,-333.697 354.253,-321.824"/>
</g>
<!-- 1981599797360 -->
<g id="node12" class="node"><title>1981599797360</title>
<ellipse fill="none" stroke="black" cx="468.7" cy="-306" rx="27" ry="18"/>
<text text-anchor="middle" x="468.7" y="-302.5" font-family="Times New Roman,serif" font-size="15.00">xor</text>
</g>
<!-- 1981599797840&#45;&#45;1981599797360 -->
<g id="edge10" class="edge"><title>1981599797840&#45;&#45;1981599797360</title>
<path fill="none" stroke="black" d="M418.273,-362.155C429.134,-350.276 444.291,-333.697 455.147,-321.824"/>
</g>
<!-- 1981599490544 -->
<g id="node15" class="node"><title>1981599490544</title>
<ellipse fill="none" stroke="black" cx="666.7" cy="-306" rx="27" ry="18"/>
<text text-anchor="middle" x="666.7" y="-302.5" font-family="Times New Roman,serif" font-size="15.00">xor</text>
</g>
<!-- 1981599797840&#45;&#45;1981599490544 -->
<g id="edge33" class="edge"><title>1981599797840&#45;&#45;1981599490544</title>
<path fill="none" stroke="black" d="M429.348,-370.415C479.283,-357.073 591.887,-326.988 641.926,-313.619"/>
</g>
<!-- 1981599490160 -->
<g id="node7" class="node"><title>1981599490160</title>
<ellipse fill="black" stroke="black" cx="64.7" cy="-234" rx="2.7" ry="2.7"/>
</g>
<!-- 1981593210688&#45;&#45;1981599490160 -->
<g id="edge2" class="edge"><title>1981593210688&#45;&#45;1981599490160</title>
<path fill="none" stroke="black" d="M123.725,-290.834C104.805,-272.937 73.8039,-243.612 66.3493,-236.56"/>
</g>
<!-- 1981598492800 -->
<g id="node8" class="node"><title>1981598492800</title>
<ellipse fill="none" stroke="black" cx="138.7" cy="-234" rx="52.6228" ry="18"/>
<text text-anchor="middle" x="138.7" y="-230.5" font-family="Times New Roman,serif" font-size="15.00">Send Fine</text>
</g>
<!-- 1981593210688&#45;&#45;1981598492800 -->
<g id="edge3" class="edge"><title>1981593210688&#45;&#45;1981598492800</title>
<path fill="none" stroke="black" d="M138.7,-287.697C138.7,-276.846 138.7,-262.917 138.7,-252.104"/>
</g>
<!-- 1981599490688 -->
<g id="node10" class="node"><title>1981599490688</title>
<ellipse fill="black" stroke="black" cx="212.7" cy="-234" rx="2.7" ry="2.7"/>
</g>
<!-- 1981599797408&#45;&#45;1981599490688 -->
<g id="edge5" class="edge"><title>1981599797408&#45;&#45;1981599490688</title>
<path fill="none" stroke="black" d="M320.418,-293.908C287.991,-276.175 226.882,-242.756 214.804,-236.151"/>
</g>
<!-- 1981599490880 -->
<g id="node11" class="node"><title>1981599490880</title>
<ellipse fill="none" stroke="black" cx="340.7" cy="-234" rx="107.914" ry="18"/>
<text text-anchor="middle" x="340.7" y="-230.5" font-family="Times New Roman,serif" font-size="15.00">Insert Fine Notification</text>
</g>
<!-- 1981599797408&#45;&#45;1981599490880 -->
<g id="edge6" class="edge"><title>1981599797408&#45;&#45;1981599490880</title>
<path fill="none" stroke="black" d="M340.7,-287.697C340.7,-276.846 340.7,-262.917 340.7,-252.104"/>
</g>
<!-- 1981599491072 -->
<g id="node13" class="node"><title>1981599491072</title>
<ellipse fill="black" stroke="black" cx="468.7" cy="-234" rx="2.7" ry="2.7"/>
</g>
<!-- 1981599797360&#45;&#45;1981599491072 -->
<g id="edge8" class="edge"><title>1981599797360&#45;&#45;1981599491072</title>
<path fill="none" stroke="black" d="M468.7,-287.697C468.7,-269.883 468.7,-243.769 468.7,-236.776"/>
</g>
<!-- 1981599491168 -->
<g id="node14" class="node"><title>1981599491168</title>
<ellipse fill="none" stroke="black" cx="567.7" cy="-234" rx="78.5434" ry="18"/>
<text text-anchor="middle" x="567.7" y="-230.5" font-family="Times New Roman,serif" font-size="15.00">Appeal to Judge</text>
</g>
<!-- 1981599797360&#45;&#45;1981599491168 -->
<g id="edge9" class="edge"><title>1981599797360&#45;&#45;1981599491168</title>
<path fill="none" stroke="black" d="M486.858,-292.161C503.046,-280.715 526.832,-263.897 544.415,-251.464"/>
</g>
<!-- 1981599491360 -->
<g id="node16" class="node"><title>1981599491360</title>
<ellipse fill="black" stroke="black" cx="666.7" cy="-234" rx="2.7" ry="2.7"/>
</g>
<!-- 1981599490544&#45;&#45;1981599491360 -->
<g id="edge11" class="edge"><title>1981599490544&#45;&#45;1981599491360</title>
<path fill="none" stroke="black" d="M666.7,-287.697C666.7,-269.883 666.7,-243.769 666.7,-236.776"/>
</g>
<!-- 1981599491456 -->
<g id="node17" class="node"><title>1981599491456</title>
<ellipse fill="none" stroke="black" cx="733.7" cy="-234" rx="46.6143" ry="18"/>
<text text-anchor="middle" x="733.7" y="-230.5" font-family="Times New Roman,serif" font-size="15.00">xor loop</text>
</g>
<!-- 1981599490544&#45;&#45;1981599491456 -->
<g id="edge32" class="edge"><title>1981599490544&#45;&#45;1981599491456</title>
<path fill="none" stroke="black" d="M680.582,-290.496C691.545,-279.043 706.834,-263.069 718.196,-251.198"/>
</g>
<!-- 1981599491600 -->
<g id="node18" class="node"><title>1981599491600</title>
<ellipse fill="none" stroke="black" cx="709.7" cy="-162" rx="27" ry="18"/>
<text text-anchor="middle" x="709.7" y="-158.5" font-family="Times New Roman,serif" font-size="15.00">seq</text>
</g>
<!-- 1981599491456&#45;&#45;1981599491600 -->
<g id="edge30" class="edge"><title>1981599491456&#45;&#45;1981599491600</title>
<path fill="none" stroke="black" d="M727.89,-216.055C724.117,-205.049 719.219,-190.764 715.456,-179.789"/>
</g>
<!-- 1981599492032 -->
<g id="node37" class="node"><title>1981599492032</title>
<ellipse fill="black" stroke="black" cx="757.7" cy="-162" rx="2.7" ry="2.7"/>
</g>
<!-- 1981599491456&#45;&#45;1981599492032 -->
<g id="edge31" class="edge"><title>1981599491456&#45;&#45;1981599492032</title>
<path fill="none" stroke="black" d="M739.51,-216.055C745.614,-198.252 754.66,-171.865 757.084,-164.796"/>
</g>
<!-- 1981599491936 -->
<g id="node19" class="node"><title>1981599491936</title>
<ellipse fill="none" stroke="black" cx="167.7" cy="-90" rx="27" ry="18"/>
<text text-anchor="middle" x="167.7" y="-86.5" font-family="Times New Roman,serif" font-size="15.00">xor</text>
</g>
<!-- 1981599491600&#45;&#45;1981599491936 -->
<g id="edge14" class="edge"><title>1981599491600&#45;&#45;1981599491936</title>
<path fill="none" stroke="black" d="M683.191,-157.576C591.164,-145.691 286.106,-106.292 194.158,-94.417"/>
</g>
<!-- 1981599492128 -->
<g id="node22" class="node"><title>1981599492128</title>
<ellipse fill="none" stroke="black" cx="415.7" cy="-90" rx="27" ry="18"/>
<text text-anchor="middle" x="415.7" y="-86.5" font-family="Times New Roman,serif" font-size="15.00">xor</text>
</g>
<!-- 1981599491600&#45;&#45;1981599492128 -->
<g id="edge17" class="edge"><title>1981599491600&#45;&#45;1981599492128</title>
<path fill="none" stroke="black" d="M684.634,-155.032C629.089,-141.807 496.189,-110.164 440.703,-96.9531"/>
</g>
<!-- 1981599492416 -->
<g id="node25" class="node"><title>1981599492416</title>
<ellipse fill="none" stroke="black" cx="639.7" cy="-90" rx="27" ry="18"/>
<text text-anchor="middle" x="639.7" y="-86.5" font-family="Times New Roman,serif" font-size="15.00">xor</text>
</g>
<!-- 1981599491600&#45;&#45;1981599492416 -->
<g id="edge20" class="edge"><title>1981599491600&#45;&#45;1981599492416</title>
<path fill="none" stroke="black" d="M695.196,-146.496C683.182,-134.482 666.194,-117.494 654.185,-105.485"/>
</g>
<!-- 1981599492704 -->
<g id="node28" class="node"><title>1981599492704</title>
<ellipse fill="none" stroke="black" cx="780.7" cy="-90" rx="27" ry="18"/>
<text text-anchor="middle" x="780.7" y="-86.5" font-family="Times New Roman,serif" font-size="15.00">xor</text>
</g>
<!-- 1981599491600&#45;&#45;1981599492704 -->
<g id="edge23" class="edge"><title>1981599491600&#45;&#45;1981599492704</title>
<path fill="none" stroke="black" d="M724.411,-146.496C736.597,-134.482 753.827,-117.494 766.008,-105.485"/>
</g>
<!-- 1981599492992 -->
<g id="node31" class="node"><title>1981599492992</title>
<ellipse fill="none" stroke="black" cx="1168.7" cy="-90" rx="27" ry="18"/>
<text text-anchor="middle" x="1168.7" y="-86.5" font-family="Times New Roman,serif" font-size="15.00">xor</text>
</g>
<!-- 1981599491600&#45;&#45;1981599492992 -->
<g id="edge26" class="edge"><title>1981599491600&#45;&#45;1981599492992</title>
<path fill="none" stroke="black" d="M735.693,-157.036C816.387,-144.73 1062.02,-107.27 1142.71,-94.9639"/>
</g>
<!-- 1981599493280 -->
<g id="node34" class="node"><title>1981599493280</title>
<ellipse fill="none" stroke="black" cx="1506.7" cy="-90" rx="27" ry="18"/>
<text text-anchor="middle" x="1506.7" y="-86.5" font-family="Times New Roman,serif" font-size="15.00">xor</text>
</g>
<!-- 1981599491600&#45;&#45;1981599493280 -->
<g id="edge29" class="edge"><title>1981599491600&#45;&#45;1981599493280</title>
<path fill="none" stroke="black" d="M736.674,-158.631C858.764,-147.908 1358.91,-103.981 1480.14,-93.3329"/>
</g>
<!-- 1981599492080 -->
<g id="node20" class="node"><title>1981599492080</title>
<ellipse fill="black" stroke="black" cx="2.7" cy="-18" rx="2.7" ry="2.7"/>
</g>
<!-- 1981599491936&#45;&#45;1981599492080 -->
<g id="edge12" class="edge"><title>1981599491936&#45;&#45;1981599492080</title>
<path fill="none" stroke="black" d="M145.447,-79.5595C104.28,-62.0945 19.1048,-25.9596 4.76938,-19.8779"/>
</g>
<!-- 1981599492176 -->
<g id="node21" class="node"><title>1981599492176</title>
<ellipse fill="none" stroke="black" cx="167.7" cy="-18" rx="144.571" ry="18"/>
<text text-anchor="middle" x="167.7" y="-14.5" font-family="Times New Roman,serif" font-size="15.00">Insert Date Appeal to Prefecture</text>
</g>
<!-- 1981599491936&#45;&#45;1981599492176 -->
<g id="edge13" class="edge"><title>1981599491936&#45;&#45;1981599492176</title>
<path fill="none" stroke="black" d="M167.7,-71.6966C167.7,-60.8463 167.7,-46.9167 167.7,-36.1043"/>
</g>
<!-- 1981599492368 -->
<g id="node23" class="node"><title>1981599492368</title>
<ellipse fill="black" stroke="black" cx="332.7" cy="-18" rx="2.7" ry="2.7"/>
</g>
<!-- 1981599492128&#45;&#45;1981599492368 -->
<g id="edge15" class="edge"><title>1981599492128&#45;&#45;1981599492368</title>
<path fill="none" stroke="black" d="M399.302,-75.1703C378.137,-57.3201 343.019,-27.7024 334.57,-20.5768"/>
</g>
<!-- 1981599492464 -->
<g id="node24" class="node"><title>1981599492464</title>
<ellipse fill="none" stroke="black" cx="415.7" cy="-18" rx="61.6894" ry="18"/>
<text text-anchor="middle" x="415.7" y="-14.5" font-family="Times New Roman,serif" font-size="15.00">Add penalty</text>
</g>
<!-- 1981599492128&#45;&#45;1981599492464 -->
<g id="edge16" class="edge"><title>1981599492128&#45;&#45;1981599492464</title>
<path fill="none" stroke="black" d="M415.7,-71.6966C415.7,-60.8463 415.7,-46.9167 415.7,-36.1043"/>
</g>
<!-- 1981599492656 -->
<g id="node26" class="node"><title>1981599492656</title>
<ellipse fill="black" stroke="black" cx="498.7" cy="-18" rx="2.7" ry="2.7"/>
</g>
<!-- 1981599492416&#45;&#45;1981599492656 -->
<g id="edge18" class="edge"><title>1981599492416&#45;&#45;1981599492656</title>
<path fill="none" stroke="black" d="M618.591,-78.5203C582.944,-60.8234 513.442,-26.3188 500.724,-20.0047"/>
</g>
<!-- 1981599492752 -->
<g id="node27" class="node"><title>1981599492752</title>
<ellipse fill="none" stroke="black" cx="639.7" cy="-18" rx="120.43" ry="18"/>
<text text-anchor="middle" x="639.7" y="-14.5" font-family="Times New Roman,serif" font-size="15.00">Send Appeal to Prefecture</text>
</g>
<!-- 1981599492416&#45;&#45;1981599492752 -->
<g id="edge19" class="edge"><title>1981599492416&#45;&#45;1981599492752</title>
<path fill="none" stroke="black" d="M639.7,-71.6966C639.7,-60.8463 639.7,-46.9167 639.7,-36.1043"/>
</g>
<!-- 1981599492944 -->
<g id="node29" class="node"><title>1981599492944</title>
<ellipse fill="black" stroke="black" cx="780.7" cy="-18" rx="2.7" ry="2.7"/>
</g>
<!-- 1981599492704&#45;&#45;1981599492944 -->
<g id="edge21" class="edge"><title>1981599492704&#45;&#45;1981599492944</title>
<path fill="none" stroke="black" d="M780.7,-71.6966C780.7,-53.8826 780.7,-27.7686 780.7,-20.7764"/>
</g>
<!-- 1981599493040 -->
<g id="node30" class="node"><title>1981599493040</title>
<ellipse fill="none" stroke="black" cx="974.7" cy="-18" rx="173.941" ry="18"/>
<text text-anchor="middle" x="974.7" y="-14.5" font-family="Times New Roman,serif" font-size="15.00">Receive Result Appeal from Prefecture</text>
</g>
<!-- 1981599492704&#45;&#45;1981599493040 -->
<g id="edge22" class="edge"><title>1981599492704&#45;&#45;1981599493040</title>
<path fill="none" stroke="black" d="M804.101,-80.5564C834.939,-69.4293 889.853,-49.615 929.049,-35.472"/>
</g>
<!-- 1981599493232 -->
<g id="node32" class="node"><title>1981599493232</title>
<ellipse fill="black" stroke="black" cx="1168.7" cy="-18" rx="2.7" ry="2.7"/>
</g>
<!-- 1981599492992&#45;&#45;1981599493232 -->
<g id="edge24" class="edge"><title>1981599492992&#45;&#45;1981599493232</title>
<path fill="none" stroke="black" d="M1168.7,-71.6966C1168.7,-53.8826 1168.7,-27.7686 1168.7,-20.7764"/>
</g>
<!-- 1981599493328 -->
<g id="node33" class="node"><title>1981599493328</title>
<ellipse fill="none" stroke="black" cx="1337.7" cy="-18" rx="148.91" ry="18"/>
<text text-anchor="middle" x="1337.7" y="-14.5" font-family="Times New Roman,serif" font-size="15.00">Notify Result Appeal to Offender</text>
</g>
<!-- 1981599492992&#45;&#45;1981599493328 -->
<g id="edge25" class="edge"><title>1981599492992&#45;&#45;1981599493328</title>
<path fill="none" stroke="black" d="M1191.14,-79.7045C1218.35,-68.4359 1264.68,-49.2446 1297.97,-35.4544"/>
</g>
<!-- 1981599493520 -->
<g id="node35" class="node"><title>1981599493520</title>
<ellipse fill="black" stroke="black" cx="1506.7" cy="-18" rx="2.7" ry="2.7"/>
</g>
<!-- 1981599493280&#45;&#45;1981599493520 -->
<g id="edge27" class="edge"><title>1981599493280&#45;&#45;1981599493520</title>
<path fill="none" stroke="black" d="M1506.7,-71.6966C1506.7,-53.8826 1506.7,-27.7686 1506.7,-20.7764"/>
</g>
<!-- 1981599493616 -->
<g id="node36" class="node"><title>1981599493616</title>
<ellipse fill="none" stroke="black" cx="1573.7" cy="-18" rx="45.7249" ry="18"/>
<text text-anchor="middle" x="1573.7" y="-14.5" font-family="Times New Roman,serif" font-size="15.00">Payment</text>
</g>
<!-- 1981599493280&#45;&#45;1981599493616 -->
<g id="edge28" class="edge"><title>1981599493280&#45;&#45;1981599493616</title>
<path fill="none" stroke="black" d="M1520.58,-74.496C1531.54,-63.0429 1546.83,-47.0688 1558.2,-35.1982"/>
</g>
<!-- 1981599491264 -->
<g id="node40" class="node"><title>1981599491264</title>
<ellipse fill="black" stroke="black" cx="497.7" cy="-378" rx="2.7" ry="2.7"/>
</g>
<!-- 1981599797648&#45;&#45;1981599491264 -->
<g id="edge37" class="edge"><title>1981599797648&#45;&#45;1981599491264</title>
<path fill="none" stroke="black" d="M515.132,-432.055C509.283,-414.252 500.613,-387.865 498.29,-380.796"/>
</g>
<!-- 1981599491792 -->
<g id="node41" class="node"><title>1981599491792</title>
<ellipse fill="none" stroke="black" cx="639.7" cy="-378" rx="120.819" ry="18"/>
<text text-anchor="middle" x="639.7" y="-374.5" font-family="Times New Roman,serif" font-size="15.00">Send for Credit Collection</text>
</g>
<!-- 1981599797648&#45;&#45;1981599491792 -->
<g id="edge38" class="edge"><title>1981599797648&#45;&#45;1981599491792</title>
<path fill="none" stroke="black" d="M540.35,-437.441C559.759,-426.024 589.636,-408.449 611.56,-395.553"/>
</g>
</g>
</svg>
