<?xml version="1.0" encoding="UTF-8" standalone="no"?>
<!DOCTYPE svg PUBLIC "-//W3C//DTD SVG 1.1//EN"
 "http://www.w3.org/Graphics/SVG/1.1/DTD/svg11.dtd">
<!-- Generated by graphviz version 2.38.0 (20140413.2041)
 -->
<!-- Title: pt Pages: 1 -->
<svg width="1447pt" height="692pt"
 viewBox="0.00 0.00 1447.35 692.00" xmlns="http://www.w3.org/2000/svg" xmlns:xlink="http://www.w3.org/1999/xlink">
<g id="graph0" class="graph" transform="scale(1 1) rotate(0) translate(4 688)">
<title>pt</title>
<!-- 1981581196112 -->
<g id="node1" class="node"><title>1981581196112</title>
<ellipse fill="none" stroke="black" cx="498.811" cy="-666" rx="27" ry="18"/>
<text text-anchor="middle" x="498.811" y="-662.5" font-family="Times New Roman,serif" font-size="15.00">seq</text>
</g>
<!-- 1981582399664 -->
<g id="node2" class="node"><title>1981582399664</title>
<ellipse fill="none" stroke="black" cx="393.811" cy="-594" rx="59.5207" ry="18"/>
<text text-anchor="middle" x="393.811" y="-590.5" font-family="Times New Roman,serif" font-size="15.00">Create Fine</text>
</g>
<!-- 1981581196112&#45;&#45;1981582399664 -->
<g id="edge1" class="edge"><title>1981581196112&#45;&#45;1981582399664</title>
<path fill="none" stroke="black" d="M480.039,-652.485C462.461,-640.767 436.134,-623.215 417.198,-610.591"/>
</g>
<!-- 1981827474816 -->
<g id="node3" class="node"><title>1981827474816</title>
<ellipse fill="none" stroke="black" cx="498.811" cy="-594" rx="27" ry="18"/>
<text text-anchor="middle" x="498.811" y="-590.5" font-family="Times New Roman,serif" font-size="15.00">and</text>
</g>
<!-- 1981581196112&#45;&#45;1981827474816 -->
<g id="edge41" class="edge"><title>1981581196112&#45;&#45;1981827474816</title>
<path fill="none" stroke="black" d="M498.811,-647.697C498.811,-636.846 498.811,-622.917 498.811,-612.104"/>
</g>
<!-- 1981827476160 -->
<g id="node43" class="node"><title>1981827476160</title>
<ellipse fill="none" stroke="black" cx="570.811" cy="-594" rx="27" ry="18"/>
<text text-anchor="middle" x="570.811" y="-590.5" font-family="Times New Roman,serif" font-size="15.00">xor</text>
</g>
<!-- 1981581196112&#45;&#45;1981827476160 -->
<g id="edge44" class="edge"><title>1981581196112&#45;&#45;1981827476160</title>
<path fill="none" stroke="black" d="M513.381,-650.834C525.791,-638.77 543.542,-621.512 556.015,-609.385"/>
</g>
<!-- 1981827476544 -->
<g id="node4" class="node"><title>1981827476544</title>
<ellipse fill="none" stroke="black" cx="305.811" cy="-522" rx="27" ry="18"/>
<text text-anchor="middle" x="305.811" y="-518.5" font-family="Times New Roman,serif" font-size="15.00">and</text>
</g>
<!-- 1981827474816&#45;&#45;1981827476544 -->
<g id="edge17" class="edge"><title>1981827474816&#45;&#45;1981827476544</title>
<path fill="none" stroke="black" d="M475.531,-584.556C438.335,-571.066 365.931,-544.805 328.874,-531.365"/>
</g>
<!-- 1981827475200 -->
<g id="node20" class="node"><title>1981827475200</title>
<ellipse fill="none" stroke="black" cx="504.811" cy="-522" rx="27" ry="18"/>
<text text-anchor="middle" x="504.811" y="-518.5" font-family="Times New Roman,serif" font-size="15.00">xor</text>
</g>
<!-- 1981827474816&#45;&#45;1981827475200 -->
<g id="edge40" class="edge"><title>1981827474816&#45;&#45;1981827475200</title>
<path fill="none" stroke="black" d="M500.294,-575.697C501.224,-564.846 502.418,-550.917 503.345,-540.104"/>
</g>
<!-- 1981581200448 -->
<g id="node5" class="node"><title>1981581200448</title>
<ellipse fill="none" stroke="black" cx="164.811" cy="-450" rx="46.6143" ry="18"/>
<text text-anchor="middle" x="164.811" y="-446.5" font-family="Times New Roman,serif" font-size="15.00">xor loop</text>
</g>
<!-- 1981827476544&#45;&#45;1981581200448 -->
<g id="edge4" class="edge"><title>1981827476544&#45;&#45;1981581200448</title>
<path fill="none" stroke="black" d="M284.702,-510.52C260.118,-498.316 219.432,-478.117 192.374,-464.684"/>
</g>
<!-- 1981581198960 -->
<g id="node8" class="node"><title>1981581198960</title>
<ellipse fill="none" stroke="black" cx="305.811" cy="-450" rx="27" ry="18"/>
<text text-anchor="middle" x="305.811" y="-446.5" font-family="Times New Roman,serif" font-size="15.00">xor</text>
</g>
<!-- 1981827476544&#45;&#45;1981581198960 -->
<g id="edge16" class="edge"><title>1981827476544&#45;&#45;1981581198960</title>
<path fill="none" stroke="black" d="M305.811,-503.697C305.811,-492.846 305.811,-478.917 305.811,-468.104"/>
</g>
<!-- 1981581201264 -->
<g id="node6" class="node"><title>1981581201264</title>
<ellipse fill="black" stroke="black" cx="97.8111" cy="-378" rx="2.7" ry="2.7"/>
</g>
<!-- 1981581200448&#45;&#45;1981581201264 -->
<g id="edge2" class="edge"><title>1981581200448&#45;&#45;1981581201264</title>
<path fill="none" stroke="black" d="M149.272,-432.765C131.953,-414.671 105.542,-387.078 99.2104,-380.462"/>
</g>
<!-- 1981581200832 -->
<g id="node7" class="node"><title>1981581200832</title>
<ellipse fill="none" stroke="black" cx="164.811" cy="-378" rx="45.7249" ry="18"/>
<text text-anchor="middle" x="164.811" y="-374.5" font-family="Times New Roman,serif" font-size="15.00">Payment</text>
</g>
<!-- 1981581200448&#45;&#45;1981581200832 -->
<g id="edge3" class="edge"><title>1981581200448&#45;&#45;1981581200832</title>
<path fill="none" stroke="black" d="M164.811,-431.697C164.811,-420.846 164.811,-406.917 164.811,-396.104"/>
</g>
<!-- 1981581197424 -->
<g id="node9" class="node"><title>1981581197424</title>
<ellipse fill="black" stroke="black" cx="231.811" cy="-378" rx="2.7" ry="2.7"/>
</g>
<!-- 1981581198960&#45;&#45;1981581197424 -->
<g id="edge5" class="edge"><title>1981581198960&#45;&#45;1981581197424</title>
<path fill="none" stroke="black" d="M290.836,-434.834C271.916,-416.937 240.915,-387.612 233.46,-380.56"/>
</g>
<!-- 1981581200784 -->
<g id="node10" class="node"><title>1981581200784</title>
<ellipse fill="none" stroke="black" cx="305.811" cy="-378" rx="52.6228" ry="18"/>
<text text-anchor="middle" x="305.811" y="-374.5" font-family="Times New Roman,serif" font-size="15.00">Send Fine</text>
</g>
<!-- 1981581198960&#45;&#45;1981581200784 -->
<g id="edge6" class="edge"><title>1981581198960&#45;&#45;1981581200784</title>
<path fill="none" stroke="black" d="M305.811,-431.697C305.811,-420.846 305.811,-406.917 305.811,-396.104"/>
</g>
<!-- 1981581197520 -->
<g id="node11" class="node"><title>1981581197520</title>
<ellipse fill="none" stroke="black" cx="403.811" cy="-378" rx="27" ry="18"/>
<text text-anchor="middle" x="403.811" y="-374.5" font-family="Times New Roman,serif" font-size="15.00">seq</text>
</g>
<!-- 1981581198960&#45;&#45;1981581197520 -->
<g id="edge15" class="edge"><title>1981581198960&#45;&#45;1981581197520</title>
<path fill="none" stroke="black" d="M323.786,-436.161C341.468,-423.531 368.307,-404.36 385.95,-391.758"/>
</g>
<!-- 1981581201360 -->
<g id="node12" class="node"><title>1981581201360</title>
<ellipse fill="none" stroke="black" cx="52.8111" cy="-306" rx="52.6228" ry="18"/>
<text text-anchor="middle" x="52.8111" y="-302.5" font-family="Times New Roman,serif" font-size="15.00">Send Fine</text>
</g>
<!-- 1981581197520&#45;&#45;1981581201360 -->
<g id="edge7" class="edge"><title>1981581197520&#45;&#45;1981581201360</title>
<path fill="none" stroke="black" d="M378.285,-371.909C319.048,-360.096 171.636,-330.697 97.2456,-315.862"/>
</g>
<!-- 1981581197616 -->
<g id="node13" class="node"><title>1981581197616</title>
<ellipse fill="none" stroke="black" cx="231.811" cy="-306" rx="107.914" ry="18"/>
<text text-anchor="middle" x="231.811" y="-302.5" font-family="Times New Roman,serif" font-size="15.00">Insert Fine Notification</text>
</g>
<!-- 1981581197520&#45;&#45;1981581197616 -->
<g id="edge8" class="edge"><title>1981581197520&#45;&#45;1981581197616</title>
<path fill="none" stroke="black" d="M381.325,-367.849C353.279,-356.434 304.87,-336.733 270.746,-322.846"/>
</g>
<!-- 1981581197856 -->
<g id="node14" class="node"><title>1981581197856</title>
<ellipse fill="none" stroke="black" cx="403.811" cy="-306" rx="46.6143" ry="18"/>
<text text-anchor="middle" x="403.811" y="-302.5" font-family="Times New Roman,serif" font-size="15.00">xor loop</text>
</g>
<!-- 1981581197520&#45;&#45;1981581197856 -->
<g id="edge11" class="edge"><title>1981581197520&#45;&#45;1981581197856</title>
<path fill="none" stroke="black" d="M403.811,-359.697C403.811,-348.846 403.811,-334.917 403.811,-324.104"/>
</g>
<!-- 1981581198096 -->
<g id="node17" class="node"><title>1981581198096</title>
<ellipse fill="none" stroke="black" cx="514.811" cy="-306" rx="46.6143" ry="18"/>
<text text-anchor="middle" x="514.811" y="-302.5" font-family="Times New Roman,serif" font-size="15.00">xor loop</text>
</g>
<!-- 1981581197520&#45;&#45;1981581198096 -->
<g id="edge14" class="edge"><title>1981581197520&#45;&#45;1981581198096</title>
<path fill="none" stroke="black" d="M422.893,-364.967C441.86,-353.005 470.988,-334.636 491.357,-321.791"/>
</g>
<!-- 1981581250416 -->
<g id="node15" class="node"><title>1981581250416</title>
<ellipse fill="black" stroke="black" cx="327.811" cy="-234" rx="2.7" ry="2.7"/>
</g>
<!-- 1981581197856&#45;&#45;1981581250416 -->
<g id="edge9" class="edge"><title>1981581197856&#45;&#45;1981581250416</title>
<path fill="none" stroke="black" d="M386.565,-289.116C366.945,-271.045 336.677,-243.166 329.416,-236.478"/>
</g>
<!-- 1981581250128 -->
<g id="node16" class="node"><title>1981581250128</title>
<ellipse fill="none" stroke="black" cx="410.811" cy="-234" rx="61.6894" ry="18"/>
<text text-anchor="middle" x="410.811" y="-230.5" font-family="Times New Roman,serif" font-size="15.00">Add penalty</text>
</g>
<!-- 1981581197856&#45;&#45;1981581250128 -->
<g id="edge10" class="edge"><title>1981581197856&#45;&#45;1981581250128</title>
<path fill="none" stroke="black" d="M405.541,-287.697C406.626,-276.846 408.019,-262.917 409.101,-252.104"/>
</g>
<!-- 1981581249600 -->
<g id="node18" class="node"><title>1981581249600</title>
<ellipse fill="black" stroke="black" cx="507.811" cy="-234" rx="2.7" ry="2.7"/>
</g>
<!-- 1981581198096&#45;&#45;1981581249600 -->
<g id="edge12" class="edge"><title>1981581198096&#45;&#45;1981581249600</title>
<path fill="none" stroke="black" d="M513.081,-287.697C511.299,-269.883 508.688,-243.769 507.989,-236.776"/>
</g>
<!-- 1981581249456 -->
<g id="node19" class="node"><title>1981581249456</title>
<ellipse fill="none" stroke="black" cx="606.811" cy="-234" rx="78.5434" ry="18"/>
<text text-anchor="middle" x="606.811" y="-230.5" font-family="Times New Roman,serif" font-size="15.00">Appeal to Judge</text>
</g>
<!-- 1981581198096&#45;&#45;1981581249456 -->
<g id="edge13" class="edge"><title>1981581198096&#45;&#45;1981581249456</title>
<path fill="none" stroke="black" d="M535.229,-289.465C550.051,-278.187 570.07,-262.955 585.168,-251.467"/>
</g>
<!-- 1981827475104 -->
<g id="node21" class="node"><title>1981827475104</title>
<ellipse fill="black" stroke="black" cx="504.811" cy="-450" rx="2.7" ry="2.7"/>
</g>
<!-- 1981827475200&#45;&#45;1981827475104 -->
<g id="edge18" class="edge"><title>1981827475200&#45;&#45;1981827475104</title>
<path fill="none" stroke="black" d="M504.811,-503.697C504.811,-485.883 504.811,-459.769 504.811,-452.776"/>
</g>
<!-- 1981827474192 -->
<g id="node22" class="node"><title>1981827474192</title>
<ellipse fill="none" stroke="black" cx="630.811" cy="-450" rx="27" ry="18"/>
<text text-anchor="middle" x="630.811" y="-446.5" font-family="Times New Roman,serif" font-size="15.00">seq</text>
</g>
<!-- 1981827475200&#45;&#45;1981827474192 -->
<g id="edge39" class="edge"><title>1981827475200&#45;&#45;1981827474192</title>
<path fill="none" stroke="black" d="M525.055,-509.753C548.568,-496.691 587.126,-475.27 610.617,-462.219"/>
</g>
<!-- 1981581197904 -->
<g id="node23" class="node"><title>1981581197904</title>
<ellipse fill="none" stroke="black" cx="630.811" cy="-378" rx="27" ry="18"/>
<text text-anchor="middle" x="630.811" y="-374.5" font-family="Times New Roman,serif" font-size="15.00">xor</text>
</g>
<!-- 1981827474192&#45;&#45;1981581197904 -->
<g id="edge21" class="edge"><title>1981827474192&#45;&#45;1981581197904</title>
<path fill="none" stroke="black" d="M630.811,-431.697C630.811,-420.846 630.811,-406.917 630.811,-396.104"/>
</g>
<!-- 1981581199152 -->
<g id="node26" class="node"><title>1981581199152</title>
<ellipse fill="none" stroke="black" cx="779.811" cy="-378" rx="27" ry="18"/>
<text text-anchor="middle" x="779.811" y="-374.5" font-family="Times New Roman,serif" font-size="15.00">xor</text>
</g>
<!-- 1981827474192&#45;&#45;1981581199152 -->
<g id="edge38" class="edge"><title>1981827474192&#45;&#45;1981581199152</title>
<path fill="none" stroke="black" d="M652.159,-438.971C680.323,-425.739 729.633,-402.573 758.018,-389.238"/>
</g>
<!-- 1981581198000 -->
<g id="node24" class="node"><title>1981581198000</title>
<ellipse fill="black" stroke="black" cx="581.811" cy="-306" rx="2.7" ry="2.7"/>
</g>
<!-- 1981581197904&#45;&#45;1981581198000 -->
<g id="edge19" class="edge"><title>1981581197904&#45;&#45;1981581198000</title>
<path fill="none" stroke="black" d="M619.936,-361.465C607.305,-343.42 587.589,-315.254 582.857,-308.494"/>
</g>
<!-- 1981581200064 -->
<g id="node25" class="node"><title>1981581200064</title>
<ellipse fill="none" stroke="black" cx="680.811" cy="-306" rx="78.5434" ry="18"/>
<text text-anchor="middle" x="680.811" y="-302.5" font-family="Times New Roman,serif" font-size="15.00">Appeal to Judge</text>
</g>
<!-- 1981581197904&#45;&#45;1981581200064 -->
<g id="edge20" class="edge"><title>1981581197904&#45;&#45;1981581200064</title>
<path fill="none" stroke="black" d="M641.908,-361.465C649.848,-350.348 660.533,-335.39 668.695,-323.962"/>
</g>
<!-- 1981581199872 -->
<g id="node27" class="node"><title>1981581199872</title>
<ellipse fill="black" stroke="black" cx="779.811" cy="-306" rx="2.7" ry="2.7"/>
</g>
<!-- 1981581199152&#45;&#45;1981581199872 -->
<g id="edge22" class="edge"><title>1981581199152&#45;&#45;1981581199872</title>
<path fill="none" stroke="black" d="M779.811,-359.697C779.811,-341.883 779.811,-315.769 779.811,-308.776"/>
</g>
<!-- 1981581199344 -->
<g id="node28" class="node"><title>1981581199344</title>
<ellipse fill="none" stroke="black" cx="827.811" cy="-306" rx="27" ry="18"/>
<text text-anchor="middle" x="827.811" y="-302.5" font-family="Times New Roman,serif" font-size="15.00">and</text>
</g>
<!-- 1981581199152&#45;&#45;1981581199344 -->
<g id="edge37" class="edge"><title>1981581199152&#45;&#45;1981581199344</title>
<path fill="none" stroke="black" d="M790.703,-361.116C798.558,-349.66 809.117,-334.263 816.962,-322.821"/>
</g>
<!-- 1981581198912 -->
<g id="node29" class="node"><title>1981581198912</title>
<ellipse fill="none" stroke="black" cx="789.811" cy="-234" rx="27" ry="18"/>
<text text-anchor="middle" x="789.811" y="-230.5" font-family="Times New Roman,serif" font-size="15.00">xor</text>
</g>
<!-- 1981581199344&#45;&#45;1981581198912 -->
<g id="edge25" class="edge"><title>1981581199344&#45;&#45;1981581198912</title>
<path fill="none" stroke="black" d="M818.998,-288.765C812.859,-277.456 804.705,-262.437 798.577,-251.147"/>
</g>
<!-- 1981581197568 -->
<g id="node32" class="node"><title>1981581197568</title>
<ellipse fill="none" stroke="black" cx="974.811" cy="-234" rx="27" ry="18"/>
<text text-anchor="middle" x="974.811" y="-230.5" font-family="Times New Roman,serif" font-size="15.00">seq</text>
</g>
<!-- 1981581199344&#45;&#45;1981581197568 -->
<g id="edge36" class="edge"><title>1981581199344&#45;&#45;1981581197568</title>
<path fill="none" stroke="black" d="M849.186,-294.821C877.056,-281.55 925.527,-258.468 953.41,-245.191"/>
</g>
<!-- 1981581200016 -->
<g id="node30" class="node"><title>1981581200016</title>
<ellipse fill="black" stroke="black" cx="648.811" cy="-162" rx="2.7" ry="2.7"/>
</g>
<!-- 1981581198912&#45;&#45;1981581200016 -->
<g id="edge23" class="edge"><title>1981581198912&#45;&#45;1981581200016</title>
<path fill="none" stroke="black" d="M768.702,-222.52C733.055,-204.823 663.553,-170.319 650.835,-164.005"/>
</g>
<!-- 1981581197664 -->
<g id="node31" class="node"><title>1981581197664</title>
<ellipse fill="none" stroke="black" cx="789.811" cy="-162" rx="120.43" ry="18"/>
<text text-anchor="middle" x="789.811" y="-158.5" font-family="Times New Roman,serif" font-size="15.00">Send Appeal to Prefecture</text>
</g>
<!-- 1981581198912&#45;&#45;1981581197664 -->
<g id="edge24" class="edge"><title>1981581198912&#45;&#45;1981581197664</title>
<path fill="none" stroke="black" d="M789.811,-215.697C789.811,-204.846 789.811,-190.917 789.811,-180.104"/>
</g>
<!-- 1981581200688 -->
<g id="node33" class="node"><title>1981581200688</title>
<ellipse fill="none" stroke="black" cx="974.811" cy="-162" rx="46.6143" ry="18"/>
<text text-anchor="middle" x="974.811" y="-158.5" font-family="Times New Roman,serif" font-size="15.00">xor loop</text>
</g>
<!-- 1981581197568&#45;&#45;1981581200688 -->
<g id="edge32" class="edge"><title>1981581197568&#45;&#45;1981581200688</title>
<path fill="none" stroke="black" d="M974.811,-215.697C974.811,-204.846 974.811,-190.917 974.811,-180.104"/>
</g>
<!-- 1981581198384 -->
<g id="node40" class="node"><title>1981581198384</title>
<ellipse fill="none" stroke="black" cx="1066.81" cy="-162" rx="27" ry="18"/>
<text text-anchor="middle" x="1066.81" y="-158.5" font-family="Times New Roman,serif" font-size="15.00">xor</text>
</g>
<!-- 1981581197568&#45;&#45;1981581198384 -->
<g id="edge35" class="edge"><title>1981581197568&#45;&#45;1981581198384</title>
<path fill="none" stroke="black" d="M992.116,-219.834C1008.56,-207.319 1033.16,-188.603 1049.58,-176.107"/>
</g>
<!-- 1981581199584 -->
<g id="node34" class="node"><title>1981581199584</title>
<ellipse fill="none" stroke="black" cx="943.811" cy="-90" rx="27" ry="18"/>
<text text-anchor="middle" x="943.811" y="-86.5" font-family="Times New Roman,serif" font-size="15.00">xor</text>
</g>
<!-- 1981581200688&#45;&#45;1981581199584 -->
<g id="edge30" class="edge"><title>1981581200688&#45;&#45;1981581199584</title>
<path fill="none" stroke="black" d="M967.307,-144.055C962.433,-133.049 956.106,-118.764 951.246,-107.789"/>
</g>
<!-- 1981581200160 -->
<g id="node39" class="node"><title>1981581200160</title>
<ellipse fill="black" stroke="black" cx="991.811" cy="-90" rx="2.7" ry="2.7"/>
</g>
<!-- 1981581200688&#45;&#45;1981581200160 -->
<g id="edge31" class="edge"><title>1981581200688&#45;&#45;1981581200160</title>
<path fill="none" stroke="black" d="M978.926,-144.055C983.25,-126.252 989.658,-99.8653 991.375,-92.7963"/>
</g>
<!-- 1981581198432 -->
<g id="node35" class="node"><title>1981581198432</title>
<ellipse fill="none" stroke="black" cx="476.811" cy="-18" rx="148.91" ry="18"/>
<text text-anchor="middle" x="476.811" y="-14.5" font-family="Times New Roman,serif" font-size="15.00">Notify Result Appeal to Offender</text>
</g>
<!-- 1981581199584&#45;&#45;1981581198432 -->
<g id="edge26" class="edge"><title>1981581199584&#45;&#45;1981581198432</title>
<path fill="none" stroke="black" d="M917.702,-85.0865C851.529,-75.1676 674.801,-48.6773 566.251,-32.4064"/>
</g>
<!-- 1981581200640 -->
<g id="node36" class="node"><title>1981581200640</title>
<ellipse fill="none" stroke="black" cx="816.811" cy="-18" rx="173.941" ry="18"/>
<text text-anchor="middle" x="816.811" y="-14.5" font-family="Times New Roman,serif" font-size="15.00">Receive Result Appeal from Prefecture</text>
</g>
<!-- 1981581199584&#45;&#45;1981581200640 -->
<g id="edge27" class="edge"><title>1981581199584&#45;&#45;1981581200640</title>
<path fill="none" stroke="black" d="M923.688,-77.9083C903.124,-66.5743 870.937,-48.833 847.255,-35.78"/>
</g>
<!-- 1981581199728 -->
<g id="node37" class="node"><title>1981581199728</title>
<ellipse fill="none" stroke="black" cx="1070.81" cy="-18" rx="61.6894" ry="18"/>
<text text-anchor="middle" x="1070.81" y="-14.5" font-family="Times New Roman,serif" font-size="15.00">Add penalty</text>
</g>
<!-- 1981581199584&#45;&#45;1981581199728 -->
<g id="edge28" class="edge"><title>1981581199584&#45;&#45;1981581199728</title>
<path fill="none" stroke="black" d="M963.935,-77.9083C985.337,-66.1117 1019.33,-47.3741 1043.22,-34.2058"/>
</g>
<!-- 1981581201312 -->
<g id="node38" class="node"><title>1981581201312</title>
<ellipse fill="none" stroke="black" cx="1294.81" cy="-18" rx="144.571" ry="18"/>
<text text-anchor="middle" x="1294.81" y="-14.5" font-family="Times New Roman,serif" font-size="15.00">Insert Date Appeal to Prefecture</text>
</g>
<!-- 1981581199584&#45;&#45;1981581201312 -->
<g id="edge29" class="edge"><title>1981581199584&#45;&#45;1981581201312</title>
<path fill="none" stroke="black" d="M969.337,-83.9094C1021.71,-73.4642 1143.02,-49.2726 1221.83,-33.5539"/>
</g>
<!-- 1981581198336 -->
<g id="node41" class="node"><title>1981581198336</title>
<ellipse fill="black" stroke="black" cx="1048.81" cy="-90" rx="2.7" ry="2.7"/>
</g>
<!-- 1981581198384&#45;&#45;1981581198336 -->
<g id="edge33" class="edge"><title>1981581198384&#45;&#45;1981581198336</title>
<path fill="none" stroke="black" d="M1062.45,-144.055C1057.88,-126.252 1051.09,-99.8653 1049.27,-92.7963"/>
</g>
<!-- 1981581198816 -->
<g id="node42" class="node"><title>1981581198816</title>
<ellipse fill="none" stroke="black" cx="1190.81" cy="-90" rx="120.819" ry="18"/>
<text text-anchor="middle" x="1190.81" y="-86.5" font-family="Times New Roman,serif" font-size="15.00">Send for Credit Collection</text>
</g>
<!-- 1981581198384&#45;&#45;1981581198816 -->
<g id="edge34" class="edge"><title>1981581198384&#45;&#45;1981581198816</title>
<path fill="none" stroke="black" d="M1086.73,-149.753C1106.86,-138.391 1138.19,-120.705 1161.22,-107.704"/>
</g>
<!-- 1981581200976 -->
<g id="node44" class="node"><title>1981581200976</title>
<ellipse fill="black" stroke="black" cx="564.811" cy="-522" rx="2.7" ry="2.7"/>
</g>
<!-- 1981827476160&#45;&#45;1981581200976 -->
<g id="edge42" class="edge"><title>1981827476160&#45;&#45;1981581200976</title>
<path fill="none" stroke="black" d="M569.328,-575.697C567.801,-557.883 565.563,-531.769 564.963,-524.776"/>
</g>
<!-- 1981581199776 -->
<g id="node45" class="node"><title>1981581199776</title>
<ellipse fill="none" stroke="black" cx="663.811" cy="-522" rx="78.5434" ry="18"/>
<text text-anchor="middle" x="663.811" y="-518.5" font-family="Times New Roman,serif" font-size="15.00">Appeal to Judge</text>
</g>
<!-- 1981827476160&#45;&#45;1981581199776 -->
<g id="edge43" class="edge"><title>1981827476160&#45;&#45;1981581199776</title>
<path fill="none" stroke="black" d="M588.304,-579.834C603.563,-568.348 625.76,-551.641 642.141,-539.311"/>
</g>
</g>
</svg>
