<?xml version="1.0" encoding="UTF-8" standalone="no"?>
<!DOCTYPE svg PUBLIC "-//W3C//DTD SVG 1.1//EN"
 "http://www.w3.org/Graphics/SVG/1.1/DTD/svg11.dtd">
<!-- Generated by graphviz version 2.38.0 (20140413.2041)
 -->
<!-- Title: pt Pages: 1 -->
<svg width="1256pt" height="764pt"
 viewBox="0.00 0.00 1256.22 764.00" xmlns="http://www.w3.org/2000/svg" xmlns:xlink="http://www.w3.org/1999/xlink">
<g id="graph0" class="graph" transform="scale(1 1) rotate(0) translate(4 760)">
<title>pt</title>
<!-- 1981817654528 -->
<g id="node1" class="node"><title>1981817654528</title>
<ellipse fill="none" stroke="black" cx="554.7" cy="-738" rx="27" ry="18"/>
<text text-anchor="middle" x="554.7" y="-734.5" font-family="Times New Roman,serif" font-size="15.00">seq</text>
</g>
<!-- 1981677070704 -->
<g id="node2" class="node"><title>1981677070704</title>
<ellipse fill="none" stroke="black" cx="449.7" cy="-666" rx="59.5207" ry="18"/>
<text text-anchor="middle" x="449.7" y="-662.5" font-family="Times New Roman,serif" font-size="15.00">Create Fine</text>
</g>
<!-- 1981817654528&#45;&#45;1981677070704 -->
<g id="edge1" class="edge"><title>1981817654528&#45;&#45;1981677070704</title>
<path fill="none" stroke="black" d="M535.928,-724.485C518.35,-712.767 492.023,-695.215 473.086,-682.591"/>
</g>
<!-- 1981677070512 -->
<g id="node3" class="node"><title>1981677070512</title>
<ellipse fill="none" stroke="black" cx="554.7" cy="-666" rx="27" ry="18"/>
<text text-anchor="middle" x="554.7" y="-662.5" font-family="Times New Roman,serif" font-size="15.00">and</text>
</g>
<!-- 1981817654528&#45;&#45;1981677070512 -->
<g id="edge45" class="edge"><title>1981817654528&#45;&#45;1981677070512</title>
<path fill="none" stroke="black" d="M554.7,-719.697C554.7,-708.846 554.7,-694.917 554.7,-684.104"/>
</g>
<!-- 1981677070752 -->
<g id="node47" class="node"><title>1981677070752</title>
<ellipse fill="none" stroke="black" cx="626.7" cy="-666" rx="27" ry="18"/>
<text text-anchor="middle" x="626.7" y="-662.5" font-family="Times New Roman,serif" font-size="15.00">xor</text>
</g>
<!-- 1981817654528&#45;&#45;1981677070752 -->
<g id="edge48" class="edge"><title>1981817654528&#45;&#45;1981677070752</title>
<path fill="none" stroke="black" d="M569.27,-722.834C581.68,-710.77 599.431,-693.512 611.904,-681.385"/>
</g>
<!-- 1981677071904 -->
<g id="node4" class="node"><title>1981677071904</title>
<ellipse fill="none" stroke="black" cx="449.7" cy="-594" rx="27" ry="18"/>
<text text-anchor="middle" x="449.7" y="-590.5" font-family="Times New Roman,serif" font-size="15.00">xor</text>
</g>
<!-- 1981677070512&#45;&#45;1981677071904 -->
<g id="edge28" class="edge"><title>1981677070512&#45;&#45;1981677071904</title>
<path fill="none" stroke="black" d="M535.928,-652.485C516.816,-639.744 487.363,-620.108 468.309,-607.406"/>
</g>
<!-- 1981677070176 -->
<g id="node31" class="node"><title>1981677070176</title>
<ellipse fill="none" stroke="black" cx="560.7" cy="-594" rx="27" ry="18"/>
<text text-anchor="middle" x="560.7" y="-590.5" font-family="Times New Roman,serif" font-size="15.00">and</text>
</g>
<!-- 1981677070512&#45;&#45;1981677070176 -->
<g id="edge44" class="edge"><title>1981677070512&#45;&#45;1981677070176</title>
<path fill="none" stroke="black" d="M556.183,-647.697C557.113,-636.846 558.307,-622.917 559.234,-612.104"/>
</g>
<!-- 1981578865776 -->
<g id="node5" class="node"><title>1981578865776</title>
<ellipse fill="black" stroke="black" cx="382.7" cy="-522" rx="2.7" ry="2.7"/>
</g>
<!-- 1981677071904&#45;&#45;1981578865776 -->
<g id="edge2" class="edge"><title>1981677071904&#45;&#45;1981578865776</title>
<path fill="none" stroke="black" d="M435.818,-578.496C418.646,-560.555 390.857,-531.522 384.177,-524.544"/>
</g>
<!-- 1981677071616 -->
<g id="node6" class="node"><title>1981677071616</title>
<ellipse fill="none" stroke="black" cx="449.7" cy="-522" rx="46.6143" ry="18"/>
<text text-anchor="middle" x="449.7" y="-518.5" font-family="Times New Roman,serif" font-size="15.00">xor loop</text>
</g>
<!-- 1981677071904&#45;&#45;1981677071616 -->
<g id="edge27" class="edge"><title>1981677071904&#45;&#45;1981677071616</title>
<path fill="none" stroke="black" d="M449.7,-575.697C449.7,-564.846 449.7,-550.917 449.7,-540.104"/>
</g>
<!-- 1981594084160 -->
<g id="node7" class="node"><title>1981594084160</title>
<ellipse fill="none" stroke="black" cx="410.7" cy="-450" rx="27" ry="18"/>
<text text-anchor="middle" x="410.7" y="-446.5" font-family="Times New Roman,serif" font-size="15.00">seq</text>
</g>
<!-- 1981677071616&#45;&#45;1981594084160 -->
<g id="edge25" class="edge"><title>1981677071616&#45;&#45;1981594084160</title>
<path fill="none" stroke="black" d="M440.259,-504.055C434.037,-492.887 425.934,-478.343 419.785,-467.307"/>
</g>
<!-- 1981594087328 -->
<g id="node30" class="node"><title>1981594087328</title>
<ellipse fill="black" stroke="black" cx="458.7" cy="-450" rx="2.7" ry="2.7"/>
</g>
<!-- 1981677071616&#45;&#45;1981594087328 -->
<g id="edge26" class="edge"><title>1981677071616&#45;&#45;1981594087328</title>
<path fill="none" stroke="black" d="M451.925,-503.697C454.215,-485.883 457.573,-459.769 458.472,-452.776"/>
</g>
<!-- 1981594083968 -->
<g id="node8" class="node"><title>1981594083968</title>
<ellipse fill="none" stroke="black" cx="167.7" cy="-378" rx="27" ry="18"/>
<text text-anchor="middle" x="167.7" y="-374.5" font-family="Times New Roman,serif" font-size="15.00">xor</text>
</g>
<!-- 1981594084160&#45;&#45;1981594083968 -->
<g id="edge5" class="edge"><title>1981594084160&#45;&#45;1981594083968</title>
<path fill="none" stroke="black" d="M386.063,-441.903C339.367,-428.452 238.507,-399.397 192.041,-386.012"/>
</g>
<!-- 1981594085792 -->
<g id="node11" class="node"><title>1981594085792</title>
<ellipse fill="none" stroke="black" cx="410.7" cy="-378" rx="27" ry="18"/>
<text text-anchor="middle" x="410.7" y="-374.5" font-family="Times New Roman,serif" font-size="15.00">xor</text>
</g>
<!-- 1981594084160&#45;&#45;1981594085792 -->
<g id="edge8" class="edge"><title>1981594084160&#45;&#45;1981594085792</title>
<path fill="none" stroke="black" d="M410.7,-431.697C410.7,-420.846 410.7,-406.917 410.7,-396.104"/>
</g>
<!-- 1981594084688 -->
<g id="node14" class="node"><title>1981594084688</title>
<ellipse fill="none" stroke="black" cx="498.7" cy="-378" rx="27" ry="18"/>
<text text-anchor="middle" x="498.7" y="-374.5" font-family="Times New Roman,serif" font-size="15.00">xor</text>
</g>
<!-- 1981594084160&#45;&#45;1981594084688 -->
<g id="edge24" class="edge"><title>1981594084160&#45;&#45;1981594084688</title>
<path fill="none" stroke="black" d="M427.667,-435.503C443.35,-423.028 466.513,-404.603 482.083,-392.218"/>
</g>
<!-- 1981594086992 -->
<g id="node9" class="node"><title>1981594086992</title>
<ellipse fill="black" stroke="black" cx="2.7" cy="-306" rx="2.7" ry="2.7"/>
</g>
<!-- 1981594083968&#45;&#45;1981594086992 -->
<g id="edge3" class="edge"><title>1981594083968&#45;&#45;1981594086992</title>
<path fill="none" stroke="black" d="M145.447,-367.559C104.28,-350.094 19.1048,-313.96 4.76938,-307.878"/>
</g>
<!-- 1981594086512 -->
<g id="node10" class="node"><title>1981594086512</title>
<ellipse fill="none" stroke="black" cx="167.7" cy="-306" rx="144.571" ry="18"/>
<text text-anchor="middle" x="167.7" y="-302.5" font-family="Times New Roman,serif" font-size="15.00">Insert Date Appeal to Prefecture</text>
</g>
<!-- 1981594083968&#45;&#45;1981594086512 -->
<g id="edge4" class="edge"><title>1981594083968&#45;&#45;1981594086512</title>
<path fill="none" stroke="black" d="M167.7,-359.697C167.7,-348.846 167.7,-334.917 167.7,-324.104"/>
</g>
<!-- 1981586644272 -->
<g id="node12" class="node"><title>1981586644272</title>
<ellipse fill="black" stroke="black" cx="332.7" cy="-306" rx="2.7" ry="2.7"/>
</g>
<!-- 1981594085792&#45;&#45;1981586644272 -->
<g id="edge6" class="edge"><title>1981594085792&#45;&#45;1981586644272</title>
<path fill="none" stroke="black" d="M395.29,-363.17C375.4,-345.32 342.397,-315.702 334.457,-308.577"/>
</g>
<!-- 1981586643840 -->
<g id="node13" class="node"><title>1981586643840</title>
<ellipse fill="none" stroke="black" cx="415.7" cy="-306" rx="61.6894" ry="18"/>
<text text-anchor="middle" x="415.7" y="-302.5" font-family="Times New Roman,serif" font-size="15.00">Add penalty</text>
</g>
<!-- 1981594085792&#45;&#45;1981586643840 -->
<g id="edge7" class="edge"><title>1981594085792&#45;&#45;1981586643840</title>
<path fill="none" stroke="black" d="M411.936,-359.697C412.711,-348.846 413.706,-334.917 414.478,-324.104"/>
</g>
<!-- 1981586644224 -->
<g id="node15" class="node"><title>1981586644224</title>
<ellipse fill="black" stroke="black" cx="498.7" cy="-306" rx="2.7" ry="2.7"/>
</g>
<!-- 1981594084688&#45;&#45;1981586644224 -->
<g id="edge9" class="edge"><title>1981594084688&#45;&#45;1981586644224</title>
<path fill="none" stroke="black" d="M498.7,-359.697C498.7,-341.883 498.7,-315.769 498.7,-308.776"/>
</g>
<!-- 1981586644512 -->
<g id="node16" class="node"><title>1981586644512</title>
<ellipse fill="none" stroke="black" cx="565.7" cy="-306" rx="46.6143" ry="18"/>
<text text-anchor="middle" x="565.7" y="-302.5" font-family="Times New Roman,serif" font-size="15.00">xor loop</text>
</g>
<!-- 1981594084688&#45;&#45;1981586644512 -->
<g id="edge23" class="edge"><title>1981594084688&#45;&#45;1981586644512</title>
<path fill="none" stroke="black" d="M512.582,-362.496C523.545,-351.043 538.834,-335.069 550.196,-323.198"/>
</g>
<!-- 1981586643648 -->
<g id="node17" class="node"><title>1981586643648</title>
<ellipse fill="none" stroke="black" cx="541.7" cy="-234" rx="27" ry="18"/>
<text text-anchor="middle" x="541.7" y="-230.5" font-family="Times New Roman,serif" font-size="15.00">xor</text>
</g>
<!-- 1981586644512&#45;&#45;1981586643648 -->
<g id="edge21" class="edge"><title>1981586644512&#45;&#45;1981586643648</title>
<path fill="none" stroke="black" d="M559.89,-288.055C556.117,-277.049 551.219,-262.764 547.456,-251.789"/>
</g>
<!-- 1981584220752 -->
<g id="node29" class="node"><title>1981584220752</title>
<ellipse fill="black" stroke="black" cx="589.7" cy="-234" rx="2.7" ry="2.7"/>
</g>
<!-- 1981586644512&#45;&#45;1981584220752 -->
<g id="edge22" class="edge"><title>1981586644512&#45;&#45;1981584220752</title>
<path fill="none" stroke="black" d="M571.51,-288.055C577.614,-270.252 586.66,-243.865 589.084,-236.796"/>
</g>
<!-- 1981584223200 -->
<g id="node18" class="node"><title>1981584223200</title>
<ellipse fill="none" stroke="black" cx="432.7" cy="-162" rx="173.941" ry="18"/>
<text text-anchor="middle" x="432.7" y="-158.5" font-family="Times New Roman,serif" font-size="15.00">Receive Result Appeal from Prefecture</text>
</g>
<!-- 1981586643648&#45;&#45;1981584223200 -->
<g id="edge10" class="edge"><title>1981586643648&#45;&#45;1981584223200</title>
<path fill="none" stroke="black" d="M522.714,-220.807C505.147,-209.526 478.862,-192.645 459.225,-180.034"/>
</g>
<!-- 1981584222960 -->
<g id="node19" class="node"><title>1981584222960</title>
<ellipse fill="none" stroke="black" cx="651.7" cy="-162" rx="27" ry="18"/>
<text text-anchor="middle" x="651.7" y="-158.5" font-family="Times New Roman,serif" font-size="15.00">seq</text>
</g>
<!-- 1981586643648&#45;&#45;1981584222960 -->
<g id="edge20" class="edge"><title>1981586643648&#45;&#45;1981584222960</title>
<path fill="none" stroke="black" d="M560.861,-220.807C581.05,-207.959 612.652,-187.848 632.759,-175.053"/>
</g>
<!-- 1981584222528 -->
<g id="node20" class="node"><title>1981584222528</title>
<ellipse fill="none" stroke="black" cx="411.7" cy="-90" rx="27" ry="18"/>
<text text-anchor="middle" x="411.7" y="-86.5" font-family="Times New Roman,serif" font-size="15.00">xor</text>
</g>
<!-- 1981584222960&#45;&#45;1981584222528 -->
<g id="edge13" class="edge"><title>1981584222960&#45;&#45;1981584222528</title>
<path fill="none" stroke="black" d="M627.367,-153.903C581.367,-140.486 482.147,-111.547 436.098,-98.116"/>
</g>
<!-- 1981584222672 -->
<g id="node23" class="node"><title>1981584222672</title>
<ellipse fill="none" stroke="black" cx="651.7" cy="-90" rx="27" ry="18"/>
<text text-anchor="middle" x="651.7" y="-86.5" font-family="Times New Roman,serif" font-size="15.00">xor</text>
</g>
<!-- 1981584222960&#45;&#45;1981584222672 -->
<g id="edge16" class="edge"><title>1981584222960&#45;&#45;1981584222672</title>
<path fill="none" stroke="black" d="M651.7,-143.697C651.7,-132.846 651.7,-118.917 651.7,-108.104"/>
</g>
<!-- 1981584222336 -->
<g id="node26" class="node"><title>1981584222336</title>
<ellipse fill="none" stroke="black" cx="864.7" cy="-90" rx="27" ry="18"/>
<text text-anchor="middle" x="864.7" y="-86.5" font-family="Times New Roman,serif" font-size="15.00">xor</text>
</g>
<!-- 1981584222960&#45;&#45;1981584222336 -->
<g id="edge19" class="edge"><title>1981584222960&#45;&#45;1981584222336</title>
<path fill="none" stroke="black" d="M675.309,-153.241C716.252,-139.786 799.969,-112.273 840.986,-98.7934"/>
</g>
<!-- 1981584223008 -->
<g id="node21" class="node"><title>1981584223008</title>
<ellipse fill="black" stroke="black" cx="242.7" cy="-18" rx="2.7" ry="2.7"/>
</g>
<!-- 1981584222528&#45;&#45;1981584223008 -->
<g id="edge11" class="edge"><title>1981584222528&#45;&#45;1981584223008</title>
<path fill="none" stroke="black" d="M389.258,-79.7045C347.237,-62.2995 259.585,-25.9938 244.83,-19.8823"/>
</g>
<!-- 1981584223488 -->
<g id="node22" class="node"><title>1981584223488</title>
<ellipse fill="none" stroke="black" cx="411.7" cy="-18" rx="148.91" ry="18"/>
<text text-anchor="middle" x="411.7" y="-14.5" font-family="Times New Roman,serif" font-size="15.00">Notify Result Appeal to Offender</text>
</g>
<!-- 1981584222528&#45;&#45;1981584223488 -->
<g id="edge12" class="edge"><title>1981584222528&#45;&#45;1981584223488</title>
<path fill="none" stroke="black" d="M411.7,-71.6966C411.7,-60.8463 411.7,-46.9167 411.7,-36.1043"/>
</g>
<!-- 1981584223776 -->
<g id="node24" class="node"><title>1981584223776</title>
<ellipse fill="black" stroke="black" cx="580.7" cy="-18" rx="2.7" ry="2.7"/>
</g>
<!-- 1981584222672&#45;&#45;1981584223776 -->
<g id="edge14" class="edge"><title>1981584222672&#45;&#45;1981584223776</title>
<path fill="none" stroke="black" d="M636.989,-74.496C618.792,-56.5555 589.343,-27.5217 582.266,-20.5436"/>
</g>
<!-- 1981816166768 -->
<g id="node25" class="node"><title>1981816166768</title>
<ellipse fill="none" stroke="black" cx="722.7" cy="-18" rx="120.819" ry="18"/>
<text text-anchor="middle" x="722.7" y="-14.5" font-family="Times New Roman,serif" font-size="15.00">Send for Credit Collection</text>
</g>
<!-- 1981584222672&#45;&#45;1981816166768 -->
<g id="edge15" class="edge"><title>1981584222672&#45;&#45;1981816166768</title>
<path fill="none" stroke="black" d="M666.411,-74.496C677.784,-63.2831 693.552,-47.737 705.507,-35.9506"/>
</g>
<!-- 1981816166624 -->
<g id="node27" class="node"><title>1981816166624</title>
<ellipse fill="black" stroke="black" cx="864.7" cy="-18" rx="2.7" ry="2.7"/>
</g>
<!-- 1981584222336&#45;&#45;1981816166624 -->
<g id="edge17" class="edge"><title>1981584222336&#45;&#45;1981816166624</title>
<path fill="none" stroke="black" d="M864.7,-71.6966C864.7,-53.8826 864.7,-27.7686 864.7,-20.7764"/>
</g>
<!-- 1981586792896 -->
<g id="node28" class="node"><title>1981586792896</title>
<ellipse fill="none" stroke="black" cx="1005.7" cy="-18" rx="120.43" ry="18"/>
<text text-anchor="middle" x="1005.7" y="-14.5" font-family="Times New Roman,serif" font-size="15.00">Send Appeal to Prefecture</text>
</g>
<!-- 1981584222336&#45;&#45;1981586792896 -->
<g id="edge18" class="edge"><title>1981584222336&#45;&#45;1981586792896</title>
<path fill="none" stroke="black" d="M885.809,-78.5203C908.78,-67.1164 945.809,-48.7333 972.642,-35.4115"/>
</g>
<!-- 1981594083440 -->
<g id="node32" class="node"><title>1981594083440</title>
<ellipse fill="none" stroke="black" cx="560.7" cy="-522" rx="46.6143" ry="18"/>
<text text-anchor="middle" x="560.7" y="-518.5" font-family="Times New Roman,serif" font-size="15.00">xor loop</text>
</g>
<!-- 1981677070176&#45;&#45;1981594083440 -->
<g id="edge31" class="edge"><title>1981677070176&#45;&#45;1981594083440</title>
<path fill="none" stroke="black" d="M560.7,-575.697C560.7,-564.846 560.7,-550.917 560.7,-540.104"/>
</g>
<!-- 1981586642112 -->
<g id="node35" class="node"><title>1981586642112</title>
<ellipse fill="none" stroke="black" cx="677.7" cy="-522" rx="27" ry="18"/>
<text text-anchor="middle" x="677.7" y="-518.5" font-family="Times New Roman,serif" font-size="15.00">xor</text>
</g>
<!-- 1981677070176&#45;&#45;1981586642112 -->
<g id="edge43" class="edge"><title>1981677070176&#45;&#45;1981586642112</title>
<path fill="none" stroke="black" d="M580.283,-581.284C601.881,-568.362 636.43,-547.692 658.053,-534.755"/>
</g>
<!-- 1981586641776 -->
<g id="node33" class="node"><title>1981586641776</title>
<ellipse fill="black" stroke="black" cx="493.7" cy="-450" rx="2.7" ry="2.7"/>
</g>
<!-- 1981594083440&#45;&#45;1981586641776 -->
<g id="edge29" class="edge"><title>1981594083440&#45;&#45;1981586641776</title>
<path fill="none" stroke="black" d="M545.16,-504.765C527.842,-486.671 501.431,-459.078 495.099,-452.462"/>
</g>
<!-- 1981584223728 -->
<g id="node34" class="node"><title>1981584223728</title>
<ellipse fill="none" stroke="black" cx="560.7" cy="-450" rx="45.7249" ry="18"/>
<text text-anchor="middle" x="560.7" y="-446.5" font-family="Times New Roman,serif" font-size="15.00">Payment</text>
</g>
<!-- 1981594083440&#45;&#45;1981584223728 -->
<g id="edge30" class="edge"><title>1981594083440&#45;&#45;1981584223728</title>
<path fill="none" stroke="black" d="M560.7,-503.697C560.7,-492.846 560.7,-478.917 560.7,-468.104"/>
</g>
<!-- 1981584224160 -->
<g id="node36" class="node"><title>1981584224160</title>
<ellipse fill="black" stroke="black" cx="627.7" cy="-450" rx="2.7" ry="2.7"/>
</g>
<!-- 1981586642112&#45;&#45;1981584224160 -->
<g id="edge32" class="edge"><title>1981586642112&#45;&#45;1981584224160</title>
<path fill="none" stroke="black" d="M666.603,-505.465C653.714,-487.42 633.596,-459.254 628.767,-452.494"/>
</g>
<!-- 1981816166960 -->
<g id="node37" class="node"><title>1981816166960</title>
<ellipse fill="none" stroke="black" cx="701.7" cy="-450" rx="52.6228" ry="18"/>
<text text-anchor="middle" x="701.7" y="-446.5" font-family="Times New Roman,serif" font-size="15.00">Send Fine</text>
</g>
<!-- 1981586642112&#45;&#45;1981816166960 -->
<g id="edge33" class="edge"><title>1981586642112&#45;&#45;1981816166960</title>
<path fill="none" stroke="black" d="M683.51,-504.055C687.228,-493.211 692.037,-479.183 695.777,-468.275"/>
</g>
<!-- 1981586793376 -->
<g id="node38" class="node"><title>1981586793376</title>
<ellipse fill="none" stroke="black" cx="799.7" cy="-450" rx="27" ry="18"/>
<text text-anchor="middle" x="799.7" y="-446.5" font-family="Times New Roman,serif" font-size="15.00">seq</text>
</g>
<!-- 1981586642112&#45;&#45;1981586793376 -->
<g id="edge42" class="edge"><title>1981586642112&#45;&#45;1981586793376</title>
<path fill="none" stroke="black" d="M697.573,-509.597C720.26,-496.581 757.152,-475.413 779.836,-462.398"/>
</g>
<!-- 1981586794432 -->
<g id="node39" class="node"><title>1981586794432</title>
<ellipse fill="none" stroke="black" cx="615.7" cy="-378" rx="52.6228" ry="18"/>
<text text-anchor="middle" x="615.7" y="-374.5" font-family="Times New Roman,serif" font-size="15.00">Send Fine</text>
</g>
<!-- 1981586793376&#45;&#45;1981586794432 -->
<g id="edge34" class="edge"><title>1981586793376&#45;&#45;1981586794432</title>
<path fill="none" stroke="black" d="M776.768,-440.276C744.784,-428.108 686.555,-405.956 649.566,-391.884"/>
</g>
<!-- 1981586794144 -->
<g id="node40" class="node"><title>1981586794144</title>
<ellipse fill="none" stroke="black" cx="794.7" cy="-378" rx="107.914" ry="18"/>
<text text-anchor="middle" x="794.7" y="-374.5" font-family="Times New Roman,serif" font-size="15.00">Insert Fine Notification</text>
</g>
<!-- 1981586793376&#45;&#45;1981586794144 -->
<g id="edge35" class="edge"><title>1981586793376&#45;&#45;1981586794144</title>
<path fill="none" stroke="black" d="M798.464,-431.697C797.689,-420.846 796.694,-406.917 795.922,-396.104"/>
</g>
<!-- 1981586795200 -->
<g id="node41" class="node"><title>1981586795200</title>
<ellipse fill="none" stroke="black" cx="966.7" cy="-378" rx="46.6143" ry="18"/>
<text text-anchor="middle" x="966.7" y="-374.5" font-family="Times New Roman,serif" font-size="15.00">xor loop</text>
</g>
<!-- 1981586793376&#45;&#45;1981586795200 -->
<g id="edge38" class="edge"><title>1981586793376&#45;&#45;1981586795200</title>
<path fill="none" stroke="black" d="M821.876,-439.705C851.244,-427.395 903.168,-405.63 936.21,-391.78"/>
</g>
<!-- 1981586793856 -->
<g id="node44" class="node"><title>1981586793856</title>
<ellipse fill="none" stroke="black" cx="1077.7" cy="-378" rx="46.6143" ry="18"/>
<text text-anchor="middle" x="1077.7" y="-374.5" font-family="Times New Roman,serif" font-size="15.00">xor loop</text>
</g>
<!-- 1981586793376&#45;&#45;1981586793856 -->
<g id="edge41" class="edge"><title>1981586793376&#45;&#45;1981586793856</title>
<path fill="none" stroke="black" d="M824.861,-442.665C873.779,-430.347 981.961,-403.107 1039.68,-388.573"/>
</g>
<!-- 1981586795104 -->
<g id="node42" class="node"><title>1981586795104</title>
<ellipse fill="black" stroke="black" cx="897.7" cy="-306" rx="2.7" ry="2.7"/>
</g>
<!-- 1981586795200&#45;&#45;1981586795104 -->
<g id="edge36" class="edge"><title>1981586795200&#45;&#45;1981586795104</title>
<path fill="none" stroke="black" d="M950.697,-360.765C932.861,-342.671 905.662,-315.078 899.141,-308.462"/>
</g>
<!-- 1981586792800 -->
<g id="node43" class="node"><title>1981586792800</title>
<ellipse fill="none" stroke="black" cx="980.7" cy="-306" rx="61.6894" ry="18"/>
<text text-anchor="middle" x="980.7" y="-302.5" font-family="Times New Roman,serif" font-size="15.00">Add penalty</text>
</g>
<!-- 1981586795200&#45;&#45;1981586792800 -->
<g id="edge37" class="edge"><title>1981586795200&#45;&#45;1981586792800</title>
<path fill="none" stroke="black" d="M970.161,-359.697C972.331,-348.846 975.117,-334.917 977.279,-324.104"/>
</g>
<!-- 1981586671264 -->
<g id="node45" class="node"><title>1981586671264</title>
<ellipse fill="black" stroke="black" cx="1070.7" cy="-306" rx="2.7" ry="2.7"/>
</g>
<!-- 1981586793856&#45;&#45;1981586671264 -->
<g id="edge39" class="edge"><title>1981586793856&#45;&#45;1981586671264</title>
<path fill="none" stroke="black" d="M1075.97,-359.697C1074.19,-341.883 1071.58,-315.769 1070.88,-308.776"/>
</g>
<!-- 1981593149600 -->
<g id="node46" class="node"><title>1981593149600</title>
<ellipse fill="none" stroke="black" cx="1169.7" cy="-306" rx="78.5434" ry="18"/>
<text text-anchor="middle" x="1169.7" y="-302.5" font-family="Times New Roman,serif" font-size="15.00">Appeal to Judge</text>
</g>
<!-- 1981586793856&#45;&#45;1981593149600 -->
<g id="edge40" class="edge"><title>1981586793856&#45;&#45;1981593149600</title>
<path fill="none" stroke="black" d="M1098.12,-361.465C1112.94,-350.187 1132.96,-334.955 1148.06,-323.467"/>
</g>
<!-- 1981584221520 -->
<g id="node48" class="node"><title>1981584221520</title>
<ellipse fill="black" stroke="black" cx="620.7" cy="-594" rx="2.7" ry="2.7"/>
</g>
<!-- 1981677070752&#45;&#45;1981584221520 -->
<g id="edge46" class="edge"><title>1981677070752&#45;&#45;1981584221520</title>
<path fill="none" stroke="black" d="M625.217,-647.697C623.69,-629.883 621.452,-603.769 620.852,-596.776"/>
</g>
<!-- 1981677071712 -->
<g id="node49" class="node"><title>1981677071712</title>
<ellipse fill="none" stroke="black" cx="762.7" cy="-594" rx="120.819" ry="18"/>
<text text-anchor="middle" x="762.7" y="-590.5" font-family="Times New Roman,serif" font-size="15.00">Send for Credit Collection</text>
</g>
<!-- 1981677070752&#45;&#45;1981677071712 -->
<g id="edge47" class="edge"><title>1981677070752&#45;&#45;1981677071712</title>
<path fill="none" stroke="black" d="M647.355,-654.369C669.499,-642.971 704.94,-624.729 730.699,-611.471"/>
</g>
</g>
</svg>
