<?xml version="1.0" encoding="UTF-8" standalone="no"?>
<!DOCTYPE svg PUBLIC "-//W3C//DTD SVG 1.1//EN"
 "http://www.w3.org/Graphics/SVG/1.1/DTD/svg11.dtd">
<!-- Generated by graphviz version 2.38.0 (20140413.2041)
 -->
<!-- Title: pt Pages: 1 -->
<svg width="637pt" height="620pt"
 viewBox="0.00 0.00 636.67 620.00" xmlns="http://www.w3.org/2000/svg" xmlns:xlink="http://www.w3.org/1999/xlink">
<g id="graph0" class="graph" transform="scale(1 1) rotate(0) translate(4 616)">
<title>pt</title>
<!-- 2529010187808 -->
<g id="node1" class="node"><title>2529010187808</title>
<ellipse fill="none" stroke="black" cx="111.76" cy="-594" rx="27" ry="18"/>
<text text-anchor="middle" x="111.76" y="-590.5" font-family="Times New Roman,serif" font-size="15.00">seq</text>
</g>
<!-- 2529010188144 -->
<g id="node2" class="node"><title>2529010188144</title>
<ellipse fill="none" stroke="black" cx="59.7599" cy="-522" rx="59.5207" ry="18"/>
<text text-anchor="middle" x="59.7599" y="-518.5" font-family="Times New Roman,serif" font-size="15.00">Create Fine</text>
</g>
<!-- 2529010187808&#45;&#45;2529010188144 -->
<g id="edge1" class="edge"><title>2529010187808&#45;&#45;2529010188144</title>
<path fill="none" stroke="black" d="M100.219,-577.465C91.9612,-566.348 80.8493,-551.39 72.3601,-539.962"/>
</g>
<!-- 2529010186032 -->
<g id="node3" class="node"><title>2529010186032</title>
<ellipse fill="none" stroke="black" cx="164.76" cy="-522" rx="27" ry="18"/>
<text text-anchor="middle" x="164.76" y="-518.5" font-family="Times New Roman,serif" font-size="15.00">xor</text>
</g>
<!-- 2529010187808&#45;&#45;2529010186032 -->
<g id="edge19" class="edge"><title>2529010187808&#45;&#45;2529010186032</title>
<path fill="none" stroke="black" d="M123.522,-577.465C132.305,-565.865 144.255,-550.082 153.03,-538.492"/>
</g>
<!-- 2529010184784 -->
<g id="node4" class="node"><title>2529010184784</title>
<ellipse fill="none" stroke="black" cx="118.76" cy="-450" rx="45.7249" ry="18"/>
<text text-anchor="middle" x="118.76" y="-446.5" font-family="Times New Roman,serif" font-size="15.00">Payment</text>
</g>
<!-- 2529010186032&#45;&#45;2529010184784 -->
<g id="edge2" class="edge"><title>2529010186032&#45;&#45;2529010184784</title>
<path fill="none" stroke="black" d="M154.322,-505.116C147.006,-493.983 137.243,-479.127 129.798,-467.797"/>
</g>
<!-- 2529010186752 -->
<g id="node5" class="node"><title>2529010186752</title>
<ellipse fill="none" stroke="black" cx="209.76" cy="-450" rx="27" ry="18"/>
<text text-anchor="middle" x="209.76" y="-446.5" font-family="Times New Roman,serif" font-size="15.00">seq</text>
</g>
<!-- 2529010186032&#45;&#45;2529010186752 -->
<g id="edge18" class="edge"><title>2529010186032&#45;&#45;2529010186752</title>
<path fill="none" stroke="black" d="M174.971,-505.116C182.336,-493.66 192.234,-478.263 199.589,-466.821"/>
</g>
<!-- 2529010185888 -->
<g id="node6" class="node"><title>2529010185888</title>
<ellipse fill="none" stroke="black" cx="160.76" cy="-378" rx="52.6228" ry="18"/>
<text text-anchor="middle" x="160.76" y="-374.5" font-family="Times New Roman,serif" font-size="15.00">Send Fine</text>
</g>
<!-- 2529010186752&#45;&#45;2529010185888 -->
<g id="edge3" class="edge"><title>2529010186752&#45;&#45;2529010185888</title>
<path fill="none" stroke="black" d="M198.885,-433.465C191.103,-422.348 180.633,-407.39 172.633,-395.962"/>
</g>
<!-- 2529010185312 -->
<g id="node7" class="node"><title>2529010185312</title>
<ellipse fill="none" stroke="black" cx="258.76" cy="-378" rx="27" ry="18"/>
<text text-anchor="middle" x="258.76" y="-374.5" font-family="Times New Roman,serif" font-size="15.00">xor</text>
</g>
<!-- 2529010186752&#45;&#45;2529010185312 -->
<g id="edge17" class="edge"><title>2529010186752&#45;&#45;2529010185312</title>
<path fill="none" stroke="black" d="M220.635,-433.465C228.755,-421.865 239.803,-406.082 247.916,-394.492"/>
</g>
<!-- 2529010184736 -->
<g id="node8" class="node"><title>2529010184736</title>
<ellipse fill="black" stroke="black" cx="234.76" cy="-306" rx="2.7" ry="2.7"/>
</g>
<!-- 2529010185312&#45;&#45;2529010184736 -->
<g id="edge4" class="edge"><title>2529010185312&#45;&#45;2529010184736</title>
<path fill="none" stroke="black" d="M252.95,-360.055C246.846,-342.252 237.799,-315.865 235.376,-308.796"/>
</g>
<!-- 2529010187136 -->
<g id="node9" class="node"><title>2529010187136</title>
<ellipse fill="none" stroke="black" cx="282.76" cy="-306" rx="27" ry="18"/>
<text text-anchor="middle" x="282.76" y="-302.5" font-family="Times New Roman,serif" font-size="15.00">seq</text>
</g>
<!-- 2529010185312&#45;&#45;2529010187136 -->
<g id="edge16" class="edge"><title>2529010185312&#45;&#45;2529010187136</title>
<path fill="none" stroke="black" d="M264.57,-360.055C268.343,-349.049 273.241,-334.764 277.004,-323.789"/>
</g>
<!-- 2529010185600 -->
<g id="node10" class="node"><title>2529010185600</title>
<ellipse fill="none" stroke="black" cx="129.76" cy="-234" rx="107.914" ry="18"/>
<text text-anchor="middle" x="129.76" y="-230.5" font-family="Times New Roman,serif" font-size="15.00">Insert Fine Notification</text>
</g>
<!-- 2529010187136&#45;&#45;2529010185600 -->
<g id="edge5" class="edge"><title>2529010187136&#45;&#45;2529010185600</title>
<path fill="none" stroke="black" d="M261.163,-295.119C236.122,-283.662 194.492,-264.616 164.801,-251.032"/>
</g>
<!-- 2529010184688 -->
<g id="node11" class="node"><title>2529010184688</title>
<ellipse fill="none" stroke="black" cx="282.76" cy="-234" rx="27" ry="18"/>
<text text-anchor="middle" x="282.76" y="-230.5" font-family="Times New Roman,serif" font-size="15.00">and</text>
</g>
<!-- 2529010187136&#45;&#45;2529010184688 -->
<g id="edge12" class="edge"><title>2529010187136&#45;&#45;2529010184688</title>
<path fill="none" stroke="black" d="M282.76,-287.697C282.76,-276.846 282.76,-262.917 282.76,-252.104"/>
</g>
<!-- 2529010187616 -->
<g id="node18" class="node"><title>2529010187616</title>
<ellipse fill="none" stroke="black" cx="365.76" cy="-234" rx="27" ry="18"/>
<text text-anchor="middle" x="365.76" y="-230.5" font-family="Times New Roman,serif" font-size="15.00">xor</text>
</g>
<!-- 2529010187136&#45;&#45;2529010187616 -->
<g id="edge15" class="edge"><title>2529010187136&#45;&#45;2529010187616</title>
<path fill="none" stroke="black" d="M299.158,-291.17C313.804,-278.819 335.13,-260.832 349.678,-248.563"/>
</g>
<!-- 2529010184304 -->
<g id="node12" class="node"><title>2529010184304</title>
<ellipse fill="none" stroke="black" cx="175.76" cy="-162" rx="27" ry="18"/>
<text text-anchor="middle" x="175.76" y="-158.5" font-family="Times New Roman,serif" font-size="15.00">xor</text>
</g>
<!-- 2529010184688&#45;&#45;2529010184304 -->
<g id="edge10" class="edge"><title>2529010184688&#45;&#45;2529010184304</title>
<path fill="none" stroke="black" d="M264.122,-220.807C244.603,-208.037 214.117,-188.093 194.543,-175.288"/>
</g>
<!-- 2529010185072 -->
<g id="node17" class="node"><title>2529010185072</title>
<ellipse fill="none" stroke="black" cx="282.76" cy="-162" rx="61.6894" ry="18"/>
<text text-anchor="middle" x="282.76" y="-158.5" font-family="Times New Roman,serif" font-size="15.00">Add penalty</text>
</g>
<!-- 2529010184688&#45;&#45;2529010185072 -->
<g id="edge11" class="edge"><title>2529010184688&#45;&#45;2529010185072</title>
<path fill="none" stroke="black" d="M282.76,-215.697C282.76,-204.846 282.76,-190.917 282.76,-180.104"/>
</g>
<!-- 2529010185264 -->
<g id="node13" class="node"><title>2529010185264</title>
<ellipse fill="black" stroke="black" cx="142.76" cy="-90" rx="2.7" ry="2.7"/>
</g>
<!-- 2529010184304&#45;&#45;2529010185264 -->
<g id="edge6" class="edge"><title>2529010184304&#45;&#45;2529010185264</title>
<path fill="none" stroke="black" d="M167.939,-144.411C159.553,-126.622 146.985,-99.9625 143.616,-92.8163"/>
</g>
<!-- 2529010188096 -->
<g id="node14" class="node"><title>2529010188096</title>
<ellipse fill="none" stroke="black" cx="209.76" cy="-90" rx="46.6143" ry="18"/>
<text text-anchor="middle" x="209.76" y="-86.5" font-family="Times New Roman,serif" font-size="15.00">xor loop</text>
</g>
<!-- 2529010184304&#45;&#45;2529010188096 -->
<g id="edge9" class="edge"><title>2529010184304&#45;&#45;2529010188096</title>
<path fill="none" stroke="black" d="M183.646,-144.765C188.981,-133.779 196.018,-119.292 201.443,-108.124"/>
</g>
<!-- 2529010184880 -->
<g id="node15" class="node"><title>2529010184880</title>
<ellipse fill="none" stroke="black" cx="175.76" cy="-18" rx="45.7249" ry="18"/>
<text text-anchor="middle" x="175.76" y="-14.5" font-family="Times New Roman,serif" font-size="15.00">Payment</text>
</g>
<!-- 2529010188096&#45;&#45;2529010184880 -->
<g id="edge7" class="edge"><title>2529010188096&#45;&#45;2529010184880</title>
<path fill="none" stroke="black" d="M201.529,-72.055C196.184,-61.0492 189.245,-46.7636 183.915,-35.789"/>
</g>
<!-- 2529010184832 -->
<g id="node16" class="node"><title>2529010184832</title>
<ellipse fill="black" stroke="black" cx="242.76" cy="-18" rx="2.7" ry="2.7"/>
</g>
<!-- 2529010188096&#45;&#45;2529010184832 -->
<g id="edge8" class="edge"><title>2529010188096&#45;&#45;2529010184832</title>
<path fill="none" stroke="black" d="M217.748,-72.055C226.141,-54.2515 238.581,-27.8653 241.913,-20.7963"/>
</g>
<!-- 2529010187328 -->
<g id="node19" class="node"><title>2529010187328</title>
<ellipse fill="black" stroke="black" cx="365.76" cy="-162" rx="2.7" ry="2.7"/>
</g>
<!-- 2529010187616&#45;&#45;2529010187328 -->
<g id="edge13" class="edge"><title>2529010187616&#45;&#45;2529010187328</title>
<path fill="none" stroke="black" d="M365.76,-215.697C365.76,-197.883 365.76,-171.769 365.76,-164.776"/>
</g>
<!-- 2529010186320 -->
<g id="node20" class="node"><title>2529010186320</title>
<ellipse fill="none" stroke="black" cx="507.76" cy="-162" rx="120.819" ry="18"/>
<text text-anchor="middle" x="507.76" y="-158.5" font-family="Times New Roman,serif" font-size="15.00">Send for Credit Collection</text>
</g>
<!-- 2529010187616&#45;&#45;2529010186320 -->
<g id="edge14" class="edge"><title>2529010187616&#45;&#45;2529010186320</title>
<path fill="none" stroke="black" d="M387.019,-222.52C410.152,-211.116 447.444,-192.733 474.468,-179.412"/>
</g>
</g>
</svg>
