<?xml version="1.0" encoding="UTF-8" standalone="no"?>
<!DOCTYPE svg PUBLIC "-//W3C//DTD SVG 1.1//EN"
 "http://www.w3.org/Graphics/SVG/1.1/DTD/svg11.dtd">
<!-- Generated by graphviz version 2.38.0 (20140413.2041)
 -->
<!-- Title: pt Pages: 1 -->
<svg width="719pt" height="476pt"
 viewBox="0.00 0.00 718.60 476.00" xmlns="http://www.w3.org/2000/svg" xmlns:xlink="http://www.w3.org/1999/xlink">
<g id="graph0" class="graph" transform="scale(1 1) rotate(0) translate(4 472)">
<title>pt</title>
<!-- 2529009259232 -->
<g id="node1" class="node"><title>2529009259232</title>
<ellipse fill="none" stroke="black" cx="200.76" cy="-450" rx="27" ry="18"/>
<text text-anchor="middle" x="200.76" y="-446.5" font-family="Times New Roman,serif" font-size="15.00">seq</text>
</g>
<!-- 2529009260480 -->
<g id="node2" class="node"><title>2529009260480</title>
<ellipse fill="none" stroke="black" cx="59.7599" cy="-378" rx="59.5207" ry="18"/>
<text text-anchor="middle" x="59.7599" y="-374.5" font-family="Times New Roman,serif" font-size="15.00">Create Fine</text>
</g>
<!-- 2529009259232&#45;&#45;2529009260480 -->
<g id="edge1" class="edge"><title>2529009259232&#45;&#45;2529009260480</title>
<path fill="none" stroke="black" d="M179.651,-438.52C155.681,-426.621 116.405,-407.122 89.3772,-393.704"/>
</g>
<!-- 2529009261440 -->
<g id="node3" class="node"><title>2529009261440</title>
<ellipse fill="none" stroke="black" cx="164.76" cy="-378" rx="27" ry="18"/>
<text text-anchor="middle" x="164.76" y="-374.5" font-family="Times New Roman,serif" font-size="15.00">xor</text>
</g>
<!-- 2529009259232&#45;&#45;2529009261440 -->
<g id="edge4" class="edge"><title>2529009259232&#45;&#45;2529009261440</title>
<path fill="none" stroke="black" d="M192.41,-432.765C186.594,-421.456 178.87,-406.437 173.064,-395.147"/>
</g>
<!-- 2529009259664 -->
<g id="node6" class="node"><title>2529009259664</title>
<ellipse fill="none" stroke="black" cx="236.76" cy="-378" rx="27" ry="18"/>
<text text-anchor="middle" x="236.76" y="-374.5" font-family="Times New Roman,serif" font-size="15.00">xor</text>
</g>
<!-- 2529009259232&#45;&#45;2529009259664 -->
<g id="edge18" class="edge"><title>2529009259232&#45;&#45;2529009259664</title>
<path fill="none" stroke="black" d="M209.109,-432.765C214.925,-421.456 222.65,-406.437 228.456,-395.147"/>
</g>
<!-- 2529009259184 -->
<g id="node20" class="node"><title>2529009259184</title>
<ellipse fill="none" stroke="black" cx="327.76" cy="-378" rx="27" ry="18"/>
<text text-anchor="middle" x="327.76" y="-374.5" font-family="Times New Roman,serif" font-size="15.00">xor</text>
</g>
<!-- 2529009259232&#45;&#45;2529009259184 -->
<g id="edge21" class="edge"><title>2529009259232&#45;&#45;2529009259184</title>
<path fill="none" stroke="black" d="M220.883,-437.908C244.524,-424.878 283.529,-403.379 307.31,-390.272"/>
</g>
<!-- 2529009262352 -->
<g id="node4" class="node"><title>2529009262352</title>
<ellipse fill="black" stroke="black" cx="97.7599" cy="-306" rx="2.7" ry="2.7"/>
</g>
<!-- 2529009261440&#45;&#45;2529009262352 -->
<g id="edge2" class="edge"><title>2529009261440&#45;&#45;2529009262352</title>
<path fill="none" stroke="black" d="M150.877,-362.496C133.706,-344.555 105.916,-315.522 99.2374,-308.544"/>
</g>
<!-- 2529009262160 -->
<g id="node5" class="node"><title>2529009262160</title>
<ellipse fill="none" stroke="black" cx="164.76" cy="-306" rx="45.7249" ry="18"/>
<text text-anchor="middle" x="164.76" y="-302.5" font-family="Times New Roman,serif" font-size="15.00">Payment</text>
</g>
<!-- 2529009261440&#45;&#45;2529009262160 -->
<g id="edge3" class="edge"><title>2529009261440&#45;&#45;2529009262160</title>
<path fill="none" stroke="black" d="M164.76,-359.697C164.76,-348.846 164.76,-334.917 164.76,-324.104"/>
</g>
<!-- 2529009261632 -->
<g id="node7" class="node"><title>2529009261632</title>
<ellipse fill="black" stroke="black" cx="231.76" cy="-306" rx="2.7" ry="2.7"/>
</g>
<!-- 2529009259664&#45;&#45;2529009261632 -->
<g id="edge5" class="edge"><title>2529009259664&#45;&#45;2529009261632</title>
<path fill="none" stroke="black" d="M235.524,-359.697C234.251,-341.883 232.386,-315.769 231.887,-308.776"/>
</g>
<!-- 2529009262208 -->
<g id="node8" class="node"><title>2529009262208</title>
<ellipse fill="none" stroke="black" cx="279.76" cy="-306" rx="27" ry="18"/>
<text text-anchor="middle" x="279.76" y="-302.5" font-family="Times New Roman,serif" font-size="15.00">and</text>
</g>
<!-- 2529009259664&#45;&#45;2529009262208 -->
<g id="edge17" class="edge"><title>2529009259664&#45;&#45;2529009262208</title>
<path fill="none" stroke="black" d="M246.517,-361.116C253.554,-349.66 263.013,-334.263 270.041,-322.821"/>
</g>
<!-- 2529009261872 -->
<g id="node9" class="node"><title>2529009261872</title>
<ellipse fill="none" stroke="black" cx="220.76" cy="-234" rx="46.6143" ry="18"/>
<text text-anchor="middle" x="220.76" y="-230.5" font-family="Times New Roman,serif" font-size="15.00">xor loop</text>
</g>
<!-- 2529009262208&#45;&#45;2529009261872 -->
<g id="edge8" class="edge"><title>2529009262208&#45;&#45;2529009261872</title>
<path fill="none" stroke="black" d="M266.958,-289.811C257.468,-278.552 244.541,-263.215 234.775,-251.628"/>
</g>
<!-- 2529009259568 -->
<g id="node12" class="node"><title>2529009259568</title>
<ellipse fill="none" stroke="black" cx="337.76" cy="-234" rx="27" ry="18"/>
<text text-anchor="middle" x="337.76" y="-230.5" font-family="Times New Roman,serif" font-size="15.00">xor</text>
</g>
<!-- 2529009262208&#45;&#45;2529009259568 -->
<g id="edge16" class="edge"><title>2529009262208&#45;&#45;2529009259568</title>
<path fill="none" stroke="black" d="M292.345,-289.811C302.074,-278.07 315.477,-261.893 325.199,-250.159"/>
</g>
<!-- 2529009261584 -->
<g id="node10" class="node"><title>2529009261584</title>
<ellipse fill="black" stroke="black" cx="153.76" cy="-162" rx="2.7" ry="2.7"/>
</g>
<!-- 2529009261872&#45;&#45;2529009261584 -->
<g id="edge6" class="edge"><title>2529009261872&#45;&#45;2529009261584</title>
<path fill="none" stroke="black" d="M205.22,-216.765C187.902,-198.671 161.491,-171.078 155.159,-164.462"/>
</g>
<!-- 2529009261056 -->
<g id="node11" class="node"><title>2529009261056</title>
<ellipse fill="none" stroke="black" cx="220.76" cy="-162" rx="45.7249" ry="18"/>
<text text-anchor="middle" x="220.76" y="-158.5" font-family="Times New Roman,serif" font-size="15.00">Payment</text>
</g>
<!-- 2529009261872&#45;&#45;2529009261056 -->
<g id="edge7" class="edge"><title>2529009261872&#45;&#45;2529009261056</title>
<path fill="none" stroke="black" d="M220.76,-215.697C220.76,-204.846 220.76,-190.917 220.76,-180.104"/>
</g>
<!-- 2529009261200 -->
<g id="node13" class="node"><title>2529009261200</title>
<ellipse fill="none" stroke="black" cx="337.76" cy="-162" rx="52.6228" ry="18"/>
<text text-anchor="middle" x="337.76" y="-158.5" font-family="Times New Roman,serif" font-size="15.00">Send Fine</text>
</g>
<!-- 2529009259568&#45;&#45;2529009261200 -->
<g id="edge9" class="edge"><title>2529009259568&#45;&#45;2529009261200</title>
<path fill="none" stroke="black" d="M337.76,-215.697C337.76,-204.846 337.76,-190.917 337.76,-180.104"/>
</g>
<!-- 2529009260336 -->
<g id="node14" class="node"><title>2529009260336</title>
<ellipse fill="none" stroke="black" cx="435.76" cy="-162" rx="27" ry="18"/>
<text text-anchor="middle" x="435.76" y="-158.5" font-family="Times New Roman,serif" font-size="15.00">seq</text>
</g>
<!-- 2529009259568&#45;&#45;2529009260336 -->
<g id="edge15" class="edge"><title>2529009259568&#45;&#45;2529009260336</title>
<path fill="none" stroke="black" d="M355.735,-220.161C373.417,-207.531 400.256,-188.36 417.899,-175.758"/>
</g>
<!-- 2529009261392 -->
<g id="node15" class="node"><title>2529009261392</title>
<ellipse fill="none" stroke="black" cx="256.76" cy="-90" rx="52.6228" ry="18"/>
<text text-anchor="middle" x="256.76" y="-86.5" font-family="Times New Roman,serif" font-size="15.00">Send Fine</text>
</g>
<!-- 2529009260336&#45;&#45;2529009261392 -->
<g id="edge10" class="edge"><title>2529009260336&#45;&#45;2529009261392</title>
<path fill="none" stroke="black" d="M413.089,-152.134C382.045,-139.994 326.076,-118.107 290.209,-104.081"/>
</g>
<!-- 2529009259616 -->
<g id="node16" class="node"><title>2529009259616</title>
<ellipse fill="none" stroke="black" cx="435.76" cy="-90" rx="107.914" ry="18"/>
<text text-anchor="middle" x="435.76" y="-86.5" font-family="Times New Roman,serif" font-size="15.00">Insert Fine Notification</text>
</g>
<!-- 2529009260336&#45;&#45;2529009259616 -->
<g id="edge11" class="edge"><title>2529009260336&#45;&#45;2529009259616</title>
<path fill="none" stroke="black" d="M435.76,-143.697C435.76,-132.846 435.76,-118.917 435.76,-108.104"/>
</g>
<!-- 2529009259424 -->
<g id="node17" class="node"><title>2529009259424</title>
<ellipse fill="none" stroke="black" cx="607.76" cy="-90" rx="46.6143" ry="18"/>
<text text-anchor="middle" x="607.76" y="-86.5" font-family="Times New Roman,serif" font-size="15.00">xor loop</text>
</g>
<!-- 2529009260336&#45;&#45;2529009259424 -->
<g id="edge14" class="edge"><title>2529009260336&#45;&#45;2529009259424</title>
<path fill="none" stroke="black" d="M458.246,-151.849C488.569,-139.508 542.694,-117.48 576.833,-103.587"/>
</g>
<!-- 2529009258752 -->
<g id="node18" class="node"><title>2529009258752</title>
<ellipse fill="black" stroke="black" cx="565.76" cy="-18" rx="2.7" ry="2.7"/>
</g>
<!-- 2529009259424&#45;&#45;2529009258752 -->
<g id="edge12" class="edge"><title>2529009259424&#45;&#45;2529009258752</title>
<path fill="none" stroke="black" d="M597.806,-72.411C587.133,-54.622 571.137,-27.9625 566.85,-20.8163"/>
</g>
<!-- 2529009258560 -->
<g id="node19" class="node"><title>2529009258560</title>
<ellipse fill="none" stroke="black" cx="648.76" cy="-18" rx="61.6894" ry="18"/>
<text text-anchor="middle" x="648.76" y="-14.5" font-family="Times New Roman,serif" font-size="15.00">Add penalty</text>
</g>
<!-- 2529009259424&#45;&#45;2529009258560 -->
<g id="edge13" class="edge"><title>2529009259424&#45;&#45;2529009258560</title>
<path fill="none" stroke="black" d="M617.685,-72.055C624.131,-61.0492 632.498,-46.7636 638.926,-35.789"/>
</g>
<!-- 2529009260000 -->
<g id="node21" class="node"><title>2529009260000</title>
<ellipse fill="black" stroke="black" cx="327.76" cy="-306" rx="2.7" ry="2.7"/>
</g>
<!-- 2529009259184&#45;&#45;2529009260000 -->
<g id="edge19" class="edge"><title>2529009259184&#45;&#45;2529009260000</title>
<path fill="none" stroke="black" d="M327.76,-359.697C327.76,-341.883 327.76,-315.769 327.76,-308.776"/>
</g>
<!-- 2529009260576 -->
<g id="node22" class="node"><title>2529009260576</title>
<ellipse fill="none" stroke="black" cx="469.76" cy="-306" rx="120.819" ry="18"/>
<text text-anchor="middle" x="469.76" y="-302.5" font-family="Times New Roman,serif" font-size="15.00">Send for Credit Collection</text>
</g>
<!-- 2529009259184&#45;&#45;2529009260576 -->
<g id="edge20" class="edge"><title>2529009259184&#45;&#45;2529009260576</title>
<path fill="none" stroke="black" d="M349.019,-366.52C372.152,-355.116 409.444,-336.733 436.468,-323.412"/>
</g>
</g>
</svg>
