<?xml version="1.0" encoding="UTF-8" standalone="no"?>
<!DOCTYPE svg PUBLIC "-//W3C//DTD SVG 1.1//EN"
 "http://www.w3.org/Graphics/SVG/1.1/DTD/svg11.dtd">
<!-- Generated by graphviz version 2.38.0 (20140413.2041)
 -->
<!-- Title: pt Pages: 1 -->
<svg width="1576pt" height="548pt"
 viewBox="0.00 0.00 1576.38 548.00" xmlns="http://www.w3.org/2000/svg" xmlns:xlink="http://www.w3.org/1999/xlink">
<g id="graph0" class="graph" transform="scale(1 1) rotate(0) translate(4 544)">
<title>pt</title>
<!-- 2529188581872 -->
<g id="node1" class="node"><title>2529188581872</title>
<ellipse fill="none" stroke="black" cx="489.536" cy="-522" rx="27" ry="18"/>
<text text-anchor="middle" x="489.536" y="-518.5" font-family="Times New Roman,serif" font-size="15.00">seq</text>
</g>
<!-- 2529188583792 -->
<g id="node2" class="node"><title>2529188583792</title>
<ellipse fill="none" stroke="black" cx="348.536" cy="-450" rx="59.5207" ry="18"/>
<text text-anchor="middle" x="348.536" y="-446.5" font-family="Times New Roman,serif" font-size="15.00">Create Fine</text>
</g>
<!-- 2529188581872&#45;&#45;2529188583792 -->
<g id="edge1" class="edge"><title>2529188581872&#45;&#45;2529188583792</title>
<path fill="none" stroke="black" d="M468.426,-510.52C444.457,-498.621 405.18,-479.122 378.153,-465.704"/>
</g>
<!-- 2529188583744 -->
<g id="node3" class="node"><title>2529188583744</title>
<ellipse fill="none" stroke="black" cx="453.536" cy="-450" rx="27" ry="18"/>
<text text-anchor="middle" x="453.536" y="-446.5" font-family="Times New Roman,serif" font-size="15.00">xor</text>
</g>
<!-- 2529188581872&#45;&#45;2529188583744 -->
<g id="edge4" class="edge"><title>2529188581872&#45;&#45;2529188583744</title>
<path fill="none" stroke="black" d="M481.186,-504.765C475.37,-493.456 467.646,-478.437 461.84,-467.147"/>
</g>
<!-- 2529188581824 -->
<g id="node6" class="node"><title>2529188581824</title>
<ellipse fill="none" stroke="black" cx="525.536" cy="-450" rx="27" ry="18"/>
<text text-anchor="middle" x="525.536" y="-446.5" font-family="Times New Roman,serif" font-size="15.00">xor</text>
</g>
<!-- 2529188581872&#45;&#45;2529188581824 -->
<g id="edge33" class="edge"><title>2529188581872&#45;&#45;2529188581824</title>
<path fill="none" stroke="black" d="M497.885,-504.765C503.701,-493.456 511.425,-478.437 517.231,-467.147"/>
</g>
<!-- 2529188582400 -->
<g id="node35" class="node"><title>2529188582400</title>
<ellipse fill="none" stroke="black" cx="616.536" cy="-450" rx="27" ry="18"/>
<text text-anchor="middle" x="616.536" y="-446.5" font-family="Times New Roman,serif" font-size="15.00">xor</text>
</g>
<!-- 2529188581872&#45;&#45;2529188582400 -->
<g id="edge36" class="edge"><title>2529188581872&#45;&#45;2529188582400</title>
<path fill="none" stroke="black" d="M509.659,-509.908C533.3,-496.878 572.305,-475.379 596.086,-462.272"/>
</g>
<!-- 2529188583264 -->
<g id="node4" class="node"><title>2529188583264</title>
<ellipse fill="black" stroke="black" cx="386.536" cy="-378" rx="2.7" ry="2.7"/>
</g>
<!-- 2529188583744&#45;&#45;2529188583264 -->
<g id="edge2" class="edge"><title>2529188583744&#45;&#45;2529188583264</title>
<path fill="none" stroke="black" d="M439.653,-434.496C422.481,-416.555 394.692,-387.522 388.013,-380.544"/>
</g>
<!-- 2529188581920 -->
<g id="node5" class="node"><title>2529188581920</title>
<ellipse fill="none" stroke="black" cx="453.536" cy="-378" rx="45.7249" ry="18"/>
<text text-anchor="middle" x="453.536" y="-374.5" font-family="Times New Roman,serif" font-size="15.00">Payment</text>
</g>
<!-- 2529188583744&#45;&#45;2529188581920 -->
<g id="edge3" class="edge"><title>2529188583744&#45;&#45;2529188581920</title>
<path fill="none" stroke="black" d="M453.536,-431.697C453.536,-420.846 453.536,-406.917 453.536,-396.104"/>
</g>
<!-- 2529188584560 -->
<g id="node7" class="node"><title>2529188584560</title>
<ellipse fill="black" stroke="black" cx="520.536" cy="-378" rx="2.7" ry="2.7"/>
</g>
<!-- 2529188581824&#45;&#45;2529188584560 -->
<g id="edge5" class="edge"><title>2529188581824&#45;&#45;2529188584560</title>
<path fill="none" stroke="black" d="M524.3,-431.697C523.027,-413.883 521.162,-387.769 520.662,-380.776"/>
</g>
<!-- 2529188582784 -->
<g id="node8" class="node"><title>2529188582784</title>
<ellipse fill="none" stroke="black" cx="568.536" cy="-378" rx="27" ry="18"/>
<text text-anchor="middle" x="568.536" y="-374.5" font-family="Times New Roman,serif" font-size="15.00">and</text>
</g>
<!-- 2529188581824&#45;&#45;2529188582784 -->
<g id="edge32" class="edge"><title>2529188581824&#45;&#45;2529188582784</title>
<path fill="none" stroke="black" d="M535.293,-433.116C542.33,-421.66 551.788,-406.263 558.817,-394.821"/>
</g>
<!-- 2529188582112 -->
<g id="node9" class="node"><title>2529188582112</title>
<ellipse fill="none" stroke="black" cx="445.536" cy="-306" rx="27" ry="18"/>
<text text-anchor="middle" x="445.536" y="-302.5" font-family="Times New Roman,serif" font-size="15.00">xor</text>
</g>
<!-- 2529188582784&#45;&#45;2529188582112 -->
<g id="edge8" class="edge"><title>2529188582784&#45;&#45;2529188582112</title>
<path fill="none" stroke="black" d="M548.5,-365.597C525.627,-352.581 488.432,-331.413 465.563,-318.398"/>
</g>
<!-- 2529188583696 -->
<g id="node12" class="node"><title>2529188583696</title>
<ellipse fill="none" stroke="black" cx="568.536" cy="-306" rx="27" ry="18"/>
<text text-anchor="middle" x="568.536" y="-302.5" font-family="Times New Roman,serif" font-size="15.00">xor</text>
</g>
<!-- 2529188582784&#45;&#45;2529188583696 -->
<g id="edge19" class="edge"><title>2529188582784&#45;&#45;2529188583696</title>
<path fill="none" stroke="black" d="M568.536,-359.697C568.536,-348.846 568.536,-334.917 568.536,-324.104"/>
</g>
<!-- 2529188585376 -->
<g id="node23" class="node"><title>2529188585376</title>
<ellipse fill="none" stroke="black" cx="925.536" cy="-306" rx="27" ry="18"/>
<text text-anchor="middle" x="925.536" y="-302.5" font-family="Times New Roman,serif" font-size="15.00">and</text>
</g>
<!-- 2529188582784&#45;&#45;2529188585376 -->
<g id="edge31" class="edge"><title>2529188582784&#45;&#45;2529188585376</title>
<path fill="none" stroke="black" d="M594.21,-371.966C659.919,-359.082 833.635,-325.02 899.614,-312.083"/>
</g>
<!-- 2529188582256 -->
<g id="node10" class="node"><title>2529188582256</title>
<ellipse fill="black" stroke="black" cx="346.536" cy="-234" rx="2.7" ry="2.7"/>
</g>
<!-- 2529188582112&#45;&#45;2529188582256 -->
<g id="edge6" class="edge"><title>2529188582112&#45;&#45;2529188582256</title>
<path fill="none" stroke="black" d="M427.377,-292.161C401.923,-274.163 357.684,-242.883 348.312,-236.256"/>
</g>
<!-- 2529188581968 -->
<g id="node11" class="node"><title>2529188581968</title>
<ellipse fill="none" stroke="black" cx="445.536" cy="-234" rx="78.5434" ry="18"/>
<text text-anchor="middle" x="445.536" y="-230.5" font-family="Times New Roman,serif" font-size="15.00">Appeal to Judge</text>
</g>
<!-- 2529188582112&#45;&#45;2529188581968 -->
<g id="edge7" class="edge"><title>2529188582112&#45;&#45;2529188581968</title>
<path fill="none" stroke="black" d="M445.536,-287.697C445.536,-276.846 445.536,-262.917 445.536,-252.104"/>
</g>
<!-- 2529188585136 -->
<g id="node13" class="node"><title>2529188585136</title>
<ellipse fill="black" stroke="black" cx="544.536" cy="-234" rx="2.7" ry="2.7"/>
</g>
<!-- 2529188583696&#45;&#45;2529188585136 -->
<g id="edge9" class="edge"><title>2529188583696&#45;&#45;2529188585136</title>
<path fill="none" stroke="black" d="M562.726,-288.055C556.622,-270.252 547.575,-243.865 545.151,-236.796"/>
</g>
<!-- 2529188582928 -->
<g id="node14" class="node"><title>2529188582928</title>
<ellipse fill="none" stroke="black" cx="592.536" cy="-234" rx="27" ry="18"/>
<text text-anchor="middle" x="592.536" y="-230.5" font-family="Times New Roman,serif" font-size="15.00">seq</text>
</g>
<!-- 2529188583696&#45;&#45;2529188582928 -->
<g id="edge18" class="edge"><title>2529188583696&#45;&#45;2529188582928</title>
<path fill="none" stroke="black" d="M574.345,-288.055C578.119,-277.049 583.017,-262.764 586.779,-251.789"/>
</g>
<!-- 2529188581776 -->
<g id="node15" class="node"><title>2529188581776</title>
<ellipse fill="none" stroke="black" cx="144.536" cy="-162" rx="144.571" ry="18"/>
<text text-anchor="middle" x="144.536" y="-158.5" font-family="Times New Roman,serif" font-size="15.00">Insert Date Appeal to Prefecture</text>
</g>
<!-- 2529188582928&#45;&#45;2529188581776 -->
<g id="edge10" class="edge"><title>2529188582928&#45;&#45;2529188581776</title>
<path fill="none" stroke="black" d="M566.513,-228.934C502.365,-218.911 334.357,-192.66 230.721,-176.466"/>
</g>
<!-- 2529188584848 -->
<g id="node16" class="node"><title>2529188584848</title>
<ellipse fill="none" stroke="black" cx="427.536" cy="-162" rx="120.43" ry="18"/>
<text text-anchor="middle" x="427.536" y="-158.5" font-family="Times New Roman,serif" font-size="15.00">Send Appeal to Prefecture</text>
</g>
<!-- 2529188582928&#45;&#45;2529188584848 -->
<g id="edge11" class="edge"><title>2529188582928&#45;&#45;2529188584848</title>
<path fill="none" stroke="black" d="M570.283,-223.559C543.454,-212.177 497.933,-192.866 465.511,-179.111"/>
</g>
<!-- 2529188584656 -->
<g id="node17" class="node"><title>2529188584656</title>
<ellipse fill="none" stroke="black" cx="592.536" cy="-162" rx="27" ry="18"/>
<text text-anchor="middle" x="592.536" y="-158.5" font-family="Times New Roman,serif" font-size="15.00">xor</text>
</g>
<!-- 2529188582928&#45;&#45;2529188584656 -->
<g id="edge14" class="edge"><title>2529188582928&#45;&#45;2529188584656</title>
<path fill="none" stroke="black" d="M592.536,-215.697C592.536,-204.846 592.536,-190.917 592.536,-180.104"/>
</g>
<!-- 2529188584464 -->
<g id="node20" class="node"><title>2529188584464</title>
<ellipse fill="none" stroke="black" cx="725.536" cy="-162" rx="27" ry="18"/>
<text text-anchor="middle" x="725.536" y="-158.5" font-family="Times New Roman,serif" font-size="15.00">xor</text>
</g>
<!-- 2529188582928&#45;&#45;2529188584464 -->
<g id="edge17" class="edge"><title>2529188582928&#45;&#45;2529188584464</title>
<path fill="none" stroke="black" d="M613.025,-222.216C637.946,-209.1 679.774,-187.085 704.803,-173.912"/>
</g>
<!-- 2529188584416 -->
<g id="node18" class="node"><title>2529188584416</title>
<ellipse fill="black" stroke="black" cx="337.536" cy="-90" rx="2.7" ry="2.7"/>
</g>
<!-- 2529188584656&#45;&#45;2529188584416 -->
<g id="edge12" class="edge"><title>2529188584656&#45;&#45;2529188584416</title>
<path fill="none" stroke="black" d="M568.085,-154.288C508.748,-138 360.473,-97.2964 339.915,-91.6531"/>
</g>
<!-- 2529188582688 -->
<g id="node19" class="node"><title>2529188582688</title>
<ellipse fill="none" stroke="black" cx="531.536" cy="-90" rx="173.941" ry="18"/>
<text text-anchor="middle" x="531.536" y="-86.5" font-family="Times New Roman,serif" font-size="15.00">Receive Result Appeal from Prefecture</text>
</g>
<!-- 2529188584656&#45;&#45;2529188582688 -->
<g id="edge13" class="edge"><title>2529188584656&#45;&#45;2529188582688</title>
<path fill="none" stroke="black" d="M579.599,-146.155C569.877,-134.998 556.542,-119.696 546.385,-108.04"/>
</g>
<!-- 2529185929200 -->
<g id="node21" class="node"><title>2529185929200</title>
<ellipse fill="black" stroke="black" cx="725.536" cy="-90" rx="2.7" ry="2.7"/>
</g>
<!-- 2529188584464&#45;&#45;2529185929200 -->
<g id="edge15" class="edge"><title>2529188584464&#45;&#45;2529185929200</title>
<path fill="none" stroke="black" d="M725.536,-143.697C725.536,-125.883 725.536,-99.7686 725.536,-92.7764"/>
</g>
<!-- 2529185929920 -->
<g id="node22" class="node"><title>2529185929920</title>
<ellipse fill="none" stroke="black" cx="894.536" cy="-90" rx="148.91" ry="18"/>
<text text-anchor="middle" x="894.536" y="-86.5" font-family="Times New Roman,serif" font-size="15.00">Notify Result Appeal to Offender</text>
</g>
<!-- 2529188584464&#45;&#45;2529185929920 -->
<g id="edge16" class="edge"><title>2529188584464&#45;&#45;2529185929920</title>
<path fill="none" stroke="black" d="M747.977,-151.705C775.183,-140.436 821.516,-121.245 854.81,-107.454"/>
</g>
<!-- 2529185931120 -->
<g id="node24" class="node"><title>2529185931120</title>
<ellipse fill="none" stroke="black" cx="925.536" cy="-234" rx="46.6143" ry="18"/>
<text text-anchor="middle" x="925.536" y="-230.5" font-family="Times New Roman,serif" font-size="15.00">xor loop</text>
</g>
<!-- 2529188585376&#45;&#45;2529185931120 -->
<g id="edge22" class="edge"><title>2529188585376&#45;&#45;2529185931120</title>
<path fill="none" stroke="black" d="M925.536,-287.697C925.536,-276.846 925.536,-262.917 925.536,-252.104"/>
</g>
<!-- 2529185929776 -->
<g id="node27" class="node"><title>2529185929776</title>
<ellipse fill="none" stroke="black" cx="1135.54" cy="-234" rx="27" ry="18"/>
<text text-anchor="middle" x="1135.54" y="-230.5" font-family="Times New Roman,serif" font-size="15.00">xor</text>
</g>
<!-- 2529188585376&#45;&#45;2529185929776 -->
<g id="edge30" class="edge"><title>2529188585376&#45;&#45;2529185929776</title>
<path fill="none" stroke="black" d="M949.217,-297.106C989.656,-283.626 1071.56,-256.325 1111.94,-242.865"/>
</g>
<!-- 2529185888912 -->
<g id="node25" class="node"><title>2529185888912</title>
<ellipse fill="black" stroke="black" cx="892.536" cy="-162" rx="2.7" ry="2.7"/>
</g>
<!-- 2529185931120&#45;&#45;2529185888912 -->
<g id="edge20" class="edge"><title>2529185931120&#45;&#45;2529185888912</title>
<path fill="none" stroke="black" d="M917.547,-216.055C909.154,-198.252 896.715,-171.865 893.382,-164.796"/>
</g>
<!-- 2529185889872 -->
<g id="node26" class="node"><title>2529185889872</title>
<ellipse fill="none" stroke="black" cx="959.536" cy="-162" rx="45.7249" ry="18"/>
<text text-anchor="middle" x="959.536" y="-158.5" font-family="Times New Roman,serif" font-size="15.00">Payment</text>
</g>
<!-- 2529185931120&#45;&#45;2529185889872 -->
<g id="edge21" class="edge"><title>2529185931120&#45;&#45;2529185889872</title>
<path fill="none" stroke="black" d="M933.766,-216.055C939.112,-205.049 946.05,-190.764 951.381,-179.789"/>
</g>
<!-- 2529185888384 -->
<g id="node28" class="node"><title>2529185888384</title>
<ellipse fill="none" stroke="black" cx="1135.54" cy="-162" rx="52.6228" ry="18"/>
<text text-anchor="middle" x="1135.54" y="-158.5" font-family="Times New Roman,serif" font-size="15.00">Send Fine</text>
</g>
<!-- 2529185929776&#45;&#45;2529185888384 -->
<g id="edge23" class="edge"><title>2529185929776&#45;&#45;2529185888384</title>
<path fill="none" stroke="black" d="M1135.54,-215.697C1135.54,-204.846 1135.54,-190.917 1135.54,-180.104"/>
</g>
<!-- 2529185889200 -->
<g id="node29" class="node"><title>2529185889200</title>
<ellipse fill="none" stroke="black" cx="1263.54" cy="-162" rx="27" ry="18"/>
<text text-anchor="middle" x="1263.54" y="-158.5" font-family="Times New Roman,serif" font-size="15.00">seq</text>
</g>
<!-- 2529185929776&#45;&#45;2529185889200 -->
<g id="edge29" class="edge"><title>2529185929776&#45;&#45;2529185889200</title>
<path fill="none" stroke="black" d="M1155.82,-221.908C1179.79,-208.801 1219.42,-187.124 1243.35,-174.04"/>
</g>
<!-- 2529185888528 -->
<g id="node30" class="node"><title>2529185888528</title>
<ellipse fill="none" stroke="black" cx="1114.54" cy="-90" rx="52.6228" ry="18"/>
<text text-anchor="middle" x="1114.54" y="-86.5" font-family="Times New Roman,serif" font-size="15.00">Send Fine</text>
</g>
<!-- 2529185889200&#45;&#45;2529185888528 -->
<g id="edge24" class="edge"><title>2529185889200&#45;&#45;2529185888528</title>
<path fill="none" stroke="black" d="M1242.19,-150.971C1216.52,-138.911 1173.28,-118.599 1144.33,-104.999"/>
</g>
<!-- 2529185886320 -->
<g id="node31" class="node"><title>2529185886320</title>
<ellipse fill="none" stroke="black" cx="1293.54" cy="-90" rx="107.914" ry="18"/>
<text text-anchor="middle" x="1293.54" y="-86.5" font-family="Times New Roman,serif" font-size="15.00">Insert Fine Notification</text>
</g>
<!-- 2529185889200&#45;&#45;2529185886320 -->
<g id="edge25" class="edge"><title>2529185889200&#45;&#45;2529185886320</title>
<path fill="none" stroke="black" d="M1270.65,-144.411C1275.29,-133.576 1281.34,-119.45 1286.06,-108.447"/>
</g>
<!-- 2529185889824 -->
<g id="node32" class="node"><title>2529185889824</title>
<ellipse fill="none" stroke="black" cx="1465.54" cy="-90" rx="46.6143" ry="18"/>
<text text-anchor="middle" x="1465.54" y="-86.5" font-family="Times New Roman,serif" font-size="15.00">xor loop</text>
</g>
<!-- 2529185889200&#45;&#45;2529185889824 -->
<g id="edge28" class="edge"><title>2529185889200&#45;&#45;2529185889824</title>
<path fill="none" stroke="black" d="M1287.1,-152.833C1322.9,-140.427 1391.14,-116.779 1432.07,-102.596"/>
</g>
<!-- 2529185886752 -->
<g id="node33" class="node"><title>2529185886752</title>
<ellipse fill="black" stroke="black" cx="1423.54" cy="-18" rx="2.7" ry="2.7"/>
</g>
<!-- 2529185889824&#45;&#45;2529185886752 -->
<g id="edge26" class="edge"><title>2529185889824&#45;&#45;2529185886752</title>
<path fill="none" stroke="black" d="M1455.58,-72.411C1444.91,-54.622 1428.91,-27.9625 1424.63,-20.8163"/>
</g>
<!-- 2529185889056 -->
<g id="node34" class="node"><title>2529185889056</title>
<ellipse fill="none" stroke="black" cx="1506.54" cy="-18" rx="61.6894" ry="18"/>
<text text-anchor="middle" x="1506.54" y="-14.5" font-family="Times New Roman,serif" font-size="15.00">Add penalty</text>
</g>
<!-- 2529185889824&#45;&#45;2529185889056 -->
<g id="edge27" class="edge"><title>2529185889824&#45;&#45;2529185889056</title>
<path fill="none" stroke="black" d="M1475.46,-72.055C1481.91,-61.0492 1490.27,-46.7636 1496.7,-35.789"/>
</g>
<!-- 2529185889008 -->
<g id="node36" class="node"><title>2529185889008</title>
<ellipse fill="black" stroke="black" cx="616.536" cy="-378" rx="2.7" ry="2.7"/>
</g>
<!-- 2529188582400&#45;&#45;2529185889008 -->
<g id="edge34" class="edge"><title>2529188582400&#45;&#45;2529185889008</title>
<path fill="none" stroke="black" d="M616.536,-431.697C616.536,-413.883 616.536,-387.769 616.536,-380.776"/>
</g>
<!-- 2529185886608 -->
<g id="node37" class="node"><title>2529185886608</title>
<ellipse fill="none" stroke="black" cx="758.536" cy="-378" rx="120.819" ry="18"/>
<text text-anchor="middle" x="758.536" y="-374.5" font-family="Times New Roman,serif" font-size="15.00">Send for Credit Collection</text>
</g>
<!-- 2529188582400&#45;&#45;2529185886608 -->
<g id="edge35" class="edge"><title>2529188582400&#45;&#45;2529185886608</title>
<path fill="none" stroke="black" d="M637.794,-438.52C660.928,-427.116 698.219,-408.733 725.244,-395.412"/>
</g>
</g>
</svg>
