<?xml version="1.0" encoding="UTF-8" standalone="no"?>
<!DOCTYPE svg PUBLIC "-//W3C//DTD SVG 1.1//EN"
 "http://www.w3.org/Graphics/SVG/1.1/DTD/svg11.dtd">
<!-- Generated by graphviz version 2.38.0 (20140413.2041)
 -->
<!-- Title: pt Pages: 1 -->
<svg width="829pt" height="404pt"
 viewBox="0.00 0.00 828.67 404.00" xmlns="http://www.w3.org/2000/svg" xmlns:xlink="http://www.w3.org/1999/xlink">
<g id="graph0" class="graph" transform="scale(1 1) rotate(0) translate(4 400)">
<title>pt</title>
<!-- 2529010187328 -->
<g id="node1" class="node"><title>2529010187328</title>
<ellipse fill="none" stroke="black" cx="301.76" cy="-378" rx="27" ry="18"/>
<text text-anchor="middle" x="301.76" y="-374.5" font-family="Times New Roman,serif" font-size="15.00">seq</text>
</g>
<!-- 2529010184784 -->
<g id="node2" class="node"><title>2529010184784</title>
<ellipse fill="none" stroke="black" cx="59.7599" cy="-306" rx="59.5207" ry="18"/>
<text text-anchor="middle" x="59.7599" y="-302.5" font-family="Times New Roman,serif" font-size="15.00">Create Fine</text>
</g>
<!-- 2529010187328&#45;&#45;2529010184784 -->
<g id="edge1" class="edge"><title>2529010187328&#45;&#45;2529010184784</title>
<path fill="none" stroke="black" d="M277.224,-369.903C235.888,-357.946 151.93,-333.661 101.284,-319.011"/>
</g>
<!-- 2529010187760 -->
<g id="node3" class="node"><title>2529010187760</title>
<ellipse fill="none" stroke="black" cx="164.76" cy="-306" rx="27" ry="18"/>
<text text-anchor="middle" x="164.76" y="-302.5" font-family="Times New Roman,serif" font-size="15.00">xor</text>
</g>
<!-- 2529010187328&#45;&#45;2529010187760 -->
<g id="edge4" class="edge"><title>2529010187328&#45;&#45;2529010187760</title>
<path fill="none" stroke="black" d="M280.953,-366.369C255.203,-353.212 211.603,-330.934 185.763,-317.732"/>
</g>
<!-- 2529010186560 -->
<g id="node6" class="node"><title>2529010186560</title>
<ellipse fill="none" stroke="black" cx="301.76" cy="-306" rx="27" ry="18"/>
<text text-anchor="middle" x="301.76" y="-302.5" font-family="Times New Roman,serif" font-size="15.00">xor</text>
</g>
<!-- 2529010187328&#45;&#45;2529010186560 -->
<g id="edge7" class="edge"><title>2529010187328&#45;&#45;2529010186560</title>
<path fill="none" stroke="black" d="M301.76,-359.697C301.76,-348.846 301.76,-334.917 301.76,-324.104"/>
</g>
<!-- 2529010184880 -->
<g id="node9" class="node"><title>2529010184880</title>
<ellipse fill="none" stroke="black" cx="461.76" cy="-306" rx="27" ry="18"/>
<text text-anchor="middle" x="461.76" y="-302.5" font-family="Times New Roman,serif" font-size="15.00">xor</text>
</g>
<!-- 2529010187328&#45;&#45;2529010184880 -->
<g id="edge18" class="edge"><title>2529010187328&#45;&#45;2529010184880</title>
<path fill="none" stroke="black" d="M323.672,-367.414C354.226,-354.046 409.307,-329.948 439.857,-316.583"/>
</g>
<!-- 2529006651184 -->
<g id="node20" class="node"><title>2529006651184</title>
<ellipse fill="none" stroke="black" cx="557.76" cy="-306" rx="27" ry="18"/>
<text text-anchor="middle" x="557.76" y="-302.5" font-family="Times New Roman,serif" font-size="15.00">xor</text>
</g>
<!-- 2529010187328&#45;&#45;2529006651184 -->
<g id="edge21" class="edge"><title>2529010187328&#45;&#45;2529006651184</title>
<path fill="none" stroke="black" d="M326.306,-370.288C375.238,-356.908 484.417,-327.055 533.288,-313.692"/>
</g>
<!-- 2529006650272 -->
<g id="node4" class="node"><title>2529006650272</title>
<ellipse fill="black" stroke="black" cx="57.7599" cy="-234" rx="2.7" ry="2.7"/>
</g>
<!-- 2529010187760&#45;&#45;2529006650272 -->
<g id="edge2" class="edge"><title>2529010187760&#45;&#45;2529006650272</title>
<path fill="none" stroke="black" d="M146.122,-292.807C118.579,-274.788 69.2024,-242.486 59.4568,-236.11"/>
</g>
<!-- 2529010186176 -->
<g id="node5" class="node"><title>2529010186176</title>
<ellipse fill="none" stroke="black" cx="131.76" cy="-234" rx="52.6228" ry="18"/>
<text text-anchor="middle" x="131.76" y="-230.5" font-family="Times New Roman,serif" font-size="15.00">Send Fine</text>
</g>
<!-- 2529010187760&#45;&#45;2529010186176 -->
<g id="edge3" class="edge"><title>2529010187760&#45;&#45;2529010186176</title>
<path fill="none" stroke="black" d="M156.939,-288.411C151.755,-277.414 144.973,-263.027 139.754,-251.956"/>
</g>
<!-- 2529006650704 -->
<g id="node7" class="node"><title>2529006650704</title>
<ellipse fill="black" stroke="black" cx="205.76" cy="-234" rx="2.7" ry="2.7"/>
</g>
<!-- 2529010186560&#45;&#45;2529006650704 -->
<g id="edge5" class="edge"><title>2529010186560&#45;&#45;2529006650704</title>
<path fill="none" stroke="black" d="M284.152,-292.161C259.469,-274.163 216.571,-242.883 207.482,-236.256"/>
</g>
<!-- 2529006653248 -->
<g id="node8" class="node"><title>2529006653248</title>
<ellipse fill="none" stroke="black" cx="333.76" cy="-234" rx="107.914" ry="18"/>
<text text-anchor="middle" x="333.76" y="-230.5" font-family="Times New Roman,serif" font-size="15.00">Insert Fine Notification</text>
</g>
<!-- 2529010186560&#45;&#45;2529006653248 -->
<g id="edge6" class="edge"><title>2529010186560&#45;&#45;2529006653248</title>
<path fill="none" stroke="black" d="M309.343,-288.411C314.371,-277.414 320.947,-263.027 326.008,-251.956"/>
</g>
<!-- 2529006651424 -->
<g id="node10" class="node"><title>2529006651424</title>
<ellipse fill="black" stroke="black" cx="461.76" cy="-234" rx="2.7" ry="2.7"/>
</g>
<!-- 2529010184880&#45;&#45;2529006651424 -->
<g id="edge8" class="edge"><title>2529010184880&#45;&#45;2529006651424</title>
<path fill="none" stroke="black" d="M461.76,-287.697C461.76,-269.883 461.76,-243.769 461.76,-236.776"/>
</g>
<!-- 2529006650896 -->
<g id="node11" class="node"><title>2529006650896</title>
<ellipse fill="none" stroke="black" cx="509.76" cy="-234" rx="27" ry="18"/>
<text text-anchor="middle" x="509.76" y="-230.5" font-family="Times New Roman,serif" font-size="15.00">and</text>
</g>
<!-- 2529010184880&#45;&#45;2529006650896 -->
<g id="edge17" class="edge"><title>2529010184880&#45;&#45;2529006650896</title>
<path fill="none" stroke="black" d="M472.652,-289.116C480.507,-277.66 491.065,-262.263 498.911,-250.821"/>
</g>
<!-- 2529006650080 -->
<g id="node12" class="node"><title>2529006650080</title>
<ellipse fill="none" stroke="black" cx="473.76" cy="-162" rx="27" ry="18"/>
<text text-anchor="middle" x="473.76" y="-158.5" font-family="Times New Roman,serif" font-size="15.00">xor</text>
</g>
<!-- 2529006650896&#45;&#45;2529006650080 -->
<g id="edge13" class="edge"><title>2529006650896&#45;&#45;2529006650080</title>
<path fill="none" stroke="black" d="M501.41,-216.765C495.594,-205.456 487.87,-190.437 482.064,-179.147"/>
</g>
<!-- 2529006652480 -->
<g id="node17" class="node"><title>2529006652480</title>
<ellipse fill="none" stroke="black" cx="545.76" cy="-162" rx="27" ry="18"/>
<text text-anchor="middle" x="545.76" y="-158.5" font-family="Times New Roman,serif" font-size="15.00">xor</text>
</g>
<!-- 2529006650896&#45;&#45;2529006652480 -->
<g id="edge16" class="edge"><title>2529006650896&#45;&#45;2529006652480</title>
<path fill="none" stroke="black" d="M518.109,-216.765C523.925,-205.456 531.65,-190.437 537.456,-179.147"/>
</g>
<!-- 2529006652288 -->
<g id="node13" class="node"><title>2529006652288</title>
<ellipse fill="black" stroke="black" cx="408.76" cy="-90" rx="2.7" ry="2.7"/>
</g>
<!-- 2529006650080&#45;&#45;2529006652288 -->
<g id="edge9" class="edge"><title>2529006650080&#45;&#45;2529006652288</title>
<path fill="none" stroke="black" d="M459.975,-146.155C443.28,-128.175 416.59,-99.4321 410.178,-92.5271"/>
</g>
<!-- 2529006651040 -->
<g id="node14" class="node"><title>2529006651040</title>
<ellipse fill="none" stroke="black" cx="475.76" cy="-90" rx="46.6143" ry="18"/>
<text text-anchor="middle" x="475.76" y="-86.5" font-family="Times New Roman,serif" font-size="15.00">xor loop</text>
</g>
<!-- 2529006650080&#45;&#45;2529006651040 -->
<g id="edge12" class="edge"><title>2529006650080&#45;&#45;2529006651040</title>
<path fill="none" stroke="black" d="M474.254,-143.697C474.564,-132.846 474.962,-118.917 475.271,-108.104"/>
</g>
<!-- 2529006653104 -->
<g id="node15" class="node"><title>2529006653104</title>
<ellipse fill="none" stroke="black" cx="441.76" cy="-18" rx="45.7249" ry="18"/>
<text text-anchor="middle" x="441.76" y="-14.5" font-family="Times New Roman,serif" font-size="15.00">Payment</text>
</g>
<!-- 2529006651040&#45;&#45;2529006653104 -->
<g id="edge10" class="edge"><title>2529006651040&#45;&#45;2529006653104</title>
<path fill="none" stroke="black" d="M467.529,-72.055C462.184,-61.0492 455.245,-46.7636 449.915,-35.789"/>
</g>
<!-- 2529006651376 -->
<g id="node16" class="node"><title>2529006651376</title>
<ellipse fill="black" stroke="black" cx="508.76" cy="-18" rx="2.7" ry="2.7"/>
</g>
<!-- 2529006651040&#45;&#45;2529006651376 -->
<g id="edge11" class="edge"><title>2529006651040&#45;&#45;2529006651376</title>
<path fill="none" stroke="black" d="M483.748,-72.055C492.141,-54.2515 504.581,-27.8653 507.913,-20.7963"/>
</g>
<!-- 2529006650512 -->
<g id="node18" class="node"><title>2529006650512</title>
<ellipse fill="black" stroke="black" cx="544.76" cy="-90" rx="2.7" ry="2.7"/>
</g>
<!-- 2529006652480&#45;&#45;2529006650512 -->
<g id="edge14" class="edge"><title>2529006652480&#45;&#45;2529006650512</title>
<path fill="none" stroke="black" d="M545.513,-143.697C545.258,-125.883 544.885,-99.7686 544.785,-92.7764"/>
</g>
<!-- 2529006651664 -->
<g id="node19" class="node"><title>2529006651664</title>
<ellipse fill="none" stroke="black" cx="627.76" cy="-90" rx="61.6894" ry="18"/>
<text text-anchor="middle" x="627.76" y="-86.5" font-family="Times New Roman,serif" font-size="15.00">Add penalty</text>
</g>
<!-- 2529006652480&#45;&#45;2529006651664 -->
<g id="edge15" class="edge"><title>2529006652480&#45;&#45;2529006651664</title>
<path fill="none" stroke="black" d="M561.96,-147.17C575.403,-135.695 594.542,-119.357 608.716,-107.257"/>
</g>
<!-- 2529006652192 -->
<g id="node21" class="node"><title>2529006652192</title>
<ellipse fill="black" stroke="black" cx="557.76" cy="-234" rx="2.7" ry="2.7"/>
</g>
<!-- 2529006651184&#45;&#45;2529006652192 -->
<g id="edge19" class="edge"><title>2529006651184&#45;&#45;2529006652192</title>
<path fill="none" stroke="black" d="M557.76,-287.697C557.76,-269.883 557.76,-243.769 557.76,-236.776"/>
</g>
<!-- 2529006649600 -->
<g id="node22" class="node"><title>2529006649600</title>
<ellipse fill="none" stroke="black" cx="699.76" cy="-234" rx="120.819" ry="18"/>
<text text-anchor="middle" x="699.76" y="-230.5" font-family="Times New Roman,serif" font-size="15.00">Send for Credit Collection</text>
</g>
<!-- 2529006651184&#45;&#45;2529006649600 -->
<g id="edge20" class="edge"><title>2529006651184&#45;&#45;2529006649600</title>
<path fill="none" stroke="black" d="M579.019,-294.52C602.152,-283.116 639.444,-264.733 666.468,-251.412"/>
</g>
</g>
</svg>
