<?xml version="1.0" encoding="UTF-8" standalone="no"?>
<!DOCTYPE svg PUBLIC "-//W3C//DTD SVG 1.1//EN"
 "http://www.w3.org/Graphics/SVG/1.1/DTD/svg11.dtd">
<!-- Generated by graphviz version 2.38.0 (20140413.2041)
 -->
<!-- Title: pt Pages: 1 -->
<svg width="586pt" height="548pt"
 viewBox="0.00 0.00 586.32 548.00" xmlns="http://www.w3.org/2000/svg" xmlns:xlink="http://www.w3.org/1999/xlink">
<g id="graph0" class="graph" transform="scale(1 1) rotate(0) translate(4 544)">
<title>pt</title>
<!-- 2529009250064 -->
<g id="node1" class="node"><title>2529009250064</title>
<ellipse fill="none" stroke="black" cx="111.76" cy="-522" rx="27" ry="18"/>
<text text-anchor="middle" x="111.76" y="-518.5" font-family="Times New Roman,serif" font-size="15.00">seq</text>
</g>
<!-- 2529007075536 -->
<g id="node2" class="node"><title>2529007075536</title>
<ellipse fill="none" stroke="black" cx="59.7599" cy="-450" rx="59.5207" ry="18"/>
<text text-anchor="middle" x="59.7599" y="-446.5" font-family="Times New Roman,serif" font-size="15.00">Create Fine</text>
</g>
<!-- 2529009250064&#45;&#45;2529007075536 -->
<g id="edge1" class="edge"><title>2529009250064&#45;&#45;2529007075536</title>
<path fill="none" stroke="black" d="M100.219,-505.465C91.9612,-494.348 80.8493,-479.39 72.3601,-467.962"/>
</g>
<!-- 2529007075680 -->
<g id="node3" class="node"><title>2529007075680</title>
<ellipse fill="none" stroke="black" cx="164.76" cy="-450" rx="27" ry="18"/>
<text text-anchor="middle" x="164.76" y="-446.5" font-family="Times New Roman,serif" font-size="15.00">xor</text>
</g>
<!-- 2529009250064&#45;&#45;2529007075680 -->
<g id="edge17" class="edge"><title>2529009250064&#45;&#45;2529007075680</title>
<path fill="none" stroke="black" d="M123.522,-505.465C132.305,-493.865 144.255,-478.082 153.03,-466.492"/>
</g>
<!-- 2529007076016 -->
<g id="node4" class="node"><title>2529007076016</title>
<ellipse fill="none" stroke="black" cx="118.76" cy="-378" rx="45.7249" ry="18"/>
<text text-anchor="middle" x="118.76" y="-374.5" font-family="Times New Roman,serif" font-size="15.00">Payment</text>
</g>
<!-- 2529007075680&#45;&#45;2529007076016 -->
<g id="edge2" class="edge"><title>2529007075680&#45;&#45;2529007076016</title>
<path fill="none" stroke="black" d="M154.322,-433.116C147.006,-421.983 137.243,-407.127 129.798,-395.797"/>
</g>
<!-- 2529007075776 -->
<g id="node5" class="node"><title>2529007075776</title>
<ellipse fill="none" stroke="black" cx="209.76" cy="-378" rx="27" ry="18"/>
<text text-anchor="middle" x="209.76" y="-374.5" font-family="Times New Roman,serif" font-size="15.00">seq</text>
</g>
<!-- 2529007075680&#45;&#45;2529007075776 -->
<g id="edge16" class="edge"><title>2529007075680&#45;&#45;2529007075776</title>
<path fill="none" stroke="black" d="M174.971,-433.116C182.336,-421.66 192.234,-406.263 199.589,-394.821"/>
</g>
<!-- 2529007076400 -->
<g id="node6" class="node"><title>2529007076400</title>
<ellipse fill="none" stroke="black" cx="111.76" cy="-306" rx="52.6228" ry="18"/>
<text text-anchor="middle" x="111.76" y="-302.5" font-family="Times New Roman,serif" font-size="15.00">Send Fine</text>
</g>
<!-- 2529007075776&#45;&#45;2529007076400 -->
<g id="edge3" class="edge"><title>2529007075776&#45;&#45;2529007076400</title>
<path fill="none" stroke="black" d="M191.785,-364.161C175.318,-352.399 150.911,-334.965 133.384,-322.446"/>
</g>
<!-- 2529007076496 -->
<g id="node7" class="node"><title>2529007076496</title>
<ellipse fill="none" stroke="black" cx="209.76" cy="-306" rx="27" ry="18"/>
<text text-anchor="middle" x="209.76" y="-302.5" font-family="Times New Roman,serif" font-size="15.00">xor</text>
</g>
<!-- 2529007075776&#45;&#45;2529007076496 -->
<g id="edge6" class="edge"><title>2529007075776&#45;&#45;2529007076496</title>
<path fill="none" stroke="black" d="M209.76,-359.697C209.76,-348.846 209.76,-334.917 209.76,-324.104"/>
</g>
<!-- 2529007076736 -->
<g id="node10" class="node"><title>2529007076736</title>
<ellipse fill="none" stroke="black" cx="337.76" cy="-306" rx="27" ry="18"/>
<text text-anchor="middle" x="337.76" y="-302.5" font-family="Times New Roman,serif" font-size="15.00">xor</text>
</g>
<!-- 2529007075776&#45;&#45;2529007076736 -->
<g id="edge15" class="edge"><title>2529007075776&#45;&#45;2529007076736</title>
<path fill="none" stroke="black" d="M230.042,-365.908C254.01,-352.801 293.647,-331.124 317.573,-318.04"/>
</g>
<!-- 2529007076784 -->
<g id="node8" class="node"><title>2529007076784</title>
<ellipse fill="black" stroke="black" cx="81.7599" cy="-234" rx="2.7" ry="2.7"/>
</g>
<!-- 2529007076496&#45;&#45;2529007076784 -->
<g id="edge4" class="edge"><title>2529007076496&#45;&#45;2529007076784</title>
<path fill="none" stroke="black" d="M189.478,-293.908C157.051,-276.175 95.9423,-242.756 83.8641,-236.151"/>
</g>
<!-- 2529007076976 -->
<g id="node9" class="node"><title>2529007076976</title>
<ellipse fill="none" stroke="black" cx="209.76" cy="-234" rx="107.914" ry="18"/>
<text text-anchor="middle" x="209.76" y="-230.5" font-family="Times New Roman,serif" font-size="15.00">Insert Fine Notification</text>
</g>
<!-- 2529007076496&#45;&#45;2529007076976 -->
<g id="edge5" class="edge"><title>2529007076496&#45;&#45;2529007076976</title>
<path fill="none" stroke="black" d="M209.76,-287.697C209.76,-276.846 209.76,-262.917 209.76,-252.104"/>
</g>
<!-- 2529007077264 -->
<g id="node11" class="node"><title>2529007077264</title>
<ellipse fill="black" stroke="black" cx="337.76" cy="-234" rx="2.7" ry="2.7"/>
</g>
<!-- 2529007076736&#45;&#45;2529007077264 -->
<g id="edge7" class="edge"><title>2529007076736&#45;&#45;2529007077264</title>
<path fill="none" stroke="black" d="M337.76,-287.697C337.76,-269.883 337.76,-243.769 337.76,-236.776"/>
</g>
<!-- 2529007077408 -->
<g id="node12" class="node"><title>2529007077408</title>
<ellipse fill="none" stroke="black" cx="385.76" cy="-234" rx="27" ry="18"/>
<text text-anchor="middle" x="385.76" y="-230.5" font-family="Times New Roman,serif" font-size="15.00">seq</text>
</g>
<!-- 2529007076736&#45;&#45;2529007077408 -->
<g id="edge14" class="edge"><title>2529007076736&#45;&#45;2529007077408</title>
<path fill="none" stroke="black" d="M348.652,-289.116C356.507,-277.66 367.065,-262.263 374.911,-250.821"/>
</g>
<!-- 2529007077648 -->
<g id="node13" class="node"><title>2529007077648</title>
<ellipse fill="none" stroke="black" cx="331.76" cy="-162" rx="61.6894" ry="18"/>
<text text-anchor="middle" x="331.76" y="-158.5" font-family="Times New Roman,serif" font-size="15.00">Add penalty</text>
</g>
<!-- 2529007077408&#45;&#45;2529007077648 -->
<g id="edge8" class="edge"><title>2529007077408&#45;&#45;2529007077648</title>
<path fill="none" stroke="black" d="M373.776,-217.465C365.2,-206.348 353.66,-191.39 344.845,-179.962"/>
</g>
<!-- 2529007077744 -->
<g id="node14" class="node"><title>2529007077744</title>
<ellipse fill="none" stroke="black" cx="438.76" cy="-162" rx="27" ry="18"/>
<text text-anchor="middle" x="438.76" y="-158.5" font-family="Times New Roman,serif" font-size="15.00">xor</text>
</g>
<!-- 2529007077408&#45;&#45;2529007077744 -->
<g id="edge13" class="edge"><title>2529007077408&#45;&#45;2529007077744</title>
<path fill="none" stroke="black" d="M397.522,-217.465C406.305,-205.865 418.255,-190.082 427.03,-178.492"/>
</g>
<!-- 2529007078032 -->
<g id="node15" class="node"><title>2529007078032</title>
<ellipse fill="none" stroke="black" cx="346.76" cy="-90" rx="120.819" ry="18"/>
<text text-anchor="middle" x="346.76" y="-86.5" font-family="Times New Roman,serif" font-size="15.00">Send for Credit Collection</text>
</g>
<!-- 2529007077744&#45;&#45;2529007078032 -->
<g id="edge9" class="edge"><title>2529007077744&#45;&#45;2529007078032</title>
<path fill="none" stroke="black" d="M421.455,-147.834C406.569,-136.507 385.006,-120.101 368.871,-107.824"/>
</g>
<!-- 2529007078176 -->
<g id="node16" class="node"><title>2529007078176</title>
<ellipse fill="none" stroke="black" cx="531.76" cy="-90" rx="46.6143" ry="18"/>
<text text-anchor="middle" x="531.76" y="-86.5" font-family="Times New Roman,serif" font-size="15.00">xor loop</text>
</g>
<!-- 2529007077744&#45;&#45;2529007078176 -->
<g id="edge12" class="edge"><title>2529007077744&#45;&#45;2529007078176</title>
<path fill="none" stroke="black" d="M456.252,-147.834C471.932,-136.032 494.939,-118.715 511.431,-106.301"/>
</g>
<!-- 2529007078464 -->
<g id="node17" class="node"><title>2529007078464</title>
<ellipse fill="none" stroke="black" cx="497.76" cy="-18" rx="45.7249" ry="18"/>
<text text-anchor="middle" x="497.76" y="-14.5" font-family="Times New Roman,serif" font-size="15.00">Payment</text>
</g>
<!-- 2529007078176&#45;&#45;2529007078464 -->
<g id="edge10" class="edge"><title>2529007078176&#45;&#45;2529007078464</title>
<path fill="none" stroke="black" d="M523.529,-72.055C518.184,-61.0492 511.245,-46.7636 505.915,-35.789"/>
</g>
<!-- 2529007078560 -->
<g id="node18" class="node"><title>2529007078560</title>
<ellipse fill="black" stroke="black" cx="564.76" cy="-18" rx="2.7" ry="2.7"/>
</g>
<!-- 2529007078176&#45;&#45;2529007078560 -->
<g id="edge11" class="edge"><title>2529007078176&#45;&#45;2529007078560</title>
<path fill="none" stroke="black" d="M539.748,-72.055C548.141,-54.2515 560.581,-27.8653 563.913,-20.7963"/>
</g>
</g>
</svg>
