<?xml version="1.0" encoding="UTF-8" standalone="no"?>
<!DOCTYPE svg PUBLIC "-//W3C//DTD SVG 1.1//EN"
 "http://www.w3.org/Graphics/SVG/1.1/DTD/svg11.dtd">
<!-- Generated by graphviz version 2.38.0 (20140413.2041)
 -->
<!-- Title: pt Pages: 1 -->
<svg width="854pt" height="476pt"
 viewBox="0.00 0.00 853.61 476.00" xmlns="http://www.w3.org/2000/svg" xmlns:xlink="http://www.w3.org/1999/xlink">
<g id="graph0" class="graph" transform="scale(1 1) rotate(0) translate(4 472)">
<title>pt</title>
<!-- 2529006033840 -->
<g id="node1" class="node"><title>2529006033840</title>
<ellipse fill="none" stroke="black" cx="318.7" cy="-450" rx="27" ry="18"/>
<text text-anchor="middle" x="318.7" y="-446.5" font-family="Times New Roman,serif" font-size="15.00">and</text>
</g>
<!-- 2529006031440 -->
<g id="node2" class="node"><title>2529006031440</title>
<ellipse fill="none" stroke="black" cx="213.7" cy="-378" rx="27" ry="18"/>
<text text-anchor="middle" x="213.7" y="-374.5" font-family="Times New Roman,serif" font-size="15.00">xor</text>
</g>
<!-- 2529006033840&#45;&#45;2529006031440 -->
<g id="edge14" class="edge"><title>2529006033840&#45;&#45;2529006031440</title>
<path fill="none" stroke="black" d="M299.928,-436.485C280.816,-423.744 251.363,-404.108 232.309,-391.406"/>
</g>
<!-- 2529006031776 -->
<g id="node16" class="node"><title>2529006031776</title>
<ellipse fill="none" stroke="black" cx="424.7" cy="-378" rx="27" ry="18"/>
<text text-anchor="middle" x="424.7" y="-374.5" font-family="Times New Roman,serif" font-size="15.00">seq</text>
</g>
<!-- 2529006033840&#45;&#45;2529006031776 -->
<g id="edge25" class="edge"><title>2529006033840&#45;&#45;2529006031776</title>
<path fill="none" stroke="black" d="M337.164,-436.807C356.501,-424.037 386.701,-404.093 406.092,-391.288"/>
</g>
<!-- 2529006032928 -->
<g id="node3" class="node"><title>2529006032928</title>
<ellipse fill="black" stroke="black" cx="165.7" cy="-306" rx="2.7" ry="2.7"/>
</g>
<!-- 2529006031440&#45;&#45;2529006032928 -->
<g id="edge1" class="edge"><title>2529006031440&#45;&#45;2529006032928</title>
<path fill="none" stroke="black" d="M202.808,-361.116C190.638,-343.367 171.98,-316.158 166.973,-308.857"/>
</g>
<!-- 2529010551200 -->
<g id="node4" class="node"><title>2529010551200</title>
<ellipse fill="none" stroke="black" cx="213.7" cy="-306" rx="27" ry="18"/>
<text text-anchor="middle" x="213.7" y="-302.5" font-family="Times New Roman,serif" font-size="15.00">and</text>
</g>
<!-- 2529006031440&#45;&#45;2529010551200 -->
<g id="edge13" class="edge"><title>2529006031440&#45;&#45;2529010551200</title>
<path fill="none" stroke="black" d="M213.7,-359.697C213.7,-348.846 213.7,-334.917 213.7,-324.104"/>
</g>
<!-- 2529010552496 -->
<g id="node5" class="node"><title>2529010552496</title>
<ellipse fill="none" stroke="black" cx="69.7" cy="-234" rx="46.6143" ry="18"/>
<text text-anchor="middle" x="69.7" y="-230.5" font-family="Times New Roman,serif" font-size="15.00">xor loop</text>
</g>
<!-- 2529010551200&#45;&#45;2529010552496 -->
<g id="edge4" class="edge"><title>2529010551200&#45;&#45;2529010552496</title>
<path fill="none" stroke="black" d="M192.452,-294.671C167.261,-282.425 125.204,-261.981 97.4593,-248.494"/>
</g>
<!-- 2529010552112 -->
<g id="node8" class="node"><title>2529010552112</title>
<ellipse fill="none" stroke="black" cx="213.7" cy="-234" rx="27" ry="18"/>
<text text-anchor="middle" x="213.7" y="-230.5" font-family="Times New Roman,serif" font-size="15.00">xor</text>
</g>
<!-- 2529010551200&#45;&#45;2529010552112 -->
<g id="edge12" class="edge"><title>2529010551200&#45;&#45;2529010552112</title>
<path fill="none" stroke="black" d="M213.7,-287.697C213.7,-276.846 213.7,-262.917 213.7,-252.104"/>
</g>
<!-- 2529010548944 -->
<g id="node6" class="node"><title>2529010548944</title>
<ellipse fill="black" stroke="black" cx="2.7" cy="-162" rx="2.7" ry="2.7"/>
</g>
<!-- 2529010552496&#45;&#45;2529010548944 -->
<g id="edge2" class="edge"><title>2529010552496&#45;&#45;2529010548944</title>
<path fill="none" stroke="black" d="M54.1604,-216.765C36.842,-198.671 10.4314,-171.078 4.09939,-164.462"/>
</g>
<!-- 2529010550192 -->
<g id="node7" class="node"><title>2529010550192</title>
<ellipse fill="none" stroke="black" cx="69.7" cy="-162" rx="45.7249" ry="18"/>
<text text-anchor="middle" x="69.7" y="-158.5" font-family="Times New Roman,serif" font-size="15.00">Payment</text>
</g>
<!-- 2529010552496&#45;&#45;2529010550192 -->
<g id="edge3" class="edge"><title>2529010552496&#45;&#45;2529010550192</title>
<path fill="none" stroke="black" d="M69.7,-215.697C69.7,-204.846 69.7,-190.917 69.7,-180.104"/>
</g>
<!-- 2529010552304 -->
<g id="node9" class="node"><title>2529010552304</title>
<ellipse fill="none" stroke="black" cx="186.7" cy="-162" rx="52.6228" ry="18"/>
<text text-anchor="middle" x="186.7" y="-158.5" font-family="Times New Roman,serif" font-size="15.00">Send Fine</text>
</g>
<!-- 2529010552112&#45;&#45;2529010552304 -->
<g id="edge5" class="edge"><title>2529010552112&#45;&#45;2529010552304</title>
<path fill="none" stroke="black" d="M207.301,-216.411C203.06,-205.414 197.511,-191.027 193.24,-179.956"/>
</g>
<!-- 2529010552640 -->
<g id="node10" class="node"><title>2529010552640</title>
<ellipse fill="none" stroke="black" cx="284.7" cy="-162" rx="27" ry="18"/>
<text text-anchor="middle" x="284.7" y="-158.5" font-family="Times New Roman,serif" font-size="15.00">seq</text>
</g>
<!-- 2529010552112&#45;&#45;2529010552640 -->
<g id="edge11" class="edge"><title>2529010552112&#45;&#45;2529010552640</title>
<path fill="none" stroke="black" d="M228.411,-218.496C240.597,-206.482 257.827,-189.494 270.008,-177.485"/>
</g>
<!-- 2529010552208 -->
<g id="node11" class="node"><title>2529010552208</title>
<ellipse fill="none" stroke="black" cx="105.7" cy="-90" rx="52.6228" ry="18"/>
<text text-anchor="middle" x="105.7" y="-86.5" font-family="Times New Roman,serif" font-size="15.00">Send Fine</text>
</g>
<!-- 2529010552640&#45;&#45;2529010552208 -->
<g id="edge6" class="edge"><title>2529010552640&#45;&#45;2529010552208</title>
<path fill="none" stroke="black" d="M262.03,-152.134C230.985,-139.994 175.016,-118.107 139.149,-104.081"/>
</g>
<!-- 2529010551008 -->
<g id="node12" class="node"><title>2529010551008</title>
<ellipse fill="none" stroke="black" cx="284.7" cy="-90" rx="107.914" ry="18"/>
<text text-anchor="middle" x="284.7" y="-86.5" font-family="Times New Roman,serif" font-size="15.00">Insert Fine Notification</text>
</g>
<!-- 2529010552640&#45;&#45;2529010551008 -->
<g id="edge7" class="edge"><title>2529010552640&#45;&#45;2529010551008</title>
<path fill="none" stroke="black" d="M284.7,-143.697C284.7,-132.846 284.7,-118.917 284.7,-108.104"/>
</g>
<!-- 2529010550048 -->
<g id="node13" class="node"><title>2529010550048</title>
<ellipse fill="none" stroke="black" cx="456.7" cy="-90" rx="46.6143" ry="18"/>
<text text-anchor="middle" x="456.7" y="-86.5" font-family="Times New Roman,serif" font-size="15.00">xor loop</text>
</g>
<!-- 2529010552640&#45;&#45;2529010550048 -->
<g id="edge10" class="edge"><title>2529010552640&#45;&#45;2529010550048</title>
<path fill="none" stroke="black" d="M307.186,-151.849C337.509,-139.508 391.634,-117.48 425.773,-103.587"/>
</g>
<!-- 2529010577808 -->
<g id="node14" class="node"><title>2529010577808</title>
<ellipse fill="black" stroke="black" cx="414.7" cy="-18" rx="2.7" ry="2.7"/>
</g>
<!-- 2529010550048&#45;&#45;2529010577808 -->
<g id="edge8" class="edge"><title>2529010550048&#45;&#45;2529010577808</title>
<path fill="none" stroke="black" d="M446.747,-72.411C436.073,-54.622 420.077,-27.9625 415.79,-20.8163"/>
</g>
<!-- 2529010580496 -->
<g id="node15" class="node"><title>2529010580496</title>
<ellipse fill="none" stroke="black" cx="497.7" cy="-18" rx="61.6894" ry="18"/>
<text text-anchor="middle" x="497.7" y="-14.5" font-family="Times New Roman,serif" font-size="15.00">Add penalty</text>
</g>
<!-- 2529010550048&#45;&#45;2529010580496 -->
<g id="edge9" class="edge"><title>2529010550048&#45;&#45;2529010580496</title>
<path fill="none" stroke="black" d="M466.625,-72.055C473.071,-61.0492 481.438,-46.7636 487.866,-35.789"/>
</g>
<!-- 2529006032784 -->
<g id="node17" class="node"><title>2529006032784</title>
<ellipse fill="none" stroke="black" cx="372.7" cy="-306" rx="59.5207" ry="18"/>
<text text-anchor="middle" x="372.7" y="-302.5" font-family="Times New Roman,serif" font-size="15.00">Create Fine</text>
</g>
<!-- 2529006031776&#45;&#45;2529006032784 -->
<g id="edge15" class="edge"><title>2529006031776&#45;&#45;2529006032784</title>
<path fill="none" stroke="black" d="M413.16,-361.465C404.901,-350.348 393.789,-335.39 385.3,-323.962"/>
</g>
<!-- 2529006033360 -->
<g id="node18" class="node"><title>2529006033360</title>
<ellipse fill="none" stroke="black" cx="477.7" cy="-306" rx="27" ry="18"/>
<text text-anchor="middle" x="477.7" y="-302.5" font-family="Times New Roman,serif" font-size="15.00">xor</text>
</g>
<!-- 2529006031776&#45;&#45;2529006033360 -->
<g id="edge21" class="edge"><title>2529006031776&#45;&#45;2529006033360</title>
<path fill="none" stroke="black" d="M436.462,-361.465C445.245,-349.865 457.195,-334.082 465.97,-322.492"/>
</g>
<!-- 2529006033888 -->
<g id="node24" class="node"><title>2529006033888</title>
<ellipse fill="none" stroke="black" cx="582.7" cy="-306" rx="27" ry="18"/>
<text text-anchor="middle" x="582.7" y="-302.5" font-family="Times New Roman,serif" font-size="15.00">xor</text>
</g>
<!-- 2529006031776&#45;&#45;2529006033888 -->
<g id="edge24" class="edge"><title>2529006031776&#45;&#45;2529006033888</title>
<path fill="none" stroke="black" d="M446.669,-367.267C476.856,-353.893 530.829,-329.981 560.917,-316.651"/>
</g>
<!-- 2529006031824 -->
<g id="node19" class="node"><title>2529006031824</title>
<ellipse fill="none" stroke="black" cx="443.7" cy="-234" rx="45.7249" ry="18"/>
<text text-anchor="middle" x="443.7" y="-230.5" font-family="Times New Roman,serif" font-size="15.00">Payment</text>
</g>
<!-- 2529006033360&#45;&#45;2529006031824 -->
<g id="edge16" class="edge"><title>2529006033360&#45;&#45;2529006031824</title>
<path fill="none" stroke="black" d="M469.814,-288.765C464.478,-277.779 457.442,-263.292 452.017,-252.124"/>
</g>
<!-- 2529006033072 -->
<g id="node20" class="node"><title>2529006033072</title>
<ellipse fill="none" stroke="black" cx="534.7" cy="-234" rx="27" ry="18"/>
<text text-anchor="middle" x="534.7" y="-230.5" font-family="Times New Roman,serif" font-size="15.00">seq</text>
</g>
<!-- 2529006033360&#45;&#45;2529006033072 -->
<g id="edge20" class="edge"><title>2529006033360&#45;&#45;2529006033072</title>
<path fill="none" stroke="black" d="M490.068,-289.811C499.629,-278.07 512.801,-261.893 522.356,-250.159"/>
</g>
<!-- 2529006031056 -->
<g id="node21" class="node"><title>2529006031056</title>
<ellipse fill="none" stroke="black" cx="382.7" cy="-162" rx="52.6228" ry="18"/>
<text text-anchor="middle" x="382.7" y="-158.5" font-family="Times New Roman,serif" font-size="15.00">Send Fine</text>
</g>
<!-- 2529006033072&#45;&#45;2529006031056 -->
<g id="edge17" class="edge"><title>2529006033072&#45;&#45;2529006031056</title>
<path fill="none" stroke="black" d="M512.922,-222.971C486.654,-210.873 442.353,-190.472 412.821,-176.872"/>
</g>
<!-- 2529006031152 -->
<g id="node22" class="node"><title>2529006031152</title>
<ellipse fill="none" stroke="black" cx="561.7" cy="-162" rx="107.914" ry="18"/>
<text text-anchor="middle" x="561.7" y="-158.5" font-family="Times New Roman,serif" font-size="15.00">Insert Fine Notification</text>
</g>
<!-- 2529006033072&#45;&#45;2529006031152 -->
<g id="edge18" class="edge"><title>2529006033072&#45;&#45;2529006031152</title>
<path fill="none" stroke="black" d="M541.099,-216.411C545.278,-205.576 550.726,-191.45 554.971,-180.447"/>
</g>
<!-- 2529006034656 -->
<g id="node23" class="node"><title>2529006034656</title>
<ellipse fill="none" stroke="black" cx="749.7" cy="-162" rx="61.6894" ry="18"/>
<text text-anchor="middle" x="749.7" y="-158.5" font-family="Times New Roman,serif" font-size="15.00">Add penalty</text>
</g>
<!-- 2529006033072&#45;&#45;2529006034656 -->
<g id="edge19" class="edge"><title>2529006033072&#45;&#45;2529006034656</title>
<path fill="none" stroke="black" d="M558.53,-225.241C595.156,-213.317 665.694,-190.351 710.088,-175.897"/>
</g>
<!-- 2529006032688 -->
<g id="node25" class="node"><title>2529006032688</title>
<ellipse fill="black" stroke="black" cx="582.7" cy="-234" rx="2.7" ry="2.7"/>
</g>
<!-- 2529006033888&#45;&#45;2529006032688 -->
<g id="edge22" class="edge"><title>2529006033888&#45;&#45;2529006032688</title>
<path fill="none" stroke="black" d="M582.7,-287.697C582.7,-269.883 582.7,-243.769 582.7,-236.776"/>
</g>
<!-- 2529006034128 -->
<g id="node26" class="node"><title>2529006034128</title>
<ellipse fill="none" stroke="black" cx="724.7" cy="-234" rx="120.819" ry="18"/>
<text text-anchor="middle" x="724.7" y="-230.5" font-family="Times New Roman,serif" font-size="15.00">Send for Credit Collection</text>
</g>
<!-- 2529006033888&#45;&#45;2529006034128 -->
<g id="edge23" class="edge"><title>2529006033888&#45;&#45;2529006034128</title>
<path fill="none" stroke="black" d="M603.959,-294.52C627.092,-283.116 664.384,-264.733 691.408,-251.412"/>
</g>
</g>
</svg>
