<?xml version="1.0" encoding="UTF-8" standalone="no"?>
<!DOCTYPE svg PUBLIC "-//W3C//DTD SVG 1.1//EN"
 "http://www.w3.org/Graphics/SVG/1.1/DTD/svg11.dtd">
<!-- Generated by graphviz version 2.38.0 (20140413.2041)
 -->
<!-- Title: pt Pages: 1 -->
<svg width="1852pt" height="692pt"
 viewBox="0.00 0.00 1851.67 692.00" xmlns="http://www.w3.org/2000/svg" xmlns:xlink="http://www.w3.org/1999/xlink">
<g id="graph0" class="graph" transform="scale(1 1) rotate(0) translate(4 688)">
<title>pt</title>
<!-- 2529180720096 -->
<g id="node1" class="node"><title>2529180720096</title>
<ellipse fill="none" stroke="black" cx="349.811" cy="-666" rx="27" ry="18"/>
<text text-anchor="middle" x="349.811" y="-662.5" font-family="Times New Roman,serif" font-size="15.00">and</text>
</g>
<!-- 2529179375456 -->
<g id="node2" class="node"><title>2529179375456</title>
<ellipse fill="none" stroke="black" cx="245.811" cy="-594" rx="27" ry="18"/>
<text text-anchor="middle" x="245.811" y="-590.5" font-family="Times New Roman,serif" font-size="15.00">xor</text>
</g>
<!-- 2529180720096&#45;&#45;2529179375456 -->
<g id="edge14" class="edge"><title>2529180720096&#45;&#45;2529179375456</title>
<path fill="none" stroke="black" d="M331.218,-652.485C312.288,-639.744 283.115,-620.108 264.243,-607.406"/>
</g>
<!-- 2529179377136 -->
<g id="node16" class="node"><title>2529179377136</title>
<ellipse fill="none" stroke="black" cx="508.811" cy="-594" rx="27" ry="18"/>
<text text-anchor="middle" x="508.811" y="-590.5" font-family="Times New Roman,serif" font-size="15.00">seq</text>
</g>
<!-- 2529180720096&#45;&#45;2529179377136 -->
<g id="edge53" class="edge"><title>2529180720096&#45;&#45;2529179377136</title>
<path fill="none" stroke="black" d="M371.919,-655.267C402.297,-641.893 456.612,-617.981 486.891,-604.651"/>
</g>
<!-- 2529179376704 -->
<g id="node3" class="node"><title>2529179376704</title>
<ellipse fill="black" stroke="black" cx="197.811" cy="-522" rx="2.7" ry="2.7"/>
</g>
<!-- 2529179375456&#45;&#45;2529179376704 -->
<g id="edge1" class="edge"><title>2529179375456&#45;&#45;2529179376704</title>
<path fill="none" stroke="black" d="M234.919,-577.116C222.749,-559.367 204.091,-532.158 199.084,-524.857"/>
</g>
<!-- 2529179374112 -->
<g id="node4" class="node"><title>2529179374112</title>
<ellipse fill="none" stroke="black" cx="245.811" cy="-522" rx="27" ry="18"/>
<text text-anchor="middle" x="245.811" y="-518.5" font-family="Times New Roman,serif" font-size="15.00">and</text>
</g>
<!-- 2529179375456&#45;&#45;2529179374112 -->
<g id="edge13" class="edge"><title>2529179375456&#45;&#45;2529179374112</title>
<path fill="none" stroke="black" d="M245.811,-575.697C245.811,-564.846 245.811,-550.917 245.811,-540.104"/>
</g>
<!-- 2529180541856 -->
<g id="node5" class="node"><title>2529180541856</title>
<ellipse fill="none" stroke="black" cx="102.811" cy="-450" rx="46.6143" ry="18"/>
<text text-anchor="middle" x="102.811" y="-446.5" font-family="Times New Roman,serif" font-size="15.00">xor loop</text>
</g>
<!-- 2529179374112&#45;&#45;2529180541856 -->
<g id="edge4" class="edge"><title>2529179374112&#45;&#45;2529180541856</title>
<path fill="none" stroke="black" d="M224.711,-510.671C199.772,-498.463 158.189,-478.108 130.635,-464.62"/>
</g>
<!-- 2529180541520 -->
<g id="node8" class="node"><title>2529180541520</title>
<ellipse fill="none" stroke="black" cx="245.811" cy="-450" rx="27" ry="18"/>
<text text-anchor="middle" x="245.811" y="-446.5" font-family="Times New Roman,serif" font-size="15.00">xor</text>
</g>
<!-- 2529179374112&#45;&#45;2529180541520 -->
<g id="edge12" class="edge"><title>2529179374112&#45;&#45;2529180541520</title>
<path fill="none" stroke="black" d="M245.811,-503.697C245.811,-492.846 245.811,-478.917 245.811,-468.104"/>
</g>
<!-- 2529180542576 -->
<g id="node6" class="node"><title>2529180542576</title>
<ellipse fill="black" stroke="black" cx="35.8111" cy="-378" rx="2.7" ry="2.7"/>
</g>
<!-- 2529180541856&#45;&#45;2529180542576 -->
<g id="edge2" class="edge"><title>2529180541856&#45;&#45;2529180542576</title>
<path fill="none" stroke="black" d="M87.2715,-432.765C69.9531,-414.671 43.5425,-387.078 37.2104,-380.462"/>
</g>
<!-- 2529180541424 -->
<g id="node7" class="node"><title>2529180541424</title>
<ellipse fill="none" stroke="black" cx="102.811" cy="-378" rx="45.7249" ry="18"/>
<text text-anchor="middle" x="102.811" y="-374.5" font-family="Times New Roman,serif" font-size="15.00">Payment</text>
</g>
<!-- 2529180541856&#45;&#45;2529180541424 -->
<g id="edge3" class="edge"><title>2529180541856&#45;&#45;2529180541424</title>
<path fill="none" stroke="black" d="M102.811,-431.697C102.811,-420.846 102.811,-406.917 102.811,-396.104"/>
</g>
<!-- 2529180542624 -->
<g id="node9" class="node"><title>2529180542624</title>
<ellipse fill="none" stroke="black" cx="219.811" cy="-378" rx="52.6228" ry="18"/>
<text text-anchor="middle" x="219.811" y="-374.5" font-family="Times New Roman,serif" font-size="15.00">Send Fine</text>
</g>
<!-- 2529180541520&#45;&#45;2529180542624 -->
<g id="edge5" class="edge"><title>2529180541520&#45;&#45;2529180542624</title>
<path fill="none" stroke="black" d="M239.649,-432.411C235.565,-421.414 230.221,-407.027 226.109,-395.956"/>
</g>
<!-- 2529180544112 -->
<g id="node10" class="node"><title>2529180544112</title>
<ellipse fill="none" stroke="black" cx="317.811" cy="-378" rx="27" ry="18"/>
<text text-anchor="middle" x="317.811" y="-374.5" font-family="Times New Roman,serif" font-size="15.00">seq</text>
</g>
<!-- 2529180541520&#45;&#45;2529180544112 -->
<g id="edge11" class="edge"><title>2529180541520&#45;&#45;2529180544112</title>
<path fill="none" stroke="black" d="M260.381,-434.834C272.791,-422.77 290.542,-405.512 303.015,-393.385"/>
</g>
<!-- 2529180542192 -->
<g id="node11" class="node"><title>2529180542192</title>
<ellipse fill="none" stroke="black" cx="52.8111" cy="-306" rx="52.6228" ry="18"/>
<text text-anchor="middle" x="52.8111" y="-302.5" font-family="Times New Roman,serif" font-size="15.00">Send Fine</text>
</g>
<!-- 2529180544112&#45;&#45;2529180542192 -->
<g id="edge6" class="edge"><title>2529180544112&#45;&#45;2529180542192</title>
<path fill="none" stroke="black" d="M292.88,-370.415C247.012,-358.298 148.866,-332.373 93.3157,-317.699"/>
</g>
<!-- 2529180544160 -->
<g id="node12" class="node"><title>2529180544160</title>
<ellipse fill="none" stroke="black" cx="231.811" cy="-306" rx="107.914" ry="18"/>
<text text-anchor="middle" x="231.811" y="-302.5" font-family="Times New Roman,serif" font-size="15.00">Insert Fine Notification</text>
</g>
<!-- 2529180544112&#45;&#45;2529180544160 -->
<g id="edge7" class="edge"><title>2529180544112&#45;&#45;2529180544160</title>
<path fill="none" stroke="black" d="M301.229,-363.503C287.367,-352.22 267.525,-336.07 252.602,-323.923"/>
</g>
<!-- 2529180542048 -->
<g id="node13" class="node"><title>2529180542048</title>
<ellipse fill="none" stroke="black" cx="403.811" cy="-306" rx="46.6143" ry="18"/>
<text text-anchor="middle" x="403.811" y="-302.5" font-family="Times New Roman,serif" font-size="15.00">xor loop</text>
</g>
<!-- 2529180544112&#45;&#45;2529180542048 -->
<g id="edge10" class="edge"><title>2529180544112&#45;&#45;2529180542048</title>
<path fill="none" stroke="black" d="M334.393,-363.503C348.743,-351.823 369.502,-334.926 384.578,-322.655"/>
</g>
<!-- 2529181120544 -->
<g id="node14" class="node"><title>2529181120544</title>
<ellipse fill="black" stroke="black" cx="320.811" cy="-234" rx="2.7" ry="2.7"/>
</g>
<!-- 2529180542048&#45;&#45;2529181120544 -->
<g id="edge8" class="edge"><title>2529180542048&#45;&#45;2529181120544</title>
<path fill="none" stroke="black" d="M385.391,-289.465C363.995,-271.42 330.598,-243.254 322.583,-236.494"/>
</g>
<!-- 2529181122224 -->
<g id="node15" class="node"><title>2529181122224</title>
<ellipse fill="none" stroke="black" cx="403.811" cy="-234" rx="61.6894" ry="18"/>
<text text-anchor="middle" x="403.811" y="-230.5" font-family="Times New Roman,serif" font-size="15.00">Add penalty</text>
</g>
<!-- 2529180542048&#45;&#45;2529181122224 -->
<g id="edge9" class="edge"><title>2529180542048&#45;&#45;2529181122224</title>
<path fill="none" stroke="black" d="M403.811,-287.697C403.811,-276.846 403.811,-262.917 403.811,-252.104"/>
</g>
<!-- 2529179376944 -->
<g id="node17" class="node"><title>2529179376944</title>
<ellipse fill="none" stroke="black" cx="456.811" cy="-522" rx="59.5207" ry="18"/>
<text text-anchor="middle" x="456.811" y="-518.5" font-family="Times New Roman,serif" font-size="15.00">Create Fine</text>
</g>
<!-- 2529179377136&#45;&#45;2529179376944 -->
<g id="edge15" class="edge"><title>2529179377136&#45;&#45;2529179376944</title>
<path fill="none" stroke="black" d="M497.271,-577.465C489.012,-566.348 477.9,-551.39 469.411,-539.962"/>
</g>
<!-- 2529179375360 -->
<g id="node18" class="node"><title>2529179375360</title>
<ellipse fill="none" stroke="black" cx="561.811" cy="-522" rx="27" ry="18"/>
<text text-anchor="middle" x="561.811" y="-518.5" font-family="Times New Roman,serif" font-size="15.00">xor</text>
</g>
<!-- 2529179377136&#45;&#45;2529179375360 -->
<g id="edge49" class="edge"><title>2529179377136&#45;&#45;2529179375360</title>
<path fill="none" stroke="black" d="M520.573,-577.465C529.356,-565.865 541.306,-550.082 550.082,-538.492"/>
</g>
<!-- 2529179376848 -->
<g id="node52" class="node"><title>2529179376848</title>
<ellipse fill="none" stroke="black" cx="664.811" cy="-522" rx="27" ry="18"/>
<text text-anchor="middle" x="664.811" y="-518.5" font-family="Times New Roman,serif" font-size="15.00">xor</text>
</g>
<!-- 2529179377136&#45;&#45;2529179376848 -->
<g id="edge52" class="edge"><title>2529179377136&#45;&#45;2529179376848</title>
<path fill="none" stroke="black" d="M530.502,-583.267C560.223,-569.931 613.298,-546.115 643.053,-532.763"/>
</g>
<!-- 2529179377088 -->
<g id="node19" class="node"><title>2529179377088</title>
<ellipse fill="black" stroke="black" cx="530.811" cy="-450" rx="2.7" ry="2.7"/>
</g>
<!-- 2529179375360&#45;&#45;2529179377088 -->
<g id="edge16" class="edge"><title>2529179375360&#45;&#45;2529179377088</title>
<path fill="none" stroke="black" d="M554.464,-504.411C546.586,-486.622 534.78,-459.962 531.615,-452.816"/>
</g>
<!-- 2529179376752 -->
<g id="node20" class="node"><title>2529179376752</title>
<ellipse fill="none" stroke="black" cx="597.811" cy="-450" rx="46.6143" ry="18"/>
<text text-anchor="middle" x="597.811" y="-446.5" font-family="Times New Roman,serif" font-size="15.00">xor loop</text>
</g>
<!-- 2529179375360&#45;&#45;2529179376752 -->
<g id="edge48" class="edge"><title>2529179375360&#45;&#45;2529179376752</title>
<path fill="none" stroke="black" d="M570.161,-504.765C575.81,-493.779 583.261,-479.292 589.004,-468.124"/>
</g>
<!-- 2529179375744 -->
<g id="node21" class="node"><title>2529179375744</title>
<ellipse fill="none" stroke="black" cx="597.811" cy="-378" rx="27" ry="18"/>
<text text-anchor="middle" x="597.811" y="-374.5" font-family="Times New Roman,serif" font-size="15.00">seq</text>
</g>
<!-- 2529179376752&#45;&#45;2529179375744 -->
<g id="edge46" class="edge"><title>2529179376752&#45;&#45;2529179375744</title>
<path fill="none" stroke="black" d="M597.811,-431.697C597.811,-420.846 597.811,-406.917 597.811,-396.104"/>
</g>
<!-- 2529179375120 -->
<g id="node51" class="node"><title>2529179375120</title>
<ellipse fill="black" stroke="black" cx="645.811" cy="-378" rx="2.7" ry="2.7"/>
</g>
<!-- 2529179376752&#45;&#45;2529179375120 -->
<g id="edge47" class="edge"><title>2529179376752&#45;&#45;2529179375120</title>
<path fill="none" stroke="black" d="M609.186,-432.411C621.385,-414.622 639.665,-387.962 644.566,-380.816"/>
</g>
<!-- 2529179374352 -->
<g id="node22" class="node"><title>2529179374352</title>
<ellipse fill="none" stroke="black" cx="560.811" cy="-306" rx="27" ry="18"/>
<text text-anchor="middle" x="560.811" y="-302.5" font-family="Times New Roman,serif" font-size="15.00">xor</text>
</g>
<!-- 2529179375744&#45;&#45;2529179374352 -->
<g id="edge19" class="edge"><title>2529179375744&#45;&#45;2529179374352</title>
<path fill="none" stroke="black" d="M589.23,-360.765C583.252,-349.456 575.313,-334.437 569.346,-323.147"/>
</g>
<!-- 2529179375216 -->
<g id="node25" class="node"><title>2529179375216</title>
<ellipse fill="none" stroke="black" cx="634.811" cy="-306" rx="27" ry="18"/>
<text text-anchor="middle" x="634.811" y="-302.5" font-family="Times New Roman,serif" font-size="15.00">xor</text>
</g>
<!-- 2529179375744&#45;&#45;2529179375216 -->
<g id="edge22" class="edge"><title>2529179375744&#45;&#45;2529179375216</title>
<path fill="none" stroke="black" d="M606.393,-360.765C612.37,-349.456 620.309,-334.437 626.276,-323.147"/>
</g>
<!-- 2529179373872 -->
<g id="node28" class="node"><title>2529179373872</title>
<ellipse fill="none" stroke="black" cx="890.811" cy="-306" rx="27" ry="18"/>
<text text-anchor="middle" x="890.811" y="-302.5" font-family="Times New Roman,serif" font-size="15.00">xor</text>
</g>
<!-- 2529179375744&#45;&#45;2529179373872 -->
<g id="edge45" class="edge"><title>2529179375744&#45;&#45;2529179373872</title>
<path fill="none" stroke="black" d="M622.792,-371.032C678.148,-357.807 810.596,-326.164 865.893,-312.953"/>
</g>
<!-- 2529179374496 -->
<g id="node23" class="node"><title>2529179374496</title>
<ellipse fill="black" stroke="black" cx="486.811" cy="-234" rx="2.7" ry="2.7"/>
</g>
<!-- 2529179374352&#45;&#45;2529179374496 -->
<g id="edge17" class="edge"><title>2529179374352&#45;&#45;2529179374496</title>
<path fill="none" stroke="black" d="M545.836,-290.834C526.916,-272.937 495.915,-243.612 488.46,-236.56"/>
</g>
<!-- 2529179374400 -->
<g id="node24" class="node"><title>2529179374400</title>
<ellipse fill="none" stroke="black" cx="560.811" cy="-234" rx="52.6228" ry="18"/>
<text text-anchor="middle" x="560.811" y="-230.5" font-family="Times New Roman,serif" font-size="15.00">Send Fine</text>
</g>
<!-- 2529179374352&#45;&#45;2529179374400 -->
<g id="edge18" class="edge"><title>2529179374352&#45;&#45;2529179374400</title>
<path fill="none" stroke="black" d="M560.811,-287.697C560.811,-276.846 560.811,-262.917 560.811,-252.104"/>
</g>
<!-- 2529179376608 -->
<g id="node26" class="node"><title>2529179376608</title>
<ellipse fill="black" stroke="black" cx="634.811" cy="-234" rx="2.7" ry="2.7"/>
</g>
<!-- 2529179375216&#45;&#45;2529179376608 -->
<g id="edge20" class="edge"><title>2529179375216&#45;&#45;2529179376608</title>
<path fill="none" stroke="black" d="M634.811,-287.697C634.811,-269.883 634.811,-243.769 634.811,-236.776"/>
</g>
<!-- 2529179373776 -->
<g id="node27" class="node"><title>2529179373776</title>
<ellipse fill="none" stroke="black" cx="762.811" cy="-234" rx="107.914" ry="18"/>
<text text-anchor="middle" x="762.811" y="-230.5" font-family="Times New Roman,serif" font-size="15.00">Insert Fine Notification</text>
</g>
<!-- 2529179375216&#45;&#45;2529179373776 -->
<g id="edge21" class="edge"><title>2529179375216&#45;&#45;2529179373776</title>
<path fill="none" stroke="black" d="M655.093,-293.908C675.959,-282.497 708.701,-264.591 732.614,-251.514"/>
</g>
<!-- 2529179374784 -->
<g id="node29" class="node"><title>2529179374784</title>
<ellipse fill="black" stroke="black" cx="890.811" cy="-234" rx="2.7" ry="2.7"/>
</g>
<!-- 2529179373872&#45;&#45;2529179374784 -->
<g id="edge23" class="edge"><title>2529179373872&#45;&#45;2529179374784</title>
<path fill="none" stroke="black" d="M890.811,-287.697C890.811,-269.883 890.811,-243.769 890.811,-236.776"/>
</g>
<!-- 2529179374160 -->
<g id="node30" class="node"><title>2529179374160</title>
<ellipse fill="none" stroke="black" cx="957.811" cy="-234" rx="46.6143" ry="18"/>
<text text-anchor="middle" x="957.811" y="-230.5" font-family="Times New Roman,serif" font-size="15.00">xor loop</text>
</g>
<!-- 2529179373872&#45;&#45;2529179374160 -->
<g id="edge44" class="edge"><title>2529179373872&#45;&#45;2529179374160</title>
<path fill="none" stroke="black" d="M904.693,-290.496C915.656,-279.043 930.945,-263.069 942.307,-251.198"/>
</g>
<!-- 2529179377424 -->
<g id="node31" class="node"><title>2529179377424</title>
<ellipse fill="none" stroke="black" cx="933.811" cy="-162" rx="27" ry="18"/>
<text text-anchor="middle" x="933.811" y="-158.5" font-family="Times New Roman,serif" font-size="15.00">seq</text>
</g>
<!-- 2529179374160&#45;&#45;2529179377424 -->
<g id="edge42" class="edge"><title>2529179374160&#45;&#45;2529179377424</title>
<path fill="none" stroke="black" d="M952.001,-216.055C948.228,-205.049 943.33,-190.764 939.567,-179.789"/>
</g>
<!-- 2529179571632 -->
<g id="node50" class="node"><title>2529179571632</title>
<ellipse fill="black" stroke="black" cx="981.811" cy="-162" rx="2.7" ry="2.7"/>
</g>
<!-- 2529179374160&#45;&#45;2529179571632 -->
<g id="edge43" class="edge"><title>2529179374160&#45;&#45;2529179571632</title>
<path fill="none" stroke="black" d="M963.621,-216.055C969.725,-198.252 978.772,-171.865 981.195,-164.796"/>
</g>
<!-- 2529179373632 -->
<g id="node32" class="node"><title>2529179373632</title>
<ellipse fill="none" stroke="black" cx="391.811" cy="-90" rx="27" ry="18"/>
<text text-anchor="middle" x="391.811" y="-86.5" font-family="Times New Roman,serif" font-size="15.00">xor</text>
</g>
<!-- 2529179377424&#45;&#45;2529179373632 -->
<g id="edge26" class="edge"><title>2529179377424&#45;&#45;2529179373632</title>
<path fill="none" stroke="black" d="M907.302,-157.576C815.275,-145.691 510.217,-106.292 418.269,-94.417"/>
</g>
<!-- 2529179374544 -->
<g id="node35" class="node"><title>2529179374544</title>
<ellipse fill="none" stroke="black" cx="639.811" cy="-90" rx="27" ry="18"/>
<text text-anchor="middle" x="639.811" y="-86.5" font-family="Times New Roman,serif" font-size="15.00">xor</text>
</g>
<!-- 2529179377424&#45;&#45;2529179374544 -->
<g id="edge29" class="edge"><title>2529179377424&#45;&#45;2529179374544</title>
<path fill="none" stroke="black" d="M908.745,-155.032C853.2,-141.807 720.3,-110.164 664.814,-96.9531"/>
</g>
<!-- 2529179377520 -->
<g id="node38" class="node"><title>2529179377520</title>
<ellipse fill="none" stroke="black" cx="863.811" cy="-90" rx="27" ry="18"/>
<text text-anchor="middle" x="863.811" y="-86.5" font-family="Times New Roman,serif" font-size="15.00">xor</text>
</g>
<!-- 2529179377424&#45;&#45;2529179377520 -->
<g id="edge32" class="edge"><title>2529179377424&#45;&#45;2529179377520</title>
<path fill="none" stroke="black" d="M919.307,-146.496C907.293,-134.482 890.305,-117.494 878.297,-105.485"/>
</g>
<!-- 2529179373728 -->
<g id="node41" class="node"><title>2529179373728</title>
<ellipse fill="none" stroke="black" cx="1004.81" cy="-90" rx="27" ry="18"/>
<text text-anchor="middle" x="1004.81" y="-86.5" font-family="Times New Roman,serif" font-size="15.00">xor</text>
</g>
<!-- 2529179377424&#45;&#45;2529179373728 -->
<g id="edge35" class="edge"><title>2529179377424&#45;&#45;2529179373728</title>
<path fill="none" stroke="black" d="M948.522,-146.496C960.708,-134.482 977.939,-117.494 990.119,-105.485"/>
</g>
<!-- 2529179374448 -->
<g id="node44" class="node"><title>2529179374448</title>
<ellipse fill="none" stroke="black" cx="1392.81" cy="-90" rx="27" ry="18"/>
<text text-anchor="middle" x="1392.81" y="-86.5" font-family="Times New Roman,serif" font-size="15.00">xor</text>
</g>
<!-- 2529179377424&#45;&#45;2529179374448 -->
<g id="edge38" class="edge"><title>2529179377424&#45;&#45;2529179374448</title>
<path fill="none" stroke="black" d="M959.804,-157.036C1040.5,-144.73 1286.13,-107.27 1366.82,-94.9639"/>
</g>
<!-- 2529180541376 -->
<g id="node47" class="node"><title>2529180541376</title>
<ellipse fill="none" stroke="black" cx="1730.81" cy="-90" rx="27" ry="18"/>
<text text-anchor="middle" x="1730.81" y="-86.5" font-family="Times New Roman,serif" font-size="15.00">xor</text>
</g>
<!-- 2529179377424&#45;&#45;2529180541376 -->
<g id="edge41" class="edge"><title>2529179377424&#45;&#45;2529180541376</title>
<path fill="none" stroke="black" d="M960.785,-158.631C1082.88,-147.908 1583.02,-103.981 1704.25,-93.3329"/>
</g>
<!-- 2529179377376 -->
<g id="node33" class="node"><title>2529179377376</title>
<ellipse fill="black" stroke="black" cx="226.811" cy="-18" rx="2.7" ry="2.7"/>
</g>
<!-- 2529179373632&#45;&#45;2529179377376 -->
<g id="edge24" class="edge"><title>2529179373632&#45;&#45;2529179377376</title>
<path fill="none" stroke="black" d="M369.558,-79.5595C328.391,-62.0945 243.216,-25.9596 228.88,-19.8779"/>
</g>
<!-- 2529179573504 -->
<g id="node34" class="node"><title>2529179573504</title>
<ellipse fill="none" stroke="black" cx="391.811" cy="-18" rx="144.571" ry="18"/>
<text text-anchor="middle" x="391.811" y="-14.5" font-family="Times New Roman,serif" font-size="15.00">Insert Date Appeal to Prefecture</text>
</g>
<!-- 2529179373632&#45;&#45;2529179573504 -->
<g id="edge25" class="edge"><title>2529179373632&#45;&#45;2529179573504</title>
<path fill="none" stroke="black" d="M391.811,-71.6966C391.811,-60.8463 391.811,-46.9167 391.811,-36.1043"/>
</g>
<!-- 2529179571392 -->
<g id="node36" class="node"><title>2529179571392</title>
<ellipse fill="black" stroke="black" cx="556.811" cy="-18" rx="2.7" ry="2.7"/>
</g>
<!-- 2529179374544&#45;&#45;2529179571392 -->
<g id="edge27" class="edge"><title>2529179374544&#45;&#45;2529179571392</title>
<path fill="none" stroke="black" d="M623.413,-75.1703C602.248,-57.3201 567.13,-27.7024 558.681,-20.5768"/>
</g>
<!-- 2529179573264 -->
<g id="node37" class="node"><title>2529179573264</title>
<ellipse fill="none" stroke="black" cx="639.811" cy="-18" rx="61.6894" ry="18"/>
<text text-anchor="middle" x="639.811" y="-14.5" font-family="Times New Roman,serif" font-size="15.00">Add penalty</text>
</g>
<!-- 2529179374544&#45;&#45;2529179573264 -->
<g id="edge28" class="edge"><title>2529179374544&#45;&#45;2529179573264</title>
<path fill="none" stroke="black" d="M639.811,-71.6966C639.811,-60.8463 639.811,-46.9167 639.811,-36.1043"/>
</g>
<!-- 2529180543680 -->
<g id="node39" class="node"><title>2529180543680</title>
<ellipse fill="black" stroke="black" cx="722.811" cy="-18" rx="2.7" ry="2.7"/>
</g>
<!-- 2529179377520&#45;&#45;2529180543680 -->
<g id="edge30" class="edge"><title>2529179377520&#45;&#45;2529180543680</title>
<path fill="none" stroke="black" d="M842.702,-78.5203C807.055,-60.8234 737.553,-26.3188 724.835,-20.0047"/>
</g>
<!-- 2529180543152 -->
<g id="node40" class="node"><title>2529180543152</title>
<ellipse fill="none" stroke="black" cx="863.811" cy="-18" rx="120.43" ry="18"/>
<text text-anchor="middle" x="863.811" y="-14.5" font-family="Times New Roman,serif" font-size="15.00">Send Appeal to Prefecture</text>
</g>
<!-- 2529179377520&#45;&#45;2529180543152 -->
<g id="edge31" class="edge"><title>2529179377520&#45;&#45;2529180543152</title>
<path fill="none" stroke="black" d="M863.811,-71.6966C863.811,-60.8463 863.811,-46.9167 863.811,-36.1043"/>
</g>
<!-- 2529180544880 -->
<g id="node42" class="node"><title>2529180544880</title>
<ellipse fill="black" stroke="black" cx="1004.81" cy="-18" rx="2.7" ry="2.7"/>
</g>
<!-- 2529179373728&#45;&#45;2529180544880 -->
<g id="edge33" class="edge"><title>2529179373728&#45;&#45;2529180544880</title>
<path fill="none" stroke="black" d="M1004.81,-71.6966C1004.81,-53.8826 1004.81,-27.7686 1004.81,-20.7764"/>
</g>
<!-- 2529180541040 -->
<g id="node43" class="node"><title>2529180541040</title>
<ellipse fill="none" stroke="black" cx="1198.81" cy="-18" rx="173.941" ry="18"/>
<text text-anchor="middle" x="1198.81" y="-14.5" font-family="Times New Roman,serif" font-size="15.00">Receive Result Appeal from Prefecture</text>
</g>
<!-- 2529179373728&#45;&#45;2529180541040 -->
<g id="edge34" class="edge"><title>2529179373728&#45;&#45;2529180541040</title>
<path fill="none" stroke="black" d="M1028.21,-80.5564C1059.05,-69.4293 1113.96,-49.615 1153.16,-35.472"/>
</g>
<!-- 2529180542816 -->
<g id="node45" class="node"><title>2529180542816</title>
<ellipse fill="black" stroke="black" cx="1392.81" cy="-18" rx="2.7" ry="2.7"/>
</g>
<!-- 2529179374448&#45;&#45;2529180542816 -->
<g id="edge36" class="edge"><title>2529179374448&#45;&#45;2529180542816</title>
<path fill="none" stroke="black" d="M1392.81,-71.6966C1392.81,-53.8826 1392.81,-27.7686 1392.81,-20.7764"/>
</g>
<!-- 2529180542000 -->
<g id="node46" class="node"><title>2529180542000</title>
<ellipse fill="none" stroke="black" cx="1561.81" cy="-18" rx="148.91" ry="18"/>
<text text-anchor="middle" x="1561.81" y="-14.5" font-family="Times New Roman,serif" font-size="15.00">Notify Result Appeal to Offender</text>
</g>
<!-- 2529179374448&#45;&#45;2529180542000 -->
<g id="edge37" class="edge"><title>2529179374448&#45;&#45;2529180542000</title>
<path fill="none" stroke="black" d="M1415.25,-79.7045C1442.46,-68.4359 1488.79,-49.2446 1522.09,-35.4544"/>
</g>
<!-- 2529180543728 -->
<g id="node48" class="node"><title>2529180543728</title>
<ellipse fill="black" stroke="black" cx="1730.81" cy="-18" rx="2.7" ry="2.7"/>
</g>
<!-- 2529180541376&#45;&#45;2529180543728 -->
<g id="edge39" class="edge"><title>2529180541376&#45;&#45;2529180543728</title>
<path fill="none" stroke="black" d="M1730.81,-71.6966C1730.81,-53.8826 1730.81,-27.7686 1730.81,-20.7764"/>
</g>
<!-- 2529180541952 -->
<g id="node49" class="node"><title>2529180541952</title>
<ellipse fill="none" stroke="black" cx="1797.81" cy="-18" rx="45.7249" ry="18"/>
<text text-anchor="middle" x="1797.81" y="-14.5" font-family="Times New Roman,serif" font-size="15.00">Payment</text>
</g>
<!-- 2529180541376&#45;&#45;2529180541952 -->
<g id="edge40" class="edge"><title>2529180541376&#45;&#45;2529180541952</title>
<path fill="none" stroke="black" d="M1744.69,-74.496C1755.66,-63.0429 1770.95,-47.0688 1782.31,-35.1982"/>
</g>
<!-- 2529179375600 -->
<g id="node53" class="node"><title>2529179375600</title>
<ellipse fill="black" stroke="black" cx="664.811" cy="-450" rx="2.7" ry="2.7"/>
</g>
<!-- 2529179376848&#45;&#45;2529179375600 -->
<g id="edge50" class="edge"><title>2529179376848&#45;&#45;2529179375600</title>
<path fill="none" stroke="black" d="M664.811,-503.697C664.811,-485.883 664.811,-459.769 664.811,-452.776"/>
</g>
<!-- 2529179374256 -->
<g id="node54" class="node"><title>2529179374256</title>
<ellipse fill="none" stroke="black" cx="806.811" cy="-450" rx="120.819" ry="18"/>
<text text-anchor="middle" x="806.811" y="-446.5" font-family="Times New Roman,serif" font-size="15.00">Send for Credit Collection</text>
</g>
<!-- 2529179376848&#45;&#45;2529179374256 -->
<g id="edge51" class="edge"><title>2529179376848&#45;&#45;2529179374256</title>
<path fill="none" stroke="black" d="M686.07,-510.52C709.203,-499.116 746.495,-480.733 773.519,-467.412"/>
</g>
</g>
</svg>
