<?xml version="1.0" encoding="UTF-8" standalone="no"?>
<!DOCTYPE svg PUBLIC "-//W3C//DTD SVG 1.1//EN"
 "http://www.w3.org/Graphics/SVG/1.1/DTD/svg11.dtd">
<!-- Generated by graphviz version 2.38.0 (20140413.2041)
 -->
<!-- Title: pt Pages: 1 -->
<svg width="1825pt" height="692pt"
 viewBox="0.00 0.00 1825.03 692.00" xmlns="http://www.w3.org/2000/svg" xmlns:xlink="http://www.w3.org/1999/xlink">
<g id="graph0" class="graph" transform="scale(1 1) rotate(0) translate(4 688)">
<title>pt</title>
<!-- 2529178553984 -->
<g id="node1" class="node"><title>2529178553984</title>
<ellipse fill="none" stroke="black" cx="366.811" cy="-666" rx="27" ry="18"/>
<text text-anchor="middle" x="366.811" y="-662.5" font-family="Times New Roman,serif" font-size="15.00">and</text>
</g>
<!-- 2529178552256 -->
<g id="node2" class="node"><title>2529178552256</title>
<ellipse fill="none" stroke="black" cx="268.811" cy="-594" rx="27" ry="18"/>
<text text-anchor="middle" x="268.811" y="-590.5" font-family="Times New Roman,serif" font-size="15.00">xor</text>
</g>
<!-- 2529178553984&#45;&#45;2529178552256 -->
<g id="edge14" class="edge"><title>2529178553984&#45;&#45;2529178552256</title>
<path fill="none" stroke="black" d="M348.836,-652.161C331.154,-639.531 304.315,-620.36 286.672,-607.758"/>
</g>
<!-- 2529178554224 -->
<g id="node16" class="node"><title>2529178554224</title>
<ellipse fill="none" stroke="black" cx="574.811" cy="-594" rx="27" ry="18"/>
<text text-anchor="middle" x="574.811" y="-590.5" font-family="Times New Roman,serif" font-size="15.00">and</text>
</g>
<!-- 2529178553984&#45;&#45;2529178554224 -->
<g id="edge51" class="edge"><title>2529178553984&#45;&#45;2529178554224</title>
<path fill="none" stroke="black" d="M390.671,-656.97C430.794,-643.467 511.294,-616.376 551.229,-602.936"/>
</g>
<!-- 2529178553504 -->
<g id="node3" class="node"><title>2529178553504</title>
<ellipse fill="black" stroke="black" cx="220.811" cy="-522" rx="2.7" ry="2.7"/>
</g>
<!-- 2529178552256&#45;&#45;2529178553504 -->
<g id="edge1" class="edge"><title>2529178552256&#45;&#45;2529178553504</title>
<path fill="none" stroke="black" d="M257.919,-577.116C245.749,-559.367 227.091,-532.158 222.084,-524.857"/>
</g>
<!-- 2529178552400 -->
<g id="node4" class="node"><title>2529178552400</title>
<ellipse fill="none" stroke="black" cx="268.811" cy="-522" rx="27" ry="18"/>
<text text-anchor="middle" x="268.811" y="-518.5" font-family="Times New Roman,serif" font-size="15.00">and</text>
</g>
<!-- 2529178552256&#45;&#45;2529178552400 -->
<g id="edge13" class="edge"><title>2529178552256&#45;&#45;2529178552400</title>
<path fill="none" stroke="black" d="M268.811,-575.697C268.811,-564.846 268.811,-550.917 268.811,-540.104"/>
</g>
<!-- 2529006985376 -->
<g id="node5" class="node"><title>2529006985376</title>
<ellipse fill="none" stroke="black" cx="102.811" cy="-450" rx="46.6143" ry="18"/>
<text text-anchor="middle" x="102.811" y="-446.5" font-family="Times New Roman,serif" font-size="15.00">xor loop</text>
</g>
<!-- 2529178552400&#45;&#45;2529006985376 -->
<g id="edge4" class="edge"><title>2529178552400&#45;&#45;2529006985376</title>
<path fill="none" stroke="black" d="M246.424,-511.559C217.131,-499.207 165.691,-477.516 132.982,-463.723"/>
</g>
<!-- 2529006987392 -->
<g id="node8" class="node"><title>2529006987392</title>
<ellipse fill="none" stroke="black" cx="268.811" cy="-450" rx="27" ry="18"/>
<text text-anchor="middle" x="268.811" y="-446.5" font-family="Times New Roman,serif" font-size="15.00">xor</text>
</g>
<!-- 2529178552400&#45;&#45;2529006987392 -->
<g id="edge12" class="edge"><title>2529178552400&#45;&#45;2529006987392</title>
<path fill="none" stroke="black" d="M268.811,-503.697C268.811,-492.846 268.811,-478.917 268.811,-468.104"/>
</g>
<!-- 2529173137152 -->
<g id="node6" class="node"><title>2529173137152</title>
<ellipse fill="black" stroke="black" cx="35.8111" cy="-378" rx="2.7" ry="2.7"/>
</g>
<!-- 2529006985376&#45;&#45;2529173137152 -->
<g id="edge2" class="edge"><title>2529006985376&#45;&#45;2529173137152</title>
<path fill="none" stroke="black" d="M87.2715,-432.765C69.9531,-414.671 43.5425,-387.078 37.2104,-380.462"/>
</g>
<!-- 2529173139264 -->
<g id="node7" class="node"><title>2529173139264</title>
<ellipse fill="none" stroke="black" cx="102.811" cy="-378" rx="45.7249" ry="18"/>
<text text-anchor="middle" x="102.811" y="-374.5" font-family="Times New Roman,serif" font-size="15.00">Payment</text>
</g>
<!-- 2529006985376&#45;&#45;2529173139264 -->
<g id="edge3" class="edge"><title>2529006985376&#45;&#45;2529173139264</title>
<path fill="none" stroke="black" d="M102.811,-431.697C102.811,-420.846 102.811,-406.917 102.811,-396.104"/>
</g>
<!-- 2529173137344 -->
<g id="node9" class="node"><title>2529173137344</title>
<ellipse fill="none" stroke="black" cx="219.811" cy="-378" rx="52.6228" ry="18"/>
<text text-anchor="middle" x="219.811" y="-374.5" font-family="Times New Roman,serif" font-size="15.00">Send Fine</text>
</g>
<!-- 2529006987392&#45;&#45;2529173137344 -->
<g id="edge5" class="edge"><title>2529006987392&#45;&#45;2529173137344</title>
<path fill="none" stroke="black" d="M257.936,-433.465C250.155,-422.348 239.684,-407.39 231.684,-395.962"/>
</g>
<!-- 2529173138160 -->
<g id="node10" class="node"><title>2529173138160</title>
<ellipse fill="none" stroke="black" cx="317.811" cy="-378" rx="27" ry="18"/>
<text text-anchor="middle" x="317.811" y="-374.5" font-family="Times New Roman,serif" font-size="15.00">seq</text>
</g>
<!-- 2529006987392&#45;&#45;2529173138160 -->
<g id="edge11" class="edge"><title>2529006987392&#45;&#45;2529173138160</title>
<path fill="none" stroke="black" d="M279.686,-433.465C287.806,-421.865 298.854,-406.082 306.967,-394.492"/>
</g>
<!-- 2529173136816 -->
<g id="node11" class="node"><title>2529173136816</title>
<ellipse fill="none" stroke="black" cx="52.8111" cy="-306" rx="52.6228" ry="18"/>
<text text-anchor="middle" x="52.8111" y="-302.5" font-family="Times New Roman,serif" font-size="15.00">Send Fine</text>
</g>
<!-- 2529173138160&#45;&#45;2529173136816 -->
<g id="edge6" class="edge"><title>2529173138160&#45;&#45;2529173136816</title>
<path fill="none" stroke="black" d="M292.88,-370.415C247.012,-358.298 148.866,-332.373 93.3157,-317.699"/>
</g>
<!-- 2529173136192 -->
<g id="node12" class="node"><title>2529173136192</title>
<ellipse fill="none" stroke="black" cx="231.811" cy="-306" rx="107.914" ry="18"/>
<text text-anchor="middle" x="231.811" y="-302.5" font-family="Times New Roman,serif" font-size="15.00">Insert Fine Notification</text>
</g>
<!-- 2529173138160&#45;&#45;2529173136192 -->
<g id="edge7" class="edge"><title>2529173138160&#45;&#45;2529173136192</title>
<path fill="none" stroke="black" d="M301.229,-363.503C287.367,-352.22 267.525,-336.07 252.602,-323.923"/>
</g>
<!-- 2529173137488 -->
<g id="node13" class="node"><title>2529173137488</title>
<ellipse fill="none" stroke="black" cx="403.811" cy="-306" rx="46.6143" ry="18"/>
<text text-anchor="middle" x="403.811" y="-302.5" font-family="Times New Roman,serif" font-size="15.00">xor loop</text>
</g>
<!-- 2529173138160&#45;&#45;2529173137488 -->
<g id="edge10" class="edge"><title>2529173138160&#45;&#45;2529173137488</title>
<path fill="none" stroke="black" d="M334.393,-363.503C348.743,-351.823 369.502,-334.926 384.578,-322.655"/>
</g>
<!-- 2529173139072 -->
<g id="node14" class="node"><title>2529173139072</title>
<ellipse fill="black" stroke="black" cx="320.811" cy="-234" rx="2.7" ry="2.7"/>
</g>
<!-- 2529173137488&#45;&#45;2529173139072 -->
<g id="edge8" class="edge"><title>2529173137488&#45;&#45;2529173139072</title>
<path fill="none" stroke="black" d="M385.391,-289.465C363.995,-271.42 330.598,-243.254 322.583,-236.494"/>
</g>
<!-- 2529173136576 -->
<g id="node15" class="node"><title>2529173136576</title>
<ellipse fill="none" stroke="black" cx="403.811" cy="-234" rx="61.6894" ry="18"/>
<text text-anchor="middle" x="403.811" y="-230.5" font-family="Times New Roman,serif" font-size="15.00">Add penalty</text>
</g>
<!-- 2529173137488&#45;&#45;2529173136576 -->
<g id="edge9" class="edge"><title>2529173137488&#45;&#45;2529173136576</title>
<path fill="none" stroke="black" d="M403.811,-287.697C403.811,-276.846 403.811,-262.917 403.811,-252.104"/>
</g>
<!-- 2529178551392 -->
<g id="node17" class="node"><title>2529178551392</title>
<ellipse fill="none" stroke="black" cx="574.811" cy="-522" rx="27" ry="18"/>
<text text-anchor="middle" x="574.811" y="-518.5" font-family="Times New Roman,serif" font-size="15.00">seq</text>
</g>
<!-- 2529178554224&#45;&#45;2529178551392 -->
<g id="edge29" class="edge"><title>2529178554224&#45;&#45;2529178551392</title>
<path fill="none" stroke="black" d="M574.811,-575.697C574.811,-564.846 574.811,-550.917 574.811,-540.104"/>
</g>
<!-- 2529178552352 -->
<g id="node32" class="node"><title>2529178552352</title>
<ellipse fill="none" stroke="black" cx="726.811" cy="-522" rx="27" ry="18"/>
<text text-anchor="middle" x="726.811" y="-518.5" font-family="Times New Roman,serif" font-size="15.00">xor</text>
</g>
<!-- 2529178554224&#45;&#45;2529178552352 -->
<g id="edge50" class="edge"><title>2529178554224&#45;&#45;2529178552352</title>
<path fill="none" stroke="black" d="M596.589,-582.971C625.484,-569.664 676.199,-546.308 705.074,-533.011"/>
</g>
<!-- 2529178552736 -->
<g id="node18" class="node"><title>2529178552736</title>
<ellipse fill="none" stroke="black" cx="522.811" cy="-450" rx="59.5207" ry="18"/>
<text text-anchor="middle" x="522.811" y="-446.5" font-family="Times New Roman,serif" font-size="15.00">Create Fine</text>
</g>
<!-- 2529178551392&#45;&#45;2529178552736 -->
<g id="edge15" class="edge"><title>2529178551392&#45;&#45;2529178552736</title>
<path fill="none" stroke="black" d="M563.271,-505.465C555.012,-494.348 543.9,-479.39 535.411,-467.962"/>
</g>
<!-- 2529178552112 -->
<g id="node19" class="node"><title>2529178552112</title>
<ellipse fill="none" stroke="black" cx="627.811" cy="-450" rx="27" ry="18"/>
<text text-anchor="middle" x="627.811" y="-446.5" font-family="Times New Roman,serif" font-size="15.00">xor</text>
</g>
<!-- 2529178551392&#45;&#45;2529178552112 -->
<g id="edge28" class="edge"><title>2529178551392&#45;&#45;2529178552112</title>
<path fill="none" stroke="black" d="M586.573,-505.465C595.356,-493.865 607.306,-478.082 616.082,-466.492"/>
</g>
<!-- 2529178552592 -->
<g id="node20" class="node"><title>2529178552592</title>
<ellipse fill="black" stroke="black" cx="560.811" cy="-378" rx="2.7" ry="2.7"/>
</g>
<!-- 2529178552112&#45;&#45;2529178552592 -->
<g id="edge16" class="edge"><title>2529178552112&#45;&#45;2529178552592</title>
<path fill="none" stroke="black" d="M613.929,-434.496C596.757,-416.555 568.968,-387.522 562.289,-380.544"/>
</g>
<!-- 2529178552448 -->
<g id="node21" class="node"><title>2529178552448</title>
<ellipse fill="none" stroke="black" cx="627.811" cy="-378" rx="45.7249" ry="18"/>
<text text-anchor="middle" x="627.811" y="-374.5" font-family="Times New Roman,serif" font-size="15.00">Payment</text>
</g>
<!-- 2529178552112&#45;&#45;2529178552448 -->
<g id="edge17" class="edge"><title>2529178552112&#45;&#45;2529178552448</title>
<path fill="none" stroke="black" d="M627.811,-431.697C627.811,-420.846 627.811,-406.917 627.811,-396.104"/>
</g>
<!-- 2529178552160 -->
<g id="node22" class="node"><title>2529178552160</title>
<ellipse fill="none" stroke="black" cx="718.811" cy="-378" rx="27" ry="18"/>
<text text-anchor="middle" x="718.811" y="-374.5" font-family="Times New Roman,serif" font-size="15.00">seq</text>
</g>
<!-- 2529178552112&#45;&#45;2529178552160 -->
<g id="edge27" class="edge"><title>2529178552112&#45;&#45;2529178552160</title>
<path fill="none" stroke="black" d="M644.927,-435.834C661.197,-423.319 685.527,-404.603 701.771,-392.107"/>
</g>
<!-- 2529178551632 -->
<g id="node23" class="node"><title>2529178551632</title>
<ellipse fill="none" stroke="black" cx="646.811" cy="-306" rx="52.6228" ry="18"/>
<text text-anchor="middle" x="646.811" y="-302.5" font-family="Times New Roman,serif" font-size="15.00">Send Fine</text>
</g>
<!-- 2529178552160&#45;&#45;2529178551632 -->
<g id="edge18" class="edge"><title>2529178552160&#45;&#45;2529178551632</title>
<path fill="none" stroke="black" d="M704.241,-362.834C692.407,-351.329 675.715,-335.101 663.374,-323.103"/>
</g>
<!-- 2529178551968 -->
<g id="node24" class="node"><title>2529178551968</title>
<ellipse fill="none" stroke="black" cx="744.811" cy="-306" rx="27" ry="18"/>
<text text-anchor="middle" x="744.811" y="-302.5" font-family="Times New Roman,serif" font-size="15.00">seq</text>
</g>
<!-- 2529178552160&#45;&#45;2529178551968 -->
<g id="edge26" class="edge"><title>2529178552160&#45;&#45;2529178551968</title>
<path fill="none" stroke="black" d="M724.973,-360.411C729.057,-349.414 734.401,-335.027 738.513,-323.956"/>
</g>
<!-- 2529178550912 -->
<g id="node25" class="node"><title>2529178550912</title>
<ellipse fill="none" stroke="black" cx="591.811" cy="-234" rx="107.914" ry="18"/>
<text text-anchor="middle" x="591.811" y="-230.5" font-family="Times New Roman,serif" font-size="15.00">Insert Fine Notification</text>
</g>
<!-- 2529178551968&#45;&#45;2529178550912 -->
<g id="edge19" class="edge"><title>2529178551968&#45;&#45;2529178550912</title>
<path fill="none" stroke="black" d="M723.214,-295.119C698.173,-283.662 656.544,-264.616 626.852,-251.032"/>
</g>
<!-- 2529178551584 -->
<g id="node26" class="node"><title>2529178551584</title>
<ellipse fill="none" stroke="black" cx="744.811" cy="-234" rx="27" ry="18"/>
<text text-anchor="middle" x="744.811" y="-230.5" font-family="Times New Roman,serif" font-size="15.00">and</text>
</g>
<!-- 2529178551968&#45;&#45;2529178551584 -->
<g id="edge24" class="edge"><title>2529178551968&#45;&#45;2529178551584</title>
<path fill="none" stroke="black" d="M744.811,-287.697C744.811,-276.846 744.811,-262.917 744.811,-252.104"/>
</g>
<!-- 2529178550384 -->
<g id="node31" class="node"><title>2529178550384</title>
<ellipse fill="none" stroke="black" cx="910.811" cy="-234" rx="120.819" ry="18"/>
<text text-anchor="middle" x="910.811" y="-230.5" font-family="Times New Roman,serif" font-size="15.00">Send for Credit Collection</text>
</g>
<!-- 2529178551968&#45;&#45;2529178550384 -->
<g id="edge25" class="edge"><title>2529178551968&#45;&#45;2529178550384</title>
<path fill="none" stroke="black" d="M767.199,-295.559C794.19,-284.177 839.987,-264.866 872.605,-251.111"/>
</g>
<!-- 2529178550576 -->
<g id="node27" class="node"><title>2529178550576</title>
<ellipse fill="none" stroke="black" cx="690.811" cy="-162" rx="27" ry="18"/>
<text text-anchor="middle" x="690.811" y="-158.5" font-family="Times New Roman,serif" font-size="15.00">xor</text>
</g>
<!-- 2529178551584&#45;&#45;2529178550576 -->
<g id="edge22" class="edge"><title>2529178551584&#45;&#45;2529178550576</title>
<path fill="none" stroke="black" d="M732.827,-217.465C723.878,-205.865 711.703,-190.082 702.762,-178.492"/>
</g>
<!-- 2529178550624 -->
<g id="node30" class="node"><title>2529178550624</title>
<ellipse fill="none" stroke="black" cx="797.811" cy="-162" rx="61.6894" ry="18"/>
<text text-anchor="middle" x="797.811" y="-158.5" font-family="Times New Roman,serif" font-size="15.00">Add penalty</text>
</g>
<!-- 2529178551584&#45;&#45;2529178550624 -->
<g id="edge23" class="edge"><title>2529178551584&#45;&#45;2529178550624</title>
<path fill="none" stroke="black" d="M756.573,-217.465C764.991,-206.348 776.316,-191.39 784.969,-179.962"/>
</g>
<!-- 2529178550672 -->
<g id="node28" class="node"><title>2529178550672</title>
<ellipse fill="black" stroke="black" cx="657.811" cy="-90" rx="2.7" ry="2.7"/>
</g>
<!-- 2529178550576&#45;&#45;2529178550672 -->
<g id="edge20" class="edge"><title>2529178550576&#45;&#45;2529178550672</title>
<path fill="none" stroke="black" d="M682.991,-144.411C674.604,-126.622 662.036,-99.9625 658.667,-92.8163"/>
</g>
<!-- 2529178550768 -->
<g id="node29" class="node"><title>2529178550768</title>
<ellipse fill="none" stroke="black" cx="724.811" cy="-90" rx="45.7249" ry="18"/>
<text text-anchor="middle" x="724.811" y="-86.5" font-family="Times New Roman,serif" font-size="15.00">Payment</text>
</g>
<!-- 2529178550576&#45;&#45;2529178550768 -->
<g id="edge21" class="edge"><title>2529178550576&#45;&#45;2529178550768</title>
<path fill="none" stroke="black" d="M698.697,-144.765C704.033,-133.779 711.069,-119.292 716.494,-108.124"/>
</g>
<!-- 2529178552544 -->
<g id="node33" class="node"><title>2529178552544</title>
<ellipse fill="black" stroke="black" cx="726.811" cy="-450" rx="2.7" ry="2.7"/>
</g>
<!-- 2529178552352&#45;&#45;2529178552544 -->
<g id="edge30" class="edge"><title>2529178552352&#45;&#45;2529178552544</title>
<path fill="none" stroke="black" d="M726.811,-503.697C726.811,-485.883 726.811,-459.769 726.811,-452.776"/>
</g>
<!-- 2529178552304 -->
<g id="node34" class="node"><title>2529178552304</title>
<ellipse fill="none" stroke="black" cx="825.811" cy="-450" rx="27" ry="18"/>
<text text-anchor="middle" x="825.811" y="-446.5" font-family="Times New Roman,serif" font-size="15.00">and</text>
</g>
<!-- 2529178552352&#45;&#45;2529178552304 -->
<g id="edge49" class="edge"><title>2529178552352&#45;&#45;2529178552304</title>
<path fill="none" stroke="black" d="M744.969,-508.161C762.832,-495.531 789.945,-476.36 807.768,-463.758"/>
</g>
<!-- 2529178552016 -->
<g id="node35" class="node"><title>2529178552016</title>
<ellipse fill="none" stroke="black" cx="825.811" cy="-378" rx="46.6143" ry="18"/>
<text text-anchor="middle" x="825.811" y="-374.5" font-family="Times New Roman,serif" font-size="15.00">xor loop</text>
</g>
<!-- 2529178552304&#45;&#45;2529178552016 -->
<g id="edge33" class="edge"><title>2529178552304&#45;&#45;2529178552016</title>
<path fill="none" stroke="black" d="M825.811,-431.697C825.811,-420.846 825.811,-406.917 825.811,-396.104"/>
</g>
<!-- 2529178551200 -->
<g id="node38" class="node"><title>2529178551200</title>
<ellipse fill="none" stroke="black" cx="997.811" cy="-378" rx="27" ry="18"/>
<text text-anchor="middle" x="997.811" y="-374.5" font-family="Times New Roman,serif" font-size="15.00">xor</text>
</g>
<!-- 2529178552304&#45;&#45;2529178551200 -->
<g id="edge48" class="edge"><title>2529178552304&#45;&#45;2529178551200</title>
<path fill="none" stroke="black" d="M848.297,-439.849C881.261,-426.433 942.353,-401.57 975.32,-388.154"/>
</g>
<!-- 2529006987584 -->
<g id="node36" class="node"><title>2529006987584</title>
<ellipse fill="black" stroke="black" cx="799.811" cy="-306" rx="2.7" ry="2.7"/>
</g>
<!-- 2529178552016&#45;&#45;2529006987584 -->
<g id="edge31" class="edge"><title>2529178552016&#45;&#45;2529006987584</title>
<path fill="none" stroke="black" d="M819.517,-360.055C812.904,-342.252 803.104,-315.865 800.478,-308.796"/>
</g>
<!-- 2529006985472 -->
<g id="node37" class="node"><title>2529006985472</title>
<ellipse fill="none" stroke="black" cx="866.811" cy="-306" rx="45.7249" ry="18"/>
<text text-anchor="middle" x="866.811" y="-302.5" font-family="Times New Roman,serif" font-size="15.00">Payment</text>
</g>
<!-- 2529178552016&#45;&#45;2529006985472 -->
<g id="edge32" class="edge"><title>2529178552016&#45;&#45;2529006985472</title>
<path fill="none" stroke="black" d="M835.736,-360.055C842.182,-349.049 850.55,-334.764 856.977,-323.789"/>
</g>
<!-- 2529006987008 -->
<g id="node39" class="node"><title>2529006987008</title>
<ellipse fill="none" stroke="black" cx="997.811" cy="-306" rx="52.6228" ry="18"/>
<text text-anchor="middle" x="997.811" y="-302.5" font-family="Times New Roman,serif" font-size="15.00">Send Fine</text>
</g>
<!-- 2529178551200&#45;&#45;2529006987008 -->
<g id="edge34" class="edge"><title>2529178551200&#45;&#45;2529006987008</title>
<path fill="none" stroke="black" d="M997.811,-359.697C997.811,-348.846 997.811,-334.917 997.811,-324.104"/>
</g>
<!-- 2529006987680 -->
<g id="node40" class="node"><title>2529006987680</title>
<ellipse fill="none" stroke="black" cx="1102.81" cy="-306" rx="27" ry="18"/>
<text text-anchor="middle" x="1102.81" y="-302.5" font-family="Times New Roman,serif" font-size="15.00">seq</text>
</g>
<!-- 2529178551200&#45;&#45;2529006987680 -->
<g id="edge47" class="edge"><title>2529178551200&#45;&#45;2529006987680</title>
<path fill="none" stroke="black" d="M1016.58,-364.485C1035.69,-351.744 1065.15,-332.108 1084.2,-319.406"/>
</g>
<!-- 2529166834368 -->
<g id="node41" class="node"><title>2529166834368</title>
<ellipse fill="none" stroke="black" cx="1102.81" cy="-234" rx="52.6228" ry="18"/>
<text text-anchor="middle" x="1102.81" y="-230.5" font-family="Times New Roman,serif" font-size="15.00">Send Fine</text>
</g>
<!-- 2529006987680&#45;&#45;2529166834368 -->
<g id="edge35" class="edge"><title>2529006987680&#45;&#45;2529166834368</title>
<path fill="none" stroke="black" d="M1102.81,-287.697C1102.81,-276.846 1102.81,-262.917 1102.81,-252.104"/>
</g>
<!-- 2529009221056 -->
<g id="node42" class="node"><title>2529009221056</title>
<ellipse fill="none" stroke="black" cx="1200.81" cy="-234" rx="27" ry="18"/>
<text text-anchor="middle" x="1200.81" y="-230.5" font-family="Times New Roman,serif" font-size="15.00">seq</text>
</g>
<!-- 2529006987680&#45;&#45;2529009221056 -->
<g id="edge46" class="edge"><title>2529006987680&#45;&#45;2529009221056</title>
<path fill="none" stroke="black" d="M1120.79,-292.161C1138.47,-279.531 1165.31,-260.36 1182.95,-247.758"/>
</g>
<!-- 2529173135712 -->
<g id="node43" class="node"><title>2529173135712</title>
<ellipse fill="none" stroke="black" cx="1047.81" cy="-162" rx="107.914" ry="18"/>
<text text-anchor="middle" x="1047.81" y="-158.5" font-family="Times New Roman,serif" font-size="15.00">Insert Fine Notification</text>
</g>
<!-- 2529009221056&#45;&#45;2529173135712 -->
<g id="edge36" class="edge"><title>2529009221056&#45;&#45;2529173135712</title>
<path fill="none" stroke="black" d="M1179.21,-223.119C1154.17,-211.662 1112.54,-192.616 1082.85,-179.032"/>
</g>
<!-- 2529173136336 -->
<g id="node44" class="node"><title>2529173136336</title>
<ellipse fill="none" stroke="black" cx="1200.81" cy="-162" rx="27" ry="18"/>
<text text-anchor="middle" x="1200.81" y="-158.5" font-family="Times New Roman,serif" font-size="15.00">xor</text>
</g>
<!-- 2529009221056&#45;&#45;2529173136336 -->
<g id="edge39" class="edge"><title>2529009221056&#45;&#45;2529173136336</title>
<path fill="none" stroke="black" d="M1200.81,-215.697C1200.81,-204.846 1200.81,-190.917 1200.81,-180.104"/>
</g>
<!-- 2529173138448 -->
<g id="node47" class="node"><title>2529173138448</title>
<ellipse fill="none" stroke="black" cx="1477.81" cy="-162" rx="27" ry="18"/>
<text text-anchor="middle" x="1477.81" y="-158.5" font-family="Times New Roman,serif" font-size="15.00">seq</text>
</g>
<!-- 2529009221056&#45;&#45;2529173138448 -->
<g id="edge45" class="edge"><title>2529009221056&#45;&#45;2529173138448</title>
<path fill="none" stroke="black" d="M1225.88,-226.665C1278.62,-213.337 1400.48,-182.541 1453,-169.271"/>
</g>
<!-- 2529173137104 -->
<g id="node45" class="node"><title>2529173137104</title>
<ellipse fill="black" stroke="black" cx="1035.81" cy="-90" rx="2.7" ry="2.7"/>
</g>
<!-- 2529173136336&#45;&#45;2529173137104 -->
<g id="edge37" class="edge"><title>2529173136336&#45;&#45;2529173137104</title>
<path fill="none" stroke="black" d="M1178.56,-151.559C1137.39,-134.094 1052.22,-97.9596 1037.88,-91.8779"/>
</g>
<!-- 2529173137824 -->
<g id="node46" class="node"><title>2529173137824</title>
<ellipse fill="none" stroke="black" cx="1200.81" cy="-90" rx="144.571" ry="18"/>
<text text-anchor="middle" x="1200.81" y="-86.5" font-family="Times New Roman,serif" font-size="15.00">Insert Date Appeal to Prefecture</text>
</g>
<!-- 2529173136336&#45;&#45;2529173137824 -->
<g id="edge38" class="edge"><title>2529173136336&#45;&#45;2529173137824</title>
<path fill="none" stroke="black" d="M1200.81,-143.697C1200.81,-132.846 1200.81,-118.917 1200.81,-108.104"/>
</g>
<!-- 2529173137440 -->
<g id="node48" class="node"><title>2529173137440</title>
<ellipse fill="none" stroke="black" cx="1424.81" cy="-90" rx="61.6894" ry="18"/>
<text text-anchor="middle" x="1424.81" y="-86.5" font-family="Times New Roman,serif" font-size="15.00">Add penalty</text>
</g>
<!-- 2529173138448&#45;&#45;2529173137440 -->
<g id="edge40" class="edge"><title>2529173138448&#45;&#45;2529173137440</title>
<path fill="none" stroke="black" d="M1466.05,-145.465C1457.63,-134.348 1446.31,-119.39 1437.65,-107.962"/>
</g>
<!-- 2529173138784 -->
<g id="node49" class="node"><title>2529173138784</title>
<ellipse fill="none" stroke="black" cx="1531.81" cy="-90" rx="27" ry="18"/>
<text text-anchor="middle" x="1531.81" y="-86.5" font-family="Times New Roman,serif" font-size="15.00">xor</text>
</g>
<!-- 2529173138448&#45;&#45;2529173138784 -->
<g id="edge43" class="edge"><title>2529173138448&#45;&#45;2529173138784</title>
<path fill="none" stroke="black" d="M1489.8,-145.465C1498.74,-133.865 1510.92,-118.082 1519.86,-106.492"/>
</g>
<!-- 2529173137392 -->
<g id="node52" class="node"><title>2529173137392</title>
<ellipse fill="none" stroke="black" cx="1696.81" cy="-90" rx="120.43" ry="18"/>
<text text-anchor="middle" x="1696.81" y="-86.5" font-family="Times New Roman,serif" font-size="15.00">Send Appeal to Prefecture</text>
</g>
<!-- 2529173138448&#45;&#45;2529173137392 -->
<g id="edge44" class="edge"><title>2529173138448&#45;&#45;2529173137392</title>
<path fill="none" stroke="black" d="M1501.66,-153.376C1536.7,-142.178 1602.82,-121.042 1648.31,-106.501"/>
</g>
<!-- 2529173135424 -->
<g id="node50" class="node"><title>2529173135424</title>
<ellipse fill="black" stroke="black" cx="1448.81" cy="-18" rx="2.7" ry="2.7"/>
</g>
<!-- 2529173138784&#45;&#45;2529173135424 -->
<g id="edge41" class="edge"><title>2529173138784&#45;&#45;2529173135424</title>
<path fill="none" stroke="black" d="M1515.41,-75.1703C1494.25,-57.3201 1459.13,-27.7024 1450.68,-20.5768"/>
</g>
<!-- 2529173136144 -->
<g id="node51" class="node"><title>2529173136144</title>
<ellipse fill="none" stroke="black" cx="1613.81" cy="-18" rx="144.571" ry="18"/>
<text text-anchor="middle" x="1613.81" y="-14.5" font-family="Times New Roman,serif" font-size="15.00">Insert Date Appeal to Prefecture</text>
</g>
<!-- 2529173138784&#45;&#45;2529173136144 -->
<g id="edge42" class="edge"><title>2529173138784&#45;&#45;2529173136144</title>
<path fill="none" stroke="black" d="M1548.01,-75.1703C1561.17,-63.9342 1579.8,-48.0356 1593.87,-36.019"/>
</g>
</g>
</svg>
