<?xml version="1.0" encoding="UTF-8" standalone="no"?>
<!DOCTYPE svg PUBLIC "-//W3C//DTD SVG 1.1//EN"
 "http://www.w3.org/Graphics/SVG/1.1/DTD/svg11.dtd">
<!-- Generated by graphviz version 2.38.0 (20140413.2041)
 -->
<!-- Title: pt Pages: 1 -->
<svg width="1648pt" height="548pt"
 viewBox="0.00 0.00 1648.38 548.00" xmlns="http://www.w3.org/2000/svg" xmlns:xlink="http://www.w3.org/1999/xlink">
<g id="graph0" class="graph" transform="scale(1 1) rotate(0) translate(4 544)">
<title>pt</title>
<!-- 2529181872384 -->
<g id="node1" class="node"><title>2529181872384</title>
<ellipse fill="none" stroke="black" cx="434.536" cy="-522" rx="27" ry="18"/>
<text text-anchor="middle" x="434.536" y="-518.5" font-family="Times New Roman,serif" font-size="15.00">seq</text>
</g>
<!-- 2529009035488 -->
<g id="node2" class="node"><title>2529009035488</title>
<ellipse fill="none" stroke="black" cx="293.536" cy="-450" rx="59.5207" ry="18"/>
<text text-anchor="middle" x="293.536" y="-446.5" font-family="Times New Roman,serif" font-size="15.00">Create Fine</text>
</g>
<!-- 2529181872384&#45;&#45;2529009035488 -->
<g id="edge1" class="edge"><title>2529181872384&#45;&#45;2529009035488</title>
<path fill="none" stroke="black" d="M413.426,-510.52C389.457,-498.621 350.18,-479.122 323.153,-465.704"/>
</g>
<!-- 2529009034144 -->
<g id="node3" class="node"><title>2529009034144</title>
<ellipse fill="none" stroke="black" cx="398.536" cy="-450" rx="27" ry="18"/>
<text text-anchor="middle" x="398.536" y="-446.5" font-family="Times New Roman,serif" font-size="15.00">xor</text>
</g>
<!-- 2529181872384&#45;&#45;2529009034144 -->
<g id="edge4" class="edge"><title>2529181872384&#45;&#45;2529009034144</title>
<path fill="none" stroke="black" d="M426.186,-504.765C420.37,-493.456 412.646,-478.437 406.84,-467.147"/>
</g>
<!-- 2529009036928 -->
<g id="node6" class="node"><title>2529009036928</title>
<ellipse fill="none" stroke="black" cx="470.536" cy="-450" rx="27" ry="18"/>
<text text-anchor="middle" x="470.536" y="-446.5" font-family="Times New Roman,serif" font-size="15.00">xor</text>
</g>
<!-- 2529181872384&#45;&#45;2529009036928 -->
<g id="edge35" class="edge"><title>2529181872384&#45;&#45;2529009036928</title>
<path fill="none" stroke="black" d="M442.885,-504.765C448.701,-493.456 456.425,-478.437 462.231,-467.147"/>
</g>
<!-- 2529009035008 -->
<g id="node37" class="node"><title>2529009035008</title>
<ellipse fill="none" stroke="black" cx="561.536" cy="-450" rx="27" ry="18"/>
<text text-anchor="middle" x="561.536" y="-446.5" font-family="Times New Roman,serif" font-size="15.00">xor</text>
</g>
<!-- 2529181872384&#45;&#45;2529009035008 -->
<g id="edge38" class="edge"><title>2529181872384&#45;&#45;2529009035008</title>
<path fill="none" stroke="black" d="M454.659,-509.908C478.3,-496.878 517.305,-475.379 541.086,-462.272"/>
</g>
<!-- 2529009035440 -->
<g id="node4" class="node"><title>2529009035440</title>
<ellipse fill="black" stroke="black" cx="331.536" cy="-378" rx="2.7" ry="2.7"/>
</g>
<!-- 2529009034144&#45;&#45;2529009035440 -->
<g id="edge2" class="edge"><title>2529009034144&#45;&#45;2529009035440</title>
<path fill="none" stroke="black" d="M384.653,-434.496C367.481,-416.555 339.692,-387.522 333.013,-380.544"/>
</g>
<!-- 2529009033904 -->
<g id="node5" class="node"><title>2529009033904</title>
<ellipse fill="none" stroke="black" cx="398.536" cy="-378" rx="45.7249" ry="18"/>
<text text-anchor="middle" x="398.536" y="-374.5" font-family="Times New Roman,serif" font-size="15.00">Payment</text>
</g>
<!-- 2529009034144&#45;&#45;2529009033904 -->
<g id="edge3" class="edge"><title>2529009034144&#45;&#45;2529009033904</title>
<path fill="none" stroke="black" d="M398.536,-431.697C398.536,-420.846 398.536,-406.917 398.536,-396.104"/>
</g>
<!-- 2529009036640 -->
<g id="node7" class="node"><title>2529009036640</title>
<ellipse fill="black" stroke="black" cx="465.536" cy="-378" rx="2.7" ry="2.7"/>
</g>
<!-- 2529009036928&#45;&#45;2529009036640 -->
<g id="edge5" class="edge"><title>2529009036928&#45;&#45;2529009036640</title>
<path fill="none" stroke="black" d="M469.3,-431.697C468.027,-413.883 466.162,-387.769 465.662,-380.776"/>
</g>
<!-- 2529009034960 -->
<g id="node8" class="node"><title>2529009034960</title>
<ellipse fill="none" stroke="black" cx="513.536" cy="-378" rx="27" ry="18"/>
<text text-anchor="middle" x="513.536" y="-374.5" font-family="Times New Roman,serif" font-size="15.00">and</text>
</g>
<!-- 2529009036928&#45;&#45;2529009034960 -->
<g id="edge34" class="edge"><title>2529009036928&#45;&#45;2529009034960</title>
<path fill="none" stroke="black" d="M480.293,-433.116C487.33,-421.66 496.788,-406.263 503.817,-394.821"/>
</g>
<!-- 2529009033280 -->
<g id="node9" class="node"><title>2529009033280</title>
<ellipse fill="none" stroke="black" cx="390.536" cy="-306" rx="27" ry="18"/>
<text text-anchor="middle" x="390.536" y="-302.5" font-family="Times New Roman,serif" font-size="15.00">xor</text>
</g>
<!-- 2529009034960&#45;&#45;2529009033280 -->
<g id="edge8" class="edge"><title>2529009034960&#45;&#45;2529009033280</title>
<path fill="none" stroke="black" d="M493.5,-365.597C470.627,-352.581 433.432,-331.413 410.563,-318.398"/>
</g>
<!-- 2529009035152 -->
<g id="node12" class="node"><title>2529009035152</title>
<ellipse fill="none" stroke="black" cx="513.536" cy="-306" rx="27" ry="18"/>
<text text-anchor="middle" x="513.536" y="-302.5" font-family="Times New Roman,serif" font-size="15.00">xor</text>
</g>
<!-- 2529009034960&#45;&#45;2529009035152 -->
<g id="edge21" class="edge"><title>2529009034960&#45;&#45;2529009035152</title>
<path fill="none" stroke="black" d="M513.536,-359.697C513.536,-348.846 513.536,-334.917 513.536,-324.104"/>
</g>
<!-- 2529009034288 -->
<g id="node25" class="node"><title>2529009034288</title>
<ellipse fill="none" stroke="black" cx="937.536" cy="-306" rx="27" ry="18"/>
<text text-anchor="middle" x="937.536" y="-302.5" font-family="Times New Roman,serif" font-size="15.00">and</text>
</g>
<!-- 2529009034960&#45;&#45;2529009034288 -->
<g id="edge33" class="edge"><title>2529009034960&#45;&#45;2529009034288</title>
<path fill="none" stroke="black" d="M539.42,-372.727C615.115,-360.23 835.501,-323.845 911.451,-311.306"/>
</g>
<!-- 2529188641568 -->
<g id="node10" class="node"><title>2529188641568</title>
<ellipse fill="black" stroke="black" cx="291.536" cy="-234" rx="2.7" ry="2.7"/>
</g>
<!-- 2529009033280&#45;&#45;2529188641568 -->
<g id="edge6" class="edge"><title>2529009033280&#45;&#45;2529188641568</title>
<path fill="none" stroke="black" d="M372.377,-292.161C346.923,-274.163 302.684,-242.883 293.312,-236.256"/>
</g>
<!-- 2529009588880 -->
<g id="node11" class="node"><title>2529009588880</title>
<ellipse fill="none" stroke="black" cx="390.536" cy="-234" rx="78.5434" ry="18"/>
<text text-anchor="middle" x="390.536" y="-230.5" font-family="Times New Roman,serif" font-size="15.00">Appeal to Judge</text>
</g>
<!-- 2529009033280&#45;&#45;2529009588880 -->
<g id="edge7" class="edge"><title>2529009033280&#45;&#45;2529009588880</title>
<path fill="none" stroke="black" d="M390.536,-287.697C390.536,-276.846 390.536,-262.917 390.536,-252.104"/>
</g>
<!-- 2529193527136 -->
<g id="node13" class="node"><title>2529193527136</title>
<ellipse fill="black" stroke="black" cx="489.536" cy="-234" rx="2.7" ry="2.7"/>
</g>
<!-- 2529009035152&#45;&#45;2529193527136 -->
<g id="edge9" class="edge"><title>2529009035152&#45;&#45;2529193527136</title>
<path fill="none" stroke="black" d="M507.726,-288.055C501.622,-270.252 492.575,-243.865 490.151,-236.796"/>
</g>
<!-- 2529193527760 -->
<g id="node14" class="node"><title>2529193527760</title>
<ellipse fill="none" stroke="black" cx="537.536" cy="-234" rx="27" ry="18"/>
<text text-anchor="middle" x="537.536" y="-230.5" font-family="Times New Roman,serif" font-size="15.00">seq</text>
</g>
<!-- 2529009035152&#45;&#45;2529193527760 -->
<g id="edge20" class="edge"><title>2529009035152&#45;&#45;2529193527760</title>
<path fill="none" stroke="black" d="M519.345,-288.055C523.119,-277.049 528.017,-262.764 531.779,-251.789"/>
</g>
<!-- 2529193527232 -->
<g id="node15" class="node"><title>2529193527232</title>
<ellipse fill="none" stroke="black" cx="144.536" cy="-162" rx="144.571" ry="18"/>
<text text-anchor="middle" x="144.536" y="-158.5" font-family="Times New Roman,serif" font-size="15.00">Insert Date Appeal to Prefecture</text>
</g>
<!-- 2529193527760&#45;&#45;2529193527232 -->
<g id="edge10" class="edge"><title>2529193527760&#45;&#45;2529193527232</title>
<path fill="none" stroke="black" d="M511.75,-228.407C454.202,-218.157 313.322,-193.064 223.74,-177.108"/>
</g>
<!-- 2529193526608 -->
<g id="node16" class="node"><title>2529193526608</title>
<ellipse fill="none" stroke="black" cx="334.536" cy="-162" rx="27" ry="18"/>
<text text-anchor="middle" x="334.536" y="-158.5" font-family="Times New Roman,serif" font-size="15.00">xor</text>
</g>
<!-- 2529193527760&#45;&#45;2529193526608 -->
<g id="edge13" class="edge"><title>2529193527760&#45;&#45;2529193526608</title>
<path fill="none" stroke="black" d="M513.852,-224.833C474.736,-211.345 397.085,-184.569 358.069,-171.115"/>
</g>
<!-- 2529193526080 -->
<g id="node19" class="node"><title>2529193526080</title>
<ellipse fill="none" stroke="black" cx="537.536" cy="-162" rx="27" ry="18"/>
<text text-anchor="middle" x="537.536" y="-158.5" font-family="Times New Roman,serif" font-size="15.00">xor</text>
</g>
<!-- 2529193527760&#45;&#45;2529193526080 -->
<g id="edge16" class="edge"><title>2529193527760&#45;&#45;2529193526080</title>
<path fill="none" stroke="black" d="M537.536,-215.697C537.536,-204.846 537.536,-190.917 537.536,-180.104"/>
</g>
<!-- 2529193526224 -->
<g id="node22" class="node"><title>2529193526224</title>
<ellipse fill="none" stroke="black" cx="797.536" cy="-162" rx="27" ry="18"/>
<text text-anchor="middle" x="797.536" y="-158.5" font-family="Times New Roman,serif" font-size="15.00">xor</text>
</g>
<!-- 2529193527760&#45;&#45;2529193526224 -->
<g id="edge19" class="edge"><title>2529193527760&#45;&#45;2529193526224</title>
<path fill="none" stroke="black" d="M562.465,-226.288C612.162,-212.908 723.046,-183.055 772.681,-169.692"/>
</g>
<!-- 2529009588304 -->
<g id="node17" class="node"><title>2529009588304</title>
<ellipse fill="black" stroke="black" cx="127.536" cy="-90" rx="2.7" ry="2.7"/>
</g>
<!-- 2529193526608&#45;&#45;2529009588304 -->
<g id="edge11" class="edge"><title>2529193526608&#45;&#45;2529009588304</title>
<path fill="none" stroke="black" d="M310.79,-152.97C260.666,-136.02 147.219,-97.6561 129.798,-91.7652"/>
</g>
<!-- 2529009589312 -->
<g id="node18" class="node"><title>2529009589312</title>
<ellipse fill="none" stroke="black" cx="268.536" cy="-90" rx="120.43" ry="18"/>
<text text-anchor="middle" x="268.536" y="-86.5" font-family="Times New Roman,serif" font-size="15.00">Send Appeal to Prefecture</text>
</g>
<!-- 2529193526608&#45;&#45;2529009589312 -->
<g id="edge12" class="edge"><title>2529193526608&#45;&#45;2529009589312</title>
<path fill="none" stroke="black" d="M320.539,-146.155C310.019,-134.998 295.592,-119.696 284.602,-108.04"/>
</g>
<!-- 2529009588928 -->
<g id="node20" class="node"><title>2529009588928</title>
<ellipse fill="black" stroke="black" cx="409.536" cy="-90" rx="2.7" ry="2.7"/>
</g>
<!-- 2529193526080&#45;&#45;2529009588928 -->
<g id="edge14" class="edge"><title>2529193526080&#45;&#45;2529009588928</title>
<path fill="none" stroke="black" d="M517.254,-149.908C484.827,-132.175 423.718,-98.756 411.64,-92.1507"/>
</g>
<!-- 2529009587248 -->
<g id="node21" class="node"><title>2529009587248</title>
<ellipse fill="none" stroke="black" cx="603.536" cy="-90" rx="173.941" ry="18"/>
<text text-anchor="middle" x="603.536" y="-86.5" font-family="Times New Roman,serif" font-size="15.00">Receive Result Appeal from Prefecture</text>
</g>
<!-- 2529193526080&#45;&#45;2529009587248 -->
<g id="edge15" class="edge"><title>2529193526080&#45;&#45;2529009587248</title>
<path fill="none" stroke="black" d="M551.532,-146.155C562.052,-134.998 576.479,-119.696 587.469,-108.04"/>
</g>
<!-- 2529009588064 -->
<g id="node23" class="node"><title>2529009588064</title>
<ellipse fill="black" stroke="black" cx="797.536" cy="-90" rx="2.7" ry="2.7"/>
</g>
<!-- 2529193526224&#45;&#45;2529009588064 -->
<g id="edge17" class="edge"><title>2529193526224&#45;&#45;2529009588064</title>
<path fill="none" stroke="black" d="M797.536,-143.697C797.536,-125.883 797.536,-99.7686 797.536,-92.7764"/>
</g>
<!-- 2529009587440 -->
<g id="node24" class="node"><title>2529009587440</title>
<ellipse fill="none" stroke="black" cx="966.536" cy="-90" rx="148.91" ry="18"/>
<text text-anchor="middle" x="966.536" y="-86.5" font-family="Times New Roman,serif" font-size="15.00">Notify Result Appeal to Offender</text>
</g>
<!-- 2529193526224&#45;&#45;2529009587440 -->
<g id="edge18" class="edge"><title>2529193526224&#45;&#45;2529009587440</title>
<path fill="none" stroke="black" d="M819.977,-151.705C847.183,-140.436 893.516,-121.245 926.81,-107.454"/>
</g>
<!-- 2529171952448 -->
<g id="node26" class="node"><title>2529171952448</title>
<ellipse fill="none" stroke="black" cx="937.536" cy="-234" rx="46.6143" ry="18"/>
<text text-anchor="middle" x="937.536" y="-230.5" font-family="Times New Roman,serif" font-size="15.00">xor loop</text>
</g>
<!-- 2529009034288&#45;&#45;2529171952448 -->
<g id="edge24" class="edge"><title>2529009034288&#45;&#45;2529171952448</title>
<path fill="none" stroke="black" d="M937.536,-287.697C937.536,-276.846 937.536,-262.917 937.536,-252.104"/>
</g>
<!-- 2529184670576 -->
<g id="node29" class="node"><title>2529184670576</title>
<ellipse fill="none" stroke="black" cx="1207.54" cy="-234" rx="27" ry="18"/>
<text text-anchor="middle" x="1207.54" y="-230.5" font-family="Times New Roman,serif" font-size="15.00">xor</text>
</g>
<!-- 2529009034288&#45;&#45;2529184670576 -->
<g id="edge32" class="edge"><title>2529009034288&#45;&#45;2529184670576</title>
<path fill="none" stroke="black" d="M962.453,-298.54C1013.89,-285.205 1131.29,-254.766 1182.68,-241.444"/>
</g>
<!-- 2529193526992 -->
<g id="node27" class="node"><title>2529193526992</title>
<ellipse fill="black" stroke="black" cx="904.536" cy="-162" rx="2.7" ry="2.7"/>
</g>
<!-- 2529171952448&#45;&#45;2529193526992 -->
<g id="edge22" class="edge"><title>2529171952448&#45;&#45;2529193526992</title>
<path fill="none" stroke="black" d="M929.547,-216.055C921.154,-198.252 908.715,-171.865 905.382,-164.796"/>
</g>
<!-- 2529193527328 -->
<g id="node28" class="node"><title>2529193527328</title>
<ellipse fill="none" stroke="black" cx="971.536" cy="-162" rx="45.7249" ry="18"/>
<text text-anchor="middle" x="971.536" y="-158.5" font-family="Times New Roman,serif" font-size="15.00">Payment</text>
</g>
<!-- 2529171952448&#45;&#45;2529193527328 -->
<g id="edge23" class="edge"><title>2529171952448&#45;&#45;2529193527328</title>
<path fill="none" stroke="black" d="M945.766,-216.055C951.112,-205.049 958.05,-190.764 963.381,-179.789"/>
</g>
<!-- 2529193525936 -->
<g id="node30" class="node"><title>2529193525936</title>
<ellipse fill="none" stroke="black" cx="1207.54" cy="-162" rx="52.6228" ry="18"/>
<text text-anchor="middle" x="1207.54" y="-158.5" font-family="Times New Roman,serif" font-size="15.00">Send Fine</text>
</g>
<!-- 2529184670576&#45;&#45;2529193525936 -->
<g id="edge25" class="edge"><title>2529184670576&#45;&#45;2529193525936</title>
<path fill="none" stroke="black" d="M1207.54,-215.697C1207.54,-204.846 1207.54,-190.917 1207.54,-180.104"/>
</g>
<!-- 2529193525792 -->
<g id="node31" class="node"><title>2529193525792</title>
<ellipse fill="none" stroke="black" cx="1335.54" cy="-162" rx="27" ry="18"/>
<text text-anchor="middle" x="1335.54" y="-158.5" font-family="Times New Roman,serif" font-size="15.00">seq</text>
</g>
<!-- 2529184670576&#45;&#45;2529193525792 -->
<g id="edge31" class="edge"><title>2529184670576&#45;&#45;2529193525792</title>
<path fill="none" stroke="black" d="M1227.82,-221.908C1251.79,-208.801 1291.42,-187.124 1315.35,-174.04"/>
</g>
<!-- 2529193525504 -->
<g id="node32" class="node"><title>2529193525504</title>
<ellipse fill="none" stroke="black" cx="1186.54" cy="-90" rx="52.6228" ry="18"/>
<text text-anchor="middle" x="1186.54" y="-86.5" font-family="Times New Roman,serif" font-size="15.00">Send Fine</text>
</g>
<!-- 2529193525792&#45;&#45;2529193525504 -->
<g id="edge26" class="edge"><title>2529193525792&#45;&#45;2529193525504</title>
<path fill="none" stroke="black" d="M1314.19,-150.971C1288.52,-138.911 1245.28,-118.599 1216.33,-104.999"/>
</g>
<!-- 2529193525888 -->
<g id="node33" class="node"><title>2529193525888</title>
<ellipse fill="none" stroke="black" cx="1365.54" cy="-90" rx="107.914" ry="18"/>
<text text-anchor="middle" x="1365.54" y="-86.5" font-family="Times New Roman,serif" font-size="15.00">Insert Fine Notification</text>
</g>
<!-- 2529193525792&#45;&#45;2529193525888 -->
<g id="edge27" class="edge"><title>2529193525792&#45;&#45;2529193525888</title>
<path fill="none" stroke="black" d="M1342.65,-144.411C1347.29,-133.576 1353.34,-119.45 1358.06,-108.447"/>
</g>
<!-- 2529193528384 -->
<g id="node34" class="node"><title>2529193528384</title>
<ellipse fill="none" stroke="black" cx="1537.54" cy="-90" rx="46.6143" ry="18"/>
<text text-anchor="middle" x="1537.54" y="-86.5" font-family="Times New Roman,serif" font-size="15.00">xor loop</text>
</g>
<!-- 2529193525792&#45;&#45;2529193528384 -->
<g id="edge30" class="edge"><title>2529193525792&#45;&#45;2529193528384</title>
<path fill="none" stroke="black" d="M1359.1,-152.833C1394.9,-140.427 1463.14,-116.779 1504.07,-102.596"/>
</g>
<!-- 2529193528336 -->
<g id="node35" class="node"><title>2529193528336</title>
<ellipse fill="black" stroke="black" cx="1495.54" cy="-18" rx="2.7" ry="2.7"/>
</g>
<!-- 2529193528384&#45;&#45;2529193528336 -->
<g id="edge28" class="edge"><title>2529193528384&#45;&#45;2529193528336</title>
<path fill="none" stroke="black" d="M1527.58,-72.411C1516.91,-54.622 1500.91,-27.9625 1496.63,-20.8163"/>
</g>
<!-- 2529193526944 -->
<g id="node36" class="node"><title>2529193526944</title>
<ellipse fill="none" stroke="black" cx="1578.54" cy="-18" rx="61.6894" ry="18"/>
<text text-anchor="middle" x="1578.54" y="-14.5" font-family="Times New Roman,serif" font-size="15.00">Add penalty</text>
</g>
<!-- 2529193528384&#45;&#45;2529193526944 -->
<g id="edge29" class="edge"><title>2529193528384&#45;&#45;2529193526944</title>
<path fill="none" stroke="black" d="M1547.46,-72.055C1553.91,-61.0492 1562.27,-46.7636 1568.7,-35.789"/>
</g>
<!-- 2529009589216 -->
<g id="node38" class="node"><title>2529009589216</title>
<ellipse fill="black" stroke="black" cx="561.536" cy="-378" rx="2.7" ry="2.7"/>
</g>
<!-- 2529009035008&#45;&#45;2529009589216 -->
<g id="edge36" class="edge"><title>2529009035008&#45;&#45;2529009589216</title>
<path fill="none" stroke="black" d="M561.536,-431.697C561.536,-413.883 561.536,-387.769 561.536,-380.776"/>
</g>
<!-- 2529188640656 -->
<g id="node39" class="node"><title>2529188640656</title>
<ellipse fill="none" stroke="black" cx="703.536" cy="-378" rx="120.819" ry="18"/>
<text text-anchor="middle" x="703.536" y="-374.5" font-family="Times New Roman,serif" font-size="15.00">Send for Credit Collection</text>
</g>
<!-- 2529009035008&#45;&#45;2529188640656 -->
<g id="edge37" class="edge"><title>2529009035008&#45;&#45;2529188640656</title>
<path fill="none" stroke="black" d="M582.794,-438.52C605.928,-427.116 643.219,-408.733 670.244,-395.412"/>
</g>
</g>
</svg>
