<?xml version="1.0" encoding="UTF-8" standalone="no"?>
<!DOCTYPE svg PUBLIC "-//W3C//DTD SVG 1.1//EN"
 "http://www.w3.org/Graphics/SVG/1.1/DTD/svg11.dtd">
<!-- Generated by graphviz version 2.38.0 (20140413.2041)
 -->
<!-- Title: pt Pages: 1 -->
<svg width="1624pt" height="692pt"
 viewBox="0.00 0.00 1623.52 692.00" xmlns="http://www.w3.org/2000/svg" xmlns:xlink="http://www.w3.org/1999/xlink">
<g id="graph0" class="graph" transform="scale(1 1) rotate(0) translate(4 688)">
<title>pt</title>
<!-- 2529172661392 -->
<g id="node1" class="node"><title>2529172661392</title>
<ellipse fill="none" stroke="black" cx="833.811" cy="-666" rx="27" ry="18"/>
<text text-anchor="middle" x="833.811" y="-662.5" font-family="Times New Roman,serif" font-size="15.00">seq</text>
</g>
<!-- 2529172663456 -->
<g id="node2" class="node"><title>2529172663456</title>
<ellipse fill="none" stroke="black" cx="781.811" cy="-594" rx="59.5207" ry="18"/>
<text text-anchor="middle" x="781.811" y="-590.5" font-family="Times New Roman,serif" font-size="15.00">Create Fine</text>
</g>
<!-- 2529172661392&#45;&#45;2529172663456 -->
<g id="edge1" class="edge"><title>2529172661392&#45;&#45;2529172663456</title>
<path fill="none" stroke="black" d="M822.271,-649.465C814.012,-638.348 802.9,-623.39 794.411,-611.962"/>
</g>
<!-- 2529172662736 -->
<g id="node3" class="node"><title>2529172662736</title>
<ellipse fill="none" stroke="black" cx="886.811" cy="-594" rx="27" ry="18"/>
<text text-anchor="middle" x="886.811" y="-590.5" font-family="Times New Roman,serif" font-size="15.00">seq</text>
</g>
<!-- 2529172661392&#45;&#45;2529172662736 -->
<g id="edge32" class="edge"><title>2529172661392&#45;&#45;2529172662736</title>
<path fill="none" stroke="black" d="M845.573,-649.465C854.356,-637.865 866.306,-622.082 875.082,-610.492"/>
</g>
<!-- 2529172662880 -->
<g id="node4" class="node"><title>2529172662880</title>
<ellipse fill="none" stroke="black" cx="840.811" cy="-522" rx="46.6143" ry="18"/>
<text text-anchor="middle" x="840.811" y="-518.5" font-family="Times New Roman,serif" font-size="15.00">xor loop</text>
</g>
<!-- 2529172662736&#45;&#45;2529172662880 -->
<g id="edge28" class="edge"><title>2529172662736&#45;&#45;2529172662880</title>
<path fill="none" stroke="black" d="M876.373,-577.116C869.057,-565.983 859.295,-551.127 851.849,-539.797"/>
</g>
<!-- 2529172662832 -->
<g id="node31" class="node"><title>2529172662832</title>
<ellipse fill="none" stroke="black" cx="932.811" cy="-522" rx="27" ry="18"/>
<text text-anchor="middle" x="932.811" y="-518.5" font-family="Times New Roman,serif" font-size="15.00">xor</text>
</g>
<!-- 2529172662736&#45;&#45;2529172662832 -->
<g id="edge31" class="edge"><title>2529172662736&#45;&#45;2529172662832</title>
<path fill="none" stroke="black" d="M897.249,-577.116C904.777,-565.66 914.896,-550.263 922.414,-538.821"/>
</g>
<!-- 2529172663792 -->
<g id="node5" class="node"><title>2529172663792</title>
<ellipse fill="none" stroke="black" cx="816.811" cy="-450" rx="27" ry="18"/>
<text text-anchor="middle" x="816.811" y="-446.5" font-family="Times New Roman,serif" font-size="15.00">seq</text>
</g>
<!-- 2529172662880&#45;&#45;2529172663792 -->
<g id="edge26" class="edge"><title>2529172662880&#45;&#45;2529172663792</title>
<path fill="none" stroke="black" d="M835.001,-504.055C831.228,-493.049 826.33,-478.764 822.567,-467.789"/>
</g>
<!-- 2529172663504 -->
<g id="node30" class="node"><title>2529172663504</title>
<ellipse fill="black" stroke="black" cx="864.811" cy="-450" rx="2.7" ry="2.7"/>
</g>
<!-- 2529172662880&#45;&#45;2529172663504 -->
<g id="edge27" class="edge"><title>2529172662880&#45;&#45;2529172663504</title>
<path fill="none" stroke="black" d="M846.621,-504.055C852.725,-486.252 861.772,-459.865 864.195,-452.796"/>
</g>
<!-- 2529172661008 -->
<g id="node6" class="node"><title>2529172661008</title>
<ellipse fill="none" stroke="black" cx="708.811" cy="-378" rx="46.6143" ry="18"/>
<text text-anchor="middle" x="708.811" y="-374.5" font-family="Times New Roman,serif" font-size="15.00">xor loop</text>
</g>
<!-- 2529172663792&#45;&#45;2529172661008 -->
<g id="edge11" class="edge"><title>2529172663792&#45;&#45;2529172661008</title>
<path fill="none" stroke="black" d="M797.999,-436.807C779.506,-424.821 751.26,-406.513 731.525,-393.722"/>
</g>
<!-- 2529172660336 -->
<g id="node16" class="node"><title>2529172660336</title>
<ellipse fill="none" stroke="black" cx="888.811" cy="-378" rx="27" ry="18"/>
<text text-anchor="middle" x="888.811" y="-374.5" font-family="Times New Roman,serif" font-size="15.00">xor</text>
</g>
<!-- 2529172663792&#45;&#45;2529172660336 -->
<g id="edge25" class="edge"><title>2529172663792&#45;&#45;2529172660336</title>
<path fill="none" stroke="black" d="M831.381,-434.834C843.791,-422.77 861.542,-405.512 874.015,-393.385"/>
</g>
<!-- 2529172762432 -->
<g id="node7" class="node"><title>2529172762432</title>
<ellipse fill="none" stroke="black" cx="606.811" cy="-306" rx="27" ry="18"/>
<text text-anchor="middle" x="606.811" y="-302.5" font-family="Times New Roman,serif" font-size="15.00">seq</text>
</g>
<!-- 2529172661008&#45;&#45;2529172762432 -->
<g id="edge9" class="edge"><title>2529172661008&#45;&#45;2529172762432</title>
<path fill="none" stroke="black" d="M686.929,-361.983C668.432,-349.289 642.248,-331.32 624.913,-319.423"/>
</g>
<!-- 2529172762288 -->
<g id="node15" class="node"><title>2529172762288</title>
<ellipse fill="black" stroke="black" cx="708.811" cy="-306" rx="2.7" ry="2.7"/>
</g>
<!-- 2529172661008&#45;&#45;2529172762288 -->
<g id="edge10" class="edge"><title>2529172661008&#45;&#45;2529172762288</title>
<path fill="none" stroke="black" d="M708.811,-359.697C708.811,-341.883 708.811,-315.769 708.811,-308.776"/>
</g>
<!-- 2529172762336 -->
<g id="node8" class="node"><title>2529172762336</title>
<ellipse fill="none" stroke="black" cx="273.811" cy="-234" rx="27" ry="18"/>
<text text-anchor="middle" x="273.811" y="-230.5" font-family="Times New Roman,serif" font-size="15.00">xor</text>
</g>
<!-- 2529172762432&#45;&#45;2529172762336 -->
<g id="edge5" class="edge"><title>2529172762432&#45;&#45;2529172762336</title>
<path fill="none" stroke="black" d="M581.509,-299.681C519.735,-286.696 361.737,-253.483 299.532,-240.407"/>
</g>
<!-- 2529172762384 -->
<g id="node12" class="node"><title>2529172762384</title>
<ellipse fill="none" stroke="black" cx="606.811" cy="-234" rx="27" ry="18"/>
<text text-anchor="middle" x="606.811" y="-230.5" font-family="Times New Roman,serif" font-size="15.00">xor</text>
</g>
<!-- 2529172762432&#45;&#45;2529172762384 -->
<g id="edge8" class="edge"><title>2529172762432&#45;&#45;2529172762384</title>
<path fill="none" stroke="black" d="M606.811,-287.697C606.811,-276.846 606.811,-262.917 606.811,-252.104"/>
</g>
<!-- 2529172761712 -->
<g id="node9" class="node"><title>2529172761712</title>
<ellipse fill="none" stroke="black" cx="52.8111" cy="-162" rx="52.6228" ry="18"/>
<text text-anchor="middle" x="52.8111" y="-158.5" font-family="Times New Roman,serif" font-size="15.00">Send Fine</text>
</g>
<!-- 2529172762336&#45;&#45;2529172761712 -->
<g id="edge2" class="edge"><title>2529172762336&#45;&#45;2529172761712</title>
<path fill="none" stroke="black" d="M249.739,-225.376C211.256,-213.186 135.588,-189.219 90.0742,-174.803"/>
</g>
<!-- 2529172762192 -->
<g id="node10" class="node"><title>2529172762192</title>
<ellipse fill="none" stroke="black" cx="169.811" cy="-162" rx="45.7249" ry="18"/>
<text text-anchor="middle" x="169.811" y="-158.5" font-family="Times New Roman,serif" font-size="15.00">Payment</text>
</g>
<!-- 2529172762336&#45;&#45;2529172762192 -->
<g id="edge3" class="edge"><title>2529172762336&#45;&#45;2529172762192</title>
<path fill="none" stroke="black" d="M255.218,-220.485C237.456,-208.531 210.677,-190.506 191.851,-177.834"/>
</g>
<!-- 2529172761520 -->
<g id="node11" class="node"><title>2529172761520</title>
<ellipse fill="none" stroke="black" cx="377.811" cy="-162" rx="144.571" ry="18"/>
<text text-anchor="middle" x="377.811" y="-158.5" font-family="Times New Roman,serif" font-size="15.00">Insert Date Appeal to Prefecture</text>
</g>
<!-- 2529172762336&#45;&#45;2529172761520 -->
<g id="edge4" class="edge"><title>2529172762336&#45;&#45;2529172761520</title>
<path fill="none" stroke="black" d="M292.404,-220.485C309.231,-209.16 334.151,-192.387 352.735,-179.878"/>
</g>
<!-- 2529172761424 -->
<g id="node13" class="node"><title>2529172761424</title>
<ellipse fill="black" stroke="black" cx="542.811" cy="-162" rx="2.7" ry="2.7"/>
</g>
<!-- 2529172762384&#45;&#45;2529172761424 -->
<g id="edge6" class="edge"><title>2529172762384&#45;&#45;2529172761424</title>
<path fill="none" stroke="black" d="M593.238,-218.155C576.8,-200.175 550.52,-171.432 544.207,-164.527"/>
</g>
<!-- 2529172761280 -->
<g id="node14" class="node"><title>2529172761280</title>
<ellipse fill="none" stroke="black" cx="670.811" cy="-162" rx="107.914" ry="18"/>
<text text-anchor="middle" x="670.811" y="-158.5" font-family="Times New Roman,serif" font-size="15.00">Insert Fine Notification</text>
</g>
<!-- 2529172762384&#45;&#45;2529172761280 -->
<g id="edge7" class="edge"><title>2529172762384&#45;&#45;2529172761280</title>
<path fill="none" stroke="black" d="M620.384,-218.155C630.584,-206.998 644.574,-191.696 655.232,-180.04"/>
</g>
<!-- 2529172761856 -->
<g id="node17" class="node"><title>2529172761856</title>
<ellipse fill="black" stroke="black" cx="888.811" cy="-306" rx="2.7" ry="2.7"/>
</g>
<!-- 2529172660336&#45;&#45;2529172761856 -->
<g id="edge12" class="edge"><title>2529172660336&#45;&#45;2529172761856</title>
<path fill="none" stroke="black" d="M888.811,-359.697C888.811,-341.883 888.811,-315.769 888.811,-308.776"/>
</g>
<!-- 2529172761472 -->
<g id="node18" class="node"><title>2529172761472</title>
<ellipse fill="none" stroke="black" cx="982.811" cy="-306" rx="46.6143" ry="18"/>
<text text-anchor="middle" x="982.811" y="-302.5" font-family="Times New Roman,serif" font-size="15.00">xor loop</text>
</g>
<!-- 2529172660336&#45;&#45;2529172761472 -->
<g id="edge24" class="edge"><title>2529172660336&#45;&#45;2529172761472</title>
<path fill="none" stroke="black" d="M906.492,-363.834C922.34,-352.032 945.594,-334.715 962.264,-322.301"/>
</g>
<!-- 2529172760848 -->
<g id="node19" class="node"><title>2529172760848</title>
<ellipse fill="none" stroke="black" cx="982.811" cy="-234" rx="27" ry="18"/>
<text text-anchor="middle" x="982.811" y="-230.5" font-family="Times New Roman,serif" font-size="15.00">xor</text>
</g>
<!-- 2529172761472&#45;&#45;2529172760848 -->
<g id="edge22" class="edge"><title>2529172761472&#45;&#45;2529172760848</title>
<path fill="none" stroke="black" d="M982.811,-287.697C982.811,-276.846 982.811,-262.917 982.811,-252.104"/>
</g>
<!-- 2529172761184 -->
<g id="node29" class="node"><title>2529172761184</title>
<ellipse fill="black" stroke="black" cx="1030.81" cy="-234" rx="2.7" ry="2.7"/>
</g>
<!-- 2529172761472&#45;&#45;2529172761184 -->
<g id="edge23" class="edge"><title>2529172761472&#45;&#45;2529172761184</title>
<path fill="none" stroke="black" d="M994.186,-288.411C1006.38,-270.622 1024.67,-243.962 1029.57,-236.816"/>
</g>
<!-- 2529172760992 -->
<g id="node20" class="node"><title>2529172760992</title>
<ellipse fill="none" stroke="black" cx="874.811" cy="-162" rx="78.5434" ry="18"/>
<text text-anchor="middle" x="874.811" y="-158.5" font-family="Times New Roman,serif" font-size="15.00">Appeal to Judge</text>
</g>
<!-- 2529172760848&#45;&#45;2529172760992 -->
<g id="edge13" class="edge"><title>2529172760848&#45;&#45;2529172760992</title>
<path fill="none" stroke="black" d="M963.999,-220.807C946.231,-209.291 919.461,-191.94 899.885,-179.252"/>
</g>
<!-- 2529172760896 -->
<g id="node21" class="node"><title>2529172760896</title>
<ellipse fill="none" stroke="black" cx="1091.81" cy="-162" rx="120.43" ry="18"/>
<text text-anchor="middle" x="1091.81" y="-158.5" font-family="Times New Roman,serif" font-size="15.00">Send Appeal to Prefecture</text>
</g>
<!-- 2529172760848&#45;&#45;2529172760896 -->
<g id="edge14" class="edge"><title>2529172760848&#45;&#45;2529172760896</title>
<path fill="none" stroke="black" d="M1001.8,-220.807C1019.49,-209.447 1046.01,-192.411 1065.69,-179.772"/>
</g>
<!-- 2529172760656 -->
<g id="node22" class="node"><title>2529172760656</title>
<ellipse fill="none" stroke="black" cx="1256.81" cy="-162" rx="27" ry="18"/>
<text text-anchor="middle" x="1256.81" y="-158.5" font-family="Times New Roman,serif" font-size="15.00">seq</text>
</g>
<!-- 2529172760848&#45;&#45;2529172760656 -->
<g id="edge21" class="edge"><title>2529172760848&#45;&#45;2529172760656</title>
<path fill="none" stroke="black" d="M1007.61,-226.665C1059.64,-213.371 1179.71,-182.697 1231.87,-169.372"/>
</g>
<!-- 2529172760512 -->
<g id="node23" class="node"><title>2529172760512</title>
<ellipse fill="none" stroke="black" cx="1214.81" cy="-90" rx="27" ry="18"/>
<text text-anchor="middle" x="1214.81" y="-86.5" font-family="Times New Roman,serif" font-size="15.00">xor</text>
</g>
<!-- 2529172760656&#45;&#45;2529172760512 -->
<g id="edge17" class="edge"><title>2529172760656&#45;&#45;2529172760512</title>
<path fill="none" stroke="black" d="M1247.28,-145.116C1240.5,-133.821 1231.43,-118.696 1224.6,-107.307"/>
</g>
<!-- 2529172760128 -->
<g id="node26" class="node"><title>2529172760128</title>
<ellipse fill="none" stroke="black" cx="1297.81" cy="-90" rx="27" ry="18"/>
<text text-anchor="middle" x="1297.81" y="-86.5" font-family="Times New Roman,serif" font-size="15.00">xor</text>
</g>
<!-- 2529172760656&#45;&#45;2529172760128 -->
<g id="edge20" class="edge"><title>2529172760656&#45;&#45;2529172760128</title>
<path fill="none" stroke="black" d="M1266.32,-144.765C1272.94,-133.456 1281.74,-118.437 1288.35,-107.147"/>
</g>
<!-- 2529172759936 -->
<g id="node24" class="node"><title>2529172759936</title>
<ellipse fill="none" stroke="black" cx="960.811" cy="-18" rx="173.941" ry="18"/>
<text text-anchor="middle" x="960.811" y="-14.5" font-family="Times New Roman,serif" font-size="15.00">Receive Result Appeal from Prefecture</text>
</g>
<!-- 2529172760512&#45;&#45;2529172759936 -->
<g id="edge15" class="edge"><title>2529172760512&#45;&#45;2529172759936</title>
<path fill="none" stroke="black" d="M1189.99,-82.1607C1150.61,-71.3068 1072.74,-49.8464 1018.77,-34.9725"/>
</g>
<!-- 2529172760464 -->
<g id="node25" class="node"><title>2529172760464</title>
<ellipse fill="none" stroke="black" cx="1214.81" cy="-18" rx="61.6894" ry="18"/>
<text text-anchor="middle" x="1214.81" y="-14.5" font-family="Times New Roman,serif" font-size="15.00">Add penalty</text>
</g>
<!-- 2529172760512&#45;&#45;2529172760464 -->
<g id="edge16" class="edge"><title>2529172760512&#45;&#45;2529172760464</title>
<path fill="none" stroke="black" d="M1214.81,-71.6966C1214.81,-60.8463 1214.81,-46.9167 1214.81,-36.1043"/>
</g>
<!-- 2529172760176 -->
<g id="node27" class="node"><title>2529172760176</title>
<ellipse fill="black" stroke="black" cx="1297.81" cy="-18" rx="2.7" ry="2.7"/>
</g>
<!-- 2529172760128&#45;&#45;2529172760176 -->
<g id="edge18" class="edge"><title>2529172760128&#45;&#45;2529172760176</title>
<path fill="none" stroke="black" d="M1297.81,-71.6966C1297.81,-53.8826 1297.81,-27.7686 1297.81,-20.7764"/>
</g>
<!-- 2529172759984 -->
<g id="node28" class="node"><title>2529172759984</title>
<ellipse fill="none" stroke="black" cx="1466.81" cy="-18" rx="148.91" ry="18"/>
<text text-anchor="middle" x="1466.81" y="-14.5" font-family="Times New Roman,serif" font-size="15.00">Notify Result Appeal to Offender</text>
</g>
<!-- 2529172760128&#45;&#45;2529172759984 -->
<g id="edge19" class="edge"><title>2529172760128&#45;&#45;2529172759984</title>
<path fill="none" stroke="black" d="M1320.25,-79.7045C1347.46,-68.4359 1393.79,-49.2446 1427.09,-35.4544"/>
</g>
<!-- 2529172761760 -->
<g id="node32" class="node"><title>2529172761760</title>
<ellipse fill="black" stroke="black" cx="909.811" cy="-450" rx="2.7" ry="2.7"/>
</g>
<!-- 2529172662832&#45;&#45;2529172761760 -->
<g id="edge29" class="edge"><title>2529172662832&#45;&#45;2529172761760</title>
<path fill="none" stroke="black" d="M927.243,-504.055C921.394,-486.252 912.724,-459.865 910.401,-452.796"/>
</g>
<!-- 2529172760224 -->
<g id="node33" class="node"><title>2529172760224</title>
<ellipse fill="none" stroke="black" cx="1051.81" cy="-450" rx="120.819" ry="18"/>
<text text-anchor="middle" x="1051.81" y="-446.5" font-family="Times New Roman,serif" font-size="15.00">Send for Credit Collection</text>
</g>
<!-- 2529172662832&#45;&#45;2529172760224 -->
<g id="edge30" class="edge"><title>2529172662832&#45;&#45;2529172760224</title>
<path fill="none" stroke="black" d="M952.461,-509.441C971.87,-498.024 1001.75,-480.449 1023.67,-467.553"/>
</g>
</g>
</svg>
