<?xml version="1.0" encoding="UTF-8" standalone="no"?>
<!DOCTYPE svg PUBLIC "-//W3C//DTD SVG 1.1//EN"
 "http://www.w3.org/Graphics/SVG/1.1/DTD/svg11.dtd">
<!-- Generated by graphviz version 2.38.0 (20140413.2041)
 -->
<!-- Title: pt Pages: 1 -->
<svg width="1080pt" height="476pt"
 viewBox="0.00 0.00 1079.61 476.00" xmlns="http://www.w3.org/2000/svg" xmlns:xlink="http://www.w3.org/1999/xlink">
<g id="graph0" class="graph" transform="scale(1 1) rotate(0) translate(4 472)">
<title>pt</title>
<!-- 2529007164000 -->
<g id="node1" class="node"><title>2529007164000</title>
<ellipse fill="none" stroke="black" cx="266.7" cy="-450" rx="27" ry="18"/>
<text text-anchor="middle" x="266.7" y="-446.5" font-family="Times New Roman,serif" font-size="15.00">and</text>
</g>
<!-- 2529007163952 -->
<g id="node2" class="node"><title>2529007163952</title>
<ellipse fill="none" stroke="black" cx="195.7" cy="-378" rx="27" ry="18"/>
<text text-anchor="middle" x="195.7" y="-374.5" font-family="Times New Roman,serif" font-size="15.00">xor</text>
</g>
<!-- 2529007164000&#45;&#45;2529007163952 -->
<g id="edge14" class="edge"><title>2529007164000&#45;&#45;2529007163952</title>
<path fill="none" stroke="black" d="M251.989,-434.496C239.803,-422.482 222.573,-405.494 210.392,-393.485"/>
</g>
<!-- 2529007163616 -->
<g id="node16" class="node"><title>2529007163616</title>
<ellipse fill="none" stroke="black" cx="337.7" cy="-378" rx="27" ry="18"/>
<text text-anchor="middle" x="337.7" y="-374.5" font-family="Times New Roman,serif" font-size="15.00">seq</text>
</g>
<!-- 2529007164000&#45;&#45;2529007163616 -->
<g id="edge24" class="edge"><title>2529007164000&#45;&#45;2529007163616</title>
<path fill="none" stroke="black" d="M281.411,-434.496C293.597,-422.482 310.827,-405.494 323.008,-393.485"/>
</g>
<!-- 2529007163232 -->
<g id="node3" class="node"><title>2529007163232</title>
<ellipse fill="black" stroke="black" cx="147.7" cy="-306" rx="2.7" ry="2.7"/>
</g>
<!-- 2529007163952&#45;&#45;2529007163232 -->
<g id="edge1" class="edge"><title>2529007163952&#45;&#45;2529007163232</title>
<path fill="none" stroke="black" d="M184.808,-361.116C172.638,-343.367 153.98,-316.158 148.973,-308.857"/>
</g>
<!-- 2529007163088 -->
<g id="node4" class="node"><title>2529007163088</title>
<ellipse fill="none" stroke="black" cx="195.7" cy="-306" rx="27" ry="18"/>
<text text-anchor="middle" x="195.7" y="-302.5" font-family="Times New Roman,serif" font-size="15.00">and</text>
</g>
<!-- 2529007163952&#45;&#45;2529007163088 -->
<g id="edge13" class="edge"><title>2529007163952&#45;&#45;2529007163088</title>
<path fill="none" stroke="black" d="M195.7,-359.697C195.7,-348.846 195.7,-334.917 195.7,-324.104"/>
</g>
<!-- 2529007709632 -->
<g id="node5" class="node"><title>2529007709632</title>
<ellipse fill="none" stroke="black" cx="69.7" cy="-234" rx="46.6143" ry="18"/>
<text text-anchor="middle" x="69.7" y="-230.5" font-family="Times New Roman,serif" font-size="15.00">xor loop</text>
</g>
<!-- 2529007163088&#45;&#45;2529007709632 -->
<g id="edge4" class="edge"><title>2529007163088&#45;&#45;2529007709632</title>
<path fill="none" stroke="black" d="M175.456,-293.753C153.613,-281.618 118.785,-262.27 95.1151,-249.119"/>
</g>
<!-- 2529007709728 -->
<g id="node8" class="node"><title>2529007709728</title>
<ellipse fill="none" stroke="black" cx="195.7" cy="-234" rx="27" ry="18"/>
<text text-anchor="middle" x="195.7" y="-230.5" font-family="Times New Roman,serif" font-size="15.00">xor</text>
</g>
<!-- 2529007163088&#45;&#45;2529007709728 -->
<g id="edge12" class="edge"><title>2529007163088&#45;&#45;2529007709728</title>
<path fill="none" stroke="black" d="M195.7,-287.697C195.7,-276.846 195.7,-262.917 195.7,-252.104"/>
</g>
<!-- 2529007708528 -->
<g id="node6" class="node"><title>2529007708528</title>
<ellipse fill="black" stroke="black" cx="2.7" cy="-162" rx="2.7" ry="2.7"/>
</g>
<!-- 2529007709632&#45;&#45;2529007708528 -->
<g id="edge2" class="edge"><title>2529007709632&#45;&#45;2529007708528</title>
<path fill="none" stroke="black" d="M54.1604,-216.765C36.842,-198.671 10.4314,-171.078 4.09939,-164.462"/>
</g>
<!-- 2529007709248 -->
<g id="node7" class="node"><title>2529007709248</title>
<ellipse fill="none" stroke="black" cx="69.7" cy="-162" rx="45.7249" ry="18"/>
<text text-anchor="middle" x="69.7" y="-158.5" font-family="Times New Roman,serif" font-size="15.00">Payment</text>
</g>
<!-- 2529007709632&#45;&#45;2529007709248 -->
<g id="edge3" class="edge"><title>2529007709632&#45;&#45;2529007709248</title>
<path fill="none" stroke="black" d="M69.7,-215.697C69.7,-204.846 69.7,-190.917 69.7,-180.104"/>
</g>
<!-- 2529007709344 -->
<g id="node9" class="node"><title>2529007709344</title>
<ellipse fill="none" stroke="black" cx="186.7" cy="-162" rx="52.6228" ry="18"/>
<text text-anchor="middle" x="186.7" y="-158.5" font-family="Times New Roman,serif" font-size="15.00">Send Fine</text>
</g>
<!-- 2529007709728&#45;&#45;2529007709344 -->
<g id="edge5" class="edge"><title>2529007709728&#45;&#45;2529007709344</title>
<path fill="none" stroke="black" d="M193.521,-216.055C192.127,-205.211 190.324,-191.183 188.921,-180.275"/>
</g>
<!-- 2529007709104 -->
<g id="node10" class="node"><title>2529007709104</title>
<ellipse fill="none" stroke="black" cx="284.7" cy="-162" rx="27" ry="18"/>
<text text-anchor="middle" x="284.7" y="-158.5" font-family="Times New Roman,serif" font-size="15.00">seq</text>
</g>
<!-- 2529007709728&#45;&#45;2529007709104 -->
<g id="edge11" class="edge"><title>2529007709728&#45;&#45;2529007709104</title>
<path fill="none" stroke="black" d="M212.44,-219.834C228.251,-207.398 251.847,-188.839 267.732,-176.345"/>
</g>
<!-- 2529007708240 -->
<g id="node11" class="node"><title>2529007708240</title>
<ellipse fill="none" stroke="black" cx="105.7" cy="-90" rx="52.6228" ry="18"/>
<text text-anchor="middle" x="105.7" y="-86.5" font-family="Times New Roman,serif" font-size="15.00">Send Fine</text>
</g>
<!-- 2529007709104&#45;&#45;2529007708240 -->
<g id="edge6" class="edge"><title>2529007709104&#45;&#45;2529007708240</title>
<path fill="none" stroke="black" d="M262.03,-152.134C230.985,-139.994 175.016,-118.107 139.149,-104.081"/>
</g>
<!-- 2529007707760 -->
<g id="node12" class="node"><title>2529007707760</title>
<ellipse fill="none" stroke="black" cx="284.7" cy="-90" rx="107.914" ry="18"/>
<text text-anchor="middle" x="284.7" y="-86.5" font-family="Times New Roman,serif" font-size="15.00">Insert Fine Notification</text>
</g>
<!-- 2529007709104&#45;&#45;2529007707760 -->
<g id="edge7" class="edge"><title>2529007709104&#45;&#45;2529007707760</title>
<path fill="none" stroke="black" d="M284.7,-143.697C284.7,-132.846 284.7,-118.917 284.7,-108.104"/>
</g>
<!-- 2529007707520 -->
<g id="node13" class="node"><title>2529007707520</title>
<ellipse fill="none" stroke="black" cx="456.7" cy="-90" rx="46.6143" ry="18"/>
<text text-anchor="middle" x="456.7" y="-86.5" font-family="Times New Roman,serif" font-size="15.00">xor loop</text>
</g>
<!-- 2529007709104&#45;&#45;2529007707520 -->
<g id="edge10" class="edge"><title>2529007709104&#45;&#45;2529007707520</title>
<path fill="none" stroke="black" d="M307.186,-151.849C337.509,-139.508 391.634,-117.48 425.773,-103.587"/>
</g>
<!-- 2529007707376 -->
<g id="node14" class="node"><title>2529007707376</title>
<ellipse fill="black" stroke="black" cx="414.7" cy="-18" rx="2.7" ry="2.7"/>
</g>
<!-- 2529007707520&#45;&#45;2529007707376 -->
<g id="edge8" class="edge"><title>2529007707520&#45;&#45;2529007707376</title>
<path fill="none" stroke="black" d="M446.747,-72.411C436.073,-54.622 420.077,-27.9625 415.79,-20.8163"/>
</g>
<!-- 2529007706368 -->
<g id="node15" class="node"><title>2529007706368</title>
<ellipse fill="none" stroke="black" cx="497.7" cy="-18" rx="61.6894" ry="18"/>
<text text-anchor="middle" x="497.7" y="-14.5" font-family="Times New Roman,serif" font-size="15.00">Add penalty</text>
</g>
<!-- 2529007707520&#45;&#45;2529007706368 -->
<g id="edge9" class="edge"><title>2529007707520&#45;&#45;2529007706368</title>
<path fill="none" stroke="black" d="M466.625,-72.055C473.071,-61.0492 481.438,-46.7636 487.866,-35.789"/>
</g>
<!-- 2529007162080 -->
<g id="node17" class="node"><title>2529007162080</title>
<ellipse fill="none" stroke="black" cx="337.7" cy="-306" rx="59.5207" ry="18"/>
<text text-anchor="middle" x="337.7" y="-302.5" font-family="Times New Roman,serif" font-size="15.00">Create Fine</text>
</g>
<!-- 2529007163616&#45;&#45;2529007162080 -->
<g id="edge15" class="edge"><title>2529007163616&#45;&#45;2529007162080</title>
<path fill="none" stroke="black" d="M337.7,-359.697C337.7,-348.846 337.7,-334.917 337.7,-324.104"/>
</g>
<!-- 2529007165344 -->
<g id="node18" class="node"><title>2529007165344</title>
<ellipse fill="none" stroke="black" cx="460.7" cy="-306" rx="27" ry="18"/>
<text text-anchor="middle" x="460.7" y="-302.5" font-family="Times New Roman,serif" font-size="15.00">xor</text>
</g>
<!-- 2529007163616&#45;&#45;2529007165344 -->
<g id="edge23" class="edge"><title>2529007163616&#45;&#45;2529007165344</title>
<path fill="none" stroke="black" d="M357.736,-365.597C380.608,-352.581 417.804,-331.413 440.673,-318.398"/>
</g>
<!-- 2529007162128 -->
<g id="node19" class="node"><title>2529007162128</title>
<ellipse fill="black" stroke="black" cx="398.7" cy="-234" rx="2.7" ry="2.7"/>
</g>
<!-- 2529007165344&#45;&#45;2529007162128 -->
<g id="edge16" class="edge"><title>2529007165344&#45;&#45;2529007162128</title>
<path fill="none" stroke="black" d="M447.551,-290.155C431.627,-272.175 406.168,-243.432 400.053,-236.527"/>
</g>
<!-- 2529007163040 -->
<g id="node20" class="node"><title>2529007163040</title>
<ellipse fill="none" stroke="black" cx="465.7" cy="-234" rx="45.7249" ry="18"/>
<text text-anchor="middle" x="465.7" y="-230.5" font-family="Times New Roman,serif" font-size="15.00">Payment</text>
</g>
<!-- 2529007165344&#45;&#45;2529007163040 -->
<g id="edge17" class="edge"><title>2529007165344&#45;&#45;2529007163040</title>
<path fill="none" stroke="black" d="M461.936,-287.697C462.711,-276.846 463.706,-262.917 464.478,-252.104"/>
</g>
<!-- 2529007162848 -->
<g id="node21" class="node"><title>2529007162848</title>
<ellipse fill="none" stroke="black" cx="561.7" cy="-234" rx="27" ry="18"/>
<text text-anchor="middle" x="561.7" y="-230.5" font-family="Times New Roman,serif" font-size="15.00">seq</text>
</g>
<!-- 2529007165344&#45;&#45;2529007162848 -->
<g id="edge22" class="edge"><title>2529007165344&#45;&#45;2529007162848</title>
<path fill="none" stroke="black" d="M478.757,-292.485C497.027,-279.823 525.123,-260.351 543.459,-247.642"/>
</g>
<!-- 2529007708432 -->
<g id="node22" class="node"><title>2529007708432</title>
<ellipse fill="none" stroke="black" cx="382.7" cy="-162" rx="52.6228" ry="18"/>
<text text-anchor="middle" x="382.7" y="-158.5" font-family="Times New Roman,serif" font-size="15.00">Send Fine</text>
</g>
<!-- 2529007162848&#45;&#45;2529007708432 -->
<g id="edge18" class="edge"><title>2529007162848&#45;&#45;2529007708432</title>
<path fill="none" stroke="black" d="M539.03,-224.134C507.985,-211.994 452.016,-190.107 416.149,-176.081"/>
</g>
<!-- 2529007708144 -->
<g id="node23" class="node"><title>2529007708144</title>
<ellipse fill="none" stroke="black" cx="561.7" cy="-162" rx="107.914" ry="18"/>
<text text-anchor="middle" x="561.7" y="-158.5" font-family="Times New Roman,serif" font-size="15.00">Insert Fine Notification</text>
</g>
<!-- 2529007162848&#45;&#45;2529007708144 -->
<g id="edge19" class="edge"><title>2529007162848&#45;&#45;2529007708144</title>
<path fill="none" stroke="black" d="M561.7,-215.697C561.7,-204.846 561.7,-190.917 561.7,-180.104"/>
</g>
<!-- 2529007710112 -->
<g id="node24" class="node"><title>2529007710112</title>
<ellipse fill="none" stroke="black" cx="749.7" cy="-162" rx="61.6894" ry="18"/>
<text text-anchor="middle" x="749.7" y="-158.5" font-family="Times New Roman,serif" font-size="15.00">Add penalty</text>
</g>
<!-- 2529007162848&#45;&#45;2529007710112 -->
<g id="edge20" class="edge"><title>2529007162848&#45;&#45;2529007710112</title>
<path fill="none" stroke="black" d="M584.752,-224.417C616.815,-212.479 675.205,-190.738 713.215,-176.585"/>
</g>
<!-- 2529007708960 -->
<g id="node25" class="node"><title>2529007708960</title>
<ellipse fill="none" stroke="black" cx="950.7" cy="-162" rx="120.819" ry="18"/>
<text text-anchor="middle" x="950.7" y="-158.5" font-family="Times New Roman,serif" font-size="15.00">Send for Credit Collection</text>
</g>
<!-- 2529007162848&#45;&#45;2529007708960 -->
<g id="edge21" class="edge"><title>2529007162848&#45;&#45;2529007708960</title>
<path fill="none" stroke="black" d="M587.525,-228.353C645.644,-217.894 788.522,-192.184 876.754,-176.306"/>
</g>
</g>
</svg>
