<?xml version="1.0" encoding="UTF-8" standalone="no"?>
<!DOCTYPE svg PUBLIC "-//W3C//DTD SVG 1.1//EN"
 "http://www.w3.org/Graphics/SVG/1.1/DTD/svg11.dtd">
<!-- Generated by graphviz version 2.38.0 (20140413.2041)
 -->
<!-- Title: pt Pages: 1 -->
<svg width="604pt" height="404pt"
 viewBox="0.00 0.00 603.60 404.00" xmlns="http://www.w3.org/2000/svg" xmlns:xlink="http://www.w3.org/1999/xlink">
<g id="graph0" class="graph" transform="scale(1 1) rotate(0) translate(4 400)">
<title>pt</title>
<!-- 2529006783648 -->
<g id="node1" class="node"><title>2529006783648</title>
<ellipse fill="none" stroke="black" cx="164.76" cy="-378" rx="27" ry="18"/>
<text text-anchor="middle" x="164.76" y="-374.5" font-family="Times New Roman,serif" font-size="15.00">seq</text>
</g>
<!-- 2529006783936 -->
<g id="node2" class="node"><title>2529006783936</title>
<ellipse fill="none" stroke="black" cx="59.7599" cy="-306" rx="59.5207" ry="18"/>
<text text-anchor="middle" x="59.7599" y="-302.5" font-family="Times New Roman,serif" font-size="15.00">Create Fine</text>
</g>
<!-- 2529006783648&#45;&#45;2529006783936 -->
<g id="edge1" class="edge"><title>2529006783648&#45;&#45;2529006783936</title>
<path fill="none" stroke="black" d="M145.988,-364.485C128.41,-352.767 102.083,-335.215 83.1463,-322.591"/>
</g>
<!-- 2529006784128 -->
<g id="node3" class="node"><title>2529006784128</title>
<ellipse fill="none" stroke="black" cx="164.76" cy="-306" rx="27" ry="18"/>
<text text-anchor="middle" x="164.76" y="-302.5" font-family="Times New Roman,serif" font-size="15.00">and</text>
</g>
<!-- 2529006783648&#45;&#45;2529006784128 -->
<g id="edge13" class="edge"><title>2529006783648&#45;&#45;2529006784128</title>
<path fill="none" stroke="black" d="M164.76,-359.697C164.76,-348.846 164.76,-334.917 164.76,-324.104"/>
</g>
<!-- 2529006784320 -->
<g id="node15" class="node"><title>2529006784320</title>
<ellipse fill="none" stroke="black" cx="330.76" cy="-306" rx="120.819" ry="18"/>
<text text-anchor="middle" x="330.76" y="-302.5" font-family="Times New Roman,serif" font-size="15.00">Send for Credit Collection</text>
</g>
<!-- 2529006783648&#45;&#45;2529006784320 -->
<g id="edge14" class="edge"><title>2529006783648&#45;&#45;2529006784320</title>
<path fill="none" stroke="black" d="M187.147,-367.559C214.139,-356.177 259.935,-336.866 292.554,-323.111"/>
</g>
<!-- 2529006784416 -->
<g id="node4" class="node"><title>2529006784416</title>
<ellipse fill="none" stroke="black" cx="105.76" cy="-234" rx="46.6143" ry="18"/>
<text text-anchor="middle" x="105.76" y="-230.5" font-family="Times New Roman,serif" font-size="15.00">xor loop</text>
</g>
<!-- 2529006784128&#45;&#45;2529006784416 -->
<g id="edge4" class="edge"><title>2529006784128&#45;&#45;2529006784416</title>
<path fill="none" stroke="black" d="M151.958,-289.811C142.468,-278.552 129.541,-263.215 119.775,-251.628"/>
</g>
<!-- 2529006862496 -->
<g id="node7" class="node"><title>2529006862496</title>
<ellipse fill="none" stroke="black" cx="222.76" cy="-234" rx="27" ry="18"/>
<text text-anchor="middle" x="222.76" y="-230.5" font-family="Times New Roman,serif" font-size="15.00">xor</text>
</g>
<!-- 2529006784128&#45;&#45;2529006862496 -->
<g id="edge12" class="edge"><title>2529006784128&#45;&#45;2529006862496</title>
<path fill="none" stroke="black" d="M177.345,-289.811C187.074,-278.07 200.477,-261.893 210.199,-250.159"/>
</g>
<!-- 2529006862592 -->
<g id="node5" class="node"><title>2529006862592</title>
<ellipse fill="black" stroke="black" cx="38.7599" cy="-162" rx="2.7" ry="2.7"/>
</g>
<!-- 2529006784416&#45;&#45;2529006862592 -->
<g id="edge2" class="edge"><title>2529006784416&#45;&#45;2529006862592</title>
<path fill="none" stroke="black" d="M90.2203,-216.765C72.9019,-198.671 46.4913,-171.078 40.1593,-164.462"/>
</g>
<!-- 2529006862688 -->
<g id="node6" class="node"><title>2529006862688</title>
<ellipse fill="none" stroke="black" cx="105.76" cy="-162" rx="45.7249" ry="18"/>
<text text-anchor="middle" x="105.76" y="-158.5" font-family="Times New Roman,serif" font-size="15.00">Payment</text>
</g>
<!-- 2529006784416&#45;&#45;2529006862688 -->
<g id="edge3" class="edge"><title>2529006784416&#45;&#45;2529006862688</title>
<path fill="none" stroke="black" d="M105.76,-215.697C105.76,-204.846 105.76,-190.917 105.76,-180.104"/>
</g>
<!-- 2529006863024 -->
<g id="node8" class="node"><title>2529006863024</title>
<ellipse fill="none" stroke="black" cx="222.76" cy="-162" rx="52.6228" ry="18"/>
<text text-anchor="middle" x="222.76" y="-158.5" font-family="Times New Roman,serif" font-size="15.00">Send Fine</text>
</g>
<!-- 2529006862496&#45;&#45;2529006863024 -->
<g id="edge5" class="edge"><title>2529006862496&#45;&#45;2529006863024</title>
<path fill="none" stroke="black" d="M222.76,-215.697C222.76,-204.846 222.76,-190.917 222.76,-180.104"/>
</g>
<!-- 2529006863168 -->
<g id="node9" class="node"><title>2529006863168</title>
<ellipse fill="none" stroke="black" cx="320.76" cy="-162" rx="27" ry="18"/>
<text text-anchor="middle" x="320.76" y="-158.5" font-family="Times New Roman,serif" font-size="15.00">seq</text>
</g>
<!-- 2529006862496&#45;&#45;2529006863168 -->
<g id="edge11" class="edge"><title>2529006862496&#45;&#45;2529006863168</title>
<path fill="none" stroke="black" d="M240.735,-220.161C258.417,-207.531 285.256,-188.36 302.899,-175.758"/>
</g>
<!-- 2529006863408 -->
<g id="node10" class="node"><title>2529006863408</title>
<ellipse fill="none" stroke="black" cx="141.76" cy="-90" rx="52.6228" ry="18"/>
<text text-anchor="middle" x="141.76" y="-86.5" font-family="Times New Roman,serif" font-size="15.00">Send Fine</text>
</g>
<!-- 2529006863168&#45;&#45;2529006863408 -->
<g id="edge6" class="edge"><title>2529006863168&#45;&#45;2529006863408</title>
<path fill="none" stroke="black" d="M298.089,-152.134C267.045,-139.994 211.076,-118.107 175.209,-104.081"/>
</g>
<!-- 2529006863552 -->
<g id="node11" class="node"><title>2529006863552</title>
<ellipse fill="none" stroke="black" cx="320.76" cy="-90" rx="107.914" ry="18"/>
<text text-anchor="middle" x="320.76" y="-86.5" font-family="Times New Roman,serif" font-size="15.00">Insert Fine Notification</text>
</g>
<!-- 2529006863168&#45;&#45;2529006863552 -->
<g id="edge7" class="edge"><title>2529006863168&#45;&#45;2529006863552</title>
<path fill="none" stroke="black" d="M320.76,-143.697C320.76,-132.846 320.76,-118.917 320.76,-108.104"/>
</g>
<!-- 2529006863696 -->
<g id="node12" class="node"><title>2529006863696</title>
<ellipse fill="none" stroke="black" cx="492.76" cy="-90" rx="46.6143" ry="18"/>
<text text-anchor="middle" x="492.76" y="-86.5" font-family="Times New Roman,serif" font-size="15.00">xor loop</text>
</g>
<!-- 2529006863168&#45;&#45;2529006863696 -->
<g id="edge10" class="edge"><title>2529006863168&#45;&#45;2529006863696</title>
<path fill="none" stroke="black" d="M343.246,-151.849C373.569,-139.508 427.694,-117.48 461.833,-103.587"/>
</g>
<!-- 2529006863936 -->
<g id="node13" class="node"><title>2529006863936</title>
<ellipse fill="black" stroke="black" cx="450.76" cy="-18" rx="2.7" ry="2.7"/>
</g>
<!-- 2529006863696&#45;&#45;2529006863936 -->
<g id="edge8" class="edge"><title>2529006863696&#45;&#45;2529006863936</title>
<path fill="none" stroke="black" d="M482.806,-72.411C472.133,-54.622 456.137,-27.9625 451.85,-20.8163"/>
</g>
<!-- 2529006864080 -->
<g id="node14" class="node"><title>2529006864080</title>
<ellipse fill="none" stroke="black" cx="533.76" cy="-18" rx="61.6894" ry="18"/>
<text text-anchor="middle" x="533.76" y="-14.5" font-family="Times New Roman,serif" font-size="15.00">Add penalty</text>
</g>
<!-- 2529006863696&#45;&#45;2529006864080 -->
<g id="edge9" class="edge"><title>2529006863696&#45;&#45;2529006864080</title>
<path fill="none" stroke="black" d="M502.685,-72.055C509.131,-61.0492 517.498,-46.7636 523.926,-35.789"/>
</g>
</g>
</svg>
