<?xml version="1.0" encoding="UTF-8" standalone="no"?>
<!DOCTYPE svg PUBLIC "-//W3C//DTD SVG 1.1//EN"
 "http://www.w3.org/Graphics/SVG/1.1/DTD/svg11.dtd">
<!-- Generated by graphviz version 2.38.0 (20140413.2041)
 -->
<!-- Title: pt Pages: 1 -->
<svg width="1002pt" height="476pt"
 viewBox="0.00 0.00 1001.92 476.00" xmlns="http://www.w3.org/2000/svg" xmlns:xlink="http://www.w3.org/1999/xlink">
<g id="graph0" class="graph" transform="scale(1 1) rotate(0) translate(4 472)">
<title>pt</title>
<!-- 2529174712224 -->
<g id="node1" class="node"><title>2529174712224</title>
<ellipse fill="none" stroke="black" cx="492.707" cy="-450" rx="27" ry="18"/>
<text text-anchor="middle" x="492.707" y="-446.5" font-family="Times New Roman,serif" font-size="15.00">seq</text>
</g>
<!-- 2529174710544 -->
<g id="node2" class="node"><title>2529174710544</title>
<ellipse fill="none" stroke="black" cx="272.707" cy="-378" rx="27" ry="18"/>
<text text-anchor="middle" x="272.707" y="-374.5" font-family="Times New Roman,serif" font-size="15.00">seq</text>
</g>
<!-- 2529174712224&#45;&#45;2529174710544 -->
<g id="edge8" class="edge"><title>2529174712224&#45;&#45;2529174710544</title>
<path fill="none" stroke="black" d="M468.744,-441.376C426.425,-427.91 338.938,-400.073 296.64,-386.615"/>
</g>
<!-- 2529174711264 -->
<g id="node10" class="node"><title>2529174711264</title>
<ellipse fill="none" stroke="black" cx="492.707" cy="-378" rx="27" ry="18"/>
<text text-anchor="middle" x="492.707" y="-374.5" font-family="Times New Roman,serif" font-size="15.00">xor</text>
</g>
<!-- 2529174712224&#45;&#45;2529174711264 -->
<g id="edge33" class="edge"><title>2529174712224&#45;&#45;2529174711264</title>
<path fill="none" stroke="black" d="M492.707,-431.697C492.707,-420.846 492.707,-406.917 492.707,-396.104"/>
</g>
<!-- 2529174711456 -->
<g id="node35" class="node"><title>2529174711456</title>
<ellipse fill="none" stroke="black" cx="576.707" cy="-378" rx="27" ry="18"/>
<text text-anchor="middle" x="576.707" y="-374.5" font-family="Times New Roman,serif" font-size="15.00">xor</text>
</g>
<!-- 2529174712224&#45;&#45;2529174711456 -->
<g id="edge36" class="edge"><title>2529174712224&#45;&#45;2529174711456</title>
<path fill="none" stroke="black" d="M508.903,-435.503C523.777,-423.108 545.702,-404.838 560.56,-392.455"/>
</g>
<!-- 2529174712032 -->
<g id="node3" class="node"><title>2529174712032</title>
<ellipse fill="none" stroke="black" cx="131.707" cy="-306" rx="59.5207" ry="18"/>
<text text-anchor="middle" x="131.707" y="-302.5" font-family="Times New Roman,serif" font-size="15.00">Create Fine</text>
</g>
<!-- 2529174710544&#45;&#45;2529174712032 -->
<g id="edge1" class="edge"><title>2529174710544&#45;&#45;2529174712032</title>
<path fill="none" stroke="black" d="M251.598,-366.52C227.628,-354.621 188.352,-335.122 161.324,-321.704"/>
</g>
<!-- 2529174710160 -->
<g id="node4" class="node"><title>2529174710160</title>
<ellipse fill="none" stroke="black" cx="236.707" cy="-306" rx="27" ry="18"/>
<text text-anchor="middle" x="236.707" y="-302.5" font-family="Times New Roman,serif" font-size="15.00">xor</text>
</g>
<!-- 2529174710544&#45;&#45;2529174710160 -->
<g id="edge4" class="edge"><title>2529174710544&#45;&#45;2529174710160</title>
<path fill="none" stroke="black" d="M264.357,-360.765C258.541,-349.456 250.817,-334.437 245.011,-323.147"/>
</g>
<!-- 2529174712272 -->
<g id="node7" class="node"><title>2529174712272</title>
<ellipse fill="none" stroke="black" cx="308.707" cy="-306" rx="27" ry="18"/>
<text text-anchor="middle" x="308.707" y="-302.5" font-family="Times New Roman,serif" font-size="15.00">xor</text>
</g>
<!-- 2529174710544&#45;&#45;2529174712272 -->
<g id="edge7" class="edge"><title>2529174710544&#45;&#45;2529174712272</title>
<path fill="none" stroke="black" d="M281.056,-360.765C286.872,-349.456 294.596,-334.437 300.402,-323.147"/>
</g>
<!-- 2529174710736 -->
<g id="node5" class="node"><title>2529174710736</title>
<ellipse fill="black" stroke="black" cx="169.707" cy="-234" rx="2.7" ry="2.7"/>
</g>
<!-- 2529174710160&#45;&#45;2529174710736 -->
<g id="edge2" class="edge"><title>2529174710160&#45;&#45;2529174710736</title>
<path fill="none" stroke="black" d="M222.824,-290.496C205.653,-272.555 177.863,-243.522 171.184,-236.544"/>
</g>
<!-- 2529174711312 -->
<g id="node6" class="node"><title>2529174711312</title>
<ellipse fill="none" stroke="black" cx="236.707" cy="-234" rx="45.7249" ry="18"/>
<text text-anchor="middle" x="236.707" y="-230.5" font-family="Times New Roman,serif" font-size="15.00">Payment</text>
</g>
<!-- 2529174710160&#45;&#45;2529174711312 -->
<g id="edge3" class="edge"><title>2529174710160&#45;&#45;2529174711312</title>
<path fill="none" stroke="black" d="M236.707,-287.697C236.707,-276.846 236.707,-262.917 236.707,-252.104"/>
</g>
<!-- 2529174709392 -->
<g id="node8" class="node"><title>2529174709392</title>
<ellipse fill="black" stroke="black" cx="303.707" cy="-234" rx="2.7" ry="2.7"/>
</g>
<!-- 2529174712272&#45;&#45;2529174709392 -->
<g id="edge5" class="edge"><title>2529174712272&#45;&#45;2529174709392</title>
<path fill="none" stroke="black" d="M307.471,-287.697C306.198,-269.883 304.333,-243.769 303.834,-236.776"/>
</g>
<!-- 2529174709200 -->
<g id="node9" class="node"><title>2529174709200</title>
<ellipse fill="none" stroke="black" cx="377.707" cy="-234" rx="52.6228" ry="18"/>
<text text-anchor="middle" x="377.707" y="-230.5" font-family="Times New Roman,serif" font-size="15.00">Send Fine</text>
</g>
<!-- 2529174712272&#45;&#45;2529174709200 -->
<g id="edge6" class="edge"><title>2529174712272&#45;&#45;2529174709200</title>
<path fill="none" stroke="black" d="M323.004,-290.496C334.293,-279.043 350.039,-263.069 361.74,-251.198"/>
</g>
<!-- 2529174710496 -->
<g id="node11" class="node"><title>2529174710496</title>
<ellipse fill="black" stroke="black" cx="480.707" cy="-306" rx="2.7" ry="2.7"/>
</g>
<!-- 2529174711264&#45;&#45;2529174710496 -->
<g id="edge9" class="edge"><title>2529174711264&#45;&#45;2529174710496</title>
<path fill="none" stroke="black" d="M489.802,-360.055C486.75,-342.252 482.227,-315.865 481.015,-308.796"/>
</g>
<!-- 2529174709536 -->
<g id="node12" class="node"><title>2529174709536</title>
<ellipse fill="none" stroke="black" cx="528.707" cy="-306" rx="27" ry="18"/>
<text text-anchor="middle" x="528.707" y="-302.5" font-family="Times New Roman,serif" font-size="15.00">seq</text>
</g>
<!-- 2529174711264&#45;&#45;2529174709536 -->
<g id="edge32" class="edge"><title>2529174711264&#45;&#45;2529174709536</title>
<path fill="none" stroke="black" d="M501.056,-360.765C506.872,-349.456 514.596,-334.437 520.402,-323.147"/>
</g>
<!-- 2529174709008 -->
<g id="node13" class="node"><title>2529174709008</title>
<ellipse fill="none" stroke="black" cx="475.707" cy="-234" rx="27" ry="18"/>
<text text-anchor="middle" x="475.707" y="-230.5" font-family="Times New Roman,serif" font-size="15.00">xor</text>
</g>
<!-- 2529174709536&#45;&#45;2529174709008 -->
<g id="edge19" class="edge"><title>2529174709536&#45;&#45;2529174709008</title>
<path fill="none" stroke="black" d="M516.944,-289.465C508.161,-277.865 496.211,-262.082 487.436,-250.492"/>
</g>
<!-- 2529174710688 -->
<g id="node23" class="node"><title>2529174710688</title>
<ellipse fill="none" stroke="black" cx="581.707" cy="-234" rx="27" ry="18"/>
<text text-anchor="middle" x="581.707" y="-230.5" font-family="Times New Roman,serif" font-size="15.00">and</text>
</g>
<!-- 2529174709536&#45;&#45;2529174710688 -->
<g id="edge28" class="edge"><title>2529174709536&#45;&#45;2529174710688</title>
<path fill="none" stroke="black" d="M540.469,-289.465C549.252,-277.865 561.202,-262.082 569.977,-250.492"/>
</g>
<!-- 2529174708336 -->
<g id="node32" class="node"><title>2529174708336</title>
<ellipse fill="none" stroke="black" cx="732.707" cy="-234" rx="27" ry="18"/>
<text text-anchor="middle" x="732.707" y="-230.5" font-family="Times New Roman,serif" font-size="15.00">xor</text>
</g>
<!-- 2529174709536&#45;&#45;2529174708336 -->
<g id="edge31" class="edge"><title>2529174709536&#45;&#45;2529174708336</title>
<path fill="none" stroke="black" d="M552.108,-296.97C591.354,-283.503 669.992,-256.52 709.265,-243.044"/>
</g>
<!-- 2529174709776 -->
<g id="node14" class="node"><title>2529174709776</title>
<ellipse fill="black" stroke="black" cx="372.707" cy="-162" rx="2.7" ry="2.7"/>
</g>
<!-- 2529174709008&#45;&#45;2529174709776 -->
<g id="edge10" class="edge"><title>2529174709008&#45;&#45;2529174709776</title>
<path fill="none" stroke="black" d="M457.292,-220.485C430.906,-202.553 384.426,-170.965 374.574,-164.269"/>
</g>
<!-- 2529174711216 -->
<g id="node15" class="node"><title>2529174711216</title>
<ellipse fill="none" stroke="black" cx="420.707" cy="-162" rx="27" ry="18"/>
<text text-anchor="middle" x="420.707" y="-158.5" font-family="Times New Roman,serif" font-size="15.00">seq</text>
</g>
<!-- 2529174709008&#45;&#45;2529174711216 -->
<g id="edge18" class="edge"><title>2529174709008&#45;&#45;2529174711216</title>
<path fill="none" stroke="black" d="M463.773,-217.811C454.547,-206.07 441.837,-189.893 432.618,-178.159"/>
</g>
<!-- 2529174709968 -->
<g id="node16" class="node"><title>2529174709968</title>
<ellipse fill="none" stroke="black" cx="107.707" cy="-90" rx="107.914" ry="18"/>
<text text-anchor="middle" x="107.707" y="-86.5" font-family="Times New Roman,serif" font-size="15.00">Insert Fine Notification</text>
</g>
<!-- 2529174711216&#45;&#45;2529174709968 -->
<g id="edge11" class="edge"><title>2529174711216&#45;&#45;2529174709968</title>
<path fill="none" stroke="black" d="M395.358,-155.331C346.53,-144.411 238.181,-120.18 169.282,-104.771"/>
</g>
<!-- 2529174712128 -->
<g id="node17" class="node"><title>2529174712128</title>
<ellipse fill="none" stroke="black" cx="260.707" cy="-90" rx="27" ry="18"/>
<text text-anchor="middle" x="260.707" y="-86.5" font-family="Times New Roman,serif" font-size="15.00">xor</text>
</g>
<!-- 2529174711216&#45;&#45;2529174712128 -->
<g id="edge14" class="edge"><title>2529174711216&#45;&#45;2529174712128</title>
<path fill="none" stroke="black" d="M398.795,-151.414C368.241,-138.046 313.16,-113.948 282.61,-100.583"/>
</g>
<!-- 2529174708720 -->
<g id="node20" class="node"><title>2529174708720</title>
<ellipse fill="none" stroke="black" cx="420.707" cy="-90" rx="27" ry="18"/>
<text text-anchor="middle" x="420.707" y="-86.5" font-family="Times New Roman,serif" font-size="15.00">xor</text>
</g>
<!-- 2529174711216&#45;&#45;2529174708720 -->
<g id="edge17" class="edge"><title>2529174711216&#45;&#45;2529174708720</title>
<path fill="none" stroke="black" d="M420.707,-143.697C420.707,-132.846 420.707,-118.917 420.707,-108.104"/>
</g>
<!-- 2529174708624 -->
<g id="node18" class="node"><title>2529174708624</title>
<ellipse fill="black" stroke="black" cx="133.707" cy="-18" rx="2.7" ry="2.7"/>
</g>
<!-- 2529174712128&#45;&#45;2529174708624 -->
<g id="edge12" class="edge"><title>2529174712128&#45;&#45;2529174708624</title>
<path fill="none" stroke="black" d="M240.583,-77.9083C208.41,-60.1748 147.778,-26.756 135.794,-20.1507"/>
</g>
<!-- 2529174710352 -->
<g id="node19" class="node"><title>2529174710352</title>
<ellipse fill="none" stroke="black" cx="216.707" cy="-18" rx="61.6894" ry="18"/>
<text text-anchor="middle" x="216.707" y="-14.5" font-family="Times New Roman,serif" font-size="15.00">Add penalty</text>
</g>
<!-- 2529174712128&#45;&#45;2529174710352 -->
<g id="edge13" class="edge"><title>2529174712128&#45;&#45;2529174710352</title>
<path fill="none" stroke="black" d="M250.722,-73.1159C243.724,-61.9827 234.387,-47.127 227.265,-35.7973"/>
</g>
<!-- 2529174711552 -->
<g id="node21" class="node"><title>2529174711552</title>
<ellipse fill="black" stroke="black" cx="299.707" cy="-18" rx="2.7" ry="2.7"/>
</g>
<!-- 2529174708720&#45;&#45;2529174711552 -->
<g id="edge15" class="edge"><title>2529174708720&#45;&#45;2529174711552</title>
<path fill="none" stroke="black" d="M400.997,-77.5975C370.192,-59.7767 312.979,-26.6783 301.676,-20.1391"/>
</g>
<!-- 2529174708576 -->
<g id="node22" class="node"><title>2529174708576</title>
<ellipse fill="none" stroke="black" cx="464.707" cy="-18" rx="144.571" ry="18"/>
<text text-anchor="middle" x="464.707" y="-14.5" font-family="Times New Roman,serif" font-size="15.00">Insert Date Appeal to Prefecture</text>
</g>
<!-- 2529174708720&#45;&#45;2529174708576 -->
<g id="edge16" class="edge"><title>2529174708720&#45;&#45;2529174708576</title>
<path fill="none" stroke="black" d="M430.691,-73.1159C437.588,-62.144 446.757,-47.5568 453.837,-36.2921"/>
</g>
<!-- 2529174709248 -->
<g id="node24" class="node"><title>2529174709248</title>
<ellipse fill="none" stroke="black" cx="581.707" cy="-162" rx="27" ry="18"/>
<text text-anchor="middle" x="581.707" y="-158.5" font-family="Times New Roman,serif" font-size="15.00">xor</text>
</g>
<!-- 2529174710688&#45;&#45;2529174709248 -->
<g id="edge24" class="edge"><title>2529174710688&#45;&#45;2529174709248</title>
<path fill="none" stroke="black" d="M581.707,-215.697C581.707,-204.846 581.707,-190.917 581.707,-180.104"/>
</g>
<!-- 2529174711024 -->
<g id="node29" class="node"><title>2529174711024</title>
<ellipse fill="none" stroke="black" cx="684.707" cy="-162" rx="27" ry="18"/>
<text text-anchor="middle" x="684.707" y="-158.5" font-family="Times New Roman,serif" font-size="15.00">xor</text>
</g>
<!-- 2529174710688&#45;&#45;2529174711024 -->
<g id="edge27" class="edge"><title>2529174710688&#45;&#45;2529174711024</title>
<path fill="none" stroke="black" d="M600.121,-220.485C618.869,-207.744 647.762,-188.108 666.452,-175.406"/>
</g>
<!-- 2529174711408 -->
<g id="node25" class="node"><title>2529174711408</title>
<ellipse fill="black" stroke="black" cx="566.707" cy="-90" rx="2.7" ry="2.7"/>
</g>
<!-- 2529174709248&#45;&#45;2529174711408 -->
<g id="edge20" class="edge"><title>2529174709248&#45;&#45;2529174711408</title>
<path fill="none" stroke="black" d="M578.076,-144.055C574.261,-126.252 568.606,-99.8653 567.092,-92.7963"/>
</g>
<!-- 2529173139168 -->
<g id="node26" class="node"><title>2529173139168</title>
<ellipse fill="none" stroke="black" cx="633.707" cy="-90" rx="46.6143" ry="18"/>
<text text-anchor="middle" x="633.707" y="-86.5" font-family="Times New Roman,serif" font-size="15.00">xor loop</text>
</g>
<!-- 2529174709248&#45;&#45;2529173139168 -->
<g id="edge23" class="edge"><title>2529174709248&#45;&#45;2529173139168</title>
<path fill="none" stroke="black" d="M593.247,-145.465C601.625,-134.187 612.94,-118.955 621.474,-107.467"/>
</g>
<!-- 2529173138448 -->
<g id="node27" class="node"><title>2529173138448</title>
<ellipse fill="none" stroke="black" cx="672.707" cy="-18" rx="45.7249" ry="18"/>
<text text-anchor="middle" x="672.707" y="-14.5" font-family="Times New Roman,serif" font-size="15.00">Payment</text>
</g>
<!-- 2529173139168&#45;&#45;2529173138448 -->
<g id="edge21" class="edge"><title>2529173139168&#45;&#45;2529173138448</title>
<path fill="none" stroke="black" d="M643.148,-72.055C649.279,-61.0492 657.238,-46.7636 663.353,-35.789"/>
</g>
<!-- 2529173137104 -->
<g id="node28" class="node"><title>2529173137104</title>
<ellipse fill="black" stroke="black" cx="739.707" cy="-18" rx="2.7" ry="2.7"/>
</g>
<!-- 2529173139168&#45;&#45;2529173137104 -->
<g id="edge22" class="edge"><title>2529173139168&#45;&#45;2529173137104</title>
<path fill="none" stroke="black" d="M656.187,-74.1548C683.899,-55.8544 728.498,-26.4021 737.922,-20.1783"/>
</g>
<!-- 2529173138112 -->
<g id="node30" class="node"><title>2529173138112</title>
<ellipse fill="black" stroke="black" cx="700.707" cy="-90" rx="2.7" ry="2.7"/>
</g>
<!-- 2529174711024&#45;&#45;2529173138112 -->
<g id="edge25" class="edge"><title>2529174711024&#45;&#45;2529173138112</title>
<path fill="none" stroke="black" d="M688.58,-144.055C692.649,-126.252 698.68,-99.8653 700.296,-92.7963"/>
</g>
<!-- 2529173138160 -->
<g id="node31" class="node"><title>2529173138160</title>
<ellipse fill="none" stroke="black" cx="783.707" cy="-90" rx="61.6894" ry="18"/>
<text text-anchor="middle" x="783.707" y="-86.5" font-family="Times New Roman,serif" font-size="15.00">Add penalty</text>
</g>
<!-- 2529174711024&#45;&#45;2529173138160 -->
<g id="edge26" class="edge"><title>2529174711024&#45;&#45;2529173138160</title>
<path fill="none" stroke="black" d="M702.865,-148.161C719.276,-136.557 743.496,-119.432 761.145,-106.952"/>
</g>
<!-- 2529173139264 -->
<g id="node33" class="node"><title>2529173139264</title>
<ellipse fill="black" stroke="black" cx="732.707" cy="-162" rx="2.7" ry="2.7"/>
</g>
<!-- 2529174708336&#45;&#45;2529173139264 -->
<g id="edge29" class="edge"><title>2529174708336&#45;&#45;2529173139264</title>
<path fill="none" stroke="black" d="M732.707,-215.697C732.707,-197.883 732.707,-171.769 732.707,-164.776"/>
</g>
<!-- 2529173138544 -->
<g id="node34" class="node"><title>2529173138544</title>
<ellipse fill="none" stroke="black" cx="873.707" cy="-162" rx="120.43" ry="18"/>
<text text-anchor="middle" x="873.707" y="-158.5" font-family="Times New Roman,serif" font-size="15.00">Send Appeal to Prefecture</text>
</g>
<!-- 2529174708336&#45;&#45;2529173138544 -->
<g id="edge30" class="edge"><title>2529174708336&#45;&#45;2529173138544</title>
<path fill="none" stroke="black" d="M753.816,-222.52C776.786,-211.116 813.815,-192.733 840.649,-179.412"/>
</g>
<!-- 2529174709872 -->
<g id="node36" class="node"><title>2529174709872</title>
<ellipse fill="black" stroke="black" cx="576.707" cy="-306" rx="2.7" ry="2.7"/>
</g>
<!-- 2529174711456&#45;&#45;2529174709872 -->
<g id="edge34" class="edge"><title>2529174711456&#45;&#45;2529174709872</title>
<path fill="none" stroke="black" d="M576.707,-359.697C576.707,-341.883 576.707,-315.769 576.707,-308.776"/>
</g>
<!-- 2529173135712 -->
<g id="node37" class="node"><title>2529173135712</title>
<ellipse fill="none" stroke="black" cx="718.707" cy="-306" rx="120.819" ry="18"/>
<text text-anchor="middle" x="718.707" y="-302.5" font-family="Times New Roman,serif" font-size="15.00">Send for Credit Collection</text>
</g>
<!-- 2529174711456&#45;&#45;2529173135712 -->
<g id="edge35" class="edge"><title>2529174711456&#45;&#45;2529173135712</title>
<path fill="none" stroke="black" d="M597.966,-366.52C621.099,-355.116 658.391,-336.733 685.415,-323.412"/>
</g>
</g>
</svg>
