<?xml version="1.0" encoding="UTF-8" standalone="no"?>
<!DOCTYPE svg PUBLIC "-//W3C//DTD SVG 1.1//EN"
 "http://www.w3.org/Graphics/SVG/1.1/DTD/svg11.dtd">
<!-- Generated by graphviz version 2.38.0 (20140413.2041)
 -->
<!-- Title: pt Pages: 1 -->
<svg width="1864pt" height="1412pt"
 viewBox="0.00 0.00 1864.03 1412.00" xmlns="http://www.w3.org/2000/svg" xmlns:xlink="http://www.w3.org/1999/xlink">
<g id="graph0" class="graph" transform="scale(1 1) rotate(0) translate(4 1408)">
<title>pt</title>
<!-- 2264721204800 -->
<g id="node1" class="node"><title>2264721204800</title>
<ellipse fill="none" stroke="black" cx="495.335" cy="-1386" rx="27" ry="18"/>
<text text-anchor="middle" x="495.335" y="-1382.5" font-family="Times New Roman,serif" font-size="15.00">and</text>
</g>
<!-- 2264721205136 -->
<g id="node2" class="node"><title>2264721205136</title>
<ellipse fill="none" stroke="black" cx="90.3347" cy="-1314" rx="90.1697" ry="18"/>
<text text-anchor="middle" x="90.3347" y="-1310.5" font-family="Times New Roman,serif" font-size="15.00">Drap puncture area</text>
</g>
<!-- 2264721204800&#45;&#45;2264721205136 -->
<g id="edge1" class="edge"><title>2264721204800&#45;&#45;2264721205136</title>
<path fill="none" stroke="black" d="M469.384,-1380.51C407.057,-1369.74 247.361,-1342.14 156.382,-1326.42"/>
</g>
<!-- 2264721205328 -->
<g id="node3" class="node"><title>2264721205328</title>
<ellipse fill="none" stroke="black" cx="262.335" cy="-1314" rx="63.8584" ry="18"/>
<text text-anchor="middle" x="262.335" y="-1310.5" font-family="Times New Roman,serif" font-size="15.00">Gel in probe</text>
</g>
<!-- 2264721204800&#45;&#45;2264721205328 -->
<g id="edge2" class="edge"><title>2264721204800&#45;&#45;2264721205328</title>
<path fill="none" stroke="black" d="M471.277,-1377.77C431.861,-1365.93 353.042,-1342.25 304.278,-1327.6"/>
</g>
<!-- 2264721205424 -->
<g id="node4" class="node"><title>2264721205424</title>
<ellipse fill="none" stroke="black" cx="408.335" cy="-1314" rx="63.8584" ry="18"/>
<text text-anchor="middle" x="408.335" y="-1310.5" font-family="Times New Roman,serif" font-size="15.00">Cover probe</text>
</g>
<!-- 2264721204800&#45;&#45;2264721205424 -->
<g id="edge3" class="edge"><title>2264721204800&#45;&#45;2264721205424</title>
<path fill="none" stroke="black" d="M478.56,-1371.5C464.241,-1359.98 443.613,-1343.38 428.417,-1331.16"/>
</g>
<!-- 2264721205568 -->
<g id="node5" class="node"><title>2264721205568</title>
<ellipse fill="none" stroke="black" cx="583.335" cy="-1314" rx="93.2286" ry="18"/>
<text text-anchor="middle" x="583.335" y="-1310.5" font-family="Times New Roman,serif" font-size="15.00">Clean puncture area</text>
</g>
<!-- 2264721204800&#45;&#45;2264721205568 -->
<g id="edge4" class="edge"><title>2264721204800&#45;&#45;2264721205568</title>
<path fill="none" stroke="black" d="M512.302,-1371.5C526.586,-1360.14 547.076,-1343.84 562.382,-1331.67"/>
</g>
<!-- 2264721205712 -->
<g id="node6" class="node"><title>2264721205712</title>
<ellipse fill="none" stroke="black" cx="784.335" cy="-1314" rx="89.7798" ry="18"/>
<text text-anchor="middle" x="784.335" y="-1310.5" font-family="Times New Roman,serif" font-size="15.00">Remove guidewire</text>
</g>
<!-- 2264721204800&#45;&#45;2264721205712 -->
<g id="edge5" class="edge"><title>2264721204800&#45;&#45;2264721205712</title>
<path fill="none" stroke="black" d="M520.225,-1378.97C566.502,-1367.76 666.78,-1343.47 729.592,-1328.26"/>
</g>
<!-- 2264721205856 -->
<g id="node7" class="node"><title>2264721205856</title>
<ellipse fill="none" stroke="black" cx="938.335" cy="-1314" rx="46.6143" ry="18"/>
<text text-anchor="middle" x="938.335" y="-1310.5" font-family="Times New Roman,serif" font-size="15.00">xor loop</text>
</g>
<!-- 2264721204800&#45;&#45;2264721205856 -->
<g id="edge90" class="edge"><title>2264721204800&#45;&#45;2264721205856</title>
<path fill="none" stroke="black" d="M521.392,-1380.88C595.116,-1369.23 805.677,-1335.96 896.166,-1321.66"/>
</g>
<!-- 2264721206144 -->
<g id="node8" class="node"><title>2264721206144</title>
<ellipse fill="none" stroke="black" cx="914.335" cy="-1242" rx="27" ry="18"/>
<text text-anchor="middle" x="914.335" y="-1238.5" font-family="Times New Roman,serif" font-size="15.00">seq</text>
</g>
<!-- 2264721205856&#45;&#45;2264721206144 -->
<g id="edge88" class="edge"><title>2264721205856&#45;&#45;2264721206144</title>
<path fill="none" stroke="black" d="M932.525,-1296.05C928.752,-1285.05 923.854,-1270.76 920.091,-1259.79"/>
</g>
<!-- 2264721206192 -->
<g id="node91" class="node"><title>2264721206192</title>
<ellipse fill="black" stroke="black" cx="962.335" cy="-1242" rx="2.7" ry="2.7"/>
</g>
<!-- 2264721205856&#45;&#45;2264721206192 -->
<g id="edge89" class="edge"><title>2264721205856&#45;&#45;2264721206192</title>
<path fill="none" stroke="black" d="M944.144,-1296.05C950.248,-1278.25 959.295,-1251.87 961.719,-1244.8"/>
</g>
<!-- 2264721206432 -->
<g id="node9" class="node"><title>2264721206432</title>
<ellipse fill="none" stroke="black" cx="769.335" cy="-1170" rx="27" ry="18"/>
<text text-anchor="middle" x="769.335" y="-1166.5" font-family="Times New Roman,serif" font-size="15.00">xor</text>
</g>
<!-- 2264721206144&#45;&#45;2264721206432 -->
<g id="edge8" class="edge"><title>2264721206144&#45;&#45;2264721206432</title>
<path fill="none" stroke="black" d="M892.939,-1230.67C865.525,-1217.44 818.275,-1194.63 790.818,-1181.37"/>
</g>
<!-- 2264721206624 -->
<g id="node12" class="node"><title>2264721206624</title>
<ellipse fill="none" stroke="black" cx="914.335" cy="-1170" rx="27" ry="18"/>
<text text-anchor="middle" x="914.335" y="-1166.5" font-family="Times New Roman,serif" font-size="15.00">xor</text>
</g>
<!-- 2264721206144&#45;&#45;2264721206624 -->
<g id="edge84" class="edge"><title>2264721206144&#45;&#45;2264721206624</title>
<path fill="none" stroke="black" d="M914.335,-1223.7C914.335,-1212.85 914.335,-1198.92 914.335,-1188.1"/>
</g>
<!-- 2264721207056 -->
<g id="node88" class="node"><title>2264721207056</title>
<ellipse fill="none" stroke="black" cx="1017.33" cy="-1170" rx="27" ry="18"/>
<text text-anchor="middle" x="1017.33" y="-1166.5" font-family="Times New Roman,serif" font-size="15.00">xor</text>
</g>
<!-- 2264721206144&#45;&#45;2264721207056 -->
<g id="edge87" class="edge"><title>2264721206144&#45;&#45;2264721207056</title>
<path fill="none" stroke="black" d="M932.749,-1228.49C951.497,-1215.74 980.39,-1196.11 999.08,-1183.41"/>
</g>
<!-- 2264721206720 -->
<g id="node10" class="node"><title>2264721206720</title>
<ellipse fill="none" stroke="black" cx="588.335" cy="-1098" rx="70.3667" ry="18"/>
<text text-anchor="middle" x="588.335" y="-1094.5" font-family="Times New Roman,serif" font-size="15.00">Hand washing</text>
</g>
<!-- 2264721206432&#45;&#45;2264721206720 -->
<g id="edge6" class="edge"><title>2264721206432&#45;&#45;2264721206720</title>
<path fill="none" stroke="black" d="M746.411,-1160.13C715.971,-1148.36 661.832,-1127.42 625.509,-1113.38"/>
</g>
<!-- 2264721206864 -->
<g id="node11" class="node"><title>2264721206864</title>
<ellipse fill="none" stroke="black" cx="769.335" cy="-1098" rx="93.2286" ry="18"/>
<text text-anchor="middle" x="769.335" y="-1094.5" font-family="Times New Roman,serif" font-size="15.00">Prepare implements</text>
</g>
<!-- 2264721206432&#45;&#45;2264721206864 -->
<g id="edge7" class="edge"><title>2264721206432&#45;&#45;2264721206864</title>
<path fill="none" stroke="black" d="M769.335,-1151.7C769.335,-1140.85 769.335,-1126.92 769.335,-1116.1"/>
</g>
<!-- 2264721207152 -->
<g id="node13" class="node"><title>2264721207152</title>
<ellipse fill="black" stroke="black" cx="883.335" cy="-1098" rx="2.7" ry="2.7"/>
</g>
<!-- 2264721206624&#45;&#45;2264721207152 -->
<g id="edge9" class="edge"><title>2264721206624&#45;&#45;2264721207152</title>
<path fill="none" stroke="black" d="M906.988,-1152.41C899.11,-1134.62 887.304,-1107.96 884.139,-1100.82"/>
</g>
<!-- 2264721010752 -->
<g id="node14" class="node"><title>2264721010752</title>
<ellipse fill="none" stroke="black" cx="950.335" cy="-1098" rx="46.6143" ry="18"/>
<text text-anchor="middle" x="950.335" y="-1094.5" font-family="Times New Roman,serif" font-size="15.00">xor loop</text>
</g>
<!-- 2264721206624&#45;&#45;2264721010752 -->
<g id="edge83" class="edge"><title>2264721206624&#45;&#45;2264721010752</title>
<path fill="none" stroke="black" d="M922.684,-1152.76C928.334,-1141.78 935.785,-1127.29 941.528,-1116.12"/>
</g>
<!-- 2264721010992 -->
<g id="node15" class="node"><title>2264721010992</title>
<ellipse fill="none" stroke="black" cx="926.335" cy="-1026" rx="27" ry="18"/>
<text text-anchor="middle" x="926.335" y="-1022.5" font-family="Times New Roman,serif" font-size="15.00">seq</text>
</g>
<!-- 2264721010752&#45;&#45;2264721010992 -->
<g id="edge81" class="edge"><title>2264721010752&#45;&#45;2264721010992</title>
<path fill="none" stroke="black" d="M944.525,-1080.05C940.752,-1069.05 935.854,-1054.76 932.091,-1043.79"/>
</g>
<!-- 2264721011088 -->
<g id="node87" class="node"><title>2264721011088</title>
<ellipse fill="black" stroke="black" cx="974.335" cy="-1026" rx="2.7" ry="2.7"/>
</g>
<!-- 2264721010752&#45;&#45;2264721011088 -->
<g id="edge82" class="edge"><title>2264721010752&#45;&#45;2264721011088</title>
<path fill="none" stroke="black" d="M956.144,-1080.05C962.248,-1062.25 971.295,-1035.87 973.719,-1028.8"/>
</g>
<!-- 2264721011232 -->
<g id="node16" class="node"><title>2264721011232</title>
<ellipse fill="none" stroke="black" cx="800.335" cy="-954" rx="27" ry="18"/>
<text text-anchor="middle" x="800.335" y="-950.5" font-family="Times New Roman,serif" font-size="15.00">xor</text>
</g>
<!-- 2264721010992&#45;&#45;2264721011232 -->
<g id="edge12" class="edge"><title>2264721010992&#45;&#45;2264721011232</title>
<path fill="none" stroke="black" d="M906.091,-1013.75C882.578,-1000.69 844.02,-979.27 820.529,-966.219"/>
</g>
<!-- 2264721011376 -->
<g id="node19" class="node"><title>2264721011376</title>
<ellipse fill="none" stroke="black" cx="926.335" cy="-954" rx="27" ry="18"/>
<text text-anchor="middle" x="926.335" y="-950.5" font-family="Times New Roman,serif" font-size="15.00">xor</text>
</g>
<!-- 2264721010992&#45;&#45;2264721011376 -->
<g id="edge72" class="edge"><title>2264721010992&#45;&#45;2264721011376</title>
<path fill="none" stroke="black" d="M926.335,-1007.7C926.335,-996.846 926.335,-982.917 926.335,-972.104"/>
</g>
<!-- 2264721011808 -->
<g id="node79" class="node"><title>2264721011808</title>
<ellipse fill="none" stroke="black" cx="1051.33" cy="-954" rx="27" ry="18"/>
<text text-anchor="middle" x="1051.33" y="-950.5" font-family="Times New Roman,serif" font-size="15.00">xor</text>
</g>
<!-- 2264721010992&#45;&#45;2264721011808 -->
<g id="edge80" class="edge"><title>2264721010992&#45;&#45;2264721011808</title>
<path fill="none" stroke="black" d="M946.418,-1013.75C969.744,-1000.69 1008,-979.27 1031.3,-966.219"/>
</g>
<!-- 2264721011472 -->
<g id="node17" class="node"><title>2264721011472</title>
<ellipse fill="black" stroke="black" cx="707.335" cy="-882" rx="2.7" ry="2.7"/>
</g>
<!-- 2264721011232&#45;&#45;2264721011472 -->
<g id="edge10" class="edge"><title>2264721011232&#45;&#45;2264721011472</title>
<path fill="none" stroke="black" d="M782.842,-939.834C758.849,-921.774 717.7,-890.802 708.986,-884.243"/>
</g>
<!-- 2264721011616 -->
<g id="node18" class="node"><title>2264721011616</title>
<ellipse fill="none" stroke="black" cx="800.335" cy="-882" rx="72.0363" ry="18"/>
<text text-anchor="middle" x="800.335" y="-878.5" font-family="Times New Roman,serif" font-size="15.00">Position probe</text>
</g>
<!-- 2264721011232&#45;&#45;2264721011616 -->
<g id="edge11" class="edge"><title>2264721011232&#45;&#45;2264721011616</title>
<path fill="none" stroke="black" d="M800.335,-935.697C800.335,-924.846 800.335,-910.917 800.335,-900.104"/>
</g>
<!-- 2264721011904 -->
<g id="node20" class="node"><title>2264721011904</title>
<ellipse fill="black" stroke="black" cx="893.335" cy="-882" rx="2.7" ry="2.7"/>
</g>
<!-- 2264721011376&#45;&#45;2264721011904 -->
<g id="edge13" class="edge"><title>2264721011376&#45;&#45;2264721011904</title>
<path fill="none" stroke="black" d="M918.514,-936.411C910.128,-918.622 897.56,-891.962 894.191,-884.816"/>
</g>
<!-- 2264721012048 -->
<g id="node21" class="node"><title>2264721012048</title>
<ellipse fill="none" stroke="black" cx="960.335" cy="-882" rx="46.6143" ry="18"/>
<text text-anchor="middle" x="960.335" y="-878.5" font-family="Times New Roman,serif" font-size="15.00">xor loop</text>
</g>
<!-- 2264721011376&#45;&#45;2264721012048 -->
<g id="edge71" class="edge"><title>2264721011376&#45;&#45;2264721012048</title>
<path fill="none" stroke="black" d="M934.22,-936.765C939.556,-925.779 946.593,-911.292 952.017,-900.124"/>
</g>
<!-- 2264721012288 -->
<g id="node22" class="node"><title>2264721012288</title>
<ellipse fill="none" stroke="black" cx="920.335" cy="-810" rx="27" ry="18"/>
<text text-anchor="middle" x="920.335" y="-806.5" font-family="Times New Roman,serif" font-size="15.00">xor</text>
</g>
<!-- 2264721012048&#45;&#45;2264721012288 -->
<g id="edge69" class="edge"><title>2264721012048&#45;&#45;2264721012288</title>
<path fill="none" stroke="black" d="M950.652,-864.055C944.27,-852.887 935.959,-838.343 929.653,-827.307"/>
</g>
<!-- 2264721012432 -->
<g id="node78" class="node"><title>2264721012432</title>
<ellipse fill="black" stroke="black" cx="968.335" cy="-810" rx="2.7" ry="2.7"/>
</g>
<!-- 2264721012048&#45;&#45;2264721012432 -->
<g id="edge70" class="edge"><title>2264721012048&#45;&#45;2264721012432</title>
<path fill="none" stroke="black" d="M962.312,-863.697C964.348,-845.883 967.333,-819.769 968.132,-812.776"/>
</g>
<!-- 2264721012528 -->
<g id="node23" class="node"><title>2264721012528</title>
<ellipse fill="none" stroke="black" cx="888.335" cy="-738" rx="68.1971" ry="18"/>
<text text-anchor="middle" x="888.335" y="-734.5" font-family="Times New Roman,serif" font-size="15.00">Put sterile gel</text>
</g>
<!-- 2264721012288&#45;&#45;2264721012528 -->
<g id="edge14" class="edge"><title>2264721012288&#45;&#45;2264721012528</title>
<path fill="none" stroke="black" d="M912.751,-792.411C907.724,-781.414 901.147,-767.027 896.086,-755.956"/>
</g>
<!-- 2264721012672 -->
<g id="node24" class="node"><title>2264721012672</title>
<ellipse fill="none" stroke="black" cx="1001.33" cy="-738" rx="27" ry="18"/>
<text text-anchor="middle" x="1001.33" y="-734.5" font-family="Times New Roman,serif" font-size="15.00">seq</text>
</g>
<!-- 2264721012288&#45;&#45;2264721012672 -->
<g id="edge68" class="edge"><title>2264721012288&#45;&#45;2264721012672</title>
<path fill="none" stroke="black" d="M936.338,-795.17C950.538,-782.898 971.175,-765.064 985.365,-752.801"/>
</g>
<!-- 2264721012912 -->
<g id="node25" class="node"><title>2264721012912</title>
<ellipse fill="none" stroke="black" cx="696.335" cy="-666" rx="27" ry="18"/>
<text text-anchor="middle" x="696.335" y="-662.5" font-family="Times New Roman,serif" font-size="15.00">xor</text>
</g>
<!-- 2264721012672&#45;&#45;2264721012912 -->
<g id="edge17" class="edge"><title>2264721012672&#45;&#45;2264721012912</title>
<path fill="none" stroke="black" d="M976.116,-731.212C918.741,-718.044 778.986,-685.969 721.583,-672.795"/>
</g>
<!-- 2264721013056 -->
<g id="node28" class="node"><title>2264721013056</title>
<ellipse fill="none" stroke="black" cx="945.335" cy="-666" rx="27" ry="18"/>
<text text-anchor="middle" x="945.335" y="-662.5" font-family="Times New Roman,serif" font-size="15.00">xor</text>
</g>
<!-- 2264721012672&#45;&#45;2264721013056 -->
<g id="edge61" class="edge"><title>2264721012672&#45;&#45;2264721013056</title>
<path fill="none" stroke="black" d="M989.184,-721.811C979.79,-710.07 966.849,-693.893 957.462,-682.159"/>
</g>
<!-- 2264721013440 -->
<g id="node72" class="node"><title>2264721013440</title>
<ellipse fill="none" stroke="black" cx="1057.33" cy="-666" rx="27" ry="18"/>
<text text-anchor="middle" x="1057.33" y="-662.5" font-family="Times New Roman,serif" font-size="15.00">xor</text>
</g>
<!-- 2264721012672&#45;&#45;2264721013440 -->
<g id="edge64" class="edge"><title>2264721012672&#45;&#45;2264721013440</title>
<path fill="none" stroke="black" d="M1013.49,-721.811C1022.88,-710.07 1035.82,-693.893 1045.21,-682.159"/>
</g>
<!-- 2264721014016 -->
<g id="node75" class="node"><title>2264721014016</title>
<ellipse fill="none" stroke="black" cx="1345.33" cy="-666" rx="27" ry="18"/>
<text text-anchor="middle" x="1345.33" y="-662.5" font-family="Times New Roman,serif" font-size="15.00">xor</text>
</g>
<!-- 2264721012672&#45;&#45;2264721014016 -->
<g id="edge67" class="edge"><title>2264721012672&#45;&#45;2264721014016</title>
<path fill="none" stroke="black" d="M1026.91,-731.796C1090.59,-718.837 1255.73,-685.234 1319.59,-672.238"/>
</g>
<!-- 2264721013152 -->
<g id="node26" class="node"><title>2264721013152</title>
<ellipse fill="black" stroke="black" cx="567.335" cy="-594" rx="2.7" ry="2.7"/>
</g>
<!-- 2264721012912&#45;&#45;2264721013152 -->
<g id="edge15" class="edge"><title>2264721012912&#45;&#45;2264721013152</title>
<path fill="none" stroke="black" d="M675.894,-653.908C643.214,-636.175 581.628,-602.756 569.455,-596.151"/>
</g>
<!-- 2264721013296 -->
<g id="node27" class="node"><title>2264721013296</title>
<ellipse fill="none" stroke="black" cx="696.335" cy="-594" rx="108.303" ry="18"/>
<text text-anchor="middle" x="696.335" y="-590.5" font-family="Times New Roman,serif" font-size="15.00">Anatomic identification</text>
</g>
<!-- 2264721012912&#45;&#45;2264721013296 -->
<g id="edge16" class="edge"><title>2264721012912&#45;&#45;2264721013296</title>
<path fill="none" stroke="black" d="M696.335,-647.697C696.335,-636.846 696.335,-622.917 696.335,-612.104"/>
</g>
<!-- 2264721013584 -->
<g id="node29" class="node"><title>2264721013584</title>
<ellipse fill="black" stroke="black" cx="825.335" cy="-594" rx="2.7" ry="2.7"/>
</g>
<!-- 2264721013056&#45;&#45;2264721013584 -->
<g id="edge18" class="edge"><title>2264721013056&#45;&#45;2264721013584</title>
<path fill="none" stroke="black" d="M925.519,-653.441C894.897,-635.578 838.431,-602.64 827.277,-596.133"/>
</g>
<!-- 2264721013728 -->
<g id="node30" class="node"><title>2264721013728</title>
<ellipse fill="none" stroke="black" cx="905.335" cy="-594" rx="59.1301" ry="18"/>
<text text-anchor="middle" x="905.335" y="-590.5" font-family="Times New Roman,serif" font-size="15.00">Anesthetize</text>
</g>
<!-- 2264721013056&#45;&#45;2264721013728 -->
<g id="edge19" class="edge"><title>2264721013056&#45;&#45;2264721013728</title>
<path fill="none" stroke="black" d="M936.057,-648.765C929.78,-637.779 921.501,-623.292 915.12,-612.124"/>
</g>
<!-- 2264721013872 -->
<g id="node31" class="node"><title>2264721013872</title>
<ellipse fill="none" stroke="black" cx="1009.33" cy="-594" rx="27" ry="18"/>
<text text-anchor="middle" x="1009.33" y="-590.5" font-family="Times New Roman,serif" font-size="15.00">seq</text>
</g>
<!-- 2264721013056&#45;&#45;2264721013872 -->
<g id="edge60" class="edge"><title>2264721013056&#45;&#45;2264721013872</title>
<path fill="none" stroke="black" d="M958.907,-650.155C969.768,-638.276 984.926,-621.697 995.782,-609.824"/>
</g>
<!-- 2264721014112 -->
<g id="node32" class="node"><title>2264721014112</title>
<ellipse fill="none" stroke="black" cx="974.335" cy="-522" rx="46.6143" ry="18"/>
<text text-anchor="middle" x="974.335" y="-518.5" font-family="Times New Roman,serif" font-size="15.00">xor loop</text>
</g>
<!-- 2264721013872&#45;&#45;2264721014112 -->
<g id="edge34" class="edge"><title>2264721013872&#45;&#45;2264721014112</title>
<path fill="none" stroke="black" d="M1001.22,-576.765C995.724,-565.779 988.481,-551.292 982.897,-540.124"/>
</g>
<!-- 2264721014256 -->
<g id="node47" class="node"><title>2264721014256</title>
<ellipse fill="none" stroke="black" cx="1067.33" cy="-522" rx="27" ry="18"/>
<text text-anchor="middle" x="1067.33" y="-518.5" font-family="Times New Roman,serif" font-size="15.00">xor</text>
</g>
<!-- 2264721013872&#45;&#45;2264721014256 -->
<g id="edge59" class="edge"><title>2264721013872&#45;&#45;2264721014256</title>
<path fill="none" stroke="black" d="M1021.92,-577.811C1031.65,-566.07 1045.05,-549.893 1054.77,-538.159"/>
</g>
<!-- 2264721014352 -->
<g id="node33" class="node"><title>2264721014352</title>
<ellipse fill="none" stroke="black" cx="914.335" cy="-450" rx="27" ry="18"/>
<text text-anchor="middle" x="914.335" y="-446.5" font-family="Times New Roman,serif" font-size="15.00">seq</text>
</g>
<!-- 2264721014112&#45;&#45;2264721014352 -->
<g id="edge32" class="edge"><title>2264721014112&#45;&#45;2264721014352</title>
<path fill="none" stroke="black" d="M960.419,-504.765C950.449,-493.133 937.114,-477.575 927.354,-466.189"/>
</g>
<!-- 2264721014496 -->
<g id="node46" class="node"><title>2264721014496</title>
<ellipse fill="black" stroke="black" cx="974.335" cy="-450" rx="2.7" ry="2.7"/>
</g>
<!-- 2264721014112&#45;&#45;2264721014496 -->
<g id="edge33" class="edge"><title>2264721014112&#45;&#45;2264721014496</title>
<path fill="none" stroke="black" d="M974.335,-503.697C974.335,-485.883 974.335,-459.769 974.335,-452.776"/>
</g>
<!-- 2264721014592 -->
<g id="node34" class="node"><title>2264721014592</title>
<ellipse fill="none" stroke="black" cx="839.335" cy="-378" rx="27" ry="18"/>
<text text-anchor="middle" x="839.335" y="-374.5" font-family="Times New Roman,serif" font-size="15.00">xor</text>
</g>
<!-- 2264721014352&#45;&#45;2264721014592 -->
<g id="edge22" class="edge"><title>2264721014352&#45;&#45;2264721014592</title>
<path fill="none" stroke="black" d="M899.157,-434.834C886.145,-422.69 867.495,-405.283 854.489,-393.144"/>
</g>
<!-- 2264721014736 -->
<g id="node37" class="node"><title>2264721014736</title>
<ellipse fill="none" stroke="black" cx="914.335" cy="-378" rx="27" ry="18"/>
<text text-anchor="middle" x="914.335" y="-374.5" font-family="Times New Roman,serif" font-size="15.00">xor</text>
</g>
<!-- 2264721014352&#45;&#45;2264721014736 -->
<g id="edge31" class="edge"><title>2264721014352&#45;&#45;2264721014736</title>
<path fill="none" stroke="black" d="M914.335,-431.697C914.335,-420.846 914.335,-406.917 914.335,-396.104"/>
</g>
<!-- 2264721145968 -->
<g id="node35" class="node"><title>2264721145968</title>
<ellipse fill="none" stroke="black" cx="660.335" cy="-306" rx="113.032" ry="18"/>
<text text-anchor="middle" x="660.335" y="-302.5" font-family="Times New Roman,serif" font-size="15.00">Ultrasound configuration</text>
</g>
<!-- 2264721014592&#45;&#45;2264721145968 -->
<g id="edge20" class="edge"><title>2264721014592&#45;&#45;2264721145968</title>
<path fill="none" stroke="black" d="M816.664,-368.134C787.595,-356.767 736.673,-336.853 700.863,-322.849"/>
</g>
<!-- 2264721146112 -->
<g id="node36" class="node"><title>2264721146112</title>
<ellipse fill="none" stroke="black" cx="839.335" cy="-306" rx="47.0053" ry="18"/>
<text text-anchor="middle" x="839.335" y="-302.5" font-family="Times New Roman,serif" font-size="15.00">Puncture</text>
</g>
<!-- 2264721014592&#45;&#45;2264721146112 -->
<g id="edge21" class="edge"><title>2264721014592&#45;&#45;2264721146112</title>
<path fill="none" stroke="black" d="M839.335,-359.697C839.335,-348.846 839.335,-334.917 839.335,-324.104"/>
</g>
<!-- 2264721146400 -->
<g id="node38" class="node"><title>2264721146400</title>
<ellipse fill="black" stroke="black" cx="907.335" cy="-306" rx="2.7" ry="2.7"/>
</g>
<!-- 2264721014736&#45;&#45;2264721146400 -->
<g id="edge23" class="edge"><title>2264721014736&#45;&#45;2264721146400</title>
<path fill="none" stroke="black" d="M912.604,-359.697C910.823,-341.883 908.212,-315.769 907.512,-308.776"/>
</g>
<!-- 2264721146544 -->
<g id="node39" class="node"><title>2264721146544</title>
<ellipse fill="none" stroke="black" cx="955.335" cy="-306" rx="27" ry="18"/>
<text text-anchor="middle" x="955.335" y="-302.5" font-family="Times New Roman,serif" font-size="15.00">and</text>
</g>
<!-- 2264721014736&#45;&#45;2264721146544 -->
<g id="edge30" class="edge"><title>2264721014736&#45;&#45;2264721146544</title>
<path fill="none" stroke="black" d="M923.844,-360.765C930.468,-349.456 939.265,-334.437 945.877,-323.147"/>
</g>
<!-- 2264721146784 -->
<g id="node40" class="node"><title>2264721146784</title>
<ellipse fill="none" stroke="black" cx="619.335" cy="-234" rx="59.5207" ry="18"/>
<text text-anchor="middle" x="619.335" y="-230.5" font-family="Times New Roman,serif" font-size="15.00">Drop probe</text>
</g>
<!-- 2264721146544&#45;&#45;2264721146784 -->
<g id="edge24" class="edge"><title>2264721146544&#45;&#45;2264721146784</title>
<path fill="none" stroke="black" d="M929.804,-299.681C873.753,-288.004 739.187,-259.969 667,-244.93"/>
</g>
<!-- 2264721146928 -->
<g id="node41" class="node"><title>2264721146928</title>
<ellipse fill="none" stroke="black" cx="775.335" cy="-234" rx="77.654" ry="18"/>
<text text-anchor="middle" x="775.335" y="-230.5" font-family="Times New Roman,serif" font-size="15.00">Remove syringe</text>
</g>
<!-- 2264721146544&#45;&#45;2264721146928 -->
<g id="edge25" class="edge"><title>2264721146544&#45;&#45;2264721146928</title>
<path fill="none" stroke="black" d="M932.538,-296.134C902.549,-284.472 849.433,-263.816 813.324,-249.774"/>
</g>
<!-- 2264721147072 -->
<g id="node42" class="node"><title>2264721147072</title>
<ellipse fill="none" stroke="black" cx="955.335" cy="-234" rx="84.1616" ry="18"/>
<text text-anchor="middle" x="955.335" y="-230.5" font-family="Times New Roman,serif" font-size="15.00">Guidewire install</text>
</g>
<!-- 2264721146544&#45;&#45;2264721147072 -->
<g id="edge26" class="edge"><title>2264721146544&#45;&#45;2264721147072</title>
<path fill="none" stroke="black" d="M955.335,-287.697C955.335,-276.846 955.335,-262.917 955.335,-252.104"/>
</g>
<!-- 2264721147216 -->
<g id="node43" class="node"><title>2264721147216</title>
<ellipse fill="none" stroke="black" cx="1104.33" cy="-234" rx="46.6143" ry="18"/>
<text text-anchor="middle" x="1104.33" y="-230.5" font-family="Times New Roman,serif" font-size="15.00">xor loop</text>
</g>
<!-- 2264721146544&#45;&#45;2264721147216 -->
<g id="edge29" class="edge"><title>2264721146544&#45;&#45;2264721147216</title>
<path fill="none" stroke="black" d="M976.683,-294.971C1002.75,-282.722 1046.95,-261.96 1075.89,-248.365"/>
</g>
<!-- 2264721147456 -->
<g id="node44" class="node"><title>2264721147456</title>
<ellipse fill="none" stroke="black" cx="1019.33" cy="-162" rx="63.8584" ry="18"/>
<text text-anchor="middle" x="1019.33" y="-158.5" font-family="Times New Roman,serif" font-size="15.00">Blood return</text>
</g>
<!-- 2264721147216&#45;&#45;2264721147456 -->
<g id="edge27" class="edge"><title>2264721147216&#45;&#45;2264721147456</title>
<path fill="none" stroke="black" d="M1085.47,-217.465C1071.68,-206.106 1053.02,-190.737 1039.03,-179.222"/>
</g>
<!-- 2264721147600 -->
<g id="node45" class="node"><title>2264721147600</title>
<ellipse fill="black" stroke="black" cx="1104.33" cy="-162" rx="2.7" ry="2.7"/>
</g>
<!-- 2264721147216&#45;&#45;2264721147600 -->
<g id="edge28" class="edge"><title>2264721147216&#45;&#45;2264721147600</title>
<path fill="none" stroke="black" d="M1104.33,-215.697C1104.33,-197.883 1104.33,-171.769 1104.33,-164.776"/>
</g>
<!-- 2264721147360 -->
<g id="node48" class="node"><title>2264721147360</title>
<ellipse fill="black" stroke="black" cx="1067.33" cy="-450" rx="2.7" ry="2.7"/>
</g>
<!-- 2264721014256&#45;&#45;2264721147360 -->
<g id="edge35" class="edge"><title>2264721014256&#45;&#45;2264721147360</title>
<path fill="none" stroke="black" d="M1067.33,-503.697C1067.33,-485.883 1067.33,-459.769 1067.33,-452.776"/>
</g>
<!-- 2264721147792 -->
<g id="node49" class="node"><title>2264721147792</title>
<ellipse fill="none" stroke="black" cx="1121.33" cy="-450" rx="27" ry="18"/>
<text text-anchor="middle" x="1121.33" y="-446.5" font-family="Times New Roman,serif" font-size="15.00">and</text>
</g>
<!-- 2264721014256&#45;&#45;2264721147792 -->
<g id="edge58" class="edge"><title>2264721014256&#45;&#45;2264721147792</title>
<path fill="none" stroke="black" d="M1079.32,-505.465C1088.27,-493.865 1100.44,-478.082 1109.38,-466.492"/>
</g>
<!-- 2264721148032 -->
<g id="node50" class="node"><title>2264721148032</title>
<ellipse fill="none" stroke="black" cx="1121.33" cy="-378" rx="72.0363" ry="18"/>
<text text-anchor="middle" x="1121.33" y="-374.5" font-family="Times New Roman,serif" font-size="15.00">Remove trocar</text>
</g>
<!-- 2264721147792&#45;&#45;2264721148032 -->
<g id="edge36" class="edge"><title>2264721147792&#45;&#45;2264721148032</title>
<path fill="none" stroke="black" d="M1121.33,-431.697C1121.33,-420.846 1121.33,-406.917 1121.33,-396.104"/>
</g>
<!-- 2264721148176 -->
<g id="node51" class="node"><title>2264721148176</title>
<ellipse fill="none" stroke="black" cx="1259.33" cy="-378" rx="46.6143" ry="18"/>
<text text-anchor="middle" x="1259.33" y="-374.5" font-family="Times New Roman,serif" font-size="15.00">xor loop</text>
</g>
<!-- 2264721147792&#45;&#45;2264721148176 -->
<g id="edge57" class="edge"><title>2264721147792&#45;&#45;2264721148176</title>
<path fill="none" stroke="black" d="M1142.29,-438.369C1166.27,-426.206 1205.61,-406.25 1231.99,-392.873"/>
</g>
<!-- 2264721148416 -->
<g id="node52" class="node"><title>2264721148416</title>
<ellipse fill="none" stroke="black" cx="1259.33" cy="-306" rx="27" ry="18"/>
<text text-anchor="middle" x="1259.33" y="-302.5" font-family="Times New Roman,serif" font-size="15.00">seq</text>
</g>
<!-- 2264721148176&#45;&#45;2264721148416 -->
<g id="edge55" class="edge"><title>2264721148176&#45;&#45;2264721148416</title>
<path fill="none" stroke="black" d="M1259.33,-359.697C1259.33,-348.846 1259.33,-334.917 1259.33,-324.104"/>
</g>
<!-- 2264721148560 -->
<g id="node71" class="node"><title>2264721148560</title>
<ellipse fill="black" stroke="black" cx="1307.33" cy="-306" rx="2.7" ry="2.7"/>
</g>
<!-- 2264721148176&#45;&#45;2264721148560 -->
<g id="edge56" class="edge"><title>2264721148176&#45;&#45;2264721148560</title>
<path fill="none" stroke="black" d="M1270.71,-360.411C1282.91,-342.622 1301.19,-315.962 1306.09,-308.816"/>
</g>
<!-- 2264721148656 -->
<g id="node53" class="node"><title>2264721148656</title>
<ellipse fill="none" stroke="black" cx="1259.33" cy="-234" rx="27" ry="18"/>
<text text-anchor="middle" x="1259.33" y="-230.5" font-family="Times New Roman,serif" font-size="15.00">xor</text>
</g>
<!-- 2264721148416&#45;&#45;2264721148656 -->
<g id="edge39" class="edge"><title>2264721148416&#45;&#45;2264721148656</title>
<path fill="none" stroke="black" d="M1259.33,-287.697C1259.33,-276.846 1259.33,-262.917 1259.33,-252.104"/>
</g>
<!-- 2264721148800 -->
<g id="node56" class="node"><title>2264721148800</title>
<ellipse fill="none" stroke="black" cx="1417.33" cy="-234" rx="46.6143" ry="18"/>
<text text-anchor="middle" x="1417.33" y="-230.5" font-family="Times New Roman,serif" font-size="15.00">xor loop</text>
</g>
<!-- 2264721148416&#45;&#45;2264721148800 -->
<g id="edge54" class="edge"><title>2264721148416&#45;&#45;2264721148800</title>
<path fill="none" stroke="black" d="M1281.3,-295.267C1309.03,-282.983 1356.83,-261.807 1387.75,-248.107"/>
</g>
<!-- 2264721148896 -->
<g id="node54" class="node"><title>2264721148896</title>
<ellipse fill="black" stroke="black" cx="1127.33" cy="-162" rx="2.7" ry="2.7"/>
</g>
<!-- 2264721148656&#45;&#45;2264721148896 -->
<g id="edge37" class="edge"><title>2264721148656&#45;&#45;2264721148896</title>
<path fill="none" stroke="black" d="M1238.71,-222.063C1205.07,-204.221 1140.93,-170.21 1129.2,-163.99"/>
</g>
<!-- 2264721149040 -->
<g id="node55" class="node"><title>2264721149040</title>
<ellipse fill="none" stroke="black" cx="1260.33" cy="-162" rx="111.752" ry="18"/>
<text text-anchor="middle" x="1260.33" y="-158.5" font-family="Times New Roman,serif" font-size="15.00">Check wire in short axis</text>
</g>
<!-- 2264721148656&#45;&#45;2264721149040 -->
<g id="edge38" class="edge"><title>2264721148656&#45;&#45;2264721149040</title>
<path fill="none" stroke="black" d="M1259.58,-215.697C1259.74,-204.846 1259.94,-190.917 1260.09,-180.104"/>
</g>
<!-- 2264721149328 -->
<g id="node57" class="node"><title>2264721149328</title>
<ellipse fill="none" stroke="black" cx="1417.33" cy="-162" rx="27" ry="18"/>
<text text-anchor="middle" x="1417.33" y="-158.5" font-family="Times New Roman,serif" font-size="15.00">seq</text>
</g>
<!-- 2264721148800&#45;&#45;2264721149328 -->
<g id="edge52" class="edge"><title>2264721148800&#45;&#45;2264721149328</title>
<path fill="none" stroke="black" d="M1417.33,-215.697C1417.33,-204.846 1417.33,-190.917 1417.33,-180.104"/>
</g>
<!-- 2264721149472 -->
<g id="node70" class="node"><title>2264721149472</title>
<ellipse fill="black" stroke="black" cx="1465.33" cy="-162" rx="2.7" ry="2.7"/>
</g>
<!-- 2264721148800&#45;&#45;2264721149472 -->
<g id="edge53" class="edge"><title>2264721148800&#45;&#45;2264721149472</title>
<path fill="none" stroke="black" d="M1428.71,-216.411C1440.91,-198.622 1459.19,-171.962 1464.09,-164.816"/>
</g>
<!-- 2264721149568 -->
<g id="node58" class="node"><title>2264721149568</title>
<ellipse fill="none" stroke="black" cx="1104.33" cy="-90" rx="27" ry="18"/>
<text text-anchor="middle" x="1104.33" y="-86.5" font-family="Times New Roman,serif" font-size="15.00">xor</text>
</g>
<!-- 2264721149328&#45;&#45;2264721149568 -->
<g id="edge42" class="edge"><title>2264721149328&#45;&#45;2264721149568</title>
<path fill="none" stroke="black" d="M1391.99,-155.331C1333.19,-142.181 1188.08,-109.73 1129.48,-96.6243"/>
</g>
<!-- 2264721149712 -->
<g id="node61" class="node"><title>2264721149712</title>
<ellipse fill="none" stroke="black" cx="1356.33" cy="-90" rx="27" ry="18"/>
<text text-anchor="middle" x="1356.33" y="-86.5" font-family="Times New Roman,serif" font-size="15.00">xor</text>
</g>
<!-- 2264721149328&#45;&#45;2264721149712 -->
<g id="edge45" class="edge"><title>2264721149328&#45;&#45;2264721149712</title>
<path fill="none" stroke="black" d="M1404.4,-146.155C1394.05,-134.276 1379.6,-117.697 1369.25,-105.824"/>
</g>
<!-- 2264721158400 -->
<g id="node64" class="node"><title>2264721158400</title>
<ellipse fill="none" stroke="black" cx="1478.33" cy="-90" rx="27" ry="18"/>
<text text-anchor="middle" x="1478.33" y="-86.5" font-family="Times New Roman,serif" font-size="15.00">xor</text>
</g>
<!-- 2264721149328&#45;&#45;2264721158400 -->
<g id="edge48" class="edge"><title>2264721149328&#45;&#45;2264721158400</title>
<path fill="none" stroke="black" d="M1430.27,-146.155C1440.62,-134.276 1455.07,-117.697 1465.42,-105.824"/>
</g>
<!-- 2264721158832 -->
<g id="node67" class="node"><title>2264721158832</title>
<ellipse fill="none" stroke="black" cx="1670.33" cy="-90" rx="27" ry="18"/>
<text text-anchor="middle" x="1670.33" y="-86.5" font-family="Times New Roman,serif" font-size="15.00">xor</text>
</g>
<!-- 2264721149328&#45;&#45;2264721158832 -->
<g id="edge51" class="edge"><title>2264721149328&#45;&#45;2264721158832</title>
<path fill="none" stroke="black" d="M1442.05,-154.161C1490.55,-140.744 1597.62,-111.12 1645.89,-97.7641"/>
</g>
<!-- 2264721149808 -->
<g id="node59" class="node"><title>2264721149808</title>
<ellipse fill="black" stroke="black" cx="974.335" cy="-18" rx="2.7" ry="2.7"/>
</g>
<!-- 2264721149568&#45;&#45;2264721149808 -->
<g id="edge40" class="edge"><title>2264721149568&#45;&#45;2264721149808</title>
<path fill="none" stroke="black" d="M1084.02,-78.0625C1050.89,-60.2207 987.724,-26.2098 976.172,-19.9895"/>
</g>
<!-- 2264721158208 -->
<g id="node60" class="node"><title>2264721158208</title>
<ellipse fill="none" stroke="black" cx="1104.33" cy="-18" rx="109.193" ry="18"/>
<text text-anchor="middle" x="1104.33" y="-14.5" font-family="Times New Roman,serif" font-size="15.00">Check wire in long axis</text>
</g>
<!-- 2264721149568&#45;&#45;2264721158208 -->
<g id="edge41" class="edge"><title>2264721149568&#45;&#45;2264721158208</title>
<path fill="none" stroke="black" d="M1104.33,-71.6966C1104.33,-60.8463 1104.33,-46.9167 1104.33,-36.1043"/>
</g>
<!-- 2264721158496 -->
<g id="node62" class="node"><title>2264721158496</title>
<ellipse fill="black" stroke="black" cx="1234.33" cy="-18" rx="2.7" ry="2.7"/>
</g>
<!-- 2264721149712&#45;&#45;2264721158496 -->
<g id="edge43" class="edge"><title>2264721149712&#45;&#45;2264721158496</title>
<path fill="none" stroke="black" d="M1336.46,-77.5975C1305.4,-59.7767 1247.72,-26.6783 1236.32,-20.1391"/>
</g>
<!-- 2264721158640 -->
<g id="node63" class="node"><title>2264721158640</title>
<ellipse fill="none" stroke="black" cx="1356.33" cy="-18" rx="101.406" ry="18"/>
<text text-anchor="middle" x="1356.33" y="-14.5" font-family="Times New Roman,serif" font-size="15.00">Wire in good position</text>
</g>
<!-- 2264721149712&#45;&#45;2264721158640 -->
<g id="edge44" class="edge"><title>2264721149712&#45;&#45;2264721158640</title>
<path fill="none" stroke="black" d="M1356.33,-71.6966C1356.33,-60.8463 1356.33,-46.9167 1356.33,-36.1043"/>
</g>
<!-- 2264721158928 -->
<g id="node65" class="node"><title>2264721158928</title>
<ellipse fill="black" stroke="black" cx="1478.33" cy="-18" rx="2.7" ry="2.7"/>
</g>
<!-- 2264721158400&#45;&#45;2264721158928 -->
<g id="edge46" class="edge"><title>2264721158400&#45;&#45;2264721158928</title>
<path fill="none" stroke="black" d="M1478.33,-71.6966C1478.33,-53.8826 1478.33,-27.7686 1478.33,-20.7764"/>
</g>
<!-- 2264721159072 -->
<g id="node66" class="node"><title>2264721159072</title>
<ellipse fill="none" stroke="black" cx="1574.33" cy="-18" rx="75.9851" ry="18"/>
<text text-anchor="middle" x="1574.33" y="-14.5" font-family="Times New Roman,serif" font-size="15.00">Widen pathway</text>
</g>
<!-- 2264721158400&#45;&#45;2264721159072 -->
<g id="edge47" class="edge"><title>2264721158400&#45;&#45;2264721159072</title>
<path fill="none" stroke="black" d="M1495.94,-76.1609C1511.75,-64.6358 1535.02,-47.6646 1552.11,-35.2078"/>
</g>
<!-- 2264721159360 -->
<g id="node68" class="node"><title>2264721159360</title>
<ellipse fill="black" stroke="black" cx="1670.33" cy="-18" rx="2.7" ry="2.7"/>
</g>
<!-- 2264721158832&#45;&#45;2264721159360 -->
<g id="edge49" class="edge"><title>2264721158832&#45;&#45;2264721159360</title>
<path fill="none" stroke="black" d="M1670.33,-71.6966C1670.33,-53.8826 1670.33,-27.7686 1670.33,-20.7764"/>
</g>
<!-- 2264721159504 -->
<g id="node69" class="node"><title>2264721159504</title>
<ellipse fill="none" stroke="black" cx="1773.33" cy="-18" rx="82.8824" ry="18"/>
<text text-anchor="middle" x="1773.33" y="-14.5" font-family="Times New Roman,serif" font-size="15.00">Advance catheter</text>
</g>
<!-- 2264721158832&#45;&#45;2264721159504 -->
<g id="edge50" class="edge"><title>2264721158832&#45;&#45;2264721159504</title>
<path fill="none" stroke="black" d="M1688.75,-76.4854C1705.65,-65.0025 1730.78,-47.9198 1749.26,-35.3594"/>
</g>
<!-- 2264721147888 -->
<g id="node73" class="node"><title>2264721147888</title>
<ellipse fill="black" stroke="black" cx="1057.33" cy="-594" rx="2.7" ry="2.7"/>
</g>
<!-- 2264721013440&#45;&#45;2264721147888 -->
<g id="edge62" class="edge"><title>2264721013440&#45;&#45;2264721147888</title>
<path fill="none" stroke="black" d="M1057.33,-647.697C1057.33,-629.883 1057.33,-603.769 1057.33,-596.776"/>
</g>
<!-- 2264721148320 -->
<g id="node74" class="node"><title>2264721148320</title>
<ellipse fill="none" stroke="black" cx="1201.33" cy="-594" rx="122.988" ry="18"/>
<text text-anchor="middle" x="1201.33" y="-590.5" font-family="Times New Roman,serif" font-size="15.00">Compression identification</text>
</g>
<!-- 2264721013440&#45;&#45;2264721148320 -->
<g id="edge63" class="edge"><title>2264721013440&#45;&#45;2264721148320</title>
<path fill="none" stroke="black" d="M1078.58,-654.671C1102.05,-643.262 1140.16,-624.737 1167.7,-611.351"/>
</g>
<!-- 2264721159744 -->
<g id="node76" class="node"><title>2264721159744</title>
<ellipse fill="black" stroke="black" cx="1345.33" cy="-594" rx="2.7" ry="2.7"/>
</g>
<!-- 2264721014016&#45;&#45;2264721159744 -->
<g id="edge65" class="edge"><title>2264721014016&#45;&#45;2264721159744</title>
<path fill="none" stroke="black" d="M1345.33,-647.697C1345.33,-629.883 1345.33,-603.769 1345.33,-596.776"/>
</g>
<!-- 2264721159888 -->
<g id="node77" class="node"><title>2264721159888</title>
<ellipse fill="none" stroke="black" cx="1469.33" cy="-594" rx="103.575" ry="18"/>
<text text-anchor="middle" x="1469.33" y="-590.5" font-family="Times New Roman,serif" font-size="15.00">Doppler identification</text>
</g>
<!-- 2264721014016&#45;&#45;2264721159888 -->
<g id="edge66" class="edge"><title>2264721014016&#45;&#45;2264721159888</title>
<path fill="none" stroke="black" d="M1365.26,-653.753C1385.52,-642.314 1417.14,-624.464 1440.21,-611.44"/>
</g>
<!-- 2264721159648 -->
<g id="node80" class="node"><title>2264721159648</title>
<ellipse fill="black" stroke="black" cx="1027.33" cy="-882" rx="2.7" ry="2.7"/>
</g>
<!-- 2264721011808&#45;&#45;2264721159648 -->
<g id="edge73" class="edge"><title>2264721011808&#45;&#45;2264721159648</title>
<path fill="none" stroke="black" d="M1045.52,-936.055C1039.42,-918.252 1030.37,-891.865 1027.95,-884.796"/>
</g>
<!-- 2264721160080 -->
<g id="node81" class="node"><title>2264721160080</title>
<ellipse fill="none" stroke="black" cx="1075.33" cy="-882" rx="27" ry="18"/>
<text text-anchor="middle" x="1075.33" y="-878.5" font-family="Times New Roman,serif" font-size="15.00">and</text>
</g>
<!-- 2264721011808&#45;&#45;2264721160080 -->
<g id="edge78" class="edge"><title>2264721011808&#45;&#45;2264721160080</title>
<path fill="none" stroke="black" d="M1057.14,-936.055C1060.92,-925.049 1065.82,-910.764 1069.58,-899.789"/>
</g>
<!-- 2264721160224 -->
<g id="node86" class="node"><title>2264721160224</title>
<ellipse fill="none" stroke="black" cx="1217.33" cy="-882" rx="97.0675" ry="18"/>
<text text-anchor="middle" x="1217.33" y="-878.5" font-family="Times New Roman,serif" font-size="15.00">Get in sterile clothes</text>
</g>
<!-- 2264721011808&#45;&#45;2264721160224 -->
<g id="edge79" class="edge"><title>2264721011808&#45;&#45;2264721160224</title>
<path fill="none" stroke="black" d="M1073.72,-943.559C1100.98,-932.065 1147.41,-912.485 1180.09,-898.707"/>
</g>
<!-- 2264721160320 -->
<g id="node82" class="node"><title>2264721160320</title>
<ellipse fill="none" stroke="black" cx="1070.33" cy="-810" rx="27" ry="18"/>
<text text-anchor="middle" x="1070.33" y="-806.5" font-family="Times New Roman,serif" font-size="15.00">xor</text>
</g>
<!-- 2264721160080&#45;&#45;2264721160320 -->
<g id="edge76" class="edge"><title>2264721160080&#45;&#45;2264721160320</title>
<path fill="none" stroke="black" d="M1074.1,-863.697C1073.32,-852.846 1072.33,-838.917 1071.56,-828.104"/>
</g>
<!-- 2264721160464 -->
<g id="node85" class="node"><title>2264721160464</title>
<ellipse fill="none" stroke="black" cx="1221.33" cy="-810" rx="106.134" ry="18"/>
<text text-anchor="middle" x="1221.33" y="-806.5" font-family="Times New Roman,serif" font-size="15.00">Check flow and reflow</text>
</g>
<!-- 2264721160080&#45;&#45;2264721160464 -->
<g id="edge77" class="edge"><title>2264721160080&#45;&#45;2264721160464</title>
<path fill="none" stroke="black" d="M1096.56,-870.821C1120.45,-859.37 1159.57,-840.615 1187.64,-827.156"/>
</g>
<!-- 2264721160560 -->
<g id="node83" class="node"><title>2264721160560</title>
<ellipse fill="black" stroke="black" cx="1066.33" cy="-738" rx="2.7" ry="2.7"/>
</g>
<!-- 2264721160320&#45;&#45;2264721160560 -->
<g id="edge74" class="edge"><title>2264721160320&#45;&#45;2264721160560</title>
<path fill="none" stroke="black" d="M1069.35,-791.697C1068.33,-773.883 1066.84,-747.769 1066.44,-740.776"/>
</g>
<!-- 2264721160704 -->
<g id="node84" class="node"><title>2264721160704</title>
<ellipse fill="none" stroke="black" cx="1194.33" cy="-738" rx="107.914" ry="18"/>
<text text-anchor="middle" x="1194.33" y="-734.5" font-family="Times New Roman,serif" font-size="15.00">Check catheter position</text>
</g>
<!-- 2264721160320&#45;&#45;2264721160704 -->
<g id="edge75" class="edge"><title>2264721160320&#45;&#45;2264721160704</title>
<path fill="none" stroke="black" d="M1090.26,-797.753C1110.52,-786.314 1142.14,-768.464 1165.21,-755.44"/>
</g>
<!-- 2264721160944 -->
<g id="node89" class="node"><title>2264721160944</title>
<ellipse fill="black" stroke="black" cx="1017.33" cy="-1098" rx="2.7" ry="2.7"/>
</g>
<!-- 2264721207056&#45;&#45;2264721160944 -->
<g id="edge85" class="edge"><title>2264721207056&#45;&#45;2264721160944</title>
<path fill="none" stroke="black" d="M1017.33,-1151.7C1017.33,-1133.88 1017.33,-1107.77 1017.33,-1100.78"/>
</g>
<!-- 2264721161088 -->
<g id="node90" class="node"><title>2264721161088</title>
<ellipse fill="none" stroke="black" cx="1113.33" cy="-1098" rx="75.9851" ry="18"/>
<text text-anchor="middle" x="1113.33" y="-1094.5" font-family="Times New Roman,serif" font-size="15.00">Position patient</text>
</g>
<!-- 2264721207056&#45;&#45;2264721161088 -->
<g id="edge86" class="edge"><title>2264721207056&#45;&#45;2264721161088</title>
<path fill="none" stroke="black" d="M1034.94,-1156.16C1050.75,-1144.64 1074.02,-1127.66 1091.11,-1115.21"/>
</g>
</g>
</svg>
