<?xml version="1.0" encoding="UTF-8" standalone="no"?>
<!DOCTYPE svg PUBLIC "-//W3C//DTD SVG 1.1//EN"
 "http://www.w3.org/Graphics/SVG/1.1/DTD/svg11.dtd">
<!-- Generated by graphviz version 2.38.0 (20140413.2041)
 -->
<!-- Title: pt Pages: 1 -->
<svg width="1928pt" height="1340pt"
 viewBox="0.00 0.00 1927.96 1340.00" xmlns="http://www.w3.org/2000/svg" xmlns:xlink="http://www.w3.org/1999/xlink">
<g id="graph0" class="graph" transform="scale(1 1) rotate(0) translate(4 1336)">
<title>pt</title>
<!-- 2265795897184 -->
<g id="node1" class="node"><title>2265795897184</title>
<ellipse fill="none" stroke="black" cx="524.266" cy="-1314" rx="27" ry="18"/>
<text text-anchor="middle" x="524.266" y="-1310.5" font-family="Times New Roman,serif" font-size="15.00">and</text>
</g>
<!-- 2265795895408 -->
<g id="node2" class="node"><title>2265795895408</title>
<ellipse fill="none" stroke="black" cx="352.266" cy="-1242" rx="90.1697" ry="18"/>
<text text-anchor="middle" x="352.266" y="-1238.5" font-family="Times New Roman,serif" font-size="15.00">Drap puncture area</text>
</g>
<!-- 2265795897184&#45;&#45;2265795895408 -->
<g id="edge1" class="edge"><title>2265795897184&#45;&#45;2265795895408</title>
<path fill="none" stroke="black" d="M501.78,-1303.85C473.46,-1292.32 424.38,-1272.35 390.208,-1258.44"/>
</g>
<!-- 2265795895888 -->
<g id="node3" class="node"><title>2265795895888</title>
<ellipse fill="none" stroke="black" cx="524.266" cy="-1242" rx="63.8584" ry="18"/>
<text text-anchor="middle" x="524.266" y="-1238.5" font-family="Times New Roman,serif" font-size="15.00">Cover probe</text>
</g>
<!-- 2265795897184&#45;&#45;2265795895888 -->
<g id="edge2" class="edge"><title>2265795897184&#45;&#45;2265795895888</title>
<path fill="none" stroke="black" d="M524.266,-1295.7C524.266,-1284.85 524.266,-1270.92 524.266,-1260.1"/>
</g>
<!-- 2265795899056 -->
<g id="node4" class="node"><title>2265795899056</title>
<ellipse fill="none" stroke="black" cx="652.266" cy="-1242" rx="46.6143" ry="18"/>
<text text-anchor="middle" x="652.266" y="-1238.5" font-family="Times New Roman,serif" font-size="15.00">xor loop</text>
</g>
<!-- 2265795897184&#45;&#45;2265795899056 -->
<g id="edge90" class="edge"><title>2265795897184&#45;&#45;2265795899056</title>
<path fill="none" stroke="black" d="M544.548,-1301.91C566.683,-1289.8 602.182,-1270.39 626.328,-1257.18"/>
</g>
<!-- 2265795898576 -->
<g id="node5" class="node"><title>2265795898576</title>
<ellipse fill="none" stroke="black" cx="628.266" cy="-1170" rx="27" ry="18"/>
<text text-anchor="middle" x="628.266" y="-1166.5" font-family="Times New Roman,serif" font-size="15.00">seq</text>
</g>
<!-- 2265795899056&#45;&#45;2265795898576 -->
<g id="edge88" class="edge"><title>2265795899056&#45;&#45;2265795898576</title>
<path fill="none" stroke="black" d="M646.456,-1224.05C642.683,-1213.05 637.785,-1198.76 634.022,-1187.79"/>
</g>
<!-- 2265795859600 -->
<g id="node91" class="node"><title>2265795859600</title>
<ellipse fill="black" stroke="black" cx="676.266" cy="-1170" rx="2.7" ry="2.7"/>
</g>
<!-- 2265795899056&#45;&#45;2265795859600 -->
<g id="edge89" class="edge"><title>2265795899056&#45;&#45;2265795859600</title>
<path fill="none" stroke="black" d="M658.076,-1224.05C664.18,-1206.25 673.226,-1179.87 675.65,-1172.8"/>
</g>
<!-- 2265795859840 -->
<g id="node6" class="node"><title>2265795859840</title>
<ellipse fill="none" stroke="black" cx="478.266" cy="-1098" rx="27" ry="18"/>
<text text-anchor="middle" x="478.266" y="-1094.5" font-family="Times New Roman,serif" font-size="15.00">xor</text>
</g>
<!-- 2265795898576&#45;&#45;2265795859840 -->
<g id="edge7" class="edge"><title>2265795898576&#45;&#45;2265795859840</title>
<path fill="none" stroke="black" d="M606.774,-1158.97C578.259,-1145.66 528.212,-1122.31 499.717,-1109.01"/>
</g>
<!-- 2265795862336 -->
<g id="node11" class="node"><title>2265795862336</title>
<ellipse fill="none" stroke="black" cx="779.266" cy="-1098" rx="27" ry="18"/>
<text text-anchor="middle" x="779.266" y="-1094.5" font-family="Times New Roman,serif" font-size="15.00">xor</text>
</g>
<!-- 2265795898576&#45;&#45;2265795862336 -->
<g id="edge87" class="edge"><title>2265795898576&#45;&#45;2265795862336</title>
<path fill="none" stroke="black" d="M649.9,-1158.97C678.606,-1145.66 728.986,-1122.31 757.671,-1109.01"/>
</g>
<!-- 2265795860464 -->
<g id="node7" class="node"><title>2265795860464</title>
<ellipse fill="none" stroke="black" cx="113.266" cy="-1026" rx="113.032" ry="18"/>
<text text-anchor="middle" x="113.266" y="-1022.5" font-family="Times New Roman,serif" font-size="15.00">Ultrasound configuration</text>
</g>
<!-- 2265795859840&#45;&#45;2265795860464 -->
<g id="edge3" class="edge"><title>2265795859840&#45;&#45;2265795860464</title>
<path fill="none" stroke="black" d="M452.6,-1092.08C397.185,-1081.45 264.73,-1056.05 182.658,-1040.31"/>
</g>
<!-- 2265795861616 -->
<g id="node8" class="node"><title>2265795861616</title>
<ellipse fill="none" stroke="black" cx="314.266" cy="-1026" rx="70.3667" ry="18"/>
<text text-anchor="middle" x="314.266" y="-1022.5" font-family="Times New Roman,serif" font-size="15.00">Hand washing</text>
</g>
<!-- 2265795859840&#45;&#45;2265795861616 -->
<g id="edge4" class="edge"><title>2265795859840&#45;&#45;2265795861616</title>
<path fill="none" stroke="black" d="M456.148,-1087.56C428.607,-1075.8 381.25,-1055.59 348.885,-1041.78"/>
</g>
<!-- 2265795858784 -->
<g id="node9" class="node"><title>2265795858784</title>
<ellipse fill="none" stroke="black" cx="478.266" cy="-1026" rx="75.9851" ry="18"/>
<text text-anchor="middle" x="478.266" y="-1022.5" font-family="Times New Roman,serif" font-size="15.00">Position patient</text>
</g>
<!-- 2265795859840&#45;&#45;2265795858784 -->
<g id="edge5" class="edge"><title>2265795859840&#45;&#45;2265795858784</title>
<path fill="none" stroke="black" d="M478.266,-1079.7C478.266,-1068.85 478.266,-1054.92 478.266,-1044.1"/>
</g>
<!-- 2265795861088 -->
<g id="node10" class="node"><title>2265795861088</title>
<ellipse fill="none" stroke="black" cx="665.266" cy="-1026" rx="93.2286" ry="18"/>
<text text-anchor="middle" x="665.266" y="-1022.5" font-family="Times New Roman,serif" font-size="15.00">Prepare implements</text>
</g>
<!-- 2265795859840&#45;&#45;2265795861088 -->
<g id="edge6" class="edge"><title>2265795859840&#45;&#45;2265795861088</title>
<path fill="none" stroke="black" d="M501.196,-1088.42C531.82,-1076.95 586.59,-1056.45 624.372,-1042.31"/>
</g>
<!-- 2265795858640 -->
<g id="node12" class="node"><title>2265795858640</title>
<ellipse fill="black" stroke="black" cx="779.266" cy="-1026" rx="2.7" ry="2.7"/>
</g>
<!-- 2265795862336&#45;&#45;2265795858640 -->
<g id="edge8" class="edge"><title>2265795862336&#45;&#45;2265795858640</title>
<path fill="none" stroke="black" d="M779.266,-1079.7C779.266,-1061.88 779.266,-1035.77 779.266,-1028.78"/>
</g>
<!-- 2265795862192 -->
<g id="node13" class="node"><title>2265795862192</title>
<ellipse fill="none" stroke="black" cx="846.266" cy="-1026" rx="46.6143" ry="18"/>
<text text-anchor="middle" x="846.266" y="-1022.5" font-family="Times New Roman,serif" font-size="15.00">xor loop</text>
</g>
<!-- 2265795862336&#45;&#45;2265795862192 -->
<g id="edge86" class="edge"><title>2265795862336&#45;&#45;2265795862192</title>
<path fill="none" stroke="black" d="M793.148,-1082.5C804.11,-1071.04 819.4,-1055.07 830.762,-1043.2"/>
</g>
<!-- 2265795862432 -->
<g id="node14" class="node"><title>2265795862432</title>
<ellipse fill="none" stroke="black" cx="822.266" cy="-954" rx="27" ry="18"/>
<text text-anchor="middle" x="822.266" y="-950.5" font-family="Times New Roman,serif" font-size="15.00">xor</text>
</g>
<!-- 2265795862192&#45;&#45;2265795862432 -->
<g id="edge84" class="edge"><title>2265795862192&#45;&#45;2265795862432</title>
<path fill="none" stroke="black" d="M840.456,-1008.05C836.683,-997.049 831.785,-982.764 828.022,-971.789"/>
</g>
<!-- 2265795859168 -->
<g id="node90" class="node"><title>2265795859168</title>
<ellipse fill="black" stroke="black" cx="870.266" cy="-954" rx="2.7" ry="2.7"/>
</g>
<!-- 2265795862192&#45;&#45;2265795859168 -->
<g id="edge85" class="edge"><title>2265795862192&#45;&#45;2265795859168</title>
<path fill="none" stroke="black" d="M852.076,-1008.05C858.18,-990.252 867.226,-963.865 869.65,-956.796"/>
</g>
<!-- 2265795859696 -->
<g id="node15" class="node"><title>2265795859696</title>
<ellipse fill="none" stroke="black" cx="493.266" cy="-882" rx="63.8584" ry="18"/>
<text text-anchor="middle" x="493.266" y="-878.5" font-family="Times New Roman,serif" font-size="15.00">Gel in probe</text>
</g>
<!-- 2265795862432&#45;&#45;2265795859696 -->
<g id="edge9" class="edge"><title>2265795862432&#45;&#45;2265795859696</title>
<path fill="none" stroke="black" d="M796.996,-947.623C742.677,-936.066 613.961,-908.68 542.764,-893.531"/>
</g>
<!-- 2265795859216 -->
<g id="node16" class="node"><title>2265795859216</title>
<ellipse fill="none" stroke="black" cx="643.266" cy="-882" rx="68.1971" ry="18"/>
<text text-anchor="middle" x="643.266" y="-878.5" font-family="Times New Roman,serif" font-size="15.00">Put sterile gel</text>
</g>
<!-- 2265795862432&#45;&#45;2265795859216 -->
<g id="edge10" class="edge"><title>2265795862432&#45;&#45;2265795859216</title>
<path fill="none" stroke="black" d="M799.595,-944.134C769.397,-932.325 715.616,-911.293 679.693,-897.245"/>
</g>
<!-- 2265795861472 -->
<g id="node17" class="node"><title>2265795861472</title>
<ellipse fill="none" stroke="black" cx="822.266" cy="-882" rx="93.2286" ry="18"/>
<text text-anchor="middle" x="822.266" y="-878.5" font-family="Times New Roman,serif" font-size="15.00">Clean puncture area</text>
</g>
<!-- 2265795862432&#45;&#45;2265795861472 -->
<g id="edge11" class="edge"><title>2265795862432&#45;&#45;2265795861472</title>
<path fill="none" stroke="black" d="M822.266,-935.697C822.266,-924.846 822.266,-910.917 822.266,-900.104"/>
</g>
<!-- 2265795860272 -->
<g id="node18" class="node"><title>2265795860272</title>
<ellipse fill="none" stroke="black" cx="1042.27" cy="-882" rx="108.303" ry="18"/>
<text text-anchor="middle" x="1042.27" y="-878.5" font-family="Times New Roman,serif" font-size="15.00">Anatomic identification</text>
</g>
<!-- 2265795862432&#45;&#45;2265795860272 -->
<g id="edge12" class="edge"><title>2265795862432&#45;&#45;2265795860272</title>
<path fill="none" stroke="black" d="M846.228,-945.376C881.643,-934.107 948.689,-912.775 994.413,-898.226"/>
</g>
<!-- 2265795860176 -->
<g id="node19" class="node"><title>2265795860176</title>
<ellipse fill="none" stroke="black" cx="1195.27" cy="-882" rx="27" ry="18"/>
<text text-anchor="middle" x="1195.27" y="-878.5" font-family="Times New Roman,serif" font-size="15.00">seq</text>
</g>
<!-- 2265795862432&#45;&#45;2265795860176 -->
<g id="edge83" class="edge"><title>2265795862432&#45;&#45;2265795860176</title>
<path fill="none" stroke="black" d="M847.904,-948.189C916.045,-935.401 1101.1,-900.671 1169.45,-887.845"/>
</g>
<!-- 2265795860800 -->
<g id="node20" class="node"><title>2265795860800</title>
<ellipse fill="none" stroke="black" cx="1047.27" cy="-810" rx="27" ry="18"/>
<text text-anchor="middle" x="1047.27" y="-806.5" font-family="Times New Roman,serif" font-size="15.00">xor</text>
</g>
<!-- 2265795860176&#45;&#45;2265795860800 -->
<g id="edge68" class="edge"><title>2265795860176&#45;&#45;2265795860800</title>
<path fill="none" stroke="black" d="M1173.75,-870.821C1145.69,-857.55 1096.88,-834.468 1068.81,-821.191"/>
</g>
<!-- 2265795860656 -->
<g id="node76" class="node"><title>2265795860656</title>
<ellipse fill="none" stroke="black" cx="1268.27" cy="-810" rx="27" ry="18"/>
<text text-anchor="middle" x="1268.27" y="-806.5" font-family="Times New Roman,serif" font-size="15.00">xor</text>
</g>
<!-- 2265795860176&#45;&#45;2265795860656 -->
<g id="edge82" class="edge"><title>2265795860176&#45;&#45;2265795860656</title>
<path fill="none" stroke="black" d="M1210.04,-866.834C1222.7,-854.69 1240.86,-837.283 1253.52,-825.144"/>
</g>
<!-- 2265795858928 -->
<g id="node21" class="node"><title>2265795858928</title>
<ellipse fill="black" stroke="black" cx="980.266" cy="-738" rx="2.7" ry="2.7"/>
</g>
<!-- 2265795860800&#45;&#45;2265795858928 -->
<g id="edge13" class="edge"><title>2265795860800&#45;&#45;2265795858928</title>
<path fill="none" stroke="black" d="M1033.38,-794.496C1016.21,-776.555 988.422,-747.522 981.743,-740.544"/>
</g>
<!-- 2265795860368 -->
<g id="node22" class="node"><title>2265795860368</title>
<ellipse fill="none" stroke="black" cx="1047.27" cy="-738" rx="46.6143" ry="18"/>
<text text-anchor="middle" x="1047.27" y="-734.5" font-family="Times New Roman,serif" font-size="15.00">xor loop</text>
</g>
<!-- 2265795860800&#45;&#45;2265795860368 -->
<g id="edge67" class="edge"><title>2265795860800&#45;&#45;2265795860368</title>
<path fill="none" stroke="black" d="M1047.27,-791.697C1047.27,-780.846 1047.27,-766.917 1047.27,-756.104"/>
</g>
<!-- 2265795860896 -->
<g id="node23" class="node"><title>2265795860896</title>
<ellipse fill="none" stroke="black" cx="1012.27" cy="-666" rx="27" ry="18"/>
<text text-anchor="middle" x="1012.27" y="-662.5" font-family="Times New Roman,serif" font-size="15.00">xor</text>
</g>
<!-- 2265795860368&#45;&#45;2265795860896 -->
<g id="edge65" class="edge"><title>2265795860368&#45;&#45;2265795860896</title>
<path fill="none" stroke="black" d="M1038.79,-720.055C1033.21,-708.887 1025.94,-694.343 1020.42,-683.307"/>
</g>
<!-- 2265795861856 -->
<g id="node75" class="node"><title>2265795861856</title>
<ellipse fill="black" stroke="black" cx="1060.27" cy="-666" rx="2.7" ry="2.7"/>
</g>
<!-- 2265795860368&#45;&#45;2265795861856 -->
<g id="edge66" class="edge"><title>2265795860368&#45;&#45;2265795861856</title>
<path fill="none" stroke="black" d="M1050.48,-719.697C1053.79,-701.883 1058.64,-675.769 1059.94,-668.776"/>
</g>
<!-- 2265795859312 -->
<g id="node24" class="node"><title>2265795859312</title>
<ellipse fill="none" stroke="black" cx="580.266" cy="-594" rx="27" ry="18"/>
<text text-anchor="middle" x="580.266" y="-590.5" font-family="Times New Roman,serif" font-size="15.00">seq</text>
</g>
<!-- 2265795860896&#45;&#45;2265795859312 -->
<g id="edge18" class="edge"><title>2265795860896&#45;&#45;2265795859312</title>
<path fill="none" stroke="black" d="M986.215,-660.779C909.234,-648.305 683.375,-611.708 606.35,-599.227"/>
</g>
<!-- 2265795861520 -->
<g id="node29" class="node"><title>2265795861520</title>
<ellipse fill="none" stroke="black" cx="1037.27" cy="-594" rx="27" ry="18"/>
<text text-anchor="middle" x="1037.27" y="-590.5" font-family="Times New Roman,serif" font-size="15.00">seq</text>
</g>
<!-- 2265795860896&#45;&#45;2265795861520 -->
<g id="edge64" class="edge"><title>2265795860896&#45;&#45;2265795861520</title>
<path fill="none" stroke="black" d="M1018.19,-648.411C1022.12,-637.414 1027.26,-623.027 1031.21,-611.956"/>
</g>
<!-- 2264721188128 -->
<g id="node25" class="node"><title>2264721188128</title>
<ellipse fill="none" stroke="black" cx="412.266" cy="-522" rx="122.988" ry="18"/>
<text text-anchor="middle" x="412.266" y="-518.5" font-family="Times New Roman,serif" font-size="15.00">Compression identification</text>
</g>
<!-- 2265795859312&#45;&#45;2264721188128 -->
<g id="edge14" class="edge"><title>2265795859312&#45;&#45;2264721188128</title>
<path fill="none" stroke="black" d="M557.957,-583.705C530.734,-572.362 484.244,-552.991 451.103,-539.182"/>
</g>
<!-- 2264721187024 -->
<g id="node26" class="node"><title>2264721187024</title>
<ellipse fill="none" stroke="black" cx="580.266" cy="-522" rx="27" ry="18"/>
<text text-anchor="middle" x="580.266" y="-518.5" font-family="Times New Roman,serif" font-size="15.00">xor</text>
</g>
<!-- 2265795859312&#45;&#45;2264721187024 -->
<g id="edge17" class="edge"><title>2265795859312&#45;&#45;2264721187024</title>
<path fill="none" stroke="black" d="M580.266,-575.697C580.266,-564.846 580.266,-550.917 580.266,-540.104"/>
</g>
<!-- 2264721187792 -->
<g id="node27" class="node"><title>2264721187792</title>
<ellipse fill="black" stroke="black" cx="456.266" cy="-450" rx="2.7" ry="2.7"/>
</g>
<!-- 2264721187024&#45;&#45;2264721187792 -->
<g id="edge15" class="edge"><title>2264721187024&#45;&#45;2264721187792</title>
<path fill="none" stroke="black" d="M560.343,-509.753C528.851,-491.976 469.936,-458.717 458.294,-452.145"/>
</g>
<!-- 2264721189952 -->
<g id="node28" class="node"><title>2264721189952</title>
<ellipse fill="none" stroke="black" cx="580.266" cy="-450" rx="103.575" ry="18"/>
<text text-anchor="middle" x="580.266" y="-446.5" font-family="Times New Roman,serif" font-size="15.00">Doppler identification</text>
</g>
<!-- 2264721187024&#45;&#45;2264721189952 -->
<g id="edge16" class="edge"><title>2264721187024&#45;&#45;2264721189952</title>
<path fill="none" stroke="black" d="M580.266,-503.697C580.266,-492.846 580.266,-478.917 580.266,-468.104"/>
</g>
<!-- 2264721188176 -->
<g id="node30" class="node"><title>2264721188176</title>
<ellipse fill="none" stroke="black" cx="789.266" cy="-522" rx="27" ry="18"/>
<text text-anchor="middle" x="789.266" y="-518.5" font-family="Times New Roman,serif" font-size="15.00">xor</text>
</g>
<!-- 2265795861520&#45;&#45;2264721188176 -->
<g id="edge21" class="edge"><title>2265795861520&#45;&#45;2264721188176</title>
<path fill="none" stroke="black" d="M1012.58,-586.032C965.043,-572.615 861.31,-543.335 813.852,-529.94"/>
</g>
<!-- 2264721187360 -->
<g id="node33" class="node"><title>2264721187360</title>
<ellipse fill="none" stroke="black" cx="967.266" cy="-522" rx="27" ry="18"/>
<text text-anchor="middle" x="967.266" y="-518.5" font-family="Times New Roman,serif" font-size="15.00">and</text>
</g>
<!-- 2265795861520&#45;&#45;2264721187360 -->
<g id="edge28" class="edge"><title>2265795861520&#45;&#45;2264721187360</title>
<path fill="none" stroke="black" d="M1022.76,-578.496C1010.75,-566.482 993.76,-549.494 981.751,-537.485"/>
</g>
<!-- 2264721190240 -->
<g id="node40" class="node"><title>2264721190240</title>
<ellipse fill="none" stroke="black" cx="1039.27" cy="-522" rx="27" ry="18"/>
<text text-anchor="middle" x="1039.27" y="-518.5" font-family="Times New Roman,serif" font-size="15.00">xor</text>
</g>
<!-- 2265795861520&#45;&#45;2264721190240 -->
<g id="edge31" class="edge"><title>2265795861520&#45;&#45;2264721190240</title>
<path fill="none" stroke="black" d="M1037.76,-575.697C1038.07,-564.846 1038.47,-550.917 1038.78,-540.104"/>
</g>
<!-- 2264721188272 -->
<g id="node43" class="node"><title>2264721188272</title>
<ellipse fill="none" stroke="black" cx="1216.27" cy="-522" rx="27" ry="18"/>
<text text-anchor="middle" x="1216.27" y="-518.5" font-family="Times New Roman,serif" font-size="15.00">xor</text>
</g>
<!-- 2265795861520&#45;&#45;2264721188272 -->
<g id="edge34" class="edge"><title>2265795861520&#45;&#45;2264721188272</title>
<path fill="none" stroke="black" d="M1059.94,-584.134C1094.27,-570.706 1159.1,-545.355 1193.5,-531.904"/>
</g>
<!-- 2264721190768 -->
<g id="node46" class="node"><title>2264721190768</title>
<ellipse fill="none" stroke="black" cx="1426.27" cy="-522" rx="27" ry="18"/>
<text text-anchor="middle" x="1426.27" y="-518.5" font-family="Times New Roman,serif" font-size="15.00">xor</text>
</g>
<!-- 2265795861520&#45;&#45;2264721190768 -->
<g id="edge63" class="edge"><title>2265795861520&#45;&#45;2264721190768</title>
<path fill="none" stroke="black" d="M1063.09,-588.353C1133.77,-575.635 1329.79,-540.362 1400.45,-527.645"/>
</g>
<!-- 2264721187312 -->
<g id="node31" class="node"><title>2264721187312</title>
<ellipse fill="black" stroke="black" cx="704.266" cy="-450" rx="2.7" ry="2.7"/>
</g>
<!-- 2264721188176&#45;&#45;2264721187312 -->
<g id="edge19" class="edge"><title>2264721188176&#45;&#45;2264721187312</title>
<path fill="none" stroke="black" d="M772.877,-507.503C751.264,-489.705 714.943,-459.793 706.201,-452.594"/>
</g>
<!-- 2264721187072 -->
<g id="node32" class="node"><title>2264721187072</title>
<ellipse fill="none" stroke="black" cx="789.266" cy="-450" rx="63.8584" ry="18"/>
<text text-anchor="middle" x="789.266" y="-446.5" font-family="Times New Roman,serif" font-size="15.00">Blood return</text>
</g>
<!-- 2264721188176&#45;&#45;2264721187072 -->
<g id="edge20" class="edge"><title>2264721188176&#45;&#45;2264721187072</title>
<path fill="none" stroke="black" d="M789.266,-503.697C789.266,-492.846 789.266,-478.917 789.266,-468.104"/>
</g>
<!-- 2264721187504 -->
<g id="node34" class="node"><title>2264721187504</title>
<ellipse fill="none" stroke="black" cx="898.266" cy="-450" rx="27" ry="18"/>
<text text-anchor="middle" x="898.266" y="-446.5" font-family="Times New Roman,serif" font-size="15.00">xor</text>
</g>
<!-- 2264721187360&#45;&#45;2264721187504 -->
<g id="edge24" class="edge"><title>2264721187360&#45;&#45;2264721187504</title>
<path fill="none" stroke="black" d="M952.969,-506.496C941.127,-494.482 924.381,-477.494 912.544,-465.485"/>
</g>
<!-- 2264721187120 -->
<g id="node37" class="node"><title>2264721187120</title>
<ellipse fill="none" stroke="black" cx="970.266" cy="-450" rx="27" ry="18"/>
<text text-anchor="middle" x="970.266" y="-446.5" font-family="Times New Roman,serif" font-size="15.00">xor</text>
</g>
<!-- 2264721187360&#45;&#45;2264721187120 -->
<g id="edge27" class="edge"><title>2264721187360&#45;&#45;2264721187120</title>
<path fill="none" stroke="black" d="M968.007,-503.697C968.472,-492.846 969.069,-478.917 969.533,-468.104"/>
</g>
<!-- 2264721189856 -->
<g id="node35" class="node"><title>2264721189856</title>
<ellipse fill="black" stroke="black" cx="814.266" cy="-378" rx="2.7" ry="2.7"/>
</g>
<!-- 2264721187504&#45;&#45;2264721189856 -->
<g id="edge22" class="edge"><title>2264721187504&#45;&#45;2264721189856</title>
<path fill="none" stroke="black" d="M882.07,-435.503C860.712,-417.705 824.818,-387.793 816.178,-380.594"/>
</g>
<!-- 2264721189808 -->
<g id="node36" class="node"><title>2264721189808</title>
<ellipse fill="none" stroke="black" cx="894.266" cy="-378" rx="59.5207" ry="18"/>
<text text-anchor="middle" x="894.266" y="-374.5" font-family="Times New Roman,serif" font-size="15.00">Drop probe</text>
</g>
<!-- 2264721187504&#45;&#45;2264721189808 -->
<g id="edge23" class="edge"><title>2264721187504&#45;&#45;2264721189808</title>
<path fill="none" stroke="black" d="M897.277,-431.697C896.657,-420.846 895.861,-406.917 895.243,-396.104"/>
</g>
<!-- 2264721187408 -->
<g id="node38" class="node"><title>2264721187408</title>
<ellipse fill="black" stroke="black" cx="974.266" cy="-378" rx="2.7" ry="2.7"/>
</g>
<!-- 2264721187120&#45;&#45;2264721187408 -->
<g id="edge25" class="edge"><title>2264721187120&#45;&#45;2264721187408</title>
<path fill="none" stroke="black" d="M971.255,-431.697C972.273,-413.883 973.765,-387.769 974.164,-380.776"/>
</g>
<!-- 2264721189184 -->
<g id="node39" class="node"><title>2264721189184</title>
<ellipse fill="none" stroke="black" cx="1042.27" cy="-378" rx="47.0053" ry="18"/>
<text text-anchor="middle" x="1042.27" y="-374.5" font-family="Times New Roman,serif" font-size="15.00">Puncture</text>
</g>
<!-- 2264721187120&#45;&#45;2264721189184 -->
<g id="edge26" class="edge"><title>2264721187120&#45;&#45;2264721189184</title>
<path fill="none" stroke="black" d="M984.836,-434.834C996.67,-423.329 1013.36,-407.101 1025.7,-395.103"/>
</g>
<!-- 2264721190336 -->
<g id="node41" class="node"><title>2264721190336</title>
<ellipse fill="black" stroke="black" cx="1018.27" cy="-450" rx="2.7" ry="2.7"/>
</g>
<!-- 2264721190240&#45;&#45;2264721190336 -->
<g id="edge29" class="edge"><title>2264721190240&#45;&#45;2264721190336</title>
<path fill="none" stroke="black" d="M1034.18,-504.055C1028.84,-486.252 1020.93,-459.865 1018.8,-452.796"/>
</g>
<!-- 2264721187984 -->
<g id="node42" class="node"><title>2264721187984</title>
<ellipse fill="none" stroke="black" cx="1117.27" cy="-450" rx="77.654" ry="18"/>
<text text-anchor="middle" x="1117.27" y="-446.5" font-family="Times New Roman,serif" font-size="15.00">Remove syringe</text>
</g>
<!-- 2264721190240&#45;&#45;2264721187984 -->
<g id="edge30" class="edge"><title>2264721190240&#45;&#45;2264721187984</title>
<path fill="none" stroke="black" d="M1054.68,-507.17C1067.37,-495.775 1085.42,-479.584 1098.87,-467.51"/>
</g>
<!-- 2264721187168 -->
<g id="node44" class="node"><title>2264721187168</title>
<ellipse fill="black" stroke="black" cx="1216.27" cy="-450" rx="2.7" ry="2.7"/>
</g>
<!-- 2264721188272&#45;&#45;2264721187168 -->
<g id="edge32" class="edge"><title>2264721188272&#45;&#45;2264721187168</title>
<path fill="none" stroke="black" d="M1216.27,-503.697C1216.27,-485.883 1216.27,-459.769 1216.27,-452.776"/>
</g>
<!-- 2264721188704 -->
<g id="node45" class="node"><title>2264721188704</title>
<ellipse fill="none" stroke="black" cx="1321.27" cy="-450" rx="84.1616" ry="18"/>
<text text-anchor="middle" x="1321.27" y="-446.5" font-family="Times New Roman,serif" font-size="15.00">Guidewire install</text>
</g>
<!-- 2264721188272&#45;&#45;2264721188704 -->
<g id="edge33" class="edge"><title>2264721188272&#45;&#45;2264721188704</title>
<path fill="none" stroke="black" d="M1235.04,-508.485C1252.26,-497.002 1277.89,-479.92 1296.73,-467.359"/>
</g>
<!-- 2264721189472 -->
<g id="node47" class="node"><title>2264721189472</title>
<ellipse fill="black" stroke="black" cx="1426.27" cy="-450" rx="2.7" ry="2.7"/>
</g>
<!-- 2264721190768&#45;&#45;2264721189472 -->
<g id="edge35" class="edge"><title>2264721190768&#45;&#45;2264721189472</title>
<path fill="none" stroke="black" d="M1426.27,-503.697C1426.27,-485.883 1426.27,-459.769 1426.27,-452.776"/>
</g>
<!-- 2264721189520 -->
<g id="node48" class="node"><title>2264721189520</title>
<ellipse fill="none" stroke="black" cx="1493.27" cy="-450" rx="46.6143" ry="18"/>
<text text-anchor="middle" x="1493.27" y="-446.5" font-family="Times New Roman,serif" font-size="15.00">xor loop</text>
</g>
<!-- 2264721190768&#45;&#45;2264721189520 -->
<g id="edge62" class="edge"><title>2264721190768&#45;&#45;2264721189520</title>
<path fill="none" stroke="black" d="M1440.15,-506.496C1451.11,-495.043 1466.4,-479.069 1477.76,-467.198"/>
</g>
<!-- 2265100077184 -->
<g id="node49" class="node"><title>2265100077184</title>
<ellipse fill="none" stroke="black" cx="1469.27" cy="-378" rx="27" ry="18"/>
<text text-anchor="middle" x="1469.27" y="-374.5" font-family="Times New Roman,serif" font-size="15.00">seq</text>
</g>
<!-- 2264721189520&#45;&#45;2265100077184 -->
<g id="edge60" class="edge"><title>2264721189520&#45;&#45;2265100077184</title>
<path fill="none" stroke="black" d="M1487.46,-432.055C1483.68,-421.049 1478.78,-406.764 1475.02,-395.789"/>
</g>
<!-- 2265100076416 -->
<g id="node74" class="node"><title>2265100076416</title>
<ellipse fill="black" stroke="black" cx="1517.27" cy="-378" rx="2.7" ry="2.7"/>
</g>
<!-- 2264721189520&#45;&#45;2265100076416 -->
<g id="edge61" class="edge"><title>2264721189520&#45;&#45;2265100076416</title>
<path fill="none" stroke="black" d="M1499.08,-432.055C1505.18,-414.252 1514.23,-387.865 1516.65,-380.796"/>
</g>
<!-- 2265100076800 -->
<g id="node50" class="node"><title>2265100076800</title>
<ellipse fill="none" stroke="black" cx="1176.27" cy="-306" rx="27" ry="18"/>
<text text-anchor="middle" x="1176.27" y="-302.5" font-family="Times New Roman,serif" font-size="15.00">xor</text>
</g>
<!-- 2265100077184&#45;&#45;2265100076800 -->
<g id="edge38" class="edge"><title>2265100077184&#45;&#45;2265100076800</title>
<path fill="none" stroke="black" d="M1444.28,-371.032C1388.93,-357.807 1256.48,-326.164 1201.18,-312.953"/>
</g>
<!-- 2265100075120 -->
<g id="node53" class="node"><title>2265100075120</title>
<ellipse fill="none" stroke="black" cx="1402.27" cy="-306" rx="27" ry="18"/>
<text text-anchor="middle" x="1402.27" y="-302.5" font-family="Times New Roman,serif" font-size="15.00">xor</text>
</g>
<!-- 2265100077184&#45;&#45;2265100075120 -->
<g id="edge41" class="edge"><title>2265100077184&#45;&#45;2265100075120</title>
<path fill="none" stroke="black" d="M1455.38,-362.496C1443.88,-350.482 1427.62,-333.494 1416.13,-321.485"/>
</g>
<!-- 2265100078144 -->
<g id="node56" class="node"><title>2265100078144</title>
<ellipse fill="none" stroke="black" cx="1535.27" cy="-306" rx="27" ry="18"/>
<text text-anchor="middle" x="1535.27" y="-302.5" font-family="Times New Roman,serif" font-size="15.00">xor</text>
</g>
<!-- 2265100077184&#45;&#45;2265100078144 -->
<g id="edge50" class="edge"><title>2265100077184&#45;&#45;2265100078144</title>
<path fill="none" stroke="black" d="M1483.26,-362.155C1494.46,-350.276 1510.09,-333.697 1521.29,-321.824"/>
</g>
<!-- 2265100076656 -->
<g id="node65" class="node"><title>2265100076656</title>
<ellipse fill="none" stroke="black" cx="1669.27" cy="-306" rx="27" ry="18"/>
<text text-anchor="middle" x="1669.27" y="-302.5" font-family="Times New Roman,serif" font-size="15.00">xor</text>
</g>
<!-- 2265100077184&#45;&#45;2265100076656 -->
<g id="edge59" class="edge"><title>2265100077184&#45;&#45;2265100076656</title>
<path fill="none" stroke="black" d="M1492.6,-368.833C1531.03,-355.381 1607.23,-328.712 1645.77,-315.223"/>
</g>
<!-- 2265100078864 -->
<g id="node51" class="node"><title>2265100078864</title>
<ellipse fill="black" stroke="black" cx="1083.27" cy="-234" rx="2.7" ry="2.7"/>
</g>
<!-- 2265100076800&#45;&#45;2265100078864 -->
<g id="edge36" class="edge"><title>2265100076800&#45;&#45;2265100078864</title>
<path fill="none" stroke="black" d="M1158.77,-291.834C1134.78,-273.774 1093.63,-242.802 1084.92,-236.243"/>
</g>
<!-- 2265100076512 -->
<g id="node52" class="node"><title>2265100076512</title>
<ellipse fill="none" stroke="black" cx="1176.27" cy="-234" rx="72.0363" ry="18"/>
<text text-anchor="middle" x="1176.27" y="-230.5" font-family="Times New Roman,serif" font-size="15.00">Remove trocar</text>
</g>
<!-- 2265100076800&#45;&#45;2265100076512 -->
<g id="edge37" class="edge"><title>2265100076800&#45;&#45;2265100076512</title>
<path fill="none" stroke="black" d="M1176.27,-287.697C1176.27,-276.846 1176.27,-262.917 1176.27,-252.104"/>
</g>
<!-- 2265100077856 -->
<g id="node54" class="node"><title>2265100077856</title>
<ellipse fill="black" stroke="black" cx="1269.27" cy="-234" rx="2.7" ry="2.7"/>
</g>
<!-- 2265100075120&#45;&#45;2265100077856 -->
<g id="edge39" class="edge"><title>2265100075120&#45;&#45;2265100077856</title>
<path fill="none" stroke="black" d="M1381.78,-294.216C1347.97,-276.421 1283.03,-242.246 1271.16,-235.995"/>
</g>
<!-- 2265100077040 -->
<g id="node55" class="node"><title>2265100077040</title>
<ellipse fill="none" stroke="black" cx="1402.27" cy="-234" rx="111.752" ry="18"/>
<text text-anchor="middle" x="1402.27" y="-230.5" font-family="Times New Roman,serif" font-size="15.00">Check wire in short axis</text>
</g>
<!-- 2265100075120&#45;&#45;2265100077040 -->
<g id="edge40" class="edge"><title>2265100075120&#45;&#45;2265100077040</title>
<path fill="none" stroke="black" d="M1402.27,-287.697C1402.27,-276.846 1402.27,-262.917 1402.27,-252.104"/>
</g>
<!-- 2265100076176 -->
<g id="node57" class="node"><title>2265100076176</title>
<ellipse fill="black" stroke="black" cx="1535.27" cy="-234" rx="2.7" ry="2.7"/>
</g>
<!-- 2265100078144&#45;&#45;2265100076176 -->
<g id="edge42" class="edge"><title>2265100078144&#45;&#45;2265100076176</title>
<path fill="none" stroke="black" d="M1535.27,-287.697C1535.27,-269.883 1535.27,-243.769 1535.27,-236.776"/>
</g>
<!-- 2265100078336 -->
<g id="node58" class="node"><title>2265100078336</title>
<ellipse fill="none" stroke="black" cx="1602.27" cy="-234" rx="46.6143" ry="18"/>
<text text-anchor="middle" x="1602.27" y="-230.5" font-family="Times New Roman,serif" font-size="15.00">xor loop</text>
</g>
<!-- 2265100078144&#45;&#45;2265100078336 -->
<g id="edge49" class="edge"><title>2265100078144&#45;&#45;2265100078336</title>
<path fill="none" stroke="black" d="M1549.15,-290.496C1560.11,-279.043 1575.4,-263.069 1586.76,-251.198"/>
</g>
<!-- 2265100075648 -->
<g id="node59" class="node"><title>2265100075648</title>
<ellipse fill="none" stroke="black" cx="1578.27" cy="-162" rx="27" ry="18"/>
<text text-anchor="middle" x="1578.27" y="-158.5" font-family="Times New Roman,serif" font-size="15.00">seq</text>
</g>
<!-- 2265100078336&#45;&#45;2265100075648 -->
<g id="edge47" class="edge"><title>2265100078336&#45;&#45;2265100075648</title>
<path fill="none" stroke="black" d="M1596.46,-216.055C1592.68,-205.049 1587.78,-190.764 1584.02,-179.789"/>
</g>
<!-- 2265100075552 -->
<g id="node64" class="node"><title>2265100075552</title>
<ellipse fill="black" stroke="black" cx="1626.27" cy="-162" rx="2.7" ry="2.7"/>
</g>
<!-- 2265100078336&#45;&#45;2265100075552 -->
<g id="edge48" class="edge"><title>2265100078336&#45;&#45;2265100075552</title>
<path fill="none" stroke="black" d="M1608.08,-216.055C1614.18,-198.252 1623.23,-171.865 1625.65,-164.796"/>
</g>
<!-- 2265100075216 -->
<g id="node60" class="node"><title>2265100075216</title>
<ellipse fill="none" stroke="black" cx="1428.27" cy="-90" rx="109.193" ry="18"/>
<text text-anchor="middle" x="1428.27" y="-86.5" font-family="Times New Roman,serif" font-size="15.00">Check wire in long axis</text>
</g>
<!-- 2265100075648&#45;&#45;2265100075216 -->
<g id="edge43" class="edge"><title>2265100075648&#45;&#45;2265100075216</title>
<path fill="none" stroke="black" d="M1556.77,-150.971C1532.23,-139.516 1491.73,-120.616 1462.75,-107.094"/>
</g>
<!-- 2265100077712 -->
<g id="node61" class="node"><title>2265100077712</title>
<ellipse fill="none" stroke="black" cx="1582.27" cy="-90" rx="27" ry="18"/>
<text text-anchor="middle" x="1582.27" y="-86.5" font-family="Times New Roman,serif" font-size="15.00">xor</text>
</g>
<!-- 2265100075648&#45;&#45;2265100077712 -->
<g id="edge46" class="edge"><title>2265100075648&#45;&#45;2265100077712</title>
<path fill="none" stroke="black" d="M1579.25,-143.697C1579.87,-132.846 1580.67,-118.917 1581.29,-108.104"/>
</g>
<!-- 2265100077376 -->
<g id="node62" class="node"><title>2265100077376</title>
<ellipse fill="black" stroke="black" cx="1461.27" cy="-18" rx="2.7" ry="2.7"/>
</g>
<!-- 2265100077712&#45;&#45;2265100077376 -->
<g id="edge44" class="edge"><title>2265100077712&#45;&#45;2265100077376</title>
<path fill="none" stroke="black" d="M1562.56,-77.5975C1531.75,-59.7767 1474.54,-26.6783 1463.23,-20.1391"/>
</g>
<!-- 2265100078720 -->
<g id="node63" class="node"><title>2265100078720</title>
<ellipse fill="none" stroke="black" cx="1583.27" cy="-18" rx="101.406" ry="18"/>
<text text-anchor="middle" x="1583.27" y="-14.5" font-family="Times New Roman,serif" font-size="15.00">Wire in good position</text>
</g>
<!-- 2265100077712&#45;&#45;2265100078720 -->
<g id="edge45" class="edge"><title>2265100077712&#45;&#45;2265100078720</title>
<path fill="none" stroke="black" d="M1582.51,-71.6966C1582.67,-60.8463 1582.87,-46.9167 1583.02,-36.1043"/>
</g>
<!-- 2265100078480 -->
<g id="node66" class="node"><title>2265100078480</title>
<ellipse fill="black" stroke="black" cx="1669.27" cy="-234" rx="2.7" ry="2.7"/>
</g>
<!-- 2265100076656&#45;&#45;2265100078480 -->
<g id="edge51" class="edge"><title>2265100076656&#45;&#45;2265100078480</title>
<path fill="none" stroke="black" d="M1669.27,-287.697C1669.27,-269.883 1669.27,-243.769 1669.27,-236.776"/>
</g>
<!-- 2265100075168 -->
<g id="node67" class="node"><title>2265100075168</title>
<ellipse fill="none" stroke="black" cx="1736.27" cy="-234" rx="46.6143" ry="18"/>
<text text-anchor="middle" x="1736.27" y="-230.5" font-family="Times New Roman,serif" font-size="15.00">xor loop</text>
</g>
<!-- 2265100076656&#45;&#45;2265100075168 -->
<g id="edge58" class="edge"><title>2265100076656&#45;&#45;2265100075168</title>
<path fill="none" stroke="black" d="M1683.15,-290.496C1694.11,-279.043 1709.4,-263.069 1720.76,-251.198"/>
</g>
<!-- 2264785993680 -->
<g id="node68" class="node"><title>2264785993680</title>
<ellipse fill="none" stroke="black" cx="1718.27" cy="-162" rx="27" ry="18"/>
<text text-anchor="middle" x="1718.27" y="-158.5" font-family="Times New Roman,serif" font-size="15.00">seq</text>
</g>
<!-- 2265100075168&#45;&#45;2264785993680 -->
<g id="edge56" class="edge"><title>2265100075168&#45;&#45;2264785993680</title>
<path fill="none" stroke="black" d="M1731.91,-216.055C1729.08,-205.049 1725.41,-190.764 1722.58,-179.789"/>
</g>
<!-- 2264785993104 -->
<g id="node73" class="node"><title>2264785993104</title>
<ellipse fill="black" stroke="black" cx="1766.27" cy="-162" rx="2.7" ry="2.7"/>
</g>
<!-- 2265100075168&#45;&#45;2264785993104 -->
<g id="edge57" class="edge"><title>2265100075168&#45;&#45;2264785993104</title>
<path fill="none" stroke="black" d="M1743.53,-216.055C1751.16,-198.252 1762.47,-171.865 1765.5,-164.796"/>
</g>
<!-- 2264785990128 -->
<g id="node69" class="node"><title>2264785990128</title>
<ellipse fill="none" stroke="black" cx="1709.27" cy="-90" rx="27" ry="18"/>
<text text-anchor="middle" x="1709.27" y="-86.5" font-family="Times New Roman,serif" font-size="15.00">xor</text>
</g>
<!-- 2264785993680&#45;&#45;2264785990128 -->
<g id="edge54" class="edge"><title>2264785993680&#45;&#45;2264785990128</title>
<path fill="none" stroke="black" d="M1716.09,-144.055C1714.69,-133.211 1712.89,-119.183 1711.49,-108.275"/>
</g>
<!-- 2264785991664 -->
<g id="node72" class="node"><title>2264785991664</title>
<ellipse fill="none" stroke="black" cx="1837.27" cy="-90" rx="82.8824" ry="18"/>
<text text-anchor="middle" x="1837.27" y="-86.5" font-family="Times New Roman,serif" font-size="15.00">Advance catheter</text>
</g>
<!-- 2264785993680&#45;&#45;2264785991664 -->
<g id="edge55" class="edge"><title>2264785993680&#45;&#45;2264785991664</title>
<path fill="none" stroke="black" d="M1737.92,-149.441C1757.59,-137.869 1788.02,-119.97 1810.02,-107.029"/>
</g>
<!-- 2264785992240 -->
<g id="node70" class="node"><title>2264785992240</title>
<ellipse fill="black" stroke="black" cx="1707.27" cy="-18" rx="2.7" ry="2.7"/>
</g>
<!-- 2264785990128&#45;&#45;2264785992240 -->
<g id="edge52" class="edge"><title>2264785990128&#45;&#45;2264785992240</title>
<path fill="none" stroke="black" d="M1708.77,-71.6966C1708.26,-53.8826 1707.52,-27.7686 1707.32,-20.7764"/>
</g>
<!-- 2264785990848 -->
<g id="node71" class="node"><title>2264785990848</title>
<ellipse fill="none" stroke="black" cx="1803.27" cy="-18" rx="75.9851" ry="18"/>
<text text-anchor="middle" x="1803.27" y="-14.5" font-family="Times New Roman,serif" font-size="15.00">Widen pathway</text>
</g>
<!-- 2264785990128&#45;&#45;2264785990848 -->
<g id="edge53" class="edge"><title>2264785990128&#45;&#45;2264785990848</title>
<path fill="none" stroke="black" d="M1726.95,-75.8335C1742.37,-64.3484 1764.81,-47.6406 1781.36,-35.3111"/>
</g>
<!-- 2264721189088 -->
<g id="node77" class="node"><title>2264721189088</title>
<ellipse fill="black" stroke="black" cx="1114.27" cy="-738" rx="2.7" ry="2.7"/>
</g>
<!-- 2265795860656&#45;&#45;2264721189088 -->
<g id="edge69" class="edge"><title>2265795860656&#45;&#45;2264721189088</title>
<path fill="none" stroke="black" d="M1246.53,-799.119C1208.06,-781.633 1130.69,-746.465 1116.52,-740.025"/>
</g>
<!-- 2265100078000 -->
<g id="node78" class="node"><title>2265100078000</title>
<ellipse fill="none" stroke="black" cx="1194.27" cy="-738" rx="59.1301" ry="18"/>
<text text-anchor="middle" x="1194.27" y="-734.5" font-family="Times New Roman,serif" font-size="15.00">Anesthetize</text>
</g>
<!-- 2265795860656&#45;&#45;2265100078000 -->
<g id="edge70" class="edge"><title>2265795860656&#45;&#45;2265100078000</title>
<path fill="none" stroke="black" d="M1253.29,-794.834C1241.21,-783.409 1224.21,-767.326 1211.55,-755.354"/>
</g>
<!-- 2264785990560 -->
<g id="node79" class="node"><title>2264785990560</title>
<ellipse fill="none" stroke="black" cx="1343.27" cy="-738" rx="72.0363" ry="18"/>
<text text-anchor="middle" x="1343.27" y="-734.5" font-family="Times New Roman,serif" font-size="15.00">Position probe</text>
</g>
<!-- 2265795860656&#45;&#45;2264785990560 -->
<g id="edge71" class="edge"><title>2265795860656&#45;&#45;2264785990560</title>
<path fill="none" stroke="black" d="M1283.44,-794.834C1295.6,-783.489 1312.68,-767.551 1325.47,-755.606"/>
</g>
<!-- 2264785993440 -->
<g id="node80" class="node"><title>2264785993440</title>
<ellipse fill="none" stroke="black" cx="1460.27" cy="-738" rx="27" ry="18"/>
<text text-anchor="middle" x="1460.27" y="-734.5" font-family="Times New Roman,serif" font-size="15.00">seq</text>
</g>
<!-- 2265795860656&#45;&#45;2264785993440 -->
<g id="edge80" class="edge"><title>2265795860656&#45;&#45;2264785993440</title>
<path fill="none" stroke="black" d="M1291.43,-800.556C1328.33,-787.102 1400.07,-760.947 1437.02,-747.474"/>
</g>
<!-- 2264785992192 -->
<g id="node89" class="node"><title>2264785992192</title>
<ellipse fill="none" stroke="black" cx="1602.27" cy="-738" rx="97.0675" ry="18"/>
<text text-anchor="middle" x="1602.27" y="-734.5" font-family="Times New Roman,serif" font-size="15.00">Get in sterile clothes</text>
</g>
<!-- 2265795860656&#45;&#45;2264785992192 -->
<g id="edge81" class="edge"><title>2265795860656&#45;&#45;2264785992192</title>
<path fill="none" stroke="black" d="M1293.64,-803.681C1345.78,-792.754 1466.27,-767.502 1540.33,-751.98"/>
</g>
<!-- 2264785989936 -->
<g id="node81" class="node"><title>2264785989936</title>
<ellipse fill="none" stroke="black" cx="1459.27" cy="-666" rx="89.7798" ry="18"/>
<text text-anchor="middle" x="1459.27" y="-662.5" font-family="Times New Roman,serif" font-size="15.00">Remove guidewire</text>
</g>
<!-- 2264785993440&#45;&#45;2264785989936 -->
<g id="edge72" class="edge"><title>2264785993440&#45;&#45;2264785989936</title>
<path fill="none" stroke="black" d="M1460.02,-719.697C1459.86,-708.846 1459.66,-694.917 1459.51,-684.104"/>
</g>
<!-- 2264785990032 -->
<g id="node82" class="node"><title>2264785990032</title>
<ellipse fill="none" stroke="black" cx="1594.27" cy="-666" rx="27" ry="18"/>
<text text-anchor="middle" x="1594.27" y="-662.5" font-family="Times New Roman,serif" font-size="15.00">xor</text>
</g>
<!-- 2264785993440&#45;&#45;2264785990032 -->
<g id="edge79" class="edge"><title>2264785993440&#45;&#45;2264785990032</title>
<path fill="none" stroke="black" d="M1480.91,-726.216C1506.02,-713.1 1548.16,-691.085 1573.38,-677.912"/>
</g>
<!-- 2264785990992 -->
<g id="node83" class="node"><title>2264785990992</title>
<ellipse fill="black" stroke="black" cx="1570.27" cy="-594" rx="2.7" ry="2.7"/>
</g>
<!-- 2264785990032&#45;&#45;2264785990992 -->
<g id="edge73" class="edge"><title>2264785990032&#45;&#45;2264785990992</title>
<path fill="none" stroke="black" d="M1588.46,-648.055C1582.35,-630.252 1573.31,-603.865 1570.88,-596.796"/>
</g>
<!-- 2264785992960 -->
<g id="node84" class="node"><title>2264785992960</title>
<ellipse fill="none" stroke="black" cx="1618.27" cy="-594" rx="27" ry="18"/>
<text text-anchor="middle" x="1618.27" y="-590.5" font-family="Times New Roman,serif" font-size="15.00">and</text>
</g>
<!-- 2264785990032&#45;&#45;2264785992960 -->
<g id="edge78" class="edge"><title>2264785990032&#45;&#45;2264785992960</title>
<path fill="none" stroke="black" d="M1600.08,-648.055C1603.85,-637.049 1608.75,-622.764 1612.51,-611.789"/>
</g>
<!-- 2264785993056 -->
<g id="node85" class="node"><title>2264785993056</title>
<ellipse fill="none" stroke="black" cx="1567.27" cy="-522" rx="27" ry="18"/>
<text text-anchor="middle" x="1567.27" y="-518.5" font-family="Times New Roman,serif" font-size="15.00">xor</text>
</g>
<!-- 2264785992960&#45;&#45;2264785993056 -->
<g id="edge76" class="edge"><title>2264785992960&#45;&#45;2264785993056</title>
<path fill="none" stroke="black" d="M1606.95,-577.465C1598.5,-565.865 1587,-550.082 1578.55,-538.492"/>
</g>
<!-- 2264785991040 -->
<g id="node88" class="node"><title>2264785991040</title>
<ellipse fill="none" stroke="black" cx="1718.27" cy="-522" rx="106.134" ry="18"/>
<text text-anchor="middle" x="1718.27" y="-518.5" font-family="Times New Roman,serif" font-size="15.00">Check flow and reflow</text>
</g>
<!-- 2264785992960&#45;&#45;2264785991040 -->
<g id="edge77" class="edge"><title>2264785992960&#45;&#45;2264785991040</title>
<path fill="none" stroke="black" d="M1636.14,-580.485C1652.44,-569.081 1676.62,-552.154 1694.53,-539.618"/>
</g>
<!-- 2264785991232 -->
<g id="node86" class="node"><title>2264785991232</title>
<ellipse fill="black" stroke="black" cx="1566.27" cy="-450" rx="2.7" ry="2.7"/>
</g>
<!-- 2264785993056&#45;&#45;2264785991232 -->
<g id="edge74" class="edge"><title>2264785993056&#45;&#45;2264785991232</title>
<path fill="none" stroke="black" d="M1567.02,-503.697C1566.76,-485.883 1566.39,-459.769 1566.29,-452.776"/>
</g>
<!-- 2264785992096 -->
<g id="node87" class="node"><title>2264785992096</title>
<ellipse fill="none" stroke="black" cx="1694.27" cy="-450" rx="107.914" ry="18"/>
<text text-anchor="middle" x="1694.27" y="-446.5" font-family="Times New Roman,serif" font-size="15.00">Check catheter position</text>
</g>
<!-- 2264785993056&#45;&#45;2264785992096 -->
<g id="edge75" class="edge"><title>2264785993056&#45;&#45;2264785992096</title>
<path fill="none" stroke="black" d="M1587.39,-509.908C1608.09,-498.497 1640.58,-480.591 1664.3,-467.514"/>
</g>
</g>
</svg>
