<?xml version="1.0" encoding="UTF-8" standalone="no"?>
<!DOCTYPE svg PUBLIC "-//W3C//DTD SVG 1.1//EN"
 "http://www.w3.org/Graphics/SVG/1.1/DTD/svg11.dtd">
<!-- Generated by graphviz version 2.38.0 (20140413.2041)
 -->
<!-- Title: pt Pages: 1 -->
<svg width="3035pt" height="404pt"
 viewBox="0.00 0.00 3035.04 404.00" xmlns="http://www.w3.org/2000/svg" xmlns:xlink="http://www.w3.org/1999/xlink">
<g id="graph0" class="graph" transform="scale(1 1) rotate(0) translate(4 400)">
<title>pt</title>
<!-- 2264718473008 -->
<g id="node1" class="node"><title>2264718473008</title>
<ellipse fill="none" stroke="black" cx="1967.33" cy="-378" rx="27" ry="18"/>
<text text-anchor="middle" x="1967.33" y="-374.5" font-family="Times New Roman,serif" font-size="15.00">seq</text>
</g>
<!-- 2264718473296 -->
<g id="node2" class="node"><title>2264718473296</title>
<ellipse fill="none" stroke="black" cx="984.335" cy="-306" rx="27" ry="18"/>
<text text-anchor="middle" x="984.335" y="-302.5" font-family="Times New Roman,serif" font-size="15.00">and</text>
</g>
<!-- 2264718473008&#45;&#45;2264718473296 -->
<g id="edge23" class="edge"><title>2264718473008&#45;&#45;2264718473296</title>
<path fill="none" stroke="black" d="M1940.53,-375.091C1800.22,-365.099 1151.37,-318.895 1011.11,-308.907"/>
</g>
<!-- 2264718473344 -->
<g id="node25" class="node"><title>2264718473344</title>
<ellipse fill="none" stroke="black" cx="1340.33" cy="-306" rx="63.8584" ry="18"/>
<text text-anchor="middle" x="1340.33" y="-302.5" font-family="Times New Roman,serif" font-size="15.00">Blood return</text>
</g>
<!-- 2264718473008&#45;&#45;2264718473344 -->
<g id="edge24" class="edge"><title>2264718473008&#45;&#45;2264718473344</title>
<path fill="none" stroke="black" d="M1940.79,-374.037C1847.09,-363.576 1530.37,-328.216 1398.6,-313.505"/>
</g>
<!-- 2264720242288 -->
<g id="node26" class="node"><title>2264720242288</title>
<ellipse fill="none" stroke="black" cx="1482.33" cy="-306" rx="59.5207" ry="18"/>
<text text-anchor="middle" x="1482.33" y="-302.5" font-family="Times New Roman,serif" font-size="15.00">Drop probe</text>
</g>
<!-- 2264718473008&#45;&#45;2264720242288 -->
<g id="edge25" class="edge"><title>2264718473008&#45;&#45;2264720242288</title>
<path fill="none" stroke="black" d="M1941.26,-373.236C1864.52,-362.161 1638.41,-329.527 1535.02,-314.604"/>
</g>
<!-- 2264720242432 -->
<g id="node27" class="node"><title>2264720242432</title>
<ellipse fill="none" stroke="black" cx="1638.33" cy="-306" rx="77.654" ry="18"/>
<text text-anchor="middle" x="1638.33" y="-302.5" font-family="Times New Roman,serif" font-size="15.00">Remove syringe</text>
</g>
<!-- 2264718473008&#45;&#45;2264720242432 -->
<g id="edge26" class="edge"><title>2264718473008&#45;&#45;2264720242432</title>
<path fill="none" stroke="black" d="M1942.06,-371.623C1889.18,-360.37 1765.75,-334.11 1693.57,-318.752"/>
</g>
<!-- 2264720242576 -->
<g id="node28" class="node"><title>2264720242576</title>
<ellipse fill="none" stroke="black" cx="1818.33" cy="-306" rx="84.1616" ry="18"/>
<text text-anchor="middle" x="1818.33" y="-302.5" font-family="Times New Roman,serif" font-size="15.00">Guidewire install</text>
</g>
<!-- 2264718473008&#45;&#45;2264720242576 -->
<g id="edge27" class="edge"><title>2264718473008&#45;&#45;2264720242576</title>
<path fill="none" stroke="black" d="M1945.99,-366.971C1921.28,-355.365 1880.31,-336.116 1851.46,-322.562"/>
</g>
<!-- 2264720242720 -->
<g id="node29" class="node"><title>2264720242720</title>
<ellipse fill="none" stroke="black" cx="1967.33" cy="-306" rx="46.6143" ry="18"/>
<text text-anchor="middle" x="1967.33" y="-302.5" font-family="Times New Roman,serif" font-size="15.00">xor loop</text>
</g>
<!-- 2264718473008&#45;&#45;2264720242720 -->
<g id="edge32" class="edge"><title>2264718473008&#45;&#45;2264720242720</title>
<path fill="none" stroke="black" d="M1967.33,-359.697C1967.33,-348.846 1967.33,-334.917 1967.33,-324.104"/>
</g>
<!-- 2264720242864 -->
<g id="node34" class="node"><title>2264720242864</title>
<ellipse fill="none" stroke="black" cx="2107.33" cy="-306" rx="75.9851" ry="18"/>
<text text-anchor="middle" x="2107.33" y="-302.5" font-family="Times New Roman,serif" font-size="15.00">Widen pathway</text>
</g>
<!-- 2264718473008&#45;&#45;2264720242864 -->
<g id="edge33" class="edge"><title>2264718473008&#45;&#45;2264720242864</title>
<path fill="none" stroke="black" d="M1988.29,-366.52C2011.64,-354.849 2049.6,-335.869 2076.37,-322.484"/>
</g>
<!-- 2264720243584 -->
<g id="node35" class="node"><title>2264720243584</title>
<ellipse fill="none" stroke="black" cx="2283.33" cy="-306" rx="82.8824" ry="18"/>
<text text-anchor="middle" x="2283.33" y="-302.5" font-family="Times New Roman,serif" font-size="15.00">Advance catheter</text>
</g>
<!-- 2264718473008&#45;&#45;2264720243584 -->
<g id="edge34" class="edge"><title>2264718473008&#45;&#45;2264720243584</title>
<path fill="none" stroke="black" d="M1992.66,-371.39C2043.33,-360.165 2158.26,-334.705 2227.46,-319.377"/>
</g>
<!-- 2264720243728 -->
<g id="node36" class="node"><title>2264720243728</title>
<ellipse fill="none" stroke="black" cx="2473.33" cy="-306" rx="89.7798" ry="18"/>
<text text-anchor="middle" x="2473.33" y="-302.5" font-family="Times New Roman,serif" font-size="15.00">Remove guidewire</text>
</g>
<!-- 2264718473008&#45;&#45;2264720243728 -->
<g id="edge35" class="edge"><title>2264718473008&#45;&#45;2264720243728</title>
<path fill="none" stroke="black" d="M1993.47,-373.384C2068.66,-362.983 2287.37,-332.726 2401.75,-316.904"/>
</g>
<!-- 2264720243872 -->
<g id="node37" class="node"><title>2264720243872</title>
<ellipse fill="none" stroke="black" cx="2687.33" cy="-306" rx="106.134" ry="18"/>
<text text-anchor="middle" x="2687.33" y="-302.5" font-family="Times New Roman,serif" font-size="15.00">Check flow and reflow</text>
</g>
<!-- 2264718473008&#45;&#45;2264720243872 -->
<g id="edge36" class="edge"><title>2264718473008&#45;&#45;2264720243872</title>
<path fill="none" stroke="black" d="M1993.81,-374.426C2091.3,-364.948 2433.08,-331.72 2597.56,-315.728"/>
</g>
<!-- 2264720244016 -->
<g id="node38" class="node"><title>2264720244016</title>
<ellipse fill="none" stroke="black" cx="2919.33" cy="-306" rx="107.914" ry="18"/>
<text text-anchor="middle" x="2919.33" y="-302.5" font-family="Times New Roman,serif" font-size="15.00">Check catheter position</text>
</g>
<!-- 2264718473008&#45;&#45;2264720244016 -->
<g id="edge37" class="edge"><title>2264718473008&#45;&#45;2264720244016</title>
<path fill="none" stroke="black" d="M1994.04,-375.036C2114.54,-366.176 2610.93,-329.677 2822.79,-314.099"/>
</g>
<!-- 2264718473584 -->
<g id="node3" class="node"><title>2264718473584</title>
<ellipse fill="none" stroke="black" cx="90.3347" cy="-234" rx="90.1697" ry="18"/>
<text text-anchor="middle" x="90.3347" y="-230.5" font-family="Times New Roman,serif" font-size="15.00">Drap puncture area</text>
</g>
<!-- 2264718473296&#45;&#45;2264718473584 -->
<g id="edge1" class="edge"><title>2264718473296&#45;&#45;2264718473584</title>
<path fill="none" stroke="black" d="M957.579,-302.905C839.915,-293.692 365.759,-256.566 172.716,-241.45"/>
</g>
<!-- 2264718473776 -->
<g id="node4" class="node"><title>2264718473776</title>
<ellipse fill="none" stroke="black" cx="262.335" cy="-234" rx="63.8584" ry="18"/>
<text text-anchor="middle" x="262.335" y="-230.5" font-family="Times New Roman,serif" font-size="15.00">Gel in probe</text>
</g>
<!-- 2264718473296&#45;&#45;2264718473776 -->
<g id="edge2" class="edge"><title>2264718473296&#45;&#45;2264718473776</title>
<path fill="none" stroke="black" d="M957.782,-302.426C853.474,-292.313 470.266,-255.16 321.721,-240.758"/>
</g>
<!-- 2264718473872 -->
<g id="node5" class="node"><title>2264718473872</title>
<ellipse fill="none" stroke="black" cx="408.335" cy="-234" rx="63.8584" ry="18"/>
<text text-anchor="middle" x="408.335" y="-230.5" font-family="Times New Roman,serif" font-size="15.00">Cover probe</text>
</g>
<!-- 2264718473296&#45;&#45;2264718473872 -->
<g id="edge3" class="edge"><title>2264718473296&#45;&#45;2264718473872</title>
<path fill="none" stroke="black" d="M957.708,-301.764C869.871,-291.089 587.95,-256.828 465.737,-241.976"/>
</g>
<!-- 2264718474016 -->
<g id="node6" class="node"><title>2264718474016</title>
<ellipse fill="none" stroke="black" cx="536.335" cy="-234" rx="46.6143" ry="18"/>
<text text-anchor="middle" x="536.335" y="-230.5" font-family="Times New Roman,serif" font-size="15.00">xor loop</text>
</g>
<!-- 2264718473296&#45;&#45;2264718474016 -->
<g id="edge10" class="edge"><title>2264718473296&#45;&#45;2264718474016</title>
<path fill="none" stroke="black" d="M958.312,-300.934C883.987,-289.321 670.229,-255.921 578.724,-241.623"/>
</g>
<!-- 2264718474208 -->
<g id="node13" class="node"><title>2264718474208</title>
<ellipse fill="none" stroke="black" cx="660.335" cy="-234" rx="59.1301" ry="18"/>
<text text-anchor="middle" x="660.335" y="-230.5" font-family="Times New Roman,serif" font-size="15.00">Anesthetize</text>
</g>
<!-- 2264718473296&#45;&#45;2264718474208 -->
<g id="edge11" class="edge"><title>2264718473296&#45;&#45;2264718474208</title>
<path fill="none" stroke="black" d="M958.911,-299.507C904.61,-287.775 776.608,-260.121 707.144,-245.113"/>
</g>
<!-- 2264718475216 -->
<g id="node14" class="node"><title>2264718475216</title>
<ellipse fill="none" stroke="black" cx="805.335" cy="-234" rx="68.1971" ry="18"/>
<text text-anchor="middle" x="805.335" y="-230.5" font-family="Times New Roman,serif" font-size="15.00">Put sterile gel</text>
</g>
<!-- 2264718473296&#45;&#45;2264718475216 -->
<g id="edge12" class="edge"><title>2264718473296&#45;&#45;2264718475216</title>
<path fill="none" stroke="black" d="M961.664,-296.134C931.466,-284.325 877.685,-263.293 841.762,-249.245"/>
</g>
<!-- 2264720240800 -->
<g id="node15" class="node"><title>2264720240800</title>
<ellipse fill="none" stroke="black" cx="984.335" cy="-234" rx="93.2286" ry="18"/>
<text text-anchor="middle" x="984.335" y="-230.5" font-family="Times New Roman,serif" font-size="15.00">Clean puncture area</text>
</g>
<!-- 2264718473296&#45;&#45;2264720240800 -->
<g id="edge13" class="edge"><title>2264718473296&#45;&#45;2264720240800</title>
<path fill="none" stroke="black" d="M984.335,-287.697C984.335,-276.846 984.335,-262.917 984.335,-252.104"/>
</g>
<!-- 2264720240944 -->
<g id="node16" class="node"><title>2264720240944</title>
<ellipse fill="none" stroke="black" cx="1142.33" cy="-234" rx="46.6143" ry="18"/>
<text text-anchor="middle" x="1142.33" y="-230.5" font-family="Times New Roman,serif" font-size="15.00">xor loop</text>
</g>
<!-- 2264718473296&#45;&#45;2264720240944 -->
<g id="edge16" class="edge"><title>2264718473296&#45;&#45;2264720240944</title>
<path fill="none" stroke="black" d="M1006.3,-295.267C1034.03,-282.983 1081.83,-261.807 1112.75,-248.107"/>
</g>
<!-- 2264720241088 -->
<g id="node19" class="node"><title>2264720241088</title>
<ellipse fill="none" stroke="black" cx="1254.33" cy="-234" rx="47.0053" ry="18"/>
<text text-anchor="middle" x="1254.33" y="-230.5" font-family="Times New Roman,serif" font-size="15.00">Puncture</text>
</g>
<!-- 2264718473296&#45;&#45;2264720241088 -->
<g id="edge17" class="edge"><title>2264718473296&#45;&#45;2264720241088</title>
<path fill="none" stroke="black" d="M1009.25,-298.54C1056.64,-286.254 1160.03,-259.45 1216.19,-244.89"/>
</g>
<!-- 2264720241520 -->
<g id="node20" class="node"><title>2264720241520</title>
<ellipse fill="none" stroke="black" cx="1412.33" cy="-234" rx="93.2286" ry="18"/>
<text text-anchor="middle" x="1412.33" y="-230.5" font-family="Times New Roman,serif" font-size="15.00">Prepare implements</text>
</g>
<!-- 2264718473296&#45;&#45;2264720241520 -->
<g id="edge18" class="edge"><title>2264718473296&#45;&#45;2264720241520</title>
<path fill="none" stroke="black" d="M1010.46,-300.727C1075.62,-290.07 1246.98,-262.044 1343.58,-246.245"/>
</g>
<!-- 2264720241664 -->
<g id="node21" class="node"><title>2264720241664</title>
<ellipse fill="none" stroke="black" cx="1646.33" cy="-234" rx="122.988" ry="18"/>
<text text-anchor="middle" x="1646.33" y="-230.5" font-family="Times New Roman,serif" font-size="15.00">Compression identification</text>
</g>
<!-- 2264718473296&#45;&#45;2264720241664 -->
<g id="edge19" class="edge"><title>2264718473296&#45;&#45;2264720241664</title>
<path fill="none" stroke="black" d="M1011.11,-302.169C1101.03,-292.661 1395.25,-261.549 1549.7,-245.219"/>
</g>
<!-- 2264720241808 -->
<g id="node22" class="node"><title>2264720241808</title>
<ellipse fill="none" stroke="black" cx="1834.33" cy="-234" rx="46.6143" ry="18"/>
<text text-anchor="middle" x="1834.33" y="-230.5" font-family="Times New Roman,serif" font-size="15.00">xor loop</text>
</g>
<!-- 2264718473296&#45;&#45;2264720241808 -->
<g id="edge22" class="edge"><title>2264718473296&#45;&#45;2264720241808</title>
<path fill="none" stroke="black" d="M1011.18,-302.789C1133.09,-292.75 1635.29,-251.392 1789.25,-238.713"/>
</g>
<!-- 2264718474304 -->
<g id="node7" class="node"><title>2264718474304</title>
<ellipse fill="none" stroke="black" cx="512.335" cy="-162" rx="27" ry="18"/>
<text text-anchor="middle" x="512.335" y="-158.5" font-family="Times New Roman,serif" font-size="15.00">seq</text>
</g>
<!-- 2264718474016&#45;&#45;2264718474304 -->
<g id="edge8" class="edge"><title>2264718474016&#45;&#45;2264718474304</title>
<path fill="none" stroke="black" d="M530.525,-216.055C526.752,-205.049 521.854,-190.764 518.091,-179.789"/>
</g>
<!-- 2264718474448 -->
<g id="node12" class="node"><title>2264718474448</title>
<ellipse fill="black" stroke="black" cx="560.335" cy="-162" rx="2.7" ry="2.7"/>
</g>
<!-- 2264718474016&#45;&#45;2264718474448 -->
<g id="edge9" class="edge"><title>2264718474016&#45;&#45;2264718474448</title>
<path fill="none" stroke="black" d="M542.144,-216.055C548.248,-198.252 557.295,-171.865 559.719,-164.796"/>
</g>
<!-- 2264718474544 -->
<g id="node8" class="node"><title>2264718474544</title>
<ellipse fill="none" stroke="black" cx="445.335" cy="-90" rx="70.3667" ry="18"/>
<text text-anchor="middle" x="445.335" y="-86.5" font-family="Times New Roman,serif" font-size="15.00">Hand washing</text>
</g>
<!-- 2264718474304&#45;&#45;2264718474544 -->
<g id="edge4" class="edge"><title>2264718474304&#45;&#45;2264718474544</title>
<path fill="none" stroke="black" d="M498.452,-146.496C487.643,-135.203 472.627,-119.515 461.318,-107.699"/>
</g>
<!-- 2264718474688 -->
<g id="node9" class="node"><title>2264718474688</title>
<ellipse fill="none" stroke="black" cx="580.335" cy="-90" rx="46.6143" ry="18"/>
<text text-anchor="middle" x="580.335" y="-86.5" font-family="Times New Roman,serif" font-size="15.00">xor loop</text>
</g>
<!-- 2264718474304&#45;&#45;2264718474688 -->
<g id="edge7" class="edge"><title>2264718474304&#45;&#45;2264718474688</title>
<path fill="none" stroke="black" d="M526.424,-146.496C537.55,-135.043 553.068,-119.069 564.599,-107.198"/>
</g>
<!-- 2264718474928 -->
<g id="node10" class="node"><title>2264718474928</title>
<ellipse fill="none" stroke="black" cx="513.335" cy="-18" rx="113.032" ry="18"/>
<text text-anchor="middle" x="513.335" y="-14.5" font-family="Times New Roman,serif" font-size="15.00">Ultrasound configuration</text>
</g>
<!-- 2264718474688&#45;&#45;2264718474928 -->
<g id="edge5" class="edge"><title>2264718474688&#45;&#45;2264718474928</title>
<path fill="none" stroke="black" d="M564.795,-72.7646C554.28,-61.7791 540.414,-47.2919 529.725,-36.1239"/>
</g>
<!-- 2264718475072 -->
<g id="node11" class="node"><title>2264718475072</title>
<ellipse fill="black" stroke="black" cx="647.335" cy="-18" rx="2.7" ry="2.7"/>
</g>
<!-- 2264718474688&#45;&#45;2264718475072 -->
<g id="edge6" class="edge"><title>2264718474688&#45;&#45;2264718475072</title>
<path fill="none" stroke="black" d="M595.874,-72.7646C613.193,-54.6708 639.603,-27.0776 645.935,-20.462"/>
</g>
<!-- 2264720241184 -->
<g id="node17" class="node"><title>2264720241184</title>
<ellipse fill="none" stroke="black" cx="1077.33" cy="-162" rx="108.303" ry="18"/>
<text text-anchor="middle" x="1077.33" y="-158.5" font-family="Times New Roman,serif" font-size="15.00">Anatomic identification</text>
</g>
<!-- 2264720240944&#45;&#45;2264720241184 -->
<g id="edge14" class="edge"><title>2264720240944&#45;&#45;2264720241184</title>
<path fill="none" stroke="black" d="M1127.26,-216.765C1117.06,-205.779 1103.61,-191.292 1093.24,-180.124"/>
</g>
<!-- 2264720241328 -->
<g id="node18" class="node"><title>2264720241328</title>
<ellipse fill="black" stroke="black" cx="1206.33" cy="-162" rx="2.7" ry="2.7"/>
</g>
<!-- 2264720240944&#45;&#45;2264720241328 -->
<g id="edge15" class="edge"><title>2264720240944&#45;&#45;2264720241328</title>
<path fill="none" stroke="black" d="M1157.18,-216.765C1173.72,-198.671 1198.95,-171.078 1205,-164.462"/>
</g>
<!-- 2264720242048 -->
<g id="node23" class="node"><title>2264720242048</title>
<ellipse fill="none" stroke="black" cx="1716.33" cy="-162" rx="97.0675" ry="18"/>
<text text-anchor="middle" x="1716.33" y="-158.5" font-family="Times New Roman,serif" font-size="15.00">Get in sterile clothes</text>
</g>
<!-- 2264720241808&#45;&#45;2264720242048 -->
<g id="edge20" class="edge"><title>2264720241808&#45;&#45;2264720242048</title>
<path fill="none" stroke="black" d="M1809.89,-218.496C1790.71,-207.123 1764.03,-191.292 1744.06,-179.448"/>
</g>
<!-- 2264720242192 -->
<g id="node24" class="node"><title>2264720242192</title>
<ellipse fill="black" stroke="black" cx="1834.33" cy="-162" rx="2.7" ry="2.7"/>
</g>
<!-- 2264720241808&#45;&#45;2264720242192 -->
<g id="edge21" class="edge"><title>2264720241808&#45;&#45;2264720242192</title>
<path fill="none" stroke="black" d="M1834.33,-215.697C1834.33,-197.883 1834.33,-171.769 1834.33,-164.776"/>
</g>
<!-- 2264720242960 -->
<g id="node30" class="node"><title>2264720242960</title>
<ellipse fill="none" stroke="black" cx="1967.33" cy="-234" rx="27" ry="18"/>
<text text-anchor="middle" x="1967.33" y="-230.5" font-family="Times New Roman,serif" font-size="15.00">seq</text>
</g>
<!-- 2264720242720&#45;&#45;2264720242960 -->
<g id="edge30" class="edge"><title>2264720242720&#45;&#45;2264720242960</title>
<path fill="none" stroke="black" d="M1967.33,-287.697C1967.33,-276.846 1967.33,-262.917 1967.33,-252.104"/>
</g>
<!-- 2264720243104 -->
<g id="node33" class="node"><title>2264720243104</title>
<ellipse fill="none" stroke="black" cx="2084.33" cy="-234" rx="72.0363" ry="18"/>
<text text-anchor="middle" x="2084.33" y="-230.5" font-family="Times New Roman,serif" font-size="15.00">Remove trocar</text>
</g>
<!-- 2264720242720&#45;&#45;2264720243104 -->
<g id="edge31" class="edge"><title>2264720242720&#45;&#45;2264720243104</title>
<path fill="none" stroke="black" d="M1991.58,-290.496C2010.85,-278.963 2037.79,-262.845 2057.68,-250.95"/>
</g>
<!-- 2264720243200 -->
<g id="node31" class="node"><title>2264720243200</title>
<ellipse fill="none" stroke="black" cx="1967.33" cy="-162" rx="111.752" ry="18"/>
<text text-anchor="middle" x="1967.33" y="-158.5" font-family="Times New Roman,serif" font-size="15.00">Check wire in short axis</text>
</g>
<!-- 2264720242960&#45;&#45;2264720243200 -->
<g id="edge28" class="edge"><title>2264720242960&#45;&#45;2264720243200</title>
<path fill="none" stroke="black" d="M1967.33,-215.697C1967.33,-204.846 1967.33,-190.917 1967.33,-180.104"/>
</g>
<!-- 2264720243344 -->
<g id="node32" class="node"><title>2264720243344</title>
<ellipse fill="none" stroke="black" cx="2206.33" cy="-162" rx="109.193" ry="18"/>
<text text-anchor="middle" x="2206.33" y="-158.5" font-family="Times New Roman,serif" font-size="15.00">Check wire in long axis</text>
</g>
<!-- 2264720242960&#45;&#45;2264720243344 -->
<g id="edge29" class="edge"><title>2264720242960&#45;&#45;2264720243344</title>
<path fill="none" stroke="black" d="M1991.57,-225.903C2029.78,-214.711 2104.87,-192.717 2155.34,-177.934"/>
</g>
</g>
</svg>
