<?xml version="1.0" encoding="UTF-8" standalone="no"?>
<!DOCTYPE svg PUBLIC "-//W3C//DTD SVG 1.1//EN"
 "http://www.w3.org/Graphics/SVG/1.1/DTD/svg11.dtd">
<!-- Generated by graphviz version 2.38.0 (20140413.2041)
 -->
<!-- Title: pt Pages: 1 -->
<svg width="2425pt" height="980pt"
 viewBox="0.00 0.00 2424.65 980.00" xmlns="http://www.w3.org/2000/svg" xmlns:xlink="http://www.w3.org/1999/xlink">
<g id="graph0" class="graph" transform="scale(1 1) rotate(0) translate(4 976)">
<title>pt</title>
<!-- 2264720936816 -->
<g id="node1" class="node"><title>2264720936816</title>
<ellipse fill="none" stroke="black" cx="1109.33" cy="-954" rx="27" ry="18"/>
<text text-anchor="middle" x="1109.33" y="-950.5" font-family="Times New Roman,serif" font-size="15.00">seq</text>
</g>
<!-- 2264720934800 -->
<g id="node2" class="node"><title>2264720934800</title>
<ellipse fill="none" stroke="black" cx="522.335" cy="-882" rx="27" ry="18"/>
<text text-anchor="middle" x="522.335" y="-878.5" font-family="Times New Roman,serif" font-size="15.00">and</text>
</g>
<!-- 2264720936816&#45;&#45;2264720934800 -->
<g id="edge74" class="edge"><title>2264720936816&#45;&#45;2264720934800</title>
<path fill="none" stroke="black" d="M1082.97,-949.856C985.484,-938.231 645.993,-897.746 548.625,-886.135"/>
</g>
<!-- 2264718380960 -->
<g id="node76" class="node"><title>2264718380960</title>
<ellipse fill="none" stroke="black" cx="631.335" cy="-882" rx="63.8584" ry="18"/>
<text text-anchor="middle" x="631.335" y="-878.5" font-family="Times New Roman,serif" font-size="15.00">Blood return</text>
</g>
<!-- 2264720936816&#45;&#45;2264718380960 -->
<g id="edge75" class="edge"><title>2264720936816&#45;&#45;2264718380960</title>
<path fill="none" stroke="black" d="M1083.3,-949.187C1008.19,-938.188 789.966,-906.231 686.716,-891.11"/>
</g>
<!-- 2264718379184 -->
<g id="node77" class="node"><title>2264718379184</title>
<ellipse fill="none" stroke="black" cx="773.335" cy="-882" rx="59.5207" ry="18"/>
<text text-anchor="middle" x="773.335" y="-878.5" font-family="Times New Roman,serif" font-size="15.00">Drop probe</text>
</g>
<!-- 2264720936816&#45;&#45;2264718379184 -->
<g id="edge76" class="edge"><title>2264720936816&#45;&#45;2264718379184</title>
<path fill="none" stroke="black" d="M1083.8,-947.681C1027.75,-936.004 893.187,-907.969 821,-892.93"/>
</g>
<!-- 2264718379904 -->
<g id="node78" class="node"><title>2264718379904</title>
<ellipse fill="none" stroke="black" cx="929.335" cy="-882" rx="77.654" ry="18"/>
<text text-anchor="middle" x="929.335" y="-878.5" font-family="Times New Roman,serif" font-size="15.00">Remove syringe</text>
</g>
<!-- 2264720936816&#45;&#45;2264718379904 -->
<g id="edge77" class="edge"><title>2264720936816&#45;&#45;2264718379904</title>
<path fill="none" stroke="black" d="M1086.54,-944.134C1056.55,-932.472 1003.43,-911.816 967.324,-897.774"/>
</g>
<!-- 2264718347664 -->
<g id="node79" class="node"><title>2264718347664</title>
<ellipse fill="none" stroke="black" cx="1109.33" cy="-882" rx="84.1616" ry="18"/>
<text text-anchor="middle" x="1109.33" y="-878.5" font-family="Times New Roman,serif" font-size="15.00">Guidewire install</text>
</g>
<!-- 2264720936816&#45;&#45;2264718347664 -->
<g id="edge78" class="edge"><title>2264720936816&#45;&#45;2264718347664</title>
<path fill="none" stroke="black" d="M1109.33,-935.697C1109.33,-924.846 1109.33,-910.917 1109.33,-900.104"/>
</g>
<!-- 2264718345408 -->
<g id="node80" class="node"><title>2264718345408</title>
<ellipse fill="none" stroke="black" cx="1238.33" cy="-882" rx="27" ry="18"/>
<text text-anchor="middle" x="1238.33" y="-878.5" font-family="Times New Roman,serif" font-size="15.00">and</text>
</g>
<!-- 2264720936816&#45;&#45;2264718345408 -->
<g id="edge85" class="edge"><title>2264720936816&#45;&#45;2264718345408</title>
<path fill="none" stroke="black" d="M1129.78,-941.908C1153.93,-928.801 1193.88,-907.124 1217.99,-894.04"/>
</g>
<!-- 2264718344400 -->
<g id="node87" class="node"><title>2264718344400</title>
<ellipse fill="none" stroke="black" cx="1359.33" cy="-882" rx="75.9851" ry="18"/>
<text text-anchor="middle" x="1359.33" y="-878.5" font-family="Times New Roman,serif" font-size="15.00">Widen pathway</text>
</g>
<!-- 2264720936816&#45;&#45;2264718344400 -->
<g id="edge86" class="edge"><title>2264720936816&#45;&#45;2264718344400</title>
<path fill="none" stroke="black" d="M1133.76,-946.161C1175.04,-934.602 1259.29,-911.013 1312.33,-896.161"/>
</g>
<!-- 2264718345024 -->
<g id="node88" class="node"><title>2264718345024</title>
<ellipse fill="none" stroke="black" cx="1535.33" cy="-882" rx="82.8824" ry="18"/>
<text text-anchor="middle" x="1535.33" y="-878.5" font-family="Times New Roman,serif" font-size="15.00">Advance catheter</text>
</g>
<!-- 2264720936816&#45;&#45;2264718345024 -->
<g id="edge87" class="edge"><title>2264720936816&#45;&#45;2264718345024</title>
<path fill="none" stroke="black" d="M1135.34,-948.727C1201.19,-937.907 1376.01,-909.181 1471.27,-893.528"/>
</g>
<!-- 2264718345264 -->
<g id="node89" class="node"><title>2264718345264</title>
<ellipse fill="none" stroke="black" cx="1663.33" cy="-882" rx="27" ry="18"/>
<text text-anchor="middle" x="1663.33" y="-878.5" font-family="Times New Roman,serif" font-size="15.00">xor</text>
</g>
<!-- 2264720936816&#45;&#45;2264718345264 -->
<g id="edge93" class="edge"><title>2264720936816&#45;&#45;2264718345264</title>
<path fill="none" stroke="black" d="M1135.68,-949.671C1229.01,-937.879 1543.25,-898.174 1636.83,-886.35"/>
</g>
<!-- 2264718902896 -->
<g id="node3" class="node"><title>2264718902896</title>
<ellipse fill="none" stroke="black" cx="90.3347" cy="-810" rx="90.1697" ry="18"/>
<text text-anchor="middle" x="90.3347" y="-806.5" font-family="Times New Roman,serif" font-size="15.00">Drap puncture area</text>
</g>
<!-- 2264720934800&#45;&#45;2264718902896 -->
<g id="edge1" class="edge"><title>2264720934800&#45;&#45;2264718902896</title>
<path fill="none" stroke="black" d="M496.284,-876.779C430.431,-866.108 255.629,-837.784 158.251,-822.005"/>
</g>
<!-- 2264718903088 -->
<g id="node4" class="node"><title>2264718903088</title>
<ellipse fill="none" stroke="black" cx="262.335" cy="-810" rx="63.8584" ry="18"/>
<text text-anchor="middle" x="262.335" y="-806.5" font-family="Times New Roman,serif" font-size="15.00">Gel in probe</text>
</g>
<!-- 2264720934800&#45;&#45;2264718903088 -->
<g id="edge2" class="edge"><title>2264720934800&#45;&#45;2264718903088</title>
<path fill="none" stroke="black" d="M497.405,-874.288C453.555,-862.482 362.067,-837.851 307.051,-823.039"/>
</g>
<!-- 2264718902368 -->
<g id="node5" class="node"><title>2264718902368</title>
<ellipse fill="none" stroke="black" cx="408.335" cy="-810" rx="63.8584" ry="18"/>
<text text-anchor="middle" x="408.335" y="-806.5" font-family="Times New Roman,serif" font-size="15.00">Cover probe</text>
</g>
<!-- 2264720934800&#45;&#45;2264718902368 -->
<g id="edge3" class="edge"><title>2264720934800&#45;&#45;2264718902368</title>
<path fill="none" stroke="black" d="M502.996,-869.125C483.939,-857.424 454.715,-839.479 433.781,-826.625"/>
</g>
<!-- 2264718904816 -->
<g id="node6" class="node"><title>2264718904816</title>
<ellipse fill="none" stroke="black" cx="583.335" cy="-810" rx="93.2286" ry="18"/>
<text text-anchor="middle" x="583.335" y="-806.5" font-family="Times New Roman,serif" font-size="15.00">Clean puncture area</text>
</g>
<!-- 2264720934800&#45;&#45;2264718904816 -->
<g id="edge4" class="edge"><title>2264720934800&#45;&#45;2264718904816</title>
<path fill="none" stroke="black" d="M535.271,-866.155C545.064,-854.918 558.52,-839.476 568.704,-827.789"/>
</g>
<!-- 2264718901600 -->
<g id="node7" class="node"><title>2264718901600</title>
<ellipse fill="none" stroke="black" cx="817.335" cy="-810" rx="122.988" ry="18"/>
<text text-anchor="middle" x="817.335" y="-806.5" font-family="Times New Roman,serif" font-size="15.00">Compression identification</text>
</g>
<!-- 2264720934800&#45;&#45;2264718901600 -->
<g id="edge5" class="edge"><title>2264720934800&#45;&#45;2264718901600</title>
<path fill="none" stroke="black" d="M547.486,-875.032C593.258,-864.171 691.379,-840.888 755.832,-825.594"/>
</g>
<!-- 2264718903520 -->
<g id="node8" class="node"><title>2264718903520</title>
<ellipse fill="none" stroke="black" cx="1005.33" cy="-810" rx="46.6143" ry="18"/>
<text text-anchor="middle" x="1005.33" y="-806.5" font-family="Times New Roman,serif" font-size="15.00">xor loop</text>
</g>
<!-- 2264720934800&#45;&#45;2264718903520 -->
<g id="edge73" class="edge"><title>2264720934800&#45;&#45;2264718903520</title>
<path fill="none" stroke="black" d="M548.646,-877.187C627.881,-865.703 864.773,-831.371 962.476,-817.211"/>
</g>
<!-- 2264718901648 -->
<g id="node9" class="node"><title>2264718901648</title>
<ellipse fill="none" stroke="black" cx="971.335" cy="-738" rx="46.6143" ry="18"/>
<text text-anchor="middle" x="971.335" y="-734.5" font-family="Times New Roman,serif" font-size="15.00">xor loop</text>
</g>
<!-- 2264718903520&#45;&#45;2264718901648 -->
<g id="edge71" class="edge"><title>2264718903520&#45;&#45;2264718901648</title>
<path fill="none" stroke="black" d="M997.104,-792.055C991.759,-781.049 984.82,-766.764 979.489,-755.789"/>
</g>
<!-- 2264718904528 -->
<g id="node75" class="node"><title>2264718904528</title>
<ellipse fill="black" stroke="black" cx="1038.33" cy="-738" rx="2.7" ry="2.7"/>
</g>
<!-- 2264718903520&#45;&#45;2264718904528 -->
<g id="edge72" class="edge"><title>2264718903520&#45;&#45;2264718904528</title>
<path fill="none" stroke="black" d="M1013.32,-792.055C1021.72,-774.252 1034.16,-747.865 1037.49,-740.796"/>
</g>
<!-- 2264718901696 -->
<g id="node10" class="node"><title>2264718901696</title>
<ellipse fill="none" stroke="black" cx="947.335" cy="-666" rx="27" ry="18"/>
<text text-anchor="middle" x="947.335" y="-662.5" font-family="Times New Roman,serif" font-size="15.00">seq</text>
</g>
<!-- 2264718901648&#45;&#45;2264718901696 -->
<g id="edge69" class="edge"><title>2264718901648&#45;&#45;2264718901696</title>
<path fill="none" stroke="black" d="M965.525,-720.055C961.752,-709.049 956.854,-694.764 953.091,-683.789"/>
</g>
<!-- 2264718904240 -->
<g id="node74" class="node"><title>2264718904240</title>
<ellipse fill="black" stroke="black" cx="995.335" cy="-666" rx="2.7" ry="2.7"/>
</g>
<!-- 2264718901648&#45;&#45;2264718904240 -->
<g id="edge70" class="edge"><title>2264718901648&#45;&#45;2264718904240</title>
<path fill="none" stroke="black" d="M977.144,-720.055C983.248,-702.252 992.295,-675.865 994.719,-668.796"/>
</g>
<!-- 2264718901504 -->
<g id="node11" class="node"><title>2264718901504</title>
<ellipse fill="none" stroke="black" cx="833.335" cy="-594" rx="27" ry="18"/>
<text text-anchor="middle" x="833.335" y="-590.5" font-family="Times New Roman,serif" font-size="15.00">xor</text>
</g>
<!-- 2264718901696&#45;&#45;2264718901504 -->
<g id="edge12" class="edge"><title>2264718901696&#45;&#45;2264718901504</title>
<path fill="none" stroke="black" d="M927.996,-653.125C907.033,-640.253 873.768,-619.828 852.768,-606.933"/>
</g>
<!-- 2264718903472 -->
<g id="node18" class="node"><title>2264718903472</title>
<ellipse fill="none" stroke="black" cx="947.335" cy="-594" rx="27" ry="18"/>
<text text-anchor="middle" x="947.335" y="-590.5" font-family="Times New Roman,serif" font-size="15.00">xor</text>
</g>
<!-- 2264718901696&#45;&#45;2264718903472 -->
<g id="edge65" class="edge"><title>2264718901696&#45;&#45;2264718903472</title>
<path fill="none" stroke="black" d="M947.335,-647.697C947.335,-636.846 947.335,-622.917 947.335,-612.104"/>
</g>
<!-- 2264718902032 -->
<g id="node71" class="node"><title>2264718902032</title>
<ellipse fill="none" stroke="black" cx="1050.33" cy="-594" rx="27" ry="18"/>
<text text-anchor="middle" x="1050.33" y="-590.5" font-family="Times New Roman,serif" font-size="15.00">xor</text>
</g>
<!-- 2264718901696&#45;&#45;2264718902032 -->
<g id="edge68" class="edge"><title>2264718901696&#45;&#45;2264718902032</title>
<path fill="none" stroke="black" d="M965.749,-652.485C984.497,-639.744 1013.39,-620.108 1032.08,-607.406"/>
</g>
<!-- 2264718902560 -->
<g id="node12" class="node"><title>2264718902560</title>
<ellipse fill="none" stroke="black" cx="718.335" cy="-522" rx="70.3667" ry="18"/>
<text text-anchor="middle" x="718.335" y="-518.5" font-family="Times New Roman,serif" font-size="15.00">Hand washing</text>
</g>
<!-- 2264718901504&#45;&#45;2264718902560 -->
<g id="edge6" class="edge"><title>2264718901504&#45;&#45;2264718902560</title>
<path fill="none" stroke="black" d="M814.086,-581.284C795.032,-569.685 765.721,-551.844 744.548,-538.956"/>
</g>
<!-- 2264718902272 -->
<g id="node13" class="node"><title>2264718902272</title>
<ellipse fill="none" stroke="black" cx="833.335" cy="-522" rx="27" ry="18"/>
<text text-anchor="middle" x="833.335" y="-518.5" font-family="Times New Roman,serif" font-size="15.00">seq</text>
</g>
<!-- 2264718901504&#45;&#45;2264718902272 -->
<g id="edge11" class="edge"><title>2264718901504&#45;&#45;2264718902272</title>
<path fill="none" stroke="black" d="M833.335,-575.697C833.335,-564.846 833.335,-550.917 833.335,-540.104"/>
</g>
<!-- 2264718901456 -->
<g id="node14" class="node"><title>2264718901456</title>
<ellipse fill="none" stroke="black" cx="695.335" cy="-450" rx="93.2286" ry="18"/>
<text text-anchor="middle" x="695.335" y="-446.5" font-family="Times New Roman,serif" font-size="15.00">Prepare implements</text>
</g>
<!-- 2264718902272&#45;&#45;2264718901456 -->
<g id="edge7" class="edge"><title>2264718902272&#45;&#45;2264718901456</title>
<path fill="none" stroke="black" d="M812.375,-510.369C789.68,-498.856 753.218,-480.361 727.02,-467.072"/>
</g>
<!-- 2264718901888 -->
<g id="node15" class="node"><title>2264718901888</title>
<ellipse fill="none" stroke="black" cx="833.335" cy="-450" rx="27" ry="18"/>
<text text-anchor="middle" x="833.335" y="-446.5" font-family="Times New Roman,serif" font-size="15.00">xor</text>
</g>
<!-- 2264718902272&#45;&#45;2264718901888 -->
<g id="edge10" class="edge"><title>2264718902272&#45;&#45;2264718901888</title>
<path fill="none" stroke="black" d="M833.335,-503.697C833.335,-492.846 833.335,-478.917 833.335,-468.104"/>
</g>
<!-- 2264718902176 -->
<g id="node16" class="node"><title>2264718902176</title>
<ellipse fill="black" stroke="black" cx="753.335" cy="-378" rx="2.7" ry="2.7"/>
</g>
<!-- 2264718901888&#45;&#45;2264718902176 -->
<g id="edge8" class="edge"><title>2264718901888&#45;&#45;2264718902176</title>
<path fill="none" stroke="black" d="M817.529,-435.17C797.129,-417.32 763.28,-387.702 755.137,-380.577"/>
</g>
<!-- 2264718901840 -->
<g id="node17" class="node"><title>2264718901840</title>
<ellipse fill="none" stroke="black" cx="833.335" cy="-378" rx="59.1301" ry="18"/>
<text text-anchor="middle" x="833.335" y="-374.5" font-family="Times New Roman,serif" font-size="15.00">Anesthetize</text>
</g>
<!-- 2264718901888&#45;&#45;2264718901840 -->
<g id="edge9" class="edge"><title>2264718901888&#45;&#45;2264718901840</title>
<path fill="none" stroke="black" d="M833.335,-431.697C833.335,-420.846 833.335,-406.917 833.335,-396.104"/>
</g>
<!-- 2264718902944 -->
<g id="node19" class="node"><title>2264718902944</title>
<ellipse fill="black" stroke="black" cx="916.335" cy="-522" rx="2.7" ry="2.7"/>
</g>
<!-- 2264718903472&#45;&#45;2264718902944 -->
<g id="edge13" class="edge"><title>2264718903472&#45;&#45;2264718902944</title>
<path fill="none" stroke="black" d="M939.988,-576.411C932.11,-558.622 920.304,-531.962 917.139,-524.816"/>
</g>
<!-- 2264718901984 -->
<g id="node20" class="node"><title>2264718901984</title>
<ellipse fill="none" stroke="black" cx="983.335" cy="-522" rx="46.6143" ry="18"/>
<text text-anchor="middle" x="983.335" y="-518.5" font-family="Times New Roman,serif" font-size="15.00">xor loop</text>
</g>
<!-- 2264718903472&#45;&#45;2264718901984 -->
<g id="edge64" class="edge"><title>2264718903472&#45;&#45;2264718901984</title>
<path fill="none" stroke="black" d="M955.684,-576.765C961.334,-565.779 968.785,-551.292 974.528,-540.124"/>
</g>
<!-- 2264718904864 -->
<g id="node21" class="node"><title>2264718904864</title>
<ellipse fill="none" stroke="black" cx="983.335" cy="-450" rx="27" ry="18"/>
<text text-anchor="middle" x="983.335" y="-446.5" font-family="Times New Roman,serif" font-size="15.00">seq</text>
</g>
<!-- 2264718901984&#45;&#45;2264718904864 -->
<g id="edge62" class="edge"><title>2264718901984&#45;&#45;2264718904864</title>
<path fill="none" stroke="black" d="M983.335,-503.697C983.335,-492.846 983.335,-478.917 983.335,-468.104"/>
</g>
<!-- 2264718902848 -->
<g id="node70" class="node"><title>2264718902848</title>
<ellipse fill="black" stroke="black" cx="1031.33" cy="-450" rx="2.7" ry="2.7"/>
</g>
<!-- 2264718901984&#45;&#45;2264718902848 -->
<g id="edge63" class="edge"><title>2264718901984&#45;&#45;2264718902848</title>
<path fill="none" stroke="black" d="M994.71,-504.411C1006.91,-486.622 1025.19,-459.962 1030.09,-452.816"/>
</g>
<!-- 2264718902224 -->
<g id="node22" class="node"><title>2264718902224</title>
<ellipse fill="none" stroke="black" cx="937.335" cy="-378" rx="27" ry="18"/>
<text text-anchor="middle" x="937.335" y="-374.5" font-family="Times New Roman,serif" font-size="15.00">xor</text>
</g>
<!-- 2264718904864&#45;&#45;2264718902224 -->
<g id="edge16" class="edge"><title>2264718904864&#45;&#45;2264718902224</title>
<path fill="none" stroke="black" d="M972.897,-433.116C965.368,-421.66 955.25,-406.263 947.732,-394.821"/>
</g>
<!-- 2264718904336 -->
<g id="node25" class="node"><title>2264718904336</title>
<ellipse fill="none" stroke="black" cx="1017.33" cy="-378" rx="27" ry="18"/>
<text text-anchor="middle" x="1017.33" y="-374.5" font-family="Times New Roman,serif" font-size="15.00">xor</text>
</g>
<!-- 2264718904864&#45;&#45;2264718904336 -->
<g id="edge57" class="edge"><title>2264718904864&#45;&#45;2264718904336</title>
<path fill="none" stroke="black" d="M991.22,-432.765C996.635,-421.618 1003.8,-406.865 1009.26,-395.633"/>
</g>
<!-- 2264720890464 -->
<g id="node66" class="node"><title>2264720890464</title>
<ellipse fill="none" stroke="black" cx="1218.33" cy="-378" rx="27" ry="18"/>
<text text-anchor="middle" x="1218.33" y="-374.5" font-family="Times New Roman,serif" font-size="15.00">xor</text>
</g>
<!-- 2264718904864&#45;&#45;2264720890464 -->
<g id="edge61" class="edge"><title>2264718904864&#45;&#45;2264720890464</title>
<path fill="none" stroke="black" d="M1007.6,-441.772C1052.75,-428.324 1149.15,-399.607 1194.2,-386.188"/>
</g>
<!-- 2264718902464 -->
<g id="node23" class="node"><title>2264718902464</title>
<ellipse fill="black" stroke="black" cx="839.335" cy="-306" rx="2.7" ry="2.7"/>
</g>
<!-- 2264718902224&#45;&#45;2264718902464 -->
<g id="edge14" class="edge"><title>2264718902224&#45;&#45;2264718902464</title>
<path fill="none" stroke="black" d="M919.36,-364.161C894.163,-346.163 850.371,-314.883 841.093,-308.256"/>
</g>
<!-- 2264720889696 -->
<g id="node24" class="node"><title>2264720889696</title>
<ellipse fill="none" stroke="black" cx="928.335" cy="-306" rx="68.1971" ry="18"/>
<text text-anchor="middle" x="928.335" y="-302.5" font-family="Times New Roman,serif" font-size="15.00">Put sterile gel</text>
</g>
<!-- 2264718902224&#45;&#45;2264720889696 -->
<g id="edge15" class="edge"><title>2264718902224&#45;&#45;2264720889696</title>
<path fill="none" stroke="black" d="M935.156,-360.055C933.762,-349.211 931.958,-335.183 930.556,-324.275"/>
</g>
<!-- 2264720891040 -->
<g id="node26" class="node"><title>2264720891040</title>
<ellipse fill="black" stroke="black" cx="1017.33" cy="-306" rx="2.7" ry="2.7"/>
</g>
<!-- 2264718904336&#45;&#45;2264720891040 -->
<g id="edge17" class="edge"><title>2264718904336&#45;&#45;2264720891040</title>
<path fill="none" stroke="black" d="M1017.33,-359.697C1017.33,-341.883 1017.33,-315.769 1017.33,-308.776"/>
</g>
<!-- 2264720891472 -->
<g id="node27" class="node"><title>2264720891472</title>
<ellipse fill="none" stroke="black" cx="1084.33" cy="-306" rx="46.6143" ry="18"/>
<text text-anchor="middle" x="1084.33" y="-302.5" font-family="Times New Roman,serif" font-size="15.00">xor loop</text>
</g>
<!-- 2264718904336&#45;&#45;2264720891472 -->
<g id="edge56" class="edge"><title>2264718904336&#45;&#45;2264720891472</title>
<path fill="none" stroke="black" d="M1031.22,-362.496C1042.18,-351.043 1057.47,-335.069 1068.83,-323.198"/>
</g>
<!-- 2264720889408 -->
<g id="node28" class="node"><title>2264720889408</title>
<ellipse fill="none" stroke="black" cx="1060.33" cy="-234" rx="27" ry="18"/>
<text text-anchor="middle" x="1060.33" y="-230.5" font-family="Times New Roman,serif" font-size="15.00">xor</text>
</g>
<!-- 2264720891472&#45;&#45;2264720889408 -->
<g id="edge54" class="edge"><title>2264720891472&#45;&#45;2264720889408</title>
<path fill="none" stroke="black" d="M1078.52,-288.055C1074.75,-277.049 1069.85,-262.764 1066.09,-251.789"/>
</g>
<!-- 2264720888592 -->
<g id="node65" class="node"><title>2264720888592</title>
<ellipse fill="black" stroke="black" cx="1108.33" cy="-234" rx="2.7" ry="2.7"/>
</g>
<!-- 2264720891472&#45;&#45;2264720888592 -->
<g id="edge55" class="edge"><title>2264720891472&#45;&#45;2264720888592</title>
<path fill="none" stroke="black" d="M1090.14,-288.055C1096.25,-270.252 1105.3,-243.865 1107.72,-236.796"/>
</g>
<!-- 2264720890992 -->
<g id="node29" class="node"><title>2264720890992</title>
<ellipse fill="none" stroke="black" cx="1002.33" cy="-162" rx="72.0363" ry="18"/>
<text text-anchor="middle" x="1002.33" y="-158.5" font-family="Times New Roman,serif" font-size="15.00">Position probe</text>
</g>
<!-- 2264720889408&#45;&#45;2264720890992 -->
<g id="edge18" class="edge"><title>2264720889408&#45;&#45;2264720890992</title>
<path fill="none" stroke="black" d="M1047.75,-217.811C1038.55,-206.713 1026.08,-191.653 1016.53,-180.127"/>
</g>
<!-- 2264720888640 -->
<g id="node30" class="node"><title>2264720888640</title>
<ellipse fill="none" stroke="black" cx="1119.33" cy="-162" rx="27" ry="18"/>
<text text-anchor="middle" x="1119.33" y="-158.5" font-family="Times New Roman,serif" font-size="15.00">seq</text>
</g>
<!-- 2264720889408&#45;&#45;2264720888640 -->
<g id="edge53" class="edge"><title>2264720889408&#45;&#45;2264720888640</title>
<path fill="none" stroke="black" d="M1073.14,-217.811C1083.03,-206.07 1096.67,-189.893 1106.56,-178.159"/>
</g>
<!-- 2264720891712 -->
<g id="node31" class="node"><title>2264720891712</title>
<ellipse fill="none" stroke="black" cx="288.335" cy="-90" rx="108.303" ry="18"/>
<text text-anchor="middle" x="288.335" y="-86.5" font-family="Times New Roman,serif" font-size="15.00">Anatomic identification</text>
</g>
<!-- 2264720888640&#45;&#45;2264720891712 -->
<g id="edge19" class="edge"><title>2264720888640&#45;&#45;2264720891712</title>
<path fill="none" stroke="black" d="M1092.63,-158.75C983.795,-149.583 570.646,-114.781 382.582,-98.939"/>
</g>
<!-- 2264720890032 -->
<g id="node32" class="node"><title>2264720890032</title>
<ellipse fill="none" stroke="black" cx="441.335" cy="-90" rx="27" ry="18"/>
<text text-anchor="middle" x="441.335" y="-86.5" font-family="Times New Roman,serif" font-size="15.00">xor</text>
</g>
<!-- 2264720888640&#45;&#45;2264720890032 -->
<g id="edge22" class="edge"><title>2264720888640&#45;&#45;2264720890032</title>
<path fill="none" stroke="black" d="M1092.76,-158.256C984.419,-147.071 576.771,-104.983 468.097,-93.763"/>
</g>
<!-- 2264720888880 -->
<g id="node35" class="node"><title>2264720888880</title>
<ellipse fill="none" stroke="black" cx="573.335" cy="-90" rx="27" ry="18"/>
<text text-anchor="middle" x="573.335" y="-86.5" font-family="Times New Roman,serif" font-size="15.00">xor</text>
</g>
<!-- 2264720888640&#45;&#45;2264720888880 -->
<g id="edge25" class="edge"><title>2264720888640&#45;&#45;2264720888880</title>
<path fill="none" stroke="black" d="M1093,-157.624C1000.66,-145.785 692.153,-106.233 599.724,-94.3833"/>
</g>
<!-- 2264720888160 -->
<g id="node38" class="node"><title>2264720888160</title>
<ellipse fill="none" stroke="black" cx="726.335" cy="-90" rx="27" ry="18"/>
<text text-anchor="middle" x="726.335" y="-86.5" font-family="Times New Roman,serif" font-size="15.00">xor</text>
</g>
<!-- 2264720888640&#45;&#45;2264720888160 -->
<g id="edge28" class="edge"><title>2264720888640&#45;&#45;2264720888160</title>
<path fill="none" stroke="black" d="M1093.55,-156.407C1022.34,-143.724 823.538,-108.314 752.215,-95.6098"/>
</g>
<!-- 2264720891664 -->
<g id="node41" class="node"><title>2264720891664</title>
<ellipse fill="none" stroke="black" cx="891.335" cy="-90" rx="27" ry="18"/>
<text text-anchor="middle" x="891.335" y="-86.5" font-family="Times New Roman,serif" font-size="15.00">xor</text>
</g>
<!-- 2264720888640&#45;&#45;2264720891664 -->
<g id="edge31" class="edge"><title>2264720888640&#45;&#45;2264720891664</title>
<path fill="none" stroke="black" d="M1095.37,-153.641C1051.58,-140.197 959.13,-111.814 915.325,-98.3654"/>
</g>
<!-- 2264720891568 -->
<g id="node44" class="node"><title>2264720891568</title>
<ellipse fill="none" stroke="black" cx="1070.33" cy="-90" rx="27" ry="18"/>
<text text-anchor="middle" x="1070.33" y="-86.5" font-family="Times New Roman,serif" font-size="15.00">xor</text>
</g>
<!-- 2264720888640&#45;&#45;2264720891568 -->
<g id="edge34" class="edge"><title>2264720888640&#45;&#45;2264720891568</title>
<path fill="none" stroke="black" d="M1108.46,-145.465C1100.34,-133.865 1089.29,-118.082 1081.18,-106.492"/>
</g>
<!-- 2264720159312 -->
<g id="node47" class="node"><title>2264720159312</title>
<ellipse fill="none" stroke="black" cx="1169.33" cy="-90" rx="27" ry="18"/>
<text text-anchor="middle" x="1169.33" y="-86.5" font-family="Times New Roman,serif" font-size="15.00">xor</text>
</g>
<!-- 2264720888640&#45;&#45;2264720159312 -->
<g id="edge37" class="edge"><title>2264720888640&#45;&#45;2264720159312</title>
<path fill="none" stroke="black" d="M1130.43,-145.465C1138.72,-133.865 1149.99,-118.082 1158.27,-106.492"/>
</g>
<!-- 2264720160080 -->
<g id="node50" class="node"><title>2264720160080</title>
<ellipse fill="none" stroke="black" cx="1379.33" cy="-90" rx="27" ry="18"/>
<text text-anchor="middle" x="1379.33" y="-86.5" font-family="Times New Roman,serif" font-size="15.00">xor</text>
</g>
<!-- 2264720888640&#45;&#45;2264720160080 -->
<g id="edge40" class="edge"><title>2264720888640&#45;&#45;2264720160080</title>
<path fill="none" stroke="black" d="M1144.26,-154.288C1193.96,-140.908 1304.85,-111.055 1354.48,-97.6916"/>
</g>
<!-- 2264720162480 -->
<g id="node53" class="node"><title>2264720162480</title>
<ellipse fill="none" stroke="black" cx="1565.33" cy="-90" rx="27" ry="18"/>
<text text-anchor="middle" x="1565.33" y="-86.5" font-family="Times New Roman,serif" font-size="15.00">xor</text>
</g>
<!-- 2264720888640&#45;&#45;2264720162480 -->
<g id="edge43" class="edge"><title>2264720888640&#45;&#45;2264720162480</title>
<path fill="none" stroke="black" d="M1145.57,-156.883C1224.74,-144.457 1460.66,-107.429 1539.41,-95.0685"/>
</g>
<!-- 2264720161568 -->
<g id="node56" class="node"><title>2264720161568</title>
<ellipse fill="none" stroke="black" cx="1757.33" cy="-90" rx="27" ry="18"/>
<text text-anchor="middle" x="1757.33" y="-86.5" font-family="Times New Roman,serif" font-size="15.00">xor</text>
</g>
<!-- 2264720888640&#45;&#45;2264720161568 -->
<g id="edge46" class="edge"><title>2264720888640&#45;&#45;2264720161568</title>
<path fill="none" stroke="black" d="M1145.94,-158.081C1249.82,-146.683 1627.51,-105.244 1730.97,-93.8924"/>
</g>
<!-- 2264720162096 -->
<g id="node59" class="node"><title>2264720162096</title>
<ellipse fill="none" stroke="black" cx="1963.33" cy="-90" rx="27" ry="18"/>
<text text-anchor="middle" x="1963.33" y="-86.5" font-family="Times New Roman,serif" font-size="15.00">xor</text>
</g>
<!-- 2264720888640&#45;&#45;2264720162096 -->
<g id="edge49" class="edge"><title>2264720888640&#45;&#45;2264720162096</title>
<path fill="none" stroke="black" d="M1145.99,-158.789C1272.36,-148.308 1810.29,-103.693 1936.68,-93.2111"/>
</g>
<!-- 2264720160128 -->
<g id="node62" class="node"><title>2264720160128</title>
<ellipse fill="none" stroke="black" cx="2183.33" cy="-90" rx="27" ry="18"/>
<text text-anchor="middle" x="2183.33" y="-86.5" font-family="Times New Roman,serif" font-size="15.00">xor</text>
</g>
<!-- 2264720888640&#45;&#45;2264720160128 -->
<g id="edge52" class="edge"><title>2264720888640&#45;&#45;2264720160128</title>
<path fill="none" stroke="black" d="M1146.17,-159.235C1294.1,-149.502 2008.82,-102.481 2156.57,-92.7606"/>
</g>
<!-- 2264720889504 -->
<g id="node33" class="node"><title>2264720889504</title>
<ellipse fill="black" stroke="black" cx="257.335" cy="-18" rx="2.7" ry="2.7"/>
</g>
<!-- 2264720890032&#45;&#45;2264720889504 -->
<g id="edge20" class="edge"><title>2264720890032&#45;&#45;2264720889504</title>
<path fill="none" stroke="black" d="M418.403,-80.276C373.317,-63.1238 276.08,-26.1312 259.7,-19.8998"/>
</g>
<!-- 2264720890560 -->
<g id="node34" class="node"><title>2264720890560</title>
<ellipse fill="none" stroke="black" cx="381.335" cy="-18" rx="103.575" ry="18"/>
<text text-anchor="middle" x="381.335" y="-14.5" font-family="Times New Roman,serif" font-size="15.00">Doppler identification</text>
</g>
<!-- 2264720890032&#45;&#45;2264720890560 -->
<g id="edge21" class="edge"><title>2264720890032&#45;&#45;2264720890560</title>
<path fill="none" stroke="black" d="M428.316,-73.811C418.803,-62.7131 405.894,-47.6526 396.015,-36.1267"/>
</g>
<!-- 2264720889456 -->
<g id="node36" class="node"><title>2264720889456</title>
<ellipse fill="black" stroke="black" cx="505.335" cy="-18" rx="2.7" ry="2.7"/>
</g>
<!-- 2264720888880&#45;&#45;2264720889456 -->
<g id="edge23" class="edge"><title>2264720888880&#45;&#45;2264720889456</title>
<path fill="none" stroke="black" d="M559.245,-74.496C541.817,-56.5555 513.613,-27.5217 506.834,-20.5436"/>
</g>
<!-- 2264720887968 -->
<g id="node37" class="node"><title>2264720887968</title>
<ellipse fill="none" stroke="black" cx="573.335" cy="-18" rx="47.0053" ry="18"/>
<text text-anchor="middle" x="573.335" y="-14.5" font-family="Times New Roman,serif" font-size="15.00">Puncture</text>
</g>
<!-- 2264720888880&#45;&#45;2264720887968 -->
<g id="edge24" class="edge"><title>2264720888880&#45;&#45;2264720887968</title>
<path fill="none" stroke="black" d="M573.335,-71.6966C573.335,-60.8463 573.335,-46.9167 573.335,-36.1043"/>
</g>
<!-- 2264720891760 -->
<g id="node39" class="node"><title>2264720891760</title>
<ellipse fill="black" stroke="black" cx="641.335" cy="-18" rx="2.7" ry="2.7"/>
</g>
<!-- 2264720888160&#45;&#45;2264720891760 -->
<g id="edge26" class="edge"><title>2264720888160&#45;&#45;2264720891760</title>
<path fill="none" stroke="black" d="M709.946,-75.5033C688.333,-57.7048 652.012,-27.7933 643.27,-20.5936"/>
</g>
<!-- 2264720888736 -->
<g id="node40" class="node"><title>2264720888736</title>
<ellipse fill="none" stroke="black" cx="726.335" cy="-18" rx="63.8584" ry="18"/>
<text text-anchor="middle" x="726.335" y="-14.5" font-family="Times New Roman,serif" font-size="15.00">Blood return</text>
</g>
<!-- 2264720888160&#45;&#45;2264720888736 -->
<g id="edge27" class="edge"><title>2264720888160&#45;&#45;2264720888736</title>
<path fill="none" stroke="black" d="M726.335,-71.6966C726.335,-60.8463 726.335,-46.9167 726.335,-36.1043"/>
</g>
<!-- 2264720890272 -->
<g id="node42" class="node"><title>2264720890272</title>
<ellipse fill="black" stroke="black" cx="811.335" cy="-18" rx="2.7" ry="2.7"/>
</g>
<!-- 2264720891664&#45;&#45;2264720890272 -->
<g id="edge29" class="edge"><title>2264720891664&#45;&#45;2264720890272</title>
<path fill="none" stroke="black" d="M875.529,-75.1703C855.129,-57.3201 821.28,-27.7024 813.137,-20.5768"/>
</g>
<!-- 2264720889600 -->
<g id="node43" class="node"><title>2264720889600</title>
<ellipse fill="none" stroke="black" cx="891.335" cy="-18" rx="59.5207" ry="18"/>
<text text-anchor="middle" x="891.335" y="-14.5" font-family="Times New Roman,serif" font-size="15.00">Drop probe</text>
</g>
<!-- 2264720891664&#45;&#45;2264720889600 -->
<g id="edge30" class="edge"><title>2264720891664&#45;&#45;2264720889600</title>
<path fill="none" stroke="black" d="M891.335,-71.6966C891.335,-60.8463 891.335,-46.9167 891.335,-36.1043"/>
</g>
<!-- 2264720162384 -->
<g id="node45" class="node"><title>2264720162384</title>
<ellipse fill="black" stroke="black" cx="971.335" cy="-18" rx="2.7" ry="2.7"/>
</g>
<!-- 2264720891568&#45;&#45;2264720162384 -->
<g id="edge32" class="edge"><title>2264720891568&#45;&#45;2264720162384</title>
<path fill="none" stroke="black" d="M1052.18,-76.1609C1026.72,-58.1628 982.484,-26.8831 973.111,-20.2559"/>
</g>
<!-- 2264720159840 -->
<g id="node46" class="node"><title>2264720159840</title>
<ellipse fill="none" stroke="black" cx="1070.33" cy="-18" rx="77.654" ry="18"/>
<text text-anchor="middle" x="1070.33" y="-14.5" font-family="Times New Roman,serif" font-size="15.00">Remove syringe</text>
</g>
<!-- 2264720891568&#45;&#45;2264720159840 -->
<g id="edge33" class="edge"><title>2264720891568&#45;&#45;2264720159840</title>
<path fill="none" stroke="black" d="M1070.33,-71.6966C1070.33,-60.8463 1070.33,-46.9167 1070.33,-36.1043"/>
</g>
<!-- 2264720159936 -->
<g id="node48" class="node"><title>2264720159936</title>
<ellipse fill="black" stroke="black" cx="1169.33" cy="-18" rx="2.7" ry="2.7"/>
</g>
<!-- 2264720159312&#45;&#45;2264720159936 -->
<g id="edge35" class="edge"><title>2264720159312&#45;&#45;2264720159936</title>
<path fill="none" stroke="black" d="M1169.33,-71.6966C1169.33,-53.8826 1169.33,-27.7686 1169.33,-20.7764"/>
</g>
<!-- 2264720162240 -->
<g id="node49" class="node"><title>2264720162240</title>
<ellipse fill="none" stroke="black" cx="1274.33" cy="-18" rx="84.1616" ry="18"/>
<text text-anchor="middle" x="1274.33" y="-14.5" font-family="Times New Roman,serif" font-size="15.00">Guidewire install</text>
</g>
<!-- 2264720159312&#45;&#45;2264720162240 -->
<g id="edge36" class="edge"><title>2264720159312&#45;&#45;2264720162240</title>
<path fill="none" stroke="black" d="M1188.11,-76.4854C1205.33,-65.0025 1230.96,-47.9198 1249.8,-35.3594"/>
</g>
<!-- 2264720162432 -->
<g id="node51" class="node"><title>2264720162432</title>
<ellipse fill="black" stroke="black" cx="1379.33" cy="-18" rx="2.7" ry="2.7"/>
</g>
<!-- 2264720160080&#45;&#45;2264720162432 -->
<g id="edge38" class="edge"><title>2264720160080&#45;&#45;2264720162432</title>
<path fill="none" stroke="black" d="M1379.33,-71.6966C1379.33,-53.8826 1379.33,-27.7686 1379.33,-20.7764"/>
</g>
<!-- 2264720161616 -->
<g id="node52" class="node"><title>2264720161616</title>
<ellipse fill="none" stroke="black" cx="1472.33" cy="-18" rx="72.0363" ry="18"/>
<text text-anchor="middle" x="1472.33" y="-14.5" font-family="Times New Roman,serif" font-size="15.00">Remove trocar</text>
</g>
<!-- 2264720160080&#45;&#45;2264720161616 -->
<g id="edge39" class="edge"><title>2264720160080&#45;&#45;2264720161616</title>
<path fill="none" stroke="black" d="M1396.83,-75.8335C1412.09,-64.3484 1434.28,-47.6406 1450.66,-35.3111"/>
</g>
<!-- 2264720162672 -->
<g id="node54" class="node"><title>2264720162672</title>
<ellipse fill="black" stroke="black" cx="1565.33" cy="-18" rx="2.7" ry="2.7"/>
</g>
<!-- 2264720162480&#45;&#45;2264720162672 -->
<g id="edge41" class="edge"><title>2264720162480&#45;&#45;2264720162672</title>
<path fill="none" stroke="black" d="M1565.33,-71.6966C1565.33,-53.8826 1565.33,-27.7686 1565.33,-20.7764"/>
</g>
<!-- 2264720160944 -->
<g id="node55" class="node"><title>2264720160944</title>
<ellipse fill="none" stroke="black" cx="1661.33" cy="-18" rx="75.9851" ry="18"/>
<text text-anchor="middle" x="1661.33" y="-14.5" font-family="Times New Roman,serif" font-size="15.00">Widen pathway</text>
</g>
<!-- 2264720162480&#45;&#45;2264720160944 -->
<g id="edge42" class="edge"><title>2264720162480&#45;&#45;2264720160944</title>
<path fill="none" stroke="black" d="M1582.94,-76.1609C1598.75,-64.6358 1622.02,-47.6646 1639.11,-35.2078"/>
</g>
<!-- 2264720159120 -->
<g id="node57" class="node"><title>2264720159120</title>
<ellipse fill="black" stroke="black" cx="1757.33" cy="-18" rx="2.7" ry="2.7"/>
</g>
<!-- 2264720161568&#45;&#45;2264720159120 -->
<g id="edge44" class="edge"><title>2264720161568&#45;&#45;2264720159120</title>
<path fill="none" stroke="black" d="M1757.33,-71.6966C1757.33,-53.8826 1757.33,-27.7686 1757.33,-20.7764"/>
</g>
<!-- 2264720162192 -->
<g id="node58" class="node"><title>2264720162192</title>
<ellipse fill="none" stroke="black" cx="1860.33" cy="-18" rx="82.8824" ry="18"/>
<text text-anchor="middle" x="1860.33" y="-14.5" font-family="Times New Roman,serif" font-size="15.00">Advance catheter</text>
</g>
<!-- 2264720161568&#45;&#45;2264720162192 -->
<g id="edge45" class="edge"><title>2264720161568&#45;&#45;2264720162192</title>
<path fill="none" stroke="black" d="M1775.75,-76.4854C1792.65,-65.0025 1817.78,-47.9198 1836.26,-35.3594"/>
</g>
<!-- 2264721013152 -->
<g id="node60" class="node"><title>2264721013152</title>
<ellipse fill="black" stroke="black" cx="1963.33" cy="-18" rx="2.7" ry="2.7"/>
</g>
<!-- 2264720162096&#45;&#45;2264721013152 -->
<g id="edge47" class="edge"><title>2264720162096&#45;&#45;2264721013152</title>
<path fill="none" stroke="black" d="M1963.33,-71.6966C1963.33,-53.8826 1963.33,-27.7686 1963.33,-20.7764"/>
</g>
<!-- 2264721012816 -->
<g id="node61" class="node"><title>2264721012816</title>
<ellipse fill="none" stroke="black" cx="2073.33" cy="-18" rx="89.7798" ry="18"/>
<text text-anchor="middle" x="2073.33" y="-14.5" font-family="Times New Roman,serif" font-size="15.00">Remove guidewire</text>
</g>
<!-- 2264720162096&#45;&#45;2264721012816 -->
<g id="edge48" class="edge"><title>2264720162096&#45;&#45;2264721012816</title>
<path fill="none" stroke="black" d="M1982.5,-76.8069C2000.47,-65.369 2027.49,-48.1754 2047.39,-35.5115"/>
</g>
<!-- 2264721014544 -->
<g id="node63" class="node"><title>2264721014544</title>
<ellipse fill="black" stroke="black" cx="2183.33" cy="-18" rx="2.7" ry="2.7"/>
</g>
<!-- 2264720160128&#45;&#45;2264721014544 -->
<g id="edge50" class="edge"><title>2264720160128&#45;&#45;2264721014544</title>
<path fill="none" stroke="black" d="M2183.33,-71.6966C2183.33,-53.8826 2183.33,-27.7686 2183.33,-20.7764"/>
</g>
<!-- 2264718379856 -->
<g id="node64" class="node"><title>2264718379856</title>
<ellipse fill="none" stroke="black" cx="2310.33" cy="-18" rx="106.134" ry="18"/>
<text text-anchor="middle" x="2310.33" y="-14.5" font-family="Times New Roman,serif" font-size="15.00">Check flow and reflow</text>
</g>
<!-- 2264720160128&#45;&#45;2264718379856 -->
<g id="edge51" class="edge"><title>2264720160128&#45;&#45;2264718379856</title>
<path fill="none" stroke="black" d="M2203.46,-77.9083C2224.16,-66.4972 2256.65,-48.5914 2280.37,-35.5142"/>
</g>
<!-- 2264718378272 -->
<g id="node67" class="node"><title>2264718378272</title>
<ellipse fill="black" stroke="black" cx="1151.33" cy="-306" rx="2.7" ry="2.7"/>
</g>
<!-- 2264720890464&#45;&#45;2264718378272 -->
<g id="edge58" class="edge"><title>2264720890464&#45;&#45;2264718378272</title>
<path fill="none" stroke="black" d="M1204.45,-362.496C1187.28,-344.555 1159.49,-315.522 1152.81,-308.544"/>
</g>
<!-- 2264718380480 -->
<g id="node68" class="node"><title>2264718380480</title>
<ellipse fill="none" stroke="black" cx="1285.33" cy="-306" rx="113.032" ry="18"/>
<text text-anchor="middle" x="1285.33" y="-302.5" font-family="Times New Roman,serif" font-size="15.00">Ultrasound configuration</text>
</g>
<!-- 2264720890464&#45;&#45;2264718380480 -->
<g id="edge59" class="edge"><title>2264720890464&#45;&#45;2264718380480</title>
<path fill="none" stroke="black" d="M1232.22,-362.496C1242.95,-351.283 1257.83,-335.737 1269.11,-323.951"/>
</g>
<!-- 2264718377744 -->
<g id="node69" class="node"><title>2264718377744</title>
<ellipse fill="none" stroke="black" cx="1514.33" cy="-306" rx="97.0675" ry="18"/>
<text text-anchor="middle" x="1514.33" y="-302.5" font-family="Times New Roman,serif" font-size="15.00">Get in sterile clothes</text>
</g>
<!-- 2264720890464&#45;&#45;2264718377744 -->
<g id="edge60" class="edge"><title>2264720890464&#45;&#45;2264718377744</title>
<path fill="none" stroke="black" d="M1243.32,-371.092C1290.15,-360.017 1392.23,-335.876 1456.88,-320.587"/>
</g>
<!-- 2264718378368 -->
<g id="node72" class="node"><title>2264718378368</title>
<ellipse fill="black" stroke="black" cx="1050.33" cy="-522" rx="2.7" ry="2.7"/>
</g>
<!-- 2264718902032&#45;&#45;2264718378368 -->
<g id="edge66" class="edge"><title>2264718902032&#45;&#45;2264718378368</title>
<path fill="none" stroke="black" d="M1050.33,-575.697C1050.33,-557.883 1050.33,-531.769 1050.33,-524.776"/>
</g>
<!-- 2264718379664 -->
<g id="node73" class="node"><title>2264718379664</title>
<ellipse fill="none" stroke="black" cx="1146.33" cy="-522" rx="75.9851" ry="18"/>
<text text-anchor="middle" x="1146.33" y="-518.5" font-family="Times New Roman,serif" font-size="15.00">Position patient</text>
</g>
<!-- 2264718902032&#45;&#45;2264718379664 -->
<g id="edge67" class="edge"><title>2264718902032&#45;&#45;2264718379664</title>
<path fill="none" stroke="black" d="M1067.94,-580.161C1083.75,-568.636 1107.02,-551.665 1124.11,-539.208"/>
</g>
<!-- 2264718344976 -->
<g id="node81" class="node"><title>2264718344976</title>
<ellipse fill="none" stroke="black" cx="1220.33" cy="-810" rx="72.0363" ry="18"/>
<text text-anchor="middle" x="1220.33" y="-806.5" font-family="Times New Roman,serif" font-size="15.00">Remove trocar</text>
</g>
<!-- 2264718345408&#45;&#45;2264718344976 -->
<g id="edge79" class="edge"><title>2264718345408&#45;&#45;2264718344976</title>
<path fill="none" stroke="black" d="M1233.98,-864.055C1231.19,-853.211 1227.58,-839.183 1224.78,-828.275"/>
</g>
<!-- 2264718345792 -->
<g id="node82" class="node"><title>2264718345792</title>
<ellipse fill="none" stroke="black" cx="1357.33" cy="-810" rx="46.6143" ry="18"/>
<text text-anchor="middle" x="1357.33" y="-806.5" font-family="Times New Roman,serif" font-size="15.00">xor loop</text>
</g>
<!-- 2264718345408&#45;&#45;2264718345792 -->
<g id="edge84" class="edge"><title>2264718345408&#45;&#45;2264718345792</title>
<path fill="none" stroke="black" d="M1257.99,-869.441C1278.45,-857.403 1310.55,-838.518 1332.7,-825.491"/>
</g>
<!-- 2264718347856 -->
<g id="node83" class="node"><title>2264718347856</title>
<ellipse fill="none" stroke="black" cx="1316.33" cy="-738" rx="27" ry="18"/>
<text text-anchor="middle" x="1316.33" y="-734.5" font-family="Times New Roman,serif" font-size="15.00">seq</text>
</g>
<!-- 2264718345792&#45;&#45;2264718347856 -->
<g id="edge82" class="edge"><title>2264718345792&#45;&#45;2264718347856</title>
<path fill="none" stroke="black" d="M1347.41,-792.055C1340.87,-780.887 1332.35,-766.343 1325.89,-755.307"/>
</g>
<!-- 2264718345648 -->
<g id="node86" class="node"><title>2264718345648</title>
<ellipse fill="black" stroke="black" cx="1364.33" cy="-738" rx="2.7" ry="2.7"/>
</g>
<!-- 2264718345792&#45;&#45;2264718345648 -->
<g id="edge83" class="edge"><title>2264718345792&#45;&#45;2264718345648</title>
<path fill="none" stroke="black" d="M1359.07,-791.697C1360.85,-773.883 1363.46,-747.769 1364.16,-740.776"/>
</g>
<!-- 2264718345456 -->
<g id="node84" class="node"><title>2264718345456</title>
<ellipse fill="none" stroke="black" cx="1226.33" cy="-666" rx="111.752" ry="18"/>
<text text-anchor="middle" x="1226.33" y="-662.5" font-family="Times New Roman,serif" font-size="15.00">Check wire in short axis</text>
</g>
<!-- 2264718347856&#45;&#45;2264718345456 -->
<g id="edge80" class="edge"><title>2264718347856&#45;&#45;2264718345456</title>
<path fill="none" stroke="black" d="M1299.41,-723.834C1284.84,-712.507 1263.75,-696.101 1247.97,-683.824"/>
</g>
<!-- 2264718347712 -->
<g id="node85" class="node"><title>2264718347712</title>
<ellipse fill="none" stroke="black" cx="1465.33" cy="-666" rx="109.193" ry="18"/>
<text text-anchor="middle" x="1465.33" y="-662.5" font-family="Times New Roman,serif" font-size="15.00">Check wire in long axis</text>
</g>
<!-- 2264718347856&#45;&#45;2264718347712 -->
<g id="edge81" class="edge"><title>2264718347856&#45;&#45;2264718347712</title>
<path fill="none" stroke="black" d="M1337.68,-726.971C1362.06,-715.516 1402.3,-696.616 1431.08,-683.094"/>
</g>
<!-- 2264721049872 -->
<g id="node90" class="node"><title>2264721049872</title>
<ellipse fill="black" stroke="black" cx="1655.33" cy="-810" rx="2.7" ry="2.7"/>
</g>
<!-- 2264718345264&#45;&#45;2264721049872 -->
<g id="edge88" class="edge"><title>2264718345264&#45;&#45;2264721049872</title>
<path fill="none" stroke="black" d="M1661.36,-863.697C1659.32,-845.883 1656.34,-819.769 1655.54,-812.776"/>
</g>
<!-- 2264721048720 -->
<g id="node91" class="node"><title>2264721048720</title>
<ellipse fill="none" stroke="black" cx="1703.33" cy="-810" rx="27" ry="18"/>
<text text-anchor="middle" x="1703.33" y="-806.5" font-family="Times New Roman,serif" font-size="15.00">seq</text>
</g>
<!-- 2264718345264&#45;&#45;2264721048720 -->
<g id="edge92" class="edge"><title>2264718345264&#45;&#45;2264721048720</title>
<path fill="none" stroke="black" d="M1672.61,-864.765C1679.07,-853.456 1687.66,-838.437 1694.11,-827.147"/>
</g>
<!-- 2264721049056 -->
<g id="node92" class="node"><title>2264721049056</title>
<ellipse fill="none" stroke="black" cx="1489.33" cy="-738" rx="89.7798" ry="18"/>
<text text-anchor="middle" x="1489.33" y="-734.5" font-family="Times New Roman,serif" font-size="15.00">Remove guidewire</text>
</g>
<!-- 2264721048720&#45;&#45;2264721049056 -->
<g id="edge89" class="edge"><title>2264721048720&#45;&#45;2264721049056</title>
<path fill="none" stroke="black" d="M1679.62,-801.241C1644.57,-789.779 1578.35,-768.116 1534.02,-753.617"/>
</g>
<!-- 2264721050448 -->
<g id="node93" class="node"><title>2264721050448</title>
<ellipse fill="none" stroke="black" cx="1703.33" cy="-738" rx="106.134" ry="18"/>
<text text-anchor="middle" x="1703.33" y="-734.5" font-family="Times New Roman,serif" font-size="15.00">Check flow and reflow</text>
</g>
<!-- 2264721048720&#45;&#45;2264721050448 -->
<g id="edge90" class="edge"><title>2264721048720&#45;&#45;2264721050448</title>
<path fill="none" stroke="black" d="M1703.33,-791.697C1703.33,-780.846 1703.33,-766.917 1703.33,-756.104"/>
</g>
<!-- 2264721049344 -->
<g id="node94" class="node"><title>2264721049344</title>
<ellipse fill="none" stroke="black" cx="1935.33" cy="-738" rx="107.914" ry="18"/>
<text text-anchor="middle" x="1935.33" y="-734.5" font-family="Times New Roman,serif" font-size="15.00">Check catheter position</text>
</g>
<!-- 2264721048720&#45;&#45;2264721049344 -->
<g id="edge91" class="edge"><title>2264721048720&#45;&#45;2264721049344</title>
<path fill="none" stroke="black" d="M1727.72,-801.641C1764.95,-790.408 1836.74,-768.747 1885.35,-754.081"/>
</g>
</g>
</svg>
