<?xml version="1.0" encoding="UTF-8" standalone="no"?>
<!DOCTYPE svg PUBLIC "-//W3C//DTD SVG 1.1//EN"
 "http://www.w3.org/Graphics/SVG/1.1/DTD/svg11.dtd">
<!-- Generated by graphviz version 2.38.0 (20140413.2041)
 -->
<!-- Title: pt Pages: 1 -->
<svg width="2720pt" height="1052pt"
 viewBox="0.00 0.00 2719.79 1052.00" xmlns="http://www.w3.org/2000/svg" xmlns:xlink="http://www.w3.org/1999/xlink">
<g id="graph0" class="graph" transform="scale(1 1) rotate(0) translate(4 1048)">
<title>pt</title>
<!-- 2264826618016 -->
<g id="node1" class="node"><title>2264826618016</title>
<ellipse fill="none" stroke="black" cx="1157.33" cy="-1026" rx="27" ry="18"/>
<text text-anchor="middle" x="1157.33" y="-1022.5" font-family="Times New Roman,serif" font-size="15.00">seq</text>
</g>
<!-- 2264826618304 -->
<g id="node2" class="node"><title>2264826618304</title>
<ellipse fill="none" stroke="black" cx="814.335" cy="-954" rx="27" ry="18"/>
<text text-anchor="middle" x="814.335" y="-950.5" font-family="Times New Roman,serif" font-size="15.00">and</text>
</g>
<!-- 2264826618016&#45;&#45;2264826618304 -->
<g id="edge64" class="edge"><title>2264826618016&#45;&#45;2264826618304</title>
<path fill="none" stroke="black" d="M1131.83,-1019.8C1068.33,-1006.84 903.681,-973.234 840.003,-960.238"/>
</g>
<!-- 2264826618352 -->
<g id="node66" class="node"><title>2264826618352</title>
<ellipse fill="none" stroke="black" cx="1501.33" cy="-954" rx="27" ry="18"/>
<text text-anchor="middle" x="1501.33" y="-950.5" font-family="Times New Roman,serif" font-size="15.00">xor</text>
</g>
<!-- 2264826618016&#45;&#45;2264826618352 -->
<g id="edge67" class="edge"><title>2264826618016&#45;&#45;2264826618352</title>
<path fill="none" stroke="black" d="M1182.91,-1019.8C1246.59,-1006.84 1411.73,-973.234 1475.59,-960.238"/>
</g>
<!-- 2264826618592 -->
<g id="node3" class="node"><title>2264826618592</title>
<ellipse fill="none" stroke="black" cx="90.3347" cy="-882" rx="90.1697" ry="18"/>
<text text-anchor="middle" x="90.3347" y="-878.5" font-family="Times New Roman,serif" font-size="15.00">Drap puncture area</text>
</g>
<!-- 2264826618304&#45;&#45;2264826618592 -->
<g id="edge1" class="edge"><title>2264826618304&#45;&#45;2264826618592</title>
<path fill="none" stroke="black" d="M787.709,-950.426C687.448,-940.732 330.227,-906.194 169.591,-890.663"/>
</g>
<!-- 2264826618784 -->
<g id="node4" class="node"><title>2264826618784</title>
<ellipse fill="none" stroke="black" cx="305.335" cy="-882" rx="106.134" ry="18"/>
<text text-anchor="middle" x="305.335" y="-878.5" font-family="Times New Roman,serif" font-size="15.00">Check flow and reflow</text>
</g>
<!-- 2264826618304&#45;&#45;2264826618784 -->
<g id="edge2" class="edge"><title>2264826618304&#45;&#45;2264826618784</title>
<path fill="none" stroke="black" d="M788.04,-949.384C714.042,-939.207 501.81,-910.02 384.924,-893.946"/>
</g>
<!-- 2264826618880 -->
<g id="node5" class="node"><title>2264826618880</title>
<ellipse fill="none" stroke="black" cx="493.335" cy="-882" rx="63.8584" ry="18"/>
<text text-anchor="middle" x="493.335" y="-878.5" font-family="Times New Roman,serif" font-size="15.00">Gel in probe</text>
</g>
<!-- 2264826618304&#45;&#45;2264826618880 -->
<g id="edge3" class="edge"><title>2264826618304&#45;&#45;2264826618880</title>
<path fill="none" stroke="black" d="M789.146,-947.507C736.013,-935.92 611.656,-908.802 542.29,-893.676"/>
</g>
<!-- 2264826619024 -->
<g id="node6" class="node"><title>2264826619024</title>
<ellipse fill="none" stroke="black" cx="639.335" cy="-882" rx="63.8584" ry="18"/>
<text text-anchor="middle" x="639.335" y="-878.5" font-family="Times New Roman,serif" font-size="15.00">Cover probe</text>
</g>
<!-- 2264826618304&#45;&#45;2264826619024 -->
<g id="edge4" class="edge"><title>2264826618304&#45;&#45;2264826619024</title>
<path fill="none" stroke="black" d="M791.815,-943.992C762.09,-932.102 709.444,-911.044 674.464,-897.052"/>
</g>
<!-- 2264826619168 -->
<g id="node7" class="node"><title>2264826619168</title>
<ellipse fill="none" stroke="black" cx="814.335" cy="-882" rx="93.2286" ry="18"/>
<text text-anchor="middle" x="814.335" y="-878.5" font-family="Times New Roman,serif" font-size="15.00">Clean puncture area</text>
</g>
<!-- 2264826618304&#45;&#45;2264826619168 -->
<g id="edge5" class="edge"><title>2264826618304&#45;&#45;2264826619168</title>
<path fill="none" stroke="black" d="M814.335,-935.697C814.335,-924.846 814.335,-910.917 814.335,-900.104"/>
</g>
<!-- 2264826619312 -->
<g id="node8" class="node"><title>2264826619312</title>
<ellipse fill="none" stroke="black" cx="1015.33" cy="-882" rx="89.7798" ry="18"/>
<text text-anchor="middle" x="1015.33" y="-878.5" font-family="Times New Roman,serif" font-size="15.00">Remove guidewire</text>
</g>
<!-- 2264826618304&#45;&#45;2264826619312 -->
<g id="edge6" class="edge"><title>2264826618304&#45;&#45;2264826619312</title>
<path fill="none" stroke="black" d="M837.785,-944.833C870.717,-933.364 931.232,-912.289 972.364,-897.965"/>
</g>
<!-- 2264826619456 -->
<g id="node9" class="node"><title>2264826619456</title>
<ellipse fill="none" stroke="black" cx="1246.33" cy="-882" rx="122.988" ry="18"/>
<text text-anchor="middle" x="1246.33" y="-878.5" font-family="Times New Roman,serif" font-size="15.00">Compression identification</text>
</g>
<!-- 2264826618304&#45;&#45;2264826619456 -->
<g id="edge7" class="edge"><title>2264826618304&#45;&#45;2264826619456</title>
<path fill="none" stroke="black" d="M840.385,-948.779C903.776,-938.507 1068.12,-911.878 1167.18,-895.826"/>
</g>
<!-- 2264826619600 -->
<g id="node10" class="node"><title>2264826619600</title>
<ellipse fill="none" stroke="black" cx="1434.33" cy="-882" rx="46.6143" ry="18"/>
<text text-anchor="middle" x="1434.33" y="-878.5" font-family="Times New Roman,serif" font-size="15.00">xor loop</text>
</g>
<!-- 2264826618304&#45;&#45;2264826619600 -->
<g id="edge63" class="edge"><title>2264826618304&#45;&#45;2264826619600</title>
<path fill="none" stroke="black" d="M840.975,-949.992C937.512,-939.093 1269.64,-901.595 1390.18,-887.985"/>
</g>
<!-- 2264826619888 -->
<g id="node11" class="node"><title>2264826619888</title>
<ellipse fill="none" stroke="black" cx="1410.33" cy="-810" rx="27" ry="18"/>
<text text-anchor="middle" x="1410.33" y="-806.5" font-family="Times New Roman,serif" font-size="15.00">seq</text>
</g>
<!-- 2264826619600&#45;&#45;2264826619888 -->
<g id="edge61" class="edge"><title>2264826619600&#45;&#45;2264826619888</title>
<path fill="none" stroke="black" d="M1428.52,-864.055C1424.75,-853.049 1419.85,-838.764 1416.09,-827.789"/>
</g>
<!-- 2264826619984 -->
<g id="node65" class="node"><title>2264826619984</title>
<ellipse fill="black" stroke="black" cx="1458.33" cy="-810" rx="2.7" ry="2.7"/>
</g>
<!-- 2264826619600&#45;&#45;2264826619984 -->
<g id="edge62" class="edge"><title>2264826619600&#45;&#45;2264826619984</title>
<path fill="none" stroke="black" d="M1440.14,-864.055C1446.25,-846.252 1455.3,-819.865 1457.72,-812.796"/>
</g>
<!-- 2264826620128 -->
<g id="node12" class="node"><title>2264826620128</title>
<ellipse fill="none" stroke="black" cx="1265.33" cy="-738" rx="27" ry="18"/>
<text text-anchor="middle" x="1265.33" y="-734.5" font-family="Times New Roman,serif" font-size="15.00">xor</text>
</g>
<!-- 2264826619888&#45;&#45;2264826620128 -->
<g id="edge10" class="edge"><title>2264826619888&#45;&#45;2264826620128</title>
<path fill="none" stroke="black" d="M1388.94,-798.671C1361.52,-785.437 1314.27,-762.626 1286.82,-749.371"/>
</g>
<!-- 2264826620320 -->
<g id="node15" class="node"><title>2264826620320</title>
<ellipse fill="none" stroke="black" cx="1410.33" cy="-738" rx="27" ry="18"/>
<text text-anchor="middle" x="1410.33" y="-734.5" font-family="Times New Roman,serif" font-size="15.00">xor</text>
</g>
<!-- 2264826619888&#45;&#45;2264826620320 -->
<g id="edge57" class="edge"><title>2264826619888&#45;&#45;2264826620320</title>
<path fill="none" stroke="black" d="M1410.33,-791.697C1410.33,-780.846 1410.33,-766.917 1410.33,-756.104"/>
</g>
<!-- 2264826620752 -->
<g id="node62" class="node"><title>2264826620752</title>
<ellipse fill="none" stroke="black" cx="1513.33" cy="-738" rx="27" ry="18"/>
<text text-anchor="middle" x="1513.33" y="-734.5" font-family="Times New Roman,serif" font-size="15.00">xor</text>
</g>
<!-- 2264826619888&#45;&#45;2264826620752 -->
<g id="edge60" class="edge"><title>2264826619888&#45;&#45;2264826620752</title>
<path fill="none" stroke="black" d="M1428.75,-796.485C1447.5,-783.744 1476.39,-764.108 1495.08,-751.406"/>
</g>
<!-- 2264826620416 -->
<g id="node13" class="node"><title>2264826620416</title>
<ellipse fill="none" stroke="black" cx="1084.33" cy="-666" rx="70.3667" ry="18"/>
<text text-anchor="middle" x="1084.33" y="-662.5" font-family="Times New Roman,serif" font-size="15.00">Hand washing</text>
</g>
<!-- 2264826620128&#45;&#45;2264826620416 -->
<g id="edge8" class="edge"><title>2264826620128&#45;&#45;2264826620416</title>
<path fill="none" stroke="black" d="M1242.41,-728.134C1211.97,-716.362 1157.83,-695.424 1121.51,-681.377"/>
</g>
<!-- 2264826620560 -->
<g id="node14" class="node"><title>2264826620560</title>
<ellipse fill="none" stroke="black" cx="1265.33" cy="-666" rx="93.2286" ry="18"/>
<text text-anchor="middle" x="1265.33" y="-662.5" font-family="Times New Roman,serif" font-size="15.00">Prepare implements</text>
</g>
<!-- 2264826620128&#45;&#45;2264826620560 -->
<g id="edge9" class="edge"><title>2264826620128&#45;&#45;2264826620560</title>
<path fill="none" stroke="black" d="M1265.33,-719.697C1265.33,-708.846 1265.33,-694.917 1265.33,-684.104"/>
</g>
<!-- 2264826620848 -->
<g id="node16" class="node"><title>2264826620848</title>
<ellipse fill="black" stroke="black" cx="1379.33" cy="-666" rx="2.7" ry="2.7"/>
</g>
<!-- 2264826620320&#45;&#45;2264826620848 -->
<g id="edge11" class="edge"><title>2264826620320&#45;&#45;2264826620848</title>
<path fill="none" stroke="black" d="M1402.99,-720.411C1395.11,-702.622 1383.3,-675.962 1380.14,-668.816"/>
</g>
<!-- 2264826620992 -->
<g id="node17" class="node"><title>2264826620992</title>
<ellipse fill="none" stroke="black" cx="1446.33" cy="-666" rx="46.6143" ry="18"/>
<text text-anchor="middle" x="1446.33" y="-662.5" font-family="Times New Roman,serif" font-size="15.00">xor loop</text>
</g>
<!-- 2264826620320&#45;&#45;2264826620992 -->
<g id="edge56" class="edge"><title>2264826620320&#45;&#45;2264826620992</title>
<path fill="none" stroke="black" d="M1418.68,-720.765C1424.33,-709.779 1431.78,-695.292 1437.53,-684.124"/>
</g>
<!-- 2264826621232 -->
<g id="node18" class="node"><title>2264826621232</title>
<ellipse fill="none" stroke="black" cx="1422.33" cy="-594" rx="27" ry="18"/>
<text text-anchor="middle" x="1422.33" y="-590.5" font-family="Times New Roman,serif" font-size="15.00">seq</text>
</g>
<!-- 2264826620992&#45;&#45;2264826621232 -->
<g id="edge54" class="edge"><title>2264826620992&#45;&#45;2264826621232</title>
<path fill="none" stroke="black" d="M1440.52,-648.055C1436.75,-637.049 1431.85,-622.764 1428.09,-611.789"/>
</g>
<!-- 2264826621328 -->
<g id="node61" class="node"><title>2264826621328</title>
<ellipse fill="black" stroke="black" cx="1470.33" cy="-594" rx="2.7" ry="2.7"/>
</g>
<!-- 2264826620992&#45;&#45;2264826621328 -->
<g id="edge55" class="edge"><title>2264826620992&#45;&#45;2264826621328</title>
<path fill="none" stroke="black" d="M1452.14,-648.055C1458.25,-630.252 1467.3,-603.865 1469.72,-596.796"/>
</g>
<!-- 2264826621472 -->
<g id="node19" class="node"><title>2264826621472</title>
<ellipse fill="none" stroke="black" cx="1138.33" cy="-522" rx="27" ry="18"/>
<text text-anchor="middle" x="1138.33" y="-518.5" font-family="Times New Roman,serif" font-size="15.00">xor</text>
</g>
<!-- 2264826621232&#45;&#45;2264826621472 -->
<g id="edge16" class="edge"><title>2264826621232&#45;&#45;2264826621472</title>
<path fill="none" stroke="black" d="M1397.13,-586.788C1343.24,-573.504 1217.32,-542.469 1163.48,-529.198"/>
</g>
<!-- 2264826621616 -->
<g id="node24" class="node"><title>2264826621616</title>
<ellipse fill="none" stroke="black" cx="1422.33" cy="-522" rx="27" ry="18"/>
<text text-anchor="middle" x="1422.33" y="-518.5" font-family="Times New Roman,serif" font-size="15.00">xor</text>
</g>
<!-- 2264826621232&#45;&#45;2264826621616 -->
<g id="edge28" class="edge"><title>2264826621232&#45;&#45;2264826621616</title>
<path fill="none" stroke="black" d="M1422.33,-575.697C1422.33,-564.846 1422.33,-550.917 1422.33,-540.104"/>
</g>
<!-- 2264826823104 -->
<g id="node36" class="node"><title>2264826823104</title>
<ellipse fill="none" stroke="black" cx="1596.33" cy="-522" rx="27" ry="18"/>
<text text-anchor="middle" x="1596.33" y="-518.5" font-family="Times New Roman,serif" font-size="15.00">xor</text>
</g>
<!-- 2264826621232&#45;&#45;2264826823104 -->
<g id="edge53" class="edge"><title>2264826621232&#45;&#45;2264826823104</title>
<path fill="none" stroke="black" d="M1445.08,-583.849C1478.52,-570.396 1540.57,-545.433 1573.86,-532.043"/>
</g>
<!-- 2264826621712 -->
<g id="node20" class="node"><title>2264826621712</title>
<ellipse fill="black" stroke="black" cx="913.335" cy="-450" rx="2.7" ry="2.7"/>
</g>
<!-- 2264826621472&#45;&#45;2264826621712 -->
<g id="edge12" class="edge"><title>2264826621472&#45;&#45;2264826621712</title>
<path fill="none" stroke="black" d="M1114.26,-513.509C1060.75,-496.861 935.141,-457.784 915.842,-451.78"/>
</g>
<!-- 2264826621856 -->
<g id="node21" class="node"><title>2264826621856</title>
<ellipse fill="none" stroke="black" cx="993.335" cy="-450" rx="59.1301" ry="18"/>
<text text-anchor="middle" x="993.335" y="-446.5" font-family="Times New Roman,serif" font-size="15.00">Anesthetize</text>
</g>
<!-- 2264826621472&#45;&#45;2264826621856 -->
<g id="edge13" class="edge"><title>2264826621472&#45;&#45;2264826621856</title>
<path fill="none" stroke="black" d="M1116.94,-510.671C1092.2,-498.73 1051.32,-478.992 1023.4,-465.512"/>
</g>
<!-- 2264826822768 -->
<g id="node22" class="node"><title>2264826822768</title>
<ellipse fill="none" stroke="black" cx="1138.33" cy="-450" rx="68.1971" ry="18"/>
<text text-anchor="middle" x="1138.33" y="-446.5" font-family="Times New Roman,serif" font-size="15.00">Put sterile gel</text>
</g>
<!-- 2264826621472&#45;&#45;2264826822768 -->
<g id="edge14" class="edge"><title>2264826621472&#45;&#45;2264826822768</title>
<path fill="none" stroke="black" d="M1138.33,-503.697C1138.33,-492.846 1138.33,-478.917 1138.33,-468.104"/>
</g>
<!-- 2264826822912 -->
<g id="node23" class="node"><title>2264826822912</title>
<ellipse fill="none" stroke="black" cx="1296.33" cy="-450" rx="72.0363" ry="18"/>
<text text-anchor="middle" x="1296.33" y="-446.5" font-family="Times New Roman,serif" font-size="15.00">Position probe</text>
</g>
<!-- 2264826621472&#45;&#45;2264826822912 -->
<g id="edge15" class="edge"><title>2264826621472&#45;&#45;2264826822912</title>
<path fill="none" stroke="black" d="M1160.3,-511.267C1186.76,-499.546 1231.49,-479.731 1262.39,-466.038"/>
</g>
<!-- 2264826823200 -->
<g id="node25" class="node"><title>2264826823200</title>
<ellipse fill="black" stroke="black" cx="1389.33" cy="-450" rx="2.7" ry="2.7"/>
</g>
<!-- 2264826621616&#45;&#45;2264826823200 -->
<g id="edge17" class="edge"><title>2264826621616&#45;&#45;2264826823200</title>
<path fill="none" stroke="black" d="M1414.51,-504.411C1406.13,-486.622 1393.56,-459.962 1390.19,-452.816"/>
</g>
<!-- 2264826823344 -->
<g id="node26" class="node"><title>2264826823344</title>
<ellipse fill="none" stroke="black" cx="1456.33" cy="-450" rx="46.6143" ry="18"/>
<text text-anchor="middle" x="1456.33" y="-446.5" font-family="Times New Roman,serif" font-size="15.00">xor loop</text>
</g>
<!-- 2264826621616&#45;&#45;2264826823344 -->
<g id="edge27" class="edge"><title>2264826621616&#45;&#45;2264826823344</title>
<path fill="none" stroke="black" d="M1430.22,-504.765C1435.56,-493.779 1442.59,-479.292 1448.02,-468.124"/>
</g>
<!-- 2264826823584 -->
<g id="node27" class="node"><title>2264826823584</title>
<ellipse fill="none" stroke="black" cx="1408.33" cy="-378" rx="27" ry="18"/>
<text text-anchor="middle" x="1408.33" y="-374.5" font-family="Times New Roman,serif" font-size="15.00">xor</text>
</g>
<!-- 2264826823344&#45;&#45;2264826823584 -->
<g id="edge25" class="edge"><title>2264826823344&#45;&#45;2264826823584</title>
<path fill="none" stroke="black" d="M1444.96,-432.411C1437.2,-421.091 1426.97,-406.178 1419.3,-394.988"/>
</g>
<!-- 2264826823680 -->
<g id="node35" class="node"><title>2264826823680</title>
<ellipse fill="black" stroke="black" cx="1456.33" cy="-378" rx="2.7" ry="2.7"/>
</g>
<!-- 2264826823344&#45;&#45;2264826823680 -->
<g id="edge26" class="edge"><title>2264826823344&#45;&#45;2264826823680</title>
<path fill="none" stroke="black" d="M1456.33,-431.697C1456.33,-413.883 1456.33,-387.769 1456.33,-380.776"/>
</g>
<!-- 2264826823824 -->
<g id="node28" class="node"><title>2264826823824</title>
<ellipse fill="none" stroke="black" cx="1229.33" cy="-306" rx="113.032" ry="18"/>
<text text-anchor="middle" x="1229.33" y="-302.5" font-family="Times New Roman,serif" font-size="15.00">Ultrasound configuration</text>
</g>
<!-- 2264826823584&#45;&#45;2264826823824 -->
<g id="edge18" class="edge"><title>2264826823584&#45;&#45;2264826823824</title>
<path fill="none" stroke="black" d="M1385.66,-368.134C1356.6,-356.767 1305.67,-336.853 1269.86,-322.849"/>
</g>
<!-- 2264826823968 -->
<g id="node29" class="node"><title>2264826823968</title>
<ellipse fill="none" stroke="black" cx="1408.33" cy="-306" rx="47.0053" ry="18"/>
<text text-anchor="middle" x="1408.33" y="-302.5" font-family="Times New Roman,serif" font-size="15.00">Puncture</text>
</g>
<!-- 2264826823584&#45;&#45;2264826823968 -->
<g id="edge19" class="edge"><title>2264826823584&#45;&#45;2264826823968</title>
<path fill="none" stroke="black" d="M1408.33,-359.697C1408.33,-348.846 1408.33,-334.917 1408.33,-324.104"/>
</g>
<!-- 2264826824112 -->
<g id="node30" class="node"><title>2264826824112</title>
<ellipse fill="none" stroke="black" cx="1500.33" cy="-306" rx="27" ry="18"/>
<text text-anchor="middle" x="1500.33" y="-302.5" font-family="Times New Roman,serif" font-size="15.00">seq</text>
</g>
<!-- 2264826823584&#45;&#45;2264826824112 -->
<g id="edge24" class="edge"><title>2264826823584&#45;&#45;2264826824112</title>
<path fill="none" stroke="black" d="M1425.64,-363.834C1442.09,-351.319 1466.69,-332.603 1483.11,-320.107"/>
</g>
<!-- 2264826824352 -->
<g id="node31" class="node"><title>2264826824352</title>
<ellipse fill="none" stroke="black" cx="1424.33" cy="-234" rx="108.303" ry="18"/>
<text text-anchor="middle" x="1424.33" y="-230.5" font-family="Times New Roman,serif" font-size="15.00">Anatomic identification</text>
</g>
<!-- 2264826824112&#45;&#45;2264826824352 -->
<g id="edge20" class="edge"><title>2264826824112&#45;&#45;2264826824352</title>
<path fill="none" stroke="black" d="M1484.95,-290.834C1472.72,-279.569 1455.58,-263.775 1442.64,-251.859"/>
</g>
<!-- 2264826824496 -->
<g id="node32" class="node"><title>2264826824496</title>
<ellipse fill="none" stroke="black" cx="1577.33" cy="-234" rx="27" ry="18"/>
<text text-anchor="middle" x="1577.33" y="-230.5" font-family="Times New Roman,serif" font-size="15.00">xor</text>
</g>
<!-- 2264826824112&#45;&#45;2264826824496 -->
<g id="edge23" class="edge"><title>2264826824112&#45;&#45;2264826824496</title>
<path fill="none" stroke="black" d="M1515.92,-290.834C1529.36,-278.61 1548.68,-261.054 1562.04,-248.906"/>
</g>
<!-- 2264826824736 -->
<g id="node33" class="node"><title>2264826824736</title>
<ellipse fill="black" stroke="black" cx="1515.33" cy="-162" rx="2.7" ry="2.7"/>
</g>
<!-- 2264826824496&#45;&#45;2264826824736 -->
<g id="edge21" class="edge"><title>2264826824496&#45;&#45;2264826824736</title>
<path fill="none" stroke="black" d="M1564.19,-218.155C1548.26,-200.175 1522.8,-171.432 1516.69,-164.527"/>
</g>
<!-- 2264826824880 -->
<g id="node34" class="node"><title>2264826824880</title>
<ellipse fill="none" stroke="black" cx="1639.33" cy="-162" rx="103.575" ry="18"/>
<text text-anchor="middle" x="1639.33" y="-158.5" font-family="Times New Roman,serif" font-size="15.00">Doppler identification</text>
</g>
<!-- 2264826824496&#45;&#45;2264826824880 -->
<g id="edge22" class="edge"><title>2264826824496&#45;&#45;2264826824880</title>
<path fill="none" stroke="black" d="M1590.48,-218.155C1600.37,-206.998 1613.92,-191.696 1624.24,-180.04"/>
</g>
<!-- 2264826824640 -->
<g id="node37" class="node"><title>2264826824640</title>
<ellipse fill="black" stroke="black" cx="1537.33" cy="-450" rx="2.7" ry="2.7"/>
</g>
<!-- 2264826823104&#45;&#45;2264826824640 -->
<g id="edge29" class="edge"><title>2264826823104&#45;&#45;2264826824640</title>
<path fill="none" stroke="black" d="M1583.53,-505.811C1568.35,-487.797 1544.37,-459.343 1538.61,-452.511"/>
</g>
<!-- 2264826825072 -->
<g id="node38" class="node"><title>2264826825072</title>
<ellipse fill="none" stroke="black" cx="1655.33" cy="-450" rx="97.0675" ry="18"/>
<text text-anchor="middle" x="1655.33" y="-446.5" font-family="Times New Roman,serif" font-size="15.00">Get in sterile clothes</text>
</g>
<!-- 2264826823104&#45;&#45;2264826825072 -->
<g id="edge30" class="edge"><title>2264826823104&#45;&#45;2264826825072</title>
<path fill="none" stroke="black" d="M1609.14,-505.811C1618.49,-494.713 1631.18,-479.653 1640.9,-468.127"/>
</g>
<!-- 2264826825216 -->
<g id="node39" class="node"><title>2264826825216</title>
<ellipse fill="none" stroke="black" cx="1825.33" cy="-450" rx="27" ry="18"/>
<text text-anchor="middle" x="1825.33" y="-446.5" font-family="Times New Roman,serif" font-size="15.00">seq</text>
</g>
<!-- 2264826823104&#45;&#45;2264826825216 -->
<g id="edge52" class="edge"><title>2264826823104&#45;&#45;2264826825216</title>
<path fill="none" stroke="black" d="M1620.41,-513.641C1664.39,-500.197 1757.24,-471.814 1801.24,-458.365"/>
</g>
<!-- 2264826825456 -->
<g id="node40" class="node"><title>2264826825456</title>
<ellipse fill="none" stroke="black" cx="1541.33" cy="-378" rx="63.8584" ry="18"/>
<text text-anchor="middle" x="1541.33" y="-374.5" font-family="Times New Roman,serif" font-size="15.00">Blood return</text>
</g>
<!-- 2264826825216&#45;&#45;2264826825456 -->
<g id="edge31" class="edge"><title>2264826825216&#45;&#45;2264826825456</title>
<path fill="none" stroke="black" d="M1800.13,-442.788C1752.48,-431.043 1648.54,-405.423 1587.88,-390.472"/>
</g>
<!-- 2264826825600 -->
<g id="node41" class="node"><title>2264826825600</title>
<ellipse fill="none" stroke="black" cx="1683.33" cy="-378" rx="59.5207" ry="18"/>
<text text-anchor="middle" x="1683.33" y="-374.5" font-family="Times New Roman,serif" font-size="15.00">Drop probe</text>
</g>
<!-- 2264826825216&#45;&#45;2264826825600 -->
<g id="edge32" class="edge"><title>2264826825216&#45;&#45;2264826825600</title>
<path fill="none" stroke="black" d="M1804.08,-438.52C1779.94,-426.621 1740.38,-407.122 1713.16,-393.704"/>
</g>
<!-- 2264826825744 -->
<g id="node42" class="node"><title>2264826825744</title>
<ellipse fill="none" stroke="black" cx="1839.33" cy="-378" rx="77.654" ry="18"/>
<text text-anchor="middle" x="1839.33" y="-374.5" font-family="Times New Roman,serif" font-size="15.00">Remove syringe</text>
</g>
<!-- 2264826825216&#45;&#45;2264826825744 -->
<g id="edge33" class="edge"><title>2264826825216&#45;&#45;2264826825744</title>
<path fill="none" stroke="black" d="M1828.72,-432.055C1830.89,-421.211 1833.7,-407.183 1835.88,-396.275"/>
</g>
<!-- 2264826825888 -->
<g id="node43" class="node"><title>2264826825888</title>
<ellipse fill="none" stroke="black" cx="2019.33" cy="-378" rx="84.1616" ry="18"/>
<text text-anchor="middle" x="2019.33" y="-374.5" font-family="Times New Roman,serif" font-size="15.00">Guidewire install</text>
</g>
<!-- 2264826825216&#45;&#45;2264826825888 -->
<g id="edge34" class="edge"><title>2264826825216&#45;&#45;2264826825888</title>
<path fill="none" stroke="black" d="M1848.74,-440.556C1880.78,-428.993 1938.83,-408.048 1978.22,-393.835"/>
</g>
<!-- 2264826826032 -->
<g id="node44" class="node"><title>2264826826032</title>
<ellipse fill="none" stroke="black" cx="2148.33" cy="-378" rx="27" ry="18"/>
<text text-anchor="middle" x="2148.33" y="-374.5" font-family="Times New Roman,serif" font-size="15.00">and</text>
</g>
<!-- 2264826825216&#45;&#45;2264826826032 -->
<g id="edge51" class="edge"><title>2264826825216&#45;&#45;2264826826032</title>
<path fill="none" stroke="black" d="M1850.68,-443.507C1911.06,-430.422 2062.85,-397.527 2123.11,-384.467"/>
</g>
<!-- 2264826826272 -->
<g id="node45" class="node"><title>2264826826272</title>
<ellipse fill="none" stroke="black" cx="1885.33" cy="-306" rx="75.9851" ry="18"/>
<text text-anchor="middle" x="1885.33" y="-302.5" font-family="Times New Roman,serif" font-size="15.00">Widen pathway</text>
</g>
<!-- 2264826826032&#45;&#45;2264826826272 -->
<g id="edge35" class="edge"><title>2264826826032&#45;&#45;2264826826272</title>
<path fill="none" stroke="black" d="M2123.59,-370.415C2080.24,-358.877 1989.85,-334.817 1933.71,-319.876"/>
</g>
<!-- 2264826826416 -->
<g id="node46" class="node"><title>2264826826416</title>
<ellipse fill="none" stroke="black" cx="2061.33" cy="-306" rx="82.8824" ry="18"/>
<text text-anchor="middle" x="2061.33" y="-302.5" font-family="Times New Roman,serif" font-size="15.00">Advance catheter</text>
</g>
<!-- 2264826826032&#45;&#45;2264826826416 -->
<g id="edge36" class="edge"><title>2264826826032&#45;&#45;2264826826416</title>
<path fill="none" stroke="black" d="M2131.56,-363.503C2117.44,-352.141 2097.18,-335.842 2082.05,-323.667"/>
</g>
<!-- 2264826826560 -->
<g id="node47" class="node"><title>2264826826560</title>
<ellipse fill="none" stroke="black" cx="2234.33" cy="-306" rx="72.0363" ry="18"/>
<text text-anchor="middle" x="2234.33" y="-302.5" font-family="Times New Roman,serif" font-size="15.00">Remove trocar</text>
</g>
<!-- 2264826826032&#45;&#45;2264826826560 -->
<g id="edge37" class="edge"><title>2264826826032&#45;&#45;2264826826560</title>
<path fill="none" stroke="black" d="M2164.92,-363.503C2178.97,-352.061 2199.18,-335.614 2214.17,-323.412"/>
</g>
<!-- 2264826826704 -->
<g id="node48" class="node"><title>2264826826704</title>
<ellipse fill="none" stroke="black" cx="2351.33" cy="-306" rx="27" ry="18"/>
<text text-anchor="middle" x="2351.33" y="-302.5" font-family="Times New Roman,serif" font-size="15.00">xor</text>
</g>
<!-- 2264826826032&#45;&#45;2264826826704 -->
<g id="edge50" class="edge"><title>2264826826032&#45;&#45;2264826826704</title>
<path fill="none" stroke="black" d="M2172.02,-368.833C2211.13,-355.345 2288.78,-328.569 2327.8,-315.115"/>
</g>
<!-- 2264826634496 -->
<g id="node49" class="node"><title>2264826634496</title>
<ellipse fill="black" stroke="black" cx="2327.33" cy="-234" rx="2.7" ry="2.7"/>
</g>
<!-- 2264826826704&#45;&#45;2264826634496 -->
<g id="edge38" class="edge"><title>2264826826704&#45;&#45;2264826634496</title>
<path fill="none" stroke="black" d="M2345.52,-288.055C2339.42,-270.252 2330.37,-243.865 2327.95,-236.796"/>
</g>
<!-- 2264826634640 -->
<g id="node50" class="node"><title>2264826634640</title>
<ellipse fill="none" stroke="black" cx="2375.33" cy="-234" rx="27" ry="18"/>
<text text-anchor="middle" x="2375.33" y="-230.5" font-family="Times New Roman,serif" font-size="15.00">and</text>
</g>
<!-- 2264826826704&#45;&#45;2264826634640 -->
<g id="edge49" class="edge"><title>2264826826704&#45;&#45;2264826634640</title>
<path fill="none" stroke="black" d="M2357.14,-288.055C2360.92,-277.049 2365.82,-262.764 2369.58,-251.789"/>
</g>
<!-- 2264836194512 -->
<g id="node51" class="node"><title>2264836194512</title>
<ellipse fill="none" stroke="black" cx="2329.33" cy="-162" rx="46.6143" ry="18"/>
<text text-anchor="middle" x="2329.33" y="-158.5" font-family="Times New Roman,serif" font-size="15.00">xor loop</text>
</g>
<!-- 2264826634640&#45;&#45;2264836194512 -->
<g id="edge41" class="edge"><title>2264826634640&#45;&#45;2264836194512</title>
<path fill="none" stroke="black" d="M2364.9,-217.116C2357.58,-205.983 2347.82,-191.127 2340.37,-179.797"/>
</g>
<!-- 2264836197632 -->
<g id="node54" class="node"><title>2264836197632</title>
<ellipse fill="none" stroke="black" cx="2421.33" cy="-162" rx="27" ry="18"/>
<text text-anchor="middle" x="2421.33" y="-158.5" font-family="Times New Roman,serif" font-size="15.00">seq</text>
</g>
<!-- 2264826634640&#45;&#45;2264836197632 -->
<g id="edge48" class="edge"><title>2264826634640&#45;&#45;2264836197632</title>
<path fill="none" stroke="black" d="M2385.77,-217.116C2393.3,-205.66 2403.42,-190.263 2410.94,-178.821"/>
</g>
<!-- 2264836198160 -->
<g id="node52" class="node"><title>2264836198160</title>
<ellipse fill="none" stroke="black" cx="2205.33" cy="-90" rx="109.193" ry="18"/>
<text text-anchor="middle" x="2205.33" y="-86.5" font-family="Times New Roman,serif" font-size="15.00">Check wire in long axis</text>
</g>
<!-- 2264836194512&#45;&#45;2264836198160 -->
<g id="edge39" class="edge"><title>2264836194512&#45;&#45;2264836198160</title>
<path fill="none" stroke="black" d="M2304.24,-146.834C2284,-135.409 2255.51,-119.326 2234.3,-107.354"/>
</g>
<!-- 2264836198352 -->
<g id="node53" class="node"><title>2264836198352</title>
<ellipse fill="black" stroke="black" cx="2335.33" cy="-90" rx="2.7" ry="2.7"/>
</g>
<!-- 2264836194512&#45;&#45;2264836198352 -->
<g id="edge40" class="edge"><title>2264836194512&#45;&#45;2264836198352</title>
<path fill="none" stroke="black" d="M2330.82,-143.697C2332.34,-125.883 2334.58,-99.7686 2335.18,-92.7764"/>
</g>
<!-- 2264836197920 -->
<g id="node55" class="node"><title>2264836197920</title>
<ellipse fill="none" stroke="black" cx="2414.33" cy="-90" rx="46.6143" ry="18"/>
<text text-anchor="middle" x="2414.33" y="-86.5" font-family="Times New Roman,serif" font-size="15.00">xor loop</text>
</g>
<!-- 2264836197632&#45;&#45;2264836197920 -->
<g id="edge44" class="edge"><title>2264836197632&#45;&#45;2264836197920</title>
<path fill="none" stroke="black" d="M2419.6,-143.697C2418.52,-132.846 2417.13,-118.917 2416.05,-108.104"/>
</g>
<!-- 2264836197296 -->
<g id="node58" class="node"><title>2264836197296</title>
<ellipse fill="none" stroke="black" cx="2506.33" cy="-90" rx="27" ry="18"/>
<text text-anchor="middle" x="2506.33" y="-86.5" font-family="Times New Roman,serif" font-size="15.00">xor</text>
</g>
<!-- 2264836197632&#45;&#45;2264836197296 -->
<g id="edge47" class="edge"><title>2264836197632&#45;&#45;2264836197296</title>
<path fill="none" stroke="black" d="M2437.72,-147.503C2452.78,-135.108 2474.96,-116.838 2490,-104.455"/>
</g>
<!-- 2264836197440 -->
<g id="node56" class="node"><title>2264836197440</title>
<ellipse fill="none" stroke="black" cx="2298.33" cy="-18" rx="111.752" ry="18"/>
<text text-anchor="middle" x="2298.33" y="-14.5" font-family="Times New Roman,serif" font-size="15.00">Check wire in short axis</text>
</g>
<!-- 2264836197920&#45;&#45;2264836197440 -->
<g id="edge42" class="edge"><title>2264836197920&#45;&#45;2264836197440</title>
<path fill="none" stroke="black" d="M2390.3,-74.496C2371.59,-63.203 2345.59,-47.5147 2326.01,-35.6986"/>
</g>
<!-- 2264836196864 -->
<g id="node57" class="node"><title>2264836196864</title>
<ellipse fill="black" stroke="black" cx="2431.33" cy="-18" rx="2.7" ry="2.7"/>
</g>
<!-- 2264836197920&#45;&#45;2264836196864 -->
<g id="edge43" class="edge"><title>2264836197920&#45;&#45;2264836196864</title>
<path fill="none" stroke="black" d="M2418.45,-72.055C2422.77,-54.2515 2429.18,-27.8653 2430.9,-20.7963"/>
</g>
<!-- 2264836196480 -->
<g id="node59" class="node"><title>2264836196480</title>
<ellipse fill="black" stroke="black" cx="2488.33" cy="-18" rx="2.7" ry="2.7"/>
</g>
<!-- 2264836197296&#45;&#45;2264836196480 -->
<g id="edge45" class="edge"><title>2264836197296&#45;&#45;2264836196480</title>
<path fill="none" stroke="black" d="M2501.98,-72.055C2497.4,-54.2515 2490.61,-27.8653 2488.8,-20.7963"/>
</g>
<!-- 2264836196048 -->
<g id="node60" class="node"><title>2264836196048</title>
<ellipse fill="none" stroke="black" cx="2610.33" cy="-18" rx="101.406" ry="18"/>
<text text-anchor="middle" x="2610.33" y="-14.5" font-family="Times New Roman,serif" font-size="15.00">Wire in good position</text>
</g>
<!-- 2264836197296&#45;&#45;2264836196048 -->
<g id="edge46" class="edge"><title>2264836197296&#45;&#45;2264836196048</title>
<path fill="none" stroke="black" d="M2524.93,-76.4854C2541.87,-65.0811 2567.02,-48.1535 2585.64,-35.6181"/>
</g>
<!-- 2264826825312 -->
<g id="node63" class="node"><title>2264826825312</title>
<ellipse fill="black" stroke="black" cx="1513.33" cy="-666" rx="2.7" ry="2.7"/>
</g>
<!-- 2264826620752&#45;&#45;2264826825312 -->
<g id="edge58" class="edge"><title>2264826620752&#45;&#45;2264826825312</title>
<path fill="none" stroke="black" d="M1513.33,-719.697C1513.33,-701.883 1513.33,-675.769 1513.33,-668.776"/>
</g>
<!-- 2264836195328 -->
<g id="node64" class="node"><title>2264836195328</title>
<ellipse fill="none" stroke="black" cx="1609.33" cy="-666" rx="75.9851" ry="18"/>
<text text-anchor="middle" x="1609.33" y="-662.5" font-family="Times New Roman,serif" font-size="15.00">Position patient</text>
</g>
<!-- 2264826620752&#45;&#45;2264836195328 -->
<g id="edge59" class="edge"><title>2264826620752&#45;&#45;2264836195328</title>
<path fill="none" stroke="black" d="M1530.94,-724.161C1546.75,-712.636 1570.02,-695.665 1587.11,-683.208"/>
</g>
<!-- 2264836197200 -->
<g id="node67" class="node"><title>2264836197200</title>
<ellipse fill="black" stroke="black" cx="1501.33" cy="-882" rx="2.7" ry="2.7"/>
</g>
<!-- 2264826618352&#45;&#45;2264836197200 -->
<g id="edge65" class="edge"><title>2264826618352&#45;&#45;2264836197200</title>
<path fill="none" stroke="black" d="M1501.33,-935.697C1501.33,-917.883 1501.33,-891.769 1501.33,-884.776"/>
</g>
<!-- 2264836196336 -->
<g id="node68" class="node"><title>2264836196336</title>
<ellipse fill="none" stroke="black" cx="1629.33" cy="-882" rx="107.914" ry="18"/>
<text text-anchor="middle" x="1629.33" y="-878.5" font-family="Times New Roman,serif" font-size="15.00">Check catheter position</text>
</g>
<!-- 2264826618352&#45;&#45;2264836196336 -->
<g id="edge66" class="edge"><title>2264826618352&#45;&#45;2264836196336</title>
<path fill="none" stroke="black" d="M1521.62,-941.908C1542.48,-930.497 1575.22,-912.591 1599.14,-899.514"/>
</g>
</g>
</svg>
