<?xml version="1.0" encoding="UTF-8" standalone="no"?>
<!DOCTYPE svg PUBLIC "-//W3C//DTD SVG 1.1//EN"
 "http://www.w3.org/Graphics/SVG/1.1/DTD/svg11.dtd">
<!-- Generated by graphviz version 2.38.0 (20140413.2041)
 -->
<!-- Title: pt Pages: 1 -->
<svg width="4551pt" height="548pt"
 viewBox="0.00 0.00 4550.55 548.00" xmlns="http://www.w3.org/2000/svg" xmlns:xlink="http://www.w3.org/1999/xlink">
<g id="graph0" class="graph" transform="scale(1 1) rotate(0) translate(4 544)">
<title>pt</title>
<!-- 2264836281104 -->
<g id="node1" class="node"><title>2264836281104</title>
<ellipse fill="none" stroke="black" cx="2679.27" cy="-522" rx="27" ry="18"/>
<text text-anchor="middle" x="2679.27" y="-518.5" font-family="Times New Roman,serif" font-size="15.00">seq</text>
</g>
<!-- 2264836284032 -->
<g id="node2" class="node"><title>2264836284032</title>
<ellipse fill="none" stroke="black" cx="1873.27" cy="-450" rx="27" ry="18"/>
<text text-anchor="middle" x="1873.27" y="-446.5" font-family="Times New Roman,serif" font-size="15.00">and</text>
</g>
<!-- 2264836281104&#45;&#45;2264836284032 -->
<g id="edge40" class="edge"><title>2264836281104&#45;&#45;2264836284032</title>
<path fill="none" stroke="black" d="M2652.45,-518.671C2529.8,-508.019 2023.04,-464.008 1900.18,-453.338"/>
</g>
<!-- 2264836283360 -->
<g id="node42" class="node"><title>2264836283360</title>
<ellipse fill="none" stroke="black" cx="2072.27" cy="-450" rx="63.8584" ry="18"/>
<text text-anchor="middle" x="2072.27" y="-446.5" font-family="Times New Roman,serif" font-size="15.00">Blood return</text>
</g>
<!-- 2264836281104&#45;&#45;2264836283360 -->
<g id="edge41" class="edge"><title>2264836281104&#45;&#45;2264836283360</title>
<path fill="none" stroke="black" d="M2652.79,-517.947C2561.52,-507.421 2258.54,-472.481 2130.35,-457.698"/>
</g>
<!-- 2264731752720 -->
<g id="node43" class="node"><title>2264731752720</title>
<ellipse fill="none" stroke="black" cx="2214.27" cy="-450" rx="59.5207" ry="18"/>
<text text-anchor="middle" x="2214.27" y="-446.5" font-family="Times New Roman,serif" font-size="15.00">Drop probe</text>
</g>
<!-- 2264836281104&#45;&#45;2264731752720 -->
<g id="edge42" class="edge"><title>2264836281104&#45;&#45;2264731752720</title>
<path fill="none" stroke="black" d="M2653.27,-517.087C2579.15,-505.93 2365.76,-473.806 2266.37,-458.843"/>
</g>
<!-- 2264731752096 -->
<g id="node44" class="node"><title>2264731752096</title>
<ellipse fill="none" stroke="black" cx="2370.27" cy="-450" rx="77.654" ry="18"/>
<text text-anchor="middle" x="2370.27" y="-446.5" font-family="Times New Roman,serif" font-size="15.00">Remove syringe</text>
</g>
<!-- 2264836281104&#45;&#45;2264731752096 -->
<g id="edge43" class="edge"><title>2264836281104&#45;&#45;2264731752096</title>
<path fill="none" stroke="black" d="M2653.98,-515.272C2603.89,-503.925 2491.1,-478.374 2423.8,-463.127"/>
</g>
<!-- 2264731752912 -->
<g id="node45" class="node"><title>2264731752912</title>
<ellipse fill="none" stroke="black" cx="2550.27" cy="-450" rx="84.1616" ry="18"/>
<text text-anchor="middle" x="2550.27" y="-446.5" font-family="Times New Roman,serif" font-size="15.00">Guidewire install</text>
</g>
<!-- 2264836281104&#45;&#45;2264731752912 -->
<g id="edge44" class="edge"><title>2264836281104&#45;&#45;2264731752912</title>
<path fill="none" stroke="black" d="M2658.83,-509.908C2637.51,-498.343 2603.9,-480.106 2579.73,-466.987"/>
</g>
<!-- 2264731751376 -->
<g id="node46" class="node"><title>2264731751376</title>
<ellipse fill="none" stroke="black" cx="2679.27" cy="-450" rx="27" ry="18"/>
<text text-anchor="middle" x="2679.27" y="-446.5" font-family="Times New Roman,serif" font-size="15.00">and</text>
</g>
<!-- 2264836281104&#45;&#45;2264731751376 -->
<g id="edge51" class="edge"><title>2264836281104&#45;&#45;2264731751376</title>
<path fill="none" stroke="black" d="M2679.27,-503.697C2679.27,-492.846 2679.27,-478.917 2679.27,-468.104"/>
</g>
<!-- 2264731750704 -->
<g id="node53" class="node"><title>2264731750704</title>
<ellipse fill="none" stroke="black" cx="2751.27" cy="-450" rx="27" ry="18"/>
<text text-anchor="middle" x="2751.27" y="-446.5" font-family="Times New Roman,serif" font-size="15.00">xor</text>
</g>
<!-- 2264836281104&#45;&#45;2264731750704 -->
<g id="edge54" class="edge"><title>2264836281104&#45;&#45;2264731750704</title>
<path fill="none" stroke="black" d="M2693.84,-506.834C2706.25,-494.77 2724,-477.512 2736.47,-465.385"/>
</g>
<!-- 2264718462544 -->
<g id="node56" class="node"><title>2264718462544</title>
<ellipse fill="none" stroke="black" cx="2823.27" cy="-450" rx="27" ry="18"/>
<text text-anchor="middle" x="2823.27" y="-446.5" font-family="Times New Roman,serif" font-size="15.00">xor</text>
</g>
<!-- 2264836281104&#45;&#45;2264718462544 -->
<g id="edge57" class="edge"><title>2264836281104&#45;&#45;2264718462544</title>
<path fill="none" stroke="black" d="M2700.51,-510.671C2727.74,-497.437 2774.66,-474.626 2801.93,-461.371"/>
</g>
<!-- 2264718461920 -->
<g id="node59" class="node"><title>2264718461920</title>
<ellipse fill="none" stroke="black" cx="2951.27" cy="-450" rx="82.8824" ry="18"/>
<text text-anchor="middle" x="2951.27" y="-446.5" font-family="Times New Roman,serif" font-size="15.00">Advance catheter</text>
</g>
<!-- 2264836281104&#45;&#45;2264718461920 -->
<g id="edge58" class="edge"><title>2264836281104&#45;&#45;2264718461920</title>
<path fill="none" stroke="black" d="M2704.37,-514.54C2748.69,-503.134 2841.63,-479.215 2899.98,-464.197"/>
</g>
<!-- 2264718459424 -->
<g id="node60" class="node"><title>2264718459424</title>
<ellipse fill="none" stroke="black" cx="3079.27" cy="-450" rx="27" ry="18"/>
<text text-anchor="middle" x="3079.27" y="-446.5" font-family="Times New Roman,serif" font-size="15.00">xor</text>
</g>
<!-- 2264836281104&#45;&#45;2264718459424 -->
<g id="edge61" class="edge"><title>2264836281104&#45;&#45;2264718459424</title>
<path fill="none" stroke="black" d="M2705.2,-516.461C2777.57,-503.797 2981.09,-468.18 3053.39,-455.529"/>
</g>
<!-- 2264718461872 -->
<g id="node63" class="node"><title>2264718461872</title>
<ellipse fill="none" stroke="black" cx="3387.27" cy="-450" rx="27" ry="18"/>
<text text-anchor="middle" x="3387.27" y="-446.5" font-family="Times New Roman,serif" font-size="15.00">xor</text>
</g>
<!-- 2264836281104&#45;&#45;2264718461872 -->
<g id="edge68" class="edge"><title>2264836281104&#45;&#45;2264718461872</title>
<path fill="none" stroke="black" d="M2705.73,-518.384C2817.31,-507.351 3248.83,-464.687 3360.67,-453.629"/>
</g>
<!-- 2264836281008 -->
<g id="node3" class="node"><title>2264836281008</title>
<ellipse fill="none" stroke="black" cx="1380.27" cy="-378" rx="90.1697" ry="18"/>
<text text-anchor="middle" x="1380.27" y="-374.5" font-family="Times New Roman,serif" font-size="15.00">Drap puncture area</text>
</g>
<!-- 2264836284032&#45;&#45;2264836281008 -->
<g id="edge1" class="edge"><title>2264836284032&#45;&#45;2264836281008</title>
<path fill="none" stroke="black" d="M1847.11,-445.286C1773.55,-434.842 1563.02,-404.949 1451.53,-389.119"/>
</g>
<!-- 2264836282160 -->
<g id="node4" class="node"><title>2264836282160</title>
<ellipse fill="none" stroke="black" cx="1552.27" cy="-378" rx="63.8584" ry="18"/>
<text text-anchor="middle" x="1552.27" y="-374.5" font-family="Times New Roman,serif" font-size="15.00">Gel in probe</text>
</g>
<!-- 2264836284032&#45;&#45;2264836282160 -->
<g id="edge2" class="edge"><title>2264836284032&#45;&#45;2264836282160</title>
<path fill="none" stroke="black" d="M1848.08,-443.507C1794.94,-431.92 1670.59,-404.802 1601.22,-389.676"/>
</g>
<!-- 2264836282400 -->
<g id="node5" class="node"><title>2264836282400</title>
<ellipse fill="none" stroke="black" cx="1698.27" cy="-378" rx="63.8584" ry="18"/>
<text text-anchor="middle" x="1698.27" y="-374.5" font-family="Times New Roman,serif" font-size="15.00">Cover probe</text>
</g>
<!-- 2264836284032&#45;&#45;2264836282400 -->
<g id="edge3" class="edge"><title>2264836284032&#45;&#45;2264836282400</title>
<path fill="none" stroke="black" d="M1850.75,-439.992C1821.02,-428.102 1768.37,-407.044 1733.4,-393.052"/>
</g>
<!-- 2264836283456 -->
<g id="node6" class="node"><title>2264836283456</title>
<ellipse fill="none" stroke="black" cx="1873.27" cy="-378" rx="93.2286" ry="18"/>
<text text-anchor="middle" x="1873.27" y="-374.5" font-family="Times New Roman,serif" font-size="15.00">Clean puncture area</text>
</g>
<!-- 2264836284032&#45;&#45;2264836283456 -->
<g id="edge4" class="edge"><title>2264836284032&#45;&#45;2264836283456</title>
<path fill="none" stroke="black" d="M1873.27,-431.697C1873.27,-420.846 1873.27,-406.917 1873.27,-396.104"/>
</g>
<!-- 2264836282688 -->
<g id="node7" class="node"><title>2264836282688</title>
<ellipse fill="none" stroke="black" cx="2107.27" cy="-378" rx="122.988" ry="18"/>
<text text-anchor="middle" x="2107.27" y="-374.5" font-family="Times New Roman,serif" font-size="15.00">Compression identification</text>
</g>
<!-- 2264836284032&#45;&#45;2264836282688 -->
<g id="edge5" class="edge"><title>2264836284032&#45;&#45;2264836282688</title>
<path fill="none" stroke="black" d="M1897.43,-441.772C1934.56,-430.664 2006.51,-409.14 2055.71,-394.423"/>
</g>
<!-- 2264836281968 -->
<g id="node8" class="node"><title>2264836281968</title>
<ellipse fill="none" stroke="black" cx="2295.27" cy="-378" rx="46.6143" ry="18"/>
<text text-anchor="middle" x="2295.27" y="-374.5" font-family="Times New Roman,serif" font-size="15.00">xor loop</text>
</g>
<!-- 2264836284032&#45;&#45;2264836281968 -->
<g id="edge39" class="edge"><title>2264836284032&#45;&#45;2264836281968</title>
<path fill="none" stroke="black" d="M1899.35,-444.674C1970.15,-432.93 2166.44,-400.37 2253.15,-385.986"/>
</g>
<!-- 2265230103456 -->
<g id="node9" class="node"><title>2265230103456</title>
<ellipse fill="none" stroke="black" cx="2261.27" cy="-306" rx="46.6143" ry="18"/>
<text text-anchor="middle" x="2261.27" y="-302.5" font-family="Times New Roman,serif" font-size="15.00">xor loop</text>
</g>
<!-- 2264836281968&#45;&#45;2265230103456 -->
<g id="edge37" class="edge"><title>2264836281968&#45;&#45;2265230103456</title>
<path fill="none" stroke="black" d="M2287.04,-360.055C2281.69,-349.049 2274.75,-334.764 2269.42,-323.789"/>
</g>
<!-- 2265230104896 -->
<g id="node41" class="node"><title>2265230104896</title>
<ellipse fill="black" stroke="black" cx="2328.27" cy="-306" rx="2.7" ry="2.7"/>
</g>
<!-- 2264836281968&#45;&#45;2265230104896 -->
<g id="edge38" class="edge"><title>2264836281968&#45;&#45;2265230104896</title>
<path fill="none" stroke="black" d="M2303.25,-360.055C2311.65,-342.252 2324.09,-315.865 2327.42,-308.796"/>
</g>
<!-- 2265230104704 -->
<g id="node10" class="node"><title>2265230104704</title>
<ellipse fill="none" stroke="black" cx="2228.27" cy="-234" rx="46.6143" ry="18"/>
<text text-anchor="middle" x="2228.27" y="-230.5" font-family="Times New Roman,serif" font-size="15.00">xor loop</text>
</g>
<!-- 2265230103456&#45;&#45;2265230104704 -->
<g id="edge35" class="edge"><title>2265230103456&#45;&#45;2265230104704</title>
<path fill="none" stroke="black" d="M2253.28,-288.055C2248.09,-277.049 2241.35,-262.764 2236.18,-251.789"/>
</g>
<!-- 2265230104080 -->
<g id="node40" class="node"><title>2265230104080</title>
<ellipse fill="black" stroke="black" cx="2295.27" cy="-234" rx="2.7" ry="2.7"/>
</g>
<!-- 2265230103456&#45;&#45;2265230104080 -->
<g id="edge36" class="edge"><title>2265230103456&#45;&#45;2265230104080</title>
<path fill="none" stroke="black" d="M2269.5,-288.055C2278.14,-270.252 2290.96,-243.865 2294.39,-236.796"/>
</g>
<!-- 2265230103408 -->
<g id="node11" class="node"><title>2265230103408</title>
<ellipse fill="none" stroke="black" cx="2195.27" cy="-162" rx="46.6143" ry="18"/>
<text text-anchor="middle" x="2195.27" y="-158.5" font-family="Times New Roman,serif" font-size="15.00">xor loop</text>
</g>
<!-- 2265230104704&#45;&#45;2265230103408 -->
<g id="edge33" class="edge"><title>2265230104704&#45;&#45;2265230103408</title>
<path fill="none" stroke="black" d="M2220.28,-216.055C2215.09,-205.049 2208.35,-190.764 2203.18,-179.789"/>
</g>
<!-- 2265230103696 -->
<g id="node39" class="node"><title>2265230103696</title>
<ellipse fill="black" stroke="black" cx="2262.27" cy="-162" rx="2.7" ry="2.7"/>
</g>
<!-- 2265230104704&#45;&#45;2265230103696 -->
<g id="edge34" class="edge"><title>2265230104704&#45;&#45;2265230103696</title>
<path fill="none" stroke="black" d="M2236.5,-216.055C2245.14,-198.252 2257.96,-171.865 2261.39,-164.796"/>
</g>
<!-- 2265230104608 -->
<g id="node12" class="node"><title>2265230104608</title>
<ellipse fill="black" stroke="black" cx="2171.27" cy="-90" rx="2.7" ry="2.7"/>
</g>
<!-- 2265230103408&#45;&#45;2265230104608 -->
<g id="edge6" class="edge"><title>2265230103408&#45;&#45;2265230104608</title>
<path fill="none" stroke="black" d="M2189.46,-144.055C2183.35,-126.252 2174.31,-99.8653 2171.88,-92.7963"/>
</g>
<!-- 2265230104320 -->
<g id="node13" class="node"><title>2265230104320</title>
<ellipse fill="none" stroke="black" cx="2219.27" cy="-90" rx="27" ry="18"/>
<text text-anchor="middle" x="2219.27" y="-86.5" font-family="Times New Roman,serif" font-size="15.00">xor</text>
</g>
<!-- 2265230103408&#45;&#45;2265230104320 -->
<g id="edge32" class="edge"><title>2265230103408&#45;&#45;2265230104320</title>
<path fill="none" stroke="black" d="M2201.08,-144.055C2204.85,-133.049 2209.75,-118.764 2213.51,-107.789"/>
</g>
<!-- 2265230104752 -->
<g id="node14" class="node"><title>2265230104752</title>
<ellipse fill="none" stroke="black" cx="113.266" cy="-18" rx="113.032" ry="18"/>
<text text-anchor="middle" x="113.266" y="-14.5" font-family="Times New Roman,serif" font-size="15.00">Ultrasound configuration</text>
</g>
<!-- 2265230104320&#45;&#45;2265230104752 -->
<g id="edge7" class="edge"><title>2265230104320&#45;&#45;2265230104752</title>
<path fill="none" stroke="black" d="M2192.25,-88.1022C1983.29,-81.1564 621.858,-35.9048 222.938,-22.6453"/>
</g>
<!-- 2265230103216 -->
<g id="node15" class="node"><title>2265230103216</title>
<ellipse fill="none" stroke="black" cx="320.266" cy="-18" rx="75.9851" ry="18"/>
<text text-anchor="middle" x="320.266" y="-14.5" font-family="Times New Roman,serif" font-size="15.00">Widen pathway</text>
</g>
<!-- 2265230104320&#45;&#45;2265230103216 -->
<g id="edge8" class="edge"><title>2265230104320&#45;&#45;2265230103216</title>
<path fill="none" stroke="black" d="M2192.42,-88.0105C1991.14,-80.5908 717.134,-33.6291 394.463,-21.735"/>
</g>
<!-- 2265230102736 -->
<g id="node16" class="node"><title>2265230102736</title>
<ellipse fill="none" stroke="black" cx="504.266" cy="-18" rx="90.1697" ry="18"/>
<text text-anchor="middle" x="504.266" y="-14.5" font-family="Times New Roman,serif" font-size="15.00">Drap puncture area</text>
</g>
<!-- 2265230104320&#45;&#45;2265230102736 -->
<g id="edge9" class="edge"><title>2265230104320&#45;&#45;2265230102736</title>
<path fill="none" stroke="black" d="M2192.33,-87.9005C2006.37,-80.3104 911.174,-35.6085 591.7,-22.5687"/>
</g>
<!-- 2264836280816 -->
<g id="node17" class="node"><title>2264836280816</title>
<ellipse fill="none" stroke="black" cx="719.266" cy="-18" rx="106.134" ry="18"/>
<text text-anchor="middle" x="719.266" y="-14.5" font-family="Times New Roman,serif" font-size="15.00">Check flow and reflow</text>
</g>
<!-- 2265230104320&#45;&#45;2264836280816 -->
<g id="edge10" class="edge"><title>2265230104320&#45;&#45;2264836280816</title>
<path fill="none" stroke="black" d="M2192.27,-87.7403C2024.81,-79.9256 1125.05,-37.9365 820.275,-23.7137"/>
</g>
<!-- 2264836280672 -->
<g id="node18" class="node"><title>2264836280672</title>
<ellipse fill="none" stroke="black" cx="903.266" cy="-18" rx="59.5207" ry="18"/>
<text text-anchor="middle" x="903.266" y="-14.5" font-family="Times New Roman,serif" font-size="15.00">Drop probe</text>
</g>
<!-- 2265230104320&#45;&#45;2264836280672 -->
<g id="edge11" class="edge"><title>2265230104320&#45;&#45;2264836280672</title>
<path fill="none" stroke="black" d="M2192.38,-87.57C2031.2,-78.9967 1192.23,-34.3704 961.847,-22.116"/>
</g>
<!-- 2264836282448 -->
<g id="node19" class="node"><title>2264836282448</title>
<ellipse fill="none" stroke="black" cx="1059.27" cy="-18" rx="77.654" ry="18"/>
<text text-anchor="middle" x="1059.27" y="-14.5" font-family="Times New Roman,serif" font-size="15.00">Remove syringe</text>
</g>
<!-- 2265230104320&#45;&#45;2264836282448 -->
<g id="edge12" class="edge"><title>2265230104320&#45;&#45;2264836282448</title>
<path fill="none" stroke="black" d="M2192.3,-87.3727C2047.73,-78.6485 1362.47,-37.297 1133.77,-23.4959"/>
</g>
<!-- 2264836282832 -->
<g id="node20" class="node"><title>2264836282832</title>
<ellipse fill="none" stroke="black" cx="1219.27" cy="-18" rx="63.8584" ry="18"/>
<text text-anchor="middle" x="1219.27" y="-14.5" font-family="Times New Roman,serif" font-size="15.00">Gel in probe</text>
</g>
<!-- 2265230104320&#45;&#45;2264836282832 -->
<g id="edge13" class="edge"><title>2265230104320&#45;&#45;2264836282832</title>
<path fill="none" stroke="black" d="M2192.52,-87.1277C2060.05,-77.8546 1472.93,-36.7567 1280.54,-23.2892"/>
</g>
<!-- 2264836283072 -->
<g id="node21" class="node"><title>2264836283072</title>
<ellipse fill="none" stroke="black" cx="1404.27" cy="-18" rx="103.575" ry="18"/>
<text text-anchor="middle" x="1404.27" y="-14.5" font-family="Times New Roman,serif" font-size="15.00">Doppler identification</text>
</g>
<!-- 2265230104320&#45;&#45;2264836283072 -->
<g id="edge14" class="edge"><title>2265230104320&#45;&#45;2264836283072</title>
<path fill="none" stroke="black" d="M2192.61,-86.7108C2084.8,-77.4507 1678.02,-42.5127 1494.76,-26.7722"/>
</g>
<!-- 2264836281056 -->
<g id="node22" class="node"><title>2264836281056</title>
<ellipse fill="none" stroke="black" cx="1596.27" cy="-18" rx="70.3667" ry="18"/>
<text text-anchor="middle" x="1596.27" y="-14.5" font-family="Times New Roman,serif" font-size="15.00">Hand washing</text>
</g>
<!-- 2265230104320&#45;&#45;2264836281056 -->
<g id="edge15" class="edge"><title>2265230104320&#45;&#45;2264836281056</title>
<path fill="none" stroke="black" d="M2192.89,-86.0369C2100.95,-75.706 1792.88,-41.0914 1659.13,-26.0631"/>
</g>
<!-- 2264836281488 -->
<g id="node23" class="node"><title>2264836281488</title>
<ellipse fill="none" stroke="black" cx="1748.27" cy="-18" rx="63.8584" ry="18"/>
<text text-anchor="middle" x="1748.27" y="-14.5" font-family="Times New Roman,serif" font-size="15.00">Cover probe</text>
</g>
<!-- 2265230104320&#45;&#45;2264836281488 -->
<g id="edge16" class="edge"><title>2265230104320&#45;&#45;2264836281488</title>
<path fill="none" stroke="black" d="M2192.93,-85.0865C2118.44,-74.0159 1905.06,-42.3023 1803.4,-27.194"/>
</g>
<!-- 2264836282640 -->
<g id="node24" class="node"><title>2264836282640</title>
<ellipse fill="none" stroke="black" cx="1906.27" cy="-18" rx="75.9851" ry="18"/>
<text text-anchor="middle" x="1906.27" y="-14.5" font-family="Times New Roman,serif" font-size="15.00">Position patient</text>
</g>
<!-- 2265230104320&#45;&#45;2264836282640 -->
<g id="edge17" class="edge"><title>2265230104320&#45;&#45;2264836282640</title>
<path fill="none" stroke="black" d="M2193.92,-83.3309C2143.05,-71.9554 2027.59,-46.1341 1959.43,-30.8895"/>
</g>
<!-- 2264836284224 -->
<g id="node25" class="node"><title>2264836284224</title>
<ellipse fill="none" stroke="black" cx="2059.27" cy="-18" rx="59.1301" ry="18"/>
<text text-anchor="middle" x="2059.27" y="-14.5" font-family="Times New Roman,serif" font-size="15.00">Anesthetize</text>
</g>
<!-- 2265230104320&#45;&#45;2264836284224 -->
<g id="edge18" class="edge"><title>2265230104320&#45;&#45;2264836284224</title>
<path fill="none" stroke="black" d="M2197.35,-79.4136C2170.05,-67.469 2123.17,-46.9567 2091.7,-33.1896"/>
</g>
<!-- 2264836283312 -->
<g id="node26" class="node"><title>2264836283312</title>
<ellipse fill="none" stroke="black" cx="2219.27" cy="-18" rx="82.8824" ry="18"/>
<text text-anchor="middle" x="2219.27" y="-14.5" font-family="Times New Roman,serif" font-size="15.00">Advance catheter</text>
</g>
<!-- 2265230104320&#45;&#45;2264836283312 -->
<g id="edge19" class="edge"><title>2265230104320&#45;&#45;2264836283312</title>
<path fill="none" stroke="black" d="M2219.27,-71.6966C2219.27,-60.8463 2219.27,-46.9167 2219.27,-36.1043"/>
</g>
<!-- 2264836283264 -->
<g id="node27" class="node"><title>2264836283264</title>
<ellipse fill="none" stroke="black" cx="2404.27" cy="-18" rx="84.1616" ry="18"/>
<text text-anchor="middle" x="2404.27" y="-14.5" font-family="Times New Roman,serif" font-size="15.00">Guidewire install</text>
</g>
<!-- 2265230104320&#45;&#45;2264836283264 -->
<g id="edge20" class="edge"><title>2265230104320&#45;&#45;2264836283264</title>
<path fill="none" stroke="black" d="M2242.32,-80.276C2272.93,-68.6946 2327.44,-48.0677 2364.7,-33.9725"/>
</g>
<!-- 2264836281920 -->
<g id="node28" class="node"><title>2264836281920</title>
<ellipse fill="none" stroke="black" cx="2574.27" cy="-18" rx="68.1971" ry="18"/>
<text text-anchor="middle" x="2574.27" y="-14.5" font-family="Times New Roman,serif" font-size="15.00">Put sterile gel</text>
</g>
<!-- 2265230104320&#45;&#45;2264836281920 -->
<g id="edge21" class="edge"><title>2265230104320&#45;&#45;2264836281920</title>
<path fill="none" stroke="black" d="M2244.8,-83.9658C2302.51,-72.5863 2444,-44.687 2521.46,-29.4124"/>
</g>
<!-- 2264731753152 -->
<g id="node29" class="node"><title>2264731753152</title>
<ellipse fill="none" stroke="black" cx="2753.27" cy="-18" rx="93.2286" ry="18"/>
<text text-anchor="middle" x="2753.27" y="-14.5" font-family="Times New Roman,serif" font-size="15.00">Clean puncture area</text>
</g>
<!-- 2265230104320&#45;&#45;2264731753152 -->
<g id="edge22" class="edge"><title>2265230104320&#45;&#45;2264731753152</title>
<path fill="none" stroke="black" d="M2245.75,-85.5287C2324.14,-75.2525 2557.1,-44.7145 2678.23,-28.8365"/>
</g>
<!-- 2264731753488 -->
<g id="node30" class="node"><title>2264731753488</title>
<ellipse fill="none" stroke="black" cx="2936.27" cy="-18" rx="72.0363" ry="18"/>
<text text-anchor="middle" x="2936.27" y="-14.5" font-family="Times New Roman,serif" font-size="15.00">Remove trocar</text>
</g>
<!-- 2265230104320&#45;&#45;2264731753488 -->
<g id="edge23" class="edge"><title>2265230104320&#45;&#45;2264731753488</title>
<path fill="none" stroke="black" d="M2246.06,-86.3837C2348.65,-76.3688 2718.21,-40.2885 2870.24,-25.4464"/>
</g>
<!-- 2264731751328 -->
<g id="node31" class="node"><title>2264731751328</title>
<ellipse fill="none" stroke="black" cx="3116.27" cy="-18" rx="89.7798" ry="18"/>
<text text-anchor="middle" x="3116.27" y="-14.5" font-family="Times New Roman,serif" font-size="15.00">Remove guidewire</text>
</g>
<!-- 2265230104320&#45;&#45;2264731751328 -->
<g id="edge24" class="edge"><title>2265230104320&#45;&#45;2264731751328</title>
<path fill="none" stroke="black" d="M2246.11,-86.905C2364.32,-77.6806 2841.09,-40.474 3034.32,-25.3946"/>
</g>
<!-- 2264731754448 -->
<g id="node32" class="node"><title>2264731754448</title>
<ellipse fill="none" stroke="black" cx="3288.27" cy="-18" rx="63.8584" ry="18"/>
<text text-anchor="middle" x="3288.27" y="-14.5" font-family="Times New Roman,serif" font-size="15.00">Blood return</text>
</g>
<!-- 2265230104320&#45;&#45;2264731754448 -->
<g id="edge25" class="edge"><title>2265230104320&#45;&#45;2264731754448</title>
<path fill="none" stroke="black" d="M2245.96,-87.2522C2384.62,-78.1724 3024.11,-36.2971 3226.6,-23.0379"/>
</g>
<!-- 2264731750656 -->
<g id="node33" class="node"><title>2264731750656</title>
<ellipse fill="none" stroke="black" cx="3442.27" cy="-18" rx="72.0363" ry="18"/>
<text text-anchor="middle" x="3442.27" y="-14.5" font-family="Times New Roman,serif" font-size="15.00">Position probe</text>
</g>
<!-- 2265230104320&#45;&#45;2264731750656 -->
<g id="edge26" class="edge"><title>2265230104320&#45;&#45;2264731750656</title>
<path fill="none" stroke="black" d="M2246.24,-87.4564C2397.29,-78.8105 3139.89,-36.3067 3372.48,-22.9943"/>
</g>
<!-- 2264731751520 -->
<g id="node34" class="node"><title>2264731751520</title>
<ellipse fill="none" stroke="black" cx="3641.27" cy="-18" rx="108.303" ry="18"/>
<text text-anchor="middle" x="3641.27" y="-14.5" font-family="Times New Roman,serif" font-size="15.00">Anatomic identification</text>
</g>
<!-- 2265230104320&#45;&#45;2264731751520 -->
<g id="edge27" class="edge"><title>2265230104320&#45;&#45;2264731751520</title>
<path fill="none" stroke="black" d="M2246.09,-87.6796C2406.76,-79.7704 3244.58,-38.5272 3538.91,-24.0386"/>
</g>
<!-- 2264731753104 -->
<g id="node35" class="node"><title>2264731753104</title>
<ellipse fill="none" stroke="black" cx="3815.27" cy="-18" rx="47.0053" ry="18"/>
<text text-anchor="middle" x="3815.27" y="-14.5" font-family="Times New Roman,serif" font-size="15.00">Puncture</text>
</g>
<!-- 2265230104320&#45;&#45;2264731753104 -->
<g id="edge28" class="edge"><title>2265230104320&#45;&#45;2264731753104</title>
<path fill="none" stroke="black" d="M2246.3,-87.8144C2432.78,-79.6354 3528.07,-31.5962 3768.59,-21.0474"/>
</g>
<!-- 2264731751664 -->
<g id="node36" class="node"><title>2264731751664</title>
<ellipse fill="none" stroke="black" cx="3973.27" cy="-18" rx="93.2286" ry="18"/>
<text text-anchor="middle" x="3973.27" y="-14.5" font-family="Times New Roman,serif" font-size="15.00">Prepare implements</text>
</g>
<!-- 2265230104320&#45;&#45;2264731751664 -->
<g id="edge29" class="edge"><title>2265230104320&#45;&#45;2264731751664</title>
<path fill="none" stroke="black" d="M2246.12,-87.9285C2434.09,-80.4267 3555,-35.6923 3883.1,-22.5984"/>
</g>
<!-- 2264731754112 -->
<g id="node37" class="node"><title>2264731754112</title>
<ellipse fill="none" stroke="black" cx="4207.27" cy="-18" rx="122.988" ry="18"/>
<text text-anchor="middle" x="4207.27" y="-14.5" font-family="Times New Roman,serif" font-size="15.00">Compression identification</text>
</g>
<!-- 2265230104320&#45;&#45;2264731754112 -->
<g id="edge30" class="edge"><title>2265230104320&#45;&#45;2264731754112</title>
<path fill="none" stroke="black" d="M2246.24,-88.0503C2445.8,-81.0234 3696.18,-36.9961 4089.19,-23.1577"/>
</g>
<!-- 2264731752384 -->
<g id="node38" class="node"><title>2264731752384</title>
<ellipse fill="none" stroke="black" cx="4445.27" cy="-18" rx="97.0675" ry="18"/>
<text text-anchor="middle" x="4445.27" y="-14.5" font-family="Times New Roman,serif" font-size="15.00">Get in sterile clothes</text>
</g>
<!-- 2265230104320&#45;&#45;2264731752384 -->
<g id="edge31" class="edge"><title>2265230104320&#45;&#45;2264731752384</title>
<path fill="none" stroke="black" d="M2246.21,-88.1527C2465.3,-81.2631 3956.48,-34.3706 4350.14,-21.9915"/>
</g>
<!-- 2264731750560 -->
<g id="node47" class="node"><title>2264731750560</title>
<ellipse fill="none" stroke="black" cx="2432.27" cy="-378" rx="72.0363" ry="18"/>
<text text-anchor="middle" x="2432.27" y="-374.5" font-family="Times New Roman,serif" font-size="15.00">Remove trocar</text>
</g>
<!-- 2264731751376&#45;&#45;2264731750560 -->
<g id="edge45" class="edge"><title>2264731751376&#45;&#45;2264731750560</title>
<path fill="none" stroke="black" d="M2654.68,-442.032C2613.56,-430.378 2530.21,-406.758 2478.04,-391.973"/>
</g>
<!-- 2264731751184 -->
<g id="node48" class="node"><title>2264731751184</title>
<ellipse fill="none" stroke="black" cx="2569.27" cy="-378" rx="46.6143" ry="18"/>
<text text-anchor="middle" x="2569.27" y="-374.5" font-family="Times New Roman,serif" font-size="15.00">xor loop</text>
</g>
<!-- 2264731751376&#45;&#45;2264731751184 -->
<g id="edge50" class="edge"><title>2264731751376&#45;&#45;2264731751184</title>
<path fill="none" stroke="black" d="M2660.11,-436.807C2641.27,-424.821 2612.5,-406.513 2592.4,-393.722"/>
</g>
<!-- 2264770689392 -->
<g id="node49" class="node"><title>2264770689392</title>
<ellipse fill="none" stroke="black" cx="2545.27" cy="-306" rx="27" ry="18"/>
<text text-anchor="middle" x="2545.27" y="-302.5" font-family="Times New Roman,serif" font-size="15.00">seq</text>
</g>
<!-- 2264731751184&#45;&#45;2264770689392 -->
<g id="edge48" class="edge"><title>2264731751184&#45;&#45;2264770689392</title>
<path fill="none" stroke="black" d="M2563.46,-360.055C2559.68,-349.049 2554.78,-334.764 2551.02,-323.789"/>
</g>
<!-- 2264718459472 -->
<g id="node52" class="node"><title>2264718459472</title>
<ellipse fill="black" stroke="black" cx="2593.27" cy="-306" rx="2.7" ry="2.7"/>
</g>
<!-- 2264731751184&#45;&#45;2264718459472 -->
<g id="edge49" class="edge"><title>2264731751184&#45;&#45;2264718459472</title>
<path fill="none" stroke="black" d="M2575.08,-360.055C2581.18,-342.252 2590.23,-315.865 2592.65,-308.796"/>
</g>
<!-- 2264718460624 -->
<g id="node50" class="node"><title>2264718460624</title>
<ellipse fill="none" stroke="black" cx="2499.27" cy="-234" rx="111.752" ry="18"/>
<text text-anchor="middle" x="2499.27" y="-230.5" font-family="Times New Roman,serif" font-size="15.00">Check wire in short axis</text>
</g>
<!-- 2264770689392&#45;&#45;2264718460624 -->
<g id="edge46" class="edge"><title>2264770689392&#45;&#45;2264718460624</title>
<path fill="none" stroke="black" d="M2534.83,-289.116C2527.62,-278.144 2518.03,-263.557 2510.63,-252.292"/>
</g>
<!-- 2264718462208 -->
<g id="node51" class="node"><title>2264718462208</title>
<ellipse fill="none" stroke="black" cx="2738.27" cy="-234" rx="109.193" ry="18"/>
<text text-anchor="middle" x="2738.27" y="-230.5" font-family="Times New Roman,serif" font-size="15.00">Check wire in long axis</text>
</g>
<!-- 2264770689392&#45;&#45;2264718462208 -->
<g id="edge47" class="edge"><title>2264770689392&#45;&#45;2264718462208</title>
<path fill="none" stroke="black" d="M2568.55,-296.556C2599.83,-285.211 2656.01,-264.835 2695.13,-250.647"/>
</g>
<!-- 2264718460576 -->
<g id="node54" class="node"><title>2264718460576</title>
<ellipse fill="black" stroke="black" cx="2636.27" cy="-378" rx="2.7" ry="2.7"/>
</g>
<!-- 2264731750704&#45;&#45;2264718460576 -->
<g id="edge52" class="edge"><title>2264731750704&#45;&#45;2264718460576</title>
<path fill="none" stroke="black" d="M2732.02,-437.284C2702.6,-419.38 2648.75,-386.601 2638.12,-380.127"/>
</g>
<!-- 2264718462592 -->
<g id="node55" class="node"><title>2264718462592</title>
<ellipse fill="none" stroke="black" cx="2758.27" cy="-378" rx="101.406" ry="18"/>
<text text-anchor="middle" x="2758.27" y="-374.5" font-family="Times New Roman,serif" font-size="15.00">Wire in good position</text>
</g>
<!-- 2264731750704&#45;&#45;2264718462592 -->
<g id="edge53" class="edge"><title>2264731750704&#45;&#45;2264718462592</title>
<path fill="none" stroke="black" d="M2753,-431.697C2754.08,-420.846 2755.47,-406.917 2756.56,-396.104"/>
</g>
<!-- 2264718462448 -->
<g id="node57" class="node"><title>2264718462448</title>
<ellipse fill="black" stroke="black" cx="2880.27" cy="-378" rx="2.7" ry="2.7"/>
</g>
<!-- 2264718462544&#45;&#45;2264718462448 -->
<g id="edge55" class="edge"><title>2264718462544&#45;&#45;2264718462448</title>
<path fill="none" stroke="black" d="M2835.63,-433.811C2850.3,-415.797 2873.47,-387.343 2879.04,-380.511"/>
</g>
<!-- 2264718459856 -->
<g id="node58" class="node"><title>2264718459856</title>
<ellipse fill="none" stroke="black" cx="2976.27" cy="-378" rx="75.9851" ry="18"/>
<text text-anchor="middle" x="2976.27" y="-374.5" font-family="Times New Roman,serif" font-size="15.00">Widen pathway</text>
</g>
<!-- 2264718462544&#45;&#45;2264718459856 -->
<g id="edge56" class="edge"><title>2264718462544&#45;&#45;2264718459856</title>
<path fill="none" stroke="black" d="M2844.86,-439.119C2870.4,-427.436 2913.18,-407.861 2942.97,-394.234"/>
</g>
<!-- 2264718461152 -->
<g id="node61" class="node"><title>2264718461152</title>
<ellipse fill="black" stroke="black" cx="3072.27" cy="-378" rx="2.7" ry="2.7"/>
</g>
<!-- 2264718459424&#45;&#45;2264718461152 -->
<g id="edge59" class="edge"><title>2264718459424&#45;&#45;2264718461152</title>
<path fill="none" stroke="black" d="M3077.54,-431.697C3075.75,-413.883 3073.14,-387.769 3072.44,-380.776"/>
</g>
<!-- 2264730967584 -->
<g id="node62" class="node"><title>2264730967584</title>
<ellipse fill="none" stroke="black" cx="3202.27" cy="-378" rx="109.193" ry="18"/>
<text text-anchor="middle" x="3202.27" y="-374.5" font-family="Times New Roman,serif" font-size="15.00">Check wire in long axis</text>
</g>
<!-- 2264718459424&#45;&#45;2264730967584 -->
<g id="edge60" class="edge"><title>2264718459424&#45;&#45;2264730967584</title>
<path fill="none" stroke="black" d="M3099.3,-437.597C3119.45,-426.13 3150.72,-408.337 3173.51,-395.365"/>
</g>
<!-- 2264730965328 -->
<g id="node64" class="node"><title>2264730965328</title>
<ellipse fill="black" stroke="black" cx="3332.27" cy="-378" rx="2.7" ry="2.7"/>
</g>
<!-- 2264718461872&#45;&#45;2264730965328 -->
<g id="edge62" class="edge"><title>2264718461872&#45;&#45;2264730965328</title>
<path fill="none" stroke="black" d="M3375.33,-433.811C3361.18,-415.797 3338.82,-387.343 3333.45,-380.511"/>
</g>
<!-- 2264730967248 -->
<g id="node65" class="node"><title>2264730967248</title>
<ellipse fill="none" stroke="black" cx="3442.27" cy="-378" rx="89.7798" ry="18"/>
<text text-anchor="middle" x="3442.27" y="-374.5" font-family="Times New Roman,serif" font-size="15.00">Remove guidewire</text>
</g>
<!-- 2264718461872&#45;&#45;2264730967248 -->
<g id="edge63" class="edge"><title>2264718461872&#45;&#45;2264730967248</title>
<path fill="none" stroke="black" d="M3399.2,-433.811C3407.92,-422.713 3419.75,-407.653 3428.81,-396.127"/>
</g>
<!-- 2264730965040 -->
<g id="node66" class="node"><title>2264730965040</title>
<ellipse fill="none" stroke="black" cx="3577.27" cy="-378" rx="27" ry="18"/>
<text text-anchor="middle" x="3577.27" y="-374.5" font-family="Times New Roman,serif" font-size="15.00">seq</text>
</g>
<!-- 2264718461872&#45;&#45;2264730965040 -->
<g id="edge67" class="edge"><title>2264718461872&#45;&#45;2264730965040</title>
<path fill="none" stroke="black" d="M3410.56,-440.417C3447.13,-426.945 3517.58,-400.991 3554.08,-387.544"/>
</g>
<!-- 2264730964128 -->
<g id="node67" class="node"><title>2264730964128</title>
<ellipse fill="none" stroke="black" cx="3363.27" cy="-306" rx="89.7798" ry="18"/>
<text text-anchor="middle" x="3363.27" y="-302.5" font-family="Times New Roman,serif" font-size="15.00">Remove guidewire</text>
</g>
<!-- 2264730965040&#45;&#45;2264730964128 -->
<g id="edge64" class="edge"><title>2264730965040&#45;&#45;2264730964128</title>
<path fill="none" stroke="black" d="M3553.55,-369.241C3518.51,-357.779 3452.28,-336.116 3407.95,-321.617"/>
</g>
<!-- 2264730967680 -->
<g id="node68" class="node"><title>2264730967680</title>
<ellipse fill="none" stroke="black" cx="3577.27" cy="-306" rx="106.134" ry="18"/>
<text text-anchor="middle" x="3577.27" y="-302.5" font-family="Times New Roman,serif" font-size="15.00">Check flow and reflow</text>
</g>
<!-- 2264730965040&#45;&#45;2264730967680 -->
<g id="edge65" class="edge"><title>2264730965040&#45;&#45;2264730967680</title>
<path fill="none" stroke="black" d="M3577.27,-359.697C3577.27,-348.846 3577.27,-334.917 3577.27,-324.104"/>
</g>
<!-- 2264730964560 -->
<g id="node69" class="node"><title>2264730964560</title>
<ellipse fill="none" stroke="black" cx="3809.27" cy="-306" rx="107.914" ry="18"/>
<text text-anchor="middle" x="3809.27" y="-302.5" font-family="Times New Roman,serif" font-size="15.00">Check catheter position</text>
</g>
<!-- 2264730965040&#45;&#45;2264730964560 -->
<g id="edge66" class="edge"><title>2264730965040&#45;&#45;2264730964560</title>
<path fill="none" stroke="black" d="M3601.66,-369.641C3638.88,-358.408 3710.67,-336.747 3759.28,-322.081"/>
</g>
</g>
</svg>
