<?xml version="1.0" encoding="UTF-8" standalone="no"?>
<!DOCTYPE svg PUBLIC "-//W3C//DTD SVG 1.1//EN"
 "http://www.w3.org/Graphics/SVG/1.1/DTD/svg11.dtd">
<!-- Generated by graphviz version 2.38.0 (20140413.2041)
 -->
<!-- Title: pt Pages: 1 -->
<svg width="2301pt" height="1340pt"
 viewBox="0.00 0.00 2300.80 1340.00" xmlns="http://www.w3.org/2000/svg" xmlns:xlink="http://www.w3.org/1999/xlink">
<g id="graph0" class="graph" transform="scale(1 1) rotate(0) translate(4 1336)">
<title>pt</title>
<!-- 2264718464528 -->
<g id="node1" class="node"><title>2264718464528</title>
<ellipse fill="none" stroke="black" cx="638.266" cy="-1314" rx="27" ry="18"/>
<text text-anchor="middle" x="638.266" y="-1310.5" font-family="Times New Roman,serif" font-size="15.00">and</text>
</g>
<!-- 2264718465680 -->
<g id="node2" class="node"><title>2264718465680</title>
<ellipse fill="none" stroke="black" cx="466.266" cy="-1242" rx="90.1697" ry="18"/>
<text text-anchor="middle" x="466.266" y="-1238.5" font-family="Times New Roman,serif" font-size="15.00">Drap puncture area</text>
</g>
<!-- 2264718464528&#45;&#45;2264718465680 -->
<g id="edge1" class="edge"><title>2264718464528&#45;&#45;2264718465680</title>
<path fill="none" stroke="black" d="M615.78,-1303.85C587.46,-1292.32 538.38,-1272.35 504.208,-1258.44"/>
</g>
<!-- 2264718463712 -->
<g id="node3" class="node"><title>2264718463712</title>
<ellipse fill="none" stroke="black" cx="638.266" cy="-1242" rx="63.8584" ry="18"/>
<text text-anchor="middle" x="638.266" y="-1238.5" font-family="Times New Roman,serif" font-size="15.00">Cover probe</text>
</g>
<!-- 2264718464528&#45;&#45;2264718463712 -->
<g id="edge2" class="edge"><title>2264718464528&#45;&#45;2264718463712</title>
<path fill="none" stroke="black" d="M638.266,-1295.7C638.266,-1284.85 638.266,-1270.92 638.266,-1260.1"/>
</g>
<!-- 2264718466640 -->
<g id="node4" class="node"><title>2264718466640</title>
<ellipse fill="none" stroke="black" cx="766.266" cy="-1242" rx="46.6143" ry="18"/>
<text text-anchor="middle" x="766.266" y="-1238.5" font-family="Times New Roman,serif" font-size="15.00">xor loop</text>
</g>
<!-- 2264718464528&#45;&#45;2264718466640 -->
<g id="edge94" class="edge"><title>2264718464528&#45;&#45;2264718466640</title>
<path fill="none" stroke="black" d="M658.548,-1301.91C680.683,-1289.8 716.182,-1270.39 740.328,-1257.18"/>
</g>
<!-- 2264718465536 -->
<g id="node5" class="node"><title>2264718465536</title>
<ellipse fill="none" stroke="black" cx="742.266" cy="-1170" rx="27" ry="18"/>
<text text-anchor="middle" x="742.266" y="-1166.5" font-family="Times New Roman,serif" font-size="15.00">xor</text>
</g>
<!-- 2264718466640&#45;&#45;2264718465536 -->
<g id="edge92" class="edge"><title>2264718466640&#45;&#45;2264718465536</title>
<path fill="none" stroke="black" d="M760.456,-1224.05C756.683,-1213.05 751.785,-1198.76 748.022,-1187.79"/>
</g>
<!-- 2265230058544 -->
<g id="node95" class="node"><title>2265230058544</title>
<ellipse fill="black" stroke="black" cx="790.266" cy="-1170" rx="2.7" ry="2.7"/>
</g>
<!-- 2264718466640&#45;&#45;2265230058544 -->
<g id="edge93" class="edge"><title>2264718466640&#45;&#45;2265230058544</title>
<path fill="none" stroke="black" d="M772.076,-1224.05C778.18,-1206.25 787.226,-1179.87 789.65,-1172.8"/>
</g>
<!-- 2265230060416 -->
<g id="node6" class="node"><title>2265230060416</title>
<ellipse fill="none" stroke="black" cx="685.266" cy="-1098" rx="70.3667" ry="18"/>
<text text-anchor="middle" x="685.266" y="-1094.5" font-family="Times New Roman,serif" font-size="15.00">Hand washing</text>
</g>
<!-- 2264718465536&#45;&#45;2265230060416 -->
<g id="edge3" class="edge"><title>2264718465536&#45;&#45;2265230060416</title>
<path fill="none" stroke="black" d="M729.898,-1153.81C720.861,-1142.71 708.597,-1127.65 699.212,-1116.13"/>
</g>
<!-- 2265230058928 -->
<g id="node7" class="node"><title>2265230058928</title>
<ellipse fill="none" stroke="black" cx="800.266" cy="-1098" rx="27" ry="18"/>
<text text-anchor="middle" x="800.266" y="-1094.5" font-family="Times New Roman,serif" font-size="15.00">seq</text>
</g>
<!-- 2264718465536&#45;&#45;2265230058928 -->
<g id="edge91" class="edge"><title>2264718465536&#45;&#45;2265230058928</title>
<path fill="none" stroke="black" d="M754.851,-1153.81C764.579,-1142.07 777.983,-1125.89 787.705,-1114.16"/>
</g>
<!-- 2265230058064 -->
<g id="node8" class="node"><title>2265230058064</title>
<ellipse fill="none" stroke="black" cx="720.266" cy="-1026" rx="27" ry="18"/>
<text text-anchor="middle" x="720.266" y="-1022.5" font-family="Times New Roman,serif" font-size="15.00">xor</text>
</g>
<!-- 2265230058928&#45;&#45;2265230058064 -->
<g id="edge13" class="edge"><title>2265230058928&#45;&#45;2265230058064</title>
<path fill="none" stroke="black" d="M784.46,-1083.17C770.435,-1070.9 750.054,-1053.06 736.038,-1040.8"/>
</g>
<!-- 2265230060704 -->
<g id="node18" class="node"><title>2265230060704</title>
<ellipse fill="none" stroke="black" cx="880.266" cy="-1026" rx="27" ry="18"/>
<text text-anchor="middle" x="880.266" y="-1022.5" font-family="Times New Roman,serif" font-size="15.00">xor</text>
</g>
<!-- 2265230058928&#45;&#45;2265230060704 -->
<g id="edge90" class="edge"><title>2265230058928&#45;&#45;2265230060704</title>
<path fill="none" stroke="black" d="M816.071,-1083.17C830.096,-1070.9 850.478,-1053.06 864.493,-1040.8"/>
</g>
<!-- 2265230059360 -->
<g id="node9" class="node"><title>2265230059360</title>
<ellipse fill="none" stroke="black" cx="599.266" cy="-954" rx="75.9851" ry="18"/>
<text text-anchor="middle" x="599.266" y="-950.5" font-family="Times New Roman,serif" font-size="15.00">Position patient</text>
</g>
<!-- 2265230058064&#45;&#45;2265230059360 -->
<g id="edge4" class="edge"><title>2265230058064&#45;&#45;2265230059360</title>
<path fill="none" stroke="black" d="M700.556,-1013.6C680.466,-1001.98 649.144,-983.855 626.649,-970.842"/>
</g>
<!-- 2265230059792 -->
<g id="node10" class="node"><title>2265230059792</title>
<ellipse fill="none" stroke="black" cx="720.266" cy="-954" rx="27" ry="18"/>
<text text-anchor="middle" x="720.266" y="-950.5" font-family="Times New Roman,serif" font-size="15.00">seq</text>
</g>
<!-- 2265230058064&#45;&#45;2265230059792 -->
<g id="edge12" class="edge"><title>2265230058064&#45;&#45;2265230059792</title>
<path fill="none" stroke="black" d="M720.266,-1007.7C720.266,-996.846 720.266,-982.917 720.266,-972.104"/>
</g>
<!-- 2265230057872 -->
<g id="node11" class="node"><title>2265230057872</title>
<ellipse fill="none" stroke="black" cx="441.266" cy="-882" rx="27" ry="18"/>
<text text-anchor="middle" x="441.266" y="-878.5" font-family="Times New Roman,serif" font-size="15.00">xor</text>
</g>
<!-- 2265230059792&#45;&#45;2265230057872 -->
<g id="edge8" class="edge"><title>2265230059792&#45;&#45;2265230057872</title>
<path fill="none" stroke="black" d="M695.506,-946.788C642.695,-933.538 519.488,-902.626 466.371,-889.299"/>
</g>
<!-- 2265230059552 -->
<g id="node15" class="node"><title>2265230059552</title>
<ellipse fill="none" stroke="black" cx="720.266" cy="-882" rx="27" ry="18"/>
<text text-anchor="middle" x="720.266" y="-878.5" font-family="Times New Roman,serif" font-size="15.00">xor</text>
</g>
<!-- 2265230059792&#45;&#45;2265230059552 -->
<g id="edge11" class="edge"><title>2265230059792&#45;&#45;2265230059552</title>
<path fill="none" stroke="black" d="M720.266,-935.697C720.266,-924.846 720.266,-910.917 720.266,-900.104"/>
</g>
<!-- 2265230059936 -->
<g id="node12" class="node"><title>2265230059936</title>
<ellipse fill="none" stroke="black" cx="113.266" cy="-810" rx="113.032" ry="18"/>
<text text-anchor="middle" x="113.266" y="-806.5" font-family="Times New Roman,serif" font-size="15.00">Ultrasound configuration</text>
</g>
<!-- 2265230057872&#45;&#45;2265230059936 -->
<g id="edge5" class="edge"><title>2265230057872&#45;&#45;2265230059936</title>
<path fill="none" stroke="black" d="M415.801,-875.565C365.227,-864.772 250.74,-840.339 178.007,-824.817"/>
</g>
<!-- 2265230060368 -->
<g id="node13" class="node"><title>2265230060368</title>
<ellipse fill="none" stroke="black" cx="337.266" cy="-810" rx="93.2286" ry="18"/>
<text text-anchor="middle" x="337.266" y="-806.5" font-family="Times New Roman,serif" font-size="15.00">Prepare implements</text>
</g>
<!-- 2265230057872&#45;&#45;2265230060368 -->
<g id="edge6" class="edge"><title>2265230057872&#45;&#45;2265230060368</title>
<path fill="none" stroke="black" d="M422.673,-868.485C405.729,-857.081 380.58,-840.154 361.956,-827.618"/>
</g>
<!-- 2265230059840 -->
<g id="node14" class="node"><title>2265230059840</title>
<ellipse fill="none" stroke="black" cx="545.266" cy="-810" rx="97.0675" ry="18"/>
<text text-anchor="middle" x="545.266" y="-806.5" font-family="Times New Roman,serif" font-size="15.00">Get in sterile clothes</text>
</g>
<!-- 2265230057872&#45;&#45;2265230059840 -->
<g id="edge7" class="edge"><title>2265230057872&#45;&#45;2265230059840</title>
<path fill="none" stroke="black" d="M459.859,-868.485C476.802,-857.081 501.952,-840.154 520.576,-827.618"/>
</g>
<!-- 2265100077376 -->
<g id="node16" class="node"><title>2265100077376</title>
<ellipse fill="black" stroke="black" cx="663.266" cy="-810" rx="2.7" ry="2.7"/>
</g>
<!-- 2265230059552&#45;&#45;2265100077376 -->
<g id="edge9" class="edge"><title>2265230059552&#45;&#45;2265100077376</title>
<path fill="none" stroke="black" d="M707.898,-865.811C693.229,-847.797 670.059,-819.343 664.496,-812.511"/>
</g>
<!-- 2265100078528 -->
<g id="node17" class="node"><title>2265100078528</title>
<ellipse fill="none" stroke="black" cx="777.266" cy="-810" rx="93.2286" ry="18"/>
<text text-anchor="middle" x="777.266" y="-806.5" font-family="Times New Roman,serif" font-size="15.00">Clean puncture area</text>
</g>
<!-- 2265230059552&#45;&#45;2265100078528 -->
<g id="edge10" class="edge"><title>2265230059552&#45;&#45;2265100078528</title>
<path fill="none" stroke="black" d="M732.634,-865.811C741.671,-854.713 753.934,-839.653 763.32,-828.127"/>
</g>
<!-- 2265100076752 -->
<g id="node19" class="node"><title>2265100076752</title>
<ellipse fill="black" stroke="black" cx="880.266" cy="-954" rx="2.7" ry="2.7"/>
</g>
<!-- 2265230060704&#45;&#45;2265100076752 -->
<g id="edge14" class="edge"><title>2265230060704&#45;&#45;2265100076752</title>
<path fill="none" stroke="black" d="M880.266,-1007.7C880.266,-989.883 880.266,-963.769 880.266,-956.776"/>
</g>
<!-- 2265100076944 -->
<g id="node20" class="node"><title>2265100076944</title>
<ellipse fill="none" stroke="black" cx="1165.27" cy="-954" rx="46.6143" ry="18"/>
<text text-anchor="middle" x="1165.27" y="-950.5" font-family="Times New Roman,serif" font-size="15.00">xor loop</text>
</g>
<!-- 2265230060704&#45;&#45;2265100076944 -->
<g id="edge89" class="edge"><title>2265230060704&#45;&#45;2265100076944</title>
<path fill="none" stroke="black" d="M905.558,-1018.79C955.691,-1006.47 1067.92,-978.909 1127.09,-964.377"/>
</g>
<!-- 2265100075504 -->
<g id="node21" class="node"><title>2265100075504</title>
<ellipse fill="none" stroke="black" cx="1165.27" cy="-882" rx="27" ry="18"/>
<text text-anchor="middle" x="1165.27" y="-878.5" font-family="Times New Roman,serif" font-size="15.00">xor</text>
</g>
<!-- 2265100076944&#45;&#45;2265100075504 -->
<g id="edge87" class="edge"><title>2265100076944&#45;&#45;2265100075504</title>
<path fill="none" stroke="black" d="M1165.27,-935.697C1165.27,-924.846 1165.27,-910.917 1165.27,-900.104"/>
</g>
<!-- 2265100075120 -->
<g id="node94" class="node"><title>2265100075120</title>
<ellipse fill="black" stroke="black" cx="1213.27" cy="-882" rx="2.7" ry="2.7"/>
</g>
<!-- 2265100076944&#45;&#45;2265100075120 -->
<g id="edge88" class="edge"><title>2265100076944&#45;&#45;2265100075120</title>
<path fill="none" stroke="black" d="M1176.64,-936.411C1188.84,-918.622 1207.12,-891.962 1212.02,-884.816"/>
</g>
<!-- 2265100077712 -->
<g id="node22" class="node"><title>2265100077712</title>
<ellipse fill="none" stroke="black" cx="952.266" cy="-810" rx="63.8584" ry="18"/>
<text text-anchor="middle" x="952.266" y="-806.5" font-family="Times New Roman,serif" font-size="15.00">Gel in probe</text>
</g>
<!-- 2265100075504&#45;&#45;2265100077712 -->
<g id="edge15" class="edge"><title>2265100075504&#45;&#45;2265100077712</title>
<path fill="none" stroke="black" d="M1141.66,-873.241C1105.59,-861.388 1036.32,-838.624 992.3,-824.157"/>
</g>
<!-- 2265100079008 -->
<g id="node23" class="node"><title>2265100079008</title>
<ellipse fill="none" stroke="black" cx="1093.27" cy="-810" rx="59.1301" ry="18"/>
<text text-anchor="middle" x="1093.27" y="-806.5" font-family="Times New Roman,serif" font-size="15.00">Anesthetize</text>
</g>
<!-- 2265100075504&#45;&#45;2265100079008 -->
<g id="edge16" class="edge"><title>2265100075504&#45;&#45;2265100079008</title>
<path fill="none" stroke="black" d="M1150.7,-866.834C1138.94,-855.409 1122.4,-839.326 1110.09,-827.354"/>
</g>
<!-- 2265100078096 -->
<g id="node24" class="node"><title>2265100078096</title>
<ellipse fill="none" stroke="black" cx="1238.27" cy="-810" rx="68.1971" ry="18"/>
<text text-anchor="middle" x="1238.27" y="-806.5" font-family="Times New Roman,serif" font-size="15.00">Put sterile gel</text>
</g>
<!-- 2265100075504&#45;&#45;2265100078096 -->
<g id="edge17" class="edge"><title>2265100075504&#45;&#45;2265100078096</title>
<path fill="none" stroke="black" d="M1180.04,-866.834C1191.87,-855.489 1208.49,-839.551 1220.95,-827.606"/>
</g>
<!-- 2265100078960 -->
<g id="node25" class="node"><title>2265100078960</title>
<ellipse fill="none" stroke="black" cx="1433.27" cy="-810" rx="108.303" ry="18"/>
<text text-anchor="middle" x="1433.27" y="-806.5" font-family="Times New Roman,serif" font-size="15.00">Anatomic identification</text>
</g>
<!-- 2265100075504&#45;&#45;2265100078960 -->
<g id="edge18" class="edge"><title>2265100075504&#45;&#45;2265100078960</title>
<path fill="none" stroke="black" d="M1190,-874.54C1232.44,-863.456 1320.12,-840.554 1377.8,-825.488"/>
</g>
<!-- 2265100075408 -->
<g id="node26" class="node"><title>2265100075408</title>
<ellipse fill="none" stroke="black" cx="1586.27" cy="-810" rx="27" ry="18"/>
<text text-anchor="middle" x="1586.27" y="-806.5" font-family="Times New Roman,serif" font-size="15.00">seq</text>
</g>
<!-- 2265100075504&#45;&#45;2265100075408 -->
<g id="edge86" class="edge"><title>2265100075504&#45;&#45;2265100075408</title>
<path fill="none" stroke="black" d="M1191.28,-876.674C1266.76,-864.125 1485.17,-827.81 1560.42,-815.297"/>
</g>
<!-- 2265100078720 -->
<g id="node27" class="node"><title>2265100078720</title>
<ellipse fill="none" stroke="black" cx="1490.27" cy="-738" rx="27" ry="18"/>
<text text-anchor="middle" x="1490.27" y="-734.5" font-family="Times New Roman,serif" font-size="15.00">xor</text>
</g>
<!-- 2265100075408&#45;&#45;2265100078720 -->
<g id="edge68" class="edge"><title>2265100075408&#45;&#45;2265100078720</title>
<path fill="none" stroke="black" d="M1568.66,-796.161C1551.34,-783.531 1525.04,-764.36 1507.76,-751.758"/>
</g>
<!-- 2265100078336 -->
<g id="node77" class="node"><title>2265100078336</title>
<ellipse fill="none" stroke="black" cx="1666.27" cy="-738" rx="27" ry="18"/>
<text text-anchor="middle" x="1666.27" y="-734.5" font-family="Times New Roman,serif" font-size="15.00">xor</text>
</g>
<!-- 2265100075408&#45;&#45;2265100078336 -->
<g id="edge85" class="edge"><title>2265100075408&#45;&#45;2265100078336</title>
<path fill="none" stroke="black" d="M1602.07,-795.17C1616.1,-782.898 1636.48,-765.064 1650.49,-752.801"/>
</g>
<!-- 2265100078432 -->
<g id="node28" class="node"><title>2265100078432</title>
<ellipse fill="black" stroke="black" cx="1423.27" cy="-666" rx="2.7" ry="2.7"/>
</g>
<!-- 2265100078720&#45;&#45;2265100078432 -->
<g id="edge19" class="edge"><title>2265100078720&#45;&#45;2265100078432</title>
<path fill="none" stroke="black" d="M1476.38,-722.496C1459.21,-704.555 1431.42,-675.522 1424.74,-668.544"/>
</g>
<!-- 2265100078288 -->
<g id="node29" class="node"><title>2265100078288</title>
<ellipse fill="none" stroke="black" cx="1490.27" cy="-666" rx="46.6143" ry="18"/>
<text text-anchor="middle" x="1490.27" y="-662.5" font-family="Times New Roman,serif" font-size="15.00">xor loop</text>
</g>
<!-- 2265100078720&#45;&#45;2265100078288 -->
<g id="edge67" class="edge"><title>2265100078720&#45;&#45;2265100078288</title>
<path fill="none" stroke="black" d="M1490.27,-719.697C1490.27,-708.846 1490.27,-694.917 1490.27,-684.104"/>
</g>
<!-- 2265100075840 -->
<g id="node30" class="node"><title>2265100075840</title>
<ellipse fill="none" stroke="black" cx="1411.27" cy="-594" rx="27" ry="18"/>
<text text-anchor="middle" x="1411.27" y="-590.5" font-family="Times New Roman,serif" font-size="15.00">seq</text>
</g>
<!-- 2265100078288&#45;&#45;2265100075840 -->
<g id="edge65" class="edge"><title>2265100078288&#45;&#45;2265100075840</title>
<path fill="none" stroke="black" d="M1472.34,-649.116C1458.68,-637.015 1440.06,-620.515 1426.98,-608.927"/>
</g>
<!-- 2265100076608 -->
<g id="node76" class="node"><title>2265100076608</title>
<ellipse fill="black" stroke="black" cx="1490.27" cy="-594" rx="2.7" ry="2.7"/>
</g>
<!-- 2265100078288&#45;&#45;2265100076608 -->
<g id="edge66" class="edge"><title>2265100078288&#45;&#45;2265100076608</title>
<path fill="none" stroke="black" d="M1490.27,-647.697C1490.27,-629.883 1490.27,-603.769 1490.27,-596.776"/>
</g>
<!-- 2265100076512 -->
<g id="node31" class="node"><title>2265100076512</title>
<ellipse fill="none" stroke="black" cx="1071.27" cy="-522" rx="27" ry="18"/>
<text text-anchor="middle" x="1071.27" y="-518.5" font-family="Times New Roman,serif" font-size="15.00">xor</text>
</g>
<!-- 2265100075840&#45;&#45;2265100076512 -->
<g id="edge22" class="edge"><title>2265100075840&#45;&#45;2265100076512</title>
<path fill="none" stroke="black" d="M1385.71,-587.739C1322.55,-574.734 1159.64,-541.195 1096.65,-528.227"/>
</g>
<!-- 2265100075456 -->
<g id="node34" class="node"><title>2265100075456</title>
<ellipse fill="none" stroke="black" cx="1256.27" cy="-522" rx="27" ry="18"/>
<text text-anchor="middle" x="1256.27" y="-518.5" font-family="Times New Roman,serif" font-size="15.00">and</text>
</g>
<!-- 2265100075840&#45;&#45;2265100075456 -->
<g id="edge29" class="edge"><title>2265100075840&#45;&#45;2265100075456</title>
<path fill="none" stroke="black" d="M1389.39,-583.119C1359.85,-569.778 1307.52,-546.146 1278.03,-532.831"/>
</g>
<!-- 2265100078816 -->
<g id="node41" class="node"><title>2265100078816</title>
<ellipse fill="none" stroke="black" cx="1403.27" cy="-522" rx="27" ry="18"/>
<text text-anchor="middle" x="1403.27" y="-518.5" font-family="Times New Roman,serif" font-size="15.00">xor</text>
</g>
<!-- 2265100075840&#45;&#45;2265100078816 -->
<g id="edge32" class="edge"><title>2265100075840&#45;&#45;2265100078816</title>
<path fill="none" stroke="black" d="M1409.29,-575.697C1408.05,-564.846 1406.46,-550.917 1405.22,-540.104"/>
</g>
<!-- 2264836079824 -->
<g id="node44" class="node"><title>2264836079824</title>
<ellipse fill="none" stroke="black" cx="1502.27" cy="-522" rx="27" ry="18"/>
<text text-anchor="middle" x="1502.27" y="-518.5" font-family="Times New Roman,serif" font-size="15.00">xor</text>
</g>
<!-- 2265100075840&#45;&#45;2264836079824 -->
<g id="edge35" class="edge"><title>2265100075840&#45;&#45;2264836079824</title>
<path fill="none" stroke="black" d="M1428.38,-579.834C1444.65,-567.319 1468.98,-548.603 1485.23,-536.107"/>
</g>
<!-- 2264836080448 -->
<g id="node47" class="node"><title>2264836080448</title>
<ellipse fill="none" stroke="black" cx="1712.27" cy="-522" rx="27" ry="18"/>
<text text-anchor="middle" x="1712.27" y="-518.5" font-family="Times New Roman,serif" font-size="15.00">xor</text>
</g>
<!-- 2265100075840&#45;&#45;2264836080448 -->
<g id="edge64" class="edge"><title>2265100075840&#45;&#45;2264836080448</title>
<path fill="none" stroke="black" d="M1436.41,-587.152C1493.07,-573.976 1630.19,-542.088 1686.98,-528.88"/>
</g>
<!-- 2265100077184 -->
<g id="node32" class="node"><title>2265100077184</title>
<ellipse fill="black" stroke="black" cx="986.266" cy="-450" rx="2.7" ry="2.7"/>
</g>
<!-- 2265100076512&#45;&#45;2265100077184 -->
<g id="edge20" class="edge"><title>2265100076512&#45;&#45;2265100077184</title>
<path fill="none" stroke="black" d="M1054.88,-507.503C1033.26,-489.705 996.943,-459.793 988.201,-452.594"/>
</g>
<!-- 2265100077424 -->
<g id="node33" class="node"><title>2265100077424</title>
<ellipse fill="none" stroke="black" cx="1071.27" cy="-450" rx="63.8584" ry="18"/>
<text text-anchor="middle" x="1071.27" y="-446.5" font-family="Times New Roman,serif" font-size="15.00">Blood return</text>
</g>
<!-- 2265100076512&#45;&#45;2265100077424 -->
<g id="edge21" class="edge"><title>2265100076512&#45;&#45;2265100077424</title>
<path fill="none" stroke="black" d="M1071.27,-503.697C1071.27,-492.846 1071.27,-478.917 1071.27,-468.104"/>
</g>
<!-- 2265100078480 -->
<g id="node35" class="node"><title>2265100078480</title>
<ellipse fill="none" stroke="black" cx="1180.27" cy="-450" rx="27" ry="18"/>
<text text-anchor="middle" x="1180.27" y="-446.5" font-family="Times New Roman,serif" font-size="15.00">xor</text>
</g>
<!-- 2265100075456&#45;&#45;2265100078480 -->
<g id="edge25" class="edge"><title>2265100075456&#45;&#45;2265100078480</title>
<path fill="none" stroke="black" d="M1240.89,-506.834C1227.7,-494.69 1208.8,-477.283 1195.62,-465.144"/>
</g>
<!-- 2264836082080 -->
<g id="node38" class="node"><title>2264836082080</title>
<ellipse fill="none" stroke="black" cx="1256.27" cy="-450" rx="27" ry="18"/>
<text text-anchor="middle" x="1256.27" y="-446.5" font-family="Times New Roman,serif" font-size="15.00">xor</text>
</g>
<!-- 2265100075456&#45;&#45;2264836082080 -->
<g id="edge28" class="edge"><title>2265100075456&#45;&#45;2264836082080</title>
<path fill="none" stroke="black" d="M1256.27,-503.697C1256.27,-492.846 1256.27,-478.917 1256.27,-468.104"/>
</g>
<!-- 2264836080064 -->
<g id="node36" class="node"><title>2264836080064</title>
<ellipse fill="black" stroke="black" cx="1098.27" cy="-378" rx="2.7" ry="2.7"/>
</g>
<!-- 2265100078480&#45;&#45;2264836080064 -->
<g id="edge23" class="edge"><title>2265100078480&#45;&#45;2264836080064</title>
<path fill="none" stroke="black" d="M1164.07,-435.17C1143.16,-417.32 1108.46,-387.702 1100.11,-380.577"/>
</g>
<!-- 2264836081024 -->
<g id="node37" class="node"><title>2264836081024</title>
<ellipse fill="none" stroke="black" cx="1178.27" cy="-378" rx="59.5207" ry="18"/>
<text text-anchor="middle" x="1178.27" y="-374.5" font-family="Times New Roman,serif" font-size="15.00">Drop probe</text>
</g>
<!-- 2265100078480&#45;&#45;2264836081024 -->
<g id="edge24" class="edge"><title>2265100078480&#45;&#45;2264836081024</title>
<path fill="none" stroke="black" d="M1179.77,-431.697C1179.46,-420.846 1179.06,-406.917 1178.75,-396.104"/>
</g>
<!-- 2264836080304 -->
<g id="node39" class="node"><title>2264836080304</title>
<ellipse fill="black" stroke="black" cx="1258.27" cy="-378" rx="2.7" ry="2.7"/>
</g>
<!-- 2264836082080&#45;&#45;2264836080304 -->
<g id="edge26" class="edge"><title>2264836082080&#45;&#45;2264836080304</title>
<path fill="none" stroke="black" d="M1256.76,-431.697C1257.27,-413.883 1258.02,-387.769 1258.22,-380.776"/>
</g>
<!-- 2264836079968 -->
<g id="node40" class="node"><title>2264836079968</title>
<ellipse fill="none" stroke="black" cx="1326.27" cy="-378" rx="47.0053" ry="18"/>
<text text-anchor="middle" x="1326.27" y="-374.5" font-family="Times New Roman,serif" font-size="15.00">Puncture</text>
</g>
<!-- 2264836082080&#45;&#45;2264836079968 -->
<g id="edge27" class="edge"><title>2264836082080&#45;&#45;2264836079968</title>
<path fill="none" stroke="black" d="M1270.77,-434.496C1282.3,-422.963 1298.42,-406.845 1310.32,-394.95"/>
</g>
<!-- 2264836080640 -->
<g id="node42" class="node"><title>2264836080640</title>
<ellipse fill="black" stroke="black" cx="1304.27" cy="-450" rx="2.7" ry="2.7"/>
</g>
<!-- 2265100078816&#45;&#45;2264836080640 -->
<g id="edge30" class="edge"><title>2265100078816&#45;&#45;2264836080640</title>
<path fill="none" stroke="black" d="M1385.11,-508.161C1359.65,-490.163 1315.41,-458.883 1306.04,-452.256"/>
</g>
<!-- 2264836080208 -->
<g id="node43" class="node"><title>2264836080208</title>
<ellipse fill="none" stroke="black" cx="1403.27" cy="-450" rx="77.654" ry="18"/>
<text text-anchor="middle" x="1403.27" y="-446.5" font-family="Times New Roman,serif" font-size="15.00">Remove syringe</text>
</g>
<!-- 2265100078816&#45;&#45;2264836080208 -->
<g id="edge31" class="edge"><title>2265100078816&#45;&#45;2264836080208</title>
<path fill="none" stroke="black" d="M1403.27,-503.697C1403.27,-492.846 1403.27,-478.917 1403.27,-468.104"/>
</g>
<!-- 2264836082656 -->
<g id="node45" class="node"><title>2264836082656</title>
<ellipse fill="black" stroke="black" cx="1502.27" cy="-450" rx="2.7" ry="2.7"/>
</g>
<!-- 2264836079824&#45;&#45;2264836082656 -->
<g id="edge33" class="edge"><title>2264836079824&#45;&#45;2264836082656</title>
<path fill="none" stroke="black" d="M1502.27,-503.697C1502.27,-485.883 1502.27,-459.769 1502.27,-452.776"/>
</g>
<!-- 2264819546864 -->
<g id="node46" class="node"><title>2264819546864</title>
<ellipse fill="none" stroke="black" cx="1607.27" cy="-450" rx="84.1616" ry="18"/>
<text text-anchor="middle" x="1607.27" y="-446.5" font-family="Times New Roman,serif" font-size="15.00">Guidewire install</text>
</g>
<!-- 2264836079824&#45;&#45;2264819546864 -->
<g id="edge34" class="edge"><title>2264836079824&#45;&#45;2264819546864</title>
<path fill="none" stroke="black" d="M1521.04,-508.485C1538.26,-497.002 1563.89,-479.92 1582.73,-467.359"/>
</g>
<!-- 2264819547440 -->
<g id="node48" class="node"><title>2264819547440</title>
<ellipse fill="black" stroke="black" cx="1712.27" cy="-450" rx="2.7" ry="2.7"/>
</g>
<!-- 2264836080448&#45;&#45;2264819547440 -->
<g id="edge36" class="edge"><title>2264836080448&#45;&#45;2264819547440</title>
<path fill="none" stroke="black" d="M1712.27,-503.697C1712.27,-485.883 1712.27,-459.769 1712.27,-452.776"/>
</g>
<!-- 2264819545184 -->
<g id="node49" class="node"><title>2264819545184</title>
<ellipse fill="none" stroke="black" cx="1779.27" cy="-450" rx="46.6143" ry="18"/>
<text text-anchor="middle" x="1779.27" y="-446.5" font-family="Times New Roman,serif" font-size="15.00">xor loop</text>
</g>
<!-- 2264836080448&#45;&#45;2264819545184 -->
<g id="edge63" class="edge"><title>2264836080448&#45;&#45;2264819545184</title>
<path fill="none" stroke="black" d="M1726.15,-506.496C1737.11,-495.043 1752.4,-479.069 1763.76,-467.198"/>
</g>
<!-- 2264819546576 -->
<g id="node50" class="node"><title>2264819546576</title>
<ellipse fill="none" stroke="black" cx="1748.27" cy="-378" rx="27" ry="18"/>
<text text-anchor="middle" x="1748.27" y="-374.5" font-family="Times New Roman,serif" font-size="15.00">seq</text>
</g>
<!-- 2264819545184&#45;&#45;2264819546576 -->
<g id="edge61" class="edge"><title>2264819545184&#45;&#45;2264819546576</title>
<path fill="none" stroke="black" d="M1771.76,-432.055C1766.89,-421.049 1760.56,-406.764 1755.7,-395.789"/>
</g>
<!-- 2264819546432 -->
<g id="node75" class="node"><title>2264819546432</title>
<ellipse fill="black" stroke="black" cx="1796.27" cy="-378" rx="2.7" ry="2.7"/>
</g>
<!-- 2264819545184&#45;&#45;2264819546432 -->
<g id="edge62" class="edge"><title>2264819545184&#45;&#45;2264819546432</title>
<path fill="none" stroke="black" d="M1783.38,-432.055C1787.7,-414.252 1794.11,-387.865 1795.83,-380.796"/>
</g>
<!-- 2264819545760 -->
<g id="node51" class="node"><title>2264819545760</title>
<ellipse fill="none" stroke="black" cx="1455.27" cy="-306" rx="27" ry="18"/>
<text text-anchor="middle" x="1455.27" y="-302.5" font-family="Times New Roman,serif" font-size="15.00">xor</text>
</g>
<!-- 2264819546576&#45;&#45;2264819545760 -->
<g id="edge39" class="edge"><title>2264819546576&#45;&#45;2264819545760</title>
<path fill="none" stroke="black" d="M1723.28,-371.032C1667.93,-357.807 1535.48,-326.164 1480.18,-312.953"/>
</g>
<!-- 2264819546672 -->
<g id="node54" class="node"><title>2264819546672</title>
<ellipse fill="none" stroke="black" cx="1681.27" cy="-306" rx="27" ry="18"/>
<text text-anchor="middle" x="1681.27" y="-302.5" font-family="Times New Roman,serif" font-size="15.00">xor</text>
</g>
<!-- 2264819546576&#45;&#45;2264819546672 -->
<g id="edge42" class="edge"><title>2264819546576&#45;&#45;2264819546672</title>
<path fill="none" stroke="black" d="M1734.38,-362.496C1722.88,-350.482 1706.62,-333.494 1695.13,-321.485"/>
</g>
<!-- 2264819546480 -->
<g id="node57" class="node"><title>2264819546480</title>
<ellipse fill="none" stroke="black" cx="1814.27" cy="-306" rx="27" ry="18"/>
<text text-anchor="middle" x="1814.27" y="-302.5" font-family="Times New Roman,serif" font-size="15.00">xor</text>
</g>
<!-- 2264819546576&#45;&#45;2264819546480 -->
<g id="edge51" class="edge"><title>2264819546576&#45;&#45;2264819546480</title>
<path fill="none" stroke="black" d="M1762.26,-362.155C1773.46,-350.276 1789.09,-333.697 1800.29,-321.824"/>
</g>
<!-- 2264819544464 -->
<g id="node66" class="node"><title>2264819544464</title>
<ellipse fill="none" stroke="black" cx="1948.27" cy="-306" rx="27" ry="18"/>
<text text-anchor="middle" x="1948.27" y="-302.5" font-family="Times New Roman,serif" font-size="15.00">xor</text>
</g>
<!-- 2264819546576&#45;&#45;2264819544464 -->
<g id="edge60" class="edge"><title>2264819546576&#45;&#45;2264819544464</title>
<path fill="none" stroke="black" d="M1771.6,-368.833C1810.03,-355.381 1886.23,-328.712 1924.77,-315.223"/>
</g>
<!-- 2264819548112 -->
<g id="node52" class="node"><title>2264819548112</title>
<ellipse fill="black" stroke="black" cx="1362.27" cy="-234" rx="2.7" ry="2.7"/>
</g>
<!-- 2264819545760&#45;&#45;2264819548112 -->
<g id="edge37" class="edge"><title>2264819545760&#45;&#45;2264819548112</title>
<path fill="none" stroke="black" d="M1437.77,-291.834C1413.78,-273.774 1372.63,-242.802 1363.92,-236.243"/>
</g>
<!-- 2264819546336 -->
<g id="node53" class="node"><title>2264819546336</title>
<ellipse fill="none" stroke="black" cx="1455.27" cy="-234" rx="72.0363" ry="18"/>
<text text-anchor="middle" x="1455.27" y="-230.5" font-family="Times New Roman,serif" font-size="15.00">Remove trocar</text>
</g>
<!-- 2264819545760&#45;&#45;2264819546336 -->
<g id="edge38" class="edge"><title>2264819545760&#45;&#45;2264819546336</title>
<path fill="none" stroke="black" d="M1455.27,-287.697C1455.27,-276.846 1455.27,-262.917 1455.27,-252.104"/>
</g>
<!-- 2264819544416 -->
<g id="node55" class="node"><title>2264819544416</title>
<ellipse fill="black" stroke="black" cx="1548.27" cy="-234" rx="2.7" ry="2.7"/>
</g>
<!-- 2264819546672&#45;&#45;2264819544416 -->
<g id="edge40" class="edge"><title>2264819546672&#45;&#45;2264819544416</title>
<path fill="none" stroke="black" d="M1660.78,-294.216C1626.97,-276.421 1562.03,-242.246 1550.16,-235.995"/>
</g>
<!-- 2264819544512 -->
<g id="node56" class="node"><title>2264819544512</title>
<ellipse fill="none" stroke="black" cx="1681.27" cy="-234" rx="111.752" ry="18"/>
<text text-anchor="middle" x="1681.27" y="-230.5" font-family="Times New Roman,serif" font-size="15.00">Check wire in short axis</text>
</g>
<!-- 2264819546672&#45;&#45;2264819544512 -->
<g id="edge41" class="edge"><title>2264819546672&#45;&#45;2264819544512</title>
<path fill="none" stroke="black" d="M1681.27,-287.697C1681.27,-276.846 1681.27,-262.917 1681.27,-252.104"/>
</g>
<!-- 2264819545856 -->
<g id="node58" class="node"><title>2264819545856</title>
<ellipse fill="black" stroke="black" cx="1814.27" cy="-234" rx="2.7" ry="2.7"/>
</g>
<!-- 2264819546480&#45;&#45;2264819545856 -->
<g id="edge43" class="edge"><title>2264819546480&#45;&#45;2264819545856</title>
<path fill="none" stroke="black" d="M1814.27,-287.697C1814.27,-269.883 1814.27,-243.769 1814.27,-236.776"/>
</g>
<!-- 2264819546912 -->
<g id="node59" class="node"><title>2264819546912</title>
<ellipse fill="none" stroke="black" cx="1881.27" cy="-234" rx="46.6143" ry="18"/>
<text text-anchor="middle" x="1881.27" y="-230.5" font-family="Times New Roman,serif" font-size="15.00">xor loop</text>
</g>
<!-- 2264819546480&#45;&#45;2264819546912 -->
<g id="edge50" class="edge"><title>2264819546480&#45;&#45;2264819546912</title>
<path fill="none" stroke="black" d="M1828.15,-290.496C1839.11,-279.043 1854.4,-263.069 1865.76,-251.198"/>
</g>
<!-- 2264819546048 -->
<g id="node60" class="node"><title>2264819546048</title>
<ellipse fill="none" stroke="black" cx="1857.27" cy="-162" rx="27" ry="18"/>
<text text-anchor="middle" x="1857.27" y="-158.5" font-family="Times New Roman,serif" font-size="15.00">seq</text>
</g>
<!-- 2264819546912&#45;&#45;2264819546048 -->
<g id="edge48" class="edge"><title>2264819546912&#45;&#45;2264819546048</title>
<path fill="none" stroke="black" d="M1875.46,-216.055C1871.68,-205.049 1866.78,-190.764 1863.02,-179.789"/>
</g>
<!-- 2264819544272 -->
<g id="node65" class="node"><title>2264819544272</title>
<ellipse fill="black" stroke="black" cx="1905.27" cy="-162" rx="2.7" ry="2.7"/>
</g>
<!-- 2264819546912&#45;&#45;2264819544272 -->
<g id="edge49" class="edge"><title>2264819546912&#45;&#45;2264819544272</title>
<path fill="none" stroke="black" d="M1887.08,-216.055C1893.18,-198.252 1902.23,-171.865 1904.65,-164.796"/>
</g>
<!-- 2264819547680 -->
<g id="node61" class="node"><title>2264819547680</title>
<ellipse fill="none" stroke="black" cx="1707.27" cy="-90" rx="109.193" ry="18"/>
<text text-anchor="middle" x="1707.27" y="-86.5" font-family="Times New Roman,serif" font-size="15.00">Check wire in long axis</text>
</g>
<!-- 2264819546048&#45;&#45;2264819547680 -->
<g id="edge44" class="edge"><title>2264819546048&#45;&#45;2264819547680</title>
<path fill="none" stroke="black" d="M1835.77,-150.971C1811.23,-139.516 1770.73,-120.616 1741.75,-107.094"/>
</g>
<!-- 2264819547248 -->
<g id="node62" class="node"><title>2264819547248</title>
<ellipse fill="none" stroke="black" cx="1861.27" cy="-90" rx="27" ry="18"/>
<text text-anchor="middle" x="1861.27" y="-86.5" font-family="Times New Roman,serif" font-size="15.00">xor</text>
</g>
<!-- 2264819546048&#45;&#45;2264819547248 -->
<g id="edge47" class="edge"><title>2264819546048&#45;&#45;2264819547248</title>
<path fill="none" stroke="black" d="M1858.25,-143.697C1858.87,-132.846 1859.67,-118.917 1860.29,-108.104"/>
</g>
<!-- 2264819546096 -->
<g id="node63" class="node"><title>2264819546096</title>
<ellipse fill="black" stroke="black" cx="1740.27" cy="-18" rx="2.7" ry="2.7"/>
</g>
<!-- 2264819547248&#45;&#45;2264819546096 -->
<g id="edge45" class="edge"><title>2264819547248&#45;&#45;2264819546096</title>
<path fill="none" stroke="black" d="M1841.56,-77.5975C1810.75,-59.7767 1753.54,-26.6783 1742.23,-20.1391"/>
</g>
<!-- 2264721195888 -->
<g id="node64" class="node"><title>2264721195888</title>
<ellipse fill="none" stroke="black" cx="1862.27" cy="-18" rx="101.406" ry="18"/>
<text text-anchor="middle" x="1862.27" y="-14.5" font-family="Times New Roman,serif" font-size="15.00">Wire in good position</text>
</g>
<!-- 2264819547248&#45;&#45;2264721195888 -->
<g id="edge46" class="edge"><title>2264819547248&#45;&#45;2264721195888</title>
<path fill="none" stroke="black" d="M1861.51,-71.6966C1861.67,-60.8463 1861.87,-46.9167 1862.02,-36.1043"/>
</g>
<!-- 2264721196464 -->
<g id="node67" class="node"><title>2264721196464</title>
<ellipse fill="black" stroke="black" cx="1948.27" cy="-234" rx="2.7" ry="2.7"/>
</g>
<!-- 2264819544464&#45;&#45;2264721196464 -->
<g id="edge52" class="edge"><title>2264819544464&#45;&#45;2264721196464</title>
<path fill="none" stroke="black" d="M1948.27,-287.697C1948.27,-269.883 1948.27,-243.769 1948.27,-236.776"/>
</g>
<!-- 2264721196608 -->
<g id="node68" class="node"><title>2264721196608</title>
<ellipse fill="none" stroke="black" cx="2015.27" cy="-234" rx="46.6143" ry="18"/>
<text text-anchor="middle" x="2015.27" y="-230.5" font-family="Times New Roman,serif" font-size="15.00">xor loop</text>
</g>
<!-- 2264819544464&#45;&#45;2264721196608 -->
<g id="edge59" class="edge"><title>2264819544464&#45;&#45;2264721196608</title>
<path fill="none" stroke="black" d="M1962.15,-290.496C1973.11,-279.043 1988.4,-263.069 1999.76,-251.198"/>
</g>
<!-- 2264721198144 -->
<g id="node69" class="node"><title>2264721198144</title>
<ellipse fill="none" stroke="black" cx="1997.27" cy="-162" rx="27" ry="18"/>
<text text-anchor="middle" x="1997.27" y="-158.5" font-family="Times New Roman,serif" font-size="15.00">seq</text>
</g>
<!-- 2264721196608&#45;&#45;2264721198144 -->
<g id="edge57" class="edge"><title>2264721196608&#45;&#45;2264721198144</title>
<path fill="none" stroke="black" d="M2010.91,-216.055C2008.08,-205.049 2004.41,-190.764 2001.58,-179.789"/>
</g>
<!-- 2264721195744 -->
<g id="node74" class="node"><title>2264721195744</title>
<ellipse fill="black" stroke="black" cx="2045.27" cy="-162" rx="2.7" ry="2.7"/>
</g>
<!-- 2264721196608&#45;&#45;2264721195744 -->
<g id="edge58" class="edge"><title>2264721196608&#45;&#45;2264721195744</title>
<path fill="none" stroke="black" d="M2022.53,-216.055C2030.16,-198.252 2041.47,-171.865 2044.5,-164.796"/>
</g>
<!-- 2264721198288 -->
<g id="node70" class="node"><title>2264721198288</title>
<ellipse fill="none" stroke="black" cx="1988.27" cy="-90" rx="27" ry="18"/>
<text text-anchor="middle" x="1988.27" y="-86.5" font-family="Times New Roman,serif" font-size="15.00">xor</text>
</g>
<!-- 2264721198144&#45;&#45;2264721198288 -->
<g id="edge55" class="edge"><title>2264721198144&#45;&#45;2264721198288</title>
<path fill="none" stroke="black" d="M1995.09,-144.055C1993.69,-133.211 1991.89,-119.183 1990.49,-108.275"/>
</g>
<!-- 2264721197184 -->
<g id="node73" class="node"><title>2264721197184</title>
<ellipse fill="none" stroke="black" cx="2116.27" cy="-90" rx="82.8824" ry="18"/>
<text text-anchor="middle" x="2116.27" y="-86.5" font-family="Times New Roman,serif" font-size="15.00">Advance catheter</text>
</g>
<!-- 2264721198144&#45;&#45;2264721197184 -->
<g id="edge56" class="edge"><title>2264721198144&#45;&#45;2264721197184</title>
<path fill="none" stroke="black" d="M2016.92,-149.441C2036.59,-137.869 2067.02,-119.97 2089.02,-107.029"/>
</g>
<!-- 2264721197520 -->
<g id="node71" class="node"><title>2264721197520</title>
<ellipse fill="black" stroke="black" cx="1986.27" cy="-18" rx="2.7" ry="2.7"/>
</g>
<!-- 2264721198288&#45;&#45;2264721197520 -->
<g id="edge53" class="edge"><title>2264721198288&#45;&#45;2264721197520</title>
<path fill="none" stroke="black" d="M1987.77,-71.6966C1987.26,-53.8826 1986.52,-27.7686 1986.32,-20.7764"/>
</g>
<!-- 2264721198096 -->
<g id="node72" class="node"><title>2264721198096</title>
<ellipse fill="none" stroke="black" cx="2082.27" cy="-18" rx="75.9851" ry="18"/>
<text text-anchor="middle" x="2082.27" y="-14.5" font-family="Times New Roman,serif" font-size="15.00">Widen pathway</text>
</g>
<!-- 2264721198288&#45;&#45;2264721198096 -->
<g id="edge54" class="edge"><title>2264721198288&#45;&#45;2264721198096</title>
<path fill="none" stroke="black" d="M2005.95,-75.8335C2021.37,-64.3484 2043.81,-47.6406 2060.36,-35.3111"/>
</g>
<!-- 2264819544224 -->
<g id="node78" class="node"><title>2264819544224</title>
<ellipse fill="black" stroke="black" cx="1573.27" cy="-666" rx="2.7" ry="2.7"/>
</g>
<!-- 2265100078336&#45;&#45;2264819544224 -->
<g id="edge69" class="edge"><title>2265100078336&#45;&#45;2264819544224</title>
<path fill="none" stroke="black" d="M1648.77,-723.834C1624.78,-705.774 1583.63,-674.802 1574.92,-668.243"/>
</g>
<!-- 2264721196800 -->
<g id="node79" class="node"><title>2264721196800</title>
<ellipse fill="none" stroke="black" cx="1666.27" cy="-666" rx="72.0363" ry="18"/>
<text text-anchor="middle" x="1666.27" y="-662.5" font-family="Times New Roman,serif" font-size="15.00">Position probe</text>
</g>
<!-- 2265100078336&#45;&#45;2264721196800 -->
<g id="edge70" class="edge"><title>2265100078336&#45;&#45;2264721196800</title>
<path fill="none" stroke="black" d="M1666.27,-719.697C1666.27,-708.846 1666.27,-694.917 1666.27,-684.104"/>
</g>
<!-- 2264721195696 -->
<g id="node80" class="node"><title>2264721195696</title>
<ellipse fill="none" stroke="black" cx="1783.27" cy="-666" rx="27" ry="18"/>
<text text-anchor="middle" x="1783.27" y="-662.5" font-family="Times New Roman,serif" font-size="15.00">seq</text>
</g>
<!-- 2265100078336&#45;&#45;2264721195696 -->
<g id="edge79" class="edge"><title>2265100078336&#45;&#45;2264721195696</title>
<path fill="none" stroke="black" d="M1685.85,-725.284C1707.45,-712.362 1742,-691.692 1763.62,-678.755"/>
</g>
<!-- 2264721197568 -->
<g id="node89" class="node"><title>2264721197568</title>
<ellipse fill="none" stroke="black" cx="1959.27" cy="-666" rx="27" ry="18"/>
<text text-anchor="middle" x="1959.27" y="-662.5" font-family="Times New Roman,serif" font-size="15.00">seq</text>
</g>
<!-- 2265100078336&#45;&#45;2264721197568 -->
<g id="edge84" class="edge"><title>2265100078336&#45;&#45;2264721197568</title>
<path fill="none" stroke="black" d="M1691.25,-731.032C1746.6,-717.807 1879.05,-686.164 1934.35,-672.953"/>
</g>
<!-- 2264721196176 -->
<g id="node81" class="node"><title>2264721196176</title>
<ellipse fill="none" stroke="black" cx="1656.27" cy="-594" rx="89.7798" ry="18"/>
<text text-anchor="middle" x="1656.27" y="-590.5" font-family="Times New Roman,serif" font-size="15.00">Remove guidewire</text>
</g>
<!-- 2264721195696&#45;&#45;2264721196176 -->
<g id="edge71" class="edge"><title>2264721195696&#45;&#45;2264721196176</title>
<path fill="none" stroke="black" d="M1763.14,-653.908C1742.3,-642.42 1709.51,-624.349 1685.75,-611.25"/>
</g>
<!-- 2264721195792 -->
<g id="node82" class="node"><title>2264721195792</title>
<ellipse fill="none" stroke="black" cx="1791.27" cy="-594" rx="27" ry="18"/>
<text text-anchor="middle" x="1791.27" y="-590.5" font-family="Times New Roman,serif" font-size="15.00">xor</text>
</g>
<!-- 2264721195696&#45;&#45;2264721195792 -->
<g id="edge78" class="edge"><title>2264721195696&#45;&#45;2264721195792</title>
<path fill="none" stroke="black" d="M1785.24,-647.697C1786.48,-636.846 1788.08,-622.917 1789.31,-612.104"/>
</g>
<!-- 2264721198240 -->
<g id="node83" class="node"><title>2264721198240</title>
<ellipse fill="black" stroke="black" cx="1791.27" cy="-522" rx="2.7" ry="2.7"/>
</g>
<!-- 2264721195792&#45;&#45;2264721198240 -->
<g id="edge72" class="edge"><title>2264721195792&#45;&#45;2264721198240</title>
<path fill="none" stroke="black" d="M1791.27,-575.697C1791.27,-557.883 1791.27,-531.769 1791.27,-524.776"/>
</g>
<!-- 2264721198048 -->
<g id="node84" class="node"><title>2264721198048</title>
<ellipse fill="none" stroke="black" cx="1871.27" cy="-522" rx="27" ry="18"/>
<text text-anchor="middle" x="1871.27" y="-518.5" font-family="Times New Roman,serif" font-size="15.00">and</text>
</g>
<!-- 2264721195792&#45;&#45;2264721198048 -->
<g id="edge77" class="edge"><title>2264721195792&#45;&#45;2264721198048</title>
<path fill="none" stroke="black" d="M1807.07,-579.17C1821.1,-566.898 1841.48,-549.064 1855.49,-536.801"/>
</g>
<!-- 2264721196032 -->
<g id="node85" class="node"><title>2264721196032</title>
<ellipse fill="none" stroke="black" cx="1871.27" cy="-450" rx="27" ry="18"/>
<text text-anchor="middle" x="1871.27" y="-446.5" font-family="Times New Roman,serif" font-size="15.00">xor</text>
</g>
<!-- 2264721198048&#45;&#45;2264721196032 -->
<g id="edge75" class="edge"><title>2264721198048&#45;&#45;2264721196032</title>
<path fill="none" stroke="black" d="M1871.27,-503.697C1871.27,-492.846 1871.27,-478.917 1871.27,-468.104"/>
</g>
<!-- 2264721198432 -->
<g id="node88" class="node"><title>2264721198432</title>
<ellipse fill="none" stroke="black" cx="2022.27" cy="-450" rx="106.134" ry="18"/>
<text text-anchor="middle" x="2022.27" y="-446.5" font-family="Times New Roman,serif" font-size="15.00">Check flow and reflow</text>
</g>
<!-- 2264721198048&#45;&#45;2264721198432 -->
<g id="edge76" class="edge"><title>2264721198048&#45;&#45;2264721198432</title>
<path fill="none" stroke="black" d="M1892.9,-510.971C1917.61,-499.516 1958.38,-480.616 1987.55,-467.094"/>
</g>
<!-- 2264721198576 -->
<g id="node86" class="node"><title>2264721198576</title>
<ellipse fill="black" stroke="black" cx="1853.27" cy="-378" rx="2.7" ry="2.7"/>
</g>
<!-- 2264721196032&#45;&#45;2264721198576 -->
<g id="edge73" class="edge"><title>2264721196032&#45;&#45;2264721198576</title>
<path fill="none" stroke="black" d="M1866.91,-432.055C1862.33,-414.252 1855.55,-387.865 1853.73,-380.796"/>
</g>
<!-- 2264721196512 -->
<g id="node87" class="node"><title>2264721196512</title>
<ellipse fill="none" stroke="black" cx="1981.27" cy="-378" rx="107.914" ry="18"/>
<text text-anchor="middle" x="1981.27" y="-374.5" font-family="Times New Roman,serif" font-size="15.00">Check catheter position</text>
</g>
<!-- 2264721196032&#45;&#45;2264721196512 -->
<g id="edge74" class="edge"><title>2264721196032&#45;&#45;2264721196512</title>
<path fill="none" stroke="black" d="M1890.43,-436.807C1908.4,-425.369 1935.42,-408.175 1955.32,-395.511"/>
</g>
<!-- 2264721197904 -->
<g id="node90" class="node"><title>2264721197904</title>
<ellipse fill="none" stroke="black" cx="1959.27" cy="-594" rx="122.988" ry="18"/>
<text text-anchor="middle" x="1959.27" y="-590.5" font-family="Times New Roman,serif" font-size="15.00">Compression identification</text>
</g>
<!-- 2264721197568&#45;&#45;2264721197904 -->
<g id="edge80" class="edge"><title>2264721197568&#45;&#45;2264721197904</title>
<path fill="none" stroke="black" d="M1959.27,-647.697C1959.27,-636.846 1959.27,-622.917 1959.27,-612.104"/>
</g>
<!-- 2264721196368 -->
<g id="node91" class="node"><title>2264721196368</title>
<ellipse fill="none" stroke="black" cx="2127.27" cy="-594" rx="27" ry="18"/>
<text text-anchor="middle" x="2127.27" y="-590.5" font-family="Times New Roman,serif" font-size="15.00">xor</text>
</g>
<!-- 2264721197568&#45;&#45;2264721196368 -->
<g id="edge83" class="edge"><title>2264721197568&#45;&#45;2264721196368</title>
<path fill="none" stroke="black" d="M1981.57,-655.705C2013.71,-642.316 2072.68,-617.744 2104.86,-604.334"/>
</g>
<!-- 2264721198672 -->
<g id="node92" class="node"><title>2264721198672</title>
<ellipse fill="black" stroke="black" cx="2065.27" cy="-522" rx="2.7" ry="2.7"/>
</g>
<!-- 2264721196368&#45;&#45;2264721198672 -->
<g id="edge81" class="edge"><title>2264721196368&#45;&#45;2264721198672</title>
<path fill="none" stroke="black" d="M2114.12,-578.155C2098.19,-560.175 2072.73,-531.432 2066.62,-524.527"/>
</g>
<!-- 2264721198192 -->
<g id="node93" class="node"><title>2264721198192</title>
<ellipse fill="none" stroke="black" cx="2189.27" cy="-522" rx="103.575" ry="18"/>
<text text-anchor="middle" x="2189.27" y="-518.5" font-family="Times New Roman,serif" font-size="15.00">Doppler identification</text>
</g>
<!-- 2264721196368&#45;&#45;2264721198192 -->
<g id="edge82" class="edge"><title>2264721196368&#45;&#45;2264721198192</title>
<path fill="none" stroke="black" d="M2140.41,-578.155C2150.3,-566.998 2163.85,-551.696 2174.17,-540.04"/>
</g>
</g>
</svg>
