<?xml version="1.0" encoding="UTF-8" standalone="no"?>
<!DOCTYPE svg PUBLIC "-//W3C//DTD SVG 1.1//EN"
 "http://www.w3.org/Graphics/SVG/1.1/DTD/svg11.dtd">
<!-- Generated by graphviz version 2.38.0 (20140413.2041)
 -->
<!-- Title: pt Pages: 1 -->
<svg width="2308pt" height="1124pt"
 viewBox="0.00 0.00 2307.79 1124.00" xmlns="http://www.w3.org/2000/svg" xmlns:xlink="http://www.w3.org/1999/xlink">
<g id="graph0" class="graph" transform="scale(1 1) rotate(0) translate(4 1120)">
<title>pt</title>
<!-- 2264826688176 -->
<g id="node1" class="node"><title>2264826688176</title>
<ellipse fill="none" stroke="black" cx="1026.33" cy="-1098" rx="27" ry="18"/>
<text text-anchor="middle" x="1026.33" y="-1094.5" font-family="Times New Roman,serif" font-size="15.00">seq</text>
</g>
<!-- 2264826690720 -->
<g id="node2" class="node"><title>2264826690720</title>
<ellipse fill="none" stroke="black" cx="683.335" cy="-1026" rx="27" ry="18"/>
<text text-anchor="middle" x="683.335" y="-1022.5" font-family="Times New Roman,serif" font-size="15.00">and</text>
</g>
<!-- 2264826688176&#45;&#45;2264826690720 -->
<g id="edge73" class="edge"><title>2264826688176&#45;&#45;2264826690720</title>
<path fill="none" stroke="black" d="M1000.83,-1091.8C937.334,-1078.84 772.681,-1045.23 709.003,-1032.24"/>
</g>
<!-- 2264826688416 -->
<g id="node75" class="node"><title>2264826688416</title>
<ellipse fill="none" stroke="black" cx="1270.33" cy="-1026" rx="27" ry="18"/>
<text text-anchor="middle" x="1270.33" y="-1022.5" font-family="Times New Roman,serif" font-size="15.00">xor</text>
</g>
<!-- 2264826688176&#45;&#45;2264826688416 -->
<g id="edge76" class="edge"><title>2264826688176&#45;&#45;2264826688416</title>
<path fill="none" stroke="black" d="M1050.62,-1090.03C1097.27,-1076.65 1198.93,-1047.49 1245.78,-1034.04"/>
</g>
<!-- 2264826689424 -->
<g id="node3" class="node"><title>2264826689424</title>
<ellipse fill="none" stroke="black" cx="90.3347" cy="-954" rx="90.1697" ry="18"/>
<text text-anchor="middle" x="90.3347" y="-950.5" font-family="Times New Roman,serif" font-size="15.00">Drap puncture area</text>
</g>
<!-- 2264826690720&#45;&#45;2264826689424 -->
<g id="edge1" class="edge"><title>2264826690720&#45;&#45;2264826689424</title>
<path fill="none" stroke="black" d="M656.703,-1021.86C570.894,-1011.73 299.497,-979.69 165.992,-963.931"/>
</g>
<!-- 2264826690432 -->
<g id="node4" class="node"><title>2264826690432</title>
<ellipse fill="none" stroke="black" cx="262.335" cy="-954" rx="63.8584" ry="18"/>
<text text-anchor="middle" x="262.335" y="-950.5" font-family="Times New Roman,serif" font-size="15.00">Gel in probe</text>
</g>
<!-- 2264826690720&#45;&#45;2264826690432 -->
<g id="edge2" class="edge"><title>2264826690720&#45;&#45;2264826690432</title>
<path fill="none" stroke="black" d="M657.317,-1020.67C589.642,-1009.42 407.041,-979.061 315.775,-963.886"/>
</g>
<!-- 2264826688224 -->
<g id="node5" class="node"><title>2264826688224</title>
<ellipse fill="none" stroke="black" cx="408.335" cy="-954" rx="63.8584" ry="18"/>
<text text-anchor="middle" x="408.335" y="-950.5" font-family="Times New Roman,serif" font-size="15.00">Cover probe</text>
</g>
<!-- 2264826690720&#45;&#45;2264826688224 -->
<g id="edge3" class="edge"><title>2264826690720&#45;&#45;2264826688224</title>
<path fill="none" stroke="black" d="M658.445,-1018.66C612.236,-1006.9 512.57,-981.533 453.961,-966.614"/>
</g>
<!-- 2264826691008 -->
<g id="node6" class="node"><title>2264826691008</title>
<ellipse fill="none" stroke="black" cx="583.335" cy="-954" rx="93.2286" ry="18"/>
<text text-anchor="middle" x="583.335" y="-950.5" font-family="Times New Roman,serif" font-size="15.00">Clean puncture area</text>
</g>
<!-- 2264826690720&#45;&#45;2264826691008 -->
<g id="edge4" class="edge"><title>2264826690720&#45;&#45;2264826691008</title>
<path fill="none" stroke="black" d="M665.457,-1012.49C649.165,-1001.08 624.983,-984.154 607.075,-971.618"/>
</g>
<!-- 2264826691392 -->
<g id="node7" class="node"><title>2264826691392</title>
<ellipse fill="none" stroke="black" cx="784.335" cy="-954" rx="89.7798" ry="18"/>
<text text-anchor="middle" x="784.335" y="-950.5" font-family="Times New Roman,serif" font-size="15.00">Remove guidewire</text>
</g>
<!-- 2264826690720&#45;&#45;2264826691392 -->
<g id="edge5" class="edge"><title>2264826690720&#45;&#45;2264826691392</title>
<path fill="none" stroke="black" d="M701.391,-1012.49C717.846,-1001.08 742.27,-984.154 760.357,-971.618"/>
</g>
<!-- 2264826688848 -->
<g id="node8" class="node"><title>2264826688848</title>
<ellipse fill="none" stroke="black" cx="1015.33" cy="-954" rx="122.988" ry="18"/>
<text text-anchor="middle" x="1015.33" y="-950.5" font-family="Times New Roman,serif" font-size="15.00">Compression identification</text>
</g>
<!-- 2264826690720&#45;&#45;2264826688848 -->
<g id="edge6" class="edge"><title>2264826690720&#45;&#45;2264826688848</title>
<path fill="none" stroke="black" d="M708.835,-1019.62C759.549,-1008.93 874.529,-984.688 948.346,-969.124"/>
</g>
<!-- 2264826690336 -->
<g id="node9" class="node"><title>2264826690336</title>
<ellipse fill="none" stroke="black" cx="1203.33" cy="-954" rx="46.6143" ry="18"/>
<text text-anchor="middle" x="1203.33" y="-950.5" font-family="Times New Roman,serif" font-size="15.00">xor loop</text>
</g>
<!-- 2264826690720&#45;&#45;2264826690336 -->
<g id="edge72" class="edge"><title>2264826690720&#45;&#45;2264826690336</title>
<path fill="none" stroke="black" d="M709.478,-1021.48C793.3,-1010.2 1055.93,-974.843 1160.12,-960.817"/>
</g>
<!-- 2264826689376 -->
<g id="node10" class="node"><title>2264826689376</title>
<ellipse fill="none" stroke="black" cx="1179.33" cy="-882" rx="27" ry="18"/>
<text text-anchor="middle" x="1179.33" y="-878.5" font-family="Times New Roman,serif" font-size="15.00">seq</text>
</g>
<!-- 2264826690336&#45;&#45;2264826689376 -->
<g id="edge70" class="edge"><title>2264826690336&#45;&#45;2264826689376</title>
<path fill="none" stroke="black" d="M1197.52,-936.055C1193.75,-925.049 1188.85,-910.764 1185.09,-899.789"/>
</g>
<!-- 2264826691104 -->
<g id="node74" class="node"><title>2264826691104</title>
<ellipse fill="black" stroke="black" cx="1227.33" cy="-882" rx="2.7" ry="2.7"/>
</g>
<!-- 2264826690336&#45;&#45;2264826691104 -->
<g id="edge71" class="edge"><title>2264826690336&#45;&#45;2264826691104</title>
<path fill="none" stroke="black" d="M1209.14,-936.055C1215.25,-918.252 1224.3,-891.865 1226.72,-884.796"/>
</g>
<!-- 2264826689184 -->
<g id="node11" class="node"><title>2264826689184</title>
<ellipse fill="none" stroke="black" cx="1034.33" cy="-810" rx="27" ry="18"/>
<text text-anchor="middle" x="1034.33" y="-806.5" font-family="Times New Roman,serif" font-size="15.00">xor</text>
</g>
<!-- 2264826689376&#45;&#45;2264826689184 -->
<g id="edge9" class="edge"><title>2264826689376&#45;&#45;2264826689184</title>
<path fill="none" stroke="black" d="M1157.94,-870.671C1130.52,-857.437 1083.27,-834.626 1055.82,-821.371"/>
</g>
<!-- 2264826687984 -->
<g id="node14" class="node"><title>2264826687984</title>
<ellipse fill="none" stroke="black" cx="1179.33" cy="-810" rx="27" ry="18"/>
<text text-anchor="middle" x="1179.33" y="-806.5" font-family="Times New Roman,serif" font-size="15.00">xor</text>
</g>
<!-- 2264826689376&#45;&#45;2264826687984 -->
<g id="edge66" class="edge"><title>2264826689376&#45;&#45;2264826687984</title>
<path fill="none" stroke="black" d="M1179.33,-863.697C1179.33,-852.846 1179.33,-838.917 1179.33,-828.104"/>
</g>
<!-- 2264826688080 -->
<g id="node71" class="node"><title>2264826688080</title>
<ellipse fill="none" stroke="black" cx="1282.33" cy="-810" rx="27" ry="18"/>
<text text-anchor="middle" x="1282.33" y="-806.5" font-family="Times New Roman,serif" font-size="15.00">xor</text>
</g>
<!-- 2264826689376&#45;&#45;2264826688080 -->
<g id="edge69" class="edge"><title>2264826689376&#45;&#45;2264826688080</title>
<path fill="none" stroke="black" d="M1197.75,-868.485C1216.5,-855.744 1245.39,-836.108 1264.08,-823.406"/>
</g>
<!-- 2264826689760 -->
<g id="node12" class="node"><title>2264826689760</title>
<ellipse fill="none" stroke="black" cx="853.335" cy="-738" rx="70.3667" ry="18"/>
<text text-anchor="middle" x="853.335" y="-734.5" font-family="Times New Roman,serif" font-size="15.00">Hand washing</text>
</g>
<!-- 2264826689184&#45;&#45;2264826689760 -->
<g id="edge7" class="edge"><title>2264826689184&#45;&#45;2264826689760</title>
<path fill="none" stroke="black" d="M1011.41,-800.134C980.971,-788.362 926.832,-767.424 890.509,-753.377"/>
</g>
<!-- 2264826689232 -->
<g id="node13" class="node"><title>2264826689232</title>
<ellipse fill="none" stroke="black" cx="1034.33" cy="-738" rx="93.2286" ry="18"/>
<text text-anchor="middle" x="1034.33" y="-734.5" font-family="Times New Roman,serif" font-size="15.00">Prepare implements</text>
</g>
<!-- 2264826689184&#45;&#45;2264826689232 -->
<g id="edge8" class="edge"><title>2264826689184&#45;&#45;2264826689232</title>
<path fill="none" stroke="black" d="M1034.33,-791.697C1034.33,-780.846 1034.33,-766.917 1034.33,-756.104"/>
</g>
<!-- 2264719431088 -->
<g id="node15" class="node"><title>2264719431088</title>
<ellipse fill="black" stroke="black" cx="1148.33" cy="-738" rx="2.7" ry="2.7"/>
</g>
<!-- 2264826687984&#45;&#45;2264719431088 -->
<g id="edge10" class="edge"><title>2264826687984&#45;&#45;2264719431088</title>
<path fill="none" stroke="black" d="M1171.99,-792.411C1164.11,-774.622 1152.3,-747.962 1149.14,-740.816"/>
</g>
<!-- 2264719431136 -->
<g id="node16" class="node"><title>2264719431136</title>
<ellipse fill="none" stroke="black" cx="1215.33" cy="-738" rx="46.6143" ry="18"/>
<text text-anchor="middle" x="1215.33" y="-734.5" font-family="Times New Roman,serif" font-size="15.00">xor loop</text>
</g>
<!-- 2264826687984&#45;&#45;2264719431136 -->
<g id="edge65" class="edge"><title>2264826687984&#45;&#45;2264719431136</title>
<path fill="none" stroke="black" d="M1187.68,-792.765C1193.33,-781.779 1200.78,-767.292 1206.53,-756.124"/>
</g>
<!-- 2264719430896 -->
<g id="node17" class="node"><title>2264719430896</title>
<ellipse fill="none" stroke="black" cx="1191.33" cy="-666" rx="27" ry="18"/>
<text text-anchor="middle" x="1191.33" y="-662.5" font-family="Times New Roman,serif" font-size="15.00">seq</text>
</g>
<!-- 2264719431136&#45;&#45;2264719430896 -->
<g id="edge63" class="edge"><title>2264719431136&#45;&#45;2264719430896</title>
<path fill="none" stroke="black" d="M1209.52,-720.055C1205.75,-709.049 1200.85,-694.764 1197.09,-683.789"/>
</g>
<!-- 2264719429840 -->
<g id="node70" class="node"><title>2264719429840</title>
<ellipse fill="black" stroke="black" cx="1239.33" cy="-666" rx="2.7" ry="2.7"/>
</g>
<!-- 2264719431136&#45;&#45;2264719429840 -->
<g id="edge64" class="edge"><title>2264719431136&#45;&#45;2264719429840</title>
<path fill="none" stroke="black" d="M1221.14,-720.055C1227.25,-702.252 1236.3,-675.865 1238.72,-668.796"/>
</g>
<!-- 2264719429744 -->
<g id="node18" class="node"><title>2264719429744</title>
<ellipse fill="none" stroke="black" cx="986.335" cy="-594" rx="27" ry="18"/>
<text text-anchor="middle" x="986.335" y="-590.5" font-family="Times New Roman,serif" font-size="15.00">xor</text>
</g>
<!-- 2264719430896&#45;&#45;2264719429744 -->
<g id="edge14" class="edge"><title>2264719430896&#45;&#45;2264719429744</title>
<path fill="none" stroke="black" d="M1167.82,-656.97C1128.38,-643.503 1049.36,-616.52 1009.89,-603.044"/>
</g>
<!-- 2264719430368 -->
<g id="node22" class="node"><title>2264719430368</title>
<ellipse fill="none" stroke="black" cx="1191.33" cy="-594" rx="27" ry="18"/>
<text text-anchor="middle" x="1191.33" y="-590.5" font-family="Times New Roman,serif" font-size="15.00">xor</text>
</g>
<!-- 2264719430896&#45;&#45;2264719430368 -->
<g id="edge40" class="edge"><title>2264719430896&#45;&#45;2264719430368</title>
<path fill="none" stroke="black" d="M1191.33,-647.697C1191.33,-636.846 1191.33,-622.917 1191.33,-612.104"/>
</g>
<!-- 2264719433584 -->
<g id="node48" class="node"><title>2264719433584</title>
<ellipse fill="none" stroke="black" cx="1400.33" cy="-594" rx="27" ry="18"/>
<text text-anchor="middle" x="1400.33" y="-590.5" font-family="Times New Roman,serif" font-size="15.00">xor</text>
</g>
<!-- 2264719430896&#45;&#45;2264719433584 -->
<g id="edge62" class="edge"><title>2264719430896&#45;&#45;2264719433584</title>
<path fill="none" stroke="black" d="M1214.9,-657.106C1255.04,-643.662 1336.23,-616.47 1376.53,-602.972"/>
</g>
<!-- 2264719430944 -->
<g id="node19" class="node"><title>2264719430944</title>
<ellipse fill="black" stroke="black" cx="818.335" cy="-522" rx="2.7" ry="2.7"/>
</g>
<!-- 2264719429744&#45;&#45;2264719430944 -->
<g id="edge11" class="edge"><title>2264719429744&#45;&#45;2264719430944</title>
<path fill="none" stroke="black" d="M964.026,-583.705C922.254,-566.3 835.12,-529.994 820.452,-523.882"/>
</g>
<!-- 2264719433488 -->
<g id="node20" class="node"><title>2264719433488</title>
<ellipse fill="none" stroke="black" cx="907.335" cy="-522" rx="68.1971" ry="18"/>
<text text-anchor="middle" x="907.335" y="-518.5" font-family="Times New Roman,serif" font-size="15.00">Put sterile gel</text>
</g>
<!-- 2264719429744&#45;&#45;2264719433488 -->
<g id="edge12" class="edge"><title>2264719429744&#45;&#45;2264719433488</title>
<path fill="none" stroke="black" d="M970.727,-579.17C957.866,-567.775 939.593,-551.584 925.967,-539.51"/>
</g>
<!-- 2264719432192 -->
<g id="node21" class="node"><title>2264719432192</title>
<ellipse fill="none" stroke="black" cx="1065.33" cy="-522" rx="72.0363" ry="18"/>
<text text-anchor="middle" x="1065.33" y="-518.5" font-family="Times New Roman,serif" font-size="15.00">Position probe</text>
</g>
<!-- 2264719429744&#45;&#45;2264719432192 -->
<g id="edge13" class="edge"><title>2264719429744&#45;&#45;2264719432192</title>
<path fill="none" stroke="black" d="M1001.94,-579.17C1014.8,-567.775 1033.08,-551.584 1046.7,-539.51"/>
</g>
<!-- 2264719430752 -->
<g id="node23" class="node"><title>2264719430752</title>
<ellipse fill="black" stroke="black" cx="1158.33" cy="-522" rx="2.7" ry="2.7"/>
</g>
<!-- 2264719430368&#45;&#45;2264719430752 -->
<g id="edge15" class="edge"><title>2264719430368&#45;&#45;2264719430752</title>
<path fill="none" stroke="black" d="M1183.51,-576.411C1175.13,-558.622 1162.56,-531.962 1159.19,-524.816"/>
</g>
<!-- 2264719429792 -->
<g id="node24" class="node"><title>2264719429792</title>
<ellipse fill="none" stroke="black" cx="1225.33" cy="-522" rx="46.6143" ry="18"/>
<text text-anchor="middle" x="1225.33" y="-518.5" font-family="Times New Roman,serif" font-size="15.00">xor loop</text>
</g>
<!-- 2264719430368&#45;&#45;2264719429792 -->
<g id="edge39" class="edge"><title>2264719430368&#45;&#45;2264719429792</title>
<path fill="none" stroke="black" d="M1199.22,-576.765C1204.56,-565.779 1211.59,-551.292 1217.02,-540.124"/>
</g>
<!-- 2264719430272 -->
<g id="node25" class="node"><title>2264719430272</title>
<ellipse fill="none" stroke="black" cx="1168.33" cy="-450" rx="27" ry="18"/>
<text text-anchor="middle" x="1168.33" y="-446.5" font-family="Times New Roman,serif" font-size="15.00">xor</text>
</g>
<!-- 2264719429792&#45;&#45;2264719430272 -->
<g id="edge37" class="edge"><title>2264719429792&#45;&#45;2264719430272</title>
<path fill="none" stroke="black" d="M1211.83,-504.411C1202.48,-492.929 1190.12,-477.751 1180.96,-466.511"/>
</g>
<!-- 2264719432480 -->
<g id="node47" class="node"><title>2264719432480</title>
<ellipse fill="black" stroke="black" cx="1225.33" cy="-450" rx="2.7" ry="2.7"/>
</g>
<!-- 2264719429792&#45;&#45;2264719432480 -->
<g id="edge38" class="edge"><title>2264719429792&#45;&#45;2264719432480</title>
<path fill="none" stroke="black" d="M1225.33,-503.697C1225.33,-485.883 1225.33,-459.769 1225.33,-452.776"/>
</g>
<!-- 2264719432768 -->
<g id="node26" class="node"><title>2264719432768</title>
<ellipse fill="none" stroke="black" cx="1016.33" cy="-378" rx="59.1301" ry="18"/>
<text text-anchor="middle" x="1016.33" y="-374.5" font-family="Times New Roman,serif" font-size="15.00">Anesthetize</text>
</g>
<!-- 2264719430272&#45;&#45;2264719432768 -->
<g id="edge16" class="edge"><title>2264719430272&#45;&#45;2264719432768</title>
<path fill="none" stroke="black" d="M1146.56,-438.971C1120.62,-427.025 1077.09,-406.98 1047.57,-393.385"/>
</g>
<!-- 2264719432816 -->
<g id="node27" class="node"><title>2264719432816</title>
<ellipse fill="none" stroke="black" cx="1120.33" cy="-378" rx="27" ry="18"/>
<text text-anchor="middle" x="1120.33" y="-374.5" font-family="Times New Roman,serif" font-size="15.00">seq</text>
</g>
<!-- 2264719430272&#45;&#45;2264719432816 -->
<g id="edge21" class="edge"><title>2264719430272&#45;&#45;2264719432816</title>
<path fill="none" stroke="black" d="M1157.44,-433.116C1149.59,-421.66 1139.03,-406.263 1131.18,-394.821"/>
</g>
<!-- 2264719433200 -->
<g id="node32" class="node"><title>2264719433200</title>
<ellipse fill="none" stroke="black" cx="1240.33" cy="-378" rx="46.6143" ry="18"/>
<text text-anchor="middle" x="1240.33" y="-374.5" font-family="Times New Roman,serif" font-size="15.00">xor loop</text>
</g>
<!-- 2264719430272&#45;&#45;2264719433200 -->
<g id="edge36" class="edge"><title>2264719430272&#45;&#45;2264719433200</title>
<path fill="none" stroke="black" d="M1182.9,-434.834C1194.74,-423.329 1211.43,-407.101 1223.77,-395.103"/>
</g>
<!-- 2264719432384 -->
<g id="node28" class="node"><title>2264719432384</title>
<ellipse fill="none" stroke="black" cx="953.335" cy="-306" rx="108.303" ry="18"/>
<text text-anchor="middle" x="953.335" y="-302.5" font-family="Times New Roman,serif" font-size="15.00">Anatomic identification</text>
</g>
<!-- 2264719432816&#45;&#45;2264719432384 -->
<g id="edge17" class="edge"><title>2264719432816&#45;&#45;2264719432384</title>
<path fill="none" stroke="black" d="M1098.16,-367.705C1070.92,-356.287 1024.28,-336.737 991.294,-322.911"/>
</g>
<!-- 2264719430320 -->
<g id="node29" class="node"><title>2264719430320</title>
<ellipse fill="none" stroke="black" cx="1106.33" cy="-306" rx="27" ry="18"/>
<text text-anchor="middle" x="1106.33" y="-302.5" font-family="Times New Roman,serif" font-size="15.00">xor</text>
</g>
<!-- 2264719432816&#45;&#45;2264719430320 -->
<g id="edge20" class="edge"><title>2264719432816&#45;&#45;2264719430320</title>
<path fill="none" stroke="black" d="M1116.95,-360.055C1114.78,-349.211 1111.97,-335.183 1109.79,-324.275"/>
</g>
<!-- 2264719431280 -->
<g id="node30" class="node"><title>2264719431280</title>
<ellipse fill="black" stroke="black" cx="967.335" cy="-234" rx="2.7" ry="2.7"/>
</g>
<!-- 2264719430320&#45;&#45;2264719431280 -->
<g id="edge18" class="edge"><title>2264719430320&#45;&#45;2264719431280</title>
<path fill="none" stroke="black" d="M1085.52,-294.52C1050.38,-276.823 981.868,-242.319 969.33,-236.005"/>
</g>
<!-- 2264719431472 -->
<g id="node31" class="node"><title>2264719431472</title>
<ellipse fill="none" stroke="black" cx="1091.33" cy="-234" rx="103.575" ry="18"/>
<text text-anchor="middle" x="1091.33" y="-230.5" font-family="Times New Roman,serif" font-size="15.00">Doppler identification</text>
</g>
<!-- 2264719430320&#45;&#45;2264719431472 -->
<g id="edge19" class="edge"><title>2264719430320&#45;&#45;2264719431472</title>
<path fill="none" stroke="black" d="M1102.7,-288.055C1100.38,-277.211 1097.37,-263.183 1095.04,-252.275"/>
</g>
<!-- 2264719432720 -->
<g id="node33" class="node"><title>2264719432720</title>
<ellipse fill="none" stroke="black" cx="1240.33" cy="-306" rx="27" ry="18"/>
<text text-anchor="middle" x="1240.33" y="-302.5" font-family="Times New Roman,serif" font-size="15.00">seq</text>
</g>
<!-- 2264719433200&#45;&#45;2264719432720 -->
<g id="edge34" class="edge"><title>2264719433200&#45;&#45;2264719432720</title>
<path fill="none" stroke="black" d="M1240.33,-359.697C1240.33,-348.846 1240.33,-334.917 1240.33,-324.104"/>
</g>
<!-- 2264719430464 -->
<g id="node46" class="node"><title>2264719430464</title>
<ellipse fill="black" stroke="black" cx="1288.33" cy="-306" rx="2.7" ry="2.7"/>
</g>
<!-- 2264719433200&#45;&#45;2264719430464 -->
<g id="edge35" class="edge"><title>2264719433200&#45;&#45;2264719430464</title>
<path fill="none" stroke="black" d="M1251.71,-360.411C1263.91,-342.622 1282.19,-315.962 1287.09,-308.816"/>
</g>
<!-- 2264719433344 -->
<g id="node34" class="node"><title>2264719433344</title>
<ellipse fill="none" stroke="black" cx="1240.33" cy="-234" rx="27" ry="18"/>
<text text-anchor="middle" x="1240.33" y="-230.5" font-family="Times New Roman,serif" font-size="15.00">xor</text>
</g>
<!-- 2264719432720&#45;&#45;2264719433344 -->
<g id="edge24" class="edge"><title>2264719432720&#45;&#45;2264719433344</title>
<path fill="none" stroke="black" d="M1240.33,-287.697C1240.33,-276.846 1240.33,-262.917 1240.33,-252.104"/>
</g>
<!-- 2264719432432 -->
<g id="node37" class="node"><title>2264719432432</title>
<ellipse fill="none" stroke="black" cx="1312.33" cy="-234" rx="27" ry="18"/>
<text text-anchor="middle" x="1312.33" y="-230.5" font-family="Times New Roman,serif" font-size="15.00">xor</text>
</g>
<!-- 2264719432720&#45;&#45;2264719432432 -->
<g id="edge33" class="edge"><title>2264719432720&#45;&#45;2264719432432</title>
<path fill="none" stroke="black" d="M1254.9,-290.834C1267.31,-278.77 1285.07,-261.512 1297.54,-249.385"/>
</g>
<!-- 2264719429936 -->
<g id="node35" class="node"><title>2264719429936</title>
<ellipse fill="none" stroke="black" cx="1061.33" cy="-162" rx="113.032" ry="18"/>
<text text-anchor="middle" x="1061.33" y="-158.5" font-family="Times New Roman,serif" font-size="15.00">Ultrasound configuration</text>
</g>
<!-- 2264719433344&#45;&#45;2264719429936 -->
<g id="edge22" class="edge"><title>2264719433344&#45;&#45;2264719429936</title>
<path fill="none" stroke="black" d="M1217.66,-224.134C1188.6,-212.767 1137.67,-192.853 1101.86,-178.849"/>
</g>
<!-- 2264719431184 -->
<g id="node36" class="node"><title>2264719431184</title>
<ellipse fill="none" stroke="black" cx="1240.33" cy="-162" rx="47.0053" ry="18"/>
<text text-anchor="middle" x="1240.33" y="-158.5" font-family="Times New Roman,serif" font-size="15.00">Puncture</text>
</g>
<!-- 2264719433344&#45;&#45;2264719431184 -->
<g id="edge23" class="edge"><title>2264719433344&#45;&#45;2264719431184</title>
<path fill="none" stroke="black" d="M1240.33,-215.697C1240.33,-204.846 1240.33,-190.917 1240.33,-180.104"/>
</g>
<!-- 2264720081296 -->
<g id="node38" class="node"><title>2264720081296</title>
<ellipse fill="black" stroke="black" cx="1308.33" cy="-162" rx="2.7" ry="2.7"/>
</g>
<!-- 2264719432432&#45;&#45;2264720081296 -->
<g id="edge25" class="edge"><title>2264719432432&#45;&#45;2264720081296</title>
<path fill="none" stroke="black" d="M1311.35,-215.697C1310.33,-197.883 1308.84,-171.769 1308.44,-164.776"/>
</g>
<!-- 2264720084128 -->
<g id="node39" class="node"><title>2264720084128</title>
<ellipse fill="none" stroke="black" cx="1356.33" cy="-162" rx="27" ry="18"/>
<text text-anchor="middle" x="1356.33" y="-158.5" font-family="Times New Roman,serif" font-size="15.00">and</text>
</g>
<!-- 2264719432432&#45;&#45;2264720084128 -->
<g id="edge32" class="edge"><title>2264719432432&#45;&#45;2264720084128</title>
<path fill="none" stroke="black" d="M1322.32,-217.116C1329.52,-205.66 1339.2,-190.263 1346.39,-178.821"/>
</g>
<!-- 2264720082976 -->
<g id="node40" class="node"><title>2264720082976</title>
<ellipse fill="none" stroke="black" cx="1110.33" cy="-90" rx="59.5207" ry="18"/>
<text text-anchor="middle" x="1110.33" y="-86.5" font-family="Times New Roman,serif" font-size="15.00">Drop probe</text>
</g>
<!-- 2264720084128&#45;&#45;2264720082976 -->
<g id="edge26" class="edge"><title>2264720084128&#45;&#45;2264720082976</title>
<path fill="none" stroke="black" d="M1331.85,-154.032C1289.92,-142.102 1203.92,-117.63 1152.28,-102.935"/>
</g>
<!-- 2264720084224 -->
<g id="node41" class="node"><title>2264720084224</title>
<ellipse fill="none" stroke="black" cx="1266.33" cy="-90" rx="77.654" ry="18"/>
<text text-anchor="middle" x="1266.33" y="-86.5" font-family="Times New Roman,serif" font-size="15.00">Remove syringe</text>
</g>
<!-- 2264720084128&#45;&#45;2264720084224 -->
<g id="edge27" class="edge"><title>2264720084128&#45;&#45;2264720084224</title>
<path fill="none" stroke="black" d="M1339.41,-147.834C1324.74,-136.428 1303.45,-119.871 1287.63,-107.567"/>
</g>
<!-- 2264720082016 -->
<g id="node42" class="node"><title>2264720082016</title>
<ellipse fill="none" stroke="black" cx="1446.33" cy="-90" rx="84.1616" ry="18"/>
<text text-anchor="middle" x="1446.33" y="-86.5" font-family="Times New Roman,serif" font-size="15.00">Guidewire install</text>
</g>
<!-- 2264720084128&#45;&#45;2264720082016 -->
<g id="edge28" class="edge"><title>2264720084128&#45;&#45;2264720082016</title>
<path fill="none" stroke="black" d="M1373.26,-147.834C1387.93,-136.428 1409.22,-119.871 1425.03,-107.567"/>
</g>
<!-- 2264720081824 -->
<g id="node43" class="node"><title>2264720081824</title>
<ellipse fill="none" stroke="black" cx="1595.33" cy="-90" rx="46.6143" ry="18"/>
<text text-anchor="middle" x="1595.33" y="-86.5" font-family="Times New Roman,serif" font-size="15.00">xor loop</text>
</g>
<!-- 2264720084128&#45;&#45;2264720081824 -->
<g id="edge31" class="edge"><title>2264720084128&#45;&#45;2264720081824</title>
<path fill="none" stroke="black" d="M1380.57,-153.903C1422.81,-141.529 1510.14,-115.952 1559.44,-101.514"/>
</g>
<!-- 2264720082784 -->
<g id="node44" class="node"><title>2264720082784</title>
<ellipse fill="none" stroke="black" cx="1552.33" cy="-18" rx="63.8584" ry="18"/>
<text text-anchor="middle" x="1552.33" y="-14.5" font-family="Times New Roman,serif" font-size="15.00">Blood return</text>
</g>
<!-- 2264720081824&#45;&#45;2264720082784 -->
<g id="edge29" class="edge"><title>2264720081824&#45;&#45;2264720082784</title>
<path fill="none" stroke="black" d="M1585.14,-72.411C1578.39,-61.4141 1569.55,-47.0274 1562.75,-35.9562"/>
</g>
<!-- 2264720081632 -->
<g id="node45" class="node"><title>2264720081632</title>
<ellipse fill="black" stroke="black" cx="1637.33" cy="-18" rx="2.7" ry="2.7"/>
</g>
<!-- 2264720081824&#45;&#45;2264720081632 -->
<g id="edge30" class="edge"><title>2264720081824&#45;&#45;2264720081632</title>
<path fill="none" stroke="black" d="M1605.29,-72.411C1615.96,-54.622 1631.96,-27.9625 1636.24,-20.8163"/>
</g>
<!-- 2264720081968 -->
<g id="node49" class="node"><title>2264720081968</title>
<ellipse fill="black" stroke="black" cx="1341.33" cy="-522" rx="2.7" ry="2.7"/>
</g>
<!-- 2264719433584&#45;&#45;2264720081968 -->
<g id="edge41" class="edge"><title>2264719433584&#45;&#45;2264720081968</title>
<path fill="none" stroke="black" d="M1387.53,-577.811C1372.35,-559.797 1348.37,-531.343 1342.61,-524.511"/>
</g>
<!-- 2264720084848 -->
<g id="node50" class="node"><title>2264720084848</title>
<ellipse fill="none" stroke="black" cx="1459.33" cy="-522" rx="97.0675" ry="18"/>
<text text-anchor="middle" x="1459.33" y="-518.5" font-family="Times New Roman,serif" font-size="15.00">Get in sterile clothes</text>
</g>
<!-- 2264719433584&#45;&#45;2264720084848 -->
<g id="edge42" class="edge"><title>2264719433584&#45;&#45;2264720084848</title>
<path fill="none" stroke="black" d="M1413.14,-577.811C1422.49,-566.713 1435.18,-551.653 1444.9,-540.127"/>
</g>
<!-- 2264720082448 -->
<g id="node51" class="node"><title>2264720082448</title>
<ellipse fill="none" stroke="black" cx="1619.33" cy="-522" rx="27" ry="18"/>
<text text-anchor="middle" x="1619.33" y="-518.5" font-family="Times New Roman,serif" font-size="15.00">seq</text>
</g>
<!-- 2264719433584&#45;&#45;2264720082448 -->
<g id="edge61" class="edge"><title>2264719433584&#45;&#45;2264720082448</title>
<path fill="none" stroke="black" d="M1424.19,-585.376C1466.31,-571.91 1553.4,-544.073 1595.51,-530.615"/>
</g>
<!-- 2264720081584 -->
<g id="node52" class="node"><title>2264720081584</title>
<ellipse fill="none" stroke="black" cx="1619.33" cy="-450" rx="27" ry="18"/>
<text text-anchor="middle" x="1619.33" y="-446.5" font-family="Times New Roman,serif" font-size="15.00">and</text>
</g>
<!-- 2264720082448&#45;&#45;2264720081584 -->
<g id="edge57" class="edge"><title>2264720082448&#45;&#45;2264720081584</title>
<path fill="none" stroke="black" d="M1619.33,-503.697C1619.33,-492.846 1619.33,-478.917 1619.33,-468.104"/>
</g>
<!-- 2264720082304 -->
<g id="node67" class="node"><title>2264720082304</title>
<ellipse fill="none" stroke="black" cx="1823.33" cy="-450" rx="27" ry="18"/>
<text text-anchor="middle" x="1823.33" y="-446.5" font-family="Times New Roman,serif" font-size="15.00">xor</text>
</g>
<!-- 2264720082448&#45;&#45;2264720082304 -->
<g id="edge60" class="edge"><title>2264720082448&#45;&#45;2264720082304</title>
<path fill="none" stroke="black" d="M1642.74,-512.97C1681.98,-499.503 1760.62,-472.52 1799.89,-459.044"/>
</g>
<!-- 2264720083504 -->
<g id="node53" class="node"><title>2264720083504</title>
<ellipse fill="none" stroke="black" cx="1446.33" cy="-378" rx="82.8824" ry="18"/>
<text text-anchor="middle" x="1446.33" y="-374.5" font-family="Times New Roman,serif" font-size="15.00">Advance catheter</text>
</g>
<!-- 2264720081584&#45;&#45;2264720083504 -->
<g id="edge43" class="edge"><title>2264720081584&#45;&#45;2264720083504</title>
<path fill="none" stroke="black" d="M1596.72,-439.849C1568.05,-428.249 1518.23,-408.091 1483.84,-394.174"/>
</g>
<!-- 2264720084608 -->
<g id="node54" class="node"><title>2264720084608</title>
<ellipse fill="none" stroke="black" cx="1619.33" cy="-378" rx="72.0363" ry="18"/>
<text text-anchor="middle" x="1619.33" y="-374.5" font-family="Times New Roman,serif" font-size="15.00">Remove trocar</text>
</g>
<!-- 2264720081584&#45;&#45;2264720084608 -->
<g id="edge44" class="edge"><title>2264720081584&#45;&#45;2264720084608</title>
<path fill="none" stroke="black" d="M1619.33,-431.697C1619.33,-420.846 1619.33,-406.917 1619.33,-396.104"/>
</g>
<!-- 2264720083648 -->
<g id="node55" class="node"><title>2264720083648</title>
<ellipse fill="none" stroke="black" cx="1756.33" cy="-378" rx="46.6143" ry="18"/>
<text text-anchor="middle" x="1756.33" y="-374.5" font-family="Times New Roman,serif" font-size="15.00">xor loop</text>
</g>
<!-- 2264720081584&#45;&#45;2264720083648 -->
<g id="edge56" class="edge"><title>2264720081584&#45;&#45;2264720083648</title>
<path fill="none" stroke="black" d="M1640.14,-438.369C1663.95,-426.206 1703,-406.25 1729.18,-392.873"/>
</g>
<!-- 2264720081248 -->
<g id="node56" class="node"><title>2264720081248</title>
<ellipse fill="none" stroke="black" cx="1756.33" cy="-306" rx="27" ry="18"/>
<text text-anchor="middle" x="1756.33" y="-302.5" font-family="Times New Roman,serif" font-size="15.00">seq</text>
</g>
<!-- 2264720083648&#45;&#45;2264720081248 -->
<g id="edge54" class="edge"><title>2264720083648&#45;&#45;2264720081248</title>
<path fill="none" stroke="black" d="M1756.33,-359.697C1756.33,-348.846 1756.33,-334.917 1756.33,-324.104"/>
</g>
<!-- 2264720081392 -->
<g id="node66" class="node"><title>2264720081392</title>
<ellipse fill="black" stroke="black" cx="1804.33" cy="-306" rx="2.7" ry="2.7"/>
</g>
<!-- 2264720083648&#45;&#45;2264720081392 -->
<g id="edge55" class="edge"><title>2264720083648&#45;&#45;2264720081392</title>
<path fill="none" stroke="black" d="M1767.71,-360.411C1779.91,-342.622 1798.19,-315.962 1803.09,-308.816"/>
</g>
<!-- 2264720083216 -->
<g id="node57" class="node"><title>2264720083216</title>
<ellipse fill="none" stroke="black" cx="1683.33" cy="-234" rx="27" ry="18"/>
<text text-anchor="middle" x="1683.33" y="-230.5" font-family="Times New Roman,serif" font-size="15.00">xor</text>
</g>
<!-- 2264720081248&#45;&#45;2264720083216 -->
<g id="edge47" class="edge"><title>2264720081248&#45;&#45;2264720083216</title>
<path fill="none" stroke="black" d="M1741.56,-290.834C1728.9,-278.69 1710.74,-261.283 1698.09,-249.144"/>
</g>
<!-- 2264720083888 -->
<g id="node60" class="node"><title>2264720083888</title>
<ellipse fill="none" stroke="black" cx="1816.33" cy="-234" rx="27" ry="18"/>
<text text-anchor="middle" x="1816.33" y="-230.5" font-family="Times New Roman,serif" font-size="15.00">xor</text>
</g>
<!-- 2264720081248&#45;&#45;2264720083888 -->
<g id="edge50" class="edge"><title>2264720081248&#45;&#45;2264720083888</title>
<path fill="none" stroke="black" d="M1769.35,-289.811C1779.42,-278.07 1793.28,-261.893 1803.34,-250.159"/>
</g>
<!-- 2264720081920 -->
<g id="node63" class="node"><title>2264720081920</title>
<ellipse fill="none" stroke="black" cx="2076.33" cy="-234" rx="27" ry="18"/>
<text text-anchor="middle" x="2076.33" y="-230.5" font-family="Times New Roman,serif" font-size="15.00">xor</text>
</g>
<!-- 2264720081248&#45;&#45;2264720081920 -->
<g id="edge53" class="edge"><title>2264720081248&#45;&#45;2264720081920</title>
<path fill="none" stroke="black" d="M1781.71,-299.449C1841.58,-286.352 1991.08,-253.649 2050.95,-240.552"/>
</g>
<!-- 2264720083312 -->
<g id="node58" class="node"><title>2264720083312</title>
<ellipse fill="none" stroke="black" cx="1477.33" cy="-162" rx="75.9851" ry="18"/>
<text text-anchor="middle" x="1477.33" y="-158.5" font-family="Times New Roman,serif" font-size="15.00">Widen pathway</text>
</g>
<!-- 2264720083216&#45;&#45;2264720083312 -->
<g id="edge45" class="edge"><title>2264720083216&#45;&#45;2264720083312</title>
<path fill="none" stroke="black" d="M1659.7,-224.97C1625.36,-213.299 1561.13,-191.475 1518.8,-177.091"/>
</g>
<!-- 2264720084944 -->
<g id="node59" class="node"><title>2264720084944</title>
<ellipse fill="none" stroke="black" cx="1683.33" cy="-162" rx="111.752" ry="18"/>
<text text-anchor="middle" x="1683.33" y="-158.5" font-family="Times New Roman,serif" font-size="15.00">Check wire in short axis</text>
</g>
<!-- 2264720083216&#45;&#45;2264720084944 -->
<g id="edge46" class="edge"><title>2264720083216&#45;&#45;2264720084944</title>
<path fill="none" stroke="black" d="M1683.33,-215.697C1683.33,-204.846 1683.33,-190.917 1683.33,-180.104"/>
</g>
<!-- 2264720083936 -->
<g id="node61" class="node"><title>2264720083936</title>
<ellipse fill="black" stroke="black" cx="1816.33" cy="-162" rx="2.7" ry="2.7"/>
</g>
<!-- 2264720083888&#45;&#45;2264720083936 -->
<g id="edge48" class="edge"><title>2264720083888&#45;&#45;2264720083936</title>
<path fill="none" stroke="black" d="M1816.33,-215.697C1816.33,-197.883 1816.33,-171.769 1816.33,-164.776"/>
</g>
<!-- 2264720082880 -->
<g id="node62" class="node"><title>2264720082880</title>
<ellipse fill="none" stroke="black" cx="1946.33" cy="-162" rx="109.193" ry="18"/>
<text text-anchor="middle" x="1946.33" y="-158.5" font-family="Times New Roman,serif" font-size="15.00">Check wire in long axis</text>
</g>
<!-- 2264720083888&#45;&#45;2264720082880 -->
<g id="edge49" class="edge"><title>2264720083888&#45;&#45;2264720082880</title>
<path fill="none" stroke="black" d="M1836.65,-222.063C1857.93,-210.604 1891.59,-192.476 1916.02,-179.324"/>
</g>
<!-- 2264718451136 -->
<g id="node64" class="node"><title>2264718451136</title>
<ellipse fill="black" stroke="black" cx="2076.33" cy="-162" rx="2.7" ry="2.7"/>
</g>
<!-- 2264720081920&#45;&#45;2264718451136 -->
<g id="edge51" class="edge"><title>2264720081920&#45;&#45;2264718451136</title>
<path fill="none" stroke="black" d="M2076.33,-215.697C2076.33,-197.883 2076.33,-171.769 2076.33,-164.776"/>
</g>
<!-- 2264718451856 -->
<g id="node65" class="node"><title>2264718451856</title>
<ellipse fill="none" stroke="black" cx="2198.33" cy="-162" rx="101.406" ry="18"/>
<text text-anchor="middle" x="2198.33" y="-158.5" font-family="Times New Roman,serif" font-size="15.00">Wire in good position</text>
</g>
<!-- 2264720081920&#45;&#45;2264718451856 -->
<g id="edge52" class="edge"><title>2264720081920&#45;&#45;2264718451856</title>
<path fill="none" stroke="black" d="M2096.21,-221.597C2116.19,-210.13 2147.2,-192.337 2169.81,-179.365"/>
</g>
<!-- 2264718454304 -->
<g id="node68" class="node"><title>2264718454304</title>
<ellipse fill="black" stroke="black" cx="1823.33" cy="-378" rx="2.7" ry="2.7"/>
</g>
<!-- 2264720082304&#45;&#45;2264718454304 -->
<g id="edge58" class="edge"><title>2264720082304&#45;&#45;2264718454304</title>
<path fill="none" stroke="black" d="M1823.33,-431.697C1823.33,-413.883 1823.33,-387.769 1823.33,-380.776"/>
</g>
<!-- 2264718453200 -->
<g id="node69" class="node"><title>2264718453200</title>
<ellipse fill="none" stroke="black" cx="1950.33" cy="-378" rx="106.134" ry="18"/>
<text text-anchor="middle" x="1950.33" y="-374.5" font-family="Times New Roman,serif" font-size="15.00">Check flow and reflow</text>
</g>
<!-- 2264720082304&#45;&#45;2264718453200 -->
<g id="edge59" class="edge"><title>2264720082304&#45;&#45;2264718453200</title>
<path fill="none" stroke="black" d="M1843.46,-437.908C1864.16,-426.497 1896.65,-408.591 1920.37,-395.514"/>
</g>
<!-- 2264720081536 -->
<g id="node72" class="node"><title>2264720081536</title>
<ellipse fill="black" stroke="black" cx="1282.33" cy="-738" rx="2.7" ry="2.7"/>
</g>
<!-- 2264826688080&#45;&#45;2264720081536 -->
<g id="edge67" class="edge"><title>2264826688080&#45;&#45;2264720081536</title>
<path fill="none" stroke="black" d="M1282.33,-791.697C1282.33,-773.883 1282.33,-747.769 1282.33,-740.776"/>
</g>
<!-- 2264718453824 -->
<g id="node73" class="node"><title>2264718453824</title>
<ellipse fill="none" stroke="black" cx="1378.33" cy="-738" rx="75.9851" ry="18"/>
<text text-anchor="middle" x="1378.33" y="-734.5" font-family="Times New Roman,serif" font-size="15.00">Position patient</text>
</g>
<!-- 2264826688080&#45;&#45;2264718453824 -->
<g id="edge68" class="edge"><title>2264826688080&#45;&#45;2264718453824</title>
<path fill="none" stroke="black" d="M1299.94,-796.161C1315.75,-784.636 1339.02,-767.665 1356.11,-755.208"/>
</g>
<!-- 2264718451808 -->
<g id="node76" class="node"><title>2264718451808</title>
<ellipse fill="black" stroke="black" cx="1270.33" cy="-954" rx="2.7" ry="2.7"/>
</g>
<!-- 2264826688416&#45;&#45;2264718451808 -->
<g id="edge74" class="edge"><title>2264826688416&#45;&#45;2264718451808</title>
<path fill="none" stroke="black" d="M1270.33,-1007.7C1270.33,-989.883 1270.33,-963.769 1270.33,-956.776"/>
</g>
<!-- 2264718452720 -->
<g id="node77" class="node"><title>2264718452720</title>
<ellipse fill="none" stroke="black" cx="1398.33" cy="-954" rx="107.914" ry="18"/>
<text text-anchor="middle" x="1398.33" y="-950.5" font-family="Times New Roman,serif" font-size="15.00">Check catheter position</text>
</g>
<!-- 2264826688416&#45;&#45;2264718452720 -->
<g id="edge75" class="edge"><title>2264826688416&#45;&#45;2264718452720</title>
<path fill="none" stroke="black" d="M1290.62,-1013.91C1311.48,-1002.5 1344.22,-984.591 1368.14,-971.514"/>
</g>
</g>
</svg>
