<?xml version="1.0" encoding="UTF-8" standalone="no"?>
<!DOCTYPE svg PUBLIC "-//W3C//DTD SVG 1.1//EN"
 "http://www.w3.org/Graphics/SVG/1.1/DTD/svg11.dtd">
<!-- Generated by graphviz version 2.38.0 (20140413.2041)
 -->
<!-- Title: pt Pages: 1 -->
<svg width="2965pt" height="404pt"
 viewBox="0.00 0.00 2965.04 404.00" xmlns="http://www.w3.org/2000/svg" xmlns:xlink="http://www.w3.org/1999/xlink">
<g id="graph0" class="graph" transform="scale(1 1) rotate(0) translate(4 400)">
<title>pt</title>
<!-- 2264721107936 -->
<g id="node1" class="node"><title>2264721107936</title>
<ellipse fill="none" stroke="black" cx="1897.33" cy="-378" rx="27" ry="18"/>
<text text-anchor="middle" x="1897.33" y="-374.5" font-family="Times New Roman,serif" font-size="15.00">seq</text>
</g>
<!-- 2264721108224 -->
<g id="node2" class="node"><title>2264721108224</title>
<ellipse fill="none" stroke="black" cx="893.335" cy="-306" rx="27" ry="18"/>
<text text-anchor="middle" x="893.335" y="-302.5" font-family="Times New Roman,serif" font-size="15.00">and</text>
</g>
<!-- 2264721107936&#45;&#45;2264721108224 -->
<g id="edge20" class="edge"><title>2264721107936&#45;&#45;2264721108224</title>
<path fill="none" stroke="black" d="M1870.48,-375.128C1728.12,-365.202 1062.83,-318.818 920.272,-308.878"/>
</g>
<!-- 2264721108560 -->
<g id="node22" class="node"><title>2264721108560</title>
<ellipse fill="none" stroke="black" cx="1270.33" cy="-306" rx="63.8584" ry="18"/>
<text text-anchor="middle" x="1270.33" y="-302.5" font-family="Times New Roman,serif" font-size="15.00">Blood return</text>
</g>
<!-- 2264721107936&#45;&#45;2264721108560 -->
<g id="edge21" class="edge"><title>2264721107936&#45;&#45;2264721108560</title>
<path fill="none" stroke="black" d="M1870.79,-374.037C1777.09,-363.576 1460.37,-328.216 1328.6,-313.505"/>
</g>
<!-- 2264720152368 -->
<g id="node23" class="node"><title>2264720152368</title>
<ellipse fill="none" stroke="black" cx="1412.33" cy="-306" rx="59.5207" ry="18"/>
<text text-anchor="middle" x="1412.33" y="-302.5" font-family="Times New Roman,serif" font-size="15.00">Drop probe</text>
</g>
<!-- 2264721107936&#45;&#45;2264720152368 -->
<g id="edge22" class="edge"><title>2264721107936&#45;&#45;2264720152368</title>
<path fill="none" stroke="black" d="M1871.26,-373.236C1794.52,-362.161 1568.41,-329.527 1465.02,-314.604"/>
</g>
<!-- 2264720152800 -->
<g id="node24" class="node"><title>2264720152800</title>
<ellipse fill="none" stroke="black" cx="1568.33" cy="-306" rx="77.654" ry="18"/>
<text text-anchor="middle" x="1568.33" y="-302.5" font-family="Times New Roman,serif" font-size="15.00">Remove syringe</text>
</g>
<!-- 2264721107936&#45;&#45;2264720152800 -->
<g id="edge23" class="edge"><title>2264721107936&#45;&#45;2264720152800</title>
<path fill="none" stroke="black" d="M1872.06,-371.623C1819.18,-360.37 1695.75,-334.11 1623.57,-318.752"/>
</g>
<!-- 2264720153232 -->
<g id="node25" class="node"><title>2264720153232</title>
<ellipse fill="none" stroke="black" cx="1748.33" cy="-306" rx="84.1616" ry="18"/>
<text text-anchor="middle" x="1748.33" y="-302.5" font-family="Times New Roman,serif" font-size="15.00">Guidewire install</text>
</g>
<!-- 2264721107936&#45;&#45;2264720153232 -->
<g id="edge24" class="edge"><title>2264721107936&#45;&#45;2264720153232</title>
<path fill="none" stroke="black" d="M1875.99,-366.971C1851.28,-355.365 1810.31,-336.116 1781.46,-322.562"/>
</g>
<!-- 2264720153376 -->
<g id="node26" class="node"><title>2264720153376</title>
<ellipse fill="none" stroke="black" cx="1897.33" cy="-306" rx="46.6143" ry="18"/>
<text text-anchor="middle" x="1897.33" y="-302.5" font-family="Times New Roman,serif" font-size="15.00">xor loop</text>
</g>
<!-- 2264721107936&#45;&#45;2264720153376 -->
<g id="edge29" class="edge"><title>2264721107936&#45;&#45;2264720153376</title>
<path fill="none" stroke="black" d="M1897.33,-359.697C1897.33,-348.846 1897.33,-334.917 1897.33,-324.104"/>
</g>
<!-- 2264720153520 -->
<g id="node31" class="node"><title>2264720153520</title>
<ellipse fill="none" stroke="black" cx="2037.33" cy="-306" rx="75.9851" ry="18"/>
<text text-anchor="middle" x="2037.33" y="-302.5" font-family="Times New Roman,serif" font-size="15.00">Widen pathway</text>
</g>
<!-- 2264721107936&#45;&#45;2264720153520 -->
<g id="edge30" class="edge"><title>2264721107936&#45;&#45;2264720153520</title>
<path fill="none" stroke="black" d="M1918.29,-366.52C1941.64,-354.849 1979.6,-335.869 2006.37,-322.484"/>
</g>
<!-- 2264720154240 -->
<g id="node32" class="node"><title>2264720154240</title>
<ellipse fill="none" stroke="black" cx="2213.33" cy="-306" rx="82.8824" ry="18"/>
<text text-anchor="middle" x="2213.33" y="-302.5" font-family="Times New Roman,serif" font-size="15.00">Advance catheter</text>
</g>
<!-- 2264721107936&#45;&#45;2264720154240 -->
<g id="edge31" class="edge"><title>2264721107936&#45;&#45;2264720154240</title>
<path fill="none" stroke="black" d="M1922.66,-371.39C1973.33,-360.165 2088.26,-334.705 2157.46,-319.377"/>
</g>
<!-- 2264720154384 -->
<g id="node33" class="node"><title>2264720154384</title>
<ellipse fill="none" stroke="black" cx="2403.33" cy="-306" rx="89.7798" ry="18"/>
<text text-anchor="middle" x="2403.33" y="-302.5" font-family="Times New Roman,serif" font-size="15.00">Remove guidewire</text>
</g>
<!-- 2264721107936&#45;&#45;2264720154384 -->
<g id="edge32" class="edge"><title>2264721107936&#45;&#45;2264720154384</title>
<path fill="none" stroke="black" d="M1923.47,-373.384C1998.66,-362.983 2217.37,-332.726 2331.75,-316.904"/>
</g>
<!-- 2264720154528 -->
<g id="node34" class="node"><title>2264720154528</title>
<ellipse fill="none" stroke="black" cx="2617.33" cy="-306" rx="106.134" ry="18"/>
<text text-anchor="middle" x="2617.33" y="-302.5" font-family="Times New Roman,serif" font-size="15.00">Check flow and reflow</text>
</g>
<!-- 2264721107936&#45;&#45;2264720154528 -->
<g id="edge33" class="edge"><title>2264721107936&#45;&#45;2264720154528</title>
<path fill="none" stroke="black" d="M1923.81,-374.426C2021.3,-364.948 2363.08,-331.72 2527.56,-315.728"/>
</g>
<!-- 2264721109104 -->
<g id="node35" class="node"><title>2264721109104</title>
<ellipse fill="none" stroke="black" cx="2849.33" cy="-306" rx="107.914" ry="18"/>
<text text-anchor="middle" x="2849.33" y="-302.5" font-family="Times New Roman,serif" font-size="15.00">Check catheter position</text>
</g>
<!-- 2264721107936&#45;&#45;2264721109104 -->
<g id="edge34" class="edge"><title>2264721107936&#45;&#45;2264721109104</title>
<path fill="none" stroke="black" d="M1924.04,-375.036C2044.54,-366.176 2540.93,-329.677 2752.79,-314.099"/>
</g>
<!-- 2264721108512 -->
<g id="node3" class="node"><title>2264721108512</title>
<ellipse fill="none" stroke="black" cx="90.3347" cy="-234" rx="90.1697" ry="18"/>
<text text-anchor="middle" x="90.3347" y="-230.5" font-family="Times New Roman,serif" font-size="15.00">Drap puncture area</text>
</g>
<!-- 2264721108224&#45;&#45;2264721108512 -->
<g id="edge1" class="edge"><title>2264721108224&#45;&#45;2264721108512</title>
<path fill="none" stroke="black" d="M866.617,-302.671C758.036,-293.206 347.25,-257.396 171.215,-242.051"/>
</g>
<!-- 2264721108704 -->
<g id="node4" class="node"><title>2264721108704</title>
<ellipse fill="none" stroke="black" cx="262.335" cy="-234" rx="63.8584" ry="18"/>
<text text-anchor="middle" x="262.335" y="-230.5" font-family="Times New Roman,serif" font-size="15.00">Gel in probe</text>
</g>
<!-- 2264721108224&#45;&#45;2264721108704 -->
<g id="edge2" class="edge"><title>2264721108224&#45;&#45;2264721108704</title>
<path fill="none" stroke="black" d="M866.624,-302.037C772.326,-291.576 453.579,-256.216 320.97,-241.505"/>
</g>
<!-- 2264721108800 -->
<g id="node5" class="node"><title>2264721108800</title>
<ellipse fill="none" stroke="black" cx="390.335" cy="-234" rx="46.6143" ry="18"/>
<text text-anchor="middle" x="390.335" y="-230.5" font-family="Times New Roman,serif" font-size="15.00">xor loop</text>
</g>
<!-- 2264721108224&#45;&#45;2264721108800 -->
<g id="edge5" class="edge"><title>2264721108224&#45;&#45;2264721108800</title>
<path fill="none" stroke="black" d="M866.999,-301.335C785.132,-289.942 534.53,-255.067 433.361,-240.988"/>
</g>
<!-- 2264720150592 -->
<g id="node8" class="node"><title>2264720150592</title>
<ellipse fill="none" stroke="black" cx="518.335" cy="-234" rx="63.8584" ry="18"/>
<text text-anchor="middle" x="518.335" y="-230.5" font-family="Times New Roman,serif" font-size="15.00">Cover probe</text>
</g>
<!-- 2264721108224&#45;&#45;2264720150592 -->
<g id="edge6" class="edge"><title>2264721108224&#45;&#45;2264720150592</title>
<path fill="none" stroke="black" d="M867.559,-300.189C806.416,-288.775 651.641,-259.884 570.223,-244.686"/>
</g>
<!-- 2264720151024 -->
<g id="node9" class="node"><title>2264720151024</title>
<ellipse fill="none" stroke="black" cx="659.335" cy="-234" rx="59.1301" ry="18"/>
<text text-anchor="middle" x="659.335" y="-230.5" font-family="Times New Roman,serif" font-size="15.00">Anesthetize</text>
</g>
<!-- 2264721108224&#45;&#45;2264720151024 -->
<g id="edge7" class="edge"><title>2264721108224&#45;&#45;2264720151024</title>
<path fill="none" stroke="black" d="M869.174,-297.772C829.238,-285.826 749.028,-261.831 700.165,-247.214"/>
</g>
<!-- 2264720151168 -->
<g id="node10" class="node"><title>2264720151168</title>
<ellipse fill="none" stroke="black" cx="804.335" cy="-234" rx="68.1971" ry="18"/>
<text text-anchor="middle" x="804.335" y="-230.5" font-family="Times New Roman,serif" font-size="15.00">Put sterile gel</text>
</g>
<!-- 2264721108224&#45;&#45;2264720151168 -->
<g id="edge8" class="edge"><title>2264721108224&#45;&#45;2264720151168</title>
<path fill="none" stroke="black" d="M876.594,-291.834C861.992,-280.348 840.749,-263.641 825.073,-251.311"/>
</g>
<!-- 2264720151312 -->
<g id="node11" class="node"><title>2264720151312</title>
<ellipse fill="none" stroke="black" cx="983.335" cy="-234" rx="93.2286" ry="18"/>
<text text-anchor="middle" x="983.335" y="-230.5" font-family="Times New Roman,serif" font-size="15.00">Clean puncture area</text>
</g>
<!-- 2264721108224&#45;&#45;2264720151312 -->
<g id="edge9" class="edge"><title>2264721108224&#45;&#45;2264720151312</title>
<path fill="none" stroke="black" d="M910.263,-291.834C924.928,-280.428 946.215,-263.871 962.034,-251.567"/>
</g>
<!-- 2264720151456 -->
<g id="node12" class="node"><title>2264720151456</title>
<ellipse fill="none" stroke="black" cx="1141.33" cy="-234" rx="47.0053" ry="18"/>
<text text-anchor="middle" x="1141.33" y="-230.5" font-family="Times New Roman,serif" font-size="15.00">Puncture</text>
</g>
<!-- 2264721108224&#45;&#45;2264720151456 -->
<g id="edge10" class="edge"><title>2264721108224&#45;&#45;2264720151456</title>
<path fill="none" stroke="black" d="M918.021,-298.032C961.759,-285.687 1053.07,-259.912 1104.35,-245.438"/>
</g>
<!-- 2264720151600 -->
<g id="node13" class="node"><title>2264720151600</title>
<ellipse fill="none" stroke="black" cx="1299.33" cy="-234" rx="93.2286" ry="18"/>
<text text-anchor="middle" x="1299.33" y="-230.5" font-family="Times New Roman,serif" font-size="15.00">Prepare implements</text>
</g>
<!-- 2264721108224&#45;&#45;2264720151600 -->
<g id="edge11" class="edge"><title>2264721108224&#45;&#45;2264720151600</title>
<path fill="none" stroke="black" d="M919.349,-300.515C981.655,-289.772 1141.02,-262.295 1232.36,-246.548"/>
</g>
<!-- 2264720151744 -->
<g id="node14" class="node"><title>2264720151744</title>
<ellipse fill="none" stroke="black" cx="1533.33" cy="-234" rx="122.988" ry="18"/>
<text text-anchor="middle" x="1533.33" y="-230.5" font-family="Times New Roman,serif" font-size="15.00">Compression identification</text>
</g>
<!-- 2264721108224&#45;&#45;2264720151744 -->
<g id="edge12" class="edge"><title>2264721108224&#45;&#45;2264720151744</title>
<path fill="none" stroke="black" d="M920.02,-302.081C1007.55,-292.508 1288.87,-261.739 1438.17,-245.408"/>
</g>
<!-- 2264720151888 -->
<g id="node15" class="node"><title>2264720151888</title>
<ellipse fill="none" stroke="black" cx="1721.33" cy="-234" rx="46.6143" ry="18"/>
<text text-anchor="middle" x="1721.33" y="-230.5" font-family="Times New Roman,serif" font-size="15.00">xor loop</text>
</g>
<!-- 2264721108224&#45;&#45;2264720151888 -->
<g id="edge19" class="edge"><title>2264721108224&#45;&#45;2264720151888</title>
<path fill="none" stroke="black" d="M919.946,-302.75C1039.18,-292.67 1525.01,-251.597 1676.2,-238.815"/>
</g>
<!-- 2264720150688 -->
<g id="node6" class="node"><title>2264720150688</title>
<ellipse fill="none" stroke="black" cx="344.335" cy="-162" rx="70.3667" ry="18"/>
<text text-anchor="middle" x="344.335" y="-158.5" font-family="Times New Roman,serif" font-size="15.00">Hand washing</text>
</g>
<!-- 2264721108800&#45;&#45;2264720150688 -->
<g id="edge3" class="edge"><title>2264721108800&#45;&#45;2264720150688</title>
<path fill="none" stroke="black" d="M379.433,-216.411C372.207,-205.414 362.753,-191.027 355.477,-179.956"/>
</g>
<!-- 2264720150832 -->
<g id="node7" class="node"><title>2264720150832</title>
<ellipse fill="black" stroke="black" cx="435.335" cy="-162" rx="2.7" ry="2.7"/>
</g>
<!-- 2264721108800&#45;&#45;2264720150832 -->
<g id="edge4" class="edge"><title>2264721108800&#45;&#45;2264720150832</title>
<path fill="none" stroke="black" d="M400.999,-216.411C412.435,-198.622 429.573,-171.962 434.167,-164.816"/>
</g>
<!-- 2264720152128 -->
<g id="node16" class="node"><title>2264720152128</title>
<ellipse fill="none" stroke="black" cx="1543.33" cy="-162" rx="113.032" ry="18"/>
<text text-anchor="middle" x="1543.33" y="-158.5" font-family="Times New Roman,serif" font-size="15.00">Ultrasound configuration</text>
</g>
<!-- 2264720151888&#45;&#45;2264720152128 -->
<g id="edge13" class="edge"><title>2264720151888&#45;&#45;2264720152128</title>
<path fill="none" stroke="black" d="M1689.92,-220.647C1660.38,-209.029 1616,-191.577 1583.82,-178.92"/>
</g>
<!-- 2264720152272 -->
<g id="node17" class="node"><title>2264720152272</title>
<ellipse fill="none" stroke="black" cx="1721.33" cy="-162" rx="46.6143" ry="18"/>
<text text-anchor="middle" x="1721.33" y="-158.5" font-family="Times New Roman,serif" font-size="15.00">xor loop</text>
</g>
<!-- 2264720151888&#45;&#45;2264720152272 -->
<g id="edge18" class="edge"><title>2264720151888&#45;&#45;2264720152272</title>
<path fill="none" stroke="black" d="M1721.33,-215.697C1721.33,-204.846 1721.33,-190.917 1721.33,-180.104"/>
</g>
<!-- 2264720152512 -->
<g id="node18" class="node"><title>2264720152512</title>
<ellipse fill="none" stroke="black" cx="1634.33" cy="-90" rx="108.303" ry="18"/>
<text text-anchor="middle" x="1634.33" y="-86.5" font-family="Times New Roman,serif" font-size="15.00">Anatomic identification</text>
</g>
<!-- 2264720152272&#45;&#45;2264720152512 -->
<g id="edge14" class="edge"><title>2264720152272&#45;&#45;2264720152512</title>
<path fill="none" stroke="black" d="M1702.03,-145.465C1688.11,-134.267 1669.35,-119.173 1655.11,-107.714"/>
</g>
<!-- 2264720152656 -->
<g id="node19" class="node"><title>2264720152656</title>
<ellipse fill="none" stroke="black" cx="1807.33" cy="-90" rx="46.6143" ry="18"/>
<text text-anchor="middle" x="1807.33" y="-86.5" font-family="Times New Roman,serif" font-size="15.00">xor loop</text>
</g>
<!-- 2264720152272&#45;&#45;2264720152656 -->
<g id="edge17" class="edge"><title>2264720152272&#45;&#45;2264720152656</title>
<path fill="none" stroke="black" d="M1740.42,-145.465C1754.67,-133.865 1774.06,-118.082 1788.3,-106.492"/>
</g>
<!-- 2264720152896 -->
<g id="node20" class="node"><title>2264720152896</title>
<ellipse fill="none" stroke="black" cx="1748.33" cy="-18" rx="97.0675" ry="18"/>
<text text-anchor="middle" x="1748.33" y="-14.5" font-family="Times New Roman,serif" font-size="15.00">Get in sterile clothes</text>
</g>
<!-- 2264720152656&#45;&#45;2264720152896 -->
<g id="edge15" class="edge"><title>2264720152656&#45;&#45;2264720152896</title>
<path fill="none" stroke="black" d="M1793.65,-72.7646C1784.39,-61.7791 1772.18,-47.2919 1762.77,-36.1239"/>
</g>
<!-- 2264720153040 -->
<g id="node21" class="node"><title>2264720153040</title>
<ellipse fill="black" stroke="black" cx="1866.33" cy="-18" rx="2.7" ry="2.7"/>
</g>
<!-- 2264720152656&#45;&#45;2264720153040 -->
<g id="edge16" class="edge"><title>2264720152656&#45;&#45;2264720153040</title>
<path fill="none" stroke="black" d="M1821.02,-72.7646C1836.27,-54.6708 1859.53,-27.0776 1865.1,-20.462"/>
</g>
<!-- 2264720153616 -->
<g id="node27" class="node"><title>2264720153616</title>
<ellipse fill="none" stroke="black" cx="1897.33" cy="-234" rx="27" ry="18"/>
<text text-anchor="middle" x="1897.33" y="-230.5" font-family="Times New Roman,serif" font-size="15.00">seq</text>
</g>
<!-- 2264720153376&#45;&#45;2264720153616 -->
<g id="edge27" class="edge"><title>2264720153376&#45;&#45;2264720153616</title>
<path fill="none" stroke="black" d="M1897.33,-287.697C1897.33,-276.846 1897.33,-262.917 1897.33,-252.104"/>
</g>
<!-- 2264720153760 -->
<g id="node30" class="node"><title>2264720153760</title>
<ellipse fill="none" stroke="black" cx="2014.33" cy="-234" rx="72.0363" ry="18"/>
<text text-anchor="middle" x="2014.33" y="-230.5" font-family="Times New Roman,serif" font-size="15.00">Remove trocar</text>
</g>
<!-- 2264720153376&#45;&#45;2264720153760 -->
<g id="edge28" class="edge"><title>2264720153376&#45;&#45;2264720153760</title>
<path fill="none" stroke="black" d="M1921.58,-290.496C1940.85,-278.963 1967.79,-262.845 1987.68,-250.95"/>
</g>
<!-- 2264720153856 -->
<g id="node28" class="node"><title>2264720153856</title>
<ellipse fill="none" stroke="black" cx="1897.33" cy="-162" rx="111.752" ry="18"/>
<text text-anchor="middle" x="1897.33" y="-158.5" font-family="Times New Roman,serif" font-size="15.00">Check wire in short axis</text>
</g>
<!-- 2264720153616&#45;&#45;2264720153856 -->
<g id="edge25" class="edge"><title>2264720153616&#45;&#45;2264720153856</title>
<path fill="none" stroke="black" d="M1897.33,-215.697C1897.33,-204.846 1897.33,-190.917 1897.33,-180.104"/>
</g>
<!-- 2264720154000 -->
<g id="node29" class="node"><title>2264720154000</title>
<ellipse fill="none" stroke="black" cx="2136.33" cy="-162" rx="109.193" ry="18"/>
<text text-anchor="middle" x="2136.33" y="-158.5" font-family="Times New Roman,serif" font-size="15.00">Check wire in long axis</text>
</g>
<!-- 2264720153616&#45;&#45;2264720154000 -->
<g id="edge26" class="edge"><title>2264720153616&#45;&#45;2264720154000</title>
<path fill="none" stroke="black" d="M1921.57,-225.903C1959.78,-214.711 2034.87,-192.717 2085.34,-177.934"/>
</g>
</g>
</svg>
