<?xml version="1.0" encoding="UTF-8" standalone="no"?>
<!DOCTYPE svg PUBLIC "-//W3C//DTD SVG 1.1//EN"
 "http://www.w3.org/Graphics/SVG/1.1/DTD/svg11.dtd">
<!-- Generated by graphviz version 2.38.0 (20140413.2041)
 -->
<!-- Title: pt Pages: 1 -->
<svg width="2174pt" height="1484pt"
 viewBox="0.00 0.00 2173.96 1484.00" xmlns="http://www.w3.org/2000/svg" xmlns:xlink="http://www.w3.org/1999/xlink">
<g id="graph0" class="graph" transform="scale(1 1) rotate(0) translate(4 1480)">
<title>pt</title>
<!-- 2264906744880 -->
<g id="node1" class="node"><title>2264906744880</title>
<ellipse fill="none" stroke="black" cx="728.266" cy="-1458" rx="27" ry="18"/>
<text text-anchor="middle" x="728.266" y="-1454.5" font-family="Times New Roman,serif" font-size="15.00">and</text>
</g>
<!-- 2264906745264 -->
<g id="node2" class="node"><title>2264906745264</title>
<ellipse fill="none" stroke="black" cx="556.266" cy="-1386" rx="90.1697" ry="18"/>
<text text-anchor="middle" x="556.266" y="-1382.5" font-family="Times New Roman,serif" font-size="15.00">Drap puncture area</text>
</g>
<!-- 2264906744880&#45;&#45;2264906745264 -->
<g id="edge1" class="edge"><title>2264906744880&#45;&#45;2264906745264</title>
<path fill="none" stroke="black" d="M705.78,-1447.85C677.46,-1436.32 628.38,-1416.35 594.208,-1402.44"/>
</g>
<!-- 2264906745456 -->
<g id="node3" class="node"><title>2264906745456</title>
<ellipse fill="none" stroke="black" cx="728.266" cy="-1386" rx="63.8584" ry="18"/>
<text text-anchor="middle" x="728.266" y="-1382.5" font-family="Times New Roman,serif" font-size="15.00">Cover probe</text>
</g>
<!-- 2264906744880&#45;&#45;2264906745456 -->
<g id="edge2" class="edge"><title>2264906744880&#45;&#45;2264906745456</title>
<path fill="none" stroke="black" d="M728.266,-1439.7C728.266,-1428.85 728.266,-1414.92 728.266,-1404.1"/>
</g>
<!-- 2264906745552 -->
<g id="node4" class="node"><title>2264906745552</title>
<ellipse fill="none" stroke="black" cx="856.266" cy="-1386" rx="46.6143" ry="18"/>
<text text-anchor="middle" x="856.266" y="-1382.5" font-family="Times New Roman,serif" font-size="15.00">xor loop</text>
</g>
<!-- 2264906744880&#45;&#45;2264906745552 -->
<g id="edge94" class="edge"><title>2264906744880&#45;&#45;2264906745552</title>
<path fill="none" stroke="black" d="M748.548,-1445.91C770.683,-1433.8 806.182,-1414.39 830.328,-1401.18"/>
</g>
<!-- 2264906745840 -->
<g id="node5" class="node"><title>2264906745840</title>
<ellipse fill="none" stroke="black" cx="832.266" cy="-1314" rx="27" ry="18"/>
<text text-anchor="middle" x="832.266" y="-1310.5" font-family="Times New Roman,serif" font-size="15.00">xor</text>
</g>
<!-- 2264906745552&#45;&#45;2264906745840 -->
<g id="edge92" class="edge"><title>2264906745552&#45;&#45;2264906745840</title>
<path fill="none" stroke="black" d="M850.456,-1368.05C846.683,-1357.05 841.785,-1342.76 838.022,-1331.79"/>
</g>
<!-- 2264906746032 -->
<g id="node95" class="node"><title>2264906746032</title>
<ellipse fill="black" stroke="black" cx="880.266" cy="-1314" rx="2.7" ry="2.7"/>
</g>
<!-- 2264906745552&#45;&#45;2264906746032 -->
<g id="edge93" class="edge"><title>2264906745552&#45;&#45;2264906746032</title>
<path fill="none" stroke="black" d="M862.076,-1368.05C868.18,-1350.25 877.226,-1323.87 879.65,-1316.8"/>
</g>
<!-- 2264906746128 -->
<g id="node6" class="node"><title>2264906746128</title>
<ellipse fill="none" stroke="black" cx="775.266" cy="-1242" rx="70.3667" ry="18"/>
<text text-anchor="middle" x="775.266" y="-1238.5" font-family="Times New Roman,serif" font-size="15.00">Hand washing</text>
</g>
<!-- 2264906745840&#45;&#45;2264906746128 -->
<g id="edge3" class="edge"><title>2264906745840&#45;&#45;2264906746128</title>
<path fill="none" stroke="black" d="M819.898,-1297.81C810.861,-1286.71 798.597,-1271.65 789.212,-1260.13"/>
</g>
<!-- 2264906746272 -->
<g id="node7" class="node"><title>2264906746272</title>
<ellipse fill="none" stroke="black" cx="890.266" cy="-1242" rx="27" ry="18"/>
<text text-anchor="middle" x="890.266" y="-1238.5" font-family="Times New Roman,serif" font-size="15.00">seq</text>
</g>
<!-- 2264906745840&#45;&#45;2264906746272 -->
<g id="edge91" class="edge"><title>2264906745840&#45;&#45;2264906746272</title>
<path fill="none" stroke="black" d="M844.851,-1297.81C854.579,-1286.07 867.983,-1269.89 877.705,-1258.16"/>
</g>
<!-- 2264906746560 -->
<g id="node8" class="node"><title>2264906746560</title>
<ellipse fill="none" stroke="black" cx="507.266" cy="-1170" rx="27" ry="18"/>
<text text-anchor="middle" x="507.266" y="-1166.5" font-family="Times New Roman,serif" font-size="15.00">xor</text>
</g>
<!-- 2264906746272&#45;&#45;2264906746560 -->
<g id="edge8" class="edge"><title>2264906746272&#45;&#45;2264906746560</title>
<path fill="none" stroke="black" d="M864.541,-1236.3C794.853,-1223.56 602.981,-1188.49 533.13,-1175.73"/>
</g>
<!-- 2264906746704 -->
<g id="node13" class="node"><title>2264906746704</title>
<ellipse fill="none" stroke="black" cx="890.266" cy="-1170" rx="27" ry="18"/>
<text text-anchor="middle" x="890.266" y="-1166.5" font-family="Times New Roman,serif" font-size="15.00">xor</text>
</g>
<!-- 2264906746272&#45;&#45;2264906746704 -->
<g id="edge11" class="edge"><title>2264906746272&#45;&#45;2264906746704</title>
<path fill="none" stroke="black" d="M890.266,-1223.7C890.266,-1212.85 890.266,-1198.92 890.266,-1188.1"/>
</g>
<!-- 2264906747424 -->
<g id="node16" class="node"><title>2264906747424</title>
<ellipse fill="none" stroke="black" cx="1061.27" cy="-1170" rx="27" ry="18"/>
<text text-anchor="middle" x="1061.27" y="-1166.5" font-family="Times New Roman,serif" font-size="15.00">xor</text>
</g>
<!-- 2264906746272&#45;&#45;2264906747424 -->
<g id="edge90" class="edge"><title>2264906746272&#45;&#45;2264906747424</title>
<path fill="none" stroke="black" d="M912.621,-1231.85C945.393,-1218.43 1006.13,-1193.57 1038.91,-1180.15"/>
</g>
<!-- 2264906746800 -->
<g id="node9" class="node"><title>2264906746800</title>
<ellipse fill="none" stroke="black" cx="113.266" cy="-1098" rx="113.032" ry="18"/>
<text text-anchor="middle" x="113.266" y="-1094.5" font-family="Times New Roman,serif" font-size="15.00">Ultrasound configuration</text>
</g>
<!-- 2264906746560&#45;&#45;2264906746800 -->
<g id="edge4" class="edge"><title>2264906746560&#45;&#45;2264906746800</title>
<path fill="none" stroke="black" d="M481.414,-1164.41C422.265,-1153.9 275.303,-1127.79 185.976,-1111.92"/>
</g>
<!-- 2264906746944 -->
<g id="node10" class="node"><title>2264906746944</title>
<ellipse fill="none" stroke="black" cx="320.266" cy="-1098" rx="75.9851" ry="18"/>
<text text-anchor="middle" x="320.266" y="-1094.5" font-family="Times New Roman,serif" font-size="15.00">Position patient</text>
</g>
<!-- 2264906746560&#45;&#45;2264906746944 -->
<g id="edge5" class="edge"><title>2264906746560&#45;&#45;2264906746944</title>
<path fill="none" stroke="black" d="M484.336,-1160.42C453.127,-1148.73 396.839,-1127.66 359.012,-1113.5"/>
</g>
<!-- 2264906747088 -->
<g id="node11" class="node"><title>2264906747088</title>
<ellipse fill="none" stroke="black" cx="507.266" cy="-1098" rx="93.2286" ry="18"/>
<text text-anchor="middle" x="507.266" y="-1094.5" font-family="Times New Roman,serif" font-size="15.00">Prepare implements</text>
</g>
<!-- 2264906746560&#45;&#45;2264906747088 -->
<g id="edge6" class="edge"><title>2264906746560&#45;&#45;2264906747088</title>
<path fill="none" stroke="black" d="M507.266,-1151.7C507.266,-1140.85 507.266,-1126.92 507.266,-1116.1"/>
</g>
<!-- 2264906747232 -->
<g id="node12" class="node"><title>2264906747232</title>
<ellipse fill="none" stroke="black" cx="715.266" cy="-1098" rx="97.0675" ry="18"/>
<text text-anchor="middle" x="715.266" y="-1094.5" font-family="Times New Roman,serif" font-size="15.00">Get in sterile clothes</text>
</g>
<!-- 2264906746560&#45;&#45;2264906747232 -->
<g id="edge7" class="edge"><title>2264906746560&#45;&#45;2264906747232</title>
<path fill="none" stroke="black" d="M531.126,-1160.97C565.059,-1149.55 627.874,-1128.41 670.605,-1114.03"/>
</g>
<!-- 2264906747520 -->
<g id="node14" class="node"><title>2264906747520</title>
<ellipse fill="black" stroke="black" cx="833.266" cy="-1098" rx="2.7" ry="2.7"/>
</g>
<!-- 2264906746704&#45;&#45;2264906747520 -->
<g id="edge9" class="edge"><title>2264906746704&#45;&#45;2264906747520</title>
<path fill="none" stroke="black" d="M877.898,-1153.81C863.229,-1135.8 840.059,-1107.34 834.496,-1100.51"/>
</g>
<!-- 2264906747664 -->
<g id="node15" class="node"><title>2264906747664</title>
<ellipse fill="none" stroke="black" cx="947.266" cy="-1098" rx="93.2286" ry="18"/>
<text text-anchor="middle" x="947.266" y="-1094.5" font-family="Times New Roman,serif" font-size="15.00">Clean puncture area</text>
</g>
<!-- 2264906746704&#45;&#45;2264906747664 -->
<g id="edge10" class="edge"><title>2264906746704&#45;&#45;2264906747664</title>
<path fill="none" stroke="black" d="M902.634,-1153.81C911.671,-1142.71 923.934,-1127.65 933.32,-1116.13"/>
</g>
<!-- 2267839516784 -->
<g id="node17" class="node"><title>2267839516784</title>
<ellipse fill="black" stroke="black" cx="1061.27" cy="-1098" rx="2.7" ry="2.7"/>
</g>
<!-- 2264906747424&#45;&#45;2267839516784 -->
<g id="edge12" class="edge"><title>2264906747424&#45;&#45;2267839516784</title>
<path fill="none" stroke="black" d="M1061.27,-1151.7C1061.27,-1133.88 1061.27,-1107.77 1061.27,-1100.78"/>
</g>
<!-- 2267839516928 -->
<g id="node18" class="node"><title>2267839516928</title>
<ellipse fill="none" stroke="black" cx="1128.27" cy="-1098" rx="46.6143" ry="18"/>
<text text-anchor="middle" x="1128.27" y="-1094.5" font-family="Times New Roman,serif" font-size="15.00">xor loop</text>
</g>
<!-- 2264906747424&#45;&#45;2267839516928 -->
<g id="edge89" class="edge"><title>2264906747424&#45;&#45;2267839516928</title>
<path fill="none" stroke="black" d="M1075.15,-1154.5C1086.11,-1143.04 1101.4,-1127.07 1112.76,-1115.2"/>
</g>
<!-- 2267839517168 -->
<g id="node19" class="node"><title>2267839517168</title>
<ellipse fill="none" stroke="black" cx="1104.27" cy="-1026" rx="27" ry="18"/>
<text text-anchor="middle" x="1104.27" y="-1022.5" font-family="Times New Roman,serif" font-size="15.00">xor</text>
</g>
<!-- 2267839516928&#45;&#45;2267839517168 -->
<g id="edge87" class="edge"><title>2267839516928&#45;&#45;2267839517168</title>
<path fill="none" stroke="black" d="M1122.46,-1080.05C1118.68,-1069.05 1113.78,-1054.76 1110.02,-1043.79"/>
</g>
<!-- 2267839517264 -->
<g id="node94" class="node"><title>2267839517264</title>
<ellipse fill="black" stroke="black" cx="1152.27" cy="-1026" rx="2.7" ry="2.7"/>
</g>
<!-- 2267839516928&#45;&#45;2267839517264 -->
<g id="edge88" class="edge"><title>2267839516928&#45;&#45;2267839517264</title>
<path fill="none" stroke="black" d="M1134.08,-1080.05C1140.18,-1062.25 1149.23,-1035.87 1151.65,-1028.8"/>
</g>
<!-- 2267839517408 -->
<g id="node20" class="node"><title>2267839517408</title>
<ellipse fill="none" stroke="black" cx="818.266" cy="-954" rx="63.8584" ry="18"/>
<text text-anchor="middle" x="818.266" y="-950.5" font-family="Times New Roman,serif" font-size="15.00">Gel in probe</text>
</g>
<!-- 2267839517168&#45;&#45;2267839517408 -->
<g id="edge13" class="edge"><title>2267839517168&#45;&#45;2267839517408</title>
<path fill="none" stroke="black" d="M1079.39,-1018.91C1031.55,-1007.2 926.067,-981.385 864.813,-966.393"/>
</g>
<!-- 2267839517552 -->
<g id="node21" class="node"><title>2267839517552</title>
<ellipse fill="none" stroke="black" cx="959.266" cy="-954" rx="59.1301" ry="18"/>
<text text-anchor="middle" x="959.266" y="-950.5" font-family="Times New Roman,serif" font-size="15.00">Anesthetize</text>
</g>
<!-- 2267839517168&#45;&#45;2267839517552 -->
<g id="edge14" class="edge"><title>2267839517168&#45;&#45;2267839517552</title>
<path fill="none" stroke="black" d="M1082.87,-1014.67C1058.13,-1002.73 1017.25,-982.992 989.326,-969.512"/>
</g>
<!-- 2267839517696 -->
<g id="node22" class="node"><title>2267839517696</title>
<ellipse fill="none" stroke="black" cx="1104.27" cy="-954" rx="68.1971" ry="18"/>
<text text-anchor="middle" x="1104.27" y="-950.5" font-family="Times New Roman,serif" font-size="15.00">Put sterile gel</text>
</g>
<!-- 2267839517168&#45;&#45;2267839517696 -->
<g id="edge15" class="edge"><title>2267839517168&#45;&#45;2267839517696</title>
<path fill="none" stroke="black" d="M1104.27,-1007.7C1104.27,-996.846 1104.27,-982.917 1104.27,-972.104"/>
</g>
<!-- 2267839517840 -->
<g id="node23" class="node"><title>2267839517840</title>
<ellipse fill="none" stroke="black" cx="1299.27" cy="-954" rx="108.303" ry="18"/>
<text text-anchor="middle" x="1299.27" y="-950.5" font-family="Times New Roman,serif" font-size="15.00">Anatomic identification</text>
</g>
<!-- 2267839517168&#45;&#45;2267839517840 -->
<g id="edge16" class="edge"><title>2267839517168&#45;&#45;2267839517840</title>
<path fill="none" stroke="black" d="M1127.4,-1016.7C1158.98,-1005.36 1216.18,-984.827 1255.87,-970.578"/>
</g>
<!-- 2267839517984 -->
<g id="node24" class="node"><title>2267839517984</title>
<ellipse fill="none" stroke="black" cx="1452.27" cy="-954" rx="27" ry="18"/>
<text text-anchor="middle" x="1452.27" y="-950.5" font-family="Times New Roman,serif" font-size="15.00">seq</text>
</g>
<!-- 2267839517168&#45;&#45;2267839517984 -->
<g id="edge86" class="edge"><title>2267839517168&#45;&#45;2267839517984</title>
<path fill="none" stroke="black" d="M1129.86,-1019.85C1194.21,-1006.91 1362.24,-973.108 1426.64,-960.155"/>
</g>
<!-- 2267839518224 -->
<g id="node25" class="node"><title>2267839518224</title>
<ellipse fill="none" stroke="black" cx="1372.27" cy="-882" rx="27" ry="18"/>
<text text-anchor="middle" x="1372.27" y="-878.5" font-family="Times New Roman,serif" font-size="15.00">xor</text>
</g>
<!-- 2267839517984&#45;&#45;2267839518224 -->
<g id="edge68" class="edge"><title>2267839517984&#45;&#45;2267839518224</title>
<path fill="none" stroke="black" d="M1436.46,-939.17C1422.44,-926.898 1402.05,-909.064 1388.04,-896.801"/>
</g>
<!-- 2267839518368 -->
<g id="node77" class="node"><title>2267839518368</title>
<ellipse fill="none" stroke="black" cx="1532.27" cy="-882" rx="27" ry="18"/>
<text text-anchor="middle" x="1532.27" y="-878.5" font-family="Times New Roman,serif" font-size="15.00">xor</text>
</g>
<!-- 2267839517984&#45;&#45;2267839518368 -->
<g id="edge85" class="edge"><title>2267839517984&#45;&#45;2267839518368</title>
<path fill="none" stroke="black" d="M1468.07,-939.17C1482.1,-926.898 1502.48,-909.064 1516.49,-896.801"/>
</g>
<!-- 2267839518464 -->
<g id="node26" class="node"><title>2267839518464</title>
<ellipse fill="black" stroke="black" cx="1305.27" cy="-810" rx="2.7" ry="2.7"/>
</g>
<!-- 2267839518224&#45;&#45;2267839518464 -->
<g id="edge17" class="edge"><title>2267839518224&#45;&#45;2267839518464</title>
<path fill="none" stroke="black" d="M1358.38,-866.496C1341.21,-848.555 1313.42,-819.522 1306.74,-812.544"/>
</g>
<!-- 2267839518608 -->
<g id="node27" class="node"><title>2267839518608</title>
<ellipse fill="none" stroke="black" cx="1372.27" cy="-810" rx="46.6143" ry="18"/>
<text text-anchor="middle" x="1372.27" y="-806.5" font-family="Times New Roman,serif" font-size="15.00">xor loop</text>
</g>
<!-- 2267839518224&#45;&#45;2267839518608 -->
<g id="edge67" class="edge"><title>2267839518224&#45;&#45;2267839518608</title>
<path fill="none" stroke="black" d="M1372.27,-863.697C1372.27,-852.846 1372.27,-838.917 1372.27,-828.104"/>
</g>
<!-- 2267839518848 -->
<g id="node28" class="node"><title>2267839518848</title>
<ellipse fill="none" stroke="black" cx="1339.27" cy="-738" rx="27" ry="18"/>
<text text-anchor="middle" x="1339.27" y="-734.5" font-family="Times New Roman,serif" font-size="15.00">seq</text>
</g>
<!-- 2267839518608&#45;&#45;2267839518848 -->
<g id="edge65" class="edge"><title>2267839518608&#45;&#45;2267839518848</title>
<path fill="none" stroke="black" d="M1364.28,-792.055C1359.01,-780.887 1352.16,-766.343 1346.95,-755.307"/>
</g>
<!-- 2267839518992 -->
<g id="node76" class="node"><title>2267839518992</title>
<ellipse fill="black" stroke="black" cx="1387.27" cy="-738" rx="2.7" ry="2.7"/>
</g>
<!-- 2267839518608&#45;&#45;2267839518992 -->
<g id="edge66" class="edge"><title>2267839518608&#45;&#45;2267839518992</title>
<path fill="none" stroke="black" d="M1375.97,-791.697C1379.79,-773.883 1385.39,-747.769 1386.89,-740.776"/>
</g>
<!-- 2267839519088 -->
<g id="node29" class="node"><title>2267839519088</title>
<ellipse fill="none" stroke="black" cx="1156.27" cy="-666" rx="27" ry="18"/>
<text text-anchor="middle" x="1156.27" y="-662.5" font-family="Times New Roman,serif" font-size="15.00">xor</text>
</g>
<!-- 2267839518848&#45;&#45;2267839519088 -->
<g id="edge20" class="edge"><title>2267839518848&#45;&#45;2267839519088</title>
<path fill="none" stroke="black" d="M1316.46,-728.276C1281.3,-714.825 1214.24,-689.174 1179.07,-675.724"/>
</g>
<!-- 2267839519232 -->
<g id="node32" class="node"><title>2267839519232</title>
<ellipse fill="none" stroke="black" cx="1277.27" cy="-666" rx="27" ry="18"/>
<text text-anchor="middle" x="1277.27" y="-662.5" font-family="Times New Roman,serif" font-size="15.00">xor</text>
</g>
<!-- 2267839518848&#45;&#45;2267839519232 -->
<g id="edge29" class="edge"><title>2267839518848&#45;&#45;2267839519232</title>
<path fill="none" stroke="black" d="M1326.12,-722.155C1315.6,-710.276 1300.91,-693.697 1290.4,-681.824"/>
</g>
<!-- 2267839519664 -->
<g id="node41" class="node"><title>2267839519664</title>
<ellipse fill="none" stroke="black" cx="1349.27" cy="-666" rx="27" ry="18"/>
<text text-anchor="middle" x="1349.27" y="-662.5" font-family="Times New Roman,serif" font-size="15.00">xor</text>
</g>
<!-- 2267839518848&#45;&#45;2267839519664 -->
<g id="edge32" class="edge"><title>2267839518848&#45;&#45;2267839519664</title>
<path fill="none" stroke="black" d="M1341.69,-720.055C1343.24,-709.211 1345.24,-695.183 1346.8,-684.275"/>
</g>
<!-- 2267839520672 -->
<g id="node44" class="node"><title>2267839520672</title>
<ellipse fill="none" stroke="black" cx="1535.27" cy="-666" rx="27" ry="18"/>
<text text-anchor="middle" x="1535.27" y="-662.5" font-family="Times New Roman,serif" font-size="15.00">xor</text>
</g>
<!-- 2267839518848&#45;&#45;2267839520672 -->
<g id="edge64" class="edge"><title>2267839518848&#45;&#45;2267839520672</title>
<path fill="none" stroke="black" d="M1362.52,-728.695C1400.24,-715.223 1474.34,-688.759 1512.04,-675.294"/>
</g>
<!-- 2267839519328 -->
<g id="node30" class="node"><title>2267839519328</title>
<ellipse fill="black" stroke="black" cx="1071.27" cy="-594" rx="2.7" ry="2.7"/>
</g>
<!-- 2267839519088&#45;&#45;2267839519328 -->
<g id="edge18" class="edge"><title>2267839519088&#45;&#45;2267839519328</title>
<path fill="none" stroke="black" d="M1139.88,-651.503C1118.26,-633.705 1081.94,-603.793 1073.2,-596.594"/>
</g>
<!-- 2267839519472 -->
<g id="node31" class="node"><title>2267839519472</title>
<ellipse fill="none" stroke="black" cx="1156.27" cy="-594" rx="63.8584" ry="18"/>
<text text-anchor="middle" x="1156.27" y="-590.5" font-family="Times New Roman,serif" font-size="15.00">Blood return</text>
</g>
<!-- 2267839519088&#45;&#45;2267839519472 -->
<g id="edge19" class="edge"><title>2267839519088&#45;&#45;2267839519472</title>
<path fill="none" stroke="black" d="M1156.27,-647.697C1156.27,-636.846 1156.27,-622.917 1156.27,-612.104"/>
</g>
<!-- 2267839519760 -->
<g id="node33" class="node"><title>2267839519760</title>
<ellipse fill="black" stroke="black" cx="1241.27" cy="-594" rx="2.7" ry="2.7"/>
</g>
<!-- 2267839519232&#45;&#45;2267839519760 -->
<g id="edge21" class="edge"><title>2267839519232&#45;&#45;2267839519760</title>
<path fill="none" stroke="black" d="M1268.92,-648.765C1259.78,-630.994 1245.93,-604.06 1242.21,-596.836"/>
</g>
<!-- 2267839519904 -->
<g id="node34" class="node"><title>2267839519904</title>
<ellipse fill="none" stroke="black" cx="1289.27" cy="-594" rx="27" ry="18"/>
<text text-anchor="middle" x="1289.27" y="-590.5" font-family="Times New Roman,serif" font-size="15.00">and</text>
</g>
<!-- 2267839519232&#45;&#45;2267839519904 -->
<g id="edge28" class="edge"><title>2267839519232&#45;&#45;2267839519904</title>
<path fill="none" stroke="black" d="M1280.17,-648.055C1282.03,-637.211 1284.43,-623.183 1286.3,-612.275"/>
</g>
<!-- 2267839520144 -->
<g id="node35" class="node"><title>2267839520144</title>
<ellipse fill="none" stroke="black" cx="1227.27" cy="-522" rx="27" ry="18"/>
<text text-anchor="middle" x="1227.27" y="-518.5" font-family="Times New Roman,serif" font-size="15.00">xor</text>
</g>
<!-- 2267839519904&#45;&#45;2267839520144 -->
<g id="edge24" class="edge"><title>2267839519904&#45;&#45;2267839520144</title>
<path fill="none" stroke="black" d="M1276.12,-578.155C1265.6,-566.276 1250.91,-549.697 1240.4,-537.824"/>
</g>
<!-- 2267839520288 -->
<g id="node38" class="node"><title>2267839520288</title>
<ellipse fill="none" stroke="black" cx="1307.27" cy="-522" rx="27" ry="18"/>
<text text-anchor="middle" x="1307.27" y="-518.5" font-family="Times New Roman,serif" font-size="15.00">xor</text>
</g>
<!-- 2267839519904&#45;&#45;2267839520288 -->
<g id="edge27" class="edge"><title>2267839519904&#45;&#45;2267839520288</title>
<path fill="none" stroke="black" d="M1293.62,-576.055C1296.45,-565.049 1300.13,-550.764 1302.95,-539.789"/>
</g>
<!-- 2267839520384 -->
<g id="node36" class="node"><title>2267839520384</title>
<ellipse fill="black" stroke="black" cx="1147.27" cy="-450" rx="2.7" ry="2.7"/>
</g>
<!-- 2267839520144&#45;&#45;2267839520384 -->
<g id="edge22" class="edge"><title>2267839520144&#45;&#45;2267839520384</title>
<path fill="none" stroke="black" d="M1211.46,-507.17C1191.06,-489.32 1157.21,-459.702 1149.07,-452.577"/>
</g>
<!-- 2267839520528 -->
<g id="node37" class="node"><title>2267839520528</title>
<ellipse fill="none" stroke="black" cx="1227.27" cy="-450" rx="59.5207" ry="18"/>
<text text-anchor="middle" x="1227.27" y="-446.5" font-family="Times New Roman,serif" font-size="15.00">Drop probe</text>
</g>
<!-- 2267839520144&#45;&#45;2267839520528 -->
<g id="edge23" class="edge"><title>2267839520144&#45;&#45;2267839520528</title>
<path fill="none" stroke="black" d="M1227.27,-503.697C1227.27,-492.846 1227.27,-478.917 1227.27,-468.104"/>
</g>
<!-- 2267839578224 -->
<g id="node39" class="node"><title>2267839578224</title>
<ellipse fill="black" stroke="black" cx="1307.27" cy="-450" rx="2.7" ry="2.7"/>
</g>
<!-- 2267839520288&#45;&#45;2267839578224 -->
<g id="edge25" class="edge"><title>2267839520288&#45;&#45;2267839578224</title>
<path fill="none" stroke="black" d="M1307.27,-503.697C1307.27,-485.883 1307.27,-459.769 1307.27,-452.776"/>
</g>
<!-- 2267839578368 -->
<g id="node40" class="node"><title>2267839578368</title>
<ellipse fill="none" stroke="black" cx="1375.27" cy="-450" rx="47.0053" ry="18"/>
<text text-anchor="middle" x="1375.27" y="-446.5" font-family="Times New Roman,serif" font-size="15.00">Puncture</text>
</g>
<!-- 2267839520288&#45;&#45;2267839578368 -->
<g id="edge26" class="edge"><title>2267839520288&#45;&#45;2267839578368</title>
<path fill="none" stroke="black" d="M1321.36,-506.496C1332.48,-495.043 1348,-479.069 1359.53,-467.198"/>
</g>
<!-- 2267839578464 -->
<g id="node42" class="node"><title>2267839578464</title>
<ellipse fill="black" stroke="black" cx="1337.27" cy="-594" rx="2.7" ry="2.7"/>
</g>
<!-- 2267839519664&#45;&#45;2267839578464 -->
<g id="edge30" class="edge"><title>2267839519664&#45;&#45;2267839578464</title>
<path fill="none" stroke="black" d="M1346.36,-648.055C1343.31,-630.252 1338.79,-603.865 1337.57,-596.796"/>
</g>
<!-- 2267839578608 -->
<g id="node43" class="node"><title>2267839578608</title>
<ellipse fill="none" stroke="black" cx="1436.27" cy="-594" rx="77.654" ry="18"/>
<text text-anchor="middle" x="1436.27" y="-590.5" font-family="Times New Roman,serif" font-size="15.00">Remove syringe</text>
</g>
<!-- 2267839519664&#45;&#45;2267839578608 -->
<g id="edge31" class="edge"><title>2267839519664&#45;&#45;2267839578608</title>
<path fill="none" stroke="black" d="M1366.04,-651.503C1380.26,-640.061 1400.7,-623.614 1415.87,-611.412"/>
</g>
<!-- 2267839578896 -->
<g id="node45" class="node"><title>2267839578896</title>
<ellipse fill="black" stroke="black" cx="1535.27" cy="-594" rx="2.7" ry="2.7"/>
</g>
<!-- 2267839520672&#45;&#45;2267839578896 -->
<g id="edge33" class="edge"><title>2267839520672&#45;&#45;2267839578896</title>
<path fill="none" stroke="black" d="M1535.27,-647.697C1535.27,-629.883 1535.27,-603.769 1535.27,-596.776"/>
</g>
<!-- 2267839579040 -->
<g id="node46" class="node"><title>2267839579040</title>
<ellipse fill="none" stroke="black" cx="1583.27" cy="-594" rx="27" ry="18"/>
<text text-anchor="middle" x="1583.27" y="-590.5" font-family="Times New Roman,serif" font-size="15.00">and</text>
</g>
<!-- 2267839520672&#45;&#45;2267839579040 -->
<g id="edge63" class="edge"><title>2267839520672&#45;&#45;2267839579040</title>
<path fill="none" stroke="black" d="M1546.16,-649.116C1554.01,-637.66 1564.57,-622.263 1572.42,-610.821"/>
</g>
<!-- 2267839579280 -->
<g id="node47" class="node"><title>2267839579280</title>
<ellipse fill="none" stroke="black" cx="1462.27" cy="-522" rx="84.1616" ry="18"/>
<text text-anchor="middle" x="1462.27" y="-518.5" font-family="Times New Roman,serif" font-size="15.00">Guidewire install</text>
</g>
<!-- 2267839579040&#45;&#45;2267839579280 -->
<g id="edge34" class="edge"><title>2267839579040&#45;&#45;2267839579280</title>
<path fill="none" stroke="black" d="M1563.56,-581.597C1543.6,-570.053 1512.56,-552.096 1490.1,-539.103"/>
</g>
<!-- 2267839579424 -->
<g id="node48" class="node"><title>2267839579424</title>
<ellipse fill="none" stroke="black" cx="1591.27" cy="-522" rx="27" ry="18"/>
<text text-anchor="middle" x="1591.27" y="-518.5" font-family="Times New Roman,serif" font-size="15.00">xor</text>
</g>
<!-- 2267839579040&#45;&#45;2267839579424 -->
<g id="edge62" class="edge"><title>2267839579040&#45;&#45;2267839579424</title>
<path fill="none" stroke="black" d="M1585.24,-575.697C1586.48,-564.846 1588.08,-550.917 1589.31,-540.104"/>
</g>
<!-- 2267839579664 -->
<g id="node49" class="node"><title>2267839579664</title>
<ellipse fill="black" stroke="black" cx="1557.27" cy="-450" rx="2.7" ry="2.7"/>
</g>
<!-- 2267839579424&#45;&#45;2267839579664 -->
<g id="edge35" class="edge"><title>2267839579424&#45;&#45;2267839579664</title>
<path fill="none" stroke="black" d="M1583.38,-504.765C1574.75,-486.994 1561.67,-460.06 1558.16,-452.836"/>
</g>
<!-- 2267839579808 -->
<g id="node50" class="node"><title>2267839579808</title>
<ellipse fill="none" stroke="black" cx="1624.27" cy="-450" rx="46.6143" ry="18"/>
<text text-anchor="middle" x="1624.27" y="-446.5" font-family="Times New Roman,serif" font-size="15.00">xor loop</text>
</g>
<!-- 2267839579424&#45;&#45;2267839579808 -->
<g id="edge61" class="edge"><title>2267839579424&#45;&#45;2267839579808</title>
<path fill="none" stroke="black" d="M1599.09,-504.411C1604.27,-493.414 1611.05,-479.027 1616.27,-467.956"/>
</g>
<!-- 2267839580048 -->
<g id="node51" class="node"><title>2267839580048</title>
<ellipse fill="none" stroke="black" cx="1600.27" cy="-378" rx="27" ry="18"/>
<text text-anchor="middle" x="1600.27" y="-374.5" font-family="Times New Roman,serif" font-size="15.00">seq</text>
</g>
<!-- 2267839579808&#45;&#45;2267839580048 -->
<g id="edge59" class="edge"><title>2267839579808&#45;&#45;2267839580048</title>
<path fill="none" stroke="black" d="M1618.46,-432.055C1614.68,-421.049 1609.78,-406.764 1606.02,-395.789"/>
</g>
<!-- 2267839580144 -->
<g id="node75" class="node"><title>2267839580144</title>
<ellipse fill="black" stroke="black" cx="1648.27" cy="-378" rx="2.7" ry="2.7"/>
</g>
<!-- 2267839579808&#45;&#45;2267839580144 -->
<g id="edge60" class="edge"><title>2267839579808&#45;&#45;2267839580144</title>
<path fill="none" stroke="black" d="M1630.08,-432.055C1636.18,-414.252 1645.23,-387.865 1647.65,-380.796"/>
</g>
<!-- 2267839580288 -->
<g id="node52" class="node"><title>2267839580288</title>
<ellipse fill="none" stroke="black" cx="1502.27" cy="-306" rx="27" ry="18"/>
<text text-anchor="middle" x="1502.27" y="-302.5" font-family="Times New Roman,serif" font-size="15.00">xor</text>
</g>
<!-- 2267839580048&#45;&#45;2267839580288 -->
<g id="edge42" class="edge"><title>2267839580048&#45;&#45;2267839580288</title>
<path fill="none" stroke="black" d="M1582.29,-364.161C1564.61,-351.531 1537.77,-332.36 1520.13,-319.758"/>
</g>
<!-- 2267839580432 -->
<g id="node59" class="node"><title>2267839580432</title>
<ellipse fill="none" stroke="black" cx="1600.27" cy="-306" rx="27" ry="18"/>
<text text-anchor="middle" x="1600.27" y="-302.5" font-family="Times New Roman,serif" font-size="15.00">xor</text>
</g>
<!-- 2267839580048&#45;&#45;2267839580432 -->
<g id="edge49" class="edge"><title>2267839580048&#45;&#45;2267839580432</title>
<path fill="none" stroke="black" d="M1600.27,-359.697C1600.27,-348.846 1600.27,-334.917 1600.27,-324.104"/>
</g>
<!-- 2267839581440 -->
<g id="node66" class="node"><title>2267839581440</title>
<ellipse fill="none" stroke="black" cx="1768.27" cy="-306" rx="27" ry="18"/>
<text text-anchor="middle" x="1768.27" y="-302.5" font-family="Times New Roman,serif" font-size="15.00">xor</text>
</g>
<!-- 2267839580048&#45;&#45;2267839581440 -->
<g id="edge58" class="edge"><title>2267839580048&#45;&#45;2267839581440</title>
<path fill="none" stroke="black" d="M1622.57,-367.705C1654.71,-354.316 1713.68,-329.744 1745.86,-316.334"/>
</g>
<!-- 2267839580528 -->
<g id="node53" class="node"><title>2267839580528</title>
<ellipse fill="black" stroke="black" cx="1435.27" cy="-234" rx="2.7" ry="2.7"/>
</g>
<!-- 2267839580288&#45;&#45;2267839580528 -->
<g id="edge36" class="edge"><title>2267839580288&#45;&#45;2267839580528</title>
<path fill="none" stroke="black" d="M1488.38,-290.496C1471.21,-272.555 1443.42,-243.522 1436.74,-236.544"/>
</g>
<!-- 2267839580672 -->
<g id="node54" class="node"><title>2267839580672</title>
<ellipse fill="none" stroke="black" cx="1502.27" cy="-234" rx="46.6143" ry="18"/>
<text text-anchor="middle" x="1502.27" y="-230.5" font-family="Times New Roman,serif" font-size="15.00">xor loop</text>
</g>
<!-- 2267839580288&#45;&#45;2267839580672 -->
<g id="edge41" class="edge"><title>2267839580288&#45;&#45;2267839580672</title>
<path fill="none" stroke="black" d="M1502.27,-287.697C1502.27,-276.846 1502.27,-262.917 1502.27,-252.104"/>
</g>
<!-- 2267839580912 -->
<g id="node55" class="node"><title>2267839580912</title>
<ellipse fill="none" stroke="black" cx="1341.27" cy="-162" rx="27" ry="18"/>
<text text-anchor="middle" x="1341.27" y="-158.5" font-family="Times New Roman,serif" font-size="15.00">xor</text>
</g>
<!-- 2267839580672&#45;&#45;2267839580912 -->
<g id="edge39" class="edge"><title>2267839580672&#45;&#45;2267839580912</title>
<path fill="none" stroke="black" d="M1472.36,-219.998C1440.71,-206.238 1391.52,-184.852 1363.26,-172.562"/>
</g>
<!-- 2267839581056 -->
<g id="node58" class="node"><title>2267839581056</title>
<ellipse fill="black" stroke="black" cx="1502.27" cy="-162" rx="2.7" ry="2.7"/>
</g>
<!-- 2267839580672&#45;&#45;2267839581056 -->
<g id="edge40" class="edge"><title>2267839580672&#45;&#45;2267839581056</title>
<path fill="none" stroke="black" d="M1502.27,-215.697C1502.27,-197.883 1502.27,-171.769 1502.27,-164.776"/>
</g>
<!-- 2267839581152 -->
<g id="node56" class="node"><title>2267839581152</title>
<ellipse fill="none" stroke="black" cx="1139.27" cy="-90" rx="72.0363" ry="18"/>
<text text-anchor="middle" x="1139.27" y="-86.5" font-family="Times New Roman,serif" font-size="15.00">Remove trocar</text>
</g>
<!-- 2267839580912&#45;&#45;2267839581152 -->
<g id="edge37" class="edge"><title>2267839580912&#45;&#45;2267839581152</title>
<path fill="none" stroke="black" d="M1317.7,-152.833C1283.87,-141.112 1221.1,-119.357 1179.75,-105.029"/>
</g>
<!-- 2267839581296 -->
<g id="node57" class="node"><title>2267839581296</title>
<ellipse fill="none" stroke="black" cx="1341.27" cy="-90" rx="111.752" ry="18"/>
<text text-anchor="middle" x="1341.27" y="-86.5" font-family="Times New Roman,serif" font-size="15.00">Check wire in short axis</text>
</g>
<!-- 2267839580912&#45;&#45;2267839581296 -->
<g id="edge38" class="edge"><title>2267839580912&#45;&#45;2267839581296</title>
<path fill="none" stroke="black" d="M1341.27,-143.697C1341.27,-132.846 1341.27,-118.917 1341.27,-108.104"/>
</g>
<!-- 2267839581536 -->
<g id="node60" class="node"><title>2267839581536</title>
<ellipse fill="black" stroke="black" cx="1585.27" cy="-234" rx="2.7" ry="2.7"/>
</g>
<!-- 2267839580432&#45;&#45;2267839581536 -->
<g id="edge43" class="edge"><title>2267839580432&#45;&#45;2267839581536</title>
<path fill="none" stroke="black" d="M1596.63,-288.055C1592.82,-270.252 1587.17,-243.865 1585.65,-236.796"/>
</g>
<!-- 2267839581680 -->
<g id="node61" class="node"><title>2267839581680</title>
<ellipse fill="none" stroke="black" cx="1652.27" cy="-234" rx="46.6143" ry="18"/>
<text text-anchor="middle" x="1652.27" y="-230.5" font-family="Times New Roman,serif" font-size="15.00">xor loop</text>
</g>
<!-- 2267839580432&#45;&#45;2267839581680 -->
<g id="edge48" class="edge"><title>2267839580432&#45;&#45;2267839581680</title>
<path fill="none" stroke="black" d="M1611.81,-289.465C1620.18,-278.187 1631.5,-262.955 1640.03,-251.467"/>
</g>
<!-- 2267839581920 -->
<g id="node62" class="node"><title>2267839581920</title>
<ellipse fill="none" stroke="black" cx="1628.27" cy="-162" rx="27" ry="18"/>
<text text-anchor="middle" x="1628.27" y="-158.5" font-family="Times New Roman,serif" font-size="15.00">xor</text>
</g>
<!-- 2267839581680&#45;&#45;2267839581920 -->
<g id="edge46" class="edge"><title>2267839581680&#45;&#45;2267839581920</title>
<path fill="none" stroke="black" d="M1646.46,-216.055C1642.68,-205.049 1637.78,-190.764 1634.02,-179.789"/>
</g>
<!-- 2267839582064 -->
<g id="node65" class="node"><title>2267839582064</title>
<ellipse fill="black" stroke="black" cx="1676.27" cy="-162" rx="2.7" ry="2.7"/>
</g>
<!-- 2267839581680&#45;&#45;2267839582064 -->
<g id="edge47" class="edge"><title>2267839581680&#45;&#45;2267839582064</title>
<path fill="none" stroke="black" d="M1658.08,-216.055C1664.18,-198.252 1673.23,-171.865 1675.65,-164.796"/>
</g>
<!-- 2267839582160 -->
<g id="node63" class="node"><title>2267839582160</title>
<ellipse fill="none" stroke="black" cx="1580.27" cy="-90" rx="109.193" ry="18"/>
<text text-anchor="middle" x="1580.27" y="-86.5" font-family="Times New Roman,serif" font-size="15.00">Check wire in long axis</text>
</g>
<!-- 2267839581920&#45;&#45;2267839582160 -->
<g id="edge44" class="edge"><title>2267839581920&#45;&#45;2267839582160</title>
<path fill="none" stroke="black" d="M1617.37,-145.116C1609.85,-134.144 1599.85,-119.557 1592.12,-108.292"/>
</g>
<!-- 2264906784928 -->
<g id="node64" class="node"><title>2264906784928</title>
<ellipse fill="none" stroke="black" cx="1809.27" cy="-90" rx="101.406" ry="18"/>
<text text-anchor="middle" x="1809.27" y="-86.5" font-family="Times New Roman,serif" font-size="15.00">Wire in good position</text>
</g>
<!-- 2267839581920&#45;&#45;2264906784928 -->
<g id="edge45" class="edge"><title>2267839581920&#45;&#45;2264906784928</title>
<path fill="none" stroke="black" d="M1651.19,-152.134C1680.77,-140.693 1732.74,-120.595 1768.99,-106.578"/>
</g>
<!-- 2264906785168 -->
<g id="node67" class="node"><title>2264906785168</title>
<ellipse fill="black" stroke="black" cx="1768.27" cy="-234" rx="2.7" ry="2.7"/>
</g>
<!-- 2267839581440&#45;&#45;2264906785168 -->
<g id="edge50" class="edge"><title>2267839581440&#45;&#45;2264906785168</title>
<path fill="none" stroke="black" d="M1768.27,-287.697C1768.27,-269.883 1768.27,-243.769 1768.27,-236.776"/>
</g>
<!-- 2264906785312 -->
<g id="node68" class="node"><title>2264906785312</title>
<ellipse fill="none" stroke="black" cx="1955.27" cy="-234" rx="46.6143" ry="18"/>
<text text-anchor="middle" x="1955.27" y="-230.5" font-family="Times New Roman,serif" font-size="15.00">xor loop</text>
</g>
<!-- 2267839581440&#45;&#45;2264906785312 -->
<g id="edge57" class="edge"><title>2267839581440&#45;&#45;2264906785312</title>
<path fill="none" stroke="black" d="M1791.2,-296.417C1824.26,-284.04 1885.46,-261.129 1923.05,-247.058"/>
</g>
<!-- 2264906785552 -->
<g id="node69" class="node"><title>2264906785552</title>
<ellipse fill="none" stroke="black" cx="1955.27" cy="-162" rx="27" ry="18"/>
<text text-anchor="middle" x="1955.27" y="-158.5" font-family="Times New Roman,serif" font-size="15.00">seq</text>
</g>
<!-- 2264906785312&#45;&#45;2264906785552 -->
<g id="edge55" class="edge"><title>2264906785312&#45;&#45;2264906785552</title>
<path fill="none" stroke="black" d="M1955.27,-215.697C1955.27,-204.846 1955.27,-190.917 1955.27,-180.104"/>
</g>
<!-- 2264906785696 -->
<g id="node74" class="node"><title>2264906785696</title>
<ellipse fill="black" stroke="black" cx="2003.27" cy="-162" rx="2.7" ry="2.7"/>
</g>
<!-- 2264906785312&#45;&#45;2264906785696 -->
<g id="edge56" class="edge"><title>2264906785312&#45;&#45;2264906785696</title>
<path fill="none" stroke="black" d="M1966.64,-216.411C1978.84,-198.622 1997.12,-171.962 2002.02,-164.816"/>
</g>
<!-- 2264906785792 -->
<g id="node70" class="node"><title>2264906785792</title>
<ellipse fill="none" stroke="black" cx="1955.27" cy="-90" rx="27" ry="18"/>
<text text-anchor="middle" x="1955.27" y="-86.5" font-family="Times New Roman,serif" font-size="15.00">xor</text>
</g>
<!-- 2264906785552&#45;&#45;2264906785792 -->
<g id="edge53" class="edge"><title>2264906785552&#45;&#45;2264906785792</title>
<path fill="none" stroke="black" d="M1955.27,-143.697C1955.27,-132.846 1955.27,-118.917 1955.27,-108.104"/>
</g>
<!-- 2264906785936 -->
<g id="node73" class="node"><title>2264906785936</title>
<ellipse fill="none" stroke="black" cx="2083.27" cy="-90" rx="82.8824" ry="18"/>
<text text-anchor="middle" x="2083.27" y="-86.5" font-family="Times New Roman,serif" font-size="15.00">Advance catheter</text>
</g>
<!-- 2264906785552&#45;&#45;2264906785936 -->
<g id="edge54" class="edge"><title>2264906785552&#45;&#45;2264906785936</title>
<path fill="none" stroke="black" d="M1975.55,-149.908C1996.7,-138.343 2030.04,-120.106 2054.03,-106.987"/>
</g>
<!-- 2264906786032 -->
<g id="node71" class="node"><title>2264906786032</title>
<ellipse fill="black" stroke="black" cx="1907.27" cy="-18" rx="2.7" ry="2.7"/>
</g>
<!-- 2264906785792&#45;&#45;2264906786032 -->
<g id="edge51" class="edge"><title>2264906785792&#45;&#45;2264906786032</title>
<path fill="none" stroke="black" d="M1944.37,-73.1159C1932.2,-55.3673 1913.55,-28.1581 1908.54,-20.8565"/>
</g>
<!-- 2264906786176 -->
<g id="node72" class="node"><title>2264906786176</title>
<ellipse fill="none" stroke="black" cx="2003.27" cy="-18" rx="75.9851" ry="18"/>
<text text-anchor="middle" x="2003.27" y="-14.5" font-family="Times New Roman,serif" font-size="15.00">Widen pathway</text>
</g>
<!-- 2264906785792&#45;&#45;2264906786176 -->
<g id="edge52" class="edge"><title>2264906785792&#45;&#45;2264906786176</title>
<path fill="none" stroke="black" d="M1966.16,-73.1159C1973.79,-61.9827 1983.98,-47.127 1991.75,-35.7973"/>
</g>
<!-- 2267839579184 -->
<g id="node78" class="node"><title>2267839579184</title>
<ellipse fill="black" stroke="black" cx="1439.27" cy="-810" rx="2.7" ry="2.7"/>
</g>
<!-- 2267839518368&#45;&#45;2267839579184 -->
<g id="edge69" class="edge"><title>2267839518368&#45;&#45;2267839579184</title>
<path fill="none" stroke="black" d="M1514.77,-867.834C1490.78,-849.774 1449.63,-818.802 1440.92,-812.243"/>
</g>
<!-- 2267839579904 -->
<g id="node79" class="node"><title>2267839579904</title>
<ellipse fill="none" stroke="black" cx="1532.27" cy="-810" rx="72.0363" ry="18"/>
<text text-anchor="middle" x="1532.27" y="-806.5" font-family="Times New Roman,serif" font-size="15.00">Position probe</text>
</g>
<!-- 2267839518368&#45;&#45;2267839579904 -->
<g id="edge70" class="edge"><title>2267839518368&#45;&#45;2267839579904</title>
<path fill="none" stroke="black" d="M1532.27,-863.697C1532.27,-852.846 1532.27,-838.917 1532.27,-828.104"/>
</g>
<!-- 2264906785408 -->
<g id="node80" class="node"><title>2264906785408</title>
<ellipse fill="none" stroke="black" cx="1649.27" cy="-810" rx="27" ry="18"/>
<text text-anchor="middle" x="1649.27" y="-806.5" font-family="Times New Roman,serif" font-size="15.00">seq</text>
</g>
<!-- 2267839518368&#45;&#45;2264906785408 -->
<g id="edge79" class="edge"><title>2267839518368&#45;&#45;2264906785408</title>
<path fill="none" stroke="black" d="M1551.85,-869.284C1573.45,-856.362 1608,-835.692 1629.62,-822.755"/>
</g>
<!-- 2264906786416 -->
<g id="node89" class="node"><title>2264906786416</title>
<ellipse fill="none" stroke="black" cx="1817.27" cy="-810" rx="27" ry="18"/>
<text text-anchor="middle" x="1817.27" y="-806.5" font-family="Times New Roman,serif" font-size="15.00">seq</text>
</g>
<!-- 2267839518368&#45;&#45;2264906786416 -->
<g id="edge84" class="edge"><title>2267839518368&#45;&#45;2264906786416</title>
<path fill="none" stroke="black" d="M1557.56,-874.788C1611.78,-861.471 1738.63,-830.313 1792.44,-817.098"/>
</g>
<!-- 2264906786512 -->
<g id="node81" class="node"><title>2264906786512</title>
<ellipse fill="none" stroke="black" cx="1514.27" cy="-738" rx="89.7798" ry="18"/>
<text text-anchor="middle" x="1514.27" y="-734.5" font-family="Times New Roman,serif" font-size="15.00">Remove guidewire</text>
</g>
<!-- 2264906785408&#45;&#45;2264906786512 -->
<g id="edge71" class="edge"><title>2264906785408&#45;&#45;2264906786512</title>
<path fill="none" stroke="black" d="M1628.47,-798.216C1606.21,-786.672 1570.65,-768.236 1545.12,-755"/>
</g>
<!-- 2264906786656 -->
<g id="node82" class="node"><title>2264906786656</title>
<ellipse fill="none" stroke="black" cx="1649.27" cy="-738" rx="27" ry="18"/>
<text text-anchor="middle" x="1649.27" y="-734.5" font-family="Times New Roman,serif" font-size="15.00">xor</text>
</g>
<!-- 2264906785408&#45;&#45;2264906786656 -->
<g id="edge78" class="edge"><title>2264906785408&#45;&#45;2264906786656</title>
<path fill="none" stroke="black" d="M1649.27,-791.697C1649.27,-780.846 1649.27,-766.917 1649.27,-756.104"/>
</g>
<!-- 2264906786896 -->
<g id="node83" class="node"><title>2264906786896</title>
<ellipse fill="black" stroke="black" cx="1625.27" cy="-666" rx="2.7" ry="2.7"/>
</g>
<!-- 2264906786656&#45;&#45;2264906786896 -->
<g id="edge72" class="edge"><title>2264906786656&#45;&#45;2264906786896</title>
<path fill="none" stroke="black" d="M1643.46,-720.055C1637.35,-702.252 1628.31,-675.865 1625.88,-668.796"/>
</g>
<!-- 2264906787040 -->
<g id="node84" class="node"><title>2264906787040</title>
<ellipse fill="none" stroke="black" cx="1673.27" cy="-666" rx="27" ry="18"/>
<text text-anchor="middle" x="1673.27" y="-662.5" font-family="Times New Roman,serif" font-size="15.00">and</text>
</g>
<!-- 2264906786656&#45;&#45;2264906787040 -->
<g id="edge77" class="edge"><title>2264906786656&#45;&#45;2264906787040</title>
<path fill="none" stroke="black" d="M1655.08,-720.055C1658.85,-709.049 1663.75,-694.764 1667.51,-683.789"/>
</g>
<!-- 2264906787280 -->
<g id="node85" class="node"><title>2264906787280</title>
<ellipse fill="none" stroke="black" cx="1663.27" cy="-594" rx="27" ry="18"/>
<text text-anchor="middle" x="1663.27" y="-590.5" font-family="Times New Roman,serif" font-size="15.00">xor</text>
</g>
<!-- 2264906787040&#45;&#45;2264906787280 -->
<g id="edge75" class="edge"><title>2264906787040&#45;&#45;2264906787280</title>
<path fill="none" stroke="black" d="M1670.85,-648.055C1669.3,-637.211 1667.29,-623.183 1665.73,-612.275"/>
</g>
<!-- 2264906787424 -->
<g id="node88" class="node"><title>2264906787424</title>
<ellipse fill="none" stroke="black" cx="1814.27" cy="-594" rx="106.134" ry="18"/>
<text text-anchor="middle" x="1814.27" y="-590.5" font-family="Times New Roman,serif" font-size="15.00">Check flow and reflow</text>
</g>
<!-- 2264906787040&#45;&#45;2264906787424 -->
<g id="edge76" class="edge"><title>2264906787040&#45;&#45;2264906787424</title>
<path fill="none" stroke="black" d="M1694.37,-654.52C1717.5,-643.04 1754.87,-624.487 1781.75,-611.145"/>
</g>
<!-- 2264906787520 -->
<g id="node86" class="node"><title>2264906787520</title>
<ellipse fill="black" stroke="black" cx="1655.27" cy="-522" rx="2.7" ry="2.7"/>
</g>
<!-- 2264906787280&#45;&#45;2264906787520 -->
<g id="edge73" class="edge"><title>2264906787280&#45;&#45;2264906787520</title>
<path fill="none" stroke="black" d="M1661.29,-575.697C1659.25,-557.883 1656.27,-531.769 1655.47,-524.776"/>
</g>
<!-- 2264906787664 -->
<g id="node87" class="node"><title>2264906787664</title>
<ellipse fill="none" stroke="black" cx="1783.27" cy="-522" rx="107.914" ry="18"/>
<text text-anchor="middle" x="1783.27" y="-518.5" font-family="Times New Roman,serif" font-size="15.00">Check catheter position</text>
</g>
<!-- 2264906787280&#45;&#45;2264906787664 -->
<g id="edge74" class="edge"><title>2264906787280&#45;&#45;2264906787664</title>
<path fill="none" stroke="black" d="M1683.08,-581.441C1702.65,-570.024 1732.78,-552.449 1754.89,-539.553"/>
</g>
<!-- 2264906787808 -->
<g id="node90" class="node"><title>2264906787808</title>
<ellipse fill="none" stroke="black" cx="1817.27" cy="-738" rx="122.988" ry="18"/>
<text text-anchor="middle" x="1817.27" y="-734.5" font-family="Times New Roman,serif" font-size="15.00">Compression identification</text>
</g>
<!-- 2264906786416&#45;&#45;2264906787808 -->
<g id="edge80" class="edge"><title>2264906786416&#45;&#45;2264906787808</title>
<path fill="none" stroke="black" d="M1817.27,-791.697C1817.27,-780.846 1817.27,-766.917 1817.27,-756.104"/>
</g>
<!-- 2264906787952 -->
<g id="node91" class="node"><title>2264906787952</title>
<ellipse fill="none" stroke="black" cx="1985.27" cy="-738" rx="27" ry="18"/>
<text text-anchor="middle" x="1985.27" y="-734.5" font-family="Times New Roman,serif" font-size="15.00">xor</text>
</g>
<!-- 2264906786416&#45;&#45;2264906787952 -->
<g id="edge83" class="edge"><title>2264906786416&#45;&#45;2264906787952</title>
<path fill="none" stroke="black" d="M1839.57,-799.705C1871.71,-786.316 1930.68,-761.744 1962.86,-748.334"/>
</g>
<!-- 2264906788192 -->
<g id="node92" class="node"><title>2264906788192</title>
<ellipse fill="black" stroke="black" cx="1923.27" cy="-666" rx="2.7" ry="2.7"/>
</g>
<!-- 2264906787952&#45;&#45;2264906788192 -->
<g id="edge81" class="edge"><title>2264906787952&#45;&#45;2264906788192</title>
<path fill="none" stroke="black" d="M1972.12,-722.155C1956.19,-704.175 1930.73,-675.432 1924.62,-668.527"/>
</g>
<!-- 2264906788336 -->
<g id="node93" class="node"><title>2264906788336</title>
<ellipse fill="none" stroke="black" cx="2047.27" cy="-666" rx="103.575" ry="18"/>
<text text-anchor="middle" x="2047.27" y="-662.5" font-family="Times New Roman,serif" font-size="15.00">Doppler identification</text>
</g>
<!-- 2264906787952&#45;&#45;2264906788336 -->
<g id="edge82" class="edge"><title>2264906787952&#45;&#45;2264906788336</title>
<path fill="none" stroke="black" d="M1998.41,-722.155C2008.3,-710.998 2021.85,-695.696 2032.17,-684.04"/>
</g>
</g>
</svg>
