<?xml version="1.0" encoding="UTF-8" standalone="no"?>
<!DOCTYPE svg PUBLIC "-//W3C//DTD SVG 1.1//EN"
 "http://www.w3.org/Graphics/SVG/1.1/DTD/svg11.dtd">
<!-- Generated by graphviz version 2.38.0 (20140413.2041)
 -->
<!-- Title: pt Pages: 1 -->
<svg width="2092pt" height="1124pt"
 viewBox="0.00 0.00 2091.67 1124.00" xmlns="http://www.w3.org/2000/svg" xmlns:xlink="http://www.w3.org/1999/xlink">
<g id="graph0" class="graph" transform="scale(1 1) rotate(0) translate(4 1120)">
<title>pt</title>
<!-- 2179120481520 -->
<g id="node1" class="node"><title>2179120481520</title>
<ellipse fill="none" stroke="black" cx="416.76" cy="-1098" rx="27" ry="18"/>
<text text-anchor="middle" x="416.76" y="-1094.5" font-family="Times New Roman,serif" font-size="15.00">seq</text>
</g>
<!-- 2179146801984 -->
<g id="node2" class="node"><title>2179146801984</title>
<ellipse fill="none" stroke="black" cx="59.7599" cy="-1026" rx="59.5207" ry="18"/>
<text text-anchor="middle" x="59.7599" y="-1022.5" font-family="Times New Roman,serif" font-size="15.00">Create Fine</text>
</g>
<!-- 2179120481520&#45;&#45;2179146801984 -->
<g id="edge1" class="edge"><title>2179120481520&#45;&#45;2179146801984</title>
<path fill="none" stroke="black" d="M391.085,-1091.97C331.931,-1080.37 185.244,-1051.6 108.429,-1036.54"/>
</g>
<!-- 2179146801360 -->
<g id="node3" class="node"><title>2179146801360</title>
<ellipse fill="none" stroke="black" cx="164.76" cy="-1026" rx="27" ry="18"/>
<text text-anchor="middle" x="164.76" y="-1022.5" font-family="Times New Roman,serif" font-size="15.00">xor</text>
</g>
<!-- 2179120481520&#45;&#45;2179146801360 -->
<g id="edge4" class="edge"><title>2179120481520&#45;&#45;2179146801360</title>
<path fill="none" stroke="black" d="M392.138,-1090.16C343.962,-1076.78 237.738,-1047.27 189.481,-1033.87"/>
</g>
<!-- 2179146801888 -->
<g id="node6" class="node"><title>2179146801888</title>
<ellipse fill="none" stroke="black" cx="273.76" cy="-1026" rx="27" ry="18"/>
<text text-anchor="middle" x="273.76" y="-1022.5" font-family="Times New Roman,serif" font-size="15.00">xor</text>
</g>
<!-- 2179120481520&#45;&#45;2179146801888 -->
<g id="edge13" class="edge"><title>2179120481520&#45;&#45;2179146801888</title>
<path fill="none" stroke="black" d="M395.66,-1086.67C368.623,-1073.44 322.025,-1050.63 294.947,-1037.37"/>
</g>
<!-- 2179146805200 -->
<g id="node15" class="node"><title>2179146805200</title>
<ellipse fill="none" stroke="black" cx="416.76" cy="-1026" rx="27" ry="18"/>
<text text-anchor="middle" x="416.76" y="-1022.5" font-family="Times New Roman,serif" font-size="15.00">xor</text>
</g>
<!-- 2179120481520&#45;&#45;2179146805200 -->
<g id="edge16" class="edge"><title>2179120481520&#45;&#45;2179146805200</title>
<path fill="none" stroke="black" d="M416.76,-1079.7C416.76,-1068.85 416.76,-1054.92 416.76,-1044.1"/>
</g>
<!-- 2179146804528 -->
<g id="node18" class="node"><title>2179146804528</title>
<ellipse fill="none" stroke="black" cx="651.76" cy="-1026" rx="27" ry="18"/>
<text text-anchor="middle" x="651.76" y="-1022.5" font-family="Times New Roman,serif" font-size="15.00">xor</text>
</g>
<!-- 2179120481520&#45;&#45;2179146804528 -->
<g id="edge19" class="edge"><title>2179120481520&#45;&#45;2179146804528</title>
<path fill="none" stroke="black" d="M441.024,-1089.77C486.173,-1076.32 582.579,-1047.61 627.628,-1034.19"/>
</g>
<!-- 2179101759712 -->
<g id="node21" class="node"><title>2179101759712</title>
<ellipse fill="none" stroke="black" cx="933.76" cy="-1026" rx="27" ry="18"/>
<text text-anchor="middle" x="933.76" y="-1022.5" font-family="Times New Roman,serif" font-size="15.00">xor</text>
</g>
<!-- 2179120481520&#45;&#45;2179101759712 -->
<g id="edge67" class="edge"><title>2179120481520&#45;&#45;2179101759712</title>
<path fill="none" stroke="black" d="M443.109,-1093.43C531.796,-1081.42 818.856,-1042.56 907.464,-1030.56"/>
</g>
<!-- 2179101759184 -->
<g id="node69" class="node"><title>2179101759184</title>
<ellipse fill="none" stroke="black" cx="1100.76" cy="-1026" rx="27" ry="18"/>
<text text-anchor="middle" x="1100.76" y="-1022.5" font-family="Times New Roman,serif" font-size="15.00">xor</text>
</g>
<!-- 2179120481520&#45;&#45;2179101759184 -->
<g id="edge75" class="edge"><title>2179120481520&#45;&#45;2179101759184</title>
<path fill="none" stroke="black" d="M443.573,-1094.26C552.993,-1083.06 965.055,-1040.89 1074.13,-1029.73"/>
</g>
<!-- 2179146803760 -->
<g id="node4" class="node"><title>2179146803760</title>
<ellipse fill="black" stroke="black" cx="27.7599" cy="-954" rx="2.7" ry="2.7"/>
</g>
<!-- 2179146801360&#45;&#45;2179146803760 -->
<g id="edge2" class="edge"><title>2179146801360&#45;&#45;2179146803760</title>
<path fill="none" stroke="black" d="M143.953,-1014.37C109.22,-996.622 42.0125,-962.282 29.7163,-956"/>
</g>
<!-- 2179146802992 -->
<g id="node5" class="node"><title>2179146802992</title>
<ellipse fill="none" stroke="black" cx="126.76" cy="-954" rx="78.5434" ry="18"/>
<text text-anchor="middle" x="126.76" y="-950.5" font-family="Times New Roman,serif" font-size="15.00">Appeal to Judge</text>
</g>
<!-- 2179146801360&#45;&#45;2179146802992 -->
<g id="edge3" class="edge"><title>2179146801360&#45;&#45;2179146802992</title>
<path fill="none" stroke="black" d="M155.946,-1008.76C149.983,-997.779 142.118,-983.292 136.056,-972.124"/>
</g>
<!-- 2179146802800 -->
<g id="node7" class="node"><title>2179146802800</title>
<ellipse fill="black" stroke="black" cx="225.76" cy="-954" rx="2.7" ry="2.7"/>
</g>
<!-- 2179146801888&#45;&#45;2179146802800 -->
<g id="edge5" class="edge"><title>2179146801888&#45;&#45;2179146802800</title>
<path fill="none" stroke="black" d="M262.868,-1009.12C250.697,-991.367 232.04,-964.158 227.033,-956.857"/>
</g>
<!-- 2179146801456 -->
<g id="node8" class="node"><title>2179146801456</title>
<ellipse fill="none" stroke="black" cx="273.76" cy="-954" rx="27" ry="18"/>
<text text-anchor="middle" x="273.76" y="-950.5" font-family="Times New Roman,serif" font-size="15.00">and</text>
</g>
<!-- 2179146801888&#45;&#45;2179146801456 -->
<g id="edge12" class="edge"><title>2179146801888&#45;&#45;2179146801456</title>
<path fill="none" stroke="black" d="M273.76,-1007.7C273.76,-996.846 273.76,-982.917 273.76,-972.104"/>
</g>
<!-- 2179146801264 -->
<g id="node9" class="node"><title>2179146801264</title>
<ellipse fill="none" stroke="black" cx="236.76" cy="-882" rx="27" ry="18"/>
<text text-anchor="middle" x="236.76" y="-878.5" font-family="Times New Roman,serif" font-size="15.00">xor</text>
</g>
<!-- 2179146801456&#45;&#45;2179146801264 -->
<g id="edge8" class="edge"><title>2179146801456&#45;&#45;2179146801264</title>
<path fill="none" stroke="black" d="M265.178,-936.765C259.201,-925.456 251.262,-910.437 245.295,-899.147"/>
</g>
<!-- 2179146802704 -->
<g id="node12" class="node"><title>2179146802704</title>
<ellipse fill="none" stroke="black" cx="310.76" cy="-882" rx="27" ry="18"/>
<text text-anchor="middle" x="310.76" y="-878.5" font-family="Times New Roman,serif" font-size="15.00">xor</text>
</g>
<!-- 2179146801456&#45;&#45;2179146802704 -->
<g id="edge11" class="edge"><title>2179146801456&#45;&#45;2179146802704</title>
<path fill="none" stroke="black" d="M282.341,-936.765C288.319,-925.456 296.258,-910.437 302.225,-899.147"/>
</g>
<!-- 2179146801792 -->
<g id="node10" class="node"><title>2179146801792</title>
<ellipse fill="black" stroke="black" cx="162.76" cy="-810" rx="2.7" ry="2.7"/>
</g>
<!-- 2179146801264&#45;&#45;2179146801792 -->
<g id="edge6" class="edge"><title>2179146801264&#45;&#45;2179146801792</title>
<path fill="none" stroke="black" d="M221.785,-866.834C202.865,-848.937 171.864,-819.612 164.409,-812.56"/>
</g>
<!-- 2179146803520 -->
<g id="node11" class="node"><title>2179146803520</title>
<ellipse fill="none" stroke="black" cx="236.76" cy="-810" rx="52.6228" ry="18"/>
<text text-anchor="middle" x="236.76" y="-806.5" font-family="Times New Roman,serif" font-size="15.00">Send Fine</text>
</g>
<!-- 2179146801264&#45;&#45;2179146803520 -->
<g id="edge7" class="edge"><title>2179146801264&#45;&#45;2179146803520</title>
<path fill="none" stroke="black" d="M236.76,-863.697C236.76,-852.846 236.76,-838.917 236.76,-828.104"/>
</g>
<!-- 2179101759664 -->
<g id="node13" class="node"><title>2179101759664</title>
<ellipse fill="black" stroke="black" cx="310.76" cy="-810" rx="2.7" ry="2.7"/>
</g>
<!-- 2179146802704&#45;&#45;2179101759664 -->
<g id="edge9" class="edge"><title>2179146802704&#45;&#45;2179101759664</title>
<path fill="none" stroke="black" d="M310.76,-863.697C310.76,-845.883 310.76,-819.769 310.76,-812.776"/>
</g>
<!-- 2179101760048 -->
<g id="node14" class="node"><title>2179101760048</title>
<ellipse fill="none" stroke="black" cx="377.76" cy="-810" rx="45.7249" ry="18"/>
<text text-anchor="middle" x="377.76" y="-806.5" font-family="Times New Roman,serif" font-size="15.00">Payment</text>
</g>
<!-- 2179146802704&#45;&#45;2179101760048 -->
<g id="edge10" class="edge"><title>2179146802704&#45;&#45;2179101760048</title>
<path fill="none" stroke="black" d="M324.642,-866.496C335.605,-855.043 350.894,-839.069 362.256,-827.198"/>
</g>
<!-- 2179101757840 -->
<g id="node16" class="node"><title>2179101757840</title>
<ellipse fill="black" stroke="black" cx="321.76" cy="-954" rx="2.7" ry="2.7"/>
</g>
<!-- 2179146805200&#45;&#45;2179101757840 -->
<g id="edge14" class="edge"><title>2179146805200&#45;&#45;2179101757840</title>
<path fill="none" stroke="black" d="M399.335,-1012.16C374.909,-994.163 332.458,-962.883 323.464,-956.256"/>
</g>
<!-- 2179101759232 -->
<g id="node17" class="node"><title>2179101759232</title>
<ellipse fill="none" stroke="black" cx="486.76" cy="-954" rx="144.571" ry="18"/>
<text text-anchor="middle" x="486.76" y="-950.5" font-family="Times New Roman,serif" font-size="15.00">Insert Date Appeal to Prefecture</text>
</g>
<!-- 2179146805200&#45;&#45;2179101759232 -->
<g id="edge15" class="edge"><title>2179146805200&#45;&#45;2179101759232</title>
<path fill="none" stroke="black" d="M431.264,-1010.5C442.477,-999.283 458.023,-983.737 469.809,-971.951"/>
</g>
<!-- 2179101757648 -->
<g id="node19" class="node"><title>2179101757648</title>
<ellipse fill="black" stroke="black" cx="651.76" cy="-954" rx="2.7" ry="2.7"/>
</g>
<!-- 2179146804528&#45;&#45;2179101757648 -->
<g id="edge17" class="edge"><title>2179146804528&#45;&#45;2179101757648</title>
<path fill="none" stroke="black" d="M651.76,-1007.7C651.76,-989.883 651.76,-963.769 651.76,-956.776"/>
</g>
<!-- 2179101758128 -->
<g id="node20" class="node"><title>2179101758128</title>
<ellipse fill="none" stroke="black" cx="792.76" cy="-954" rx="120.43" ry="18"/>
<text text-anchor="middle" x="792.76" y="-950.5" font-family="Times New Roman,serif" font-size="15.00">Send Appeal to Prefecture</text>
</g>
<!-- 2179146804528&#45;&#45;2179101758128 -->
<g id="edge18" class="edge"><title>2179146804528&#45;&#45;2179101758128</title>
<path fill="none" stroke="black" d="M672.869,-1014.52C695.84,-1003.12 732.869,-984.733 759.702,-971.412"/>
</g>
<!-- 2179101758416 -->
<g id="node22" class="node"><title>2179101758416</title>
<ellipse fill="black" stroke="black" cx="933.76" cy="-954" rx="2.7" ry="2.7"/>
</g>
<!-- 2179101759712&#45;&#45;2179101758416 -->
<g id="edge20" class="edge"><title>2179101759712&#45;&#45;2179101758416</title>
<path fill="none" stroke="black" d="M933.76,-1007.7C933.76,-989.883 933.76,-963.769 933.76,-956.776"/>
</g>
<!-- 2179101760624 -->
<g id="node23" class="node"><title>2179101760624</title>
<ellipse fill="none" stroke="black" cx="981.76" cy="-954" rx="27" ry="18"/>
<text text-anchor="middle" x="981.76" y="-950.5" font-family="Times New Roman,serif" font-size="15.00">seq</text>
</g>
<!-- 2179101759712&#45;&#45;2179101760624 -->
<g id="edge66" class="edge"><title>2179101759712&#45;&#45;2179101760624</title>
<path fill="none" stroke="black" d="M944.652,-1009.12C952.507,-997.66 963.065,-982.263 970.911,-970.821"/>
</g>
<!-- 2179101760144 -->
<g id="node24" class="node"><title>2179101760144</title>
<ellipse fill="none" stroke="black" cx="802.76" cy="-882" rx="27" ry="18"/>
<text text-anchor="middle" x="802.76" y="-878.5" font-family="Times New Roman,serif" font-size="15.00">xor</text>
</g>
<!-- 2179101760624&#45;&#45;2179101760144 -->
<g id="edge23" class="edge"><title>2179101760624&#45;&#45;2179101760144</title>
<path fill="none" stroke="black" d="M959.089,-944.134C924.752,-930.706 859.924,-905.355 825.528,-891.904"/>
</g>
<!-- 2179101759424 -->
<g id="node27" class="node"><title>2179101759424</title>
<ellipse fill="none" stroke="black" cx="981.76" cy="-882" rx="27" ry="18"/>
<text text-anchor="middle" x="981.76" y="-878.5" font-family="Times New Roman,serif" font-size="15.00">xor</text>
</g>
<!-- 2179101760624&#45;&#45;2179101759424 -->
<g id="edge26" class="edge"><title>2179101760624&#45;&#45;2179101759424</title>
<path fill="none" stroke="black" d="M981.76,-935.697C981.76,-924.846 981.76,-910.917 981.76,-900.104"/>
</g>
<!-- 2179146808624 -->
<g id="node30" class="node"><title>2179146808624</title>
<ellipse fill="none" stroke="black" cx="1132.76" cy="-882" rx="27" ry="18"/>
<text text-anchor="middle" x="1132.76" y="-878.5" font-family="Times New Roman,serif" font-size="15.00">xor</text>
</g>
<!-- 2179101760624&#45;&#45;2179146808624 -->
<g id="edge65" class="edge"><title>2179101760624&#45;&#45;2179146808624</title>
<path fill="none" stroke="black" d="M1003.39,-942.971C1032.1,-929.664 1082.48,-906.308 1111.17,-893.011"/>
</g>
<!-- 2179101761056 -->
<g id="node25" class="node"><title>2179101761056</title>
<ellipse fill="black" stroke="black" cx="728.76" cy="-810" rx="2.7" ry="2.7"/>
</g>
<!-- 2179101760144&#45;&#45;2179101761056 -->
<g id="edge21" class="edge"><title>2179101760144&#45;&#45;2179101761056</title>
<path fill="none" stroke="black" d="M787.785,-866.834C768.865,-848.937 737.864,-819.612 730.409,-812.56"/>
</g>
<!-- 2179101760720 -->
<g id="node26" class="node"><title>2179101760720</title>
<ellipse fill="none" stroke="black" cx="802.76" cy="-810" rx="52.6228" ry="18"/>
<text text-anchor="middle" x="802.76" y="-806.5" font-family="Times New Roman,serif" font-size="15.00">Send Fine</text>
</g>
<!-- 2179101760144&#45;&#45;2179101760720 -->
<g id="edge22" class="edge"><title>2179101760144&#45;&#45;2179101760720</title>
<path fill="none" stroke="black" d="M802.76,-863.697C802.76,-852.846 802.76,-838.917 802.76,-828.104"/>
</g>
<!-- 2179146808672 -->
<g id="node28" class="node"><title>2179146808672</title>
<ellipse fill="black" stroke="black" cx="876.76" cy="-810" rx="2.7" ry="2.7"/>
</g>
<!-- 2179101759424&#45;&#45;2179146808672 -->
<g id="edge24" class="edge"><title>2179101759424&#45;&#45;2179146808672</title>
<path fill="none" stroke="black" d="M962.988,-868.485C936.09,-850.553 888.707,-818.965 878.663,-812.269"/>
</g>
<!-- 2179146807808 -->
<g id="node29" class="node"><title>2179146807808</title>
<ellipse fill="none" stroke="black" cx="1004.76" cy="-810" rx="107.914" ry="18"/>
<text text-anchor="middle" x="1004.76" y="-806.5" font-family="Times New Roman,serif" font-size="15.00">Insert Fine Notification</text>
</g>
<!-- 2179101759424&#45;&#45;2179146807808 -->
<g id="edge25" class="edge"><title>2179101759424&#45;&#45;2179146807808</title>
<path fill="none" stroke="black" d="M987.328,-864.055C990.891,-853.211 995.5,-839.183 999.084,-828.275"/>
</g>
<!-- 2179146806848 -->
<g id="node31" class="node"><title>2179146806848</title>
<ellipse fill="black" stroke="black" cx="1132.76" cy="-810" rx="2.7" ry="2.7"/>
</g>
<!-- 2179146808624&#45;&#45;2179146806848 -->
<g id="edge27" class="edge"><title>2179146808624&#45;&#45;2179146806848</title>
<path fill="none" stroke="black" d="M1132.76,-863.697C1132.76,-845.883 1132.76,-819.769 1132.76,-812.776"/>
</g>
<!-- 2179146809296 -->
<g id="node32" class="node"><title>2179146809296</title>
<ellipse fill="none" stroke="black" cx="1180.76" cy="-810" rx="27" ry="18"/>
<text text-anchor="middle" x="1180.76" y="-806.5" font-family="Times New Roman,serif" font-size="15.00">and</text>
</g>
<!-- 2179146808624&#45;&#45;2179146809296 -->
<g id="edge64" class="edge"><title>2179146808624&#45;&#45;2179146809296</title>
<path fill="none" stroke="black" d="M1143.65,-865.116C1151.51,-853.66 1162.07,-838.263 1169.91,-826.821"/>
</g>
<!-- 2179146806128 -->
<g id="node33" class="node"><title>2179146806128</title>
<ellipse fill="none" stroke="black" cx="1124.76" cy="-738" rx="46.6143" ry="18"/>
<text text-anchor="middle" x="1124.76" y="-734.5" font-family="Times New Roman,serif" font-size="15.00">xor loop</text>
</g>
<!-- 2179146809296&#45;&#45;2179146806128 -->
<g id="edge34" class="edge"><title>2179146809296&#45;&#45;2179146806128</title>
<path fill="none" stroke="black" d="M1168.61,-793.811C1159.6,-782.552 1147.33,-767.215 1138.06,-755.628"/>
</g>
<!-- 2179146807952 -->
<g id="node40" class="node"><title>2179146807952</title>
<ellipse fill="none" stroke="black" cx="1235.76" cy="-738" rx="46.6143" ry="18"/>
<text text-anchor="middle" x="1235.76" y="-734.5" font-family="Times New Roman,serif" font-size="15.00">xor loop</text>
</g>
<!-- 2179146809296&#45;&#45;2179146807952 -->
<g id="edge63" class="edge"><title>2179146809296&#45;&#45;2179146807952</title>
<path fill="none" stroke="black" d="M1192.69,-793.811C1201.54,-782.552 1213.59,-767.215 1222.7,-755.628"/>
</g>
<!-- 2179146809200 -->
<g id="node34" class="node"><title>2179146809200</title>
<ellipse fill="black" stroke="black" cx="1078.76" cy="-666" rx="2.7" ry="2.7"/>
</g>
<!-- 2179146806128&#45;&#45;2179146809200 -->
<g id="edge28" class="edge"><title>2179146806128&#45;&#45;2179146809200</title>
<path fill="none" stroke="black" d="M1113.86,-720.411C1102.17,-702.622 1084.65,-675.962 1079.95,-668.816"/>
</g>
<!-- 2178933471696 -->
<g id="node35" class="node"><title>2178933471696</title>
<ellipse fill="none" stroke="black" cx="1126.76" cy="-666" rx="27" ry="18"/>
<text text-anchor="middle" x="1126.76" y="-662.5" font-family="Times New Roman,serif" font-size="15.00">and</text>
</g>
<!-- 2179146806128&#45;&#45;2178933471696 -->
<g id="edge33" class="edge"><title>2179146806128&#45;&#45;2178933471696</title>
<path fill="none" stroke="black" d="M1125.25,-719.697C1125.56,-708.846 1125.96,-694.917 1126.27,-684.104"/>
</g>
<!-- 2178933470352 -->
<g id="node36" class="node"><title>2178933470352</title>
<ellipse fill="none" stroke="black" cx="1001.76" cy="-594" rx="46.6143" ry="18"/>
<text text-anchor="middle" x="1001.76" y="-590.5" font-family="Times New Roman,serif" font-size="15.00">xor loop</text>
</g>
<!-- 2178933471696&#45;&#45;2178933470352 -->
<g id="edge31" class="edge"><title>2178933471696&#45;&#45;2178933470352</title>
<path fill="none" stroke="black" d="M1106.68,-653.753C1085.14,-641.695 1050.9,-622.516 1027.42,-609.371"/>
</g>
<!-- 2178933471792 -->
<g id="node39" class="node"><title>2178933471792</title>
<ellipse fill="none" stroke="black" cx="1127.76" cy="-594" rx="61.6894" ry="18"/>
<text text-anchor="middle" x="1127.76" y="-590.5" font-family="Times New Roman,serif" font-size="15.00">Add penalty</text>
</g>
<!-- 2178933471696&#45;&#45;2178933471792 -->
<g id="edge32" class="edge"><title>2178933471696&#45;&#45;2178933471792</title>
<path fill="none" stroke="black" d="M1127.01,-647.697C1127.16,-636.846 1127.36,-622.917 1127.52,-612.104"/>
</g>
<!-- 2178933470544 -->
<g id="node37" class="node"><title>2178933470544</title>
<ellipse fill="black" stroke="black" cx="968.76" cy="-522" rx="2.7" ry="2.7"/>
</g>
<!-- 2178933470352&#45;&#45;2178933470544 -->
<g id="edge29" class="edge"><title>2178933470352&#45;&#45;2178933470544</title>
<path fill="none" stroke="black" d="M993.771,-576.055C985.378,-558.252 972.939,-531.865 969.607,-524.796"/>
</g>
<!-- 2178933470160 -->
<g id="node38" class="node"><title>2178933470160</title>
<ellipse fill="none" stroke="black" cx="1035.76" cy="-522" rx="45.7249" ry="18"/>
<text text-anchor="middle" x="1035.76" y="-518.5" font-family="Times New Roman,serif" font-size="15.00">Payment</text>
</g>
<!-- 2178933470352&#45;&#45;2178933470160 -->
<g id="edge30" class="edge"><title>2178933470352&#45;&#45;2178933470160</title>
<path fill="none" stroke="black" d="M1009.99,-576.055C1015.34,-565.049 1022.27,-550.764 1027.61,-539.789"/>
</g>
<!-- 2179146808576 -->
<g id="node41" class="node"><title>2179146808576</title>
<ellipse fill="none" stroke="black" cx="1235.76" cy="-666" rx="27" ry="18"/>
<text text-anchor="middle" x="1235.76" y="-662.5" font-family="Times New Roman,serif" font-size="15.00">seq</text>
</g>
<!-- 2179146807952&#45;&#45;2179146808576 -->
<g id="edge61" class="edge"><title>2179146807952&#45;&#45;2179146808576</title>
<path fill="none" stroke="black" d="M1235.76,-719.697C1235.76,-708.846 1235.76,-694.917 1235.76,-684.104"/>
</g>
<!-- 2179146806896 -->
<g id="node68" class="node"><title>2179146806896</title>
<ellipse fill="black" stroke="black" cx="1283.76" cy="-666" rx="2.7" ry="2.7"/>
</g>
<!-- 2179146807952&#45;&#45;2179146806896 -->
<g id="edge62" class="edge"><title>2179146807952&#45;&#45;2179146806896</title>
<path fill="none" stroke="black" d="M1247.14,-720.411C1259.33,-702.622 1277.61,-675.962 1282.51,-668.816"/>
</g>
<!-- 2179146808144 -->
<g id="node42" class="node"><title>2179146808144</title>
<ellipse fill="none" stroke="black" cx="1234.76" cy="-594" rx="27" ry="18"/>
<text text-anchor="middle" x="1234.76" y="-590.5" font-family="Times New Roman,serif" font-size="15.00">xor</text>
</g>
<!-- 2179146808576&#45;&#45;2179146808144 -->
<g id="edge37" class="edge"><title>2179146808576&#45;&#45;2179146808144</title>
<path fill="none" stroke="black" d="M1235.51,-647.697C1235.36,-636.846 1235.16,-622.917 1235,-612.104"/>
</g>
<!-- 2179146806464 -->
<g id="node45" class="node"><title>2179146806464</title>
<ellipse fill="none" stroke="black" cx="1333.76" cy="-594" rx="27" ry="18"/>
<text text-anchor="middle" x="1333.76" y="-590.5" font-family="Times New Roman,serif" font-size="15.00">xor</text>
</g>
<!-- 2179146808576&#45;&#45;2179146806464 -->
<g id="edge60" class="edge"><title>2179146808576&#45;&#45;2179146806464</title>
<path fill="none" stroke="black" d="M1253.73,-652.161C1271.42,-639.531 1298.26,-620.36 1315.9,-607.758"/>
</g>
<!-- 2179146806512 -->
<g id="node43" class="node"><title>2179146806512</title>
<ellipse fill="black" stroke="black" cx="1135.76" cy="-522" rx="2.7" ry="2.7"/>
</g>
<!-- 2179146808144&#45;&#45;2179146806512 -->
<g id="edge35" class="edge"><title>2179146808144&#45;&#45;2179146806512</title>
<path fill="none" stroke="black" d="M1216.6,-580.161C1191.15,-562.163 1146.91,-530.883 1137.54,-524.256"/>
</g>
<!-- 2179146807616 -->
<g id="node44" class="node"><title>2179146807616</title>
<ellipse fill="none" stroke="black" cx="1234.76" cy="-522" rx="78.5434" ry="18"/>
<text text-anchor="middle" x="1234.76" y="-518.5" font-family="Times New Roman,serif" font-size="15.00">Appeal to Judge</text>
</g>
<!-- 2179146808144&#45;&#45;2179146807616 -->
<g id="edge36" class="edge"><title>2179146808144&#45;&#45;2179146807616</title>
<path fill="none" stroke="black" d="M1234.76,-575.697C1234.76,-564.846 1234.76,-550.917 1234.76,-540.104"/>
</g>
<!-- 2179146809008 -->
<g id="node46" class="node"><title>2179146809008</title>
<ellipse fill="black" stroke="black" cx="1333.76" cy="-522" rx="2.7" ry="2.7"/>
</g>
<!-- 2179146806464&#45;&#45;2179146809008 -->
<g id="edge38" class="edge"><title>2179146806464&#45;&#45;2179146809008</title>
<path fill="none" stroke="black" d="M1333.76,-575.697C1333.76,-557.883 1333.76,-531.769 1333.76,-524.776"/>
</g>
<!-- 2179146806080 -->
<g id="node47" class="node"><title>2179146806080</title>
<ellipse fill="none" stroke="black" cx="1400.76" cy="-522" rx="46.6143" ry="18"/>
<text text-anchor="middle" x="1400.76" y="-518.5" font-family="Times New Roman,serif" font-size="15.00">xor loop</text>
</g>
<!-- 2179146806464&#45;&#45;2179146806080 -->
<g id="edge59" class="edge"><title>2179146806464&#45;&#45;2179146806080</title>
<path fill="none" stroke="black" d="M1347.64,-578.496C1358.6,-567.043 1373.89,-551.069 1385.26,-539.198"/>
</g>
<!-- 2179146805600 -->
<g id="node48" class="node"><title>2179146805600</title>
<ellipse fill="none" stroke="black" cx="1376.76" cy="-450" rx="27" ry="18"/>
<text text-anchor="middle" x="1376.76" y="-446.5" font-family="Times New Roman,serif" font-size="15.00">seq</text>
</g>
<!-- 2179146806080&#45;&#45;2179146805600 -->
<g id="edge57" class="edge"><title>2179146806080&#45;&#45;2179146805600</title>
<path fill="none" stroke="black" d="M1394.95,-504.055C1391.18,-493.049 1386.28,-478.764 1382.52,-467.789"/>
</g>
<!-- 2179146806800 -->
<g id="node67" class="node"><title>2179146806800</title>
<ellipse fill="black" stroke="black" cx="1424.76" cy="-450" rx="2.7" ry="2.7"/>
</g>
<!-- 2179146806080&#45;&#45;2179146806800 -->
<g id="edge58" class="edge"><title>2179146806080&#45;&#45;2179146806800</title>
<path fill="none" stroke="black" d="M1406.57,-504.055C1412.67,-486.252 1421.72,-459.865 1424.14,-452.796"/>
</g>
<!-- 2179146807232 -->
<g id="node49" class="node"><title>2179146807232</title>
<ellipse fill="none" stroke="black" cx="1294.76" cy="-378" rx="27" ry="18"/>
<text text-anchor="middle" x="1294.76" y="-374.5" font-family="Times New Roman,serif" font-size="15.00">xor</text>
</g>
<!-- 2179146805600&#45;&#45;2179146807232 -->
<g id="edge41" class="edge"><title>2179146805600&#45;&#45;2179146807232</title>
<path fill="none" stroke="black" d="M1360.56,-435.17C1346.09,-422.819 1325.02,-404.832 1310.65,-392.563"/>
</g>
<!-- 2179146806944 -->
<g id="node52" class="node"><title>2179146806944</title>
<ellipse fill="none" stroke="black" cx="1459.76" cy="-378" rx="27" ry="18"/>
<text text-anchor="middle" x="1459.76" y="-374.5" font-family="Times New Roman,serif" font-size="15.00">xor</text>
</g>
<!-- 2179146805600&#45;&#45;2179146806944 -->
<g id="edge56" class="edge"><title>2179146805600&#45;&#45;2179146806944</title>
<path fill="none" stroke="black" d="M1393.16,-435.17C1407.8,-422.819 1429.13,-404.832 1443.68,-392.563"/>
</g>
<!-- 2179146809056 -->
<g id="node50" class="node"><title>2179146809056</title>
<ellipse fill="black" stroke="black" cx="1129.76" cy="-306" rx="2.7" ry="2.7"/>
</g>
<!-- 2179146807232&#45;&#45;2179146809056 -->
<g id="edge39" class="edge"><title>2179146807232&#45;&#45;2179146809056</title>
<path fill="none" stroke="black" d="M1272.51,-367.559C1231.34,-350.094 1146.16,-313.96 1131.83,-307.878"/>
</g>
<!-- 2179146806560 -->
<g id="node51" class="node"><title>2179146806560</title>
<ellipse fill="none" stroke="black" cx="1294.76" cy="-306" rx="144.571" ry="18"/>
<text text-anchor="middle" x="1294.76" y="-302.5" font-family="Times New Roman,serif" font-size="15.00">Insert Date Appeal to Prefecture</text>
</g>
<!-- 2179146807232&#45;&#45;2179146806560 -->
<g id="edge40" class="edge"><title>2179146807232&#45;&#45;2179146806560</title>
<path fill="none" stroke="black" d="M1294.76,-359.697C1294.76,-348.846 1294.76,-334.917 1294.76,-324.104"/>
</g>
<!-- 2179146806992 -->
<g id="node53" class="node"><title>2179146806992</title>
<ellipse fill="black" stroke="black" cx="1459.76" cy="-306" rx="2.7" ry="2.7"/>
</g>
<!-- 2179146806944&#45;&#45;2179146806992 -->
<g id="edge42" class="edge"><title>2179146806944&#45;&#45;2179146806992</title>
<path fill="none" stroke="black" d="M1459.76,-359.697C1459.76,-341.883 1459.76,-315.769 1459.76,-308.776"/>
</g>
<!-- 2179146808528 -->
<g id="node54" class="node"><title>2179146808528</title>
<ellipse fill="none" stroke="black" cx="1526.76" cy="-306" rx="46.6143" ry="18"/>
<text text-anchor="middle" x="1526.76" y="-302.5" font-family="Times New Roman,serif" font-size="15.00">xor loop</text>
</g>
<!-- 2179146806944&#45;&#45;2179146808528 -->
<g id="edge55" class="edge"><title>2179146806944&#45;&#45;2179146808528</title>
<path fill="none" stroke="black" d="M1473.64,-362.496C1484.6,-351.043 1499.89,-335.069 1511.26,-323.198"/>
</g>
<!-- 2179146806656 -->
<g id="node55" class="node"><title>2179146806656</title>
<ellipse fill="none" stroke="black" cx="1502.76" cy="-234" rx="27" ry="18"/>
<text text-anchor="middle" x="1502.76" y="-230.5" font-family="Times New Roman,serif" font-size="15.00">xor</text>
</g>
<!-- 2179146808528&#45;&#45;2179146806656 -->
<g id="edge53" class="edge"><title>2179146808528&#45;&#45;2179146806656</title>
<path fill="none" stroke="black" d="M1520.95,-288.055C1517.18,-277.049 1512.28,-262.764 1508.52,-251.789"/>
</g>
<!-- 2178933470688 -->
<g id="node66" class="node"><title>2178933470688</title>
<ellipse fill="black" stroke="black" cx="1550.76" cy="-234" rx="2.7" ry="2.7"/>
</g>
<!-- 2179146808528&#45;&#45;2178933470688 -->
<g id="edge54" class="edge"><title>2179146808528&#45;&#45;2178933470688</title>
<path fill="none" stroke="black" d="M1532.57,-288.055C1538.67,-270.252 1547.72,-243.865 1550.14,-236.796"/>
</g>
<!-- 2178933471168 -->
<g id="node56" class="node"><title>2178933471168</title>
<ellipse fill="none" stroke="black" cx="1190.76" cy="-162" rx="120.43" ry="18"/>
<text text-anchor="middle" x="1190.76" y="-158.5" font-family="Times New Roman,serif" font-size="15.00">Send Appeal to Prefecture</text>
</g>
<!-- 2179146806656&#45;&#45;2178933471168 -->
<g id="edge43" class="edge"><title>2179146806656&#45;&#45;2178933471168</title>
<path fill="none" stroke="black" d="M1477.49,-227.331C1429.4,-216.541 1323.38,-192.755 1254.61,-177.326"/>
</g>
<!-- 2178933473232 -->
<g id="node57" class="node"><title>2178933473232</title>
<ellipse fill="none" stroke="black" cx="1502.76" cy="-162" rx="173.941" ry="18"/>
<text text-anchor="middle" x="1502.76" y="-158.5" font-family="Times New Roman,serif" font-size="15.00">Receive Result Appeal from Prefecture</text>
</g>
<!-- 2179146806656&#45;&#45;2178933473232 -->
<g id="edge44" class="edge"><title>2179146806656&#45;&#45;2178933473232</title>
<path fill="none" stroke="black" d="M1502.76,-215.697C1502.76,-204.846 1502.76,-190.917 1502.76,-180.104"/>
</g>
<!-- 2178933470640 -->
<g id="node58" class="node"><title>2178933470640</title>
<ellipse fill="none" stroke="black" cx="1721.76" cy="-162" rx="27" ry="18"/>
<text text-anchor="middle" x="1721.76" y="-158.5" font-family="Times New Roman,serif" font-size="15.00">seq</text>
</g>
<!-- 2179146806656&#45;&#45;2178933470640 -->
<g id="edge52" class="edge"><title>2179146806656&#45;&#45;2178933470640</title>
<path fill="none" stroke="black" d="M1526.61,-225.376C1568.74,-211.91 1655.83,-184.073 1697.94,-170.615"/>
</g>
<!-- 2178933473088 -->
<g id="node59" class="node"><title>2178933473088</title>
<ellipse fill="none" stroke="black" cx="1527.76" cy="-90" rx="148.91" ry="18"/>
<text text-anchor="middle" x="1527.76" y="-86.5" font-family="Times New Roman,serif" font-size="15.00">Notify Result Appeal to Offender</text>
</g>
<!-- 2178933470640&#45;&#45;2178933473088 -->
<g id="edge45" class="edge"><title>2178933470640&#45;&#45;2178933473088</title>
<path fill="none" stroke="black" d="M1698.36,-152.556C1667.32,-141.357 1611.89,-121.356 1572.64,-107.195"/>
</g>
<!-- 2178933471552 -->
<g id="node60" class="node"><title>2178933471552</title>
<ellipse fill="none" stroke="black" cx="1721.76" cy="-90" rx="27" ry="18"/>
<text text-anchor="middle" x="1721.76" y="-86.5" font-family="Times New Roman,serif" font-size="15.00">xor</text>
</g>
<!-- 2178933470640&#45;&#45;2178933471552 -->
<g id="edge48" class="edge"><title>2178933470640&#45;&#45;2178933471552</title>
<path fill="none" stroke="black" d="M1721.76,-143.697C1721.76,-132.846 1721.76,-118.917 1721.76,-108.104"/>
</g>
<!-- 2178933469632 -->
<g id="node63" class="node"><title>2178933469632</title>
<ellipse fill="none" stroke="black" cx="1820.76" cy="-90" rx="27" ry="18"/>
<text text-anchor="middle" x="1820.76" y="-86.5" font-family="Times New Roman,serif" font-size="15.00">xor</text>
</g>
<!-- 2178933470640&#45;&#45;2178933469632 -->
<g id="edge51" class="edge"><title>2178933470640&#45;&#45;2178933469632</title>
<path fill="none" stroke="black" d="M1739.92,-148.161C1757.78,-135.531 1784.89,-116.36 1802.72,-103.758"/>
</g>
<!-- 2178933471216 -->
<g id="node61" class="node"><title>2178933471216</title>
<ellipse fill="black" stroke="black" cx="1622.76" cy="-18" rx="2.7" ry="2.7"/>
</g>
<!-- 2178933471552&#45;&#45;2178933471216 -->
<g id="edge46" class="edge"><title>2178933471552&#45;&#45;2178933471216</title>
<path fill="none" stroke="black" d="M1703.6,-76.1609C1678.15,-58.1628 1633.91,-26.8831 1624.54,-20.2559"/>
</g>
<!-- 2178933471888 -->
<g id="node62" class="node"><title>2178933471888</title>
<ellipse fill="none" stroke="black" cx="1721.76" cy="-18" rx="78.5434" ry="18"/>
<text text-anchor="middle" x="1721.76" y="-14.5" font-family="Times New Roman,serif" font-size="15.00">Appeal to Judge</text>
</g>
<!-- 2178933471552&#45;&#45;2178933471888 -->
<g id="edge47" class="edge"><title>2178933471552&#45;&#45;2178933471888</title>
<path fill="none" stroke="black" d="M1721.76,-71.6966C1721.76,-60.8463 1721.76,-46.9167 1721.76,-36.1043"/>
</g>
<!-- 2178933472416 -->
<g id="node64" class="node"><title>2178933472416</title>
<ellipse fill="black" stroke="black" cx="1820.76" cy="-18" rx="2.7" ry="2.7"/>
</g>
<!-- 2178933469632&#45;&#45;2178933472416 -->
<g id="edge49" class="edge"><title>2178933469632&#45;&#45;2178933472416</title>
<path fill="none" stroke="black" d="M1820.76,-71.6966C1820.76,-53.8826 1820.76,-27.7686 1820.76,-20.7764"/>
</g>
<!-- 2178933472992 -->
<g id="node65" class="node"><title>2178933472992</title>
<ellipse fill="none" stroke="black" cx="1962.76" cy="-18" rx="120.819" ry="18"/>
<text text-anchor="middle" x="1962.76" y="-14.5" font-family="Times New Roman,serif" font-size="15.00">Send for Credit Collection</text>
</g>
<!-- 2178933469632&#45;&#45;2178933472992 -->
<g id="edge50" class="edge"><title>2178933469632&#45;&#45;2178933472992</title>
<path fill="none" stroke="black" d="M1842.02,-78.5203C1865.15,-67.1164 1902.44,-48.7333 1929.47,-35.4115"/>
</g>
<!-- 2178933472464 -->
<g id="node70" class="node"><title>2178933472464</title>
<ellipse fill="black" stroke="black" cx="1029.76" cy="-954" rx="2.7" ry="2.7"/>
</g>
<!-- 2179101759184&#45;&#45;2178933472464 -->
<g id="edge68" class="edge"><title>2179101759184&#45;&#45;2178933472464</title>
<path fill="none" stroke="black" d="M1086.05,-1010.5C1067.85,-992.555 1038.4,-963.522 1031.33,-956.544"/>
</g>
<!-- 2179146808384 -->
<g id="node71" class="node"><title>2179146808384</title>
<ellipse fill="none" stroke="black" cx="1171.76" cy="-954" rx="120.819" ry="18"/>
<text text-anchor="middle" x="1171.76" y="-950.5" font-family="Times New Roman,serif" font-size="15.00">Send for Credit Collection</text>
</g>
<!-- 2179101759184&#45;&#45;2179146808384 -->
<g id="edge69" class="edge"><title>2179101759184&#45;&#45;2179146808384</title>
<path fill="none" stroke="black" d="M1115.47,-1010.5C1126.84,-999.283 1142.61,-983.737 1154.57,-971.951"/>
</g>
<!-- 2179146807184 -->
<g id="node72" class="node"><title>2179146807184</title>
<ellipse fill="none" stroke="black" cx="1337.76" cy="-954" rx="27" ry="18"/>
<text text-anchor="middle" x="1337.76" y="-950.5" font-family="Times New Roman,serif" font-size="15.00">seq</text>
</g>
<!-- 2179101759184&#45;&#45;2179146807184 -->
<g id="edge74" class="edge"><title>2179101759184&#45;&#45;2179146807184</title>
<path fill="none" stroke="black" d="M1125.23,-1017.77C1170.76,-1004.32 1267.99,-975.607 1313.42,-962.188"/>
</g>
<!-- 2178933469776 -->
<g id="node73" class="node"><title>2178933469776</title>
<ellipse fill="none" stroke="black" cx="1291.76" cy="-882" rx="45.7249" ry="18"/>
<text text-anchor="middle" x="1291.76" y="-878.5" font-family="Times New Roman,serif" font-size="15.00">Payment</text>
</g>
<!-- 2179146807184&#45;&#45;2178933469776 -->
<g id="edge70" class="edge"><title>2179146807184&#45;&#45;2178933469776</title>
<path fill="none" stroke="black" d="M1327.32,-937.116C1320.01,-925.983 1310.24,-911.127 1302.8,-899.797"/>
</g>
<!-- 2178933472560 -->
<g id="node74" class="node"><title>2178933472560</title>
<ellipse fill="none" stroke="black" cx="1382.76" cy="-882" rx="27" ry="18"/>
<text text-anchor="middle" x="1382.76" y="-878.5" font-family="Times New Roman,serif" font-size="15.00">xor</text>
</g>
<!-- 2179146807184&#45;&#45;2178933472560 -->
<g id="edge73" class="edge"><title>2179146807184&#45;&#45;2178933472560</title>
<path fill="none" stroke="black" d="M1347.97,-937.116C1355.34,-925.66 1365.23,-910.263 1372.59,-898.821"/>
</g>
<!-- 2178933471744 -->
<g id="node75" class="node"><title>2178933471744</title>
<ellipse fill="black" stroke="black" cx="1312.76" cy="-810" rx="2.7" ry="2.7"/>
</g>
<!-- 2178933472560&#45;&#45;2178933471744 -->
<g id="edge71" class="edge"><title>2178933472560&#45;&#45;2178933471744</title>
<path fill="none" stroke="black" d="M1368.26,-866.496C1350.32,-848.555 1321.28,-819.522 1314.3,-812.544"/>
</g>
<!-- 2178933470448 -->
<g id="node76" class="node"><title>2178933470448</title>
<ellipse fill="none" stroke="black" cx="1453.76" cy="-810" rx="120.43" ry="18"/>
<text text-anchor="middle" x="1453.76" y="-806.5" font-family="Times New Roman,serif" font-size="15.00">Send Appeal to Prefecture</text>
</g>
<!-- 2178933472560&#45;&#45;2178933470448 -->
<g id="edge72" class="edge"><title>2178933472560&#45;&#45;2178933470448</title>
<path fill="none" stroke="black" d="M1397.47,-866.496C1408.84,-855.283 1424.61,-839.737 1436.57,-827.951"/>
</g>
</g>
</svg>
