<?xml version="1.0" encoding="UTF-8" standalone="no"?>
<!DOCTYPE svg PUBLIC "-//W3C//DTD SVG 1.1//EN"
 "http://www.w3.org/Graphics/SVG/1.1/DTD/svg11.dtd">
<!-- Generated by graphviz version 2.38.0 (20140413.2041)
 -->
<!-- Title: pt Pages: 1 -->
<svg width="1651pt" height="548pt"
 viewBox="0.00 0.00 1651.46 548.00" xmlns="http://www.w3.org/2000/svg" xmlns:xlink="http://www.w3.org/1999/xlink">
<g id="graph0" class="graph" transform="scale(1 1) rotate(0) translate(4 544)">
<title>pt</title>
<!-- 2179104430016 -->
<g id="node1" class="node"><title>2179104430016</title>
<ellipse fill="none" stroke="black" cx="306.76" cy="-522" rx="27" ry="18"/>
<text text-anchor="middle" x="306.76" y="-518.5" font-family="Times New Roman,serif" font-size="15.00">seq</text>
</g>
<!-- 2179104430832 -->
<g id="node2" class="node"><title>2179104430832</title>
<ellipse fill="none" stroke="black" cx="59.7599" cy="-450" rx="59.5207" ry="18"/>
<text text-anchor="middle" x="59.7599" y="-446.5" font-family="Times New Roman,serif" font-size="15.00">Create Fine</text>
</g>
<!-- 2179104430016&#45;&#45;2179104430832 -->
<g id="edge1" class="edge"><title>2179104430016&#45;&#45;2179104430832</title>
<path fill="none" stroke="black" d="M282.174,-514.032C240.076,-502.102 153.726,-477.63 101.874,-462.935"/>
</g>
<!-- 2179104429248 -->
<g id="node3" class="node"><title>2179104429248</title>
<ellipse fill="none" stroke="black" cx="164.76" cy="-450" rx="27" ry="18"/>
<text text-anchor="middle" x="164.76" y="-446.5" font-family="Times New Roman,serif" font-size="15.00">xor</text>
</g>
<!-- 2179104430016&#45;&#45;2179104429248 -->
<g id="edge4" class="edge"><title>2179104430016&#45;&#45;2179104429248</title>
<path fill="none" stroke="black" d="M285.501,-510.52C258.731,-497.324 213.002,-474.781 186.164,-461.551"/>
</g>
<!-- 2179104429920 -->
<g id="node6" class="node"><title>2179104429920</title>
<ellipse fill="none" stroke="black" cx="270.76" cy="-450" rx="27" ry="18"/>
<text text-anchor="middle" x="270.76" y="-446.5" font-family="Times New Roman,serif" font-size="15.00">xor</text>
</g>
<!-- 2179104430016&#45;&#45;2179104429920 -->
<g id="edge7" class="edge"><title>2179104430016&#45;&#45;2179104429920</title>
<path fill="none" stroke="black" d="M298.41,-504.765C292.594,-493.456 284.87,-478.437 279.064,-467.147"/>
</g>
<!-- 2179104430592 -->
<g id="node9" class="node"><title>2179104430592</title>
<ellipse fill="none" stroke="black" cx="342.76" cy="-450" rx="27" ry="18"/>
<text text-anchor="middle" x="342.76" y="-446.5" font-family="Times New Roman,serif" font-size="15.00">xor</text>
</g>
<!-- 2179104430016&#45;&#45;2179104430592 -->
<g id="edge10" class="edge"><title>2179104430016&#45;&#45;2179104430592</title>
<path fill="none" stroke="black" d="M315.109,-504.765C320.925,-493.456 328.65,-478.437 334.456,-467.147"/>
</g>
<!-- 2179104429680 -->
<g id="node12" class="node"><title>2179104429680</title>
<ellipse fill="none" stroke="black" cx="487.76" cy="-450" rx="27" ry="18"/>
<text text-anchor="middle" x="487.76" y="-446.5" font-family="Times New Roman,serif" font-size="15.00">xor</text>
</g>
<!-- 2179104430016&#45;&#45;2179104429680 -->
<g id="edge34" class="edge"><title>2179104430016&#45;&#45;2179104429680</title>
<path fill="none" stroke="black" d="M329.684,-512.134C364.5,-498.67 430.317,-473.215 465.022,-459.794"/>
</g>
<!-- 2179104430976 -->
<g id="node36" class="node"><title>2179104430976</title>
<ellipse fill="none" stroke="black" cx="583.76" cy="-450" rx="27" ry="18"/>
<text text-anchor="middle" x="583.76" y="-446.5" font-family="Times New Roman,serif" font-size="15.00">xor</text>
</g>
<!-- 2179104430016&#45;&#45;2179104430976 -->
<g id="edge37" class="edge"><title>2179104430016&#45;&#45;2179104430976</title>
<path fill="none" stroke="black" d="M331.83,-514.665C384.568,-501.337 506.433,-470.541 558.946,-457.271"/>
</g>
<!-- 2179104429056 -->
<g id="node4" class="node"><title>2179104429056</title>
<ellipse fill="black" stroke="black" cx="57.7599" cy="-378" rx="2.7" ry="2.7"/>
</g>
<!-- 2179104429248&#45;&#45;2179104429056 -->
<g id="edge2" class="edge"><title>2179104429248&#45;&#45;2179104429056</title>
<path fill="none" stroke="black" d="M146.122,-436.807C118.579,-418.788 69.2024,-386.486 59.4568,-380.11"/>
</g>
<!-- 2179104431312 -->
<g id="node5" class="node"><title>2179104431312</title>
<ellipse fill="none" stroke="black" cx="131.76" cy="-378" rx="52.6228" ry="18"/>
<text text-anchor="middle" x="131.76" y="-374.5" font-family="Times New Roman,serif" font-size="15.00">Send Fine</text>
</g>
<!-- 2179104429248&#45;&#45;2179104431312 -->
<g id="edge3" class="edge"><title>2179104429248&#45;&#45;2179104431312</title>
<path fill="none" stroke="black" d="M156.939,-432.411C151.755,-421.414 144.973,-407.027 139.754,-395.956"/>
</g>
<!-- 2179104428528 -->
<g id="node7" class="node"><title>2179104428528</title>
<ellipse fill="black" stroke="black" cx="205.76" cy="-378" rx="2.7" ry="2.7"/>
</g>
<!-- 2179104429920&#45;&#45;2179104428528 -->
<g id="edge5" class="edge"><title>2179104429920&#45;&#45;2179104428528</title>
<path fill="none" stroke="black" d="M256.975,-434.155C240.28,-416.175 213.59,-387.432 207.178,-380.527"/>
</g>
<!-- 2179104428240 -->
<g id="node8" class="node"><title>2179104428240</title>
<ellipse fill="none" stroke="black" cx="272.76" cy="-378" rx="45.7249" ry="18"/>
<text text-anchor="middle" x="272.76" y="-374.5" font-family="Times New Roman,serif" font-size="15.00">Payment</text>
</g>
<!-- 2179104429920&#45;&#45;2179104428240 -->
<g id="edge6" class="edge"><title>2179104429920&#45;&#45;2179104428240</title>
<path fill="none" stroke="black" d="M271.254,-431.697C271.564,-420.846 271.962,-406.917 272.271,-396.104"/>
</g>
<!-- 2179101543872 -->
<g id="node10" class="node"><title>2179101543872</title>
<ellipse fill="black" stroke="black" cx="339.76" cy="-378" rx="2.7" ry="2.7"/>
</g>
<!-- 2179104430592&#45;&#45;2179101543872 -->
<g id="edge8" class="edge"><title>2179104430592&#45;&#45;2179101543872</title>
<path fill="none" stroke="black" d="M342.018,-431.697C341.255,-413.883 340.136,-387.769 339.836,-380.776"/>
</g>
<!-- 2179104428672 -->
<g id="node11" class="node"><title>2179104428672</title>
<ellipse fill="none" stroke="black" cx="413.76" cy="-378" rx="52.6228" ry="18"/>
<text text-anchor="middle" x="413.76" y="-374.5" font-family="Times New Roman,serif" font-size="15.00">Send Fine</text>
</g>
<!-- 2179104430592&#45;&#45;2179104428672 -->
<g id="edge9" class="edge"><title>2179104430592&#45;&#45;2179104428672</title>
<path fill="none" stroke="black" d="M357.471,-434.496C369.088,-423.043 385.29,-407.069 397.33,-395.198"/>
</g>
<!-- 2179101542480 -->
<g id="node13" class="node"><title>2179101542480</title>
<ellipse fill="black" stroke="black" cx="487.76" cy="-378" rx="2.7" ry="2.7"/>
</g>
<!-- 2179104429680&#45;&#45;2179101542480 -->
<g id="edge11" class="edge"><title>2179104429680&#45;&#45;2179101542480</title>
<path fill="none" stroke="black" d="M487.76,-431.697C487.76,-413.883 487.76,-387.769 487.76,-380.776"/>
</g>
<!-- 2179101544016 -->
<g id="node14" class="node"><title>2179101544016</title>
<ellipse fill="none" stroke="black" cx="535.76" cy="-378" rx="27" ry="18"/>
<text text-anchor="middle" x="535.76" y="-374.5" font-family="Times New Roman,serif" font-size="15.00">seq</text>
</g>
<!-- 2179104429680&#45;&#45;2179101544016 -->
<g id="edge33" class="edge"><title>2179104429680&#45;&#45;2179101544016</title>
<path fill="none" stroke="black" d="M498.652,-433.116C506.507,-421.66 517.065,-406.263 524.911,-394.821"/>
</g>
<!-- 2179101543056 -->
<g id="node15" class="node"><title>2179101543056</title>
<ellipse fill="none" stroke="black" cx="382.76" cy="-306" rx="107.914" ry="18"/>
<text text-anchor="middle" x="382.76" y="-302.5" font-family="Times New Roman,serif" font-size="15.00">Insert Fine Notification</text>
</g>
<!-- 2179101544016&#45;&#45;2179101543056 -->
<g id="edge12" class="edge"><title>2179101544016&#45;&#45;2179101543056</title>
<path fill="none" stroke="black" d="M514.163,-367.119C489.122,-355.662 447.492,-336.616 417.801,-323.032"/>
</g>
<!-- 2179101541088 -->
<g id="node16" class="node"><title>2179101541088</title>
<ellipse fill="none" stroke="black" cx="535.76" cy="-306" rx="27" ry="18"/>
<text text-anchor="middle" x="535.76" y="-302.5" font-family="Times New Roman,serif" font-size="15.00">xor</text>
</g>
<!-- 2179101544016&#45;&#45;2179101541088 -->
<g id="edge15" class="edge"><title>2179101544016&#45;&#45;2179101541088</title>
<path fill="none" stroke="black" d="M535.76,-359.697C535.76,-348.846 535.76,-334.917 535.76,-324.104"/>
</g>
<!-- 2179101542000 -->
<g id="node19" class="node"><title>2179101542000</title>
<ellipse fill="none" stroke="black" cx="659.76" cy="-306" rx="27" ry="18"/>
<text text-anchor="middle" x="659.76" y="-302.5" font-family="Times New Roman,serif" font-size="15.00">and</text>
</g>
<!-- 2179101544016&#45;&#45;2179101542000 -->
<g id="edge32" class="edge"><title>2179101544016&#45;&#45;2179101542000</title>
<path fill="none" stroke="black" d="M555.683,-365.753C578.822,-352.691 616.768,-331.27 639.887,-318.219"/>
</g>
<!-- 2179101541568 -->
<g id="node17" class="node"><title>2179101541568</title>
<ellipse fill="black" stroke="black" cx="436.76" cy="-234" rx="2.7" ry="2.7"/>
</g>
<!-- 2179101541088&#45;&#45;2179101541568 -->
<g id="edge13" class="edge"><title>2179101541088&#45;&#45;2179101541568</title>
<path fill="none" stroke="black" d="M517.602,-292.161C492.147,-274.163 447.909,-242.883 438.536,-236.256"/>
</g>
<!-- 2179101544112 -->
<g id="node18" class="node"><title>2179101544112</title>
<ellipse fill="none" stroke="black" cx="535.76" cy="-234" rx="78.5434" ry="18"/>
<text text-anchor="middle" x="535.76" y="-230.5" font-family="Times New Roman,serif" font-size="15.00">Appeal to Judge</text>
</g>
<!-- 2179101541088&#45;&#45;2179101544112 -->
<g id="edge14" class="edge"><title>2179101541088&#45;&#45;2179101544112</title>
<path fill="none" stroke="black" d="M535.76,-287.697C535.76,-276.846 535.76,-262.917 535.76,-252.104"/>
</g>
<!-- 2179101541664 -->
<g id="node20" class="node"><title>2179101541664</title>
<ellipse fill="none" stroke="black" cx="659.76" cy="-234" rx="27" ry="18"/>
<text text-anchor="middle" x="659.76" y="-230.5" font-family="Times New Roman,serif" font-size="15.00">and</text>
</g>
<!-- 2179101542000&#45;&#45;2179101541664 -->
<g id="edge20" class="edge"><title>2179101542000&#45;&#45;2179101541664</title>
<path fill="none" stroke="black" d="M659.76,-287.697C659.76,-276.846 659.76,-262.917 659.76,-252.104"/>
</g>
<!-- 2179101540560 -->
<g id="node25" class="node"><title>2179101540560</title>
<ellipse fill="none" stroke="black" cx="859.76" cy="-234" rx="27" ry="18"/>
<text text-anchor="middle" x="859.76" y="-230.5" font-family="Times New Roman,serif" font-size="15.00">xor</text>
</g>
<!-- 2179101542000&#45;&#45;2179101540560 -->
<g id="edge31" class="edge"><title>2179101542000&#45;&#45;2179101540560</title>
<path fill="none" stroke="black" d="M683.094,-296.833C721.529,-283.381 797.726,-256.712 836.265,-243.223"/>
</g>
<!-- 2179101542912 -->
<g id="node21" class="node"><title>2179101542912</title>
<ellipse fill="none" stroke="black" cx="475.76" cy="-162" rx="46.6143" ry="18"/>
<text text-anchor="middle" x="475.76" y="-158.5" font-family="Times New Roman,serif" font-size="15.00">xor loop</text>
</g>
<!-- 2179101541664&#45;&#45;2179101542912 -->
<g id="edge18" class="edge"><title>2179101541664&#45;&#45;2179101542912</title>
<path fill="none" stroke="black" d="M636.828,-224.276C604.266,-211.888 544.502,-189.152 507.641,-175.129"/>
</g>
<!-- 2179101541424 -->
<g id="node24" class="node"><title>2179101541424</title>
<ellipse fill="none" stroke="black" cx="659.76" cy="-162" rx="61.6894" ry="18"/>
<text text-anchor="middle" x="659.76" y="-158.5" font-family="Times New Roman,serif" font-size="15.00">Add penalty</text>
</g>
<!-- 2179101541664&#45;&#45;2179101541424 -->
<g id="edge19" class="edge"><title>2179101541664&#45;&#45;2179101541424</title>
<path fill="none" stroke="black" d="M659.76,-215.697C659.76,-204.846 659.76,-190.917 659.76,-180.104"/>
</g>
<!-- 2179101543392 -->
<g id="node22" class="node"><title>2179101543392</title>
<ellipse fill="black" stroke="black" cx="408.76" cy="-90" rx="2.7" ry="2.7"/>
</g>
<!-- 2179101542912&#45;&#45;2179101543392 -->
<g id="edge16" class="edge"><title>2179101542912&#45;&#45;2179101543392</title>
<path fill="none" stroke="black" d="M460.22,-144.765C442.902,-126.671 416.491,-99.0776 410.159,-92.462"/>
</g>
<!-- 2179101543920 -->
<g id="node23" class="node"><title>2179101543920</title>
<ellipse fill="none" stroke="black" cx="475.76" cy="-90" rx="45.7249" ry="18"/>
<text text-anchor="middle" x="475.76" y="-86.5" font-family="Times New Roman,serif" font-size="15.00">Payment</text>
</g>
<!-- 2179101542912&#45;&#45;2179101543920 -->
<g id="edge17" class="edge"><title>2179101542912&#45;&#45;2179101543920</title>
<path fill="none" stroke="black" d="M475.76,-143.697C475.76,-132.846 475.76,-118.917 475.76,-108.104"/>
</g>
<!-- 2179101541328 -->
<g id="node26" class="node"><title>2179101541328</title>
<ellipse fill="black" stroke="black" cx="859.76" cy="-162" rx="2.7" ry="2.7"/>
</g>
<!-- 2179101540560&#45;&#45;2179101541328 -->
<g id="edge21" class="edge"><title>2179101540560&#45;&#45;2179101541328</title>
<path fill="none" stroke="black" d="M859.76,-215.697C859.76,-197.883 859.76,-171.769 859.76,-164.776"/>
</g>
<!-- 2179101543488 -->
<g id="node27" class="node"><title>2179101543488</title>
<ellipse fill="none" stroke="black" cx="966.76" cy="-162" rx="27" ry="18"/>
<text text-anchor="middle" x="966.76" y="-158.5" font-family="Times New Roman,serif" font-size="15.00">seq</text>
</g>
<!-- 2179101540560&#45;&#45;2179101543488 -->
<g id="edge30" class="edge"><title>2179101540560&#45;&#45;2179101543488</title>
<path fill="none" stroke="black" d="M878.398,-220.807C897.917,-208.037 928.403,-188.093 947.976,-175.288"/>
</g>
<!-- 2179101543968 -->
<g id="node28" class="node"><title>2179101543968</title>
<ellipse fill="none" stroke="black" cx="683.76" cy="-90" rx="144.571" ry="18"/>
<text text-anchor="middle" x="683.76" y="-86.5" font-family="Times New Roman,serif" font-size="15.00">Insert Date Appeal to Prefecture</text>
</g>
<!-- 2179101543488&#45;&#45;2179101543968 -->
<g id="edge22" class="edge"><title>2179101543488&#45;&#45;2179101543968</title>
<path fill="none" stroke="black" d="M941.646,-154.788C898.019,-143.997 807.035,-121.492 745.662,-106.311"/>
</g>
<!-- 2179101544304 -->
<g id="node29" class="node"><title>2179101544304</title>
<ellipse fill="none" stroke="black" cx="966.76" cy="-90" rx="120.43" ry="18"/>
<text text-anchor="middle" x="966.76" y="-86.5" font-family="Times New Roman,serif" font-size="15.00">Send Appeal to Prefecture</text>
</g>
<!-- 2179101543488&#45;&#45;2179101544304 -->
<g id="edge23" class="edge"><title>2179101543488&#45;&#45;2179101544304</title>
<path fill="none" stroke="black" d="M966.76,-143.697C966.76,-132.846 966.76,-118.917 966.76,-108.104"/>
</g>
<!-- 2179101543680 -->
<g id="node30" class="node"><title>2179101543680</title>
<ellipse fill="none" stroke="black" cx="1131.76" cy="-90" rx="27" ry="18"/>
<text text-anchor="middle" x="1131.76" y="-86.5" font-family="Times New Roman,serif" font-size="15.00">xor</text>
</g>
<!-- 2179101543488&#45;&#45;2179101543680 -->
<g id="edge26" class="edge"><title>2179101543488&#45;&#45;2179101543680</title>
<path fill="none" stroke="black" d="M989.013,-151.559C1020.59,-138.162 1078.07,-113.779 1109.6,-100.402"/>
</g>
<!-- 2179101541952 -->
<g id="node33" class="node"><title>2179101541952</title>
<ellipse fill="none" stroke="black" cx="1325.76" cy="-90" rx="27" ry="18"/>
<text text-anchor="middle" x="1325.76" y="-86.5" font-family="Times New Roman,serif" font-size="15.00">xor</text>
</g>
<!-- 2179101543488&#45;&#45;2179101541952 -->
<g id="edge29" class="edge"><title>2179101543488&#45;&#45;2179101541952</title>
<path fill="none" stroke="black" d="M992.29,-156.022C1058.29,-143.153 1234,-108.892 1300.12,-95.9996"/>
</g>
<!-- 2179101541808 -->
<g id="node31" class="node"><title>2179101541808</title>
<ellipse fill="black" stroke="black" cx="937.76" cy="-18" rx="2.7" ry="2.7"/>
</g>
<!-- 2179101543680&#45;&#45;2179101541808 -->
<g id="edge24" class="edge"><title>2179101543680&#45;&#45;2179101541808</title>
<path fill="none" stroke="black" d="M1108.36,-80.5564C1060.79,-63.393 955.942,-25.5607 939.85,-19.7542"/>
</g>
<!-- 2179101543296 -->
<g id="node32" class="node"><title>2179101543296</title>
<ellipse fill="none" stroke="black" cx="1131.76" cy="-18" rx="173.941" ry="18"/>
<text text-anchor="middle" x="1131.76" y="-14.5" font-family="Times New Roman,serif" font-size="15.00">Receive Result Appeal from Prefecture</text>
</g>
<!-- 2179101543680&#45;&#45;2179101543296 -->
<g id="edge25" class="edge"><title>2179101543680&#45;&#45;2179101543296</title>
<path fill="none" stroke="black" d="M1131.76,-71.6966C1131.76,-60.8463 1131.76,-46.9167 1131.76,-36.1043"/>
</g>
<!-- 2179101542624 -->
<g id="node34" class="node"><title>2179101542624</title>
<ellipse fill="black" stroke="black" cx="1325.76" cy="-18" rx="2.7" ry="2.7"/>
</g>
<!-- 2179101541952&#45;&#45;2179101542624 -->
<g id="edge27" class="edge"><title>2179101541952&#45;&#45;2179101542624</title>
<path fill="none" stroke="black" d="M1325.76,-71.6966C1325.76,-53.8826 1325.76,-27.7686 1325.76,-20.7764"/>
</g>
<!-- 2179101542720 -->
<g id="node35" class="node"><title>2179101542720</title>
<ellipse fill="none" stroke="black" cx="1494.76" cy="-18" rx="148.91" ry="18"/>
<text text-anchor="middle" x="1494.76" y="-14.5" font-family="Times New Roman,serif" font-size="15.00">Notify Result Appeal to Offender</text>
</g>
<!-- 2179101541952&#45;&#45;2179101542720 -->
<g id="edge28" class="edge"><title>2179101541952&#45;&#45;2179101542720</title>
<path fill="none" stroke="black" d="M1348.2,-79.7045C1375.41,-68.4359 1421.74,-49.2446 1455.03,-35.4544"/>
</g>
<!-- 2179101543584 -->
<g id="node37" class="node"><title>2179101543584</title>
<ellipse fill="black" stroke="black" cx="583.76" cy="-378" rx="2.7" ry="2.7"/>
</g>
<!-- 2179104430976&#45;&#45;2179101543584 -->
<g id="edge35" class="edge"><title>2179104430976&#45;&#45;2179101543584</title>
<path fill="none" stroke="black" d="M583.76,-431.697C583.76,-413.883 583.76,-387.769 583.76,-380.776"/>
</g>
<!-- 2179101543344 -->
<g id="node38" class="node"><title>2179101543344</title>
<ellipse fill="none" stroke="black" cx="725.76" cy="-378" rx="120.819" ry="18"/>
<text text-anchor="middle" x="725.76" y="-374.5" font-family="Times New Roman,serif" font-size="15.00">Send for Credit Collection</text>
</g>
<!-- 2179104430976&#45;&#45;2179101543344 -->
<g id="edge36" class="edge"><title>2179104430976&#45;&#45;2179101543344</title>
<path fill="none" stroke="black" d="M605.019,-438.52C628.152,-427.116 665.444,-408.733 692.468,-395.412"/>
</g>
</g>
</svg>
