<?xml version="1.0" encoding="UTF-8" standalone="no"?>
<!DOCTYPE svg PUBLIC "-//W3C//DTD SVG 1.1//EN"
 "http://www.w3.org/Graphics/SVG/1.1/DTD/svg11.dtd">
<!-- Generated by graphviz version 2.38.0 (20140413.2041)
 -->
<!-- Title: pt Pages: 1 -->
<svg width="862pt" height="404pt"
 viewBox="0.00 0.00 862.47 404.00" xmlns="http://www.w3.org/2000/svg" xmlns:xlink="http://www.w3.org/1999/xlink">
<g id="graph0" class="graph" transform="scale(1 1) rotate(0) translate(4 400)">
<title>pt</title>
<!-- 2178929769056 -->
<g id="node1" class="node"><title>2178929769056</title>
<ellipse fill="none" stroke="black" cx="191.557" cy="-378" rx="27" ry="18"/>
<text text-anchor="middle" x="191.557" y="-374.5" font-family="Times New Roman,serif" font-size="15.00">and</text>
</g>
<!-- 2178929508512 -->
<g id="node2" class="node"><title>2178929508512</title>
<ellipse fill="none" stroke="black" cx="139.557" cy="-306" rx="27" ry="18"/>
<text text-anchor="middle" x="139.557" y="-302.5" font-family="Times New Roman,serif" font-size="15.00">xor</text>
</g>
<!-- 2178929769056&#45;&#45;2178929508512 -->
<g id="edge7" class="edge"><title>2178929769056&#45;&#45;2178929508512</title>
<path fill="none" stroke="black" d="M180.017,-361.465C171.399,-349.865 159.675,-334.082 151.065,-322.492"/>
</g>
<!-- 2178929770112 -->
<g id="node9" class="node"><title>2178929770112</title>
<ellipse fill="none" stroke="black" cx="244.557" cy="-306" rx="27" ry="18"/>
<text text-anchor="middle" x="244.557" y="-302.5" font-family="Times New Roman,serif" font-size="15.00">seq</text>
</g>
<!-- 2178929769056&#45;&#45;2178929770112 -->
<g id="edge22" class="edge"><title>2178929769056&#45;&#45;2178929770112</title>
<path fill="none" stroke="black" d="M203.32,-361.465C212.103,-349.865 224.052,-334.082 232.828,-322.492"/>
</g>
<!-- 2178929511536 -->
<g id="node3" class="node"><title>2178929511536</title>
<ellipse fill="black" stroke="black" cx="91.5571" cy="-234" rx="2.7" ry="2.7"/>
</g>
<!-- 2178929508512&#45;&#45;2178929511536 -->
<g id="edge1" class="edge"><title>2178929508512&#45;&#45;2178929511536</title>
<path fill="none" stroke="black" d="M128.665,-289.116C116.495,-271.367 97.837,-244.158 92.8302,-236.857"/>
</g>
<!-- 2178929509232 -->
<g id="node4" class="node"><title>2178929509232</title>
<ellipse fill="none" stroke="black" cx="139.557" cy="-234" rx="27" ry="18"/>
<text text-anchor="middle" x="139.557" y="-230.5" font-family="Times New Roman,serif" font-size="15.00">and</text>
</g>
<!-- 2178929508512&#45;&#45;2178929509232 -->
<g id="edge6" class="edge"><title>2178929508512&#45;&#45;2178929509232</title>
<path fill="none" stroke="black" d="M139.557,-287.697C139.557,-276.846 139.557,-262.917 139.557,-252.104"/>
</g>
<!-- 2178929509616 -->
<g id="node5" class="node"><title>2178929509616</title>
<ellipse fill="none" stroke="black" cx="46.5571" cy="-162" rx="46.6143" ry="18"/>
<text text-anchor="middle" x="46.5571" y="-158.5" font-family="Times New Roman,serif" font-size="15.00">xor loop</text>
</g>
<!-- 2178929509232&#45;&#45;2178929509616 -->
<g id="edge4" class="edge"><title>2178929509232&#45;&#45;2178929509616</title>
<path fill="none" stroke="black" d="M122.065,-219.834C106.385,-208.032 83.3783,-190.715 66.8855,-178.301"/>
</g>
<!-- 2178929511920 -->
<g id="node8" class="node"><title>2178929511920</title>
<ellipse fill="none" stroke="black" cx="172.557" cy="-162" rx="61.6894" ry="18"/>
<text text-anchor="middle" x="172.557" y="-158.5" font-family="Times New Roman,serif" font-size="15.00">Add penalty</text>
</g>
<!-- 2178929509232&#45;&#45;2178929511920 -->
<g id="edge5" class="edge"><title>2178929509232&#45;&#45;2178929511920</title>
<path fill="none" stroke="black" d="M147.378,-216.411C152.562,-205.414 159.344,-191.027 164.563,-179.956"/>
</g>
<!-- 2178929511248 -->
<g id="node6" class="node"><title>2178929511248</title>
<ellipse fill="black" stroke="black" cx="13.5571" cy="-90" rx="2.7" ry="2.7"/>
</g>
<!-- 2178929509616&#45;&#45;2178929511248 -->
<g id="edge2" class="edge"><title>2178929509616&#45;&#45;2178929511248</title>
<path fill="none" stroke="black" d="M38.5687,-144.055C30.1757,-126.252 17.7365,-99.8653 14.4039,-92.7963"/>
</g>
<!-- 2178929509760 -->
<g id="node7" class="node"><title>2178929509760</title>
<ellipse fill="none" stroke="black" cx="80.5571" cy="-90" rx="45.7249" ry="18"/>
<text text-anchor="middle" x="80.5571" y="-86.5" font-family="Times New Roman,serif" font-size="15.00">Payment</text>
</g>
<!-- 2178929509616&#45;&#45;2178929509760 -->
<g id="edge3" class="edge"><title>2178929509616&#45;&#45;2178929509760</title>
<path fill="none" stroke="black" d="M54.7876,-144.055C60.1332,-133.049 67.072,-118.764 72.4025,-107.789"/>
</g>
<!-- 2178929769824 -->
<g id="node10" class="node"><title>2178929769824</title>
<ellipse fill="none" stroke="black" cx="244.557" cy="-234" rx="59.5207" ry="18"/>
<text text-anchor="middle" x="244.557" y="-230.5" font-family="Times New Roman,serif" font-size="15.00">Create Fine</text>
</g>
<!-- 2178929770112&#45;&#45;2178929769824 -->
<g id="edge8" class="edge"><title>2178929770112&#45;&#45;2178929769824</title>
<path fill="none" stroke="black" d="M244.557,-287.697C244.557,-276.846 244.557,-262.917 244.557,-252.104"/>
</g>
<!-- 2178929769488 -->
<g id="node11" class="node"><title>2178929769488</title>
<ellipse fill="none" stroke="black" cx="349.557" cy="-234" rx="27" ry="18"/>
<text text-anchor="middle" x="349.557" y="-230.5" font-family="Times New Roman,serif" font-size="15.00">xor</text>
</g>
<!-- 2178929770112&#45;&#45;2178929769488 -->
<g id="edge21" class="edge"><title>2178929770112&#45;&#45;2178929769488</title>
<path fill="none" stroke="black" d="M263.329,-292.485C282.441,-279.744 311.895,-260.108 330.948,-247.406"/>
</g>
<!-- 2178929768864 -->
<g id="node12" class="node"><title>2178929768864</title>
<ellipse fill="none" stroke="black" cx="316.557" cy="-162" rx="45.7249" ry="18"/>
<text text-anchor="middle" x="316.557" y="-158.5" font-family="Times New Roman,serif" font-size="15.00">Payment</text>
</g>
<!-- 2178929769488&#45;&#45;2178929768864 -->
<g id="edge9" class="edge"><title>2178929769488&#45;&#45;2178929768864</title>
<path fill="none" stroke="black" d="M341.737,-216.411C336.552,-205.414 329.77,-191.027 324.551,-179.956"/>
</g>
<!-- 2178929769200 -->
<g id="node13" class="node"><title>2178929769200</title>
<ellipse fill="none" stroke="black" cx="407.557" cy="-162" rx="27" ry="18"/>
<text text-anchor="middle" x="407.557" y="-158.5" font-family="Times New Roman,serif" font-size="15.00">seq</text>
</g>
<!-- 2178929769488&#45;&#45;2178929769200 -->
<g id="edge20" class="edge"><title>2178929769488&#45;&#45;2178929769200</title>
<path fill="none" stroke="black" d="M362.142,-217.811C371.871,-206.07 385.274,-189.893 394.997,-178.159"/>
</g>
<!-- 2178929640928 -->
<g id="node14" class="node"><title>2178929640928</title>
<ellipse fill="none" stroke="black" cx="227.557" cy="-90" rx="52.6228" ry="18"/>
<text text-anchor="middle" x="227.557" y="-86.5" font-family="Times New Roman,serif" font-size="15.00">Send Fine</text>
</g>
<!-- 2178929769200&#45;&#45;2178929640928 -->
<g id="edge10" class="edge"><title>2178929769200&#45;&#45;2178929640928</title>
<path fill="none" stroke="black" d="M384.76,-152.134C353.542,-139.994 297.261,-118.107 261.193,-104.081"/>
</g>
<!-- 2178931571680 -->
<g id="node15" class="node"><title>2178931571680</title>
<ellipse fill="none" stroke="black" cx="325.557" cy="-90" rx="27" ry="18"/>
<text text-anchor="middle" x="325.557" y="-86.5" font-family="Times New Roman,serif" font-size="15.00">xor</text>
</g>
<!-- 2178929769200&#45;&#45;2178931571680 -->
<g id="edge13" class="edge"><title>2178929769200&#45;&#45;2178931571680</title>
<path fill="none" stroke="black" d="M391.357,-147.17C376.887,-134.819 355.818,-116.832 341.445,-104.563"/>
</g>
<!-- 2178931572208 -->
<g id="node18" class="node"><title>2178931572208</title>
<ellipse fill="none" stroke="black" cx="425.557" cy="-90" rx="27" ry="18"/>
<text text-anchor="middle" x="425.557" y="-86.5" font-family="Times New Roman,serif" font-size="15.00">xor</text>
</g>
<!-- 2178929769200&#45;&#45;2178931572208 -->
<g id="edge16" class="edge"><title>2178929769200&#45;&#45;2178931572208</title>
<path fill="none" stroke="black" d="M411.914,-144.055C414.744,-133.049 418.418,-118.764 421.24,-107.789"/>
</g>
<!-- 2178929508560 -->
<g id="node21" class="node"><title>2178929508560</title>
<ellipse fill="none" stroke="black" cx="591.557" cy="-90" rx="27" ry="18"/>
<text text-anchor="middle" x="591.557" y="-86.5" font-family="Times New Roman,serif" font-size="15.00">xor</text>
</g>
<!-- 2178929769200&#45;&#45;2178929508560 -->
<g id="edge19" class="edge"><title>2178929769200&#45;&#45;2178929508560</title>
<path fill="none" stroke="black" d="M430.489,-152.276C465.844,-138.825 533.271,-113.174 568.626,-99.7237"/>
</g>
<!-- 2178929512064 -->
<g id="node16" class="node"><title>2178929512064</title>
<ellipse fill="black" stroke="black" cx="169.557" cy="-18" rx="2.7" ry="2.7"/>
</g>
<!-- 2178931571680&#45;&#45;2178929512064 -->
<g id="edge11" class="edge"><title>2178931571680&#45;&#45;2178929512064</title>
<path fill="none" stroke="black" d="M303.866,-79.2668C265.02,-61.8359 186.276,-26.502 171.853,-20.0301"/>
</g>
<!-- 2178929510864 -->
<g id="node17" class="node"><title>2178929510864</title>
<ellipse fill="none" stroke="black" cx="297.557" cy="-18" rx="107.914" ry="18"/>
<text text-anchor="middle" x="297.557" y="-14.5" font-family="Times New Roman,serif" font-size="15.00">Insert Fine Notification</text>
</g>
<!-- 2178931571680&#45;&#45;2178929510864 -->
<g id="edge12" class="edge"><title>2178931571680&#45;&#45;2178929510864</title>
<path fill="none" stroke="black" d="M318.922,-72.411C314.587,-61.5758 308.937,-47.4498 304.536,-36.4468"/>
</g>
<!-- 2178929511680 -->
<g id="node19" class="node"><title>2178929511680</title>
<ellipse fill="black" stroke="black" cx="425.557" cy="-18" rx="2.7" ry="2.7"/>
</g>
<!-- 2178931572208&#45;&#45;2178929511680 -->
<g id="edge14" class="edge"><title>2178931572208&#45;&#45;2178929511680</title>
<path fill="none" stroke="black" d="M425.557,-71.6966C425.557,-53.8826 425.557,-27.7686 425.557,-20.7764"/>
</g>
<!-- 2178929509376 -->
<g id="node20" class="node"><title>2178929509376</title>
<ellipse fill="none" stroke="black" cx="508.557" cy="-18" rx="61.6894" ry="18"/>
<text text-anchor="middle" x="508.557" y="-14.5" font-family="Times New Roman,serif" font-size="15.00">Add penalty</text>
</g>
<!-- 2178931572208&#45;&#45;2178929509376 -->
<g id="edge15" class="edge"><title>2178931572208&#45;&#45;2178929509376</title>
<path fill="none" stroke="black" d="M441.955,-75.1703C455.561,-63.6952 474.934,-47.3569 489.28,-35.2574"/>
</g>
<!-- 2178929508416 -->
<g id="node22" class="node"><title>2178929508416</title>
<ellipse fill="black" stroke="black" cx="591.557" cy="-18" rx="2.7" ry="2.7"/>
</g>
<!-- 2178929508560&#45;&#45;2178929508416 -->
<g id="edge17" class="edge"><title>2178929508560&#45;&#45;2178929508416</title>
<path fill="none" stroke="black" d="M591.557,-71.6966C591.557,-53.8826 591.557,-27.7686 591.557,-20.7764"/>
</g>
<!-- 2178929509328 -->
<g id="node23" class="node"><title>2178929509328</title>
<ellipse fill="none" stroke="black" cx="733.557" cy="-18" rx="120.819" ry="18"/>
<text text-anchor="middle" x="733.557" y="-14.5" font-family="Times New Roman,serif" font-size="15.00">Send for Credit Collection</text>
</g>
<!-- 2178929508560&#45;&#45;2178929509328 -->
<g id="edge18" class="edge"><title>2178929508560&#45;&#45;2178929509328</title>
<path fill="none" stroke="black" d="M612.816,-78.5203C635.949,-67.1164 673.241,-48.7333 700.265,-35.4115"/>
</g>
</g>
</svg>
