<?xml version="1.0" encoding="UTF-8" standalone="no"?>
<!DOCTYPE svg PUBLIC "-//W3C//DTD SVG 1.1//EN"
 "http://www.w3.org/Graphics/SVG/1.1/DTD/svg11.dtd">
<!-- Generated by graphviz version 2.38.0 (20140413.2041)
 -->
<!-- Title: pt Pages: 1 -->
<svg width="2126pt" height="548pt"
 viewBox="0.00 0.00 2125.52 548.00" xmlns="http://www.w3.org/2000/svg" xmlns:xlink="http://www.w3.org/1999/xlink">
<g id="graph0" class="graph" transform="scale(1 1) rotate(0) translate(4 544)">
<title>pt</title>
<!-- 2179120200912 -->
<g id="node1" class="node"><title>2179120200912</title>
<ellipse fill="none" stroke="black" cx="602.811" cy="-522" rx="27" ry="18"/>
<text text-anchor="middle" x="602.811" y="-518.5" font-family="Times New Roman,serif" font-size="15.00">seq</text>
</g>
<!-- 2179120197888 -->
<g id="node2" class="node"><title>2179120197888</title>
<ellipse fill="none" stroke="black" cx="109.811" cy="-450" rx="59.5207" ry="18"/>
<text text-anchor="middle" x="109.811" y="-446.5" font-family="Times New Roman,serif" font-size="15.00">Create Fine</text>
</g>
<!-- 2179120200912&#45;&#45;2179120197888 -->
<g id="edge1" class="edge"><title>2179120200912&#45;&#45;2179120197888</title>
<path fill="none" stroke="black" d="M576.653,-517.286C498.819,-506.234 267.604,-473.405 162.667,-458.505"/>
</g>
<!-- 2179120200720 -->
<g id="node3" class="node"><title>2179120200720</title>
<ellipse fill="none" stroke="black" cx="214.811" cy="-450" rx="27" ry="18"/>
<text text-anchor="middle" x="214.811" y="-446.5" font-family="Times New Roman,serif" font-size="15.00">xor</text>
</g>
<!-- 2179120200912&#45;&#45;2179120200720 -->
<g id="edge8" class="edge"><title>2179120200912&#45;&#45;2179120200720</title>
<path fill="none" stroke="black" d="M577.053,-516.353C506.558,-503.635 311.044,-468.362 240.56,-455.645"/>
</g>
<!-- 2179120200240 -->
<g id="node10" class="node"><title>2179120200240</title>
<ellipse fill="none" stroke="black" cx="366.811" cy="-450" rx="27" ry="18"/>
<text text-anchor="middle" x="366.811" y="-446.5" font-family="Times New Roman,serif" font-size="15.00">xor</text>
</g>
<!-- 2179120200912&#45;&#45;2179120200240 -->
<g id="edge11" class="edge"><title>2179120200912&#45;&#45;2179120200240</title>
<path fill="none" stroke="black" d="M578.444,-513.772C533.103,-500.324 436.286,-471.607 391.046,-458.188"/>
</g>
<!-- 2179120198176 -->
<g id="node13" class="node"><title>2179120198176</title>
<ellipse fill="none" stroke="black" cx="602.811" cy="-450" rx="27" ry="18"/>
<text text-anchor="middle" x="602.811" y="-446.5" font-family="Times New Roman,serif" font-size="15.00">xor</text>
</g>
<!-- 2179120200912&#45;&#45;2179120198176 -->
<g id="edge14" class="edge"><title>2179120200912&#45;&#45;2179120198176</title>
<path fill="none" stroke="black" d="M602.811,-503.697C602.811,-492.846 602.811,-478.917 602.811,-468.104"/>
</g>
<!-- 2179120201440 -->
<g id="node16" class="node"><title>2179120201440</title>
<ellipse fill="none" stroke="black" cx="813.811" cy="-450" rx="27" ry="18"/>
<text text-anchor="middle" x="813.811" y="-446.5" font-family="Times New Roman,serif" font-size="15.00">xor</text>
</g>
<!-- 2179120200912&#45;&#45;2179120201440 -->
<g id="edge17" class="edge"><title>2179120200912&#45;&#45;2179120201440</title>
<path fill="none" stroke="black" d="M626.605,-513.106C667.237,-499.626 749.531,-472.325 790.104,-458.865"/>
</g>
<!-- 2179120199856 -->
<g id="node19" class="node"><title>2179120199856</title>
<ellipse fill="none" stroke="black" cx="961.811" cy="-450" rx="27" ry="18"/>
<text text-anchor="middle" x="961.811" y="-446.5" font-family="Times New Roman,serif" font-size="15.00">xor</text>
</g>
<!-- 2179120200912&#45;&#45;2179120199856 -->
<g id="edge41" class="edge"><title>2179120200912&#45;&#45;2179120199856</title>
<path fill="none" stroke="black" d="M628.342,-516.022C694.34,-503.153 870.051,-468.892 936.17,-456"/>
</g>
<!-- 2179120197744 -->
<g id="node43" class="node"><title>2179120197744</title>
<ellipse fill="none" stroke="black" cx="1057.81" cy="-450" rx="27" ry="18"/>
<text text-anchor="middle" x="1057.81" y="-446.5" font-family="Times New Roman,serif" font-size="15.00">xor</text>
</g>
<!-- 2179120200912&#45;&#45;2179120197744 -->
<g id="edge44" class="edge"><title>2179120200912&#45;&#45;2179120197744</title>
<path fill="none" stroke="black" d="M628.908,-516.985C709.161,-504.638 951.709,-467.323 1031.82,-454.999"/>
</g>
<!-- 2179120200336 -->
<g id="node4" class="node"><title>2179120200336</title>
<ellipse fill="black" stroke="black" cx="67.8111" cy="-378" rx="2.7" ry="2.7"/>
</g>
<!-- 2179120200720&#45;&#45;2179120200336 -->
<g id="edge2" class="edge"><title>2179120200720&#45;&#45;2179120200336</title>
<path fill="none" stroke="black" d="M193.436,-438.821C156.488,-421.227 83.3339,-386.392 69.9422,-380.015"/>
</g>
<!-- 2179120199952 -->
<g id="node5" class="node"><title>2179120199952</title>
<ellipse fill="none" stroke="black" cx="134.811" cy="-378" rx="46.6143" ry="18"/>
<text text-anchor="middle" x="134.811" y="-374.5" font-family="Times New Roman,serif" font-size="15.00">xor loop</text>
</g>
<!-- 2179120200720&#45;&#45;2179120199952 -->
<g id="edge7" class="edge"><title>2179120200720&#45;&#45;2179120199952</title>
<path fill="none" stroke="black" d="M199.006,-435.17C185.709,-423.536 166.699,-406.902 152.818,-394.756"/>
</g>
<!-- 2179120200048 -->
<g id="node6" class="node"><title>2179120200048</title>
<ellipse fill="none" stroke="black" cx="110.811" cy="-306" rx="27" ry="18"/>
<text text-anchor="middle" x="110.811" y="-302.5" font-family="Times New Roman,serif" font-size="15.00">xor</text>
</g>
<!-- 2179120199952&#45;&#45;2179120200048 -->
<g id="edge5" class="edge"><title>2179120199952&#45;&#45;2179120200048</title>
<path fill="none" stroke="black" d="M129.001,-360.055C125.228,-349.049 120.33,-334.764 116.567,-323.789"/>
</g>
<!-- 2179120201152 -->
<g id="node9" class="node"><title>2179120201152</title>
<ellipse fill="black" stroke="black" cx="158.811" cy="-306" rx="2.7" ry="2.7"/>
</g>
<!-- 2179120199952&#45;&#45;2179120201152 -->
<g id="edge6" class="edge"><title>2179120199952&#45;&#45;2179120201152</title>
<path fill="none" stroke="black" d="M140.621,-360.055C146.725,-342.252 155.772,-315.865 158.195,-308.796"/>
</g>
<!-- 2179120201632 -->
<g id="node7" class="node"><title>2179120201632</title>
<ellipse fill="none" stroke="black" cx="52.8111" cy="-234" rx="52.6228" ry="18"/>
<text text-anchor="middle" x="52.8111" y="-230.5" font-family="Times New Roman,serif" font-size="15.00">Send Fine</text>
</g>
<!-- 2179120200048&#45;&#45;2179120201632 -->
<g id="edge3" class="edge"><title>2179120200048&#45;&#45;2179120201632</title>
<path fill="none" stroke="black" d="M98.2259,-289.811C88.8972,-278.552 76.1894,-263.215 66.5884,-251.628"/>
</g>
<!-- 2179120200480 -->
<g id="node8" class="node"><title>2179120200480</title>
<ellipse fill="none" stroke="black" cx="169.811" cy="-234" rx="45.7249" ry="18"/>
<text text-anchor="middle" x="169.811" y="-230.5" font-family="Times New Roman,serif" font-size="15.00">Payment</text>
</g>
<!-- 2179120200048&#45;&#45;2179120200480 -->
<g id="edge4" class="edge"><title>2179120200048&#45;&#45;2179120200480</title>
<path fill="none" stroke="black" d="M123.613,-289.811C133.103,-278.552 146.03,-263.215 155.796,-251.628"/>
</g>
<!-- 2179120200864 -->
<g id="node11" class="node"><title>2179120200864</title>
<ellipse fill="black" stroke="black" cx="201.811" cy="-378" rx="2.7" ry="2.7"/>
</g>
<!-- 2179120200240&#45;&#45;2179120200864 -->
<g id="edge9" class="edge"><title>2179120200240&#45;&#45;2179120200864</title>
<path fill="none" stroke="black" d="M344.558,-439.559C303.391,-422.094 218.216,-385.96 203.88,-379.878"/>
</g>
<!-- 2179120200528 -->
<g id="node12" class="node"><title>2179120200528</title>
<ellipse fill="none" stroke="black" cx="366.811" cy="-378" rx="144.571" ry="18"/>
<text text-anchor="middle" x="366.811" y="-374.5" font-family="Times New Roman,serif" font-size="15.00">Insert Date Appeal to Prefecture</text>
</g>
<!-- 2179120200240&#45;&#45;2179120200528 -->
<g id="edge10" class="edge"><title>2179120200240&#45;&#45;2179120200528</title>
<path fill="none" stroke="black" d="M366.811,-431.697C366.811,-420.846 366.811,-406.917 366.811,-396.104"/>
</g>
<!-- 2179120200144 -->
<g id="node14" class="node"><title>2179120200144</title>
<ellipse fill="black" stroke="black" cx="531.811" cy="-378" rx="2.7" ry="2.7"/>
</g>
<!-- 2179120198176&#45;&#45;2179120200144 -->
<g id="edge12" class="edge"><title>2179120198176&#45;&#45;2179120200144</title>
<path fill="none" stroke="black" d="M588.1,-434.496C569.903,-416.555 540.455,-387.522 533.377,-380.544"/>
</g>
<!-- 2179120355888 -->
<g id="node15" class="node"><title>2179120355888</title>
<ellipse fill="none" stroke="black" cx="672.811" cy="-378" rx="120.43" ry="18"/>
<text text-anchor="middle" x="672.811" y="-374.5" font-family="Times New Roman,serif" font-size="15.00">Send Appeal to Prefecture</text>
</g>
<!-- 2179120198176&#45;&#45;2179120355888 -->
<g id="edge13" class="edge"><title>2179120198176&#45;&#45;2179120355888</title>
<path fill="none" stroke="black" d="M617.315,-434.496C628.528,-423.283 644.074,-407.737 655.86,-395.951"/>
</g>
<!-- 2179120372032 -->
<g id="node17" class="node"><title>2179120372032</title>
<ellipse fill="black" stroke="black" cx="813.811" cy="-378" rx="2.7" ry="2.7"/>
</g>
<!-- 2179120201440&#45;&#45;2179120372032 -->
<g id="edge15" class="edge"><title>2179120201440&#45;&#45;2179120372032</title>
<path fill="none" stroke="black" d="M813.811,-431.697C813.811,-413.883 813.811,-387.769 813.811,-380.776"/>
</g>
<!-- 2179120353920 -->
<g id="node18" class="node"><title>2179120353920</title>
<ellipse fill="none" stroke="black" cx="887.811" cy="-378" rx="52.6228" ry="18"/>
<text text-anchor="middle" x="887.811" y="-374.5" font-family="Times New Roman,serif" font-size="15.00">Send Fine</text>
</g>
<!-- 2179120201440&#45;&#45;2179120353920 -->
<g id="edge16" class="edge"><title>2179120201440&#45;&#45;2179120353920</title>
<path fill="none" stroke="black" d="M828.786,-434.834C840.949,-423.329 858.105,-407.101 870.788,-395.103"/>
</g>
<!-- 2179120294880 -->
<g id="node20" class="node"><title>2179120294880</title>
<ellipse fill="black" stroke="black" cx="961.811" cy="-378" rx="2.7" ry="2.7"/>
</g>
<!-- 2179120199856&#45;&#45;2179120294880 -->
<g id="edge18" class="edge"><title>2179120199856&#45;&#45;2179120294880</title>
<path fill="none" stroke="black" d="M961.811,-431.697C961.811,-413.883 961.811,-387.769 961.811,-380.776"/>
</g>
<!-- 2179120293824 -->
<g id="node21" class="node"><title>2179120293824</title>
<ellipse fill="none" stroke="black" cx="1009.81" cy="-378" rx="27" ry="18"/>
<text text-anchor="middle" x="1009.81" y="-374.5" font-family="Times New Roman,serif" font-size="15.00">seq</text>
</g>
<!-- 2179120199856&#45;&#45;2179120293824 -->
<g id="edge40" class="edge"><title>2179120199856&#45;&#45;2179120293824</title>
<path fill="none" stroke="black" d="M972.703,-433.116C980.558,-421.66 991.117,-406.263 998.962,-394.821"/>
</g>
<!-- 2179120292144 -->
<g id="node22" class="node"><title>2179120292144</title>
<ellipse fill="none" stroke="black" cx="856.811" cy="-306" rx="107.914" ry="18"/>
<text text-anchor="middle" x="856.811" y="-302.5" font-family="Times New Roman,serif" font-size="15.00">Insert Fine Notification</text>
</g>
<!-- 2179120293824&#45;&#45;2179120292144 -->
<g id="edge19" class="edge"><title>2179120293824&#45;&#45;2179120292144</title>
<path fill="none" stroke="black" d="M988.214,-367.119C963.173,-355.662 921.544,-336.616 891.852,-323.032"/>
</g>
<!-- 2179120294592 -->
<g id="node23" class="node"><title>2179120294592</title>
<ellipse fill="none" stroke="black" cx="1009.81" cy="-306" rx="27" ry="18"/>
<text text-anchor="middle" x="1009.81" y="-302.5" font-family="Times New Roman,serif" font-size="15.00">xor</text>
</g>
<!-- 2179120293824&#45;&#45;2179120294592 -->
<g id="edge22" class="edge"><title>2179120293824&#45;&#45;2179120294592</title>
<path fill="none" stroke="black" d="M1009.81,-359.697C1009.81,-348.846 1009.81,-334.917 1009.81,-324.104"/>
</g>
<!-- 2179120292720 -->
<g id="node26" class="node"><title>2179120292720</title>
<ellipse fill="none" stroke="black" cx="1133.81" cy="-306" rx="27" ry="18"/>
<text text-anchor="middle" x="1133.81" y="-302.5" font-family="Times New Roman,serif" font-size="15.00">and</text>
</g>
<!-- 2179120293824&#45;&#45;2179120292720 -->
<g id="edge39" class="edge"><title>2179120293824&#45;&#45;2179120292720</title>
<path fill="none" stroke="black" d="M1029.73,-365.753C1052.87,-352.691 1090.82,-331.27 1113.94,-318.219"/>
</g>
<!-- 2179120387360 -->
<g id="node24" class="node"><title>2179120387360</title>
<ellipse fill="black" stroke="black" cx="910.811" cy="-234" rx="2.7" ry="2.7"/>
</g>
<!-- 2179120294592&#45;&#45;2179120387360 -->
<g id="edge20" class="edge"><title>2179120294592&#45;&#45;2179120387360</title>
<path fill="none" stroke="black" d="M991.653,-292.161C966.198,-274.163 921.96,-242.883 912.587,-236.256"/>
</g>
<!-- 2179120387696 -->
<g id="node25" class="node"><title>2179120387696</title>
<ellipse fill="none" stroke="black" cx="1009.81" cy="-234" rx="78.5434" ry="18"/>
<text text-anchor="middle" x="1009.81" y="-230.5" font-family="Times New Roman,serif" font-size="15.00">Appeal to Judge</text>
</g>
<!-- 2179120294592&#45;&#45;2179120387696 -->
<g id="edge21" class="edge"><title>2179120294592&#45;&#45;2179120387696</title>
<path fill="none" stroke="black" d="M1009.81,-287.697C1009.81,-276.846 1009.81,-262.917 1009.81,-252.104"/>
</g>
<!-- 2179120388032 -->
<g id="node27" class="node"><title>2179120388032</title>
<ellipse fill="none" stroke="black" cx="1133.81" cy="-234" rx="27" ry="18"/>
<text text-anchor="middle" x="1133.81" y="-230.5" font-family="Times New Roman,serif" font-size="15.00">and</text>
</g>
<!-- 2179120292720&#45;&#45;2179120388032 -->
<g id="edge27" class="edge"><title>2179120292720&#45;&#45;2179120388032</title>
<path fill="none" stroke="black" d="M1133.81,-287.697C1133.81,-276.846 1133.81,-262.917 1133.81,-252.104"/>
</g>
<!-- 2179120386592 -->
<g id="node32" class="node"><title>2179120386592</title>
<ellipse fill="none" stroke="black" cx="1333.81" cy="-234" rx="27" ry="18"/>
<text text-anchor="middle" x="1333.81" y="-230.5" font-family="Times New Roman,serif" font-size="15.00">xor</text>
</g>
<!-- 2179120292720&#45;&#45;2179120386592 -->
<g id="edge38" class="edge"><title>2179120292720&#45;&#45;2179120386592</title>
<path fill="none" stroke="black" d="M1157.15,-296.833C1195.58,-283.381 1271.78,-256.712 1310.32,-243.223"/>
</g>
<!-- 2179120386160 -->
<g id="node28" class="node"><title>2179120386160</title>
<ellipse fill="none" stroke="black" cx="949.811" cy="-162" rx="46.6143" ry="18"/>
<text text-anchor="middle" x="949.811" y="-158.5" font-family="Times New Roman,serif" font-size="15.00">xor loop</text>
</g>
<!-- 2179120388032&#45;&#45;2179120386160 -->
<g id="edge25" class="edge"><title>2179120388032&#45;&#45;2179120386160</title>
<path fill="none" stroke="black" d="M1110.88,-224.276C1078.32,-211.888 1018.55,-189.152 981.692,-175.129"/>
</g>
<!-- 2179120386496 -->
<g id="node31" class="node"><title>2179120386496</title>
<ellipse fill="none" stroke="black" cx="1133.81" cy="-162" rx="61.6894" ry="18"/>
<text text-anchor="middle" x="1133.81" y="-158.5" font-family="Times New Roman,serif" font-size="15.00">Add penalty</text>
</g>
<!-- 2179120388032&#45;&#45;2179120386496 -->
<g id="edge26" class="edge"><title>2179120388032&#45;&#45;2179120386496</title>
<path fill="none" stroke="black" d="M1133.81,-215.697C1133.81,-204.846 1133.81,-190.917 1133.81,-180.104"/>
</g>
<!-- 2179120388128 -->
<g id="node29" class="node"><title>2179120388128</title>
<ellipse fill="black" stroke="black" cx="882.811" cy="-90" rx="2.7" ry="2.7"/>
</g>
<!-- 2179120386160&#45;&#45;2179120388128 -->
<g id="edge23" class="edge"><title>2179120386160&#45;&#45;2179120388128</title>
<path fill="none" stroke="black" d="M934.272,-144.765C916.953,-126.671 890.542,-99.0776 884.21,-92.462"/>
</g>
<!-- 2179120388224 -->
<g id="node30" class="node"><title>2179120388224</title>
<ellipse fill="none" stroke="black" cx="949.811" cy="-90" rx="45.7249" ry="18"/>
<text text-anchor="middle" x="949.811" y="-86.5" font-family="Times New Roman,serif" font-size="15.00">Payment</text>
</g>
<!-- 2179120386160&#45;&#45;2179120388224 -->
<g id="edge24" class="edge"><title>2179120386160&#45;&#45;2179120388224</title>
<path fill="none" stroke="black" d="M949.811,-143.697C949.811,-132.846 949.811,-118.917 949.811,-108.104"/>
</g>
<!-- 2179120388368 -->
<g id="node33" class="node"><title>2179120388368</title>
<ellipse fill="black" stroke="black" cx="1333.81" cy="-162" rx="2.7" ry="2.7"/>
</g>
<!-- 2179120386592&#45;&#45;2179120388368 -->
<g id="edge28" class="edge"><title>2179120386592&#45;&#45;2179120388368</title>
<path fill="none" stroke="black" d="M1333.81,-215.697C1333.81,-197.883 1333.81,-171.769 1333.81,-164.776"/>
</g>
<!-- 2179120388464 -->
<g id="node34" class="node"><title>2179120388464</title>
<ellipse fill="none" stroke="black" cx="1440.81" cy="-162" rx="27" ry="18"/>
<text text-anchor="middle" x="1440.81" y="-158.5" font-family="Times New Roman,serif" font-size="15.00">seq</text>
</g>
<!-- 2179120386592&#45;&#45;2179120388464 -->
<g id="edge37" class="edge"><title>2179120386592&#45;&#45;2179120388464</title>
<path fill="none" stroke="black" d="M1352.45,-220.807C1371.97,-208.037 1402.45,-188.093 1422.03,-175.288"/>
</g>
<!-- 2179120388704 -->
<g id="node35" class="node"><title>2179120388704</title>
<ellipse fill="none" stroke="black" cx="1157.81" cy="-90" rx="144.571" ry="18"/>
<text text-anchor="middle" x="1157.81" y="-86.5" font-family="Times New Roman,serif" font-size="15.00">Insert Date Appeal to Prefecture</text>
</g>
<!-- 2179120388464&#45;&#45;2179120388704 -->
<g id="edge29" class="edge"><title>2179120388464&#45;&#45;2179120388704</title>
<path fill="none" stroke="black" d="M1415.7,-154.788C1372.07,-143.997 1281.09,-121.492 1219.71,-106.311"/>
</g>
<!-- 2179120388800 -->
<g id="node36" class="node"><title>2179120388800</title>
<ellipse fill="none" stroke="black" cx="1440.81" cy="-90" rx="120.43" ry="18"/>
<text text-anchor="middle" x="1440.81" y="-86.5" font-family="Times New Roman,serif" font-size="15.00">Send Appeal to Prefecture</text>
</g>
<!-- 2179120388464&#45;&#45;2179120388800 -->
<g id="edge30" class="edge"><title>2179120388464&#45;&#45;2179120388800</title>
<path fill="none" stroke="black" d="M1440.81,-143.697C1440.81,-132.846 1440.81,-118.917 1440.81,-108.104"/>
</g>
<!-- 2179120388896 -->
<g id="node37" class="node"><title>2179120388896</title>
<ellipse fill="none" stroke="black" cx="1605.81" cy="-90" rx="27" ry="18"/>
<text text-anchor="middle" x="1605.81" y="-86.5" font-family="Times New Roman,serif" font-size="15.00">xor</text>
</g>
<!-- 2179120388464&#45;&#45;2179120388896 -->
<g id="edge33" class="edge"><title>2179120388464&#45;&#45;2179120388896</title>
<path fill="none" stroke="black" d="M1463.06,-151.559C1494.64,-138.162 1552.12,-113.779 1583.65,-100.402"/>
</g>
<!-- 2179120389088 -->
<g id="node40" class="node"><title>2179120389088</title>
<ellipse fill="none" stroke="black" cx="1799.81" cy="-90" rx="27" ry="18"/>
<text text-anchor="middle" x="1799.81" y="-86.5" font-family="Times New Roman,serif" font-size="15.00">xor</text>
</g>
<!-- 2179120388464&#45;&#45;2179120389088 -->
<g id="edge36" class="edge"><title>2179120388464&#45;&#45;2179120389088</title>
<path fill="none" stroke="black" d="M1466.34,-156.022C1532.34,-143.153 1708.05,-108.892 1774.17,-95.9996"/>
</g>
<!-- 2179120389136 -->
<g id="node38" class="node"><title>2179120389136</title>
<ellipse fill="black" stroke="black" cx="1411.81" cy="-18" rx="2.7" ry="2.7"/>
</g>
<!-- 2179120388896&#45;&#45;2179120389136 -->
<g id="edge31" class="edge"><title>2179120388896&#45;&#45;2179120389136</title>
<path fill="none" stroke="black" d="M1582.41,-80.5564C1534.84,-63.393 1429.99,-25.5607 1413.9,-19.7542"/>
</g>
<!-- 2179120389232 -->
<g id="node39" class="node"><title>2179120389232</title>
<ellipse fill="none" stroke="black" cx="1605.81" cy="-18" rx="173.941" ry="18"/>
<text text-anchor="middle" x="1605.81" y="-14.5" font-family="Times New Roman,serif" font-size="15.00">Receive Result Appeal from Prefecture</text>
</g>
<!-- 2179120388896&#45;&#45;2179120389232 -->
<g id="edge32" class="edge"><title>2179120388896&#45;&#45;2179120389232</title>
<path fill="none" stroke="black" d="M1605.81,-71.6966C1605.81,-60.8463 1605.81,-46.9167 1605.81,-36.1043"/>
</g>
<!-- 2179120389424 -->
<g id="node41" class="node"><title>2179120389424</title>
<ellipse fill="black" stroke="black" cx="1799.81" cy="-18" rx="2.7" ry="2.7"/>
</g>
<!-- 2179120389088&#45;&#45;2179120389424 -->
<g id="edge34" class="edge"><title>2179120389088&#45;&#45;2179120389424</title>
<path fill="none" stroke="black" d="M1799.81,-71.6966C1799.81,-53.8826 1799.81,-27.7686 1799.81,-20.7764"/>
</g>
<!-- 2179120389520 -->
<g id="node42" class="node"><title>2179120389520</title>
<ellipse fill="none" stroke="black" cx="1968.81" cy="-18" rx="148.91" ry="18"/>
<text text-anchor="middle" x="1968.81" y="-14.5" font-family="Times New Roman,serif" font-size="15.00">Notify Result Appeal to Offender</text>
</g>
<!-- 2179120389088&#45;&#45;2179120389520 -->
<g id="edge35" class="edge"><title>2179120389088&#45;&#45;2179120389520</title>
<path fill="none" stroke="black" d="M1822.25,-79.7045C1849.46,-68.4359 1895.79,-49.2446 1929.09,-35.4544"/>
</g>
<!-- 2179120387408 -->
<g id="node44" class="node"><title>2179120387408</title>
<ellipse fill="black" stroke="black" cx="1057.81" cy="-378" rx="2.7" ry="2.7"/>
</g>
<!-- 2179120197744&#45;&#45;2179120387408 -->
<g id="edge42" class="edge"><title>2179120197744&#45;&#45;2179120387408</title>
<path fill="none" stroke="black" d="M1057.81,-431.697C1057.81,-413.883 1057.81,-387.769 1057.81,-380.776"/>
</g>
<!-- 2179120387456 -->
<g id="node45" class="node"><title>2179120387456</title>
<ellipse fill="none" stroke="black" cx="1199.81" cy="-378" rx="120.819" ry="18"/>
<text text-anchor="middle" x="1199.81" y="-374.5" font-family="Times New Roman,serif" font-size="15.00">Send for Credit Collection</text>
</g>
<!-- 2179120197744&#45;&#45;2179120387456 -->
<g id="edge43" class="edge"><title>2179120197744&#45;&#45;2179120387456</title>
<path fill="none" stroke="black" d="M1079.07,-438.52C1102.2,-427.116 1139.49,-408.733 1166.52,-395.412"/>
</g>
</g>
</svg>
