<?xml version="1.0" encoding="UTF-8" standalone="no"?>
<!DOCTYPE svg PUBLIC "-//W3C//DTD SVG 1.1//EN"
 "http://www.w3.org/Graphics/SVG/1.1/DTD/svg11.dtd">
<!-- Generated by graphviz version 2.38.0 (20140413.2041)
 -->
<!-- Title: pt Pages: 1 -->
<svg width="1628pt" height="692pt"
 viewBox="0.00 0.00 1627.56 692.00" xmlns="http://www.w3.org/2000/svg" xmlns:xlink="http://www.w3.org/1999/xlink">
<g id="graph0" class="graph" transform="scale(1 1) rotate(0) translate(4 688)">
<title>pt</title>
<!-- 2178933611104 -->
<g id="node1" class="node"><title>2178933611104</title>
<ellipse fill="none" stroke="black" cx="323.7" cy="-666" rx="27" ry="18"/>
<text text-anchor="middle" x="323.7" y="-662.5" font-family="Times New Roman,serif" font-size="15.00">and</text>
</g>
<!-- 2179092054416 -->
<g id="node2" class="node"><title>2179092054416</title>
<ellipse fill="none" stroke="black" cx="240.7" cy="-594" rx="27" ry="18"/>
<text text-anchor="middle" x="240.7" y="-590.5" font-family="Times New Roman,serif" font-size="15.00">xor</text>
</g>
<!-- 2178933611104&#45;&#45;2179092054416 -->
<g id="edge7" class="edge"><title>2178933611104&#45;&#45;2179092054416</title>
<path fill="none" stroke="black" d="M307.302,-651.17C292.656,-638.819 271.33,-620.832 256.782,-608.563"/>
</g>
<!-- 2179092056144 -->
<g id="node9" class="node"><title>2179092056144</title>
<ellipse fill="none" stroke="black" cx="407.7" cy="-594" rx="27" ry="18"/>
<text text-anchor="middle" x="407.7" y="-590.5" font-family="Times New Roman,serif" font-size="15.00">seq</text>
</g>
<!-- 2178933611104&#45;&#45;2179092056144 -->
<g id="edge50" class="edge"><title>2178933611104&#45;&#45;2179092056144</title>
<path fill="none" stroke="black" d="M339.896,-651.503C354.771,-639.108 376.695,-620.838 391.554,-608.455"/>
</g>
<!-- 2179092055616 -->
<g id="node3" class="node"><title>2179092055616</title>
<ellipse fill="black" stroke="black" cx="192.7" cy="-522" rx="2.7" ry="2.7"/>
</g>
<!-- 2179092054416&#45;&#45;2179092055616 -->
<g id="edge1" class="edge"><title>2179092054416&#45;&#45;2179092055616</title>
<path fill="none" stroke="black" d="M229.808,-577.116C217.638,-559.367 198.98,-532.158 193.973,-524.857"/>
</g>
<!-- 2179092018224 -->
<g id="node4" class="node"><title>2179092018224</title>
<ellipse fill="none" stroke="black" cx="240.7" cy="-522" rx="27" ry="18"/>
<text text-anchor="middle" x="240.7" y="-518.5" font-family="Times New Roman,serif" font-size="15.00">and</text>
</g>
<!-- 2179092054416&#45;&#45;2179092018224 -->
<g id="edge6" class="edge"><title>2179092054416&#45;&#45;2179092018224</title>
<path fill="none" stroke="black" d="M240.7,-575.697C240.7,-564.846 240.7,-550.917 240.7,-540.104"/>
</g>
<!-- 2179092020816 -->
<g id="node5" class="node"><title>2179092020816</title>
<ellipse fill="none" stroke="black" cx="148.7" cy="-450" rx="46.6143" ry="18"/>
<text text-anchor="middle" x="148.7" y="-446.5" font-family="Times New Roman,serif" font-size="15.00">xor loop</text>
</g>
<!-- 2179092018224&#45;&#45;2179092020816 -->
<g id="edge4" class="edge"><title>2179092018224&#45;&#45;2179092020816</title>
<path fill="none" stroke="black" d="M223.396,-507.834C207.884,-496.032 185.125,-478.715 168.81,-466.301"/>
</g>
<!-- 2179092021008 -->
<g id="node8" class="node"><title>2179092021008</title>
<ellipse fill="none" stroke="black" cx="274.7" cy="-450" rx="61.6894" ry="18"/>
<text text-anchor="middle" x="274.7" y="-446.5" font-family="Times New Roman,serif" font-size="15.00">Add penalty</text>
</g>
<!-- 2179092018224&#45;&#45;2179092021008 -->
<g id="edge5" class="edge"><title>2179092018224&#45;&#45;2179092021008</title>
<path fill="none" stroke="black" d="M248.586,-504.765C253.922,-493.779 260.958,-479.292 266.383,-468.124"/>
</g>
<!-- 2179092021056 -->
<g id="node6" class="node"><title>2179092021056</title>
<ellipse fill="black" stroke="black" cx="115.7" cy="-378" rx="2.7" ry="2.7"/>
</g>
<!-- 2179092020816&#45;&#45;2179092021056 -->
<g id="edge2" class="edge"><title>2179092020816&#45;&#45;2179092021056</title>
<path fill="none" stroke="black" d="M140.712,-432.055C132.319,-414.252 119.879,-387.865 116.547,-380.796"/>
</g>
<!-- 2179092021104 -->
<g id="node7" class="node"><title>2179092021104</title>
<ellipse fill="none" stroke="black" cx="182.7" cy="-378" rx="45.7249" ry="18"/>
<text text-anchor="middle" x="182.7" y="-374.5" font-family="Times New Roman,serif" font-size="15.00">Payment</text>
</g>
<!-- 2179092020816&#45;&#45;2179092021104 -->
<g id="edge3" class="edge"><title>2179092020816&#45;&#45;2179092021104</title>
<path fill="none" stroke="black" d="M156.93,-432.055C162.276,-421.049 169.215,-406.764 174.545,-395.789"/>
</g>
<!-- 2179092056336 -->
<g id="node10" class="node"><title>2179092056336</title>
<ellipse fill="none" stroke="black" cx="345.7" cy="-522" rx="59.5207" ry="18"/>
<text text-anchor="middle" x="345.7" y="-518.5" font-family="Times New Roman,serif" font-size="15.00">Create Fine</text>
</g>
<!-- 2179092056144&#45;&#45;2179092056336 -->
<g id="edge8" class="edge"><title>2179092056144&#45;&#45;2179092056336</title>
<path fill="none" stroke="black" d="M394.551,-578.155C384.599,-566.918 370.922,-551.476 360.57,-539.789"/>
</g>
<!-- 2179092057680 -->
<g id="node11" class="node"><title>2179092057680</title>
<ellipse fill="none" stroke="black" cx="469.7" cy="-522" rx="46.6143" ry="18"/>
<text text-anchor="middle" x="469.7" y="-518.5" font-family="Times New Roman,serif" font-size="15.00">xor loop</text>
</g>
<!-- 2179092056144&#45;&#45;2179092057680 -->
<g id="edge42" class="edge"><title>2179092056144&#45;&#45;2179092057680</title>
<path fill="none" stroke="black" d="M420.849,-578.155C430.944,-566.757 444.87,-551.034 455.271,-539.29"/>
</g>
<!-- 2179092055568 -->
<g id="node45" class="node"><title>2179092055568</title>
<ellipse fill="none" stroke="black" cx="561.7" cy="-522" rx="27" ry="18"/>
<text text-anchor="middle" x="561.7" y="-518.5" font-family="Times New Roman,serif" font-size="15.00">xor</text>
</g>
<!-- 2179092056144&#45;&#45;2179092055568 -->
<g id="edge49" class="edge"><title>2179092056144&#45;&#45;2179092055568</title>
<path fill="none" stroke="black" d="M429.438,-583.119C458.788,-569.778 510.779,-546.146 540.073,-532.831"/>
</g>
<!-- 2179092055424 -->
<g id="node12" class="node"><title>2179092055424</title>
<ellipse fill="none" stroke="black" cx="423.7" cy="-450" rx="27" ry="18"/>
<text text-anchor="middle" x="423.7" y="-446.5" font-family="Times New Roman,serif" font-size="15.00">seq</text>
</g>
<!-- 2179092057680&#45;&#45;2179092055424 -->
<g id="edge40" class="edge"><title>2179092057680&#45;&#45;2179092055424</title>
<path fill="none" stroke="black" d="M458.799,-504.411C451.36,-493.091 441.56,-478.178 434.206,-466.988"/>
</g>
<!-- 2179092055904 -->
<g id="node44" class="node"><title>2179092055904</title>
<ellipse fill="black" stroke="black" cx="471.7" cy="-450" rx="2.7" ry="2.7"/>
</g>
<!-- 2179092057680&#45;&#45;2179092055904 -->
<g id="edge41" class="edge"><title>2179092057680&#45;&#45;2179092055904</title>
<path fill="none" stroke="black" d="M470.194,-503.697C470.703,-485.883 471.449,-459.769 471.649,-452.776"/>
</g>
<!-- 2179092055376 -->
<g id="node13" class="node"><title>2179092055376</title>
<ellipse fill="none" stroke="black" cx="350.7" cy="-378" rx="27" ry="18"/>
<text text-anchor="middle" x="350.7" y="-374.5" font-family="Times New Roman,serif" font-size="15.00">xor</text>
</g>
<!-- 2179092055424&#45;&#45;2179092055376 -->
<g id="edge11" class="edge"><title>2179092055424&#45;&#45;2179092055376</title>
<path fill="none" stroke="black" d="M408.927,-434.834C396.262,-422.69 378.109,-405.283 365.451,-393.144"/>
</g>
<!-- 2179092055232 -->
<g id="node16" class="node"><title>2179092055232</title>
<ellipse fill="none" stroke="black" cx="424.7" cy="-378" rx="27" ry="18"/>
<text text-anchor="middle" x="424.7" y="-374.5" font-family="Times New Roman,serif" font-size="15.00">xor</text>
</g>
<!-- 2179092055424&#45;&#45;2179092055232 -->
<g id="edge39" class="edge"><title>2179092055424&#45;&#45;2179092055232</title>
<path fill="none" stroke="black" d="M423.947,-431.697C424.102,-420.846 424.301,-406.917 424.456,-396.104"/>
</g>
<!-- 2179119883840 -->
<g id="node14" class="node"><title>2179119883840</title>
<ellipse fill="black" stroke="black" cx="276.7" cy="-306" rx="2.7" ry="2.7"/>
</g>
<!-- 2179092055376&#45;&#45;2179119883840 -->
<g id="edge9" class="edge"><title>2179092055376&#45;&#45;2179119883840</title>
<path fill="none" stroke="black" d="M335.725,-362.834C316.805,-344.937 285.804,-315.612 278.349,-308.56"/>
</g>
<!-- 2179092055952 -->
<g id="node15" class="node"><title>2179092055952</title>
<ellipse fill="none" stroke="black" cx="350.7" cy="-306" rx="52.6228" ry="18"/>
<text text-anchor="middle" x="350.7" y="-302.5" font-family="Times New Roman,serif" font-size="15.00">Send Fine</text>
</g>
<!-- 2179092055376&#45;&#45;2179092055952 -->
<g id="edge10" class="edge"><title>2179092055376&#45;&#45;2179092055952</title>
<path fill="none" stroke="black" d="M350.7,-359.697C350.7,-348.846 350.7,-334.917 350.7,-324.104"/>
</g>
<!-- 2179092017216 -->
<g id="node17" class="node"><title>2179092017216</title>
<ellipse fill="black" stroke="black" cx="424.7" cy="-306" rx="2.7" ry="2.7"/>
</g>
<!-- 2179092055232&#45;&#45;2179092017216 -->
<g id="edge12" class="edge"><title>2179092055232&#45;&#45;2179092017216</title>
<path fill="none" stroke="black" d="M424.7,-359.697C424.7,-341.883 424.7,-315.769 424.7,-308.776"/>
</g>
<!-- 2179092017264 -->
<g id="node18" class="node"><title>2179092017264</title>
<ellipse fill="none" stroke="black" cx="472.7" cy="-306" rx="27" ry="18"/>
<text text-anchor="middle" x="472.7" y="-302.5" font-family="Times New Roman,serif" font-size="15.00">seq</text>
</g>
<!-- 2179092055232&#45;&#45;2179092017264 -->
<g id="edge38" class="edge"><title>2179092055232&#45;&#45;2179092017264</title>
<path fill="none" stroke="black" d="M435.592,-361.116C443.447,-349.66 454.006,-334.263 461.851,-322.821"/>
</g>
<!-- 2179092017696 -->
<g id="node19" class="node"><title>2179092017696</title>
<ellipse fill="none" stroke="black" cx="359.7" cy="-234" rx="27" ry="18"/>
<text text-anchor="middle" x="359.7" y="-230.5" font-family="Times New Roman,serif" font-size="15.00">xor</text>
</g>
<!-- 2179092017264&#45;&#45;2179092017696 -->
<g id="edge15" class="edge"><title>2179092017264&#45;&#45;2179092017696</title>
<path fill="none" stroke="black" d="M453.531,-293.125C432.752,-280.253 399.779,-259.828 378.963,-246.933"/>
</g>
<!-- 2179092017888 -->
<g id="node22" class="node"><title>2179092017888</title>
<ellipse fill="none" stroke="black" cx="536.7" cy="-234" rx="27" ry="18"/>
<text text-anchor="middle" x="536.7" y="-230.5" font-family="Times New Roman,serif" font-size="15.00">xor</text>
</g>
<!-- 2179092017264&#45;&#45;2179092017888 -->
<g id="edge37" class="edge"><title>2179092017264&#45;&#45;2179092017888</title>
<path fill="none" stroke="black" d="M486.273,-290.155C497.134,-278.276 512.291,-261.697 523.147,-249.824"/>
</g>
<!-- 2179092018032 -->
<g id="node20" class="node"><title>2179092018032</title>
<ellipse fill="black" stroke="black" cx="231.7" cy="-162" rx="2.7" ry="2.7"/>
</g>
<!-- 2179092017696&#45;&#45;2179092018032 -->
<g id="edge13" class="edge"><title>2179092017696&#45;&#45;2179092018032</title>
<path fill="none" stroke="black" d="M339.418,-221.908C306.991,-204.175 245.882,-170.756 233.804,-164.151"/>
</g>
<!-- 2179092018128 -->
<g id="node21" class="node"><title>2179092018128</title>
<ellipse fill="none" stroke="black" cx="359.7" cy="-162" rx="107.914" ry="18"/>
<text text-anchor="middle" x="359.7" y="-158.5" font-family="Times New Roman,serif" font-size="15.00">Insert Fine Notification</text>
</g>
<!-- 2179092017696&#45;&#45;2179092018128 -->
<g id="edge14" class="edge"><title>2179092017696&#45;&#45;2179092018128</title>
<path fill="none" stroke="black" d="M359.7,-215.697C359.7,-204.846 359.7,-190.917 359.7,-180.104"/>
</g>
<!-- 2179092018320 -->
<g id="node23" class="node"><title>2179092018320</title>
<ellipse fill="black" stroke="black" cx="487.7" cy="-162" rx="2.7" ry="2.7"/>
</g>
<!-- 2179092017888&#45;&#45;2179092018320 -->
<g id="edge16" class="edge"><title>2179092017888&#45;&#45;2179092018320</title>
<path fill="none" stroke="black" d="M525.825,-217.465C513.194,-199.42 493.478,-171.254 488.746,-164.494"/>
</g>
<!-- 2179092018416 -->
<g id="node24" class="node"><title>2179092018416</title>
<ellipse fill="none" stroke="black" cx="586.7" cy="-162" rx="78.5434" ry="18"/>
<text text-anchor="middle" x="586.7" y="-158.5" font-family="Times New Roman,serif" font-size="15.00">Appeal to Judge</text>
</g>
<!-- 2179092017888&#45;&#45;2179092018416 -->
<g id="edge17" class="edge"><title>2179092017888&#45;&#45;2179092018416</title>
<path fill="none" stroke="black" d="M547.797,-217.465C555.737,-206.348 566.422,-191.39 574.584,-179.962"/>
</g>
<!-- 2179092018512 -->
<g id="node25" class="node"><title>2179092018512</title>
<ellipse fill="none" stroke="black" cx="710.7" cy="-162" rx="27" ry="18"/>
<text text-anchor="middle" x="710.7" y="-158.5" font-family="Times New Roman,serif" font-size="15.00">seq</text>
</g>
<!-- 2179092017888&#45;&#45;2179092018512 -->
<g id="edge36" class="edge"><title>2179092017888&#45;&#45;2179092018512</title>
<path fill="none" stroke="black" d="M559.447,-223.849C592.887,-210.396 654.938,-185.433 688.223,-172.043"/>
</g>
<!-- 2179092018656 -->
<g id="node26" class="node"><title>2179092018656</title>
<ellipse fill="none" stroke="black" cx="167.7" cy="-90" rx="27" ry="18"/>
<text text-anchor="middle" x="167.7" y="-86.5" font-family="Times New Roman,serif" font-size="15.00">xor</text>
</g>
<!-- 2179092018512&#45;&#45;2179092018656 -->
<g id="edge20" class="edge"><title>2179092018512&#45;&#45;2179092018656</title>
<path fill="none" stroke="black" d="M684.51,-157.624C592.674,-145.785 285.866,-106.233 193.944,-94.3833"/>
</g>
<!-- 2179092018848 -->
<g id="node29" class="node"><title>2179092018848</title>
<ellipse fill="none" stroke="black" cx="415.7" cy="-90" rx="27" ry="18"/>
<text text-anchor="middle" x="415.7" y="-86.5" font-family="Times New Roman,serif" font-size="15.00">xor</text>
</g>
<!-- 2179092018512&#45;&#45;2179092018848 -->
<g id="edge23" class="edge"><title>2179092018512&#45;&#45;2179092018848</title>
<path fill="none" stroke="black" d="M685.548,-155.032C629.815,-141.807 496.463,-110.164 440.788,-96.9531"/>
</g>
<!-- 2179092019136 -->
<g id="node32" class="node"><title>2179092019136</title>
<ellipse fill="none" stroke="black" cx="639.7" cy="-90" rx="27" ry="18"/>
<text text-anchor="middle" x="639.7" y="-86.5" font-family="Times New Roman,serif" font-size="15.00">xor</text>
</g>
<!-- 2179092018512&#45;&#45;2179092019136 -->
<g id="edge26" class="edge"><title>2179092018512&#45;&#45;2179092019136</title>
<path fill="none" stroke="black" d="M695.989,-146.496C683.803,-134.482 666.573,-117.494 654.392,-105.485"/>
</g>
<!-- 2179092019424 -->
<g id="node35" class="node"><title>2179092019424</title>
<ellipse fill="none" stroke="black" cx="780.7" cy="-90" rx="27" ry="18"/>
<text text-anchor="middle" x="780.7" y="-86.5" font-family="Times New Roman,serif" font-size="15.00">xor</text>
</g>
<!-- 2179092018512&#45;&#45;2179092019424 -->
<g id="edge29" class="edge"><title>2179092018512&#45;&#45;2179092019424</title>
<path fill="none" stroke="black" d="M725.204,-146.496C737.218,-134.482 754.206,-117.494 766.215,-105.485"/>
</g>
<!-- 2179092019712 -->
<g id="node38" class="node"><title>2179092019712</title>
<ellipse fill="none" stroke="black" cx="1168.7" cy="-90" rx="27" ry="18"/>
<text text-anchor="middle" x="1168.7" y="-86.5" font-family="Times New Roman,serif" font-size="15.00">xor</text>
</g>
<!-- 2179092018512&#45;&#45;2179092019712 -->
<g id="edge32" class="edge"><title>2179092018512&#45;&#45;2179092019712</title>
<path fill="none" stroke="black" d="M736.969,-156.985C817.752,-144.638 1061.9,-107.323 1142.54,-94.9987"/>
</g>
<!-- 2179092020000 -->
<g id="node41" class="node"><title>2179092020000</title>
<ellipse fill="none" stroke="black" cx="1506.7" cy="-90" rx="27" ry="18"/>
<text text-anchor="middle" x="1506.7" y="-86.5" font-family="Times New Roman,serif" font-size="15.00">xor</text>
</g>
<!-- 2179092018512&#45;&#45;2179092020000 -->
<g id="edge35" class="edge"><title>2179092018512&#45;&#45;2179092020000</title>
<path fill="none" stroke="black" d="M737.64,-158.631C859.441,-147.92 1357.98,-104.078 1479.77,-93.3685"/>
</g>
<!-- 2179092018992 -->
<g id="node27" class="node"><title>2179092018992</title>
<ellipse fill="black" stroke="black" cx="2.7" cy="-18" rx="2.7" ry="2.7"/>
</g>
<!-- 2179092018656&#45;&#45;2179092018992 -->
<g id="edge18" class="edge"><title>2179092018656&#45;&#45;2179092018992</title>
<path fill="none" stroke="black" d="M145.447,-79.5595C104.28,-62.0945 19.1048,-25.9596 4.76938,-19.8779"/>
</g>
<!-- 2179092019088 -->
<g id="node28" class="node"><title>2179092019088</title>
<ellipse fill="none" stroke="black" cx="167.7" cy="-18" rx="144.571" ry="18"/>
<text text-anchor="middle" x="167.7" y="-14.5" font-family="Times New Roman,serif" font-size="15.00">Insert Date Appeal to Prefecture</text>
</g>
<!-- 2179092018656&#45;&#45;2179092019088 -->
<g id="edge19" class="edge"><title>2179092018656&#45;&#45;2179092019088</title>
<path fill="none" stroke="black" d="M167.7,-71.6966C167.7,-60.8463 167.7,-46.9167 167.7,-36.1043"/>
</g>
<!-- 2179092019280 -->
<g id="node30" class="node"><title>2179092019280</title>
<ellipse fill="black" stroke="black" cx="332.7" cy="-18" rx="2.7" ry="2.7"/>
</g>
<!-- 2179092018848&#45;&#45;2179092019280 -->
<g id="edge21" class="edge"><title>2179092018848&#45;&#45;2179092019280</title>
<path fill="none" stroke="black" d="M399.302,-75.1703C378.137,-57.3201 343.019,-27.7024 334.57,-20.5768"/>
</g>
<!-- 2179092019376 -->
<g id="node31" class="node"><title>2179092019376</title>
<ellipse fill="none" stroke="black" cx="415.7" cy="-18" rx="61.6894" ry="18"/>
<text text-anchor="middle" x="415.7" y="-14.5" font-family="Times New Roman,serif" font-size="15.00">Add penalty</text>
</g>
<!-- 2179092018848&#45;&#45;2179092019376 -->
<g id="edge22" class="edge"><title>2179092018848&#45;&#45;2179092019376</title>
<path fill="none" stroke="black" d="M415.7,-71.6966C415.7,-60.8463 415.7,-46.9167 415.7,-36.1043"/>
</g>
<!-- 2179092019568 -->
<g id="node33" class="node"><title>2179092019568</title>
<ellipse fill="black" stroke="black" cx="498.7" cy="-18" rx="2.7" ry="2.7"/>
</g>
<!-- 2179092019136&#45;&#45;2179092019568 -->
<g id="edge24" class="edge"><title>2179092019136&#45;&#45;2179092019568</title>
<path fill="none" stroke="black" d="M618.591,-78.5203C582.944,-60.8234 513.442,-26.3188 500.724,-20.0047"/>
</g>
<!-- 2179092019664 -->
<g id="node34" class="node"><title>2179092019664</title>
<ellipse fill="none" stroke="black" cx="639.7" cy="-18" rx="120.43" ry="18"/>
<text text-anchor="middle" x="639.7" y="-14.5" font-family="Times New Roman,serif" font-size="15.00">Send Appeal to Prefecture</text>
</g>
<!-- 2179092019136&#45;&#45;2179092019664 -->
<g id="edge25" class="edge"><title>2179092019136&#45;&#45;2179092019664</title>
<path fill="none" stroke="black" d="M639.7,-71.6966C639.7,-60.8463 639.7,-46.9167 639.7,-36.1043"/>
</g>
<!-- 2179092019856 -->
<g id="node36" class="node"><title>2179092019856</title>
<ellipse fill="black" stroke="black" cx="780.7" cy="-18" rx="2.7" ry="2.7"/>
</g>
<!-- 2179092019424&#45;&#45;2179092019856 -->
<g id="edge27" class="edge"><title>2179092019424&#45;&#45;2179092019856</title>
<path fill="none" stroke="black" d="M780.7,-71.6966C780.7,-53.8826 780.7,-27.7686 780.7,-20.7764"/>
</g>
<!-- 2179092019952 -->
<g id="node37" class="node"><title>2179092019952</title>
<ellipse fill="none" stroke="black" cx="974.7" cy="-18" rx="173.941" ry="18"/>
<text text-anchor="middle" x="974.7" y="-14.5" font-family="Times New Roman,serif" font-size="15.00">Receive Result Appeal from Prefecture</text>
</g>
<!-- 2179092019424&#45;&#45;2179092019952 -->
<g id="edge28" class="edge"><title>2179092019424&#45;&#45;2179092019952</title>
<path fill="none" stroke="black" d="M804.101,-80.5564C834.939,-69.4293 889.853,-49.615 929.049,-35.472"/>
</g>
<!-- 2179092020144 -->
<g id="node39" class="node"><title>2179092020144</title>
<ellipse fill="black" stroke="black" cx="1168.7" cy="-18" rx="2.7" ry="2.7"/>
</g>
<!-- 2179092019712&#45;&#45;2179092020144 -->
<g id="edge30" class="edge"><title>2179092019712&#45;&#45;2179092020144</title>
<path fill="none" stroke="black" d="M1168.7,-71.6966C1168.7,-53.8826 1168.7,-27.7686 1168.7,-20.7764"/>
</g>
<!-- 2179092020240 -->
<g id="node40" class="node"><title>2179092020240</title>
<ellipse fill="none" stroke="black" cx="1337.7" cy="-18" rx="148.91" ry="18"/>
<text text-anchor="middle" x="1337.7" y="-14.5" font-family="Times New Roman,serif" font-size="15.00">Notify Result Appeal to Offender</text>
</g>
<!-- 2179092019712&#45;&#45;2179092020240 -->
<g id="edge31" class="edge"><title>2179092019712&#45;&#45;2179092020240</title>
<path fill="none" stroke="black" d="M1191.14,-79.7045C1218.35,-68.4359 1264.68,-49.2446 1297.97,-35.4544"/>
</g>
<!-- 2179092020432 -->
<g id="node42" class="node"><title>2179092020432</title>
<ellipse fill="black" stroke="black" cx="1506.7" cy="-18" rx="2.7" ry="2.7"/>
</g>
<!-- 2179092020000&#45;&#45;2179092020432 -->
<g id="edge33" class="edge"><title>2179092020000&#45;&#45;2179092020432</title>
<path fill="none" stroke="black" d="M1506.7,-71.6966C1506.7,-53.8826 1506.7,-27.7686 1506.7,-20.7764"/>
</g>
<!-- 2179092020528 -->
<g id="node43" class="node"><title>2179092020528</title>
<ellipse fill="none" stroke="black" cx="1573.7" cy="-18" rx="45.7249" ry="18"/>
<text text-anchor="middle" x="1573.7" y="-14.5" font-family="Times New Roman,serif" font-size="15.00">Payment</text>
</g>
<!-- 2179092020000&#45;&#45;2179092020528 -->
<g id="edge34" class="edge"><title>2179092020000&#45;&#45;2179092020528</title>
<path fill="none" stroke="black" d="M1520.58,-74.496C1531.54,-63.0429 1546.83,-47.0688 1558.2,-35.1982"/>
</g>
<!-- 2179119885664 -->
<g id="node46" class="node"><title>2179119885664</title>
<ellipse fill="black" stroke="black" cx="556.7" cy="-450" rx="2.7" ry="2.7"/>
</g>
<!-- 2179092055568&#45;&#45;2179119885664 -->
<g id="edge43" class="edge"><title>2179092055568&#45;&#45;2179119885664</title>
<path fill="none" stroke="black" d="M560.464,-503.697C559.192,-485.883 557.326,-459.769 556.827,-452.776"/>
</g>
<!-- 2179092017504 -->
<g id="node47" class="node"><title>2179092017504</title>
<ellipse fill="none" stroke="black" cx="604.7" cy="-450" rx="27" ry="18"/>
<text text-anchor="middle" x="604.7" y="-446.5" font-family="Times New Roman,serif" font-size="15.00">seq</text>
</g>
<!-- 2179092055568&#45;&#45;2179092017504 -->
<g id="edge48" class="edge"><title>2179092055568&#45;&#45;2179092017504</title>
<path fill="none" stroke="black" d="M571.457,-505.116C578.495,-493.66 587.953,-478.263 594.981,-466.821"/>
</g>
<!-- 2179092018176 -->
<g id="node48" class="node"><title>2179092018176</title>
<ellipse fill="none" stroke="black" cx="601.7" cy="-378" rx="120.819" ry="18"/>
<text text-anchor="middle" x="601.7" y="-374.5" font-family="Times New Roman,serif" font-size="15.00">Send for Credit Collection</text>
</g>
<!-- 2179092017504&#45;&#45;2179092018176 -->
<g id="edge44" class="edge"><title>2179092017504&#45;&#45;2179092018176</title>
<path fill="none" stroke="black" d="M603.958,-431.697C603.493,-420.846 602.896,-406.917 602.433,-396.104"/>
</g>
<!-- 2179092018560 -->
<g id="node49" class="node"><title>2179092018560</title>
<ellipse fill="none" stroke="black" cx="767.7" cy="-378" rx="27" ry="18"/>
<text text-anchor="middle" x="767.7" y="-374.5" font-family="Times New Roman,serif" font-size="15.00">xor</text>
</g>
<!-- 2179092017504&#45;&#45;2179092018560 -->
<g id="edge47" class="edge"><title>2179092017504&#45;&#45;2179092018560</title>
<path fill="none" stroke="black" d="M627.023,-439.414C658.237,-426.009 714.578,-401.813 745.647,-388.471"/>
</g>
<!-- 2179092020720 -->
<g id="node50" class="node"><title>2179092020720</title>
<ellipse fill="black" stroke="black" cx="696.7" cy="-306" rx="2.7" ry="2.7"/>
</g>
<!-- 2179092018560&#45;&#45;2179092020720 -->
<g id="edge45" class="edge"><title>2179092018560&#45;&#45;2179092020720</title>
<path fill="none" stroke="black" d="M752.989,-362.496C734.792,-344.555 705.343,-315.522 698.266,-308.544"/>
</g>
<!-- 2179092020624 -->
<g id="node51" class="node"><title>2179092020624</title>
<ellipse fill="none" stroke="black" cx="837.7" cy="-306" rx="120.43" ry="18"/>
<text text-anchor="middle" x="837.7" y="-302.5" font-family="Times New Roman,serif" font-size="15.00">Send Appeal to Prefecture</text>
</g>
<!-- 2179092018560&#45;&#45;2179092020624 -->
<g id="edge46" class="edge"><title>2179092018560&#45;&#45;2179092020624</title>
<path fill="none" stroke="black" d="M782.204,-362.496C793.417,-351.283 808.963,-335.737 820.749,-323.951"/>
</g>
</g>
</svg>
