<?xml version="1.0" encoding="UTF-8" standalone="no"?>
<!DOCTYPE svg PUBLIC "-//W3C//DTD SVG 1.1//EN"
 "http://www.w3.org/Graphics/SVG/1.1/DTD/svg11.dtd">
<!-- Generated by graphviz version 2.38.0 (20140413.2041)
 -->
<!-- Title: pt Pages: 1 -->
<svg width="1561pt" height="620pt"
 viewBox="0.00 0.00 1560.62 620.00" xmlns="http://www.w3.org/2000/svg" xmlns:xlink="http://www.w3.org/1999/xlink">
<g id="graph0" class="graph" transform="scale(1 1) rotate(0) translate(4 616)">
<title>pt</title>
<!-- 2179099941712 -->
<g id="node1" class="node"><title>2179099941712</title>
<ellipse fill="none" stroke="black" cx="200.76" cy="-594" rx="27" ry="18"/>
<text text-anchor="middle" x="200.76" y="-590.5" font-family="Times New Roman,serif" font-size="15.00">seq</text>
</g>
<!-- 2179099942480 -->
<g id="node2" class="node"><title>2179099942480</title>
<ellipse fill="none" stroke="black" cx="59.7599" cy="-522" rx="59.5207" ry="18"/>
<text text-anchor="middle" x="59.7599" y="-518.5" font-family="Times New Roman,serif" font-size="15.00">Create Fine</text>
</g>
<!-- 2179099941712&#45;&#45;2179099942480 -->
<g id="edge1" class="edge"><title>2179099941712&#45;&#45;2179099942480</title>
<path fill="none" stroke="black" d="M179.651,-582.52C155.681,-570.621 116.405,-551.122 89.3772,-537.704"/>
</g>
<!-- 2179099942288 -->
<g id="node3" class="node"><title>2179099942288</title>
<ellipse fill="none" stroke="black" cx="164.76" cy="-522" rx="27" ry="18"/>
<text text-anchor="middle" x="164.76" y="-518.5" font-family="Times New Roman,serif" font-size="15.00">xor</text>
</g>
<!-- 2179099941712&#45;&#45;2179099942288 -->
<g id="edge4" class="edge"><title>2179099941712&#45;&#45;2179099942288</title>
<path fill="none" stroke="black" d="M192.41,-576.765C186.594,-565.456 178.87,-550.437 173.064,-539.147"/>
</g>
<!-- 2179099942192 -->
<g id="node6" class="node"><title>2179099942192</title>
<ellipse fill="none" stroke="black" cx="236.76" cy="-522" rx="27" ry="18"/>
<text text-anchor="middle" x="236.76" y="-518.5" font-family="Times New Roman,serif" font-size="15.00">xor</text>
</g>
<!-- 2179099941712&#45;&#45;2179099942192 -->
<g id="edge7" class="edge"><title>2179099941712&#45;&#45;2179099942192</title>
<path fill="none" stroke="black" d="M209.109,-576.765C214.925,-565.456 222.65,-550.437 228.456,-539.147"/>
</g>
<!-- 2179099941760 -->
<g id="node9" class="node"><title>2179099941760</title>
<ellipse fill="none" stroke="black" cx="379.76" cy="-522" rx="27" ry="18"/>
<text text-anchor="middle" x="379.76" y="-518.5" font-family="Times New Roman,serif" font-size="15.00">xor</text>
</g>
<!-- 2179099941712&#45;&#45;2179099941760 -->
<g id="edge38" class="edge"><title>2179099941712&#45;&#45;2179099941760</title>
<path fill="none" stroke="black" d="M223.43,-584.134C257.768,-570.706 322.596,-545.355 356.991,-531.904"/>
</g>
<!-- 2179099674944 -->
<g id="node4" class="node"><title>2179099674944</title>
<ellipse fill="black" stroke="black" cx="97.7599" cy="-450" rx="2.7" ry="2.7"/>
</g>
<!-- 2179099942288&#45;&#45;2179099674944 -->
<g id="edge2" class="edge"><title>2179099942288&#45;&#45;2179099674944</title>
<path fill="none" stroke="black" d="M150.877,-506.496C133.706,-488.555 105.916,-459.522 99.2374,-452.544"/>
</g>
<!-- 2179099942576 -->
<g id="node5" class="node"><title>2179099942576</title>
<ellipse fill="none" stroke="black" cx="164.76" cy="-450" rx="45.7249" ry="18"/>
<text text-anchor="middle" x="164.76" y="-446.5" font-family="Times New Roman,serif" font-size="15.00">Payment</text>
</g>
<!-- 2179099942288&#45;&#45;2179099942576 -->
<g id="edge3" class="edge"><title>2179099942288&#45;&#45;2179099942576</title>
<path fill="none" stroke="black" d="M164.76,-503.697C164.76,-492.846 164.76,-478.917 164.76,-468.104"/>
</g>
<!-- 2179099675856 -->
<g id="node7" class="node"><title>2179099675856</title>
<ellipse fill="black" stroke="black" cx="231.76" cy="-450" rx="2.7" ry="2.7"/>
</g>
<!-- 2179099942192&#45;&#45;2179099675856 -->
<g id="edge5" class="edge"><title>2179099942192&#45;&#45;2179099675856</title>
<path fill="none" stroke="black" d="M235.524,-503.697C234.251,-485.883 232.386,-459.769 231.887,-452.776"/>
</g>
<!-- 2179099675376 -->
<g id="node8" class="node"><title>2179099675376</title>
<ellipse fill="none" stroke="black" cx="305.76" cy="-450" rx="52.6228" ry="18"/>
<text text-anchor="middle" x="305.76" y="-446.5" font-family="Times New Roman,serif" font-size="15.00">Send Fine</text>
</g>
<!-- 2179099942192&#45;&#45;2179099675376 -->
<g id="edge6" class="edge"><title>2179099942192&#45;&#45;2179099675376</title>
<path fill="none" stroke="black" d="M251.057,-506.496C262.346,-495.043 278.092,-479.069 289.793,-467.198"/>
</g>
<!-- 2179099676096 -->
<g id="node10" class="node"><title>2179099676096</title>
<ellipse fill="black" stroke="black" cx="379.76" cy="-450" rx="2.7" ry="2.7"/>
</g>
<!-- 2179099941760&#45;&#45;2179099676096 -->
<g id="edge8" class="edge"><title>2179099941760&#45;&#45;2179099676096</title>
<path fill="none" stroke="black" d="M379.76,-503.697C379.76,-485.883 379.76,-459.769 379.76,-452.776"/>
</g>
<!-- 2179099675472 -->
<g id="node11" class="node"><title>2179099675472</title>
<ellipse fill="none" stroke="black" cx="427.76" cy="-450" rx="27" ry="18"/>
<text text-anchor="middle" x="427.76" y="-446.5" font-family="Times New Roman,serif" font-size="15.00">seq</text>
</g>
<!-- 2179099941760&#45;&#45;2179099675472 -->
<g id="edge37" class="edge"><title>2179099941760&#45;&#45;2179099675472</title>
<path fill="none" stroke="black" d="M390.652,-505.116C398.507,-493.66 409.065,-478.263 416.911,-466.821"/>
</g>
<!-- 2179099675808 -->
<g id="node12" class="node"><title>2179099675808</title>
<ellipse fill="none" stroke="black" cx="194.76" cy="-378" rx="27" ry="18"/>
<text text-anchor="middle" x="194.76" y="-374.5" font-family="Times New Roman,serif" font-size="15.00">xor</text>
</g>
<!-- 2179099675472&#45;&#45;2179099675808 -->
<g id="edge11" class="edge"><title>2179099675472&#45;&#45;2179099675808</title>
<path fill="none" stroke="black" d="M403.702,-441.772C359.054,-428.359 263.848,-399.756 219.036,-386.293"/>
</g>
<!-- 2179099675568 -->
<g id="node15" class="node"><title>2179099675568</title>
<ellipse fill="none" stroke="black" cx="427.76" cy="-378" rx="27" ry="18"/>
<text text-anchor="middle" x="427.76" y="-374.5" font-family="Times New Roman,serif" font-size="15.00">and</text>
</g>
<!-- 2179099675472&#45;&#45;2179099675568 -->
<g id="edge21" class="edge"><title>2179099675472&#45;&#45;2179099675568</title>
<path fill="none" stroke="black" d="M427.76,-431.697C427.76,-420.846 427.76,-406.917 427.76,-396.104"/>
</g>
<!-- 2179099675904 -->
<g id="node25" class="node"><title>2179099675904</title>
<ellipse fill="none" stroke="black" cx="548.76" cy="-378" rx="27" ry="18"/>
<text text-anchor="middle" x="548.76" y="-374.5" font-family="Times New Roman,serif" font-size="15.00">xor</text>
</g>
<!-- 2179099675472&#45;&#45;2179099675904 -->
<g id="edge36" class="edge"><title>2179099675472&#45;&#45;2179099675904</title>
<path fill="none" stroke="black" d="M447.47,-437.597C469.971,-424.581 506.561,-403.413 529.058,-390.398"/>
</g>
<!-- 2179099676192 -->
<g id="node13" class="node"><title>2179099676192</title>
<ellipse fill="black" stroke="black" cx="66.7599" cy="-306" rx="2.7" ry="2.7"/>
</g>
<!-- 2179099675808&#45;&#45;2179099676192 -->
<g id="edge9" class="edge"><title>2179099675808&#45;&#45;2179099676192</title>
<path fill="none" stroke="black" d="M174.478,-365.908C142.051,-348.175 80.9423,-314.756 68.8641,-308.151"/>
</g>
<!-- 2179099675232 -->
<g id="node14" class="node"><title>2179099675232</title>
<ellipse fill="none" stroke="black" cx="194.76" cy="-306" rx="107.914" ry="18"/>
<text text-anchor="middle" x="194.76" y="-302.5" font-family="Times New Roman,serif" font-size="15.00">Insert Fine Notification</text>
</g>
<!-- 2179099675808&#45;&#45;2179099675232 -->
<g id="edge10" class="edge"><title>2179099675808&#45;&#45;2179099675232</title>
<path fill="none" stroke="black" d="M194.76,-359.697C194.76,-348.846 194.76,-334.917 194.76,-324.104"/>
</g>
<!-- 2179099675952 -->
<g id="node16" class="node"><title>2179099675952</title>
<ellipse fill="none" stroke="black" cx="347.76" cy="-306" rx="27" ry="18"/>
<text text-anchor="middle" x="347.76" y="-302.5" font-family="Times New Roman,serif" font-size="15.00">xor</text>
</g>
<!-- 2179099675568&#45;&#45;2179099675952 -->
<g id="edge14" class="edge"><title>2179099675568&#45;&#45;2179099675952</title>
<path fill="none" stroke="black" d="M411.954,-363.17C397.929,-350.898 377.548,-333.064 363.532,-320.801"/>
</g>
<!-- 2179099675760 -->
<g id="node19" class="node"><title>2179099675760</title>
<ellipse fill="none" stroke="black" cx="458.76" cy="-306" rx="27" ry="18"/>
<text text-anchor="middle" x="458.76" y="-302.5" font-family="Times New Roman,serif" font-size="15.00">xor</text>
</g>
<!-- 2179099675568&#45;&#45;2179099675760 -->
<g id="edge20" class="edge"><title>2179099675568&#45;&#45;2179099675760</title>
<path fill="none" stroke="black" d="M435.106,-360.411C440.048,-349.252 446.535,-334.604 451.466,-323.47"/>
</g>
<!-- 2179099675088 -->
<g id="node17" class="node"><title>2179099675088</title>
<ellipse fill="black" stroke="black" cx="244.76" cy="-234" rx="2.7" ry="2.7"/>
</g>
<!-- 2179099675952&#45;&#45;2179099675088 -->
<g id="edge12" class="edge"><title>2179099675952&#45;&#45;2179099675088</title>
<path fill="none" stroke="black" d="M329.346,-292.485C302.959,-274.553 256.479,-242.965 246.627,-236.269"/>
</g>
<!-- 2179099675280 -->
<g id="node18" class="node"><title>2179099675280</title>
<ellipse fill="none" stroke="black" cx="327.76" cy="-234" rx="61.6894" ry="18"/>
<text text-anchor="middle" x="327.76" y="-230.5" font-family="Times New Roman,serif" font-size="15.00">Add penalty</text>
</g>
<!-- 2179099675952&#45;&#45;2179099675280 -->
<g id="edge13" class="edge"><title>2179099675952&#45;&#45;2179099675280</title>
<path fill="none" stroke="black" d="M342.918,-288.055C339.82,-277.211 335.812,-263.183 332.696,-252.275"/>
</g>
<!-- 2179099674704 -->
<g id="node20" class="node"><title>2179099674704</title>
<ellipse fill="black" stroke="black" cx="410.76" cy="-234" rx="2.7" ry="2.7"/>
</g>
<!-- 2179099675760&#45;&#45;2179099674704 -->
<g id="edge15" class="edge"><title>2179099675760&#45;&#45;2179099674704</title>
<path fill="none" stroke="black" d="M447.868,-289.116C435.697,-271.367 417.04,-244.158 412.033,-236.857"/>
</g>
<!-- 2179099674608 -->
<g id="node21" class="node"><title>2179099674608</title>
<ellipse fill="none" stroke="black" cx="477.76" cy="-234" rx="46.6143" ry="18"/>
<text text-anchor="middle" x="477.76" y="-230.5" font-family="Times New Roman,serif" font-size="15.00">xor loop</text>
</g>
<!-- 2179099675760&#45;&#45;2179099674608 -->
<g id="edge18" class="edge"><title>2179099675760&#45;&#45;2179099674608</title>
<path fill="none" stroke="black" d="M463.359,-288.055C466.303,-277.211 470.11,-263.183 473.071,-252.275"/>
</g>
<!-- 2179099674320 -->
<g id="node24" class="node"><title>2179099674320</title>
<ellipse fill="none" stroke="black" cx="686.76" cy="-234" rx="144.571" ry="18"/>
<text text-anchor="middle" x="686.76" y="-230.5" font-family="Times New Roman,serif" font-size="15.00">Insert Date Appeal to Prefecture</text>
</g>
<!-- 2179099675760&#45;&#45;2179099674320 -->
<g id="edge19" class="edge"><title>2179099675760&#45;&#45;2179099674320</title>
<path fill="none" stroke="black" d="M482.729,-297.641C518.629,-286.619 587.234,-265.556 634.927,-250.913"/>
</g>
<!-- 2179099674272 -->
<g id="node22" class="node"><title>2179099674272</title>
<ellipse fill="none" stroke="black" cx="443.76" cy="-162" rx="45.7249" ry="18"/>
<text text-anchor="middle" x="443.76" y="-158.5" font-family="Times New Roman,serif" font-size="15.00">Payment</text>
</g>
<!-- 2179099674608&#45;&#45;2179099674272 -->
<g id="edge16" class="edge"><title>2179099674608&#45;&#45;2179099674272</title>
<path fill="none" stroke="black" d="M469.529,-216.055C464.184,-205.049 457.245,-190.764 451.915,-179.789"/>
</g>
<!-- 2179099674176 -->
<g id="node23" class="node"><title>2179099674176</title>
<ellipse fill="black" stroke="black" cx="510.76" cy="-162" rx="2.7" ry="2.7"/>
</g>
<!-- 2179099674608&#45;&#45;2179099674176 -->
<g id="edge17" class="edge"><title>2179099674608&#45;&#45;2179099674176</title>
<path fill="none" stroke="black" d="M485.748,-216.055C494.141,-198.252 506.581,-171.865 509.913,-164.796"/>
</g>
<!-- 2179099674560 -->
<g id="node26" class="node"><title>2179099674560</title>
<ellipse fill="black" stroke="black" cx="518.76" cy="-306" rx="2.7" ry="2.7"/>
</g>
<!-- 2179099675904&#45;&#45;2179099674560 -->
<g id="edge22" class="edge"><title>2179099675904&#45;&#45;2179099674560</title>
<path fill="none" stroke="black" d="M541.65,-360.411C534.026,-342.622 522.601,-315.962 519.538,-308.816"/>
</g>
<!-- 2179099674080 -->
<g id="node27" class="node"><title>2179099674080</title>
<ellipse fill="none" stroke="black" cx="660.76" cy="-306" rx="120.819" ry="18"/>
<text text-anchor="middle" x="660.76" y="-302.5" font-family="Times New Roman,serif" font-size="15.00">Send for Credit Collection</text>
</g>
<!-- 2179099675904&#45;&#45;2179099674080 -->
<g id="edge23" class="edge"><title>2179099675904&#45;&#45;2179099674080</title>
<path fill="none" stroke="black" d="M567.759,-365.125C585.983,-353.736 613.669,-336.432 634.098,-323.664"/>
</g>
<!-- 2179099673888 -->
<g id="node28" class="node"><title>2179099673888</title>
<ellipse fill="none" stroke="black" cx="1052.76" cy="-306" rx="27" ry="18"/>
<text text-anchor="middle" x="1052.76" y="-302.5" font-family="Times New Roman,serif" font-size="15.00">seq</text>
</g>
<!-- 2179099675904&#45;&#45;2179099673888 -->
<g id="edge35" class="edge"><title>2179099675904&#45;&#45;2179099673888</title>
<path fill="none" stroke="black" d="M575.147,-373.335C662.241,-361.239 939.922,-322.672 1026.63,-310.629"/>
</g>
<!-- 2179099673840 -->
<g id="node29" class="node"><title>2179099673840</title>
<ellipse fill="none" stroke="black" cx="969.76" cy="-234" rx="120.43" ry="18"/>
<text text-anchor="middle" x="969.76" y="-230.5" font-family="Times New Roman,serif" font-size="15.00">Send Appeal to Prefecture</text>
</g>
<!-- 2179099673888&#45;&#45;2179099673840 -->
<g id="edge24" class="edge"><title>2179099673888&#45;&#45;2179099673840</title>
<path fill="none" stroke="black" d="M1036.36,-291.17C1022.94,-279.855 1003.92,-263.81 989.637,-251.764"/>
</g>
<!-- 2179099673744 -->
<g id="node30" class="node"><title>2179099673744</title>
<ellipse fill="none" stroke="black" cx="1134.76" cy="-234" rx="27" ry="18"/>
<text text-anchor="middle" x="1134.76" y="-230.5" font-family="Times New Roman,serif" font-size="15.00">xor</text>
</g>
<!-- 2179099673888&#45;&#45;2179099673744 -->
<g id="edge27" class="edge"><title>2179099673888&#45;&#45;2179099673744</title>
<path fill="none" stroke="black" d="M1068.96,-291.17C1083.43,-278.819 1104.5,-260.832 1118.87,-248.563"/>
</g>
<!-- 2179099673456 -->
<g id="node33" class="node"><title>2179099673456</title>
<ellipse fill="none" stroke="black" cx="1328.76" cy="-234" rx="27" ry="18"/>
<text text-anchor="middle" x="1328.76" y="-230.5" font-family="Times New Roman,serif" font-size="15.00">xor</text>
</g>
<!-- 2179099673888&#45;&#45;2179099673456 -->
<g id="edge34" class="edge"><title>2179099673888&#45;&#45;2179099673456</title>
<path fill="none" stroke="black" d="M1077.74,-298.665C1130.29,-285.337 1251.71,-254.541 1304.04,-241.271"/>
</g>
<!-- 2179099673408 -->
<g id="node31" class="node"><title>2179099673408</title>
<ellipse fill="black" stroke="black" cx="940.76" cy="-162" rx="2.7" ry="2.7"/>
</g>
<!-- 2179099673744&#45;&#45;2179099673408 -->
<g id="edge25" class="edge"><title>2179099673744&#45;&#45;2179099673408</title>
<path fill="none" stroke="black" d="M1111.36,-224.556C1063.79,-207.393 958.942,-169.561 942.85,-163.754"/>
</g>
<!-- 2179099673312 -->
<g id="node32" class="node"><title>2179099673312</title>
<ellipse fill="none" stroke="black" cx="1134.76" cy="-162" rx="173.941" ry="18"/>
<text text-anchor="middle" x="1134.76" y="-158.5" font-family="Times New Roman,serif" font-size="15.00">Receive Result Appeal from Prefecture</text>
</g>
<!-- 2179099673744&#45;&#45;2179099673312 -->
<g id="edge26" class="edge"><title>2179099673744&#45;&#45;2179099673312</title>
<path fill="none" stroke="black" d="M1134.76,-215.697C1134.76,-204.846 1134.76,-190.917 1134.76,-180.104"/>
</g>
<!-- 2179099673072 -->
<g id="node34" class="node"><title>2179099673072</title>
<ellipse fill="black" stroke="black" cx="1328.76" cy="-162" rx="2.7" ry="2.7"/>
</g>
<!-- 2179099673456&#45;&#45;2179099673072 -->
<g id="edge28" class="edge"><title>2179099673456&#45;&#45;2179099673072</title>
<path fill="none" stroke="black" d="M1328.76,-215.697C1328.76,-197.883 1328.76,-171.769 1328.76,-164.776"/>
</g>
<!-- 2179099672976 -->
<g id="node35" class="node"><title>2179099672976</title>
<ellipse fill="none" stroke="black" cx="1376.76" cy="-162" rx="27" ry="18"/>
<text text-anchor="middle" x="1376.76" y="-158.5" font-family="Times New Roman,serif" font-size="15.00">seq</text>
</g>
<!-- 2179099673456&#45;&#45;2179099672976 -->
<g id="edge33" class="edge"><title>2179099673456&#45;&#45;2179099672976</title>
<path fill="none" stroke="black" d="M1339.65,-217.116C1347.51,-205.66 1358.07,-190.263 1365.91,-178.821"/>
</g>
<!-- 2179099672736 -->
<g id="node36" class="node"><title>2179099672736</title>
<ellipse fill="none" stroke="black" cx="1279.76" cy="-90" rx="148.91" ry="18"/>
<text text-anchor="middle" x="1279.76" y="-86.5" font-family="Times New Roman,serif" font-size="15.00">Notify Result Appeal to Offender</text>
</g>
<!-- 2179099672976&#45;&#45;2179099672736 -->
<g id="edge29" class="edge"><title>2179099672976&#45;&#45;2179099672736</title>
<path fill="none" stroke="black" d="M1358.97,-148.161C1343.33,-136.873 1320.44,-120.36 1303.29,-107.981"/>
</g>
<!-- 2179099672688 -->
<g id="node37" class="node"><title>2179099672688</title>
<ellipse fill="none" stroke="black" cx="1473.76" cy="-90" rx="27" ry="18"/>
<text text-anchor="middle" x="1473.76" y="-86.5" font-family="Times New Roman,serif" font-size="15.00">xor</text>
</g>
<!-- 2179099672976&#45;&#45;2179099672688 -->
<g id="edge32" class="edge"><title>2179099672976&#45;&#45;2179099672688</title>
<path fill="none" stroke="black" d="M1394.55,-148.161C1412.05,-135.531 1438.62,-116.36 1456.08,-103.758"/>
</g>
<!-- 2179100086176 -->
<g id="node38" class="node"><title>2179100086176</title>
<ellipse fill="black" stroke="black" cx="1439.76" cy="-18" rx="2.7" ry="2.7"/>
</g>
<!-- 2179099672688&#45;&#45;2179100086176 -->
<g id="edge30" class="edge"><title>2179099672688&#45;&#45;2179100086176</title>
<path fill="none" stroke="black" d="M1465.87,-72.7646C1457.24,-54.9939 1444.16,-28.0601 1440.65,-20.8363"/>
</g>
<!-- 2179097680048 -->
<g id="node39" class="node"><title>2179097680048</title>
<ellipse fill="none" stroke="black" cx="1506.76" cy="-18" rx="45.7249" ry="18"/>
<text text-anchor="middle" x="1506.76" y="-14.5" font-family="Times New Roman,serif" font-size="15.00">Payment</text>
</g>
<!-- 2179099672688&#45;&#45;2179097680048 -->
<g id="edge31" class="edge"><title>2179099672688&#45;&#45;2179097680048</title>
<path fill="none" stroke="black" d="M1481.58,-72.411C1486.76,-61.4141 1493.55,-47.0274 1498.77,-35.9562"/>
</g>
</g>
</svg>
