<?xml version="1.0" encoding="UTF-8" standalone="no"?>
<!DOCTYPE svg PUBLIC "-//W3C//DTD SVG 1.1//EN"
 "http://www.w3.org/Graphics/SVG/1.1/DTD/svg11.dtd">
<!-- Generated by graphviz version 2.38.0 (20140413.2041)
 -->
<!-- Title: pt Pages: 1 -->
<svg width="918pt" height="476pt"
 viewBox="0.00 0.00 918.47 476.00" xmlns="http://www.w3.org/2000/svg" xmlns:xlink="http://www.w3.org/1999/xlink">
<g id="graph0" class="graph" transform="scale(1 1) rotate(0) translate(4 472)">
<title>pt</title>
<!-- 2179088686336 -->
<g id="node1" class="node"><title>2179088686336</title>
<ellipse fill="none" stroke="black" cx="223.557" cy="-450" rx="27" ry="18"/>
<text text-anchor="middle" x="223.557" y="-446.5" font-family="Times New Roman,serif" font-size="15.00">and</text>
</g>
<!-- 2178930651040 -->
<g id="node2" class="node"><title>2178930651040</title>
<ellipse fill="none" stroke="black" cx="145.557" cy="-378" rx="27" ry="18"/>
<text text-anchor="middle" x="145.557" y="-374.5" font-family="Times New Roman,serif" font-size="15.00">xor</text>
</g>
<!-- 2179088686336&#45;&#45;2178930651040 -->
<g id="edge7" class="edge"><title>2179088686336&#45;&#45;2178930651040</title>
<path fill="none" stroke="black" d="M208.147,-435.17C194.472,-422.898 174.6,-405.064 160.935,-392.801"/>
</g>
<!-- 2178930647968 -->
<g id="node9" class="node"><title>2178930647968</title>
<ellipse fill="none" stroke="black" cx="302.557" cy="-378" rx="27" ry="18"/>
<text text-anchor="middle" x="302.557" y="-374.5" font-family="Times New Roman,serif" font-size="15.00">seq</text>
</g>
<!-- 2179088686336&#45;&#45;2178930647968 -->
<g id="edge30" class="edge"><title>2179088686336&#45;&#45;2178930647968</title>
<path fill="none" stroke="black" d="M239.165,-435.17C253.015,-422.898 273.142,-405.064 286.982,-392.801"/>
</g>
<!-- 2178930648736 -->
<g id="node3" class="node"><title>2178930648736</title>
<ellipse fill="black" stroke="black" cx="97.5571" cy="-306" rx="2.7" ry="2.7"/>
</g>
<!-- 2178930651040&#45;&#45;2178930648736 -->
<g id="edge1" class="edge"><title>2178930651040&#45;&#45;2178930648736</title>
<path fill="none" stroke="black" d="M134.665,-361.116C122.495,-343.367 103.837,-316.158 98.8302,-308.857"/>
</g>
<!-- 2178930649216 -->
<g id="node4" class="node"><title>2178930649216</title>
<ellipse fill="none" stroke="black" cx="145.557" cy="-306" rx="27" ry="18"/>
<text text-anchor="middle" x="145.557" y="-302.5" font-family="Times New Roman,serif" font-size="15.00">and</text>
</g>
<!-- 2178930651040&#45;&#45;2178930649216 -->
<g id="edge6" class="edge"><title>2178930651040&#45;&#45;2178930649216</title>
<path fill="none" stroke="black" d="M145.557,-359.697C145.557,-348.846 145.557,-334.917 145.557,-324.104"/>
</g>
<!-- 2179089736416 -->
<g id="node5" class="node"><title>2179089736416</title>
<ellipse fill="none" stroke="black" cx="46.5571" cy="-234" rx="46.6143" ry="18"/>
<text text-anchor="middle" x="46.5571" y="-230.5" font-family="Times New Roman,serif" font-size="15.00">xor loop</text>
</g>
<!-- 2178930649216&#45;&#45;2179089736416 -->
<g id="edge4" class="edge"><title>2178930649216&#45;&#45;2179089736416</title>
<path fill="none" stroke="black" d="M127.399,-292.161C110.653,-280.32 85.7761,-262.731 68.0463,-250.194"/>
</g>
<!-- 2179089738624 -->
<g id="node8" class="node"><title>2179089738624</title>
<ellipse fill="none" stroke="black" cx="172.557" cy="-234" rx="61.6894" ry="18"/>
<text text-anchor="middle" x="172.557" y="-230.5" font-family="Times New Roman,serif" font-size="15.00">Add penalty</text>
</g>
<!-- 2178930649216&#45;&#45;2179089738624 -->
<g id="edge5" class="edge"><title>2178930649216&#45;&#45;2179089738624</title>
<path fill="none" stroke="black" d="M151.956,-288.411C156.197,-277.414 161.747,-263.027 166.017,-251.956"/>
</g>
<!-- 2179089096608 -->
<g id="node6" class="node"><title>2179089096608</title>
<ellipse fill="black" stroke="black" cx="13.5571" cy="-162" rx="2.7" ry="2.7"/>
</g>
<!-- 2179089736416&#45;&#45;2179089096608 -->
<g id="edge2" class="edge"><title>2179089736416&#45;&#45;2179089096608</title>
<path fill="none" stroke="black" d="M38.5687,-216.055C30.1757,-198.252 17.7365,-171.865 14.4039,-164.796"/>
</g>
<!-- 2178932662720 -->
<g id="node7" class="node"><title>2178932662720</title>
<ellipse fill="none" stroke="black" cx="80.5571" cy="-162" rx="45.7249" ry="18"/>
<text text-anchor="middle" x="80.5571" y="-158.5" font-family="Times New Roman,serif" font-size="15.00">Payment</text>
</g>
<!-- 2179089736416&#45;&#45;2178932662720 -->
<g id="edge3" class="edge"><title>2179089736416&#45;&#45;2178932662720</title>
<path fill="none" stroke="black" d="M54.7876,-216.055C60.1332,-205.049 67.072,-190.764 72.4025,-179.789"/>
</g>
<!-- 2178930648688 -->
<g id="node10" class="node"><title>2178930648688</title>
<ellipse fill="none" stroke="black" cx="250.557" cy="-306" rx="59.5207" ry="18"/>
<text text-anchor="middle" x="250.557" y="-302.5" font-family="Times New Roman,serif" font-size="15.00">Create Fine</text>
</g>
<!-- 2178930647968&#45;&#45;2178930648688 -->
<g id="edge8" class="edge"><title>2178930647968&#45;&#45;2178930648688</title>
<path fill="none" stroke="black" d="M291.017,-361.465C282.758,-350.348 271.647,-335.39 263.157,-323.962"/>
</g>
<!-- 2178930648112 -->
<g id="node11" class="node"><title>2178930648112</title>
<ellipse fill="none" stroke="black" cx="355.557" cy="-306" rx="27" ry="18"/>
<text text-anchor="middle" x="355.557" y="-302.5" font-family="Times New Roman,serif" font-size="15.00">xor</text>
</g>
<!-- 2178930647968&#45;&#45;2178930648112 -->
<g id="edge11" class="edge"><title>2178930647968&#45;&#45;2178930648112</title>
<path fill="none" stroke="black" d="M314.32,-361.465C323.103,-349.865 335.052,-334.082 343.828,-322.492"/>
</g>
<!-- 2178930648784 -->
<g id="node14" class="node"><title>2178930648784</title>
<ellipse fill="none" stroke="black" cx="462.557" cy="-306" rx="27" ry="18"/>
<text text-anchor="middle" x="462.557" y="-302.5" font-family="Times New Roman,serif" font-size="15.00">xor</text>
</g>
<!-- 2178930647968&#45;&#45;2178930648784 -->
<g id="edge29" class="edge"><title>2178930647968&#45;&#45;2178930648784</title>
<path fill="none" stroke="black" d="M324.469,-367.414C355.023,-354.046 410.104,-329.948 440.654,-316.583"/>
</g>
<!-- 2178930647824 -->
<g id="node12" class="node"><title>2178930647824</title>
<ellipse fill="black" stroke="black" cx="281.557" cy="-234" rx="2.7" ry="2.7"/>
</g>
<!-- 2178930648112&#45;&#45;2178930647824 -->
<g id="edge9" class="edge"><title>2178930648112&#45;&#45;2178930647824</title>
<path fill="none" stroke="black" d="M340.582,-290.834C321.662,-272.937 290.661,-243.612 283.206,-236.56"/>
</g>
<!-- 2178930649888 -->
<g id="node13" class="node"><title>2178930649888</title>
<ellipse fill="none" stroke="black" cx="355.557" cy="-234" rx="52.6228" ry="18"/>
<text text-anchor="middle" x="355.557" y="-230.5" font-family="Times New Roman,serif" font-size="15.00">Send Fine</text>
</g>
<!-- 2178930648112&#45;&#45;2178930649888 -->
<g id="edge10" class="edge"><title>2178930648112&#45;&#45;2178930649888</title>
<path fill="none" stroke="black" d="M355.557,-287.697C355.557,-276.846 355.557,-262.917 355.557,-252.104"/>
</g>
<!-- 2178930647584 -->
<g id="node15" class="node"><title>2178930647584</title>
<ellipse fill="black" stroke="black" cx="429.557" cy="-234" rx="2.7" ry="2.7"/>
</g>
<!-- 2178930648784&#45;&#45;2178930647584 -->
<g id="edge12" class="edge"><title>2178930648784&#45;&#45;2178930647584</title>
<path fill="none" stroke="black" d="M454.737,-288.411C446.35,-270.622 433.782,-243.962 430.413,-236.816"/>
</g>
<!-- 2178930647920 -->
<g id="node16" class="node"><title>2178930647920</title>
<ellipse fill="none" stroke="black" cx="496.557" cy="-234" rx="45.7249" ry="18"/>
<text text-anchor="middle" x="496.557" y="-230.5" font-family="Times New Roman,serif" font-size="15.00">Payment</text>
</g>
<!-- 2178930648784&#45;&#45;2178930647920 -->
<g id="edge13" class="edge"><title>2178930648784&#45;&#45;2178930647920</title>
<path fill="none" stroke="black" d="M470.443,-288.765C475.779,-277.779 482.815,-263.292 488.24,-252.124"/>
</g>
<!-- 2178930649504 -->
<g id="node17" class="node"><title>2178930649504</title>
<ellipse fill="none" stroke="black" cx="587.557" cy="-234" rx="27" ry="18"/>
<text text-anchor="middle" x="587.557" y="-230.5" font-family="Times New Roman,serif" font-size="15.00">seq</text>
</g>
<!-- 2178930648784&#45;&#45;2178930649504 -->
<g id="edge28" class="edge"><title>2178930648784&#45;&#45;2178930649504</title>
<path fill="none" stroke="black" d="M482.641,-293.753C505.967,-280.691 544.218,-259.27 567.524,-246.219"/>
</g>
<!-- 2178930648064 -->
<g id="node18" class="node"><title>2178930648064</title>
<ellipse fill="none" stroke="black" cx="480.557" cy="-162" rx="27" ry="18"/>
<text text-anchor="middle" x="480.557" y="-158.5" font-family="Times New Roman,serif" font-size="15.00">seq</text>
</g>
<!-- 2178930649504&#45;&#45;2178930648064 -->
<g id="edge24" class="edge"><title>2178930649504&#45;&#45;2178930648064</title>
<path fill="none" stroke="black" d="M568.919,-220.807C549.4,-208.037 518.914,-188.093 499.341,-175.288"/>
</g>
<!-- 2178930649072 -->
<g id="node29" class="node"><title>2178930649072</title>
<ellipse fill="none" stroke="black" cx="647.557" cy="-162" rx="27" ry="18"/>
<text text-anchor="middle" x="647.557" y="-158.5" font-family="Times New Roman,serif" font-size="15.00">xor</text>
</g>
<!-- 2178930649504&#45;&#45;2178930649072 -->
<g id="edge27" class="edge"><title>2178930649504&#45;&#45;2178930649072</title>
<path fill="none" stroke="black" d="M600.576,-217.811C610.64,-206.07 624.506,-189.893 634.563,-178.159"/>
</g>
<!-- 2178930647200 -->
<g id="node19" class="node"><title>2178930647200</title>
<ellipse fill="none" stroke="black" cx="185.557" cy="-90" rx="107.914" ry="18"/>
<text text-anchor="middle" x="185.557" y="-86.5" font-family="Times New Roman,serif" font-size="15.00">Insert Fine Notification</text>
</g>
<!-- 2178930648064&#45;&#45;2178930647200 -->
<g id="edge14" class="edge"><title>2178930648064&#45;&#45;2178930647200</title>
<path fill="none" stroke="black" d="M455.406,-155.032C409.147,-144.055 309.416,-120.39 245.011,-105.108"/>
</g>
<!-- 2178930647680 -->
<g id="node20" class="node"><title>2178930647680</title>
<ellipse fill="none" stroke="black" cx="338.557" cy="-90" rx="27" ry="18"/>
<text text-anchor="middle" x="338.557" y="-86.5" font-family="Times New Roman,serif" font-size="15.00">xor</text>
</g>
<!-- 2178930648064&#45;&#45;2178930647680 -->
<g id="edge17" class="edge"><title>2178930648064&#45;&#45;2178930647680</title>
<path fill="none" stroke="black" d="M459.298,-150.52C432.528,-137.324 386.8,-114.781 359.961,-101.551"/>
</g>
<!-- 2178930650608 -->
<g id="node23" class="node"><title>2178930650608</title>
<ellipse fill="none" stroke="black" cx="480.557" cy="-90" rx="27" ry="18"/>
<text text-anchor="middle" x="480.557" y="-86.5" font-family="Times New Roman,serif" font-size="15.00">xor</text>
</g>
<!-- 2178930648064&#45;&#45;2178930650608 -->
<g id="edge20" class="edge"><title>2178930648064&#45;&#45;2178930650608</title>
<path fill="none" stroke="black" d="M480.557,-143.697C480.557,-132.846 480.557,-118.917 480.557,-108.104"/>
</g>
<!-- 2178930648592 -->
<g id="node26" class="node"><title>2178930648592</title>
<ellipse fill="none" stroke="black" cx="599.557" cy="-90" rx="27" ry="18"/>
<text text-anchor="middle" x="599.557" y="-86.5" font-family="Times New Roman,serif" font-size="15.00">xor</text>
</g>
<!-- 2178930648064&#45;&#45;2178930648592 -->
<g id="edge23" class="edge"><title>2178930648064&#45;&#45;2178930648592</title>
<path fill="none" stroke="black" d="M500.208,-149.441C522.256,-136.471 557.817,-115.553 579.877,-102.576"/>
</g>
<!-- 2178930651088 -->
<g id="node21" class="node"><title>2178930651088</title>
<ellipse fill="black" stroke="black" cx="127.557" cy="-18" rx="2.7" ry="2.7"/>
</g>
<!-- 2178930647680&#45;&#45;2178930651088 -->
<g id="edge15" class="edge"><title>2178930647680&#45;&#45;2178930651088</title>
<path fill="none" stroke="black" d="M314.763,-81.1062C263.892,-64.2296 147.717,-25.6881 129.875,-19.7689"/>
</g>
<!-- 2178930649168 -->
<g id="node22" class="node"><title>2178930649168</title>
<ellipse fill="none" stroke="black" cx="292.557" cy="-18" rx="144.571" ry="18"/>
<text text-anchor="middle" x="292.557" y="-14.5" font-family="Times New Roman,serif" font-size="15.00">Insert Date Appeal to Prefecture</text>
</g>
<!-- 2178930647680&#45;&#45;2178930649168 -->
<g id="edge16" class="edge"><title>2178930647680&#45;&#45;2178930649168</title>
<path fill="none" stroke="black" d="M328.119,-73.1159C320.909,-62.144 311.323,-47.5568 303.921,-36.2921"/>
</g>
<!-- 2178930650368 -->
<g id="node24" class="node"><title>2178930650368</title>
<ellipse fill="black" stroke="black" cx="457.557" cy="-18" rx="2.7" ry="2.7"/>
</g>
<!-- 2178930650608&#45;&#45;2178930650368 -->
<g id="edge18" class="edge"><title>2178930650608&#45;&#45;2178930650368</title>
<path fill="none" stroke="black" d="M474.989,-72.055C469.14,-54.2515 460.47,-27.8653 458.147,-20.7963"/>
</g>
<!-- 2178930650512 -->
<g id="node25" class="node"><title>2178930650512</title>
<ellipse fill="none" stroke="black" cx="540.557" cy="-18" rx="61.6894" ry="18"/>
<text text-anchor="middle" x="540.557" y="-14.5" font-family="Times New Roman,serif" font-size="15.00">Add penalty</text>
</g>
<!-- 2178930650608&#45;&#45;2178930650512 -->
<g id="edge19" class="edge"><title>2178930650608&#45;&#45;2178930650512</title>
<path fill="none" stroke="black" d="M493.576,-73.811C503.227,-62.5522 516.373,-47.2153 526.305,-35.6278"/>
</g>
<!-- 2179089736176 -->
<g id="node27" class="node"><title>2179089736176</title>
<ellipse fill="black" stroke="black" cx="623.557" cy="-18" rx="2.7" ry="2.7"/>
</g>
<!-- 2178930648592&#45;&#45;2179089736176 -->
<g id="edge21" class="edge"><title>2178930648592&#45;&#45;2179089736176</title>
<path fill="none" stroke="black" d="M605.367,-72.055C611.471,-54.2515 620.518,-27.8653 622.941,-20.7963"/>
</g>
<!-- 2179089736608 -->
<g id="node28" class="node"><title>2179089736608</title>
<ellipse fill="none" stroke="black" cx="764.557" cy="-18" rx="120.43" ry="18"/>
<text text-anchor="middle" x="764.557" y="-14.5" font-family="Times New Roman,serif" font-size="15.00">Send Appeal to Prefecture</text>
</g>
<!-- 2178930648592&#45;&#45;2179089736608 -->
<g id="edge22" class="edge"><title>2178930648592&#45;&#45;2179089736608</title>
<path fill="none" stroke="black" d="M621.81,-79.5595C648.639,-68.1774 694.159,-48.8657 726.581,-35.1109"/>
</g>
<!-- 2179089735936 -->
<g id="node30" class="node"><title>2179089735936</title>
<ellipse fill="black" stroke="black" cx="647.557" cy="-90" rx="2.7" ry="2.7"/>
</g>
<!-- 2178930649072&#45;&#45;2179089735936 -->
<g id="edge25" class="edge"><title>2178930649072&#45;&#45;2179089735936</title>
<path fill="none" stroke="black" d="M647.557,-143.697C647.557,-125.883 647.557,-99.7686 647.557,-92.7764"/>
</g>
<!-- 2179089738240 -->
<g id="node31" class="node"><title>2179089738240</title>
<ellipse fill="none" stroke="black" cx="789.557" cy="-90" rx="120.819" ry="18"/>
<text text-anchor="middle" x="789.557" y="-86.5" font-family="Times New Roman,serif" font-size="15.00">Send for Credit Collection</text>
</g>
<!-- 2178930649072&#45;&#45;2179089738240 -->
<g id="edge26" class="edge"><title>2178930649072&#45;&#45;2179089738240</title>
<path fill="none" stroke="black" d="M668.816,-150.52C691.949,-139.116 729.241,-120.733 756.265,-107.412"/>
</g>
</g>
</svg>
