<?xml version="1.0" encoding="UTF-8" standalone="no"?>
<!DOCTYPE svg PUBLIC "-//W3C//DTD SVG 1.1//EN"
 "http://www.w3.org/Graphics/SVG/1.1/DTD/svg11.dtd">
<!-- Generated by graphviz version 2.38.0 (20140413.2041)
 -->
<!-- Title: pt Pages: 1 -->
<svg width="715pt" height="332pt"
 viewBox="0.00 0.00 715.47 332.00" xmlns="http://www.w3.org/2000/svg" xmlns:xlink="http://www.w3.org/1999/xlink">
<g id="graph0" class="graph" transform="scale(1 1) rotate(0) translate(4 328)">
<title>pt</title>
<!-- 2178928896512 -->
<g id="node1" class="node"><title>2178928896512</title>
<ellipse fill="none" stroke="black" cx="242.557" cy="-306" rx="27" ry="18"/>
<text text-anchor="middle" x="242.557" y="-302.5" font-family="Times New Roman,serif" font-size="15.00">and</text>
</g>
<!-- 2178929728528 -->
<g id="node2" class="node"><title>2178929728528</title>
<ellipse fill="none" stroke="black" cx="164.557" cy="-234" rx="27" ry="18"/>
<text text-anchor="middle" x="164.557" y="-230.5" font-family="Times New Roman,serif" font-size="15.00">xor</text>
</g>
<!-- 2178928896512&#45;&#45;2178929728528 -->
<g id="edge7" class="edge"><title>2178928896512&#45;&#45;2178929728528</title>
<path fill="none" stroke="black" d="M227.147,-291.17C213.472,-278.898 193.6,-261.064 179.935,-248.801"/>
</g>
<!-- 2178928999920 -->
<g id="node9" class="node"><title>2178928999920</title>
<ellipse fill="none" stroke="black" cx="321.557" cy="-234" rx="27" ry="18"/>
<text text-anchor="middle" x="321.557" y="-230.5" font-family="Times New Roman,serif" font-size="15.00">seq</text>
</g>
<!-- 2178928896512&#45;&#45;2178928999920 -->
<g id="edge18" class="edge"><title>2178928896512&#45;&#45;2178928999920</title>
<path fill="none" stroke="black" d="M258.165,-291.17C272.015,-278.898 292.142,-261.064 305.982,-248.801"/>
</g>
<!-- 2178933343280 -->
<g id="node3" class="node"><title>2178933343280</title>
<ellipse fill="black" stroke="black" cx="116.557" cy="-162" rx="2.7" ry="2.7"/>
</g>
<!-- 2178929728528&#45;&#45;2178933343280 -->
<g id="edge1" class="edge"><title>2178929728528&#45;&#45;2178933343280</title>
<path fill="none" stroke="black" d="M153.665,-217.116C141.495,-199.367 122.837,-172.158 117.83,-164.857"/>
</g>
<!-- 2178933342464 -->
<g id="node4" class="node"><title>2178933342464</title>
<ellipse fill="none" stroke="black" cx="164.557" cy="-162" rx="27" ry="18"/>
<text text-anchor="middle" x="164.557" y="-158.5" font-family="Times New Roman,serif" font-size="15.00">and</text>
</g>
<!-- 2178929728528&#45;&#45;2178933342464 -->
<g id="edge6" class="edge"><title>2178929728528&#45;&#45;2178933342464</title>
<path fill="none" stroke="black" d="M164.557,-215.697C164.557,-204.846 164.557,-190.917 164.557,-180.104"/>
</g>
<!-- 2178933344336 -->
<g id="node5" class="node"><title>2178933344336</title>
<ellipse fill="none" stroke="black" cx="46.5571" cy="-90" rx="46.6143" ry="18"/>
<text text-anchor="middle" x="46.5571" y="-86.5" font-family="Times New Roman,serif" font-size="15.00">xor loop</text>
</g>
<!-- 2178933342464&#45;&#45;2178933344336 -->
<g id="edge4" class="edge"><title>2178933342464&#45;&#45;2178933344336</title>
<path fill="none" stroke="black" d="M145.072,-149.441C124.779,-137.403 92.945,-118.518 70.9844,-105.491"/>
</g>
<!-- 2178933343712 -->
<g id="node8" class="node"><title>2178933343712</title>
<ellipse fill="none" stroke="black" cx="172.557" cy="-90" rx="61.6894" ry="18"/>
<text text-anchor="middle" x="172.557" y="-86.5" font-family="Times New Roman,serif" font-size="15.00">Add penalty</text>
</g>
<!-- 2178933342464&#45;&#45;2178933343712 -->
<g id="edge5" class="edge"><title>2178933342464&#45;&#45;2178933343712</title>
<path fill="none" stroke="black" d="M166.535,-143.697C167.775,-132.846 169.367,-118.917 170.602,-108.104"/>
</g>
<!-- 2178933345872 -->
<g id="node6" class="node"><title>2178933345872</title>
<ellipse fill="black" stroke="black" cx="3.55711" cy="-18" rx="2.7" ry="2.7"/>
</g>
<!-- 2178933344336&#45;&#45;2178933345872 -->
<g id="edge2" class="edge"><title>2178933344336&#45;&#45;2178933345872</title>
<path fill="none" stroke="black" d="M36.3667,-72.411C25.4392,-54.622 9.06262,-27.9625 4.67281,-20.8163"/>
</g>
<!-- 2178933344960 -->
<g id="node7" class="node"><title>2178933344960</title>
<ellipse fill="none" stroke="black" cx="70.5571" cy="-18" rx="45.7249" ry="18"/>
<text text-anchor="middle" x="70.5571" y="-14.5" font-family="Times New Roman,serif" font-size="15.00">Payment</text>
</g>
<!-- 2178933344336&#45;&#45;2178933344960 -->
<g id="edge3" class="edge"><title>2178933344336&#45;&#45;2178933344960</title>
<path fill="none" stroke="black" d="M52.3668,-72.055C56.0848,-61.2111 60.8944,-47.183 64.6342,-36.2753"/>
</g>
<!-- 2178929725936 -->
<g id="node10" class="node"><title>2178929725936</title>
<ellipse fill="none" stroke="black" cx="269.557" cy="-162" rx="59.5207" ry="18"/>
<text text-anchor="middle" x="269.557" y="-158.5" font-family="Times New Roman,serif" font-size="15.00">Create Fine</text>
</g>
<!-- 2178928999920&#45;&#45;2178929725936 -->
<g id="edge8" class="edge"><title>2178928999920&#45;&#45;2178929725936</title>
<path fill="none" stroke="black" d="M310.017,-217.465C301.758,-206.348 290.647,-191.39 282.157,-179.962"/>
</g>
<!-- 2178929016944 -->
<g id="node11" class="node"><title>2178929016944</title>
<ellipse fill="none" stroke="black" cx="374.557" cy="-162" rx="27" ry="18"/>
<text text-anchor="middle" x="374.557" y="-158.5" font-family="Times New Roman,serif" font-size="15.00">xor</text>
</g>
<!-- 2178928999920&#45;&#45;2178929016944 -->
<g id="edge14" class="edge"><title>2178928999920&#45;&#45;2178929016944</title>
<path fill="none" stroke="black" d="M333.32,-217.465C342.103,-205.865 354.052,-190.082 362.828,-178.492"/>
</g>
<!-- 2178929481520 -->
<g id="node17" class="node"><title>2178929481520</title>
<ellipse fill="none" stroke="black" cx="446.557" cy="-162" rx="27" ry="18"/>
<text text-anchor="middle" x="446.557" y="-158.5" font-family="Times New Roman,serif" font-size="15.00">xor</text>
</g>
<!-- 2178928999920&#45;&#45;2178929481520 -->
<g id="edge17" class="edge"><title>2178928999920&#45;&#45;2178929481520</title>
<path fill="none" stroke="black" d="M341.641,-221.753C364.967,-208.691 403.218,-187.27 426.524,-174.219"/>
</g>
<!-- 2178933342512 -->
<g id="node12" class="node"><title>2178933342512</title>
<ellipse fill="none" stroke="black" cx="301.557" cy="-90" rx="45.7249" ry="18"/>
<text text-anchor="middle" x="301.557" y="-86.5" font-family="Times New Roman,serif" font-size="15.00">Payment</text>
</g>
<!-- 2178929016944&#45;&#45;2178933342512 -->
<g id="edge9" class="edge"><title>2178929016944&#45;&#45;2178933342512</title>
<path fill="none" stroke="black" d="M359.784,-146.834C347.703,-135.249 330.627,-118.875 318.091,-106.854"/>
</g>
<!-- 2178933343664 -->
<g id="node13" class="node"><title>2178933343664</title>
<ellipse fill="none" stroke="black" cx="392.557" cy="-90" rx="27" ry="18"/>
<text text-anchor="middle" x="392.557" y="-86.5" font-family="Times New Roman,serif" font-size="15.00">seq</text>
</g>
<!-- 2178929016944&#45;&#45;2178933343664 -->
<g id="edge13" class="edge"><title>2178929016944&#45;&#45;2178933343664</title>
<path fill="none" stroke="black" d="M378.914,-144.055C381.744,-133.049 385.418,-118.764 388.24,-107.789"/>
</g>
<!-- 2178933343376 -->
<g id="node14" class="node"><title>2178933343376</title>
<ellipse fill="none" stroke="black" cx="213.557" cy="-18" rx="52.6228" ry="18"/>
<text text-anchor="middle" x="213.557" y="-14.5" font-family="Times New Roman,serif" font-size="15.00">Send Fine</text>
</g>
<!-- 2178933343664&#45;&#45;2178933343376 -->
<g id="edge10" class="edge"><title>2178933343664&#45;&#45;2178933343376</title>
<path fill="none" stroke="black" d="M369.887,-80.1345C338.842,-67.994 282.873,-46.1069 247.006,-32.0805"/>
</g>
<!-- 2178933342320 -->
<g id="node15" class="node"><title>2178933342320</title>
<ellipse fill="none" stroke="black" cx="392.557" cy="-18" rx="107.914" ry="18"/>
<text text-anchor="middle" x="392.557" y="-14.5" font-family="Times New Roman,serif" font-size="15.00">Insert Fine Notification</text>
</g>
<!-- 2178933343664&#45;&#45;2178933342320 -->
<g id="edge11" class="edge"><title>2178933343664&#45;&#45;2178933342320</title>
<path fill="none" stroke="black" d="M392.557,-71.6966C392.557,-60.8463 392.557,-46.9167 392.557,-36.1043"/>
</g>
<!-- 2178933342608 -->
<g id="node16" class="node"><title>2178933342608</title>
<ellipse fill="none" stroke="black" cx="580.557" cy="-18" rx="61.6894" ry="18"/>
<text text-anchor="middle" x="580.557" y="-14.5" font-family="Times New Roman,serif" font-size="15.00">Add penalty</text>
</g>
<!-- 2178933343664&#45;&#45;2178933342608 -->
<g id="edge12" class="edge"><title>2178933343664&#45;&#45;2178933342608</title>
<path fill="none" stroke="black" d="M415.61,-80.4166C447.672,-68.4786 506.062,-46.7376 544.072,-32.5849"/>
</g>
<!-- 2178933343760 -->
<g id="node18" class="node"><title>2178933343760</title>
<ellipse fill="black" stroke="black" cx="444.557" cy="-90" rx="2.7" ry="2.7"/>
</g>
<!-- 2178929481520&#45;&#45;2178933343760 -->
<g id="edge15" class="edge"><title>2178929481520&#45;&#45;2178933343760</title>
<path fill="none" stroke="black" d="M446.063,-143.697C445.554,-125.883 444.808,-99.7686 444.608,-92.7764"/>
</g>
<!-- 2178933344240 -->
<g id="node19" class="node"><title>2178933344240</title>
<ellipse fill="none" stroke="black" cx="586.557" cy="-90" rx="120.819" ry="18"/>
<text text-anchor="middle" x="586.557" y="-86.5" font-family="Times New Roman,serif" font-size="15.00">Send for Credit Collection</text>
</g>
<!-- 2178929481520&#45;&#45;2178933344240 -->
<g id="edge16" class="edge"><title>2178929481520&#45;&#45;2178933344240</title>
<path fill="none" stroke="black" d="M467.517,-150.52C490.324,-139.116 527.091,-120.733 553.734,-107.412"/>
</g>
</g>
</svg>
