<?xml version="1.0" encoding="UTF-8" standalone="no"?>
<!DOCTYPE svg PUBLIC "-//W3C//DTD SVG 1.1//EN"
 "http://www.w3.org/Graphics/SVG/1.1/DTD/svg11.dtd">
<!-- Generated by graphviz version 2.38.0 (20140413.2041)
 -->
<!-- Title: pt Pages: 1 -->
<svg width="2060pt" height="1124pt"
 viewBox="0.00 0.00 2059.67 1124.00" xmlns="http://www.w3.org/2000/svg" xmlns:xlink="http://www.w3.org/1999/xlink">
<g id="graph0" class="graph" transform="scale(1 1) rotate(0) translate(4 1120)">
<title>pt</title>
<!-- 2179090580864 -->
<g id="node1" class="node"><title>2179090580864</title>
<ellipse fill="none" stroke="black" cx="416.76" cy="-1098" rx="27" ry="18"/>
<text text-anchor="middle" x="416.76" y="-1094.5" font-family="Times New Roman,serif" font-size="15.00">seq</text>
</g>
<!-- 2179135899920 -->
<g id="node2" class="node"><title>2179135899920</title>
<ellipse fill="none" stroke="black" cx="59.7599" cy="-1026" rx="59.5207" ry="18"/>
<text text-anchor="middle" x="59.7599" y="-1022.5" font-family="Times New Roman,serif" font-size="15.00">Create Fine</text>
</g>
<!-- 2179090580864&#45;&#45;2179135899920 -->
<g id="edge1" class="edge"><title>2179090580864&#45;&#45;2179135899920</title>
<path fill="none" stroke="black" d="M391.085,-1091.97C331.931,-1080.37 185.244,-1051.6 108.429,-1036.54"/>
</g>
<!-- 2179124061712 -->
<g id="node3" class="node"><title>2179124061712</title>
<ellipse fill="none" stroke="black" cx="164.76" cy="-1026" rx="27" ry="18"/>
<text text-anchor="middle" x="164.76" y="-1022.5" font-family="Times New Roman,serif" font-size="15.00">xor</text>
</g>
<!-- 2179090580864&#45;&#45;2179124061712 -->
<g id="edge4" class="edge"><title>2179090580864&#45;&#45;2179124061712</title>
<path fill="none" stroke="black" d="M392.138,-1090.16C343.962,-1076.78 237.738,-1047.27 189.481,-1033.87"/>
</g>
<!-- 2179135898912 -->
<g id="node6" class="node"><title>2179135898912</title>
<ellipse fill="none" stroke="black" cx="273.76" cy="-1026" rx="27" ry="18"/>
<text text-anchor="middle" x="273.76" y="-1022.5" font-family="Times New Roman,serif" font-size="15.00">xor</text>
</g>
<!-- 2179090580864&#45;&#45;2179135898912 -->
<g id="edge13" class="edge"><title>2179090580864&#45;&#45;2179135898912</title>
<path fill="none" stroke="black" d="M395.66,-1086.67C368.623,-1073.44 322.025,-1050.63 294.947,-1037.37"/>
</g>
<!-- 2179124061952 -->
<g id="node15" class="node"><title>2179124061952</title>
<ellipse fill="none" stroke="black" cx="416.76" cy="-1026" rx="27" ry="18"/>
<text text-anchor="middle" x="416.76" y="-1022.5" font-family="Times New Roman,serif" font-size="15.00">xor</text>
</g>
<!-- 2179090580864&#45;&#45;2179124061952 -->
<g id="edge16" class="edge"><title>2179090580864&#45;&#45;2179124061952</title>
<path fill="none" stroke="black" d="M416.76,-1079.7C416.76,-1068.85 416.76,-1054.92 416.76,-1044.1"/>
</g>
<!-- 2179124064160 -->
<g id="node18" class="node"><title>2179124064160</title>
<ellipse fill="none" stroke="black" cx="651.76" cy="-1026" rx="27" ry="18"/>
<text text-anchor="middle" x="651.76" y="-1022.5" font-family="Times New Roman,serif" font-size="15.00">xor</text>
</g>
<!-- 2179090580864&#45;&#45;2179124064160 -->
<g id="edge19" class="edge"><title>2179090580864&#45;&#45;2179124064160</title>
<path fill="none" stroke="black" d="M441.024,-1089.77C486.173,-1076.32 582.579,-1047.61 627.628,-1034.19"/>
</g>
<!-- 2179124063488 -->
<g id="node21" class="node"><title>2179124063488</title>
<ellipse fill="none" stroke="black" cx="933.76" cy="-1026" rx="27" ry="18"/>
<text text-anchor="middle" x="933.76" y="-1022.5" font-family="Times New Roman,serif" font-size="15.00">xor</text>
</g>
<!-- 2179090580864&#45;&#45;2179124063488 -->
<g id="edge64" class="edge"><title>2179090580864&#45;&#45;2179124063488</title>
<path fill="none" stroke="black" d="M443.109,-1093.43C531.796,-1081.42 818.856,-1042.56 907.464,-1030.56"/>
</g>
<!-- 2179134966272 -->
<g id="node66" class="node"><title>2179134966272</title>
<ellipse fill="none" stroke="black" cx="1100.76" cy="-1026" rx="27" ry="18"/>
<text text-anchor="middle" x="1100.76" y="-1022.5" font-family="Times New Roman,serif" font-size="15.00">xor</text>
</g>
<!-- 2179090580864&#45;&#45;2179134966272 -->
<g id="edge68" class="edge"><title>2179090580864&#45;&#45;2179134966272</title>
<path fill="none" stroke="black" d="M443.573,-1094.26C552.993,-1083.06 965.055,-1040.89 1074.13,-1029.73"/>
</g>
<!-- 2179124060320 -->
<g id="node4" class="node"><title>2179124060320</title>
<ellipse fill="black" stroke="black" cx="27.7599" cy="-954" rx="2.7" ry="2.7"/>
</g>
<!-- 2179124061712&#45;&#45;2179124060320 -->
<g id="edge2" class="edge"><title>2179124061712&#45;&#45;2179124060320</title>
<path fill="none" stroke="black" d="M143.953,-1014.37C109.22,-996.622 42.0125,-962.282 29.7163,-956"/>
</g>
<!-- 2179124061088 -->
<g id="node5" class="node"><title>2179124061088</title>
<ellipse fill="none" stroke="black" cx="126.76" cy="-954" rx="78.5434" ry="18"/>
<text text-anchor="middle" x="126.76" y="-950.5" font-family="Times New Roman,serif" font-size="15.00">Appeal to Judge</text>
</g>
<!-- 2179124061712&#45;&#45;2179124061088 -->
<g id="edge3" class="edge"><title>2179124061712&#45;&#45;2179124061088</title>
<path fill="none" stroke="black" d="M155.946,-1008.76C149.983,-997.779 142.118,-983.292 136.056,-972.124"/>
</g>
<!-- 2179124062336 -->
<g id="node7" class="node"><title>2179124062336</title>
<ellipse fill="black" stroke="black" cx="225.76" cy="-954" rx="2.7" ry="2.7"/>
</g>
<!-- 2179135898912&#45;&#45;2179124062336 -->
<g id="edge5" class="edge"><title>2179135898912&#45;&#45;2179124062336</title>
<path fill="none" stroke="black" d="M262.868,-1009.12C250.697,-991.367 232.04,-964.158 227.033,-956.857"/>
</g>
<!-- 2179124063728 -->
<g id="node8" class="node"><title>2179124063728</title>
<ellipse fill="none" stroke="black" cx="273.76" cy="-954" rx="27" ry="18"/>
<text text-anchor="middle" x="273.76" y="-950.5" font-family="Times New Roman,serif" font-size="15.00">and</text>
</g>
<!-- 2179135898912&#45;&#45;2179124063728 -->
<g id="edge12" class="edge"><title>2179135898912&#45;&#45;2179124063728</title>
<path fill="none" stroke="black" d="M273.76,-1007.7C273.76,-996.846 273.76,-982.917 273.76,-972.104"/>
</g>
<!-- 2179124061856 -->
<g id="node9" class="node"><title>2179124061856</title>
<ellipse fill="none" stroke="black" cx="236.76" cy="-882" rx="27" ry="18"/>
<text text-anchor="middle" x="236.76" y="-878.5" font-family="Times New Roman,serif" font-size="15.00">xor</text>
</g>
<!-- 2179124063728&#45;&#45;2179124061856 -->
<g id="edge8" class="edge"><title>2179124063728&#45;&#45;2179124061856</title>
<path fill="none" stroke="black" d="M265.178,-936.765C259.201,-925.456 251.262,-910.437 245.295,-899.147"/>
</g>
<!-- 2179124060656 -->
<g id="node12" class="node"><title>2179124060656</title>
<ellipse fill="none" stroke="black" cx="310.76" cy="-882" rx="27" ry="18"/>
<text text-anchor="middle" x="310.76" y="-878.5" font-family="Times New Roman,serif" font-size="15.00">xor</text>
</g>
<!-- 2179124063728&#45;&#45;2179124060656 -->
<g id="edge11" class="edge"><title>2179124063728&#45;&#45;2179124060656</title>
<path fill="none" stroke="black" d="M282.341,-936.765C288.319,-925.456 296.258,-910.437 302.225,-899.147"/>
</g>
<!-- 2179134942800 -->
<g id="node10" class="node"><title>2179134942800</title>
<ellipse fill="black" stroke="black" cx="162.76" cy="-810" rx="2.7" ry="2.7"/>
</g>
<!-- 2179124061856&#45;&#45;2179134942800 -->
<g id="edge6" class="edge"><title>2179124061856&#45;&#45;2179134942800</title>
<path fill="none" stroke="black" d="M221.785,-866.834C202.865,-848.937 171.864,-819.612 164.409,-812.56"/>
</g>
<!-- 2179127884576 -->
<g id="node11" class="node"><title>2179127884576</title>
<ellipse fill="none" stroke="black" cx="236.76" cy="-810" rx="52.6228" ry="18"/>
<text text-anchor="middle" x="236.76" y="-806.5" font-family="Times New Roman,serif" font-size="15.00">Send Fine</text>
</g>
<!-- 2179124061856&#45;&#45;2179127884576 -->
<g id="edge7" class="edge"><title>2179124061856&#45;&#45;2179127884576</title>
<path fill="none" stroke="black" d="M236.76,-863.697C236.76,-852.846 236.76,-838.917 236.76,-828.104"/>
</g>
<!-- 2179127884288 -->
<g id="node13" class="node"><title>2179127884288</title>
<ellipse fill="black" stroke="black" cx="310.76" cy="-810" rx="2.7" ry="2.7"/>
</g>
<!-- 2179124060656&#45;&#45;2179127884288 -->
<g id="edge9" class="edge"><title>2179124060656&#45;&#45;2179127884288</title>
<path fill="none" stroke="black" d="M310.76,-863.697C310.76,-845.883 310.76,-819.769 310.76,-812.776"/>
</g>
<!-- 2179134967424 -->
<g id="node14" class="node"><title>2179134967424</title>
<ellipse fill="none" stroke="black" cx="377.76" cy="-810" rx="45.7249" ry="18"/>
<text text-anchor="middle" x="377.76" y="-806.5" font-family="Times New Roman,serif" font-size="15.00">Payment</text>
</g>
<!-- 2179124060656&#45;&#45;2179134967424 -->
<g id="edge10" class="edge"><title>2179124060656&#45;&#45;2179134967424</title>
<path fill="none" stroke="black" d="M324.642,-866.496C335.605,-855.043 350.894,-839.069 362.256,-827.198"/>
</g>
<!-- 2179124061184 -->
<g id="node16" class="node"><title>2179124061184</title>
<ellipse fill="black" stroke="black" cx="321.76" cy="-954" rx="2.7" ry="2.7"/>
</g>
<!-- 2179124061952&#45;&#45;2179124061184 -->
<g id="edge14" class="edge"><title>2179124061952&#45;&#45;2179124061184</title>
<path fill="none" stroke="black" d="M399.335,-1012.16C374.909,-994.163 332.458,-962.883 323.464,-956.256"/>
</g>
<!-- 2179127884096 -->
<g id="node17" class="node"><title>2179127884096</title>
<ellipse fill="none" stroke="black" cx="486.76" cy="-954" rx="144.571" ry="18"/>
<text text-anchor="middle" x="486.76" y="-950.5" font-family="Times New Roman,serif" font-size="15.00">Insert Date Appeal to Prefecture</text>
</g>
<!-- 2179124061952&#45;&#45;2179127884096 -->
<g id="edge15" class="edge"><title>2179124061952&#45;&#45;2179127884096</title>
<path fill="none" stroke="black" d="M431.264,-1010.5C442.477,-999.283 458.023,-983.737 469.809,-971.951"/>
</g>
<!-- 2179134967664 -->
<g id="node19" class="node"><title>2179134967664</title>
<ellipse fill="black" stroke="black" cx="651.76" cy="-954" rx="2.7" ry="2.7"/>
</g>
<!-- 2179124064160&#45;&#45;2179134967664 -->
<g id="edge17" class="edge"><title>2179124064160&#45;&#45;2179134967664</title>
<path fill="none" stroke="black" d="M651.76,-1007.7C651.76,-989.883 651.76,-963.769 651.76,-956.776"/>
</g>
<!-- 2179134966224 -->
<g id="node20" class="node"><title>2179134966224</title>
<ellipse fill="none" stroke="black" cx="792.76" cy="-954" rx="120.43" ry="18"/>
<text text-anchor="middle" x="792.76" y="-950.5" font-family="Times New Roman,serif" font-size="15.00">Send Appeal to Prefecture</text>
</g>
<!-- 2179124064160&#45;&#45;2179134966224 -->
<g id="edge18" class="edge"><title>2179124064160&#45;&#45;2179134966224</title>
<path fill="none" stroke="black" d="M672.869,-1014.52C695.84,-1003.12 732.869,-984.733 759.702,-971.412"/>
</g>
<!-- 2179134966176 -->
<g id="node22" class="node"><title>2179134966176</title>
<ellipse fill="black" stroke="black" cx="933.76" cy="-954" rx="2.7" ry="2.7"/>
</g>
<!-- 2179124063488&#45;&#45;2179134966176 -->
<g id="edge20" class="edge"><title>2179124063488&#45;&#45;2179134966176</title>
<path fill="none" stroke="black" d="M933.76,-1007.7C933.76,-989.883 933.76,-963.769 933.76,-956.776"/>
</g>
<!-- 2179134967712 -->
<g id="node23" class="node"><title>2179134967712</title>
<ellipse fill="none" stroke="black" cx="981.76" cy="-954" rx="27" ry="18"/>
<text text-anchor="middle" x="981.76" y="-950.5" font-family="Times New Roman,serif" font-size="15.00">seq</text>
</g>
<!-- 2179124063488&#45;&#45;2179134967712 -->
<g id="edge63" class="edge"><title>2179124063488&#45;&#45;2179134967712</title>
<path fill="none" stroke="black" d="M944.652,-1009.12C952.507,-997.66 963.065,-982.263 970.911,-970.821"/>
</g>
<!-- 2179135911920 -->
<g id="node24" class="node"><title>2179135911920</title>
<ellipse fill="none" stroke="black" cx="843.76" cy="-882" rx="27" ry="18"/>
<text text-anchor="middle" x="843.76" y="-878.5" font-family="Times New Roman,serif" font-size="15.00">xor</text>
</g>
<!-- 2179134967712&#45;&#45;2179135911920 -->
<g id="edge23" class="edge"><title>2179134967712&#45;&#45;2179135911920</title>
<path fill="none" stroke="black" d="M960.801,-942.369C934.863,-929.212 890.945,-906.934 864.916,-893.732"/>
</g>
<!-- 2179135912448 -->
<g id="node27" class="node"><title>2179135912448</title>
<ellipse fill="none" stroke="black" cx="981.76" cy="-882" rx="27" ry="18"/>
<text text-anchor="middle" x="981.76" y="-878.5" font-family="Times New Roman,serif" font-size="15.00">xor</text>
</g>
<!-- 2179134967712&#45;&#45;2179135912448 -->
<g id="edge26" class="edge"><title>2179134967712&#45;&#45;2179135912448</title>
<path fill="none" stroke="black" d="M981.76,-935.697C981.76,-924.846 981.76,-910.917 981.76,-900.104"/>
</g>
<!-- 2179135910048 -->
<g id="node30" class="node"><title>2179135910048</title>
<ellipse fill="none" stroke="black" cx="1173.76" cy="-882" rx="27" ry="18"/>
<text text-anchor="middle" x="1173.76" y="-878.5" font-family="Times New Roman,serif" font-size="15.00">xor</text>
</g>
<!-- 2179134967712&#45;&#45;2179135910048 -->
<g id="edge62" class="edge"><title>2179134967712&#45;&#45;2179135910048</title>
<path fill="none" stroke="black" d="M1004.92,-944.556C1041.82,-931.102 1113.56,-904.947 1150.52,-891.474"/>
</g>
<!-- 2179135910672 -->
<g id="node25" class="node"><title>2179135910672</title>
<ellipse fill="black" stroke="black" cx="769.76" cy="-810" rx="2.7" ry="2.7"/>
</g>
<!-- 2179135911920&#45;&#45;2179135910672 -->
<g id="edge21" class="edge"><title>2179135911920&#45;&#45;2179135910672</title>
<path fill="none" stroke="black" d="M828.785,-866.834C809.865,-848.937 778.864,-819.612 771.409,-812.56"/>
</g>
<!-- 2179135912928 -->
<g id="node26" class="node"><title>2179135912928</title>
<ellipse fill="none" stroke="black" cx="843.76" cy="-810" rx="52.6228" ry="18"/>
<text text-anchor="middle" x="843.76" y="-806.5" font-family="Times New Roman,serif" font-size="15.00">Send Fine</text>
</g>
<!-- 2179135911920&#45;&#45;2179135912928 -->
<g id="edge22" class="edge"><title>2179135911920&#45;&#45;2179135912928</title>
<path fill="none" stroke="black" d="M843.76,-863.697C843.76,-852.846 843.76,-838.917 843.76,-828.104"/>
</g>
<!-- 2179135912496 -->
<g id="node28" class="node"><title>2179135912496</title>
<ellipse fill="black" stroke="black" cx="917.76" cy="-810" rx="2.7" ry="2.7"/>
</g>
<!-- 2179135912448&#45;&#45;2179135912496 -->
<g id="edge24" class="edge"><title>2179135912448&#45;&#45;2179135912496</title>
<path fill="none" stroke="black" d="M968.187,-866.155C951.749,-848.175 925.469,-819.432 919.156,-812.527"/>
</g>
<!-- 2179135910192 -->
<g id="node29" class="node"><title>2179135910192</title>
<ellipse fill="none" stroke="black" cx="1045.76" cy="-810" rx="107.914" ry="18"/>
<text text-anchor="middle" x="1045.76" y="-806.5" font-family="Times New Roman,serif" font-size="15.00">Insert Fine Notification</text>
</g>
<!-- 2179135912448&#45;&#45;2179135910192 -->
<g id="edge25" class="edge"><title>2179135912448&#45;&#45;2179135910192</title>
<path fill="none" stroke="black" d="M995.333,-866.155C1005.53,-854.998 1019.52,-839.696 1030.18,-828.04"/>
</g>
<!-- 2179135913024 -->
<g id="node31" class="node"><title>2179135913024</title>
<ellipse fill="black" stroke="black" cx="1173.76" cy="-810" rx="2.7" ry="2.7"/>
</g>
<!-- 2179135910048&#45;&#45;2179135913024 -->
<g id="edge27" class="edge"><title>2179135910048&#45;&#45;2179135913024</title>
<path fill="none" stroke="black" d="M1173.76,-863.697C1173.76,-845.883 1173.76,-819.769 1173.76,-812.776"/>
</g>
<!-- 2179135912832 -->
<g id="node32" class="node"><title>2179135912832</title>
<ellipse fill="none" stroke="black" cx="1221.76" cy="-810" rx="27" ry="18"/>
<text text-anchor="middle" x="1221.76" y="-806.5" font-family="Times New Roman,serif" font-size="15.00">and</text>
</g>
<!-- 2179135910048&#45;&#45;2179135912832 -->
<g id="edge61" class="edge"><title>2179135910048&#45;&#45;2179135912832</title>
<path fill="none" stroke="black" d="M1184.65,-865.116C1192.51,-853.66 1203.07,-838.263 1210.91,-826.821"/>
</g>
<!-- 2179135910144 -->
<g id="node33" class="node"><title>2179135910144</title>
<ellipse fill="none" stroke="black" cx="1165.76" cy="-738" rx="46.6143" ry="18"/>
<text text-anchor="middle" x="1165.76" y="-734.5" font-family="Times New Roman,serif" font-size="15.00">xor loop</text>
</g>
<!-- 2179135912832&#45;&#45;2179135910144 -->
<g id="edge34" class="edge"><title>2179135912832&#45;&#45;2179135910144</title>
<path fill="none" stroke="black" d="M1209.61,-793.811C1200.6,-782.552 1188.33,-767.215 1179.06,-755.628"/>
</g>
<!-- 2179135911104 -->
<g id="node40" class="node"><title>2179135911104</title>
<ellipse fill="none" stroke="black" cx="1276.76" cy="-738" rx="46.6143" ry="18"/>
<text text-anchor="middle" x="1276.76" y="-734.5" font-family="Times New Roman,serif" font-size="15.00">xor loop</text>
</g>
<!-- 2179135912832&#45;&#45;2179135911104 -->
<g id="edge60" class="edge"><title>2179135912832&#45;&#45;2179135911104</title>
<path fill="none" stroke="black" d="M1233.69,-793.811C1242.54,-782.552 1254.59,-767.215 1263.7,-755.628"/>
</g>
<!-- 2179124031056 -->
<g id="node34" class="node"><title>2179124031056</title>
<ellipse fill="black" stroke="black" cx="1119.76" cy="-666" rx="2.7" ry="2.7"/>
</g>
<!-- 2179135910144&#45;&#45;2179124031056 -->
<g id="edge28" class="edge"><title>2179135910144&#45;&#45;2179124031056</title>
<path fill="none" stroke="black" d="M1154.86,-720.411C1143.17,-702.622 1125.65,-675.962 1120.95,-668.816"/>
</g>
<!-- 2179124030960 -->
<g id="node35" class="node"><title>2179124030960</title>
<ellipse fill="none" stroke="black" cx="1167.76" cy="-666" rx="27" ry="18"/>
<text text-anchor="middle" x="1167.76" y="-662.5" font-family="Times New Roman,serif" font-size="15.00">and</text>
</g>
<!-- 2179135910144&#45;&#45;2179124030960 -->
<g id="edge33" class="edge"><title>2179135910144&#45;&#45;2179124030960</title>
<path fill="none" stroke="black" d="M1166.25,-719.697C1166.56,-708.846 1166.96,-694.917 1167.27,-684.104"/>
</g>
<!-- 2179141991440 -->
<g id="node36" class="node"><title>2179141991440</title>
<ellipse fill="none" stroke="black" cx="1042.76" cy="-594" rx="46.6143" ry="18"/>
<text text-anchor="middle" x="1042.76" y="-590.5" font-family="Times New Roman,serif" font-size="15.00">xor loop</text>
</g>
<!-- 2179124030960&#45;&#45;2179141991440 -->
<g id="edge31" class="edge"><title>2179124030960&#45;&#45;2179141991440</title>
<path fill="none" stroke="black" d="M1147.68,-653.753C1126.14,-641.695 1091.9,-622.516 1068.42,-609.371"/>
</g>
<!-- 2179141988512 -->
<g id="node39" class="node"><title>2179141988512</title>
<ellipse fill="none" stroke="black" cx="1168.76" cy="-594" rx="61.6894" ry="18"/>
<text text-anchor="middle" x="1168.76" y="-590.5" font-family="Times New Roman,serif" font-size="15.00">Add penalty</text>
</g>
<!-- 2179124030960&#45;&#45;2179141988512 -->
<g id="edge32" class="edge"><title>2179124030960&#45;&#45;2179141988512</title>
<path fill="none" stroke="black" d="M1168.01,-647.697C1168.16,-636.846 1168.36,-622.917 1168.52,-612.104"/>
</g>
<!-- 2179141989280 -->
<g id="node37" class="node"><title>2179141989280</title>
<ellipse fill="black" stroke="black" cx="1009.76" cy="-522" rx="2.7" ry="2.7"/>
</g>
<!-- 2179141991440&#45;&#45;2179141989280 -->
<g id="edge29" class="edge"><title>2179141991440&#45;&#45;2179141989280</title>
<path fill="none" stroke="black" d="M1034.77,-576.055C1026.38,-558.252 1013.94,-531.865 1010.61,-524.796"/>
</g>
<!-- 2179141988896 -->
<g id="node38" class="node"><title>2179141988896</title>
<ellipse fill="none" stroke="black" cx="1076.76" cy="-522" rx="45.7249" ry="18"/>
<text text-anchor="middle" x="1076.76" y="-518.5" font-family="Times New Roman,serif" font-size="15.00">Payment</text>
</g>
<!-- 2179141991440&#45;&#45;2179141988896 -->
<g id="edge30" class="edge"><title>2179141991440&#45;&#45;2179141988896</title>
<path fill="none" stroke="black" d="M1050.99,-576.055C1056.34,-565.049 1063.27,-550.764 1068.61,-539.789"/>
</g>
<!-- 2179135912688 -->
<g id="node41" class="node"><title>2179135912688</title>
<ellipse fill="none" stroke="black" cx="1276.76" cy="-666" rx="27" ry="18"/>
<text text-anchor="middle" x="1276.76" y="-662.5" font-family="Times New Roman,serif" font-size="15.00">seq</text>
</g>
<!-- 2179135911104&#45;&#45;2179135912688 -->
<g id="edge58" class="edge"><title>2179135911104&#45;&#45;2179135912688</title>
<path fill="none" stroke="black" d="M1276.76,-719.697C1276.76,-708.846 1276.76,-694.917 1276.76,-684.104"/>
</g>
<!-- 2179135911152 -->
<g id="node65" class="node"><title>2179135911152</title>
<ellipse fill="black" stroke="black" cx="1324.76" cy="-666" rx="2.7" ry="2.7"/>
</g>
<!-- 2179135911104&#45;&#45;2179135911152 -->
<g id="edge59" class="edge"><title>2179135911104&#45;&#45;2179135911152</title>
<path fill="none" stroke="black" d="M1288.14,-720.411C1300.33,-702.622 1318.61,-675.962 1323.51,-668.816"/>
</g>
<!-- 2179135911536 -->
<g id="node42" class="node"><title>2179135911536</title>
<ellipse fill="none" stroke="black" cx="1275.76" cy="-594" rx="27" ry="18"/>
<text text-anchor="middle" x="1275.76" y="-590.5" font-family="Times New Roman,serif" font-size="15.00">xor</text>
</g>
<!-- 2179135912688&#45;&#45;2179135911536 -->
<g id="edge37" class="edge"><title>2179135912688&#45;&#45;2179135911536</title>
<path fill="none" stroke="black" d="M1276.51,-647.697C1276.36,-636.846 1276.16,-622.917 1276,-612.104"/>
</g>
<!-- 2179135910096 -->
<g id="node45" class="node"><title>2179135910096</title>
<ellipse fill="none" stroke="black" cx="1374.76" cy="-594" rx="27" ry="18"/>
<text text-anchor="middle" x="1374.76" y="-590.5" font-family="Times New Roman,serif" font-size="15.00">xor</text>
</g>
<!-- 2179135912688&#45;&#45;2179135910096 -->
<g id="edge57" class="edge"><title>2179135912688&#45;&#45;2179135910096</title>
<path fill="none" stroke="black" d="M1294.73,-652.161C1312.42,-639.531 1339.26,-620.36 1356.9,-607.758"/>
</g>
<!-- 2179124031152 -->
<g id="node43" class="node"><title>2179124031152</title>
<ellipse fill="black" stroke="black" cx="1176.76" cy="-522" rx="2.7" ry="2.7"/>
</g>
<!-- 2179135911536&#45;&#45;2179124031152 -->
<g id="edge35" class="edge"><title>2179135911536&#45;&#45;2179124031152</title>
<path fill="none" stroke="black" d="M1257.6,-580.161C1232.15,-562.163 1187.91,-530.883 1178.54,-524.256"/>
</g>
<!-- 2179124031296 -->
<g id="node44" class="node"><title>2179124031296</title>
<ellipse fill="none" stroke="black" cx="1275.76" cy="-522" rx="78.5434" ry="18"/>
<text text-anchor="middle" x="1275.76" y="-518.5" font-family="Times New Roman,serif" font-size="15.00">Appeal to Judge</text>
</g>
<!-- 2179135911536&#45;&#45;2179124031296 -->
<g id="edge36" class="edge"><title>2179135911536&#45;&#45;2179124031296</title>
<path fill="none" stroke="black" d="M1275.76,-575.697C1275.76,-564.846 1275.76,-550.917 1275.76,-540.104"/>
</g>
<!-- 2178930317344 -->
<g id="node46" class="node"><title>2178930317344</title>
<ellipse fill="black" stroke="black" cx="1374.76" cy="-522" rx="2.7" ry="2.7"/>
</g>
<!-- 2179135910096&#45;&#45;2178930317344 -->
<g id="edge38" class="edge"><title>2179135910096&#45;&#45;2178930317344</title>
<path fill="none" stroke="black" d="M1374.76,-575.697C1374.76,-557.883 1374.76,-531.769 1374.76,-524.776"/>
</g>
<!-- 2178930319264 -->
<g id="node47" class="node"><title>2178930319264</title>
<ellipse fill="none" stroke="black" cx="1441.76" cy="-522" rx="46.6143" ry="18"/>
<text text-anchor="middle" x="1441.76" y="-518.5" font-family="Times New Roman,serif" font-size="15.00">xor loop</text>
</g>
<!-- 2179135910096&#45;&#45;2178930319264 -->
<g id="edge56" class="edge"><title>2179135910096&#45;&#45;2178930319264</title>
<path fill="none" stroke="black" d="M1388.64,-578.496C1399.6,-567.043 1414.89,-551.069 1426.26,-539.198"/>
</g>
<!-- 2178930318880 -->
<g id="node48" class="node"><title>2178930318880</title>
<ellipse fill="none" stroke="black" cx="1417.76" cy="-450" rx="27" ry="18"/>
<text text-anchor="middle" x="1417.76" y="-446.5" font-family="Times New Roman,serif" font-size="15.00">seq</text>
</g>
<!-- 2178930319264&#45;&#45;2178930318880 -->
<g id="edge54" class="edge"><title>2178930319264&#45;&#45;2178930318880</title>
<path fill="none" stroke="black" d="M1435.95,-504.055C1432.18,-493.049 1427.28,-478.764 1423.52,-467.789"/>
</g>
<!-- 2178930317920 -->
<g id="node64" class="node"><title>2178930317920</title>
<ellipse fill="black" stroke="black" cx="1465.76" cy="-450" rx="2.7" ry="2.7"/>
</g>
<!-- 2178930319264&#45;&#45;2178930317920 -->
<g id="edge55" class="edge"><title>2178930319264&#45;&#45;2178930317920</title>
<path fill="none" stroke="black" d="M1447.57,-504.055C1453.67,-486.252 1462.72,-459.865 1465.14,-452.796"/>
</g>
<!-- 2178930318016 -->
<g id="node49" class="node"><title>2178930318016</title>
<ellipse fill="none" stroke="black" cx="1335.76" cy="-378" rx="27" ry="18"/>
<text text-anchor="middle" x="1335.76" y="-374.5" font-family="Times New Roman,serif" font-size="15.00">xor</text>
</g>
<!-- 2178930318880&#45;&#45;2178930318016 -->
<g id="edge41" class="edge"><title>2178930318880&#45;&#45;2178930318016</title>
<path fill="none" stroke="black" d="M1401.56,-435.17C1387.09,-422.819 1366.02,-404.832 1351.65,-392.563"/>
</g>
<!-- 2178930319216 -->
<g id="node52" class="node"><title>2178930319216</title>
<ellipse fill="none" stroke="black" cx="1500.76" cy="-378" rx="27" ry="18"/>
<text text-anchor="middle" x="1500.76" y="-374.5" font-family="Times New Roman,serif" font-size="15.00">xor</text>
</g>
<!-- 2178930318880&#45;&#45;2178930319216 -->
<g id="edge53" class="edge"><title>2178930318880&#45;&#45;2178930319216</title>
<path fill="none" stroke="black" d="M1434.16,-435.17C1448.8,-422.819 1470.13,-404.832 1484.68,-392.563"/>
</g>
<!-- 2179141992304 -->
<g id="node50" class="node"><title>2179141992304</title>
<ellipse fill="black" stroke="black" cx="1170.76" cy="-306" rx="2.7" ry="2.7"/>
</g>
<!-- 2178930318016&#45;&#45;2179141992304 -->
<g id="edge39" class="edge"><title>2178930318016&#45;&#45;2179141992304</title>
<path fill="none" stroke="black" d="M1313.51,-367.559C1272.34,-350.094 1187.16,-313.96 1172.83,-307.878"/>
</g>
<!-- 2179141990336 -->
<g id="node51" class="node"><title>2179141990336</title>
<ellipse fill="none" stroke="black" cx="1335.76" cy="-306" rx="144.571" ry="18"/>
<text text-anchor="middle" x="1335.76" y="-302.5" font-family="Times New Roman,serif" font-size="15.00">Insert Date Appeal to Prefecture</text>
</g>
<!-- 2178930318016&#45;&#45;2179141990336 -->
<g id="edge40" class="edge"><title>2178930318016&#45;&#45;2179141990336</title>
<path fill="none" stroke="black" d="M1335.76,-359.697C1335.76,-348.846 1335.76,-334.917 1335.76,-324.104"/>
</g>
<!-- 2179141989424 -->
<g id="node53" class="node"><title>2179141989424</title>
<ellipse fill="black" stroke="black" cx="1500.76" cy="-306" rx="2.7" ry="2.7"/>
</g>
<!-- 2178930319216&#45;&#45;2179141989424 -->
<g id="edge42" class="edge"><title>2178930319216&#45;&#45;2179141989424</title>
<path fill="none" stroke="black" d="M1500.76,-359.697C1500.76,-341.883 1500.76,-315.769 1500.76,-308.776"/>
</g>
<!-- 2179141989184 -->
<g id="node54" class="node"><title>2179141989184</title>
<ellipse fill="none" stroke="black" cx="1567.76" cy="-306" rx="46.6143" ry="18"/>
<text text-anchor="middle" x="1567.76" y="-302.5" font-family="Times New Roman,serif" font-size="15.00">xor loop</text>
</g>
<!-- 2178930319216&#45;&#45;2179141989184 -->
<g id="edge52" class="edge"><title>2178930319216&#45;&#45;2179141989184</title>
<path fill="none" stroke="black" d="M1514.64,-362.496C1525.6,-351.043 1540.89,-335.069 1552.26,-323.198"/>
</g>
<!-- 2179141989616 -->
<g id="node55" class="node"><title>2179141989616</title>
<ellipse fill="none" stroke="black" cx="1543.76" cy="-234" rx="27" ry="18"/>
<text text-anchor="middle" x="1543.76" y="-230.5" font-family="Times New Roman,serif" font-size="15.00">xor</text>
</g>
<!-- 2179141989184&#45;&#45;2179141989616 -->
<g id="edge50" class="edge"><title>2179141989184&#45;&#45;2179141989616</title>
<path fill="none" stroke="black" d="M1561.95,-288.055C1558.18,-277.049 1553.28,-262.764 1549.52,-251.789"/>
</g>
<!-- 2179141991056 -->
<g id="node63" class="node"><title>2179141991056</title>
<ellipse fill="black" stroke="black" cx="1591.76" cy="-234" rx="2.7" ry="2.7"/>
</g>
<!-- 2179141989184&#45;&#45;2179141991056 -->
<g id="edge51" class="edge"><title>2179141989184&#45;&#45;2179141991056</title>
<path fill="none" stroke="black" d="M1573.57,-288.055C1579.67,-270.252 1588.72,-243.865 1591.14,-236.796"/>
</g>
<!-- 2179141992400 -->
<g id="node56" class="node"><title>2179141992400</title>
<ellipse fill="none" stroke="black" cx="1231.76" cy="-162" rx="120.43" ry="18"/>
<text text-anchor="middle" x="1231.76" y="-158.5" font-family="Times New Roman,serif" font-size="15.00">Send Appeal to Prefecture</text>
</g>
<!-- 2179141989616&#45;&#45;2179141992400 -->
<g id="edge43" class="edge"><title>2179141989616&#45;&#45;2179141992400</title>
<path fill="none" stroke="black" d="M1518.49,-227.331C1470.4,-216.541 1364.38,-192.755 1295.61,-177.326"/>
</g>
<!-- 2179141990960 -->
<g id="node57" class="node"><title>2179141990960</title>
<ellipse fill="none" stroke="black" cx="1543.76" cy="-162" rx="173.941" ry="18"/>
<text text-anchor="middle" x="1543.76" y="-158.5" font-family="Times New Roman,serif" font-size="15.00">Receive Result Appeal from Prefecture</text>
</g>
<!-- 2179141989616&#45;&#45;2179141990960 -->
<g id="edge44" class="edge"><title>2179141989616&#45;&#45;2179141990960</title>
<path fill="none" stroke="black" d="M1543.76,-215.697C1543.76,-204.846 1543.76,-190.917 1543.76,-180.104"/>
</g>
<!-- 2179141989520 -->
<g id="node58" class="node"><title>2179141989520</title>
<ellipse fill="none" stroke="black" cx="1762.76" cy="-162" rx="27" ry="18"/>
<text text-anchor="middle" x="1762.76" y="-158.5" font-family="Times New Roman,serif" font-size="15.00">seq</text>
</g>
<!-- 2179141989616&#45;&#45;2179141989520 -->
<g id="edge49" class="edge"><title>2179141989616&#45;&#45;2179141989520</title>
<path fill="none" stroke="black" d="M1567.61,-225.376C1609.74,-211.91 1696.83,-184.073 1738.94,-170.615"/>
</g>
<!-- 2179141990096 -->
<g id="node59" class="node"><title>2179141990096</title>
<ellipse fill="none" stroke="black" cx="1665.76" cy="-90" rx="148.91" ry="18"/>
<text text-anchor="middle" x="1665.76" y="-86.5" font-family="Times New Roman,serif" font-size="15.00">Notify Result Appeal to Offender</text>
</g>
<!-- 2179141989520&#45;&#45;2179141990096 -->
<g id="edge45" class="edge"><title>2179141989520&#45;&#45;2179141990096</title>
<path fill="none" stroke="black" d="M1744.97,-148.161C1729.33,-136.873 1706.44,-120.36 1689.29,-107.981"/>
</g>
<!-- 2179141992160 -->
<g id="node60" class="node"><title>2179141992160</title>
<ellipse fill="none" stroke="black" cx="1859.76" cy="-90" rx="27" ry="18"/>
<text text-anchor="middle" x="1859.76" y="-86.5" font-family="Times New Roman,serif" font-size="15.00">xor</text>
</g>
<!-- 2179141989520&#45;&#45;2179141992160 -->
<g id="edge48" class="edge"><title>2179141989520&#45;&#45;2179141992160</title>
<path fill="none" stroke="black" d="M1780.55,-148.161C1798.05,-135.531 1824.62,-116.36 1842.08,-103.758"/>
</g>
<!-- 2179141990000 -->
<g id="node61" class="node"><title>2179141990000</title>
<ellipse fill="black" stroke="black" cx="1788.76" cy="-18" rx="2.7" ry="2.7"/>
</g>
<!-- 2179141992160&#45;&#45;2179141990000 -->
<g id="edge46" class="edge"><title>2179141992160&#45;&#45;2179141990000</title>
<path fill="none" stroke="black" d="M1845.05,-74.496C1826.85,-56.5555 1797.4,-27.5217 1790.33,-20.5436"/>
</g>
<!-- 2179141991104 -->
<g id="node62" class="node"><title>2179141991104</title>
<ellipse fill="none" stroke="black" cx="1930.76" cy="-18" rx="120.819" ry="18"/>
<text text-anchor="middle" x="1930.76" y="-14.5" font-family="Times New Roman,serif" font-size="15.00">Send for Credit Collection</text>
</g>
<!-- 2179141992160&#45;&#45;2179141991104 -->
<g id="edge47" class="edge"><title>2179141992160&#45;&#45;2179141991104</title>
<path fill="none" stroke="black" d="M1874.47,-74.496C1885.84,-63.2831 1901.61,-47.737 1913.57,-35.9506"/>
</g>
<!-- 2179135910576 -->
<g id="node67" class="node"><title>2179135910576</title>
<ellipse fill="black" stroke="black" cx="1029.76" cy="-954" rx="2.7" ry="2.7"/>
</g>
<!-- 2179134966272&#45;&#45;2179135910576 -->
<g id="edge65" class="edge"><title>2179134966272&#45;&#45;2179135910576</title>
<path fill="none" stroke="black" d="M1086.05,-1010.5C1067.85,-992.555 1038.4,-963.522 1031.33,-956.544"/>
</g>
<!-- 2179135911200 -->
<g id="node68" class="node"><title>2179135911200</title>
<ellipse fill="none" stroke="black" cx="1171.76" cy="-954" rx="120.819" ry="18"/>
<text text-anchor="middle" x="1171.76" y="-950.5" font-family="Times New Roman,serif" font-size="15.00">Send for Credit Collection</text>
</g>
<!-- 2179134966272&#45;&#45;2179135911200 -->
<g id="edge66" class="edge"><title>2179134966272&#45;&#45;2179135911200</title>
<path fill="none" stroke="black" d="M1115.47,-1010.5C1126.84,-999.283 1142.61,-983.737 1154.57,-971.951"/>
</g>
<!-- 2179135913888 -->
<g id="node69" class="node"><title>2179135913888</title>
<ellipse fill="none" stroke="black" cx="1356.76" cy="-954" rx="45.7249" ry="18"/>
<text text-anchor="middle" x="1356.76" y="-950.5" font-family="Times New Roman,serif" font-size="15.00">Payment</text>
</g>
<!-- 2179134966272&#45;&#45;2179135913888 -->
<g id="edge67" class="edge"><title>2179134966272&#45;&#45;2179135913888</title>
<path fill="none" stroke="black" d="M1125.31,-1018.29C1170.48,-1005.93 1267.02,-979.539 1320.03,-965.044"/>
</g>
</g>
</svg>
