<?xml version="1.0" encoding="UTF-8" standalone="no"?>
<!DOCTYPE svg PUBLIC "-//W3C//DTD SVG 1.1//EN"
 "http://www.w3.org/Graphics/SVG/1.1/DTD/svg11.dtd">
<!-- Generated by graphviz version 2.38.0 (20140413.2041)
 -->
<!-- Title: pt Pages: 1 -->
<svg width="586pt" height="476pt"
 viewBox="0.00 0.00 585.62 476.00" xmlns="http://www.w3.org/2000/svg" xmlns:xlink="http://www.w3.org/1999/xlink">
<g id="graph0" class="graph" transform="scale(1 1) rotate(0) translate(4 472)">
<title>pt</title>
<!-- 2178931623920 -->
<g id="node1" class="node"><title>2178931623920</title>
<ellipse fill="none" stroke="black" cx="111.76" cy="-450" rx="27" ry="18"/>
<text text-anchor="middle" x="111.76" y="-446.5" font-family="Times New Roman,serif" font-size="15.00">seq</text>
</g>
<!-- 2178931623776 -->
<g id="node2" class="node"><title>2178931623776</title>
<ellipse fill="none" stroke="black" cx="59.7599" cy="-378" rx="59.5207" ry="18"/>
<text text-anchor="middle" x="59.7599" y="-374.5" font-family="Times New Roman,serif" font-size="15.00">Create Fine</text>
</g>
<!-- 2178931623920&#45;&#45;2178931623776 -->
<g id="edge1" class="edge"><title>2178931623920&#45;&#45;2178931623776</title>
<path fill="none" stroke="black" d="M100.219,-433.465C91.9612,-422.348 80.8493,-407.39 72.3601,-395.962"/>
</g>
<!-- 2178931623488 -->
<g id="node3" class="node"><title>2178931623488</title>
<ellipse fill="none" stroke="black" cx="164.76" cy="-378" rx="27" ry="18"/>
<text text-anchor="middle" x="164.76" y="-374.5" font-family="Times New Roman,serif" font-size="15.00">xor</text>
</g>
<!-- 2178931623920&#45;&#45;2178931623488 -->
<g id="edge15" class="edge"><title>2178931623920&#45;&#45;2178931623488</title>
<path fill="none" stroke="black" d="M123.522,-433.465C132.305,-421.865 144.255,-406.082 153.03,-394.492"/>
</g>
<!-- 2178931622816 -->
<g id="node4" class="node"><title>2178931622816</title>
<ellipse fill="none" stroke="black" cx="118.76" cy="-306" rx="45.7249" ry="18"/>
<text text-anchor="middle" x="118.76" y="-302.5" font-family="Times New Roman,serif" font-size="15.00">Payment</text>
</g>
<!-- 2178931623488&#45;&#45;2178931622816 -->
<g id="edge2" class="edge"><title>2178931623488&#45;&#45;2178931622816</title>
<path fill="none" stroke="black" d="M154.322,-361.116C147.006,-349.983 137.243,-335.127 129.798,-323.797"/>
</g>
<!-- 2178931622528 -->
<g id="node5" class="node"><title>2178931622528</title>
<ellipse fill="none" stroke="black" cx="209.76" cy="-306" rx="27" ry="18"/>
<text text-anchor="middle" x="209.76" y="-302.5" font-family="Times New Roman,serif" font-size="15.00">seq</text>
</g>
<!-- 2178931623488&#45;&#45;2178931622528 -->
<g id="edge14" class="edge"><title>2178931623488&#45;&#45;2178931622528</title>
<path fill="none" stroke="black" d="M174.971,-361.116C182.336,-349.66 192.234,-334.263 199.589,-322.821"/>
</g>
<!-- 2178931622960 -->
<g id="node6" class="node"><title>2178931622960</title>
<ellipse fill="none" stroke="black" cx="111.76" cy="-234" rx="52.6228" ry="18"/>
<text text-anchor="middle" x="111.76" y="-230.5" font-family="Times New Roman,serif" font-size="15.00">Send Fine</text>
</g>
<!-- 2178931622528&#45;&#45;2178931622960 -->
<g id="edge3" class="edge"><title>2178931622528&#45;&#45;2178931622960</title>
<path fill="none" stroke="black" d="M191.785,-292.161C175.318,-280.399 150.911,-262.965 133.384,-250.446"/>
</g>
<!-- 2178931623200 -->
<g id="node7" class="node"><title>2178931623200</title>
<ellipse fill="none" stroke="black" cx="209.76" cy="-234" rx="27" ry="18"/>
<text text-anchor="middle" x="209.76" y="-230.5" font-family="Times New Roman,serif" font-size="15.00">xor</text>
</g>
<!-- 2178931622528&#45;&#45;2178931623200 -->
<g id="edge6" class="edge"><title>2178931622528&#45;&#45;2178931623200</title>
<path fill="none" stroke="black" d="M209.76,-287.697C209.76,-276.846 209.76,-262.917 209.76,-252.104"/>
</g>
<!-- 2178931622000 -->
<g id="node10" class="node"><title>2178931622000</title>
<ellipse fill="none" stroke="black" cx="337.76" cy="-234" rx="27" ry="18"/>
<text text-anchor="middle" x="337.76" y="-230.5" font-family="Times New Roman,serif" font-size="15.00">xor</text>
</g>
<!-- 2178931622528&#45;&#45;2178931622000 -->
<g id="edge13" class="edge"><title>2178931622528&#45;&#45;2178931622000</title>
<path fill="none" stroke="black" d="M230.042,-293.908C254.01,-280.801 293.647,-259.124 317.573,-246.04"/>
</g>
<!-- 2178931546144 -->
<g id="node8" class="node"><title>2178931546144</title>
<ellipse fill="black" stroke="black" cx="81.7599" cy="-162" rx="2.7" ry="2.7"/>
</g>
<!-- 2178931623200&#45;&#45;2178931546144 -->
<g id="edge4" class="edge"><title>2178931623200&#45;&#45;2178931546144</title>
<path fill="none" stroke="black" d="M189.478,-221.908C157.051,-204.175 95.9423,-170.756 83.8641,-164.151"/>
</g>
<!-- 2178931545568 -->
<g id="node9" class="node"><title>2178931545568</title>
<ellipse fill="none" stroke="black" cx="209.76" cy="-162" rx="107.914" ry="18"/>
<text text-anchor="middle" x="209.76" y="-158.5" font-family="Times New Roman,serif" font-size="15.00">Insert Fine Notification</text>
</g>
<!-- 2178931623200&#45;&#45;2178931545568 -->
<g id="edge5" class="edge"><title>2178931623200&#45;&#45;2178931545568</title>
<path fill="none" stroke="black" d="M209.76,-215.697C209.76,-204.846 209.76,-190.917 209.76,-180.104"/>
</g>
<!-- 2178931546096 -->
<g id="node11" class="node"><title>2178931546096</title>
<ellipse fill="black" stroke="black" cx="337.76" cy="-162" rx="2.7" ry="2.7"/>
</g>
<!-- 2178931622000&#45;&#45;2178931546096 -->
<g id="edge7" class="edge"><title>2178931622000&#45;&#45;2178931546096</title>
<path fill="none" stroke="black" d="M337.76,-215.697C337.76,-197.883 337.76,-171.769 337.76,-164.776"/>
</g>
<!-- 2178931545808 -->
<g id="node12" class="node"><title>2178931545808</title>
<ellipse fill="none" stroke="black" cx="385.76" cy="-162" rx="27" ry="18"/>
<text text-anchor="middle" x="385.76" y="-158.5" font-family="Times New Roman,serif" font-size="15.00">seq</text>
</g>
<!-- 2178931622000&#45;&#45;2178931545808 -->
<g id="edge12" class="edge"><title>2178931622000&#45;&#45;2178931545808</title>
<path fill="none" stroke="black" d="M348.652,-217.116C356.507,-205.66 367.065,-190.263 374.911,-178.821"/>
</g>
<!-- 2178931544176 -->
<g id="node13" class="node"><title>2178931544176</title>
<ellipse fill="none" stroke="black" cx="331.76" cy="-90" rx="61.6894" ry="18"/>
<text text-anchor="middle" x="331.76" y="-86.5" font-family="Times New Roman,serif" font-size="15.00">Add penalty</text>
</g>
<!-- 2178931545808&#45;&#45;2178931544176 -->
<g id="edge8" class="edge"><title>2178931545808&#45;&#45;2178931544176</title>
<path fill="none" stroke="black" d="M373.776,-145.465C365.2,-134.348 353.66,-119.39 344.845,-107.962"/>
</g>
<!-- 2178931545040 -->
<g id="node14" class="node"><title>2178931545040</title>
<ellipse fill="none" stroke="black" cx="438.76" cy="-90" rx="27" ry="18"/>
<text text-anchor="middle" x="438.76" y="-86.5" font-family="Times New Roman,serif" font-size="15.00">xor</text>
</g>
<!-- 2178931545808&#45;&#45;2178931545040 -->
<g id="edge11" class="edge"><title>2178931545808&#45;&#45;2178931545040</title>
<path fill="none" stroke="black" d="M397.522,-145.465C406.305,-133.865 418.255,-118.082 427.03,-106.492"/>
</g>
<!-- 2178931547200 -->
<g id="node15" class="node"><title>2178931547200</title>
<ellipse fill="none" stroke="black" cx="346.76" cy="-18" rx="120.819" ry="18"/>
<text text-anchor="middle" x="346.76" y="-14.5" font-family="Times New Roman,serif" font-size="15.00">Send for Credit Collection</text>
</g>
<!-- 2178931545040&#45;&#45;2178931547200 -->
<g id="edge9" class="edge"><title>2178931545040&#45;&#45;2178931547200</title>
<path fill="none" stroke="black" d="M421.455,-75.8335C406.569,-64.5068 385.006,-48.1005 368.871,-35.8238"/>
</g>
<!-- 2178931546480 -->
<g id="node16" class="node"><title>2178931546480</title>
<ellipse fill="none" stroke="black" cx="531.76" cy="-18" rx="45.7249" ry="18"/>
<text text-anchor="middle" x="531.76" y="-14.5" font-family="Times New Roman,serif" font-size="15.00">Payment</text>
</g>
<!-- 2178931545040&#45;&#45;2178931546480 -->
<g id="edge10" class="edge"><title>2178931545040&#45;&#45;2178931546480</title>
<path fill="none" stroke="black" d="M456.252,-75.8335C471.932,-64.0315 494.939,-46.7148 511.431,-34.301"/>
</g>
</g>
</svg>
