<?xml version="1.0" encoding="UTF-8" standalone="no"?>
<!DOCTYPE svg PUBLIC "-//W3C//DTD SVG 1.1//EN"
 "http://www.w3.org/Graphics/SVG/1.1/DTD/svg11.dtd">
<!-- Generated by graphviz version 2.38.0 (20140413.2041)
 -->
<!-- Title: pt Pages: 1 -->
<svg width="1003pt" height="476pt"
 viewBox="0.00 0.00 1002.91 476.00" xmlns="http://www.w3.org/2000/svg" xmlns:xlink="http://www.w3.org/1999/xlink">
<g id="graph0" class="graph" transform="scale(1 1) rotate(0) translate(4 472)">
<title>pt</title>
<!-- 2178929347504 -->
<g id="node1" class="node"><title>2178929347504</title>
<ellipse fill="none" stroke="black" cx="433.7" cy="-450" rx="27" ry="18"/>
<text text-anchor="middle" x="433.7" y="-446.5" font-family="Times New Roman,serif" font-size="15.00">seq</text>
</g>
<!-- 2178929345680 -->
<g id="node2" class="node"><title>2178929345680</title>
<ellipse fill="none" stroke="black" cx="292.7" cy="-378" rx="59.5207" ry="18"/>
<text text-anchor="middle" x="292.7" y="-374.5" font-family="Times New Roman,serif" font-size="15.00">Create Fine</text>
</g>
<!-- 2178929347504&#45;&#45;2178929345680 -->
<g id="edge1" class="edge"><title>2178929347504&#45;&#45;2178929345680</title>
<path fill="none" stroke="black" d="M412.591,-438.52C388.622,-426.621 349.345,-407.122 322.317,-393.704"/>
</g>
<!-- 2178929347600 -->
<g id="node3" class="node"><title>2178929347600</title>
<ellipse fill="none" stroke="black" cx="397.7" cy="-378" rx="27" ry="18"/>
<text text-anchor="middle" x="397.7" y="-374.5" font-family="Times New Roman,serif" font-size="15.00">xor</text>
</g>
<!-- 2178929347504&#45;&#45;2178929347600 -->
<g id="edge4" class="edge"><title>2178929347504&#45;&#45;2178929347600</title>
<path fill="none" stroke="black" d="M425.35,-432.765C419.535,-421.456 411.81,-406.437 406.004,-395.147"/>
</g>
<!-- 2178929346976 -->
<g id="node6" class="node"><title>2178929346976</title>
<ellipse fill="none" stroke="black" cx="470.7" cy="-378" rx="27" ry="18"/>
<text text-anchor="middle" x="470.7" y="-374.5" font-family="Times New Roman,serif" font-size="15.00">xor</text>
</g>
<!-- 2178929347504&#45;&#45;2178929346976 -->
<g id="edge25" class="edge"><title>2178929347504&#45;&#45;2178929346976</title>
<path fill="none" stroke="black" d="M442.282,-432.765C448.259,-421.456 456.198,-406.437 462.165,-395.147"/>
</g>
<!-- 2178929345296 -->
<g id="node27" class="node"><title>2178929345296</title>
<ellipse fill="none" stroke="black" cx="566.7" cy="-378" rx="27" ry="18"/>
<text text-anchor="middle" x="566.7" y="-374.5" font-family="Times New Roman,serif" font-size="15.00">xor</text>
</g>
<!-- 2178929347504&#45;&#45;2178929345296 -->
<g id="edge28" class="edge"><title>2178929347504&#45;&#45;2178929345296</title>
<path fill="none" stroke="black" d="M454.19,-438.216C479.11,-425.1 520.938,-403.085 545.968,-389.912"/>
</g>
<!-- 2178929347792 -->
<g id="node4" class="node"><title>2178929347792</title>
<ellipse fill="black" stroke="black" cx="322.7" cy="-306" rx="2.7" ry="2.7"/>
</g>
<!-- 2178929347600&#45;&#45;2178929347792 -->
<g id="edge2" class="edge"><title>2178929347600&#45;&#45;2178929347792</title>
<path fill="none" stroke="black" d="M382.523,-362.834C363.347,-344.937 331.927,-315.612 324.372,-308.56"/>
</g>
<!-- 2178929345104 -->
<g id="node5" class="node"><title>2178929345104</title>
<ellipse fill="none" stroke="black" cx="396.7" cy="-306" rx="52.6228" ry="18"/>
<text text-anchor="middle" x="396.7" y="-302.5" font-family="Times New Roman,serif" font-size="15.00">Send Fine</text>
</g>
<!-- 2178929347600&#45;&#45;2178929345104 -->
<g id="edge3" class="edge"><title>2178929347600&#45;&#45;2178929345104</title>
<path fill="none" stroke="black" d="M397.453,-359.697C397.298,-348.846 397.099,-334.917 396.944,-324.104"/>
</g>
<!-- 2178929346112 -->
<g id="node7" class="node"><title>2178929346112</title>
<ellipse fill="black" stroke="black" cx="470.7" cy="-306" rx="2.7" ry="2.7"/>
</g>
<!-- 2178929346976&#45;&#45;2178929346112 -->
<g id="edge5" class="edge"><title>2178929346976&#45;&#45;2178929346112</title>
<path fill="none" stroke="black" d="M470.7,-359.697C470.7,-341.883 470.7,-315.769 470.7,-308.776"/>
</g>
<!-- 2178929345584 -->
<g id="node8" class="node"><title>2178929345584</title>
<ellipse fill="none" stroke="black" cx="518.7" cy="-306" rx="27" ry="18"/>
<text text-anchor="middle" x="518.7" y="-302.5" font-family="Times New Roman,serif" font-size="15.00">seq</text>
</g>
<!-- 2178929346976&#45;&#45;2178929345584 -->
<g id="edge24" class="edge"><title>2178929346976&#45;&#45;2178929345584</title>
<path fill="none" stroke="black" d="M481.592,-361.116C489.447,-349.66 500.006,-334.263 507.851,-322.821"/>
</g>
<!-- 2178929347360 -->
<g id="node9" class="node"><title>2178929347360</title>
<ellipse fill="none" stroke="black" cx="130.7" cy="-234" rx="27" ry="18"/>
<text text-anchor="middle" x="130.7" y="-230.5" font-family="Times New Roman,serif" font-size="15.00">xor</text>
</g>
<!-- 2178929345584&#45;&#45;2178929347360 -->
<g id="edge8" class="edge"><title>2178929345584&#45;&#45;2178929347360</title>
<path fill="none" stroke="black" d="M492.942,-300.353C422.447,-287.635 226.933,-252.362 156.449,-239.645"/>
</g>
<!-- 2178929345824 -->
<g id="node12" class="node"><title>2178929345824</title>
<ellipse fill="none" stroke="black" cx="423.7" cy="-234" rx="27" ry="18"/>
<text text-anchor="middle" x="423.7" y="-230.5" font-family="Times New Roman,serif" font-size="15.00">xor</text>
</g>
<!-- 2178929345584&#45;&#45;2178929345824 -->
<g id="edge11" class="edge"><title>2178929345584&#45;&#45;2178929345824</title>
<path fill="none" stroke="black" d="M501.276,-292.161C484.242,-279.61 458.442,-260.599 441.336,-247.995"/>
</g>
<!-- 2178929345632 -->
<g id="node15" class="node"><title>2178929345632</title>
<ellipse fill="none" stroke="black" cx="613.7" cy="-234" rx="27" ry="18"/>
<text text-anchor="middle" x="613.7" y="-230.5" font-family="Times New Roman,serif" font-size="15.00">and</text>
</g>
<!-- 2178929345584&#45;&#45;2178929345632 -->
<g id="edge20" class="edge"><title>2178929345584&#45;&#45;2178929345632</title>
<path fill="none" stroke="black" d="M536.124,-292.161C553.158,-279.61 578.958,-260.599 596.064,-247.995"/>
</g>
<!-- 2178929347312 -->
<g id="node24" class="node"><title>2178929347312</title>
<ellipse fill="none" stroke="black" cx="733.7" cy="-234" rx="27" ry="18"/>
<text text-anchor="middle" x="733.7" y="-230.5" font-family="Times New Roman,serif" font-size="15.00">xor</text>
</g>
<!-- 2178929345584&#45;&#45;2178929347312 -->
<g id="edge23" class="edge"><title>2178929345584&#45;&#45;2178929347312</title>
<path fill="none" stroke="black" d="M542.53,-297.241C583.858,-283.786 668.361,-256.273 709.763,-242.793"/>
</g>
<!-- 2178929345392 -->
<g id="node10" class="node"><title>2178929345392</title>
<ellipse fill="black" stroke="black" cx="2.7" cy="-162" rx="2.7" ry="2.7"/>
</g>
<!-- 2178929347360&#45;&#45;2178929345392 -->
<g id="edge6" class="edge"><title>2178929347360&#45;&#45;2178929345392</title>
<path fill="none" stroke="black" d="M110.418,-221.908C77.9911,-204.175 16.8824,-170.756 4.80418,-164.151"/>
</g>
<!-- 2178929346400 -->
<g id="node11" class="node"><title>2178929346400</title>
<ellipse fill="none" stroke="black" cx="130.7" cy="-162" rx="107.914" ry="18"/>
<text text-anchor="middle" x="130.7" y="-158.5" font-family="Times New Roman,serif" font-size="15.00">Insert Fine Notification</text>
</g>
<!-- 2178929347360&#45;&#45;2178929346400 -->
<g id="edge7" class="edge"><title>2178929347360&#45;&#45;2178929346400</title>
<path fill="none" stroke="black" d="M130.7,-215.697C130.7,-204.846 130.7,-190.917 130.7,-180.104"/>
</g>
<!-- 2178929346928 -->
<g id="node13" class="node"><title>2178929346928</title>
<ellipse fill="black" stroke="black" cx="258.7" cy="-162" rx="2.7" ry="2.7"/>
</g>
<!-- 2178929345824&#45;&#45;2178929346928 -->
<g id="edge9" class="edge"><title>2178929345824&#45;&#45;2178929346928</title>
<path fill="none" stroke="black" d="M401.447,-223.559C360.28,-206.094 275.105,-169.96 260.769,-163.878"/>
</g>
<!-- 2178929345200 -->
<g id="node14" class="node"><title>2178929345200</title>
<ellipse fill="none" stroke="black" cx="423.7" cy="-162" rx="144.571" ry="18"/>
<text text-anchor="middle" x="423.7" y="-158.5" font-family="Times New Roman,serif" font-size="15.00">Insert Date Appeal to Prefecture</text>
</g>
<!-- 2178929345824&#45;&#45;2178929345200 -->
<g id="edge10" class="edge"><title>2178929345824&#45;&#45;2178929345200</title>
<path fill="none" stroke="black" d="M423.7,-215.697C423.7,-204.846 423.7,-190.917 423.7,-180.104"/>
</g>
<!-- 2178929143184 -->
<g id="node16" class="node"><title>2178929143184</title>
<ellipse fill="none" stroke="black" cx="613.7" cy="-162" rx="27" ry="18"/>
<text text-anchor="middle" x="613.7" y="-158.5" font-family="Times New Roman,serif" font-size="15.00">xor</text>
</g>
<!-- 2178929345632&#45;&#45;2178929143184 -->
<g id="edge16" class="edge"><title>2178929345632&#45;&#45;2178929143184</title>
<path fill="none" stroke="black" d="M613.7,-215.697C613.7,-204.846 613.7,-190.917 613.7,-180.104"/>
</g>
<!-- 2178929142224 -->
<g id="node21" class="node"><title>2178929142224</title>
<ellipse fill="none" stroke="black" cx="685.7" cy="-162" rx="27" ry="18"/>
<text text-anchor="middle" x="685.7" y="-158.5" font-family="Times New Roman,serif" font-size="15.00">xor</text>
</g>
<!-- 2178929345632&#45;&#45;2178929142224 -->
<g id="edge19" class="edge"><title>2178929345632&#45;&#45;2178929142224</title>
<path fill="none" stroke="black" d="M628.27,-218.834C640.68,-206.77 658.431,-189.512 670.904,-177.385"/>
</g>
<!-- 2178929142752 -->
<g id="node17" class="node"><title>2178929142752</title>
<ellipse fill="black" stroke="black" cx="547.7" cy="-90" rx="2.7" ry="2.7"/>
</g>
<!-- 2178929143184&#45;&#45;2178929142752 -->
<g id="edge12" class="edge"><title>2178929143184&#45;&#45;2178929142752</title>
<path fill="none" stroke="black" d="M599.703,-146.155C582.751,-128.175 555.65,-99.4321 549.14,-92.5271"/>
</g>
<!-- 2178929142944 -->
<g id="node18" class="node"><title>2178929142944</title>
<ellipse fill="none" stroke="black" cx="614.7" cy="-90" rx="46.6143" ry="18"/>
<text text-anchor="middle" x="614.7" y="-86.5" font-family="Times New Roman,serif" font-size="15.00">xor loop</text>
</g>
<!-- 2178929143184&#45;&#45;2178929142944 -->
<g id="edge15" class="edge"><title>2178929143184&#45;&#45;2178929142944</title>
<path fill="none" stroke="black" d="M613.947,-143.697C614.102,-132.846 614.301,-118.917 614.456,-108.104"/>
</g>
<!-- 2178929139920 -->
<g id="node19" class="node"><title>2178929139920</title>
<ellipse fill="none" stroke="black" cx="580.7" cy="-18" rx="45.7249" ry="18"/>
<text text-anchor="middle" x="580.7" y="-14.5" font-family="Times New Roman,serif" font-size="15.00">Payment</text>
</g>
<!-- 2178929142944&#45;&#45;2178929139920 -->
<g id="edge13" class="edge"><title>2178929142944&#45;&#45;2178929139920</title>
<path fill="none" stroke="black" d="M606.47,-72.055C601.124,-61.0492 594.185,-46.7636 588.855,-35.789"/>
</g>
<!-- 2178929141312 -->
<g id="node20" class="node"><title>2178929141312</title>
<ellipse fill="black" stroke="black" cx="647.7" cy="-18" rx="2.7" ry="2.7"/>
</g>
<!-- 2178929142944&#45;&#45;2178929141312 -->
<g id="edge14" class="edge"><title>2178929142944&#45;&#45;2178929141312</title>
<path fill="none" stroke="black" d="M622.688,-72.055C631.081,-54.2515 643.521,-27.8653 646.853,-20.7963"/>
</g>
<!-- 2178929143040 -->
<g id="node22" class="node"><title>2178929143040</title>
<ellipse fill="black" stroke="black" cx="683.7" cy="-90" rx="2.7" ry="2.7"/>
</g>
<!-- 2178929142224&#45;&#45;2178929143040 -->
<g id="edge17" class="edge"><title>2178929142224&#45;&#45;2178929143040</title>
<path fill="none" stroke="black" d="M685.206,-143.697C684.697,-125.883 683.951,-99.7686 683.751,-92.7764"/>
</g>
<!-- 2178929141408 -->
<g id="node23" class="node"><title>2178929141408</title>
<ellipse fill="none" stroke="black" cx="766.7" cy="-90" rx="61.6894" ry="18"/>
<text text-anchor="middle" x="766.7" y="-86.5" font-family="Times New Roman,serif" font-size="15.00">Add penalty</text>
</g>
<!-- 2178929142224&#45;&#45;2178929141408 -->
<g id="edge18" class="edge"><title>2178929142224&#45;&#45;2178929141408</title>
<path fill="none" stroke="black" d="M701.703,-147.17C714.981,-135.695 733.887,-119.357 747.888,-107.257"/>
</g>
<!-- 2178929141024 -->
<g id="node25" class="node"><title>2178929141024</title>
<ellipse fill="black" stroke="black" cx="733.7" cy="-162" rx="2.7" ry="2.7"/>
</g>
<!-- 2178929347312&#45;&#45;2178929141024 -->
<g id="edge21" class="edge"><title>2178929347312&#45;&#45;2178929141024</title>
<path fill="none" stroke="black" d="M733.7,-215.697C733.7,-197.883 733.7,-171.769 733.7,-164.776"/>
</g>
<!-- 2178929140496 -->
<g id="node26" class="node"><title>2178929140496</title>
<ellipse fill="none" stroke="black" cx="874.7" cy="-162" rx="120.43" ry="18"/>
<text text-anchor="middle" x="874.7" y="-158.5" font-family="Times New Roman,serif" font-size="15.00">Send Appeal to Prefecture</text>
</g>
<!-- 2178929347312&#45;&#45;2178929140496 -->
<g id="edge22" class="edge"><title>2178929347312&#45;&#45;2178929140496</title>
<path fill="none" stroke="black" d="M754.809,-222.52C777.78,-211.116 814.809,-192.733 841.642,-179.412"/>
</g>
<!-- 2178929344720 -->
<g id="node28" class="node"><title>2178929344720</title>
<ellipse fill="black" stroke="black" cx="566.7" cy="-306" rx="2.7" ry="2.7"/>
</g>
<!-- 2178929345296&#45;&#45;2178929344720 -->
<g id="edge26" class="edge"><title>2178929345296&#45;&#45;2178929344720</title>
<path fill="none" stroke="black" d="M566.7,-359.697C566.7,-341.883 566.7,-315.769 566.7,-308.776"/>
</g>
<!-- 2178929141744 -->
<g id="node29" class="node"><title>2178929141744</title>
<ellipse fill="none" stroke="black" cx="708.7" cy="-306" rx="120.819" ry="18"/>
<text text-anchor="middle" x="708.7" y="-302.5" font-family="Times New Roman,serif" font-size="15.00">Send for Credit Collection</text>
</g>
<!-- 2178929345296&#45;&#45;2178929141744 -->
<g id="edge27" class="edge"><title>2178929345296&#45;&#45;2178929141744</title>
<path fill="none" stroke="black" d="M587.959,-366.52C611.092,-355.116 648.384,-336.733 675.408,-323.412"/>
</g>
</g>
</svg>
