<?xml version="1.0" encoding="UTF-8" standalone="no"?>
<!DOCTYPE svg PUBLIC "-//W3C//DTD SVG 1.1//EN"
 "http://www.w3.org/Graphics/SVG/1.1/DTD/svg11.dtd">
<!-- Generated by graphviz version 2.38.0 (20140413.2041)
 -->
<!-- Title: pt Pages: 1 -->
<svg width="1940pt" height="1124pt"
 viewBox="0.00 0.00 1939.72 1124.00" xmlns="http://www.w3.org/2000/svg" xmlns:xlink="http://www.w3.org/1999/xlink">
<g id="graph0" class="graph" transform="scale(1 1) rotate(0) translate(4 1120)">
<title>pt</title>
<!-- 2179136449264 -->
<g id="node1" class="node"><title>2179136449264</title>
<ellipse fill="none" stroke="black" cx="448.811" cy="-1098" rx="27" ry="18"/>
<text text-anchor="middle" x="448.811" y="-1094.5" font-family="Times New Roman,serif" font-size="15.00">seq</text>
</g>
<!-- 2179136448112 -->
<g id="node2" class="node"><title>2179136448112</title>
<ellipse fill="none" stroke="black" cx="109.811" cy="-1026" rx="59.5207" ry="18"/>
<text text-anchor="middle" x="109.811" y="-1022.5" font-family="Times New Roman,serif" font-size="15.00">Create Fine</text>
</g>
<!-- 2179136449264&#45;&#45;2179136448112 -->
<g id="edge1" class="edge"><title>2179136449264&#45;&#45;2179136448112</title>
<path fill="none" stroke="black" d="M423.331,-1091.74C366.897,-1080.09 230.609,-1051.94 157.706,-1036.89"/>
</g>
<!-- 2179136447920 -->
<g id="node3" class="node"><title>2179136447920</title>
<ellipse fill="none" stroke="black" cx="214.811" cy="-1026" rx="27" ry="18"/>
<text text-anchor="middle" x="214.811" y="-1022.5" font-family="Times New Roman,serif" font-size="15.00">xor</text>
</g>
<!-- 2179136449264&#45;&#45;2179136447920 -->
<g id="edge8" class="edge"><title>2179136449264&#45;&#45;2179136447920</title>
<path fill="none" stroke="black" d="M424.65,-1089.77C379.81,-1076.36 284.196,-1047.76 239.191,-1034.29"/>
</g>
<!-- 2179136447584 -->
<g id="node10" class="node"><title>2179136447584</title>
<ellipse fill="none" stroke="black" cx="366.811" cy="-1026" rx="27" ry="18"/>
<text text-anchor="middle" x="366.811" y="-1022.5" font-family="Times New Roman,serif" font-size="15.00">xor</text>
</g>
<!-- 2179136449264&#45;&#45;2179136447584 -->
<g id="edge11" class="edge"><title>2179136449264&#45;&#45;2179136447584</title>
<path fill="none" stroke="black" d="M432.61,-1083.17C418.141,-1070.82 397.072,-1052.83 382.699,-1040.56"/>
</g>
<!-- 2179136447296 -->
<g id="node13" class="node"><title>2179136447296</title>
<ellipse fill="none" stroke="black" cx="531.811" cy="-1026" rx="27" ry="18"/>
<text text-anchor="middle" x="531.811" y="-1022.5" font-family="Times New Roman,serif" font-size="15.00">xor</text>
</g>
<!-- 2179136449264&#45;&#45;2179136447296 -->
<g id="edge14" class="edge"><title>2179136449264&#45;&#45;2179136447296</title>
<path fill="none" stroke="black" d="M465.209,-1083.17C479.855,-1070.82 501.181,-1052.83 515.729,-1040.56"/>
</g>
<!-- 2179103561520 -->
<g id="node16" class="node"><title>2179103561520</title>
<ellipse fill="none" stroke="black" cx="813.811" cy="-1026" rx="27" ry="18"/>
<text text-anchor="middle" x="813.811" y="-1022.5" font-family="Times New Roman,serif" font-size="15.00">xor</text>
</g>
<!-- 2179136449264&#45;&#45;2179103561520 -->
<g id="edge59" class="edge"><title>2179136449264&#45;&#45;2179103561520</title>
<path fill="none" stroke="black" d="M474.477,-1092.08C541.494,-1079.23 721.188,-1044.76 788.173,-1031.92"/>
</g>
<!-- 2179103560272 -->
<g id="node61" class="node"><title>2179103560272</title>
<ellipse fill="none" stroke="black" cx="909.811" cy="-1026" rx="27" ry="18"/>
<text text-anchor="middle" x="909.811" y="-1022.5" font-family="Times New Roman,serif" font-size="15.00">xor</text>
</g>
<!-- 2179136449264&#45;&#45;2179103560272 -->
<g id="edge62" class="edge"><title>2179136449264&#45;&#45;2179103560272</title>
<path fill="none" stroke="black" d="M474.917,-1093.04C555.963,-1080.73 802.662,-1043.27 883.706,-1030.96"/>
</g>
<!-- 2179136448160 -->
<g id="node4" class="node"><title>2179136448160</title>
<ellipse fill="black" stroke="black" cx="67.8111" cy="-954" rx="2.7" ry="2.7"/>
</g>
<!-- 2179136447920&#45;&#45;2179136448160 -->
<g id="edge2" class="edge"><title>2179136447920&#45;&#45;2179136448160</title>
<path fill="none" stroke="black" d="M193.436,-1014.82C156.488,-997.227 83.3339,-962.392 69.9422,-956.015"/>
</g>
<!-- 2179136448256 -->
<g id="node5" class="node"><title>2179136448256</title>
<ellipse fill="none" stroke="black" cx="134.811" cy="-954" rx="46.6143" ry="18"/>
<text text-anchor="middle" x="134.811" y="-950.5" font-family="Times New Roman,serif" font-size="15.00">xor loop</text>
</g>
<!-- 2179136447920&#45;&#45;2179136448256 -->
<g id="edge7" class="edge"><title>2179136447920&#45;&#45;2179136448256</title>
<path fill="none" stroke="black" d="M199.006,-1011.17C185.709,-999.536 166.699,-982.902 152.818,-970.756"/>
</g>
<!-- 2179103562192 -->
<g id="node6" class="node"><title>2179103562192</title>
<ellipse fill="none" stroke="black" cx="110.811" cy="-882" rx="27" ry="18"/>
<text text-anchor="middle" x="110.811" y="-878.5" font-family="Times New Roman,serif" font-size="15.00">xor</text>
</g>
<!-- 2179136448256&#45;&#45;2179103562192 -->
<g id="edge5" class="edge"><title>2179136448256&#45;&#45;2179103562192</title>
<path fill="none" stroke="black" d="M129.001,-936.055C125.228,-925.049 120.33,-910.764 116.567,-899.789"/>
</g>
<!-- 2179103559792 -->
<g id="node9" class="node"><title>2179103559792</title>
<ellipse fill="black" stroke="black" cx="158.811" cy="-882" rx="2.7" ry="2.7"/>
</g>
<!-- 2179136448256&#45;&#45;2179103559792 -->
<g id="edge6" class="edge"><title>2179136448256&#45;&#45;2179103559792</title>
<path fill="none" stroke="black" d="M140.621,-936.055C146.725,-918.252 155.772,-891.865 158.195,-884.796"/>
</g>
<!-- 2179103560560 -->
<g id="node7" class="node"><title>2179103560560</title>
<ellipse fill="none" stroke="black" cx="52.8111" cy="-810" rx="52.6228" ry="18"/>
<text text-anchor="middle" x="52.8111" y="-806.5" font-family="Times New Roman,serif" font-size="15.00">Send Fine</text>
</g>
<!-- 2179103562192&#45;&#45;2179103560560 -->
<g id="edge3" class="edge"><title>2179103562192&#45;&#45;2179103560560</title>
<path fill="none" stroke="black" d="M98.2259,-865.811C88.8972,-854.552 76.1894,-839.215 66.5884,-827.628"/>
</g>
<!-- 2179103561808 -->
<g id="node8" class="node"><title>2179103561808</title>
<ellipse fill="none" stroke="black" cx="169.811" cy="-810" rx="45.7249" ry="18"/>
<text text-anchor="middle" x="169.811" y="-806.5" font-family="Times New Roman,serif" font-size="15.00">Payment</text>
</g>
<!-- 2179103562192&#45;&#45;2179103561808 -->
<g id="edge4" class="edge"><title>2179103562192&#45;&#45;2179103561808</title>
<path fill="none" stroke="black" d="M123.613,-865.811C133.103,-854.552 146.03,-839.215 155.796,-827.628"/>
</g>
<!-- 2179103560032 -->
<g id="node11" class="node"><title>2179103560032</title>
<ellipse fill="black" stroke="black" cx="201.811" cy="-954" rx="2.7" ry="2.7"/>
</g>
<!-- 2179136447584&#45;&#45;2179103560032 -->
<g id="edge9" class="edge"><title>2179136447584&#45;&#45;2179103560032</title>
<path fill="none" stroke="black" d="M344.558,-1015.56C303.391,-998.094 218.216,-961.96 203.88,-955.878"/>
</g>
<!-- 2179103561904 -->
<g id="node12" class="node"><title>2179103561904</title>
<ellipse fill="none" stroke="black" cx="366.811" cy="-954" rx="144.571" ry="18"/>
<text text-anchor="middle" x="366.811" y="-950.5" font-family="Times New Roman,serif" font-size="15.00">Insert Date Appeal to Prefecture</text>
</g>
<!-- 2179136447584&#45;&#45;2179103561904 -->
<g id="edge10" class="edge"><title>2179136447584&#45;&#45;2179103561904</title>
<path fill="none" stroke="black" d="M366.811,-1007.7C366.811,-996.846 366.811,-982.917 366.811,-972.104"/>
</g>
<!-- 2179103562576 -->
<g id="node14" class="node"><title>2179103562576</title>
<ellipse fill="black" stroke="black" cx="531.811" cy="-954" rx="2.7" ry="2.7"/>
</g>
<!-- 2179136447296&#45;&#45;2179103562576 -->
<g id="edge12" class="edge"><title>2179136447296&#45;&#45;2179103562576</title>
<path fill="none" stroke="black" d="M531.811,-1007.7C531.811,-989.883 531.811,-963.769 531.811,-956.776"/>
</g>
<!-- 2179103563440 -->
<g id="node15" class="node"><title>2179103563440</title>
<ellipse fill="none" stroke="black" cx="672.811" cy="-954" rx="120.43" ry="18"/>
<text text-anchor="middle" x="672.811" y="-950.5" font-family="Times New Roman,serif" font-size="15.00">Send Appeal to Prefecture</text>
</g>
<!-- 2179136447296&#45;&#45;2179103563440 -->
<g id="edge13" class="edge"><title>2179136447296&#45;&#45;2179103563440</title>
<path fill="none" stroke="black" d="M552.92,-1014.52C575.891,-1003.12 612.92,-984.733 639.754,-971.412"/>
</g>
<!-- 2179103561856 -->
<g id="node17" class="node"><title>2179103561856</title>
<ellipse fill="black" stroke="black" cx="813.811" cy="-954" rx="2.7" ry="2.7"/>
</g>
<!-- 2179103561520&#45;&#45;2179103561856 -->
<g id="edge15" class="edge"><title>2179103561520&#45;&#45;2179103561856</title>
<path fill="none" stroke="black" d="M813.811,-1007.7C813.811,-989.883 813.811,-963.769 813.811,-956.776"/>
</g>
<!-- 2179103561616 -->
<g id="node18" class="node"><title>2179103561616</title>
<ellipse fill="none" stroke="black" cx="861.811" cy="-954" rx="27" ry="18"/>
<text text-anchor="middle" x="861.811" y="-950.5" font-family="Times New Roman,serif" font-size="15.00">seq</text>
</g>
<!-- 2179103561520&#45;&#45;2179103561616 -->
<g id="edge58" class="edge"><title>2179103561520&#45;&#45;2179103561616</title>
<path fill="none" stroke="black" d="M824.703,-1009.12C832.558,-997.66 843.117,-982.263 850.962,-970.821"/>
</g>
<!-- 2179103562336 -->
<g id="node19" class="node"><title>2179103562336</title>
<ellipse fill="none" stroke="black" cx="723.811" cy="-882" rx="27" ry="18"/>
<text text-anchor="middle" x="723.811" y="-878.5" font-family="Times New Roman,serif" font-size="15.00">xor</text>
</g>
<!-- 2179103561616&#45;&#45;2179103562336 -->
<g id="edge18" class="edge"><title>2179103561616&#45;&#45;2179103562336</title>
<path fill="none" stroke="black" d="M840.852,-942.369C814.914,-929.212 770.996,-906.934 744.968,-893.732"/>
</g>
<!-- 2179103560800 -->
<g id="node22" class="node"><title>2179103560800</title>
<ellipse fill="none" stroke="black" cx="861.811" cy="-882" rx="27" ry="18"/>
<text text-anchor="middle" x="861.811" y="-878.5" font-family="Times New Roman,serif" font-size="15.00">xor</text>
</g>
<!-- 2179103561616&#45;&#45;2179103560800 -->
<g id="edge21" class="edge"><title>2179103561616&#45;&#45;2179103560800</title>
<path fill="none" stroke="black" d="M861.811,-935.697C861.811,-924.846 861.811,-910.917 861.811,-900.104"/>
</g>
<!-- 2179103563344 -->
<g id="node25" class="node"><title>2179103563344</title>
<ellipse fill="none" stroke="black" cx="1053.81" cy="-882" rx="27" ry="18"/>
<text text-anchor="middle" x="1053.81" y="-878.5" font-family="Times New Roman,serif" font-size="15.00">xor</text>
</g>
<!-- 2179103561616&#45;&#45;2179103563344 -->
<g id="edge57" class="edge"><title>2179103561616&#45;&#45;2179103563344</title>
<path fill="none" stroke="black" d="M884.971,-944.556C921.874,-931.102 993.614,-904.947 1030.57,-891.474"/>
</g>
<!-- 2179103562960 -->
<g id="node20" class="node"><title>2179103562960</title>
<ellipse fill="black" stroke="black" cx="649.811" cy="-810" rx="2.7" ry="2.7"/>
</g>
<!-- 2179103562336&#45;&#45;2179103562960 -->
<g id="edge16" class="edge"><title>2179103562336&#45;&#45;2179103562960</title>
<path fill="none" stroke="black" d="M708.836,-866.834C689.916,-848.937 658.915,-819.612 651.46,-812.56"/>
</g>
<!-- 2179103560512 -->
<g id="node21" class="node"><title>2179103560512</title>
<ellipse fill="none" stroke="black" cx="723.811" cy="-810" rx="52.6228" ry="18"/>
<text text-anchor="middle" x="723.811" y="-806.5" font-family="Times New Roman,serif" font-size="15.00">Send Fine</text>
</g>
<!-- 2179103562336&#45;&#45;2179103560512 -->
<g id="edge17" class="edge"><title>2179103562336&#45;&#45;2179103560512</title>
<path fill="none" stroke="black" d="M723.811,-863.697C723.811,-852.846 723.811,-838.917 723.811,-828.104"/>
</g>
<!-- 2179103561040 -->
<g id="node23" class="node"><title>2179103561040</title>
<ellipse fill="black" stroke="black" cx="797.811" cy="-810" rx="2.7" ry="2.7"/>
</g>
<!-- 2179103560800&#45;&#45;2179103561040 -->
<g id="edge19" class="edge"><title>2179103560800&#45;&#45;2179103561040</title>
<path fill="none" stroke="black" d="M848.238,-866.155C831.8,-848.175 805.52,-819.432 799.207,-812.527"/>
</g>
<!-- 2179103560368 -->
<g id="node24" class="node"><title>2179103560368</title>
<ellipse fill="none" stroke="black" cx="925.811" cy="-810" rx="107.914" ry="18"/>
<text text-anchor="middle" x="925.811" y="-806.5" font-family="Times New Roman,serif" font-size="15.00">Insert Fine Notification</text>
</g>
<!-- 2179103560800&#45;&#45;2179103560368 -->
<g id="edge20" class="edge"><title>2179103560800&#45;&#45;2179103560368</title>
<path fill="none" stroke="black" d="M875.384,-866.155C885.584,-854.998 899.574,-839.696 910.232,-828.04"/>
</g>
<!-- 2179103560944 -->
<g id="node26" class="node"><title>2179103560944</title>
<ellipse fill="black" stroke="black" cx="1053.81" cy="-810" rx="2.7" ry="2.7"/>
</g>
<!-- 2179103563344&#45;&#45;2179103560944 -->
<g id="edge22" class="edge"><title>2179103563344&#45;&#45;2179103560944</title>
<path fill="none" stroke="black" d="M1053.81,-863.697C1053.81,-845.883 1053.81,-819.769 1053.81,-812.776"/>
</g>
<!-- 2179103560464 -->
<g id="node27" class="node"><title>2179103560464</title>
<ellipse fill="none" stroke="black" cx="1101.81" cy="-810" rx="27" ry="18"/>
<text text-anchor="middle" x="1101.81" y="-806.5" font-family="Times New Roman,serif" font-size="15.00">and</text>
</g>
<!-- 2179103563344&#45;&#45;2179103560464 -->
<g id="edge56" class="edge"><title>2179103563344&#45;&#45;2179103560464</title>
<path fill="none" stroke="black" d="M1064.7,-865.116C1072.56,-853.66 1083.12,-838.263 1090.96,-826.821"/>
</g>
<!-- 2179115417904 -->
<g id="node28" class="node"><title>2179115417904</title>
<ellipse fill="none" stroke="black" cx="1045.81" cy="-738" rx="46.6143" ry="18"/>
<text text-anchor="middle" x="1045.81" y="-734.5" font-family="Times New Roman,serif" font-size="15.00">xor loop</text>
</g>
<!-- 2179103560464&#45;&#45;2179115417904 -->
<g id="edge29" class="edge"><title>2179103560464&#45;&#45;2179115417904</title>
<path fill="none" stroke="black" d="M1089.66,-793.811C1080.65,-782.552 1068.38,-767.215 1059.11,-755.628"/>
</g>
<!-- 2179115417808 -->
<g id="node35" class="node"><title>2179115417808</title>
<ellipse fill="none" stroke="black" cx="1156.81" cy="-738" rx="46.6143" ry="18"/>
<text text-anchor="middle" x="1156.81" y="-734.5" font-family="Times New Roman,serif" font-size="15.00">xor loop</text>
</g>
<!-- 2179103560464&#45;&#45;2179115417808 -->
<g id="edge55" class="edge"><title>2179103560464&#45;&#45;2179115417808</title>
<path fill="none" stroke="black" d="M1113.75,-793.811C1122.59,-782.552 1134.64,-767.215 1143.75,-755.628"/>
</g>
<!-- 2179115421360 -->
<g id="node29" class="node"><title>2179115421360</title>
<ellipse fill="black" stroke="black" cx="999.811" cy="-666" rx="2.7" ry="2.7"/>
</g>
<!-- 2179115417904&#45;&#45;2179115421360 -->
<g id="edge23" class="edge"><title>2179115417904&#45;&#45;2179115421360</title>
<path fill="none" stroke="black" d="M1034.91,-720.411C1023.22,-702.622 1005.7,-675.962 1001,-668.816"/>
</g>
<!-- 2179103570768 -->
<g id="node30" class="node"><title>2179103570768</title>
<ellipse fill="none" stroke="black" cx="1047.81" cy="-666" rx="27" ry="18"/>
<text text-anchor="middle" x="1047.81" y="-662.5" font-family="Times New Roman,serif" font-size="15.00">and</text>
</g>
<!-- 2179115417904&#45;&#45;2179103570768 -->
<g id="edge28" class="edge"><title>2179115417904&#45;&#45;2179103570768</title>
<path fill="none" stroke="black" d="M1046.31,-719.697C1046.62,-708.846 1047.01,-694.917 1047.32,-684.104"/>
</g>
<!-- 2179103570336 -->
<g id="node31" class="node"><title>2179103570336</title>
<ellipse fill="none" stroke="black" cx="922.811" cy="-594" rx="46.6143" ry="18"/>
<text text-anchor="middle" x="922.811" y="-590.5" font-family="Times New Roman,serif" font-size="15.00">xor loop</text>
</g>
<!-- 2179103570768&#45;&#45;2179103570336 -->
<g id="edge26" class="edge"><title>2179103570768&#45;&#45;2179103570336</title>
<path fill="none" stroke="black" d="M1027.73,-653.753C1006.2,-641.695 971.946,-622.516 948.474,-609.371"/>
</g>
<!-- 2179103570816 -->
<g id="node34" class="node"><title>2179103570816</title>
<ellipse fill="none" stroke="black" cx="1048.81" cy="-594" rx="61.6894" ry="18"/>
<text text-anchor="middle" x="1048.81" y="-590.5" font-family="Times New Roman,serif" font-size="15.00">Add penalty</text>
</g>
<!-- 2179103570768&#45;&#45;2179103570816 -->
<g id="edge27" class="edge"><title>2179103570768&#45;&#45;2179103570816</title>
<path fill="none" stroke="black" d="M1048.06,-647.697C1048.21,-636.846 1048.41,-622.917 1048.57,-612.104"/>
</g>
<!-- 2179136363776 -->
<g id="node32" class="node"><title>2179136363776</title>
<ellipse fill="black" stroke="black" cx="889.811" cy="-522" rx="2.7" ry="2.7"/>
</g>
<!-- 2179103570336&#45;&#45;2179136363776 -->
<g id="edge24" class="edge"><title>2179103570336&#45;&#45;2179136363776</title>
<path fill="none" stroke="black" d="M914.823,-576.055C906.43,-558.252 893.99,-531.865 890.658,-524.796"/>
</g>
<!-- 2179136558896 -->
<g id="node33" class="node"><title>2179136558896</title>
<ellipse fill="none" stroke="black" cx="956.811" cy="-522" rx="45.7249" ry="18"/>
<text text-anchor="middle" x="956.811" y="-518.5" font-family="Times New Roman,serif" font-size="15.00">Payment</text>
</g>
<!-- 2179103570336&#45;&#45;2179136558896 -->
<g id="edge25" class="edge"><title>2179103570336&#45;&#45;2179136558896</title>
<path fill="none" stroke="black" d="M931.042,-576.055C936.387,-565.049 943.326,-550.764 948.656,-539.789"/>
</g>
<!-- 2179115419632 -->
<g id="node36" class="node"><title>2179115419632</title>
<ellipse fill="none" stroke="black" cx="1156.81" cy="-666" rx="27" ry="18"/>
<text text-anchor="middle" x="1156.81" y="-662.5" font-family="Times New Roman,serif" font-size="15.00">seq</text>
</g>
<!-- 2179115417808&#45;&#45;2179115419632 -->
<g id="edge53" class="edge"><title>2179115417808&#45;&#45;2179115419632</title>
<path fill="none" stroke="black" d="M1156.81,-719.697C1156.81,-708.846 1156.81,-694.917 1156.81,-684.104"/>
</g>
<!-- 2179115419344 -->
<g id="node60" class="node"><title>2179115419344</title>
<ellipse fill="black" stroke="black" cx="1204.81" cy="-666" rx="2.7" ry="2.7"/>
</g>
<!-- 2179115417808&#45;&#45;2179115419344 -->
<g id="edge54" class="edge"><title>2179115417808&#45;&#45;2179115419344</title>
<path fill="none" stroke="black" d="M1168.19,-720.411C1180.38,-702.622 1198.67,-675.962 1203.57,-668.816"/>
</g>
<!-- 2179115418384 -->
<g id="node37" class="node"><title>2179115418384</title>
<ellipse fill="none" stroke="black" cx="1155.81" cy="-594" rx="27" ry="18"/>
<text text-anchor="middle" x="1155.81" y="-590.5" font-family="Times New Roman,serif" font-size="15.00">xor</text>
</g>
<!-- 2179115419632&#45;&#45;2179115418384 -->
<g id="edge32" class="edge"><title>2179115419632&#45;&#45;2179115418384</title>
<path fill="none" stroke="black" d="M1156.56,-647.697C1156.41,-636.846 1156.21,-622.917 1156.06,-612.104"/>
</g>
<!-- 2179115420304 -->
<g id="node40" class="node"><title>2179115420304</title>
<ellipse fill="none" stroke="black" cx="1254.81" cy="-594" rx="27" ry="18"/>
<text text-anchor="middle" x="1254.81" y="-590.5" font-family="Times New Roman,serif" font-size="15.00">xor</text>
</g>
<!-- 2179115419632&#45;&#45;2179115420304 -->
<g id="edge52" class="edge"><title>2179115419632&#45;&#45;2179115420304</title>
<path fill="none" stroke="black" d="M1174.79,-652.161C1192.47,-639.531 1219.31,-620.36 1236.95,-607.758"/>
</g>
<!-- 2179115420112 -->
<g id="node38" class="node"><title>2179115420112</title>
<ellipse fill="black" stroke="black" cx="1056.81" cy="-522" rx="2.7" ry="2.7"/>
</g>
<!-- 2179115418384&#45;&#45;2179115420112 -->
<g id="edge30" class="edge"><title>2179115418384&#45;&#45;2179115420112</title>
<path fill="none" stroke="black" d="M1137.65,-580.161C1112.2,-562.163 1067.96,-530.883 1058.59,-524.256"/>
</g>
<!-- 2179115421168 -->
<g id="node39" class="node"><title>2179115421168</title>
<ellipse fill="none" stroke="black" cx="1155.81" cy="-522" rx="78.5434" ry="18"/>
<text text-anchor="middle" x="1155.81" y="-518.5" font-family="Times New Roman,serif" font-size="15.00">Appeal to Judge</text>
</g>
<!-- 2179115418384&#45;&#45;2179115421168 -->
<g id="edge31" class="edge"><title>2179115418384&#45;&#45;2179115421168</title>
<path fill="none" stroke="black" d="M1155.81,-575.697C1155.81,-564.846 1155.81,-550.917 1155.81,-540.104"/>
</g>
<!-- 2179115418576 -->
<g id="node41" class="node"><title>2179115418576</title>
<ellipse fill="black" stroke="black" cx="1254.81" cy="-522" rx="2.7" ry="2.7"/>
</g>
<!-- 2179115420304&#45;&#45;2179115418576 -->
<g id="edge33" class="edge"><title>2179115420304&#45;&#45;2179115418576</title>
<path fill="none" stroke="black" d="M1254.81,-575.697C1254.81,-557.883 1254.81,-531.769 1254.81,-524.776"/>
</g>
<!-- 2179115421456 -->
<g id="node42" class="node"><title>2179115421456</title>
<ellipse fill="none" stroke="black" cx="1321.81" cy="-522" rx="46.6143" ry="18"/>
<text text-anchor="middle" x="1321.81" y="-518.5" font-family="Times New Roman,serif" font-size="15.00">xor loop</text>
</g>
<!-- 2179115420304&#45;&#45;2179115421456 -->
<g id="edge51" class="edge"><title>2179115420304&#45;&#45;2179115421456</title>
<path fill="none" stroke="black" d="M1268.69,-578.496C1279.66,-567.043 1294.95,-551.069 1306.31,-539.198"/>
</g>
<!-- 2179103570960 -->
<g id="node43" class="node"><title>2179103570960</title>
<ellipse fill="none" stroke="black" cx="1297.81" cy="-450" rx="27" ry="18"/>
<text text-anchor="middle" x="1297.81" y="-446.5" font-family="Times New Roman,serif" font-size="15.00">seq</text>
</g>
<!-- 2179115421456&#45;&#45;2179103570960 -->
<g id="edge49" class="edge"><title>2179115421456&#45;&#45;2179103570960</title>
<path fill="none" stroke="black" d="M1316,-504.055C1312.23,-493.049 1307.33,-478.764 1303.57,-467.789"/>
</g>
<!-- 2179103571056 -->
<g id="node59" class="node"><title>2179103571056</title>
<ellipse fill="black" stroke="black" cx="1345.81" cy="-450" rx="2.7" ry="2.7"/>
</g>
<!-- 2179115421456&#45;&#45;2179103571056 -->
<g id="edge50" class="edge"><title>2179115421456&#45;&#45;2179103571056</title>
<path fill="none" stroke="black" d="M1327.62,-504.055C1333.72,-486.252 1342.77,-459.865 1345.2,-452.796"/>
</g>
<!-- 2179103571152 -->
<g id="node44" class="node"><title>2179103571152</title>
<ellipse fill="none" stroke="black" cx="1215.81" cy="-378" rx="27" ry="18"/>
<text text-anchor="middle" x="1215.81" y="-374.5" font-family="Times New Roman,serif" font-size="15.00">xor</text>
</g>
<!-- 2179103570960&#45;&#45;2179103571152 -->
<g id="edge36" class="edge"><title>2179103570960&#45;&#45;2179103571152</title>
<path fill="none" stroke="black" d="M1281.61,-435.17C1267.14,-422.819 1246.07,-404.832 1231.7,-392.563"/>
</g>
<!-- 2179103571488 -->
<g id="node47" class="node"><title>2179103571488</title>
<ellipse fill="none" stroke="black" cx="1380.81" cy="-378" rx="27" ry="18"/>
<text text-anchor="middle" x="1380.81" y="-374.5" font-family="Times New Roman,serif" font-size="15.00">xor</text>
</g>
<!-- 2179103570960&#45;&#45;2179103571488 -->
<g id="edge48" class="edge"><title>2179103570960&#45;&#45;2179103571488</title>
<path fill="none" stroke="black" d="M1314.21,-435.17C1328.85,-422.819 1350.18,-404.832 1364.73,-392.563"/>
</g>
<!-- 2179103571920 -->
<g id="node45" class="node"><title>2179103571920</title>
<ellipse fill="black" stroke="black" cx="1050.81" cy="-306" rx="2.7" ry="2.7"/>
</g>
<!-- 2179103571152&#45;&#45;2179103571920 -->
<g id="edge34" class="edge"><title>2179103571152&#45;&#45;2179103571920</title>
<path fill="none" stroke="black" d="M1193.56,-367.559C1152.39,-350.094 1067.22,-313.96 1052.88,-307.878"/>
</g>
<!-- 2179103571008 -->
<g id="node46" class="node"><title>2179103571008</title>
<ellipse fill="none" stroke="black" cx="1215.81" cy="-306" rx="144.571" ry="18"/>
<text text-anchor="middle" x="1215.81" y="-302.5" font-family="Times New Roman,serif" font-size="15.00">Insert Date Appeal to Prefecture</text>
</g>
<!-- 2179103571152&#45;&#45;2179103571008 -->
<g id="edge35" class="edge"><title>2179103571152&#45;&#45;2179103571008</title>
<path fill="none" stroke="black" d="M1215.81,-359.697C1215.81,-348.846 1215.81,-334.917 1215.81,-324.104"/>
</g>
<!-- 2179103571440 -->
<g id="node48" class="node"><title>2179103571440</title>
<ellipse fill="black" stroke="black" cx="1380.81" cy="-306" rx="2.7" ry="2.7"/>
</g>
<!-- 2179103571488&#45;&#45;2179103571440 -->
<g id="edge37" class="edge"><title>2179103571488&#45;&#45;2179103571440</title>
<path fill="none" stroke="black" d="M1380.81,-359.697C1380.81,-341.883 1380.81,-315.769 1380.81,-308.776"/>
</g>
<!-- 2179103570624 -->
<g id="node49" class="node"><title>2179103570624</title>
<ellipse fill="none" stroke="black" cx="1447.81" cy="-306" rx="46.6143" ry="18"/>
<text text-anchor="middle" x="1447.81" y="-302.5" font-family="Times New Roman,serif" font-size="15.00">xor loop</text>
</g>
<!-- 2179103571488&#45;&#45;2179103570624 -->
<g id="edge47" class="edge"><title>2179103571488&#45;&#45;2179103570624</title>
<path fill="none" stroke="black" d="M1394.69,-362.496C1405.66,-351.043 1420.95,-335.069 1432.31,-323.198"/>
</g>
<!-- 2179115343152 -->
<g id="node50" class="node"><title>2179115343152</title>
<ellipse fill="none" stroke="black" cx="1423.81" cy="-234" rx="27" ry="18"/>
<text text-anchor="middle" x="1423.81" y="-230.5" font-family="Times New Roman,serif" font-size="15.00">xor</text>
</g>
<!-- 2179103570624&#45;&#45;2179115343152 -->
<g id="edge45" class="edge"><title>2179103570624&#45;&#45;2179115343152</title>
<path fill="none" stroke="black" d="M1442,-288.055C1438.23,-277.049 1433.33,-262.764 1429.57,-251.789"/>
</g>
<!-- 2179115343728 -->
<g id="node58" class="node"><title>2179115343728</title>
<ellipse fill="black" stroke="black" cx="1471.81" cy="-234" rx="2.7" ry="2.7"/>
</g>
<!-- 2179103570624&#45;&#45;2179115343728 -->
<g id="edge46" class="edge"><title>2179103570624&#45;&#45;2179115343728</title>
<path fill="none" stroke="black" d="M1453.62,-288.055C1459.72,-270.252 1468.77,-243.865 1471.2,-236.796"/>
</g>
<!-- 2179115342480 -->
<g id="node51" class="node"><title>2179115342480</title>
<ellipse fill="none" stroke="black" cx="1111.81" cy="-162" rx="120.43" ry="18"/>
<text text-anchor="middle" x="1111.81" y="-158.5" font-family="Times New Roman,serif" font-size="15.00">Send Appeal to Prefecture</text>
</g>
<!-- 2179115343152&#45;&#45;2179115342480 -->
<g id="edge38" class="edge"><title>2179115343152&#45;&#45;2179115342480</title>
<path fill="none" stroke="black" d="M1398.54,-227.331C1350.45,-216.541 1244.44,-192.755 1175.66,-177.326"/>
</g>
<!-- 2179115343344 -->
<g id="node52" class="node"><title>2179115343344</title>
<ellipse fill="none" stroke="black" cx="1423.81" cy="-162" rx="173.941" ry="18"/>
<text text-anchor="middle" x="1423.81" y="-158.5" font-family="Times New Roman,serif" font-size="15.00">Receive Result Appeal from Prefecture</text>
</g>
<!-- 2179115343152&#45;&#45;2179115343344 -->
<g id="edge39" class="edge"><title>2179115343152&#45;&#45;2179115343344</title>
<path fill="none" stroke="black" d="M1423.81,-215.697C1423.81,-204.846 1423.81,-190.917 1423.81,-180.104"/>
</g>
<!-- 2179136558416 -->
<g id="node53" class="node"><title>2179136558416</title>
<ellipse fill="none" stroke="black" cx="1642.81" cy="-162" rx="27" ry="18"/>
<text text-anchor="middle" x="1642.81" y="-158.5" font-family="Times New Roman,serif" font-size="15.00">seq</text>
</g>
<!-- 2179115343152&#45;&#45;2179136558416 -->
<g id="edge44" class="edge"><title>2179115343152&#45;&#45;2179136558416</title>
<path fill="none" stroke="black" d="M1447.66,-225.376C1489.79,-211.91 1576.88,-184.073 1618.99,-170.615"/>
</g>
<!-- 2179136559184 -->
<g id="node54" class="node"><title>2179136559184</title>
<ellipse fill="none" stroke="black" cx="1545.81" cy="-90" rx="148.91" ry="18"/>
<text text-anchor="middle" x="1545.81" y="-86.5" font-family="Times New Roman,serif" font-size="15.00">Notify Result Appeal to Offender</text>
</g>
<!-- 2179136558416&#45;&#45;2179136559184 -->
<g id="edge40" class="edge"><title>2179136558416&#45;&#45;2179136559184</title>
<path fill="none" stroke="black" d="M1625.02,-148.161C1609.38,-136.873 1586.5,-120.36 1569.34,-107.981"/>
</g>
<!-- 2179136559280 -->
<g id="node55" class="node"><title>2179136559280</title>
<ellipse fill="none" stroke="black" cx="1739.81" cy="-90" rx="27" ry="18"/>
<text text-anchor="middle" x="1739.81" y="-86.5" font-family="Times New Roman,serif" font-size="15.00">xor</text>
</g>
<!-- 2179136558416&#45;&#45;2179136559280 -->
<g id="edge43" class="edge"><title>2179136558416&#45;&#45;2179136559280</title>
<path fill="none" stroke="black" d="M1660.6,-148.161C1678.1,-135.531 1704.67,-116.36 1722.13,-103.758"/>
</g>
<!-- 2179115398672 -->
<g id="node56" class="node"><title>2179115398672</title>
<ellipse fill="black" stroke="black" cx="1668.81" cy="-18" rx="2.7" ry="2.7"/>
</g>
<!-- 2179136559280&#45;&#45;2179115398672 -->
<g id="edge41" class="edge"><title>2179136559280&#45;&#45;2179115398672</title>
<path fill="none" stroke="black" d="M1725.1,-74.496C1706.9,-56.5555 1677.45,-27.5217 1670.38,-20.5436"/>
</g>
<!-- 2179115400496 -->
<g id="node57" class="node"><title>2179115400496</title>
<ellipse fill="none" stroke="black" cx="1810.81" cy="-18" rx="120.819" ry="18"/>
<text text-anchor="middle" x="1810.81" y="-14.5" font-family="Times New Roman,serif" font-size="15.00">Send for Credit Collection</text>
</g>
<!-- 2179136559280&#45;&#45;2179115400496 -->
<g id="edge42" class="edge"><title>2179136559280&#45;&#45;2179115400496</title>
<path fill="none" stroke="black" d="M1754.52,-74.496C1765.9,-63.2831 1781.66,-47.737 1793.62,-35.9506"/>
</g>
<!-- 2179103562720 -->
<g id="node62" class="node"><title>2179103562720</title>
<ellipse fill="black" stroke="black" cx="909.811" cy="-954" rx="2.7" ry="2.7"/>
</g>
<!-- 2179103560272&#45;&#45;2179103562720 -->
<g id="edge60" class="edge"><title>2179103560272&#45;&#45;2179103562720</title>
<path fill="none" stroke="black" d="M909.811,-1007.7C909.811,-989.883 909.811,-963.769 909.811,-956.776"/>
</g>
<!-- 2179103561472 -->
<g id="node63" class="node"><title>2179103561472</title>
<ellipse fill="none" stroke="black" cx="1051.81" cy="-954" rx="120.819" ry="18"/>
<text text-anchor="middle" x="1051.81" y="-950.5" font-family="Times New Roman,serif" font-size="15.00">Send for Credit Collection</text>
</g>
<!-- 2179103560272&#45;&#45;2179103561472 -->
<g id="edge61" class="edge"><title>2179103560272&#45;&#45;2179103561472</title>
<path fill="none" stroke="black" d="M931.07,-1014.52C954.203,-1003.12 991.495,-984.733 1018.52,-971.412"/>
</g>
</g>
</svg>
