<?xml version="1.0" encoding="UTF-8" standalone="no"?>
<!DOCTYPE svg PUBLIC "-//W3C//DTD SVG 1.1//EN"
 "http://www.w3.org/Graphics/SVG/1.1/DTD/svg11.dtd">
<!-- Generated by graphviz version 2.38.0 (20140413.2041)
 -->
<!-- Title: pt Pages: 1 -->
<svg width="1946pt" height="764pt"
 viewBox="0.00 0.00 1946.03 764.00" xmlns="http://www.w3.org/2000/svg" xmlns:xlink="http://www.w3.org/1999/xlink">
<g id="graph0" class="graph" transform="scale(1 1) rotate(0) translate(4 760)">
<title>pt</title>
<!-- 2179124300096 -->
<g id="node1" class="node"><title>2179124300096</title>
<ellipse fill="none" stroke="black" cx="602.811" cy="-738" rx="27" ry="18"/>
<text text-anchor="middle" x="602.811" y="-734.5" font-family="Times New Roman,serif" font-size="15.00">seq</text>
</g>
<!-- 2179124298656 -->
<g id="node2" class="node"><title>2179124298656</title>
<ellipse fill="none" stroke="black" cx="109.811" cy="-666" rx="59.5207" ry="18"/>
<text text-anchor="middle" x="109.811" y="-662.5" font-family="Times New Roman,serif" font-size="15.00">Create Fine</text>
</g>
<!-- 2179124300096&#45;&#45;2179124298656 -->
<g id="edge1" class="edge"><title>2179124300096&#45;&#45;2179124298656</title>
<path fill="none" stroke="black" d="M576.653,-733.286C498.819,-722.234 267.604,-689.405 162.667,-674.505"/>
</g>
<!-- 2179121756000 -->
<g id="node3" class="node"><title>2179121756000</title>
<ellipse fill="none" stroke="black" cx="214.811" cy="-666" rx="27" ry="18"/>
<text text-anchor="middle" x="214.811" y="-662.5" font-family="Times New Roman,serif" font-size="15.00">xor</text>
</g>
<!-- 2179124300096&#45;&#45;2179121756000 -->
<g id="edge8" class="edge"><title>2179124300096&#45;&#45;2179121756000</title>
<path fill="none" stroke="black" d="M577.053,-732.353C506.558,-719.635 311.044,-684.362 240.56,-671.645"/>
</g>
<!-- 2179124298368 -->
<g id="node10" class="node"><title>2179124298368</title>
<ellipse fill="none" stroke="black" cx="366.811" cy="-666" rx="27" ry="18"/>
<text text-anchor="middle" x="366.811" y="-662.5" font-family="Times New Roman,serif" font-size="15.00">xor</text>
</g>
<!-- 2179124300096&#45;&#45;2179124298368 -->
<g id="edge11" class="edge"><title>2179124300096&#45;&#45;2179124298368</title>
<path fill="none" stroke="black" d="M578.444,-729.772C533.103,-716.324 436.286,-687.607 391.046,-674.188"/>
</g>
<!-- 2179140054992 -->
<g id="node13" class="node"><title>2179140054992</title>
<ellipse fill="none" stroke="black" cx="602.811" cy="-666" rx="27" ry="18"/>
<text text-anchor="middle" x="602.811" y="-662.5" font-family="Times New Roman,serif" font-size="15.00">xor</text>
</g>
<!-- 2179124300096&#45;&#45;2179140054992 -->
<g id="edge14" class="edge"><title>2179124300096&#45;&#45;2179140054992</title>
<path fill="none" stroke="black" d="M602.811,-719.697C602.811,-708.846 602.811,-694.917 602.811,-684.104"/>
</g>
<!-- 2179124298080 -->
<g id="node16" class="node"><title>2179124298080</title>
<ellipse fill="none" stroke="black" cx="813.811" cy="-666" rx="27" ry="18"/>
<text text-anchor="middle" x="813.811" y="-662.5" font-family="Times New Roman,serif" font-size="15.00">xor</text>
</g>
<!-- 2179124300096&#45;&#45;2179124298080 -->
<g id="edge17" class="edge"><title>2179124300096&#45;&#45;2179124298080</title>
<path fill="none" stroke="black" d="M626.605,-729.106C667.237,-715.626 749.531,-688.325 790.104,-674.865"/>
</g>
<!-- 2179140053360 -->
<g id="node19" class="node"><title>2179140053360</title>
<ellipse fill="none" stroke="black" cx="961.811" cy="-666" rx="27" ry="18"/>
<text text-anchor="middle" x="961.811" y="-662.5" font-family="Times New Roman,serif" font-size="15.00">xor</text>
</g>
<!-- 2179124300096&#45;&#45;2179140053360 -->
<g id="edge56" class="edge"><title>2179124300096&#45;&#45;2179140053360</title>
<path fill="none" stroke="black" d="M628.342,-732.022C694.34,-719.153 870.051,-684.892 936.17,-672"/>
</g>
<!-- 2179138088288 -->
<g id="node58" class="node"><title>2179138088288</title>
<ellipse fill="none" stroke="black" cx="1057.81" cy="-666" rx="27" ry="18"/>
<text text-anchor="middle" x="1057.81" y="-662.5" font-family="Times New Roman,serif" font-size="15.00">xor</text>
</g>
<!-- 2179124300096&#45;&#45;2179138088288 -->
<g id="edge59" class="edge"><title>2179124300096&#45;&#45;2179138088288</title>
<path fill="none" stroke="black" d="M628.908,-732.985C709.161,-720.638 951.709,-683.323 1031.82,-670.999"/>
</g>
<!-- 2179140054272 -->
<g id="node4" class="node"><title>2179140054272</title>
<ellipse fill="black" stroke="black" cx="67.8111" cy="-594" rx="2.7" ry="2.7"/>
</g>
<!-- 2179121756000&#45;&#45;2179140054272 -->
<g id="edge2" class="edge"><title>2179121756000&#45;&#45;2179140054272</title>
<path fill="none" stroke="black" d="M193.436,-654.821C156.488,-637.227 83.3339,-602.392 69.9422,-596.015"/>
</g>
<!-- 2179121757968 -->
<g id="node5" class="node"><title>2179121757968</title>
<ellipse fill="none" stroke="black" cx="134.811" cy="-594" rx="46.6143" ry="18"/>
<text text-anchor="middle" x="134.811" y="-590.5" font-family="Times New Roman,serif" font-size="15.00">xor loop</text>
</g>
<!-- 2179121756000&#45;&#45;2179121757968 -->
<g id="edge7" class="edge"><title>2179121756000&#45;&#45;2179121757968</title>
<path fill="none" stroke="black" d="M199.006,-651.17C185.709,-639.536 166.699,-622.902 152.818,-610.756"/>
</g>
<!-- 2179140053936 -->
<g id="node6" class="node"><title>2179140053936</title>
<ellipse fill="none" stroke="black" cx="110.811" cy="-522" rx="27" ry="18"/>
<text text-anchor="middle" x="110.811" y="-518.5" font-family="Times New Roman,serif" font-size="15.00">xor</text>
</g>
<!-- 2179121757968&#45;&#45;2179140053936 -->
<g id="edge5" class="edge"><title>2179121757968&#45;&#45;2179140053936</title>
<path fill="none" stroke="black" d="M129.001,-576.055C125.228,-565.049 120.33,-550.764 116.567,-539.789"/>
</g>
<!-- 2179140053312 -->
<g id="node9" class="node"><title>2179140053312</title>
<ellipse fill="black" stroke="black" cx="158.811" cy="-522" rx="2.7" ry="2.7"/>
</g>
<!-- 2179121757968&#45;&#45;2179140053312 -->
<g id="edge6" class="edge"><title>2179121757968&#45;&#45;2179140053312</title>
<path fill="none" stroke="black" d="M140.621,-576.055C146.725,-558.252 155.772,-531.865 158.195,-524.796"/>
</g>
<!-- 2179140052976 -->
<g id="node7" class="node"><title>2179140052976</title>
<ellipse fill="none" stroke="black" cx="52.8111" cy="-450" rx="52.6228" ry="18"/>
<text text-anchor="middle" x="52.8111" y="-446.5" font-family="Times New Roman,serif" font-size="15.00">Send Fine</text>
</g>
<!-- 2179140053936&#45;&#45;2179140052976 -->
<g id="edge3" class="edge"><title>2179140053936&#45;&#45;2179140052976</title>
<path fill="none" stroke="black" d="M98.2259,-505.811C88.8972,-494.552 76.1894,-479.215 66.5884,-467.628"/>
</g>
<!-- 2179140053648 -->
<g id="node8" class="node"><title>2179140053648</title>
<ellipse fill="none" stroke="black" cx="169.811" cy="-450" rx="45.7249" ry="18"/>
<text text-anchor="middle" x="169.811" y="-446.5" font-family="Times New Roman,serif" font-size="15.00">Payment</text>
</g>
<!-- 2179140053936&#45;&#45;2179140053648 -->
<g id="edge4" class="edge"><title>2179140053936&#45;&#45;2179140053648</title>
<path fill="none" stroke="black" d="M123.613,-505.811C133.103,-494.552 146.03,-479.215 155.796,-467.628"/>
</g>
<!-- 2179140052496 -->
<g id="node11" class="node"><title>2179140052496</title>
<ellipse fill="black" stroke="black" cx="201.811" cy="-594" rx="2.7" ry="2.7"/>
</g>
<!-- 2179124298368&#45;&#45;2179140052496 -->
<g id="edge9" class="edge"><title>2179124298368&#45;&#45;2179140052496</title>
<path fill="none" stroke="black" d="M344.558,-655.559C303.391,-638.094 218.216,-601.96 203.88,-595.878"/>
</g>
<!-- 2179140051728 -->
<g id="node12" class="node"><title>2179140051728</title>
<ellipse fill="none" stroke="black" cx="366.811" cy="-594" rx="144.571" ry="18"/>
<text text-anchor="middle" x="366.811" y="-590.5" font-family="Times New Roman,serif" font-size="15.00">Insert Date Appeal to Prefecture</text>
</g>
<!-- 2179124298368&#45;&#45;2179140051728 -->
<g id="edge10" class="edge"><title>2179124298368&#45;&#45;2179140051728</title>
<path fill="none" stroke="black" d="M366.811,-647.697C366.811,-636.846 366.811,-622.917 366.811,-612.104"/>
</g>
<!-- 2179140052400 -->
<g id="node14" class="node"><title>2179140052400</title>
<ellipse fill="black" stroke="black" cx="531.811" cy="-594" rx="2.7" ry="2.7"/>
</g>
<!-- 2179140054992&#45;&#45;2179140052400 -->
<g id="edge12" class="edge"><title>2179140054992&#45;&#45;2179140052400</title>
<path fill="none" stroke="black" d="M588.1,-650.496C569.903,-632.555 540.455,-603.522 533.377,-596.544"/>
</g>
<!-- 2179140053744 -->
<g id="node15" class="node"><title>2179140053744</title>
<ellipse fill="none" stroke="black" cx="672.811" cy="-594" rx="120.43" ry="18"/>
<text text-anchor="middle" x="672.811" y="-590.5" font-family="Times New Roman,serif" font-size="15.00">Send Appeal to Prefecture</text>
</g>
<!-- 2179140054992&#45;&#45;2179140053744 -->
<g id="edge13" class="edge"><title>2179140054992&#45;&#45;2179140053744</title>
<path fill="none" stroke="black" d="M617.315,-650.496C628.528,-639.283 644.074,-623.737 655.86,-611.951"/>
</g>
<!-- 2179138085072 -->
<g id="node17" class="node"><title>2179138085072</title>
<ellipse fill="black" stroke="black" cx="813.811" cy="-594" rx="2.7" ry="2.7"/>
</g>
<!-- 2179124298080&#45;&#45;2179138085072 -->
<g id="edge15" class="edge"><title>2179124298080&#45;&#45;2179138085072</title>
<path fill="none" stroke="black" d="M813.811,-647.697C813.811,-629.883 813.811,-603.769 813.811,-596.776"/>
</g>
<!-- 2179138088192 -->
<g id="node18" class="node"><title>2179138088192</title>
<ellipse fill="none" stroke="black" cx="887.811" cy="-594" rx="52.6228" ry="18"/>
<text text-anchor="middle" x="887.811" y="-590.5" font-family="Times New Roman,serif" font-size="15.00">Send Fine</text>
</g>
<!-- 2179124298080&#45;&#45;2179138088192 -->
<g id="edge16" class="edge"><title>2179124298080&#45;&#45;2179138088192</title>
<path fill="none" stroke="black" d="M828.786,-650.834C840.949,-639.329 858.105,-623.101 870.788,-611.103"/>
</g>
<!-- 2179138087952 -->
<g id="node20" class="node"><title>2179138087952</title>
<ellipse fill="black" stroke="black" cx="961.811" cy="-594" rx="2.7" ry="2.7"/>
</g>
<!-- 2179140053360&#45;&#45;2179138087952 -->
<g id="edge18" class="edge"><title>2179140053360&#45;&#45;2179138087952</title>
<path fill="none" stroke="black" d="M961.811,-647.697C961.811,-629.883 961.811,-603.769 961.811,-596.776"/>
</g>
<!-- 2179138085408 -->
<g id="node21" class="node"><title>2179138085408</title>
<ellipse fill="none" stroke="black" cx="1009.81" cy="-594" rx="27" ry="18"/>
<text text-anchor="middle" x="1009.81" y="-590.5" font-family="Times New Roman,serif" font-size="15.00">seq</text>
</g>
<!-- 2179140053360&#45;&#45;2179138085408 -->
<g id="edge55" class="edge"><title>2179140053360&#45;&#45;2179138085408</title>
<path fill="none" stroke="black" d="M972.703,-649.116C980.558,-637.66 991.117,-622.263 998.962,-610.821"/>
</g>
<!-- 2179138085552 -->
<g id="node22" class="node"><title>2179138085552</title>
<ellipse fill="none" stroke="black" cx="856.811" cy="-522" rx="107.914" ry="18"/>
<text text-anchor="middle" x="856.811" y="-518.5" font-family="Times New Roman,serif" font-size="15.00">Insert Fine Notification</text>
</g>
<!-- 2179138085408&#45;&#45;2179138085552 -->
<g id="edge19" class="edge"><title>2179138085408&#45;&#45;2179138085552</title>
<path fill="none" stroke="black" d="M988.214,-583.119C963.173,-571.662 921.544,-552.616 891.852,-539.032"/>
</g>
<!-- 2179138085120 -->
<g id="node23" class="node"><title>2179138085120</title>
<ellipse fill="none" stroke="black" cx="1009.81" cy="-522" rx="27" ry="18"/>
<text text-anchor="middle" x="1009.81" y="-518.5" font-family="Times New Roman,serif" font-size="15.00">xor</text>
</g>
<!-- 2179138085408&#45;&#45;2179138085120 -->
<g id="edge22" class="edge"><title>2179138085408&#45;&#45;2179138085120</title>
<path fill="none" stroke="black" d="M1009.81,-575.697C1009.81,-564.846 1009.81,-550.917 1009.81,-540.104"/>
</g>
<!-- 2179138087712 -->
<g id="node26" class="node"><title>2179138087712</title>
<ellipse fill="none" stroke="black" cx="1133.81" cy="-522" rx="27" ry="18"/>
<text text-anchor="middle" x="1133.81" y="-518.5" font-family="Times New Roman,serif" font-size="15.00">and</text>
</g>
<!-- 2179138085408&#45;&#45;2179138087712 -->
<g id="edge54" class="edge"><title>2179138085408&#45;&#45;2179138087712</title>
<path fill="none" stroke="black" d="M1029.73,-581.753C1052.87,-568.691 1090.82,-547.27 1113.94,-534.219"/>
</g>
<!-- 2179138087328 -->
<g id="node24" class="node"><title>2179138087328</title>
<ellipse fill="black" stroke="black" cx="910.811" cy="-450" rx="2.7" ry="2.7"/>
</g>
<!-- 2179138085120&#45;&#45;2179138087328 -->
<g id="edge20" class="edge"><title>2179138085120&#45;&#45;2179138087328</title>
<path fill="none" stroke="black" d="M991.653,-508.161C966.198,-490.163 921.96,-458.883 912.587,-452.256"/>
</g>
<!-- 2179138088240 -->
<g id="node25" class="node"><title>2179138088240</title>
<ellipse fill="none" stroke="black" cx="1009.81" cy="-450" rx="78.5434" ry="18"/>
<text text-anchor="middle" x="1009.81" y="-446.5" font-family="Times New Roman,serif" font-size="15.00">Appeal to Judge</text>
</g>
<!-- 2179138085120&#45;&#45;2179138088240 -->
<g id="edge21" class="edge"><title>2179138085120&#45;&#45;2179138088240</title>
<path fill="none" stroke="black" d="M1009.81,-503.697C1009.81,-492.846 1009.81,-478.917 1009.81,-468.104"/>
</g>
<!-- 2179138088912 -->
<g id="node27" class="node"><title>2179138088912</title>
<ellipse fill="none" stroke="black" cx="1133.81" cy="-450" rx="27" ry="18"/>
<text text-anchor="middle" x="1133.81" y="-446.5" font-family="Times New Roman,serif" font-size="15.00">and</text>
</g>
<!-- 2179138087712&#45;&#45;2179138088912 -->
<g id="edge27" class="edge"><title>2179138087712&#45;&#45;2179138088912</title>
<path fill="none" stroke="black" d="M1133.81,-503.697C1133.81,-492.846 1133.81,-478.917 1133.81,-468.104"/>
</g>
<!-- 2179138085984 -->
<g id="node32" class="node"><title>2179138085984</title>
<ellipse fill="none" stroke="black" cx="1216.81" cy="-450" rx="27" ry="18"/>
<text text-anchor="middle" x="1216.81" y="-446.5" font-family="Times New Roman,serif" font-size="15.00">xor</text>
</g>
<!-- 2179138087712&#45;&#45;2179138085984 -->
<g id="edge53" class="edge"><title>2179138087712&#45;&#45;2179138085984</title>
<path fill="none" stroke="black" d="M1150.21,-507.17C1164.85,-494.819 1186.18,-476.832 1200.73,-464.563"/>
</g>
<!-- 2179138087760 -->
<g id="node28" class="node"><title>2179138087760</title>
<ellipse fill="none" stroke="black" cx="1007.81" cy="-378" rx="46.6143" ry="18"/>
<text text-anchor="middle" x="1007.81" y="-374.5" font-family="Times New Roman,serif" font-size="15.00">xor loop</text>
</g>
<!-- 2179138088912&#45;&#45;2179138087760 -->
<g id="edge25" class="edge"><title>2179138088912&#45;&#45;2179138087760</title>
<path fill="none" stroke="black" d="M1113.57,-437.753C1091.72,-425.618 1056.9,-406.27 1033.23,-393.119"/>
</g>
<!-- 2179138088480 -->
<g id="node31" class="node"><title>2179138088480</title>
<ellipse fill="none" stroke="black" cx="1133.81" cy="-378" rx="61.6894" ry="18"/>
<text text-anchor="middle" x="1133.81" y="-374.5" font-family="Times New Roman,serif" font-size="15.00">Add penalty</text>
</g>
<!-- 2179138088912&#45;&#45;2179138088480 -->
<g id="edge26" class="edge"><title>2179138088912&#45;&#45;2179138088480</title>
<path fill="none" stroke="black" d="M1133.81,-431.697C1133.81,-420.846 1133.81,-406.917 1133.81,-396.104"/>
</g>
<!-- 2179138088528 -->
<g id="node29" class="node"><title>2179138088528</title>
<ellipse fill="black" stroke="black" cx="941.811" cy="-306" rx="2.7" ry="2.7"/>
</g>
<!-- 2179138087760&#45;&#45;2179138088528 -->
<g id="edge23" class="edge"><title>2179138087760&#45;&#45;2179138088528</title>
<path fill="none" stroke="black" d="M992.503,-360.765C975.444,-342.671 949.427,-315.078 943.19,-308.462"/>
</g>
<!-- 2179138086992 -->
<g id="node30" class="node"><title>2179138086992</title>
<ellipse fill="none" stroke="black" cx="1008.81" cy="-306" rx="45.7249" ry="18"/>
<text text-anchor="middle" x="1008.81" y="-302.5" font-family="Times New Roman,serif" font-size="15.00">Payment</text>
</g>
<!-- 2179138087760&#45;&#45;2179138086992 -->
<g id="edge24" class="edge"><title>2179138087760&#45;&#45;2179138086992</title>
<path fill="none" stroke="black" d="M1008.06,-359.697C1008.21,-348.846 1008.41,-334.917 1008.57,-324.104"/>
</g>
<!-- 2179138088384 -->
<g id="node33" class="node"><title>2179138088384</title>
<ellipse fill="black" stroke="black" cx="1216.81" cy="-378" rx="2.7" ry="2.7"/>
</g>
<!-- 2179138085984&#45;&#45;2179138088384 -->
<g id="edge28" class="edge"><title>2179138085984&#45;&#45;2179138088384</title>
<path fill="none" stroke="black" d="M1216.81,-431.697C1216.81,-413.883 1216.81,-387.769 1216.81,-380.776"/>
</g>
<!-- 2179138088624 -->
<g id="node34" class="node"><title>2179138088624</title>
<ellipse fill="none" stroke="black" cx="1264.81" cy="-378" rx="27" ry="18"/>
<text text-anchor="middle" x="1264.81" y="-374.5" font-family="Times New Roman,serif" font-size="15.00">seq</text>
</g>
<!-- 2179138085984&#45;&#45;2179138088624 -->
<g id="edge52" class="edge"><title>2179138085984&#45;&#45;2179138088624</title>
<path fill="none" stroke="black" d="M1227.7,-433.116C1235.56,-421.66 1246.12,-406.263 1253.96,-394.821"/>
</g>
<!-- 2179138087232 -->
<g id="node35" class="node"><title>2179138087232</title>
<ellipse fill="none" stroke="black" cx="1099.81" cy="-306" rx="27" ry="18"/>
<text text-anchor="middle" x="1099.81" y="-302.5" font-family="Times New Roman,serif" font-size="15.00">xor</text>
</g>
<!-- 2179138088624&#45;&#45;2179138087232 -->
<g id="edge31" class="edge"><title>2179138088624&#45;&#45;2179138087232</title>
<path fill="none" stroke="black" d="M1242.56,-367.559C1210.98,-354.162 1153.5,-329.779 1121.97,-316.402"/>
</g>
<!-- 2179138088816 -->
<g id="node38" class="node"><title>2179138088816</title>
<ellipse fill="none" stroke="black" cx="1264.81" cy="-306" rx="27" ry="18"/>
<text text-anchor="middle" x="1264.81" y="-302.5" font-family="Times New Roman,serif" font-size="15.00">xor</text>
</g>
<!-- 2179138088624&#45;&#45;2179138088816 -->
<g id="edge48" class="edge"><title>2179138088624&#45;&#45;2179138088816</title>
<path fill="none" stroke="black" d="M1264.81,-359.697C1264.81,-348.846 1264.81,-334.917 1264.81,-324.104"/>
</g>
<!-- 2179138088768 -->
<g id="node55" class="node"><title>2179138088768</title>
<ellipse fill="none" stroke="black" cx="1398.81" cy="-306" rx="27" ry="18"/>
<text text-anchor="middle" x="1398.81" y="-302.5" font-family="Times New Roman,serif" font-size="15.00">xor</text>
</g>
<!-- 2179138088624&#45;&#45;2179138088768 -->
<g id="edge51" class="edge"><title>2179138088624&#45;&#45;2179138088768</title>
<path fill="none" stroke="black" d="M1285.45,-366.216C1310.56,-353.1 1352.71,-331.085 1377.92,-317.912"/>
</g>
<!-- 2179138087568 -->
<g id="node36" class="node"><title>2179138087568</title>
<ellipse fill="black" stroke="black" cx="934.811" cy="-234" rx="2.7" ry="2.7"/>
</g>
<!-- 2179138087232&#45;&#45;2179138087568 -->
<g id="edge29" class="edge"><title>2179138087232&#45;&#45;2179138087568</title>
<path fill="none" stroke="black" d="M1077.56,-295.559C1036.39,-278.094 951.216,-241.96 936.88,-235.878"/>
</g>
<!-- 2179138084976 -->
<g id="node37" class="node"><title>2179138084976</title>
<ellipse fill="none" stroke="black" cx="1099.81" cy="-234" rx="144.571" ry="18"/>
<text text-anchor="middle" x="1099.81" y="-230.5" font-family="Times New Roman,serif" font-size="15.00">Insert Date Appeal to Prefecture</text>
</g>
<!-- 2179138087232&#45;&#45;2179138084976 -->
<g id="edge30" class="edge"><title>2179138087232&#45;&#45;2179138084976</title>
<path fill="none" stroke="black" d="M1099.81,-287.697C1099.81,-276.846 1099.81,-262.917 1099.81,-252.104"/>
</g>
<!-- 2179138088000 -->
<g id="node39" class="node"><title>2179138088000</title>
<ellipse fill="black" stroke="black" cx="1264.81" cy="-234" rx="2.7" ry="2.7"/>
</g>
<!-- 2179138088816&#45;&#45;2179138088000 -->
<g id="edge32" class="edge"><title>2179138088816&#45;&#45;2179138088000</title>
<path fill="none" stroke="black" d="M1264.81,-287.697C1264.81,-269.883 1264.81,-243.769 1264.81,-236.776"/>
</g>
<!-- 2179089410800 -->
<g id="node40" class="node"><title>2179089410800</title>
<ellipse fill="none" stroke="black" cx="1331.81" cy="-234" rx="46.6143" ry="18"/>
<text text-anchor="middle" x="1331.81" y="-230.5" font-family="Times New Roman,serif" font-size="15.00">xor loop</text>
</g>
<!-- 2179138088816&#45;&#45;2179089410800 -->
<g id="edge47" class="edge"><title>2179138088816&#45;&#45;2179089410800</title>
<path fill="none" stroke="black" d="M1278.69,-290.496C1289.66,-279.043 1304.95,-263.069 1316.31,-251.198"/>
</g>
<!-- 2179089408304 -->
<g id="node41" class="node"><title>2179089408304</title>
<ellipse fill="none" stroke="black" cx="1307.81" cy="-162" rx="27" ry="18"/>
<text text-anchor="middle" x="1307.81" y="-158.5" font-family="Times New Roman,serif" font-size="15.00">seq</text>
</g>
<!-- 2179089410800&#45;&#45;2179089408304 -->
<g id="edge45" class="edge"><title>2179089410800&#45;&#45;2179089408304</title>
<path fill="none" stroke="black" d="M1326,-216.055C1322.23,-205.049 1317.33,-190.764 1313.57,-179.789"/>
</g>
<!-- 2179089411664 -->
<g id="node54" class="node"><title>2179089411664</title>
<ellipse fill="black" stroke="black" cx="1355.81" cy="-162" rx="2.7" ry="2.7"/>
</g>
<!-- 2179089410800&#45;&#45;2179089411664 -->
<g id="edge46" class="edge"><title>2179089410800&#45;&#45;2179089411664</title>
<path fill="none" stroke="black" d="M1337.62,-216.055C1343.72,-198.252 1352.77,-171.865 1355.2,-164.796"/>
</g>
<!-- 2179089408112 -->
<g id="node42" class="node"><title>2179089408112</title>
<ellipse fill="none" stroke="black" cx="860.811" cy="-90" rx="27" ry="18"/>
<text text-anchor="middle" x="860.811" y="-86.5" font-family="Times New Roman,serif" font-size="15.00">xor</text>
</g>
<!-- 2179089408304&#45;&#45;2179089408112 -->
<g id="edge35" class="edge"><title>2179089408304&#45;&#45;2179089408112</title>
<path fill="none" stroke="black" d="M1281.85,-156.934C1202.84,-144.562 965.947,-107.464 886.847,-95.0773"/>
</g>
<!-- 2179089409840 -->
<g id="node45" class="node"><title>2179089409840</title>
<ellipse fill="none" stroke="black" cx="1223.81" cy="-90" rx="27" ry="18"/>
<text text-anchor="middle" x="1223.81" y="-86.5" font-family="Times New Roman,serif" font-size="15.00">xor</text>
</g>
<!-- 2179089408304&#45;&#45;2179089409840 -->
<g id="edge38" class="edge"><title>2179089408304&#45;&#45;2179089409840</title>
<path fill="none" stroke="black" d="M1291.62,-147.503C1276.74,-135.108 1254.82,-116.838 1239.96,-104.455"/>
</g>
<!-- 2179089409072 -->
<g id="node48" class="node"><title>2179089409072</title>
<ellipse fill="none" stroke="black" cx="1392.81" cy="-90" rx="27" ry="18"/>
<text text-anchor="middle" x="1392.81" y="-86.5" font-family="Times New Roman,serif" font-size="15.00">xor</text>
</g>
<!-- 2179089408304&#45;&#45;2179089409072 -->
<g id="edge41" class="edge"><title>2179089408304&#45;&#45;2179089409072</title>
<path fill="none" stroke="black" d="M1324.2,-147.503C1339.25,-135.108 1361.44,-116.838 1376.47,-104.455"/>
</g>
<!-- 2179089410896 -->
<g id="node51" class="node"><title>2179089410896</title>
<ellipse fill="none" stroke="black" cx="1676.81" cy="-90" rx="27" ry="18"/>
<text text-anchor="middle" x="1676.81" y="-86.5" font-family="Times New Roman,serif" font-size="15.00">xor</text>
</g>
<!-- 2179089408304&#45;&#45;2179089410896 -->
<g id="edge44" class="edge"><title>2179089408304&#45;&#45;2179089410896</title>
<path fill="none" stroke="black" d="M1333.47,-156.133C1400.97,-143.328 1582.97,-108.801 1650.84,-95.9276"/>
</g>
<!-- 2179089410704 -->
<g id="node43" class="node"><title>2179089410704</title>
<ellipse fill="black" stroke="black" cx="666.811" cy="-18" rx="2.7" ry="2.7"/>
</g>
<!-- 2179089408112&#45;&#45;2179089410704 -->
<g id="edge33" class="edge"><title>2179089408112&#45;&#45;2179089410704</title>
<path fill="none" stroke="black" d="M837.41,-80.5564C789.843,-63.393 684.994,-25.5607 668.901,-19.7542"/>
</g>
<!-- 2179089409936 -->
<g id="node44" class="node"><title>2179089409936</title>
<ellipse fill="none" stroke="black" cx="860.811" cy="-18" rx="173.941" ry="18"/>
<text text-anchor="middle" x="860.811" y="-14.5" font-family="Times New Roman,serif" font-size="15.00">Receive Result Appeal from Prefecture</text>
</g>
<!-- 2179089408112&#45;&#45;2179089409936 -->
<g id="edge34" class="edge"><title>2179089408112&#45;&#45;2179089409936</title>
<path fill="none" stroke="black" d="M860.811,-71.6966C860.811,-60.8463 860.811,-46.9167 860.811,-36.1043"/>
</g>
<!-- 2179089410992 -->
<g id="node46" class="node"><title>2179089410992</title>
<ellipse fill="black" stroke="black" cx="1054.81" cy="-18" rx="2.7" ry="2.7"/>
</g>
<!-- 2179089409840&#45;&#45;2179089410992 -->
<g id="edge36" class="edge"><title>2179089409840&#45;&#45;2179089410992</title>
<path fill="none" stroke="black" d="M1201.37,-79.7045C1159.35,-62.2995 1071.7,-25.9938 1056.94,-19.8823"/>
</g>
<!-- 2179089411760 -->
<g id="node47" class="node"><title>2179089411760</title>
<ellipse fill="none" stroke="black" cx="1223.81" cy="-18" rx="148.91" ry="18"/>
<text text-anchor="middle" x="1223.81" y="-14.5" font-family="Times New Roman,serif" font-size="15.00">Notify Result Appeal to Offender</text>
</g>
<!-- 2179089409840&#45;&#45;2179089411760 -->
<g id="edge37" class="edge"><title>2179089409840&#45;&#45;2179089411760</title>
<path fill="none" stroke="black" d="M1223.81,-71.6966C1223.81,-60.8463 1223.81,-46.9167 1223.81,-36.1043"/>
</g>
<!-- 2179089409360 -->
<g id="node49" class="node"><title>2179089409360</title>
<ellipse fill="black" stroke="black" cx="1392.81" cy="-18" rx="2.7" ry="2.7"/>
</g>
<!-- 2179089409072&#45;&#45;2179089409360 -->
<g id="edge39" class="edge"><title>2179089409072&#45;&#45;2179089409360</title>
<path fill="none" stroke="black" d="M1392.81,-71.6966C1392.81,-53.8826 1392.81,-27.7686 1392.81,-20.7764"/>
</g>
<!-- 2179125058480 -->
<g id="node50" class="node"><title>2179125058480</title>
<ellipse fill="none" stroke="black" cx="1534.81" cy="-18" rx="120.819" ry="18"/>
<text text-anchor="middle" x="1534.81" y="-14.5" font-family="Times New Roman,serif" font-size="15.00">Send for Credit Collection</text>
</g>
<!-- 2179089409072&#45;&#45;2179125058480 -->
<g id="edge40" class="edge"><title>2179089409072&#45;&#45;2179125058480</title>
<path fill="none" stroke="black" d="M1414.07,-78.5203C1437.2,-67.1164 1474.49,-48.7333 1501.52,-35.4115"/>
</g>
<!-- 2179089477200 -->
<g id="node52" class="node"><title>2179089477200</title>
<ellipse fill="black" stroke="black" cx="1676.81" cy="-18" rx="2.7" ry="2.7"/>
</g>
<!-- 2179089410896&#45;&#45;2179089477200 -->
<g id="edge42" class="edge"><title>2179089410896&#45;&#45;2179089477200</title>
<path fill="none" stroke="black" d="M1676.81,-71.6966C1676.81,-53.8826 1676.81,-27.7686 1676.81,-20.7764"/>
</g>
<!-- 2179089476048 -->
<g id="node53" class="node"><title>2179089476048</title>
<ellipse fill="none" stroke="black" cx="1817.81" cy="-18" rx="120.43" ry="18"/>
<text text-anchor="middle" x="1817.81" y="-14.5" font-family="Times New Roman,serif" font-size="15.00">Send Appeal to Prefecture</text>
</g>
<!-- 2179089410896&#45;&#45;2179089476048 -->
<g id="edge43" class="edge"><title>2179089410896&#45;&#45;2179089476048</title>
<path fill="none" stroke="black" d="M1697.92,-78.5203C1720.89,-67.1164 1757.92,-48.7333 1784.75,-35.4115"/>
</g>
<!-- 2179089410512 -->
<g id="node56" class="node"><title>2179089410512</title>
<ellipse fill="black" stroke="black" cx="1398.81" cy="-234" rx="2.7" ry="2.7"/>
</g>
<!-- 2179138088768&#45;&#45;2179089410512 -->
<g id="edge49" class="edge"><title>2179138088768&#45;&#45;2179089410512</title>
<path fill="none" stroke="black" d="M1398.81,-287.697C1398.81,-269.883 1398.81,-243.769 1398.81,-236.776"/>
</g>
<!-- 2179089408592 -->
<g id="node57" class="node"><title>2179089408592</title>
<ellipse fill="none" stroke="black" cx="1497.81" cy="-234" rx="78.5434" ry="18"/>
<text text-anchor="middle" x="1497.81" y="-230.5" font-family="Times New Roman,serif" font-size="15.00">Appeal to Judge</text>
</g>
<!-- 2179138088768&#45;&#45;2179089408592 -->
<g id="edge50" class="edge"><title>2179138088768&#45;&#45;2179089408592</title>
<path fill="none" stroke="black" d="M1416.97,-292.161C1433.16,-280.715 1456.94,-263.897 1474.53,-251.464"/>
</g>
<!-- 2179138085504 -->
<g id="node59" class="node"><title>2179138085504</title>
<ellipse fill="black" stroke="black" cx="1057.81" cy="-594" rx="2.7" ry="2.7"/>
</g>
<!-- 2179138088288&#45;&#45;2179138085504 -->
<g id="edge57" class="edge"><title>2179138088288&#45;&#45;2179138085504</title>
<path fill="none" stroke="black" d="M1057.81,-647.697C1057.81,-629.883 1057.81,-603.769 1057.81,-596.776"/>
</g>
<!-- 2179138087472 -->
<g id="node60" class="node"><title>2179138087472</title>
<ellipse fill="none" stroke="black" cx="1199.81" cy="-594" rx="120.819" ry="18"/>
<text text-anchor="middle" x="1199.81" y="-590.5" font-family="Times New Roman,serif" font-size="15.00">Send for Credit Collection</text>
</g>
<!-- 2179138088288&#45;&#45;2179138087472 -->
<g id="edge58" class="edge"><title>2179138088288&#45;&#45;2179138087472</title>
<path fill="none" stroke="black" d="M1079.07,-654.52C1102.2,-643.116 1139.49,-624.733 1166.52,-611.412"/>
</g>
</g>
</svg>
