<?xml version="1.0" encoding="UTF-8" standalone="no"?>
<!DOCTYPE svg PUBLIC "-//W3C//DTD SVG 1.1//EN"
 "http://www.w3.org/Graphics/SVG/1.1/DTD/svg11.dtd">
<!-- Generated by graphviz version 2.38.0 (20140413.2041)
 -->
<!-- Title: pt Pages: 1 -->
<svg width="818pt" height="260pt"
 viewBox="0.00 0.00 817.67 260.00" xmlns="http://www.w3.org/2000/svg" xmlns:xlink="http://www.w3.org/1999/xlink">
<g id="graph0" class="graph" transform="scale(1 1) rotate(0) translate(4 256)">
<title>pt</title>
<!-- 2179088590592 -->
<g id="node1" class="node"><title>2179088590592</title>
<ellipse fill="none" stroke="black" cx="369.76" cy="-234" rx="27" ry="18"/>
<text text-anchor="middle" x="369.76" y="-230.5" font-family="Times New Roman,serif" font-size="15.00">seq</text>
</g>
<!-- 2179088590880 -->
<g id="node2" class="node"><title>2179088590880</title>
<ellipse fill="none" stroke="black" cx="59.7599" cy="-162" rx="59.5207" ry="18"/>
<text text-anchor="middle" x="59.7599" y="-158.5" font-family="Times New Roman,serif" font-size="15.00">Create Fine</text>
</g>
<!-- 2179088590592&#45;&#45;2179088590880 -->
<g id="edge1" class="edge"><title>2179088590592&#45;&#45;2179088590880</title>
<path fill="none" stroke="black" d="M344.654,-227.331C292.691,-215.597 172.664,-188.494 106.181,-173.482"/>
</g>
<!-- 2179088591072 -->
<g id="node3" class="node"><title>2179088591072</title>
<ellipse fill="none" stroke="black" cx="190.76" cy="-162" rx="52.6228" ry="18"/>
<text text-anchor="middle" x="190.76" y="-158.5" font-family="Times New Roman,serif" font-size="15.00">Send Fine</text>
</g>
<!-- 2179088590592&#45;&#45;2179088591072 -->
<g id="edge2" class="edge"><title>2179088590592&#45;&#45;2179088591072</title>
<path fill="none" stroke="black" d="M347.089,-224.134C316.045,-211.994 260.076,-190.107 224.209,-176.081"/>
</g>
<!-- 2179088591168 -->
<g id="node4" class="node"><title>2179088591168</title>
<ellipse fill="none" stroke="black" cx="369.76" cy="-162" rx="107.914" ry="18"/>
<text text-anchor="middle" x="369.76" y="-158.5" font-family="Times New Roman,serif" font-size="15.00">Insert Fine Notification</text>
</g>
<!-- 2179088590592&#45;&#45;2179088591168 -->
<g id="edge3" class="edge"><title>2179088590592&#45;&#45;2179088591168</title>
<path fill="none" stroke="black" d="M369.76,-215.697C369.76,-204.846 369.76,-190.917 369.76,-180.104"/>
</g>
<!-- 2179088591312 -->
<g id="node5" class="node"><title>2179088591312</title>
<ellipse fill="none" stroke="black" cx="522.76" cy="-162" rx="27" ry="18"/>
<text text-anchor="middle" x="522.76" y="-158.5" font-family="Times New Roman,serif" font-size="15.00">and</text>
</g>
<!-- 2179088590592&#45;&#45;2179088591312 -->
<g id="edge8" class="edge"><title>2179088590592&#45;&#45;2179088591312</title>
<path fill="none" stroke="black" d="M391.357,-223.119C420.352,-209.853 471.587,-186.412 500.778,-173.057"/>
</g>
<!-- 2179088591504 -->
<g id="node10" class="node"><title>2179088591504</title>
<ellipse fill="none" stroke="black" cx="688.76" cy="-162" rx="120.819" ry="18"/>
<text text-anchor="middle" x="688.76" y="-158.5" font-family="Times New Roman,serif" font-size="15.00">Send for Credit Collection</text>
</g>
<!-- 2179088590592&#45;&#45;2179088591504 -->
<g id="edge9" class="edge"><title>2179088590592&#45;&#45;2179088591504</title>
<path fill="none" stroke="black" d="M395.058,-227.449C444.056,-216.697 553.28,-192.729 623.842,-177.245"/>
</g>
<!-- 2179088591600 -->
<g id="node6" class="node"><title>2179088591600</title>
<ellipse fill="none" stroke="black" cx="459.76" cy="-90" rx="46.6143" ry="18"/>
<text text-anchor="middle" x="459.76" y="-86.5" font-family="Times New Roman,serif" font-size="15.00">xor loop</text>
</g>
<!-- 2179088591312&#45;&#45;2179088591600 -->
<g id="edge6" class="edge"><title>2179088591312&#45;&#45;2179088591600</title>
<path fill="none" stroke="black" d="M509.399,-146.155C499.141,-134.757 484.99,-119.034 474.421,-107.29"/>
</g>
<!-- 2179088591792 -->
<g id="node9" class="node"><title>2179088591792</title>
<ellipse fill="none" stroke="black" cx="585.76" cy="-90" rx="61.6894" ry="18"/>
<text text-anchor="middle" x="585.76" y="-86.5" font-family="Times New Roman,serif" font-size="15.00">Add penalty</text>
</g>
<!-- 2179088591312&#45;&#45;2179088591792 -->
<g id="edge7" class="edge"><title>2179088591312&#45;&#45;2179088591792</title>
<path fill="none" stroke="black" d="M536.121,-146.155C546.234,-134.918 560.132,-119.476 570.65,-107.789"/>
</g>
<!-- 2179088591888 -->
<g id="node7" class="node"><title>2179088591888</title>
<ellipse fill="black" stroke="black" cx="426.76" cy="-18" rx="2.7" ry="2.7"/>
</g>
<!-- 2179088591600&#45;&#45;2179088591888 -->
<g id="edge4" class="edge"><title>2179088591600&#45;&#45;2179088591888</title>
<path fill="none" stroke="black" d="M451.771,-72.055C443.378,-54.2515 430.939,-27.8653 427.607,-20.7963"/>
</g>
<!-- 2179088592032 -->
<g id="node8" class="node"><title>2179088592032</title>
<ellipse fill="none" stroke="black" cx="493.76" cy="-18" rx="45.7249" ry="18"/>
<text text-anchor="middle" x="493.76" y="-14.5" font-family="Times New Roman,serif" font-size="15.00">Payment</text>
</g>
<!-- 2179088591600&#45;&#45;2179088592032 -->
<g id="edge5" class="edge"><title>2179088591600&#45;&#45;2179088592032</title>
<path fill="none" stroke="black" d="M467.99,-72.055C473.336,-61.0492 480.275,-46.7636 485.605,-35.789"/>
</g>
</g>
</svg>
