<?xml version="1.0" encoding="UTF-8" standalone="no"?>
<!DOCTYPE svg PUBLIC "-//W3C//DTD SVG 1.1//EN"
 "http://www.w3.org/Graphics/SVG/1.1/DTD/svg11.dtd">
<!-- Generated by graphviz version 2.38.0 (20140413.2041)
 -->
<!-- Title: pt Pages: 1 -->
<svg width="1628pt" height="620pt"
 viewBox="0.00 0.00 1627.56 620.00" xmlns="http://www.w3.org/2000/svg" xmlns:xlink="http://www.w3.org/1999/xlink">
<g id="graph0" class="graph" transform="scale(1 1) rotate(0) translate(4 616)">
<title>pt</title>
<!-- 2179099673792 -->
<g id="node1" class="node"><title>2179099673792</title>
<ellipse fill="none" stroke="black" cx="387.7" cy="-594" rx="27" ry="18"/>
<text text-anchor="middle" x="387.7" y="-590.5" font-family="Times New Roman,serif" font-size="15.00">and</text>
</g>
<!-- 2179099673744 -->
<g id="node2" class="node"><title>2179099673744</title>
<ellipse fill="none" stroke="black" cx="304.7" cy="-522" rx="27" ry="18"/>
<text text-anchor="middle" x="304.7" y="-518.5" font-family="Times New Roman,serif" font-size="15.00">xor</text>
</g>
<!-- 2179099673792&#45;&#45;2179099673744 -->
<g id="edge7" class="edge"><title>2179099673792&#45;&#45;2179099673744</title>
<path fill="none" stroke="black" d="M371.302,-579.17C356.656,-566.819 335.33,-548.832 320.782,-536.563"/>
</g>
<!-- 2179099675328 -->
<g id="node9" class="node"><title>2179099675328</title>
<ellipse fill="none" stroke="black" cx="471.7" cy="-522" rx="27" ry="18"/>
<text text-anchor="middle" x="471.7" y="-518.5" font-family="Times New Roman,serif" font-size="15.00">seq</text>
</g>
<!-- 2179099673792&#45;&#45;2179099675328 -->
<g id="edge44" class="edge"><title>2179099673792&#45;&#45;2179099675328</title>
<path fill="none" stroke="black" d="M403.896,-579.503C418.771,-567.108 440.695,-548.838 455.554,-536.455"/>
</g>
<!-- 2179097299552 -->
<g id="node3" class="node"><title>2179097299552</title>
<ellipse fill="black" stroke="black" cx="256.7" cy="-450" rx="2.7" ry="2.7"/>
</g>
<!-- 2179099673744&#45;&#45;2179097299552 -->
<g id="edge1" class="edge"><title>2179099673744&#45;&#45;2179097299552</title>
<path fill="none" stroke="black" d="M293.808,-505.116C281.638,-487.367 262.98,-460.158 257.973,-452.857"/>
</g>
<!-- 2179097299696 -->
<g id="node4" class="node"><title>2179097299696</title>
<ellipse fill="none" stroke="black" cx="304.7" cy="-450" rx="27" ry="18"/>
<text text-anchor="middle" x="304.7" y="-446.5" font-family="Times New Roman,serif" font-size="15.00">and</text>
</g>
<!-- 2179099673744&#45;&#45;2179097299696 -->
<g id="edge6" class="edge"><title>2179099673744&#45;&#45;2179097299696</title>
<path fill="none" stroke="black" d="M304.7,-503.697C304.7,-492.846 304.7,-478.917 304.7,-468.104"/>
</g>
<!-- 2179098435440 -->
<g id="node5" class="node"><title>2179098435440</title>
<ellipse fill="none" stroke="black" cx="209.7" cy="-378" rx="46.6143" ry="18"/>
<text text-anchor="middle" x="209.7" y="-374.5" font-family="Times New Roman,serif" font-size="15.00">xor loop</text>
</g>
<!-- 2179097299696&#45;&#45;2179098435440 -->
<g id="edge4" class="edge"><title>2179097299696&#45;&#45;2179098435440</title>
<path fill="none" stroke="black" d="M287.276,-436.161C271.206,-424.32 247.334,-406.731 230.321,-394.194"/>
</g>
<!-- 2179098434816 -->
<g id="node8" class="node"><title>2179098434816</title>
<ellipse fill="none" stroke="black" cx="335.7" cy="-378" rx="61.6894" ry="18"/>
<text text-anchor="middle" x="335.7" y="-374.5" font-family="Times New Roman,serif" font-size="15.00">Add penalty</text>
</g>
<!-- 2179097299696&#45;&#45;2179098434816 -->
<g id="edge5" class="edge"><title>2179097299696&#45;&#45;2179098434816</title>
<path fill="none" stroke="black" d="M312.047,-432.411C316.917,-421.414 323.288,-407.027 328.191,-395.956"/>
</g>
<!-- 2179098435392 -->
<g id="node6" class="node"><title>2179098435392</title>
<ellipse fill="black" stroke="black" cx="163.7" cy="-306" rx="2.7" ry="2.7"/>
</g>
<!-- 2179098435440&#45;&#45;2179098435392 -->
<g id="edge2" class="edge"><title>2179098435440&#45;&#45;2179098435392</title>
<path fill="none" stroke="black" d="M198.799,-360.411C187.109,-342.622 169.59,-315.962 164.894,-308.816"/>
</g>
<!-- 2179098433664 -->
<g id="node7" class="node"><title>2179098433664</title>
<ellipse fill="none" stroke="black" cx="230.7" cy="-306" rx="45.7249" ry="18"/>
<text text-anchor="middle" x="230.7" y="-302.5" font-family="Times New Roman,serif" font-size="15.00">Payment</text>
</g>
<!-- 2179098435440&#45;&#45;2179098433664 -->
<g id="edge3" class="edge"><title>2179098435440&#45;&#45;2179098433664</title>
<path fill="none" stroke="black" d="M214.784,-360.055C218.037,-349.211 222.245,-335.183 225.517,-324.275"/>
</g>
<!-- 2179099672880 -->
<g id="node10" class="node"><title>2179099672880</title>
<ellipse fill="none" stroke="black" cx="409.7" cy="-450" rx="59.5207" ry="18"/>
<text text-anchor="middle" x="409.7" y="-446.5" font-family="Times New Roman,serif" font-size="15.00">Create Fine</text>
</g>
<!-- 2179099675328&#45;&#45;2179099672880 -->
<g id="edge8" class="edge"><title>2179099675328&#45;&#45;2179099672880</title>
<path fill="none" stroke="black" d="M458.551,-506.155C448.599,-494.918 434.922,-479.476 424.57,-467.789"/>
</g>
<!-- 2179099673936 -->
<g id="node11" class="node"><title>2179099673936</title>
<ellipse fill="none" stroke="black" cx="533.7" cy="-450" rx="46.6143" ry="18"/>
<text text-anchor="middle" x="533.7" y="-446.5" font-family="Times New Roman,serif" font-size="15.00">xor loop</text>
</g>
<!-- 2179099675328&#45;&#45;2179099673936 -->
<g id="edge40" class="edge"><title>2179099675328&#45;&#45;2179099673936</title>
<path fill="none" stroke="black" d="M484.849,-506.155C494.944,-494.757 508.87,-479.034 519.271,-467.29"/>
</g>
<!-- 2179099675520 -->
<g id="node43" class="node"><title>2179099675520</title>
<ellipse fill="none" stroke="black" cx="625.7" cy="-450" rx="27" ry="18"/>
<text text-anchor="middle" x="625.7" y="-446.5" font-family="Times New Roman,serif" font-size="15.00">xor</text>
</g>
<!-- 2179099675328&#45;&#45;2179099675520 -->
<g id="edge43" class="edge"><title>2179099675328&#45;&#45;2179099675520</title>
<path fill="none" stroke="black" d="M493.438,-511.119C522.788,-497.778 574.779,-474.146 604.073,-460.831"/>
</g>
<!-- 2179099676576 -->
<g id="node12" class="node"><title>2179099676576</title>
<ellipse fill="none" stroke="black" cx="513.7" cy="-378" rx="27" ry="18"/>
<text text-anchor="middle" x="513.7" y="-374.5" font-family="Times New Roman,serif" font-size="15.00">seq</text>
</g>
<!-- 2179099673936&#45;&#45;2179099676576 -->
<g id="edge38" class="edge"><title>2179099673936&#45;&#45;2179099676576</title>
<path fill="none" stroke="black" d="M528.859,-432.055C525.714,-421.049 521.632,-406.764 518.497,-395.789"/>
</g>
<!-- 2179099673648 -->
<g id="node42" class="node"><title>2179099673648</title>
<ellipse fill="black" stroke="black" cx="561.7" cy="-378" rx="2.7" ry="2.7"/>
</g>
<!-- 2179099673936&#45;&#45;2179099673648 -->
<g id="edge39" class="edge"><title>2179099673936&#45;&#45;2179099673648</title>
<path fill="none" stroke="black" d="M540.478,-432.055C547.599,-414.252 558.154,-387.865 560.981,-380.796"/>
</g>
<!-- 2179099676144 -->
<g id="node13" class="node"><title>2179099676144</title>
<ellipse fill="none" stroke="black" cx="336.7" cy="-306" rx="27" ry="18"/>
<text text-anchor="middle" x="336.7" y="-302.5" font-family="Times New Roman,serif" font-size="15.00">xor</text>
</g>
<!-- 2179099676576&#45;&#45;2179099676144 -->
<g id="edge11" class="edge"><title>2179099676576&#45;&#45;2179099676144</title>
<path fill="none" stroke="black" d="M490.923,-367.992C456.936,-354.551 393.325,-329.394 359.39,-315.973"/>
</g>
<!-- 2179099675664 -->
<g id="node16" class="node"><title>2179099675664</title>
<ellipse fill="none" stroke="black" cx="513.7" cy="-306" rx="27" ry="18"/>
<text text-anchor="middle" x="513.7" y="-302.5" font-family="Times New Roman,serif" font-size="15.00">xor</text>
</g>
<!-- 2179099676576&#45;&#45;2179099675664 -->
<g id="edge14" class="edge"><title>2179099676576&#45;&#45;2179099675664</title>
<path fill="none" stroke="black" d="M513.7,-359.697C513.7,-348.846 513.7,-334.917 513.7,-324.104"/>
</g>
<!-- 2179097299936 -->
<g id="node19" class="node"><title>2179097299936</title>
<ellipse fill="none" stroke="black" cx="666.7" cy="-306" rx="27" ry="18"/>
<text text-anchor="middle" x="666.7" y="-302.5" font-family="Times New Roman,serif" font-size="15.00">xor</text>
</g>
<!-- 2179099676576&#45;&#45;2179097299936 -->
<g id="edge37" class="edge"><title>2179099676576&#45;&#45;2179097299936</title>
<path fill="none" stroke="black" d="M535.297,-367.119C564.292,-353.853 615.527,-330.412 644.718,-317.057"/>
</g>
<!-- 2179097298112 -->
<g id="node14" class="node"><title>2179097298112</title>
<ellipse fill="black" stroke="black" cx="262.7" cy="-234" rx="2.7" ry="2.7"/>
</g>
<!-- 2179099676144&#45;&#45;2179097298112 -->
<g id="edge9" class="edge"><title>2179099676144&#45;&#45;2179097298112</title>
<path fill="none" stroke="black" d="M321.725,-290.834C302.805,-272.937 271.804,-243.612 264.349,-236.56"/>
</g>
<!-- 2179097298688 -->
<g id="node15" class="node"><title>2179097298688</title>
<ellipse fill="none" stroke="black" cx="336.7" cy="-234" rx="52.6228" ry="18"/>
<text text-anchor="middle" x="336.7" y="-230.5" font-family="Times New Roman,serif" font-size="15.00">Send Fine</text>
</g>
<!-- 2179099676144&#45;&#45;2179097298688 -->
<g id="edge10" class="edge"><title>2179099676144&#45;&#45;2179097298688</title>
<path fill="none" stroke="black" d="M336.7,-287.697C336.7,-276.846 336.7,-262.917 336.7,-252.104"/>
</g>
<!-- 2179097300608 -->
<g id="node17" class="node"><title>2179097300608</title>
<ellipse fill="black" stroke="black" cx="410.7" cy="-234" rx="2.7" ry="2.7"/>
</g>
<!-- 2179099675664&#45;&#45;2179097300608 -->
<g id="edge12" class="edge"><title>2179099675664&#45;&#45;2179097300608</title>
<path fill="none" stroke="black" d="M495.286,-292.485C468.9,-274.553 422.419,-242.965 412.567,-236.269"/>
</g>
<!-- 2179097299024 -->
<g id="node18" class="node"><title>2179097299024</title>
<ellipse fill="none" stroke="black" cx="538.7" cy="-234" rx="107.914" ry="18"/>
<text text-anchor="middle" x="538.7" y="-230.5" font-family="Times New Roman,serif" font-size="15.00">Insert Fine Notification</text>
</g>
<!-- 2179099675664&#45;&#45;2179097299024 -->
<g id="edge13" class="edge"><title>2179099675664&#45;&#45;2179097299024</title>
<path fill="none" stroke="black" d="M519.625,-288.411C523.494,-277.576 528.539,-263.45 532.469,-252.447"/>
</g>
<!-- 2179097297584 -->
<g id="node20" class="node"><title>2179097297584</title>
<ellipse fill="black" stroke="black" cx="666.7" cy="-234" rx="2.7" ry="2.7"/>
</g>
<!-- 2179097299936&#45;&#45;2179097297584 -->
<g id="edge15" class="edge"><title>2179097299936&#45;&#45;2179097297584</title>
<path fill="none" stroke="black" d="M666.7,-287.697C666.7,-269.883 666.7,-243.769 666.7,-236.776"/>
</g>
<!-- 2179097300752 -->
<g id="node21" class="node"><title>2179097300752</title>
<ellipse fill="none" stroke="black" cx="733.7" cy="-234" rx="46.6143" ry="18"/>
<text text-anchor="middle" x="733.7" y="-230.5" font-family="Times New Roman,serif" font-size="15.00">xor loop</text>
</g>
<!-- 2179097299936&#45;&#45;2179097300752 -->
<g id="edge36" class="edge"><title>2179097299936&#45;&#45;2179097300752</title>
<path fill="none" stroke="black" d="M680.582,-290.496C691.545,-279.043 706.834,-263.069 718.196,-251.198"/>
</g>
<!-- 2179097299600 -->
<g id="node22" class="node"><title>2179097299600</title>
<ellipse fill="none" stroke="black" cx="709.7" cy="-162" rx="27" ry="18"/>
<text text-anchor="middle" x="709.7" y="-158.5" font-family="Times New Roman,serif" font-size="15.00">seq</text>
</g>
<!-- 2179097300752&#45;&#45;2179097299600 -->
<g id="edge34" class="edge"><title>2179097300752&#45;&#45;2179097299600</title>
<path fill="none" stroke="black" d="M727.89,-216.055C724.117,-205.049 719.219,-190.764 715.456,-179.789"/>
</g>
<!-- 2179097299792 -->
<g id="node41" class="node"><title>2179097299792</title>
<ellipse fill="black" stroke="black" cx="757.7" cy="-162" rx="2.7" ry="2.7"/>
</g>
<!-- 2179097300752&#45;&#45;2179097299792 -->
<g id="edge35" class="edge"><title>2179097300752&#45;&#45;2179097299792</title>
<path fill="none" stroke="black" d="M739.51,-216.055C745.614,-198.252 754.66,-171.865 757.084,-164.796"/>
</g>
<!-- 2179097297872 -->
<g id="node23" class="node"><title>2179097297872</title>
<ellipse fill="none" stroke="black" cx="167.7" cy="-90" rx="27" ry="18"/>
<text text-anchor="middle" x="167.7" y="-86.5" font-family="Times New Roman,serif" font-size="15.00">xor</text>
</g>
<!-- 2179097299600&#45;&#45;2179097297872 -->
<g id="edge18" class="edge"><title>2179097299600&#45;&#45;2179097297872</title>
<path fill="none" stroke="black" d="M683.191,-157.576C591.164,-145.691 286.106,-106.292 194.158,-94.417"/>
</g>
<!-- 2179097300704 -->
<g id="node26" class="node"><title>2179097300704</title>
<ellipse fill="none" stroke="black" cx="415.7" cy="-90" rx="27" ry="18"/>
<text text-anchor="middle" x="415.7" y="-86.5" font-family="Times New Roman,serif" font-size="15.00">xor</text>
</g>
<!-- 2179097299600&#45;&#45;2179097300704 -->
<g id="edge21" class="edge"><title>2179097299600&#45;&#45;2179097300704</title>
<path fill="none" stroke="black" d="M684.634,-155.032C629.089,-141.807 496.189,-110.164 440.703,-96.9531"/>
</g>
<!-- 2179097299408 -->
<g id="node29" class="node"><title>2179097299408</title>
<ellipse fill="none" stroke="black" cx="639.7" cy="-90" rx="27" ry="18"/>
<text text-anchor="middle" x="639.7" y="-86.5" font-family="Times New Roman,serif" font-size="15.00">xor</text>
</g>
<!-- 2179097299600&#45;&#45;2179097299408 -->
<g id="edge24" class="edge"><title>2179097299600&#45;&#45;2179097299408</title>
<path fill="none" stroke="black" d="M695.196,-146.496C683.182,-134.482 666.194,-117.494 654.185,-105.485"/>
</g>
<!-- 2179097299168 -->
<g id="node32" class="node"><title>2179097299168</title>
<ellipse fill="none" stroke="black" cx="780.7" cy="-90" rx="27" ry="18"/>
<text text-anchor="middle" x="780.7" y="-86.5" font-family="Times New Roman,serif" font-size="15.00">xor</text>
</g>
<!-- 2179097299600&#45;&#45;2179097299168 -->
<g id="edge27" class="edge"><title>2179097299600&#45;&#45;2179097299168</title>
<path fill="none" stroke="black" d="M724.411,-146.496C736.597,-134.482 753.827,-117.494 766.008,-105.485"/>
</g>
<!-- 2179097297536 -->
<g id="node35" class="node"><title>2179097297536</title>
<ellipse fill="none" stroke="black" cx="1168.7" cy="-90" rx="27" ry="18"/>
<text text-anchor="middle" x="1168.7" y="-86.5" font-family="Times New Roman,serif" font-size="15.00">xor</text>
</g>
<!-- 2179097299600&#45;&#45;2179097297536 -->
<g id="edge30" class="edge"><title>2179097299600&#45;&#45;2179097297536</title>
<path fill="none" stroke="black" d="M735.693,-157.036C816.387,-144.73 1062.02,-107.27 1142.71,-94.9639"/>
</g>
<!-- 2179097298640 -->
<g id="node38" class="node"><title>2179097298640</title>
<ellipse fill="none" stroke="black" cx="1506.7" cy="-90" rx="27" ry="18"/>
<text text-anchor="middle" x="1506.7" y="-86.5" font-family="Times New Roman,serif" font-size="15.00">xor</text>
</g>
<!-- 2179097299600&#45;&#45;2179097298640 -->
<g id="edge33" class="edge"><title>2179097299600&#45;&#45;2179097298640</title>
<path fill="none" stroke="black" d="M736.674,-158.631C858.764,-147.908 1358.91,-103.981 1480.14,-93.3329"/>
</g>
<!-- 2179097297920 -->
<g id="node24" class="node"><title>2179097297920</title>
<ellipse fill="black" stroke="black" cx="2.7" cy="-18" rx="2.7" ry="2.7"/>
</g>
<!-- 2179097297872&#45;&#45;2179097297920 -->
<g id="edge16" class="edge"><title>2179097297872&#45;&#45;2179097297920</title>
<path fill="none" stroke="black" d="M145.447,-79.5595C104.28,-62.0945 19.1048,-25.9596 4.76938,-19.8779"/>
</g>
<!-- 2179097300512 -->
<g id="node25" class="node"><title>2179097300512</title>
<ellipse fill="none" stroke="black" cx="167.7" cy="-18" rx="144.571" ry="18"/>
<text text-anchor="middle" x="167.7" y="-14.5" font-family="Times New Roman,serif" font-size="15.00">Insert Date Appeal to Prefecture</text>
</g>
<!-- 2179097297872&#45;&#45;2179097300512 -->
<g id="edge17" class="edge"><title>2179097297872&#45;&#45;2179097300512</title>
<path fill="none" stroke="black" d="M167.7,-71.6966C167.7,-60.8463 167.7,-46.9167 167.7,-36.1043"/>
</g>
<!-- 2179097299072 -->
<g id="node27" class="node"><title>2179097299072</title>
<ellipse fill="black" stroke="black" cx="332.7" cy="-18" rx="2.7" ry="2.7"/>
</g>
<!-- 2179097300704&#45;&#45;2179097299072 -->
<g id="edge19" class="edge"><title>2179097300704&#45;&#45;2179097299072</title>
<path fill="none" stroke="black" d="M399.302,-75.1703C378.137,-57.3201 343.019,-27.7024 334.57,-20.5768"/>
</g>
<!-- 2179097296960 -->
<g id="node28" class="node"><title>2179097296960</title>
<ellipse fill="none" stroke="black" cx="415.7" cy="-18" rx="61.6894" ry="18"/>
<text text-anchor="middle" x="415.7" y="-14.5" font-family="Times New Roman,serif" font-size="15.00">Add penalty</text>
</g>
<!-- 2179097300704&#45;&#45;2179097296960 -->
<g id="edge20" class="edge"><title>2179097300704&#45;&#45;2179097296960</title>
<path fill="none" stroke="black" d="M415.7,-71.6966C415.7,-60.8463 415.7,-46.9167 415.7,-36.1043"/>
</g>
<!-- 2179097297680 -->
<g id="node30" class="node"><title>2179097297680</title>
<ellipse fill="black" stroke="black" cx="498.7" cy="-18" rx="2.7" ry="2.7"/>
</g>
<!-- 2179097299408&#45;&#45;2179097297680 -->
<g id="edge22" class="edge"><title>2179097299408&#45;&#45;2179097297680</title>
<path fill="none" stroke="black" d="M618.591,-78.5203C582.944,-60.8234 513.442,-26.3188 500.724,-20.0047"/>
</g>
<!-- 2179097300128 -->
<g id="node31" class="node"><title>2179097300128</title>
<ellipse fill="none" stroke="black" cx="639.7" cy="-18" rx="120.43" ry="18"/>
<text text-anchor="middle" x="639.7" y="-14.5" font-family="Times New Roman,serif" font-size="15.00">Send Appeal to Prefecture</text>
</g>
<!-- 2179097299408&#45;&#45;2179097300128 -->
<g id="edge23" class="edge"><title>2179097299408&#45;&#45;2179097300128</title>
<path fill="none" stroke="black" d="M639.7,-71.6966C639.7,-60.8463 639.7,-46.9167 639.7,-36.1043"/>
</g>
<!-- 2179098327024 -->
<g id="node33" class="node"><title>2179098327024</title>
<ellipse fill="black" stroke="black" cx="780.7" cy="-18" rx="2.7" ry="2.7"/>
</g>
<!-- 2179097299168&#45;&#45;2179098327024 -->
<g id="edge25" class="edge"><title>2179097299168&#45;&#45;2179098327024</title>
<path fill="none" stroke="black" d="M780.7,-71.6966C780.7,-53.8826 780.7,-27.7686 780.7,-20.7764"/>
</g>
<!-- 2179102168400 -->
<g id="node34" class="node"><title>2179102168400</title>
<ellipse fill="none" stroke="black" cx="974.7" cy="-18" rx="173.941" ry="18"/>
<text text-anchor="middle" x="974.7" y="-14.5" font-family="Times New Roman,serif" font-size="15.00">Receive Result Appeal from Prefecture</text>
</g>
<!-- 2179097299168&#45;&#45;2179102168400 -->
<g id="edge26" class="edge"><title>2179097299168&#45;&#45;2179102168400</title>
<path fill="none" stroke="black" d="M804.101,-80.5564C834.939,-69.4293 889.853,-49.615 929.049,-35.472"/>
</g>
<!-- 2179098486816 -->
<g id="node36" class="node"><title>2179098486816</title>
<ellipse fill="black" stroke="black" cx="1168.7" cy="-18" rx="2.7" ry="2.7"/>
</g>
<!-- 2179097297536&#45;&#45;2179098486816 -->
<g id="edge28" class="edge"><title>2179097297536&#45;&#45;2179098486816</title>
<path fill="none" stroke="black" d="M1168.7,-71.6966C1168.7,-53.8826 1168.7,-27.7686 1168.7,-20.7764"/>
</g>
<!-- 2179098433520 -->
<g id="node37" class="node"><title>2179098433520</title>
<ellipse fill="none" stroke="black" cx="1337.7" cy="-18" rx="148.91" ry="18"/>
<text text-anchor="middle" x="1337.7" y="-14.5" font-family="Times New Roman,serif" font-size="15.00">Notify Result Appeal to Offender</text>
</g>
<!-- 2179097297536&#45;&#45;2179098433520 -->
<g id="edge29" class="edge"><title>2179097297536&#45;&#45;2179098433520</title>
<path fill="none" stroke="black" d="M1191.14,-79.7045C1218.35,-68.4359 1264.68,-49.2446 1297.97,-35.4544"/>
</g>
<!-- 2179098434960 -->
<g id="node39" class="node"><title>2179098434960</title>
<ellipse fill="black" stroke="black" cx="1506.7" cy="-18" rx="2.7" ry="2.7"/>
</g>
<!-- 2179097298640&#45;&#45;2179098434960 -->
<g id="edge31" class="edge"><title>2179097298640&#45;&#45;2179098434960</title>
<path fill="none" stroke="black" d="M1506.7,-71.6966C1506.7,-53.8826 1506.7,-27.7686 1506.7,-20.7764"/>
</g>
<!-- 2179098433568 -->
<g id="node40" class="node"><title>2179098433568</title>
<ellipse fill="none" stroke="black" cx="1573.7" cy="-18" rx="45.7249" ry="18"/>
<text text-anchor="middle" x="1573.7" y="-14.5" font-family="Times New Roman,serif" font-size="15.00">Payment</text>
</g>
<!-- 2179097298640&#45;&#45;2179098433568 -->
<g id="edge32" class="edge"><title>2179097298640&#45;&#45;2179098433568</title>
<path fill="none" stroke="black" d="M1520.58,-74.496C1531.54,-63.0429 1546.83,-47.0688 1558.2,-35.1982"/>
</g>
<!-- 2179097298592 -->
<g id="node44" class="node"><title>2179097298592</title>
<ellipse fill="black" stroke="black" cx="594.7" cy="-378" rx="2.7" ry="2.7"/>
</g>
<!-- 2179099675520&#45;&#45;2179097298592 -->
<g id="edge41" class="edge"><title>2179099675520&#45;&#45;2179097298592</title>
<path fill="none" stroke="black" d="M618.353,-432.411C610.475,-414.622 598.669,-387.962 595.504,-380.816"/>
</g>
<!-- 2179097299840 -->
<g id="node45" class="node"><title>2179097299840</title>
<ellipse fill="none" stroke="black" cx="736.7" cy="-378" rx="120.819" ry="18"/>
<text text-anchor="middle" x="736.7" y="-374.5" font-family="Times New Roman,serif" font-size="15.00">Send for Credit Collection</text>
</g>
<!-- 2179099675520&#45;&#45;2179097299840 -->
<g id="edge42" class="edge"><title>2179099675520&#45;&#45;2179097299840</title>
<path fill="none" stroke="black" d="M644.782,-436.967C662.881,-425.552 690.233,-408.303 710.397,-395.588"/>
</g>
</g>
</svg>
