<?xml version="1.0" encoding="UTF-8" standalone="no"?>
<!DOCTYPE svg PUBLIC "-//W3C//DTD SVG 1.1//EN"
 "http://www.w3.org/Graphics/SVG/1.1/DTD/svg11.dtd">
<!-- Generated by graphviz version 2.38.0 (20140413.2041)
 -->
<!-- Title: pt Pages: 1 -->
<svg width="1282pt" height="548pt"
 viewBox="0.00 0.00 1281.91 548.00" xmlns="http://www.w3.org/2000/svg" xmlns:xlink="http://www.w3.org/1999/xlink">
<g id="graph0" class="graph" transform="scale(1 1) rotate(0) translate(4 544)">
<title>pt</title>
<!-- 1436011635808 -->
<g id="node1" class="node"><title>1436011635808</title>
<ellipse fill="none" stroke="black" cx="300.7" cy="-522" rx="27" ry="18"/>
<text text-anchor="middle" x="300.7" y="-518.5" font-family="Times New Roman,serif" font-size="15.00">and</text>
</g>
<!-- 1436011636720 -->
<g id="node2" class="node"><title>1436011636720</title>
<ellipse fill="none" stroke="black" cx="210.7" cy="-450" rx="27" ry="18"/>
<text text-anchor="middle" x="210.7" y="-446.5" font-family="Times New Roman,serif" font-size="15.00">xor</text>
</g>
<!-- 1436011635808&#45;&#45;1436011636720 -->
<g id="edge15" class="edge"><title>1436011635808&#45;&#45;1436011636720</title>
<path fill="none" stroke="black" d="M283.772,-507.834C267.681,-495.319 243.618,-476.603 227.552,-464.107"/>
</g>
<!-- 1436011636528 -->
<g id="node17" class="node"><title>1436011636528</title>
<ellipse fill="none" stroke="black" cx="390.7" cy="-450" rx="27" ry="18"/>
<text text-anchor="middle" x="390.7" y="-446.5" font-family="Times New Roman,serif" font-size="15.00">seq</text>
</g>
<!-- 1436011635808&#45;&#45;1436011636528 -->
<g id="edge38" class="edge"><title>1436011635808&#45;&#45;1436011636528</title>
<path fill="none" stroke="black" d="M317.628,-507.834C333.719,-495.319 357.782,-476.603 373.848,-464.107"/>
</g>
<!-- 1436011762640 -->
<g id="node3" class="node"><title>1436011762640</title>
<ellipse fill="black" stroke="black" cx="162.7" cy="-378" rx="2.7" ry="2.7"/>
</g>
<!-- 1436011636720&#45;&#45;1436011762640 -->
<g id="edge1" class="edge"><title>1436011636720&#45;&#45;1436011762640</title>
<path fill="none" stroke="black" d="M199.808,-433.116C187.638,-415.367 168.98,-388.158 163.973,-380.857"/>
</g>
<!-- 1436011762256 -->
<g id="node4" class="node"><title>1436011762256</title>
<ellipse fill="none" stroke="black" cx="210.7" cy="-378" rx="27" ry="18"/>
<text text-anchor="middle" x="210.7" y="-374.5" font-family="Times New Roman,serif" font-size="15.00">and</text>
</g>
<!-- 1436011636720&#45;&#45;1436011762256 -->
<g id="edge14" class="edge"><title>1436011636720&#45;&#45;1436011762256</title>
<path fill="none" stroke="black" d="M210.7,-431.697C210.7,-420.846 210.7,-406.917 210.7,-396.104"/>
</g>
<!-- 1436015066080 -->
<g id="node5" class="node"><title>1436015066080</title>
<ellipse fill="none" stroke="black" cx="69.7" cy="-306" rx="46.6143" ry="18"/>
<text text-anchor="middle" x="69.7" y="-302.5" font-family="Times New Roman,serif" font-size="15.00">xor loop</text>
</g>
<!-- 1436011762256&#45;&#45;1436015066080 -->
<g id="edge4" class="edge"><title>1436011762256&#45;&#45;1436015066080</title>
<path fill="none" stroke="black" d="M189.591,-366.52C165.007,-354.316 124.321,-334.117 97.2629,-320.684"/>
</g>
<!-- 1436015066944 -->
<g id="node8" class="node"><title>1436015066944</title>
<ellipse fill="none" stroke="black" cx="210.7" cy="-306" rx="27" ry="18"/>
<text text-anchor="middle" x="210.7" y="-302.5" font-family="Times New Roman,serif" font-size="15.00">xor</text>
</g>
<!-- 1436011762256&#45;&#45;1436015066944 -->
<g id="edge13" class="edge"><title>1436011762256&#45;&#45;1436015066944</title>
<path fill="none" stroke="black" d="M210.7,-359.697C210.7,-348.846 210.7,-334.917 210.7,-324.104"/>
</g>
<!-- 1436015063488 -->
<g id="node6" class="node"><title>1436015063488</title>
<ellipse fill="black" stroke="black" cx="2.7" cy="-234" rx="2.7" ry="2.7"/>
</g>
<!-- 1436015066080&#45;&#45;1436015063488 -->
<g id="edge2" class="edge"><title>1436015066080&#45;&#45;1436015063488</title>
<path fill="none" stroke="black" d="M54.1604,-288.765C36.842,-270.671 10.4314,-243.078 4.09939,-236.462"/>
</g>
<!-- 1436015064160 -->
<g id="node7" class="node"><title>1436015064160</title>
<ellipse fill="none" stroke="black" cx="69.7" cy="-234" rx="45.7249" ry="18"/>
<text text-anchor="middle" x="69.7" y="-230.5" font-family="Times New Roman,serif" font-size="15.00">Payment</text>
</g>
<!-- 1436015066080&#45;&#45;1436015064160 -->
<g id="edge3" class="edge"><title>1436015066080&#45;&#45;1436015064160</title>
<path fill="none" stroke="black" d="M69.7,-287.697C69.7,-276.846 69.7,-262.917 69.7,-252.104"/>
</g>
<!-- 1436015064640 -->
<g id="node9" class="node"><title>1436015064640</title>
<ellipse fill="black" stroke="black" cx="136.7" cy="-234" rx="2.7" ry="2.7"/>
</g>
<!-- 1436015066944&#45;&#45;1436015064640 -->
<g id="edge5" class="edge"><title>1436015066944&#45;&#45;1436015064640</title>
<path fill="none" stroke="black" d="M195.725,-290.834C176.805,-272.937 145.804,-243.612 138.349,-236.56"/>
</g>
<!-- 1436015064928 -->
<g id="node10" class="node"><title>1436015064928</title>
<ellipse fill="none" stroke="black" cx="210.7" cy="-234" rx="52.6228" ry="18"/>
<text text-anchor="middle" x="210.7" y="-230.5" font-family="Times New Roman,serif" font-size="15.00">Send Fine</text>
</g>
<!-- 1436015066944&#45;&#45;1436015064928 -->
<g id="edge6" class="edge"><title>1436015066944&#45;&#45;1436015064928</title>
<path fill="none" stroke="black" d="M210.7,-287.697C210.7,-276.846 210.7,-262.917 210.7,-252.104"/>
</g>
<!-- 1436015065120 -->
<g id="node11" class="node"><title>1436015065120</title>
<ellipse fill="none" stroke="black" cx="308.7" cy="-234" rx="27" ry="18"/>
<text text-anchor="middle" x="308.7" y="-230.5" font-family="Times New Roman,serif" font-size="15.00">seq</text>
</g>
<!-- 1436015066944&#45;&#45;1436015065120 -->
<g id="edge12" class="edge"><title>1436015066944&#45;&#45;1436015065120</title>
<path fill="none" stroke="black" d="M228.675,-292.161C246.357,-279.531 273.196,-260.36 290.839,-247.758"/>
</g>
<!-- 1436015065744 -->
<g id="node12" class="node"><title>1436015065744</title>
<ellipse fill="none" stroke="black" cx="119.7" cy="-162" rx="52.6228" ry="18"/>
<text text-anchor="middle" x="119.7" y="-158.5" font-family="Times New Roman,serif" font-size="15.00">Send Fine</text>
</g>
<!-- 1436015065120&#45;&#45;1436015065744 -->
<g id="edge7" class="edge"><title>1436015065120&#45;&#45;1436015065744</title>
<path fill="none" stroke="black" d="M285.525,-224.417C252.701,-212.26 192.428,-189.936 154.297,-175.814"/>
</g>
<!-- 1436015065888 -->
<g id="node13" class="node"><title>1436015065888</title>
<ellipse fill="none" stroke="black" cx="298.7" cy="-162" rx="107.914" ry="18"/>
<text text-anchor="middle" x="298.7" y="-158.5" font-family="Times New Roman,serif" font-size="15.00">Insert Fine Notification</text>
</g>
<!-- 1436015065120&#45;&#45;1436015065888 -->
<g id="edge8" class="edge"><title>1436015065120&#45;&#45;1436015065888</title>
<path fill="none" stroke="black" d="M306.279,-216.055C304.73,-205.211 302.726,-191.183 301.168,-180.275"/>
</g>
<!-- 1436015066128 -->
<g id="node14" class="node"><title>1436015066128</title>
<ellipse fill="none" stroke="black" cx="470.7" cy="-162" rx="46.6143" ry="18"/>
<text text-anchor="middle" x="470.7" y="-158.5" font-family="Times New Roman,serif" font-size="15.00">xor loop</text>
</g>
<!-- 1436015065120&#45;&#45;1436015066128 -->
<g id="edge11" class="edge"><title>1436015065120&#45;&#45;1436015066128</title>
<path fill="none" stroke="black" d="M330.886,-223.414C359.395,-211.095 408.996,-189.662 440.81,-175.915"/>
</g>
<!-- 1436015066560 -->
<g id="node15" class="node"><title>1436015066560</title>
<ellipse fill="black" stroke="black" cx="387.7" cy="-90" rx="2.7" ry="2.7"/>
</g>
<!-- 1436015066128&#45;&#45;1436015066560 -->
<g id="edge9" class="edge"><title>1436015066128&#45;&#45;1436015066560</title>
<path fill="none" stroke="black" d="M452.28,-145.465C430.884,-127.42 397.487,-99.254 389.472,-92.4944"/>
</g>
<!-- 1436015066704 -->
<g id="node16" class="node"><title>1436015066704</title>
<ellipse fill="none" stroke="black" cx="470.7" cy="-90" rx="61.6894" ry="18"/>
<text text-anchor="middle" x="470.7" y="-86.5" font-family="Times New Roman,serif" font-size="15.00">Add penalty</text>
</g>
<!-- 1436015066128&#45;&#45;1436015066704 -->
<g id="edge10" class="edge"><title>1436015066128&#45;&#45;1436015066704</title>
<path fill="none" stroke="black" d="M470.7,-143.697C470.7,-132.846 470.7,-118.917 470.7,-108.104"/>
</g>
<!-- 1436011637152 -->
<g id="node18" class="node"><title>1436011637152</title>
<ellipse fill="none" stroke="black" cx="338.7" cy="-378" rx="59.5207" ry="18"/>
<text text-anchor="middle" x="338.7" y="-374.5" font-family="Times New Roman,serif" font-size="15.00">Create Fine</text>
</g>
<!-- 1436011636528&#45;&#45;1436011637152 -->
<g id="edge16" class="edge"><title>1436011636528&#45;&#45;1436011637152</title>
<path fill="none" stroke="black" d="M379.16,-433.465C370.901,-422.348 359.789,-407.39 351.3,-395.962"/>
</g>
<!-- 1436011636960 -->
<g id="node19" class="node"><title>1436011636960</title>
<ellipse fill="none" stroke="black" cx="443.7" cy="-378" rx="27" ry="18"/>
<text text-anchor="middle" x="443.7" y="-374.5" font-family="Times New Roman,serif" font-size="15.00">and</text>
</g>
<!-- 1436011636528&#45;&#45;1436011636960 -->
<g id="edge34" class="edge"><title>1436011636528&#45;&#45;1436011636960</title>
<path fill="none" stroke="black" d="M402.462,-433.465C411.245,-421.865 423.195,-406.082 431.97,-394.492"/>
</g>
<!-- 1436011638736 -->
<g id="node37" class="node"><title>1436011638736</title>
<ellipse fill="none" stroke="black" cx="572.7" cy="-378" rx="27" ry="18"/>
<text text-anchor="middle" x="572.7" y="-374.5" font-family="Times New Roman,serif" font-size="15.00">xor</text>
</g>
<!-- 1436011636528&#45;&#45;1436011638736 -->
<g id="edge37" class="edge"><title>1436011636528&#45;&#45;1436011638736</title>
<path fill="none" stroke="black" d="M413.75,-440.134C448.759,-426.67 514.94,-401.215 549.837,-387.794"/>
</g>
<!-- 1436011636816 -->
<g id="node20" class="node"><title>1436011636816</title>
<ellipse fill="none" stroke="black" cx="432.7" cy="-306" rx="46.6143" ry="18"/>
<text text-anchor="middle" x="432.7" y="-302.5" font-family="Times New Roman,serif" font-size="15.00">xor loop</text>
</g>
<!-- 1436011636960&#45;&#45;1436011636816 -->
<g id="edge19" class="edge"><title>1436011636960&#45;&#45;1436011636816</title>
<path fill="none" stroke="black" d="M441.037,-360.055C439.333,-349.211 437.129,-335.183 435.415,-324.275"/>
</g>
<!-- 1436011638352 -->
<g id="node23" class="node"><title>1436011638352</title>
<ellipse fill="none" stroke="black" cx="524.7" cy="-306" rx="27" ry="18"/>
<text text-anchor="middle" x="524.7" y="-302.5" font-family="Times New Roman,serif" font-size="15.00">xor</text>
</g>
<!-- 1436011636960&#45;&#45;1436011638352 -->
<g id="edge33" class="edge"><title>1436011636960&#45;&#45;1436011638352</title>
<path fill="none" stroke="black" d="M459.703,-363.17C473.903,-350.898 494.54,-333.064 508.73,-320.801"/>
</g>
<!-- 1436011638640 -->
<g id="node21" class="node"><title>1436011638640</title>
<ellipse fill="black" stroke="black" cx="372.7" cy="-234" rx="2.7" ry="2.7"/>
</g>
<!-- 1436011636816&#45;&#45;1436011638640 -->
<g id="edge17" class="edge"><title>1436011636816&#45;&#45;1436011638640</title>
<path fill="none" stroke="black" d="M418.784,-288.765C403.275,-270.671 379.624,-243.078 373.953,-236.462"/>
</g>
<!-- 1436011637440 -->
<g id="node22" class="node"><title>1436011637440</title>
<ellipse fill="none" stroke="black" cx="439.7" cy="-234" rx="45.7249" ry="18"/>
<text text-anchor="middle" x="439.7" y="-230.5" font-family="Times New Roman,serif" font-size="15.00">Payment</text>
</g>
<!-- 1436011636816&#45;&#45;1436011637440 -->
<g id="edge18" class="edge"><title>1436011636816&#45;&#45;1436011637440</title>
<path fill="none" stroke="black" d="M434.43,-287.697C435.515,-276.846 436.908,-262.917 437.99,-252.104"/>
</g>
<!-- 1436011764944 -->
<g id="node24" class="node"><title>1436011764944</title>
<ellipse fill="black" stroke="black" cx="512.7" cy="-234" rx="2.7" ry="2.7"/>
</g>
<!-- 1436011638352&#45;&#45;1436011764944 -->
<g id="edge20" class="edge"><title>1436011638352&#45;&#45;1436011764944</title>
<path fill="none" stroke="black" d="M521.795,-288.055C518.743,-270.252 514.22,-243.865 513.008,-236.796"/>
</g>
<!-- 1436011762880 -->
<g id="node25" class="node"><title>1436011762880</title>
<ellipse fill="none" stroke="black" cx="586.7" cy="-234" rx="52.6228" ry="18"/>
<text text-anchor="middle" x="586.7" y="-230.5" font-family="Times New Roman,serif" font-size="15.00">Send Fine</text>
</g>
<!-- 1436011638352&#45;&#45;1436011762880 -->
<g id="edge21" class="edge"><title>1436011638352&#45;&#45;1436011762880</title>
<path fill="none" stroke="black" d="M537.849,-290.155C547.801,-278.918 561.478,-263.476 571.83,-251.789"/>
</g>
<!-- 1436011765568 -->
<g id="node26" class="node"><title>1436011765568</title>
<ellipse fill="none" stroke="black" cx="703.7" cy="-234" rx="27" ry="18"/>
<text text-anchor="middle" x="703.7" y="-230.5" font-family="Times New Roman,serif" font-size="15.00">seq</text>
</g>
<!-- 1436011638352&#45;&#45;1436011765568 -->
<g id="edge32" class="edge"><title>1436011638352&#45;&#45;1436011765568</title>
<path fill="none" stroke="black" d="M547.37,-296.134C581.708,-282.706 646.536,-257.355 680.932,-243.904"/>
</g>
<!-- 1436011764560 -->
<g id="node27" class="node"><title>1436011764560</title>
<ellipse fill="none" stroke="black" cx="703.7" cy="-162" rx="52.6228" ry="18"/>
<text text-anchor="middle" x="703.7" y="-158.5" font-family="Times New Roman,serif" font-size="15.00">Send Fine</text>
</g>
<!-- 1436011765568&#45;&#45;1436011764560 -->
<g id="edge22" class="edge"><title>1436011765568&#45;&#45;1436011764560</title>
<path fill="none" stroke="black" d="M703.7,-215.697C703.7,-204.846 703.7,-190.917 703.7,-180.104"/>
</g>
<!-- 1436011762784 -->
<g id="node28" class="node"><title>1436011762784</title>
<ellipse fill="none" stroke="black" cx="811.7" cy="-162" rx="27" ry="18"/>
<text text-anchor="middle" x="811.7" y="-158.5" font-family="Times New Roman,serif" font-size="15.00">seq</text>
</g>
<!-- 1436011765568&#45;&#45;1436011762784 -->
<g id="edge31" class="edge"><title>1436011765568&#45;&#45;1436011762784</title>
<path fill="none" stroke="black" d="M722.512,-220.807C742.335,-207.959 773.362,-187.848 793.103,-175.053"/>
</g>
<!-- 1436011765280 -->
<g id="node29" class="node"><title>1436011765280</title>
<ellipse fill="none" stroke="black" cx="658.7" cy="-90" rx="107.914" ry="18"/>
<text text-anchor="middle" x="658.7" y="-86.5" font-family="Times New Roman,serif" font-size="15.00">Insert Fine Notification</text>
</g>
<!-- 1436011762784&#45;&#45;1436011765280 -->
<g id="edge23" class="edge"><title>1436011762784&#45;&#45;1436011765280</title>
<path fill="none" stroke="black" d="M790.103,-151.119C765.062,-139.662 723.433,-120.616 693.741,-107.032"/>
</g>
<!-- 1436011765616 -->
<g id="node30" class="node"><title>1436011765616</title>
<ellipse fill="none" stroke="black" cx="811.7" cy="-90" rx="27" ry="18"/>
<text text-anchor="middle" x="811.7" y="-86.5" font-family="Times New Roman,serif" font-size="15.00">xor</text>
</g>
<!-- 1436011762784&#45;&#45;1436011765616 -->
<g id="edge26" class="edge"><title>1436011762784&#45;&#45;1436011765616</title>
<path fill="none" stroke="black" d="M811.7,-143.697C811.7,-132.846 811.7,-118.917 811.7,-108.104"/>
</g>
<!-- 1436011763168 -->
<g id="node33" class="node"><title>1436011763168</title>
<ellipse fill="none" stroke="black" cx="918.7" cy="-90" rx="61.6894" ry="18"/>
<text text-anchor="middle" x="918.7" y="-86.5" font-family="Times New Roman,serif" font-size="15.00">Add penalty</text>
</g>
<!-- 1436011762784&#45;&#45;1436011763168 -->
<g id="edge27" class="edge"><title>1436011762784&#45;&#45;1436011763168</title>
<path fill="none" stroke="black" d="M830.338,-148.807C848.181,-137.134 875.187,-119.466 894.645,-106.737"/>
</g>
<!-- 1436011762448 -->
<g id="node34" class="node"><title>1436011762448</title>
<ellipse fill="none" stroke="black" cx="1025.7" cy="-90" rx="27" ry="18"/>
<text text-anchor="middle" x="1025.7" y="-86.5" font-family="Times New Roman,serif" font-size="15.00">xor</text>
</g>
<!-- 1436011762784&#45;&#45;1436011762448 -->
<g id="edge30" class="edge"><title>1436011762784&#45;&#45;1436011762448</title>
<path fill="none" stroke="black" d="M835.419,-153.241C876.555,-139.786 960.665,-112.273 1001.87,-98.7934"/>
</g>
<!-- 1436011762736 -->
<g id="node31" class="node"><title>1436011762736</title>
<ellipse fill="black" stroke="black" cx="658.7" cy="-18" rx="2.7" ry="2.7"/>
</g>
<!-- 1436011765616&#45;&#45;1436011762736 -->
<g id="edge24" class="edge"><title>1436011765616&#45;&#45;1436011762736</title>
<path fill="none" stroke="black" d="M790.103,-79.1192C751.883,-61.6326 675.017,-26.4652 660.94,-20.025"/>
</g>
<!-- 1436011765136 -->
<g id="node32" class="node"><title>1436011765136</title>
<ellipse fill="none" stroke="black" cx="823.7" cy="-18" rx="144.571" ry="18"/>
<text text-anchor="middle" x="823.7" y="-14.5" font-family="Times New Roman,serif" font-size="15.00">Insert Date Appeal to Prefecture</text>
</g>
<!-- 1436011765616&#45;&#45;1436011765136 -->
<g id="edge25" class="edge"><title>1436011765616&#45;&#45;1436011765136</title>
<path fill="none" stroke="black" d="M814.605,-72.055C816.464,-61.2111 818.869,-47.183 820.739,-36.2753"/>
</g>
<!-- 1436015066464 -->
<g id="node35" class="node"><title>1436015066464</title>
<ellipse fill="black" stroke="black" cx="1012.7" cy="-18" rx="2.7" ry="2.7"/>
</g>
<!-- 1436011762448&#45;&#45;1436015066464 -->
<g id="edge28" class="edge"><title>1436011762448&#45;&#45;1436015066464</title>
<path fill="none" stroke="black" d="M1022.55,-72.055C1019.25,-54.2515 1014.35,-27.8653 1013.03,-20.7963"/>
</g>
<!-- 1436015064256 -->
<g id="node36" class="node"><title>1436015064256</title>
<ellipse fill="none" stroke="black" cx="1153.7" cy="-18" rx="120.43" ry="18"/>
<text text-anchor="middle" x="1153.7" y="-14.5" font-family="Times New Roman,serif" font-size="15.00">Send Appeal to Prefecture</text>
</g>
<!-- 1436011762448&#45;&#45;1436015064256 -->
<g id="edge29" class="edge"><title>1436011762448&#45;&#45;1436015064256</title>
<path fill="none" stroke="black" d="M1045.98,-77.9083C1066.85,-66.4972 1099.59,-48.5914 1123.5,-35.5142"/>
</g>
<!-- 1436011764320 -->
<g id="node38" class="node"><title>1436011764320</title>
<ellipse fill="black" stroke="black" cx="572.7" cy="-306" rx="2.7" ry="2.7"/>
</g>
<!-- 1436011638736&#45;&#45;1436011764320 -->
<g id="edge35" class="edge"><title>1436011638736&#45;&#45;1436011764320</title>
<path fill="none" stroke="black" d="M572.7,-359.697C572.7,-341.883 572.7,-315.769 572.7,-308.776"/>
</g>
<!-- 1436011637200 -->
<g id="node39" class="node"><title>1436011637200</title>
<ellipse fill="none" stroke="black" cx="714.7" cy="-306" rx="120.819" ry="18"/>
<text text-anchor="middle" x="714.7" y="-302.5" font-family="Times New Roman,serif" font-size="15.00">Send for Credit Collection</text>
</g>
<!-- 1436011638736&#45;&#45;1436011637200 -->
<g id="edge36" class="edge"><title>1436011638736&#45;&#45;1436011637200</title>
<path fill="none" stroke="black" d="M593.959,-366.52C617.092,-355.116 654.384,-336.733 681.408,-323.412"/>
</g>
</g>
</svg>
