<?xml version="1.0" encoding="UTF-8" standalone="no"?>
<!DOCTYPE svg PUBLIC "-//W3C//DTD SVG 1.1//EN"
 "http://www.w3.org/Graphics/SVG/1.1/DTD/svg11.dtd">
<!-- Generated by graphviz version 2.38.0 (20140413.2041)
 -->
<!-- Title: pt Pages: 1 -->
<svg width="2534pt" height="620pt"
 viewBox="0.00 0.00 2533.67 620.00" xmlns="http://www.w3.org/2000/svg" xmlns:xlink="http://www.w3.org/1999/xlink">
<g id="graph0" class="graph" transform="scale(1 1) rotate(0) translate(4 616)">
<title>pt</title>
<!-- 1436185731184 -->
<g id="node1" class="node"><title>1436185731184</title>
<ellipse fill="none" stroke="black" cx="323.811" cy="-594" rx="27" ry="18"/>
<text text-anchor="middle" x="323.811" y="-590.5" font-family="Times New Roman,serif" font-size="15.00">and</text>
</g>
<!-- 1436185733152 -->
<g id="node2" class="node"><title>1436185733152</title>
<ellipse fill="none" stroke="black" cx="219.811" cy="-522" rx="27" ry="18"/>
<text text-anchor="middle" x="219.811" y="-518.5" font-family="Times New Roman,serif" font-size="15.00">xor</text>
</g>
<!-- 1436185731184&#45;&#45;1436185733152 -->
<g id="edge15" class="edge"><title>1436185731184&#45;&#45;1436185733152</title>
<path fill="none" stroke="black" d="M305.218,-580.485C286.288,-567.744 257.115,-548.108 238.243,-535.406"/>
</g>
<!-- 1436185733872 -->
<g id="node17" class="node"><title>1436185733872</title>
<ellipse fill="none" stroke="black" cx="571.811" cy="-522" rx="27" ry="18"/>
<text text-anchor="middle" x="571.811" y="-518.5" font-family="Times New Roman,serif" font-size="15.00">and</text>
</g>
<!-- 1436185731184&#45;&#45;1436185733872 -->
<g id="edge65" class="edge"><title>1436185731184&#45;&#45;1436185733872</title>
<path fill="none" stroke="black" d="M348.497,-586.032C396.034,-572.615 499.767,-543.335 547.225,-529.94"/>
</g>
<!-- 1436185731376 -->
<g id="node3" class="node"><title>1436185731376</title>
<ellipse fill="black" stroke="black" cx="171.811" cy="-450" rx="2.7" ry="2.7"/>
</g>
<!-- 1436185733152&#45;&#45;1436185731376 -->
<g id="edge1" class="edge"><title>1436185733152&#45;&#45;1436185731376</title>
<path fill="none" stroke="black" d="M208.919,-505.116C196.749,-487.367 178.091,-460.158 173.084,-452.857"/>
</g>
<!-- 1436182699504 -->
<g id="node4" class="node"><title>1436182699504</title>
<ellipse fill="none" stroke="black" cx="219.811" cy="-450" rx="27" ry="18"/>
<text text-anchor="middle" x="219.811" y="-446.5" font-family="Times New Roman,serif" font-size="15.00">and</text>
</g>
<!-- 1436185733152&#45;&#45;1436182699504 -->
<g id="edge14" class="edge"><title>1436185733152&#45;&#45;1436182699504</title>
<path fill="none" stroke="black" d="M219.811,-503.697C219.811,-492.846 219.811,-478.917 219.811,-468.104"/>
</g>
<!-- 1436182698400 -->
<g id="node5" class="node"><title>1436182698400</title>
<ellipse fill="none" stroke="black" cx="78.8111" cy="-378" rx="46.6143" ry="18"/>
<text text-anchor="middle" x="78.8111" y="-374.5" font-family="Times New Roman,serif" font-size="15.00">xor loop</text>
</g>
<!-- 1436182699504&#45;&#45;1436182698400 -->
<g id="edge4" class="edge"><title>1436182699504&#45;&#45;1436182698400</title>
<path fill="none" stroke="black" d="M198.702,-438.52C174.118,-426.316 133.432,-406.117 106.374,-392.684"/>
</g>
<!-- 1436182698688 -->
<g id="node8" class="node"><title>1436182698688</title>
<ellipse fill="none" stroke="black" cx="219.811" cy="-378" rx="27" ry="18"/>
<text text-anchor="middle" x="219.811" y="-374.5" font-family="Times New Roman,serif" font-size="15.00">xor</text>
</g>
<!-- 1436182699504&#45;&#45;1436182698688 -->
<g id="edge13" class="edge"><title>1436182699504&#45;&#45;1436182698688</title>
<path fill="none" stroke="black" d="M219.811,-431.697C219.811,-420.846 219.811,-406.917 219.811,-396.104"/>
</g>
<!-- 1436182699216 -->
<g id="node6" class="node"><title>1436182699216</title>
<ellipse fill="black" stroke="black" cx="11.8111" cy="-306" rx="2.7" ry="2.7"/>
</g>
<!-- 1436182698400&#45;&#45;1436182699216 -->
<g id="edge2" class="edge"><title>1436182698400&#45;&#45;1436182699216</title>
<path fill="none" stroke="black" d="M63.2715,-360.765C45.9531,-342.671 19.5425,-315.078 13.2104,-308.462"/>
</g>
<!-- 1436182699888 -->
<g id="node7" class="node"><title>1436182699888</title>
<ellipse fill="none" stroke="black" cx="78.8111" cy="-306" rx="45.7249" ry="18"/>
<text text-anchor="middle" x="78.8111" y="-302.5" font-family="Times New Roman,serif" font-size="15.00">Payment</text>
</g>
<!-- 1436182698400&#45;&#45;1436182699888 -->
<g id="edge3" class="edge"><title>1436182698400&#45;&#45;1436182699888</title>
<path fill="none" stroke="black" d="M78.8111,-359.697C78.8111,-348.846 78.8111,-334.917 78.8111,-324.104"/>
</g>
<!-- 1436182881472 -->
<g id="node9" class="node"><title>1436182881472</title>
<ellipse fill="black" stroke="black" cx="145.811" cy="-306" rx="2.7" ry="2.7"/>
</g>
<!-- 1436182698688&#45;&#45;1436182881472 -->
<g id="edge5" class="edge"><title>1436182698688&#45;&#45;1436182881472</title>
<path fill="none" stroke="black" d="M204.836,-362.834C185.916,-344.937 154.915,-315.612 147.46,-308.56"/>
</g>
<!-- 1436182881856 -->
<g id="node10" class="node"><title>1436182881856</title>
<ellipse fill="none" stroke="black" cx="219.811" cy="-306" rx="52.6228" ry="18"/>
<text text-anchor="middle" x="219.811" y="-302.5" font-family="Times New Roman,serif" font-size="15.00">Send Fine</text>
</g>
<!-- 1436182698688&#45;&#45;1436182881856 -->
<g id="edge6" class="edge"><title>1436182698688&#45;&#45;1436182881856</title>
<path fill="none" stroke="black" d="M219.811,-359.697C219.811,-348.846 219.811,-334.917 219.811,-324.104"/>
</g>
<!-- 1436182881760 -->
<g id="node11" class="node"><title>1436182881760</title>
<ellipse fill="none" stroke="black" cx="317.811" cy="-306" rx="27" ry="18"/>
<text text-anchor="middle" x="317.811" y="-302.5" font-family="Times New Roman,serif" font-size="15.00">seq</text>
</g>
<!-- 1436182698688&#45;&#45;1436182881760 -->
<g id="edge12" class="edge"><title>1436182698688&#45;&#45;1436182881760</title>
<path fill="none" stroke="black" d="M237.786,-364.161C255.468,-351.531 282.307,-332.36 299.95,-319.758"/>
</g>
<!-- 1436182882720 -->
<g id="node12" class="node"><title>1436182882720</title>
<ellipse fill="none" stroke="black" cx="52.8111" cy="-234" rx="52.6228" ry="18"/>
<text text-anchor="middle" x="52.8111" y="-230.5" font-family="Times New Roman,serif" font-size="15.00">Send Fine</text>
</g>
<!-- 1436182881760&#45;&#45;1436182882720 -->
<g id="edge7" class="edge"><title>1436182881760&#45;&#45;1436182882720</title>
<path fill="none" stroke="black" d="M292.88,-298.415C247.012,-286.298 148.866,-260.373 93.3157,-245.699"/>
</g>
<!-- 1436182882816 -->
<g id="node13" class="node"><title>1436182882816</title>
<ellipse fill="none" stroke="black" cx="231.811" cy="-234" rx="107.914" ry="18"/>
<text text-anchor="middle" x="231.811" y="-230.5" font-family="Times New Roman,serif" font-size="15.00">Insert Fine Notification</text>
</g>
<!-- 1436182881760&#45;&#45;1436182882816 -->
<g id="edge8" class="edge"><title>1436182881760&#45;&#45;1436182882816</title>
<path fill="none" stroke="black" d="M301.229,-291.503C287.367,-280.22 267.525,-264.07 252.602,-251.923"/>
</g>
<!-- 1436182882912 -->
<g id="node14" class="node"><title>1436182882912</title>
<ellipse fill="none" stroke="black" cx="403.811" cy="-234" rx="46.6143" ry="18"/>
<text text-anchor="middle" x="403.811" y="-230.5" font-family="Times New Roman,serif" font-size="15.00">xor loop</text>
</g>
<!-- 1436182881760&#45;&#45;1436182882912 -->
<g id="edge11" class="edge"><title>1436182881760&#45;&#45;1436182882912</title>
<path fill="none" stroke="black" d="M334.393,-291.503C348.743,-279.823 369.502,-262.926 384.578,-250.655"/>
</g>
<!-- 1436182883152 -->
<g id="node15" class="node"><title>1436182883152</title>
<ellipse fill="black" stroke="black" cx="361.811" cy="-162" rx="2.7" ry="2.7"/>
</g>
<!-- 1436182882912&#45;&#45;1436182883152 -->
<g id="edge9" class="edge"><title>1436182882912&#45;&#45;1436182883152</title>
<path fill="none" stroke="black" d="M393.858,-216.411C383.184,-198.622 367.189,-171.962 362.901,-164.816"/>
</g>
<!-- 1436182883248 -->
<g id="node16" class="node"><title>1436182883248</title>
<ellipse fill="none" stroke="black" cx="444.811" cy="-162" rx="61.6894" ry="18"/>
<text text-anchor="middle" x="444.811" y="-158.5" font-family="Times New Roman,serif" font-size="15.00">Add penalty</text>
</g>
<!-- 1436182882912&#45;&#45;1436182883248 -->
<g id="edge10" class="edge"><title>1436182882912&#45;&#45;1436182883248</title>
<path fill="none" stroke="black" d="M413.736,-216.055C420.182,-205.049 428.55,-190.764 434.977,-179.789"/>
</g>
<!-- 1436185733536 -->
<g id="node18" class="node"><title>1436185733536</title>
<ellipse fill="none" stroke="black" cx="571.811" cy="-450" rx="27" ry="18"/>
<text text-anchor="middle" x="571.811" y="-446.5" font-family="Times New Roman,serif" font-size="15.00">xor</text>
</g>
<!-- 1436185733872&#45;&#45;1436185733536 -->
<g id="edge32" class="edge"><title>1436185733872&#45;&#45;1436185733536</title>
<path fill="none" stroke="black" d="M571.811,-503.697C571.811,-492.846 571.811,-478.917 571.811,-468.104"/>
</g>
<!-- 1436185733632 -->
<g id="node35" class="node"><title>1436185733632</title>
<ellipse fill="none" stroke="black" cx="1397.81" cy="-450" rx="27" ry="18"/>
<text text-anchor="middle" x="1397.81" y="-446.5" font-family="Times New Roman,serif" font-size="15.00">seq</text>
</g>
<!-- 1436185733872&#45;&#45;1436185733632 -->
<g id="edge64" class="edge"><title>1436185733872&#45;&#45;1436185733632</title>
<path fill="none" stroke="black" d="M598.824,-518.711C723.941,-508.108 1246.32,-463.838 1371,-453.272"/>
</g>
<!-- 1436185731328 -->
<g id="node19" class="node"><title>1436185731328</title>
<ellipse fill="black" stroke="black" cx="547.811" cy="-378" rx="2.7" ry="2.7"/>
</g>
<!-- 1436185733536&#45;&#45;1436185731328 -->
<g id="edge16" class="edge"><title>1436185733536&#45;&#45;1436185731328</title>
<path fill="none" stroke="black" d="M566.001,-432.055C559.897,-414.252 550.851,-387.865 548.427,-380.796"/>
</g>
<!-- 1436182696480 -->
<g id="node20" class="node"><title>1436182696480</title>
<ellipse fill="none" stroke="black" cx="595.811" cy="-378" rx="27" ry="18"/>
<text text-anchor="middle" x="595.811" y="-374.5" font-family="Times New Roman,serif" font-size="15.00">and</text>
</g>
<!-- 1436185733536&#45;&#45;1436182696480 -->
<g id="edge31" class="edge"><title>1436185733536&#45;&#45;1436182696480</title>
<path fill="none" stroke="black" d="M577.621,-432.055C581.394,-421.049 586.292,-406.764 590.055,-395.789"/>
</g>
<!-- 1436182699264 -->
<g id="node21" class="node"><title>1436182699264</title>
<ellipse fill="none" stroke="black" cx="537.811" cy="-306" rx="46.6143" ry="18"/>
<text text-anchor="middle" x="537.811" y="-302.5" font-family="Times New Roman,serif" font-size="15.00">xor loop</text>
</g>
<!-- 1436182696480&#45;&#45;1436182699264 -->
<g id="edge19" class="edge"><title>1436182696480&#45;&#45;1436182699264</title>
<path fill="none" stroke="black" d="M583.226,-361.811C573.897,-350.552 561.189,-335.215 551.588,-323.628"/>
</g>
<!-- 1436182699696 -->
<g id="node24" class="node"><title>1436182699696</title>
<ellipse fill="none" stroke="black" cx="654.811" cy="-306" rx="27" ry="18"/>
<text text-anchor="middle" x="654.811" y="-302.5" font-family="Times New Roman,serif" font-size="15.00">xor</text>
</g>
<!-- 1436182696480&#45;&#45;1436182699696 -->
<g id="edge30" class="edge"><title>1436182696480&#45;&#45;1436182699696</title>
<path fill="none" stroke="black" d="M608.613,-361.811C618.509,-350.07 632.144,-333.893 642.034,-322.159"/>
</g>
<!-- 1436182699648 -->
<g id="node22" class="node"><title>1436182699648</title>
<ellipse fill="black" stroke="black" cx="470.811" cy="-234" rx="2.7" ry="2.7"/>
</g>
<!-- 1436182699264&#45;&#45;1436182699648 -->
<g id="edge17" class="edge"><title>1436182699264&#45;&#45;1436182699648</title>
<path fill="none" stroke="black" d="M522.272,-288.765C504.953,-270.671 478.542,-243.078 472.21,-236.462"/>
</g>
<!-- 1436182699984 -->
<g id="node23" class="node"><title>1436182699984</title>
<ellipse fill="none" stroke="black" cx="537.811" cy="-234" rx="45.7249" ry="18"/>
<text text-anchor="middle" x="537.811" y="-230.5" font-family="Times New Roman,serif" font-size="15.00">Payment</text>
</g>
<!-- 1436182699264&#45;&#45;1436182699984 -->
<g id="edge18" class="edge"><title>1436182699264&#45;&#45;1436182699984</title>
<path fill="none" stroke="black" d="M537.811,-287.697C537.811,-276.846 537.811,-262.917 537.811,-252.104"/>
</g>
<!-- 1436182697536 -->
<g id="node25" class="node"><title>1436182697536</title>
<ellipse fill="black" stroke="black" cx="604.811" cy="-234" rx="2.7" ry="2.7"/>
</g>
<!-- 1436182699696&#45;&#45;1436182697536 -->
<g id="edge20" class="edge"><title>1436182699696&#45;&#45;1436182697536</title>
<path fill="none" stroke="black" d="M643.714,-289.465C630.825,-271.42 610.707,-243.254 605.879,-236.494"/>
</g>
<!-- 1436182699552 -->
<g id="node26" class="node"><title>1436182699552</title>
<ellipse fill="none" stroke="black" cx="678.811" cy="-234" rx="52.6228" ry="18"/>
<text text-anchor="middle" x="678.811" y="-230.5" font-family="Times New Roman,serif" font-size="15.00">Send Fine</text>
</g>
<!-- 1436182699696&#45;&#45;1436182699552 -->
<g id="edge21" class="edge"><title>1436182699696&#45;&#45;1436182699552</title>
<path fill="none" stroke="black" d="M660.621,-288.055C664.339,-277.211 669.148,-263.183 672.888,-252.275"/>
</g>
<!-- 1436182699024 -->
<g id="node27" class="node"><title>1436182699024</title>
<ellipse fill="none" stroke="black" cx="776.811" cy="-234" rx="27" ry="18"/>
<text text-anchor="middle" x="776.811" y="-230.5" font-family="Times New Roman,serif" font-size="15.00">seq</text>
</g>
<!-- 1436182699696&#45;&#45;1436182699024 -->
<g id="edge29" class="edge"><title>1436182699696&#45;&#45;1436182699024</title>
<path fill="none" stroke="black" d="M674.684,-293.597C697.371,-280.581 734.264,-259.413 756.947,-246.398"/>
</g>
<!-- 1436182698496 -->
<g id="node28" class="node"><title>1436182698496</title>
<ellipse fill="none" stroke="black" cx="678.811" cy="-162" rx="52.6228" ry="18"/>
<text text-anchor="middle" x="678.811" y="-158.5" font-family="Times New Roman,serif" font-size="15.00">Send Fine</text>
</g>
<!-- 1436182699024&#45;&#45;1436182698496 -->
<g id="edge22" class="edge"><title>1436182699024&#45;&#45;1436182698496</title>
<path fill="none" stroke="black" d="M758.836,-220.161C742.37,-208.399 717.962,-190.965 700.435,-178.446"/>
</g>
<!-- 1436182697392 -->
<g id="node29" class="node"><title>1436182697392</title>
<ellipse fill="none" stroke="black" cx="776.811" cy="-162" rx="27" ry="18"/>
<text text-anchor="middle" x="776.811" y="-158.5" font-family="Times New Roman,serif" font-size="15.00">seq</text>
</g>
<!-- 1436182699024&#45;&#45;1436182697392 -->
<g id="edge28" class="edge"><title>1436182699024&#45;&#45;1436182697392</title>
<path fill="none" stroke="black" d="M776.811,-215.697C776.811,-204.846 776.811,-190.917 776.811,-180.104"/>
</g>
<!-- 1436182699168 -->
<g id="node30" class="node"><title>1436182699168</title>
<ellipse fill="none" stroke="black" cx="569.811" cy="-90" rx="107.914" ry="18"/>
<text text-anchor="middle" x="569.811" y="-86.5" font-family="Times New Roman,serif" font-size="15.00">Insert Fine Notification</text>
</g>
<!-- 1436182697392&#45;&#45;1436182699168 -->
<g id="edge23" class="edge"><title>1436182697392&#45;&#45;1436182699168</title>
<path fill="none" stroke="black" d="M753.066,-152.97C719.614,-141.658 657.959,-120.809 615.466,-106.439"/>
</g>
<!-- 1436182698928 -->
<g id="node31" class="node"><title>1436182698928</title>
<ellipse fill="none" stroke="black" cx="722.811" cy="-90" rx="27" ry="18"/>
<text text-anchor="middle" x="722.811" y="-86.5" font-family="Times New Roman,serif" font-size="15.00">xor</text>
</g>
<!-- 1436182697392&#45;&#45;1436182698928 -->
<g id="edge26" class="edge"><title>1436182697392&#45;&#45;1436182698928</title>
<path fill="none" stroke="black" d="M764.827,-145.465C755.878,-133.865 743.703,-118.082 734.762,-106.492"/>
</g>
<!-- 1436182696432 -->
<g id="node34" class="node"><title>1436182696432</title>
<ellipse fill="none" stroke="black" cx="829.811" cy="-90" rx="61.6894" ry="18"/>
<text text-anchor="middle" x="829.811" y="-86.5" font-family="Times New Roman,serif" font-size="15.00">Add penalty</text>
</g>
<!-- 1436182697392&#45;&#45;1436182696432 -->
<g id="edge27" class="edge"><title>1436182697392&#45;&#45;1436182696432</title>
<path fill="none" stroke="black" d="M788.573,-145.465C796.991,-134.348 808.316,-119.39 816.969,-107.962"/>
</g>
<!-- 1436182699408 -->
<g id="node32" class="node"><title>1436182699408</title>
<ellipse fill="black" stroke="black" cx="623.811" cy="-18" rx="2.7" ry="2.7"/>
</g>
<!-- 1436182698928&#45;&#45;1436182699408 -->
<g id="edge24" class="edge"><title>1436182698928&#45;&#45;1436182699408</title>
<path fill="none" stroke="black" d="M704.653,-76.1609C679.198,-58.1628 634.96,-26.8831 625.587,-20.2559"/>
</g>
<!-- 1436182698784 -->
<g id="node33" class="node"><title>1436182698784</title>
<ellipse fill="none" stroke="black" cx="722.811" cy="-18" rx="78.5434" ry="18"/>
<text text-anchor="middle" x="722.811" y="-14.5" font-family="Times New Roman,serif" font-size="15.00">Appeal to Judge</text>
</g>
<!-- 1436182698928&#45;&#45;1436182698784 -->
<g id="edge25" class="edge"><title>1436182698928&#45;&#45;1436182698784</title>
<path fill="none" stroke="black" d="M722.811,-71.6966C722.811,-60.8463 722.811,-46.9167 722.811,-36.1043"/>
</g>
<!-- 1436185900752 -->
<g id="node36" class="node"><title>1436185900752</title>
<ellipse fill="none" stroke="black" cx="1345.81" cy="-378" rx="59.5207" ry="18"/>
<text text-anchor="middle" x="1345.81" y="-374.5" font-family="Times New Roman,serif" font-size="15.00">Create Fine</text>
</g>
<!-- 1436185733632&#45;&#45;1436185900752 -->
<g id="edge33" class="edge"><title>1436185733632&#45;&#45;1436185900752</title>
<path fill="none" stroke="black" d="M1386.27,-433.465C1378.01,-422.348 1366.9,-407.39 1358.41,-395.962"/>
</g>
<!-- 1436185900128 -->
<g id="node37" class="node"><title>1436185900128</title>
<ellipse fill="none" stroke="black" cx="1450.81" cy="-378" rx="27" ry="18"/>
<text text-anchor="middle" x="1450.81" y="-374.5" font-family="Times New Roman,serif" font-size="15.00">xor</text>
</g>
<!-- 1436185733632&#45;&#45;1436185900128 -->
<g id="edge60" class="edge"><title>1436185733632&#45;&#45;1436185900128</title>
<path fill="none" stroke="black" d="M1409.57,-433.465C1418.36,-421.865 1430.31,-406.082 1439.08,-394.492"/>
</g>
<!-- 1436185899504 -->
<g id="node64" class="node"><title>1436185899504</title>
<ellipse fill="none" stroke="black" cx="1553.81" cy="-378" rx="27" ry="18"/>
<text text-anchor="middle" x="1553.81" y="-374.5" font-family="Times New Roman,serif" font-size="15.00">xor</text>
</g>
<!-- 1436185733632&#45;&#45;1436185899504 -->
<g id="edge63" class="edge"><title>1436185733632&#45;&#45;1436185899504</title>
<path fill="none" stroke="black" d="M1419.5,-439.267C1449.22,-425.931 1502.3,-402.115 1532.05,-388.763"/>
</g>
<!-- 1436185899360 -->
<g id="node38" class="node"><title>1436185899360</title>
<ellipse fill="black" stroke="black" cx="1419.81" cy="-306" rx="2.7" ry="2.7"/>
</g>
<!-- 1436185900128&#45;&#45;1436185899360 -->
<g id="edge34" class="edge"><title>1436185900128&#45;&#45;1436185899360</title>
<path fill="none" stroke="black" d="M1443.46,-360.411C1435.59,-342.622 1423.78,-315.962 1420.62,-308.816"/>
</g>
<!-- 1436185901136 -->
<g id="node39" class="node"><title>1436185901136</title>
<ellipse fill="none" stroke="black" cx="1486.81" cy="-306" rx="46.6143" ry="18"/>
<text text-anchor="middle" x="1486.81" y="-302.5" font-family="Times New Roman,serif" font-size="15.00">xor loop</text>
</g>
<!-- 1436185900128&#45;&#45;1436185901136 -->
<g id="edge59" class="edge"><title>1436185900128&#45;&#45;1436185901136</title>
<path fill="none" stroke="black" d="M1459.16,-360.765C1464.81,-349.779 1472.26,-335.292 1478,-324.124"/>
</g>
<!-- 1436185899792 -->
<g id="node40" class="node"><title>1436185899792</title>
<ellipse fill="none" stroke="black" cx="1486.81" cy="-234" rx="27" ry="18"/>
<text text-anchor="middle" x="1486.81" y="-230.5" font-family="Times New Roman,serif" font-size="15.00">seq</text>
</g>
<!-- 1436185901136&#45;&#45;1436185899792 -->
<g id="edge57" class="edge"><title>1436185901136&#45;&#45;1436185899792</title>
<path fill="none" stroke="black" d="M1486.81,-287.697C1486.81,-276.846 1486.81,-262.917 1486.81,-252.104"/>
</g>
<!-- 1436185900560 -->
<g id="node63" class="node"><title>1436185900560</title>
<ellipse fill="black" stroke="black" cx="1534.81" cy="-234" rx="2.7" ry="2.7"/>
</g>
<!-- 1436185901136&#45;&#45;1436185900560 -->
<g id="edge58" class="edge"><title>1436185901136&#45;&#45;1436185900560</title>
<path fill="none" stroke="black" d="M1498.19,-288.411C1510.38,-270.622 1528.67,-243.962 1533.57,-236.816"/>
</g>
<!-- 1436185900656 -->
<g id="node41" class="node"><title>1436185900656</title>
<ellipse fill="none" stroke="black" cx="1196.81" cy="-162" rx="27" ry="18"/>
<text text-anchor="middle" x="1196.81" y="-158.5" font-family="Times New Roman,serif" font-size="15.00">seq</text>
</g>
<!-- 1436185899792&#45;&#45;1436185900656 -->
<g id="edge39" class="edge"><title>1436185899792&#45;&#45;1436185900656</title>
<path fill="none" stroke="black" d="M1461.83,-226.971C1407.02,-213.739 1276.69,-182.281 1221.83,-169.039"/>
</g>
<!-- 1436185900704 -->
<g id="node46" class="node"><title>1436185900704</title>
<ellipse fill="none" stroke="black" cx="1356.81" cy="-162" rx="27" ry="18"/>
<text text-anchor="middle" x="1356.81" y="-158.5" font-family="Times New Roman,serif" font-size="15.00">xor</text>
</g>
<!-- 1436185899792&#45;&#45;1436185900704 -->
<g id="edge44" class="edge"><title>1436185899792&#45;&#45;1436185900704</title>
<path fill="none" stroke="black" d="M1466.5,-222.063C1442.22,-208.989 1401.82,-187.233 1377.41,-174.092"/>
</g>
<!-- 1436185900848 -->
<g id="node51" class="node"><title>1436185900848</title>
<ellipse fill="none" stroke="black" cx="1486.81" cy="-162" rx="27" ry="18"/>
<text text-anchor="middle" x="1486.81" y="-158.5" font-family="Times New Roman,serif" font-size="15.00">xor</text>
</g>
<!-- 1436185899792&#45;&#45;1436185900848 -->
<g id="edge47" class="edge"><title>1436185899792&#45;&#45;1436185900848</title>
<path fill="none" stroke="black" d="M1486.81,-215.697C1486.81,-204.846 1486.81,-190.917 1486.81,-180.104"/>
</g>
<!-- 1436185900800 -->
<g id="node54" class="node"><title>1436185900800</title>
<ellipse fill="none" stroke="black" cx="1686.81" cy="-162" rx="27" ry="18"/>
<text text-anchor="middle" x="1686.81" y="-158.5" font-family="Times New Roman,serif" font-size="15.00">xor</text>
</g>
<!-- 1436185899792&#45;&#45;1436185900800 -->
<g id="edge50" class="edge"><title>1436185899792&#45;&#45;1436185900800</title>
<path fill="none" stroke="black" d="M1510.15,-224.833C1548.58,-211.381 1624.78,-184.712 1663.32,-171.223"/>
</g>
<!-- 1436185901280 -->
<g id="node57" class="node"><title>1436185901280</title>
<ellipse fill="none" stroke="black" cx="2074.81" cy="-162" rx="27" ry="18"/>
<text text-anchor="middle" x="2074.81" y="-158.5" font-family="Times New Roman,serif" font-size="15.00">xor</text>
</g>
<!-- 1436185899792&#45;&#45;1436185901280 -->
<g id="edge53" class="edge"><title>1436185899792&#45;&#45;1436185901280</title>
<path fill="none" stroke="black" d="M1513.22,-229.856C1610.87,-218.231 1950.94,-177.746 2048.48,-166.135"/>
</g>
<!-- 1436185899072 -->
<g id="node60" class="node"><title>1436185899072</title>
<ellipse fill="none" stroke="black" cx="2412.81" cy="-162" rx="27" ry="18"/>
<text text-anchor="middle" x="2412.81" y="-158.5" font-family="Times New Roman,serif" font-size="15.00">xor</text>
</g>
<!-- 1436185899792&#45;&#45;1436185899072 -->
<g id="edge56" class="edge"><title>1436185899792&#45;&#45;1436185899072</title>
<path fill="none" stroke="black" d="M1513.53,-230.981C1648.15,-220.803 2251.11,-175.224 2385.99,-165.028"/>
</g>
<!-- 1436185899120 -->
<g id="node42" class="node"><title>1436185899120</title>
<ellipse fill="none" stroke="black" cx="1098.81" cy="-90" rx="52.6228" ry="18"/>
<text text-anchor="middle" x="1098.81" y="-86.5" font-family="Times New Roman,serif" font-size="15.00">Send Fine</text>
</g>
<!-- 1436185900656&#45;&#45;1436185899120 -->
<g id="edge35" class="edge"><title>1436185900656&#45;&#45;1436185899120</title>
<path fill="none" stroke="black" d="M1178.84,-148.161C1162.37,-136.399 1137.96,-118.965 1120.44,-106.446"/>
</g>
<!-- 1436185900944 -->
<g id="node43" class="node"><title>1436185900944</title>
<ellipse fill="none" stroke="black" cx="1196.81" cy="-90" rx="27" ry="18"/>
<text text-anchor="middle" x="1196.81" y="-86.5" font-family="Times New Roman,serif" font-size="15.00">xor</text>
</g>
<!-- 1436185900656&#45;&#45;1436185900944 -->
<g id="edge38" class="edge"><title>1436185900656&#45;&#45;1436185900944</title>
<path fill="none" stroke="black" d="M1196.81,-143.697C1196.81,-132.846 1196.81,-118.917 1196.81,-108.104"/>
</g>
<!-- 1436185899600 -->
<g id="node44" class="node"><title>1436185899600</title>
<ellipse fill="none" stroke="black" cx="926.811" cy="-18" rx="107.914" ry="18"/>
<text text-anchor="middle" x="926.811" y="-14.5" font-family="Times New Roman,serif" font-size="15.00">Insert Fine Notification</text>
</g>
<!-- 1436185900944&#45;&#45;1436185899600 -->
<g id="edge36" class="edge"><title>1436185900944&#45;&#45;1436185899600</title>
<path fill="none" stroke="black" d="M1171.89,-82.54C1129.07,-71.4386 1040.54,-48.484 982.428,-33.4192"/>
</g>
<!-- 1436185899840 -->
<g id="node45" class="node"><title>1436185899840</title>
<ellipse fill="none" stroke="black" cx="1196.81" cy="-18" rx="144.571" ry="18"/>
<text text-anchor="middle" x="1196.81" y="-14.5" font-family="Times New Roman,serif" font-size="15.00">Insert Date Appeal to Prefecture</text>
</g>
<!-- 1436185900944&#45;&#45;1436185899840 -->
<g id="edge37" class="edge"><title>1436185900944&#45;&#45;1436185899840</title>
<path fill="none" stroke="black" d="M1196.81,-71.6966C1196.81,-60.8463 1196.81,-46.9167 1196.81,-36.1043"/>
</g>
<!-- 1436185899312 -->
<g id="node47" class="node"><title>1436185899312</title>
<ellipse fill="black" stroke="black" cx="1308.81" cy="-90" rx="2.7" ry="2.7"/>
</g>
<!-- 1436185900704&#45;&#45;1436185899312 -->
<g id="edge40" class="edge"><title>1436185900704&#45;&#45;1436185899312</title>
<path fill="none" stroke="black" d="M1345.92,-145.116C1333.75,-127.367 1315.09,-100.158 1310.08,-92.8565"/>
</g>
<!-- 1436185899552 -->
<g id="node48" class="node"><title>1436185899552</title>
<ellipse fill="none" stroke="black" cx="1356.81" cy="-90" rx="27" ry="18"/>
<text text-anchor="middle" x="1356.81" y="-86.5" font-family="Times New Roman,serif" font-size="15.00">and</text>
</g>
<!-- 1436185900704&#45;&#45;1436185899552 -->
<g id="edge43" class="edge"><title>1436185900704&#45;&#45;1436185899552</title>
<path fill="none" stroke="black" d="M1356.81,-143.697C1356.81,-132.846 1356.81,-118.917 1356.81,-108.104"/>
</g>
<!-- 1436185900512 -->
<g id="node49" class="node"><title>1436185900512</title>
<ellipse fill="none" stroke="black" cx="1420.81" cy="-18" rx="61.6894" ry="18"/>
<text text-anchor="middle" x="1420.81" y="-14.5" font-family="Times New Roman,serif" font-size="15.00">Add penalty</text>
</g>
<!-- 1436185899552&#45;&#45;1436185900512 -->
<g id="edge41" class="edge"><title>1436185899552&#45;&#45;1436185900512</title>
<path fill="none" stroke="black" d="M1370.38,-74.1548C1380.66,-62.9177 1394.78,-47.4759 1405.46,-35.789"/>
</g>
<!-- 1436185900608 -->
<g id="node50" class="node"><title>1436185900608</title>
<ellipse fill="none" stroke="black" cx="1644.81" cy="-18" rx="144.571" ry="18"/>
<text text-anchor="middle" x="1644.81" y="-14.5" font-family="Times New Roman,serif" font-size="15.00">Insert Date Appeal to Prefecture</text>
</g>
<!-- 1436185899552&#45;&#45;1436185900608 -->
<g id="edge42" class="edge"><title>1436185899552&#45;&#45;1436185900608</title>
<path fill="none" stroke="black" d="M1381.87,-82.9104C1426.14,-72.1499 1519.44,-49.473 1582.13,-34.234"/>
</g>
<!-- 1436185899936 -->
<g id="node52" class="node"><title>1436185899936</title>
<ellipse fill="black" stroke="black" cx="1404.81" cy="-90" rx="2.7" ry="2.7"/>
</g>
<!-- 1436185900848&#45;&#45;1436185899936 -->
<g id="edge45" class="edge"><title>1436185900848&#45;&#45;1436185899936</title>
<path fill="none" stroke="black" d="M1470.61,-147.17C1449.7,-129.32 1415.01,-99.7024 1406.66,-92.5768"/>
</g>
<!-- 1436185900176 -->
<g id="node53" class="node"><title>1436185900176</title>
<ellipse fill="none" stroke="black" cx="1545.81" cy="-90" rx="120.43" ry="18"/>
<text text-anchor="middle" x="1545.81" y="-86.5" font-family="Times New Roman,serif" font-size="15.00">Send Appeal to Prefecture</text>
</g>
<!-- 1436185900848&#45;&#45;1436185900176 -->
<g id="edge46" class="edge"><title>1436185900848&#45;&#45;1436185900176</title>
<path fill="none" stroke="black" d="M1499.61,-145.811C1508.97,-134.713 1521.66,-119.653 1531.38,-108.127"/>
</g>
<!-- 1436185901040 -->
<g id="node55" class="node"><title>1436185901040</title>
<ellipse fill="black" stroke="black" cx="1686.81" cy="-90" rx="2.7" ry="2.7"/>
</g>
<!-- 1436185900800&#45;&#45;1436185901040 -->
<g id="edge48" class="edge"><title>1436185900800&#45;&#45;1436185901040</title>
<path fill="none" stroke="black" d="M1686.81,-143.697C1686.81,-125.883 1686.81,-99.7686 1686.81,-92.7764"/>
</g>
<!-- 1436185899264 -->
<g id="node56" class="node"><title>1436185899264</title>
<ellipse fill="none" stroke="black" cx="1880.81" cy="-90" rx="173.941" ry="18"/>
<text text-anchor="middle" x="1880.81" y="-86.5" font-family="Times New Roman,serif" font-size="15.00">Receive Result Appeal from Prefecture</text>
</g>
<!-- 1436185900800&#45;&#45;1436185899264 -->
<g id="edge49" class="edge"><title>1436185900800&#45;&#45;1436185899264</title>
<path fill="none" stroke="black" d="M1710.21,-152.556C1741.05,-141.429 1795.96,-121.615 1835.16,-107.472"/>
</g>
<!-- 1436185899648 -->
<g id="node58" class="node"><title>1436185899648</title>
<ellipse fill="black" stroke="black" cx="2074.81" cy="-90" rx="2.7" ry="2.7"/>
</g>
<!-- 1436185901280&#45;&#45;1436185899648 -->
<g id="edge51" class="edge"><title>1436185901280&#45;&#45;1436185899648</title>
<path fill="none" stroke="black" d="M2074.81,-143.697C2074.81,-125.883 2074.81,-99.7686 2074.81,-92.7764"/>
</g>
<!-- 1436184388272 -->
<g id="node59" class="node"><title>1436184388272</title>
<ellipse fill="none" stroke="black" cx="2243.81" cy="-90" rx="148.91" ry="18"/>
<text text-anchor="middle" x="2243.81" y="-86.5" font-family="Times New Roman,serif" font-size="15.00">Notify Result Appeal to Offender</text>
</g>
<!-- 1436185901280&#45;&#45;1436184388272 -->
<g id="edge52" class="edge"><title>1436185901280&#45;&#45;1436184388272</title>
<path fill="none" stroke="black" d="M2097.25,-151.705C2124.46,-140.436 2170.79,-121.245 2204.09,-107.454"/>
</g>
<!-- 1436182698544 -->
<g id="node61" class="node"><title>1436182698544</title>
<ellipse fill="black" stroke="black" cx="2412.81" cy="-90" rx="2.7" ry="2.7"/>
</g>
<!-- 1436185899072&#45;&#45;1436182698544 -->
<g id="edge54" class="edge"><title>1436185899072&#45;&#45;1436182698544</title>
<path fill="none" stroke="black" d="M2412.81,-143.697C2412.81,-125.883 2412.81,-99.7686 2412.81,-92.7764"/>
</g>
<!-- 1436182699744 -->
<g id="node62" class="node"><title>1436182699744</title>
<ellipse fill="none" stroke="black" cx="2479.81" cy="-90" rx="45.7249" ry="18"/>
<text text-anchor="middle" x="2479.81" y="-86.5" font-family="Times New Roman,serif" font-size="15.00">Payment</text>
</g>
<!-- 1436185899072&#45;&#45;1436182699744 -->
<g id="edge55" class="edge"><title>1436185899072&#45;&#45;1436182699744</title>
<path fill="none" stroke="black" d="M2426.69,-146.496C2437.66,-135.043 2452.95,-119.069 2464.31,-107.198"/>
</g>
<!-- 1436185901184 -->
<g id="node65" class="node"><title>1436185901184</title>
<ellipse fill="black" stroke="black" cx="1553.81" cy="-306" rx="2.7" ry="2.7"/>
</g>
<!-- 1436185899504&#45;&#45;1436185901184 -->
<g id="edge61" class="edge"><title>1436185899504&#45;&#45;1436185901184</title>
<path fill="none" stroke="black" d="M1553.81,-359.697C1553.81,-341.883 1553.81,-315.769 1553.81,-308.776"/>
</g>
<!-- 1436185901472 -->
<g id="node66" class="node"><title>1436185901472</title>
<ellipse fill="none" stroke="black" cx="1695.81" cy="-306" rx="120.819" ry="18"/>
<text text-anchor="middle" x="1695.81" y="-302.5" font-family="Times New Roman,serif" font-size="15.00">Send for Credit Collection</text>
</g>
<!-- 1436185899504&#45;&#45;1436185901472 -->
<g id="edge62" class="edge"><title>1436185899504&#45;&#45;1436185901472</title>
<path fill="none" stroke="black" d="M1575.07,-366.52C1598.2,-355.116 1635.49,-336.733 1662.52,-323.412"/>
</g>
</g>
</svg>
