<?xml version="1.0" encoding="UTF-8" standalone="no"?>
<!DOCTYPE svg PUBLIC "-//W3C//DTD SVG 1.1//EN"
 "http://www.w3.org/Graphics/SVG/1.1/DTD/svg11.dtd">
<!-- Generated by graphviz version 2.38.0 (20140413.2041)
 -->
<!-- Title: pt Pages: 1 -->
<svg width="1009pt" height="260pt"
 viewBox="0.00 0.00 1009.32 260.00" xmlns="http://www.w3.org/2000/svg" xmlns:xlink="http://www.w3.org/1999/xlink">
<g id="graph0" class="graph" transform="scale(1 1) rotate(0) translate(4 256)">
<title>pt</title>
<!-- 1436013304416 -->
<g id="node1" class="node"><title>1436013304416</title>
<ellipse fill="none" stroke="black" cx="269.76" cy="-234" rx="27" ry="18"/>
<text text-anchor="middle" x="269.76" y="-230.5" font-family="Times New Roman,serif" font-size="15.00">seq</text>
</g>
<!-- 1436013303168 -->
<g id="node2" class="node"><title>1436013303168</title>
<ellipse fill="none" stroke="black" cx="59.7599" cy="-162" rx="59.5207" ry="18"/>
<text text-anchor="middle" x="59.7599" y="-158.5" font-family="Times New Roman,serif" font-size="15.00">Create Fine</text>
</g>
<!-- 1436013304416&#45;&#45;1436013303168 -->
<g id="edge1" class="edge"><title>1436013304416&#45;&#45;1436013303168</title>
<path fill="none" stroke="black" d="M246.078,-225.106C210.144,-213.128 141.469,-190.237 98.2819,-175.841"/>
</g>
<!-- 1436013304944 -->
<g id="node3" class="node"><title>1436013304944</title>
<ellipse fill="none" stroke="black" cx="164.76" cy="-162" rx="27" ry="18"/>
<text text-anchor="middle" x="164.76" y="-158.5" font-family="Times New Roman,serif" font-size="15.00">xor</text>
</g>
<!-- 1436013304416&#45;&#45;1436013304944 -->
<g id="edge4" class="edge"><title>1436013304416&#45;&#45;1436013304944</title>
<path fill="none" stroke="black" d="M250.988,-220.485C231.876,-207.744 202.422,-188.108 183.369,-175.406"/>
</g>
<!-- 1436013302928 -->
<g id="node6" class="node"><title>1436013302928</title>
<ellipse fill="none" stroke="black" cx="269.76" cy="-162" rx="27" ry="18"/>
<text text-anchor="middle" x="269.76" y="-158.5" font-family="Times New Roman,serif" font-size="15.00">xor</text>
</g>
<!-- 1436013304416&#45;&#45;1436013302928 -->
<g id="edge7" class="edge"><title>1436013304416&#45;&#45;1436013302928</title>
<path fill="none" stroke="black" d="M269.76,-215.697C269.76,-204.846 269.76,-190.917 269.76,-180.104"/>
</g>
<!-- 1436013343264 -->
<g id="node9" class="node"><title>1436013343264</title>
<ellipse fill="none" stroke="black" cx="461.76" cy="-162" rx="27" ry="18"/>
<text text-anchor="middle" x="461.76" y="-158.5" font-family="Times New Roman,serif" font-size="15.00">xor</text>
</g>
<!-- 1436013304416&#45;&#45;1436013343264 -->
<g id="edge10" class="edge"><title>1436013304416&#45;&#45;1436013343264</title>
<path fill="none" stroke="black" d="M292.92,-224.556C329.823,-211.102 401.563,-184.947 438.518,-171.474"/>
</g>
<!-- 1436013346144 -->
<g id="node12" class="node"><title>1436013346144</title>
<ellipse fill="none" stroke="black" cx="698.76" cy="-162" rx="27" ry="18"/>
<text text-anchor="middle" x="698.76" y="-158.5" font-family="Times New Roman,serif" font-size="15.00">xor</text>
</g>
<!-- 1436013304416&#45;&#45;1436013346144 -->
<g id="edge16" class="edge"><title>1436013304416&#45;&#45;1436013346144</title>
<path fill="none" stroke="black" d="M295.63,-228.779C372.076,-216.305 596.366,-179.708 672.856,-167.227"/>
</g>
<!-- 1436013344608 -->
<g id="node4" class="node"><title>1436013344608</title>
<ellipse fill="black" stroke="black" cx="57.7599" cy="-90" rx="2.7" ry="2.7"/>
</g>
<!-- 1436013304944&#45;&#45;1436013344608 -->
<g id="edge2" class="edge"><title>1436013304944&#45;&#45;1436013344608</title>
<path fill="none" stroke="black" d="M146.122,-148.807C118.579,-130.788 69.2024,-98.4857 59.4568,-92.1101"/>
</g>
<!-- 1436013343504 -->
<g id="node5" class="node"><title>1436013343504</title>
<ellipse fill="none" stroke="black" cx="131.76" cy="-90" rx="52.6228" ry="18"/>
<text text-anchor="middle" x="131.76" y="-86.5" font-family="Times New Roman,serif" font-size="15.00">Send Fine</text>
</g>
<!-- 1436013304944&#45;&#45;1436013343504 -->
<g id="edge3" class="edge"><title>1436013304944&#45;&#45;1436013343504</title>
<path fill="none" stroke="black" d="M156.939,-144.411C151.755,-133.414 144.973,-119.027 139.754,-107.956"/>
</g>
<!-- 1436013346336 -->
<g id="node7" class="node"><title>1436013346336</title>
<ellipse fill="black" stroke="black" cx="205.76" cy="-90" rx="2.7" ry="2.7"/>
</g>
<!-- 1436013302928&#45;&#45;1436013346336 -->
<g id="edge5" class="edge"><title>1436013302928&#45;&#45;1436013346336</title>
<path fill="none" stroke="black" d="M256.187,-146.155C239.749,-128.175 213.469,-99.4321 207.156,-92.5271"/>
</g>
<!-- 1436013342784 -->
<g id="node8" class="node"><title>1436013342784</title>
<ellipse fill="none" stroke="black" cx="333.76" cy="-90" rx="107.914" ry="18"/>
<text text-anchor="middle" x="333.76" y="-86.5" font-family="Times New Roman,serif" font-size="15.00">Insert Fine Notification</text>
</g>
<!-- 1436013302928&#45;&#45;1436013342784 -->
<g id="edge6" class="edge"><title>1436013302928&#45;&#45;1436013342784</title>
<path fill="none" stroke="black" d="M283.333,-146.155C293.533,-134.998 307.523,-119.696 318.18,-108.04"/>
</g>
<!-- 1436013343936 -->
<g id="node10" class="node"><title>1436013343936</title>
<ellipse fill="black" stroke="black" cx="461.76" cy="-90" rx="2.7" ry="2.7"/>
</g>
<!-- 1436013343264&#45;&#45;1436013343936 -->
<g id="edge8" class="edge"><title>1436013343264&#45;&#45;1436013343936</title>
<path fill="none" stroke="black" d="M461.76,-143.697C461.76,-125.883 461.76,-99.7686 461.76,-92.7764"/>
</g>
<!-- 1436013344320 -->
<g id="node11" class="node"><title>1436013344320</title>
<ellipse fill="none" stroke="black" cx="544.76" cy="-90" rx="61.6894" ry="18"/>
<text text-anchor="middle" x="544.76" y="-86.5" font-family="Times New Roman,serif" font-size="15.00">Add penalty</text>
</g>
<!-- 1436013343264&#45;&#45;1436013344320 -->
<g id="edge9" class="edge"><title>1436013343264&#45;&#45;1436013344320</title>
<path fill="none" stroke="black" d="M478.158,-147.17C491.764,-135.695 511.137,-119.357 525.483,-107.257"/>
</g>
<!-- 1436013346384 -->
<g id="node13" class="node"><title>1436013346384</title>
<ellipse fill="black" stroke="black" cx="627.76" cy="-90" rx="2.7" ry="2.7"/>
</g>
<!-- 1436013346144&#45;&#45;1436013346384 -->
<g id="edge11" class="edge"><title>1436013346144&#45;&#45;1436013346384</title>
<path fill="none" stroke="black" d="M684.049,-146.496C665.852,-128.555 636.403,-99.5217 629.326,-92.5436"/>
</g>
<!-- 1436013346768 -->
<g id="node14" class="node"><title>1436013346768</title>
<ellipse fill="none" stroke="black" cx="769.76" cy="-90" rx="120.819" ry="18"/>
<text text-anchor="middle" x="769.76" y="-86.5" font-family="Times New Roman,serif" font-size="15.00">Send for Credit Collection</text>
</g>
<!-- 1436013346144&#45;&#45;1436013346768 -->
<g id="edge12" class="edge"><title>1436013346144&#45;&#45;1436013346768</title>
<path fill="none" stroke="black" d="M713.471,-146.496C724.844,-135.283 740.612,-119.737 752.567,-107.951"/>
</g>
<!-- 1436013343168 -->
<g id="node15" class="node"><title>1436013343168</title>
<ellipse fill="none" stroke="black" cx="954.76" cy="-90" rx="46.6143" ry="18"/>
<text text-anchor="middle" x="954.76" y="-86.5" font-family="Times New Roman,serif" font-size="15.00">xor loop</text>
</g>
<!-- 1436013346144&#45;&#45;1436013343168 -->
<g id="edge15" class="edge"><title>1436013346144&#45;&#45;1436013343168</title>
<path fill="none" stroke="black" d="M723.306,-154.288C768.359,-141.969 864.483,-115.685 917.587,-101.165"/>
</g>
<!-- 1436013343552 -->
<g id="node16" class="node"><title>1436013343552</title>
<ellipse fill="none" stroke="black" cx="920.76" cy="-18" rx="45.7249" ry="18"/>
<text text-anchor="middle" x="920.76" y="-14.5" font-family="Times New Roman,serif" font-size="15.00">Payment</text>
</g>
<!-- 1436013343168&#45;&#45;1436013343552 -->
<g id="edge13" class="edge"><title>1436013343168&#45;&#45;1436013343552</title>
<path fill="none" stroke="black" d="M946.529,-72.055C941.184,-61.0492 934.245,-46.7636 928.915,-35.789"/>
</g>
<!-- 1436013343696 -->
<g id="node17" class="node"><title>1436013343696</title>
<ellipse fill="black" stroke="black" cx="987.76" cy="-18" rx="2.7" ry="2.7"/>
</g>
<!-- 1436013343168&#45;&#45;1436013343696 -->
<g id="edge14" class="edge"><title>1436013343168&#45;&#45;1436013343696</title>
<path fill="none" stroke="black" d="M962.748,-72.055C971.141,-54.2515 983.581,-27.8653 986.913,-20.7963"/>
</g>
</g>
</svg>
