<?xml version="1.0" encoding="UTF-8" standalone="no"?>
<!DOCTYPE svg PUBLIC "-//W3C//DTD SVG 1.1//EN"
 "http://www.w3.org/Graphics/SVG/1.1/DTD/svg11.dtd">
<!-- Generated by graphviz version 2.38.0 (20140413.2041)
 -->
<!-- Title: pt Pages: 1 -->
<svg width="2964pt" height="836pt"
 viewBox="0.00 0.00 2963.67 836.00" xmlns="http://www.w3.org/2000/svg" xmlns:xlink="http://www.w3.org/1999/xlink">
<g id="graph0" class="graph" transform="scale(1 1) rotate(0) translate(4 832)">
<title>pt</title>
<!-- 1436179412592 -->
<g id="node1" class="node"><title>1436179412592</title>
<ellipse fill="none" stroke="black" cx="358.811" cy="-810" rx="27" ry="18"/>
<text text-anchor="middle" x="358.811" y="-806.5" font-family="Times New Roman,serif" font-size="15.00">and</text>
</g>
<!-- 1436179412112 -->
<g id="node2" class="node"><title>1436179412112</title>
<ellipse fill="none" stroke="black" cx="219.811" cy="-738" rx="27" ry="18"/>
<text text-anchor="middle" x="219.811" y="-734.5" font-family="Times New Roman,serif" font-size="15.00">xor</text>
</g>
<!-- 1436179412592&#45;&#45;1436179412112 -->
<g id="edge15" class="edge"><title>1436179412592&#45;&#45;1436179412112</title>
<path fill="none" stroke="black" d="M338.001,-798.52C311.797,-785.324 267.034,-762.781 240.763,-749.551"/>
</g>
<!-- 1436179413888 -->
<g id="node17" class="node"><title>1436179413888</title>
<ellipse fill="none" stroke="black" cx="560.811" cy="-738" rx="27" ry="18"/>
<text text-anchor="middle" x="560.811" y="-734.5" font-family="Times New Roman,serif" font-size="15.00">and</text>
</g>
<!-- 1436179412592&#45;&#45;1436179413888 -->
<g id="edge92" class="edge"><title>1436179412592&#45;&#45;1436179413888</title>
<path fill="none" stroke="black" d="M382.378,-800.833C421.302,-787.345 498.569,-760.569 537.394,-747.115"/>
</g>
<!-- 1436179413936 -->
<g id="node3" class="node"><title>1436179413936</title>
<ellipse fill="black" stroke="black" cx="171.811" cy="-666" rx="2.7" ry="2.7"/>
</g>
<!-- 1436179412112&#45;&#45;1436179413936 -->
<g id="edge1" class="edge"><title>1436179412112&#45;&#45;1436179413936</title>
<path fill="none" stroke="black" d="M208.919,-721.116C196.749,-703.367 178.091,-676.158 173.084,-668.857"/>
</g>
<!-- 1436013830496 -->
<g id="node4" class="node"><title>1436013830496</title>
<ellipse fill="none" stroke="black" cx="219.811" cy="-666" rx="27" ry="18"/>
<text text-anchor="middle" x="219.811" y="-662.5" font-family="Times New Roman,serif" font-size="15.00">and</text>
</g>
<!-- 1436179412112&#45;&#45;1436013830496 -->
<g id="edge14" class="edge"><title>1436179412112&#45;&#45;1436013830496</title>
<path fill="none" stroke="black" d="M219.811,-719.697C219.811,-708.846 219.811,-694.917 219.811,-684.104"/>
</g>
<!-- 1436013830688 -->
<g id="node5" class="node"><title>1436013830688</title>
<ellipse fill="none" stroke="black" cx="78.8111" cy="-594" rx="46.6143" ry="18"/>
<text text-anchor="middle" x="78.8111" y="-590.5" font-family="Times New Roman,serif" font-size="15.00">xor loop</text>
</g>
<!-- 1436013830496&#45;&#45;1436013830688 -->
<g id="edge4" class="edge"><title>1436013830496&#45;&#45;1436013830688</title>
<path fill="none" stroke="black" d="M198.702,-654.52C174.118,-642.316 133.432,-622.117 106.374,-608.684"/>
</g>
<!-- 1436013833664 -->
<g id="node8" class="node"><title>1436013833664</title>
<ellipse fill="none" stroke="black" cx="219.811" cy="-594" rx="27" ry="18"/>
<text text-anchor="middle" x="219.811" y="-590.5" font-family="Times New Roman,serif" font-size="15.00">xor</text>
</g>
<!-- 1436013830496&#45;&#45;1436013833664 -->
<g id="edge13" class="edge"><title>1436013830496&#45;&#45;1436013833664</title>
<path fill="none" stroke="black" d="M219.811,-647.697C219.811,-636.846 219.811,-622.917 219.811,-612.104"/>
</g>
<!-- 1436013833808 -->
<g id="node6" class="node"><title>1436013833808</title>
<ellipse fill="black" stroke="black" cx="11.8111" cy="-522" rx="2.7" ry="2.7"/>
</g>
<!-- 1436013830688&#45;&#45;1436013833808 -->
<g id="edge2" class="edge"><title>1436013830688&#45;&#45;1436013833808</title>
<path fill="none" stroke="black" d="M63.2715,-576.765C45.9531,-558.671 19.5425,-531.078 13.2104,-524.462"/>
</g>
<!-- 1436013832224 -->
<g id="node7" class="node"><title>1436013832224</title>
<ellipse fill="none" stroke="black" cx="78.8111" cy="-522" rx="45.7249" ry="18"/>
<text text-anchor="middle" x="78.8111" y="-518.5" font-family="Times New Roman,serif" font-size="15.00">Payment</text>
</g>
<!-- 1436013830688&#45;&#45;1436013832224 -->
<g id="edge3" class="edge"><title>1436013830688&#45;&#45;1436013832224</title>
<path fill="none" stroke="black" d="M78.8111,-575.697C78.8111,-564.846 78.8111,-550.917 78.8111,-540.104"/>
</g>
<!-- 1436013833280 -->
<g id="node9" class="node"><title>1436013833280</title>
<ellipse fill="black" stroke="black" cx="145.811" cy="-522" rx="2.7" ry="2.7"/>
</g>
<!-- 1436013833664&#45;&#45;1436013833280 -->
<g id="edge5" class="edge"><title>1436013833664&#45;&#45;1436013833280</title>
<path fill="none" stroke="black" d="M204.836,-578.834C185.916,-560.937 154.915,-531.612 147.46,-524.56"/>
</g>
<!-- 1436013831840 -->
<g id="node10" class="node"><title>1436013831840</title>
<ellipse fill="none" stroke="black" cx="219.811" cy="-522" rx="52.6228" ry="18"/>
<text text-anchor="middle" x="219.811" y="-518.5" font-family="Times New Roman,serif" font-size="15.00">Send Fine</text>
</g>
<!-- 1436013833664&#45;&#45;1436013831840 -->
<g id="edge6" class="edge"><title>1436013833664&#45;&#45;1436013831840</title>
<path fill="none" stroke="black" d="M219.811,-575.697C219.811,-564.846 219.811,-550.917 219.811,-540.104"/>
</g>
<!-- 1436013832608 -->
<g id="node11" class="node"><title>1436013832608</title>
<ellipse fill="none" stroke="black" cx="317.811" cy="-522" rx="27" ry="18"/>
<text text-anchor="middle" x="317.811" y="-518.5" font-family="Times New Roman,serif" font-size="15.00">seq</text>
</g>
<!-- 1436013833664&#45;&#45;1436013832608 -->
<g id="edge12" class="edge"><title>1436013833664&#45;&#45;1436013832608</title>
<path fill="none" stroke="black" d="M237.786,-580.161C255.468,-567.531 282.307,-548.36 299.95,-535.758"/>
</g>
<!-- 1436015638560 -->
<g id="node12" class="node"><title>1436015638560</title>
<ellipse fill="none" stroke="black" cx="52.8111" cy="-450" rx="52.6228" ry="18"/>
<text text-anchor="middle" x="52.8111" y="-446.5" font-family="Times New Roman,serif" font-size="15.00">Send Fine</text>
</g>
<!-- 1436013832608&#45;&#45;1436015638560 -->
<g id="edge7" class="edge"><title>1436013832608&#45;&#45;1436015638560</title>
<path fill="none" stroke="black" d="M292.88,-514.415C247.012,-502.298 148.866,-476.373 93.3157,-461.699"/>
</g>
<!-- 1436015639040 -->
<g id="node13" class="node"><title>1436015639040</title>
<ellipse fill="none" stroke="black" cx="231.811" cy="-450" rx="107.914" ry="18"/>
<text text-anchor="middle" x="231.811" y="-446.5" font-family="Times New Roman,serif" font-size="15.00">Insert Fine Notification</text>
</g>
<!-- 1436013832608&#45;&#45;1436015639040 -->
<g id="edge8" class="edge"><title>1436013832608&#45;&#45;1436015639040</title>
<path fill="none" stroke="black" d="M301.229,-507.503C287.367,-496.22 267.525,-480.07 252.602,-467.923"/>
</g>
<!-- 1436015640048 -->
<g id="node14" class="node"><title>1436015640048</title>
<ellipse fill="none" stroke="black" cx="403.811" cy="-450" rx="46.6143" ry="18"/>
<text text-anchor="middle" x="403.811" y="-446.5" font-family="Times New Roman,serif" font-size="15.00">xor loop</text>
</g>
<!-- 1436013832608&#45;&#45;1436015640048 -->
<g id="edge11" class="edge"><title>1436013832608&#45;&#45;1436015640048</title>
<path fill="none" stroke="black" d="M334.393,-507.503C348.743,-495.823 369.502,-478.926 384.578,-466.655"/>
</g>
<!-- 1436015640432 -->
<g id="node15" class="node"><title>1436015640432</title>
<ellipse fill="black" stroke="black" cx="335.811" cy="-378" rx="2.7" ry="2.7"/>
</g>
<!-- 1436015640048&#45;&#45;1436015640432 -->
<g id="edge9" class="edge"><title>1436015640048&#45;&#45;1436015640432</title>
<path fill="none" stroke="black" d="M388.04,-432.765C370.463,-414.671 343.658,-387.078 337.231,-380.462"/>
</g>
<!-- 1436015637888 -->
<g id="node16" class="node"><title>1436015637888</title>
<ellipse fill="none" stroke="black" cx="418.811" cy="-378" rx="61.6894" ry="18"/>
<text text-anchor="middle" x="418.811" y="-374.5" font-family="Times New Roman,serif" font-size="15.00">Add penalty</text>
</g>
<!-- 1436015640048&#45;&#45;1436015637888 -->
<g id="edge10" class="edge"><title>1436015640048&#45;&#45;1436015637888</title>
<path fill="none" stroke="black" d="M407.519,-431.697C409.844,-420.846 412.829,-406.917 415.146,-396.104"/>
</g>
<!-- 1436179413264 -->
<g id="node18" class="node"><title>1436179413264</title>
<ellipse fill="none" stroke="black" cx="560.811" cy="-666" rx="27" ry="18"/>
<text text-anchor="middle" x="560.811" y="-662.5" font-family="Times New Roman,serif" font-size="15.00">xor</text>
</g>
<!-- 1436179413888&#45;&#45;1436179413264 -->
<g id="edge32" class="edge"><title>1436179413888&#45;&#45;1436179413264</title>
<path fill="none" stroke="black" d="M560.811,-719.697C560.811,-708.846 560.811,-694.917 560.811,-684.104"/>
</g>
<!-- 1436179414992 -->
<g id="node35" class="node"><title>1436179414992</title>
<ellipse fill="none" stroke="black" cx="1075.81" cy="-666" rx="27" ry="18"/>
<text text-anchor="middle" x="1075.81" y="-662.5" font-family="Times New Roman,serif" font-size="15.00">and</text>
</g>
<!-- 1436179413888&#45;&#45;1436179414992 -->
<g id="edge91" class="edge"><title>1436179413888&#45;&#45;1436179414992</title>
<path fill="none" stroke="black" d="M587.058,-733.432C675.402,-721.425 961.352,-682.558 1049.62,-670.56"/>
</g>
<!-- 1436179413792 -->
<g id="node19" class="node"><title>1436179413792</title>
<ellipse fill="black" stroke="black" cx="536.811" cy="-594" rx="2.7" ry="2.7"/>
</g>
<!-- 1436179413264&#45;&#45;1436179413792 -->
<g id="edge16" class="edge"><title>1436179413264&#45;&#45;1436179413792</title>
<path fill="none" stroke="black" d="M555.001,-648.055C548.897,-630.252 539.851,-603.865 537.427,-596.796"/>
</g>
<!-- 1436184581600 -->
<g id="node20" class="node"><title>1436184581600</title>
<ellipse fill="none" stroke="black" cx="584.811" cy="-594" rx="27" ry="18"/>
<text text-anchor="middle" x="584.811" y="-590.5" font-family="Times New Roman,serif" font-size="15.00">and</text>
</g>
<!-- 1436179413264&#45;&#45;1436184581600 -->
<g id="edge31" class="edge"><title>1436179413264&#45;&#45;1436184581600</title>
<path fill="none" stroke="black" d="M566.621,-648.055C570.394,-637.049 575.292,-622.764 579.055,-611.789"/>
</g>
<!-- 1436013831552 -->
<g id="node21" class="node"><title>1436013831552</title>
<ellipse fill="none" stroke="black" cx="537.811" cy="-522" rx="46.6143" ry="18"/>
<text text-anchor="middle" x="537.811" y="-518.5" font-family="Times New Roman,serif" font-size="15.00">xor loop</text>
</g>
<!-- 1436184581600&#45;&#45;1436013831552 -->
<g id="edge19" class="edge"><title>1436184581600&#45;&#45;1436013831552</title>
<path fill="none" stroke="black" d="M574.146,-577.116C566.671,-565.983 556.696,-551.127 549.089,-539.797"/>
</g>
<!-- 1436013831360 -->
<g id="node24" class="node"><title>1436013831360</title>
<ellipse fill="none" stroke="black" cx="654.811" cy="-522" rx="27" ry="18"/>
<text text-anchor="middle" x="654.811" y="-518.5" font-family="Times New Roman,serif" font-size="15.00">xor</text>
</g>
<!-- 1436184581600&#45;&#45;1436013831360 -->
<g id="edge30" class="edge"><title>1436184581600&#45;&#45;1436013831360</title>
<path fill="none" stroke="black" d="M599.315,-578.496C611.329,-566.482 628.317,-549.494 640.326,-537.485"/>
</g>
<!-- 1436013832992 -->
<g id="node22" class="node"><title>1436013832992</title>
<ellipse fill="black" stroke="black" cx="470.811" cy="-450" rx="2.7" ry="2.7"/>
</g>
<!-- 1436013831552&#45;&#45;1436013832992 -->
<g id="edge17" class="edge"><title>1436013831552&#45;&#45;1436013832992</title>
<path fill="none" stroke="black" d="M522.272,-504.765C504.953,-486.671 478.542,-459.078 472.21,-452.462"/>
</g>
<!-- 1436013831744 -->
<g id="node23" class="node"><title>1436013831744</title>
<ellipse fill="none" stroke="black" cx="537.811" cy="-450" rx="45.7249" ry="18"/>
<text text-anchor="middle" x="537.811" y="-446.5" font-family="Times New Roman,serif" font-size="15.00">Payment</text>
</g>
<!-- 1436013831552&#45;&#45;1436013831744 -->
<g id="edge18" class="edge"><title>1436013831552&#45;&#45;1436013831744</title>
<path fill="none" stroke="black" d="M537.811,-503.697C537.811,-492.846 537.811,-478.917 537.811,-468.104"/>
</g>
<!-- 1436013830448 -->
<g id="node25" class="node"><title>1436013830448</title>
<ellipse fill="black" stroke="black" cx="604.811" cy="-450" rx="2.7" ry="2.7"/>
</g>
<!-- 1436013831360&#45;&#45;1436013830448 -->
<g id="edge20" class="edge"><title>1436013831360&#45;&#45;1436013830448</title>
<path fill="none" stroke="black" d="M643.714,-505.465C630.825,-487.42 610.707,-459.254 605.879,-452.494"/>
</g>
<!-- 1436013832368 -->
<g id="node26" class="node"><title>1436013832368</title>
<ellipse fill="none" stroke="black" cx="678.811" cy="-450" rx="52.6228" ry="18"/>
<text text-anchor="middle" x="678.811" y="-446.5" font-family="Times New Roman,serif" font-size="15.00">Send Fine</text>
</g>
<!-- 1436013831360&#45;&#45;1436013832368 -->
<g id="edge21" class="edge"><title>1436013831360&#45;&#45;1436013832368</title>
<path fill="none" stroke="black" d="M660.621,-504.055C664.339,-493.211 669.148,-479.183 672.888,-468.275"/>
</g>
<!-- 1436013832752 -->
<g id="node27" class="node"><title>1436013832752</title>
<ellipse fill="none" stroke="black" cx="776.811" cy="-450" rx="27" ry="18"/>
<text text-anchor="middle" x="776.811" y="-446.5" font-family="Times New Roman,serif" font-size="15.00">seq</text>
</g>
<!-- 1436013831360&#45;&#45;1436013832752 -->
<g id="edge29" class="edge"><title>1436013831360&#45;&#45;1436013832752</title>
<path fill="none" stroke="black" d="M674.684,-509.597C697.371,-496.581 734.264,-475.413 756.947,-462.398"/>
</g>
<!-- 1436013831984 -->
<g id="node28" class="node"><title>1436013831984</title>
<ellipse fill="none" stroke="black" cx="581.811" cy="-378" rx="52.6228" ry="18"/>
<text text-anchor="middle" x="581.811" y="-374.5" font-family="Times New Roman,serif" font-size="15.00">Send Fine</text>
</g>
<!-- 1436013832752&#45;&#45;1436013831984 -->
<g id="edge22" class="edge"><title>1436013832752&#45;&#45;1436013831984</title>
<path fill="none" stroke="black" d="M753.676,-440.695C719.779,-428.527 656.355,-405.76 616.758,-391.545"/>
</g>
<!-- 1436013831792 -->
<g id="node29" class="node"><title>1436013831792</title>
<ellipse fill="none" stroke="black" cx="760.811" cy="-378" rx="107.914" ry="18"/>
<text text-anchor="middle" x="760.811" y="-374.5" font-family="Times New Roman,serif" font-size="15.00">Insert Fine Notification</text>
</g>
<!-- 1436013832752&#45;&#45;1436013831792 -->
<g id="edge23" class="edge"><title>1436013832752&#45;&#45;1436013831792</title>
<path fill="none" stroke="black" d="M772.938,-432.055C770.459,-421.211 767.253,-407.183 764.76,-396.275"/>
</g>
<!-- 1436013833184 -->
<g id="node30" class="node"><title>1436013833184</title>
<ellipse fill="none" stroke="black" cx="913.811" cy="-378" rx="27" ry="18"/>
<text text-anchor="middle" x="913.811" y="-374.5" font-family="Times New Roman,serif" font-size="15.00">seq</text>
</g>
<!-- 1436013832752&#45;&#45;1436013833184 -->
<g id="edge28" class="edge"><title>1436013832752&#45;&#45;1436013833184</title>
<path fill="none" stroke="black" d="M797.618,-438.369C823.368,-425.212 866.968,-402.934 892.808,-389.732"/>
</g>
<!-- 1436013831696 -->
<g id="node31" class="node"><title>1436013831696</title>
<ellipse fill="none" stroke="black" cx="806.811" cy="-306" rx="61.6894" ry="18"/>
<text text-anchor="middle" x="806.811" y="-302.5" font-family="Times New Roman,serif" font-size="15.00">Add penalty</text>
</g>
<!-- 1436013833184&#45;&#45;1436013831696 -->
<g id="edge24" class="edge"><title>1436013833184&#45;&#45;1436013831696</title>
<path fill="none" stroke="black" d="M895.173,-364.807C877.33,-353.134 850.324,-335.466 830.866,-322.737"/>
</g>
<!-- 1436013832416 -->
<g id="node32" class="node"><title>1436013832416</title>
<ellipse fill="none" stroke="black" cx="913.811" cy="-306" rx="27" ry="18"/>
<text text-anchor="middle" x="913.811" y="-302.5" font-family="Times New Roman,serif" font-size="15.00">xor</text>
</g>
<!-- 1436013833184&#45;&#45;1436013832416 -->
<g id="edge27" class="edge"><title>1436013833184&#45;&#45;1436013832416</title>
<path fill="none" stroke="black" d="M913.811,-359.697C913.811,-348.846 913.811,-334.917 913.811,-324.104"/>
</g>
<!-- 1436013830208 -->
<g id="node33" class="node"><title>1436013830208</title>
<ellipse fill="black" stroke="black" cx="814.811" cy="-234" rx="2.7" ry="2.7"/>
</g>
<!-- 1436013832416&#45;&#45;1436013830208 -->
<g id="edge25" class="edge"><title>1436013832416&#45;&#45;1436013830208</title>
<path fill="none" stroke="black" d="M895.653,-292.161C870.198,-274.163 825.96,-242.883 816.587,-236.256"/>
</g>
<!-- 1436013832560 -->
<g id="node34" class="node"><title>1436013832560</title>
<ellipse fill="none" stroke="black" cx="913.811" cy="-234" rx="78.5434" ry="18"/>
<text text-anchor="middle" x="913.811" y="-230.5" font-family="Times New Roman,serif" font-size="15.00">Appeal to Judge</text>
</g>
<!-- 1436013832416&#45;&#45;1436013832560 -->
<g id="edge26" class="edge"><title>1436013832416&#45;&#45;1436013832560</title>
<path fill="none" stroke="black" d="M913.811,-287.697C913.811,-276.846 913.811,-262.917 913.811,-252.104"/>
</g>
<!-- 1436179414464 -->
<g id="node36" class="node"><title>1436179414464</title>
<ellipse fill="none" stroke="black" cx="1075.81" cy="-594" rx="27" ry="18"/>
<text text-anchor="middle" x="1075.81" y="-590.5" font-family="Times New Roman,serif" font-size="15.00">xor</text>
</g>
<!-- 1436179414992&#45;&#45;1436179414464 -->
<g id="edge49" class="edge"><title>1436179414992&#45;&#45;1436179414464</title>
<path fill="none" stroke="black" d="M1075.81,-647.697C1075.81,-636.846 1075.81,-622.917 1075.81,-612.104"/>
</g>
<!-- 1436179414080 -->
<g id="node53" class="node"><title>1436179414080</title>
<ellipse fill="none" stroke="black" cx="1839.81" cy="-594" rx="27" ry="18"/>
<text text-anchor="middle" x="1839.81" y="-590.5" font-family="Times New Roman,serif" font-size="15.00">seq</text>
</g>
<!-- 1436179414992&#45;&#45;1436179414080 -->
<g id="edge90" class="edge"><title>1436179414992&#45;&#45;1436179414080</title>
<path fill="none" stroke="black" d="M1102.55,-662.55C1220.74,-651.721 1695.53,-608.219 1813.28,-597.43"/>
</g>
<!-- 1436179414608 -->
<g id="node37" class="node"><title>1436179414608</title>
<ellipse fill="black" stroke="black" cx="1051.81" cy="-522" rx="2.7" ry="2.7"/>
</g>
<!-- 1436179414464&#45;&#45;1436179414608 -->
<g id="edge33" class="edge"><title>1436179414464&#45;&#45;1436179414608</title>
<path fill="none" stroke="black" d="M1070,-576.055C1063.9,-558.252 1054.85,-531.865 1052.43,-524.796"/>
</g>
<!-- 1436184580832 -->
<g id="node38" class="node"><title>1436184580832</title>
<ellipse fill="none" stroke="black" cx="1099.81" cy="-522" rx="27" ry="18"/>
<text text-anchor="middle" x="1099.81" y="-518.5" font-family="Times New Roman,serif" font-size="15.00">and</text>
</g>
<!-- 1436179414464&#45;&#45;1436184580832 -->
<g id="edge48" class="edge"><title>1436179414464&#45;&#45;1436184580832</title>
<path fill="none" stroke="black" d="M1081.62,-576.055C1085.39,-565.049 1090.29,-550.764 1094.05,-539.789"/>
</g>
<!-- 1436184584096 -->
<g id="node39" class="node"><title>1436184584096</title>
<ellipse fill="none" stroke="black" cx="1029.81" cy="-450" rx="46.6143" ry="18"/>
<text text-anchor="middle" x="1029.81" y="-446.5" font-family="Times New Roman,serif" font-size="15.00">xor loop</text>
</g>
<!-- 1436184580832&#45;&#45;1436184584096 -->
<g id="edge36" class="edge"><title>1436184580832&#45;&#45;1436184584096</title>
<path fill="none" stroke="black" d="M1085.31,-506.496C1073.77,-494.963 1057.66,-478.845 1045.76,-466.95"/>
</g>
<!-- 1436184582656 -->
<g id="node42" class="node"><title>1436184582656</title>
<ellipse fill="none" stroke="black" cx="1146.81" cy="-450" rx="27" ry="18"/>
<text text-anchor="middle" x="1146.81" y="-446.5" font-family="Times New Roman,serif" font-size="15.00">xor</text>
</g>
<!-- 1436184580832&#45;&#45;1436184582656 -->
<g id="edge47" class="edge"><title>1436184580832&#45;&#45;1436184582656</title>
<path fill="none" stroke="black" d="M1110.48,-505.116C1118.17,-493.66 1128.51,-478.263 1136.19,-466.821"/>
</g>
<!-- 1436184582416 -->
<g id="node40" class="node"><title>1436184582416</title>
<ellipse fill="black" stroke="black" cx="962.811" cy="-378" rx="2.7" ry="2.7"/>
</g>
<!-- 1436184584096&#45;&#45;1436184582416 -->
<g id="edge34" class="edge"><title>1436184584096&#45;&#45;1436184582416</title>
<path fill="none" stroke="black" d="M1014.27,-432.765C996.953,-414.671 970.542,-387.078 964.21,-380.462"/>
</g>
<!-- 1436184583088 -->
<g id="node41" class="node"><title>1436184583088</title>
<ellipse fill="none" stroke="black" cx="1029.81" cy="-378" rx="45.7249" ry="18"/>
<text text-anchor="middle" x="1029.81" y="-374.5" font-family="Times New Roman,serif" font-size="15.00">Payment</text>
</g>
<!-- 1436184584096&#45;&#45;1436184583088 -->
<g id="edge35" class="edge"><title>1436184584096&#45;&#45;1436184583088</title>
<path fill="none" stroke="black" d="M1029.81,-431.697C1029.81,-420.846 1029.81,-406.917 1029.81,-396.104"/>
</g>
<!-- 1436184582032 -->
<g id="node43" class="node"><title>1436184582032</title>
<ellipse fill="black" stroke="black" cx="1096.81" cy="-378" rx="2.7" ry="2.7"/>
</g>
<!-- 1436184582656&#45;&#45;1436184582032 -->
<g id="edge37" class="edge"><title>1436184582656&#45;&#45;1436184582032</title>
<path fill="none" stroke="black" d="M1135.71,-433.465C1122.83,-415.42 1102.71,-387.254 1097.88,-380.494"/>
</g>
<!-- 1436013830736 -->
<g id="node44" class="node"><title>1436013830736</title>
<ellipse fill="none" stroke="black" cx="1170.81" cy="-378" rx="52.6228" ry="18"/>
<text text-anchor="middle" x="1170.81" y="-374.5" font-family="Times New Roman,serif" font-size="15.00">Send Fine</text>
</g>
<!-- 1436184582656&#45;&#45;1436013830736 -->
<g id="edge38" class="edge"><title>1436184582656&#45;&#45;1436013830736</title>
<path fill="none" stroke="black" d="M1152.62,-432.055C1156.34,-421.211 1161.15,-407.183 1164.89,-396.275"/>
</g>
<!-- 1436013833568 -->
<g id="node45" class="node"><title>1436013833568</title>
<ellipse fill="none" stroke="black" cx="1268.81" cy="-378" rx="27" ry="18"/>
<text text-anchor="middle" x="1268.81" y="-374.5" font-family="Times New Roman,serif" font-size="15.00">seq</text>
</g>
<!-- 1436184582656&#45;&#45;1436013833568 -->
<g id="edge46" class="edge"><title>1436184582656&#45;&#45;1436013833568</title>
<path fill="none" stroke="black" d="M1166.68,-437.597C1189.37,-424.581 1226.26,-403.413 1248.95,-390.398"/>
</g>
<!-- 1436013831120 -->
<g id="node46" class="node"><title>1436013831120</title>
<ellipse fill="none" stroke="black" cx="1172.81" cy="-306" rx="52.6228" ry="18"/>
<text text-anchor="middle" x="1172.81" y="-302.5" font-family="Times New Roman,serif" font-size="15.00">Send Fine</text>
</g>
<!-- 1436013833568&#45;&#45;1436013831120 -->
<g id="edge39" class="edge"><title>1436013833568&#45;&#45;1436013831120</title>
<path fill="none" stroke="black" d="M1251.2,-364.161C1235.18,-352.478 1211.48,-335.199 1194.34,-322.698"/>
</g>
<!-- 1436013833472 -->
<g id="node47" class="node"><title>1436013833472</title>
<ellipse fill="none" stroke="black" cx="1270.81" cy="-306" rx="27" ry="18"/>
<text text-anchor="middle" x="1270.81" y="-302.5" font-family="Times New Roman,serif" font-size="15.00">seq</text>
</g>
<!-- 1436013833568&#45;&#45;1436013833472 -->
<g id="edge45" class="edge"><title>1436013833568&#45;&#45;1436013833472</title>
<path fill="none" stroke="black" d="M1269.31,-359.697C1269.62,-348.846 1270.01,-334.917 1270.32,-324.104"/>
</g>
<!-- 1436013832080 -->
<g id="node48" class="node"><title>1436013832080</title>
<ellipse fill="none" stroke="black" cx="1117.81" cy="-234" rx="107.914" ry="18"/>
<text text-anchor="middle" x="1117.81" y="-230.5" font-family="Times New Roman,serif" font-size="15.00">Insert Fine Notification</text>
</g>
<!-- 1436013833472&#45;&#45;1436013832080 -->
<g id="edge40" class="edge"><title>1436013833472&#45;&#45;1436013832080</title>
<path fill="none" stroke="black" d="M1249.21,-295.119C1224.17,-283.662 1182.54,-264.616 1152.85,-251.032"/>
</g>
<!-- 1436013831648 -->
<g id="node49" class="node"><title>1436013831648</title>
<ellipse fill="none" stroke="black" cx="1270.81" cy="-234" rx="27" ry="18"/>
<text text-anchor="middle" x="1270.81" y="-230.5" font-family="Times New Roman,serif" font-size="15.00">xor</text>
</g>
<!-- 1436013833472&#45;&#45;1436013831648 -->
<g id="edge43" class="edge"><title>1436013833472&#45;&#45;1436013831648</title>
<path fill="none" stroke="black" d="M1270.81,-287.697C1270.81,-276.846 1270.81,-262.917 1270.81,-252.104"/>
</g>
<!-- 1436013832176 -->
<g id="node52" class="node"><title>1436013832176</title>
<ellipse fill="none" stroke="black" cx="1377.81" cy="-234" rx="61.6894" ry="18"/>
<text text-anchor="middle" x="1377.81" y="-230.5" font-family="Times New Roman,serif" font-size="15.00">Add penalty</text>
</g>
<!-- 1436013833472&#45;&#45;1436013832176 -->
<g id="edge44" class="edge"><title>1436013833472&#45;&#45;1436013832176</title>
<path fill="none" stroke="black" d="M1289.45,-292.807C1307.29,-281.134 1334.3,-263.466 1353.76,-250.737"/>
</g>
<!-- 1436013832464 -->
<g id="node50" class="node"><title>1436013832464</title>
<ellipse fill="black" stroke="black" cx="1171.81" cy="-162" rx="2.7" ry="2.7"/>
</g>
<!-- 1436013831648&#45;&#45;1436013832464 -->
<g id="edge41" class="edge"><title>1436013831648&#45;&#45;1436013832464</title>
<path fill="none" stroke="black" d="M1252.65,-220.161C1227.2,-202.163 1182.96,-170.883 1173.59,-164.256"/>
</g>
<!-- 1436013832320 -->
<g id="node51" class="node"><title>1436013832320</title>
<ellipse fill="none" stroke="black" cx="1270.81" cy="-162" rx="78.5434" ry="18"/>
<text text-anchor="middle" x="1270.81" y="-158.5" font-family="Times New Roman,serif" font-size="15.00">Appeal to Judge</text>
</g>
<!-- 1436013831648&#45;&#45;1436013832320 -->
<g id="edge42" class="edge"><title>1436013831648&#45;&#45;1436013832320</title>
<path fill="none" stroke="black" d="M1270.81,-215.697C1270.81,-204.846 1270.81,-190.917 1270.81,-180.104"/>
</g>
<!-- 1436179413072 -->
<g id="node54" class="node"><title>1436179413072</title>
<ellipse fill="none" stroke="black" cx="1787.81" cy="-522" rx="59.5207" ry="18"/>
<text text-anchor="middle" x="1787.81" y="-518.5" font-family="Times New Roman,serif" font-size="15.00">Create Fine</text>
</g>
<!-- 1436179414080&#45;&#45;1436179413072 -->
<g id="edge50" class="edge"><title>1436179414080&#45;&#45;1436179413072</title>
<path fill="none" stroke="black" d="M1828.27,-577.465C1820.01,-566.348 1808.9,-551.39 1800.41,-539.962"/>
</g>
<!-- 1436015635952 -->
<g id="node55" class="node"><title>1436015635952</title>
<ellipse fill="none" stroke="black" cx="1892.81" cy="-522" rx="27" ry="18"/>
<text text-anchor="middle" x="1892.81" y="-518.5" font-family="Times New Roman,serif" font-size="15.00">xor</text>
</g>
<!-- 1436179414080&#45;&#45;1436015635952 -->
<g id="edge86" class="edge"><title>1436179414080&#45;&#45;1436015635952</title>
<path fill="none" stroke="black" d="M1851.57,-577.465C1860.36,-565.865 1872.31,-550.082 1881.08,-538.492"/>
</g>
<!-- 1436179414032 -->
<g id="node91" class="node"><title>1436179414032</title>
<ellipse fill="none" stroke="black" cx="1995.81" cy="-522" rx="27" ry="18"/>
<text text-anchor="middle" x="1995.81" y="-518.5" font-family="Times New Roman,serif" font-size="15.00">xor</text>
</g>
<!-- 1436179414080&#45;&#45;1436179414032 -->
<g id="edge89" class="edge"><title>1436179414080&#45;&#45;1436179414032</title>
<path fill="none" stroke="black" d="M1861.5,-583.267C1891.22,-569.931 1944.3,-546.115 1974.05,-532.763"/>
</g>
<!-- 1436015635664 -->
<g id="node56" class="node"><title>1436015635664</title>
<ellipse fill="black" stroke="black" cx="1861.81" cy="-450" rx="2.7" ry="2.7"/>
</g>
<!-- 1436015635952&#45;&#45;1436015635664 -->
<g id="edge51" class="edge"><title>1436015635952&#45;&#45;1436015635664</title>
<path fill="none" stroke="black" d="M1885.46,-504.411C1877.59,-486.622 1865.78,-459.962 1862.62,-452.816"/>
</g>
<!-- 1436015635520 -->
<g id="node57" class="node"><title>1436015635520</title>
<ellipse fill="none" stroke="black" cx="1928.81" cy="-450" rx="46.6143" ry="18"/>
<text text-anchor="middle" x="1928.81" y="-446.5" font-family="Times New Roman,serif" font-size="15.00">xor loop</text>
</g>
<!-- 1436015635952&#45;&#45;1436015635520 -->
<g id="edge85" class="edge"><title>1436015635952&#45;&#45;1436015635520</title>
<path fill="none" stroke="black" d="M1901.16,-504.765C1906.81,-493.779 1914.26,-479.292 1920,-468.124"/>
</g>
<!-- 1436015636336 -->
<g id="node58" class="node"><title>1436015636336</title>
<ellipse fill="none" stroke="black" cx="1928.81" cy="-378" rx="27" ry="18"/>
<text text-anchor="middle" x="1928.81" y="-374.5" font-family="Times New Roman,serif" font-size="15.00">seq</text>
</g>
<!-- 1436015635520&#45;&#45;1436015636336 -->
<g id="edge83" class="edge"><title>1436015635520&#45;&#45;1436015636336</title>
<path fill="none" stroke="black" d="M1928.81,-431.697C1928.81,-420.846 1928.81,-406.917 1928.81,-396.104"/>
</g>
<!-- 1436015649456 -->
<g id="node90" class="node"><title>1436015649456</title>
<ellipse fill="black" stroke="black" cx="1976.81" cy="-378" rx="2.7" ry="2.7"/>
</g>
<!-- 1436015635520&#45;&#45;1436015649456 -->
<g id="edge84" class="edge"><title>1436015635520&#45;&#45;1436015649456</title>
<path fill="none" stroke="black" d="M1940.19,-432.411C1952.38,-414.622 1970.67,-387.962 1975.57,-380.816"/>
</g>
<!-- 1436015636432 -->
<g id="node59" class="node"><title>1436015636432</title>
<ellipse fill="none" stroke="black" cx="1744.81" cy="-306" rx="27" ry="18"/>
<text text-anchor="middle" x="1744.81" y="-302.5" font-family="Times New Roman,serif" font-size="15.00">seq</text>
</g>
<!-- 1436015636336&#45;&#45;1436015636432 -->
<g id="edge56" class="edge"><title>1436015636336&#45;&#45;1436015636432</title>
<path fill="none" stroke="black" d="M1905.88,-368.276C1870.52,-354.825 1803.1,-329.174 1767.74,-315.724"/>
</g>
<!-- 1436015635808 -->
<g id="node64" class="node"><title>1436015635808</title>
<ellipse fill="none" stroke="black" cx="1892.81" cy="-306" rx="27" ry="18"/>
<text text-anchor="middle" x="1892.81" y="-302.5" font-family="Times New Roman,serif" font-size="15.00">xor</text>
</g>
<!-- 1436015636336&#45;&#45;1436015635808 -->
<g id="edge68" class="edge"><title>1436015636336&#45;&#45;1436015635808</title>
<path fill="none" stroke="black" d="M1920.46,-360.765C1914.65,-349.456 1906.92,-334.437 1901.12,-323.147"/>
</g>
<!-- 1436015649216 -->
<g id="node76" class="node"><title>1436015649216</title>
<ellipse fill="none" stroke="black" cx="1964.81" cy="-306" rx="27" ry="18"/>
<text text-anchor="middle" x="1964.81" y="-302.5" font-family="Times New Roman,serif" font-size="15.00">xor</text>
</g>
<!-- 1436015636336&#45;&#45;1436015649216 -->
<g id="edge71" class="edge"><title>1436015636336&#45;&#45;1436015649216</title>
<path fill="none" stroke="black" d="M1937.16,-360.765C1942.98,-349.456 1950.7,-334.437 1956.51,-323.147"/>
</g>
<!-- 1436015635616 -->
<g id="node79" class="node"><title>1436015635616</title>
<ellipse fill="none" stroke="black" cx="2234.81" cy="-306" rx="27" ry="18"/>
<text text-anchor="middle" x="2234.81" y="-302.5" font-family="Times New Roman,serif" font-size="15.00">xor</text>
</g>
<!-- 1436015636336&#45;&#45;1436015635616 -->
<g id="edge74" class="edge"><title>1436015636336&#45;&#45;1436015635616</title>
<path fill="none" stroke="black" d="M1954.11,-371.212C2011.68,-358.044 2151.89,-325.969 2209.48,-312.795"/>
</g>
<!-- 1436015636144 -->
<g id="node82" class="node"><title>1436015636144</title>
<ellipse fill="none" stroke="black" cx="2622.81" cy="-306" rx="27" ry="18"/>
<text text-anchor="middle" x="2622.81" y="-302.5" font-family="Times New Roman,serif" font-size="15.00">xor</text>
</g>
<!-- 1436015636336&#45;&#45;1436015636144 -->
<g id="edge82" class="edge"><title>1436015636336&#45;&#45;1436015636144</title>
<path fill="none" stroke="black" d="M1955.59,-374.299C2066.07,-363.156 2485.78,-320.821 2596.11,-309.693"/>
</g>
<!-- 1436015652816 -->
<g id="node60" class="node"><title>1436015652816</title>
<ellipse fill="none" stroke="black" cx="1646.81" cy="-234" rx="52.6228" ry="18"/>
<text text-anchor="middle" x="1646.81" y="-230.5" font-family="Times New Roman,serif" font-size="15.00">Send Fine</text>
</g>
<!-- 1436015636432&#45;&#45;1436015652816 -->
<g id="edge52" class="edge"><title>1436015636432&#45;&#45;1436015652816</title>
<path fill="none" stroke="black" d="M1726.84,-292.161C1710.37,-280.399 1685.96,-262.965 1668.44,-250.446"/>
</g>
<!-- 1436015652768 -->
<g id="node61" class="node"><title>1436015652768</title>
<ellipse fill="none" stroke="black" cx="1744.81" cy="-234" rx="27" ry="18"/>
<text text-anchor="middle" x="1744.81" y="-230.5" font-family="Times New Roman,serif" font-size="15.00">xor</text>
</g>
<!-- 1436015636432&#45;&#45;1436015652768 -->
<g id="edge55" class="edge"><title>1436015636432&#45;&#45;1436015652768</title>
<path fill="none" stroke="black" d="M1744.81,-287.697C1744.81,-276.846 1744.81,-262.917 1744.81,-252.104"/>
</g>
<!-- 1436015648976 -->
<g id="node62" class="node"><title>1436015648976</title>
<ellipse fill="none" stroke="black" cx="1474.81" cy="-162" rx="107.914" ry="18"/>
<text text-anchor="middle" x="1474.81" y="-158.5" font-family="Times New Roman,serif" font-size="15.00">Insert Fine Notification</text>
</g>
<!-- 1436015652768&#45;&#45;1436015648976 -->
<g id="edge53" class="edge"><title>1436015652768&#45;&#45;1436015648976</title>
<path fill="none" stroke="black" d="M1719.89,-226.54C1677.07,-215.439 1588.54,-192.484 1530.43,-177.419"/>
</g>
<!-- 1436015652672 -->
<g id="node63" class="node"><title>1436015652672</title>
<ellipse fill="none" stroke="black" cx="1744.81" cy="-162" rx="144.571" ry="18"/>
<text text-anchor="middle" x="1744.81" y="-158.5" font-family="Times New Roman,serif" font-size="15.00">Insert Date Appeal to Prefecture</text>
</g>
<!-- 1436015652768&#45;&#45;1436015652672 -->
<g id="edge54" class="edge"><title>1436015652768&#45;&#45;1436015652672</title>
<path fill="none" stroke="black" d="M1744.81,-215.697C1744.81,-204.846 1744.81,-190.917 1744.81,-180.104"/>
</g>
<!-- 1436015652336 -->
<g id="node65" class="node"><title>1436015652336</title>
<ellipse fill="black" stroke="black" cx="1856.81" cy="-234" rx="2.7" ry="2.7"/>
</g>
<!-- 1436015635808&#45;&#45;1436015652336 -->
<g id="edge57" class="edge"><title>1436015635808&#45;&#45;1436015652336</title>
<path fill="none" stroke="black" d="M1884.46,-288.765C1875.32,-270.994 1861.47,-244.06 1857.76,-236.836"/>
</g>
<!-- 1436015649168 -->
<g id="node66" class="node"><title>1436015649168</title>
<ellipse fill="none" stroke="black" cx="1904.81" cy="-234" rx="27" ry="18"/>
<text text-anchor="middle" x="1904.81" y="-230.5" font-family="Times New Roman,serif" font-size="15.00">and</text>
</g>
<!-- 1436015635808&#45;&#45;1436015649168 -->
<g id="edge67" class="edge"><title>1436015635808&#45;&#45;1436015649168</title>
<path fill="none" stroke="black" d="M1895.72,-288.055C1897.57,-277.211 1899.98,-263.183 1901.85,-252.275"/>
</g>
<!-- 1436184580256 -->
<g id="node67" class="node"><title>1436184580256</title>
<ellipse fill="none" stroke="black" cx="1968.81" cy="-162" rx="61.6894" ry="18"/>
<text text-anchor="middle" x="1968.81" y="-158.5" font-family="Times New Roman,serif" font-size="15.00">Add penalty</text>
</g>
<!-- 1436015649168&#45;&#45;1436184580256 -->
<g id="edge58" class="edge"><title>1436015649168&#45;&#45;1436184580256</title>
<path fill="none" stroke="black" d="M1918.38,-218.155C1928.66,-206.918 1942.78,-191.476 1953.46,-179.789"/>
</g>
<!-- 1436184582080 -->
<g id="node68" class="node"><title>1436184582080</title>
<ellipse fill="none" stroke="black" cx="2075.81" cy="-162" rx="27" ry="18"/>
<text text-anchor="middle" x="2075.81" y="-158.5" font-family="Times New Roman,serif" font-size="15.00">seq</text>
</g>
<!-- 1436015649168&#45;&#45;1436184582080 -->
<g id="edge66" class="edge"><title>1436015649168&#45;&#45;1436184582080</title>
<path fill="none" stroke="black" d="M1927.17,-223.849C1959.94,-210.433 2020.68,-185.57 2053.45,-172.154"/>
</g>
<!-- 1436184580928 -->
<g id="node69" class="node"><title>1436184580928</title>
<ellipse fill="none" stroke="black" cx="1885.81" cy="-90" rx="144.571" ry="18"/>
<text text-anchor="middle" x="1885.81" y="-86.5" font-family="Times New Roman,serif" font-size="15.00">Insert Date Appeal to Prefecture</text>
</g>
<!-- 1436184582080&#45;&#45;1436184580928 -->
<g id="edge59" class="edge"><title>1436184582080&#45;&#45;1436184580928</title>
<path fill="none" stroke="black" d="M2052.51,-152.417C2022.09,-141.209 1968.22,-121.36 1929.95,-107.263"/>
</g>
<!-- 1436184582368 -->
<g id="node70" class="node"><title>1436184582368</title>
<ellipse fill="none" stroke="black" cx="2075.81" cy="-90" rx="27" ry="18"/>
<text text-anchor="middle" x="2075.81" y="-86.5" font-family="Times New Roman,serif" font-size="15.00">xor</text>
</g>
<!-- 1436184582080&#45;&#45;1436184582368 -->
<g id="edge62" class="edge"><title>1436184582080&#45;&#45;1436184582368</title>
<path fill="none" stroke="black" d="M2075.81,-143.697C2075.81,-132.846 2075.81,-118.917 2075.81,-108.104"/>
</g>
<!-- 1436184583232 -->
<g id="node73" class="node"><title>1436184583232</title>
<ellipse fill="none" stroke="black" cx="2216.81" cy="-90" rx="27" ry="18"/>
<text text-anchor="middle" x="2216.81" y="-86.5" font-family="Times New Roman,serif" font-size="15.00">xor</text>
</g>
<!-- 1436184582080&#45;&#45;1436184583232 -->
<g id="edge65" class="edge"><title>1436184582080&#45;&#45;1436184583232</title>
<path fill="none" stroke="black" d="M2096.92,-150.52C2123.5,-137.324 2168.91,-114.781 2195.56,-101.551"/>
</g>
<!-- 1436184580352 -->
<g id="node71" class="node"><title>1436184580352</title>
<ellipse fill="black" stroke="black" cx="1934.81" cy="-18" rx="2.7" ry="2.7"/>
</g>
<!-- 1436184582368&#45;&#45;1436184580352 -->
<g id="edge60" class="edge"><title>1436184582368&#45;&#45;1436184580352</title>
<path fill="none" stroke="black" d="M2054.7,-78.5203C2019.06,-60.8234 1949.55,-26.3188 1936.83,-20.0047"/>
</g>
<!-- 1436184581744 -->
<g id="node72" class="node"><title>1436184581744</title>
<ellipse fill="none" stroke="black" cx="2075.81" cy="-18" rx="120.43" ry="18"/>
<text text-anchor="middle" x="2075.81" y="-14.5" font-family="Times New Roman,serif" font-size="15.00">Send Appeal to Prefecture</text>
</g>
<!-- 1436184582368&#45;&#45;1436184581744 -->
<g id="edge61" class="edge"><title>1436184582368&#45;&#45;1436184581744</title>
<path fill="none" stroke="black" d="M2075.81,-71.6966C2075.81,-60.8463 2075.81,-46.9167 2075.81,-36.1043"/>
</g>
<!-- 1436184582176 -->
<g id="node74" class="node"><title>1436184582176</title>
<ellipse fill="black" stroke="black" cx="2216.81" cy="-18" rx="2.7" ry="2.7"/>
</g>
<!-- 1436184583232&#45;&#45;1436184582176 -->
<g id="edge63" class="edge"><title>1436184583232&#45;&#45;1436184582176</title>
<path fill="none" stroke="black" d="M2216.81,-71.6966C2216.81,-53.8826 2216.81,-27.7686 2216.81,-20.7764"/>
</g>
<!-- 1436184582608 -->
<g id="node75" class="node"><title>1436184582608</title>
<ellipse fill="none" stroke="black" cx="2410.81" cy="-18" rx="173.941" ry="18"/>
<text text-anchor="middle" x="2410.81" y="-14.5" font-family="Times New Roman,serif" font-size="15.00">Receive Result Appeal from Prefecture</text>
</g>
<!-- 1436184583232&#45;&#45;1436184582608 -->
<g id="edge64" class="edge"><title>1436184583232&#45;&#45;1436184582608</title>
<path fill="none" stroke="black" d="M2240.21,-80.5564C2271.05,-69.4293 2325.96,-49.615 2365.16,-35.472"/>
</g>
<!-- 1436184582800 -->
<g id="node77" class="node"><title>1436184582800</title>
<ellipse fill="black" stroke="black" cx="1952.81" cy="-234" rx="2.7" ry="2.7"/>
</g>
<!-- 1436015649216&#45;&#45;1436184582800 -->
<g id="edge69" class="edge"><title>1436015649216&#45;&#45;1436184582800</title>
<path fill="none" stroke="black" d="M1961.91,-288.055C1958.85,-270.252 1954.33,-243.865 1953.12,-236.796"/>
</g>
<!-- 1436184582848 -->
<g id="node78" class="node"><title>1436184582848</title>
<ellipse fill="none" stroke="black" cx="2093.81" cy="-234" rx="120.43" ry="18"/>
<text text-anchor="middle" x="2093.81" y="-230.5" font-family="Times New Roman,serif" font-size="15.00">Send Appeal to Prefecture</text>
</g>
<!-- 1436015649216&#45;&#45;1436184582848 -->
<g id="edge70" class="edge"><title>1436015649216&#45;&#45;1436184582848</title>
<path fill="none" stroke="black" d="M1985.25,-293.908C2006.28,-282.497 2039.28,-264.591 2063.38,-251.514"/>
</g>
<!-- 1436184580544 -->
<g id="node80" class="node"><title>1436184580544</title>
<ellipse fill="black" stroke="black" cx="2234.81" cy="-234" rx="2.7" ry="2.7"/>
</g>
<!-- 1436015635616&#45;&#45;1436184580544 -->
<g id="edge72" class="edge"><title>1436015635616&#45;&#45;1436184580544</title>
<path fill="none" stroke="black" d="M2234.81,-287.697C2234.81,-269.883 2234.81,-243.769 2234.81,-236.776"/>
</g>
<!-- 1436184581936 -->
<g id="node81" class="node"><title>1436184581936</title>
<ellipse fill="none" stroke="black" cx="2428.81" cy="-234" rx="173.941" ry="18"/>
<text text-anchor="middle" x="2428.81" y="-230.5" font-family="Times New Roman,serif" font-size="15.00">Receive Result Appeal from Prefecture</text>
</g>
<!-- 1436015635616&#45;&#45;1436184581936 -->
<g id="edge73" class="edge"><title>1436015635616&#45;&#45;1436184581936</title>
<path fill="none" stroke="black" d="M2258.21,-296.556C2289.05,-285.429 2343.96,-265.615 2383.16,-251.472"/>
</g>
<!-- 1436184583568 -->
<g id="node83" class="node"><title>1436184583568</title>
<ellipse fill="black" stroke="black" cx="2622.81" cy="-234" rx="2.7" ry="2.7"/>
</g>
<!-- 1436015636144&#45;&#45;1436184583568 -->
<g id="edge75" class="edge"><title>1436015636144&#45;&#45;1436184583568</title>
<path fill="none" stroke="black" d="M2622.81,-287.697C2622.81,-269.883 2622.81,-243.769 2622.81,-236.776"/>
</g>
<!-- 1436184582704 -->
<g id="node84" class="node"><title>1436184582704</title>
<ellipse fill="none" stroke="black" cx="2670.81" cy="-234" rx="27" ry="18"/>
<text text-anchor="middle" x="2670.81" y="-230.5" font-family="Times New Roman,serif" font-size="15.00">seq</text>
</g>
<!-- 1436015636144&#45;&#45;1436184582704 -->
<g id="edge81" class="edge"><title>1436015636144&#45;&#45;1436184582704</title>
<path fill="none" stroke="black" d="M2633.7,-289.116C2641.56,-277.66 2652.12,-262.263 2659.96,-250.821"/>
</g>
<!-- 1436184581984 -->
<g id="node85" class="node"><title>1436184581984</title>
<ellipse fill="none" stroke="black" cx="2573.81" cy="-162" rx="148.91" ry="18"/>
<text text-anchor="middle" x="2573.81" y="-158.5" font-family="Times New Roman,serif" font-size="15.00">Notify Result Appeal to Offender</text>
</g>
<!-- 1436184582704&#45;&#45;1436184581984 -->
<g id="edge76" class="edge"><title>1436184582704&#45;&#45;1436184581984</title>
<path fill="none" stroke="black" d="M2653.02,-220.161C2637.38,-208.873 2614.5,-192.36 2597.34,-179.981"/>
</g>
<!-- 1436184583328 -->
<g id="node86" class="node"><title>1436184583328</title>
<ellipse fill="none" stroke="black" cx="2767.81" cy="-162" rx="27" ry="18"/>
<text text-anchor="middle" x="2767.81" y="-158.5" font-family="Times New Roman,serif" font-size="15.00">xor</text>
</g>
<!-- 1436184582704&#45;&#45;1436184583328 -->
<g id="edge80" class="edge"><title>1436184582704&#45;&#45;1436184583328</title>
<path fill="none" stroke="black" d="M2688.6,-220.161C2706.1,-207.531 2732.67,-188.36 2750.13,-175.758"/>
</g>
<!-- 1436184581456 -->
<g id="node87" class="node"><title>1436184581456</title>
<ellipse fill="black" stroke="black" cx="2668.81" cy="-90" rx="2.7" ry="2.7"/>
</g>
<!-- 1436184583328&#45;&#45;1436184581456 -->
<g id="edge77" class="edge"><title>1436184583328&#45;&#45;1436184581456</title>
<path fill="none" stroke="black" d="M2749.65,-148.161C2724.2,-130.163 2679.96,-98.8831 2670.59,-92.2559"/>
</g>
<!-- 1436184584000 -->
<g id="node88" class="node"><title>1436184584000</title>
<ellipse fill="none" stroke="black" cx="2767.81" cy="-90" rx="78.5434" ry="18"/>
<text text-anchor="middle" x="2767.81" y="-86.5" font-family="Times New Roman,serif" font-size="15.00">Appeal to Judge</text>
</g>
<!-- 1436184583328&#45;&#45;1436184584000 -->
<g id="edge78" class="edge"><title>1436184583328&#45;&#45;1436184584000</title>
<path fill="none" stroke="black" d="M2767.81,-143.697C2767.81,-132.846 2767.81,-118.917 2767.81,-108.104"/>
</g>
<!-- 1436184583664 -->
<g id="node89" class="node"><title>1436184583664</title>
<ellipse fill="none" stroke="black" cx="2909.81" cy="-90" rx="45.7249" ry="18"/>
<text text-anchor="middle" x="2909.81" y="-86.5" font-family="Times New Roman,serif" font-size="15.00">Payment</text>
</g>
<!-- 1436184583328&#45;&#45;1436184583664 -->
<g id="edge79" class="edge"><title>1436184583328&#45;&#45;1436184583664</title>
<path fill="none" stroke="black" d="M2789.07,-150.52C2813.91,-138.277 2855.06,-117.99 2882.31,-104.558"/>
</g>
<!-- 1436184580304 -->
<g id="node92" class="node"><title>1436184580304</title>
<ellipse fill="black" stroke="black" cx="1995.81" cy="-450" rx="2.7" ry="2.7"/>
</g>
<!-- 1436179414032&#45;&#45;1436184580304 -->
<g id="edge87" class="edge"><title>1436179414032&#45;&#45;1436184580304</title>
<path fill="none" stroke="black" d="M1995.81,-503.697C1995.81,-485.883 1995.81,-459.769 1995.81,-452.776"/>
</g>
<!-- 1436184581072 -->
<g id="node93" class="node"><title>1436184581072</title>
<ellipse fill="none" stroke="black" cx="2137.81" cy="-450" rx="120.819" ry="18"/>
<text text-anchor="middle" x="2137.81" y="-446.5" font-family="Times New Roman,serif" font-size="15.00">Send for Credit Collection</text>
</g>
<!-- 1436179414032&#45;&#45;1436184581072 -->
<g id="edge88" class="edge"><title>1436179414032&#45;&#45;1436184581072</title>
<path fill="none" stroke="black" d="M2017.07,-510.52C2040.2,-499.116 2077.49,-480.733 2104.52,-467.412"/>
</g>
</g>
</svg>
