<?xml version="1.0" encoding="UTF-8" standalone="no"?>
<!DOCTYPE svg PUBLIC "-//W3C//DTD SVG 1.1//EN"
 "http://www.w3.org/Graphics/SVG/1.1/DTD/svg11.dtd">
<!-- Generated by graphviz version 2.38.0 (20140413.2041)
 -->
<!-- Title: pt Pages: 1 -->
<svg width="978pt" height="908pt"
 viewBox="0.00 0.00 977.72 908.00" xmlns="http://www.w3.org/2000/svg" xmlns:xlink="http://www.w3.org/1999/xlink">
<g id="graph0" class="graph" transform="scale(1 1) rotate(0) translate(4 904)">
<title>pt</title>
<!-- 2529192728992 -->
<g id="node1" class="node"><title>2529192728992</title>
<ellipse fill="none" stroke="black" cx="206.811" cy="-882" rx="27" ry="18"/>
<text text-anchor="middle" x="206.811" y="-878.5" font-family="Times New Roman,serif" font-size="15.00">seq</text>
</g>
<!-- 2529192727648 -->
<g id="node2" class="node"><title>2529192727648</title>
<ellipse fill="none" stroke="black" cx="65.8111" cy="-810" rx="59.5207" ry="18"/>
<text text-anchor="middle" x="65.8111" y="-806.5" font-family="Times New Roman,serif" font-size="15.00">Create Fine</text>
</g>
<!-- 2529192728992&#45;&#45;2529192727648 -->
<g id="edge1" class="edge"><title>2529192728992&#45;&#45;2529192727648</title>
<path fill="none" stroke="black" d="M185.702,-870.52C161.733,-858.621 122.456,-839.122 95.4283,-825.704"/>
</g>
<!-- 2529185172640 -->
<g id="node3" class="node"><title>2529185172640</title>
<ellipse fill="none" stroke="black" cx="170.811" cy="-810" rx="27" ry="18"/>
<text text-anchor="middle" x="170.811" y="-806.5" font-family="Times New Roman,serif" font-size="15.00">xor</text>
</g>
<!-- 2529192728992&#45;&#45;2529185172640 -->
<g id="edge6" class="edge"><title>2529192728992&#45;&#45;2529185172640</title>
<path fill="none" stroke="black" d="M198.461,-864.765C192.646,-853.456 184.921,-838.437 179.115,-827.147"/>
</g>
<!-- 2529185173456 -->
<g id="node8" class="node"><title>2529185173456</title>
<ellipse fill="none" stroke="black" cx="242.811" cy="-810" rx="27" ry="18"/>
<text text-anchor="middle" x="242.811" y="-806.5" font-family="Times New Roman,serif" font-size="15.00">xor</text>
</g>
<!-- 2529192728992&#45;&#45;2529185173456 -->
<g id="edge46" class="edge"><title>2529192728992&#45;&#45;2529185173456</title>
<path fill="none" stroke="black" d="M215.161,-864.765C220.977,-853.456 228.701,-838.437 234.507,-827.147"/>
</g>
<!-- 2529007181728 -->
<g id="node48" class="node"><title>2529007181728</title>
<ellipse fill="none" stroke="black" cx="333.811" cy="-810" rx="27" ry="18"/>
<text text-anchor="middle" x="333.811" y="-806.5" font-family="Times New Roman,serif" font-size="15.00">xor</text>
</g>
<!-- 2529192728992&#45;&#45;2529007181728 -->
<g id="edge49" class="edge"><title>2529192728992&#45;&#45;2529007181728</title>
<path fill="none" stroke="black" d="M226.935,-869.908C250.575,-856.878 289.58,-835.379 313.361,-822.272"/>
</g>
<!-- 2529007179328 -->
<g id="node4" class="node"><title>2529007179328</title>
<ellipse fill="black" stroke="black" cx="103.811" cy="-738" rx="2.7" ry="2.7"/>
</g>
<!-- 2529185172640&#45;&#45;2529007179328 -->
<g id="edge2" class="edge"><title>2529185172640&#45;&#45;2529007179328</title>
<path fill="none" stroke="black" d="M156.929,-794.496C139.757,-776.555 111.968,-747.522 105.289,-740.544"/>
</g>
<!-- 2529007180096 -->
<g id="node5" class="node"><title>2529007180096</title>
<ellipse fill="none" stroke="black" cx="170.811" cy="-738" rx="46.6143" ry="18"/>
<text text-anchor="middle" x="170.811" y="-734.5" font-family="Times New Roman,serif" font-size="15.00">xor loop</text>
</g>
<!-- 2529185172640&#45;&#45;2529007180096 -->
<g id="edge5" class="edge"><title>2529185172640&#45;&#45;2529007180096</title>
<path fill="none" stroke="black" d="M170.811,-791.697C170.811,-780.846 170.811,-766.917 170.811,-756.104"/>
</g>
<!-- 2529007181056 -->
<g id="node6" class="node"><title>2529007181056</title>
<ellipse fill="none" stroke="black" cx="120.811" cy="-666" rx="45.7249" ry="18"/>
<text text-anchor="middle" x="120.811" y="-662.5" font-family="Times New Roman,serif" font-size="15.00">Payment</text>
</g>
<!-- 2529007180096&#45;&#45;2529007181056 -->
<g id="edge3" class="edge"><title>2529007180096&#45;&#45;2529007181056</title>
<path fill="none" stroke="black" d="M158.962,-720.411C150.991,-709.252 140.528,-694.604 132.575,-683.47"/>
</g>
<!-- 2529007178944 -->
<g id="node7" class="node"><title>2529007178944</title>
<ellipse fill="black" stroke="black" cx="187.811" cy="-666" rx="2.7" ry="2.7"/>
</g>
<!-- 2529007180096&#45;&#45;2529007178944 -->
<g id="edge4" class="edge"><title>2529007180096&#45;&#45;2529007178944</title>
<path fill="none" stroke="black" d="M174.926,-720.055C179.25,-702.252 185.658,-675.865 187.375,-668.796"/>
</g>
<!-- 2529007179520 -->
<g id="node9" class="node"><title>2529007179520</title>
<ellipse fill="black" stroke="black" cx="237.811" cy="-738" rx="2.7" ry="2.7"/>
</g>
<!-- 2529185173456&#45;&#45;2529007179520 -->
<g id="edge7" class="edge"><title>2529185173456&#45;&#45;2529007179520</title>
<path fill="none" stroke="black" d="M241.575,-791.697C240.303,-773.883 238.437,-747.769 237.938,-740.776"/>
</g>
<!-- 2529007180576 -->
<g id="node10" class="node"><title>2529007180576</title>
<ellipse fill="none" stroke="black" cx="285.811" cy="-738" rx="27" ry="18"/>
<text text-anchor="middle" x="285.811" y="-734.5" font-family="Times New Roman,serif" font-size="15.00">and</text>
</g>
<!-- 2529185173456&#45;&#45;2529007180576 -->
<g id="edge45" class="edge"><title>2529185173456&#45;&#45;2529007180576</title>
<path fill="none" stroke="black" d="M252.568,-793.116C259.606,-781.66 269.064,-766.263 276.092,-754.821"/>
</g>
<!-- 2529007180864 -->
<g id="node11" class="node"><title>2529007180864</title>
<ellipse fill="none" stroke="black" cx="268.811" cy="-666" rx="27" ry="18"/>
<text text-anchor="middle" x="268.811" y="-662.5" font-family="Times New Roman,serif" font-size="15.00">and</text>
</g>
<!-- 2529007180576&#45;&#45;2529007180864 -->
<g id="edge19" class="edge"><title>2529007180576&#45;&#45;2529007180864</title>
<path fill="none" stroke="black" d="M281.696,-720.055C279.062,-709.211 275.655,-695.183 273.006,-684.275"/>
</g>
<!-- 2529007179808 -->
<g id="node23" class="node"><title>2529007179808</title>
<ellipse fill="none" stroke="black" cx="428.811" cy="-666" rx="27" ry="18"/>
<text text-anchor="middle" x="428.811" y="-662.5" font-family="Times New Roman,serif" font-size="15.00">xor</text>
</g>
<!-- 2529007180576&#45;&#45;2529007179808 -->
<g id="edge44" class="edge"><title>2529007180576&#45;&#45;2529007179808</title>
<path fill="none" stroke="black" d="M306.911,-726.671C333.948,-713.437 380.546,-690.626 407.624,-677.371"/>
</g>
<!-- 2529007181008 -->
<g id="node12" class="node"><title>2529007181008</title>
<ellipse fill="none" stroke="black" cx="102.811" cy="-594" rx="46.6143" ry="18"/>
<text text-anchor="middle" x="102.811" y="-590.5" font-family="Times New Roman,serif" font-size="15.00">xor loop</text>
</g>
<!-- 2529007180864&#45;&#45;2529007181008 -->
<g id="edge10" class="edge"><title>2529007180864&#45;&#45;2529007181008</title>
<path fill="none" stroke="black" d="M246.424,-655.559C217.131,-643.207 165.691,-621.516 132.982,-607.723"/>
</g>
<!-- 2529007180672 -->
<g id="node15" class="node"><title>2529007180672</title>
<ellipse fill="none" stroke="black" cx="268.811" cy="-594" rx="27" ry="18"/>
<text text-anchor="middle" x="268.811" y="-590.5" font-family="Times New Roman,serif" font-size="15.00">xor</text>
</g>
<!-- 2529007180864&#45;&#45;2529007180672 -->
<g id="edge18" class="edge"><title>2529007180864&#45;&#45;2529007180672</title>
<path fill="none" stroke="black" d="M268.811,-647.697C268.811,-636.846 268.811,-622.917 268.811,-612.104"/>
</g>
<!-- 2529184734704 -->
<g id="node13" class="node"><title>2529184734704</title>
<ellipse fill="black" stroke="black" cx="35.8111" cy="-522" rx="2.7" ry="2.7"/>
</g>
<!-- 2529007181008&#45;&#45;2529184734704 -->
<g id="edge8" class="edge"><title>2529007181008&#45;&#45;2529184734704</title>
<path fill="none" stroke="black" d="M87.2715,-576.765C69.9531,-558.671 43.5425,-531.078 37.2104,-524.462"/>
</g>
<!-- 2529184734464 -->
<g id="node14" class="node"><title>2529184734464</title>
<ellipse fill="none" stroke="black" cx="102.811" cy="-522" rx="45.7249" ry="18"/>
<text text-anchor="middle" x="102.811" y="-518.5" font-family="Times New Roman,serif" font-size="15.00">Payment</text>
</g>
<!-- 2529007181008&#45;&#45;2529184734464 -->
<g id="edge9" class="edge"><title>2529007181008&#45;&#45;2529184734464</title>
<path fill="none" stroke="black" d="M102.811,-575.697C102.811,-564.846 102.811,-550.917 102.811,-540.104"/>
</g>
<!-- 2529184731488 -->
<g id="node16" class="node"><title>2529184731488</title>
<ellipse fill="none" stroke="black" cx="219.811" cy="-522" rx="52.6228" ry="18"/>
<text text-anchor="middle" x="219.811" y="-518.5" font-family="Times New Roman,serif" font-size="15.00">Send Fine</text>
</g>
<!-- 2529007180672&#45;&#45;2529184731488 -->
<g id="edge11" class="edge"><title>2529007180672&#45;&#45;2529184731488</title>
<path fill="none" stroke="black" d="M257.936,-577.465C250.155,-566.348 239.684,-551.39 231.684,-539.962"/>
</g>
<!-- 2529184731776 -->
<g id="node17" class="node"><title>2529184731776</title>
<ellipse fill="none" stroke="black" cx="317.811" cy="-522" rx="27" ry="18"/>
<text text-anchor="middle" x="317.811" y="-518.5" font-family="Times New Roman,serif" font-size="15.00">seq</text>
</g>
<!-- 2529007180672&#45;&#45;2529184731776 -->
<g id="edge17" class="edge"><title>2529007180672&#45;&#45;2529184731776</title>
<path fill="none" stroke="black" d="M279.686,-577.465C287.806,-565.865 298.854,-550.082 306.967,-538.492"/>
</g>
<!-- 2529184732496 -->
<g id="node18" class="node"><title>2529184732496</title>
<ellipse fill="none" stroke="black" cx="52.8111" cy="-450" rx="52.6228" ry="18"/>
<text text-anchor="middle" x="52.8111" y="-446.5" font-family="Times New Roman,serif" font-size="15.00">Send Fine</text>
</g>
<!-- 2529184731776&#45;&#45;2529184732496 -->
<g id="edge12" class="edge"><title>2529184731776&#45;&#45;2529184732496</title>
<path fill="none" stroke="black" d="M292.88,-514.415C247.012,-502.298 148.866,-476.373 93.3157,-461.699"/>
</g>
<!-- 2529184731200 -->
<g id="node19" class="node"><title>2529184731200</title>
<ellipse fill="none" stroke="black" cx="231.811" cy="-450" rx="107.914" ry="18"/>
<text text-anchor="middle" x="231.811" y="-446.5" font-family="Times New Roman,serif" font-size="15.00">Insert Fine Notification</text>
</g>
<!-- 2529184731776&#45;&#45;2529184731200 -->
<g id="edge13" class="edge"><title>2529184731776&#45;&#45;2529184731200</title>
<path fill="none" stroke="black" d="M301.229,-507.503C287.367,-496.22 267.525,-480.07 252.602,-467.923"/>
</g>
<!-- 2529184733648 -->
<g id="node20" class="node"><title>2529184733648</title>
<ellipse fill="none" stroke="black" cx="403.811" cy="-450" rx="46.6143" ry="18"/>
<text text-anchor="middle" x="403.811" y="-446.5" font-family="Times New Roman,serif" font-size="15.00">xor loop</text>
</g>
<!-- 2529184731776&#45;&#45;2529184733648 -->
<g id="edge16" class="edge"><title>2529184731776&#45;&#45;2529184733648</title>
<path fill="none" stroke="black" d="M334.393,-507.503C348.743,-495.823 369.502,-478.926 384.578,-466.655"/>
</g>
<!-- 2529184732688 -->
<g id="node21" class="node"><title>2529184732688</title>
<ellipse fill="black" stroke="black" cx="362.811" cy="-378" rx="2.7" ry="2.7"/>
</g>
<!-- 2529184733648&#45;&#45;2529184732688 -->
<g id="edge14" class="edge"><title>2529184733648&#45;&#45;2529184732688</title>
<path fill="none" stroke="black" d="M393.886,-432.055C383.458,-414.252 368.004,-387.865 363.863,-380.796"/>
</g>
<!-- 2529184732880 -->
<g id="node22" class="node"><title>2529184732880</title>
<ellipse fill="none" stroke="black" cx="445.811" cy="-378" rx="61.6894" ry="18"/>
<text text-anchor="middle" x="445.811" y="-374.5" font-family="Times New Roman,serif" font-size="15.00">Add penalty</text>
</g>
<!-- 2529184733648&#45;&#45;2529184732880 -->
<g id="edge15" class="edge"><title>2529184733648&#45;&#45;2529184732880</title>
<path fill="none" stroke="black" d="M413.764,-432.411C420.363,-421.414 428.995,-407.027 435.637,-395.956"/>
</g>
<!-- 2529007181632 -->
<g id="node24" class="node"><title>2529007181632</title>
<ellipse fill="black" stroke="black" cx="428.811" cy="-594" rx="2.7" ry="2.7"/>
</g>
<!-- 2529007179808&#45;&#45;2529007181632 -->
<g id="edge20" class="edge"><title>2529007179808&#45;&#45;2529007181632</title>
<path fill="none" stroke="black" d="M428.811,-647.697C428.811,-629.883 428.811,-603.769 428.811,-596.776"/>
</g>
<!-- 2529007178656 -->
<g id="node25" class="node"><title>2529007178656</title>
<ellipse fill="none" stroke="black" cx="546.811" cy="-594" rx="46.6143" ry="18"/>
<text text-anchor="middle" x="546.811" y="-590.5" font-family="Times New Roman,serif" font-size="15.00">xor loop</text>
</g>
<!-- 2529007179808&#45;&#45;2529007178656 -->
<g id="edge43" class="edge"><title>2529007179808&#45;&#45;2529007178656</title>
<path fill="none" stroke="black" d="M448.296,-653.441C468.589,-641.403 500.423,-622.518 522.384,-609.491"/>
</g>
<!-- 2529007181104 -->
<g id="node26" class="node"><title>2529007181104</title>
<ellipse fill="none" stroke="black" cx="546.811" cy="-522" rx="27" ry="18"/>
<text text-anchor="middle" x="546.811" y="-518.5" font-family="Times New Roman,serif" font-size="15.00">xor</text>
</g>
<!-- 2529007178656&#45;&#45;2529007181104 -->
<g id="edge41" class="edge"><title>2529007178656&#45;&#45;2529007181104</title>
<path fill="none" stroke="black" d="M546.811,-575.697C546.811,-564.846 546.811,-550.917 546.811,-540.104"/>
</g>
<!-- 2529007179280 -->
<g id="node47" class="node"><title>2529007179280</title>
<ellipse fill="black" stroke="black" cx="594.811" cy="-522" rx="2.7" ry="2.7"/>
</g>
<!-- 2529007178656&#45;&#45;2529007179280 -->
<g id="edge42" class="edge"><title>2529007178656&#45;&#45;2529007179280</title>
<path fill="none" stroke="black" d="M558.186,-576.411C570.385,-558.622 588.665,-531.962 593.566,-524.816"/>
</g>
<!-- 2529007181248 -->
<g id="node27" class="node"><title>2529007181248</title>
<ellipse fill="none" stroke="black" cx="546.811" cy="-450" rx="78.5434" ry="18"/>
<text text-anchor="middle" x="546.811" y="-446.5" font-family="Times New Roman,serif" font-size="15.00">Appeal to Judge</text>
</g>
<!-- 2529007181104&#45;&#45;2529007181248 -->
<g id="edge21" class="edge"><title>2529007181104&#45;&#45;2529007181248</title>
<path fill="none" stroke="black" d="M546.811,-503.697C546.811,-492.846 546.811,-478.917 546.811,-468.104"/>
</g>
<!-- 2529007178416 -->
<g id="node28" class="node"><title>2529007178416</title>
<ellipse fill="none" stroke="black" cx="670.811" cy="-450" rx="27" ry="18"/>
<text text-anchor="middle" x="670.811" y="-446.5" font-family="Times New Roman,serif" font-size="15.00">seq</text>
</g>
<!-- 2529007181104&#45;&#45;2529007178416 -->
<g id="edge40" class="edge"><title>2529007181104&#45;&#45;2529007178416</title>
<path fill="none" stroke="black" d="M566.734,-509.753C589.874,-496.691 627.819,-475.27 650.938,-462.219"/>
</g>
<!-- 2529184734080 -->
<g id="node29" class="node"><title>2529184734080</title>
<ellipse fill="none" stroke="black" cx="634.811" cy="-378" rx="27" ry="18"/>
<text text-anchor="middle" x="634.811" y="-374.5" font-family="Times New Roman,serif" font-size="15.00">xor</text>
</g>
<!-- 2529007178416&#45;&#45;2529184734080 -->
<g id="edge36" class="edge"><title>2529007178416&#45;&#45;2529184734080</title>
<path fill="none" stroke="black" d="M662.461,-432.765C656.646,-421.456 648.921,-406.437 643.115,-395.147"/>
</g>
<!-- 2529184734848 -->
<g id="node44" class="node"><title>2529184734848</title>
<ellipse fill="none" stroke="black" cx="706.811" cy="-378" rx="27" ry="18"/>
<text text-anchor="middle" x="706.811" y="-374.5" font-family="Times New Roman,serif" font-size="15.00">xor</text>
</g>
<!-- 2529007178416&#45;&#45;2529184734848 -->
<g id="edge39" class="edge"><title>2529007178416&#45;&#45;2529184734848</title>
<path fill="none" stroke="black" d="M679.161,-432.765C684.977,-421.456 692.701,-406.437 698.507,-395.147"/>
</g>
<!-- 2529184734752 -->
<g id="node30" class="node"><title>2529184734752</title>
<ellipse fill="none" stroke="black" cx="450.811" cy="-306" rx="144.571" ry="18"/>
<text text-anchor="middle" x="450.811" y="-302.5" font-family="Times New Roman,serif" font-size="15.00">Insert Date Appeal to Prefecture</text>
</g>
<!-- 2529184734080&#45;&#45;2529184734752 -->
<g id="edge22" class="edge"><title>2529184734080&#45;&#45;2529184734752</title>
<path fill="none" stroke="black" d="M611.879,-368.276C582.4,-357.061 530.625,-337.364 493.735,-323.33"/>
</g>
<!-- 2529184735184 -->
<g id="node31" class="node"><title>2529184735184</title>
<ellipse fill="none" stroke="black" cx="640.811" cy="-306" rx="27" ry="18"/>
<text text-anchor="middle" x="640.811" y="-302.5" font-family="Times New Roman,serif" font-size="15.00">seq</text>
</g>
<!-- 2529184734080&#45;&#45;2529184735184 -->
<g id="edge35" class="edge"><title>2529184734080&#45;&#45;2529184735184</title>
<path fill="none" stroke="black" d="M636.294,-359.697C637.224,-348.846 638.418,-334.917 639.345,-324.104"/>
</g>
<!-- 2529184731584 -->
<g id="node32" class="node"><title>2529184731584</title>
<ellipse fill="none" stroke="black" cx="421.811" cy="-234" rx="173.941" ry="18"/>
<text text-anchor="middle" x="421.811" y="-230.5" font-family="Times New Roman,serif" font-size="15.00">Receive Result Appeal from Prefecture</text>
</g>
<!-- 2529184735184&#45;&#45;2529184731584 -->
<g id="edge23" class="edge"><title>2529184735184&#45;&#45;2529184731584</title>
<path fill="none" stroke="black" d="M616.957,-297.376C582.591,-286.391 518.301,-265.842 472.921,-251.337"/>
</g>
<!-- 2529184731968 -->
<g id="node33" class="node"><title>2529184731968</title>
<ellipse fill="none" stroke="black" cx="640.811" cy="-234" rx="27" ry="18"/>
<text text-anchor="middle" x="640.811" y="-230.5" font-family="Times New Roman,serif" font-size="15.00">xor</text>
</g>
<!-- 2529184735184&#45;&#45;2529184731968 -->
<g id="edge31" class="edge"><title>2529184735184&#45;&#45;2529184731968</title>
<path fill="none" stroke="black" d="M640.811,-287.697C640.811,-276.846 640.811,-262.917 640.811,-252.104"/>
</g>
<!-- 2529184734368 -->
<g id="node41" class="node"><title>2529184734368</title>
<ellipse fill="none" stroke="black" cx="712.811" cy="-234" rx="27" ry="18"/>
<text text-anchor="middle" x="712.811" y="-230.5" font-family="Times New Roman,serif" font-size="15.00">xor</text>
</g>
<!-- 2529184735184&#45;&#45;2529184734368 -->
<g id="edge34" class="edge"><title>2529184735184&#45;&#45;2529184734368</title>
<path fill="none" stroke="black" d="M655.381,-290.834C667.791,-278.77 685.542,-261.512 698.015,-249.385"/>
</g>
<!-- 2529184735088 -->
<g id="node34" class="node"><title>2529184735088</title>
<ellipse fill="black" stroke="black" cx="598.811" cy="-162" rx="2.7" ry="2.7"/>
</g>
<!-- 2529184731968&#45;&#45;2529184735088 -->
<g id="edge24" class="edge"><title>2529184731968&#45;&#45;2529184735088</title>
<path fill="none" stroke="black" d="M631.281,-217.116C620.631,-199.367 604.306,-172.158 599.925,-164.857"/>
</g>
<!-- 2529184732784 -->
<g id="node35" class="node"><title>2529184732784</title>
<ellipse fill="none" stroke="black" cx="646.811" cy="-162" rx="27" ry="18"/>
<text text-anchor="middle" x="646.811" y="-158.5" font-family="Times New Roman,serif" font-size="15.00">seq</text>
</g>
<!-- 2529184731968&#45;&#45;2529184732784 -->
<g id="edge30" class="edge"><title>2529184731968&#45;&#45;2529184732784</title>
<path fill="none" stroke="black" d="M642.294,-215.697C643.224,-204.846 644.418,-190.917 645.345,-180.104"/>
</g>
<!-- 2529184733792 -->
<g id="node36" class="node"><title>2529184733792</title>
<ellipse fill="none" stroke="black" cx="549.811" cy="-90" rx="27" ry="18"/>
<text text-anchor="middle" x="549.811" y="-86.5" font-family="Times New Roman,serif" font-size="15.00">xor</text>
</g>
<!-- 2529184732784&#45;&#45;2529184733792 -->
<g id="edge28" class="edge"><title>2529184732784&#45;&#45;2529184733792</title>
<path fill="none" stroke="black" d="M629.02,-148.161C611.518,-135.531 584.952,-116.36 567.49,-103.758"/>
</g>
<!-- 2529184734224 -->
<g id="node40" class="node"><title>2529184734224</title>
<ellipse fill="none" stroke="black" cx="743.811" cy="-90" rx="148.91" ry="18"/>
<text text-anchor="middle" x="743.811" y="-86.5" font-family="Times New Roman,serif" font-size="15.00">Notify Result Appeal to Offender</text>
</g>
<!-- 2529184732784&#45;&#45;2529184734224 -->
<g id="edge29" class="edge"><title>2529184732784&#45;&#45;2529184734224</title>
<path fill="none" stroke="black" d="M664.602,-148.161C680.245,-136.873 703.127,-120.36 720.28,-107.981"/>
</g>
<!-- 2529184731920 -->
<g id="node37" class="node"><title>2529184731920</title>
<ellipse fill="black" stroke="black" cx="450.811" cy="-18" rx="2.7" ry="2.7"/>
</g>
<!-- 2529184733792&#45;&#45;2529184731920 -->
<g id="edge25" class="edge"><title>2529184733792&#45;&#45;2529184731920</title>
<path fill="none" stroke="black" d="M531.653,-76.1609C506.198,-58.1628 461.96,-26.8831 452.587,-20.2559"/>
</g>
<!-- 2529184734656 -->
<g id="node38" class="node"><title>2529184734656</title>
<ellipse fill="none" stroke="black" cx="549.811" cy="-18" rx="78.5434" ry="18"/>
<text text-anchor="middle" x="549.811" y="-14.5" font-family="Times New Roman,serif" font-size="15.00">Appeal to Judge</text>
</g>
<!-- 2529184733792&#45;&#45;2529184734656 -->
<g id="edge26" class="edge"><title>2529184733792&#45;&#45;2529184734656</title>
<path fill="none" stroke="black" d="M549.811,-71.6966C549.811,-60.8463 549.811,-46.9167 549.811,-36.1043"/>
</g>
<!-- 2529184732112 -->
<g id="node39" class="node"><title>2529184732112</title>
<ellipse fill="none" stroke="black" cx="766.811" cy="-18" rx="120.43" ry="18"/>
<text text-anchor="middle" x="766.811" y="-14.5" font-family="Times New Roman,serif" font-size="15.00">Send Appeal to Prefecture</text>
</g>
<!-- 2529184733792&#45;&#45;2529184732112 -->
<g id="edge27" class="edge"><title>2529184733792&#45;&#45;2529184732112</title>
<path fill="none" stroke="black" d="M573.863,-81.2413C608.623,-70.0285 673.645,-49.0535 718.536,-34.5726"/>
</g>
<!-- 2529184734320 -->
<g id="node42" class="node"><title>2529184734320</title>
<ellipse fill="black" stroke="black" cx="706.811" cy="-162" rx="2.7" ry="2.7"/>
</g>
<!-- 2529184734368&#45;&#45;2529184734320 -->
<g id="edge32" class="edge"><title>2529184734368&#45;&#45;2529184734320</title>
<path fill="none" stroke="black" d="M711.328,-215.697C709.801,-197.883 707.563,-171.769 706.963,-164.776"/>
</g>
<!-- 2529184731536 -->
<g id="node43" class="node"><title>2529184731536</title>
<ellipse fill="none" stroke="black" cx="848.811" cy="-162" rx="120.819" ry="18"/>
<text text-anchor="middle" x="848.811" y="-158.5" font-family="Times New Roman,serif" font-size="15.00">Send for Credit Collection</text>
</g>
<!-- 2529184734368&#45;&#45;2529184731536 -->
<g id="edge33" class="edge"><title>2529184734368&#45;&#45;2529184731536</title>
<path fill="none" stroke="black" d="M733.467,-222.369C755.61,-210.971 791.051,-192.729 816.81,-179.471"/>
</g>
<!-- 2529184731344 -->
<g id="node45" class="node"><title>2529184731344</title>
<ellipse fill="black" stroke="black" cx="700.811" cy="-306" rx="2.7" ry="2.7"/>
</g>
<!-- 2529184734848&#45;&#45;2529184731344 -->
<g id="edge37" class="edge"><title>2529184734848&#45;&#45;2529184731344</title>
<path fill="none" stroke="black" d="M705.328,-359.697C703.801,-341.883 701.563,-315.769 700.963,-308.776"/>
</g>
<!-- 2529184731728 -->
<g id="node46" class="node"><title>2529184731728</title>
<ellipse fill="none" stroke="black" cx="841.811" cy="-306" rx="120.43" ry="18"/>
<text text-anchor="middle" x="841.811" y="-302.5" font-family="Times New Roman,serif" font-size="15.00">Send Appeal to Prefecture</text>
</g>
<!-- 2529184734848&#45;&#45;2529184731728 -->
<g id="edge38" class="edge"><title>2529184734848&#45;&#45;2529184731728</title>
<path fill="none" stroke="black" d="M727.609,-366.216C749.65,-354.787 784.721,-336.602 810.188,-323.397"/>
</g>
<!-- 2529007179136 -->
<g id="node49" class="node"><title>2529007179136</title>
<ellipse fill="black" stroke="black" cx="333.811" cy="-738" rx="2.7" ry="2.7"/>
</g>
<!-- 2529007181728&#45;&#45;2529007179136 -->
<g id="edge47" class="edge"><title>2529007181728&#45;&#45;2529007179136</title>
<path fill="none" stroke="black" d="M333.811,-791.697C333.811,-773.883 333.811,-747.769 333.811,-740.776"/>
</g>
<!-- 2529007181488 -->
<g id="node50" class="node"><title>2529007181488</title>
<ellipse fill="none" stroke="black" cx="475.811" cy="-738" rx="120.819" ry="18"/>
<text text-anchor="middle" x="475.811" y="-734.5" font-family="Times New Roman,serif" font-size="15.00">Send for Credit Collection</text>
</g>
<!-- 2529007181728&#45;&#45;2529007181488 -->
<g id="edge48" class="edge"><title>2529007181728&#45;&#45;2529007181488</title>
<path fill="none" stroke="black" d="M355.07,-798.52C378.203,-787.116 415.495,-768.733 442.519,-755.412"/>
</g>
</g>
</svg>
