<?xml version="1.0" encoding="UTF-8" standalone="no"?>
<!DOCTYPE svg PUBLIC "-//W3C//DTD SVG 1.1//EN"
 "http://www.w3.org/Graphics/SVG/1.1/DTD/svg11.dtd">
<!-- Generated by graphviz version 2.38.0 (20140413.2041)
 -->
<!-- Title: pt Pages: 1 -->
<svg width="1582pt" height="620pt"
 viewBox="0.00 0.00 1581.91 620.00" xmlns="http://www.w3.org/2000/svg" xmlns:xlink="http://www.w3.org/1999/xlink">
<g id="graph0" class="graph" transform="scale(1 1) rotate(0) translate(4 616)">
<title>pt</title>
<!-- 1436170892432 -->
<g id="node1" class="node"><title>1436170892432</title>
<ellipse fill="none" stroke="black" cx="300.7" cy="-594" rx="27" ry="18"/>
<text text-anchor="middle" x="300.7" y="-590.5" font-family="Times New Roman,serif" font-size="15.00">and</text>
</g>
<!-- 1436170893008 -->
<g id="node2" class="node"><title>1436170893008</title>
<ellipse fill="none" stroke="black" cx="210.7" cy="-522" rx="27" ry="18"/>
<text text-anchor="middle" x="210.7" y="-518.5" font-family="Times New Roman,serif" font-size="15.00">xor</text>
</g>
<!-- 1436170892432&#45;&#45;1436170893008 -->
<g id="edge15" class="edge"><title>1436170892432&#45;&#45;1436170893008</title>
<path fill="none" stroke="black" d="M283.772,-579.834C267.681,-567.319 243.618,-548.603 227.552,-536.107"/>
</g>
<!-- 1436170892816 -->
<g id="node17" class="node"><title>1436170892816</title>
<ellipse fill="none" stroke="black" cx="390.7" cy="-522" rx="27" ry="18"/>
<text text-anchor="middle" x="390.7" y="-518.5" font-family="Times New Roman,serif" font-size="15.00">seq</text>
</g>
<!-- 1436170892432&#45;&#45;1436170892816 -->
<g id="edge42" class="edge"><title>1436170892432&#45;&#45;1436170892816</title>
<path fill="none" stroke="black" d="M317.628,-579.834C333.719,-567.319 357.782,-548.603 373.848,-536.107"/>
</g>
<!-- 1436170891760 -->
<g id="node3" class="node"><title>1436170891760</title>
<ellipse fill="black" stroke="black" cx="162.7" cy="-450" rx="2.7" ry="2.7"/>
</g>
<!-- 1436170893008&#45;&#45;1436170891760 -->
<g id="edge1" class="edge"><title>1436170893008&#45;&#45;1436170891760</title>
<path fill="none" stroke="black" d="M199.808,-505.116C187.638,-487.367 168.98,-460.158 163.973,-452.857"/>
</g>
<!-- 1436170892096 -->
<g id="node4" class="node"><title>1436170892096</title>
<ellipse fill="none" stroke="black" cx="210.7" cy="-450" rx="27" ry="18"/>
<text text-anchor="middle" x="210.7" y="-446.5" font-family="Times New Roman,serif" font-size="15.00">and</text>
</g>
<!-- 1436170893008&#45;&#45;1436170892096 -->
<g id="edge14" class="edge"><title>1436170893008&#45;&#45;1436170892096</title>
<path fill="none" stroke="black" d="M210.7,-503.697C210.7,-492.846 210.7,-478.917 210.7,-468.104"/>
</g>
<!-- 1436171494688 -->
<g id="node5" class="node"><title>1436171494688</title>
<ellipse fill="none" stroke="black" cx="69.7" cy="-378" rx="46.6143" ry="18"/>
<text text-anchor="middle" x="69.7" y="-374.5" font-family="Times New Roman,serif" font-size="15.00">xor loop</text>
</g>
<!-- 1436170892096&#45;&#45;1436171494688 -->
<g id="edge4" class="edge"><title>1436170892096&#45;&#45;1436171494688</title>
<path fill="none" stroke="black" d="M189.591,-438.52C165.007,-426.316 124.321,-406.117 97.2629,-392.684"/>
</g>
<!-- 1436171494640 -->
<g id="node8" class="node"><title>1436171494640</title>
<ellipse fill="none" stroke="black" cx="210.7" cy="-378" rx="27" ry="18"/>
<text text-anchor="middle" x="210.7" y="-374.5" font-family="Times New Roman,serif" font-size="15.00">xor</text>
</g>
<!-- 1436170892096&#45;&#45;1436171494640 -->
<g id="edge13" class="edge"><title>1436170892096&#45;&#45;1436171494640</title>
<path fill="none" stroke="black" d="M210.7,-431.697C210.7,-420.846 210.7,-406.917 210.7,-396.104"/>
</g>
<!-- 1436171493920 -->
<g id="node6" class="node"><title>1436171493920</title>
<ellipse fill="black" stroke="black" cx="2.7" cy="-306" rx="2.7" ry="2.7"/>
</g>
<!-- 1436171494688&#45;&#45;1436171493920 -->
<g id="edge2" class="edge"><title>1436171494688&#45;&#45;1436171493920</title>
<path fill="none" stroke="black" d="M54.1604,-360.765C36.842,-342.671 10.4314,-315.078 4.09939,-308.462"/>
</g>
<!-- 1436171493728 -->
<g id="node7" class="node"><title>1436171493728</title>
<ellipse fill="none" stroke="black" cx="69.7" cy="-306" rx="45.7249" ry="18"/>
<text text-anchor="middle" x="69.7" y="-302.5" font-family="Times New Roman,serif" font-size="15.00">Payment</text>
</g>
<!-- 1436171494688&#45;&#45;1436171493728 -->
<g id="edge3" class="edge"><title>1436171494688&#45;&#45;1436171493728</title>
<path fill="none" stroke="black" d="M69.7,-359.697C69.7,-348.846 69.7,-334.917 69.7,-324.104"/>
</g>
<!-- 1436171495072 -->
<g id="node9" class="node"><title>1436171495072</title>
<ellipse fill="black" stroke="black" cx="136.7" cy="-306" rx="2.7" ry="2.7"/>
</g>
<!-- 1436171494640&#45;&#45;1436171495072 -->
<g id="edge5" class="edge"><title>1436171494640&#45;&#45;1436171495072</title>
<path fill="none" stroke="black" d="M195.725,-362.834C176.805,-344.937 145.804,-315.612 138.349,-308.56"/>
</g>
<!-- 1436171495168 -->
<g id="node10" class="node"><title>1436171495168</title>
<ellipse fill="none" stroke="black" cx="210.7" cy="-306" rx="52.6228" ry="18"/>
<text text-anchor="middle" x="210.7" y="-302.5" font-family="Times New Roman,serif" font-size="15.00">Send Fine</text>
</g>
<!-- 1436171494640&#45;&#45;1436171495168 -->
<g id="edge6" class="edge"><title>1436171494640&#45;&#45;1436171495168</title>
<path fill="none" stroke="black" d="M210.7,-359.697C210.7,-348.846 210.7,-334.917 210.7,-324.104"/>
</g>
<!-- 1436171494448 -->
<g id="node11" class="node"><title>1436171494448</title>
<ellipse fill="none" stroke="black" cx="308.7" cy="-306" rx="27" ry="18"/>
<text text-anchor="middle" x="308.7" y="-302.5" font-family="Times New Roman,serif" font-size="15.00">seq</text>
</g>
<!-- 1436171494640&#45;&#45;1436171494448 -->
<g id="edge12" class="edge"><title>1436171494640&#45;&#45;1436171494448</title>
<path fill="none" stroke="black" d="M228.675,-364.161C246.357,-351.531 273.196,-332.36 290.839,-319.758"/>
</g>
<!-- 1436171494064 -->
<g id="node12" class="node"><title>1436171494064</title>
<ellipse fill="none" stroke="black" cx="124.7" cy="-234" rx="52.6228" ry="18"/>
<text text-anchor="middle" x="124.7" y="-230.5" font-family="Times New Roman,serif" font-size="15.00">Send Fine</text>
</g>
<!-- 1436171494448&#45;&#45;1436171494064 -->
<g id="edge7" class="edge"><title>1436171494448&#45;&#45;1436171494064</title>
<path fill="none" stroke="black" d="M285.768,-296.276C253.784,-284.108 195.555,-261.956 158.566,-247.884"/>
</g>
<!-- 1436171495600 -->
<g id="node13" class="node"><title>1436171495600</title>
<ellipse fill="none" stroke="black" cx="303.7" cy="-234" rx="107.914" ry="18"/>
<text text-anchor="middle" x="303.7" y="-230.5" font-family="Times New Roman,serif" font-size="15.00">Insert Fine Notification</text>
</g>
<!-- 1436171494448&#45;&#45;1436171495600 -->
<g id="edge8" class="edge"><title>1436171494448&#45;&#45;1436171495600</title>
<path fill="none" stroke="black" d="M307.464,-287.697C306.689,-276.846 305.694,-262.917 304.922,-252.104"/>
</g>
<!-- 1436171493968 -->
<g id="node14" class="node"><title>1436171493968</title>
<ellipse fill="none" stroke="black" cx="475.7" cy="-234" rx="46.6143" ry="18"/>
<text text-anchor="middle" x="475.7" y="-230.5" font-family="Times New Roman,serif" font-size="15.00">xor loop</text>
</g>
<!-- 1436171494448&#45;&#45;1436171493968 -->
<g id="edge11" class="edge"><title>1436171494448&#45;&#45;1436171493968</title>
<path fill="none" stroke="black" d="M330.876,-295.705C360.244,-283.395 412.168,-261.63 445.21,-247.78"/>
</g>
<!-- 1436171496080 -->
<g id="node15" class="node"><title>1436171496080</title>
<ellipse fill="black" stroke="black" cx="392.7" cy="-162" rx="2.7" ry="2.7"/>
</g>
<!-- 1436171493968&#45;&#45;1436171496080 -->
<g id="edge9" class="edge"><title>1436171493968&#45;&#45;1436171496080</title>
<path fill="none" stroke="black" d="M457.28,-217.465C435.884,-199.42 402.487,-171.254 394.472,-164.494"/>
</g>
<!-- 1436171495504 -->
<g id="node16" class="node"><title>1436171495504</title>
<ellipse fill="none" stroke="black" cx="475.7" cy="-162" rx="61.6894" ry="18"/>
<text text-anchor="middle" x="475.7" y="-158.5" font-family="Times New Roman,serif" font-size="15.00">Add penalty</text>
</g>
<!-- 1436171493968&#45;&#45;1436171495504 -->
<g id="edge10" class="edge"><title>1436171493968&#45;&#45;1436171495504</title>
<path fill="none" stroke="black" d="M475.7,-215.697C475.7,-204.846 475.7,-190.917 475.7,-180.104"/>
</g>
<!-- 1436170893344 -->
<g id="node18" class="node"><title>1436170893344</title>
<ellipse fill="none" stroke="black" cx="338.7" cy="-450" rx="59.5207" ry="18"/>
<text text-anchor="middle" x="338.7" y="-446.5" font-family="Times New Roman,serif" font-size="15.00">Create Fine</text>
</g>
<!-- 1436170892816&#45;&#45;1436170893344 -->
<g id="edge16" class="edge"><title>1436170892816&#45;&#45;1436170893344</title>
<path fill="none" stroke="black" d="M379.16,-505.465C370.901,-494.348 359.789,-479.39 351.3,-467.962"/>
</g>
<!-- 1436170894832 -->
<g id="node19" class="node"><title>1436170894832</title>
<ellipse fill="none" stroke="black" cx="443.7" cy="-450" rx="27" ry="18"/>
<text text-anchor="middle" x="443.7" y="-446.5" font-family="Times New Roman,serif" font-size="15.00">and</text>
</g>
<!-- 1436170892816&#45;&#45;1436170894832 -->
<g id="edge38" class="edge"><title>1436170892816&#45;&#45;1436170894832</title>
<path fill="none" stroke="black" d="M402.462,-505.465C411.245,-493.865 423.195,-478.082 431.97,-466.492"/>
</g>
<!-- 1436170894304 -->
<g id="node41" class="node"><title>1436170894304</title>
<ellipse fill="none" stroke="black" cx="572.7" cy="-450" rx="27" ry="18"/>
<text text-anchor="middle" x="572.7" y="-446.5" font-family="Times New Roman,serif" font-size="15.00">xor</text>
</g>
<!-- 1436170892816&#45;&#45;1436170894304 -->
<g id="edge41" class="edge"><title>1436170892816&#45;&#45;1436170894304</title>
<path fill="none" stroke="black" d="M413.75,-512.134C448.759,-498.67 514.94,-473.215 549.837,-459.794"/>
</g>
<!-- 1436170894400 -->
<g id="node20" class="node"><title>1436170894400</title>
<ellipse fill="none" stroke="black" cx="432.7" cy="-378" rx="46.6143" ry="18"/>
<text text-anchor="middle" x="432.7" y="-374.5" font-family="Times New Roman,serif" font-size="15.00">xor loop</text>
</g>
<!-- 1436170894832&#45;&#45;1436170894400 -->
<g id="edge19" class="edge"><title>1436170894832&#45;&#45;1436170894400</title>
<path fill="none" stroke="black" d="M441.037,-432.055C439.333,-421.211 437.129,-407.183 435.415,-396.275"/>
</g>
<!-- 1436170895024 -->
<g id="node23" class="node"><title>1436170895024</title>
<ellipse fill="none" stroke="black" cx="524.7" cy="-378" rx="27" ry="18"/>
<text text-anchor="middle" x="524.7" y="-374.5" font-family="Times New Roman,serif" font-size="15.00">xor</text>
</g>
<!-- 1436170894832&#45;&#45;1436170895024 -->
<g id="edge37" class="edge"><title>1436170894832&#45;&#45;1436170895024</title>
<path fill="none" stroke="black" d="M459.703,-435.17C473.903,-422.898 494.54,-405.064 508.73,-392.801"/>
</g>
<!-- 1436170895072 -->
<g id="node21" class="node"><title>1436170895072</title>
<ellipse fill="black" stroke="black" cx="372.7" cy="-306" rx="2.7" ry="2.7"/>
</g>
<!-- 1436170894400&#45;&#45;1436170895072 -->
<g id="edge17" class="edge"><title>1436170894400&#45;&#45;1436170895072</title>
<path fill="none" stroke="black" d="M418.784,-360.765C403.275,-342.671 379.624,-315.078 373.953,-308.462"/>
</g>
<!-- 1436170894880 -->
<g id="node22" class="node"><title>1436170894880</title>
<ellipse fill="none" stroke="black" cx="439.7" cy="-306" rx="45.7249" ry="18"/>
<text text-anchor="middle" x="439.7" y="-302.5" font-family="Times New Roman,serif" font-size="15.00">Payment</text>
</g>
<!-- 1436170894400&#45;&#45;1436170894880 -->
<g id="edge18" class="edge"><title>1436170894400&#45;&#45;1436170894880</title>
<path fill="none" stroke="black" d="M434.43,-359.697C435.515,-348.846 436.908,-334.917 437.99,-324.104"/>
</g>
<!-- 1436170894592 -->
<g id="node24" class="node"><title>1436170894592</title>
<ellipse fill="black" stroke="black" cx="512.7" cy="-306" rx="2.7" ry="2.7"/>
</g>
<!-- 1436170895024&#45;&#45;1436170894592 -->
<g id="edge20" class="edge"><title>1436170895024&#45;&#45;1436170894592</title>
<path fill="none" stroke="black" d="M521.795,-360.055C518.743,-342.252 514.22,-315.865 513.008,-308.796"/>
</g>
<!-- 1436170893680 -->
<g id="node25" class="node"><title>1436170893680</title>
<ellipse fill="none" stroke="black" cx="586.7" cy="-306" rx="52.6228" ry="18"/>
<text text-anchor="middle" x="586.7" y="-302.5" font-family="Times New Roman,serif" font-size="15.00">Send Fine</text>
</g>
<!-- 1436170895024&#45;&#45;1436170893680 -->
<g id="edge21" class="edge"><title>1436170895024&#45;&#45;1436170893680</title>
<path fill="none" stroke="black" d="M537.849,-362.155C547.801,-350.918 561.478,-335.476 571.83,-323.789"/>
</g>
<!-- 1436170894112 -->
<g id="node26" class="node"><title>1436170894112</title>
<ellipse fill="none" stroke="black" cx="703.7" cy="-306" rx="27" ry="18"/>
<text text-anchor="middle" x="703.7" y="-302.5" font-family="Times New Roman,serif" font-size="15.00">seq</text>
</g>
<!-- 1436170895024&#45;&#45;1436170894112 -->
<g id="edge36" class="edge"><title>1436170895024&#45;&#45;1436170894112</title>
<path fill="none" stroke="black" d="M547.37,-368.134C581.708,-354.706 646.536,-329.355 680.932,-315.904"/>
</g>
<!-- 1436170893104 -->
<g id="node27" class="node"><title>1436170893104</title>
<ellipse fill="none" stroke="black" cx="703.7" cy="-234" rx="52.6228" ry="18"/>
<text text-anchor="middle" x="703.7" y="-230.5" font-family="Times New Roman,serif" font-size="15.00">Send Fine</text>
</g>
<!-- 1436170894112&#45;&#45;1436170893104 -->
<g id="edge22" class="edge"><title>1436170894112&#45;&#45;1436170893104</title>
<path fill="none" stroke="black" d="M703.7,-287.697C703.7,-276.846 703.7,-262.917 703.7,-252.104"/>
</g>
<!-- 1436170893488 -->
<g id="node28" class="node"><title>1436170893488</title>
<ellipse fill="none" stroke="black" cx="811.7" cy="-234" rx="27" ry="18"/>
<text text-anchor="middle" x="811.7" y="-230.5" font-family="Times New Roman,serif" font-size="15.00">seq</text>
</g>
<!-- 1436170894112&#45;&#45;1436170893488 -->
<g id="edge35" class="edge"><title>1436170894112&#45;&#45;1436170893488</title>
<path fill="none" stroke="black" d="M722.512,-292.807C742.335,-279.959 773.362,-259.848 793.103,-247.053"/>
</g>
<!-- 1436170892144 -->
<g id="node29" class="node"><title>1436170892144</title>
<ellipse fill="none" stroke="black" cx="663.7" cy="-162" rx="107.914" ry="18"/>
<text text-anchor="middle" x="663.7" y="-158.5" font-family="Times New Roman,serif" font-size="15.00">Insert Fine Notification</text>
</g>
<!-- 1436170893488&#45;&#45;1436170892144 -->
<g id="edge23" class="edge"><title>1436170893488&#45;&#45;1436170892144</title>
<path fill="none" stroke="black" d="M790.18,-222.821C765.968,-211.37 726.314,-192.615 697.859,-179.156"/>
</g>
<!-- 1436170892000 -->
<g id="node30" class="node"><title>1436170892000</title>
<ellipse fill="none" stroke="black" cx="816.7" cy="-162" rx="27" ry="18"/>
<text text-anchor="middle" x="816.7" y="-158.5" font-family="Times New Roman,serif" font-size="15.00">xor</text>
</g>
<!-- 1436170893488&#45;&#45;1436170892000 -->
<g id="edge26" class="edge"><title>1436170893488&#45;&#45;1436170892000</title>
<path fill="none" stroke="black" d="M812.936,-215.697C813.711,-204.846 814.706,-190.917 815.478,-180.104"/>
</g>
<!-- 1436170891952 -->
<g id="node33" class="node"><title>1436170891952</title>
<ellipse fill="none" stroke="black" cx="1094.7" cy="-162" rx="27" ry="18"/>
<text text-anchor="middle" x="1094.7" y="-158.5" font-family="Times New Roman,serif" font-size="15.00">seq</text>
</g>
<!-- 1436170893488&#45;&#45;1436170891952 -->
<g id="edge34" class="edge"><title>1436170893488&#45;&#45;1436170891952</title>
<path fill="none" stroke="black" d="M836.814,-226.788C890.518,-213.504 1015.99,-182.469 1069.64,-169.198"/>
</g>
<!-- 1436170891424 -->
<g id="node31" class="node"><title>1436170891424</title>
<ellipse fill="black" stroke="black" cx="651.7" cy="-90" rx="2.7" ry="2.7"/>
</g>
<!-- 1436170892000&#45;&#45;1436170891424 -->
<g id="edge24" class="edge"><title>1436170892000&#45;&#45;1436170891424</title>
<path fill="none" stroke="black" d="M794.447,-151.559C753.28,-134.094 668.105,-97.9596 653.769,-91.8779"/>
</g>
<!-- 1436170891328 -->
<g id="node32" class="node"><title>1436170891328</title>
<ellipse fill="none" stroke="black" cx="816.7" cy="-90" rx="144.571" ry="18"/>
<text text-anchor="middle" x="816.7" y="-86.5" font-family="Times New Roman,serif" font-size="15.00">Insert Date Appeal to Prefecture</text>
</g>
<!-- 1436170892000&#45;&#45;1436170891328 -->
<g id="edge25" class="edge"><title>1436170892000&#45;&#45;1436170891328</title>
<path fill="none" stroke="black" d="M816.7,-143.697C816.7,-132.846 816.7,-118.917 816.7,-108.104"/>
</g>
<!-- 1436170892384 -->
<g id="node34" class="node"><title>1436170892384</title>
<ellipse fill="none" stroke="black" cx="1040.7" cy="-90" rx="61.6894" ry="18"/>
<text text-anchor="middle" x="1040.7" y="-86.5" font-family="Times New Roman,serif" font-size="15.00">Add penalty</text>
</g>
<!-- 1436170891952&#45;&#45;1436170892384 -->
<g id="edge27" class="edge"><title>1436170891952&#45;&#45;1436170892384</title>
<path fill="none" stroke="black" d="M1082.72,-145.465C1074.14,-134.348 1062.6,-119.39 1053.78,-107.962"/>
</g>
<!-- 1436171154240 -->
<g id="node35" class="node"><title>1436171154240</title>
<ellipse fill="none" stroke="black" cx="1147.7" cy="-90" rx="27" ry="18"/>
<text text-anchor="middle" x="1147.7" y="-86.5" font-family="Times New Roman,serif" font-size="15.00">xor</text>
</g>
<!-- 1436170891952&#45;&#45;1436171154240 -->
<g id="edge30" class="edge"><title>1436170891952&#45;&#45;1436171154240</title>
<path fill="none" stroke="black" d="M1106.46,-145.465C1115.25,-133.865 1127.2,-118.082 1135.97,-106.492"/>
</g>
<!-- 1436170893872 -->
<g id="node38" class="node"><title>1436170893872</title>
<ellipse fill="none" stroke="black" cx="1312.7" cy="-90" rx="27" ry="18"/>
<text text-anchor="middle" x="1312.7" y="-86.5" font-family="Times New Roman,serif" font-size="15.00">xor</text>
</g>
<!-- 1436170891952&#45;&#45;1436170893872 -->
<g id="edge33" class="edge"><title>1436170891952&#45;&#45;1436170893872</title>
<path fill="none" stroke="black" d="M1118.44,-153.376C1160.38,-139.91 1247.07,-112.073 1288.98,-98.6151"/>
</g>
<!-- 1436171494352 -->
<g id="node36" class="node"><title>1436171494352</title>
<ellipse fill="black" stroke="black" cx="982.7" cy="-18" rx="2.7" ry="2.7"/>
</g>
<!-- 1436171154240&#45;&#45;1436171494352 -->
<g id="edge28" class="edge"><title>1436171154240&#45;&#45;1436171494352</title>
<path fill="none" stroke="black" d="M1125.45,-79.5595C1084.28,-62.0945 999.105,-25.9596 984.769,-19.8779"/>
</g>
<!-- 1436171495744 -->
<g id="node37" class="node"><title>1436171495744</title>
<ellipse fill="none" stroke="black" cx="1147.7" cy="-18" rx="144.571" ry="18"/>
<text text-anchor="middle" x="1147.7" y="-14.5" font-family="Times New Roman,serif" font-size="15.00">Insert Date Appeal to Prefecture</text>
</g>
<!-- 1436171154240&#45;&#45;1436171495744 -->
<g id="edge29" class="edge"><title>1436171154240&#45;&#45;1436171495744</title>
<path fill="none" stroke="black" d="M1147.7,-71.6966C1147.7,-60.8463 1147.7,-46.9167 1147.7,-36.1043"/>
</g>
<!-- 1436171495888 -->
<g id="node39" class="node"><title>1436171495888</title>
<ellipse fill="black" stroke="black" cx="1312.7" cy="-18" rx="2.7" ry="2.7"/>
</g>
<!-- 1436170893872&#45;&#45;1436171495888 -->
<g id="edge31" class="edge"><title>1436170893872&#45;&#45;1436171495888</title>
<path fill="none" stroke="black" d="M1312.7,-71.6966C1312.7,-53.8826 1312.7,-27.7686 1312.7,-20.7764"/>
</g>
<!-- 1436171494832 -->
<g id="node40" class="node"><title>1436171494832</title>
<ellipse fill="none" stroke="black" cx="1453.7" cy="-18" rx="120.43" ry="18"/>
<text text-anchor="middle" x="1453.7" y="-14.5" font-family="Times New Roman,serif" font-size="15.00">Send Appeal to Prefecture</text>
</g>
<!-- 1436170893872&#45;&#45;1436171494832 -->
<g id="edge32" class="edge"><title>1436170893872&#45;&#45;1436171494832</title>
<path fill="none" stroke="black" d="M1333.81,-78.5203C1356.78,-67.1164 1393.81,-48.7333 1420.64,-35.4115"/>
</g>
<!-- 1436170894256 -->
<g id="node42" class="node"><title>1436170894256</title>
<ellipse fill="black" stroke="black" cx="572.7" cy="-378" rx="2.7" ry="2.7"/>
</g>
<!-- 1436170894304&#45;&#45;1436170894256 -->
<g id="edge39" class="edge"><title>1436170894304&#45;&#45;1436170894256</title>
<path fill="none" stroke="black" d="M572.7,-431.697C572.7,-413.883 572.7,-387.769 572.7,-380.776"/>
</g>
<!-- 1436170894496 -->
<g id="node43" class="node"><title>1436170894496</title>
<ellipse fill="none" stroke="black" cx="714.7" cy="-378" rx="120.819" ry="18"/>
<text text-anchor="middle" x="714.7" y="-374.5" font-family="Times New Roman,serif" font-size="15.00">Send for Credit Collection</text>
</g>
<!-- 1436170894304&#45;&#45;1436170894496 -->
<g id="edge40" class="edge"><title>1436170894304&#45;&#45;1436170894496</title>
<path fill="none" stroke="black" d="M593.959,-438.52C617.092,-427.116 654.384,-408.733 681.408,-395.412"/>
</g>
</g>
</svg>
