<?xml version="1.0" encoding="UTF-8" standalone="no"?>
<!DOCTYPE svg PUBLIC "-//W3C//DTD SVG 1.1//EN"
 "http://www.w3.org/Graphics/SVG/1.1/DTD/svg11.dtd">
<!-- Generated by graphviz version 2.38.0 (20140413.2041)
 -->
<!-- Title: pt Pages: 1 -->
<svg width="1303pt" height="764pt"
 viewBox="0.00 0.00 1302.72 764.00" xmlns="http://www.w3.org/2000/svg" xmlns:xlink="http://www.w3.org/1999/xlink">
<g id="graph0" class="graph" transform="scale(1 1) rotate(0) translate(4 760)">
<title>pt</title>
<!-- 2529188514496 -->
<g id="node1" class="node"><title>2529188514496</title>
<ellipse fill="none" stroke="black" cx="206.811" cy="-738" rx="27" ry="18"/>
<text text-anchor="middle" x="206.811" y="-734.5" font-family="Times New Roman,serif" font-size="15.00">seq</text>
</g>
<!-- 2529188515408 -->
<g id="node2" class="node"><title>2529188515408</title>
<ellipse fill="none" stroke="black" cx="65.8111" cy="-666" rx="59.5207" ry="18"/>
<text text-anchor="middle" x="65.8111" y="-662.5" font-family="Times New Roman,serif" font-size="15.00">Create Fine</text>
</g>
<!-- 2529188514496&#45;&#45;2529188515408 -->
<g id="edge1" class="edge"><title>2529188514496&#45;&#45;2529188515408</title>
<path fill="none" stroke="black" d="M185.702,-726.52C161.733,-714.621 122.456,-695.122 95.4283,-681.704"/>
</g>
<!-- 2529188514688 -->
<g id="node3" class="node"><title>2529188514688</title>
<ellipse fill="none" stroke="black" cx="170.811" cy="-666" rx="27" ry="18"/>
<text text-anchor="middle" x="170.811" y="-662.5" font-family="Times New Roman,serif" font-size="15.00">xor</text>
</g>
<!-- 2529188514496&#45;&#45;2529188514688 -->
<g id="edge6" class="edge"><title>2529188514496&#45;&#45;2529188514688</title>
<path fill="none" stroke="black" d="M198.461,-720.765C192.646,-709.456 184.921,-694.437 179.115,-683.147"/>
</g>
<!-- 2529188514304 -->
<g id="node8" class="node"><title>2529188514304</title>
<ellipse fill="none" stroke="black" cx="242.811" cy="-666" rx="27" ry="18"/>
<text text-anchor="middle" x="242.811" y="-662.5" font-family="Times New Roman,serif" font-size="15.00">xor</text>
</g>
<!-- 2529188514496&#45;&#45;2529188514304 -->
<g id="edge44" class="edge"><title>2529188514496&#45;&#45;2529188514304</title>
<path fill="none" stroke="black" d="M215.161,-720.765C220.977,-709.456 228.701,-694.437 234.507,-683.147"/>
</g>
<!-- 2529172040720 -->
<g id="node46" class="node"><title>2529172040720</title>
<ellipse fill="none" stroke="black" cx="333.811" cy="-666" rx="27" ry="18"/>
<text text-anchor="middle" x="333.811" y="-662.5" font-family="Times New Roman,serif" font-size="15.00">xor</text>
</g>
<!-- 2529188514496&#45;&#45;2529172040720 -->
<g id="edge47" class="edge"><title>2529188514496&#45;&#45;2529172040720</title>
<path fill="none" stroke="black" d="M226.935,-725.908C250.575,-712.878 289.58,-691.379 313.361,-678.272"/>
</g>
<!-- 2529172038128 -->
<g id="node4" class="node"><title>2529172038128</title>
<ellipse fill="black" stroke="black" cx="103.811" cy="-594" rx="2.7" ry="2.7"/>
</g>
<!-- 2529188514688&#45;&#45;2529172038128 -->
<g id="edge2" class="edge"><title>2529188514688&#45;&#45;2529172038128</title>
<path fill="none" stroke="black" d="M156.929,-650.496C139.757,-632.555 111.968,-603.522 105.289,-596.544"/>
</g>
<!-- 2529188514208 -->
<g id="node5" class="node"><title>2529188514208</title>
<ellipse fill="none" stroke="black" cx="170.811" cy="-594" rx="46.6143" ry="18"/>
<text text-anchor="middle" x="170.811" y="-590.5" font-family="Times New Roman,serif" font-size="15.00">xor loop</text>
</g>
<!-- 2529188514688&#45;&#45;2529188514208 -->
<g id="edge5" class="edge"><title>2529188514688&#45;&#45;2529188514208</title>
<path fill="none" stroke="black" d="M170.811,-647.697C170.811,-636.846 170.811,-622.917 170.811,-612.104"/>
</g>
<!-- 2529172039184 -->
<g id="node6" class="node"><title>2529172039184</title>
<ellipse fill="none" stroke="black" cx="120.811" cy="-522" rx="45.7249" ry="18"/>
<text text-anchor="middle" x="120.811" y="-518.5" font-family="Times New Roman,serif" font-size="15.00">Payment</text>
</g>
<!-- 2529188514208&#45;&#45;2529172039184 -->
<g id="edge3" class="edge"><title>2529188514208&#45;&#45;2529172039184</title>
<path fill="none" stroke="black" d="M158.962,-576.411C150.991,-565.252 140.528,-550.604 132.575,-539.47"/>
</g>
<!-- 2529172039232 -->
<g id="node7" class="node"><title>2529172039232</title>
<ellipse fill="black" stroke="black" cx="187.811" cy="-522" rx="2.7" ry="2.7"/>
</g>
<!-- 2529188514208&#45;&#45;2529172039232 -->
<g id="edge4" class="edge"><title>2529188514208&#45;&#45;2529172039232</title>
<path fill="none" stroke="black" d="M174.926,-576.055C179.25,-558.252 185.658,-531.865 187.375,-524.796"/>
</g>
<!-- 2529172039808 -->
<g id="node9" class="node"><title>2529172039808</title>
<ellipse fill="black" stroke="black" cx="237.811" cy="-594" rx="2.7" ry="2.7"/>
</g>
<!-- 2529188514304&#45;&#45;2529172039808 -->
<g id="edge7" class="edge"><title>2529188514304&#45;&#45;2529172039808</title>
<path fill="none" stroke="black" d="M241.575,-647.697C240.303,-629.883 238.437,-603.769 237.938,-596.776"/>
</g>
<!-- 2529172040528 -->
<g id="node10" class="node"><title>2529172040528</title>
<ellipse fill="none" stroke="black" cx="285.811" cy="-594" rx="27" ry="18"/>
<text text-anchor="middle" x="285.811" y="-590.5" font-family="Times New Roman,serif" font-size="15.00">and</text>
</g>
<!-- 2529188514304&#45;&#45;2529172040528 -->
<g id="edge43" class="edge"><title>2529188514304&#45;&#45;2529172040528</title>
<path fill="none" stroke="black" d="M252.568,-649.116C259.606,-637.66 269.064,-622.263 276.092,-610.821"/>
</g>
<!-- 2529172040576 -->
<g id="node11" class="node"><title>2529172040576</title>
<ellipse fill="none" stroke="black" cx="268.811" cy="-522" rx="27" ry="18"/>
<text text-anchor="middle" x="268.811" y="-518.5" font-family="Times New Roman,serif" font-size="15.00">and</text>
</g>
<!-- 2529172040528&#45;&#45;2529172040576 -->
<g id="edge19" class="edge"><title>2529172040528&#45;&#45;2529172040576</title>
<path fill="none" stroke="black" d="M281.696,-576.055C279.062,-565.211 275.655,-551.183 273.006,-540.275"/>
</g>
<!-- 2529172040096 -->
<g id="node23" class="node"><title>2529172040096</title>
<ellipse fill="none" stroke="black" cx="428.811" cy="-522" rx="27" ry="18"/>
<text text-anchor="middle" x="428.811" y="-518.5" font-family="Times New Roman,serif" font-size="15.00">xor</text>
</g>
<!-- 2529172040528&#45;&#45;2529172040096 -->
<g id="edge42" class="edge"><title>2529172040528&#45;&#45;2529172040096</title>
<path fill="none" stroke="black" d="M306.911,-582.671C333.948,-569.437 380.546,-546.626 407.624,-533.371"/>
</g>
<!-- 2529172038992 -->
<g id="node12" class="node"><title>2529172038992</title>
<ellipse fill="none" stroke="black" cx="102.811" cy="-450" rx="46.6143" ry="18"/>
<text text-anchor="middle" x="102.811" y="-446.5" font-family="Times New Roman,serif" font-size="15.00">xor loop</text>
</g>
<!-- 2529172040576&#45;&#45;2529172038992 -->
<g id="edge10" class="edge"><title>2529172040576&#45;&#45;2529172038992</title>
<path fill="none" stroke="black" d="M246.424,-511.559C217.131,-499.207 165.691,-477.516 132.982,-463.723"/>
</g>
<!-- 2529172041680 -->
<g id="node15" class="node"><title>2529172041680</title>
<ellipse fill="none" stroke="black" cx="268.811" cy="-450" rx="27" ry="18"/>
<text text-anchor="middle" x="268.811" y="-446.5" font-family="Times New Roman,serif" font-size="15.00">xor</text>
</g>
<!-- 2529172040576&#45;&#45;2529172041680 -->
<g id="edge18" class="edge"><title>2529172040576&#45;&#45;2529172041680</title>
<path fill="none" stroke="black" d="M268.811,-503.697C268.811,-492.846 268.811,-478.917 268.811,-468.104"/>
</g>
<!-- 2529172039472 -->
<g id="node13" class="node"><title>2529172039472</title>
<ellipse fill="black" stroke="black" cx="35.8111" cy="-378" rx="2.7" ry="2.7"/>
</g>
<!-- 2529172038992&#45;&#45;2529172039472 -->
<g id="edge8" class="edge"><title>2529172038992&#45;&#45;2529172039472</title>
<path fill="none" stroke="black" d="M87.2715,-432.765C69.9531,-414.671 43.5425,-387.078 37.2104,-380.462"/>
</g>
<!-- 2529171797856 -->
<g id="node14" class="node"><title>2529171797856</title>
<ellipse fill="none" stroke="black" cx="102.811" cy="-378" rx="45.7249" ry="18"/>
<text text-anchor="middle" x="102.811" y="-374.5" font-family="Times New Roman,serif" font-size="15.00">Payment</text>
</g>
<!-- 2529172038992&#45;&#45;2529171797856 -->
<g id="edge9" class="edge"><title>2529172038992&#45;&#45;2529171797856</title>
<path fill="none" stroke="black" d="M102.811,-431.697C102.811,-420.846 102.811,-406.917 102.811,-396.104"/>
</g>
<!-- 2529171797232 -->
<g id="node16" class="node"><title>2529171797232</title>
<ellipse fill="none" stroke="black" cx="219.811" cy="-378" rx="52.6228" ry="18"/>
<text text-anchor="middle" x="219.811" y="-374.5" font-family="Times New Roman,serif" font-size="15.00">Send Fine</text>
</g>
<!-- 2529172041680&#45;&#45;2529171797232 -->
<g id="edge11" class="edge"><title>2529172041680&#45;&#45;2529171797232</title>
<path fill="none" stroke="black" d="M257.936,-433.465C250.155,-422.348 239.684,-407.39 231.684,-395.962"/>
</g>
<!-- 2529171797520 -->
<g id="node17" class="node"><title>2529171797520</title>
<ellipse fill="none" stroke="black" cx="317.811" cy="-378" rx="27" ry="18"/>
<text text-anchor="middle" x="317.811" y="-374.5" font-family="Times New Roman,serif" font-size="15.00">seq</text>
</g>
<!-- 2529172041680&#45;&#45;2529171797520 -->
<g id="edge17" class="edge"><title>2529172041680&#45;&#45;2529171797520</title>
<path fill="none" stroke="black" d="M279.686,-433.465C287.806,-421.865 298.854,-406.082 306.967,-394.492"/>
</g>
<!-- 2529171799584 -->
<g id="node18" class="node"><title>2529171799584</title>
<ellipse fill="none" stroke="black" cx="52.8111" cy="-306" rx="52.6228" ry="18"/>
<text text-anchor="middle" x="52.8111" y="-302.5" font-family="Times New Roman,serif" font-size="15.00">Send Fine</text>
</g>
<!-- 2529171797520&#45;&#45;2529171799584 -->
<g id="edge12" class="edge"><title>2529171797520&#45;&#45;2529171799584</title>
<path fill="none" stroke="black" d="M292.88,-370.415C247.012,-358.298 148.866,-332.373 93.3157,-317.699"/>
</g>
<!-- 2529171797088 -->
<g id="node19" class="node"><title>2529171797088</title>
<ellipse fill="none" stroke="black" cx="231.811" cy="-306" rx="107.914" ry="18"/>
<text text-anchor="middle" x="231.811" y="-302.5" font-family="Times New Roman,serif" font-size="15.00">Insert Fine Notification</text>
</g>
<!-- 2529171797520&#45;&#45;2529171797088 -->
<g id="edge13" class="edge"><title>2529171797520&#45;&#45;2529171797088</title>
<path fill="none" stroke="black" d="M301.229,-363.503C287.367,-352.22 267.525,-336.07 252.602,-323.923"/>
</g>
<!-- 2529171797808 -->
<g id="node20" class="node"><title>2529171797808</title>
<ellipse fill="none" stroke="black" cx="403.811" cy="-306" rx="46.6143" ry="18"/>
<text text-anchor="middle" x="403.811" y="-302.5" font-family="Times New Roman,serif" font-size="15.00">xor loop</text>
</g>
<!-- 2529171797520&#45;&#45;2529171797808 -->
<g id="edge16" class="edge"><title>2529171797520&#45;&#45;2529171797808</title>
<path fill="none" stroke="black" d="M334.393,-363.503C348.743,-351.823 369.502,-334.926 384.578,-322.655"/>
</g>
<!-- 2529171796512 -->
<g id="node21" class="node"><title>2529171796512</title>
<ellipse fill="black" stroke="black" cx="362.811" cy="-234" rx="2.7" ry="2.7"/>
</g>
<!-- 2529171797808&#45;&#45;2529171796512 -->
<g id="edge14" class="edge"><title>2529171797808&#45;&#45;2529171796512</title>
<path fill="none" stroke="black" d="M393.886,-288.055C383.458,-270.252 368.004,-243.865 363.863,-236.796"/>
</g>
<!-- 2529171798384 -->
<g id="node22" class="node"><title>2529171798384</title>
<ellipse fill="none" stroke="black" cx="445.811" cy="-234" rx="61.6894" ry="18"/>
<text text-anchor="middle" x="445.811" y="-230.5" font-family="Times New Roman,serif" font-size="15.00">Add penalty</text>
</g>
<!-- 2529171797808&#45;&#45;2529171798384 -->
<g id="edge15" class="edge"><title>2529171797808&#45;&#45;2529171798384</title>
<path fill="none" stroke="black" d="M413.764,-288.411C420.363,-277.414 428.995,-263.027 435.637,-251.956"/>
</g>
<!-- 2529172039520 -->
<g id="node24" class="node"><title>2529172039520</title>
<ellipse fill="black" stroke="black" cx="428.811" cy="-450" rx="2.7" ry="2.7"/>
</g>
<!-- 2529172040096&#45;&#45;2529172039520 -->
<g id="edge20" class="edge"><title>2529172040096&#45;&#45;2529172039520</title>
<path fill="none" stroke="black" d="M428.811,-503.697C428.811,-485.883 428.811,-459.769 428.811,-452.776"/>
</g>
<!-- 2529172038512 -->
<g id="node25" class="node"><title>2529172038512</title>
<ellipse fill="none" stroke="black" cx="546.811" cy="-450" rx="46.6143" ry="18"/>
<text text-anchor="middle" x="546.811" y="-446.5" font-family="Times New Roman,serif" font-size="15.00">xor loop</text>
</g>
<!-- 2529172040096&#45;&#45;2529172038512 -->
<g id="edge41" class="edge"><title>2529172040096&#45;&#45;2529172038512</title>
<path fill="none" stroke="black" d="M448.296,-509.441C468.589,-497.403 500.423,-478.518 522.384,-465.491"/>
</g>
<!-- 2529172040816 -->
<g id="node26" class="node"><title>2529172040816</title>
<ellipse fill="none" stroke="black" cx="546.811" cy="-378" rx="27" ry="18"/>
<text text-anchor="middle" x="546.811" y="-374.5" font-family="Times New Roman,serif" font-size="15.00">xor</text>
</g>
<!-- 2529172038512&#45;&#45;2529172040816 -->
<g id="edge39" class="edge"><title>2529172038512&#45;&#45;2529172040816</title>
<path fill="none" stroke="black" d="M546.811,-431.697C546.811,-420.846 546.811,-406.917 546.811,-396.104"/>
</g>
<!-- 2529172040240 -->
<g id="node45" class="node"><title>2529172040240</title>
<ellipse fill="black" stroke="black" cx="594.811" cy="-378" rx="2.7" ry="2.7"/>
</g>
<!-- 2529172038512&#45;&#45;2529172040240 -->
<g id="edge40" class="edge"><title>2529172038512&#45;&#45;2529172040240</title>
<path fill="none" stroke="black" d="M558.186,-432.411C570.385,-414.622 588.665,-387.962 593.566,-380.816"/>
</g>
<!-- 2529172040000 -->
<g id="node27" class="node"><title>2529172040000</title>
<ellipse fill="none" stroke="black" cx="546.811" cy="-306" rx="78.5434" ry="18"/>
<text text-anchor="middle" x="546.811" y="-302.5" font-family="Times New Roman,serif" font-size="15.00">Appeal to Judge</text>
</g>
<!-- 2529172040816&#45;&#45;2529172040000 -->
<g id="edge21" class="edge"><title>2529172040816&#45;&#45;2529172040000</title>
<path fill="none" stroke="black" d="M546.811,-359.697C546.811,-348.846 546.811,-334.917 546.811,-324.104"/>
</g>
<!-- 2529172039760 -->
<g id="node28" class="node"><title>2529172039760</title>
<ellipse fill="none" stroke="black" cx="670.811" cy="-306" rx="27" ry="18"/>
<text text-anchor="middle" x="670.811" y="-302.5" font-family="Times New Roman,serif" font-size="15.00">seq</text>
</g>
<!-- 2529172040816&#45;&#45;2529172039760 -->
<g id="edge38" class="edge"><title>2529172040816&#45;&#45;2529172039760</title>
<path fill="none" stroke="black" d="M566.734,-365.753C589.874,-352.691 627.819,-331.27 650.938,-318.219"/>
</g>
<!-- 2529172041584 -->
<g id="node29" class="node"><title>2529172041584</title>
<ellipse fill="none" stroke="black" cx="634.811" cy="-234" rx="27" ry="18"/>
<text text-anchor="middle" x="634.811" y="-230.5" font-family="Times New Roman,serif" font-size="15.00">xor</text>
</g>
<!-- 2529172039760&#45;&#45;2529172041584 -->
<g id="edge34" class="edge"><title>2529172039760&#45;&#45;2529172041584</title>
<path fill="none" stroke="black" d="M662.461,-288.765C656.646,-277.456 648.921,-262.437 643.115,-251.147"/>
</g>
<!-- 2529172041104 -->
<g id="node42" class="node"><title>2529172041104</title>
<ellipse fill="none" stroke="black" cx="706.811" cy="-234" rx="27" ry="18"/>
<text text-anchor="middle" x="706.811" y="-230.5" font-family="Times New Roman,serif" font-size="15.00">xor</text>
</g>
<!-- 2529172039760&#45;&#45;2529172041104 -->
<g id="edge37" class="edge"><title>2529172039760&#45;&#45;2529172041104</title>
<path fill="none" stroke="black" d="M679.161,-288.765C684.977,-277.456 692.701,-262.437 698.507,-251.147"/>
</g>
<!-- 2529172038368 -->
<g id="node30" class="node"><title>2529172038368</title>
<ellipse fill="none" stroke="black" cx="450.811" cy="-162" rx="144.571" ry="18"/>
<text text-anchor="middle" x="450.811" y="-158.5" font-family="Times New Roman,serif" font-size="15.00">Insert Date Appeal to Prefecture</text>
</g>
<!-- 2529172041584&#45;&#45;2529172038368 -->
<g id="edge22" class="edge"><title>2529172041584&#45;&#45;2529172038368</title>
<path fill="none" stroke="black" d="M611.879,-224.276C582.4,-213.061 530.625,-193.364 493.735,-179.33"/>
</g>
<!-- 2529172040864 -->
<g id="node31" class="node"><title>2529172040864</title>
<ellipse fill="none" stroke="black" cx="640.811" cy="-162" rx="27" ry="18"/>
<text text-anchor="middle" x="640.811" y="-158.5" font-family="Times New Roman,serif" font-size="15.00">seq</text>
</g>
<!-- 2529172041584&#45;&#45;2529172040864 -->
<g id="edge33" class="edge"><title>2529172041584&#45;&#45;2529172040864</title>
<path fill="none" stroke="black" d="M636.294,-215.697C637.224,-204.846 638.418,-190.917 639.345,-180.104"/>
</g>
<!-- 2529171799152 -->
<g id="node32" class="node"><title>2529171799152</title>
<ellipse fill="none" stroke="black" cx="368.811" cy="-90" rx="173.941" ry="18"/>
<text text-anchor="middle" x="368.811" y="-86.5" font-family="Times New Roman,serif" font-size="15.00">Receive Result Appeal from Prefecture</text>
</g>
<!-- 2529172040864&#45;&#45;2529171799152 -->
<g id="edge23" class="edge"><title>2529172040864&#45;&#45;2529171799152</title>
<path fill="none" stroke="black" d="M615.709,-154.54C573.953,-143.794 489.041,-121.942 430.553,-106.89"/>
</g>
<!-- 2529171799056 -->
<g id="node33" class="node"><title>2529171799056</title>
<ellipse fill="none" stroke="black" cx="587.811" cy="-90" rx="27" ry="18"/>
<text text-anchor="middle" x="587.811" y="-86.5" font-family="Times New Roman,serif" font-size="15.00">xor</text>
</g>
<!-- 2529172040864&#45;&#45;2529171799056 -->
<g id="edge26" class="edge"><title>2529172040864&#45;&#45;2529171799056</title>
<path fill="none" stroke="black" d="M629.049,-145.465C620.266,-133.865 608.316,-118.082 599.541,-106.492"/>
</g>
<!-- 2529171798864 -->
<g id="node36" class="node"><title>2529171798864</title>
<ellipse fill="none" stroke="black" cx="693.811" cy="-90" rx="27" ry="18"/>
<text text-anchor="middle" x="693.811" y="-86.5" font-family="Times New Roman,serif" font-size="15.00">xor</text>
</g>
<!-- 2529172040864&#45;&#45;2529171798864 -->
<g id="edge29" class="edge"><title>2529172040864&#45;&#45;2529171798864</title>
<path fill="none" stroke="black" d="M652.573,-145.465C661.356,-133.865 673.306,-118.082 682.082,-106.492"/>
</g>
<!-- 2529171796272 -->
<g id="node39" class="node"><title>2529171796272</title>
<ellipse fill="none" stroke="black" cx="1031.81" cy="-90" rx="27" ry="18"/>
<text text-anchor="middle" x="1031.81" y="-86.5" font-family="Times New Roman,serif" font-size="15.00">xor</text>
</g>
<!-- 2529172040864&#45;&#45;2529171796272 -->
<g id="edge32" class="edge"><title>2529172040864&#45;&#45;2529171796272</title>
<path fill="none" stroke="black" d="M666.768,-156.353C737.893,-143.62 935.308,-108.277 1006.12,-95.5998"/>
</g>
<!-- 2529171799488 -->
<g id="node34" class="node"><title>2529171799488</title>
<ellipse fill="black" stroke="black" cx="411.811" cy="-18" rx="2.7" ry="2.7"/>
</g>
<!-- 2529171799056&#45;&#45;2529171799488 -->
<g id="edge24" class="edge"><title>2529171799056&#45;&#45;2529171799488</title>
<path fill="none" stroke="black" d="M565.162,-79.992C521.713,-62.7109 429.568,-26.0624 414.051,-19.891"/>
</g>
<!-- 2529171796992 -->
<g id="node35" class="node"><title>2529171796992</title>
<ellipse fill="none" stroke="black" cx="552.811" cy="-18" rx="120.43" ry="18"/>
<text text-anchor="middle" x="552.811" y="-14.5" font-family="Times New Roman,serif" font-size="15.00">Send Appeal to Prefecture</text>
</g>
<!-- 2529171799056&#45;&#45;2529171796992 -->
<g id="edge25" class="edge"><title>2529171799056&#45;&#45;2529171796992</title>
<path fill="none" stroke="black" d="M579.693,-72.7646C574.201,-61.7791 566.957,-47.2919 561.373,-36.1239"/>
</g>
<!-- 2529171796080 -->
<g id="node37" class="node"><title>2529171796080</title>
<ellipse fill="black" stroke="black" cx="693.811" cy="-18" rx="2.7" ry="2.7"/>
</g>
<!-- 2529171798864&#45;&#45;2529171796080 -->
<g id="edge27" class="edge"><title>2529171798864&#45;&#45;2529171796080</title>
<path fill="none" stroke="black" d="M693.811,-71.6966C693.811,-53.8826 693.811,-27.7686 693.811,-20.7764"/>
</g>
<!-- 2529171796224 -->
<g id="node38" class="node"><title>2529171796224</title>
<ellipse fill="none" stroke="black" cx="862.811" cy="-18" rx="148.91" ry="18"/>
<text text-anchor="middle" x="862.811" y="-14.5" font-family="Times New Roman,serif" font-size="15.00">Notify Result Appeal to Offender</text>
</g>
<!-- 2529171798864&#45;&#45;2529171796224 -->
<g id="edge28" class="edge"><title>2529171798864&#45;&#45;2529171796224</title>
<path fill="none" stroke="black" d="M716.253,-79.7045C743.459,-68.4359 789.792,-49.2446 823.085,-35.4544"/>
</g>
<!-- 2529171799824 -->
<g id="node40" class="node"><title>2529171799824</title>
<ellipse fill="black" stroke="black" cx="1031.81" cy="-18" rx="2.7" ry="2.7"/>
</g>
<!-- 2529171796272&#45;&#45;2529171799824 -->
<g id="edge30" class="edge"><title>2529171796272&#45;&#45;2529171799824</title>
<path fill="none" stroke="black" d="M1031.81,-71.6966C1031.81,-53.8826 1031.81,-27.7686 1031.81,-20.7764"/>
</g>
<!-- 2529171797904 -->
<g id="node41" class="node"><title>2529171797904</title>
<ellipse fill="none" stroke="black" cx="1173.81" cy="-18" rx="120.819" ry="18"/>
<text text-anchor="middle" x="1173.81" y="-14.5" font-family="Times New Roman,serif" font-size="15.00">Send for Credit Collection</text>
</g>
<!-- 2529171796272&#45;&#45;2529171797904 -->
<g id="edge31" class="edge"><title>2529171796272&#45;&#45;2529171797904</title>
<path fill="none" stroke="black" d="M1053.07,-78.5203C1076.2,-67.1164 1113.49,-48.7333 1140.52,-35.4115"/>
</g>
<!-- 2529171796320 -->
<g id="node43" class="node"><title>2529171796320</title>
<ellipse fill="black" stroke="black" cx="700.811" cy="-162" rx="2.7" ry="2.7"/>
</g>
<!-- 2529172041104&#45;&#45;2529171796320 -->
<g id="edge35" class="edge"><title>2529172041104&#45;&#45;2529171796320</title>
<path fill="none" stroke="black" d="M705.328,-215.697C703.801,-197.883 701.563,-171.769 700.963,-164.776"/>
</g>
<!-- 2529171797712 -->
<g id="node44" class="node"><title>2529171797712</title>
<ellipse fill="none" stroke="black" cx="841.811" cy="-162" rx="120.43" ry="18"/>
<text text-anchor="middle" x="841.811" y="-158.5" font-family="Times New Roman,serif" font-size="15.00">Send Appeal to Prefecture</text>
</g>
<!-- 2529172041104&#45;&#45;2529171797712 -->
<g id="edge36" class="edge"><title>2529172041104&#45;&#45;2529171797712</title>
<path fill="none" stroke="black" d="M727.609,-222.216C749.65,-210.787 784.721,-192.602 810.188,-179.397"/>
</g>
<!-- 2529172038320 -->
<g id="node47" class="node"><title>2529172038320</title>
<ellipse fill="black" stroke="black" cx="333.811" cy="-594" rx="2.7" ry="2.7"/>
</g>
<!-- 2529172040720&#45;&#45;2529172038320 -->
<g id="edge45" class="edge"><title>2529172040720&#45;&#45;2529172038320</title>
<path fill="none" stroke="black" d="M333.811,-647.697C333.811,-629.883 333.811,-603.769 333.811,-596.776"/>
</g>
<!-- 2529172039904 -->
<g id="node48" class="node"><title>2529172039904</title>
<ellipse fill="none" stroke="black" cx="475.811" cy="-594" rx="120.819" ry="18"/>
<text text-anchor="middle" x="475.811" y="-590.5" font-family="Times New Roman,serif" font-size="15.00">Send for Credit Collection</text>
</g>
<!-- 2529172040720&#45;&#45;2529172039904 -->
<g id="edge46" class="edge"><title>2529172040720&#45;&#45;2529172039904</title>
<path fill="none" stroke="black" d="M355.07,-654.52C378.203,-643.116 415.495,-624.733 442.519,-611.412"/>
</g>
</g>
</svg>
