<?xml version="1.0" encoding="UTF-8" standalone="no"?>
<!DOCTYPE svg PUBLIC "-//W3C//DTD SVG 1.1//EN"
 "http://www.w3.org/Graphics/SVG/1.1/DTD/svg11.dtd">
<!-- Generated by graphviz version 2.38.0 (20140413.2041)
 -->
<!-- Title: pt Pages: 1 -->
<svg width="1031pt" height="764pt"
 viewBox="0.00 0.00 1030.57 764.00" xmlns="http://www.w3.org/2000/svg" xmlns:xlink="http://www.w3.org/1999/xlink">
<g id="graph0" class="graph" transform="scale(1 1) rotate(0) translate(4 760)">
<title>pt</title>
<!-- 2529009225008 -->
<g id="node1" class="node"><title>2529009225008</title>
<ellipse fill="none" stroke="black" cx="359.721" cy="-738" rx="27" ry="18"/>
<text text-anchor="middle" x="359.721" y="-734.5" font-family="Times New Roman,serif" font-size="15.00">seq</text>
</g>
<!-- 2529009684832 -->
<g id="node2" class="node"><title>2529009684832</title>
<ellipse fill="none" stroke="black" cx="218.721" cy="-666" rx="59.5207" ry="18"/>
<text text-anchor="middle" x="218.721" y="-662.5" font-family="Times New Roman,serif" font-size="15.00">Create Fine</text>
</g>
<!-- 2529009225008&#45;&#45;2529009684832 -->
<g id="edge1" class="edge"><title>2529009225008&#45;&#45;2529009684832</title>
<path fill="none" stroke="black" d="M338.611,-726.52C314.642,-714.621 275.365,-695.122 248.338,-681.704"/>
</g>
<!-- 2529198358832 -->
<g id="node3" class="node"><title>2529198358832</title>
<ellipse fill="none" stroke="black" cx="323.721" cy="-666" rx="27" ry="18"/>
<text text-anchor="middle" x="323.721" y="-662.5" font-family="Times New Roman,serif" font-size="15.00">xor</text>
</g>
<!-- 2529009225008&#45;&#45;2529198358832 -->
<g id="edge6" class="edge"><title>2529009225008&#45;&#45;2529198358832</title>
<path fill="none" stroke="black" d="M351.371,-720.765C345.555,-709.456 337.831,-694.437 332.025,-683.147"/>
</g>
<!-- 2529009685120 -->
<g id="node8" class="node"><title>2529009685120</title>
<ellipse fill="none" stroke="black" cx="395.721" cy="-666" rx="27" ry="18"/>
<text text-anchor="middle" x="395.721" y="-662.5" font-family="Times New Roman,serif" font-size="15.00">xor</text>
</g>
<!-- 2529009225008&#45;&#45;2529009685120 -->
<g id="edge41" class="edge"><title>2529009225008&#45;&#45;2529009685120</title>
<path fill="none" stroke="black" d="M368.07,-720.765C373.886,-709.456 381.61,-694.437 387.416,-683.147"/>
</g>
<!-- 2529198361856 -->
<g id="node43" class="node"><title>2529198361856</title>
<ellipse fill="none" stroke="black" cx="486.721" cy="-666" rx="27" ry="18"/>
<text text-anchor="middle" x="486.721" y="-662.5" font-family="Times New Roman,serif" font-size="15.00">xor</text>
</g>
<!-- 2529009225008&#45;&#45;2529198361856 -->
<g id="edge44" class="edge"><title>2529009225008&#45;&#45;2529198361856</title>
<path fill="none" stroke="black" d="M379.844,-725.908C403.485,-712.878 442.49,-691.379 466.271,-678.272"/>
</g>
<!-- 2529198360464 -->
<g id="node4" class="node"><title>2529198360464</title>
<ellipse fill="black" stroke="black" cx="256.721" cy="-594" rx="2.7" ry="2.7"/>
</g>
<!-- 2529198358832&#45;&#45;2529198360464 -->
<g id="edge2" class="edge"><title>2529198358832&#45;&#45;2529198360464</title>
<path fill="none" stroke="black" d="M309.838,-650.496C292.667,-632.555 264.877,-603.522 258.198,-596.544"/>
</g>
<!-- 2529198360032 -->
<g id="node5" class="node"><title>2529198360032</title>
<ellipse fill="none" stroke="black" cx="323.721" cy="-594" rx="46.6143" ry="18"/>
<text text-anchor="middle" x="323.721" y="-590.5" font-family="Times New Roman,serif" font-size="15.00">xor loop</text>
</g>
<!-- 2529198358832&#45;&#45;2529198360032 -->
<g id="edge5" class="edge"><title>2529198358832&#45;&#45;2529198360032</title>
<path fill="none" stroke="black" d="M323.721,-647.697C323.721,-636.846 323.721,-622.917 323.721,-612.104"/>
</g>
<!-- 2529198361088 -->
<g id="node6" class="node"><title>2529198361088</title>
<ellipse fill="none" stroke="black" cx="273.721" cy="-522" rx="45.7249" ry="18"/>
<text text-anchor="middle" x="273.721" y="-518.5" font-family="Times New Roman,serif" font-size="15.00">Payment</text>
</g>
<!-- 2529198360032&#45;&#45;2529198361088 -->
<g id="edge3" class="edge"><title>2529198360032&#45;&#45;2529198361088</title>
<path fill="none" stroke="black" d="M311.871,-576.411C303.901,-565.252 293.437,-550.604 285.485,-539.47"/>
</g>
<!-- 2529198361232 -->
<g id="node7" class="node"><title>2529198361232</title>
<ellipse fill="black" stroke="black" cx="340.721" cy="-522" rx="2.7" ry="2.7"/>
</g>
<!-- 2529198360032&#45;&#45;2529198361232 -->
<g id="edge4" class="edge"><title>2529198360032&#45;&#45;2529198361232</title>
<path fill="none" stroke="black" d="M327.836,-576.055C332.159,-558.252 338.568,-531.865 340.284,-524.796"/>
</g>
<!-- 2529198359840 -->
<g id="node9" class="node"><title>2529198359840</title>
<ellipse fill="black" stroke="black" cx="390.721" cy="-594" rx="2.7" ry="2.7"/>
</g>
<!-- 2529009685120&#45;&#45;2529198359840 -->
<g id="edge7" class="edge"><title>2529009685120&#45;&#45;2529198359840</title>
<path fill="none" stroke="black" d="M394.485,-647.697C393.212,-629.883 391.347,-603.769 390.847,-596.776"/>
</g>
<!-- 2529198360752 -->
<g id="node10" class="node"><title>2529198360752</title>
<ellipse fill="none" stroke="black" cx="438.721" cy="-594" rx="27" ry="18"/>
<text text-anchor="middle" x="438.721" y="-590.5" font-family="Times New Roman,serif" font-size="15.00">and</text>
</g>
<!-- 2529009685120&#45;&#45;2529198360752 -->
<g id="edge40" class="edge"><title>2529009685120&#45;&#45;2529198360752</title>
<path fill="none" stroke="black" d="M405.478,-649.116C412.515,-637.66 421.973,-622.263 429.002,-610.821"/>
</g>
<!-- 2529198358640 -->
<g id="node11" class="node"><title>2529198358640</title>
<ellipse fill="none" stroke="black" cx="421.721" cy="-522" rx="27" ry="18"/>
<text text-anchor="middle" x="421.721" y="-518.5" font-family="Times New Roman,serif" font-size="15.00">xor</text>
</g>
<!-- 2529198360752&#45;&#45;2529198358640 -->
<g id="edge27" class="edge"><title>2529198360752&#45;&#45;2529198358640</title>
<path fill="none" stroke="black" d="M434.605,-576.055C431.972,-565.211 428.565,-551.183 425.916,-540.275"/>
</g>
<!-- 2529198358592 -->
<g id="node31" class="node"><title>2529198358592</title>
<ellipse fill="none" stroke="black" cx="532.721" cy="-522" rx="27" ry="18"/>
<text text-anchor="middle" x="532.721" y="-518.5" font-family="Times New Roman,serif" font-size="15.00">and</text>
</g>
<!-- 2529198360752&#45;&#45;2529198358592 -->
<g id="edge39" class="edge"><title>2529198360752&#45;&#45;2529198358592</title>
<path fill="none" stroke="black" d="M456.401,-579.834C473.313,-567.239 498.658,-548.366 515.437,-535.871"/>
</g>
<!-- 2529009558816 -->
<g id="node12" class="node"><title>2529009558816</title>
<ellipse fill="black" stroke="black" cx="354.721" cy="-450" rx="2.7" ry="2.7"/>
</g>
<!-- 2529198358640&#45;&#45;2529009558816 -->
<g id="edge8" class="edge"><title>2529198358640&#45;&#45;2529009558816</title>
<path fill="none" stroke="black" d="M407.838,-506.496C390.667,-488.555 362.877,-459.522 356.198,-452.544"/>
</g>
<!-- 2529009557760 -->
<g id="node13" class="node"><title>2529009557760</title>
<ellipse fill="none" stroke="black" cx="421.721" cy="-450" rx="46.6143" ry="18"/>
<text text-anchor="middle" x="421.721" y="-446.5" font-family="Times New Roman,serif" font-size="15.00">xor loop</text>
</g>
<!-- 2529198358640&#45;&#45;2529009557760 -->
<g id="edge26" class="edge"><title>2529198358640&#45;&#45;2529009557760</title>
<path fill="none" stroke="black" d="M421.721,-503.697C421.721,-492.846 421.721,-478.917 421.721,-468.104"/>
</g>
<!-- 2529009558768 -->
<g id="node14" class="node"><title>2529009558768</title>
<ellipse fill="none" stroke="black" cx="383.721" cy="-378" rx="27" ry="18"/>
<text text-anchor="middle" x="383.721" y="-374.5" font-family="Times New Roman,serif" font-size="15.00">xor</text>
</g>
<!-- 2529009557760&#45;&#45;2529009558768 -->
<g id="edge24" class="edge"><title>2529009557760&#45;&#45;2529009558768</title>
<path fill="none" stroke="black" d="M412.522,-432.055C406.459,-420.887 398.564,-406.343 392.573,-395.307"/>
</g>
<!-- 2529009559056 -->
<g id="node30" class="node"><title>2529009559056</title>
<ellipse fill="black" stroke="black" cx="431.721" cy="-378" rx="2.7" ry="2.7"/>
</g>
<!-- 2529009557760&#45;&#45;2529009559056 -->
<g id="edge25" class="edge"><title>2529009557760&#45;&#45;2529009559056</title>
<path fill="none" stroke="black" d="M424.192,-431.697C426.737,-413.883 430.468,-387.769 431.467,-380.776"/>
</g>
<!-- 2529009559008 -->
<g id="node15" class="node"><title>2529009559008</title>
<ellipse fill="none" stroke="black" cx="298.721" cy="-306" rx="78.5434" ry="18"/>
<text text-anchor="middle" x="298.721" y="-302.5" font-family="Times New Roman,serif" font-size="15.00">Appeal to Judge</text>
</g>
<!-- 2529009558768&#45;&#45;2529009559008 -->
<g id="edge9" class="edge"><title>2529009558768&#45;&#45;2529009559008</title>
<path fill="none" stroke="black" d="M367.332,-363.503C353.438,-352.061 333.466,-335.614 318.649,-323.412"/>
</g>
<!-- 2529009558864 -->
<g id="node16" class="node"><title>2529009558864</title>
<ellipse fill="none" stroke="black" cx="422.721" cy="-306" rx="27" ry="18"/>
<text text-anchor="middle" x="422.721" y="-302.5" font-family="Times New Roman,serif" font-size="15.00">seq</text>
</g>
<!-- 2529009558768&#45;&#45;2529009558864 -->
<g id="edge23" class="edge"><title>2529009558768&#45;&#45;2529009558864</title>
<path fill="none" stroke="black" d="M392.766,-360.765C399.067,-349.456 407.434,-334.437 413.724,-323.147"/>
</g>
<!-- 2529009558432 -->
<g id="node17" class="node"><title>2529009558432</title>
<ellipse fill="none" stroke="black" cx="386.721" cy="-234" rx="27" ry="18"/>
<text text-anchor="middle" x="386.721" y="-230.5" font-family="Times New Roman,serif" font-size="15.00">xor</text>
</g>
<!-- 2529009558864&#45;&#45;2529009558432 -->
<g id="edge19" class="edge"><title>2529009558864&#45;&#45;2529009558432</title>
<path fill="none" stroke="black" d="M414.371,-288.765C408.555,-277.456 400.831,-262.437 395.025,-251.147"/>
</g>
<!-- 2529009560256 -->
<g id="node27" class="node"><title>2529009560256</title>
<ellipse fill="none" stroke="black" cx="458.721" cy="-234" rx="27" ry="18"/>
<text text-anchor="middle" x="458.721" y="-230.5" font-family="Times New Roman,serif" font-size="15.00">xor</text>
</g>
<!-- 2529009558864&#45;&#45;2529009560256 -->
<g id="edge22" class="edge"><title>2529009558864&#45;&#45;2529009560256</title>
<path fill="none" stroke="black" d="M431.07,-288.765C436.886,-277.456 444.61,-262.437 450.416,-251.147"/>
</g>
<!-- 2529009559488 -->
<g id="node18" class="node"><title>2529009559488</title>
<ellipse fill="none" stroke="black" cx="202.721" cy="-162" rx="144.571" ry="18"/>
<text text-anchor="middle" x="202.721" y="-158.5" font-family="Times New Roman,serif" font-size="15.00">Insert Date Appeal to Prefecture</text>
</g>
<!-- 2529009558432&#45;&#45;2529009559488 -->
<g id="edge10" class="edge"><title>2529009558432&#45;&#45;2529009559488</title>
<path fill="none" stroke="black" d="M363.789,-224.276C334.31,-213.061 282.535,-193.364 245.644,-179.33"/>
</g>
<!-- 2529009560064 -->
<g id="node19" class="node"><title>2529009560064</title>
<ellipse fill="none" stroke="black" cx="392.721" cy="-162" rx="27" ry="18"/>
<text text-anchor="middle" x="392.721" y="-158.5" font-family="Times New Roman,serif" font-size="15.00">seq</text>
</g>
<!-- 2529009558432&#45;&#45;2529009560064 -->
<g id="edge18" class="edge"><title>2529009558432&#45;&#45;2529009560064</title>
<path fill="none" stroke="black" d="M388.204,-215.697C389.134,-204.846 390.328,-190.917 391.254,-180.104"/>
</g>
<!-- 2529009560400 -->
<g id="node20" class="node"><title>2529009560400</title>
<ellipse fill="none" stroke="black" cx="173.721" cy="-90" rx="173.941" ry="18"/>
<text text-anchor="middle" x="173.721" y="-86.5" font-family="Times New Roman,serif" font-size="15.00">Receive Result Appeal from Prefecture</text>
</g>
<!-- 2529009560064&#45;&#45;2529009560400 -->
<g id="edge11" class="edge"><title>2529009560064&#45;&#45;2529009560400</title>
<path fill="none" stroke="black" d="M368.867,-153.376C334.5,-142.391 270.21,-121.842 224.831,-107.337"/>
</g>
<!-- 2529009559104 -->
<g id="node21" class="node"><title>2529009559104</title>
<ellipse fill="none" stroke="black" cx="392.721" cy="-90" rx="27" ry="18"/>
<text text-anchor="middle" x="392.721" y="-86.5" font-family="Times New Roman,serif" font-size="15.00">xor</text>
</g>
<!-- 2529009560064&#45;&#45;2529009559104 -->
<g id="edge14" class="edge"><title>2529009560064&#45;&#45;2529009559104</title>
<path fill="none" stroke="black" d="M392.721,-143.697C392.721,-132.846 392.721,-118.917 392.721,-108.104"/>
</g>
<!-- 2529009560160 -->
<g id="node24" class="node"><title>2529009560160</title>
<ellipse fill="none" stroke="black" cx="561.721" cy="-90" rx="27" ry="18"/>
<text text-anchor="middle" x="561.721" y="-86.5" font-family="Times New Roman,serif" font-size="15.00">xor</text>
</g>
<!-- 2529009560064&#45;&#45;2529009560160 -->
<g id="edge17" class="edge"><title>2529009560064&#45;&#45;2529009560160</title>
<path fill="none" stroke="black" d="M415.162,-151.705C447.576,-138.279 507.14,-113.607 539.455,-100.222"/>
</g>
<!-- 2529009559728 -->
<g id="node22" class="node"><title>2529009559728</title>
<ellipse fill="black" stroke="black" cx="223.721" cy="-18" rx="2.7" ry="2.7"/>
</g>
<!-- 2529009559104&#45;&#45;2529009559728 -->
<g id="edge12" class="edge"><title>2529009559104&#45;&#45;2529009559728</title>
<path fill="none" stroke="black" d="M370.279,-79.7045C328.258,-62.2995 240.606,-25.9938 225.851,-19.8823"/>
</g>
<!-- 2529009559968 -->
<g id="node23" class="node"><title>2529009559968</title>
<ellipse fill="none" stroke="black" cx="392.721" cy="-18" rx="148.91" ry="18"/>
<text text-anchor="middle" x="392.721" y="-14.5" font-family="Times New Roman,serif" font-size="15.00">Notify Result Appeal to Offender</text>
</g>
<!-- 2529009559104&#45;&#45;2529009559968 -->
<g id="edge13" class="edge"><title>2529009559104&#45;&#45;2529009559968</title>
<path fill="none" stroke="black" d="M392.721,-71.6966C392.721,-60.8463 392.721,-46.9167 392.721,-36.1043"/>
</g>
<!-- 2529009560496 -->
<g id="node25" class="node"><title>2529009560496</title>
<ellipse fill="black" stroke="black" cx="561.721" cy="-18" rx="2.7" ry="2.7"/>
</g>
<!-- 2529009560160&#45;&#45;2529009560496 -->
<g id="edge15" class="edge"><title>2529009560160&#45;&#45;2529009560496</title>
<path fill="none" stroke="black" d="M561.721,-71.6966C561.721,-53.8826 561.721,-27.7686 561.721,-20.7764"/>
</g>
<!-- 2529009561552 -->
<g id="node26" class="node"><title>2529009561552</title>
<ellipse fill="none" stroke="black" cx="703.721" cy="-18" rx="120.819" ry="18"/>
<text text-anchor="middle" x="703.721" y="-14.5" font-family="Times New Roman,serif" font-size="15.00">Send for Credit Collection</text>
</g>
<!-- 2529009560160&#45;&#45;2529009561552 -->
<g id="edge16" class="edge"><title>2529009560160&#45;&#45;2529009561552</title>
<path fill="none" stroke="black" d="M582.979,-78.5203C606.113,-67.1164 643.405,-48.7333 670.429,-35.4115"/>
</g>
<!-- 2529009559200 -->
<g id="node28" class="node"><title>2529009559200</title>
<ellipse fill="black" stroke="black" cx="452.721" cy="-162" rx="2.7" ry="2.7"/>
</g>
<!-- 2529009560256&#45;&#45;2529009559200 -->
<g id="edge20" class="edge"><title>2529009560256&#45;&#45;2529009559200</title>
<path fill="none" stroke="black" d="M457.237,-215.697C455.711,-197.883 453.472,-171.769 452.873,-164.776"/>
</g>
<!-- 2529009560592 -->
<g id="node29" class="node"><title>2529009560592</title>
<ellipse fill="none" stroke="black" cx="593.721" cy="-162" rx="120.43" ry="18"/>
<text text-anchor="middle" x="593.721" y="-158.5" font-family="Times New Roman,serif" font-size="15.00">Send Appeal to Prefecture</text>
</g>
<!-- 2529009560256&#45;&#45;2529009560592 -->
<g id="edge21" class="edge"><title>2529009560256&#45;&#45;2529009560592</title>
<path fill="none" stroke="black" d="M479.518,-222.216C501.559,-210.787 536.63,-192.602 562.097,-179.397"/>
</g>
<!-- 2529009558672 -->
<g id="node32" class="node"><title>2529009558672</title>
<ellipse fill="none" stroke="black" cx="532.721" cy="-450" rx="46.6143" ry="18"/>
<text text-anchor="middle" x="532.721" y="-446.5" font-family="Times New Roman,serif" font-size="15.00">xor loop</text>
</g>
<!-- 2529198358592&#45;&#45;2529009558672 -->
<g id="edge30" class="edge"><title>2529198358592&#45;&#45;2529009558672</title>
<path fill="none" stroke="black" d="M532.721,-503.697C532.721,-492.846 532.721,-478.917 532.721,-468.104"/>
</g>
<!-- 2529009559776 -->
<g id="node35" class="node"><title>2529009559776</title>
<ellipse fill="none" stroke="black" cx="649.721" cy="-450" rx="27" ry="18"/>
<text text-anchor="middle" x="649.721" y="-446.5" font-family="Times New Roman,serif" font-size="15.00">xor</text>
</g>
<!-- 2529198358592&#45;&#45;2529009559776 -->
<g id="edge38" class="edge"><title>2529198358592&#45;&#45;2529009559776</title>
<path fill="none" stroke="black" d="M552.304,-509.284C573.901,-496.362 608.45,-475.692 630.074,-462.755"/>
</g>
<!-- 2529009559632 -->
<g id="node33" class="node"><title>2529009559632</title>
<ellipse fill="black" stroke="black" cx="465.721" cy="-378" rx="2.7" ry="2.7"/>
</g>
<!-- 2529009558672&#45;&#45;2529009559632 -->
<g id="edge28" class="edge"><title>2529009558672&#45;&#45;2529009559632</title>
<path fill="none" stroke="black" d="M517.181,-432.765C499.863,-414.671 473.452,-387.078 467.12,-380.462"/>
</g>
<!-- 2529009558048 -->
<g id="node34" class="node"><title>2529009558048</title>
<ellipse fill="none" stroke="black" cx="532.721" cy="-378" rx="45.7249" ry="18"/>
<text text-anchor="middle" x="532.721" y="-374.5" font-family="Times New Roman,serif" font-size="15.00">Payment</text>
</g>
<!-- 2529009558672&#45;&#45;2529009558048 -->
<g id="edge29" class="edge"><title>2529009558672&#45;&#45;2529009558048</title>
<path fill="none" stroke="black" d="M532.721,-431.697C532.721,-420.846 532.721,-406.917 532.721,-396.104"/>
</g>
<!-- 2529009561072 -->
<g id="node36" class="node"><title>2529009561072</title>
<ellipse fill="none" stroke="black" cx="649.721" cy="-378" rx="52.6228" ry="18"/>
<text text-anchor="middle" x="649.721" y="-374.5" font-family="Times New Roman,serif" font-size="15.00">Send Fine</text>
</g>
<!-- 2529009559776&#45;&#45;2529009561072 -->
<g id="edge31" class="edge"><title>2529009559776&#45;&#45;2529009561072</title>
<path fill="none" stroke="black" d="M649.721,-431.697C649.721,-420.846 649.721,-406.917 649.721,-396.104"/>
</g>
<!-- 2529009561312 -->
<g id="node37" class="node"><title>2529009561312</title>
<ellipse fill="none" stroke="black" cx="747.721" cy="-378" rx="27" ry="18"/>
<text text-anchor="middle" x="747.721" y="-374.5" font-family="Times New Roman,serif" font-size="15.00">seq</text>
</g>
<!-- 2529009559776&#45;&#45;2529009561312 -->
<g id="edge37" class="edge"><title>2529009559776&#45;&#45;2529009561312</title>
<path fill="none" stroke="black" d="M667.695,-436.161C685.378,-423.531 712.217,-404.36 729.86,-391.758"/>
</g>
<!-- 2529009560016 -->
<g id="node38" class="node"><title>2529009560016</title>
<ellipse fill="none" stroke="black" cx="568.721" cy="-306" rx="52.6228" ry="18"/>
<text text-anchor="middle" x="568.721" y="-302.5" font-family="Times New Roman,serif" font-size="15.00">Send Fine</text>
</g>
<!-- 2529009561312&#45;&#45;2529009560016 -->
<g id="edge32" class="edge"><title>2529009561312&#45;&#45;2529009560016</title>
<path fill="none" stroke="black" d="M725.05,-368.134C694.005,-355.994 638.037,-334.107 602.169,-320.081"/>
</g>
<!-- 2529009215424 -->
<g id="node39" class="node"><title>2529009215424</title>
<ellipse fill="none" stroke="black" cx="747.721" cy="-306" rx="107.914" ry="18"/>
<text text-anchor="middle" x="747.721" y="-302.5" font-family="Times New Roman,serif" font-size="15.00">Insert Fine Notification</text>
</g>
<!-- 2529009561312&#45;&#45;2529009215424 -->
<g id="edge33" class="edge"><title>2529009561312&#45;&#45;2529009215424</title>
<path fill="none" stroke="black" d="M747.721,-359.697C747.721,-348.846 747.721,-334.917 747.721,-324.104"/>
</g>
<!-- 2529009215904 -->
<g id="node40" class="node"><title>2529009215904</title>
<ellipse fill="none" stroke="black" cx="919.721" cy="-306" rx="46.6143" ry="18"/>
<text text-anchor="middle" x="919.721" y="-302.5" font-family="Times New Roman,serif" font-size="15.00">xor loop</text>
</g>
<!-- 2529009561312&#45;&#45;2529009215904 -->
<g id="edge36" class="edge"><title>2529009561312&#45;&#45;2529009215904</title>
<path fill="none" stroke="black" d="M770.207,-367.849C800.53,-355.508 854.655,-333.48 888.794,-319.587"/>
</g>
<!-- 2529009213888 -->
<g id="node41" class="node"><title>2529009213888</title>
<ellipse fill="black" stroke="black" cx="877.721" cy="-234" rx="2.7" ry="2.7"/>
</g>
<!-- 2529009215904&#45;&#45;2529009213888 -->
<g id="edge34" class="edge"><title>2529009215904&#45;&#45;2529009213888</title>
<path fill="none" stroke="black" d="M909.767,-288.411C899.094,-270.622 883.098,-243.962 878.81,-236.816"/>
</g>
<!-- 2529009214992 -->
<g id="node42" class="node"><title>2529009214992</title>
<ellipse fill="none" stroke="black" cx="960.721" cy="-234" rx="61.6894" ry="18"/>
<text text-anchor="middle" x="960.721" y="-230.5" font-family="Times New Roman,serif" font-size="15.00">Add penalty</text>
</g>
<!-- 2529009215904&#45;&#45;2529009214992 -->
<g id="edge35" class="edge"><title>2529009215904&#45;&#45;2529009214992</title>
<path fill="none" stroke="black" d="M929.646,-288.055C936.092,-277.049 944.459,-262.764 950.887,-251.789"/>
</g>
<!-- 2529009559824 -->
<g id="node44" class="node"><title>2529009559824</title>
<ellipse fill="black" stroke="black" cx="486.721" cy="-594" rx="2.7" ry="2.7"/>
</g>
<!-- 2529198361856&#45;&#45;2529009559824 -->
<g id="edge42" class="edge"><title>2529198361856&#45;&#45;2529009559824</title>
<path fill="none" stroke="black" d="M486.721,-647.697C486.721,-629.883 486.721,-603.769 486.721,-596.776"/>
</g>
<!-- 2529198362000 -->
<g id="node45" class="node"><title>2529198362000</title>
<ellipse fill="none" stroke="black" cx="628.721" cy="-594" rx="120.819" ry="18"/>
<text text-anchor="middle" x="628.721" y="-590.5" font-family="Times New Roman,serif" font-size="15.00">Send for Credit Collection</text>
</g>
<!-- 2529198361856&#45;&#45;2529198362000 -->
<g id="edge43" class="edge"><title>2529198361856&#45;&#45;2529198362000</title>
<path fill="none" stroke="black" d="M507.979,-654.52C531.113,-643.116 568.405,-624.733 595.429,-611.412"/>
</g>
</g>
</svg>
