<?xml version="1.0" encoding="UTF-8" standalone="no"?>
<!DOCTYPE svg PUBLIC "-//W3C//DTD SVG 1.1//EN"
 "http://www.w3.org/Graphics/SVG/1.1/DTD/svg11.dtd">
<!-- Generated by graphviz version 2.38.0 (20140413.2041)
 -->
<!-- Title: pt Pages: 1 -->
<svg width="1576pt" height="476pt"
 viewBox="0.00 0.00 1576.38 476.00" xmlns="http://www.w3.org/2000/svg" xmlns:xlink="http://www.w3.org/1999/xlink">
<g id="graph0" class="graph" transform="scale(1 1) rotate(0) translate(4 472)">
<title>pt</title>
<!-- 1436175780784 -->
<g id="node1" class="node"><title>1436175780784</title>
<ellipse fill="none" stroke="black" cx="907.536" cy="-450" rx="27" ry="18"/>
<text text-anchor="middle" x="907.536" y="-446.5" font-family="Times New Roman,serif" font-size="15.00">seq</text>
</g>
<!-- 1436175780976 -->
<g id="node2" class="node"><title>1436175780976</title>
<ellipse fill="none" stroke="black" cx="802.536" cy="-378" rx="59.5207" ry="18"/>
<text text-anchor="middle" x="802.536" y="-374.5" font-family="Times New Roman,serif" font-size="15.00">Create Fine</text>
</g>
<!-- 1436175780784&#45;&#45;1436175780976 -->
<g id="edge1" class="edge"><title>1436175780784&#45;&#45;1436175780976</title>
<path fill="none" stroke="black" d="M888.764,-436.485C871.185,-424.767 844.859,-407.215 825.922,-394.591"/>
</g>
<!-- 1436175779152 -->
<g id="node3" class="node"><title>1436175779152</title>
<ellipse fill="none" stroke="black" cx="907.536" cy="-378" rx="27" ry="18"/>
<text text-anchor="middle" x="907.536" y="-374.5" font-family="Times New Roman,serif" font-size="15.00">and</text>
</g>
<!-- 1436175780784&#45;&#45;1436175779152 -->
<g id="edge26" class="edge"><title>1436175780784&#45;&#45;1436175779152</title>
<path fill="none" stroke="black" d="M907.536,-431.697C907.536,-420.846 907.536,-406.917 907.536,-396.104"/>
</g>
<!-- 1436175780832 -->
<g id="node28" class="node"><title>1436175780832</title>
<ellipse fill="none" stroke="black" cx="979.536" cy="-378" rx="27" ry="18"/>
<text text-anchor="middle" x="979.536" y="-374.5" font-family="Times New Roman,serif" font-size="15.00">xor</text>
</g>
<!-- 1436175780784&#45;&#45;1436175780832 -->
<g id="edge29" class="edge"><title>1436175780784&#45;&#45;1436175780832</title>
<path fill="none" stroke="black" d="M922.106,-434.834C934.515,-422.77 952.266,-405.512 964.74,-393.385"/>
</g>
<!-- 1436175779392 -->
<g id="node4" class="node"><title>1436175779392</title>
<ellipse fill="none" stroke="black" cx="592.536" cy="-306" rx="27" ry="18"/>
<text text-anchor="middle" x="592.536" y="-302.5" font-family="Times New Roman,serif" font-size="15.00">xor</text>
</g>
<!-- 1436175779152&#45;&#45;1436175779392 -->
<g id="edge12" class="edge"><title>1436175779152&#45;&#45;1436175779392</title>
<path fill="none" stroke="black" d="M882.29,-371.39C823.309,-358.283 677.001,-325.77 617.901,-312.637"/>
</g>
<!-- 1436175779680 -->
<g id="node15" class="node"><title>1436175779680</title>
<ellipse fill="none" stroke="black" cx="913.536" cy="-306" rx="27" ry="18"/>
<text text-anchor="middle" x="913.536" y="-302.5" font-family="Times New Roman,serif" font-size="15.00">and</text>
</g>
<!-- 1436175779152&#45;&#45;1436175779680 -->
<g id="edge25" class="edge"><title>1436175779152&#45;&#45;1436175779680</title>
<path fill="none" stroke="black" d="M909.019,-359.697C909.949,-348.846 911.143,-334.917 912.069,-324.104"/>
</g>
<!-- 1436175780592 -->
<g id="node5" class="node"><title>1436175780592</title>
<ellipse fill="black" stroke="black" cx="544.536" cy="-234" rx="2.7" ry="2.7"/>
</g>
<!-- 1436175779392&#45;&#45;1436175780592 -->
<g id="edge2" class="edge"><title>1436175779392&#45;&#45;1436175780592</title>
<path fill="none" stroke="black" d="M581.644,-289.116C569.473,-271.367 550.815,-244.158 545.809,-236.857"/>
</g>
<!-- 1436175778432 -->
<g id="node6" class="node"><title>1436175778432</title>
<ellipse fill="none" stroke="black" cx="592.536" cy="-234" rx="27" ry="18"/>
<text text-anchor="middle" x="592.536" y="-230.5" font-family="Times New Roman,serif" font-size="15.00">seq</text>
</g>
<!-- 1436175779392&#45;&#45;1436175778432 -->
<g id="edge11" class="edge"><title>1436175779392&#45;&#45;1436175778432</title>
<path fill="none" stroke="black" d="M592.536,-287.697C592.536,-276.846 592.536,-262.917 592.536,-252.104"/>
</g>
<!-- 1436175530256 -->
<g id="node7" class="node"><title>1436175530256</title>
<ellipse fill="none" stroke="black" cx="144.536" cy="-162" rx="144.571" ry="18"/>
<text text-anchor="middle" x="144.536" y="-158.5" font-family="Times New Roman,serif" font-size="15.00">Insert Date Appeal to Prefecture</text>
</g>
<!-- 1436175778432&#45;&#45;1436175530256 -->
<g id="edge3" class="edge"><title>1436175778432&#45;&#45;1436175530256</title>
<path fill="none" stroke="black" d="M566.513,-228.934C502.365,-218.911 334.357,-192.66 230.721,-176.466"/>
</g>
<!-- 1436175530976 -->
<g id="node8" class="node"><title>1436175530976</title>
<ellipse fill="none" stroke="black" cx="427.536" cy="-162" rx="120.43" ry="18"/>
<text text-anchor="middle" x="427.536" y="-158.5" font-family="Times New Roman,serif" font-size="15.00">Send Appeal to Prefecture</text>
</g>
<!-- 1436175778432&#45;&#45;1436175530976 -->
<g id="edge4" class="edge"><title>1436175778432&#45;&#45;1436175530976</title>
<path fill="none" stroke="black" d="M570.283,-223.559C543.454,-212.177 497.933,-192.866 465.511,-179.111"/>
</g>
<!-- 1436175529728 -->
<g id="node9" class="node"><title>1436175529728</title>
<ellipse fill="none" stroke="black" cx="592.536" cy="-162" rx="27" ry="18"/>
<text text-anchor="middle" x="592.536" y="-158.5" font-family="Times New Roman,serif" font-size="15.00">xor</text>
</g>
<!-- 1436175778432&#45;&#45;1436175529728 -->
<g id="edge7" class="edge"><title>1436175778432&#45;&#45;1436175529728</title>
<path fill="none" stroke="black" d="M592.536,-215.697C592.536,-204.846 592.536,-190.917 592.536,-180.104"/>
</g>
<!-- 1436175529200 -->
<g id="node12" class="node"><title>1436175529200</title>
<ellipse fill="none" stroke="black" cx="725.536" cy="-162" rx="27" ry="18"/>
<text text-anchor="middle" x="725.536" y="-158.5" font-family="Times New Roman,serif" font-size="15.00">xor</text>
</g>
<!-- 1436175778432&#45;&#45;1436175529200 -->
<g id="edge10" class="edge"><title>1436175778432&#45;&#45;1436175529200</title>
<path fill="none" stroke="black" d="M613.025,-222.216C637.946,-209.1 679.774,-187.085 704.803,-173.912"/>
</g>
<!-- 1436175528528 -->
<g id="node10" class="node"><title>1436175528528</title>
<ellipse fill="black" stroke="black" cx="337.536" cy="-90" rx="2.7" ry="2.7"/>
</g>
<!-- 1436175529728&#45;&#45;1436175528528 -->
<g id="edge5" class="edge"><title>1436175529728&#45;&#45;1436175528528</title>
<path fill="none" stroke="black" d="M568.085,-154.288C508.748,-138 360.473,-97.2964 339.915,-91.6531"/>
</g>
<!-- 1436175530064 -->
<g id="node11" class="node"><title>1436175530064</title>
<ellipse fill="none" stroke="black" cx="531.536" cy="-90" rx="173.941" ry="18"/>
<text text-anchor="middle" x="531.536" y="-86.5" font-family="Times New Roman,serif" font-size="15.00">Receive Result Appeal from Prefecture</text>
</g>
<!-- 1436175529728&#45;&#45;1436175530064 -->
<g id="edge6" class="edge"><title>1436175529728&#45;&#45;1436175530064</title>
<path fill="none" stroke="black" d="M579.599,-146.155C569.877,-134.998 556.542,-119.696 546.385,-108.04"/>
</g>
<!-- 1436175531648 -->
<g id="node13" class="node"><title>1436175531648</title>
<ellipse fill="black" stroke="black" cx="725.536" cy="-90" rx="2.7" ry="2.7"/>
</g>
<!-- 1436175529200&#45;&#45;1436175531648 -->
<g id="edge8" class="edge"><title>1436175529200&#45;&#45;1436175531648</title>
<path fill="none" stroke="black" d="M725.536,-143.697C725.536,-125.883 725.536,-99.7686 725.536,-92.7764"/>
</g>
<!-- 1436175531168 -->
<g id="node14" class="node"><title>1436175531168</title>
<ellipse fill="none" stroke="black" cx="894.536" cy="-90" rx="148.91" ry="18"/>
<text text-anchor="middle" x="894.536" y="-86.5" font-family="Times New Roman,serif" font-size="15.00">Notify Result Appeal to Offender</text>
</g>
<!-- 1436175529200&#45;&#45;1436175531168 -->
<g id="edge9" class="edge"><title>1436175529200&#45;&#45;1436175531168</title>
<path fill="none" stroke="black" d="M747.977,-151.705C775.183,-140.436 821.516,-121.245 854.81,-107.454"/>
</g>
<!-- 1436175530640 -->
<g id="node16" class="node"><title>1436175530640</title>
<ellipse fill="none" stroke="black" cx="913.536" cy="-234" rx="46.6143" ry="18"/>
<text text-anchor="middle" x="913.536" y="-230.5" font-family="Times New Roman,serif" font-size="15.00">xor loop</text>
</g>
<!-- 1436175779680&#45;&#45;1436175530640 -->
<g id="edge15" class="edge"><title>1436175779680&#45;&#45;1436175530640</title>
<path fill="none" stroke="black" d="M913.536,-287.697C913.536,-276.846 913.536,-262.917 913.536,-252.104"/>
</g>
<!-- 1436175529008 -->
<g id="node19" class="node"><title>1436175529008</title>
<ellipse fill="none" stroke="black" cx="1104.54" cy="-234" rx="27" ry="18"/>
<text text-anchor="middle" x="1104.54" y="-230.5" font-family="Times New Roman,serif" font-size="15.00">xor</text>
</g>
<!-- 1436175779680&#45;&#45;1436175529008 -->
<g id="edge24" class="edge"><title>1436175779680&#45;&#45;1436175529008</title>
<path fill="none" stroke="black" d="M936.575,-296.556C973.286,-283.102 1044.65,-256.947 1081.41,-243.474"/>
</g>
<!-- 1436175529824 -->
<g id="node17" class="node"><title>1436175529824</title>
<ellipse fill="black" stroke="black" cx="880.536" cy="-162" rx="2.7" ry="2.7"/>
</g>
<!-- 1436175530640&#45;&#45;1436175529824 -->
<g id="edge13" class="edge"><title>1436175530640&#45;&#45;1436175529824</title>
<path fill="none" stroke="black" d="M905.547,-216.055C897.154,-198.252 884.715,-171.865 881.382,-164.796"/>
</g>
<!-- 1436175530832 -->
<g id="node18" class="node"><title>1436175530832</title>
<ellipse fill="none" stroke="black" cx="947.536" cy="-162" rx="45.7249" ry="18"/>
<text text-anchor="middle" x="947.536" y="-158.5" font-family="Times New Roman,serif" font-size="15.00">Payment</text>
</g>
<!-- 1436175530640&#45;&#45;1436175530832 -->
<g id="edge14" class="edge"><title>1436175530640&#45;&#45;1436175530832</title>
<path fill="none" stroke="black" d="M921.766,-216.055C927.112,-205.049 934.05,-190.764 939.381,-179.789"/>
</g>
<!-- 1436175531696 -->
<g id="node20" class="node"><title>1436175531696</title>
<ellipse fill="black" stroke="black" cx="1067.54" cy="-162" rx="2.7" ry="2.7"/>
</g>
<!-- 1436175529008&#45;&#45;1436175531696 -->
<g id="edge16" class="edge"><title>1436175529008&#45;&#45;1436175531696</title>
<path fill="none" stroke="black" d="M1095.95,-216.765C1086.56,-198.994 1072.32,-172.06 1068.51,-164.836"/>
</g>
<!-- 1436175531888 -->
<g id="node21" class="node"><title>1436175531888</title>
<ellipse fill="none" stroke="black" cx="1141.54" cy="-162" rx="52.6228" ry="18"/>
<text text-anchor="middle" x="1141.54" y="-158.5" font-family="Times New Roman,serif" font-size="15.00">Send Fine</text>
</g>
<!-- 1436175529008&#45;&#45;1436175531888 -->
<g id="edge17" class="edge"><title>1436175529008&#45;&#45;1436175531888</title>
<path fill="none" stroke="black" d="M1113.12,-216.765C1118.92,-205.779 1126.58,-191.292 1132.48,-180.124"/>
</g>
<!-- 1436175528864 -->
<g id="node22" class="node"><title>1436175528864</title>
<ellipse fill="none" stroke="black" cx="1266.54" cy="-162" rx="27" ry="18"/>
<text text-anchor="middle" x="1266.54" y="-158.5" font-family="Times New Roman,serif" font-size="15.00">seq</text>
</g>
<!-- 1436175529008&#45;&#45;1436175528864 -->
<g id="edge23" class="edge"><title>1436175529008&#45;&#45;1436175528864</title>
<path fill="none" stroke="black" d="M1126.72,-223.414C1157.66,-210.046 1213.43,-185.948 1244.36,-172.583"/>
</g>
<!-- 1436175529920 -->
<g id="node23" class="node"><title>1436175529920</title>
<ellipse fill="none" stroke="black" cx="1114.54" cy="-90" rx="52.6228" ry="18"/>
<text text-anchor="middle" x="1114.54" y="-86.5" font-family="Times New Roman,serif" font-size="15.00">Send Fine</text>
</g>
<!-- 1436175528864&#45;&#45;1436175529920 -->
<g id="edge18" class="edge"><title>1436175528864&#45;&#45;1436175529920</title>
<path fill="none" stroke="black" d="M1244.76,-150.971C1218.49,-138.873 1174.19,-118.472 1144.66,-104.872"/>
</g>
<!-- 1436175530928 -->
<g id="node24" class="node"><title>1436175530928</title>
<ellipse fill="none" stroke="black" cx="1293.54" cy="-90" rx="107.914" ry="18"/>
<text text-anchor="middle" x="1293.54" y="-86.5" font-family="Times New Roman,serif" font-size="15.00">Insert Fine Notification</text>
</g>
<!-- 1436175528864&#45;&#45;1436175530928 -->
<g id="edge19" class="edge"><title>1436175528864&#45;&#45;1436175530928</title>
<path fill="none" stroke="black" d="M1272.93,-144.411C1277.11,-133.576 1282.56,-119.45 1286.81,-108.447"/>
</g>
<!-- 1436175528576 -->
<g id="node25" class="node"><title>1436175528576</title>
<ellipse fill="none" stroke="black" cx="1465.54" cy="-90" rx="46.6143" ry="18"/>
<text text-anchor="middle" x="1465.54" y="-86.5" font-family="Times New Roman,serif" font-size="15.00">xor loop</text>
</g>
<!-- 1436175528864&#45;&#45;1436175528576 -->
<g id="edge22" class="edge"><title>1436175528864&#45;&#45;1436175528576</title>
<path fill="none" stroke="black" d="M1290.14,-152.695C1325.46,-140.273 1392.17,-116.806 1432.37,-102.668"/>
</g>
<!-- 1436175530400 -->
<g id="node26" class="node"><title>1436175530400</title>
<ellipse fill="black" stroke="black" cx="1423.54" cy="-18" rx="2.7" ry="2.7"/>
</g>
<!-- 1436175528576&#45;&#45;1436175530400 -->
<g id="edge20" class="edge"><title>1436175528576&#45;&#45;1436175530400</title>
<path fill="none" stroke="black" d="M1455.58,-72.411C1444.91,-54.622 1428.91,-27.9625 1424.63,-20.8163"/>
</g>
<!-- 1436175528336 -->
<g id="node27" class="node"><title>1436175528336</title>
<ellipse fill="none" stroke="black" cx="1506.54" cy="-18" rx="61.6894" ry="18"/>
<text text-anchor="middle" x="1506.54" y="-14.5" font-family="Times New Roman,serif" font-size="15.00">Add penalty</text>
</g>
<!-- 1436175528576&#45;&#45;1436175528336 -->
<g id="edge21" class="edge"><title>1436175528576&#45;&#45;1436175528336</title>
<path fill="none" stroke="black" d="M1475.46,-72.055C1481.91,-61.0492 1490.27,-46.7636 1496.7,-35.789"/>
</g>
<!-- 1436175529872 -->
<g id="node29" class="node"><title>1436175529872</title>
<ellipse fill="black" stroke="black" cx="973.536" cy="-306" rx="2.7" ry="2.7"/>
</g>
<!-- 1436175780832&#45;&#45;1436175529872 -->
<g id="edge27" class="edge"><title>1436175780832&#45;&#45;1436175529872</title>
<path fill="none" stroke="black" d="M978.052,-359.697C976.525,-341.883 974.287,-315.769 973.688,-308.776"/>
</g>
<!-- 1436175529344 -->
<g id="node30" class="node"><title>1436175529344</title>
<ellipse fill="none" stroke="black" cx="1115.54" cy="-306" rx="120.819" ry="18"/>
<text text-anchor="middle" x="1115.54" y="-302.5" font-family="Times New Roman,serif" font-size="15.00">Send for Credit Collection</text>
</g>
<!-- 1436175780832&#45;&#45;1436175529344 -->
<g id="edge28" class="edge"><title>1436175780832&#45;&#45;1436175529344</title>
<path fill="none" stroke="black" d="M1000.19,-366.369C1022.33,-354.971 1057.78,-336.729 1083.53,-323.471"/>
</g>
</g>
</svg>
