<?xml version="1.0" encoding="UTF-8" standalone="no"?>
<!DOCTYPE svg PUBLIC "-//W3C//DTD SVG 1.1//EN"
 "http://www.w3.org/Graphics/SVG/1.1/DTD/svg11.dtd">
<!-- Generated by graphviz version 2.38.0 (20140413.2041)
 -->
<!-- Title: pt Pages: 1 -->
<svg width="2542pt" height="620pt"
 viewBox="0.00 0.00 2541.67 620.00" xmlns="http://www.w3.org/2000/svg" xmlns:xlink="http://www.w3.org/1999/xlink">
<g id="graph0" class="graph" transform="scale(1 1) rotate(0) translate(4 616)">
<title>pt</title>
<!-- 1436181434672 -->
<g id="node1" class="node"><title>1436181434672</title>
<ellipse fill="none" stroke="black" cx="323.811" cy="-594" rx="27" ry="18"/>
<text text-anchor="middle" x="323.811" y="-590.5" font-family="Times New Roman,serif" font-size="15.00">and</text>
</g>
<!-- 1436181438128 -->
<g id="node2" class="node"><title>1436181438128</title>
<ellipse fill="none" stroke="black" cx="219.811" cy="-522" rx="27" ry="18"/>
<text text-anchor="middle" x="219.811" y="-518.5" font-family="Times New Roman,serif" font-size="15.00">xor</text>
</g>
<!-- 1436181434672&#45;&#45;1436181438128 -->
<g id="edge15" class="edge"><title>1436181434672&#45;&#45;1436181438128</title>
<path fill="none" stroke="black" d="M305.218,-580.485C286.288,-567.744 257.115,-548.108 238.243,-535.406"/>
</g>
<!-- 1436181436544 -->
<g id="node17" class="node"><title>1436181436544</title>
<ellipse fill="none" stroke="black" cx="571.811" cy="-522" rx="27" ry="18"/>
<text text-anchor="middle" x="571.811" y="-518.5" font-family="Times New Roman,serif" font-size="15.00">and</text>
</g>
<!-- 1436181434672&#45;&#45;1436181436544 -->
<g id="edge66" class="edge"><title>1436181434672&#45;&#45;1436181436544</title>
<path fill="none" stroke="black" d="M348.497,-586.032C396.034,-572.615 499.767,-543.335 547.225,-529.94"/>
</g>
<!-- 1436181434768 -->
<g id="node3" class="node"><title>1436181434768</title>
<ellipse fill="black" stroke="black" cx="171.811" cy="-450" rx="2.7" ry="2.7"/>
</g>
<!-- 1436181438128&#45;&#45;1436181434768 -->
<g id="edge1" class="edge"><title>1436181438128&#45;&#45;1436181434768</title>
<path fill="none" stroke="black" d="M208.919,-505.116C196.749,-487.367 178.091,-460.158 173.084,-452.857"/>
</g>
<!-- 1436177221088 -->
<g id="node4" class="node"><title>1436177221088</title>
<ellipse fill="none" stroke="black" cx="219.811" cy="-450" rx="27" ry="18"/>
<text text-anchor="middle" x="219.811" y="-446.5" font-family="Times New Roman,serif" font-size="15.00">and</text>
</g>
<!-- 1436181438128&#45;&#45;1436177221088 -->
<g id="edge14" class="edge"><title>1436181438128&#45;&#45;1436177221088</title>
<path fill="none" stroke="black" d="M219.811,-503.697C219.811,-492.846 219.811,-478.917 219.811,-468.104"/>
</g>
<!-- 1436179945600 -->
<g id="node5" class="node"><title>1436179945600</title>
<ellipse fill="none" stroke="black" cx="78.8111" cy="-378" rx="46.6143" ry="18"/>
<text text-anchor="middle" x="78.8111" y="-374.5" font-family="Times New Roman,serif" font-size="15.00">xor loop</text>
</g>
<!-- 1436177221088&#45;&#45;1436179945600 -->
<g id="edge4" class="edge"><title>1436177221088&#45;&#45;1436179945600</title>
<path fill="none" stroke="black" d="M198.702,-438.52C174.118,-426.316 133.432,-406.117 106.374,-392.684"/>
</g>
<!-- 1436179945264 -->
<g id="node8" class="node"><title>1436179945264</title>
<ellipse fill="none" stroke="black" cx="219.811" cy="-378" rx="27" ry="18"/>
<text text-anchor="middle" x="219.811" y="-374.5" font-family="Times New Roman,serif" font-size="15.00">xor</text>
</g>
<!-- 1436177221088&#45;&#45;1436179945264 -->
<g id="edge13" class="edge"><title>1436177221088&#45;&#45;1436179945264</title>
<path fill="none" stroke="black" d="M219.811,-431.697C219.811,-420.846 219.811,-406.917 219.811,-396.104"/>
</g>
<!-- 1436179944832 -->
<g id="node6" class="node"><title>1436179944832</title>
<ellipse fill="black" stroke="black" cx="11.8111" cy="-306" rx="2.7" ry="2.7"/>
</g>
<!-- 1436179945600&#45;&#45;1436179944832 -->
<g id="edge2" class="edge"><title>1436179945600&#45;&#45;1436179944832</title>
<path fill="none" stroke="black" d="M63.2715,-360.765C45.9531,-342.671 19.5425,-315.078 13.2104,-308.462"/>
</g>
<!-- 1436175440960 -->
<g id="node7" class="node"><title>1436175440960</title>
<ellipse fill="none" stroke="black" cx="78.8111" cy="-306" rx="45.7249" ry="18"/>
<text text-anchor="middle" x="78.8111" y="-302.5" font-family="Times New Roman,serif" font-size="15.00">Payment</text>
</g>
<!-- 1436179945600&#45;&#45;1436175440960 -->
<g id="edge3" class="edge"><title>1436179945600&#45;&#45;1436175440960</title>
<path fill="none" stroke="black" d="M78.8111,-359.697C78.8111,-348.846 78.8111,-334.917 78.8111,-324.104"/>
</g>
<!-- 1436175439040 -->
<g id="node9" class="node"><title>1436175439040</title>
<ellipse fill="black" stroke="black" cx="145.811" cy="-306" rx="2.7" ry="2.7"/>
</g>
<!-- 1436179945264&#45;&#45;1436175439040 -->
<g id="edge5" class="edge"><title>1436179945264&#45;&#45;1436175439040</title>
<path fill="none" stroke="black" d="M204.836,-362.834C185.916,-344.937 154.915,-315.612 147.46,-308.56"/>
</g>
<!-- 1436175438848 -->
<g id="node10" class="node"><title>1436175438848</title>
<ellipse fill="none" stroke="black" cx="219.811" cy="-306" rx="52.6228" ry="18"/>
<text text-anchor="middle" x="219.811" y="-302.5" font-family="Times New Roman,serif" font-size="15.00">Send Fine</text>
</g>
<!-- 1436179945264&#45;&#45;1436175438848 -->
<g id="edge6" class="edge"><title>1436179945264&#45;&#45;1436175438848</title>
<path fill="none" stroke="black" d="M219.811,-359.697C219.811,-348.846 219.811,-334.917 219.811,-324.104"/>
</g>
<!-- 1436175440288 -->
<g id="node11" class="node"><title>1436175440288</title>
<ellipse fill="none" stroke="black" cx="317.811" cy="-306" rx="27" ry="18"/>
<text text-anchor="middle" x="317.811" y="-302.5" font-family="Times New Roman,serif" font-size="15.00">seq</text>
</g>
<!-- 1436179945264&#45;&#45;1436175440288 -->
<g id="edge12" class="edge"><title>1436179945264&#45;&#45;1436175440288</title>
<path fill="none" stroke="black" d="M237.786,-364.161C255.468,-351.531 282.307,-332.36 299.95,-319.758"/>
</g>
<!-- 1436175438896 -->
<g id="node12" class="node"><title>1436175438896</title>
<ellipse fill="none" stroke="black" cx="52.8111" cy="-234" rx="52.6228" ry="18"/>
<text text-anchor="middle" x="52.8111" y="-230.5" font-family="Times New Roman,serif" font-size="15.00">Send Fine</text>
</g>
<!-- 1436175440288&#45;&#45;1436175438896 -->
<g id="edge7" class="edge"><title>1436175440288&#45;&#45;1436175438896</title>
<path fill="none" stroke="black" d="M292.88,-298.415C247.012,-286.298 148.866,-260.373 93.3157,-245.699"/>
</g>
<!-- 1436175441680 -->
<g id="node13" class="node"><title>1436175441680</title>
<ellipse fill="none" stroke="black" cx="231.811" cy="-234" rx="107.914" ry="18"/>
<text text-anchor="middle" x="231.811" y="-230.5" font-family="Times New Roman,serif" font-size="15.00">Insert Fine Notification</text>
</g>
<!-- 1436175440288&#45;&#45;1436175441680 -->
<g id="edge8" class="edge"><title>1436175440288&#45;&#45;1436175441680</title>
<path fill="none" stroke="black" d="M301.229,-291.503C287.367,-280.22 267.525,-264.07 252.602,-251.923"/>
</g>
<!-- 1436175441776 -->
<g id="node14" class="node"><title>1436175441776</title>
<ellipse fill="none" stroke="black" cx="403.811" cy="-234" rx="46.6143" ry="18"/>
<text text-anchor="middle" x="403.811" y="-230.5" font-family="Times New Roman,serif" font-size="15.00">xor loop</text>
</g>
<!-- 1436175440288&#45;&#45;1436175441776 -->
<g id="edge11" class="edge"><title>1436175440288&#45;&#45;1436175441776</title>
<path fill="none" stroke="black" d="M334.393,-291.503C348.743,-279.823 369.502,-262.926 384.578,-250.655"/>
</g>
<!-- 1436175441296 -->
<g id="node15" class="node"><title>1436175441296</title>
<ellipse fill="black" stroke="black" cx="361.811" cy="-162" rx="2.7" ry="2.7"/>
</g>
<!-- 1436175441776&#45;&#45;1436175441296 -->
<g id="edge9" class="edge"><title>1436175441776&#45;&#45;1436175441296</title>
<path fill="none" stroke="black" d="M393.858,-216.411C383.184,-198.622 367.189,-171.962 362.901,-164.816"/>
</g>
<!-- 1436175441200 -->
<g id="node16" class="node"><title>1436175441200</title>
<ellipse fill="none" stroke="black" cx="444.811" cy="-162" rx="61.6894" ry="18"/>
<text text-anchor="middle" x="444.811" y="-158.5" font-family="Times New Roman,serif" font-size="15.00">Add penalty</text>
</g>
<!-- 1436175441776&#45;&#45;1436175441200 -->
<g id="edge10" class="edge"><title>1436175441776&#45;&#45;1436175441200</title>
<path fill="none" stroke="black" d="M413.736,-216.055C420.182,-205.049 428.55,-190.764 434.977,-179.789"/>
</g>
<!-- 1436181435920 -->
<g id="node18" class="node"><title>1436181435920</title>
<ellipse fill="none" stroke="black" cx="571.811" cy="-450" rx="27" ry="18"/>
<text text-anchor="middle" x="571.811" y="-446.5" font-family="Times New Roman,serif" font-size="15.00">xor</text>
</g>
<!-- 1436181436544&#45;&#45;1436181435920 -->
<g id="edge32" class="edge"><title>1436181436544&#45;&#45;1436181435920</title>
<path fill="none" stroke="black" d="M571.811,-503.697C571.811,-492.846 571.811,-478.917 571.811,-468.104"/>
</g>
<!-- 1436181435680 -->
<g id="node35" class="node"><title>1436181435680</title>
<ellipse fill="none" stroke="black" cx="1299.81" cy="-450" rx="27" ry="18"/>
<text text-anchor="middle" x="1299.81" y="-446.5" font-family="Times New Roman,serif" font-size="15.00">seq</text>
</g>
<!-- 1436181436544&#45;&#45;1436181435680 -->
<g id="edge65" class="edge"><title>1436181436544&#45;&#45;1436181435680</title>
<path fill="none" stroke="black" d="M598.584,-518.426C712.866,-507.437 1159.17,-464.523 1273.18,-453.561"/>
</g>
<!-- 1436181438080 -->
<g id="node19" class="node"><title>1436181438080</title>
<ellipse fill="black" stroke="black" cx="547.811" cy="-378" rx="2.7" ry="2.7"/>
</g>
<!-- 1436181435920&#45;&#45;1436181438080 -->
<g id="edge16" class="edge"><title>1436181435920&#45;&#45;1436181438080</title>
<path fill="none" stroke="black" d="M566.001,-432.055C559.897,-414.252 550.851,-387.865 548.427,-380.796"/>
</g>
<!-- 1436177222912 -->
<g id="node20" class="node"><title>1436177222912</title>
<ellipse fill="none" stroke="black" cx="595.811" cy="-378" rx="27" ry="18"/>
<text text-anchor="middle" x="595.811" y="-374.5" font-family="Times New Roman,serif" font-size="15.00">and</text>
</g>
<!-- 1436181435920&#45;&#45;1436177222912 -->
<g id="edge31" class="edge"><title>1436181435920&#45;&#45;1436177222912</title>
<path fill="none" stroke="black" d="M577.621,-432.055C581.394,-421.049 586.292,-406.764 590.055,-395.789"/>
</g>
<!-- 1436177223248 -->
<g id="node21" class="node"><title>1436177223248</title>
<ellipse fill="none" stroke="black" cx="537.811" cy="-306" rx="46.6143" ry="18"/>
<text text-anchor="middle" x="537.811" y="-302.5" font-family="Times New Roman,serif" font-size="15.00">xor loop</text>
</g>
<!-- 1436177222912&#45;&#45;1436177223248 -->
<g id="edge19" class="edge"><title>1436177222912&#45;&#45;1436177223248</title>
<path fill="none" stroke="black" d="M583.226,-361.811C573.897,-350.552 561.189,-335.215 551.588,-323.628"/>
</g>
<!-- 1436177222192 -->
<g id="node24" class="node"><title>1436177222192</title>
<ellipse fill="none" stroke="black" cx="654.811" cy="-306" rx="27" ry="18"/>
<text text-anchor="middle" x="654.811" y="-302.5" font-family="Times New Roman,serif" font-size="15.00">xor</text>
</g>
<!-- 1436177222912&#45;&#45;1436177222192 -->
<g id="edge30" class="edge"><title>1436177222912&#45;&#45;1436177222192</title>
<path fill="none" stroke="black" d="M608.613,-361.811C618.509,-350.07 632.144,-333.893 642.034,-322.159"/>
</g>
<!-- 1436177220224 -->
<g id="node22" class="node"><title>1436177220224</title>
<ellipse fill="black" stroke="black" cx="470.811" cy="-234" rx="2.7" ry="2.7"/>
</g>
<!-- 1436177223248&#45;&#45;1436177220224 -->
<g id="edge17" class="edge"><title>1436177223248&#45;&#45;1436177220224</title>
<path fill="none" stroke="black" d="M522.272,-288.765C504.953,-270.671 478.542,-243.078 472.21,-236.462"/>
</g>
<!-- 1436179944448 -->
<g id="node23" class="node"><title>1436179944448</title>
<ellipse fill="none" stroke="black" cx="537.811" cy="-234" rx="45.7249" ry="18"/>
<text text-anchor="middle" x="537.811" y="-230.5" font-family="Times New Roman,serif" font-size="15.00">Payment</text>
</g>
<!-- 1436177223248&#45;&#45;1436179944448 -->
<g id="edge18" class="edge"><title>1436177223248&#45;&#45;1436179944448</title>
<path fill="none" stroke="black" d="M537.811,-287.697C537.811,-276.846 537.811,-262.917 537.811,-252.104"/>
</g>
<!-- 1436179947280 -->
<g id="node25" class="node"><title>1436179947280</title>
<ellipse fill="black" stroke="black" cx="604.811" cy="-234" rx="2.7" ry="2.7"/>
</g>
<!-- 1436177222192&#45;&#45;1436179947280 -->
<g id="edge20" class="edge"><title>1436177222192&#45;&#45;1436179947280</title>
<path fill="none" stroke="black" d="M643.714,-289.465C630.825,-271.42 610.707,-243.254 605.879,-236.494"/>
</g>
<!-- 1436179946992 -->
<g id="node26" class="node"><title>1436179946992</title>
<ellipse fill="none" stroke="black" cx="678.811" cy="-234" rx="52.6228" ry="18"/>
<text text-anchor="middle" x="678.811" y="-230.5" font-family="Times New Roman,serif" font-size="15.00">Send Fine</text>
</g>
<!-- 1436177222192&#45;&#45;1436179946992 -->
<g id="edge21" class="edge"><title>1436177222192&#45;&#45;1436179946992</title>
<path fill="none" stroke="black" d="M660.621,-288.055C664.339,-277.211 669.148,-263.183 672.888,-252.275"/>
</g>
<!-- 1436179945312 -->
<g id="node27" class="node"><title>1436179945312</title>
<ellipse fill="none" stroke="black" cx="776.811" cy="-234" rx="27" ry="18"/>
<text text-anchor="middle" x="776.811" y="-230.5" font-family="Times New Roman,serif" font-size="15.00">seq</text>
</g>
<!-- 1436177222192&#45;&#45;1436179945312 -->
<g id="edge29" class="edge"><title>1436177222192&#45;&#45;1436179945312</title>
<path fill="none" stroke="black" d="M674.684,-293.597C697.371,-280.581 734.264,-259.413 756.947,-246.398"/>
</g>
<!-- 1436179946704 -->
<g id="node28" class="node"><title>1436179946704</title>
<ellipse fill="none" stroke="black" cx="678.811" cy="-162" rx="52.6228" ry="18"/>
<text text-anchor="middle" x="678.811" y="-158.5" font-family="Times New Roman,serif" font-size="15.00">Send Fine</text>
</g>
<!-- 1436179945312&#45;&#45;1436179946704 -->
<g id="edge22" class="edge"><title>1436179945312&#45;&#45;1436179946704</title>
<path fill="none" stroke="black" d="M758.836,-220.161C742.37,-208.399 717.962,-190.965 700.435,-178.446"/>
</g>
<!-- 1436179946656 -->
<g id="node29" class="node"><title>1436179946656</title>
<ellipse fill="none" stroke="black" cx="776.811" cy="-162" rx="27" ry="18"/>
<text text-anchor="middle" x="776.811" y="-158.5" font-family="Times New Roman,serif" font-size="15.00">seq</text>
</g>
<!-- 1436179945312&#45;&#45;1436179946656 -->
<g id="edge28" class="edge"><title>1436179945312&#45;&#45;1436179946656</title>
<path fill="none" stroke="black" d="M776.811,-215.697C776.811,-204.846 776.811,-190.917 776.811,-180.104"/>
</g>
<!-- 1436179946032 -->
<g id="node30" class="node"><title>1436179946032</title>
<ellipse fill="none" stroke="black" cx="569.811" cy="-90" rx="107.914" ry="18"/>
<text text-anchor="middle" x="569.811" y="-86.5" font-family="Times New Roman,serif" font-size="15.00">Insert Fine Notification</text>
</g>
<!-- 1436179946656&#45;&#45;1436179946032 -->
<g id="edge23" class="edge"><title>1436179946656&#45;&#45;1436179946032</title>
<path fill="none" stroke="black" d="M753.066,-152.97C719.614,-141.658 657.959,-120.809 615.466,-106.439"/>
</g>
<!-- 1436179946320 -->
<g id="node31" class="node"><title>1436179946320</title>
<ellipse fill="none" stroke="black" cx="722.811" cy="-90" rx="27" ry="18"/>
<text text-anchor="middle" x="722.811" y="-86.5" font-family="Times New Roman,serif" font-size="15.00">xor</text>
</g>
<!-- 1436179946656&#45;&#45;1436179946320 -->
<g id="edge26" class="edge"><title>1436179946656&#45;&#45;1436179946320</title>
<path fill="none" stroke="black" d="M764.827,-145.465C755.878,-133.865 743.703,-118.082 734.762,-106.492"/>
</g>
<!-- 1436179945024 -->
<g id="node34" class="node"><title>1436179945024</title>
<ellipse fill="none" stroke="black" cx="829.811" cy="-90" rx="61.6894" ry="18"/>
<text text-anchor="middle" x="829.811" y="-86.5" font-family="Times New Roman,serif" font-size="15.00">Add penalty</text>
</g>
<!-- 1436179946656&#45;&#45;1436179945024 -->
<g id="edge27" class="edge"><title>1436179946656&#45;&#45;1436179945024</title>
<path fill="none" stroke="black" d="M788.573,-145.465C796.991,-134.348 808.316,-119.39 816.969,-107.962"/>
</g>
<!-- 1436175441008 -->
<g id="node32" class="node"><title>1436175441008</title>
<ellipse fill="black" stroke="black" cx="673.811" cy="-18" rx="2.7" ry="2.7"/>
</g>
<!-- 1436179946320&#45;&#45;1436175441008 -->
<g id="edge24" class="edge"><title>1436179946320&#45;&#45;1436175441008</title>
<path fill="none" stroke="black" d="M711.936,-73.4647C699.305,-55.42 679.589,-27.254 674.857,-20.4944"/>
</g>
<!-- 1436175438512 -->
<g id="node33" class="node"><title>1436175438512</title>
<ellipse fill="none" stroke="black" cx="772.811" cy="-18" rx="78.5434" ry="18"/>
<text text-anchor="middle" x="772.811" y="-14.5" font-family="Times New Roman,serif" font-size="15.00">Appeal to Judge</text>
</g>
<!-- 1436179946320&#45;&#45;1436175438512 -->
<g id="edge25" class="edge"><title>1436179946320&#45;&#45;1436175438512</title>
<path fill="none" stroke="black" d="M733.908,-73.4647C741.848,-62.3479 752.533,-47.3896 760.695,-35.9618"/>
</g>
<!-- 1436181436976 -->
<g id="node36" class="node"><title>1436181436976</title>
<ellipse fill="none" stroke="black" cx="1247.81" cy="-378" rx="59.5207" ry="18"/>
<text text-anchor="middle" x="1247.81" y="-374.5" font-family="Times New Roman,serif" font-size="15.00">Create Fine</text>
</g>
<!-- 1436181435680&#45;&#45;1436181436976 -->
<g id="edge33" class="edge"><title>1436181435680&#45;&#45;1436181436976</title>
<path fill="none" stroke="black" d="M1288.27,-433.465C1280.01,-422.348 1268.9,-407.39 1260.41,-395.962"/>
</g>
<!-- 1436182008016 -->
<g id="node37" class="node"><title>1436182008016</title>
<ellipse fill="none" stroke="black" cx="1352.81" cy="-378" rx="27" ry="18"/>
<text text-anchor="middle" x="1352.81" y="-374.5" font-family="Times New Roman,serif" font-size="15.00">xor</text>
</g>
<!-- 1436181435680&#45;&#45;1436182008016 -->
<g id="edge61" class="edge"><title>1436181435680&#45;&#45;1436182008016</title>
<path fill="none" stroke="black" d="M1311.57,-433.465C1320.36,-421.865 1332.31,-406.082 1341.08,-394.492"/>
</g>
<!-- 1436181434816 -->
<g id="node65" class="node"><title>1436181434816</title>
<ellipse fill="none" stroke="black" cx="1455.81" cy="-378" rx="27" ry="18"/>
<text text-anchor="middle" x="1455.81" y="-374.5" font-family="Times New Roman,serif" font-size="15.00">xor</text>
</g>
<!-- 1436181435680&#45;&#45;1436181434816 -->
<g id="edge64" class="edge"><title>1436181435680&#45;&#45;1436181434816</title>
<path fill="none" stroke="black" d="M1321.5,-439.267C1351.22,-425.931 1404.3,-402.115 1434.05,-388.763"/>
</g>
<!-- 1436182011040 -->
<g id="node38" class="node"><title>1436182011040</title>
<ellipse fill="black" stroke="black" cx="1321.81" cy="-306" rx="2.7" ry="2.7"/>
</g>
<!-- 1436182008016&#45;&#45;1436182011040 -->
<g id="edge34" class="edge"><title>1436182008016&#45;&#45;1436182011040</title>
<path fill="none" stroke="black" d="M1345.46,-360.411C1337.59,-342.622 1325.78,-315.962 1322.62,-308.816"/>
</g>
<!-- 1436182010368 -->
<g id="node39" class="node"><title>1436182010368</title>
<ellipse fill="none" stroke="black" cx="1388.81" cy="-306" rx="46.6143" ry="18"/>
<text text-anchor="middle" x="1388.81" y="-302.5" font-family="Times New Roman,serif" font-size="15.00">xor loop</text>
</g>
<!-- 1436182008016&#45;&#45;1436182010368 -->
<g id="edge60" class="edge"><title>1436182008016&#45;&#45;1436182010368</title>
<path fill="none" stroke="black" d="M1361.16,-360.765C1366.81,-349.779 1374.26,-335.292 1380,-324.124"/>
</g>
<!-- 1436182010752 -->
<g id="node40" class="node"><title>1436182010752</title>
<ellipse fill="none" stroke="black" cx="1388.81" cy="-234" rx="27" ry="18"/>
<text text-anchor="middle" x="1388.81" y="-230.5" font-family="Times New Roman,serif" font-size="15.00">seq</text>
</g>
<!-- 1436182010368&#45;&#45;1436182010752 -->
<g id="edge58" class="edge"><title>1436182010368&#45;&#45;1436182010752</title>
<path fill="none" stroke="black" d="M1388.81,-287.697C1388.81,-276.846 1388.81,-262.917 1388.81,-252.104"/>
</g>
<!-- 1436182011568 -->
<g id="node64" class="node"><title>1436182011568</title>
<ellipse fill="black" stroke="black" cx="1436.81" cy="-234" rx="2.7" ry="2.7"/>
</g>
<!-- 1436182010368&#45;&#45;1436182011568 -->
<g id="edge59" class="edge"><title>1436182010368&#45;&#45;1436182011568</title>
<path fill="none" stroke="black" d="M1400.19,-288.411C1412.38,-270.622 1430.67,-243.962 1435.57,-236.816"/>
</g>
<!-- 1436182010272 -->
<g id="node41" class="node"><title>1436182010272</title>
<ellipse fill="none" stroke="black" cx="986.811" cy="-162" rx="27" ry="18"/>
<text text-anchor="middle" x="986.811" y="-158.5" font-family="Times New Roman,serif" font-size="15.00">xor</text>
</g>
<!-- 1436182010752&#45;&#45;1436182010272 -->
<g id="edge37" class="edge"><title>1436182010752&#45;&#45;1436182010272</title>
<path fill="none" stroke="black" d="M1363.05,-228.515C1290.53,-215.886 1085.19,-180.131 1012.61,-167.493"/>
</g>
<!-- 1436182011616 -->
<g id="node44" class="node"><title>1436182011616</title>
<ellipse fill="none" stroke="black" cx="1188.81" cy="-162" rx="27" ry="18"/>
<text text-anchor="middle" x="1188.81" y="-158.5" font-family="Times New Roman,serif" font-size="15.00">xor</text>
</g>
<!-- 1436182010752&#45;&#45;1436182011616 -->
<g id="edge40" class="edge"><title>1436182010752&#45;&#45;1436182011616</title>
<path fill="none" stroke="black" d="M1365.48,-224.833C1327.04,-211.381 1250.85,-184.712 1212.31,-171.223"/>
</g>
<!-- 1436182011424 -->
<g id="node47" class="node"><title>1436182011424</title>
<ellipse fill="none" stroke="black" cx="1352.81" cy="-162" rx="27" ry="18"/>
<text text-anchor="middle" x="1352.81" y="-158.5" font-family="Times New Roman,serif" font-size="15.00">xor</text>
</g>
<!-- 1436182010752&#45;&#45;1436182011424 -->
<g id="edge45" class="edge"><title>1436182010752&#45;&#45;1436182011424</title>
<path fill="none" stroke="black" d="M1380.46,-216.765C1374.65,-205.456 1366.92,-190.437 1361.12,-179.147"/>
</g>
<!-- 1436182009696 -->
<g id="node52" class="node"><title>1436182009696</title>
<ellipse fill="none" stroke="black" cx="1424.81" cy="-162" rx="27" ry="18"/>
<text text-anchor="middle" x="1424.81" y="-158.5" font-family="Times New Roman,serif" font-size="15.00">xor</text>
</g>
<!-- 1436182010752&#45;&#45;1436182009696 -->
<g id="edge48" class="edge"><title>1436182010752&#45;&#45;1436182009696</title>
<path fill="none" stroke="black" d="M1397.16,-216.765C1402.98,-205.456 1410.7,-190.437 1416.51,-179.147"/>
</g>
<!-- 1436182009744 -->
<g id="node55" class="node"><title>1436182009744</title>
<ellipse fill="none" stroke="black" cx="1694.81" cy="-162" rx="27" ry="18"/>
<text text-anchor="middle" x="1694.81" y="-158.5" font-family="Times New Roman,serif" font-size="15.00">xor</text>
</g>
<!-- 1436182010752&#45;&#45;1436182009744 -->
<g id="edge51" class="edge"><title>1436182010752&#45;&#45;1436182009744</title>
<path fill="none" stroke="black" d="M1414.11,-227.212C1471.68,-214.044 1611.89,-181.969 1669.48,-168.795"/>
</g>
<!-- 1436182010464 -->
<g id="node58" class="node"><title>1436182010464</title>
<ellipse fill="none" stroke="black" cx="2082.81" cy="-162" rx="27" ry="18"/>
<text text-anchor="middle" x="2082.81" y="-158.5" font-family="Times New Roman,serif" font-size="15.00">xor</text>
</g>
<!-- 1436182010752&#45;&#45;1436182010464 -->
<g id="edge54" class="edge"><title>1436182010752&#45;&#45;1436182010464</title>
<path fill="none" stroke="black" d="M1415.59,-230.299C1526.07,-219.156 1945.78,-176.821 2056.11,-165.693"/>
</g>
<!-- 1436182010512 -->
<g id="node61" class="node"><title>1436182010512</title>
<ellipse fill="none" stroke="black" cx="2420.81" cy="-162" rx="27" ry="18"/>
<text text-anchor="middle" x="2420.81" y="-158.5" font-family="Times New Roman,serif" font-size="15.00">xor</text>
</g>
<!-- 1436182010752&#45;&#45;1436182010512 -->
<g id="edge57" class="edge"><title>1436182010752&#45;&#45;1436182010512</title>
<path fill="none" stroke="black" d="M1415.62,-231.182C1560.54,-221.352 2249.06,-174.65 2393.99,-164.819"/>
</g>
<!-- 1436182011712 -->
<g id="node42" class="node"><title>1436182011712</title>
<ellipse fill="black" stroke="black" cx="912.811" cy="-90" rx="2.7" ry="2.7"/>
</g>
<!-- 1436182010272&#45;&#45;1436182011712 -->
<g id="edge35" class="edge"><title>1436182010272&#45;&#45;1436182011712</title>
<path fill="none" stroke="black" d="M971.836,-146.834C952.916,-128.937 921.915,-99.6118 914.46,-92.5602"/>
</g>
<!-- 1436182011088 -->
<g id="node43" class="node"><title>1436182011088</title>
<ellipse fill="none" stroke="black" cx="986.811" cy="-90" rx="52.6228" ry="18"/>
<text text-anchor="middle" x="986.811" y="-86.5" font-family="Times New Roman,serif" font-size="15.00">Send Fine</text>
</g>
<!-- 1436182010272&#45;&#45;1436182011088 -->
<g id="edge36" class="edge"><title>1436182010272&#45;&#45;1436182011088</title>
<path fill="none" stroke="black" d="M986.811,-143.697C986.811,-132.846 986.811,-118.917 986.811,-108.104"/>
</g>
<!-- 1436182011760 -->
<g id="node45" class="node"><title>1436182011760</title>
<ellipse fill="black" stroke="black" cx="1060.81" cy="-90" rx="2.7" ry="2.7"/>
</g>
<!-- 1436182011616&#45;&#45;1436182011760 -->
<g id="edge38" class="edge"><title>1436182011616&#45;&#45;1436182011760</title>
<path fill="none" stroke="black" d="M1168.53,-149.908C1136.1,-132.175 1074.99,-98.756 1062.92,-92.1507"/>
</g>
<!-- 1436182008112 -->
<g id="node46" class="node"><title>1436182008112</title>
<ellipse fill="none" stroke="black" cx="1188.81" cy="-90" rx="107.914" ry="18"/>
<text text-anchor="middle" x="1188.81" y="-86.5" font-family="Times New Roman,serif" font-size="15.00">Insert Fine Notification</text>
</g>
<!-- 1436182011616&#45;&#45;1436182008112 -->
<g id="edge39" class="edge"><title>1436182011616&#45;&#45;1436182008112</title>
<path fill="none" stroke="black" d="M1188.81,-143.697C1188.81,-132.846 1188.81,-118.917 1188.81,-108.104"/>
</g>
<!-- 1436182010080 -->
<g id="node48" class="node"><title>1436182010080</title>
<ellipse fill="black" stroke="black" cx="1316.81" cy="-90" rx="2.7" ry="2.7"/>
</g>
<!-- 1436182011424&#45;&#45;1436182010080 -->
<g id="edge41" class="edge"><title>1436182011424&#45;&#45;1436182010080</title>
<path fill="none" stroke="black" d="M1344.46,-144.765C1335.32,-126.994 1321.47,-100.06 1317.76,-92.8363"/>
</g>
<!-- 1436182011808 -->
<g id="node49" class="node"><title>1436182011808</title>
<ellipse fill="none" stroke="black" cx="1364.81" cy="-90" rx="27" ry="18"/>
<text text-anchor="middle" x="1364.81" y="-86.5" font-family="Times New Roman,serif" font-size="15.00">and</text>
</g>
<!-- 1436182011424&#45;&#45;1436182011808 -->
<g id="edge44" class="edge"><title>1436182011424&#45;&#45;1436182011808</title>
<path fill="none" stroke="black" d="M1355.72,-144.055C1357.57,-133.211 1359.98,-119.183 1361.85,-108.275"/>
</g>
<!-- 1436181896352 -->
<g id="node50" class="node"><title>1436181896352</title>
<ellipse fill="none" stroke="black" cx="1252.81" cy="-18" rx="61.6894" ry="18"/>
<text text-anchor="middle" x="1252.81" y="-14.5" font-family="Times New Roman,serif" font-size="15.00">Add penalty</text>
</g>
<!-- 1436182011808&#45;&#45;1436181896352 -->
<g id="edge42" class="edge"><title>1436182011808&#45;&#45;1436181896352</title>
<path fill="none" stroke="black" d="M1345.81,-77.1255C1327.09,-65.4235 1298.38,-47.479 1277.81,-34.625"/>
</g>
<!-- 1436181896544 -->
<g id="node51" class="node"><title>1436181896544</title>
<ellipse fill="none" stroke="black" cx="1476.81" cy="-18" rx="144.571" ry="18"/>
<text text-anchor="middle" x="1476.81" y="-14.5" font-family="Times New Roman,serif" font-size="15.00">Insert Date Appeal to Prefecture</text>
</g>
<!-- 1436182011808&#45;&#45;1436181896544 -->
<g id="edge43" class="edge"><title>1436182011808&#45;&#45;1436181896544</title>
<path fill="none" stroke="black" d="M1383.81,-77.1255C1401.91,-65.8136 1429.34,-48.6684 1449.73,-35.9269"/>
</g>
<!-- 1436182011520 -->
<g id="node53" class="node"><title>1436182011520</title>
<ellipse fill="black" stroke="black" cx="1412.81" cy="-90" rx="2.7" ry="2.7"/>
</g>
<!-- 1436182009696&#45;&#45;1436182011520 -->
<g id="edge46" class="edge"><title>1436182009696&#45;&#45;1436182011520</title>
<path fill="none" stroke="black" d="M1421.91,-144.055C1418.85,-126.252 1414.33,-99.8653 1413.12,-92.7963"/>
</g>
<!-- 1436181895488 -->
<g id="node54" class="node"><title>1436181895488</title>
<ellipse fill="none" stroke="black" cx="1553.81" cy="-90" rx="120.43" ry="18"/>
<text text-anchor="middle" x="1553.81" y="-86.5" font-family="Times New Roman,serif" font-size="15.00">Send Appeal to Prefecture</text>
</g>
<!-- 1436182009696&#45;&#45;1436181895488 -->
<g id="edge47" class="edge"><title>1436182009696&#45;&#45;1436181895488</title>
<path fill="none" stroke="black" d="M1445.25,-149.908C1466.28,-138.497 1499.28,-120.591 1523.38,-107.514"/>
</g>
<!-- 1436180648816 -->
<g id="node56" class="node"><title>1436180648816</title>
<ellipse fill="black" stroke="black" cx="1694.81" cy="-90" rx="2.7" ry="2.7"/>
</g>
<!-- 1436182009744&#45;&#45;1436180648816 -->
<g id="edge49" class="edge"><title>1436182009744&#45;&#45;1436180648816</title>
<path fill="none" stroke="black" d="M1694.81,-143.697C1694.81,-125.883 1694.81,-99.7686 1694.81,-92.7764"/>
</g>
<!-- 1436180353712 -->
<g id="node57" class="node"><title>1436180353712</title>
<ellipse fill="none" stroke="black" cx="1888.81" cy="-90" rx="173.941" ry="18"/>
<text text-anchor="middle" x="1888.81" y="-86.5" font-family="Times New Roman,serif" font-size="15.00">Receive Result Appeal from Prefecture</text>
</g>
<!-- 1436182009744&#45;&#45;1436180353712 -->
<g id="edge50" class="edge"><title>1436182009744&#45;&#45;1436180353712</title>
<path fill="none" stroke="black" d="M1718.21,-152.556C1749.05,-141.429 1803.96,-121.615 1843.16,-107.472"/>
</g>
<!-- 1436177221136 -->
<g id="node59" class="node"><title>1436177221136</title>
<ellipse fill="black" stroke="black" cx="2082.81" cy="-90" rx="2.7" ry="2.7"/>
</g>
<!-- 1436182010464&#45;&#45;1436177221136 -->
<g id="edge52" class="edge"><title>1436182010464&#45;&#45;1436177221136</title>
<path fill="none" stroke="black" d="M2082.81,-143.697C2082.81,-125.883 2082.81,-99.7686 2082.81,-92.7764"/>
</g>
<!-- 1436177221040 -->
<g id="node60" class="node"><title>1436177221040</title>
<ellipse fill="none" stroke="black" cx="2251.81" cy="-90" rx="148.91" ry="18"/>
<text text-anchor="middle" x="2251.81" y="-86.5" font-family="Times New Roman,serif" font-size="15.00">Notify Result Appeal to Offender</text>
</g>
<!-- 1436182010464&#45;&#45;1436177221040 -->
<g id="edge53" class="edge"><title>1436182010464&#45;&#45;1436177221040</title>
<path fill="none" stroke="black" d="M2105.25,-151.705C2132.46,-140.436 2178.79,-121.245 2212.09,-107.454"/>
</g>
<!-- 1436177220992 -->
<g id="node62" class="node"><title>1436177220992</title>
<ellipse fill="black" stroke="black" cx="2420.81" cy="-90" rx="2.7" ry="2.7"/>
</g>
<!-- 1436182010512&#45;&#45;1436177220992 -->
<g id="edge55" class="edge"><title>1436182010512&#45;&#45;1436177220992</title>
<path fill="none" stroke="black" d="M2420.81,-143.697C2420.81,-125.883 2420.81,-99.7686 2420.81,-92.7764"/>
</g>
<!-- 1436177221952 -->
<g id="node63" class="node"><title>1436177221952</title>
<ellipse fill="none" stroke="black" cx="2487.81" cy="-90" rx="45.7249" ry="18"/>
<text text-anchor="middle" x="2487.81" y="-86.5" font-family="Times New Roman,serif" font-size="15.00">Payment</text>
</g>
<!-- 1436182010512&#45;&#45;1436177221952 -->
<g id="edge56" class="edge"><title>1436182010512&#45;&#45;1436177221952</title>
<path fill="none" stroke="black" d="M2434.69,-146.496C2445.66,-135.043 2460.95,-119.069 2472.31,-107.198"/>
</g>
<!-- 1436177219792 -->
<g id="node66" class="node"><title>1436177219792</title>
<ellipse fill="black" stroke="black" cx="1455.81" cy="-306" rx="2.7" ry="2.7"/>
</g>
<!-- 1436181434816&#45;&#45;1436177219792 -->
<g id="edge62" class="edge"><title>1436181434816&#45;&#45;1436177219792</title>
<path fill="none" stroke="black" d="M1455.81,-359.697C1455.81,-341.883 1455.81,-315.769 1455.81,-308.776"/>
</g>
<!-- 1436182011136 -->
<g id="node67" class="node"><title>1436182011136</title>
<ellipse fill="none" stroke="black" cx="1597.81" cy="-306" rx="120.819" ry="18"/>
<text text-anchor="middle" x="1597.81" y="-302.5" font-family="Times New Roman,serif" font-size="15.00">Send for Credit Collection</text>
</g>
<!-- 1436181434816&#45;&#45;1436182011136 -->
<g id="edge63" class="edge"><title>1436181434816&#45;&#45;1436182011136</title>
<path fill="none" stroke="black" d="M1477.07,-366.52C1500.2,-355.116 1537.49,-336.733 1564.52,-323.412"/>
</g>
</g>
</svg>
