<?xml version="1.0" encoding="UTF-8" standalone="no"?>
<!DOCTYPE svg PUBLIC "-//W3C//DTD SVG 1.1//EN"
 "http://www.w3.org/Graphics/SVG/1.1/DTD/svg11.dtd">
<!-- Generated by graphviz version 2.38.0 (20140413.2041)
 -->
<!-- Title: pt Pages: 1 -->
<svg width="2534pt" height="764pt"
 viewBox="0.00 0.00 2533.67 764.00" xmlns="http://www.w3.org/2000/svg" xmlns:xlink="http://www.w3.org/1999/xlink">
<g id="graph0" class="graph" transform="scale(1 1) rotate(0) translate(4 760)">
<title>pt</title>
<!-- 1436222250288 -->
<g id="node1" class="node"><title>1436222250288</title>
<ellipse fill="none" stroke="black" cx="323.811" cy="-738" rx="27" ry="18"/>
<text text-anchor="middle" x="323.811" y="-734.5" font-family="Times New Roman,serif" font-size="15.00">and</text>
</g>
<!-- 1436222248128 -->
<g id="node2" class="node"><title>1436222248128</title>
<ellipse fill="none" stroke="black" cx="219.811" cy="-666" rx="27" ry="18"/>
<text text-anchor="middle" x="219.811" y="-662.5" font-family="Times New Roman,serif" font-size="15.00">xor</text>
</g>
<!-- 1436222250288&#45;&#45;1436222248128 -->
<g id="edge15" class="edge"><title>1436222250288&#45;&#45;1436222248128</title>
<path fill="none" stroke="black" d="M305.218,-724.485C286.288,-711.744 257.115,-692.108 238.243,-679.406"/>
</g>
<!-- 1436222249616 -->
<g id="node17" class="node"><title>1436222249616</title>
<ellipse fill="none" stroke="black" cx="571.811" cy="-666" rx="27" ry="18"/>
<text text-anchor="middle" x="571.811" y="-662.5" font-family="Times New Roman,serif" font-size="15.00">and</text>
</g>
<!-- 1436222250288&#45;&#45;1436222249616 -->
<g id="edge69" class="edge"><title>1436222250288&#45;&#45;1436222249616</title>
<path fill="none" stroke="black" d="M348.497,-730.032C396.034,-716.615 499.767,-687.335 547.225,-673.94"/>
</g>
<!-- 1436222249040 -->
<g id="node3" class="node"><title>1436222249040</title>
<ellipse fill="black" stroke="black" cx="171.811" cy="-594" rx="2.7" ry="2.7"/>
</g>
<!-- 1436222248128&#45;&#45;1436222249040 -->
<g id="edge1" class="edge"><title>1436222248128&#45;&#45;1436222249040</title>
<path fill="none" stroke="black" d="M208.919,-649.116C196.749,-631.367 178.091,-604.158 173.084,-596.857"/>
</g>
<!-- 1436170419216 -->
<g id="node4" class="node"><title>1436170419216</title>
<ellipse fill="none" stroke="black" cx="219.811" cy="-594" rx="27" ry="18"/>
<text text-anchor="middle" x="219.811" y="-590.5" font-family="Times New Roman,serif" font-size="15.00">and</text>
</g>
<!-- 1436222248128&#45;&#45;1436170419216 -->
<g id="edge14" class="edge"><title>1436222248128&#45;&#45;1436170419216</title>
<path fill="none" stroke="black" d="M219.811,-647.697C219.811,-636.846 219.811,-622.917 219.811,-612.104"/>
</g>
<!-- 1436205013840 -->
<g id="node5" class="node"><title>1436205013840</title>
<ellipse fill="none" stroke="black" cx="78.8111" cy="-522" rx="46.6143" ry="18"/>
<text text-anchor="middle" x="78.8111" y="-518.5" font-family="Times New Roman,serif" font-size="15.00">xor loop</text>
</g>
<!-- 1436170419216&#45;&#45;1436205013840 -->
<g id="edge4" class="edge"><title>1436170419216&#45;&#45;1436205013840</title>
<path fill="none" stroke="black" d="M198.702,-582.52C174.118,-570.316 133.432,-550.117 106.374,-536.684"/>
</g>
<!-- 1436015020736 -->
<g id="node8" class="node"><title>1436015020736</title>
<ellipse fill="none" stroke="black" cx="219.811" cy="-522" rx="27" ry="18"/>
<text text-anchor="middle" x="219.811" y="-518.5" font-family="Times New Roman,serif" font-size="15.00">xor</text>
</g>
<!-- 1436170419216&#45;&#45;1436015020736 -->
<g id="edge13" class="edge"><title>1436170419216&#45;&#45;1436015020736</title>
<path fill="none" stroke="black" d="M219.811,-575.697C219.811,-564.846 219.811,-550.917 219.811,-540.104"/>
</g>
<!-- 1436177787776 -->
<g id="node6" class="node"><title>1436177787776</title>
<ellipse fill="black" stroke="black" cx="11.8111" cy="-450" rx="2.7" ry="2.7"/>
</g>
<!-- 1436205013840&#45;&#45;1436177787776 -->
<g id="edge2" class="edge"><title>1436205013840&#45;&#45;1436177787776</title>
<path fill="none" stroke="black" d="M63.2715,-504.765C45.9531,-486.671 19.5425,-459.078 13.2104,-452.462"/>
</g>
<!-- 1436177786720 -->
<g id="node7" class="node"><title>1436177786720</title>
<ellipse fill="none" stroke="black" cx="78.8111" cy="-450" rx="45.7249" ry="18"/>
<text text-anchor="middle" x="78.8111" y="-446.5" font-family="Times New Roman,serif" font-size="15.00">Payment</text>
</g>
<!-- 1436205013840&#45;&#45;1436177786720 -->
<g id="edge3" class="edge"><title>1436205013840&#45;&#45;1436177786720</title>
<path fill="none" stroke="black" d="M78.8111,-503.697C78.8111,-492.846 78.8111,-478.917 78.8111,-468.104"/>
</g>
<!-- 1436177788160 -->
<g id="node9" class="node"><title>1436177788160</title>
<ellipse fill="black" stroke="black" cx="145.811" cy="-450" rx="2.7" ry="2.7"/>
</g>
<!-- 1436015020736&#45;&#45;1436177788160 -->
<g id="edge5" class="edge"><title>1436015020736&#45;&#45;1436177788160</title>
<path fill="none" stroke="black" d="M204.836,-506.834C185.916,-488.937 154.915,-459.612 147.46,-452.56"/>
</g>
<!-- 1436177788304 -->
<g id="node10" class="node"><title>1436177788304</title>
<ellipse fill="none" stroke="black" cx="219.811" cy="-450" rx="52.6228" ry="18"/>
<text text-anchor="middle" x="219.811" y="-446.5" font-family="Times New Roman,serif" font-size="15.00">Send Fine</text>
</g>
<!-- 1436015020736&#45;&#45;1436177788304 -->
<g id="edge6" class="edge"><title>1436015020736&#45;&#45;1436177788304</title>
<path fill="none" stroke="black" d="M219.811,-503.697C219.811,-492.846 219.811,-478.917 219.811,-468.104"/>
</g>
<!-- 1436177787872 -->
<g id="node11" class="node"><title>1436177787872</title>
<ellipse fill="none" stroke="black" cx="317.811" cy="-450" rx="27" ry="18"/>
<text text-anchor="middle" x="317.811" y="-446.5" font-family="Times New Roman,serif" font-size="15.00">seq</text>
</g>
<!-- 1436015020736&#45;&#45;1436177787872 -->
<g id="edge12" class="edge"><title>1436015020736&#45;&#45;1436177787872</title>
<path fill="none" stroke="black" d="M237.786,-508.161C255.468,-495.531 282.307,-476.36 299.95,-463.758"/>
</g>
<!-- 1436177788592 -->
<g id="node12" class="node"><title>1436177788592</title>
<ellipse fill="none" stroke="black" cx="52.8111" cy="-378" rx="52.6228" ry="18"/>
<text text-anchor="middle" x="52.8111" y="-374.5" font-family="Times New Roman,serif" font-size="15.00">Send Fine</text>
</g>
<!-- 1436177787872&#45;&#45;1436177788592 -->
<g id="edge7" class="edge"><title>1436177787872&#45;&#45;1436177788592</title>
<path fill="none" stroke="black" d="M292.88,-442.415C247.012,-430.298 148.866,-404.373 93.3157,-389.699"/>
</g>
<!-- 1436177785232 -->
<g id="node13" class="node"><title>1436177785232</title>
<ellipse fill="none" stroke="black" cx="231.811" cy="-378" rx="107.914" ry="18"/>
<text text-anchor="middle" x="231.811" y="-374.5" font-family="Times New Roman,serif" font-size="15.00">Insert Fine Notification</text>
</g>
<!-- 1436177787872&#45;&#45;1436177785232 -->
<g id="edge8" class="edge"><title>1436177787872&#45;&#45;1436177785232</title>
<path fill="none" stroke="black" d="M301.229,-435.503C287.367,-424.22 267.525,-408.07 252.602,-395.923"/>
</g>
<!-- 1436177788736 -->
<g id="node14" class="node"><title>1436177788736</title>
<ellipse fill="none" stroke="black" cx="403.811" cy="-378" rx="46.6143" ry="18"/>
<text text-anchor="middle" x="403.811" y="-374.5" font-family="Times New Roman,serif" font-size="15.00">xor loop</text>
</g>
<!-- 1436177787872&#45;&#45;1436177788736 -->
<g id="edge11" class="edge"><title>1436177787872&#45;&#45;1436177788736</title>
<path fill="none" stroke="black" d="M334.393,-435.503C348.743,-423.823 369.502,-406.926 384.578,-394.655"/>
</g>
<!-- 1436177785904 -->
<g id="node15" class="node"><title>1436177785904</title>
<ellipse fill="black" stroke="black" cx="361.811" cy="-306" rx="2.7" ry="2.7"/>
</g>
<!-- 1436177788736&#45;&#45;1436177785904 -->
<g id="edge9" class="edge"><title>1436177788736&#45;&#45;1436177785904</title>
<path fill="none" stroke="black" d="M393.858,-360.411C383.184,-342.622 367.189,-315.962 362.901,-308.816"/>
</g>
<!-- 1436177787728 -->
<g id="node16" class="node"><title>1436177787728</title>
<ellipse fill="none" stroke="black" cx="444.811" cy="-306" rx="61.6894" ry="18"/>
<text text-anchor="middle" x="444.811" y="-302.5" font-family="Times New Roman,serif" font-size="15.00">Add penalty</text>
</g>
<!-- 1436177788736&#45;&#45;1436177787728 -->
<g id="edge10" class="edge"><title>1436177788736&#45;&#45;1436177787728</title>
<path fill="none" stroke="black" d="M413.736,-360.055C420.182,-349.049 428.55,-334.764 434.977,-323.789"/>
</g>
<!-- 1436222250864 -->
<g id="node18" class="node"><title>1436222250864</title>
<ellipse fill="none" stroke="black" cx="571.811" cy="-594" rx="27" ry="18"/>
<text text-anchor="middle" x="571.811" y="-590.5" font-family="Times New Roman,serif" font-size="15.00">xor</text>
</g>
<!-- 1436222249616&#45;&#45;1436222250864 -->
<g id="edge32" class="edge"><title>1436222249616&#45;&#45;1436222250864</title>
<path fill="none" stroke="black" d="M571.811,-647.697C571.811,-636.846 571.811,-622.917 571.811,-612.104"/>
</g>
<!-- 1436222247936 -->
<g id="node35" class="node"><title>1436222247936</title>
<ellipse fill="none" stroke="black" cx="1397.81" cy="-594" rx="27" ry="18"/>
<text text-anchor="middle" x="1397.81" y="-590.5" font-family="Times New Roman,serif" font-size="15.00">seq</text>
</g>
<!-- 1436222249616&#45;&#45;1436222247936 -->
<g id="edge68" class="edge"><title>1436222249616&#45;&#45;1436222247936</title>
<path fill="none" stroke="black" d="M598.824,-662.711C723.941,-652.108 1246.32,-607.838 1371,-597.272"/>
</g>
<!-- 1436222249136 -->
<g id="node19" class="node"><title>1436222249136</title>
<ellipse fill="black" stroke="black" cx="547.811" cy="-522" rx="2.7" ry="2.7"/>
</g>
<!-- 1436222250864&#45;&#45;1436222249136 -->
<g id="edge16" class="edge"><title>1436222250864&#45;&#45;1436222249136</title>
<path fill="none" stroke="black" d="M566.001,-576.055C559.897,-558.252 550.851,-531.865 548.427,-524.796"/>
</g>
<!-- 1436170419312 -->
<g id="node20" class="node"><title>1436170419312</title>
<ellipse fill="none" stroke="black" cx="595.811" cy="-522" rx="27" ry="18"/>
<text text-anchor="middle" x="595.811" y="-518.5" font-family="Times New Roman,serif" font-size="15.00">and</text>
</g>
<!-- 1436222250864&#45;&#45;1436170419312 -->
<g id="edge31" class="edge"><title>1436222250864&#45;&#45;1436170419312</title>
<path fill="none" stroke="black" d="M577.621,-576.055C581.394,-565.049 586.292,-550.764 590.055,-539.789"/>
</g>
<!-- 1436170418736 -->
<g id="node21" class="node"><title>1436170418736</title>
<ellipse fill="none" stroke="black" cx="537.811" cy="-450" rx="46.6143" ry="18"/>
<text text-anchor="middle" x="537.811" y="-446.5" font-family="Times New Roman,serif" font-size="15.00">xor loop</text>
</g>
<!-- 1436170419312&#45;&#45;1436170418736 -->
<g id="edge19" class="edge"><title>1436170419312&#45;&#45;1436170418736</title>
<path fill="none" stroke="black" d="M583.226,-505.811C573.897,-494.552 561.189,-479.215 551.588,-467.628"/>
</g>
<!-- 1436170418832 -->
<g id="node24" class="node"><title>1436170418832</title>
<ellipse fill="none" stroke="black" cx="654.811" cy="-450" rx="27" ry="18"/>
<text text-anchor="middle" x="654.811" y="-446.5" font-family="Times New Roman,serif" font-size="15.00">xor</text>
</g>
<!-- 1436170419312&#45;&#45;1436170418832 -->
<g id="edge30" class="edge"><title>1436170419312&#45;&#45;1436170418832</title>
<path fill="none" stroke="black" d="M608.613,-505.811C618.509,-494.07 632.144,-477.893 642.034,-466.159"/>
</g>
<!-- 1436210687952 -->
<g id="node22" class="node"><title>1436210687952</title>
<ellipse fill="black" stroke="black" cx="470.811" cy="-378" rx="2.7" ry="2.7"/>
</g>
<!-- 1436170418736&#45;&#45;1436210687952 -->
<g id="edge17" class="edge"><title>1436170418736&#45;&#45;1436210687952</title>
<path fill="none" stroke="black" d="M522.272,-432.765C504.953,-414.671 478.542,-387.078 472.21,-380.462"/>
</g>
<!-- 1436205011680 -->
<g id="node23" class="node"><title>1436205011680</title>
<ellipse fill="none" stroke="black" cx="537.811" cy="-378" rx="45.7249" ry="18"/>
<text text-anchor="middle" x="537.811" y="-374.5" font-family="Times New Roman,serif" font-size="15.00">Payment</text>
</g>
<!-- 1436170418736&#45;&#45;1436205011680 -->
<g id="edge18" class="edge"><title>1436170418736&#45;&#45;1436205011680</title>
<path fill="none" stroke="black" d="M537.811,-431.697C537.811,-420.846 537.811,-406.917 537.811,-396.104"/>
</g>
<!-- 1436205013264 -->
<g id="node25" class="node"><title>1436205013264</title>
<ellipse fill="black" stroke="black" cx="604.811" cy="-378" rx="2.7" ry="2.7"/>
</g>
<!-- 1436170418832&#45;&#45;1436205013264 -->
<g id="edge20" class="edge"><title>1436170418832&#45;&#45;1436205013264</title>
<path fill="none" stroke="black" d="M643.714,-433.465C630.825,-415.42 610.707,-387.254 605.879,-380.494"/>
</g>
<!-- 1436011509840 -->
<g id="node26" class="node"><title>1436011509840</title>
<ellipse fill="none" stroke="black" cx="678.811" cy="-378" rx="52.6228" ry="18"/>
<text text-anchor="middle" x="678.811" y="-374.5" font-family="Times New Roman,serif" font-size="15.00">Send Fine</text>
</g>
<!-- 1436170418832&#45;&#45;1436011509840 -->
<g id="edge21" class="edge"><title>1436170418832&#45;&#45;1436011509840</title>
<path fill="none" stroke="black" d="M660.621,-432.055C664.339,-421.211 669.148,-407.183 672.888,-396.275"/>
</g>
<!-- 1436011510848 -->
<g id="node27" class="node"><title>1436011510848</title>
<ellipse fill="none" stroke="black" cx="776.811" cy="-378" rx="27" ry="18"/>
<text text-anchor="middle" x="776.811" y="-374.5" font-family="Times New Roman,serif" font-size="15.00">seq</text>
</g>
<!-- 1436170418832&#45;&#45;1436011510848 -->
<g id="edge29" class="edge"><title>1436170418832&#45;&#45;1436011510848</title>
<path fill="none" stroke="black" d="M674.684,-437.597C697.371,-424.581 734.264,-403.413 756.947,-390.398"/>
</g>
<!-- 1436015021936 -->
<g id="node28" class="node"><title>1436015021936</title>
<ellipse fill="none" stroke="black" cx="678.811" cy="-306" rx="52.6228" ry="18"/>
<text text-anchor="middle" x="678.811" y="-302.5" font-family="Times New Roman,serif" font-size="15.00">Send Fine</text>
</g>
<!-- 1436011510848&#45;&#45;1436015021936 -->
<g id="edge22" class="edge"><title>1436011510848&#45;&#45;1436015021936</title>
<path fill="none" stroke="black" d="M758.836,-364.161C742.37,-352.399 717.962,-334.965 700.435,-322.446"/>
</g>
<!-- 1436015019728 -->
<g id="node29" class="node"><title>1436015019728</title>
<ellipse fill="none" stroke="black" cx="776.811" cy="-306" rx="27" ry="18"/>
<text text-anchor="middle" x="776.811" y="-302.5" font-family="Times New Roman,serif" font-size="15.00">seq</text>
</g>
<!-- 1436011510848&#45;&#45;1436015019728 -->
<g id="edge28" class="edge"><title>1436011510848&#45;&#45;1436015019728</title>
<path fill="none" stroke="black" d="M776.811,-359.697C776.811,-348.846 776.811,-334.917 776.811,-324.104"/>
</g>
<!-- 1436177786288 -->
<g id="node30" class="node"><title>1436177786288</title>
<ellipse fill="none" stroke="black" cx="569.811" cy="-234" rx="107.914" ry="18"/>
<text text-anchor="middle" x="569.811" y="-230.5" font-family="Times New Roman,serif" font-size="15.00">Insert Fine Notification</text>
</g>
<!-- 1436015019728&#45;&#45;1436177786288 -->
<g id="edge23" class="edge"><title>1436015019728&#45;&#45;1436177786288</title>
<path fill="none" stroke="black" d="M753.066,-296.97C719.614,-285.658 657.959,-264.809 615.466,-250.439"/>
</g>
<!-- 1436177786192 -->
<g id="node31" class="node"><title>1436177786192</title>
<ellipse fill="none" stroke="black" cx="722.811" cy="-234" rx="27" ry="18"/>
<text text-anchor="middle" x="722.811" y="-230.5" font-family="Times New Roman,serif" font-size="15.00">xor</text>
</g>
<!-- 1436015019728&#45;&#45;1436177786192 -->
<g id="edge26" class="edge"><title>1436015019728&#45;&#45;1436177786192</title>
<path fill="none" stroke="black" d="M764.827,-289.465C755.878,-277.865 743.703,-262.082 734.762,-250.492"/>
</g>
<!-- 1436177786048 -->
<g id="node34" class="node"><title>1436177786048</title>
<ellipse fill="none" stroke="black" cx="829.811" cy="-234" rx="61.6894" ry="18"/>
<text text-anchor="middle" x="829.811" y="-230.5" font-family="Times New Roman,serif" font-size="15.00">Add penalty</text>
</g>
<!-- 1436015019728&#45;&#45;1436177786048 -->
<g id="edge27" class="edge"><title>1436015019728&#45;&#45;1436177786048</title>
<path fill="none" stroke="black" d="M788.573,-289.465C796.991,-278.348 808.316,-263.39 816.969,-251.962"/>
</g>
<!-- 1436177786144 -->
<g id="node32" class="node"><title>1436177786144</title>
<ellipse fill="black" stroke="black" cx="623.811" cy="-162" rx="2.7" ry="2.7"/>
</g>
<!-- 1436177786192&#45;&#45;1436177786144 -->
<g id="edge24" class="edge"><title>1436177786192&#45;&#45;1436177786144</title>
<path fill="none" stroke="black" d="M704.653,-220.161C679.198,-202.163 634.96,-170.883 625.587,-164.256"/>
</g>
<!-- 1436177787440 -->
<g id="node33" class="node"><title>1436177787440</title>
<ellipse fill="none" stroke="black" cx="722.811" cy="-162" rx="78.5434" ry="18"/>
<text text-anchor="middle" x="722.811" y="-158.5" font-family="Times New Roman,serif" font-size="15.00">Appeal to Judge</text>
</g>
<!-- 1436177786192&#45;&#45;1436177787440 -->
<g id="edge25" class="edge"><title>1436177786192&#45;&#45;1436177787440</title>
<path fill="none" stroke="black" d="M722.811,-215.697C722.811,-204.846 722.811,-190.917 722.811,-180.104"/>
</g>
<!-- 1436222247360 -->
<g id="node36" class="node"><title>1436222247360</title>
<ellipse fill="none" stroke="black" cx="1345.81" cy="-522" rx="59.5207" ry="18"/>
<text text-anchor="middle" x="1345.81" y="-518.5" font-family="Times New Roman,serif" font-size="15.00">Create Fine</text>
</g>
<!-- 1436222247936&#45;&#45;1436222247360 -->
<g id="edge33" class="edge"><title>1436222247936&#45;&#45;1436222247360</title>
<path fill="none" stroke="black" d="M1386.27,-577.465C1378.01,-566.348 1366.9,-551.39 1358.41,-539.962"/>
</g>
<!-- 1436222248848 -->
<g id="node37" class="node"><title>1436222248848</title>
<ellipse fill="none" stroke="black" cx="1450.81" cy="-522" rx="27" ry="18"/>
<text text-anchor="middle" x="1450.81" y="-518.5" font-family="Times New Roman,serif" font-size="15.00">xor</text>
</g>
<!-- 1436222247936&#45;&#45;1436222248848 -->
<g id="edge64" class="edge"><title>1436222247936&#45;&#45;1436222248848</title>
<path fill="none" stroke="black" d="M1409.57,-577.465C1418.36,-565.865 1430.31,-550.082 1439.08,-538.492"/>
</g>
<!-- 1436222248080 -->
<g id="node68" class="node"><title>1436222248080</title>
<ellipse fill="none" stroke="black" cx="1553.81" cy="-522" rx="27" ry="18"/>
<text text-anchor="middle" x="1553.81" y="-518.5" font-family="Times New Roman,serif" font-size="15.00">xor</text>
</g>
<!-- 1436222247936&#45;&#45;1436222248080 -->
<g id="edge67" class="edge"><title>1436222247936&#45;&#45;1436222248080</title>
<path fill="none" stroke="black" d="M1419.5,-583.267C1449.22,-569.931 1502.3,-546.115 1532.05,-532.763"/>
</g>
<!-- 1436222250432 -->
<g id="node38" class="node"><title>1436222250432</title>
<ellipse fill="black" stroke="black" cx="1419.81" cy="-450" rx="2.7" ry="2.7"/>
</g>
<!-- 1436222248848&#45;&#45;1436222250432 -->
<g id="edge34" class="edge"><title>1436222248848&#45;&#45;1436222250432</title>
<path fill="none" stroke="black" d="M1443.46,-504.411C1435.59,-486.622 1423.78,-459.962 1420.62,-452.816"/>
</g>
<!-- 1436222248896 -->
<g id="node39" class="node"><title>1436222248896</title>
<ellipse fill="none" stroke="black" cx="1486.81" cy="-450" rx="46.6143" ry="18"/>
<text text-anchor="middle" x="1486.81" y="-446.5" font-family="Times New Roman,serif" font-size="15.00">xor loop</text>
</g>
<!-- 1436222248848&#45;&#45;1436222248896 -->
<g id="edge63" class="edge"><title>1436222248848&#45;&#45;1436222248896</title>
<path fill="none" stroke="black" d="M1459.16,-504.765C1464.81,-493.779 1472.26,-479.292 1478,-468.124"/>
</g>
<!-- 1436222249088 -->
<g id="node40" class="node"><title>1436222249088</title>
<ellipse fill="none" stroke="black" cx="1486.81" cy="-378" rx="27" ry="18"/>
<text text-anchor="middle" x="1486.81" y="-374.5" font-family="Times New Roman,serif" font-size="15.00">seq</text>
</g>
<!-- 1436222248896&#45;&#45;1436222249088 -->
<g id="edge61" class="edge"><title>1436222248896&#45;&#45;1436222249088</title>
<path fill="none" stroke="black" d="M1486.81,-431.697C1486.81,-420.846 1486.81,-406.917 1486.81,-396.104"/>
</g>
<!-- 1436222247696 -->
<g id="node67" class="node"><title>1436222247696</title>
<ellipse fill="black" stroke="black" cx="1534.81" cy="-378" rx="2.7" ry="2.7"/>
</g>
<!-- 1436222248896&#45;&#45;1436222247696 -->
<g id="edge62" class="edge"><title>1436222248896&#45;&#45;1436222247696</title>
<path fill="none" stroke="black" d="M1498.19,-432.411C1510.38,-414.622 1528.67,-387.962 1533.57,-380.816"/>
</g>
<!-- 1436222247552 -->
<g id="node41" class="node"><title>1436222247552</title>
<ellipse fill="none" stroke="black" cx="1196.81" cy="-306" rx="27" ry="18"/>
<text text-anchor="middle" x="1196.81" y="-302.5" font-family="Times New Roman,serif" font-size="15.00">seq</text>
</g>
<!-- 1436222249088&#45;&#45;1436222247552 -->
<g id="edge39" class="edge"><title>1436222249088&#45;&#45;1436222247552</title>
<path fill="none" stroke="black" d="M1461.83,-370.971C1407.02,-357.739 1276.69,-326.281 1221.83,-313.039"/>
</g>
<!-- 1436222248320 -->
<g id="node46" class="node"><title>1436222248320</title>
<ellipse fill="none" stroke="black" cx="1356.81" cy="-306" rx="27" ry="18"/>
<text text-anchor="middle" x="1356.81" y="-302.5" font-family="Times New Roman,serif" font-size="15.00">xor</text>
</g>
<!-- 1436222249088&#45;&#45;1436222248320 -->
<g id="edge48" class="edge"><title>1436222249088&#45;&#45;1436222248320</title>
<path fill="none" stroke="black" d="M1466.5,-366.063C1442.22,-352.989 1401.82,-331.233 1377.41,-318.092"/>
</g>
<!-- 1436222247168 -->
<g id="node55" class="node"><title>1436222247168</title>
<ellipse fill="none" stroke="black" cx="1486.81" cy="-306" rx="27" ry="18"/>
<text text-anchor="middle" x="1486.81" y="-302.5" font-family="Times New Roman,serif" font-size="15.00">xor</text>
</g>
<!-- 1436222249088&#45;&#45;1436222247168 -->
<g id="edge51" class="edge"><title>1436222249088&#45;&#45;1436222247168</title>
<path fill="none" stroke="black" d="M1486.81,-359.697C1486.81,-348.846 1486.81,-334.917 1486.81,-324.104"/>
</g>
<!-- 1436170419360 -->
<g id="node58" class="node"><title>1436170419360</title>
<ellipse fill="none" stroke="black" cx="1686.81" cy="-306" rx="27" ry="18"/>
<text text-anchor="middle" x="1686.81" y="-302.5" font-family="Times New Roman,serif" font-size="15.00">xor</text>
</g>
<!-- 1436222249088&#45;&#45;1436170419360 -->
<g id="edge54" class="edge"><title>1436222249088&#45;&#45;1436170419360</title>
<path fill="none" stroke="black" d="M1510.15,-368.833C1548.58,-355.381 1624.78,-328.712 1663.32,-315.223"/>
</g>
<!-- 1436170418064 -->
<g id="node61" class="node"><title>1436170418064</title>
<ellipse fill="none" stroke="black" cx="2074.81" cy="-306" rx="27" ry="18"/>
<text text-anchor="middle" x="2074.81" y="-302.5" font-family="Times New Roman,serif" font-size="15.00">xor</text>
</g>
<!-- 1436222249088&#45;&#45;1436170418064 -->
<g id="edge57" class="edge"><title>1436222249088&#45;&#45;1436170418064</title>
<path fill="none" stroke="black" d="M1513.22,-373.856C1610.87,-362.231 1950.94,-321.746 2048.48,-310.135"/>
</g>
<!-- 1436170417488 -->
<g id="node64" class="node"><title>1436170417488</title>
<ellipse fill="none" stroke="black" cx="2412.81" cy="-306" rx="27" ry="18"/>
<text text-anchor="middle" x="2412.81" y="-302.5" font-family="Times New Roman,serif" font-size="15.00">xor</text>
</g>
<!-- 1436222249088&#45;&#45;1436170417488 -->
<g id="edge60" class="edge"><title>1436222249088&#45;&#45;1436170417488</title>
<path fill="none" stroke="black" d="M1513.53,-374.981C1648.15,-364.803 2251.11,-319.224 2385.99,-309.028"/>
</g>
<!-- 1436172577808 -->
<g id="node42" class="node"><title>1436172577808</title>
<ellipse fill="none" stroke="black" cx="1098.81" cy="-234" rx="52.6228" ry="18"/>
<text text-anchor="middle" x="1098.81" y="-230.5" font-family="Times New Roman,serif" font-size="15.00">Send Fine</text>
</g>
<!-- 1436222247552&#45;&#45;1436172577808 -->
<g id="edge35" class="edge"><title>1436222247552&#45;&#45;1436172577808</title>
<path fill="none" stroke="black" d="M1178.84,-292.161C1162.37,-280.399 1137.96,-262.965 1120.44,-250.446"/>
</g>
<!-- 1436172575744 -->
<g id="node43" class="node"><title>1436172575744</title>
<ellipse fill="none" stroke="black" cx="1196.81" cy="-234" rx="27" ry="18"/>
<text text-anchor="middle" x="1196.81" y="-230.5" font-family="Times New Roman,serif" font-size="15.00">xor</text>
</g>
<!-- 1436222247552&#45;&#45;1436172575744 -->
<g id="edge38" class="edge"><title>1436222247552&#45;&#45;1436172575744</title>
<path fill="none" stroke="black" d="M1196.81,-287.697C1196.81,-276.846 1196.81,-262.917 1196.81,-252.104"/>
</g>
<!-- 1436170417296 -->
<g id="node44" class="node"><title>1436170417296</title>
<ellipse fill="none" stroke="black" cx="926.811" cy="-162" rx="107.914" ry="18"/>
<text text-anchor="middle" x="926.811" y="-158.5" font-family="Times New Roman,serif" font-size="15.00">Insert Fine Notification</text>
</g>
<!-- 1436172575744&#45;&#45;1436170417296 -->
<g id="edge36" class="edge"><title>1436172575744&#45;&#45;1436170417296</title>
<path fill="none" stroke="black" d="M1171.89,-226.54C1129.07,-215.439 1040.54,-192.484 982.428,-177.419"/>
</g>
<!-- 1436170419168 -->
<g id="node45" class="node"><title>1436170419168</title>
<ellipse fill="none" stroke="black" cx="1196.81" cy="-162" rx="144.571" ry="18"/>
<text text-anchor="middle" x="1196.81" y="-158.5" font-family="Times New Roman,serif" font-size="15.00">Insert Date Appeal to Prefecture</text>
</g>
<!-- 1436172575744&#45;&#45;1436170419168 -->
<g id="edge37" class="edge"><title>1436172575744&#45;&#45;1436170419168</title>
<path fill="none" stroke="black" d="M1196.81,-215.697C1196.81,-204.846 1196.81,-190.917 1196.81,-180.104"/>
</g>
<!-- 1436170417584 -->
<g id="node47" class="node"><title>1436170417584</title>
<ellipse fill="black" stroke="black" cx="1308.81" cy="-234" rx="2.7" ry="2.7"/>
</g>
<!-- 1436222248320&#45;&#45;1436170417584 -->
<g id="edge40" class="edge"><title>1436222248320&#45;&#45;1436170417584</title>
<path fill="none" stroke="black" d="M1345.92,-289.116C1333.75,-271.367 1315.09,-244.158 1310.08,-236.857"/>
</g>
<!-- 1436170417104 -->
<g id="node48" class="node"><title>1436170417104</title>
<ellipse fill="none" stroke="black" cx="1356.81" cy="-234" rx="27" ry="18"/>
<text text-anchor="middle" x="1356.81" y="-230.5" font-family="Times New Roman,serif" font-size="15.00">and</text>
</g>
<!-- 1436222248320&#45;&#45;1436170417104 -->
<g id="edge47" class="edge"><title>1436222248320&#45;&#45;1436170417104</title>
<path fill="none" stroke="black" d="M1356.81,-287.697C1356.81,-276.846 1356.81,-262.917 1356.81,-252.104"/>
</g>
<!-- 1436170417968 -->
<g id="node49" class="node"><title>1436170417968</title>
<ellipse fill="none" stroke="black" cx="1420.81" cy="-162" rx="61.6894" ry="18"/>
<text text-anchor="middle" x="1420.81" y="-158.5" font-family="Times New Roman,serif" font-size="15.00">Add penalty</text>
</g>
<!-- 1436170417104&#45;&#45;1436170417968 -->
<g id="edge41" class="edge"><title>1436170417104&#45;&#45;1436170417968</title>
<path fill="none" stroke="black" d="M1370.38,-218.155C1380.66,-206.918 1394.78,-191.476 1405.46,-179.789"/>
</g>
<!-- 1436170416432 -->
<g id="node50" class="node"><title>1436170416432</title>
<ellipse fill="none" stroke="black" cx="1527.81" cy="-162" rx="27" ry="18"/>
<text text-anchor="middle" x="1527.81" y="-158.5" font-family="Times New Roman,serif" font-size="15.00">seq</text>
</g>
<!-- 1436170417104&#45;&#45;1436170416432 -->
<g id="edge46" class="edge"><title>1436170417104&#45;&#45;1436170416432</title>
<path fill="none" stroke="black" d="M1379.17,-223.849C1411.94,-210.433 1472.68,-185.57 1505.45,-172.154"/>
</g>
<!-- 1436170419984 -->
<g id="node51" class="node"><title>1436170419984</title>
<ellipse fill="none" stroke="black" cx="1432.81" cy="-90" rx="144.571" ry="18"/>
<text text-anchor="middle" x="1432.81" y="-86.5" font-family="Times New Roman,serif" font-size="15.00">Insert Date Appeal to Prefecture</text>
</g>
<!-- 1436170416432&#45;&#45;1436170419984 -->
<g id="edge42" class="edge"><title>1436170416432&#45;&#45;1436170419984</title>
<path fill="none" stroke="black" d="M1510.39,-148.161C1495.07,-136.873 1472.66,-120.36 1455.86,-107.981"/>
</g>
<!-- 1436170419600 -->
<g id="node52" class="node"><title>1436170419600</title>
<ellipse fill="none" stroke="black" cx="1622.81" cy="-90" rx="27" ry="18"/>
<text text-anchor="middle" x="1622.81" y="-86.5" font-family="Times New Roman,serif" font-size="15.00">xor</text>
</g>
<!-- 1436170416432&#45;&#45;1436170419600 -->
<g id="edge45" class="edge"><title>1436170416432&#45;&#45;1436170419600</title>
<path fill="none" stroke="black" d="M1545.24,-148.161C1562.27,-135.61 1588.07,-116.599 1605.18,-103.995"/>
</g>
<!-- 1436170418400 -->
<g id="node53" class="node"><title>1436170418400</title>
<ellipse fill="black" stroke="black" cx="1551.81" cy="-18" rx="2.7" ry="2.7"/>
</g>
<!-- 1436170419600&#45;&#45;1436170418400 -->
<g id="edge43" class="edge"><title>1436170419600&#45;&#45;1436170418400</title>
<path fill="none" stroke="black" d="M1608.1,-74.496C1589.9,-56.5555 1560.45,-27.5217 1553.38,-20.5436"/>
</g>
<!-- 1436170417392 -->
<g id="node54" class="node"><title>1436170417392</title>
<ellipse fill="none" stroke="black" cx="1692.81" cy="-18" rx="120.43" ry="18"/>
<text text-anchor="middle" x="1692.81" y="-14.5" font-family="Times New Roman,serif" font-size="15.00">Send Appeal to Prefecture</text>
</g>
<!-- 1436170419600&#45;&#45;1436170417392 -->
<g id="edge44" class="edge"><title>1436170419600&#45;&#45;1436170417392</title>
<path fill="none" stroke="black" d="M1637.32,-74.496C1648.53,-63.2831 1664.07,-47.737 1675.86,-35.9506"/>
</g>
<!-- 1436170416720 -->
<g id="node56" class="node"><title>1436170416720</title>
<ellipse fill="black" stroke="black" cx="1404.81" cy="-234" rx="2.7" ry="2.7"/>
</g>
<!-- 1436222247168&#45;&#45;1436170416720 -->
<g id="edge49" class="edge"><title>1436222247168&#45;&#45;1436170416720</title>
<path fill="none" stroke="black" d="M1470.61,-291.17C1449.7,-273.32 1415.01,-243.702 1406.66,-236.577"/>
</g>
<!-- 1436170417440 -->
<g id="node57" class="node"><title>1436170417440</title>
<ellipse fill="none" stroke="black" cx="1545.81" cy="-234" rx="120.43" ry="18"/>
<text text-anchor="middle" x="1545.81" y="-230.5" font-family="Times New Roman,serif" font-size="15.00">Send Appeal to Prefecture</text>
</g>
<!-- 1436222247168&#45;&#45;1436170417440 -->
<g id="edge50" class="edge"><title>1436222247168&#45;&#45;1436170417440</title>
<path fill="none" stroke="black" d="M1499.61,-289.811C1508.97,-278.713 1521.66,-263.653 1531.38,-252.127"/>
</g>
<!-- 1436170418352 -->
<g id="node59" class="node"><title>1436170418352</title>
<ellipse fill="black" stroke="black" cx="1686.81" cy="-234" rx="2.7" ry="2.7"/>
</g>
<!-- 1436170419360&#45;&#45;1436170418352 -->
<g id="edge52" class="edge"><title>1436170419360&#45;&#45;1436170418352</title>
<path fill="none" stroke="black" d="M1686.81,-287.697C1686.81,-269.883 1686.81,-243.769 1686.81,-236.776"/>
</g>
<!-- 1436170417680 -->
<g id="node60" class="node"><title>1436170417680</title>
<ellipse fill="none" stroke="black" cx="1880.81" cy="-234" rx="173.941" ry="18"/>
<text text-anchor="middle" x="1880.81" y="-230.5" font-family="Times New Roman,serif" font-size="15.00">Receive Result Appeal from Prefecture</text>
</g>
<!-- 1436170419360&#45;&#45;1436170417680 -->
<g id="edge53" class="edge"><title>1436170419360&#45;&#45;1436170417680</title>
<path fill="none" stroke="black" d="M1710.21,-296.556C1741.05,-285.429 1795.96,-265.615 1835.16,-251.472"/>
</g>
<!-- 1436170418784 -->
<g id="node62" class="node"><title>1436170418784</title>
<ellipse fill="black" stroke="black" cx="2074.81" cy="-234" rx="2.7" ry="2.7"/>
</g>
<!-- 1436170418064&#45;&#45;1436170418784 -->
<g id="edge55" class="edge"><title>1436170418064&#45;&#45;1436170418784</title>
<path fill="none" stroke="black" d="M2074.81,-287.697C2074.81,-269.883 2074.81,-243.769 2074.81,-236.776"/>
</g>
<!-- 1436170417248 -->
<g id="node63" class="node"><title>1436170417248</title>
<ellipse fill="none" stroke="black" cx="2243.81" cy="-234" rx="148.91" ry="18"/>
<text text-anchor="middle" x="2243.81" y="-230.5" font-family="Times New Roman,serif" font-size="15.00">Notify Result Appeal to Offender</text>
</g>
<!-- 1436170418064&#45;&#45;1436170417248 -->
<g id="edge56" class="edge"><title>1436170418064&#45;&#45;1436170417248</title>
<path fill="none" stroke="black" d="M2097.25,-295.705C2124.46,-284.436 2170.79,-265.245 2204.09,-251.454"/>
</g>
<!-- 1436170417776 -->
<g id="node65" class="node"><title>1436170417776</title>
<ellipse fill="black" stroke="black" cx="2412.81" cy="-234" rx="2.7" ry="2.7"/>
</g>
<!-- 1436170417488&#45;&#45;1436170417776 -->
<g id="edge58" class="edge"><title>1436170417488&#45;&#45;1436170417776</title>
<path fill="none" stroke="black" d="M2412.81,-287.697C2412.81,-269.883 2412.81,-243.769 2412.81,-236.776"/>
</g>
<!-- 1436170417200 -->
<g id="node66" class="node"><title>1436170417200</title>
<ellipse fill="none" stroke="black" cx="2479.81" cy="-234" rx="45.7249" ry="18"/>
<text text-anchor="middle" x="2479.81" y="-230.5" font-family="Times New Roman,serif" font-size="15.00">Payment</text>
</g>
<!-- 1436170417488&#45;&#45;1436170417200 -->
<g id="edge59" class="edge"><title>1436170417488&#45;&#45;1436170417200</title>
<path fill="none" stroke="black" d="M2426.69,-290.496C2437.66,-279.043 2452.95,-263.069 2464.31,-251.198"/>
</g>
<!-- 1436170417008 -->
<g id="node69" class="node"><title>1436170417008</title>
<ellipse fill="black" stroke="black" cx="1553.81" cy="-450" rx="2.7" ry="2.7"/>
</g>
<!-- 1436222248080&#45;&#45;1436170417008 -->
<g id="edge65" class="edge"><title>1436222248080&#45;&#45;1436170417008</title>
<path fill="none" stroke="black" d="M1553.81,-503.697C1553.81,-485.883 1553.81,-459.769 1553.81,-452.776"/>
</g>
<!-- 1436170416912 -->
<g id="node70" class="node"><title>1436170416912</title>
<ellipse fill="none" stroke="black" cx="1695.81" cy="-450" rx="120.819" ry="18"/>
<text text-anchor="middle" x="1695.81" y="-446.5" font-family="Times New Roman,serif" font-size="15.00">Send for Credit Collection</text>
</g>
<!-- 1436222248080&#45;&#45;1436170416912 -->
<g id="edge66" class="edge"><title>1436222248080&#45;&#45;1436170416912</title>
<path fill="none" stroke="black" d="M1575.07,-510.52C1598.2,-499.116 1635.49,-480.733 1662.52,-467.412"/>
</g>
</g>
</svg>
