<?xml version="1.0" encoding="UTF-8" standalone="no"?>
<!DOCTYPE svg PUBLIC "-//W3C//DTD SVG 1.1//EN"
 "http://www.w3.org/Graphics/SVG/1.1/DTD/svg11.dtd">
<!-- Generated by graphviz version 2.38.0 (20140413.2041)
 -->
<!-- Title: pt Pages: 1 -->
<svg width="1822pt" height="548pt"
 viewBox="0.00 0.00 1821.52 548.00" xmlns="http://www.w3.org/2000/svg" xmlns:xlink="http://www.w3.org/1999/xlink">
<g id="graph0" class="graph" transform="scale(1 1) rotate(0) translate(4 544)">
<title>pt</title>
<!-- 2492620303184 -->
<g id="node1" class="node"><title>2492620303184</title>
<ellipse fill="none" stroke="black" cx="441.811" cy="-522" rx="27" ry="18"/>
<text text-anchor="middle" x="441.811" y="-518.5" font-family="Times New Roman,serif" font-size="15.00">and</text>
</g>
<!-- 2492620300352 -->
<g id="node2" class="node"><title>2492620300352</title>
<ellipse fill="none" stroke="black" cx="305.811" cy="-450" rx="27" ry="18"/>
<text text-anchor="middle" x="305.811" y="-446.5" font-family="Times New Roman,serif" font-size="15.00">xor</text>
</g>
<!-- 2492620303184&#45;&#45;2492620300352 -->
<g id="edge18" class="edge"><title>2492620303184&#45;&#45;2492620300352</title>
<path fill="none" stroke="black" d="M421.156,-510.369C395.594,-497.212 352.312,-474.934 326.661,-461.732"/>
</g>
<!-- 2492620301696 -->
<g id="node20" class="node"><title>2492620301696</title>
<ellipse fill="none" stroke="black" cx="577.811" cy="-450" rx="27" ry="18"/>
<text text-anchor="middle" x="577.811" y="-446.5" font-family="Times New Roman,serif" font-size="15.00">seq</text>
</g>
<!-- 2492620303184&#45;&#45;2492620301696 -->
<g id="edge44" class="edge"><title>2492620303184&#45;&#45;2492620301696</title>
<path fill="none" stroke="black" d="M462.467,-510.369C488.028,-497.212 531.31,-474.934 556.961,-461.732"/>
</g>
<!-- 2492620301216 -->
<g id="node3" class="node"><title>2492620301216</title>
<ellipse fill="black" stroke="black" cx="257.811" cy="-378" rx="2.7" ry="2.7"/>
</g>
<!-- 2492620300352&#45;&#45;2492620301216 -->
<g id="edge1" class="edge"><title>2492620300352&#45;&#45;2492620301216</title>
<path fill="none" stroke="black" d="M294.919,-433.116C282.749,-415.367 264.091,-388.158 259.084,-380.857"/>
</g>
<!-- 2492620302752 -->
<g id="node4" class="node"><title>2492620302752</title>
<ellipse fill="none" stroke="black" cx="305.811" cy="-378" rx="27" ry="18"/>
<text text-anchor="middle" x="305.811" y="-374.5" font-family="Times New Roman,serif" font-size="15.00">and</text>
</g>
<!-- 2492620300352&#45;&#45;2492620302752 -->
<g id="edge17" class="edge"><title>2492620300352&#45;&#45;2492620302752</title>
<path fill="none" stroke="black" d="M305.811,-431.697C305.811,-420.846 305.811,-406.917 305.811,-396.104"/>
</g>
<!-- 2492620490736 -->
<g id="node5" class="node"><title>2492620490736</title>
<ellipse fill="none" stroke="black" cx="164.811" cy="-306" rx="46.6143" ry="18"/>
<text text-anchor="middle" x="164.811" y="-302.5" font-family="Times New Roman,serif" font-size="15.00">xor loop</text>
</g>
<!-- 2492620302752&#45;&#45;2492620490736 -->
<g id="edge4" class="edge"><title>2492620302752&#45;&#45;2492620490736</title>
<path fill="none" stroke="black" d="M284.702,-366.52C260.118,-354.316 219.432,-334.117 192.374,-320.684"/>
</g>
<!-- 2492620491312 -->
<g id="node8" class="node"><title>2492620491312</title>
<ellipse fill="none" stroke="black" cx="305.811" cy="-306" rx="27" ry="18"/>
<text text-anchor="middle" x="305.811" y="-302.5" font-family="Times New Roman,serif" font-size="15.00">xor</text>
</g>
<!-- 2492620302752&#45;&#45;2492620491312 -->
<g id="edge16" class="edge"><title>2492620302752&#45;&#45;2492620491312</title>
<path fill="none" stroke="black" d="M305.811,-359.697C305.811,-348.846 305.811,-334.917 305.811,-324.104"/>
</g>
<!-- 2492620490448 -->
<g id="node6" class="node"><title>2492620490448</title>
<ellipse fill="black" stroke="black" cx="97.8111" cy="-234" rx="2.7" ry="2.7"/>
</g>
<!-- 2492620490736&#45;&#45;2492620490448 -->
<g id="edge2" class="edge"><title>2492620490736&#45;&#45;2492620490448</title>
<path fill="none" stroke="black" d="M149.272,-288.765C131.953,-270.671 105.542,-243.078 99.2104,-236.462"/>
</g>
<!-- 2492620489728 -->
<g id="node7" class="node"><title>2492620489728</title>
<ellipse fill="none" stroke="black" cx="164.811" cy="-234" rx="45.7249" ry="18"/>
<text text-anchor="middle" x="164.811" y="-230.5" font-family="Times New Roman,serif" font-size="15.00">Payment</text>
</g>
<!-- 2492620490736&#45;&#45;2492620489728 -->
<g id="edge3" class="edge"><title>2492620490736&#45;&#45;2492620489728</title>
<path fill="none" stroke="black" d="M164.811,-287.697C164.811,-276.846 164.811,-262.917 164.811,-252.104"/>
</g>
<!-- 2492620490880 -->
<g id="node9" class="node"><title>2492620490880</title>
<ellipse fill="black" stroke="black" cx="231.811" cy="-234" rx="2.7" ry="2.7"/>
</g>
<!-- 2492620491312&#45;&#45;2492620490880 -->
<g id="edge5" class="edge"><title>2492620491312&#45;&#45;2492620490880</title>
<path fill="none" stroke="black" d="M290.836,-290.834C271.916,-272.937 240.915,-243.612 233.46,-236.56"/>
</g>
<!-- 2492620488960 -->
<g id="node10" class="node"><title>2492620488960</title>
<ellipse fill="none" stroke="black" cx="305.811" cy="-234" rx="52.6228" ry="18"/>
<text text-anchor="middle" x="305.811" y="-230.5" font-family="Times New Roman,serif" font-size="15.00">Send Fine</text>
</g>
<!-- 2492620491312&#45;&#45;2492620488960 -->
<g id="edge6" class="edge"><title>2492620491312&#45;&#45;2492620488960</title>
<path fill="none" stroke="black" d="M305.811,-287.697C305.811,-276.846 305.811,-262.917 305.811,-252.104"/>
</g>
<!-- 2492620490304 -->
<g id="node11" class="node"><title>2492620490304</title>
<ellipse fill="none" stroke="black" cx="403.811" cy="-234" rx="27" ry="18"/>
<text text-anchor="middle" x="403.811" y="-230.5" font-family="Times New Roman,serif" font-size="15.00">seq</text>
</g>
<!-- 2492620491312&#45;&#45;2492620490304 -->
<g id="edge15" class="edge"><title>2492620491312&#45;&#45;2492620490304</title>
<path fill="none" stroke="black" d="M323.786,-292.161C341.468,-279.531 368.307,-260.36 385.95,-247.758"/>
</g>
<!-- 2492620491408 -->
<g id="node12" class="node"><title>2492620491408</title>
<ellipse fill="none" stroke="black" cx="52.8111" cy="-162" rx="52.6228" ry="18"/>
<text text-anchor="middle" x="52.8111" y="-158.5" font-family="Times New Roman,serif" font-size="15.00">Send Fine</text>
</g>
<!-- 2492620490304&#45;&#45;2492620491408 -->
<g id="edge7" class="edge"><title>2492620490304&#45;&#45;2492620491408</title>
<path fill="none" stroke="black" d="M378.285,-227.909C319.048,-216.096 171.636,-186.697 97.2456,-171.862"/>
</g>
<!-- 2492620490976 -->
<g id="node13" class="node"><title>2492620490976</title>
<ellipse fill="none" stroke="black" cx="231.811" cy="-162" rx="107.914" ry="18"/>
<text text-anchor="middle" x="231.811" y="-158.5" font-family="Times New Roman,serif" font-size="15.00">Insert Fine Notification</text>
</g>
<!-- 2492620490304&#45;&#45;2492620490976 -->
<g id="edge8" class="edge"><title>2492620490304&#45;&#45;2492620490976</title>
<path fill="none" stroke="black" d="M381.325,-223.849C353.279,-212.434 304.87,-192.733 270.746,-178.846"/>
</g>
<!-- 2492620490832 -->
<g id="node14" class="node"><title>2492620490832</title>
<ellipse fill="none" stroke="black" cx="403.811" cy="-162" rx="46.6143" ry="18"/>
<text text-anchor="middle" x="403.811" y="-158.5" font-family="Times New Roman,serif" font-size="15.00">xor loop</text>
</g>
<!-- 2492620490304&#45;&#45;2492620490832 -->
<g id="edge11" class="edge"><title>2492620490304&#45;&#45;2492620490832</title>
<path fill="none" stroke="black" d="M403.811,-215.697C403.811,-204.846 403.811,-190.917 403.811,-180.104"/>
</g>
<!-- 2492618105760 -->
<g id="node17" class="node"><title>2492618105760</title>
<ellipse fill="none" stroke="black" cx="514.811" cy="-162" rx="46.6143" ry="18"/>
<text text-anchor="middle" x="514.811" y="-158.5" font-family="Times New Roman,serif" font-size="15.00">xor loop</text>
</g>
<!-- 2492620490304&#45;&#45;2492618105760 -->
<g id="edge14" class="edge"><title>2492620490304&#45;&#45;2492618105760</title>
<path fill="none" stroke="black" d="M422.893,-220.967C441.86,-209.005 470.988,-190.636 491.357,-177.791"/>
</g>
<!-- 2492618106048 -->
<g id="node15" class="node"><title>2492618106048</title>
<ellipse fill="black" stroke="black" cx="320.811" cy="-90" rx="2.7" ry="2.7"/>
</g>
<!-- 2492620490832&#45;&#45;2492618106048 -->
<g id="edge9" class="edge"><title>2492620490832&#45;&#45;2492618106048</title>
<path fill="none" stroke="black" d="M385.391,-145.465C363.995,-127.42 330.598,-99.254 322.583,-92.4944"/>
</g>
<!-- 2492618107776 -->
<g id="node16" class="node"><title>2492618107776</title>
<ellipse fill="none" stroke="black" cx="403.811" cy="-90" rx="61.6894" ry="18"/>
<text text-anchor="middle" x="403.811" y="-86.5" font-family="Times New Roman,serif" font-size="15.00">Add penalty</text>
</g>
<!-- 2492620490832&#45;&#45;2492618107776 -->
<g id="edge10" class="edge"><title>2492620490832&#45;&#45;2492618107776</title>
<path fill="none" stroke="black" d="M403.811,-143.697C403.811,-132.846 403.811,-118.917 403.811,-108.104"/>
</g>
<!-- 2492618108112 -->
<g id="node18" class="node"><title>2492618108112</title>
<ellipse fill="black" stroke="black" cx="486.811" cy="-90" rx="2.7" ry="2.7"/>
</g>
<!-- 2492618105760&#45;&#45;2492618108112 -->
<g id="edge12" class="edge"><title>2492618105760&#45;&#45;2492618108112</title>
<path fill="none" stroke="black" d="M508.033,-144.055C500.912,-126.252 490.357,-99.8653 487.53,-92.7963"/>
</g>
<!-- 2492618105664 -->
<g id="node19" class="node"><title>2492618105664</title>
<ellipse fill="none" stroke="black" cx="585.811" cy="-90" rx="78.5434" ry="18"/>
<text text-anchor="middle" x="585.811" y="-86.5" font-family="Times New Roman,serif" font-size="15.00">Appeal to Judge</text>
</g>
<!-- 2492618105760&#45;&#45;2492618105664 -->
<g id="edge13" class="edge"><title>2492618105760&#45;&#45;2492618105664</title>
<path fill="none" stroke="black" d="M531.278,-144.765C542.585,-133.618 557.548,-118.865 568.94,-107.633"/>
</g>
<!-- 2492620302128 -->
<g id="node21" class="node"><title>2492620302128</title>
<ellipse fill="none" stroke="black" cx="525.811" cy="-378" rx="59.5207" ry="18"/>
<text text-anchor="middle" x="525.811" y="-374.5" font-family="Times New Roman,serif" font-size="15.00">Create Fine</text>
</g>
<!-- 2492620301696&#45;&#45;2492620302128 -->
<g id="edge19" class="edge"><title>2492620301696&#45;&#45;2492620302128</title>
<path fill="none" stroke="black" d="M566.271,-433.465C558.012,-422.348 546.9,-407.39 538.411,-395.962"/>
</g>
<!-- 2492620300448 -->
<g id="node22" class="node"><title>2492620300448</title>
<ellipse fill="none" stroke="black" cx="630.811" cy="-378" rx="27" ry="18"/>
<text text-anchor="middle" x="630.811" y="-374.5" font-family="Times New Roman,serif" font-size="15.00">and</text>
</g>
<!-- 2492620301696&#45;&#45;2492620300448 -->
<g id="edge40" class="edge"><title>2492620301696&#45;&#45;2492620300448</title>
<path fill="none" stroke="black" d="M589.573,-433.465C598.356,-421.865 610.306,-406.082 619.082,-394.492"/>
</g>
<!-- 2492620300592 -->
<g id="node43" class="node"><title>2492620300592</title>
<ellipse fill="none" stroke="black" cx="736.811" cy="-378" rx="27" ry="18"/>
<text text-anchor="middle" x="736.811" y="-374.5" font-family="Times New Roman,serif" font-size="15.00">xor</text>
</g>
<!-- 2492620301696&#45;&#45;2492620300592 -->
<g id="edge43" class="edge"><title>2492620301696&#45;&#45;2492620300592</title>
<path fill="none" stroke="black" d="M599.919,-439.267C630.297,-425.893 684.612,-401.981 714.891,-388.651"/>
</g>
<!-- 2492620303664 -->
<g id="node23" class="node"><title>2492620303664</title>
<ellipse fill="none" stroke="black" cx="596.811" cy="-306" rx="46.6143" ry="18"/>
<text text-anchor="middle" x="596.811" y="-302.5" font-family="Times New Roman,serif" font-size="15.00">xor loop</text>
</g>
<!-- 2492620300448&#45;&#45;2492620303664 -->
<g id="edge22" class="edge"><title>2492620300448&#45;&#45;2492620303664</title>
<path fill="none" stroke="black" d="M622.925,-360.765C617.589,-349.779 610.553,-335.292 605.128,-324.124"/>
</g>
<!-- 2492620300832 -->
<g id="node26" class="node"><title>2492620300832</title>
<ellipse fill="none" stroke="black" cx="688.811" cy="-306" rx="27" ry="18"/>
<text text-anchor="middle" x="688.811" y="-302.5" font-family="Times New Roman,serif" font-size="15.00">xor</text>
</g>
<!-- 2492620300448&#45;&#45;2492620300832 -->
<g id="edge39" class="edge"><title>2492620300448&#45;&#45;2492620300832</title>
<path fill="none" stroke="black" d="M643.396,-361.811C653.125,-350.07 666.528,-333.893 676.25,-322.159"/>
</g>
<!-- 2492620302896 -->
<g id="node24" class="node"><title>2492620302896</title>
<ellipse fill="black" stroke="black" cx="536.811" cy="-234" rx="2.7" ry="2.7"/>
</g>
<!-- 2492620303664&#45;&#45;2492620302896 -->
<g id="edge20" class="edge"><title>2492620303664&#45;&#45;2492620302896</title>
<path fill="none" stroke="black" d="M582.895,-288.765C567.386,-270.671 543.735,-243.078 538.064,-236.462"/>
</g>
<!-- 2492620300928 -->
<g id="node25" class="node"><title>2492620300928</title>
<ellipse fill="none" stroke="black" cx="603.811" cy="-234" rx="45.7249" ry="18"/>
<text text-anchor="middle" x="603.811" y="-230.5" font-family="Times New Roman,serif" font-size="15.00">Payment</text>
</g>
<!-- 2492620303664&#45;&#45;2492620300928 -->
<g id="edge21" class="edge"><title>2492620303664&#45;&#45;2492620300928</title>
<path fill="none" stroke="black" d="M598.541,-287.697C599.626,-276.846 601.019,-262.917 602.101,-252.104"/>
</g>
<!-- 2492620304000 -->
<g id="node27" class="node"><title>2492620304000</title>
<ellipse fill="black" stroke="black" cx="676.811" cy="-234" rx="2.7" ry="2.7"/>
</g>
<!-- 2492620300832&#45;&#45;2492620304000 -->
<g id="edge23" class="edge"><title>2492620300832&#45;&#45;2492620304000</title>
<path fill="none" stroke="black" d="M685.906,-288.055C682.854,-270.252 678.331,-243.865 677.119,-236.796"/>
</g>
<!-- 2492620302080 -->
<g id="node28" class="node"><title>2492620302080</title>
<ellipse fill="none" stroke="black" cx="750.811" cy="-234" rx="52.6228" ry="18"/>
<text text-anchor="middle" x="750.811" y="-230.5" font-family="Times New Roman,serif" font-size="15.00">Send Fine</text>
</g>
<!-- 2492620300832&#45;&#45;2492620302080 -->
<g id="edge24" class="edge"><title>2492620300832&#45;&#45;2492620302080</title>
<path fill="none" stroke="black" d="M701.96,-290.155C711.913,-278.918 725.59,-263.476 735.941,-251.789"/>
</g>
<!-- 2492620302848 -->
<g id="node29" class="node"><title>2492620302848</title>
<ellipse fill="none" stroke="black" cx="889.811" cy="-234" rx="27" ry="18"/>
<text text-anchor="middle" x="889.811" y="-230.5" font-family="Times New Roman,serif" font-size="15.00">seq</text>
</g>
<!-- 2492620300832&#45;&#45;2492620302848 -->
<g id="edge38" class="edge"><title>2492620300832&#45;&#45;2492620302848</title>
<path fill="none" stroke="black" d="M712.262,-296.833C750.992,-283.345 827.878,-256.569 866.51,-243.115"/>
</g>
<!-- 2492620304144 -->
<g id="node30" class="node"><title>2492620304144</title>
<ellipse fill="none" stroke="black" cx="889.811" cy="-162" rx="52.6228" ry="18"/>
<text text-anchor="middle" x="889.811" y="-158.5" font-family="Times New Roman,serif" font-size="15.00">Send Fine</text>
</g>
<!-- 2492620302848&#45;&#45;2492620304144 -->
<g id="edge25" class="edge"><title>2492620302848&#45;&#45;2492620304144</title>
<path fill="none" stroke="black" d="M889.811,-215.697C889.811,-204.846 889.811,-190.917 889.811,-180.104"/>
</g>
<!-- 2492620303232 -->
<g id="node31" class="node"><title>2492620303232</title>
<ellipse fill="none" stroke="black" cx="1067.81" cy="-162" rx="27" ry="18"/>
<text text-anchor="middle" x="1067.81" y="-158.5" font-family="Times New Roman,serif" font-size="15.00">seq</text>
</g>
<!-- 2492620302848&#45;&#45;2492620303232 -->
<g id="edge37" class="edge"><title>2492620302848&#45;&#45;2492620303232</title>
<path fill="none" stroke="black" d="M912.717,-223.992C946.895,-210.551 1010.87,-185.394 1044.99,-171.973"/>
</g>
<!-- 2492620301312 -->
<g id="node32" class="node"><title>2492620301312</title>
<ellipse fill="none" stroke="black" cx="789.811" cy="-90" rx="107.914" ry="18"/>
<text text-anchor="middle" x="789.811" y="-86.5" font-family="Times New Roman,serif" font-size="15.00">Insert Fine Notification</text>
</g>
<!-- 2492620303232&#45;&#45;2492620301312 -->
<g id="edge26" class="edge"><title>2492620303232&#45;&#45;2492620301312</title>
<path fill="none" stroke="black" d="M1042.65,-154.665C998.677,-143.592 906.817,-120.462 846.77,-105.342"/>
</g>
<!-- 2492620303136 -->
<g id="node33" class="node"><title>2492620303136</title>
<ellipse fill="none" stroke="black" cx="942.811" cy="-90" rx="27" ry="18"/>
<text text-anchor="middle" x="942.811" y="-86.5" font-family="Times New Roman,serif" font-size="15.00">and</text>
</g>
<!-- 2492620303232&#45;&#45;2492620303136 -->
<g id="edge29" class="edge"><title>2492620303232&#45;&#45;2492620303136</title>
<path fill="none" stroke="black" d="M1047.73,-149.753C1024.4,-136.691 986.15,-115.27 962.845,-102.219"/>
</g>
<!-- 2492620302608 -->
<g id="node36" class="node"><title>2492620302608</title>
<ellipse fill="none" stroke="black" cx="1107.81" cy="-90" rx="120.43" ry="18"/>
<text text-anchor="middle" x="1107.81" y="-86.5" font-family="Times New Roman,serif" font-size="15.00">Send Appeal to Prefecture</text>
</g>
<!-- 2492620303232&#45;&#45;2492620302608 -->
<g id="edge30" class="edge"><title>2492620303232&#45;&#45;2492620302608</title>
<path fill="none" stroke="black" d="M1077.09,-144.765C1083.37,-133.779 1091.64,-119.292 1098.03,-108.124"/>
</g>
<!-- 2492620301504 -->
<g id="node37" class="node"><title>2492620301504</title>
<ellipse fill="none" stroke="black" cx="1272.81" cy="-90" rx="27" ry="18"/>
<text text-anchor="middle" x="1272.81" y="-86.5" font-family="Times New Roman,serif" font-size="15.00">xor</text>
</g>
<!-- 2492620303232&#45;&#45;2492620301504 -->
<g id="edge33" class="edge"><title>2492620303232&#45;&#45;2492620301504</title>
<path fill="none" stroke="black" d="M1091.33,-152.97C1130.77,-139.503 1209.79,-112.52 1249.25,-99.0438"/>
</g>
<!-- 2492620301264 -->
<g id="node40" class="node"><title>2492620301264</title>
<ellipse fill="none" stroke="black" cx="1495.81" cy="-90" rx="27" ry="18"/>
<text text-anchor="middle" x="1495.81" y="-86.5" font-family="Times New Roman,serif" font-size="15.00">xor</text>
</g>
<!-- 2492620303232&#45;&#45;2492620301264 -->
<g id="edge36" class="edge"><title>2492620303232&#45;&#45;2492620301264</title>
<path fill="none" stroke="black" d="M1093.94,-156.727C1170.44,-144.215 1393.34,-107.759 1469.75,-95.2619"/>
</g>
<!-- 2492620301024 -->
<g id="node34" class="node"><title>2492620301024</title>
<ellipse fill="none" stroke="black" cx="718.811" cy="-18" rx="61.6894" ry="18"/>
<text text-anchor="middle" x="718.811" y="-14.5" font-family="Times New Roman,serif" font-size="15.00">Add penalty</text>
</g>
<!-- 2492620303136&#45;&#45;2492620301024 -->
<g id="edge27" class="edge"><title>2492620303136&#45;&#45;2492620301024</title>
<path fill="none" stroke="black" d="M918.839,-81.5088C880.804,-69.6229 806.18,-46.3029 759.611,-31.7501"/>
</g>
<!-- 2492620303040 -->
<g id="node35" class="node"><title>2492620303040</title>
<ellipse fill="none" stroke="black" cx="942.811" cy="-18" rx="144.571" ry="18"/>
<text text-anchor="middle" x="942.811" y="-14.5" font-family="Times New Roman,serif" font-size="15.00">Insert Date Appeal to Prefecture</text>
</g>
<!-- 2492620303136&#45;&#45;2492620303040 -->
<g id="edge28" class="edge"><title>2492620303136&#45;&#45;2492620303040</title>
<path fill="none" stroke="black" d="M942.811,-71.6966C942.811,-60.8463 942.811,-46.9167 942.811,-36.1043"/>
</g>
<!-- 2492620303712 -->
<g id="node38" class="node"><title>2492620303712</title>
<ellipse fill="black" stroke="black" cx="1107.81" cy="-18" rx="2.7" ry="2.7"/>
</g>
<!-- 2492620301504&#45;&#45;2492620303712 -->
<g id="edge31" class="edge"><title>2492620301504&#45;&#45;2492620303712</title>
<path fill="none" stroke="black" d="M1250.56,-79.5595C1209.39,-62.0945 1124.22,-25.9596 1109.88,-19.8779"/>
</g>
<!-- 2492620304096 -->
<g id="node39" class="node"><title>2492620304096</title>
<ellipse fill="none" stroke="black" cx="1301.81" cy="-18" rx="173.941" ry="18"/>
<text text-anchor="middle" x="1301.81" y="-14.5" font-family="Times New Roman,serif" font-size="15.00">Receive Result Appeal from Prefecture</text>
</g>
<!-- 2492620301504&#45;&#45;2492620304096 -->
<g id="edge32" class="edge"><title>2492620301504&#45;&#45;2492620304096</title>
<path fill="none" stroke="black" d="M1279.68,-72.411C1284.17,-61.5758 1290.02,-47.4498 1294.58,-36.4468"/>
</g>
<!-- 2492620490352 -->
<g id="node41" class="node"><title>2492620490352</title>
<ellipse fill="black" stroke="black" cx="1495.81" cy="-18" rx="2.7" ry="2.7"/>
</g>
<!-- 2492620301264&#45;&#45;2492620490352 -->
<g id="edge34" class="edge"><title>2492620301264&#45;&#45;2492620490352</title>
<path fill="none" stroke="black" d="M1495.81,-71.6966C1495.81,-53.8826 1495.81,-27.7686 1495.81,-20.7764"/>
</g>
<!-- 2492620491696 -->
<g id="node42" class="node"><title>2492620491696</title>
<ellipse fill="none" stroke="black" cx="1664.81" cy="-18" rx="148.91" ry="18"/>
<text text-anchor="middle" x="1664.81" y="-14.5" font-family="Times New Roman,serif" font-size="15.00">Notify Result Appeal to Offender</text>
</g>
<!-- 2492620301264&#45;&#45;2492620491696 -->
<g id="edge35" class="edge"><title>2492620301264&#45;&#45;2492620491696</title>
<path fill="none" stroke="black" d="M1518.25,-79.7045C1545.46,-68.4359 1591.79,-49.2446 1625.09,-35.4544"/>
</g>
<!-- 2492620301456 -->
<g id="node44" class="node"><title>2492620301456</title>
<ellipse fill="black" stroke="black" cx="736.811" cy="-306" rx="2.7" ry="2.7"/>
</g>
<!-- 2492620300592&#45;&#45;2492620301456 -->
<g id="edge41" class="edge"><title>2492620300592&#45;&#45;2492620301456</title>
<path fill="none" stroke="black" d="M736.811,-359.697C736.811,-341.883 736.811,-315.769 736.811,-308.776"/>
</g>
<!-- 2492620302032 -->
<g id="node45" class="node"><title>2492620302032</title>
<ellipse fill="none" stroke="black" cx="878.811" cy="-306" rx="120.819" ry="18"/>
<text text-anchor="middle" x="878.811" y="-302.5" font-family="Times New Roman,serif" font-size="15.00">Send for Credit Collection</text>
</g>
<!-- 2492620300592&#45;&#45;2492620302032 -->
<g id="edge42" class="edge"><title>2492620300592&#45;&#45;2492620302032</title>
<path fill="none" stroke="black" d="M758.07,-366.52C781.203,-355.116 818.495,-336.733 845.519,-323.412"/>
</g>
</g>
</svg>
