<?xml version="1.0" encoding="UTF-8" standalone="no"?>
<!DOCTYPE svg PUBLIC "-//W3C//DTD SVG 1.1//EN"
 "http://www.w3.org/Graphics/SVG/1.1/DTD/svg11.dtd">
<!-- Generated by graphviz version 2.38.0 (20140413.2041)
 -->
<!-- Title: pt Pages: 1 -->
<svg width="3096pt" height="836pt"
 viewBox="0.00 0.00 3096.03 836.00" xmlns="http://www.w3.org/2000/svg" xmlns:xlink="http://www.w3.org/1999/xlink">
<g id="graph0" class="graph" transform="scale(1 1) rotate(0) translate(4 832)">
<title>pt</title>
<!-- 2492452706048 -->
<g id="node1" class="node"><title>2492452706048</title>
<ellipse fill="none" stroke="black" cx="702.811" cy="-810" rx="27" ry="18"/>
<text text-anchor="middle" x="702.811" y="-806.5" font-family="Times New Roman,serif" font-size="15.00">and</text>
</g>
<!-- 2492454738432 -->
<g id="node2" class="node"><title>2492454738432</title>
<ellipse fill="none" stroke="black" cx="305.811" cy="-738" rx="27" ry="18"/>
<text text-anchor="middle" x="305.811" y="-734.5" font-family="Times New Roman,serif" font-size="15.00">xor</text>
</g>
<!-- 2492452706048&#45;&#45;2492454738432 -->
<g id="edge18" class="edge"><title>2492452706048&#45;&#45;2492454738432</title>
<path fill="none" stroke="black" d="M677.069,-804.461C605.333,-791.812 403.729,-756.265 331.753,-743.574"/>
</g>
<!-- 2492454736320 -->
<g id="node20" class="node"><title>2492454736320</title>
<ellipse fill="none" stroke="black" cx="1099.81" cy="-738" rx="27" ry="18"/>
<text text-anchor="middle" x="1099.81" y="-734.5" font-family="Times New Roman,serif" font-size="15.00">and</text>
</g>
<!-- 2492452706048&#45;&#45;2492454736320 -->
<g id="edge98" class="edge"><title>2492452706048&#45;&#45;2492454736320</title>
<path fill="none" stroke="black" d="M728.553,-804.461C800.289,-791.812 1001.89,-756.265 1073.87,-743.574"/>
</g>
<!-- 2492618470352 -->
<g id="node3" class="node"><title>2492618470352</title>
<ellipse fill="black" stroke="black" cx="257.811" cy="-666" rx="2.7" ry="2.7"/>
</g>
<!-- 2492454738432&#45;&#45;2492618470352 -->
<g id="edge1" class="edge"><title>2492454738432&#45;&#45;2492618470352</title>
<path fill="none" stroke="black" d="M294.919,-721.116C282.749,-703.367 264.091,-676.158 259.084,-668.857"/>
</g>
<!-- 2492454963520 -->
<g id="node4" class="node"><title>2492454963520</title>
<ellipse fill="none" stroke="black" cx="305.811" cy="-666" rx="27" ry="18"/>
<text text-anchor="middle" x="305.811" y="-662.5" font-family="Times New Roman,serif" font-size="15.00">and</text>
</g>
<!-- 2492454738432&#45;&#45;2492454963520 -->
<g id="edge17" class="edge"><title>2492454738432&#45;&#45;2492454963520</title>
<path fill="none" stroke="black" d="M305.811,-719.697C305.811,-708.846 305.811,-694.917 305.811,-684.104"/>
</g>
<!-- 2492637080592 -->
<g id="node5" class="node"><title>2492637080592</title>
<ellipse fill="none" stroke="black" cx="164.811" cy="-594" rx="46.6143" ry="18"/>
<text text-anchor="middle" x="164.811" y="-590.5" font-family="Times New Roman,serif" font-size="15.00">xor loop</text>
</g>
<!-- 2492454963520&#45;&#45;2492637080592 -->
<g id="edge4" class="edge"><title>2492454963520&#45;&#45;2492637080592</title>
<path fill="none" stroke="black" d="M284.702,-654.52C260.118,-642.316 219.432,-622.117 192.374,-608.684"/>
</g>
<!-- 2492637080784 -->
<g id="node8" class="node"><title>2492637080784</title>
<ellipse fill="none" stroke="black" cx="305.811" cy="-594" rx="27" ry="18"/>
<text text-anchor="middle" x="305.811" y="-590.5" font-family="Times New Roman,serif" font-size="15.00">xor</text>
</g>
<!-- 2492454963520&#45;&#45;2492637080784 -->
<g id="edge16" class="edge"><title>2492454963520&#45;&#45;2492637080784</title>
<path fill="none" stroke="black" d="M305.811,-647.697C305.811,-636.846 305.811,-622.917 305.811,-612.104"/>
</g>
<!-- 2492637080736 -->
<g id="node6" class="node"><title>2492637080736</title>
<ellipse fill="black" stroke="black" cx="97.8111" cy="-522" rx="2.7" ry="2.7"/>
</g>
<!-- 2492637080592&#45;&#45;2492637080736 -->
<g id="edge2" class="edge"><title>2492637080592&#45;&#45;2492637080736</title>
<path fill="none" stroke="black" d="M149.272,-576.765C131.953,-558.671 105.542,-531.078 99.2104,-524.462"/>
</g>
<!-- 2492637080832 -->
<g id="node7" class="node"><title>2492637080832</title>
<ellipse fill="none" stroke="black" cx="164.811" cy="-522" rx="45.7249" ry="18"/>
<text text-anchor="middle" x="164.811" y="-518.5" font-family="Times New Roman,serif" font-size="15.00">Payment</text>
</g>
<!-- 2492637080592&#45;&#45;2492637080832 -->
<g id="edge3" class="edge"><title>2492637080592&#45;&#45;2492637080832</title>
<path fill="none" stroke="black" d="M164.811,-575.697C164.811,-564.846 164.811,-550.917 164.811,-540.104"/>
</g>
<!-- 2492637081024 -->
<g id="node9" class="node"><title>2492637081024</title>
<ellipse fill="black" stroke="black" cx="231.811" cy="-522" rx="2.7" ry="2.7"/>
</g>
<!-- 2492637080784&#45;&#45;2492637081024 -->
<g id="edge5" class="edge"><title>2492637080784&#45;&#45;2492637081024</title>
<path fill="none" stroke="black" d="M290.836,-578.834C271.916,-560.937 240.915,-531.612 233.46,-524.56"/>
</g>
<!-- 2492637081120 -->
<g id="node10" class="node"><title>2492637081120</title>
<ellipse fill="none" stroke="black" cx="305.811" cy="-522" rx="52.6228" ry="18"/>
<text text-anchor="middle" x="305.811" y="-518.5" font-family="Times New Roman,serif" font-size="15.00">Send Fine</text>
</g>
<!-- 2492637080784&#45;&#45;2492637081120 -->
<g id="edge6" class="edge"><title>2492637080784&#45;&#45;2492637081120</title>
<path fill="none" stroke="black" d="M305.811,-575.697C305.811,-564.846 305.811,-550.917 305.811,-540.104"/>
</g>
<!-- 2492637081216 -->
<g id="node11" class="node"><title>2492637081216</title>
<ellipse fill="none" stroke="black" cx="403.811" cy="-522" rx="27" ry="18"/>
<text text-anchor="middle" x="403.811" y="-518.5" font-family="Times New Roman,serif" font-size="15.00">seq</text>
</g>
<!-- 2492637080784&#45;&#45;2492637081216 -->
<g id="edge15" class="edge"><title>2492637080784&#45;&#45;2492637081216</title>
<path fill="none" stroke="black" d="M323.786,-580.161C341.468,-567.531 368.307,-548.36 385.95,-535.758"/>
</g>
<!-- 2492637081552 -->
<g id="node12" class="node"><title>2492637081552</title>
<ellipse fill="none" stroke="black" cx="52.8111" cy="-450" rx="52.6228" ry="18"/>
<text text-anchor="middle" x="52.8111" y="-446.5" font-family="Times New Roman,serif" font-size="15.00">Send Fine</text>
</g>
<!-- 2492637081216&#45;&#45;2492637081552 -->
<g id="edge7" class="edge"><title>2492637081216&#45;&#45;2492637081552</title>
<path fill="none" stroke="black" d="M378.285,-515.909C319.048,-504.096 171.636,-474.697 97.2456,-459.862"/>
</g>
<!-- 2492622556608 -->
<g id="node13" class="node"><title>2492622556608</title>
<ellipse fill="none" stroke="black" cx="231.811" cy="-450" rx="107.914" ry="18"/>
<text text-anchor="middle" x="231.811" y="-446.5" font-family="Times New Roman,serif" font-size="15.00">Insert Fine Notification</text>
</g>
<!-- 2492637081216&#45;&#45;2492622556608 -->
<g id="edge8" class="edge"><title>2492637081216&#45;&#45;2492622556608</title>
<path fill="none" stroke="black" d="M381.325,-511.849C353.279,-500.434 304.87,-480.733 270.746,-466.846"/>
</g>
<!-- 2492622556320 -->
<g id="node14" class="node"><title>2492622556320</title>
<ellipse fill="none" stroke="black" cx="403.811" cy="-450" rx="46.6143" ry="18"/>
<text text-anchor="middle" x="403.811" y="-446.5" font-family="Times New Roman,serif" font-size="15.00">xor loop</text>
</g>
<!-- 2492637081216&#45;&#45;2492622556320 -->
<g id="edge11" class="edge"><title>2492637081216&#45;&#45;2492622556320</title>
<path fill="none" stroke="black" d="M403.811,-503.697C403.811,-492.846 403.811,-478.917 403.811,-468.104"/>
</g>
<!-- 2492622553344 -->
<g id="node17" class="node"><title>2492622553344</title>
<ellipse fill="none" stroke="black" cx="514.811" cy="-450" rx="46.6143" ry="18"/>
<text text-anchor="middle" x="514.811" y="-446.5" font-family="Times New Roman,serif" font-size="15.00">xor loop</text>
</g>
<!-- 2492637081216&#45;&#45;2492622553344 -->
<g id="edge14" class="edge"><title>2492637081216&#45;&#45;2492622553344</title>
<path fill="none" stroke="black" d="M422.893,-508.967C441.86,-497.005 470.988,-478.636 491.357,-465.791"/>
</g>
<!-- 2492622554016 -->
<g id="node15" class="node"><title>2492622554016</title>
<ellipse fill="black" stroke="black" cx="327.811" cy="-378" rx="2.7" ry="2.7"/>
</g>
<!-- 2492622556320&#45;&#45;2492622554016 -->
<g id="edge9" class="edge"><title>2492622556320&#45;&#45;2492622554016</title>
<path fill="none" stroke="black" d="M386.565,-433.116C366.945,-415.045 336.677,-387.166 329.416,-380.478"/>
</g>
<!-- 2492622556896 -->
<g id="node16" class="node"><title>2492622556896</title>
<ellipse fill="none" stroke="black" cx="410.811" cy="-378" rx="61.6894" ry="18"/>
<text text-anchor="middle" x="410.811" y="-374.5" font-family="Times New Roman,serif" font-size="15.00">Add penalty</text>
</g>
<!-- 2492622556320&#45;&#45;2492622556896 -->
<g id="edge10" class="edge"><title>2492622556320&#45;&#45;2492622556896</title>
<path fill="none" stroke="black" d="M405.541,-431.697C406.626,-420.846 408.019,-406.917 409.101,-396.104"/>
</g>
<!-- 2492622556800 -->
<g id="node18" class="node"><title>2492622556800</title>
<ellipse fill="black" stroke="black" cx="507.811" cy="-378" rx="2.7" ry="2.7"/>
</g>
<!-- 2492622553344&#45;&#45;2492622556800 -->
<g id="edge12" class="edge"><title>2492622553344&#45;&#45;2492622556800</title>
<path fill="none" stroke="black" d="M513.081,-431.697C511.299,-413.883 508.688,-387.769 507.989,-380.776"/>
</g>
<!-- 2492622555648 -->
<g id="node19" class="node"><title>2492622555648</title>
<ellipse fill="none" stroke="black" cx="606.811" cy="-378" rx="78.5434" ry="18"/>
<text text-anchor="middle" x="606.811" y="-374.5" font-family="Times New Roman,serif" font-size="15.00">Appeal to Judge</text>
</g>
<!-- 2492622553344&#45;&#45;2492622555648 -->
<g id="edge13" class="edge"><title>2492622553344&#45;&#45;2492622555648</title>
<path fill="none" stroke="black" d="M535.229,-433.465C550.051,-422.187 570.07,-406.955 585.168,-395.467"/>
</g>
<!-- 2492454739776 -->
<g id="node21" class="node"><title>2492454739776</title>
<ellipse fill="none" stroke="black" cx="1011.81" cy="-666" rx="27" ry="18"/>
<text text-anchor="middle" x="1011.81" y="-662.5" font-family="Times New Roman,serif" font-size="15.00">xor</text>
</g>
<!-- 2492454736320&#45;&#45;2492454739776 -->
<g id="edge33" class="edge"><title>2492454736320&#45;&#45;2492454739776</title>
<path fill="none" stroke="black" d="M1082.84,-723.503C1067.16,-711.028 1044,-692.603 1028.43,-680.218"/>
</g>
<!-- 2492454736560 -->
<g id="node36" class="node"><title>2492454736560</title>
<ellipse fill="none" stroke="black" cx="1187.81" cy="-666" rx="27" ry="18"/>
<text text-anchor="middle" x="1187.81" y="-662.5" font-family="Times New Roman,serif" font-size="15.00">xor</text>
</g>
<!-- 2492454736320&#45;&#45;2492454736560 -->
<g id="edge55" class="edge"><title>2492454736320&#45;&#45;2492454736560</title>
<path fill="none" stroke="black" d="M1116.78,-723.503C1132.46,-711.028 1155.62,-692.603 1171.19,-680.218"/>
</g>
<!-- 2492454737472 -->
<g id="node58" class="node"><title>2492454737472</title>
<ellipse fill="none" stroke="black" cx="1704.81" cy="-666" rx="27" ry="18"/>
<text text-anchor="middle" x="1704.81" y="-662.5" font-family="Times New Roman,serif" font-size="15.00">seq</text>
</g>
<!-- 2492454736320&#45;&#45;2492454737472 -->
<g id="edge97" class="edge"><title>2492454736320&#45;&#45;2492454737472</title>
<path fill="none" stroke="black" d="M1126.2,-733.947C1225.81,-722.421 1578.44,-681.622 1678.29,-670.069"/>
</g>
<!-- 2492618470208 -->
<g id="node22" class="node"><title>2492618470208</title>
<ellipse fill="black" stroke="black" cx="963.811" cy="-594" rx="2.7" ry="2.7"/>
</g>
<!-- 2492454739776&#45;&#45;2492618470208 -->
<g id="edge19" class="edge"><title>2492454739776&#45;&#45;2492618470208</title>
<path fill="none" stroke="black" d="M1000.92,-649.116C988.749,-631.367 970.091,-604.158 965.084,-596.857"/>
</g>
<!-- 2492618470112 -->
<g id="node23" class="node"><title>2492618470112</title>
<ellipse fill="none" stroke="black" cx="1011.81" cy="-594" rx="27" ry="18"/>
<text text-anchor="middle" x="1011.81" y="-590.5" font-family="Times New Roman,serif" font-size="15.00">seq</text>
</g>
<!-- 2492454739776&#45;&#45;2492618470112 -->
<g id="edge32" class="edge"><title>2492454739776&#45;&#45;2492618470112</title>
<path fill="none" stroke="black" d="M1011.81,-647.697C1011.81,-636.846 1011.81,-622.917 1011.81,-612.104"/>
</g>
<!-- 2492454962176 -->
<g id="node24" class="node"><title>2492454962176</title>
<ellipse fill="none" stroke="black" cx="581.811" cy="-522" rx="27" ry="18"/>
<text text-anchor="middle" x="581.811" y="-518.5" font-family="Times New Roman,serif" font-size="15.00">xor</text>
</g>
<!-- 2492618470112&#45;&#45;2492454962176 -->
<g id="edge22" class="edge"><title>2492618470112&#45;&#45;2492454962176</title>
<path fill="none" stroke="black" d="M985.881,-588.779C909.256,-576.305 684.443,-539.708 607.775,-527.227"/>
</g>
<!-- 2492618471216 -->
<g id="node27" class="node"><title>2492618471216</title>
<ellipse fill="none" stroke="black" cx="679.811" cy="-522" rx="52.6228" ry="18"/>
<text text-anchor="middle" x="679.811" y="-518.5" font-family="Times New Roman,serif" font-size="15.00">Send Fine</text>
</g>
<!-- 2492618470112&#45;&#45;2492618471216 -->
<g id="edge23" class="edge"><title>2492618470112&#45;&#45;2492618471216</title>
<path fill="none" stroke="black" d="M986.311,-587.623C929.902,-575.73 793.988,-547.073 723.642,-532.241"/>
</g>
<!-- 2492618473184 -->
<g id="node28" class="node"><title>2492618473184</title>
<ellipse fill="none" stroke="black" cx="858.811" cy="-522" rx="107.914" ry="18"/>
<text text-anchor="middle" x="858.811" y="-518.5" font-family="Times New Roman,serif" font-size="15.00">Insert Fine Notification</text>
</g>
<!-- 2492618470112&#45;&#45;2492618473184 -->
<g id="edge24" class="edge"><title>2492618470112&#45;&#45;2492618473184</title>
<path fill="none" stroke="black" d="M990.214,-583.119C965.173,-571.662 923.544,-552.616 893.852,-539.032"/>
</g>
<!-- 2492637079680 -->
<g id="node29" class="node"><title>2492637079680</title>
<ellipse fill="none" stroke="black" cx="1011.81" cy="-522" rx="27" ry="18"/>
<text text-anchor="middle" x="1011.81" y="-518.5" font-family="Times New Roman,serif" font-size="15.00">xor</text>
</g>
<!-- 2492618470112&#45;&#45;2492637079680 -->
<g id="edge27" class="edge"><title>2492618470112&#45;&#45;2492637079680</title>
<path fill="none" stroke="black" d="M1011.81,-575.697C1011.81,-564.846 1011.81,-550.917 1011.81,-540.104"/>
</g>
<!-- 2492637079824 -->
<g id="node32" class="node"><title>2492637079824</title>
<ellipse fill="none" stroke="black" cx="1118.81" cy="-522" rx="61.6894" ry="18"/>
<text text-anchor="middle" x="1118.81" y="-518.5" font-family="Times New Roman,serif" font-size="15.00">Add penalty</text>
</g>
<!-- 2492618470112&#45;&#45;2492637079824 -->
<g id="edge28" class="edge"><title>2492618470112&#45;&#45;2492637079824</title>
<path fill="none" stroke="black" d="M1030.45,-580.807C1048.29,-569.134 1075.3,-551.466 1094.76,-538.737"/>
</g>
<!-- 2492637079920 -->
<g id="node33" class="node"><title>2492637079920</title>
<ellipse fill="none" stroke="black" cx="1225.81" cy="-522" rx="27" ry="18"/>
<text text-anchor="middle" x="1225.81" y="-518.5" font-family="Times New Roman,serif" font-size="15.00">xor</text>
</g>
<!-- 2492618470112&#45;&#45;2492637079920 -->
<g id="edge31" class="edge"><title>2492618470112&#45;&#45;2492637079920</title>
<path fill="none" stroke="black" d="M1035.53,-585.241C1076.67,-571.786 1160.78,-544.273 1201.99,-530.793"/>
</g>
<!-- 2492454964768 -->
<g id="node25" class="node"><title>2492454964768</title>
<ellipse fill="black" stroke="black" cx="581.811" cy="-450" rx="2.7" ry="2.7"/>
</g>
<!-- 2492454962176&#45;&#45;2492454964768 -->
<g id="edge20" class="edge"><title>2492454962176&#45;&#45;2492454964768</title>
<path fill="none" stroke="black" d="M581.811,-503.697C581.811,-485.883 581.811,-459.769 581.811,-452.776"/>
</g>
<!-- 2492637079632 -->
<g id="node26" class="node"><title>2492637079632</title>
<ellipse fill="none" stroke="black" cx="661.811" cy="-450" rx="59.5207" ry="18"/>
<text text-anchor="middle" x="661.811" y="-446.5" font-family="Times New Roman,serif" font-size="15.00">Create Fine</text>
</g>
<!-- 2492454962176&#45;&#45;2492637079632 -->
<g id="edge21" class="edge"><title>2492454962176&#45;&#45;2492637079632</title>
<path fill="none" stroke="black" d="M597.616,-507.17C610.731,-495.695 629.403,-479.357 643.231,-467.257"/>
</g>
<!-- 2492637080016 -->
<g id="node30" class="node"><title>2492637080016</title>
<ellipse fill="black" stroke="black" cx="925.811" cy="-450" rx="2.7" ry="2.7"/>
</g>
<!-- 2492637079680&#45;&#45;2492637080016 -->
<g id="edge25" class="edge"><title>2492637079680&#45;&#45;2492637080016</title>
<path fill="none" stroke="black" d="M995.229,-507.503C973.363,-489.705 936.614,-459.793 927.769,-452.594"/>
</g>
<!-- 2492637080112 -->
<g id="node31" class="node"><title>2492637080112</title>
<ellipse fill="none" stroke="black" cx="1024.81" cy="-450" rx="78.5434" ry="18"/>
<text text-anchor="middle" x="1024.81" y="-446.5" font-family="Times New Roman,serif" font-size="15.00">Appeal to Judge</text>
</g>
<!-- 2492637079680&#45;&#45;2492637080112 -->
<g id="edge26" class="edge"><title>2492637079680&#45;&#45;2492637080112</title>
<path fill="none" stroke="black" d="M1014.96,-504.055C1016.97,-493.211 1019.58,-479.183 1021.6,-468.275"/>
</g>
<!-- 2492637080400 -->
<g id="node34" class="node"><title>2492637080400</title>
<ellipse fill="black" stroke="black" cx="1147.81" cy="-450" rx="2.7" ry="2.7"/>
</g>
<!-- 2492637079920&#45;&#45;2492637080400 -->
<g id="edge29" class="edge"><title>2492637079920&#45;&#45;2492637080400</title>
<path fill="none" stroke="black" d="M1210.4,-507.17C1190.51,-489.32 1157.51,-459.702 1149.57,-452.577"/>
</g>
<!-- 2492637080496 -->
<g id="node35" class="node"><title>2492637080496</title>
<ellipse fill="none" stroke="black" cx="1214.81" cy="-450" rx="45.7249" ry="18"/>
<text text-anchor="middle" x="1214.81" y="-446.5" font-family="Times New Roman,serif" font-size="15.00">Payment</text>
</g>
<!-- 2492637079920&#45;&#45;2492637080496 -->
<g id="edge30" class="edge"><title>2492637079920&#45;&#45;2492637080496</title>
<path fill="none" stroke="black" d="M1223.15,-504.055C1221.44,-493.211 1219.24,-479.183 1217.53,-468.275"/>
</g>
<!-- 2492454739872 -->
<g id="node37" class="node"><title>2492454739872</title>
<ellipse fill="black" stroke="black" cx="1187.81" cy="-594" rx="2.7" ry="2.7"/>
</g>
<!-- 2492454736560&#45;&#45;2492454739872 -->
<g id="edge34" class="edge"><title>2492454736560&#45;&#45;2492454739872</title>
<path fill="none" stroke="black" d="M1187.81,-647.697C1187.81,-629.883 1187.81,-603.769 1187.81,-596.776"/>
</g>
<!-- 2492454735936 -->
<g id="node38" class="node"><title>2492454735936</title>
<ellipse fill="none" stroke="black" cx="1338.81" cy="-594" rx="27" ry="18"/>
<text text-anchor="middle" x="1338.81" y="-590.5" font-family="Times New Roman,serif" font-size="15.00">and</text>
</g>
<!-- 2492454736560&#45;&#45;2492454735936 -->
<g id="edge54" class="edge"><title>2492454736560&#45;&#45;2492454735936</title>
<path fill="none" stroke="black" d="M1209.45,-654.971C1238.15,-641.664 1288.53,-618.308 1317.22,-605.011"/>
</g>
<!-- 2492454737280 -->
<g id="node39" class="node"><title>2492454737280</title>
<ellipse fill="none" stroke="black" cx="1338.81" cy="-522" rx="46.6143" ry="18"/>
<text text-anchor="middle" x="1338.81" y="-518.5" font-family="Times New Roman,serif" font-size="15.00">xor loop</text>
</g>
<!-- 2492454735936&#45;&#45;2492454737280 -->
<g id="edge37" class="edge"><title>2492454735936&#45;&#45;2492454737280</title>
<path fill="none" stroke="black" d="M1338.81,-575.697C1338.81,-564.846 1338.81,-550.917 1338.81,-540.104"/>
</g>
<!-- 2492454736032 -->
<g id="node42" class="node"><title>2492454736032</title>
<ellipse fill="none" stroke="black" cx="1452.81" cy="-522" rx="27" ry="18"/>
<text text-anchor="middle" x="1452.81" y="-518.5" font-family="Times New Roman,serif" font-size="15.00">xor</text>
</g>
<!-- 2492454735936&#45;&#45;2492454736032 -->
<g id="edge53" class="edge"><title>2492454735936&#45;&#45;2492454736032</title>
<path fill="none" stroke="black" d="M1358.15,-581.125C1379.11,-568.253 1412.38,-547.828 1433.38,-534.933"/>
</g>
<!-- 2492454737328 -->
<g id="node40" class="node"><title>2492454737328</title>
<ellipse fill="black" stroke="black" cx="1281.81" cy="-450" rx="2.7" ry="2.7"/>
</g>
<!-- 2492454737280&#45;&#45;2492454737328 -->
<g id="edge35" class="edge"><title>2492454737280&#45;&#45;2492454737328</title>
<path fill="none" stroke="black" d="M1325.3,-504.411C1310.55,-486.299 1288.32,-458.99 1282.99,-452.446"/>
</g>
<!-- 2492454738384 -->
<g id="node41" class="node"><title>2492454738384</title>
<ellipse fill="none" stroke="black" cx="1348.81" cy="-450" rx="45.7249" ry="18"/>
<text text-anchor="middle" x="1348.81" y="-446.5" font-family="Times New Roman,serif" font-size="15.00">Payment</text>
</g>
<!-- 2492454737280&#45;&#45;2492454738384 -->
<g id="edge36" class="edge"><title>2492454737280&#45;&#45;2492454738384</title>
<path fill="none" stroke="black" d="M1341.28,-503.697C1342.83,-492.846 1344.82,-478.917 1346.37,-468.104"/>
</g>
<!-- 2492454736368 -->
<g id="node43" class="node"><title>2492454736368</title>
<ellipse fill="black" stroke="black" cx="1415.81" cy="-450" rx="2.7" ry="2.7"/>
</g>
<!-- 2492454736032&#45;&#45;2492454736368 -->
<g id="edge38" class="edge"><title>2492454736032&#45;&#45;2492454736368</title>
<path fill="none" stroke="black" d="M1444.23,-504.765C1434.84,-486.994 1420.6,-460.06 1416.78,-452.836"/>
</g>
<!-- 2492454739488 -->
<g id="node44" class="node"><title>2492454739488</title>
<ellipse fill="none" stroke="black" cx="1463.81" cy="-450" rx="27" ry="18"/>
<text text-anchor="middle" x="1463.81" y="-446.5" font-family="Times New Roman,serif" font-size="15.00">seq</text>
</g>
<!-- 2492454736032&#45;&#45;2492454739488 -->
<g id="edge43" class="edge"><title>2492454736032&#45;&#45;2492454739488</title>
<path fill="none" stroke="black" d="M1455.47,-504.055C1457.18,-493.211 1459.38,-479.183 1461.1,-468.275"/>
</g>
<!-- 2492454737184 -->
<g id="node49" class="node"><title>2492454737184</title>
<ellipse fill="none" stroke="black" cx="1637.81" cy="-450" rx="27" ry="18"/>
<text text-anchor="middle" x="1637.81" y="-446.5" font-family="Times New Roman,serif" font-size="15.00">seq</text>
</g>
<!-- 2492454736032&#45;&#45;2492454737184 -->
<g id="edge52" class="edge"><title>2492454736032&#45;&#45;2492454737184</title>
<path fill="none" stroke="black" d="M1475.87,-512.276C1511.42,-498.825 1579.21,-473.174 1614.76,-459.724"/>
</g>
<!-- 2492618471456 -->
<g id="node45" class="node"><title>2492618471456</title>
<ellipse fill="none" stroke="black" cx="1262.81" cy="-378" rx="52.6228" ry="18"/>
<text text-anchor="middle" x="1262.81" y="-374.5" font-family="Times New Roman,serif" font-size="15.00">Send Fine</text>
</g>
<!-- 2492454739488&#45;&#45;2492618471456 -->
<g id="edge39" class="edge"><title>2492454739488&#45;&#45;2492618471456</title>
<path fill="none" stroke="black" d="M1440.36,-440.833C1405.36,-428.643 1339.19,-405.601 1298.26,-391.347"/>
</g>
<!-- 2492618469632 -->
<g id="node46" class="node"><title>2492618469632</title>
<ellipse fill="none" stroke="black" cx="1360.81" cy="-378" rx="27" ry="18"/>
<text text-anchor="middle" x="1360.81" y="-374.5" font-family="Times New Roman,serif" font-size="15.00">xor</text>
</g>
<!-- 2492454739488&#45;&#45;2492618469632 -->
<g id="edge42" class="edge"><title>2492454739488&#45;&#45;2492618469632</title>
<path fill="none" stroke="black" d="M1445.4,-436.485C1426.65,-423.744 1397.76,-404.108 1379.07,-391.406"/>
</g>
<!-- 2492618472656 -->
<g id="node47" class="node"><title>2492618472656</title>
<ellipse fill="black" stroke="black" cx="1310.81" cy="-306" rx="2.7" ry="2.7"/>
</g>
<!-- 2492618469632&#45;&#45;2492618472656 -->
<g id="edge40" class="edge"><title>2492618469632&#45;&#45;2492618472656</title>
<path fill="none" stroke="black" d="M1349.71,-361.465C1336.83,-343.42 1316.71,-315.254 1311.88,-308.494"/>
</g>
<!-- 2492618471744 -->
<g id="node48" class="node"><title>2492618471744</title>
<ellipse fill="none" stroke="black" cx="1409.81" cy="-306" rx="78.5434" ry="18"/>
<text text-anchor="middle" x="1409.81" y="-302.5" font-family="Times New Roman,serif" font-size="15.00">Appeal to Judge</text>
</g>
<!-- 2492618469632&#45;&#45;2492618471744 -->
<g id="edge41" class="edge"><title>2492618469632&#45;&#45;2492618471744</title>
<path fill="none" stroke="black" d="M1371.69,-361.465C1379.47,-350.348 1389.94,-335.39 1397.94,-323.962"/>
</g>
<!-- 2492618472320 -->
<g id="node50" class="node"><title>2492618472320</title>
<ellipse fill="none" stroke="black" cx="1458.81" cy="-378" rx="52.6228" ry="18"/>
<text text-anchor="middle" x="1458.81" y="-374.5" font-family="Times New Roman,serif" font-size="15.00">Send Fine</text>
</g>
<!-- 2492454737184&#45;&#45;2492618472320 -->
<g id="edge44" class="edge"><title>2492454737184&#45;&#45;2492618472320</title>
<path fill="none" stroke="black" d="M1615.14,-440.134C1584.1,-427.994 1528.13,-406.107 1492.26,-392.081"/>
</g>
<!-- 2492618469488 -->
<g id="node51" class="node"><title>2492618469488</title>
<ellipse fill="none" stroke="black" cx="1637.81" cy="-378" rx="107.914" ry="18"/>
<text text-anchor="middle" x="1637.81" y="-374.5" font-family="Times New Roman,serif" font-size="15.00">Insert Fine Notification</text>
</g>
<!-- 2492454737184&#45;&#45;2492618469488 -->
<g id="edge45" class="edge"><title>2492454737184&#45;&#45;2492618469488</title>
<path fill="none" stroke="black" d="M1637.81,-431.697C1637.81,-420.846 1637.81,-406.917 1637.81,-396.104"/>
</g>
<!-- 2492618469584 -->
<g id="node52" class="node"><title>2492618469584</title>
<ellipse fill="none" stroke="black" cx="1809.81" cy="-378" rx="46.6143" ry="18"/>
<text text-anchor="middle" x="1809.81" y="-374.5" font-family="Times New Roman,serif" font-size="15.00">xor loop</text>
</g>
<!-- 2492454737184&#45;&#45;2492618469584 -->
<g id="edge48" class="edge"><title>2492454737184&#45;&#45;2492618469584</title>
<path fill="none" stroke="black" d="M1660.3,-439.849C1690.62,-427.508 1744.75,-405.48 1778.88,-391.587"/>
</g>
<!-- 2492618471264 -->
<g id="node55" class="node"><title>2492618471264</title>
<ellipse fill="none" stroke="black" cx="1920.81" cy="-378" rx="46.6143" ry="18"/>
<text text-anchor="middle" x="1920.81" y="-374.5" font-family="Times New Roman,serif" font-size="15.00">xor loop</text>
</g>
<!-- 2492454737184&#45;&#45;2492618471264 -->
<g id="edge51" class="edge"><title>2492454737184&#45;&#45;2492618471264</title>
<path fill="none" stroke="black" d="M1662.93,-442.788C1712.57,-430.508 1823.55,-403.058 1882.42,-388.496"/>
</g>
<!-- 2492618472560 -->
<g id="node53" class="node"><title>2492618472560</title>
<ellipse fill="black" stroke="black" cx="1726.81" cy="-306" rx="2.7" ry="2.7"/>
</g>
<!-- 2492618469584&#45;&#45;2492618472560 -->
<g id="edge46" class="edge"><title>2492618469584&#45;&#45;2492618472560</title>
<path fill="none" stroke="black" d="M1791.39,-361.465C1769.99,-343.42 1736.6,-315.254 1728.58,-308.494"/>
</g>
<!-- 2492618470592 -->
<g id="node54" class="node"><title>2492618470592</title>
<ellipse fill="none" stroke="black" cx="1809.81" cy="-306" rx="61.6894" ry="18"/>
<text text-anchor="middle" x="1809.81" y="-302.5" font-family="Times New Roman,serif" font-size="15.00">Add penalty</text>
</g>
<!-- 2492618469584&#45;&#45;2492618470592 -->
<g id="edge47" class="edge"><title>2492618469584&#45;&#45;2492618470592</title>
<path fill="none" stroke="black" d="M1809.81,-359.697C1809.81,-348.846 1809.81,-334.917 1809.81,-324.104"/>
</g>
<!-- 2492618470736 -->
<g id="node56" class="node"><title>2492618470736</title>
<ellipse fill="black" stroke="black" cx="1892.81" cy="-306" rx="2.7" ry="2.7"/>
</g>
<!-- 2492618471264&#45;&#45;2492618470736 -->
<g id="edge49" class="edge"><title>2492618471264&#45;&#45;2492618470736</title>
<path fill="none" stroke="black" d="M1914.03,-360.055C1906.91,-342.252 1896.36,-315.865 1893.53,-308.796"/>
</g>
<!-- 2492618469824 -->
<g id="node57" class="node"><title>2492618469824</title>
<ellipse fill="none" stroke="black" cx="1991.81" cy="-306" rx="78.5434" ry="18"/>
<text text-anchor="middle" x="1991.81" y="-302.5" font-family="Times New Roman,serif" font-size="15.00">Appeal to Judge</text>
</g>
<!-- 2492618471264&#45;&#45;2492618469824 -->
<g id="edge50" class="edge"><title>2492618471264&#45;&#45;2492618469824</title>
<path fill="none" stroke="black" d="M1937.28,-360.765C1948.58,-349.618 1963.55,-334.865 1974.94,-323.633"/>
</g>
<!-- 2492454738144 -->
<g id="node59" class="node"><title>2492454738144</title>
<ellipse fill="none" stroke="black" cx="1704.81" cy="-594" rx="59.5207" ry="18"/>
<text text-anchor="middle" x="1704.81" y="-590.5" font-family="Times New Roman,serif" font-size="15.00">Create Fine</text>
</g>
<!-- 2492454737472&#45;&#45;2492454738144 -->
<g id="edge56" class="edge"><title>2492454737472&#45;&#45;2492454738144</title>
<path fill="none" stroke="black" d="M1704.81,-647.697C1704.81,-636.846 1704.81,-622.917 1704.81,-612.104"/>
</g>
<!-- 2492454736224 -->
<g id="node60" class="node"><title>2492454736224</title>
<ellipse fill="none" stroke="black" cx="1940.81" cy="-594" rx="27" ry="18"/>
<text text-anchor="middle" x="1940.81" y="-590.5" font-family="Times New Roman,serif" font-size="15.00">xor</text>
</g>
<!-- 2492454737472&#45;&#45;2492454736224 -->
<g id="edge96" class="edge"><title>2492454737472&#45;&#45;2492454736224</title>
<path fill="none" stroke="black" d="M1729.18,-657.772C1774.52,-644.324 1871.34,-615.607 1916.58,-602.188"/>
</g>
<!-- 2492618472512 -->
<g id="node61" class="node"><title>2492618472512</title>
<ellipse fill="black" stroke="black" cx="1940.81" cy="-522" rx="2.7" ry="2.7"/>
</g>
<!-- 2492454736224&#45;&#45;2492618472512 -->
<g id="edge57" class="edge"><title>2492454736224&#45;&#45;2492618472512</title>
<path fill="none" stroke="black" d="M1940.81,-575.697C1940.81,-557.883 1940.81,-531.769 1940.81,-524.776"/>
</g>
<!-- 2492618470928 -->
<g id="node62" class="node"><title>2492618470928</title>
<ellipse fill="none" stroke="black" cx="2105.81" cy="-522" rx="27" ry="18"/>
<text text-anchor="middle" x="2105.81" y="-518.5" font-family="Times New Roman,serif" font-size="15.00">seq</text>
</g>
<!-- 2492454736224&#45;&#45;2492618470928 -->
<g id="edge95" class="edge"><title>2492454736224&#45;&#45;2492618470928</title>
<path fill="none" stroke="black" d="M1963.06,-583.559C1994.64,-570.162 2052.12,-545.779 2083.65,-532.402"/>
</g>
<!-- 2492618472896 -->
<g id="node63" class="node"><title>2492618472896</title>
<ellipse fill="none" stroke="black" cx="2105.81" cy="-450" rx="27" ry="18"/>
<text text-anchor="middle" x="2105.81" y="-446.5" font-family="Times New Roman,serif" font-size="15.00">xor</text>
</g>
<!-- 2492618470928&#45;&#45;2492618472896 -->
<g id="edge87" class="edge"><title>2492618470928&#45;&#45;2492618472896</title>
<path fill="none" stroke="black" d="M2105.81,-503.697C2105.81,-492.846 2105.81,-478.917 2105.81,-468.104"/>
</g>
<!-- 2492618470160 -->
<g id="node93" class="node"><title>2492618470160</title>
<ellipse fill="none" stroke="black" cx="2308.81" cy="-450" rx="27" ry="18"/>
<text text-anchor="middle" x="2308.81" y="-446.5" font-family="Times New Roman,serif" font-size="15.00">xor</text>
</g>
<!-- 2492618470928&#45;&#45;2492618470160 -->
<g id="edge94" class="edge"><title>2492618470928&#45;&#45;2492618470160</title>
<path fill="none" stroke="black" d="M2129.5,-512.833C2168.61,-499.345 2246.26,-472.569 2285.28,-459.115"/>
</g>
<!-- 2492618470400 -->
<g id="node64" class="node"><title>2492618470400</title>
<ellipse fill="black" stroke="black" cx="2072.81" cy="-378" rx="2.7" ry="2.7"/>
</g>
<!-- 2492618472896&#45;&#45;2492618470400 -->
<g id="edge58" class="edge"><title>2492618472896&#45;&#45;2492618470400</title>
<path fill="none" stroke="black" d="M2097.99,-432.411C2089.6,-414.622 2077.04,-387.962 2073.67,-380.816"/>
</g>
<!-- 2492618470304 -->
<g id="node65" class="node"><title>2492618470304</title>
<ellipse fill="none" stroke="black" cx="2139.81" cy="-378" rx="46.6143" ry="18"/>
<text text-anchor="middle" x="2139.81" y="-374.5" font-family="Times New Roman,serif" font-size="15.00">xor loop</text>
</g>
<!-- 2492618472896&#45;&#45;2492618470304 -->
<g id="edge86" class="edge"><title>2492618472896&#45;&#45;2492618470304</title>
<path fill="none" stroke="black" d="M2113.7,-432.765C2119.03,-421.779 2126.07,-407.292 2131.49,-396.124"/>
</g>
<!-- 2492618471792 -->
<g id="node66" class="node"><title>2492618471792</title>
<ellipse fill="none" stroke="black" cx="2115.81" cy="-306" rx="27" ry="18"/>
<text text-anchor="middle" x="2115.81" y="-302.5" font-family="Times New Roman,serif" font-size="15.00">seq</text>
</g>
<!-- 2492618470304&#45;&#45;2492618471792 -->
<g id="edge84" class="edge"><title>2492618470304&#45;&#45;2492618471792</title>
<path fill="none" stroke="black" d="M2134,-360.055C2130.23,-349.049 2125.33,-334.764 2121.57,-323.789"/>
</g>
<!-- 2492618471840 -->
<g id="node92" class="node"><title>2492618471840</title>
<ellipse fill="black" stroke="black" cx="2163.81" cy="-306" rx="2.7" ry="2.7"/>
</g>
<!-- 2492618470304&#45;&#45;2492618471840 -->
<g id="edge85" class="edge"><title>2492618470304&#45;&#45;2492618471840</title>
<path fill="none" stroke="black" d="M2145.62,-360.055C2151.72,-342.252 2160.77,-315.865 2163.2,-308.796"/>
</g>
<!-- 2492618472032 -->
<g id="node67" class="node"><title>2492618472032</title>
<ellipse fill="none" stroke="black" cx="1477.81" cy="-234" rx="27" ry="18"/>
<text text-anchor="middle" x="1477.81" y="-230.5" font-family="Times New Roman,serif" font-size="15.00">xor</text>
</g>
<!-- 2492618471792&#45;&#45;2492618472032 -->
<g id="edge61" class="edge"><title>2492618471792&#45;&#45;2492618472032</title>
<path fill="none" stroke="black" d="M2089.21,-302.081C1985.32,-290.683 1607.63,-249.244 1504.17,-237.892"/>
</g>
<!-- 2492618470640 -->
<g id="node70" class="node"><title>2492618470640</title>
<ellipse fill="none" stroke="black" cx="1679.81" cy="-234" rx="27" ry="18"/>
<text text-anchor="middle" x="1679.81" y="-230.5" font-family="Times New Roman,serif" font-size="15.00">xor</text>
</g>
<!-- 2492618471792&#45;&#45;2492618470640 -->
<g id="edge64" class="edge"><title>2492618471792&#45;&#45;2492618470640</title>
<path fill="none" stroke="black" d="M2089.84,-300.831C2012.39,-288.395 1783.55,-251.656 1705.92,-239.191"/>
</g>
<!-- 2492618472080 -->
<g id="node73" class="node"><title>2492618472080</title>
<ellipse fill="none" stroke="black" cx="1855.81" cy="-234" rx="27" ry="18"/>
<text text-anchor="middle" x="1855.81" y="-230.5" font-family="Times New Roman,serif" font-size="15.00">xor</text>
</g>
<!-- 2492618471792&#45;&#45;2492618472080 -->
<g id="edge71" class="edge"><title>2492618471792&#45;&#45;2492618472080</title>
<path fill="none" stroke="black" d="M2090.88,-298.288C2041.18,-284.908 1930.3,-255.055 1880.67,-241.692"/>
</g>
<!-- 2492618469536 -->
<g id="node80" class="node"><title>2492618469536</title>
<ellipse fill="none" stroke="black" cx="2044.81" cy="-234" rx="27" ry="18"/>
<text text-anchor="middle" x="2044.81" y="-230.5" font-family="Times New Roman,serif" font-size="15.00">xor</text>
</g>
<!-- 2492618471792&#45;&#45;2492618469536 -->
<g id="edge74" class="edge"><title>2492618471792&#45;&#45;2492618469536</title>
<path fill="none" stroke="black" d="M2101.1,-290.496C2088.91,-278.482 2071.68,-261.494 2059.5,-249.485"/>
</g>
<!-- 2492618471600 -->
<g id="node83" class="node"><title>2492618471600</title>
<ellipse fill="none" stroke="black" cx="2185.81" cy="-234" rx="27" ry="18"/>
<text text-anchor="middle" x="2185.81" y="-230.5" font-family="Times New Roman,serif" font-size="15.00">xor</text>
</g>
<!-- 2492618471792&#45;&#45;2492618471600 -->
<g id="edge77" class="edge"><title>2492618471792&#45;&#45;2492618471600</title>
<path fill="none" stroke="black" d="M2130.32,-290.496C2142.33,-278.482 2159.32,-261.494 2171.33,-249.485"/>
</g>
<!-- 2492618472272 -->
<g id="node86" class="node"><title>2492618472272</title>
<ellipse fill="none" stroke="black" cx="2573.81" cy="-234" rx="27" ry="18"/>
<text text-anchor="middle" x="2573.81" y="-230.5" font-family="Times New Roman,serif" font-size="15.00">xor</text>
</g>
<!-- 2492618471792&#45;&#45;2492618472272 -->
<g id="edge80" class="edge"><title>2492618471792&#45;&#45;2492618472272</title>
<path fill="none" stroke="black" d="M2142.08,-300.985C2222.86,-288.638 2467.01,-251.323 2547.65,-238.999"/>
</g>
<!-- 2492454961408 -->
<g id="node89" class="node"><title>2492454961408</title>
<ellipse fill="none" stroke="black" cx="2778.81" cy="-234" rx="27" ry="18"/>
<text text-anchor="middle" x="2778.81" y="-230.5" font-family="Times New Roman,serif" font-size="15.00">xor</text>
</g>
<!-- 2492618471792&#45;&#45;2492454961408 -->
<g id="edge83" class="edge"><title>2492618471792&#45;&#45;2492454961408</title>
<path fill="none" stroke="black" d="M2142.21,-302.213C2248.66,-290.974 2645.75,-249.049 2752.34,-237.795"/>
</g>
<!-- 2492618472224 -->
<g id="node68" class="node"><title>2492618472224</title>
<ellipse fill="black" stroke="black" cx="1403.81" cy="-162" rx="2.7" ry="2.7"/>
</g>
<!-- 2492618472032&#45;&#45;2492618472224 -->
<g id="edge59" class="edge"><title>2492618472032&#45;&#45;2492618472224</title>
<path fill="none" stroke="black" d="M1462.84,-218.834C1443.92,-200.937 1412.92,-171.612 1405.46,-164.56"/>
</g>
<!-- 2492618473424 -->
<g id="node69" class="node"><title>2492618473424</title>
<ellipse fill="none" stroke="black" cx="1477.81" cy="-162" rx="52.6228" ry="18"/>
<text text-anchor="middle" x="1477.81" y="-158.5" font-family="Times New Roman,serif" font-size="15.00">Send Fine</text>
</g>
<!-- 2492618472032&#45;&#45;2492618473424 -->
<g id="edge60" class="edge"><title>2492618472032&#45;&#45;2492618473424</title>
<path fill="none" stroke="black" d="M1477.81,-215.697C1477.81,-204.846 1477.81,-190.917 1477.81,-180.104"/>
</g>
<!-- 2492618472992 -->
<g id="node71" class="node"><title>2492618472992</title>
<ellipse fill="black" stroke="black" cx="1551.81" cy="-162" rx="2.7" ry="2.7"/>
</g>
<!-- 2492618470640&#45;&#45;2492618472992 -->
<g id="edge62" class="edge"><title>2492618470640&#45;&#45;2492618472992</title>
<path fill="none" stroke="black" d="M1659.53,-221.908C1627.1,-204.175 1565.99,-170.756 1553.92,-164.151"/>
</g>
<!-- 2492618472944 -->
<g id="node72" class="node"><title>2492618472944</title>
<ellipse fill="none" stroke="black" cx="1679.81" cy="-162" rx="107.914" ry="18"/>
<text text-anchor="middle" x="1679.81" y="-158.5" font-family="Times New Roman,serif" font-size="15.00">Insert Fine Notification</text>
</g>
<!-- 2492618470640&#45;&#45;2492618472944 -->
<g id="edge63" class="edge"><title>2492618470640&#45;&#45;2492618472944</title>
<path fill="none" stroke="black" d="M1679.81,-215.697C1679.81,-204.846 1679.81,-190.917 1679.81,-180.104"/>
</g>
<!-- 2492618473280 -->
<g id="node74" class="node"><title>2492618473280</title>
<ellipse fill="black" stroke="black" cx="1807.81" cy="-162" rx="2.7" ry="2.7"/>
</g>
<!-- 2492618472080&#45;&#45;2492618473280 -->
<g id="edge65" class="edge"><title>2492618472080&#45;&#45;2492618473280</title>
<path fill="none" stroke="black" d="M1844.92,-217.116C1832.75,-199.367 1814.09,-172.158 1809.08,-164.857"/>
</g>
<!-- 2492618473232 -->
<g id="node75" class="node"><title>2492618473232</title>
<ellipse fill="none" stroke="black" cx="1855.81" cy="-162" rx="27" ry="18"/>
<text text-anchor="middle" x="1855.81" y="-158.5" font-family="Times New Roman,serif" font-size="15.00">and</text>
</g>
<!-- 2492618472080&#45;&#45;2492618473232 -->
<g id="edge70" class="edge"><title>2492618472080&#45;&#45;2492618473232</title>
<path fill="none" stroke="black" d="M1855.81,-215.697C1855.81,-204.846 1855.81,-190.917 1855.81,-180.104"/>
</g>
<!-- 2492618469440 -->
<g id="node76" class="node"><title>2492618469440</title>
<ellipse fill="none" stroke="black" cx="1760.81" cy="-90" rx="27" ry="18"/>
<text text-anchor="middle" x="1760.81" y="-86.5" font-family="Times New Roman,serif" font-size="15.00">xor</text>
</g>
<!-- 2492618473232&#45;&#45;2492618469440 -->
<g id="edge68" class="edge"><title>2492618473232&#45;&#45;2492618469440</title>
<path fill="none" stroke="black" d="M1838.39,-148.161C1821.35,-135.61 1795.55,-116.599 1778.45,-103.995"/>
</g>
<!-- 2492618470544 -->
<g id="node79" class="node"><title>2492618470544</title>
<ellipse fill="none" stroke="black" cx="1950.81" cy="-90" rx="144.571" ry="18"/>
<text text-anchor="middle" x="1950.81" y="-86.5" font-family="Times New Roman,serif" font-size="15.00">Insert Date Appeal to Prefecture</text>
</g>
<!-- 2492618473232&#45;&#45;2492618470544 -->
<g id="edge69" class="edge"><title>2492618473232&#45;&#45;2492618470544</title>
<path fill="none" stroke="black" d="M1873.24,-148.161C1888.56,-136.873 1910.97,-120.36 1927.76,-107.981"/>
</g>
<!-- 2492454962848 -->
<g id="node77" class="node"><title>2492454962848</title>
<ellipse fill="black" stroke="black" cx="1719.81" cy="-18" rx="2.7" ry="2.7"/>
</g>
<!-- 2492618469440&#45;&#45;2492454962848 -->
<g id="edge66" class="edge"><title>2492618469440&#45;&#45;2492454962848</title>
<path fill="none" stroke="black" d="M1751.3,-72.7646C1740.89,-54.9939 1725.12,-28.0601 1720.89,-20.8363"/>
</g>
<!-- 2492454962080 -->
<g id="node78" class="node"><title>2492454962080</title>
<ellipse fill="none" stroke="black" cx="1802.81" cy="-18" rx="61.6894" ry="18"/>
<text text-anchor="middle" x="1802.81" y="-14.5" font-family="Times New Roman,serif" font-size="15.00">Add penalty</text>
</g>
<!-- 2492618469440&#45;&#45;2492454962080 -->
<g id="edge67" class="edge"><title>2492618469440&#45;&#45;2492454962080</title>
<path fill="none" stroke="black" d="M1770.34,-73.1159C1777.02,-61.9827 1785.93,-47.127 1792.73,-35.7973"/>
</g>
<!-- 2492454961792 -->
<g id="node81" class="node"><title>2492454961792</title>
<ellipse fill="black" stroke="black" cx="1903.81" cy="-162" rx="2.7" ry="2.7"/>
</g>
<!-- 2492618469536&#45;&#45;2492454961792 -->
<g id="edge72" class="edge"><title>2492618469536&#45;&#45;2492454961792</title>
<path fill="none" stroke="black" d="M2023.7,-222.52C1988.06,-204.823 1918.55,-170.319 1905.83,-164.005"/>
</g>
<!-- 2492454961600 -->
<g id="node82" class="node"><title>2492454961600</title>
<ellipse fill="none" stroke="black" cx="2044.81" cy="-162" rx="120.43" ry="18"/>
<text text-anchor="middle" x="2044.81" y="-158.5" font-family="Times New Roman,serif" font-size="15.00">Send Appeal to Prefecture</text>
</g>
<!-- 2492618469536&#45;&#45;2492454961600 -->
<g id="edge73" class="edge"><title>2492618469536&#45;&#45;2492454961600</title>
<path fill="none" stroke="black" d="M2044.81,-215.697C2044.81,-204.846 2044.81,-190.917 2044.81,-180.104"/>
</g>
<!-- 2492454963136 -->
<g id="node84" class="node"><title>2492454963136</title>
<ellipse fill="black" stroke="black" cx="2185.81" cy="-162" rx="2.7" ry="2.7"/>
</g>
<!-- 2492618471600&#45;&#45;2492454963136 -->
<g id="edge75" class="edge"><title>2492618471600&#45;&#45;2492454963136</title>
<path fill="none" stroke="black" d="M2185.81,-215.697C2185.81,-197.883 2185.81,-171.769 2185.81,-164.776"/>
</g>
<!-- 2492454964864 -->
<g id="node85" class="node"><title>2492454964864</title>
<ellipse fill="none" stroke="black" cx="2379.81" cy="-162" rx="173.941" ry="18"/>
<text text-anchor="middle" x="2379.81" y="-158.5" font-family="Times New Roman,serif" font-size="15.00">Receive Result Appeal from Prefecture</text>
</g>
<!-- 2492618471600&#45;&#45;2492454964864 -->
<g id="edge76" class="edge"><title>2492618471600&#45;&#45;2492454964864</title>
<path fill="none" stroke="black" d="M2209.21,-224.556C2240.05,-213.429 2294.96,-193.615 2334.16,-179.472"/>
</g>
<!-- 2492454962272 -->
<g id="node87" class="node"><title>2492454962272</title>
<ellipse fill="black" stroke="black" cx="2573.81" cy="-162" rx="2.7" ry="2.7"/>
</g>
<!-- 2492618472272&#45;&#45;2492454962272 -->
<g id="edge78" class="edge"><title>2492618472272&#45;&#45;2492454962272</title>
<path fill="none" stroke="black" d="M2573.81,-215.697C2573.81,-197.883 2573.81,-171.769 2573.81,-164.776"/>
</g>
<!-- 2492454964576 -->
<g id="node88" class="node"><title>2492454964576</title>
<ellipse fill="none" stroke="black" cx="2742.81" cy="-162" rx="148.91" ry="18"/>
<text text-anchor="middle" x="2742.81" y="-158.5" font-family="Times New Roman,serif" font-size="15.00">Notify Result Appeal to Offender</text>
</g>
<!-- 2492618472272&#45;&#45;2492454964576 -->
<g id="edge79" class="edge"><title>2492618472272&#45;&#45;2492454964576</title>
<path fill="none" stroke="black" d="M2596.25,-223.705C2623.46,-212.436 2669.79,-193.245 2703.09,-179.454"/>
</g>
<!-- 2492454963424 -->
<g id="node90" class="node"><title>2492454963424</title>
<ellipse fill="black" stroke="black" cx="2911.81" cy="-162" rx="2.7" ry="2.7"/>
</g>
<!-- 2492454961408&#45;&#45;2492454963424 -->
<g id="edge81" class="edge"><title>2492454961408&#45;&#45;2492454963424</title>
<path fill="none" stroke="black" d="M2799.3,-222.216C2833.11,-204.421 2898.04,-170.246 2909.92,-163.995"/>
</g>
<!-- 2492454964480 -->
<g id="node91" class="node"><title>2492454964480</title>
<ellipse fill="none" stroke="black" cx="2978.81" cy="-162" rx="45.7249" ry="18"/>
<text text-anchor="middle" x="2978.81" y="-158.5" font-family="Times New Roman,serif" font-size="15.00">Payment</text>
</g>
<!-- 2492454961408&#45;&#45;2492454964480 -->
<g id="edge82" class="edge"><title>2492454961408&#45;&#45;2492454964480</title>
<path fill="none" stroke="black" d="M2802.15,-224.833C2837.59,-212.427 2905.16,-188.779 2945.68,-174.596"/>
</g>
<!-- 2492454964960 -->
<g id="node94" class="node"><title>2492454964960</title>
<ellipse fill="black" stroke="black" cx="2308.81" cy="-378" rx="2.7" ry="2.7"/>
</g>
<!-- 2492618470160&#45;&#45;2492454964960 -->
<g id="edge88" class="edge"><title>2492618470160&#45;&#45;2492454964960</title>
<path fill="none" stroke="black" d="M2308.81,-431.697C2308.81,-413.883 2308.81,-387.769 2308.81,-380.776"/>
</g>
<!-- 2492454964288 -->
<g id="node95" class="node"><title>2492454964288</title>
<ellipse fill="none" stroke="black" cx="2483.81" cy="-378" rx="27" ry="18"/>
<text text-anchor="middle" x="2483.81" y="-374.5" font-family="Times New Roman,serif" font-size="15.00">seq</text>
</g>
<!-- 2492618470160&#45;&#45;2492454964288 -->
<g id="edge93" class="edge"><title>2492618470160&#45;&#45;2492454964288</title>
<path fill="none" stroke="black" d="M2331.33,-439.992C2364.84,-426.588 2427.48,-401.532 2461.1,-388.084"/>
</g>
<!-- 2492454964192 -->
<g id="node96" class="node"><title>2492454964192</title>
<ellipse fill="none" stroke="black" cx="2483.81" cy="-306" rx="120.819" ry="18"/>
<text text-anchor="middle" x="2483.81" y="-302.5" font-family="Times New Roman,serif" font-size="15.00">Send for Credit Collection</text>
</g>
<!-- 2492454964288&#45;&#45;2492454964192 -->
<g id="edge89" class="edge"><title>2492454964288&#45;&#45;2492454964192</title>
<path fill="none" stroke="black" d="M2483.81,-359.697C2483.81,-348.846 2483.81,-334.917 2483.81,-324.104"/>
</g>
<!-- 2492454962944 -->
<g id="node97" class="node"><title>2492454962944</title>
<ellipse fill="none" stroke="black" cx="2826.81" cy="-306" rx="27" ry="18"/>
<text text-anchor="middle" x="2826.81" y="-302.5" font-family="Times New Roman,serif" font-size="15.00">xor</text>
</g>
<!-- 2492454964288&#45;&#45;2492454962944 -->
<g id="edge92" class="edge"><title>2492454964288&#45;&#45;2492454962944</title>
<path fill="none" stroke="black" d="M2509.31,-371.796C2572.81,-358.837 2737.47,-325.234 2801.14,-312.238"/>
</g>
<!-- 2492637079296 -->
<g id="node98" class="node"><title>2492637079296</title>
<ellipse fill="black" stroke="black" cx="2826.81" cy="-234" rx="2.7" ry="2.7"/>
</g>
<!-- 2492454962944&#45;&#45;2492637079296 -->
<g id="edge90" class="edge"><title>2492454962944&#45;&#45;2492637079296</title>
<path fill="none" stroke="black" d="M2826.81,-287.697C2826.81,-269.883 2826.81,-243.769 2826.81,-236.776"/>
</g>
<!-- 2492637079248 -->
<g id="node99" class="node"><title>2492637079248</title>
<ellipse fill="none" stroke="black" cx="2967.81" cy="-234" rx="120.43" ry="18"/>
<text text-anchor="middle" x="2967.81" y="-230.5" font-family="Times New Roman,serif" font-size="15.00">Send Appeal to Prefecture</text>
</g>
<!-- 2492454962944&#45;&#45;2492637079248 -->
<g id="edge91" class="edge"><title>2492454962944&#45;&#45;2492637079248</title>
<path fill="none" stroke="black" d="M2847.92,-294.52C2870.89,-283.116 2907.92,-264.733 2934.75,-251.412"/>
</g>
</g>
</svg>
