<?xml version="1.0" encoding="UTF-8" standalone="no"?>
<!DOCTYPE svg PUBLIC "-//W3C//DTD SVG 1.1//EN"
 "http://www.w3.org/Graphics/SVG/1.1/DTD/svg11.dtd">
<!-- Generated by graphviz version 2.38.0 (20140413.2041)
 -->
<!-- Title: pt Pages: 1 -->
<svg width="2036pt" height="692pt"
 viewBox="0.00 0.00 2035.52 692.00" xmlns="http://www.w3.org/2000/svg" xmlns:xlink="http://www.w3.org/1999/xlink">
<g id="graph0" class="graph" transform="scale(1 1) rotate(0) translate(4 688)">
<title>pt</title>
<!-- 2492639340576 -->
<g id="node1" class="node"><title>2492639340576</title>
<ellipse fill="none" stroke="black" cx="614.811" cy="-666" rx="27" ry="18"/>
<text text-anchor="middle" x="614.811" y="-662.5" font-family="Times New Roman,serif" font-size="15.00">seq</text>
</g>
<!-- 2492639339952 -->
<g id="node2" class="node"><title>2492639339952</title>
<ellipse fill="none" stroke="black" cx="509.811" cy="-594" rx="59.5207" ry="18"/>
<text text-anchor="middle" x="509.811" y="-590.5" font-family="Times New Roman,serif" font-size="15.00">Create Fine</text>
</g>
<!-- 2492639340576&#45;&#45;2492639339952 -->
<g id="edge1" class="edge"><title>2492639340576&#45;&#45;2492639339952</title>
<path fill="none" stroke="black" d="M596.039,-652.485C578.461,-640.767 552.134,-623.215 533.198,-610.591"/>
</g>
<!-- 2492639341728 -->
<g id="node3" class="node"><title>2492639341728</title>
<ellipse fill="none" stroke="black" cx="614.811" cy="-594" rx="27" ry="18"/>
<text text-anchor="middle" x="614.811" y="-590.5" font-family="Times New Roman,serif" font-size="15.00">and</text>
</g>
<!-- 2492639340576&#45;&#45;2492639341728 -->
<g id="edge45" class="edge"><title>2492639340576&#45;&#45;2492639341728</title>
<path fill="none" stroke="black" d="M614.811,-647.697C614.811,-636.846 614.811,-622.917 614.811,-612.104"/>
</g>
<!-- 2492639339280 -->
<g id="node47" class="node"><title>2492639339280</title>
<ellipse fill="none" stroke="black" cx="686.811" cy="-594" rx="27" ry="18"/>
<text text-anchor="middle" x="686.811" y="-590.5" font-family="Times New Roman,serif" font-size="15.00">xor</text>
</g>
<!-- 2492639340576&#45;&#45;2492639339280 -->
<g id="edge48" class="edge"><title>2492639340576&#45;&#45;2492639339280</title>
<path fill="none" stroke="black" d="M629.381,-650.834C641.791,-638.77 659.542,-621.512 672.015,-609.385"/>
</g>
<!-- 2492456855056 -->
<g id="node4" class="node"><title>2492456855056</title>
<ellipse fill="none" stroke="black" cx="305.811" cy="-522" rx="27" ry="18"/>
<text text-anchor="middle" x="305.811" y="-518.5" font-family="Times New Roman,serif" font-size="15.00">and</text>
</g>
<!-- 2492639341728&#45;&#45;2492456855056 -->
<g id="edge17" class="edge"><title>2492639341728&#45;&#45;2492456855056</title>
<path fill="none" stroke="black" d="M589.524,-587.272C531.437,-574.113 389.02,-541.85 331.014,-528.709"/>
</g>
<!-- 2492456853664 -->
<g id="node20" class="node"><title>2492456853664</title>
<ellipse fill="none" stroke="black" cx="620.811" cy="-522" rx="27" ry="18"/>
<text text-anchor="middle" x="620.811" y="-518.5" font-family="Times New Roman,serif" font-size="15.00">xor</text>
</g>
<!-- 2492639341728&#45;&#45;2492456853664 -->
<g id="edge44" class="edge"><title>2492639341728&#45;&#45;2492456853664</title>
<path fill="none" stroke="black" d="M616.294,-575.697C617.224,-564.846 618.418,-550.917 619.345,-540.104"/>
</g>
<!-- 2492456853952 -->
<g id="node5" class="node"><title>2492456853952</title>
<ellipse fill="none" stroke="black" cx="164.811" cy="-450" rx="46.6143" ry="18"/>
<text text-anchor="middle" x="164.811" y="-446.5" font-family="Times New Roman,serif" font-size="15.00">xor loop</text>
</g>
<!-- 2492456855056&#45;&#45;2492456853952 -->
<g id="edge4" class="edge"><title>2492456855056&#45;&#45;2492456853952</title>
<path fill="none" stroke="black" d="M284.702,-510.52C260.118,-498.316 219.432,-478.117 192.374,-464.684"/>
</g>
<!-- 2492456854864 -->
<g id="node8" class="node"><title>2492456854864</title>
<ellipse fill="none" stroke="black" cx="305.811" cy="-450" rx="27" ry="18"/>
<text text-anchor="middle" x="305.811" y="-446.5" font-family="Times New Roman,serif" font-size="15.00">xor</text>
</g>
<!-- 2492456855056&#45;&#45;2492456854864 -->
<g id="edge16" class="edge"><title>2492456855056&#45;&#45;2492456854864</title>
<path fill="none" stroke="black" d="M305.811,-503.697C305.811,-492.846 305.811,-478.917 305.811,-468.104"/>
</g>
<!-- 2492456854384 -->
<g id="node6" class="node"><title>2492456854384</title>
<ellipse fill="black" stroke="black" cx="97.8111" cy="-378" rx="2.7" ry="2.7"/>
</g>
<!-- 2492456853952&#45;&#45;2492456854384 -->
<g id="edge2" class="edge"><title>2492456853952&#45;&#45;2492456854384</title>
<path fill="none" stroke="black" d="M149.272,-432.765C131.953,-414.671 105.542,-387.078 99.2104,-380.462"/>
</g>
<!-- 2492456855200 -->
<g id="node7" class="node"><title>2492456855200</title>
<ellipse fill="none" stroke="black" cx="164.811" cy="-378" rx="45.7249" ry="18"/>
<text text-anchor="middle" x="164.811" y="-374.5" font-family="Times New Roman,serif" font-size="15.00">Payment</text>
</g>
<!-- 2492456853952&#45;&#45;2492456855200 -->
<g id="edge3" class="edge"><title>2492456853952&#45;&#45;2492456855200</title>
<path fill="none" stroke="black" d="M164.811,-431.697C164.811,-420.846 164.811,-406.917 164.811,-396.104"/>
</g>
<!-- 2492456853808 -->
<g id="node9" class="node"><title>2492456853808</title>
<ellipse fill="black" stroke="black" cx="231.811" cy="-378" rx="2.7" ry="2.7"/>
</g>
<!-- 2492456854864&#45;&#45;2492456853808 -->
<g id="edge5" class="edge"><title>2492456854864&#45;&#45;2492456853808</title>
<path fill="none" stroke="black" d="M290.836,-434.834C271.916,-416.937 240.915,-387.612 233.46,-380.56"/>
</g>
<!-- 2492456856496 -->
<g id="node10" class="node"><title>2492456856496</title>
<ellipse fill="none" stroke="black" cx="305.811" cy="-378" rx="52.6228" ry="18"/>
<text text-anchor="middle" x="305.811" y="-374.5" font-family="Times New Roman,serif" font-size="15.00">Send Fine</text>
</g>
<!-- 2492456854864&#45;&#45;2492456856496 -->
<g id="edge6" class="edge"><title>2492456854864&#45;&#45;2492456856496</title>
<path fill="none" stroke="black" d="M305.811,-431.697C305.811,-420.846 305.811,-406.917 305.811,-396.104"/>
</g>
<!-- 2492456855728 -->
<g id="node11" class="node"><title>2492456855728</title>
<ellipse fill="none" stroke="black" cx="403.811" cy="-378" rx="27" ry="18"/>
<text text-anchor="middle" x="403.811" y="-374.5" font-family="Times New Roman,serif" font-size="15.00">seq</text>
</g>
<!-- 2492456854864&#45;&#45;2492456855728 -->
<g id="edge15" class="edge"><title>2492456854864&#45;&#45;2492456855728</title>
<path fill="none" stroke="black" d="M323.786,-436.161C341.468,-423.531 368.307,-404.36 385.95,-391.758"/>
</g>
<!-- 2492456855632 -->
<g id="node12" class="node"><title>2492456855632</title>
<ellipse fill="none" stroke="black" cx="52.8111" cy="-306" rx="52.6228" ry="18"/>
<text text-anchor="middle" x="52.8111" y="-302.5" font-family="Times New Roman,serif" font-size="15.00">Send Fine</text>
</g>
<!-- 2492456855728&#45;&#45;2492456855632 -->
<g id="edge7" class="edge"><title>2492456855728&#45;&#45;2492456855632</title>
<path fill="none" stroke="black" d="M378.285,-371.909C319.048,-360.096 171.636,-330.697 97.2456,-315.862"/>
</g>
<!-- 2492456856112 -->
<g id="node13" class="node"><title>2492456856112</title>
<ellipse fill="none" stroke="black" cx="231.811" cy="-306" rx="107.914" ry="18"/>
<text text-anchor="middle" x="231.811" y="-302.5" font-family="Times New Roman,serif" font-size="15.00">Insert Fine Notification</text>
</g>
<!-- 2492456855728&#45;&#45;2492456856112 -->
<g id="edge8" class="edge"><title>2492456855728&#45;&#45;2492456856112</title>
<path fill="none" stroke="black" d="M381.325,-367.849C353.279,-356.434 304.87,-336.733 270.746,-322.846"/>
</g>
<!-- 2492456854288 -->
<g id="node14" class="node"><title>2492456854288</title>
<ellipse fill="none" stroke="black" cx="403.811" cy="-306" rx="46.6143" ry="18"/>
<text text-anchor="middle" x="403.811" y="-302.5" font-family="Times New Roman,serif" font-size="15.00">xor loop</text>
</g>
<!-- 2492456855728&#45;&#45;2492456854288 -->
<g id="edge11" class="edge"><title>2492456855728&#45;&#45;2492456854288</title>
<path fill="none" stroke="black" d="M403.811,-359.697C403.811,-348.846 403.811,-334.917 403.811,-324.104"/>
</g>
<!-- 2492456856544 -->
<g id="node17" class="node"><title>2492456856544</title>
<ellipse fill="none" stroke="black" cx="514.811" cy="-306" rx="46.6143" ry="18"/>
<text text-anchor="middle" x="514.811" y="-302.5" font-family="Times New Roman,serif" font-size="15.00">xor loop</text>
</g>
<!-- 2492456855728&#45;&#45;2492456856544 -->
<g id="edge14" class="edge"><title>2492456855728&#45;&#45;2492456856544</title>
<path fill="none" stroke="black" d="M422.893,-364.967C441.86,-353.005 470.988,-334.636 491.357,-321.791"/>
</g>
<!-- 2492456856208 -->
<g id="node15" class="node"><title>2492456856208</title>
<ellipse fill="black" stroke="black" cx="327.811" cy="-234" rx="2.7" ry="2.7"/>
</g>
<!-- 2492456854288&#45;&#45;2492456856208 -->
<g id="edge9" class="edge"><title>2492456854288&#45;&#45;2492456856208</title>
<path fill="none" stroke="black" d="M386.565,-289.116C366.945,-271.045 336.677,-243.166 329.416,-236.478"/>
</g>
<!-- 2492456856304 -->
<g id="node16" class="node"><title>2492456856304</title>
<ellipse fill="none" stroke="black" cx="410.811" cy="-234" rx="61.6894" ry="18"/>
<text text-anchor="middle" x="410.811" y="-230.5" font-family="Times New Roman,serif" font-size="15.00">Add penalty</text>
</g>
<!-- 2492456854288&#45;&#45;2492456856304 -->
<g id="edge10" class="edge"><title>2492456854288&#45;&#45;2492456856304</title>
<path fill="none" stroke="black" d="M405.541,-287.697C406.626,-276.846 408.019,-262.917 409.101,-252.104"/>
</g>
<!-- 2492456856640 -->
<g id="node18" class="node"><title>2492456856640</title>
<ellipse fill="black" stroke="black" cx="507.811" cy="-234" rx="2.7" ry="2.7"/>
</g>
<!-- 2492456856544&#45;&#45;2492456856640 -->
<g id="edge12" class="edge"><title>2492456856544&#45;&#45;2492456856640</title>
<path fill="none" stroke="black" d="M513.081,-287.697C511.299,-269.883 508.688,-243.769 507.989,-236.776"/>
</g>
<!-- 2492456855920 -->
<g id="node19" class="node"><title>2492456855920</title>
<ellipse fill="none" stroke="black" cx="606.811" cy="-234" rx="78.5434" ry="18"/>
<text text-anchor="middle" x="606.811" y="-230.5" font-family="Times New Roman,serif" font-size="15.00">Appeal to Judge</text>
</g>
<!-- 2492456856544&#45;&#45;2492456855920 -->
<g id="edge13" class="edge"><title>2492456856544&#45;&#45;2492456855920</title>
<path fill="none" stroke="black" d="M535.229,-289.465C550.051,-278.187 570.07,-262.955 585.168,-251.467"/>
</g>
<!-- 2492456855440 -->
<g id="node21" class="node"><title>2492456855440</title>
<ellipse fill="black" stroke="black" cx="620.811" cy="-450" rx="2.7" ry="2.7"/>
</g>
<!-- 2492456853664&#45;&#45;2492456855440 -->
<g id="edge18" class="edge"><title>2492456853664&#45;&#45;2492456855440</title>
<path fill="none" stroke="black" d="M620.811,-503.697C620.811,-485.883 620.811,-459.769 620.811,-452.776"/>
</g>
<!-- 2492456854912 -->
<g id="node22" class="node"><title>2492456854912</title>
<ellipse fill="none" stroke="black" cx="981.811" cy="-450" rx="27" ry="18"/>
<text text-anchor="middle" x="981.811" y="-446.5" font-family="Times New Roman,serif" font-size="15.00">seq</text>
</g>
<!-- 2492456853664&#45;&#45;2492456854912 -->
<g id="edge43" class="edge"><title>2492456853664&#45;&#45;2492456854912</title>
<path fill="none" stroke="black" d="M646.484,-516.022C712.849,-503.153 889.54,-468.892 956.028,-456"/>
</g>
<!-- 2492456856880 -->
<g id="node23" class="node"><title>2492456856880</title>
<ellipse fill="none" stroke="black" cx="746.811" cy="-378" rx="27" ry="18"/>
<text text-anchor="middle" x="746.811" y="-374.5" font-family="Times New Roman,serif" font-size="15.00">xor</text>
</g>
<!-- 2492456854912&#45;&#45;2492456856880 -->
<g id="edge21" class="edge"><title>2492456854912&#45;&#45;2492456856880</title>
<path fill="none" stroke="black" d="M957.547,-441.772C912.398,-428.324 815.992,-399.607 770.943,-386.188"/>
</g>
<!-- 2492456857504 -->
<g id="node26" class="node"><title>2492456857504</title>
<ellipse fill="none" stroke="black" cx="981.811" cy="-378" rx="27" ry="18"/>
<text text-anchor="middle" x="981.811" y="-374.5" font-family="Times New Roman,serif" font-size="15.00">xor</text>
</g>
<!-- 2492456854912&#45;&#45;2492456857504 -->
<g id="edge24" class="edge"><title>2492456854912&#45;&#45;2492456857504</title>
<path fill="none" stroke="black" d="M981.811,-431.697C981.811,-420.846 981.811,-406.917 981.811,-396.104"/>
</g>
<!-- 2492456855536 -->
<g id="node29" class="node"><title>2492456855536</title>
<ellipse fill="none" stroke="black" cx="1193.81" cy="-378" rx="27" ry="18"/>
<text text-anchor="middle" x="1193.81" y="-374.5" font-family="Times New Roman,serif" font-size="15.00">xor</text>
</g>
<!-- 2492456854912&#45;&#45;2492456855536 -->
<g id="edge27" class="edge"><title>2492456854912&#45;&#45;2492456855536</title>
<path fill="none" stroke="black" d="M1005.72,-441.106C1046.54,-427.626 1129.23,-400.325 1169.99,-386.865"/>
</g>
<!-- 2492456857456 -->
<g id="node32" class="node"><title>2492456857456</title>
<ellipse fill="none" stroke="black" cx="1359.81" cy="-378" rx="27" ry="18"/>
<text text-anchor="middle" x="1359.81" y="-374.5" font-family="Times New Roman,serif" font-size="15.00">xor</text>
</g>
<!-- 2492456854912&#45;&#45;2492456857456 -->
<g id="edge42" class="edge"><title>2492456854912&#45;&#45;2492456857456</title>
<path fill="none" stroke="black" d="M1007.5,-444.244C1076.45,-431.473 1265.09,-396.541 1334.09,-383.763"/>
</g>
<!-- 2492456857216 -->
<g id="node24" class="node"><title>2492456857216</title>
<ellipse fill="black" stroke="black" cx="581.811" cy="-306" rx="2.7" ry="2.7"/>
</g>
<!-- 2492456856880&#45;&#45;2492456857216 -->
<g id="edge19" class="edge"><title>2492456856880&#45;&#45;2492456857216</title>
<path fill="none" stroke="black" d="M724.558,-367.559C683.391,-350.094 598.216,-313.96 583.88,-307.878"/>
</g>
<!-- 2492456857312 -->
<g id="node25" class="node"><title>2492456857312</title>
<ellipse fill="none" stroke="black" cx="746.811" cy="-306" rx="144.571" ry="18"/>
<text text-anchor="middle" x="746.811" y="-302.5" font-family="Times New Roman,serif" font-size="15.00">Insert Date Appeal to Prefecture</text>
</g>
<!-- 2492456856880&#45;&#45;2492456857312 -->
<g id="edge20" class="edge"><title>2492456856880&#45;&#45;2492456857312</title>
<path fill="none" stroke="black" d="M746.811,-359.697C746.811,-348.846 746.811,-334.917 746.811,-324.104"/>
</g>
<!-- 2492456857120 -->
<g id="node27" class="node"><title>2492456857120</title>
<ellipse fill="black" stroke="black" cx="911.811" cy="-306" rx="2.7" ry="2.7"/>
</g>
<!-- 2492456857504&#45;&#45;2492456857120 -->
<g id="edge22" class="edge"><title>2492456857504&#45;&#45;2492456857120</title>
<path fill="none" stroke="black" d="M967.307,-362.496C949.367,-344.555 920.333,-315.522 913.355,-308.544"/>
</g>
<!-- 2492453358560 -->
<g id="node28" class="node"><title>2492453358560</title>
<ellipse fill="none" stroke="black" cx="1052.81" cy="-306" rx="120.43" ry="18"/>
<text text-anchor="middle" x="1052.81" y="-302.5" font-family="Times New Roman,serif" font-size="15.00">Send Appeal to Prefecture</text>
</g>
<!-- 2492456857504&#45;&#45;2492453358560 -->
<g id="edge23" class="edge"><title>2492456857504&#45;&#45;2492453358560</title>
<path fill="none" stroke="black" d="M996.522,-362.496C1007.9,-351.283 1023.66,-335.737 1035.62,-323.951"/>
</g>
<!-- 2492457052432 -->
<g id="node30" class="node"><title>2492457052432</title>
<ellipse fill="black" stroke="black" cx="1193.81" cy="-306" rx="2.7" ry="2.7"/>
</g>
<!-- 2492456855536&#45;&#45;2492457052432 -->
<g id="edge25" class="edge"><title>2492456855536&#45;&#45;2492457052432</title>
<path fill="none" stroke="black" d="M1193.81,-359.697C1193.81,-341.883 1193.81,-315.769 1193.81,-308.776"/>
</g>
<!-- 2492457053104 -->
<g id="node31" class="node"><title>2492457053104</title>
<ellipse fill="none" stroke="black" cx="1276.81" cy="-306" rx="61.6894" ry="18"/>
<text text-anchor="middle" x="1276.81" y="-302.5" font-family="Times New Roman,serif" font-size="15.00">Add penalty</text>
</g>
<!-- 2492456855536&#45;&#45;2492457053104 -->
<g id="edge26" class="edge"><title>2492456855536&#45;&#45;2492457053104</title>
<path fill="none" stroke="black" d="M1210.21,-363.17C1223.82,-351.695 1243.19,-335.357 1257.53,-323.257"/>
</g>
<!-- 2492457050800 -->
<g id="node33" class="node"><title>2492457050800</title>
<ellipse fill="black" stroke="black" cx="1359.81" cy="-306" rx="2.7" ry="2.7"/>
</g>
<!-- 2492456857456&#45;&#45;2492457050800 -->
<g id="edge28" class="edge"><title>2492456857456&#45;&#45;2492457050800</title>
<path fill="none" stroke="black" d="M1359.81,-359.697C1359.81,-341.883 1359.81,-315.769 1359.81,-308.776"/>
</g>
<!-- 2492457050416 -->
<g id="node34" class="node"><title>2492457050416</title>
<ellipse fill="none" stroke="black" cx="1426.81" cy="-306" rx="46.6143" ry="18"/>
<text text-anchor="middle" x="1426.81" y="-302.5" font-family="Times New Roman,serif" font-size="15.00">xor loop</text>
</g>
<!-- 2492456857456&#45;&#45;2492457050416 -->
<g id="edge41" class="edge"><title>2492456857456&#45;&#45;2492457050416</title>
<path fill="none" stroke="black" d="M1373.69,-362.496C1384.66,-351.043 1399.95,-335.069 1411.31,-323.198"/>
</g>
<!-- 2492457050992 -->
<g id="node35" class="node"><title>2492457050992</title>
<ellipse fill="none" stroke="black" cx="1402.81" cy="-234" rx="27" ry="18"/>
<text text-anchor="middle" x="1402.81" y="-230.5" font-family="Times New Roman,serif" font-size="15.00">xor</text>
</g>
<!-- 2492457050416&#45;&#45;2492457050992 -->
<g id="edge39" class="edge"><title>2492457050416&#45;&#45;2492457050992</title>
<path fill="none" stroke="black" d="M1421,-288.055C1417.23,-277.049 1412.33,-262.764 1408.57,-251.789"/>
</g>
<!-- 2492457050368 -->
<g id="node46" class="node"><title>2492457050368</title>
<ellipse fill="black" stroke="black" cx="1450.81" cy="-234" rx="2.7" ry="2.7"/>
</g>
<!-- 2492457050416&#45;&#45;2492457050368 -->
<g id="edge40" class="edge"><title>2492457050416&#45;&#45;2492457050368</title>
<path fill="none" stroke="black" d="M1432.62,-288.055C1438.72,-270.252 1447.77,-243.865 1450.2,-236.796"/>
</g>
<!-- 2492457052048 -->
<g id="node36" class="node"><title>2492457052048</title>
<ellipse fill="none" stroke="black" cx="1143.81" cy="-162" rx="120.43" ry="18"/>
<text text-anchor="middle" x="1143.81" y="-158.5" font-family="Times New Roman,serif" font-size="15.00">Send Appeal to Prefecture</text>
</g>
<!-- 2492457050992&#45;&#45;2492457052048 -->
<g id="edge29" class="edge"><title>2492457050992&#45;&#45;2492457052048</title>
<path fill="none" stroke="black" d="M1377.98,-226.288C1337.08,-215.235 1254.59,-192.94 1199.26,-177.987"/>
</g>
<!-- 2492457050944 -->
<g id="node37" class="node"><title>2492457050944</title>
<ellipse fill="none" stroke="black" cx="1402.81" cy="-162" rx="120.819" ry="18"/>
<text text-anchor="middle" x="1402.81" y="-158.5" font-family="Times New Roman,serif" font-size="15.00">Send for Credit Collection</text>
</g>
<!-- 2492457050992&#45;&#45;2492457050944 -->
<g id="edge30" class="edge"><title>2492457050992&#45;&#45;2492457050944</title>
<path fill="none" stroke="black" d="M1402.81,-215.697C1402.81,-204.846 1402.81,-190.917 1402.81,-180.104"/>
</g>
<!-- 2492457052144 -->
<g id="node38" class="node"><title>2492457052144</title>
<ellipse fill="none" stroke="black" cx="1568.81" cy="-162" rx="27" ry="18"/>
<text text-anchor="middle" x="1568.81" y="-158.5" font-family="Times New Roman,serif" font-size="15.00">seq</text>
</g>
<!-- 2492457050992&#45;&#45;2492457052144 -->
<g id="edge38" class="edge"><title>2492457050992&#45;&#45;2492457052144</title>
<path fill="none" stroke="black" d="M1425.2,-223.559C1456.97,-210.162 1514.79,-185.779 1546.51,-172.402"/>
</g>
<!-- 2492457051280 -->
<g id="node39" class="node"><title>2492457051280</title>
<ellipse fill="none" stroke="black" cx="1349.81" cy="-90" rx="173.941" ry="18"/>
<text text-anchor="middle" x="1349.81" y="-86.5" font-family="Times New Roman,serif" font-size="15.00">Receive Result Appeal from Prefecture</text>
</g>
<!-- 2492457052144&#45;&#45;2492457051280 -->
<g id="edge31" class="edge"><title>2492457052144&#45;&#45;2492457051280</title>
<path fill="none" stroke="black" d="M1544.96,-153.376C1510.59,-142.391 1446.3,-121.842 1400.92,-107.337"/>
</g>
<!-- 2492457051376 -->
<g id="node40" class="node"><title>2492457051376</title>
<ellipse fill="none" stroke="black" cx="1568.81" cy="-90" rx="27" ry="18"/>
<text text-anchor="middle" x="1568.81" y="-86.5" font-family="Times New Roman,serif" font-size="15.00">xor</text>
</g>
<!-- 2492457052144&#45;&#45;2492457051376 -->
<g id="edge34" class="edge"><title>2492457052144&#45;&#45;2492457051376</title>
<path fill="none" stroke="black" d="M1568.81,-143.697C1568.81,-132.846 1568.81,-118.917 1568.81,-108.104"/>
</g>
<!-- 2492457051568 -->
<g id="node43" class="node"><title>2492457051568</title>
<ellipse fill="none" stroke="black" cx="1709.81" cy="-90" rx="27" ry="18"/>
<text text-anchor="middle" x="1709.81" y="-86.5" font-family="Times New Roman,serif" font-size="15.00">xor</text>
</g>
<!-- 2492457052144&#45;&#45;2492457051568 -->
<g id="edge37" class="edge"><title>2492457052144&#45;&#45;2492457051568</title>
<path fill="none" stroke="black" d="M1589.92,-150.52C1616.5,-137.324 1661.91,-114.781 1688.56,-101.551"/>
</g>
<!-- 2492457051616 -->
<g id="node41" class="node"><title>2492457051616</title>
<ellipse fill="black" stroke="black" cx="1427.81" cy="-18" rx="2.7" ry="2.7"/>
</g>
<!-- 2492457051376&#45;&#45;2492457051616 -->
<g id="edge32" class="edge"><title>2492457051376&#45;&#45;2492457051616</title>
<path fill="none" stroke="black" d="M1547.7,-78.5203C1512.06,-60.8234 1442.55,-26.3188 1429.83,-20.0047"/>
</g>
<!-- 2492457052384 -->
<g id="node42" class="node"><title>2492457052384</title>
<ellipse fill="none" stroke="black" cx="1568.81" cy="-18" rx="120.43" ry="18"/>
<text text-anchor="middle" x="1568.81" y="-14.5" font-family="Times New Roman,serif" font-size="15.00">Send Appeal to Prefecture</text>
</g>
<!-- 2492457051376&#45;&#45;2492457052384 -->
<g id="edge33" class="edge"><title>2492457051376&#45;&#45;2492457052384</title>
<path fill="none" stroke="black" d="M1568.81,-71.6966C1568.81,-60.8463 1568.81,-46.9167 1568.81,-36.1043"/>
</g>
<!-- 2492457052480 -->
<g id="node44" class="node"><title>2492457052480</title>
<ellipse fill="black" stroke="black" cx="1709.81" cy="-18" rx="2.7" ry="2.7"/>
</g>
<!-- 2492457051568&#45;&#45;2492457052480 -->
<g id="edge35" class="edge"><title>2492457051568&#45;&#45;2492457052480</title>
<path fill="none" stroke="black" d="M1709.81,-71.6966C1709.81,-53.8826 1709.81,-27.7686 1709.81,-20.7764"/>
</g>
<!-- 2492457052768 -->
<g id="node45" class="node"><title>2492457052768</title>
<ellipse fill="none" stroke="black" cx="1878.81" cy="-18" rx="148.91" ry="18"/>
<text text-anchor="middle" x="1878.81" y="-14.5" font-family="Times New Roman,serif" font-size="15.00">Notify Result Appeal to Offender</text>
</g>
<!-- 2492457051568&#45;&#45;2492457052768 -->
<g id="edge36" class="edge"><title>2492457051568&#45;&#45;2492457052768</title>
<path fill="none" stroke="black" d="M1732.25,-79.7045C1759.46,-68.4359 1805.79,-49.2446 1839.09,-35.4544"/>
</g>
<!-- 2492456853568 -->
<g id="node48" class="node"><title>2492456853568</title>
<ellipse fill="black" stroke="black" cx="680.811" cy="-522" rx="2.7" ry="2.7"/>
</g>
<!-- 2492639339280&#45;&#45;2492456853568 -->
<g id="edge46" class="edge"><title>2492639339280&#45;&#45;2492456853568</title>
<path fill="none" stroke="black" d="M685.328,-575.697C683.801,-557.883 681.563,-531.769 680.963,-524.776"/>
</g>
<!-- 2492456857168 -->
<g id="node49" class="node"><title>2492456857168</title>
<ellipse fill="none" stroke="black" cx="779.811" cy="-522" rx="78.5434" ry="18"/>
<text text-anchor="middle" x="779.811" y="-518.5" font-family="Times New Roman,serif" font-size="15.00">Appeal to Judge</text>
</g>
<!-- 2492639339280&#45;&#45;2492456857168 -->
<g id="edge47" class="edge"><title>2492639339280&#45;&#45;2492456857168</title>
<path fill="none" stroke="black" d="M704.304,-579.834C719.563,-568.348 741.76,-551.641 758.141,-539.311"/>
</g>
</g>
</svg>
