<?xml version="1.0" encoding="UTF-8" standalone="no"?>
<!DOCTYPE svg PUBLIC "-//W3C//DTD SVG 1.1//EN"
 "http://www.w3.org/Graphics/SVG/1.1/DTD/svg11.dtd">
<!-- Generated by graphviz version 2.38.0 (20140413.2041)
 -->
<!-- Title: pt Pages: 1 -->
<svg width="1612pt" height="980pt"
 viewBox="0.00 0.00 1611.52 980.00" xmlns="http://www.w3.org/2000/svg" xmlns:xlink="http://www.w3.org/1999/xlink">
<g id="graph0" class="graph" transform="scale(1 1) rotate(0) translate(4 976)">
<title>pt</title>
<!-- 2492457004144 -->
<g id="node1" class="node"><title>2492457004144</title>
<ellipse fill="none" stroke="black" cx="640.811" cy="-954" rx="27" ry="18"/>
<text text-anchor="middle" x="640.811" y="-950.5" font-family="Times New Roman,serif" font-size="15.00">seq</text>
</g>
<!-- 2492457004288 -->
<g id="node2" class="node"><title>2492457004288</title>
<ellipse fill="none" stroke="black" cx="578.811" cy="-882" rx="59.5207" ry="18"/>
<text text-anchor="middle" x="578.811" y="-878.5" font-family="Times New Roman,serif" font-size="15.00">Create Fine</text>
</g>
<!-- 2492457004144&#45;&#45;2492457004288 -->
<g id="edge1" class="edge"><title>2492457004144&#45;&#45;2492457004288</title>
<path fill="none" stroke="black" d="M627.662,-938.155C617.71,-926.918 604.033,-911.476 593.681,-899.789"/>
</g>
<!-- 2492457004384 -->
<g id="node3" class="node"><title>2492457004384</title>
<ellipse fill="none" stroke="black" cx="702.811" cy="-882" rx="46.6143" ry="18"/>
<text text-anchor="middle" x="702.811" y="-878.5" font-family="Times New Roman,serif" font-size="15.00">xor loop</text>
</g>
<!-- 2492457004144&#45;&#45;2492457004384 -->
<g id="edge43" class="edge"><title>2492457004144&#45;&#45;2492457004384</title>
<path fill="none" stroke="black" d="M653.96,-938.155C664.055,-926.757 677.981,-911.034 688.382,-899.29"/>
</g>
<!-- 2492457004000 -->
<g id="node4" class="node"><title>2492457004000</title>
<ellipse fill="none" stroke="black" cx="668.811" cy="-810" rx="46.6143" ry="18"/>
<text text-anchor="middle" x="668.811" y="-806.5" font-family="Times New Roman,serif" font-size="15.00">xor loop</text>
</g>
<!-- 2492457004384&#45;&#45;2492457004000 -->
<g id="edge41" class="edge"><title>2492457004384&#45;&#45;2492457004000</title>
<path fill="none" stroke="black" d="M694.581,-864.055C689.235,-853.049 682.296,-838.764 676.966,-827.789"/>
</g>
<!-- 2492457002656 -->
<g id="node44" class="node"><title>2492457002656</title>
<ellipse fill="black" stroke="black" cx="735.811" cy="-810" rx="2.7" ry="2.7"/>
</g>
<!-- 2492457004384&#45;&#45;2492457002656 -->
<g id="edge42" class="edge"><title>2492457004384&#45;&#45;2492457002656</title>
<path fill="none" stroke="black" d="M710.799,-864.055C719.192,-846.252 731.632,-819.865 734.964,-812.796"/>
</g>
<!-- 2492457003616 -->
<g id="node5" class="node"><title>2492457003616</title>
<ellipse fill="none" stroke="black" cx="644.811" cy="-738" rx="27" ry="18"/>
<text text-anchor="middle" x="644.811" y="-734.5" font-family="Times New Roman,serif" font-size="15.00">seq</text>
</g>
<!-- 2492457004000&#45;&#45;2492457003616 -->
<g id="edge39" class="edge"><title>2492457004000&#45;&#45;2492457003616</title>
<path fill="none" stroke="black" d="M663.001,-792.055C659.228,-781.049 654.33,-766.764 650.567,-755.789"/>
</g>
<!-- 2492457001360 -->
<g id="node43" class="node"><title>2492457001360</title>
<ellipse fill="black" stroke="black" cx="692.811" cy="-738" rx="2.7" ry="2.7"/>
</g>
<!-- 2492457004000&#45;&#45;2492457001360 -->
<g id="edge40" class="edge"><title>2492457004000&#45;&#45;2492457001360</title>
<path fill="none" stroke="black" d="M674.621,-792.055C680.725,-774.252 689.772,-747.865 692.195,-740.796"/>
</g>
<!-- 2492456976688 -->
<g id="node6" class="node"><title>2492456976688</title>
<ellipse fill="none" stroke="black" cx="606.811" cy="-666" rx="27" ry="18"/>
<text text-anchor="middle" x="606.811" y="-662.5" font-family="Times New Roman,serif" font-size="15.00">xor</text>
</g>
<!-- 2492457003616&#45;&#45;2492456976688 -->
<g id="edge11" class="edge"><title>2492457003616&#45;&#45;2492456976688</title>
<path fill="none" stroke="black" d="M635.998,-720.765C629.859,-709.456 621.705,-694.437 615.577,-683.147"/>
</g>
<!-- 2492457003952 -->
<g id="node16" class="node"><title>2492457003952</title>
<ellipse fill="none" stroke="black" cx="682.811" cy="-666" rx="27" ry="18"/>
<text text-anchor="middle" x="682.811" y="-662.5" font-family="Times New Roman,serif" font-size="15.00">xor</text>
</g>
<!-- 2492457003616&#45;&#45;2492457003952 -->
<g id="edge38" class="edge"><title>2492457003616&#45;&#45;2492457003952</title>
<path fill="none" stroke="black" d="M653.625,-720.765C659.764,-709.456 667.917,-694.437 674.045,-683.147"/>
</g>
<!-- 2492456976544 -->
<g id="node7" class="node"><title>2492456976544</title>
<ellipse fill="none" stroke="black" cx="482.811" cy="-594" rx="78.5434" ry="18"/>
<text text-anchor="middle" x="482.811" y="-590.5" font-family="Times New Roman,serif" font-size="15.00">Appeal to Judge</text>
</g>
<!-- 2492456976688&#45;&#45;2492456976544 -->
<g id="edge2" class="edge"><title>2492456976688&#45;&#45;2492456976544</title>
<path fill="none" stroke="black" d="M586.888,-653.753C566.35,-642.159 534.148,-623.981 511.002,-610.914"/>
</g>
<!-- 2492456980000 -->
<g id="node8" class="node"><title>2492456980000</title>
<ellipse fill="none" stroke="black" cx="606.811" cy="-594" rx="27" ry="18"/>
<text text-anchor="middle" x="606.811" y="-590.5" font-family="Times New Roman,serif" font-size="15.00">seq</text>
</g>
<!-- 2492456976688&#45;&#45;2492456980000 -->
<g id="edge10" class="edge"><title>2492456976688&#45;&#45;2492456980000</title>
<path fill="none" stroke="black" d="M606.811,-647.697C606.811,-636.846 606.811,-622.917 606.811,-612.104"/>
</g>
<!-- 2492621051936 -->
<g id="node9" class="node"><title>2492621051936</title>
<ellipse fill="none" stroke="black" cx="273.811" cy="-522" rx="27" ry="18"/>
<text text-anchor="middle" x="273.811" y="-518.5" font-family="Times New Roman,serif" font-size="15.00">xor</text>
</g>
<!-- 2492456980000&#45;&#45;2492621051936 -->
<g id="edge6" class="edge"><title>2492456980000&#45;&#45;2492621051936</title>
<path fill="none" stroke="black" d="M581.509,-587.681C519.735,-574.696 361.737,-541.483 299.532,-528.407"/>
</g>
<!-- 2492621052032 -->
<g id="node13" class="node"><title>2492621052032</title>
<ellipse fill="none" stroke="black" cx="606.811" cy="-522" rx="27" ry="18"/>
<text text-anchor="middle" x="606.811" y="-518.5" font-family="Times New Roman,serif" font-size="15.00">xor</text>
</g>
<!-- 2492456980000&#45;&#45;2492621052032 -->
<g id="edge9" class="edge"><title>2492456980000&#45;&#45;2492621052032</title>
<path fill="none" stroke="black" d="M606.811,-575.697C606.811,-564.846 606.811,-550.917 606.811,-540.104"/>
</g>
<!-- 2492621050928 -->
<g id="node10" class="node"><title>2492621050928</title>
<ellipse fill="none" stroke="black" cx="52.8111" cy="-450" rx="52.6228" ry="18"/>
<text text-anchor="middle" x="52.8111" y="-446.5" font-family="Times New Roman,serif" font-size="15.00">Send Fine</text>
</g>
<!-- 2492621051936&#45;&#45;2492621050928 -->
<g id="edge3" class="edge"><title>2492621051936&#45;&#45;2492621050928</title>
<path fill="none" stroke="black" d="M249.739,-513.376C211.256,-501.186 135.588,-477.219 90.0742,-462.803"/>
</g>
<!-- 2492621052368 -->
<g id="node11" class="node"><title>2492621052368</title>
<ellipse fill="none" stroke="black" cx="169.811" cy="-450" rx="45.7249" ry="18"/>
<text text-anchor="middle" x="169.811" y="-446.5" font-family="Times New Roman,serif" font-size="15.00">Payment</text>
</g>
<!-- 2492621051936&#45;&#45;2492621052368 -->
<g id="edge4" class="edge"><title>2492621051936&#45;&#45;2492621052368</title>
<path fill="none" stroke="black" d="M255.218,-508.485C237.456,-496.531 210.677,-478.506 191.851,-465.834"/>
</g>
<!-- 2492621052704 -->
<g id="node12" class="node"><title>2492621052704</title>
<ellipse fill="none" stroke="black" cx="377.811" cy="-450" rx="144.571" ry="18"/>
<text text-anchor="middle" x="377.811" y="-446.5" font-family="Times New Roman,serif" font-size="15.00">Insert Date Appeal to Prefecture</text>
</g>
<!-- 2492621051936&#45;&#45;2492621052704 -->
<g id="edge5" class="edge"><title>2492621051936&#45;&#45;2492621052704</title>
<path fill="none" stroke="black" d="M292.404,-508.485C309.231,-497.16 334.151,-480.387 352.735,-467.878"/>
</g>
<!-- 2492621052752 -->
<g id="node14" class="node"><title>2492621052752</title>
<ellipse fill="black" stroke="black" cx="542.811" cy="-450" rx="2.7" ry="2.7"/>
</g>
<!-- 2492621052032&#45;&#45;2492621052752 -->
<g id="edge7" class="edge"><title>2492621052032&#45;&#45;2492621052752</title>
<path fill="none" stroke="black" d="M593.238,-506.155C576.8,-488.175 550.52,-459.432 544.207,-452.527"/>
</g>
<!-- 2492621053328 -->
<g id="node15" class="node"><title>2492621053328</title>
<ellipse fill="none" stroke="black" cx="670.811" cy="-450" rx="107.914" ry="18"/>
<text text-anchor="middle" x="670.811" y="-446.5" font-family="Times New Roman,serif" font-size="15.00">Insert Fine Notification</text>
</g>
<!-- 2492621052032&#45;&#45;2492621053328 -->
<g id="edge8" class="edge"><title>2492621052032&#45;&#45;2492621053328</title>
<path fill="none" stroke="black" d="M620.384,-506.155C630.584,-494.998 644.574,-479.696 655.232,-468.04"/>
</g>
<!-- 2492621051024 -->
<g id="node17" class="node"><title>2492621051024</title>
<ellipse fill="black" stroke="black" cx="682.811" cy="-594" rx="2.7" ry="2.7"/>
</g>
<!-- 2492457003952&#45;&#45;2492621051024 -->
<g id="edge12" class="edge"><title>2492457003952&#45;&#45;2492621051024</title>
<path fill="none" stroke="black" d="M682.811,-647.697C682.811,-629.883 682.811,-603.769 682.811,-596.776"/>
</g>
<!-- 2492621053232 -->
<g id="node18" class="node"><title>2492621053232</title>
<ellipse fill="none" stroke="black" cx="868.811" cy="-594" rx="27" ry="18"/>
<text text-anchor="middle" x="868.811" y="-590.5" font-family="Times New Roman,serif" font-size="15.00">and</text>
</g>
<!-- 2492457003952&#45;&#45;2492621053232 -->
<g id="edge37" class="edge"><title>2492457003952&#45;&#45;2492621053232</title>
<path fill="none" stroke="black" d="M705.992,-656.276C741.829,-642.789 810.263,-617.034 845.922,-603.614"/>
</g>
<!-- 2492621053376 -->
<g id="node19" class="node"><title>2492621053376</title>
<ellipse fill="none" stroke="black" cx="868.811" cy="-522" rx="27" ry="18"/>
<text text-anchor="middle" x="868.811" y="-518.5" font-family="Times New Roman,serif" font-size="15.00">xor</text>
</g>
<!-- 2492621053232&#45;&#45;2492621053376 -->
<g id="edge15" class="edge"><title>2492621053232&#45;&#45;2492621053376</title>
<path fill="none" stroke="black" d="M868.811,-575.697C868.811,-564.846 868.811,-550.917 868.811,-540.104"/>
</g>
<!-- 2492621050256 -->
<g id="node22" class="node"><title>2492621050256</title>
<ellipse fill="none" stroke="black" cx="1080.81" cy="-522" rx="27" ry="18"/>
<text text-anchor="middle" x="1080.81" y="-518.5" font-family="Times New Roman,serif" font-size="15.00">xor</text>
</g>
<!-- 2492621053232&#45;&#45;2492621050256 -->
<g id="edge36" class="edge"><title>2492621053232&#45;&#45;2492621050256</title>
<path fill="none" stroke="black" d="M892.718,-585.106C933.543,-571.626 1016.23,-544.325 1056.99,-530.865"/>
</g>
<!-- 2492621050304 -->
<g id="node20" class="node"><title>2492621050304</title>
<ellipse fill="black" stroke="black" cx="798.811" cy="-450" rx="2.7" ry="2.7"/>
</g>
<!-- 2492621053376&#45;&#45;2492621050304 -->
<g id="edge13" class="edge"><title>2492621053376&#45;&#45;2492621050304</title>
<path fill="none" stroke="black" d="M854.307,-506.496C836.367,-488.555 807.333,-459.522 800.355,-452.544"/>
</g>
<!-- 2492621053568 -->
<g id="node21" class="node"><title>2492621053568</title>
<ellipse fill="none" stroke="black" cx="939.811" cy="-450" rx="120.43" ry="18"/>
<text text-anchor="middle" x="939.811" y="-446.5" font-family="Times New Roman,serif" font-size="15.00">Send Appeal to Prefecture</text>
</g>
<!-- 2492621053376&#45;&#45;2492621053568 -->
<g id="edge14" class="edge"><title>2492621053376&#45;&#45;2492621053568</title>
<path fill="none" stroke="black" d="M883.522,-506.496C894.895,-495.283 910.663,-479.737 922.618,-467.951"/>
</g>
<!-- 2492621053712 -->
<g id="node23" class="node"><title>2492621053712</title>
<ellipse fill="black" stroke="black" cx="1080.81" cy="-450" rx="2.7" ry="2.7"/>
</g>
<!-- 2492621050256&#45;&#45;2492621053712 -->
<g id="edge16" class="edge"><title>2492621050256&#45;&#45;2492621053712</title>
<path fill="none" stroke="black" d="M1080.81,-503.697C1080.81,-485.883 1080.81,-459.769 1080.81,-452.776"/>
</g>
<!-- 2492621053664 -->
<g id="node24" class="node"><title>2492621053664</title>
<ellipse fill="none" stroke="black" cx="1128.81" cy="-450" rx="27" ry="18"/>
<text text-anchor="middle" x="1128.81" y="-446.5" font-family="Times New Roman,serif" font-size="15.00">seq</text>
</g>
<!-- 2492621050256&#45;&#45;2492621053664 -->
<g id="edge35" class="edge"><title>2492621050256&#45;&#45;2492621053664</title>
<path fill="none" stroke="black" d="M1091.7,-505.116C1099.56,-493.66 1110.12,-478.263 1117.96,-466.821"/>
</g>
<!-- 2492621051984 -->
<g id="node25" class="node"><title>2492621051984</title>
<ellipse fill="none" stroke="black" cx="1092.81" cy="-378" rx="27" ry="18"/>
<text text-anchor="middle" x="1092.81" y="-374.5" font-family="Times New Roman,serif" font-size="15.00">xor</text>
</g>
<!-- 2492621053664&#45;&#45;2492621051984 -->
<g id="edge31" class="edge"><title>2492621053664&#45;&#45;2492621051984</title>
<path fill="none" stroke="black" d="M1120.46,-432.765C1114.65,-421.456 1106.92,-406.437 1101.12,-395.147"/>
</g>
<!-- 2492621052848 -->
<g id="node40" class="node"><title>2492621052848</title>
<ellipse fill="none" stroke="black" cx="1164.81" cy="-378" rx="27" ry="18"/>
<text text-anchor="middle" x="1164.81" y="-374.5" font-family="Times New Roman,serif" font-size="15.00">xor</text>
</g>
<!-- 2492621053664&#45;&#45;2492621052848 -->
<g id="edge34" class="edge"><title>2492621053664&#45;&#45;2492621052848</title>
<path fill="none" stroke="black" d="M1137.16,-432.765C1142.98,-421.456 1150.7,-406.437 1156.51,-395.147"/>
</g>
<!-- 2492621052656 -->
<g id="node26" class="node"><title>2492621052656</title>
<ellipse fill="black" stroke="black" cx="1050.81" cy="-306" rx="2.7" ry="2.7"/>
</g>
<!-- 2492621051984&#45;&#45;2492621052656 -->
<g id="edge17" class="edge"><title>2492621051984&#45;&#45;2492621052656</title>
<path fill="none" stroke="black" d="M1083.28,-361.116C1072.63,-343.367 1056.31,-316.158 1051.92,-308.857"/>
</g>
<!-- 2492621050832 -->
<g id="node27" class="node"><title>2492621050832</title>
<ellipse fill="none" stroke="black" cx="1098.81" cy="-306" rx="27" ry="18"/>
<text text-anchor="middle" x="1098.81" y="-302.5" font-family="Times New Roman,serif" font-size="15.00">and</text>
</g>
<!-- 2492621051984&#45;&#45;2492621050832 -->
<g id="edge30" class="edge"><title>2492621051984&#45;&#45;2492621050832</title>
<path fill="none" stroke="black" d="M1094.29,-359.697C1095.22,-348.846 1096.42,-334.917 1097.34,-324.104"/>
</g>
<!-- 2492621050688 -->
<g id="node28" class="node"><title>2492621050688</title>
<ellipse fill="none" stroke="black" cx="1057.81" cy="-234" rx="27" ry="18"/>
<text text-anchor="middle" x="1057.81" y="-230.5" font-family="Times New Roman,serif" font-size="15.00">xor</text>
</g>
<!-- 2492621050832&#45;&#45;2492621050688 -->
<g id="edge20" class="edge"><title>2492621050832&#45;&#45;2492621050688</title>
<path fill="none" stroke="black" d="M1089.3,-288.765C1082.68,-277.456 1073.88,-262.437 1067.27,-251.147"/>
</g>
<!-- 2492621023552 -->
<g id="node31" class="node"><title>2492621023552</title>
<ellipse fill="none" stroke="black" cx="1140.81" cy="-234" rx="27" ry="18"/>
<text text-anchor="middle" x="1140.81" y="-230.5" font-family="Times New Roman,serif" font-size="15.00">xor</text>
</g>
<!-- 2492621050832&#45;&#45;2492621023552 -->
<g id="edge29" class="edge"><title>2492621050832&#45;&#45;2492621023552</title>
<path fill="none" stroke="black" d="M1108.34,-289.116C1115.12,-277.821 1124.19,-262.696 1131.03,-251.307"/>
</g>
<!-- 2492621024512 -->
<g id="node29" class="node"><title>2492621024512</title>
<ellipse fill="black" stroke="black" cx="974.811" cy="-162" rx="2.7" ry="2.7"/>
</g>
<!-- 2492621050688&#45;&#45;2492621024512 -->
<g id="edge18" class="edge"><title>2492621050688&#45;&#45;2492621024512</title>
<path fill="none" stroke="black" d="M1041.41,-219.17C1020.25,-201.32 985.13,-171.702 976.681,-164.577"/>
</g>
<!-- 2492621022496 -->
<g id="node30" class="node"><title>2492621022496</title>
<ellipse fill="none" stroke="black" cx="1057.81" cy="-162" rx="61.6894" ry="18"/>
<text text-anchor="middle" x="1057.81" y="-158.5" font-family="Times New Roman,serif" font-size="15.00">Add penalty</text>
</g>
<!-- 2492621050688&#45;&#45;2492621022496 -->
<g id="edge19" class="edge"><title>2492621050688&#45;&#45;2492621022496</title>
<path fill="none" stroke="black" d="M1057.81,-215.697C1057.81,-204.846 1057.81,-190.917 1057.81,-180.104"/>
</g>
<!-- 2492621024368 -->
<g id="node32" class="node"><title>2492621024368</title>
<ellipse fill="black" stroke="black" cx="1140.81" cy="-162" rx="2.7" ry="2.7"/>
</g>
<!-- 2492621023552&#45;&#45;2492621024368 -->
<g id="edge21" class="edge"><title>2492621023552&#45;&#45;2492621024368</title>
<path fill="none" stroke="black" d="M1140.81,-215.697C1140.81,-197.883 1140.81,-171.769 1140.81,-164.776"/>
</g>
<!-- 2492621021728 -->
<g id="node33" class="node"><title>2492621021728</title>
<ellipse fill="none" stroke="black" cx="1188.81" cy="-162" rx="27" ry="18"/>
<text text-anchor="middle" x="1188.81" y="-158.5" font-family="Times New Roman,serif" font-size="15.00">seq</text>
</g>
<!-- 2492621023552&#45;&#45;2492621021728 -->
<g id="edge28" class="edge"><title>2492621023552&#45;&#45;2492621021728</title>
<path fill="none" stroke="black" d="M1151.7,-217.116C1159.56,-205.66 1170.12,-190.263 1177.96,-178.821"/>
</g>
<!-- 2492621023792 -->
<g id="node34" class="node"><title>2492621023792</title>
<ellipse fill="none" stroke="black" cx="1091.81" cy="-90" rx="27" ry="18"/>
<text text-anchor="middle" x="1091.81" y="-86.5" font-family="Times New Roman,serif" font-size="15.00">xor</text>
</g>
<!-- 2492621021728&#45;&#45;2492621023792 -->
<g id="edge24" class="edge"><title>2492621021728&#45;&#45;2492621023792</title>
<path fill="none" stroke="black" d="M1171.02,-148.161C1153.52,-135.531 1126.95,-116.36 1109.49,-103.758"/>
</g>
<!-- 2492621021776 -->
<g id="node37" class="node"><title>2492621021776</title>
<ellipse fill="none" stroke="black" cx="1285.81" cy="-90" rx="27" ry="18"/>
<text text-anchor="middle" x="1285.81" y="-86.5" font-family="Times New Roman,serif" font-size="15.00">xor</text>
</g>
<!-- 2492621021728&#45;&#45;2492621021776 -->
<g id="edge27" class="edge"><title>2492621021728&#45;&#45;2492621021776</title>
<path fill="none" stroke="black" d="M1206.6,-148.161C1224.1,-135.531 1250.67,-116.36 1268.13,-103.758"/>
</g>
<!-- 2492621021488 -->
<g id="node35" class="node"><title>2492621021488</title>
<ellipse fill="black" stroke="black" cx="897.811" cy="-18" rx="2.7" ry="2.7"/>
</g>
<!-- 2492621023792&#45;&#45;2492621021488 -->
<g id="edge22" class="edge"><title>2492621023792&#45;&#45;2492621021488</title>
<path fill="none" stroke="black" d="M1068.41,-80.5564C1020.84,-63.393 915.994,-25.5607 899.901,-19.7542"/>
</g>
<!-- 2492621023120 -->
<g id="node36" class="node"><title>2492621023120</title>
<ellipse fill="none" stroke="black" cx="1091.81" cy="-18" rx="173.941" ry="18"/>
<text text-anchor="middle" x="1091.81" y="-14.5" font-family="Times New Roman,serif" font-size="15.00">Receive Result Appeal from Prefecture</text>
</g>
<!-- 2492621023792&#45;&#45;2492621023120 -->
<g id="edge23" class="edge"><title>2492621023792&#45;&#45;2492621023120</title>
<path fill="none" stroke="black" d="M1091.81,-71.6966C1091.81,-60.8463 1091.81,-46.9167 1091.81,-36.1043"/>
</g>
<!-- 2492619980368 -->
<g id="node38" class="node"><title>2492619980368</title>
<ellipse fill="black" stroke="black" cx="1285.81" cy="-18" rx="2.7" ry="2.7"/>
</g>
<!-- 2492621021776&#45;&#45;2492619980368 -->
<g id="edge25" class="edge"><title>2492621021776&#45;&#45;2492619980368</title>
<path fill="none" stroke="black" d="M1285.81,-71.6966C1285.81,-53.8826 1285.81,-27.7686 1285.81,-20.7764"/>
</g>
<!-- 2492619977488 -->
<g id="node39" class="node"><title>2492619977488</title>
<ellipse fill="none" stroke="black" cx="1454.81" cy="-18" rx="148.91" ry="18"/>
<text text-anchor="middle" x="1454.81" y="-14.5" font-family="Times New Roman,serif" font-size="15.00">Notify Result Appeal to Offender</text>
</g>
<!-- 2492621021776&#45;&#45;2492619977488 -->
<g id="edge26" class="edge"><title>2492621021776&#45;&#45;2492619977488</title>
<path fill="none" stroke="black" d="M1308.25,-79.7045C1335.46,-68.4359 1381.79,-49.2446 1415.09,-35.4544"/>
</g>
<!-- 2492621024320 -->
<g id="node41" class="node"><title>2492621024320</title>
<ellipse fill="black" stroke="black" cx="1158.81" cy="-306" rx="2.7" ry="2.7"/>
</g>
<!-- 2492621052848&#45;&#45;2492621024320 -->
<g id="edge32" class="edge"><title>2492621052848&#45;&#45;2492621024320</title>
<path fill="none" stroke="black" d="M1163.33,-359.697C1161.8,-341.883 1159.56,-315.769 1158.96,-308.776"/>
</g>
<!-- 2492621021680 -->
<g id="node42" class="node"><title>2492621021680</title>
<ellipse fill="none" stroke="black" cx="1300.81" cy="-306" rx="120.819" ry="18"/>
<text text-anchor="middle" x="1300.81" y="-302.5" font-family="Times New Roman,serif" font-size="15.00">Send for Credit Collection</text>
</g>
<!-- 2492621052848&#45;&#45;2492621021680 -->
<g id="edge33" class="edge"><title>2492621052848&#45;&#45;2492621021680</title>
<path fill="none" stroke="black" d="M1185.47,-366.369C1207.61,-354.971 1243.05,-336.729 1268.81,-323.471"/>
</g>
</g>
</svg>
