<?xml version="1.0" encoding="UTF-8" standalone="no"?>
<!DOCTYPE svg PUBLIC "-//W3C//DTD SVG 1.1//EN"
 "http://www.w3.org/Graphics/SVG/1.1/DTD/svg11.dtd">
<!-- Generated by graphviz version 2.38.0 (20140413.2041)
 -->
<!-- Title: pt Pages: 1 -->
<svg width="696pt" height="332pt"
 viewBox="0.00 0.00 695.61 332.00" xmlns="http://www.w3.org/2000/svg" xmlns:xlink="http://www.w3.org/1999/xlink">
<g id="graph0" class="graph" transform="scale(1 1) rotate(0) translate(4 328)">
<title>pt</title>
<!-- 2492452872256 -->
<g id="node1" class="node"><title>2492452872256</title>
<ellipse fill="none" stroke="black" cx="124.7" cy="-306" rx="27" ry="18"/>
<text text-anchor="middle" x="124.7" y="-302.5" font-family="Times New Roman,serif" font-size="15.00">seq</text>
</g>
<!-- 2492452876048 -->
<g id="node2" class="node"><title>2492452876048</title>
<ellipse fill="none" stroke="black" cx="72.7" cy="-234" rx="59.5207" ry="18"/>
<text text-anchor="middle" x="72.7" y="-230.5" font-family="Times New Roman,serif" font-size="15.00">Create Fine</text>
</g>
<!-- 2492452872256&#45;&#45;2492452876048 -->
<g id="edge1" class="edge"><title>2492452872256&#45;&#45;2492452876048</title>
<path fill="none" stroke="black" d="M113.16,-289.465C104.901,-278.348 93.7894,-263.39 85.3002,-251.962"/>
</g>
<!-- 2492452872448 -->
<g id="node3" class="node"><title>2492452872448</title>
<ellipse fill="none" stroke="black" cx="177.7" cy="-234" rx="27" ry="18"/>
<text text-anchor="middle" x="177.7" y="-230.5" font-family="Times New Roman,serif" font-size="15.00">xor</text>
</g>
<!-- 2492452872256&#45;&#45;2492452872448 -->
<g id="edge14" class="edge"><title>2492452872256&#45;&#45;2492452872448</title>
<path fill="none" stroke="black" d="M136.462,-289.465C145.245,-277.865 157.195,-262.082 165.97,-250.492"/>
</g>
<!-- 2492452829504 -->
<g id="node4" class="node"><title>2492452829504</title>
<ellipse fill="none" stroke="black" cx="131.7" cy="-162" rx="45.7249" ry="18"/>
<text text-anchor="middle" x="131.7" y="-158.5" font-family="Times New Roman,serif" font-size="15.00">Payment</text>
</g>
<!-- 2492452872448&#45;&#45;2492452829504 -->
<g id="edge2" class="edge"><title>2492452872448&#45;&#45;2492452829504</title>
<path fill="none" stroke="black" d="M167.262,-217.116C159.946,-205.983 150.183,-191.127 142.738,-179.797"/>
</g>
<!-- 2492452872496 -->
<g id="node5" class="node"><title>2492452872496</title>
<ellipse fill="none" stroke="black" cx="222.7" cy="-162" rx="27" ry="18"/>
<text text-anchor="middle" x="222.7" y="-158.5" font-family="Times New Roman,serif" font-size="15.00">seq</text>
</g>
<!-- 2492452872448&#45;&#45;2492452872496 -->
<g id="edge13" class="edge"><title>2492452872448&#45;&#45;2492452872496</title>
<path fill="none" stroke="black" d="M187.911,-217.116C195.276,-205.66 205.174,-190.263 212.529,-178.821"/>
</g>
<!-- 2492452830080 -->
<g id="node6" class="node"><title>2492452830080</title>
<ellipse fill="none" stroke="black" cx="60.7" cy="-90" rx="52.6228" ry="18"/>
<text text-anchor="middle" x="60.7" y="-86.5" font-family="Times New Roman,serif" font-size="15.00">Send Fine</text>
</g>
<!-- 2492452872496&#45;&#45;2492452830080 -->
<g id="edge3" class="edge"><title>2492452872496&#45;&#45;2492452830080</title>
<path fill="none" stroke="black" d="M200.514,-151.414C172.438,-139.282 123.907,-118.312 92.0522,-104.547"/>
</g>
<!-- 2492452828832 -->
<g id="node7" class="node"><title>2492452828832</title>
<ellipse fill="none" stroke="black" cx="158.7" cy="-90" rx="27" ry="18"/>
<text text-anchor="middle" x="158.7" y="-86.5" font-family="Times New Roman,serif" font-size="15.00">xor</text>
</g>
<!-- 2492452872496&#45;&#45;2492452828832 -->
<g id="edge6" class="edge"><title>2492452872496&#45;&#45;2492452828832</title>
<path fill="none" stroke="black" d="M209.127,-146.155C198.266,-134.276 183.109,-117.697 172.253,-105.824"/>
</g>
<!-- 2492452830848 -->
<g id="node10" class="node"><title>2492452830848</title>
<ellipse fill="none" stroke="black" cx="258.7" cy="-90" rx="27" ry="18"/>
<text text-anchor="middle" x="258.7" y="-86.5" font-family="Times New Roman,serif" font-size="15.00">xor</text>
</g>
<!-- 2492452872496&#45;&#45;2492452830848 -->
<g id="edge9" class="edge"><title>2492452872496&#45;&#45;2492452830848</title>
<path fill="none" stroke="black" d="M231.05,-144.765C236.865,-133.456 244.59,-118.437 250.396,-107.147"/>
</g>
<!-- 2492452830656 -->
<g id="node13" class="node"><title>2492452830656</title>
<ellipse fill="none" stroke="black" cx="424.7" cy="-90" rx="27" ry="18"/>
<text text-anchor="middle" x="424.7" y="-86.5" font-family="Times New Roman,serif" font-size="15.00">xor</text>
</g>
<!-- 2492452872496&#45;&#45;2492452830656 -->
<g id="edge12" class="edge"><title>2492452872496&#45;&#45;2492452830656</title>
<path fill="none" stroke="black" d="M246.267,-152.833C285.191,-139.345 362.458,-112.569 401.283,-99.1149"/>
</g>
<!-- 2492452830896 -->
<g id="node8" class="node"><title>2492452830896</title>
<ellipse fill="black" stroke="black" cx="2.7" cy="-18" rx="2.7" ry="2.7"/>
</g>
<!-- 2492452828832&#45;&#45;2492452830896 -->
<g id="edge4" class="edge"><title>2492452828832&#45;&#45;2492452830896</title>
<path fill="none" stroke="black" d="M137.009,-79.2668C98.1629,-61.8359 19.4188,-26.502 4.99575,-20.0301"/>
</g>
<!-- 2492452831184 -->
<g id="node9" class="node"><title>2492452831184</title>
<ellipse fill="none" stroke="black" cx="130.7" cy="-18" rx="107.914" ry="18"/>
<text text-anchor="middle" x="130.7" y="-14.5" font-family="Times New Roman,serif" font-size="15.00">Insert Fine Notification</text>
</g>
<!-- 2492452828832&#45;&#45;2492452831184 -->
<g id="edge5" class="edge"><title>2492452828832&#45;&#45;2492452831184</title>
<path fill="none" stroke="black" d="M152.064,-72.411C147.73,-61.5758 142.08,-47.4498 137.679,-36.4468"/>
</g>
<!-- 2492452830704 -->
<g id="node11" class="node"><title>2492452830704</title>
<ellipse fill="black" stroke="black" cx="258.7" cy="-18" rx="2.7" ry="2.7"/>
</g>
<!-- 2492452830848&#45;&#45;2492452830704 -->
<g id="edge7" class="edge"><title>2492452830848&#45;&#45;2492452830704</title>
<path fill="none" stroke="black" d="M258.7,-71.6966C258.7,-53.8826 258.7,-27.7686 258.7,-20.7764"/>
</g>
<!-- 2492452829792 -->
<g id="node12" class="node"><title>2492452829792</title>
<ellipse fill="none" stroke="black" cx="341.7" cy="-18" rx="61.6894" ry="18"/>
<text text-anchor="middle" x="341.7" y="-14.5" font-family="Times New Roman,serif" font-size="15.00">Add penalty</text>
</g>
<!-- 2492452830848&#45;&#45;2492452829792 -->
<g id="edge8" class="edge"><title>2492452830848&#45;&#45;2492452829792</title>
<path fill="none" stroke="black" d="M275.098,-75.1703C288.704,-63.6952 308.077,-47.3569 322.423,-35.2574"/>
</g>
<!-- 2492452830176 -->
<g id="node14" class="node"><title>2492452830176</title>
<ellipse fill="black" stroke="black" cx="424.7" cy="-18" rx="2.7" ry="2.7"/>
</g>
<!-- 2492452830656&#45;&#45;2492452830176 -->
<g id="edge10" class="edge"><title>2492452830656&#45;&#45;2492452830176</title>
<path fill="none" stroke="black" d="M424.7,-71.6966C424.7,-53.8826 424.7,-27.7686 424.7,-20.7764"/>
</g>
<!-- 2492452830320 -->
<g id="node15" class="node"><title>2492452830320</title>
<ellipse fill="none" stroke="black" cx="566.7" cy="-18" rx="120.819" ry="18"/>
<text text-anchor="middle" x="566.7" y="-14.5" font-family="Times New Roman,serif" font-size="15.00">Send for Credit Collection</text>
</g>
<!-- 2492452830656&#45;&#45;2492452830320 -->
<g id="edge11" class="edge"><title>2492452830656&#45;&#45;2492452830320</title>
<path fill="none" stroke="black" d="M445.959,-78.5203C469.092,-67.1164 506.384,-48.7333 533.408,-35.4115"/>
</g>
</g>
</svg>
