<?xml version="1.0" encoding="UTF-8" standalone="no"?>
<!DOCTYPE svg PUBLIC "-//W3C//DTD SVG 1.1//EN"
 "http://www.w3.org/Graphics/SVG/1.1/DTD/svg11.dtd">
<!-- Generated by graphviz version 2.38.0 (20140413.2041)
 -->
<!-- Title: pt Pages: 1 -->
<svg width="1413pt" height="548pt"
 viewBox="0.00 0.00 1413.03 548.00" xmlns="http://www.w3.org/2000/svg" xmlns:xlink="http://www.w3.org/1999/xlink">
<g id="graph0" class="graph" transform="scale(1 1) rotate(0) translate(4 544)">
<title>pt</title>
<!-- 2492453095696 -->
<g id="node1" class="node"><title>2492453095696</title>
<ellipse fill="none" stroke="black" cx="451.811" cy="-522" rx="27" ry="18"/>
<text text-anchor="middle" x="451.811" y="-518.5" font-family="Times New Roman,serif" font-size="15.00">and</text>
</g>
<!-- 2492453096320 -->
<g id="node2" class="node"><title>2492453096320</title>
<ellipse fill="none" stroke="black" cx="305.811" cy="-450" rx="27" ry="18"/>
<text text-anchor="middle" x="305.811" y="-446.5" font-family="Times New Roman,serif" font-size="15.00">xor</text>
</g>
<!-- 2492453095696&#45;&#45;2492453096320 -->
<g id="edge18" class="edge"><title>2492453095696&#45;&#45;2492453096320</title>
<path fill="none" stroke="black" d="M430.581,-510.821C402.901,-497.55 354.76,-474.468 327.066,-461.191"/>
</g>
<!-- 2492453095456 -->
<g id="node20" class="node"><title>2492453095456</title>
<ellipse fill="none" stroke="black" cx="597.811" cy="-450" rx="27" ry="18"/>
<text text-anchor="middle" x="597.811" y="-446.5" font-family="Times New Roman,serif" font-size="15.00">seq</text>
</g>
<!-- 2492453095696&#45;&#45;2492453095456 -->
<g id="edge44" class="edge"><title>2492453095696&#45;&#45;2492453095456</title>
<path fill="none" stroke="black" d="M473.041,-510.821C500.721,-497.55 548.863,-474.468 576.556,-461.191"/>
</g>
<!-- 2492453204032 -->
<g id="node3" class="node"><title>2492453204032</title>
<ellipse fill="black" stroke="black" cx="257.811" cy="-378" rx="2.7" ry="2.7"/>
</g>
<!-- 2492453096320&#45;&#45;2492453204032 -->
<g id="edge1" class="edge"><title>2492453096320&#45;&#45;2492453204032</title>
<path fill="none" stroke="black" d="M294.919,-433.116C282.749,-415.367 264.091,-388.158 259.084,-380.857"/>
</g>
<!-- 2492453207248 -->
<g id="node4" class="node"><title>2492453207248</title>
<ellipse fill="none" stroke="black" cx="305.811" cy="-378" rx="27" ry="18"/>
<text text-anchor="middle" x="305.811" y="-374.5" font-family="Times New Roman,serif" font-size="15.00">and</text>
</g>
<!-- 2492453096320&#45;&#45;2492453207248 -->
<g id="edge17" class="edge"><title>2492453096320&#45;&#45;2492453207248</title>
<path fill="none" stroke="black" d="M305.811,-431.697C305.811,-420.846 305.811,-406.917 305.811,-396.104"/>
</g>
<!-- 2492453205088 -->
<g id="node5" class="node"><title>2492453205088</title>
<ellipse fill="none" stroke="black" cx="164.811" cy="-306" rx="46.6143" ry="18"/>
<text text-anchor="middle" x="164.811" y="-302.5" font-family="Times New Roman,serif" font-size="15.00">xor loop</text>
</g>
<!-- 2492453207248&#45;&#45;2492453205088 -->
<g id="edge4" class="edge"><title>2492453207248&#45;&#45;2492453205088</title>
<path fill="none" stroke="black" d="M284.702,-366.52C260.118,-354.316 219.432,-334.117 192.374,-320.684"/>
</g>
<!-- 2492453204704 -->
<g id="node8" class="node"><title>2492453204704</title>
<ellipse fill="none" stroke="black" cx="305.811" cy="-306" rx="27" ry="18"/>
<text text-anchor="middle" x="305.811" y="-302.5" font-family="Times New Roman,serif" font-size="15.00">xor</text>
</g>
<!-- 2492453207248&#45;&#45;2492453204704 -->
<g id="edge16" class="edge"><title>2492453207248&#45;&#45;2492453204704</title>
<path fill="none" stroke="black" d="M305.811,-359.697C305.811,-348.846 305.811,-334.917 305.811,-324.104"/>
</g>
<!-- 2492453205760 -->
<g id="node6" class="node"><title>2492453205760</title>
<ellipse fill="black" stroke="black" cx="97.8111" cy="-234" rx="2.7" ry="2.7"/>
</g>
<!-- 2492453205088&#45;&#45;2492453205760 -->
<g id="edge2" class="edge"><title>2492453205088&#45;&#45;2492453205760</title>
<path fill="none" stroke="black" d="M149.272,-288.765C131.953,-270.671 105.542,-243.078 99.2104,-236.462"/>
</g>
<!-- 2492453205040 -->
<g id="node7" class="node"><title>2492453205040</title>
<ellipse fill="none" stroke="black" cx="164.811" cy="-234" rx="45.7249" ry="18"/>
<text text-anchor="middle" x="164.811" y="-230.5" font-family="Times New Roman,serif" font-size="15.00">Payment</text>
</g>
<!-- 2492453205088&#45;&#45;2492453205040 -->
<g id="edge3" class="edge"><title>2492453205088&#45;&#45;2492453205040</title>
<path fill="none" stroke="black" d="M164.811,-287.697C164.811,-276.846 164.811,-262.917 164.811,-252.104"/>
</g>
<!-- 2492453056960 -->
<g id="node9" class="node"><title>2492453056960</title>
<ellipse fill="black" stroke="black" cx="231.811" cy="-234" rx="2.7" ry="2.7"/>
</g>
<!-- 2492453204704&#45;&#45;2492453056960 -->
<g id="edge5" class="edge"><title>2492453204704&#45;&#45;2492453056960</title>
<path fill="none" stroke="black" d="M290.836,-290.834C271.916,-272.937 240.915,-243.612 233.46,-236.56"/>
</g>
<!-- 2492453057920 -->
<g id="node10" class="node"><title>2492453057920</title>
<ellipse fill="none" stroke="black" cx="305.811" cy="-234" rx="52.6228" ry="18"/>
<text text-anchor="middle" x="305.811" y="-230.5" font-family="Times New Roman,serif" font-size="15.00">Send Fine</text>
</g>
<!-- 2492453204704&#45;&#45;2492453057920 -->
<g id="edge6" class="edge"><title>2492453204704&#45;&#45;2492453057920</title>
<path fill="none" stroke="black" d="M305.811,-287.697C305.811,-276.846 305.811,-262.917 305.811,-252.104"/>
</g>
<!-- 2492453056912 -->
<g id="node11" class="node"><title>2492453056912</title>
<ellipse fill="none" stroke="black" cx="403.811" cy="-234" rx="27" ry="18"/>
<text text-anchor="middle" x="403.811" y="-230.5" font-family="Times New Roman,serif" font-size="15.00">seq</text>
</g>
<!-- 2492453204704&#45;&#45;2492453056912 -->
<g id="edge15" class="edge"><title>2492453204704&#45;&#45;2492453056912</title>
<path fill="none" stroke="black" d="M323.786,-292.161C341.468,-279.531 368.307,-260.36 385.95,-247.758"/>
</g>
<!-- 2492453057296 -->
<g id="node12" class="node"><title>2492453057296</title>
<ellipse fill="none" stroke="black" cx="52.8111" cy="-162" rx="52.6228" ry="18"/>
<text text-anchor="middle" x="52.8111" y="-158.5" font-family="Times New Roman,serif" font-size="15.00">Send Fine</text>
</g>
<!-- 2492453056912&#45;&#45;2492453057296 -->
<g id="edge7" class="edge"><title>2492453056912&#45;&#45;2492453057296</title>
<path fill="none" stroke="black" d="M378.285,-227.909C319.048,-216.096 171.636,-186.697 97.2456,-171.862"/>
</g>
<!-- 2492453056816 -->
<g id="node13" class="node"><title>2492453056816</title>
<ellipse fill="none" stroke="black" cx="231.811" cy="-162" rx="107.914" ry="18"/>
<text text-anchor="middle" x="231.811" y="-158.5" font-family="Times New Roman,serif" font-size="15.00">Insert Fine Notification</text>
</g>
<!-- 2492453056912&#45;&#45;2492453056816 -->
<g id="edge8" class="edge"><title>2492453056912&#45;&#45;2492453056816</title>
<path fill="none" stroke="black" d="M381.325,-223.849C353.279,-212.434 304.87,-192.733 270.746,-178.846"/>
</g>
<!-- 2492453057200 -->
<g id="node14" class="node"><title>2492453057200</title>
<ellipse fill="none" stroke="black" cx="403.811" cy="-162" rx="46.6143" ry="18"/>
<text text-anchor="middle" x="403.811" y="-158.5" font-family="Times New Roman,serif" font-size="15.00">xor loop</text>
</g>
<!-- 2492453056912&#45;&#45;2492453057200 -->
<g id="edge11" class="edge"><title>2492453056912&#45;&#45;2492453057200</title>
<path fill="none" stroke="black" d="M403.811,-215.697C403.811,-204.846 403.811,-190.917 403.811,-180.104"/>
</g>
<!-- 2492453057152 -->
<g id="node17" class="node"><title>2492453057152</title>
<ellipse fill="none" stroke="black" cx="514.811" cy="-162" rx="46.6143" ry="18"/>
<text text-anchor="middle" x="514.811" y="-158.5" font-family="Times New Roman,serif" font-size="15.00">xor loop</text>
</g>
<!-- 2492453056912&#45;&#45;2492453057152 -->
<g id="edge14" class="edge"><title>2492453056912&#45;&#45;2492453057152</title>
<path fill="none" stroke="black" d="M422.893,-220.967C441.86,-209.005 470.988,-190.636 491.357,-177.791"/>
</g>
<!-- 2492453056672 -->
<g id="node15" class="node"><title>2492453056672</title>
<ellipse fill="black" stroke="black" cx="320.811" cy="-90" rx="2.7" ry="2.7"/>
</g>
<!-- 2492453057200&#45;&#45;2492453056672 -->
<g id="edge9" class="edge"><title>2492453057200&#45;&#45;2492453056672</title>
<path fill="none" stroke="black" d="M385.391,-145.465C363.995,-127.42 330.598,-99.254 322.583,-92.4944"/>
</g>
<!-- 2492453057680 -->
<g id="node16" class="node"><title>2492453057680</title>
<ellipse fill="none" stroke="black" cx="403.811" cy="-90" rx="61.6894" ry="18"/>
<text text-anchor="middle" x="403.811" y="-86.5" font-family="Times New Roman,serif" font-size="15.00">Add penalty</text>
</g>
<!-- 2492453057200&#45;&#45;2492453057680 -->
<g id="edge10" class="edge"><title>2492453057200&#45;&#45;2492453057680</title>
<path fill="none" stroke="black" d="M403.811,-143.697C403.811,-132.846 403.811,-118.917 403.811,-108.104"/>
</g>
<!-- 2492453057536 -->
<g id="node18" class="node"><title>2492453057536</title>
<ellipse fill="black" stroke="black" cx="486.811" cy="-90" rx="2.7" ry="2.7"/>
</g>
<!-- 2492453057152&#45;&#45;2492453057536 -->
<g id="edge12" class="edge"><title>2492453057152&#45;&#45;2492453057536</title>
<path fill="none" stroke="black" d="M508.033,-144.055C500.912,-126.252 490.357,-99.8653 487.53,-92.7963"/>
</g>
<!-- 2492453056624 -->
<g id="node19" class="node"><title>2492453056624</title>
<ellipse fill="none" stroke="black" cx="585.811" cy="-90" rx="78.5434" ry="18"/>
<text text-anchor="middle" x="585.811" y="-86.5" font-family="Times New Roman,serif" font-size="15.00">Appeal to Judge</text>
</g>
<!-- 2492453057152&#45;&#45;2492453056624 -->
<g id="edge13" class="edge"><title>2492453057152&#45;&#45;2492453056624</title>
<path fill="none" stroke="black" d="M531.278,-144.765C542.585,-133.618 557.548,-118.865 568.94,-107.633"/>
</g>
<!-- 2492453096560 -->
<g id="node21" class="node"><title>2492453096560</title>
<ellipse fill="none" stroke="black" cx="545.811" cy="-378" rx="59.5207" ry="18"/>
<text text-anchor="middle" x="545.811" y="-374.5" font-family="Times New Roman,serif" font-size="15.00">Create Fine</text>
</g>
<!-- 2492453095456&#45;&#45;2492453096560 -->
<g id="edge19" class="edge"><title>2492453095456&#45;&#45;2492453096560</title>
<path fill="none" stroke="black" d="M586.271,-433.465C578.012,-422.348 566.9,-407.39 558.411,-395.962"/>
</g>
<!-- 2492453096848 -->
<g id="node22" class="node"><title>2492453096848</title>
<ellipse fill="none" stroke="black" cx="650.811" cy="-378" rx="27" ry="18"/>
<text text-anchor="middle" x="650.811" y="-374.5" font-family="Times New Roman,serif" font-size="15.00">and</text>
</g>
<!-- 2492453095456&#45;&#45;2492453096848 -->
<g id="edge40" class="edge"><title>2492453095456&#45;&#45;2492453096848</title>
<path fill="none" stroke="black" d="M609.573,-433.465C618.356,-421.865 630.306,-406.082 639.082,-394.492"/>
</g>
<!-- 2492453095888 -->
<g id="node43" class="node"><title>2492453095888</title>
<ellipse fill="none" stroke="black" cx="756.811" cy="-378" rx="27" ry="18"/>
<text text-anchor="middle" x="756.811" y="-374.5" font-family="Times New Roman,serif" font-size="15.00">xor</text>
</g>
<!-- 2492453095456&#45;&#45;2492453095888 -->
<g id="edge43" class="edge"><title>2492453095456&#45;&#45;2492453095888</title>
<path fill="none" stroke="black" d="M619.919,-439.267C650.297,-425.893 704.612,-401.981 734.891,-388.651"/>
</g>
<!-- 2492453097232 -->
<g id="node23" class="node"><title>2492453097232</title>
<ellipse fill="none" stroke="black" cx="616.811" cy="-306" rx="46.6143" ry="18"/>
<text text-anchor="middle" x="616.811" y="-302.5" font-family="Times New Roman,serif" font-size="15.00">xor loop</text>
</g>
<!-- 2492453096848&#45;&#45;2492453097232 -->
<g id="edge22" class="edge"><title>2492453096848&#45;&#45;2492453097232</title>
<path fill="none" stroke="black" d="M642.925,-360.765C637.589,-349.779 630.553,-335.292 625.128,-324.124"/>
</g>
<!-- 2492453095600 -->
<g id="node26" class="node"><title>2492453095600</title>
<ellipse fill="none" stroke="black" cx="708.811" cy="-306" rx="27" ry="18"/>
<text text-anchor="middle" x="708.811" y="-302.5" font-family="Times New Roman,serif" font-size="15.00">xor</text>
</g>
<!-- 2492453096848&#45;&#45;2492453095600 -->
<g id="edge39" class="edge"><title>2492453096848&#45;&#45;2492453095600</title>
<path fill="none" stroke="black" d="M663.396,-361.811C673.125,-350.07 686.528,-333.893 696.25,-322.159"/>
</g>
<!-- 2492453096080 -->
<g id="node24" class="node"><title>2492453096080</title>
<ellipse fill="black" stroke="black" cx="556.811" cy="-234" rx="2.7" ry="2.7"/>
</g>
<!-- 2492453097232&#45;&#45;2492453096080 -->
<g id="edge20" class="edge"><title>2492453097232&#45;&#45;2492453096080</title>
<path fill="none" stroke="black" d="M602.895,-288.765C587.386,-270.671 563.735,-243.078 558.064,-236.462"/>
</g>
<!-- 2492453095312 -->
<g id="node25" class="node"><title>2492453095312</title>
<ellipse fill="none" stroke="black" cx="623.811" cy="-234" rx="45.7249" ry="18"/>
<text text-anchor="middle" x="623.811" y="-230.5" font-family="Times New Roman,serif" font-size="15.00">Payment</text>
</g>
<!-- 2492453097232&#45;&#45;2492453095312 -->
<g id="edge21" class="edge"><title>2492453097232&#45;&#45;2492453095312</title>
<path fill="none" stroke="black" d="M618.541,-287.697C619.626,-276.846 621.019,-262.917 622.101,-252.104"/>
</g>
<!-- 2492453096032 -->
<g id="node27" class="node"><title>2492453096032</title>
<ellipse fill="black" stroke="black" cx="696.811" cy="-234" rx="2.7" ry="2.7"/>
</g>
<!-- 2492453095600&#45;&#45;2492453096032 -->
<g id="edge23" class="edge"><title>2492453095600&#45;&#45;2492453096032</title>
<path fill="none" stroke="black" d="M705.906,-288.055C702.854,-270.252 698.331,-243.865 697.119,-236.796"/>
</g>
<!-- 2492453207728 -->
<g id="node28" class="node"><title>2492453207728</title>
<ellipse fill="none" stroke="black" cx="770.811" cy="-234" rx="52.6228" ry="18"/>
<text text-anchor="middle" x="770.811" y="-230.5" font-family="Times New Roman,serif" font-size="15.00">Send Fine</text>
</g>
<!-- 2492453095600&#45;&#45;2492453207728 -->
<g id="edge24" class="edge"><title>2492453095600&#45;&#45;2492453207728</title>
<path fill="none" stroke="black" d="M721.96,-290.155C731.913,-278.918 745.59,-263.476 755.941,-251.789"/>
</g>
<!-- 2492453204272 -->
<g id="node29" class="node"><title>2492453204272</title>
<ellipse fill="none" stroke="black" cx="947.811" cy="-234" rx="27" ry="18"/>
<text text-anchor="middle" x="947.811" y="-230.5" font-family="Times New Roman,serif" font-size="15.00">seq</text>
</g>
<!-- 2492453095600&#45;&#45;2492453204272 -->
<g id="edge38" class="edge"><title>2492453095600&#45;&#45;2492453204272</title>
<path fill="none" stroke="black" d="M733.043,-297.903C778.851,-284.486 877.658,-255.547 923.515,-242.116"/>
</g>
<!-- 2492453207200 -->
<g id="node30" class="node"><title>2492453207200</title>
<ellipse fill="none" stroke="black" cx="898.811" cy="-162" rx="52.6228" ry="18"/>
<text text-anchor="middle" x="898.811" y="-158.5" font-family="Times New Roman,serif" font-size="15.00">Send Fine</text>
</g>
<!-- 2492453204272&#45;&#45;2492453207200 -->
<g id="edge25" class="edge"><title>2492453204272&#45;&#45;2492453207200</title>
<path fill="none" stroke="black" d="M936.936,-217.465C929.155,-206.348 918.684,-191.39 910.684,-179.962"/>
</g>
<!-- 2492453206048 -->
<g id="node31" class="node"><title>2492453206048</title>
<ellipse fill="none" stroke="black" cx="996.811" cy="-162" rx="27" ry="18"/>
<text text-anchor="middle" x="996.811" y="-158.5" font-family="Times New Roman,serif" font-size="15.00">seq</text>
</g>
<!-- 2492453204272&#45;&#45;2492453206048 -->
<g id="edge34" class="edge"><title>2492453204272&#45;&#45;2492453206048</title>
<path fill="none" stroke="black" d="M958.686,-217.465C966.806,-205.865 977.854,-190.082 985.967,-178.492"/>
</g>
<!-- 2492453206144 -->
<g id="node40" class="node"><title>2492453206144</title>
<ellipse fill="none" stroke="black" cx="1204.81" cy="-162" rx="46.6143" ry="18"/>
<text text-anchor="middle" x="1204.81" y="-158.5" font-family="Times New Roman,serif" font-size="15.00">xor loop</text>
</g>
<!-- 2492453204272&#45;&#45;2492453206144 -->
<g id="edge37" class="edge"><title>2492453204272&#45;&#45;2492453206144</title>
<path fill="none" stroke="black" d="M972.453,-226.288C1017.81,-213.935 1114.72,-187.539 1167.94,-173.044"/>
</g>
<!-- 2492453206288 -->
<g id="node32" class="node"><title>2492453206288</title>
<ellipse fill="none" stroke="black" cx="789.811" cy="-90" rx="107.914" ry="18"/>
<text text-anchor="middle" x="789.811" y="-86.5" font-family="Times New Roman,serif" font-size="15.00">Insert Fine Notification</text>
</g>
<!-- 2492453206048&#45;&#45;2492453206288 -->
<g id="edge26" class="edge"><title>2492453206048&#45;&#45;2492453206288</title>
<path fill="none" stroke="black" d="M973.066,-152.97C939.614,-141.658 877.959,-120.809 835.466,-106.439"/>
</g>
<!-- 2492453206576 -->
<g id="node33" class="node"><title>2492453206576</title>
<ellipse fill="none" stroke="black" cx="942.811" cy="-90" rx="27" ry="18"/>
<text text-anchor="middle" x="942.811" y="-86.5" font-family="Times New Roman,serif" font-size="15.00">xor</text>
</g>
<!-- 2492453206048&#45;&#45;2492453206576 -->
<g id="edge29" class="edge"><title>2492453206048&#45;&#45;2492453206576</title>
<path fill="none" stroke="black" d="M984.827,-145.465C975.878,-133.865 963.703,-118.082 954.762,-106.492"/>
</g>
<!-- 2492453206768 -->
<g id="node36" class="node"><title>2492453206768</title>
<ellipse fill="none" stroke="black" cx="1049.81" cy="-90" rx="61.6894" ry="18"/>
<text text-anchor="middle" x="1049.81" y="-86.5" font-family="Times New Roman,serif" font-size="15.00">Add penalty</text>
</g>
<!-- 2492453206048&#45;&#45;2492453206768 -->
<g id="edge30" class="edge"><title>2492453206048&#45;&#45;2492453206768</title>
<path fill="none" stroke="black" d="M1008.57,-145.465C1016.99,-134.348 1028.32,-119.39 1036.97,-107.962"/>
</g>
<!-- 2492453205952 -->
<g id="node37" class="node"><title>2492453205952</title>
<ellipse fill="none" stroke="black" cx="1156.81" cy="-90" rx="27" ry="18"/>
<text text-anchor="middle" x="1156.81" y="-86.5" font-family="Times New Roman,serif" font-size="15.00">xor</text>
</g>
<!-- 2492453206048&#45;&#45;2492453205952 -->
<g id="edge33" class="edge"><title>2492453206048&#45;&#45;2492453205952</title>
<path fill="none" stroke="black" d="M1018.72,-151.414C1049.28,-138.046 1104.36,-113.948 1134.91,-100.583"/>
</g>
<!-- 2492453205424 -->
<g id="node34" class="node"><title>2492453205424</title>
<ellipse fill="black" stroke="black" cx="789.811" cy="-18" rx="2.7" ry="2.7"/>
</g>
<!-- 2492453206576&#45;&#45;2492453205424 -->
<g id="edge27" class="edge"><title>2492453206576&#45;&#45;2492453205424</title>
<path fill="none" stroke="black" d="M921.214,-79.1192C882.994,-61.6326 806.128,-26.4652 792.051,-20.025"/>
</g>
<!-- 2492453208016 -->
<g id="node35" class="node"><title>2492453208016</title>
<ellipse fill="none" stroke="black" cx="954.811" cy="-18" rx="144.571" ry="18"/>
<text text-anchor="middle" x="954.811" y="-14.5" font-family="Times New Roman,serif" font-size="15.00">Insert Date Appeal to Prefecture</text>
</g>
<!-- 2492453206576&#45;&#45;2492453208016 -->
<g id="edge28" class="edge"><title>2492453206576&#45;&#45;2492453208016</title>
<path fill="none" stroke="black" d="M945.716,-72.055C947.575,-61.2111 949.98,-47.183 951.85,-36.2753"/>
</g>
<!-- 2492453205280 -->
<g id="node38" class="node"><title>2492453205280</title>
<ellipse fill="black" stroke="black" cx="1143.81" cy="-18" rx="2.7" ry="2.7"/>
</g>
<!-- 2492453205952&#45;&#45;2492453205280 -->
<g id="edge31" class="edge"><title>2492453205952&#45;&#45;2492453205280</title>
<path fill="none" stroke="black" d="M1153.66,-72.055C1150.36,-54.2515 1145.46,-27.8653 1144.14,-20.7963"/>
</g>
<!-- 2492453205520 -->
<g id="node39" class="node"><title>2492453205520</title>
<ellipse fill="none" stroke="black" cx="1284.81" cy="-18" rx="120.43" ry="18"/>
<text text-anchor="middle" x="1284.81" y="-14.5" font-family="Times New Roman,serif" font-size="15.00">Send Appeal to Prefecture</text>
</g>
<!-- 2492453205952&#45;&#45;2492453205520 -->
<g id="edge32" class="edge"><title>2492453205952&#45;&#45;2492453205520</title>
<path fill="none" stroke="black" d="M1177.09,-77.9083C1197.96,-66.4972 1230.7,-48.5914 1254.61,-35.5142"/>
</g>
<!-- 2492453205568 -->
<g id="node41" class="node"><title>2492453205568</title>
<ellipse fill="black" stroke="black" cx="1204.81" cy="-90" rx="2.7" ry="2.7"/>
</g>
<!-- 2492453206144&#45;&#45;2492453205568 -->
<g id="edge35" class="edge"><title>2492453206144&#45;&#45;2492453205568</title>
<path fill="none" stroke="black" d="M1204.81,-143.697C1204.81,-125.883 1204.81,-99.7686 1204.81,-92.7764"/>
</g>
<!-- 2492453204224 -->
<g id="node42" class="node"><title>2492453204224</title>
<ellipse fill="none" stroke="black" cx="1303.81" cy="-90" rx="78.5434" ry="18"/>
<text text-anchor="middle" x="1303.81" y="-86.5" font-family="Times New Roman,serif" font-size="15.00">Appeal to Judge</text>
</g>
<!-- 2492453206144&#45;&#45;2492453204224 -->
<g id="edge36" class="edge"><title>2492453206144&#45;&#45;2492453204224</title>
<path fill="none" stroke="black" d="M1226.29,-145.811C1242.33,-134.472 1264.22,-118.996 1280.64,-107.38"/>
</g>
<!-- 2492453204512 -->
<g id="node44" class="node"><title>2492453204512</title>
<ellipse fill="black" stroke="black" cx="756.811" cy="-306" rx="2.7" ry="2.7"/>
</g>
<!-- 2492453095888&#45;&#45;2492453204512 -->
<g id="edge41" class="edge"><title>2492453095888&#45;&#45;2492453204512</title>
<path fill="none" stroke="black" d="M756.811,-359.697C756.811,-341.883 756.811,-315.769 756.811,-308.776"/>
</g>
<!-- 2492453096896 -->
<g id="node45" class="node"><title>2492453096896</title>
<ellipse fill="none" stroke="black" cx="898.811" cy="-306" rx="120.819" ry="18"/>
<text text-anchor="middle" x="898.811" y="-302.5" font-family="Times New Roman,serif" font-size="15.00">Send for Credit Collection</text>
</g>
<!-- 2492453095888&#45;&#45;2492453096896 -->
<g id="edge42" class="edge"><title>2492453095888&#45;&#45;2492453096896</title>
<path fill="none" stroke="black" d="M778.07,-366.52C801.203,-355.116 838.495,-336.733 865.519,-323.412"/>
</g>
</g>
</svg>
