<?xml version="1.0" encoding="UTF-8" standalone="no"?>
<!DOCTYPE svg PUBLIC "-//W3C//DTD SVG 1.1//EN"
 "http://www.w3.org/Graphics/SVG/1.1/DTD/svg11.dtd">
<!-- Generated by graphviz version 2.38.0 (20140413.2041)
 -->
<!-- Title: pt Pages: 1 -->
<svg width="693pt" height="404pt"
 viewBox="0.00 0.00 693.33 404.00" xmlns="http://www.w3.org/2000/svg" xmlns:xlink="http://www.w3.org/1999/xlink">
<g id="graph0" class="graph" transform="scale(1 1) rotate(0) translate(4 400)">
<title>pt</title>
<!-- 2492454453984 -->
<g id="node1" class="node"><title>2492454453984</title>
<ellipse fill="none" stroke="black" cx="188.811" cy="-378" rx="27" ry="18"/>
<text text-anchor="middle" x="188.811" y="-374.5" font-family="Times New Roman,serif" font-size="15.00">seq</text>
</g>
<!-- 2492454454224 -->
<g id="node2" class="node"><title>2492454454224</title>
<ellipse fill="none" stroke="black" cx="83.8111" cy="-306" rx="59.5207" ry="18"/>
<text text-anchor="middle" x="83.8111" y="-302.5" font-family="Times New Roman,serif" font-size="15.00">Create Fine</text>
</g>
<!-- 2492454453984&#45;&#45;2492454454224 -->
<g id="edge1" class="edge"><title>2492454453984&#45;&#45;2492454454224</title>
<path fill="none" stroke="black" d="M170.039,-364.485C152.461,-352.767 126.134,-335.215 107.198,-322.591"/>
</g>
<!-- 2492454454368 -->
<g id="node3" class="node"><title>2492454454368</title>
<ellipse fill="none" stroke="black" cx="188.811" cy="-306" rx="27" ry="18"/>
<text text-anchor="middle" x="188.811" y="-302.5" font-family="Times New Roman,serif" font-size="15.00">and</text>
</g>
<!-- 2492454453984&#45;&#45;2492454454368 -->
<g id="edge17" class="edge"><title>2492454453984&#45;&#45;2492454454368</title>
<path fill="none" stroke="black" d="M188.811,-359.697C188.811,-348.846 188.811,-334.917 188.811,-324.104"/>
</g>
<!-- 2492454454656 -->
<g id="node19" class="node"><title>2492454454656</title>
<ellipse fill="none" stroke="black" cx="260.811" cy="-306" rx="27" ry="18"/>
<text text-anchor="middle" x="260.811" y="-302.5" font-family="Times New Roman,serif" font-size="15.00">xor</text>
</g>
<!-- 2492454453984&#45;&#45;2492454454656 -->
<g id="edge20" class="edge"><title>2492454453984&#45;&#45;2492454454656</title>
<path fill="none" stroke="black" d="M203.381,-362.834C215.791,-350.77 233.542,-333.512 246.015,-321.385"/>
</g>
<!-- 2492454454608 -->
<g id="node4" class="node"><title>2492454454608</title>
<ellipse fill="none" stroke="black" cx="78.8111" cy="-234" rx="46.6143" ry="18"/>
<text text-anchor="middle" x="78.8111" y="-230.5" font-family="Times New Roman,serif" font-size="15.00">xor loop</text>
</g>
<!-- 2492454454368&#45;&#45;2492454454608 -->
<g id="edge4" class="edge"><title>2492454454368&#45;&#45;2492454454608</title>
<path fill="none" stroke="black" d="M169.651,-292.807C150.815,-280.821 122.047,-262.513 101.946,-249.722"/>
</g>
<!-- 2492454454800 -->
<g id="node7" class="node"><title>2492454454800</title>
<ellipse fill="none" stroke="black" cx="194.811" cy="-234" rx="27" ry="18"/>
<text text-anchor="middle" x="194.811" y="-230.5" font-family="Times New Roman,serif" font-size="15.00">xor</text>
</g>
<!-- 2492454454368&#45;&#45;2492454454800 -->
<g id="edge16" class="edge"><title>2492454454368&#45;&#45;2492454454800</title>
<path fill="none" stroke="black" d="M190.294,-287.697C191.224,-276.846 192.418,-262.917 193.345,-252.104"/>
</g>
<!-- 2492454454848 -->
<g id="node5" class="node"><title>2492454454848</title>
<ellipse fill="black" stroke="black" cx="11.8111" cy="-162" rx="2.7" ry="2.7"/>
</g>
<!-- 2492454454608&#45;&#45;2492454454848 -->
<g id="edge2" class="edge"><title>2492454454608&#45;&#45;2492454454848</title>
<path fill="none" stroke="black" d="M63.2715,-216.765C45.9531,-198.671 19.5425,-171.078 13.2104,-164.462"/>
</g>
<!-- 2492454454704 -->
<g id="node6" class="node"><title>2492454454704</title>
<ellipse fill="none" stroke="black" cx="78.8111" cy="-162" rx="45.7249" ry="18"/>
<text text-anchor="middle" x="78.8111" y="-158.5" font-family="Times New Roman,serif" font-size="15.00">Payment</text>
</g>
<!-- 2492454454608&#45;&#45;2492454454704 -->
<g id="edge3" class="edge"><title>2492454454608&#45;&#45;2492454454704</title>
<path fill="none" stroke="black" d="M78.8111,-215.697C78.8111,-204.846 78.8111,-190.917 78.8111,-180.104"/>
</g>
<!-- 2492454455088 -->
<g id="node8" class="node"><title>2492454455088</title>
<ellipse fill="black" stroke="black" cx="145.811" cy="-162" rx="2.7" ry="2.7"/>
</g>
<!-- 2492454454800&#45;&#45;2492454455088 -->
<g id="edge5" class="edge"><title>2492454454800&#45;&#45;2492454455088</title>
<path fill="none" stroke="black" d="M183.936,-217.465C171.305,-199.42 151.589,-171.254 146.857,-164.494"/>
</g>
<!-- 2492454455184 -->
<g id="node9" class="node"><title>2492454455184</title>
<ellipse fill="none" stroke="black" cx="219.811" cy="-162" rx="52.6228" ry="18"/>
<text text-anchor="middle" x="219.811" y="-158.5" font-family="Times New Roman,serif" font-size="15.00">Send Fine</text>
</g>
<!-- 2492454454800&#45;&#45;2492454455184 -->
<g id="edge6" class="edge"><title>2492454454800&#45;&#45;2492454455184</title>
<path fill="none" stroke="black" d="M200.736,-216.411C204.663,-205.414 209.801,-191.027 213.755,-179.956"/>
</g>
<!-- 2492454455280 -->
<g id="node10" class="node"><title>2492454455280</title>
<ellipse fill="none" stroke="black" cx="317.811" cy="-162" rx="27" ry="18"/>
<text text-anchor="middle" x="317.811" y="-158.5" font-family="Times New Roman,serif" font-size="15.00">seq</text>
</g>
<!-- 2492454454800&#45;&#45;2492454455280 -->
<g id="edge15" class="edge"><title>2492454454800&#45;&#45;2492454455280</title>
<path fill="none" stroke="black" d="M214.847,-221.597C237.719,-208.581 274.915,-187.413 297.784,-174.398"/>
</g>
<!-- 2492454455520 -->
<g id="node11" class="node"><title>2492454455520</title>
<ellipse fill="none" stroke="black" cx="52.8111" cy="-90" rx="52.6228" ry="18"/>
<text text-anchor="middle" x="52.8111" y="-86.5" font-family="Times New Roman,serif" font-size="15.00">Send Fine</text>
</g>
<!-- 2492454455280&#45;&#45;2492454455520 -->
<g id="edge7" class="edge"><title>2492454455280&#45;&#45;2492454455520</title>
<path fill="none" stroke="black" d="M292.88,-154.415C247.012,-142.298 148.866,-116.373 93.3157,-101.699"/>
</g>
<!-- 2492454455616 -->
<g id="node12" class="node"><title>2492454455616</title>
<ellipse fill="none" stroke="black" cx="231.811" cy="-90" rx="107.914" ry="18"/>
<text text-anchor="middle" x="231.811" y="-86.5" font-family="Times New Roman,serif" font-size="15.00">Insert Fine Notification</text>
</g>
<!-- 2492454455280&#45;&#45;2492454455616 -->
<g id="edge8" class="edge"><title>2492454455280&#45;&#45;2492454455616</title>
<path fill="none" stroke="black" d="M301.229,-147.503C287.367,-136.22 267.525,-120.07 252.602,-107.923"/>
</g>
<!-- 2492454455712 -->
<g id="node13" class="node"><title>2492454455712</title>
<ellipse fill="none" stroke="black" cx="403.811" cy="-90" rx="46.6143" ry="18"/>
<text text-anchor="middle" x="403.811" y="-86.5" font-family="Times New Roman,serif" font-size="15.00">xor loop</text>
</g>
<!-- 2492454455280&#45;&#45;2492454455712 -->
<g id="edge11" class="edge"><title>2492454455280&#45;&#45;2492454455712</title>
<path fill="none" stroke="black" d="M334.393,-147.503C348.743,-135.823 369.502,-118.926 384.578,-106.655"/>
</g>
<!-- 2492454455904 -->
<g id="node16" class="node"><title>2492454455904</title>
<ellipse fill="none" stroke="black" cx="514.811" cy="-90" rx="46.6143" ry="18"/>
<text text-anchor="middle" x="514.811" y="-86.5" font-family="Times New Roman,serif" font-size="15.00">xor loop</text>
</g>
<!-- 2492454455280&#45;&#45;2492454455904 -->
<g id="edge14" class="edge"><title>2492454455280&#45;&#45;2492454455904</title>
<path fill="none" stroke="black" d="M341.183,-152.695C376.04,-140.31 441.8,-116.943 481.626,-102.792"/>
</g>
<!-- 2492454455952 -->
<g id="node14" class="node"><title>2492454455952</title>
<ellipse fill="black" stroke="black" cx="327.811" cy="-18" rx="2.7" ry="2.7"/>
</g>
<!-- 2492454455712&#45;&#45;2492454455952 -->
<g id="edge9" class="edge"><title>2492454455712&#45;&#45;2492454455952</title>
<path fill="none" stroke="black" d="M386.565,-73.1159C366.945,-55.0446 336.677,-27.1656 329.416,-20.4782"/>
</g>
<!-- 2492454456048 -->
<g id="node15" class="node"><title>2492454456048</title>
<ellipse fill="none" stroke="black" cx="410.811" cy="-18" rx="61.6894" ry="18"/>
<text text-anchor="middle" x="410.811" y="-14.5" font-family="Times New Roman,serif" font-size="15.00">Add penalty</text>
</g>
<!-- 2492454455712&#45;&#45;2492454456048 -->
<g id="edge10" class="edge"><title>2492454455712&#45;&#45;2492454456048</title>
<path fill="none" stroke="black" d="M405.541,-71.6966C406.626,-60.8463 408.019,-46.9167 409.101,-36.1043"/>
</g>
<!-- 2492454456240 -->
<g id="node17" class="node"><title>2492454456240</title>
<ellipse fill="black" stroke="black" cx="507.811" cy="-18" rx="2.7" ry="2.7"/>
</g>
<!-- 2492454455904&#45;&#45;2492454456240 -->
<g id="edge12" class="edge"><title>2492454455904&#45;&#45;2492454456240</title>
<path fill="none" stroke="black" d="M513.081,-71.6966C511.299,-53.8826 508.688,-27.7686 507.989,-20.7764"/>
</g>
<!-- 2492454456336 -->
<g id="node18" class="node"><title>2492454456336</title>
<ellipse fill="none" stroke="black" cx="606.811" cy="-18" rx="78.5434" ry="18"/>
<text text-anchor="middle" x="606.811" y="-14.5" font-family="Times New Roman,serif" font-size="15.00">Appeal to Judge</text>
</g>
<!-- 2492454455904&#45;&#45;2492454456336 -->
<g id="edge13" class="edge"><title>2492454455904&#45;&#45;2492454456336</title>
<path fill="none" stroke="black" d="M535.229,-73.4647C550.051,-62.1868 570.07,-46.9552 585.168,-35.4672"/>
</g>
<!-- 2492454455424 -->
<g id="node20" class="node"><title>2492454455424</title>
<ellipse fill="black" stroke="black" cx="254.811" cy="-234" rx="2.7" ry="2.7"/>
</g>
<!-- 2492454454656&#45;&#45;2492454455424 -->
<g id="edge18" class="edge"><title>2492454454656&#45;&#45;2492454455424</title>
<path fill="none" stroke="black" d="M259.328,-287.697C257.801,-269.883 255.563,-243.769 254.963,-236.776"/>
</g>
<!-- 2492454455040 -->
<g id="node21" class="node"><title>2492454455040</title>
<ellipse fill="none" stroke="black" cx="396.811" cy="-234" rx="120.819" ry="18"/>
<text text-anchor="middle" x="396.811" y="-230.5" font-family="Times New Roman,serif" font-size="15.00">Send for Credit Collection</text>
</g>
<!-- 2492454454656&#45;&#45;2492454455040 -->
<g id="edge19" class="edge"><title>2492454454656&#45;&#45;2492454455040</title>
<path fill="none" stroke="black" d="M281.467,-294.369C303.61,-282.971 339.051,-264.729 364.81,-251.471"/>
</g>
</g>
</svg>
