<?xml version="1.0" encoding="UTF-8" standalone="no"?>
<!DOCTYPE svg PUBLIC "-//W3C//DTD SVG 1.1//EN"
 "http://www.w3.org/Graphics/SVG/1.1/DTD/svg11.dtd">
<!-- Generated by graphviz version 2.38.0 (20140413.2041)
 -->
<!-- Title: pt Pages: 1 -->
<svg width="1528pt" height="692pt"
 viewBox="0.00 0.00 1527.52 692.00" xmlns="http://www.w3.org/2000/svg" xmlns:xlink="http://www.w3.org/1999/xlink">
<g id="graph0" class="graph" transform="scale(1 1) rotate(0) translate(4 688)">
<title>pt</title>
<!-- 2492631605840 -->
<g id="node1" class="node"><title>2492631605840</title>
<ellipse fill="none" stroke="black" cx="548.811" cy="-666" rx="27" ry="18"/>
<text text-anchor="middle" x="548.811" y="-662.5" font-family="Times New Roman,serif" font-size="15.00">seq</text>
</g>
<!-- 2492647174784 -->
<g id="node2" class="node"><title>2492647174784</title>
<ellipse fill="none" stroke="black" cx="443.811" cy="-594" rx="59.5207" ry="18"/>
<text text-anchor="middle" x="443.811" y="-590.5" font-family="Times New Roman,serif" font-size="15.00">Create Fine</text>
</g>
<!-- 2492631605840&#45;&#45;2492647174784 -->
<g id="edge1" class="edge"><title>2492631605840&#45;&#45;2492647174784</title>
<path fill="none" stroke="black" d="M530.039,-652.485C512.461,-640.767 486.134,-623.215 467.198,-610.591"/>
</g>
<!-- 2492647174688 -->
<g id="node3" class="node"><title>2492647174688</title>
<ellipse fill="none" stroke="black" cx="548.811" cy="-594" rx="27" ry="18"/>
<text text-anchor="middle" x="548.811" y="-590.5" font-family="Times New Roman,serif" font-size="15.00">and</text>
</g>
<!-- 2492631605840&#45;&#45;2492647174688 -->
<g id="edge42" class="edge"><title>2492631605840&#45;&#45;2492647174688</title>
<path fill="none" stroke="black" d="M548.811,-647.697C548.811,-636.846 548.811,-622.917 548.811,-612.104"/>
</g>
<!-- 2492620835952 -->
<g id="node44" class="node"><title>2492620835952</title>
<ellipse fill="none" stroke="black" cx="620.811" cy="-594" rx="27" ry="18"/>
<text text-anchor="middle" x="620.811" y="-590.5" font-family="Times New Roman,serif" font-size="15.00">xor</text>
</g>
<!-- 2492631605840&#45;&#45;2492620835952 -->
<g id="edge45" class="edge"><title>2492631605840&#45;&#45;2492620835952</title>
<path fill="none" stroke="black" d="M563.381,-650.834C575.791,-638.77 593.542,-621.512 606.015,-609.385"/>
</g>
<!-- 2492620835616 -->
<g id="node4" class="node"><title>2492620835616</title>
<ellipse fill="none" stroke="black" cx="305.811" cy="-522" rx="27" ry="18"/>
<text text-anchor="middle" x="305.811" y="-518.5" font-family="Times New Roman,serif" font-size="15.00">and</text>
</g>
<!-- 2492647174688&#45;&#45;2492620835616 -->
<g id="edge17" class="edge"><title>2492647174688&#45;&#45;2492620835616</title>
<path fill="none" stroke="black" d="M524.174,-585.903C477.478,-572.452 376.618,-543.397 330.152,-530.012"/>
</g>
<!-- 2492620835568 -->
<g id="node20" class="node"><title>2492620835568</title>
<ellipse fill="none" stroke="black" cx="554.811" cy="-522" rx="27" ry="18"/>
<text text-anchor="middle" x="554.811" y="-518.5" font-family="Times New Roman,serif" font-size="15.00">xor</text>
</g>
<!-- 2492647174688&#45;&#45;2492620835568 -->
<g id="edge41" class="edge"><title>2492647174688&#45;&#45;2492620835568</title>
<path fill="none" stroke="black" d="M550.294,-575.697C551.224,-564.846 552.418,-550.917 553.345,-540.104"/>
</g>
<!-- 2492631647664 -->
<g id="node5" class="node"><title>2492631647664</title>
<ellipse fill="none" stroke="black" cx="164.811" cy="-450" rx="46.6143" ry="18"/>
<text text-anchor="middle" x="164.811" y="-446.5" font-family="Times New Roman,serif" font-size="15.00">xor loop</text>
</g>
<!-- 2492620835616&#45;&#45;2492631647664 -->
<g id="edge4" class="edge"><title>2492620835616&#45;&#45;2492631647664</title>
<path fill="none" stroke="black" d="M284.702,-510.52C260.118,-498.316 219.432,-478.117 192.374,-464.684"/>
</g>
<!-- 2492623929008 -->
<g id="node8" class="node"><title>2492623929008</title>
<ellipse fill="none" stroke="black" cx="305.811" cy="-450" rx="27" ry="18"/>
<text text-anchor="middle" x="305.811" y="-446.5" font-family="Times New Roman,serif" font-size="15.00">xor</text>
</g>
<!-- 2492620835616&#45;&#45;2492623929008 -->
<g id="edge16" class="edge"><title>2492620835616&#45;&#45;2492623929008</title>
<path fill="none" stroke="black" d="M305.811,-503.697C305.811,-492.846 305.811,-478.917 305.811,-468.104"/>
</g>
<!-- 2492623928240 -->
<g id="node6" class="node"><title>2492623928240</title>
<ellipse fill="black" stroke="black" cx="97.8111" cy="-378" rx="2.7" ry="2.7"/>
</g>
<!-- 2492631647664&#45;&#45;2492623928240 -->
<g id="edge2" class="edge"><title>2492631647664&#45;&#45;2492623928240</title>
<path fill="none" stroke="black" d="M149.272,-432.765C131.953,-414.671 105.542,-387.078 99.2104,-380.462"/>
</g>
<!-- 2492623927040 -->
<g id="node7" class="node"><title>2492623927040</title>
<ellipse fill="none" stroke="black" cx="164.811" cy="-378" rx="45.7249" ry="18"/>
<text text-anchor="middle" x="164.811" y="-374.5" font-family="Times New Roman,serif" font-size="15.00">Payment</text>
</g>
<!-- 2492631647664&#45;&#45;2492623927040 -->
<g id="edge3" class="edge"><title>2492631647664&#45;&#45;2492623927040</title>
<path fill="none" stroke="black" d="M164.811,-431.697C164.811,-420.846 164.811,-406.917 164.811,-396.104"/>
</g>
<!-- 2492623929296 -->
<g id="node9" class="node"><title>2492623929296</title>
<ellipse fill="black" stroke="black" cx="231.811" cy="-378" rx="2.7" ry="2.7"/>
</g>
<!-- 2492623929008&#45;&#45;2492623929296 -->
<g id="edge5" class="edge"><title>2492623929008&#45;&#45;2492623929296</title>
<path fill="none" stroke="black" d="M290.836,-434.834C271.916,-416.937 240.915,-387.612 233.46,-380.56"/>
</g>
<!-- 2492623925840 -->
<g id="node10" class="node"><title>2492623925840</title>
<ellipse fill="none" stroke="black" cx="305.811" cy="-378" rx="52.6228" ry="18"/>
<text text-anchor="middle" x="305.811" y="-374.5" font-family="Times New Roman,serif" font-size="15.00">Send Fine</text>
</g>
<!-- 2492623929008&#45;&#45;2492623925840 -->
<g id="edge6" class="edge"><title>2492623929008&#45;&#45;2492623925840</title>
<path fill="none" stroke="black" d="M305.811,-431.697C305.811,-420.846 305.811,-406.917 305.811,-396.104"/>
</g>
<!-- 2492623928624 -->
<g id="node11" class="node"><title>2492623928624</title>
<ellipse fill="none" stroke="black" cx="403.811" cy="-378" rx="27" ry="18"/>
<text text-anchor="middle" x="403.811" y="-374.5" font-family="Times New Roman,serif" font-size="15.00">seq</text>
</g>
<!-- 2492623929008&#45;&#45;2492623928624 -->
<g id="edge15" class="edge"><title>2492623929008&#45;&#45;2492623928624</title>
<path fill="none" stroke="black" d="M323.786,-436.161C341.468,-423.531 368.307,-404.36 385.95,-391.758"/>
</g>
<!-- 2492623925504 -->
<g id="node12" class="node"><title>2492623925504</title>
<ellipse fill="none" stroke="black" cx="52.8111" cy="-306" rx="52.6228" ry="18"/>
<text text-anchor="middle" x="52.8111" y="-302.5" font-family="Times New Roman,serif" font-size="15.00">Send Fine</text>
</g>
<!-- 2492623928624&#45;&#45;2492623925504 -->
<g id="edge7" class="edge"><title>2492623928624&#45;&#45;2492623925504</title>
<path fill="none" stroke="black" d="M378.285,-371.909C319.048,-360.096 171.636,-330.697 97.2456,-315.862"/>
</g>
<!-- 2492627857472 -->
<g id="node13" class="node"><title>2492627857472</title>
<ellipse fill="none" stroke="black" cx="231.811" cy="-306" rx="107.914" ry="18"/>
<text text-anchor="middle" x="231.811" y="-302.5" font-family="Times New Roman,serif" font-size="15.00">Insert Fine Notification</text>
</g>
<!-- 2492623928624&#45;&#45;2492627857472 -->
<g id="edge8" class="edge"><title>2492623928624&#45;&#45;2492627857472</title>
<path fill="none" stroke="black" d="M381.325,-367.849C353.279,-356.434 304.87,-336.733 270.746,-322.846"/>
</g>
<!-- 2492627858336 -->
<g id="node14" class="node"><title>2492627858336</title>
<ellipse fill="none" stroke="black" cx="403.811" cy="-306" rx="46.6143" ry="18"/>
<text text-anchor="middle" x="403.811" y="-302.5" font-family="Times New Roman,serif" font-size="15.00">xor loop</text>
</g>
<!-- 2492623928624&#45;&#45;2492627858336 -->
<g id="edge11" class="edge"><title>2492623928624&#45;&#45;2492627858336</title>
<path fill="none" stroke="black" d="M403.811,-359.697C403.811,-348.846 403.811,-334.917 403.811,-324.104"/>
</g>
<!-- 2492627860160 -->
<g id="node17" class="node"><title>2492627860160</title>
<ellipse fill="none" stroke="black" cx="514.811" cy="-306" rx="46.6143" ry="18"/>
<text text-anchor="middle" x="514.811" y="-302.5" font-family="Times New Roman,serif" font-size="15.00">xor loop</text>
</g>
<!-- 2492623928624&#45;&#45;2492627860160 -->
<g id="edge14" class="edge"><title>2492623928624&#45;&#45;2492627860160</title>
<path fill="none" stroke="black" d="M422.893,-364.967C441.86,-353.005 470.988,-334.636 491.357,-321.791"/>
</g>
<!-- 2492627858288 -->
<g id="node15" class="node"><title>2492627858288</title>
<ellipse fill="black" stroke="black" cx="327.811" cy="-234" rx="2.7" ry="2.7"/>
</g>
<!-- 2492627858336&#45;&#45;2492627858288 -->
<g id="edge9" class="edge"><title>2492627858336&#45;&#45;2492627858288</title>
<path fill="none" stroke="black" d="M386.565,-289.116C366.945,-271.045 336.677,-243.166 329.416,-236.478"/>
</g>
<!-- 2492627857520 -->
<g id="node16" class="node"><title>2492627857520</title>
<ellipse fill="none" stroke="black" cx="410.811" cy="-234" rx="61.6894" ry="18"/>
<text text-anchor="middle" x="410.811" y="-230.5" font-family="Times New Roman,serif" font-size="15.00">Add penalty</text>
</g>
<!-- 2492627858336&#45;&#45;2492627857520 -->
<g id="edge10" class="edge"><title>2492627858336&#45;&#45;2492627857520</title>
<path fill="none" stroke="black" d="M405.541,-287.697C406.626,-276.846 408.019,-262.917 409.101,-252.104"/>
</g>
<!-- 2492627860256 -->
<g id="node18" class="node"><title>2492627860256</title>
<ellipse fill="black" stroke="black" cx="507.811" cy="-234" rx="2.7" ry="2.7"/>
</g>
<!-- 2492627860160&#45;&#45;2492627860256 -->
<g id="edge12" class="edge"><title>2492627860160&#45;&#45;2492627860256</title>
<path fill="none" stroke="black" d="M513.081,-287.697C511.299,-269.883 508.688,-243.769 507.989,-236.776"/>
</g>
<!-- 2492627858048 -->
<g id="node19" class="node"><title>2492627858048</title>
<ellipse fill="none" stroke="black" cx="606.811" cy="-234" rx="78.5434" ry="18"/>
<text text-anchor="middle" x="606.811" y="-230.5" font-family="Times New Roman,serif" font-size="15.00">Appeal to Judge</text>
</g>
<!-- 2492627860160&#45;&#45;2492627858048 -->
<g id="edge13" class="edge"><title>2492627860160&#45;&#45;2492627858048</title>
<path fill="none" stroke="black" d="M535.229,-289.465C550.051,-278.187 570.07,-262.955 585.168,-251.467"/>
</g>
<!-- 2492620833456 -->
<g id="node21" class="node"><title>2492620833456</title>
<ellipse fill="black" stroke="black" cx="554.811" cy="-450" rx="2.7" ry="2.7"/>
</g>
<!-- 2492620835568&#45;&#45;2492620833456 -->
<g id="edge18" class="edge"><title>2492620835568&#45;&#45;2492620833456</title>
<path fill="none" stroke="black" d="M554.811,-503.697C554.811,-485.883 554.811,-459.769 554.811,-452.776"/>
</g>
<!-- 2492620835376 -->
<g id="node22" class="node"><title>2492620835376</title>
<ellipse fill="none" stroke="black" cx="729.811" cy="-450" rx="27" ry="18"/>
<text text-anchor="middle" x="729.811" y="-446.5" font-family="Times New Roman,serif" font-size="15.00">seq</text>
</g>
<!-- 2492620835568&#45;&#45;2492620835376 -->
<g id="edge40" class="edge"><title>2492620835568&#45;&#45;2492620835376</title>
<path fill="none" stroke="black" d="M577.331,-511.992C610.841,-498.588 673.48,-473.532 707.1,-460.084"/>
</g>
<!-- 2492620835664 -->
<g id="node23" class="node"><title>2492620835664</title>
<ellipse fill="none" stroke="black" cx="680.811" cy="-378" rx="27" ry="18"/>
<text text-anchor="middle" x="680.811" y="-374.5" font-family="Times New Roman,serif" font-size="15.00">xor</text>
</g>
<!-- 2492620835376&#45;&#45;2492620835664 -->
<g id="edge21" class="edge"><title>2492620835376&#45;&#45;2492620835664</title>
<path fill="none" stroke="black" d="M718.936,-433.465C710.816,-421.865 699.768,-406.082 691.655,-394.492"/>
</g>
<!-- 2492620836192 -->
<g id="node26" class="node"><title>2492620836192</title>
<ellipse fill="none" stroke="black" cx="779.811" cy="-378" rx="27" ry="18"/>
<text text-anchor="middle" x="779.811" y="-374.5" font-family="Times New Roman,serif" font-size="15.00">xor</text>
</g>
<!-- 2492620835376&#45;&#45;2492620836192 -->
<g id="edge24" class="edge"><title>2492620835376&#45;&#45;2492620836192</title>
<path fill="none" stroke="black" d="M740.908,-433.465C749.194,-421.865 760.467,-406.082 768.745,-394.492"/>
</g>
<!-- 2492620835808 -->
<g id="node29" class="node"><title>2492620835808</title>
<ellipse fill="none" stroke="black" cx="1134.81" cy="-378" rx="46.6143" ry="18"/>
<text text-anchor="middle" x="1134.81" y="-374.5" font-family="Times New Roman,serif" font-size="15.00">xor loop</text>
</g>
<!-- 2492620835376&#45;&#45;2492620835808 -->
<g id="edge39" class="edge"><title>2492620835376&#45;&#45;2492620835808</title>
<path fill="none" stroke="black" d="M755.762,-444.515C824.112,-432.701 1009.56,-400.648 1093.06,-386.215"/>
</g>
<!-- 2492620833984 -->
<g id="node24" class="node"><title>2492620833984</title>
<ellipse fill="black" stroke="black" cx="581.811" cy="-306" rx="2.7" ry="2.7"/>
</g>
<!-- 2492620835664&#45;&#45;2492620833984 -->
<g id="edge19" class="edge"><title>2492620835664&#45;&#45;2492620833984</title>
<path fill="none" stroke="black" d="M662.653,-364.161C637.198,-346.163 592.96,-314.883 583.587,-308.256"/>
</g>
<!-- 2492620836480 -->
<g id="node25" class="node"><title>2492620836480</title>
<ellipse fill="none" stroke="black" cx="680.811" cy="-306" rx="78.5434" ry="18"/>
<text text-anchor="middle" x="680.811" y="-302.5" font-family="Times New Roman,serif" font-size="15.00">Appeal to Judge</text>
</g>
<!-- 2492620835664&#45;&#45;2492620836480 -->
<g id="edge20" class="edge"><title>2492620835664&#45;&#45;2492620836480</title>
<path fill="none" stroke="black" d="M680.811,-359.697C680.811,-348.846 680.811,-334.917 680.811,-324.104"/>
</g>
<!-- 2492635358688 -->
<g id="node27" class="node"><title>2492635358688</title>
<ellipse fill="black" stroke="black" cx="779.811" cy="-306" rx="2.7" ry="2.7"/>
</g>
<!-- 2492620836192&#45;&#45;2492635358688 -->
<g id="edge22" class="edge"><title>2492620836192&#45;&#45;2492635358688</title>
<path fill="none" stroke="black" d="M779.811,-359.697C779.811,-341.883 779.811,-315.769 779.811,-308.776"/>
</g>
<!-- 2492635358496 -->
<g id="node28" class="node"><title>2492635358496</title>
<ellipse fill="none" stroke="black" cx="944.811" cy="-306" rx="144.571" ry="18"/>
<text text-anchor="middle" x="944.811" y="-302.5" font-family="Times New Roman,serif" font-size="15.00">Insert Date Appeal to Prefecture</text>
</g>
<!-- 2492620836192&#45;&#45;2492635358496 -->
<g id="edge23" class="edge"><title>2492620836192&#45;&#45;2492635358496</title>
<path fill="none" stroke="black" d="M802.064,-367.559C828.717,-356.252 873.817,-337.119 906.196,-323.382"/>
</g>
<!-- 2492631650256 -->
<g id="node30" class="node"><title>2492631650256</title>
<ellipse fill="none" stroke="black" cx="1134.81" cy="-306" rx="27" ry="18"/>
<text text-anchor="middle" x="1134.81" y="-302.5" font-family="Times New Roman,serif" font-size="15.00">seq</text>
</g>
<!-- 2492620835808&#45;&#45;2492631650256 -->
<g id="edge37" class="edge"><title>2492620835808&#45;&#45;2492631650256</title>
<path fill="none" stroke="black" d="M1134.81,-359.697C1134.81,-348.846 1134.81,-334.917 1134.81,-324.104"/>
</g>
<!-- 2492631648720 -->
<g id="node43" class="node"><title>2492631648720</title>
<ellipse fill="black" stroke="black" cx="1182.81" cy="-306" rx="2.7" ry="2.7"/>
</g>
<!-- 2492620835808&#45;&#45;2492631648720 -->
<g id="edge38" class="edge"><title>2492620835808&#45;&#45;2492631648720</title>
<path fill="none" stroke="black" d="M1146.19,-360.411C1158.38,-342.622 1176.67,-315.962 1181.57,-308.816"/>
</g>
<!-- 2492631647472 -->
<g id="node31" class="node"><title>2492631647472</title>
<ellipse fill="none" stroke="black" cx="1098.81" cy="-234" rx="27" ry="18"/>
<text text-anchor="middle" x="1098.81" y="-230.5" font-family="Times New Roman,serif" font-size="15.00">xor</text>
</g>
<!-- 2492631650256&#45;&#45;2492631647472 -->
<g id="edge33" class="edge"><title>2492631650256&#45;&#45;2492631647472</title>
<path fill="none" stroke="black" d="M1126.46,-288.765C1120.65,-277.456 1112.92,-262.437 1107.12,-251.147"/>
</g>
<!-- 2492631647280 -->
<g id="node40" class="node"><title>2492631647280</title>
<ellipse fill="none" stroke="black" cx="1170.81" cy="-234" rx="27" ry="18"/>
<text text-anchor="middle" x="1170.81" y="-230.5" font-family="Times New Roman,serif" font-size="15.00">xor</text>
</g>
<!-- 2492631650256&#45;&#45;2492631647280 -->
<g id="edge36" class="edge"><title>2492631650256&#45;&#45;2492631647280</title>
<path fill="none" stroke="black" d="M1143.16,-288.765C1148.98,-277.456 1156.7,-262.437 1162.51,-251.147"/>
</g>
<!-- 2492631649392 -->
<g id="node32" class="node"><title>2492631649392</title>
<ellipse fill="none" stroke="black" cx="997.811" cy="-162" rx="61.6894" ry="18"/>
<text text-anchor="middle" x="997.811" y="-158.5" font-family="Times New Roman,serif" font-size="15.00">Add penalty</text>
</g>
<!-- 2492631647472&#45;&#45;2492631649392 -->
<g id="edge25" class="edge"><title>2492631647472&#45;&#45;2492631649392</title>
<path fill="none" stroke="black" d="M1080.75,-220.485C1063.96,-208.845 1038.86,-191.451 1020.67,-178.846"/>
</g>
<!-- 2492631650064 -->
<g id="node33" class="node"><title>2492631650064</title>
<ellipse fill="none" stroke="black" cx="1104.81" cy="-162" rx="27" ry="18"/>
<text text-anchor="middle" x="1104.81" y="-158.5" font-family="Times New Roman,serif" font-size="15.00">seq</text>
</g>
<!-- 2492631647472&#45;&#45;2492631650064 -->
<g id="edge32" class="edge"><title>2492631647472&#45;&#45;2492631650064</title>
<path fill="none" stroke="black" d="M1100.29,-215.697C1101.22,-204.846 1102.42,-190.917 1103.34,-180.104"/>
</g>
<!-- 2492631649008 -->
<g id="node34" class="node"><title>2492631649008</title>
<ellipse fill="none" stroke="black" cx="1007.81" cy="-90" rx="27" ry="18"/>
<text text-anchor="middle" x="1007.81" y="-86.5" font-family="Times New Roman,serif" font-size="15.00">xor</text>
</g>
<!-- 2492631650064&#45;&#45;2492631649008 -->
<g id="edge28" class="edge"><title>2492631650064&#45;&#45;2492631649008</title>
<path fill="none" stroke="black" d="M1087.02,-148.161C1069.52,-135.531 1042.95,-116.36 1025.49,-103.758"/>
</g>
<!-- 2492631649680 -->
<g id="node37" class="node"><title>2492631649680</title>
<ellipse fill="none" stroke="black" cx="1201.81" cy="-90" rx="27" ry="18"/>
<text text-anchor="middle" x="1201.81" y="-86.5" font-family="Times New Roman,serif" font-size="15.00">xor</text>
</g>
<!-- 2492631650064&#45;&#45;2492631649680 -->
<g id="edge31" class="edge"><title>2492631650064&#45;&#45;2492631649680</title>
<path fill="none" stroke="black" d="M1122.6,-148.161C1140.1,-135.531 1166.67,-116.36 1184.13,-103.758"/>
</g>
<!-- 2492631647520 -->
<g id="node35" class="node"><title>2492631647520</title>
<ellipse fill="none" stroke="black" cx="695.811" cy="-18" rx="120.43" ry="18"/>
<text text-anchor="middle" x="695.811" y="-14.5" font-family="Times New Roman,serif" font-size="15.00">Send Appeal to Prefecture</text>
</g>
<!-- 2492631649008&#45;&#45;2492631647520 -->
<g id="edge26" class="edge"><title>2492631649008&#45;&#45;2492631647520</title>
<path fill="none" stroke="black" d="M982.543,-83.3309C934.452,-72.5412 828.435,-48.7555 759.662,-33.3256"/>
</g>
<!-- 2492631649728 -->
<g id="node36" class="node"><title>2492631649728</title>
<ellipse fill="none" stroke="black" cx="1007.81" cy="-18" rx="173.941" ry="18"/>
<text text-anchor="middle" x="1007.81" y="-14.5" font-family="Times New Roman,serif" font-size="15.00">Receive Result Appeal from Prefecture</text>
</g>
<!-- 2492631649008&#45;&#45;2492631649728 -->
<g id="edge27" class="edge"><title>2492631649008&#45;&#45;2492631649728</title>
<path fill="none" stroke="black" d="M1007.81,-71.6966C1007.81,-60.8463 1007.81,-46.9167 1007.81,-36.1043"/>
</g>
<!-- 2492631650112 -->
<g id="node38" class="node"><title>2492631650112</title>
<ellipse fill="black" stroke="black" cx="1201.81" cy="-18" rx="2.7" ry="2.7"/>
</g>
<!-- 2492631649680&#45;&#45;2492631650112 -->
<g id="edge29" class="edge"><title>2492631649680&#45;&#45;2492631650112</title>
<path fill="none" stroke="black" d="M1201.81,-71.6966C1201.81,-53.8826 1201.81,-27.7686 1201.81,-20.7764"/>
</g>
<!-- 2492631648432 -->
<g id="node39" class="node"><title>2492631648432</title>
<ellipse fill="none" stroke="black" cx="1370.81" cy="-18" rx="148.91" ry="18"/>
<text text-anchor="middle" x="1370.81" y="-14.5" font-family="Times New Roman,serif" font-size="15.00">Notify Result Appeal to Offender</text>
</g>
<!-- 2492631649680&#45;&#45;2492631648432 -->
<g id="edge30" class="edge"><title>2492631649680&#45;&#45;2492631648432</title>
<path fill="none" stroke="black" d="M1224.25,-79.7045C1251.46,-68.4359 1297.79,-49.2446 1331.09,-35.4544"/>
</g>
<!-- 2492623928192 -->
<g id="node41" class="node"><title>2492623928192</title>
<ellipse fill="black" stroke="black" cx="1164.81" cy="-162" rx="2.7" ry="2.7"/>
</g>
<!-- 2492631647280&#45;&#45;2492623928192 -->
<g id="edge34" class="edge"><title>2492631647280&#45;&#45;2492623928192</title>
<path fill="none" stroke="black" d="M1169.33,-215.697C1167.8,-197.883 1165.56,-171.769 1164.96,-164.776"/>
</g>
<!-- 2492623926800 -->
<g id="node42" class="node"><title>2492623926800</title>
<ellipse fill="none" stroke="black" cx="1306.81" cy="-162" rx="120.819" ry="18"/>
<text text-anchor="middle" x="1306.81" y="-158.5" font-family="Times New Roman,serif" font-size="15.00">Send for Credit Collection</text>
</g>
<!-- 2492631647280&#45;&#45;2492623926800 -->
<g id="edge35" class="edge"><title>2492631647280&#45;&#45;2492623926800</title>
<path fill="none" stroke="black" d="M1191.47,-222.369C1213.61,-210.971 1249.05,-192.729 1274.81,-179.471"/>
</g>
<!-- 2492623928816 -->
<g id="node45" class="node"><title>2492623928816</title>
<ellipse fill="black" stroke="black" cx="614.811" cy="-522" rx="2.7" ry="2.7"/>
</g>
<!-- 2492620835952&#45;&#45;2492623928816 -->
<g id="edge43" class="edge"><title>2492620835952&#45;&#45;2492623928816</title>
<path fill="none" stroke="black" d="M619.328,-575.697C617.801,-557.883 615.563,-531.769 614.963,-524.776"/>
</g>
<!-- 2492627858480 -->
<g id="node46" class="node"><title>2492627858480</title>
<ellipse fill="none" stroke="black" cx="713.811" cy="-522" rx="78.5434" ry="18"/>
<text text-anchor="middle" x="713.811" y="-518.5" font-family="Times New Roman,serif" font-size="15.00">Appeal to Judge</text>
</g>
<!-- 2492620835952&#45;&#45;2492627858480 -->
<g id="edge44" class="edge"><title>2492620835952&#45;&#45;2492627858480</title>
<path fill="none" stroke="black" d="M638.304,-579.834C653.563,-568.348 675.76,-551.641 692.141,-539.311"/>
</g>
</g>
</svg>
