<?xml version="1.0" encoding="UTF-8" standalone="no"?>
<!DOCTYPE svg PUBLIC "-//W3C//DTD SVG 1.1//EN"
 "http://www.w3.org/Graphics/SVG/1.1/DTD/svg11.dtd">
<!-- Generated by graphviz version 2.38.0 (20140413.2041)
 -->
<!-- Title: pt Pages: 1 -->
<svg width="2344pt" height="836pt"
 viewBox="0.00 0.00 2343.67 836.00" xmlns="http://www.w3.org/2000/svg" xmlns:xlink="http://www.w3.org/1999/xlink">
<g id="graph0" class="graph" transform="scale(1 1) rotate(0) translate(4 832)">
<title>pt</title>
<!-- 2492453737712 -->
<g id="node1" class="node"><title>2492453737712</title>
<ellipse fill="none" stroke="black" cx="595.811" cy="-810" rx="27" ry="18"/>
<text text-anchor="middle" x="595.811" y="-806.5" font-family="Times New Roman,serif" font-size="15.00">and</text>
</g>
<!-- 2492635282400 -->
<g id="node2" class="node"><title>2492635282400</title>
<ellipse fill="none" stroke="black" cx="305.811" cy="-738" rx="27" ry="18"/>
<text text-anchor="middle" x="305.811" y="-734.5" font-family="Times New Roman,serif" font-size="15.00">xor</text>
</g>
<!-- 2492453737712&#45;&#45;2492635282400 -->
<g id="edge18" class="edge"><title>2492453737712&#45;&#45;2492635282400</title>
<path fill="none" stroke="black" d="M570.835,-802.971C516.016,-789.739 385.688,-758.281 330.83,-745.039"/>
</g>
<!-- 2492635281584 -->
<g id="node20" class="node"><title>2492635281584</title>
<ellipse fill="none" stroke="black" cx="885.811" cy="-738" rx="27" ry="18"/>
<text text-anchor="middle" x="885.811" y="-734.5" font-family="Times New Roman,serif" font-size="15.00">and</text>
</g>
<!-- 2492453737712&#45;&#45;2492635281584 -->
<g id="edge72" class="edge"><title>2492453737712&#45;&#45;2492635281584</title>
<path fill="none" stroke="black" d="M620.787,-802.971C675.606,-789.739 805.934,-758.281 860.792,-745.039"/>
</g>
<!-- 2492635281440 -->
<g id="node3" class="node"><title>2492635281440</title>
<ellipse fill="black" stroke="black" cx="257.811" cy="-666" rx="2.7" ry="2.7"/>
</g>
<!-- 2492635282400&#45;&#45;2492635281440 -->
<g id="edge1" class="edge"><title>2492635282400&#45;&#45;2492635281440</title>
<path fill="none" stroke="black" d="M294.919,-721.116C282.749,-703.367 264.091,-676.158 259.084,-668.857"/>
</g>
<!-- 2492635282976 -->
<g id="node4" class="node"><title>2492635282976</title>
<ellipse fill="none" stroke="black" cx="305.811" cy="-666" rx="27" ry="18"/>
<text text-anchor="middle" x="305.811" y="-662.5" font-family="Times New Roman,serif" font-size="15.00">and</text>
</g>
<!-- 2492635282400&#45;&#45;2492635282976 -->
<g id="edge17" class="edge"><title>2492635282400&#45;&#45;2492635282976</title>
<path fill="none" stroke="black" d="M305.811,-719.697C305.811,-708.846 305.811,-694.917 305.811,-684.104"/>
</g>
<!-- 2492643454928 -->
<g id="node5" class="node"><title>2492643454928</title>
<ellipse fill="none" stroke="black" cx="164.811" cy="-594" rx="46.6143" ry="18"/>
<text text-anchor="middle" x="164.811" y="-590.5" font-family="Times New Roman,serif" font-size="15.00">xor loop</text>
</g>
<!-- 2492635282976&#45;&#45;2492643454928 -->
<g id="edge4" class="edge"><title>2492635282976&#45;&#45;2492643454928</title>
<path fill="none" stroke="black" d="M284.702,-654.52C260.118,-642.316 219.432,-622.117 192.374,-608.684"/>
</g>
<!-- 2492643451616 -->
<g id="node8" class="node"><title>2492643451616</title>
<ellipse fill="none" stroke="black" cx="305.811" cy="-594" rx="27" ry="18"/>
<text text-anchor="middle" x="305.811" y="-590.5" font-family="Times New Roman,serif" font-size="15.00">xor</text>
</g>
<!-- 2492635282976&#45;&#45;2492643451616 -->
<g id="edge16" class="edge"><title>2492635282976&#45;&#45;2492643451616</title>
<path fill="none" stroke="black" d="M305.811,-647.697C305.811,-636.846 305.811,-622.917 305.811,-612.104"/>
</g>
<!-- 2492643452816 -->
<g id="node6" class="node"><title>2492643452816</title>
<ellipse fill="black" stroke="black" cx="97.8111" cy="-522" rx="2.7" ry="2.7"/>
</g>
<!-- 2492643454928&#45;&#45;2492643452816 -->
<g id="edge2" class="edge"><title>2492643454928&#45;&#45;2492643452816</title>
<path fill="none" stroke="black" d="M149.272,-576.765C131.953,-558.671 105.542,-531.078 99.2104,-524.462"/>
</g>
<!-- 2492643452912 -->
<g id="node7" class="node"><title>2492643452912</title>
<ellipse fill="none" stroke="black" cx="164.811" cy="-522" rx="45.7249" ry="18"/>
<text text-anchor="middle" x="164.811" y="-518.5" font-family="Times New Roman,serif" font-size="15.00">Payment</text>
</g>
<!-- 2492643454928&#45;&#45;2492643452912 -->
<g id="edge3" class="edge"><title>2492643454928&#45;&#45;2492643452912</title>
<path fill="none" stroke="black" d="M164.811,-575.697C164.811,-564.846 164.811,-550.917 164.811,-540.104"/>
</g>
<!-- 2492643453296 -->
<g id="node9" class="node"><title>2492643453296</title>
<ellipse fill="black" stroke="black" cx="231.811" cy="-522" rx="2.7" ry="2.7"/>
</g>
<!-- 2492643451616&#45;&#45;2492643453296 -->
<g id="edge5" class="edge"><title>2492643451616&#45;&#45;2492643453296</title>
<path fill="none" stroke="black" d="M290.836,-578.834C271.916,-560.937 240.915,-531.612 233.46,-524.56"/>
</g>
<!-- 2492643451088 -->
<g id="node10" class="node"><title>2492643451088</title>
<ellipse fill="none" stroke="black" cx="305.811" cy="-522" rx="52.6228" ry="18"/>
<text text-anchor="middle" x="305.811" y="-518.5" font-family="Times New Roman,serif" font-size="15.00">Send Fine</text>
</g>
<!-- 2492643451616&#45;&#45;2492643451088 -->
<g id="edge6" class="edge"><title>2492643451616&#45;&#45;2492643451088</title>
<path fill="none" stroke="black" d="M305.811,-575.697C305.811,-564.846 305.811,-550.917 305.811,-540.104"/>
</g>
<!-- 2492643451184 -->
<g id="node11" class="node"><title>2492643451184</title>
<ellipse fill="none" stroke="black" cx="403.811" cy="-522" rx="27" ry="18"/>
<text text-anchor="middle" x="403.811" y="-518.5" font-family="Times New Roman,serif" font-size="15.00">seq</text>
</g>
<!-- 2492643451616&#45;&#45;2492643451184 -->
<g id="edge15" class="edge"><title>2492643451616&#45;&#45;2492643451184</title>
<path fill="none" stroke="black" d="M323.786,-580.161C341.468,-567.531 368.307,-548.36 385.95,-535.758"/>
</g>
<!-- 2492616407984 -->
<g id="node12" class="node"><title>2492616407984</title>
<ellipse fill="none" stroke="black" cx="52.8111" cy="-450" rx="52.6228" ry="18"/>
<text text-anchor="middle" x="52.8111" y="-446.5" font-family="Times New Roman,serif" font-size="15.00">Send Fine</text>
</g>
<!-- 2492643451184&#45;&#45;2492616407984 -->
<g id="edge7" class="edge"><title>2492643451184&#45;&#45;2492616407984</title>
<path fill="none" stroke="black" d="M378.285,-515.909C319.048,-504.096 171.636,-474.697 97.2456,-459.862"/>
</g>
<!-- 2492616405248 -->
<g id="node13" class="node"><title>2492616405248</title>
<ellipse fill="none" stroke="black" cx="231.811" cy="-450" rx="107.914" ry="18"/>
<text text-anchor="middle" x="231.811" y="-446.5" font-family="Times New Roman,serif" font-size="15.00">Insert Fine Notification</text>
</g>
<!-- 2492643451184&#45;&#45;2492616405248 -->
<g id="edge8" class="edge"><title>2492643451184&#45;&#45;2492616405248</title>
<path fill="none" stroke="black" d="M381.325,-511.849C353.279,-500.434 304.87,-480.733 270.746,-466.846"/>
</g>
<!-- 2492616405488 -->
<g id="node14" class="node"><title>2492616405488</title>
<ellipse fill="none" stroke="black" cx="403.811" cy="-450" rx="46.6143" ry="18"/>
<text text-anchor="middle" x="403.811" y="-446.5" font-family="Times New Roman,serif" font-size="15.00">xor loop</text>
</g>
<!-- 2492643451184&#45;&#45;2492616405488 -->
<g id="edge11" class="edge"><title>2492643451184&#45;&#45;2492616405488</title>
<path fill="none" stroke="black" d="M403.811,-503.697C403.811,-492.846 403.811,-478.917 403.811,-468.104"/>
</g>
<!-- 2492616407600 -->
<g id="node17" class="node"><title>2492616407600</title>
<ellipse fill="none" stroke="black" cx="514.811" cy="-450" rx="46.6143" ry="18"/>
<text text-anchor="middle" x="514.811" y="-446.5" font-family="Times New Roman,serif" font-size="15.00">xor loop</text>
</g>
<!-- 2492643451184&#45;&#45;2492616407600 -->
<g id="edge14" class="edge"><title>2492643451184&#45;&#45;2492616407600</title>
<path fill="none" stroke="black" d="M422.893,-508.967C441.86,-497.005 470.988,-478.636 491.357,-465.791"/>
</g>
<!-- 2492616408128 -->
<g id="node15" class="node"><title>2492616408128</title>
<ellipse fill="black" stroke="black" cx="327.811" cy="-378" rx="2.7" ry="2.7"/>
</g>
<!-- 2492616405488&#45;&#45;2492616408128 -->
<g id="edge9" class="edge"><title>2492616405488&#45;&#45;2492616408128</title>
<path fill="none" stroke="black" d="M386.565,-433.116C366.945,-415.045 336.677,-387.166 329.416,-380.478"/>
</g>
<!-- 2492616407072 -->
<g id="node16" class="node"><title>2492616407072</title>
<ellipse fill="none" stroke="black" cx="410.811" cy="-378" rx="61.6894" ry="18"/>
<text text-anchor="middle" x="410.811" y="-374.5" font-family="Times New Roman,serif" font-size="15.00">Add penalty</text>
</g>
<!-- 2492616405488&#45;&#45;2492616407072 -->
<g id="edge10" class="edge"><title>2492616405488&#45;&#45;2492616407072</title>
<path fill="none" stroke="black" d="M405.541,-431.697C406.626,-420.846 408.019,-406.917 409.101,-396.104"/>
</g>
<!-- 2492616408224 -->
<g id="node18" class="node"><title>2492616408224</title>
<ellipse fill="black" stroke="black" cx="507.811" cy="-378" rx="2.7" ry="2.7"/>
</g>
<!-- 2492616407600&#45;&#45;2492616408224 -->
<g id="edge12" class="edge"><title>2492616407600&#45;&#45;2492616408224</title>
<path fill="none" stroke="black" d="M513.081,-431.697C511.299,-413.883 508.688,-387.769 507.989,-380.776"/>
</g>
<!-- 2492616405968 -->
<g id="node19" class="node"><title>2492616405968</title>
<ellipse fill="none" stroke="black" cx="606.811" cy="-378" rx="78.5434" ry="18"/>
<text text-anchor="middle" x="606.811" y="-374.5" font-family="Times New Roman,serif" font-size="15.00">Appeal to Judge</text>
</g>
<!-- 2492616407600&#45;&#45;2492616405968 -->
<g id="edge13" class="edge"><title>2492616407600&#45;&#45;2492616405968</title>
<path fill="none" stroke="black" d="M535.229,-433.465C550.051,-422.187 570.07,-406.955 585.168,-395.467"/>
</g>
<!-- 2492635282112 -->
<g id="node21" class="node"><title>2492635282112</title>
<ellipse fill="none" stroke="black" cx="885.811" cy="-666" rx="27" ry="18"/>
<text text-anchor="middle" x="885.811" y="-662.5" font-family="Times New Roman,serif" font-size="15.00">xor</text>
</g>
<!-- 2492635281584&#45;&#45;2492635282112 -->
<g id="edge33" class="edge"><title>2492635281584&#45;&#45;2492635282112</title>
<path fill="none" stroke="black" d="M885.811,-719.697C885.811,-708.846 885.811,-694.917 885.811,-684.104"/>
</g>
<!-- 2492635281200 -->
<g id="node36" class="node"><title>2492635281200</title>
<ellipse fill="none" stroke="black" cx="1116.81" cy="-666" rx="27" ry="18"/>
<text text-anchor="middle" x="1116.81" y="-662.5" font-family="Times New Roman,serif" font-size="15.00">seq</text>
</g>
<!-- 2492635281584&#45;&#45;2492635281200 -->
<g id="edge71" class="edge"><title>2492635281584&#45;&#45;2492635281200</title>
<path fill="none" stroke="black" d="M910.095,-729.641C954.461,-716.197 1048.12,-687.814 1092.51,-674.365"/>
</g>
<!-- 2492635283264 -->
<g id="node22" class="node"><title>2492635283264</title>
<ellipse fill="black" stroke="black" cx="861.811" cy="-594" rx="2.7" ry="2.7"/>
</g>
<!-- 2492635282112&#45;&#45;2492635283264 -->
<g id="edge19" class="edge"><title>2492635282112&#45;&#45;2492635283264</title>
<path fill="none" stroke="black" d="M880.001,-648.055C873.897,-630.252 864.851,-603.865 862.427,-596.796"/>
</g>
<!-- 2492635282592 -->
<g id="node23" class="node"><title>2492635282592</title>
<ellipse fill="none" stroke="black" cx="909.811" cy="-594" rx="27" ry="18"/>
<text text-anchor="middle" x="909.811" y="-590.5" font-family="Times New Roman,serif" font-size="15.00">seq</text>
</g>
<!-- 2492635282112&#45;&#45;2492635282592 -->
<g id="edge32" class="edge"><title>2492635282112&#45;&#45;2492635282592</title>
<path fill="none" stroke="black" d="M891.621,-648.055C895.394,-637.049 900.292,-622.764 904.055,-611.789"/>
</g>
<!-- 2492643452960 -->
<g id="node24" class="node"><title>2492643452960</title>
<ellipse fill="none" stroke="black" cx="581.811" cy="-522" rx="27" ry="18"/>
<text text-anchor="middle" x="581.811" y="-518.5" font-family="Times New Roman,serif" font-size="15.00">xor</text>
</g>
<!-- 2492635282592&#45;&#45;2492643452960 -->
<g id="edge22" class="edge"><title>2492635282592&#45;&#45;2492643452960</title>
<path fill="none" stroke="black" d="M884.346,-587.565C823.236,-574.524 668.809,-541.567 607.486,-528.479"/>
</g>
<!-- 2492643454016 -->
<g id="node27" class="node"><title>2492643454016</title>
<ellipse fill="none" stroke="black" cx="679.811" cy="-522" rx="52.6228" ry="18"/>
<text text-anchor="middle" x="679.811" y="-518.5" font-family="Times New Roman,serif" font-size="15.00">Send Fine</text>
</g>
<!-- 2492635282592&#45;&#45;2492643454016 -->
<g id="edge23" class="edge"><title>2492635282592&#45;&#45;2492643454016</title>
<path fill="none" stroke="black" d="M885.632,-585.641C845.726,-573.496 765.761,-549.159 718.104,-534.654"/>
</g>
<!-- 2492643453824 -->
<g id="node28" class="node"><title>2492643453824</title>
<ellipse fill="none" stroke="black" cx="858.811" cy="-522" rx="107.914" ry="18"/>
<text text-anchor="middle" x="858.811" y="-518.5" font-family="Times New Roman,serif" font-size="15.00">Insert Fine Notification</text>
</g>
<!-- 2492635282592&#45;&#45;2492643453824 -->
<g id="edge24" class="edge"><title>2492635282592&#45;&#45;2492643453824</title>
<path fill="none" stroke="black" d="M898.493,-577.465C890.393,-566.348 879.495,-551.39 871.169,-539.962"/>
</g>
<!-- 2492643452240 -->
<g id="node29" class="node"><title>2492643452240</title>
<ellipse fill="none" stroke="black" cx="1011.81" cy="-522" rx="27" ry="18"/>
<text text-anchor="middle" x="1011.81" y="-518.5" font-family="Times New Roman,serif" font-size="15.00">xor</text>
</g>
<!-- 2492635282592&#45;&#45;2492643452240 -->
<g id="edge27" class="edge"><title>2492635282592&#45;&#45;2492643452240</title>
<path fill="none" stroke="black" d="M928.047,-580.485C946.613,-567.744 975.225,-548.108 993.733,-535.406"/>
</g>
<!-- 2492643453488 -->
<g id="node32" class="node"><title>2492643453488</title>
<ellipse fill="none" stroke="black" cx="1118.81" cy="-522" rx="61.6894" ry="18"/>
<text text-anchor="middle" x="1118.81" y="-518.5" font-family="Times New Roman,serif" font-size="15.00">Add penalty</text>
</g>
<!-- 2492635282592&#45;&#45;2492643453488 -->
<g id="edge28" class="edge"><title>2492635282592&#45;&#45;2492643453488</title>
<path fill="none" stroke="black" d="M933.38,-585.106C968.929,-573.2 1036.68,-550.509 1079.7,-536.099"/>
</g>
<!-- 2492643451856 -->
<g id="node33" class="node"><title>2492643451856</title>
<ellipse fill="none" stroke="black" cx="1225.81" cy="-522" rx="27" ry="18"/>
<text text-anchor="middle" x="1225.81" y="-518.5" font-family="Times New Roman,serif" font-size="15.00">xor</text>
</g>
<!-- 2492635282592&#45;&#45;2492643451856 -->
<g id="edge31" class="edge"><title>2492635282592&#45;&#45;2492643451856</title>
<path fill="none" stroke="black" d="M935.136,-587.39C994.305,-574.283 1141.08,-541.77 1200.37,-528.637"/>
</g>
<!-- 2492643452480 -->
<g id="node25" class="node"><title>2492643452480</title>
<ellipse fill="black" stroke="black" cx="581.811" cy="-450" rx="2.7" ry="2.7"/>
</g>
<!-- 2492643452960&#45;&#45;2492643452480 -->
<g id="edge20" class="edge"><title>2492643452960&#45;&#45;2492643452480</title>
<path fill="none" stroke="black" d="M581.811,-503.697C581.811,-485.883 581.811,-459.769 581.811,-452.776"/>
</g>
<!-- 2492643454352 -->
<g id="node26" class="node"><title>2492643454352</title>
<ellipse fill="none" stroke="black" cx="661.811" cy="-450" rx="59.5207" ry="18"/>
<text text-anchor="middle" x="661.811" y="-446.5" font-family="Times New Roman,serif" font-size="15.00">Create Fine</text>
</g>
<!-- 2492643452960&#45;&#45;2492643454352 -->
<g id="edge21" class="edge"><title>2492643452960&#45;&#45;2492643454352</title>
<path fill="none" stroke="black" d="M597.616,-507.17C610.731,-495.695 629.403,-479.357 643.231,-467.257"/>
</g>
<!-- 2492643452288 -->
<g id="node30" class="node"><title>2492643452288</title>
<ellipse fill="black" stroke="black" cx="936.811" cy="-450" rx="2.7" ry="2.7"/>
</g>
<!-- 2492643452240&#45;&#45;2492643452288 -->
<g id="edge25" class="edge"><title>2492643452240&#45;&#45;2492643452288</title>
<path fill="none" stroke="black" d="M996.634,-506.834C977.458,-488.937 946.038,-459.612 938.483,-452.56"/>
</g>
<!-- 2492643451664 -->
<g id="node31" class="node"><title>2492643451664</title>
<ellipse fill="none" stroke="black" cx="1035.81" cy="-450" rx="78.5434" ry="18"/>
<text text-anchor="middle" x="1035.81" y="-446.5" font-family="Times New Roman,serif" font-size="15.00">Appeal to Judge</text>
</g>
<!-- 2492643452240&#45;&#45;2492643451664 -->
<g id="edge26" class="edge"><title>2492643452240&#45;&#45;2492643451664</title>
<path fill="none" stroke="black" d="M1017.62,-504.055C1021.34,-493.211 1026.15,-479.183 1029.89,-468.275"/>
</g>
<!-- 2492643450992 -->
<g id="node34" class="node"><title>2492643450992</title>
<ellipse fill="black" stroke="black" cx="1159.81" cy="-450" rx="2.7" ry="2.7"/>
</g>
<!-- 2492643451856&#45;&#45;2492643450992 -->
<g id="edge29" class="edge"><title>2492643451856&#45;&#45;2492643450992</title>
<path fill="none" stroke="black" d="M1211.81,-506.155C1194.86,-488.175 1167.76,-459.432 1161.25,-452.527"/>
</g>
<!-- 2492643451136 -->
<g id="node35" class="node"><title>2492643451136</title>
<ellipse fill="none" stroke="black" cx="1226.81" cy="-450" rx="45.7249" ry="18"/>
<text text-anchor="middle" x="1226.81" y="-446.5" font-family="Times New Roman,serif" font-size="15.00">Payment</text>
</g>
<!-- 2492643451856&#45;&#45;2492643451136 -->
<g id="edge30" class="edge"><title>2492643451856&#45;&#45;2492643451136</title>
<path fill="none" stroke="black" d="M1226.06,-503.697C1226.21,-492.846 1226.41,-478.917 1226.57,-468.104"/>
</g>
<!-- 2492635281968 -->
<g id="node37" class="node"><title>2492635281968</title>
<ellipse fill="none" stroke="black" cx="1116.81" cy="-594" rx="59.5207" ry="18"/>
<text text-anchor="middle" x="1116.81" y="-590.5" font-family="Times New Roman,serif" font-size="15.00">Create Fine</text>
</g>
<!-- 2492635281200&#45;&#45;2492635281968 -->
<g id="edge34" class="edge"><title>2492635281200&#45;&#45;2492635281968</title>
<path fill="none" stroke="black" d="M1116.81,-647.697C1116.81,-636.846 1116.81,-622.917 1116.81,-612.104"/>
</g>
<!-- 2492635283120 -->
<g id="node38" class="node"><title>2492635283120</title>
<ellipse fill="none" stroke="black" cx="1273.81" cy="-594" rx="27" ry="18"/>
<text text-anchor="middle" x="1273.81" y="-590.5" font-family="Times New Roman,serif" font-size="15.00">xor</text>
</g>
<!-- 2492635281200&#45;&#45;2492635283120 -->
<g id="edge70" class="edge"><title>2492635281200&#45;&#45;2492635283120</title>
<path fill="none" stroke="black" d="M1138.64,-655.267C1168.55,-641.931 1221.97,-618.115 1251.91,-604.763"/>
</g>
<!-- 2492635282496 -->
<g id="node39" class="node"><title>2492635282496</title>
<ellipse fill="black" stroke="black" cx="1273.81" cy="-522" rx="2.7" ry="2.7"/>
</g>
<!-- 2492635283120&#45;&#45;2492635282496 -->
<g id="edge35" class="edge"><title>2492635283120&#45;&#45;2492635282496</title>
<path fill="none" stroke="black" d="M1273.81,-575.697C1273.81,-557.883 1273.81,-531.769 1273.81,-524.776"/>
</g>
<!-- 2492635282784 -->
<g id="node40" class="node"><title>2492635282784</title>
<ellipse fill="none" stroke="black" cx="1321.81" cy="-522" rx="27" ry="18"/>
<text text-anchor="middle" x="1321.81" y="-518.5" font-family="Times New Roman,serif" font-size="15.00">seq</text>
</g>
<!-- 2492635283120&#45;&#45;2492635282784 -->
<g id="edge69" class="edge"><title>2492635283120&#45;&#45;2492635282784</title>
<path fill="none" stroke="black" d="M1284.7,-577.116C1292.56,-565.66 1303.12,-550.263 1310.96,-538.821"/>
</g>
<!-- 2492635282736 -->
<g id="node41" class="node"><title>2492635282736</title>
<ellipse fill="none" stroke="black" cx="1319.81" cy="-450" rx="27" ry="18"/>
<text text-anchor="middle" x="1319.81" y="-446.5" font-family="Times New Roman,serif" font-size="15.00">xor</text>
</g>
<!-- 2492635282784&#45;&#45;2492635282736 -->
<g id="edge65" class="edge"><title>2492635282784&#45;&#45;2492635282736</title>
<path fill="none" stroke="black" d="M1321.32,-503.697C1321.01,-492.846 1320.61,-478.917 1320.3,-468.104"/>
</g>
<!-- 2492635282688 -->
<g id="node71" class="node"><title>2492635282688</title>
<ellipse fill="none" stroke="black" cx="1391.81" cy="-450" rx="27" ry="18"/>
<text text-anchor="middle" x="1391.81" y="-446.5" font-family="Times New Roman,serif" font-size="15.00">xor</text>
</g>
<!-- 2492635282784&#45;&#45;2492635282688 -->
<g id="edge68" class="edge"><title>2492635282784&#45;&#45;2492635282688</title>
<path fill="none" stroke="black" d="M1336.32,-506.496C1348.33,-494.482 1365.32,-477.494 1377.33,-465.485"/>
</g>
<!-- 2492640406256 -->
<g id="node42" class="node"><title>2492640406256</title>
<ellipse fill="black" stroke="black" cx="1253.81" cy="-378" rx="2.7" ry="2.7"/>
</g>
<!-- 2492635282736&#45;&#45;2492640406256 -->
<g id="edge36" class="edge"><title>2492635282736&#45;&#45;2492640406256</title>
<path fill="none" stroke="black" d="M1305.81,-434.155C1288.86,-416.175 1261.76,-387.432 1255.25,-380.527"/>
</g>
<!-- 2492640406784 -->
<g id="node43" class="node"><title>2492640406784</title>
<ellipse fill="none" stroke="black" cx="1320.81" cy="-378" rx="46.6143" ry="18"/>
<text text-anchor="middle" x="1320.81" y="-374.5" font-family="Times New Roman,serif" font-size="15.00">xor loop</text>
</g>
<!-- 2492635282736&#45;&#45;2492640406784 -->
<g id="edge64" class="edge"><title>2492635282736&#45;&#45;2492640406784</title>
<path fill="none" stroke="black" d="M1320.06,-431.697C1320.21,-420.846 1320.41,-406.917 1320.57,-396.104"/>
</g>
<!-- 2492640404336 -->
<g id="node44" class="node"><title>2492640404336</title>
<ellipse fill="none" stroke="black" cx="1296.81" cy="-306" rx="27" ry="18"/>
<text text-anchor="middle" x="1296.81" y="-302.5" font-family="Times New Roman,serif" font-size="15.00">seq</text>
</g>
<!-- 2492640406784&#45;&#45;2492640404336 -->
<g id="edge62" class="edge"><title>2492640406784&#45;&#45;2492640404336</title>
<path fill="none" stroke="black" d="M1315,-360.055C1311.23,-349.049 1306.33,-334.764 1302.57,-323.789"/>
</g>
<!-- 2492640407120 -->
<g id="node70" class="node"><title>2492640407120</title>
<ellipse fill="black" stroke="black" cx="1344.81" cy="-306" rx="2.7" ry="2.7"/>
</g>
<!-- 2492640406784&#45;&#45;2492640407120 -->
<g id="edge63" class="edge"><title>2492640406784&#45;&#45;2492640407120</title>
<path fill="none" stroke="black" d="M1326.62,-360.055C1332.72,-342.252 1341.77,-315.865 1344.2,-308.796"/>
</g>
<!-- 2492611705440 -->
<g id="node45" class="node"><title>2492611705440</title>
<ellipse fill="none" stroke="black" cx="788.811" cy="-234" rx="27" ry="18"/>
<text text-anchor="middle" x="788.811" y="-230.5" font-family="Times New Roman,serif" font-size="15.00">xor</text>
</g>
<!-- 2492640404336&#45;&#45;2492611705440 -->
<g id="edge39" class="edge"><title>2492640404336&#45;&#45;2492611705440</title>
<path fill="none" stroke="black" d="M1270.57,-301.384C1183.2,-289.346 902.783,-250.705 815.202,-238.636"/>
</g>
<!-- 2492611703616 -->
<g id="node48" class="node"><title>2492611703616</title>
<ellipse fill="none" stroke="black" cx="990.811" cy="-234" rx="27" ry="18"/>
<text text-anchor="middle" x="990.811" y="-230.5" font-family="Times New Roman,serif" font-size="15.00">xor</text>
</g>
<!-- 2492640404336&#45;&#45;2492611703616 -->
<g id="edge42" class="edge"><title>2492640404336&#45;&#45;2492611703616</title>
<path fill="none" stroke="black" d="M1271.51,-299.212C1213.95,-286.044 1073.73,-253.969 1016.14,-240.795"/>
</g>
<!-- 2492611705536 -->
<g id="node51" class="node"><title>2492611705536</title>
<ellipse fill="none" stroke="black" cx="1166.81" cy="-234" rx="27" ry="18"/>
<text text-anchor="middle" x="1166.81" y="-230.5" font-family="Times New Roman,serif" font-size="15.00">xor</text>
</g>
<!-- 2492640404336&#45;&#45;2492611705536 -->
<g id="edge49" class="edge"><title>2492640404336&#45;&#45;2492611705536</title>
<path fill="none" stroke="black" d="M1276.5,-294.063C1252.22,-280.989 1211.82,-259.233 1187.41,-246.092"/>
</g>
<!-- 2492611706400 -->
<g id="node58" class="node"><title>2492611706400</title>
<ellipse fill="none" stroke="black" cx="1296.81" cy="-234" rx="27" ry="18"/>
<text text-anchor="middle" x="1296.81" y="-230.5" font-family="Times New Roman,serif" font-size="15.00">xor</text>
</g>
<!-- 2492640404336&#45;&#45;2492611706400 -->
<g id="edge52" class="edge"><title>2492640404336&#45;&#45;2492611706400</title>
<path fill="none" stroke="black" d="M1296.81,-287.697C1296.81,-276.846 1296.81,-262.917 1296.81,-252.104"/>
</g>
<!-- 2492611704336 -->
<g id="node61" class="node"><title>2492611704336</title>
<ellipse fill="none" stroke="black" cx="1496.81" cy="-234" rx="27" ry="18"/>
<text text-anchor="middle" x="1496.81" y="-230.5" font-family="Times New Roman,serif" font-size="15.00">xor</text>
</g>
<!-- 2492640404336&#45;&#45;2492611704336 -->
<g id="edge55" class="edge"><title>2492640404336&#45;&#45;2492611704336</title>
<path fill="none" stroke="black" d="M1320.15,-296.833C1358.58,-283.381 1434.78,-256.712 1473.32,-243.223"/>
</g>
<!-- 2492611705872 -->
<g id="node64" class="node"><title>2492611705872</title>
<ellipse fill="none" stroke="black" cx="1884.81" cy="-234" rx="27" ry="18"/>
<text text-anchor="middle" x="1884.81" y="-230.5" font-family="Times New Roman,serif" font-size="15.00">xor</text>
</g>
<!-- 2492640404336&#45;&#45;2492611705872 -->
<g id="edge58" class="edge"><title>2492640404336&#45;&#45;2492611705872</title>
<path fill="none" stroke="black" d="M1323.22,-301.856C1420.87,-290.231 1760.94,-249.746 1858.48,-238.135"/>
</g>
<!-- 2492643454688 -->
<g id="node67" class="node"><title>2492643454688</title>
<ellipse fill="none" stroke="black" cx="2222.81" cy="-234" rx="27" ry="18"/>
<text text-anchor="middle" x="2222.81" y="-230.5" font-family="Times New Roman,serif" font-size="15.00">xor</text>
</g>
<!-- 2492640404336&#45;&#45;2492643454688 -->
<g id="edge61" class="edge"><title>2492640404336&#45;&#45;2492643454688</title>
<path fill="none" stroke="black" d="M1323.53,-302.981C1458.15,-292.803 2061.11,-247.224 2195.99,-237.028"/>
</g>
<!-- 2492611703952 -->
<g id="node46" class="node"><title>2492611703952</title>
<ellipse fill="black" stroke="black" cx="714.811" cy="-162" rx="2.7" ry="2.7"/>
</g>
<!-- 2492611705440&#45;&#45;2492611703952 -->
<g id="edge37" class="edge"><title>2492611705440&#45;&#45;2492611703952</title>
<path fill="none" stroke="black" d="M773.836,-218.834C754.916,-200.937 723.915,-171.612 716.46,-164.56"/>
</g>
<!-- 2492611706208 -->
<g id="node47" class="node"><title>2492611706208</title>
<ellipse fill="none" stroke="black" cx="788.811" cy="-162" rx="52.6228" ry="18"/>
<text text-anchor="middle" x="788.811" y="-158.5" font-family="Times New Roman,serif" font-size="15.00">Send Fine</text>
</g>
<!-- 2492611705440&#45;&#45;2492611706208 -->
<g id="edge38" class="edge"><title>2492611705440&#45;&#45;2492611706208</title>
<path fill="none" stroke="black" d="M788.811,-215.697C788.811,-204.846 788.811,-190.917 788.811,-180.104"/>
</g>
<!-- 2492611703088 -->
<g id="node49" class="node"><title>2492611703088</title>
<ellipse fill="black" stroke="black" cx="862.811" cy="-162" rx="2.7" ry="2.7"/>
</g>
<!-- 2492611703616&#45;&#45;2492611703088 -->
<g id="edge40" class="edge"><title>2492611703616&#45;&#45;2492611703088</title>
<path fill="none" stroke="black" d="M970.529,-221.908C938.102,-204.175 876.993,-170.756 864.915,-164.151"/>
</g>
<!-- 2492611703184 -->
<g id="node50" class="node"><title>2492611703184</title>
<ellipse fill="none" stroke="black" cx="990.811" cy="-162" rx="107.914" ry="18"/>
<text text-anchor="middle" x="990.811" y="-158.5" font-family="Times New Roman,serif" font-size="15.00">Insert Fine Notification</text>
</g>
<!-- 2492611703616&#45;&#45;2492611703184 -->
<g id="edge41" class="edge"><title>2492611703616&#45;&#45;2492611703184</title>
<path fill="none" stroke="black" d="M990.811,-215.697C990.811,-204.846 990.811,-190.917 990.811,-180.104"/>
</g>
<!-- 2492611705248 -->
<g id="node52" class="node"><title>2492611705248</title>
<ellipse fill="black" stroke="black" cx="1118.81" cy="-162" rx="2.7" ry="2.7"/>
</g>
<!-- 2492611705536&#45;&#45;2492611705248 -->
<g id="edge43" class="edge"><title>2492611705536&#45;&#45;2492611705248</title>
<path fill="none" stroke="black" d="M1155.92,-217.116C1143.75,-199.367 1125.09,-172.158 1120.08,-164.857"/>
</g>
<!-- 2492611703568 -->
<g id="node53" class="node"><title>2492611703568</title>
<ellipse fill="none" stroke="black" cx="1166.81" cy="-162" rx="27" ry="18"/>
<text text-anchor="middle" x="1166.81" y="-158.5" font-family="Times New Roman,serif" font-size="15.00">and</text>
</g>
<!-- 2492611705536&#45;&#45;2492611703568 -->
<g id="edge48" class="edge"><title>2492611705536&#45;&#45;2492611703568</title>
<path fill="none" stroke="black" d="M1166.81,-215.697C1166.81,-204.846 1166.81,-190.917 1166.81,-180.104"/>
</g>
<!-- 2492611705584 -->
<g id="node54" class="node"><title>2492611705584</title>
<ellipse fill="none" stroke="black" cx="1071.81" cy="-90" rx="27" ry="18"/>
<text text-anchor="middle" x="1071.81" y="-86.5" font-family="Times New Roman,serif" font-size="15.00">xor</text>
</g>
<!-- 2492611703568&#45;&#45;2492611705584 -->
<g id="edge46" class="edge"><title>2492611703568&#45;&#45;2492611705584</title>
<path fill="none" stroke="black" d="M1149.39,-148.161C1132.35,-135.61 1106.55,-116.599 1089.45,-103.995"/>
</g>
<!-- 2492611703424 -->
<g id="node57" class="node"><title>2492611703424</title>
<ellipse fill="none" stroke="black" cx="1261.81" cy="-90" rx="144.571" ry="18"/>
<text text-anchor="middle" x="1261.81" y="-86.5" font-family="Times New Roman,serif" font-size="15.00">Insert Date Appeal to Prefecture</text>
</g>
<!-- 2492611703568&#45;&#45;2492611703424 -->
<g id="edge47" class="edge"><title>2492611703568&#45;&#45;2492611703424</title>
<path fill="none" stroke="black" d="M1184.24,-148.161C1199.56,-136.873 1221.97,-120.36 1238.76,-107.981"/>
</g>
<!-- 2492611705056 -->
<g id="node55" class="node"><title>2492611705056</title>
<ellipse fill="black" stroke="black" cx="1030.81" cy="-18" rx="2.7" ry="2.7"/>
</g>
<!-- 2492611705584&#45;&#45;2492611705056 -->
<g id="edge44" class="edge"><title>2492611705584&#45;&#45;2492611705056</title>
<path fill="none" stroke="black" d="M1062.3,-72.7646C1051.89,-54.9939 1036.12,-28.0601 1031.89,-20.8363"/>
</g>
<!-- 2492611704096 -->
<g id="node56" class="node"><title>2492611704096</title>
<ellipse fill="none" stroke="black" cx="1113.81" cy="-18" rx="61.6894" ry="18"/>
<text text-anchor="middle" x="1113.81" y="-14.5" font-family="Times New Roman,serif" font-size="15.00">Add penalty</text>
</g>
<!-- 2492611705584&#45;&#45;2492611704096 -->
<g id="edge45" class="edge"><title>2492611705584&#45;&#45;2492611704096</title>
<path fill="none" stroke="black" d="M1081.34,-73.1159C1088.02,-61.9827 1096.93,-47.127 1103.73,-35.7973"/>
</g>
<!-- 2492611704864 -->
<g id="node59" class="node"><title>2492611704864</title>
<ellipse fill="black" stroke="black" cx="1214.81" cy="-162" rx="2.7" ry="2.7"/>
</g>
<!-- 2492611706400&#45;&#45;2492611704864 -->
<g id="edge50" class="edge"><title>2492611706400&#45;&#45;2492611704864</title>
<path fill="none" stroke="black" d="M1280.61,-219.17C1259.7,-201.32 1225.01,-171.702 1216.66,-164.577"/>
</g>
<!-- 2492643452336 -->
<g id="node60" class="node"><title>2492643452336</title>
<ellipse fill="none" stroke="black" cx="1355.81" cy="-162" rx="120.43" ry="18"/>
<text text-anchor="middle" x="1355.81" y="-158.5" font-family="Times New Roman,serif" font-size="15.00">Send Appeal to Prefecture</text>
</g>
<!-- 2492611706400&#45;&#45;2492643452336 -->
<g id="edge51" class="edge"><title>2492611706400&#45;&#45;2492643452336</title>
<path fill="none" stroke="black" d="M1309.61,-217.811C1318.97,-206.713 1331.66,-191.653 1341.38,-180.127"/>
</g>
<!-- 2492643454544 -->
<g id="node62" class="node"><title>2492643454544</title>
<ellipse fill="black" stroke="black" cx="1496.81" cy="-162" rx="2.7" ry="2.7"/>
</g>
<!-- 2492611704336&#45;&#45;2492643454544 -->
<g id="edge53" class="edge"><title>2492611704336&#45;&#45;2492643454544</title>
<path fill="none" stroke="black" d="M1496.81,-215.697C1496.81,-197.883 1496.81,-171.769 1496.81,-164.776"/>
</g>
<!-- 2492643453728 -->
<g id="node63" class="node"><title>2492643453728</title>
<ellipse fill="none" stroke="black" cx="1690.81" cy="-162" rx="173.941" ry="18"/>
<text text-anchor="middle" x="1690.81" y="-158.5" font-family="Times New Roman,serif" font-size="15.00">Receive Result Appeal from Prefecture</text>
</g>
<!-- 2492611704336&#45;&#45;2492643453728 -->
<g id="edge54" class="edge"><title>2492611704336&#45;&#45;2492643453728</title>
<path fill="none" stroke="black" d="M1520.21,-224.556C1551.05,-213.429 1605.96,-193.615 1645.16,-179.472"/>
</g>
<!-- 2492643451952 -->
<g id="node65" class="node"><title>2492643451952</title>
<ellipse fill="black" stroke="black" cx="1884.81" cy="-162" rx="2.7" ry="2.7"/>
</g>
<!-- 2492611705872&#45;&#45;2492643451952 -->
<g id="edge56" class="edge"><title>2492611705872&#45;&#45;2492643451952</title>
<path fill="none" stroke="black" d="M1884.81,-215.697C1884.81,-197.883 1884.81,-171.769 1884.81,-164.776"/>
</g>
<!-- 2492643454592 -->
<g id="node66" class="node"><title>2492643454592</title>
<ellipse fill="none" stroke="black" cx="2053.81" cy="-162" rx="148.91" ry="18"/>
<text text-anchor="middle" x="2053.81" y="-158.5" font-family="Times New Roman,serif" font-size="15.00">Notify Result Appeal to Offender</text>
</g>
<!-- 2492611705872&#45;&#45;2492643454592 -->
<g id="edge57" class="edge"><title>2492611705872&#45;&#45;2492643454592</title>
<path fill="none" stroke="black" d="M1907.25,-223.705C1934.46,-212.436 1980.79,-193.245 2014.09,-179.454"/>
</g>
<!-- 2492643453104 -->
<g id="node68" class="node"><title>2492643453104</title>
<ellipse fill="black" stroke="black" cx="2222.81" cy="-162" rx="2.7" ry="2.7"/>
</g>
<!-- 2492643454688&#45;&#45;2492643453104 -->
<g id="edge59" class="edge"><title>2492643454688&#45;&#45;2492643453104</title>
<path fill="none" stroke="black" d="M2222.81,-215.697C2222.81,-197.883 2222.81,-171.769 2222.81,-164.776"/>
</g>
<!-- 2492643453152 -->
<g id="node69" class="node"><title>2492643453152</title>
<ellipse fill="none" stroke="black" cx="2289.81" cy="-162" rx="45.7249" ry="18"/>
<text text-anchor="middle" x="2289.81" y="-158.5" font-family="Times New Roman,serif" font-size="15.00">Payment</text>
</g>
<!-- 2492643454688&#45;&#45;2492643453152 -->
<g id="edge60" class="edge"><title>2492643454688&#45;&#45;2492643453152</title>
<path fill="none" stroke="black" d="M2236.69,-218.496C2247.66,-207.043 2262.95,-191.069 2274.31,-179.198"/>
</g>
<!-- 2492643454640 -->
<g id="node72" class="node"><title>2492643454640</title>
<ellipse fill="black" stroke="black" cx="1389.81" cy="-378" rx="2.7" ry="2.7"/>
</g>
<!-- 2492635282688&#45;&#45;2492643454640 -->
<g id="edge66" class="edge"><title>2492635282688&#45;&#45;2492643454640</title>
<path fill="none" stroke="black" d="M1391.32,-431.697C1390.81,-413.883 1390.06,-387.769 1389.86,-380.776"/>
</g>
<!-- 2492643454496 -->
<g id="node73" class="node"><title>2492643454496</title>
<ellipse fill="none" stroke="black" cx="1531.81" cy="-378" rx="120.819" ry="18"/>
<text text-anchor="middle" x="1531.81" y="-374.5" font-family="Times New Roman,serif" font-size="15.00">Send for Credit Collection</text>
</g>
<!-- 2492635282688&#45;&#45;2492643454496 -->
<g id="edge67" class="edge"><title>2492635282688&#45;&#45;2492643454496</title>
<path fill="none" stroke="black" d="M1412.77,-438.52C1435.58,-427.116 1472.34,-408.733 1498.99,-395.412"/>
</g>
</g>
</svg>
