<?xml version="1.0" encoding="UTF-8" standalone="no"?>
<!DOCTYPE svg PUBLIC "-//W3C//DTD SVG 1.1//EN"
 "http://www.w3.org/Graphics/SVG/1.1/DTD/svg11.dtd">
<!-- Generated by graphviz version 2.38.0 (20140413.2041)
 -->
<!-- Title: pt Pages: 1 -->
<svg width="1755pt" height="476pt"
 viewBox="0.00 0.00 1755.06 476.00" xmlns="http://www.w3.org/2000/svg" xmlns:xlink="http://www.w3.org/1999/xlink">
<g id="graph0" class="graph" transform="scale(1 1) rotate(0) translate(4 472)">
<title>pt</title>
<!-- 2492620491696 -->
<g id="node1" class="node"><title>2492620491696</title>
<ellipse fill="none" stroke="black" cx="907.536" cy="-450" rx="27" ry="18"/>
<text text-anchor="middle" x="907.536" y="-446.5" font-family="Times New Roman,serif" font-size="15.00">seq</text>
</g>
<!-- 2492620490976 -->
<g id="node2" class="node"><title>2492620490976</title>
<ellipse fill="none" stroke="black" cx="802.536" cy="-378" rx="59.5207" ry="18"/>
<text text-anchor="middle" x="802.536" y="-374.5" font-family="Times New Roman,serif" font-size="15.00">Create Fine</text>
</g>
<!-- 2492620491696&#45;&#45;2492620490976 -->
<g id="edge1" class="edge"><title>2492620491696&#45;&#45;2492620490976</title>
<path fill="none" stroke="black" d="M888.764,-436.485C871.185,-424.767 844.859,-407.215 825.922,-394.591"/>
</g>
<!-- 2492620492176 -->
<g id="node3" class="node"><title>2492620492176</title>
<ellipse fill="none" stroke="black" cx="907.536" cy="-378" rx="27" ry="18"/>
<text text-anchor="middle" x="907.536" y="-374.5" font-family="Times New Roman,serif" font-size="15.00">and</text>
</g>
<!-- 2492620491696&#45;&#45;2492620492176 -->
<g id="edge29" class="edge"><title>2492620491696&#45;&#45;2492620492176</title>
<path fill="none" stroke="black" d="M907.536,-431.697C907.536,-420.846 907.536,-406.917 907.536,-396.104"/>
</g>
<!-- 2492620489920 -->
<g id="node31" class="node"><title>2492620489920</title>
<ellipse fill="none" stroke="black" cx="979.536" cy="-378" rx="27" ry="18"/>
<text text-anchor="middle" x="979.536" y="-374.5" font-family="Times New Roman,serif" font-size="15.00">xor</text>
</g>
<!-- 2492620491696&#45;&#45;2492620489920 -->
<g id="edge32" class="edge"><title>2492620491696&#45;&#45;2492620489920</title>
<path fill="none" stroke="black" d="M922.106,-434.834C934.515,-422.77 952.266,-405.512 964.74,-393.385"/>
</g>
<!-- 2492620488960 -->
<g id="node4" class="node"><title>2492620488960</title>
<ellipse fill="none" stroke="black" cx="592.536" cy="-306" rx="27" ry="18"/>
<text text-anchor="middle" x="592.536" y="-302.5" font-family="Times New Roman,serif" font-size="15.00">xor</text>
</g>
<!-- 2492620492176&#45;&#45;2492620488960 -->
<g id="edge12" class="edge"><title>2492620492176&#45;&#45;2492620488960</title>
<path fill="none" stroke="black" d="M882.29,-371.39C823.309,-358.283 677.001,-325.77 617.901,-312.637"/>
</g>
<!-- 2492620490736 -->
<g id="node15" class="node"><title>2492620490736</title>
<ellipse fill="none" stroke="black" cx="913.536" cy="-306" rx="27" ry="18"/>
<text text-anchor="middle" x="913.536" y="-302.5" font-family="Times New Roman,serif" font-size="15.00">and</text>
</g>
<!-- 2492620492176&#45;&#45;2492620490736 -->
<g id="edge28" class="edge"><title>2492620492176&#45;&#45;2492620490736</title>
<path fill="none" stroke="black" d="M909.019,-359.697C909.949,-348.846 911.143,-334.917 912.069,-324.104"/>
</g>
<!-- 2492620489824 -->
<g id="node5" class="node"><title>2492620489824</title>
<ellipse fill="black" stroke="black" cx="544.536" cy="-234" rx="2.7" ry="2.7"/>
</g>
<!-- 2492620488960&#45;&#45;2492620489824 -->
<g id="edge2" class="edge"><title>2492620488960&#45;&#45;2492620489824</title>
<path fill="none" stroke="black" d="M581.644,-289.116C569.473,-271.367 550.815,-244.158 545.809,-236.857"/>
</g>
<!-- 2492620490448 -->
<g id="node6" class="node"><title>2492620490448</title>
<ellipse fill="none" stroke="black" cx="592.536" cy="-234" rx="27" ry="18"/>
<text text-anchor="middle" x="592.536" y="-230.5" font-family="Times New Roman,serif" font-size="15.00">seq</text>
</g>
<!-- 2492620488960&#45;&#45;2492620490448 -->
<g id="edge11" class="edge"><title>2492620488960&#45;&#45;2492620490448</title>
<path fill="none" stroke="black" d="M592.536,-287.697C592.536,-276.846 592.536,-262.917 592.536,-252.104"/>
</g>
<!-- 2492620491024 -->
<g id="node7" class="node"><title>2492620491024</title>
<ellipse fill="none" stroke="black" cx="144.536" cy="-162" rx="144.571" ry="18"/>
<text text-anchor="middle" x="144.536" y="-158.5" font-family="Times New Roman,serif" font-size="15.00">Insert Date Appeal to Prefecture</text>
</g>
<!-- 2492620490448&#45;&#45;2492620491024 -->
<g id="edge3" class="edge"><title>2492620490448&#45;&#45;2492620491024</title>
<path fill="none" stroke="black" d="M566.513,-228.934C502.365,-218.911 334.357,-192.66 230.721,-176.466"/>
</g>
<!-- 2492620490880 -->
<g id="node8" class="node"><title>2492620490880</title>
<ellipse fill="none" stroke="black" cx="427.536" cy="-162" rx="120.43" ry="18"/>
<text text-anchor="middle" x="427.536" y="-158.5" font-family="Times New Roman,serif" font-size="15.00">Send Appeal to Prefecture</text>
</g>
<!-- 2492620490448&#45;&#45;2492620490880 -->
<g id="edge4" class="edge"><title>2492620490448&#45;&#45;2492620490880</title>
<path fill="none" stroke="black" d="M570.283,-223.559C543.454,-212.177 497.933,-192.866 465.511,-179.111"/>
</g>
<!-- 2492620301024 -->
<g id="node9" class="node"><title>2492620301024</title>
<ellipse fill="none" stroke="black" cx="592.536" cy="-162" rx="27" ry="18"/>
<text text-anchor="middle" x="592.536" y="-158.5" font-family="Times New Roman,serif" font-size="15.00">xor</text>
</g>
<!-- 2492620490448&#45;&#45;2492620301024 -->
<g id="edge7" class="edge"><title>2492620490448&#45;&#45;2492620301024</title>
<path fill="none" stroke="black" d="M592.536,-215.697C592.536,-204.846 592.536,-190.917 592.536,-180.104"/>
</g>
<!-- 2492620300880 -->
<g id="node12" class="node"><title>2492620300880</title>
<ellipse fill="none" stroke="black" cx="725.536" cy="-162" rx="27" ry="18"/>
<text text-anchor="middle" x="725.536" y="-158.5" font-family="Times New Roman,serif" font-size="15.00">xor</text>
</g>
<!-- 2492620490448&#45;&#45;2492620300880 -->
<g id="edge10" class="edge"><title>2492620490448&#45;&#45;2492620300880</title>
<path fill="none" stroke="black" d="M613.025,-222.216C637.946,-209.1 679.774,-187.085 704.803,-173.912"/>
</g>
<!-- 2492620303040 -->
<g id="node10" class="node"><title>2492620303040</title>
<ellipse fill="black" stroke="black" cx="337.536" cy="-90" rx="2.7" ry="2.7"/>
</g>
<!-- 2492620301024&#45;&#45;2492620303040 -->
<g id="edge5" class="edge"><title>2492620301024&#45;&#45;2492620303040</title>
<path fill="none" stroke="black" d="M568.085,-154.288C508.748,-138 360.473,-97.2964 339.915,-91.6531"/>
</g>
<!-- 2492620302704 -->
<g id="node11" class="node"><title>2492620302704</title>
<ellipse fill="none" stroke="black" cx="531.536" cy="-90" rx="173.941" ry="18"/>
<text text-anchor="middle" x="531.536" y="-86.5" font-family="Times New Roman,serif" font-size="15.00">Receive Result Appeal from Prefecture</text>
</g>
<!-- 2492620301024&#45;&#45;2492620302704 -->
<g id="edge6" class="edge"><title>2492620301024&#45;&#45;2492620302704</title>
<path fill="none" stroke="black" d="M579.599,-146.155C569.877,-134.998 556.542,-119.696 546.385,-108.04"/>
</g>
<!-- 2492620303136 -->
<g id="node13" class="node"><title>2492620303136</title>
<ellipse fill="black" stroke="black" cx="725.536" cy="-90" rx="2.7" ry="2.7"/>
</g>
<!-- 2492620300880&#45;&#45;2492620303136 -->
<g id="edge8" class="edge"><title>2492620300880&#45;&#45;2492620303136</title>
<path fill="none" stroke="black" d="M725.536,-143.697C725.536,-125.883 725.536,-99.7686 725.536,-92.7764"/>
</g>
<!-- 2492620303520 -->
<g id="node14" class="node"><title>2492620303520</title>
<ellipse fill="none" stroke="black" cx="894.536" cy="-90" rx="148.91" ry="18"/>
<text text-anchor="middle" x="894.536" y="-86.5" font-family="Times New Roman,serif" font-size="15.00">Notify Result Appeal to Offender</text>
</g>
<!-- 2492620300880&#45;&#45;2492620303520 -->
<g id="edge9" class="edge"><title>2492620300880&#45;&#45;2492620303520</title>
<path fill="none" stroke="black" d="M747.977,-151.705C775.183,-140.436 821.516,-121.245 854.81,-107.454"/>
</g>
<!-- 2492620302752 -->
<g id="node16" class="node"><title>2492620302752</title>
<ellipse fill="none" stroke="black" cx="913.536" cy="-234" rx="46.6143" ry="18"/>
<text text-anchor="middle" x="913.536" y="-230.5" font-family="Times New Roman,serif" font-size="15.00">xor loop</text>
</g>
<!-- 2492620490736&#45;&#45;2492620302752 -->
<g id="edge15" class="edge"><title>2492620490736&#45;&#45;2492620302752</title>
<path fill="none" stroke="black" d="M913.536,-287.697C913.536,-276.846 913.536,-262.917 913.536,-252.104"/>
</g>
<!-- 2492620303856 -->
<g id="node19" class="node"><title>2492620303856</title>
<ellipse fill="none" stroke="black" cx="1104.54" cy="-234" rx="27" ry="18"/>
<text text-anchor="middle" x="1104.54" y="-230.5" font-family="Times New Roman,serif" font-size="15.00">xor</text>
</g>
<!-- 2492620490736&#45;&#45;2492620303856 -->
<g id="edge27" class="edge"><title>2492620490736&#45;&#45;2492620303856</title>
<path fill="none" stroke="black" d="M936.575,-296.556C973.286,-283.102 1044.65,-256.947 1081.41,-243.474"/>
</g>
<!-- 2492620303568 -->
<g id="node17" class="node"><title>2492620303568</title>
<ellipse fill="black" stroke="black" cx="880.536" cy="-162" rx="2.7" ry="2.7"/>
</g>
<!-- 2492620302752&#45;&#45;2492620303568 -->
<g id="edge13" class="edge"><title>2492620302752&#45;&#45;2492620303568</title>
<path fill="none" stroke="black" d="M905.547,-216.055C897.154,-198.252 884.715,-171.865 881.382,-164.796"/>
</g>
<!-- 2492620302944 -->
<g id="node18" class="node"><title>2492620302944</title>
<ellipse fill="none" stroke="black" cx="947.536" cy="-162" rx="45.7249" ry="18"/>
<text text-anchor="middle" x="947.536" y="-158.5" font-family="Times New Roman,serif" font-size="15.00">Payment</text>
</g>
<!-- 2492620302752&#45;&#45;2492620302944 -->
<g id="edge14" class="edge"><title>2492620302752&#45;&#45;2492620302944</title>
<path fill="none" stroke="black" d="M921.766,-216.055C927.112,-205.049 934.05,-190.764 939.381,-179.789"/>
</g>
<!-- 2492620303808 -->
<g id="node20" class="node"><title>2492620303808</title>
<ellipse fill="black" stroke="black" cx="1067.54" cy="-162" rx="2.7" ry="2.7"/>
</g>
<!-- 2492620303856&#45;&#45;2492620303808 -->
<g id="edge16" class="edge"><title>2492620303856&#45;&#45;2492620303808</title>
<path fill="none" stroke="black" d="M1095.95,-216.765C1086.56,-198.994 1072.32,-172.06 1068.51,-164.836"/>
</g>
<!-- 2492620302512 -->
<g id="node21" class="node"><title>2492620302512</title>
<ellipse fill="none" stroke="black" cx="1141.54" cy="-162" rx="52.6228" ry="18"/>
<text text-anchor="middle" x="1141.54" y="-158.5" font-family="Times New Roman,serif" font-size="15.00">Send Fine</text>
</g>
<!-- 2492620303856&#45;&#45;2492620302512 -->
<g id="edge17" class="edge"><title>2492620303856&#45;&#45;2492620302512</title>
<path fill="none" stroke="black" d="M1113.12,-216.765C1118.92,-205.779 1126.58,-191.292 1132.48,-180.124"/>
</g>
<!-- 2492620302800 -->
<g id="node22" class="node"><title>2492620302800</title>
<ellipse fill="none" stroke="black" cx="1293.54" cy="-162" rx="27" ry="18"/>
<text text-anchor="middle" x="1293.54" y="-158.5" font-family="Times New Roman,serif" font-size="15.00">seq</text>
</g>
<!-- 2492620303856&#45;&#45;2492620302800 -->
<g id="edge26" class="edge"><title>2492620303856&#45;&#45;2492620302800</title>
<path fill="none" stroke="black" d="M1127.71,-224.417C1164.08,-210.945 1234.16,-184.991 1270.47,-171.544"/>
</g>
<!-- 2492620300928 -->
<g id="node23" class="node"><title>2492620300928</title>
<ellipse fill="none" stroke="black" cx="1114.54" cy="-90" rx="52.6228" ry="18"/>
<text text-anchor="middle" x="1114.54" y="-86.5" font-family="Times New Roman,serif" font-size="15.00">Send Fine</text>
</g>
<!-- 2492620302800&#45;&#45;2492620300928 -->
<g id="edge18" class="edge"><title>2492620302800&#45;&#45;2492620300928</title>
<path fill="none" stroke="black" d="M1270.87,-152.134C1239.82,-139.994 1183.85,-118.107 1147.98,-104.081"/>
</g>
<!-- 2492620302896 -->
<g id="node24" class="node"><title>2492620302896</title>
<ellipse fill="none" stroke="black" cx="1293.54" cy="-90" rx="107.914" ry="18"/>
<text text-anchor="middle" x="1293.54" y="-86.5" font-family="Times New Roman,serif" font-size="15.00">Insert Fine Notification</text>
</g>
<!-- 2492620302800&#45;&#45;2492620302896 -->
<g id="edge19" class="edge"><title>2492620302800&#45;&#45;2492620302896</title>
<path fill="none" stroke="black" d="M1293.54,-143.697C1293.54,-132.846 1293.54,-118.917 1293.54,-108.104"/>
</g>
<!-- 2492620302128 -->
<g id="node25" class="node"><title>2492620302128</title>
<ellipse fill="none" stroke="black" cx="1465.54" cy="-90" rx="46.6143" ry="18"/>
<text text-anchor="middle" x="1465.54" y="-86.5" font-family="Times New Roman,serif" font-size="15.00">xor loop</text>
</g>
<!-- 2492620302800&#45;&#45;2492620302128 -->
<g id="edge22" class="edge"><title>2492620302800&#45;&#45;2492620302128</title>
<path fill="none" stroke="black" d="M1316.02,-151.849C1346.34,-139.508 1400.47,-117.48 1434.61,-103.587"/>
</g>
<!-- 2492620302224 -->
<g id="node28" class="node"><title>2492620302224</title>
<ellipse fill="none" stroke="black" cx="1576.54" cy="-90" rx="46.6143" ry="18"/>
<text text-anchor="middle" x="1576.54" y="-86.5" font-family="Times New Roman,serif" font-size="15.00">xor loop</text>
</g>
<!-- 2492620302800&#45;&#45;2492620302224 -->
<g id="edge25" class="edge"><title>2492620302800&#45;&#45;2492620302224</title>
<path fill="none" stroke="black" d="M1318.65,-154.788C1368.3,-142.508 1479.27,-115.058 1538.15,-100.496"/>
</g>
<!-- 2492620300448 -->
<g id="node26" class="node"><title>2492620300448</title>
<ellipse fill="black" stroke="black" cx="1389.54" cy="-18" rx="2.7" ry="2.7"/>
</g>
<!-- 2492620302128&#45;&#45;2492620300448 -->
<g id="edge20" class="edge"><title>2492620302128&#45;&#45;2492620300448</title>
<path fill="none" stroke="black" d="M1448.29,-73.1159C1428.67,-55.0446 1398.4,-27.1656 1391.14,-20.4782"/>
</g>
<!-- 2492620301120 -->
<g id="node27" class="node"><title>2492620301120</title>
<ellipse fill="none" stroke="black" cx="1472.54" cy="-18" rx="61.6894" ry="18"/>
<text text-anchor="middle" x="1472.54" y="-14.5" font-family="Times New Roman,serif" font-size="15.00">Add penalty</text>
</g>
<!-- 2492620302128&#45;&#45;2492620301120 -->
<g id="edge21" class="edge"><title>2492620302128&#45;&#45;2492620301120</title>
<path fill="none" stroke="black" d="M1467.27,-71.6966C1468.35,-60.8463 1469.74,-46.9167 1470.83,-36.1043"/>
</g>
<!-- 2492620301792 -->
<g id="node29" class="node"><title>2492620301792</title>
<ellipse fill="black" stroke="black" cx="1569.54" cy="-18" rx="2.7" ry="2.7"/>
</g>
<!-- 2492620302224&#45;&#45;2492620301792 -->
<g id="edge23" class="edge"><title>2492620302224&#45;&#45;2492620301792</title>
<path fill="none" stroke="black" d="M1574.81,-71.6966C1573.02,-53.8826 1570.41,-27.7686 1569.71,-20.7764"/>
</g>
<!-- 2492620300352 -->
<g id="node30" class="node"><title>2492620300352</title>
<ellipse fill="none" stroke="black" cx="1668.54" cy="-18" rx="78.5434" ry="18"/>
<text text-anchor="middle" x="1668.54" y="-14.5" font-family="Times New Roman,serif" font-size="15.00">Appeal to Judge</text>
</g>
<!-- 2492620302224&#45;&#45;2492620300352 -->
<g id="edge24" class="edge"><title>2492620302224&#45;&#45;2492620300352</title>
<path fill="none" stroke="black" d="M1596.95,-73.4647C1611.78,-62.1868 1631.79,-46.9552 1646.89,-35.4672"/>
</g>
<!-- 2492620303472 -->
<g id="node32" class="node"><title>2492620303472</title>
<ellipse fill="black" stroke="black" cx="973.536" cy="-306" rx="2.7" ry="2.7"/>
</g>
<!-- 2492620489920&#45;&#45;2492620303472 -->
<g id="edge30" class="edge"><title>2492620489920&#45;&#45;2492620303472</title>
<path fill="none" stroke="black" d="M978.052,-359.697C976.525,-341.883 974.287,-315.769 973.688,-308.776"/>
</g>
<!-- 2492620303088 -->
<g id="node33" class="node"><title>2492620303088</title>
<ellipse fill="none" stroke="black" cx="1115.54" cy="-306" rx="120.819" ry="18"/>
<text text-anchor="middle" x="1115.54" y="-302.5" font-family="Times New Roman,serif" font-size="15.00">Send for Credit Collection</text>
</g>
<!-- 2492620489920&#45;&#45;2492620303088 -->
<g id="edge31" class="edge"><title>2492620489920&#45;&#45;2492620303088</title>
<path fill="none" stroke="black" d="M1000.19,-366.369C1022.33,-354.971 1057.78,-336.729 1083.53,-323.471"/>
</g>
</g>
</svg>
