<?xml version="1.0" encoding="UTF-8" standalone="no"?>
<!DOCTYPE svg PUBLIC "-//W3C//DTD SVG 1.1//EN"
 "http://www.w3.org/Graphics/SVG/1.1/DTD/svg11.dtd">
<!-- Generated by graphviz version 2.38.0 (20140413.2041)
 -->
<!-- Title: pt Pages: 1 -->
<svg width="2152pt" height="620pt"
 viewBox="0.00 0.00 2151.67 620.00" xmlns="http://www.w3.org/2000/svg" xmlns:xlink="http://www.w3.org/1999/xlink">
<g id="graph0" class="graph" transform="scale(1 1) rotate(0) translate(4 616)">
<title>pt</title>
<!-- 2808365477312 -->
<g id="node1" class="node"><title>2808365477312</title>
<ellipse fill="none" stroke="black" cx="540.811" cy="-594" rx="27" ry="18"/>
<text text-anchor="middle" x="540.811" y="-590.5" font-family="Times New Roman,serif" font-size="15.00">and</text>
</g>
<!-- 2808365475200 -->
<g id="node2" class="node"><title>2808365475200</title>
<ellipse fill="none" stroke="black" cx="305.811" cy="-522" rx="27" ry="18"/>
<text text-anchor="middle" x="305.811" y="-518.5" font-family="Times New Roman,serif" font-size="15.00">xor</text>
</g>
<!-- 2808365477312&#45;&#45;2808365475200 -->
<g id="edge22" class="edge"><title>2808365477312&#45;&#45;2808365475200</title>
<path fill="none" stroke="black" d="M516.547,-585.772C471.398,-572.324 374.992,-543.607 329.943,-530.188"/>
</g>
<!-- 2808365475392 -->
<g id="node24" class="node"><title>2808365475392</title>
<ellipse fill="none" stroke="black" cx="775.811" cy="-522" rx="27" ry="18"/>
<text text-anchor="middle" x="775.811" y="-518.5" font-family="Times New Roman,serif" font-size="15.00">seq</text>
</g>
<!-- 2808365477312&#45;&#45;2808365475392 -->
<g id="edge66" class="edge"><title>2808365477312&#45;&#45;2808365475392</title>
<path fill="none" stroke="black" d="M565.075,-585.772C610.224,-572.324 706.63,-543.607 751.679,-530.188"/>
</g>
<!-- 2808386347408 -->
<g id="node3" class="node"><title>2808386347408</title>
<ellipse fill="black" stroke="black" cx="257.811" cy="-450" rx="2.7" ry="2.7"/>
</g>
<!-- 2808365475200&#45;&#45;2808386347408 -->
<g id="edge1" class="edge"><title>2808365475200&#45;&#45;2808386347408</title>
<path fill="none" stroke="black" d="M294.919,-505.116C282.749,-487.367 264.091,-460.158 259.084,-452.857"/>
</g>
<!-- 2808386350480 -->
<g id="node4" class="node"><title>2808386350480</title>
<ellipse fill="none" stroke="black" cx="305.811" cy="-450" rx="27" ry="18"/>
<text text-anchor="middle" x="305.811" y="-446.5" font-family="Times New Roman,serif" font-size="15.00">and</text>
</g>
<!-- 2808365475200&#45;&#45;2808386350480 -->
<g id="edge21" class="edge"><title>2808365475200&#45;&#45;2808386350480</title>
<path fill="none" stroke="black" d="M305.811,-503.697C305.811,-492.846 305.811,-478.917 305.811,-468.104"/>
</g>
<!-- 2808205615840 -->
<g id="node5" class="node"><title>2808205615840</title>
<ellipse fill="none" stroke="black" cx="164.811" cy="-378" rx="46.6143" ry="18"/>
<text text-anchor="middle" x="164.811" y="-374.5" font-family="Times New Roman,serif" font-size="15.00">xor loop</text>
</g>
<!-- 2808386350480&#45;&#45;2808205615840 -->
<g id="edge4" class="edge"><title>2808386350480&#45;&#45;2808205615840</title>
<path fill="none" stroke="black" d="M284.702,-438.52C260.118,-426.316 219.432,-406.117 192.374,-392.684"/>
</g>
<!-- 2808205618672 -->
<g id="node8" class="node"><title>2808205618672</title>
<ellipse fill="none" stroke="black" cx="305.811" cy="-378" rx="27" ry="18"/>
<text text-anchor="middle" x="305.811" y="-374.5" font-family="Times New Roman,serif" font-size="15.00">xor</text>
</g>
<!-- 2808386350480&#45;&#45;2808205618672 -->
<g id="edge20" class="edge"><title>2808386350480&#45;&#45;2808205618672</title>
<path fill="none" stroke="black" d="M305.811,-431.697C305.811,-420.846 305.811,-406.917 305.811,-396.104"/>
</g>
<!-- 2808205618288 -->
<g id="node6" class="node"><title>2808205618288</title>
<ellipse fill="black" stroke="black" cx="97.8111" cy="-306" rx="2.7" ry="2.7"/>
</g>
<!-- 2808205615840&#45;&#45;2808205618288 -->
<g id="edge2" class="edge"><title>2808205615840&#45;&#45;2808205618288</title>
<path fill="none" stroke="black" d="M149.272,-360.765C131.953,-342.671 105.542,-315.078 99.2104,-308.462"/>
</g>
<!-- 2808205617376 -->
<g id="node7" class="node"><title>2808205617376</title>
<ellipse fill="none" stroke="black" cx="164.811" cy="-306" rx="45.7249" ry="18"/>
<text text-anchor="middle" x="164.811" y="-302.5" font-family="Times New Roman,serif" font-size="15.00">Payment</text>
</g>
<!-- 2808205615840&#45;&#45;2808205617376 -->
<g id="edge3" class="edge"><title>2808205615840&#45;&#45;2808205617376</title>
<path fill="none" stroke="black" d="M164.811,-359.697C164.811,-348.846 164.811,-334.917 164.811,-324.104"/>
</g>
<!-- 2808205618000 -->
<g id="node9" class="node"><title>2808205618000</title>
<ellipse fill="black" stroke="black" cx="231.811" cy="-306" rx="2.7" ry="2.7"/>
</g>
<!-- 2808205618672&#45;&#45;2808205618000 -->
<g id="edge5" class="edge"><title>2808205618672&#45;&#45;2808205618000</title>
<path fill="none" stroke="black" d="M290.836,-362.834C271.916,-344.937 240.915,-315.612 233.46,-308.56"/>
</g>
<!-- 2808205615792 -->
<g id="node10" class="node"><title>2808205615792</title>
<ellipse fill="none" stroke="black" cx="305.811" cy="-306" rx="52.6228" ry="18"/>
<text text-anchor="middle" x="305.811" y="-302.5" font-family="Times New Roman,serif" font-size="15.00">Send Fine</text>
</g>
<!-- 2808205618672&#45;&#45;2808205615792 -->
<g id="edge6" class="edge"><title>2808205618672&#45;&#45;2808205615792</title>
<path fill="none" stroke="black" d="M305.811,-359.697C305.811,-348.846 305.811,-334.917 305.811,-324.104"/>
</g>
<!-- 2808205618912 -->
<g id="node11" class="node"><title>2808205618912</title>
<ellipse fill="none" stroke="black" cx="403.811" cy="-306" rx="27" ry="18"/>
<text text-anchor="middle" x="403.811" y="-302.5" font-family="Times New Roman,serif" font-size="15.00">seq</text>
</g>
<!-- 2808205618672&#45;&#45;2808205618912 -->
<g id="edge19" class="edge"><title>2808205618672&#45;&#45;2808205618912</title>
<path fill="none" stroke="black" d="M323.786,-364.161C341.468,-351.531 368.307,-332.36 385.95,-319.758"/>
</g>
<!-- 2808205618096 -->
<g id="node12" class="node"><title>2808205618096</title>
<ellipse fill="none" stroke="black" cx="52.8111" cy="-234" rx="52.6228" ry="18"/>
<text text-anchor="middle" x="52.8111" y="-230.5" font-family="Times New Roman,serif" font-size="15.00">Send Fine</text>
</g>
<!-- 2808205618912&#45;&#45;2808205618096 -->
<g id="edge7" class="edge"><title>2808205618912&#45;&#45;2808205618096</title>
<path fill="none" stroke="black" d="M378.285,-299.909C319.048,-288.096 171.636,-258.697 97.2456,-243.862"/>
</g>
<!-- 2808205616032 -->
<g id="node13" class="node"><title>2808205616032</title>
<ellipse fill="none" stroke="black" cx="231.811" cy="-234" rx="107.914" ry="18"/>
<text text-anchor="middle" x="231.811" y="-230.5" font-family="Times New Roman,serif" font-size="15.00">Insert Fine Notification</text>
</g>
<!-- 2808205618912&#45;&#45;2808205616032 -->
<g id="edge8" class="edge"><title>2808205618912&#45;&#45;2808205616032</title>
<path fill="none" stroke="black" d="M381.325,-295.849C353.279,-284.434 304.87,-264.733 270.746,-250.846"/>
</g>
<!-- 2808205617664 -->
<g id="node14" class="node"><title>2808205617664</title>
<ellipse fill="none" stroke="black" cx="403.811" cy="-234" rx="46.6143" ry="18"/>
<text text-anchor="middle" x="403.811" y="-230.5" font-family="Times New Roman,serif" font-size="15.00">xor loop</text>
</g>
<!-- 2808205618912&#45;&#45;2808205617664 -->
<g id="edge11" class="edge"><title>2808205618912&#45;&#45;2808205617664</title>
<path fill="none" stroke="black" d="M403.811,-287.697C403.811,-276.846 403.811,-262.917 403.811,-252.104"/>
</g>
<!-- 2808205616320 -->
<g id="node17" class="node"><title>2808205616320</title>
<ellipse fill="none" stroke="black" cx="512.811" cy="-234" rx="27" ry="18"/>
<text text-anchor="middle" x="512.811" y="-230.5" font-family="Times New Roman,serif" font-size="15.00">and</text>
</g>
<!-- 2808205618912&#45;&#45;2808205616320 -->
<g id="edge18" class="edge"><title>2808205618912&#45;&#45;2808205616320</title>
<path fill="none" stroke="black" d="M422.797,-292.807C442.804,-279.959 474.119,-259.848 494.042,-247.053"/>
</g>
<!-- 2808205615888 -->
<g id="node15" class="node"><title>2808205615888</title>
<ellipse fill="black" stroke="black" cx="303.811" cy="-162" rx="2.7" ry="2.7"/>
</g>
<!-- 2808205617664&#45;&#45;2808205615888 -->
<g id="edge9" class="edge"><title>2808205617664&#45;&#45;2808205615888</title>
<path fill="none" stroke="black" d="M382.113,-217.811C355.919,-199.475 314.273,-170.323 305.476,-164.166"/>
</g>
<!-- 2808205615552 -->
<g id="node16" class="node"><title>2808205615552</title>
<ellipse fill="none" stroke="black" cx="386.811" cy="-162" rx="61.6894" ry="18"/>
<text text-anchor="middle" x="386.811" y="-158.5" font-family="Times New Roman,serif" font-size="15.00">Add penalty</text>
</g>
<!-- 2808205617664&#45;&#45;2808205615552 -->
<g id="edge10" class="edge"><title>2808205617664&#45;&#45;2808205615552</title>
<path fill="none" stroke="black" d="M399.696,-216.055C397.062,-205.211 393.655,-191.183 391.006,-180.275"/>
</g>
<!-- 2808400459184 -->
<g id="node18" class="node"><title>2808400459184</title>
<ellipse fill="none" stroke="black" cx="512.811" cy="-162" rx="46.6143" ry="18"/>
<text text-anchor="middle" x="512.811" y="-158.5" font-family="Times New Roman,serif" font-size="15.00">xor loop</text>
</g>
<!-- 2808205616320&#45;&#45;2808400459184 -->
<g id="edge14" class="edge"><title>2808205616320&#45;&#45;2808400459184</title>
<path fill="none" stroke="black" d="M512.811,-215.697C512.811,-204.846 512.811,-190.917 512.811,-180.104"/>
</g>
<!-- 2808400459472 -->
<g id="node21" class="node"><title>2808400459472</title>
<ellipse fill="none" stroke="black" cx="623.811" cy="-162" rx="46.6143" ry="18"/>
<text text-anchor="middle" x="623.811" y="-158.5" font-family="Times New Roman,serif" font-size="15.00">xor loop</text>
</g>
<!-- 2808205616320&#45;&#45;2808400459472 -->
<g id="edge17" class="edge"><title>2808205616320&#45;&#45;2808400459472</title>
<path fill="none" stroke="black" d="M531.893,-220.967C550.86,-209.005 579.988,-190.636 600.357,-177.791"/>
</g>
<!-- 2808400458992 -->
<g id="node19" class="node"><title>2808400458992</title>
<ellipse fill="black" stroke="black" cx="429.811" cy="-90" rx="2.7" ry="2.7"/>
</g>
<!-- 2808400459184&#45;&#45;2808400458992 -->
<g id="edge12" class="edge"><title>2808400459184&#45;&#45;2808400458992</title>
<path fill="none" stroke="black" d="M494.391,-145.465C472.995,-127.42 439.598,-99.254 431.583,-92.4944"/>
</g>
<!-- 2808400460432 -->
<g id="node20" class="node"><title>2808400460432</title>
<ellipse fill="none" stroke="black" cx="512.811" cy="-90" rx="61.6894" ry="18"/>
<text text-anchor="middle" x="512.811" y="-86.5" font-family="Times New Roman,serif" font-size="15.00">Add Penalty</text>
</g>
<!-- 2808400459184&#45;&#45;2808400460432 -->
<g id="edge13" class="edge"><title>2808400459184&#45;&#45;2808400460432</title>
<path fill="none" stroke="black" d="M512.811,-143.697C512.811,-132.846 512.811,-118.917 512.811,-108.104"/>
</g>
<!-- 2808400459520 -->
<g id="node22" class="node"><title>2808400459520</title>
<ellipse fill="black" stroke="black" cx="595.811" cy="-90" rx="2.7" ry="2.7"/>
</g>
<!-- 2808400459472&#45;&#45;2808400459520 -->
<g id="edge15" class="edge"><title>2808400459472&#45;&#45;2808400459520</title>
<path fill="none" stroke="black" d="M617.033,-144.055C609.912,-126.252 599.357,-99.8653 596.53,-92.7963"/>
</g>
<!-- 2808400461680 -->
<g id="node23" class="node"><title>2808400461680</title>
<ellipse fill="none" stroke="black" cx="694.811" cy="-90" rx="78.5434" ry="18"/>
<text text-anchor="middle" x="694.811" y="-86.5" font-family="Times New Roman,serif" font-size="15.00">Appeal to Judge</text>
</g>
<!-- 2808400459472&#45;&#45;2808400461680 -->
<g id="edge16" class="edge"><title>2808400459472&#45;&#45;2808400461680</title>
<path fill="none" stroke="black" d="M640.278,-144.765C651.585,-133.618 666.548,-118.865 677.94,-107.633"/>
</g>
<!-- 2808365475152 -->
<g id="node25" class="node"><title>2808365475152</title>
<ellipse fill="none" stroke="black" cx="713.811" cy="-450" rx="59.5207" ry="18"/>
<text text-anchor="middle" x="713.811" y="-446.5" font-family="Times New Roman,serif" font-size="15.00">Create Fine</text>
</g>
<!-- 2808365475392&#45;&#45;2808365475152 -->
<g id="edge23" class="edge"><title>2808365475392&#45;&#45;2808365475152</title>
<path fill="none" stroke="black" d="M762.662,-506.155C752.71,-494.918 739.033,-479.476 728.681,-467.789"/>
</g>
<!-- 2808365477552 -->
<g id="node26" class="node"><title>2808365477552</title>
<ellipse fill="none" stroke="black" cx="837.811" cy="-450" rx="46.6143" ry="18"/>
<text text-anchor="middle" x="837.811" y="-446.5" font-family="Times New Roman,serif" font-size="15.00">xor loop</text>
</g>
<!-- 2808365475392&#45;&#45;2808365477552 -->
<g id="edge55" class="edge"><title>2808365475392&#45;&#45;2808365477552</title>
<path fill="none" stroke="black" d="M788.96,-506.155C799.055,-494.757 812.981,-479.034 823.382,-467.29"/>
</g>
<!-- 2808365475920 -->
<g id="node58" class="node"><title>2808365475920</title>
<ellipse fill="none" stroke="black" cx="1139.81" cy="-450" rx="27" ry="18"/>
<text text-anchor="middle" x="1139.81" y="-446.5" font-family="Times New Roman,serif" font-size="15.00">xor</text>
</g>
<!-- 2808365475392&#45;&#45;2808365475920 -->
<g id="edge65" class="edge"><title>2808365475392&#45;&#45;2808365475920</title>
<path fill="none" stroke="black" d="M801.407,-516.078C868.24,-503.225 1047.44,-468.763 1114.24,-455.917"/>
</g>
<!-- 2808365476112 -->
<g id="node27" class="node"><title>2808365476112</title>
<ellipse fill="none" stroke="black" cx="813.811" cy="-378" rx="27" ry="18"/>
<text text-anchor="middle" x="813.811" y="-374.5" font-family="Times New Roman,serif" font-size="15.00">seq</text>
</g>
<!-- 2808365477552&#45;&#45;2808365476112 -->
<g id="edge53" class="edge"><title>2808365477552&#45;&#45;2808365476112</title>
<path fill="none" stroke="black" d="M832.001,-432.055C828.228,-421.049 823.33,-406.764 819.567,-395.789"/>
</g>
<!-- 2808365474288 -->
<g id="node57" class="node"><title>2808365474288</title>
<ellipse fill="black" stroke="black" cx="861.811" cy="-378" rx="2.7" ry="2.7"/>
</g>
<!-- 2808365477552&#45;&#45;2808365474288 -->
<g id="edge54" class="edge"><title>2808365477552&#45;&#45;2808365474288</title>
<path fill="none" stroke="black" d="M843.621,-432.055C849.725,-414.252 858.772,-387.865 861.195,-380.796"/>
</g>
<!-- 2808365474528 -->
<g id="node28" class="node"><title>2808365474528</title>
<ellipse fill="none" stroke="black" cx="675.811" cy="-306" rx="27" ry="18"/>
<text text-anchor="middle" x="675.811" y="-302.5" font-family="Times New Roman,serif" font-size="15.00">xor</text>
</g>
<!-- 2808365476112&#45;&#45;2808365474528 -->
<g id="edge26" class="edge"><title>2808365476112&#45;&#45;2808365474528</title>
<path fill="none" stroke="black" d="M792.852,-366.369C766.914,-353.212 722.996,-330.934 696.968,-317.732"/>
</g>
<!-- 2808365476592 -->
<g id="node31" class="node"><title>2808365476592</title>
<ellipse fill="none" stroke="black" cx="813.811" cy="-306" rx="27" ry="18"/>
<text text-anchor="middle" x="813.811" y="-302.5" font-family="Times New Roman,serif" font-size="15.00">xor</text>
</g>
<!-- 2808365476112&#45;&#45;2808365476592 -->
<g id="edge29" class="edge"><title>2808365476112&#45;&#45;2808365476592</title>
<path fill="none" stroke="black" d="M813.811,-359.697C813.811,-348.846 813.811,-334.917 813.811,-324.104"/>
</g>
<!-- 2808365474960 -->
<g id="node34" class="node"><title>2808365474960</title>
<ellipse fill="none" stroke="black" cx="1005.81" cy="-306" rx="27" ry="18"/>
<text text-anchor="middle" x="1005.81" y="-302.5" font-family="Times New Roman,serif" font-size="15.00">xor</text>
</g>
<!-- 2808365476112&#45;&#45;2808365474960 -->
<g id="edge52" class="edge"><title>2808365476112&#45;&#45;2808365474960</title>
<path fill="none" stroke="black" d="M836.971,-368.556C873.874,-355.102 945.614,-328.947 982.569,-315.474"/>
</g>
<!-- 2808365475488 -->
<g id="node29" class="node"><title>2808365475488</title>
<ellipse fill="black" stroke="black" cx="601.811" cy="-234" rx="2.7" ry="2.7"/>
</g>
<!-- 2808365474528&#45;&#45;2808365475488 -->
<g id="edge24" class="edge"><title>2808365474528&#45;&#45;2808365475488</title>
<path fill="none" stroke="black" d="M660.836,-290.834C641.916,-272.937 610.915,-243.612 603.46,-236.56"/>
</g>
<!-- 2808365473952 -->
<g id="node30" class="node"><title>2808365473952</title>
<ellipse fill="none" stroke="black" cx="675.811" cy="-234" rx="52.6228" ry="18"/>
<text text-anchor="middle" x="675.811" y="-230.5" font-family="Times New Roman,serif" font-size="15.00">Send Fine</text>
</g>
<!-- 2808365474528&#45;&#45;2808365473952 -->
<g id="edge25" class="edge"><title>2808365474528&#45;&#45;2808365473952</title>
<path fill="none" stroke="black" d="M675.811,-287.697C675.811,-276.846 675.811,-262.917 675.811,-252.104"/>
</g>
<!-- 2808365475440 -->
<g id="node32" class="node"><title>2808365475440</title>
<ellipse fill="black" stroke="black" cx="749.811" cy="-234" rx="2.7" ry="2.7"/>
</g>
<!-- 2808365476592&#45;&#45;2808365475440 -->
<g id="edge27" class="edge"><title>2808365476592&#45;&#45;2808365475440</title>
<path fill="none" stroke="black" d="M800.238,-290.155C783.8,-272.175 757.52,-243.432 751.207,-236.527"/>
</g>
<!-- 2808365474144 -->
<g id="node33" class="node"><title>2808365474144</title>
<ellipse fill="none" stroke="black" cx="877.811" cy="-234" rx="107.914" ry="18"/>
<text text-anchor="middle" x="877.811" y="-230.5" font-family="Times New Roman,serif" font-size="15.00">Insert Fine Notification</text>
</g>
<!-- 2808365476592&#45;&#45;2808365474144 -->
<g id="edge28" class="edge"><title>2808365476592&#45;&#45;2808365474144</title>
<path fill="none" stroke="black" d="M827.384,-290.155C837.584,-278.998 851.574,-263.696 862.232,-252.04"/>
</g>
<!-- 2808365475296 -->
<g id="node35" class="node"><title>2808365475296</title>
<ellipse fill="black" stroke="black" cx="1005.81" cy="-234" rx="2.7" ry="2.7"/>
</g>
<!-- 2808365474960&#45;&#45;2808365475296 -->
<g id="edge30" class="edge"><title>2808365474960&#45;&#45;2808365475296</title>
<path fill="none" stroke="black" d="M1005.81,-287.697C1005.81,-269.883 1005.81,-243.769 1005.81,-236.776"/>
</g>
<!-- 2808365477408 -->
<g id="node36" class="node"><title>2808365477408</title>
<ellipse fill="none" stroke="black" cx="1072.81" cy="-234" rx="46.6143" ry="18"/>
<text text-anchor="middle" x="1072.81" y="-230.5" font-family="Times New Roman,serif" font-size="15.00">xor loop</text>
</g>
<!-- 2808365474960&#45;&#45;2808365477408 -->
<g id="edge51" class="edge"><title>2808365474960&#45;&#45;2808365477408</title>
<path fill="none" stroke="black" d="M1019.69,-290.496C1030.66,-279.043 1045.95,-263.069 1057.31,-251.198"/>
</g>
<!-- 2808365477360 -->
<g id="node37" class="node"><title>2808365477360</title>
<ellipse fill="none" stroke="black" cx="1072.81" cy="-162" rx="27" ry="18"/>
<text text-anchor="middle" x="1072.81" y="-158.5" font-family="Times New Roman,serif" font-size="15.00">seq</text>
</g>
<!-- 2808365477408&#45;&#45;2808365477360 -->
<g id="edge49" class="edge"><title>2808365477408&#45;&#45;2808365477360</title>
<path fill="none" stroke="black" d="M1072.81,-215.697C1072.81,-204.846 1072.81,-190.917 1072.81,-180.104"/>
</g>
<!-- 2808365477264 -->
<g id="node56" class="node"><title>2808365477264</title>
<ellipse fill="black" stroke="black" cx="1120.81" cy="-162" rx="2.7" ry="2.7"/>
</g>
<!-- 2808365477408&#45;&#45;2808365477264 -->
<g id="edge50" class="edge"><title>2808365477408&#45;&#45;2808365477264</title>
<path fill="none" stroke="black" d="M1084.19,-216.411C1096.38,-198.622 1114.67,-171.962 1119.57,-164.816"/>
</g>
<!-- 2808365476064 -->
<g id="node38" class="node"><title>2808365476064</title>
<ellipse fill="none" stroke="black" cx="818.811" cy="-90" rx="27" ry="18"/>
<text text-anchor="middle" x="818.811" y="-86.5" font-family="Times New Roman,serif" font-size="15.00">xor</text>
</g>
<!-- 2808365477360&#45;&#45;2808365476064 -->
<g id="edge33" class="edge"><title>2808365477360&#45;&#45;2808365476064</title>
<path fill="none" stroke="black" d="M1047.99,-154.161C999.31,-140.744 891.818,-111.12 843.355,-97.7641"/>
</g>
<!-- 2808365473856 -->
<g id="node41" class="node"><title>2808365473856</title>
<ellipse fill="none" stroke="black" cx="939.811" cy="-90" rx="27" ry="18"/>
<text text-anchor="middle" x="939.811" y="-86.5" font-family="Times New Roman,serif" font-size="15.00">xor</text>
</g>
<!-- 2808365477360&#45;&#45;2808365473856 -->
<g id="edge36" class="edge"><title>2808365477360&#45;&#45;2808365473856</title>
<path fill="none" stroke="black" d="M1052.32,-150.216C1027.4,-137.1 985.573,-115.085 960.543,-101.912"/>
</g>
<!-- 2808386349328 -->
<g id="node44" class="node"><title>2808386349328</title>
<ellipse fill="none" stroke="black" cx="1072.81" cy="-90" rx="27" ry="18"/>
<text text-anchor="middle" x="1072.81" y="-86.5" font-family="Times New Roman,serif" font-size="15.00">xor</text>
</g>
<!-- 2808365477360&#45;&#45;2808386349328 -->
<g id="edge39" class="edge"><title>2808365477360&#45;&#45;2808386349328</title>
<path fill="none" stroke="black" d="M1072.81,-143.697C1072.81,-132.846 1072.81,-118.917 1072.81,-108.104"/>
</g>
<!-- 2808386351008 -->
<g id="node47" class="node"><title>2808386351008</title>
<ellipse fill="none" stroke="black" cx="1304.81" cy="-90" rx="27" ry="18"/>
<text text-anchor="middle" x="1304.81" y="-86.5" font-family="Times New Roman,serif" font-size="15.00">xor</text>
</g>
<!-- 2808365477360&#45;&#45;2808386351008 -->
<g id="edge42" class="edge"><title>2808365477360&#45;&#45;2808386351008</title>
<path fill="none" stroke="black" d="M1097.2,-153.641C1141.87,-140.162 1236.32,-111.666 1280.75,-98.2603"/>
</g>
<!-- 2808386350240 -->
<g id="node50" class="node"><title>2808386350240</title>
<ellipse fill="none" stroke="black" cx="1692.81" cy="-90" rx="27" ry="18"/>
<text text-anchor="middle" x="1692.81" y="-86.5" font-family="Times New Roman,serif" font-size="15.00">xor</text>
</g>
<!-- 2808365477360&#45;&#45;2808386350240 -->
<g id="edge45" class="edge"><title>2808365477360&#45;&#45;2808386350240</title>
<path fill="none" stroke="black" d="M1099.45,-157.992C1201.2,-146.504 1564.69,-105.465 1666.27,-93.9966"/>
</g>
<!-- 2808386350816 -->
<g id="node53" class="node"><title>2808386350816</title>
<ellipse fill="none" stroke="black" cx="2030.81" cy="-90" rx="27" ry="18"/>
<text text-anchor="middle" x="2030.81" y="-86.5" font-family="Times New Roman,serif" font-size="15.00">xor</text>
</g>
<!-- 2808365477360&#45;&#45;2808386350816 -->
<g id="edge48" class="edge"><title>2808365477360&#45;&#45;2808386350816</title>
<path fill="none" stroke="black" d="M1099.69,-159.036C1237.71,-148.951 1865.76,-103.06 2003.89,-92.967"/>
</g>
<!-- 2808365477744 -->
<g id="node39" class="node"><title>2808365477744</title>
<ellipse fill="black" stroke="black" cx="526.811" cy="-18" rx="2.7" ry="2.7"/>
</g>
<!-- 2808365476064&#45;&#45;2808365477744 -->
<g id="edge31" class="edge"><title>2808365476064&#45;&#45;2808365477744</title>
<path fill="none" stroke="black" d="M793.915,-83.0318C727.715,-67.1619 550.881,-24.7701 529.035,-19.5331"/>
</g>
<!-- 2808365474768 -->
<g id="node40" class="node"><title>2808365474768</title>
<ellipse fill="none" stroke="black" cx="691.811" cy="-18" rx="144.571" ry="18"/>
<text text-anchor="middle" x="691.811" y="-14.5" font-family="Times New Roman,serif" font-size="15.00">Insert Date Appeal to Prefecture</text>
</g>
<!-- 2808365476064&#45;&#45;2808365474768 -->
<g id="edge32" class="edge"><title>2808365476064&#45;&#45;2808365474768</title>
<path fill="none" stroke="black" d="M798.688,-77.9083C778.124,-66.5743 745.937,-48.833 722.255,-35.78"/>
</g>
<!-- 2808386348800 -->
<g id="node42" class="node"><title>2808386348800</title>
<ellipse fill="black" stroke="black" cx="856.811" cy="-18" rx="2.7" ry="2.7"/>
</g>
<!-- 2808365473856&#45;&#45;2808386348800 -->
<g id="edge34" class="edge"><title>2808365473856&#45;&#45;2808386348800</title>
<path fill="none" stroke="black" d="M923.413,-75.1703C902.248,-57.3201 867.13,-27.7024 858.681,-20.5768"/>
</g>
<!-- 2808386349040 -->
<g id="node43" class="node"><title>2808386349040</title>
<ellipse fill="none" stroke="black" cx="939.811" cy="-18" rx="61.6894" ry="18"/>
<text text-anchor="middle" x="939.811" y="-14.5" font-family="Times New Roman,serif" font-size="15.00">Add penalty</text>
</g>
<!-- 2808365473856&#45;&#45;2808386349040 -->
<g id="edge35" class="edge"><title>2808365473856&#45;&#45;2808386349040</title>
<path fill="none" stroke="black" d="M939.811,-71.6966C939.811,-60.8463 939.811,-46.9167 939.811,-36.1043"/>
</g>
<!-- 2808386348128 -->
<g id="node45" class="node"><title>2808386348128</title>
<ellipse fill="black" stroke="black" cx="1022.81" cy="-18" rx="2.7" ry="2.7"/>
</g>
<!-- 2808386349328&#45;&#45;2808386348128 -->
<g id="edge37" class="edge"><title>2808386349328&#45;&#45;2808386348128</title>
<path fill="none" stroke="black" d="M1061.71,-73.4647C1048.83,-55.42 1028.71,-27.254 1023.88,-20.4944"/>
</g>
<!-- 2808386349664 -->
<g id="node46" class="node"><title>2808386349664</title>
<ellipse fill="none" stroke="black" cx="1163.81" cy="-18" rx="120.43" ry="18"/>
<text text-anchor="middle" x="1163.81" y="-14.5" font-family="Times New Roman,serif" font-size="15.00">Send Appeal to Prefecture</text>
</g>
<!-- 2808386349328&#45;&#45;2808386349664 -->
<g id="edge38" class="edge"><title>2808386349328&#45;&#45;2808386349664</title>
<path fill="none" stroke="black" d="M1089.93,-75.8335C1104.65,-64.5068 1125.98,-48.1005 1141.94,-35.8238"/>
</g>
<!-- 2808386349184 -->
<g id="node48" class="node"><title>2808386349184</title>
<ellipse fill="black" stroke="black" cx="1304.81" cy="-18" rx="2.7" ry="2.7"/>
</g>
<!-- 2808386351008&#45;&#45;2808386349184 -->
<g id="edge40" class="edge"><title>2808386351008&#45;&#45;2808386349184</title>
<path fill="none" stroke="black" d="M1304.81,-71.6966C1304.81,-53.8826 1304.81,-27.7686 1304.81,-20.7764"/>
</g>
<!-- 2808386348848 -->
<g id="node49" class="node"><title>2808386348848</title>
<ellipse fill="none" stroke="black" cx="1498.81" cy="-18" rx="173.941" ry="18"/>
<text text-anchor="middle" x="1498.81" y="-14.5" font-family="Times New Roman,serif" font-size="15.00">Receive Result Appeal from Prefecture</text>
</g>
<!-- 2808386351008&#45;&#45;2808386348848 -->
<g id="edge41" class="edge"><title>2808386351008&#45;&#45;2808386348848</title>
<path fill="none" stroke="black" d="M1328.21,-80.5564C1359.05,-69.4293 1413.96,-49.615 1453.16,-35.472"/>
</g>
<!-- 2808386350336 -->
<g id="node51" class="node"><title>2808386350336</title>
<ellipse fill="black" stroke="black" cx="1692.81" cy="-18" rx="2.7" ry="2.7"/>
</g>
<!-- 2808386350240&#45;&#45;2808386350336 -->
<g id="edge43" class="edge"><title>2808386350240&#45;&#45;2808386350336</title>
<path fill="none" stroke="black" d="M1692.81,-71.6966C1692.81,-53.8826 1692.81,-27.7686 1692.81,-20.7764"/>
</g>
<!-- 2808386347600 -->
<g id="node52" class="node"><title>2808386347600</title>
<ellipse fill="none" stroke="black" cx="1861.81" cy="-18" rx="148.91" ry="18"/>
<text text-anchor="middle" x="1861.81" y="-14.5" font-family="Times New Roman,serif" font-size="15.00">Notify Result Appeal to Offender</text>
</g>
<!-- 2808386350240&#45;&#45;2808386347600 -->
<g id="edge44" class="edge"><title>2808386350240&#45;&#45;2808386347600</title>
<path fill="none" stroke="black" d="M1715.25,-79.7045C1742.46,-68.4359 1788.79,-49.2446 1822.09,-35.4544"/>
</g>
<!-- 2808386347552 -->
<g id="node54" class="node"><title>2808386347552</title>
<ellipse fill="black" stroke="black" cx="2030.81" cy="-18" rx="2.7" ry="2.7"/>
</g>
<!-- 2808386350816&#45;&#45;2808386347552 -->
<g id="edge46" class="edge"><title>2808386350816&#45;&#45;2808386347552</title>
<path fill="none" stroke="black" d="M2030.81,-71.6966C2030.81,-53.8826 2030.81,-27.7686 2030.81,-20.7764"/>
</g>
<!-- 2808386348224 -->
<g id="node55" class="node"><title>2808386348224</title>
<ellipse fill="none" stroke="black" cx="2097.81" cy="-18" rx="45.7249" ry="18"/>
<text text-anchor="middle" x="2097.81" y="-14.5" font-family="Times New Roman,serif" font-size="15.00">Payment</text>
</g>
<!-- 2808386350816&#45;&#45;2808386348224 -->
<g id="edge47" class="edge"><title>2808386350816&#45;&#45;2808386348224</title>
<path fill="none" stroke="black" d="M2044.69,-74.496C2055.66,-63.0429 2070.95,-47.0688 2082.31,-35.1982"/>
</g>
<!-- 2808386347744 -->
<g id="node59" class="node"><title>2808386347744</title>
<ellipse fill="none" stroke="black" cx="1139.81" cy="-378" rx="27" ry="18"/>
<text text-anchor="middle" x="1139.81" y="-374.5" font-family="Times New Roman,serif" font-size="15.00">seq</text>
</g>
<!-- 2808365475920&#45;&#45;2808386347744 -->
<g id="edge59" class="edge"><title>2808365475920&#45;&#45;2808386347744</title>
<path fill="none" stroke="black" d="M1139.81,-431.697C1139.81,-420.846 1139.81,-406.917 1139.81,-396.104"/>
</g>
<!-- 2808386349904 -->
<g id="node63" class="node"><title>2808386349904</title>
<ellipse fill="none" stroke="black" cx="1305.81" cy="-378" rx="27" ry="18"/>
<text text-anchor="middle" x="1305.81" y="-374.5" font-family="Times New Roman,serif" font-size="15.00">seq</text>
</g>
<!-- 2808365475920&#45;&#45;2808386349904 -->
<g id="edge64" class="edge"><title>2808365475920&#45;&#45;2808386349904</title>
<path fill="none" stroke="black" d="M1162.2,-439.559C1193.97,-426.162 1251.79,-401.779 1283.51,-388.402"/>
</g>
<!-- 2808386348416 -->
<g id="node60" class="node"><title>2808386348416</title>
<ellipse fill="none" stroke="black" cx="1139.81" cy="-306" rx="27" ry="18"/>
<text text-anchor="middle" x="1139.81" y="-302.5" font-family="Times New Roman,serif" font-size="15.00">xor</text>
</g>
<!-- 2808386347744&#45;&#45;2808386348416 -->
<g id="edge58" class="edge"><title>2808386347744&#45;&#45;2808386348416</title>
<path fill="none" stroke="black" d="M1139.81,-359.697C1139.81,-348.846 1139.81,-334.917 1139.81,-324.104"/>
</g>
<!-- 2808386347216 -->
<g id="node61" class="node"><title>2808386347216</title>
<ellipse fill="black" stroke="black" cx="1139.81" cy="-234" rx="2.7" ry="2.7"/>
</g>
<!-- 2808386348416&#45;&#45;2808386347216 -->
<g id="edge56" class="edge"><title>2808386348416&#45;&#45;2808386347216</title>
<path fill="none" stroke="black" d="M1139.81,-287.697C1139.81,-269.883 1139.81,-243.769 1139.81,-236.776"/>
</g>
<!-- 2808386347312 -->
<g id="node62" class="node"><title>2808386347312</title>
<ellipse fill="none" stroke="black" cx="1238.81" cy="-234" rx="78.5434" ry="18"/>
<text text-anchor="middle" x="1238.81" y="-230.5" font-family="Times New Roman,serif" font-size="15.00">Appeal to Judge</text>
</g>
<!-- 2808386348416&#45;&#45;2808386347312 -->
<g id="edge57" class="edge"><title>2808386348416&#45;&#45;2808386347312</title>
<path fill="none" stroke="black" d="M1157.97,-292.161C1174.16,-280.715 1197.94,-263.897 1215.53,-251.464"/>
</g>
<!-- 2808386347072 -->
<g id="node64" class="node"><title>2808386347072</title>
<ellipse fill="none" stroke="black" cx="1305.81" cy="-306" rx="120.819" ry="18"/>
<text text-anchor="middle" x="1305.81" y="-302.5" font-family="Times New Roman,serif" font-size="15.00">Send for Credit Collection</text>
</g>
<!-- 2808386349904&#45;&#45;2808386347072 -->
<g id="edge60" class="edge"><title>2808386349904&#45;&#45;2808386347072</title>
<path fill="none" stroke="black" d="M1305.81,-359.697C1305.81,-348.846 1305.81,-334.917 1305.81,-324.104"/>
</g>
<!-- 2808386350864 -->
<g id="node65" class="node"><title>2808386350864</title>
<ellipse fill="none" stroke="black" cx="1471.81" cy="-306" rx="27" ry="18"/>
<text text-anchor="middle" x="1471.81" y="-302.5" font-family="Times New Roman,serif" font-size="15.00">xor</text>
</g>
<!-- 2808386349904&#45;&#45;2808386350864 -->
<g id="edge63" class="edge"><title>2808386349904&#45;&#45;2808386350864</title>
<path fill="none" stroke="black" d="M1328.2,-367.559C1359.97,-354.162 1417.79,-329.779 1449.51,-316.402"/>
</g>
<!-- 2808386350672 -->
<g id="node66" class="node"><title>2808386350672</title>
<ellipse fill="black" stroke="black" cx="1404.81" cy="-234" rx="2.7" ry="2.7"/>
</g>
<!-- 2808386350864&#45;&#45;2808386350672 -->
<g id="edge61" class="edge"><title>2808386350864&#45;&#45;2808386350672</title>
<path fill="none" stroke="black" d="M1457.93,-290.496C1440.76,-272.555 1412.97,-243.522 1406.29,-236.544"/>
</g>
<!-- 2808386350768 -->
<g id="node67" class="node"><title>2808386350768</title>
<ellipse fill="none" stroke="black" cx="1545.81" cy="-234" rx="120.43" ry="18"/>
<text text-anchor="middle" x="1545.81" y="-230.5" font-family="Times New Roman,serif" font-size="15.00">Send Appeal to Prefecture</text>
</g>
<!-- 2808386350864&#45;&#45;2808386350768 -->
<g id="edge62" class="edge"><title>2808386350864&#45;&#45;2808386350768</title>
<path fill="none" stroke="black" d="M1486.79,-290.834C1498.7,-279.569 1515.39,-263.775 1527.99,-251.859"/>
</g>
</g>
</svg>
