<?xml version="1.0" encoding="UTF-8" standalone="no"?>
<!DOCTYPE svg PUBLIC "-//W3C//DTD SVG 1.1//EN"
 "http://www.w3.org/Graphics/SVG/1.1/DTD/svg11.dtd">
<!-- Generated by graphviz version 2.38.0 (20140413.2041)
 -->
<!-- Title: pt Pages: 1 -->
<svg width="1032pt" height="548pt"
 viewBox="0.00 0.00 1032.23 548.00" xmlns="http://www.w3.org/2000/svg" xmlns:xlink="http://www.w3.org/1999/xlink">
<g id="graph0" class="graph" transform="scale(1 1) rotate(0) translate(4 544)">
<title>pt</title>
<!-- 2808205872480 -->
<g id="node1" class="node"><title>2808205872480</title>
<ellipse fill="none" stroke="black" cx="231.707" cy="-522" rx="27" ry="18"/>
<text text-anchor="middle" x="231.707" y="-518.5" font-family="Times New Roman,serif" font-size="15.00">seq</text>
</g>
<!-- 2808205869552 -->
<g id="node2" class="node"><title>2808205869552</title>
<ellipse fill="none" stroke="black" cx="126.707" cy="-450" rx="59.5207" ry="18"/>
<text text-anchor="middle" x="126.707" y="-446.5" font-family="Times New Roman,serif" font-size="15.00">Create Fine</text>
</g>
<!-- 2808205872480&#45;&#45;2808205869552 -->
<g id="edge1" class="edge"><title>2808205872480&#45;&#45;2808205869552</title>
<path fill="none" stroke="black" d="M212.935,-508.485C195.357,-496.767 169.03,-479.215 150.093,-466.591"/>
</g>
<!-- 2808205871712 -->
<g id="node3" class="node"><title>2808205871712</title>
<ellipse fill="none" stroke="black" cx="231.707" cy="-450" rx="27" ry="18"/>
<text text-anchor="middle" x="231.707" y="-446.5" font-family="Times New Roman,serif" font-size="15.00">and</text>
</g>
<!-- 2808205872480&#45;&#45;2808205871712 -->
<g id="edge30" class="edge"><title>2808205872480&#45;&#45;2808205871712</title>
<path fill="none" stroke="black" d="M231.707,-503.697C231.707,-492.846 231.707,-478.917 231.707,-468.104"/>
</g>
<!-- 2808205871760 -->
<g id="node32" class="node"><title>2808205871760</title>
<ellipse fill="none" stroke="black" cx="303.707" cy="-450" rx="27" ry="18"/>
<text text-anchor="middle" x="303.707" y="-446.5" font-family="Times New Roman,serif" font-size="15.00">xor</text>
</g>
<!-- 2808205872480&#45;&#45;2808205871760 -->
<g id="edge33" class="edge"><title>2808205872480&#45;&#45;2808205871760</title>
<path fill="none" stroke="black" d="M246.277,-506.834C258.687,-494.77 276.437,-477.512 288.911,-465.385"/>
</g>
<!-- 2808205872576 -->
<g id="node4" class="node"><title>2808205872576</title>
<ellipse fill="none" stroke="black" cx="121.707" cy="-378" rx="46.6143" ry="18"/>
<text text-anchor="middle" x="121.707" y="-374.5" font-family="Times New Roman,serif" font-size="15.00">xor loop</text>
</g>
<!-- 2808205871712&#45;&#45;2808205872576 -->
<g id="edge4" class="edge"><title>2808205871712&#45;&#45;2808205872576</title>
<path fill="none" stroke="black" d="M212.546,-436.807C193.711,-424.821 164.942,-406.513 144.842,-393.722"/>
</g>
<!-- 2808205869456 -->
<g id="node7" class="node"><title>2808205869456</title>
<ellipse fill="none" stroke="black" cx="237.707" cy="-378" rx="27" ry="18"/>
<text text-anchor="middle" x="237.707" y="-374.5" font-family="Times New Roman,serif" font-size="15.00">xor</text>
</g>
<!-- 2808205871712&#45;&#45;2808205869456 -->
<g id="edge29" class="edge"><title>2808205871712&#45;&#45;2808205869456</title>
<path fill="none" stroke="black" d="M233.19,-431.697C234.12,-420.846 235.314,-406.917 236.241,-396.104"/>
</g>
<!-- 2808205871808 -->
<g id="node5" class="node"><title>2808205871808</title>
<ellipse fill="black" stroke="black" cx="54.7068" cy="-306" rx="2.7" ry="2.7"/>
</g>
<!-- 2808205872576&#45;&#45;2808205871808 -->
<g id="edge2" class="edge"><title>2808205872576&#45;&#45;2808205871808</title>
<path fill="none" stroke="black" d="M106.167,-360.765C88.8488,-342.671 62.4382,-315.078 56.1061,-308.462"/>
</g>
<!-- 2808205872384 -->
<g id="node6" class="node"><title>2808205872384</title>
<ellipse fill="none" stroke="black" cx="121.707" cy="-306" rx="45.7249" ry="18"/>
<text text-anchor="middle" x="121.707" y="-302.5" font-family="Times New Roman,serif" font-size="15.00">Payment</text>
</g>
<!-- 2808205872576&#45;&#45;2808205872384 -->
<g id="edge3" class="edge"><title>2808205872576&#45;&#45;2808205872384</title>
<path fill="none" stroke="black" d="M121.707,-359.697C121.707,-348.846 121.707,-334.917 121.707,-324.104"/>
</g>
<!-- 2808205870272 -->
<g id="node8" class="node"><title>2808205870272</title>
<ellipse fill="black" stroke="black" cx="188.707" cy="-306" rx="2.7" ry="2.7"/>
</g>
<!-- 2808205869456&#45;&#45;2808205870272 -->
<g id="edge5" class="edge"><title>2808205869456&#45;&#45;2808205870272</title>
<path fill="none" stroke="black" d="M226.832,-361.465C214.201,-343.42 194.485,-315.254 189.753,-308.494"/>
</g>
<!-- 2808205870368 -->
<g id="node9" class="node"><title>2808205870368</title>
<ellipse fill="none" stroke="black" cx="262.707" cy="-306" rx="52.6228" ry="18"/>
<text text-anchor="middle" x="262.707" y="-302.5" font-family="Times New Roman,serif" font-size="15.00">Send Fine</text>
</g>
<!-- 2808205869456&#45;&#45;2808205870368 -->
<g id="edge6" class="edge"><title>2808205869456&#45;&#45;2808205870368</title>
<path fill="none" stroke="black" d="M243.631,-360.411C247.559,-349.414 252.697,-335.027 256.651,-323.956"/>
</g>
<!-- 2808205870704 -->
<g id="node10" class="node"><title>2808205870704</title>
<ellipse fill="none" stroke="black" cx="360.707" cy="-306" rx="27" ry="18"/>
<text text-anchor="middle" x="360.707" y="-302.5" font-family="Times New Roman,serif" font-size="15.00">seq</text>
</g>
<!-- 2808205869456&#45;&#45;2808205870704 -->
<g id="edge28" class="edge"><title>2808205869456&#45;&#45;2808205870704</title>
<path fill="none" stroke="black" d="M257.743,-365.597C280.615,-352.581 317.81,-331.413 340.68,-318.398"/>
</g>
<!-- 2808205872048 -->
<g id="node11" class="node"><title>2808205872048</title>
<ellipse fill="none" stroke="black" cx="262.707" cy="-234" rx="52.6228" ry="18"/>
<text text-anchor="middle" x="262.707" y="-230.5" font-family="Times New Roman,serif" font-size="15.00">Send Fine</text>
</g>
<!-- 2808205870704&#45;&#45;2808205872048 -->
<g id="edge7" class="edge"><title>2808205870704&#45;&#45;2808205872048</title>
<path fill="none" stroke="black" d="M342.732,-292.161C326.265,-280.399 301.858,-262.965 284.331,-250.446"/>
</g>
<!-- 2808205869984 -->
<g id="node12" class="node"><title>2808205869984</title>
<ellipse fill="none" stroke="black" cx="360.707" cy="-234" rx="27" ry="18"/>
<text text-anchor="middle" x="360.707" y="-230.5" font-family="Times New Roman,serif" font-size="15.00">seq</text>
</g>
<!-- 2808205870704&#45;&#45;2808205869984 -->
<g id="edge20" class="edge"><title>2808205870704&#45;&#45;2808205869984</title>
<path fill="none" stroke="black" d="M360.707,-287.697C360.707,-276.846 360.707,-262.917 360.707,-252.104"/>
</g>
<!-- 2808205871616 -->
<g id="node25" class="node"><title>2808205871616</title>
<ellipse fill="none" stroke="black" cx="707.707" cy="-234" rx="27" ry="18"/>
<text text-anchor="middle" x="707.707" y="-230.5" font-family="Times New Roman,serif" font-size="15.00">and</text>
</g>
<!-- 2808205870704&#45;&#45;2808205871616 -->
<g id="edge27" class="edge"><title>2808205870704&#45;&#45;2808205871616</title>
<path fill="none" stroke="black" d="M386.222,-299.853C450.393,-286.908 617.943,-253.108 682.154,-240.155"/>
</g>
<!-- 2808363372752 -->
<g id="node13" class="node"><title>2808363372752</title>
<ellipse fill="none" stroke="black" cx="107.707" cy="-162" rx="107.914" ry="18"/>
<text text-anchor="middle" x="107.707" y="-158.5" font-family="Times New Roman,serif" font-size="15.00">Insert Fine Notification</text>
</g>
<!-- 2808205869984&#45;&#45;2808363372752 -->
<g id="edge8" class="edge"><title>2808205869984&#45;&#45;2808363372752</title>
<path fill="none" stroke="black" d="M335.987,-226.161C295.702,-215.014 214.987,-192.682 161.144,-177.785"/>
</g>
<!-- 2808363373952 -->
<g id="node14" class="node"><title>2808363373952</title>
<ellipse fill="none" stroke="black" cx="260.707" cy="-162" rx="27" ry="18"/>
<text text-anchor="middle" x="260.707" y="-158.5" font-family="Times New Roman,serif" font-size="15.00">xor</text>
</g>
<!-- 2808205869984&#45;&#45;2808363373952 -->
<g id="edge11" class="edge"><title>2808205869984&#45;&#45;2808363373952</title>
<path fill="none" stroke="black" d="M342.829,-220.485C324.739,-207.823 296.922,-188.351 278.767,-175.642"/>
</g>
<!-- 2808363374144 -->
<g id="node17" class="node"><title>2808363374144</title>
<ellipse fill="none" stroke="black" cx="461.707" cy="-162" rx="27" ry="18"/>
<text text-anchor="middle" x="461.707" y="-158.5" font-family="Times New Roman,serif" font-size="15.00">seq</text>
</g>
<!-- 2808205869984&#45;&#45;2808363374144 -->
<g id="edge19" class="edge"><title>2808205869984&#45;&#45;2808363374144</title>
<path fill="none" stroke="black" d="M378.764,-220.485C397.034,-207.823 425.13,-188.351 443.466,-175.642"/>
</g>
<!-- 2808363375920 -->
<g id="node15" class="node"><title>2808363375920</title>
<ellipse fill="black" stroke="black" cx="18.7068" cy="-90" rx="2.7" ry="2.7"/>
</g>
<!-- 2808363373952&#45;&#45;2808363375920 -->
<g id="edge9" class="edge"><title>2808363373952&#45;&#45;2808363375920</title>
<path fill="none" stroke="black" d="M236.171,-153.903C178.973,-137.358 40.1691,-97.2081 20.9326,-91.6438"/>
</g>
<!-- 2808363373232 -->
<g id="node16" class="node"><title>2808363373232</title>
<ellipse fill="none" stroke="black" cx="183.707" cy="-90" rx="144.571" ry="18"/>
<text text-anchor="middle" x="183.707" y="-86.5" font-family="Times New Roman,serif" font-size="15.00">Insert Date Appeal to Prefecture</text>
</g>
<!-- 2808363373952&#45;&#45;2808363373232 -->
<g id="edge10" class="edge"><title>2808363373952&#45;&#45;2808363373232</title>
<path fill="none" stroke="black" d="M245.125,-146.834C232.732,-135.569 215.359,-119.775 202.251,-107.859"/>
</g>
<!-- 2808363373808 -->
<g id="node18" class="node"><title>2808363373808</title>
<ellipse fill="none" stroke="black" cx="407.707" cy="-90" rx="61.6894" ry="18"/>
<text text-anchor="middle" x="407.707" y="-86.5" font-family="Times New Roman,serif" font-size="15.00">Add penalty</text>
</g>
<!-- 2808363374144&#45;&#45;2808363373808 -->
<g id="edge12" class="edge"><title>2808363374144&#45;&#45;2808363373808</title>
<path fill="none" stroke="black" d="M449.722,-145.465C441.147,-134.348 429.607,-119.39 420.792,-107.962"/>
</g>
<!-- 2808363373712 -->
<g id="node19" class="node"><title>2808363373712</title>
<ellipse fill="none" stroke="black" cx="514.707" cy="-90" rx="27" ry="18"/>
<text text-anchor="middle" x="514.707" y="-86.5" font-family="Times New Roman,serif" font-size="15.00">xor</text>
</g>
<!-- 2808363374144&#45;&#45;2808363373712 -->
<g id="edge15" class="edge"><title>2808363374144&#45;&#45;2808363373712</title>
<path fill="none" stroke="black" d="M473.469,-145.465C482.252,-133.865 494.202,-118.082 502.977,-106.492"/>
</g>
<!-- 2808363374192 -->
<g id="node22" class="node"><title>2808363374192</title>
<ellipse fill="none" stroke="black" cx="632.707" cy="-90" rx="27" ry="18"/>
<text text-anchor="middle" x="632.707" y="-86.5" font-family="Times New Roman,serif" font-size="15.00">xor</text>
</g>
<!-- 2808363374144&#45;&#45;2808363374192 -->
<g id="edge18" class="edge"><title>2808363374144&#45;&#45;2808363374192</title>
<path fill="none" stroke="black" d="M484.062,-151.849C516.834,-138.433 577.571,-113.57 610.346,-100.154"/>
</g>
<!-- 2808363156240 -->
<g id="node20" class="node"><title>2808363156240</title>
<ellipse fill="black" stroke="black" cx="325.707" cy="-18" rx="2.7" ry="2.7"/>
</g>
<!-- 2808363373712&#45;&#45;2808363156240 -->
<g id="edge13" class="edge"><title>2808363373712&#45;&#45;2808363156240</title>
<path fill="none" stroke="black" d="M491.532,-80.4166C445.4,-63.331 345.054,-26.1658 328.148,-19.9042"/>
</g>
<!-- 2808363158784 -->
<g id="node21" class="node"><title>2808363158784</title>
<ellipse fill="none" stroke="black" cx="490.707" cy="-18" rx="144.571" ry="18"/>
<text text-anchor="middle" x="490.707" y="-14.5" font-family="Times New Roman,serif" font-size="15.00">Insert Date Appeal to Prefecture</text>
</g>
<!-- 2808363373712&#45;&#45;2808363158784 -->
<g id="edge14" class="edge"><title>2808363373712&#45;&#45;2808363158784</title>
<path fill="none" stroke="black" d="M508.897,-72.055C505.179,-61.2111 500.37,-47.183 496.63,-36.2753"/>
</g>
<!-- 2808363156144 -->
<g id="node23" class="node"><title>2808363156144</title>
<ellipse fill="black" stroke="black" cx="655.707" cy="-18" rx="2.7" ry="2.7"/>
</g>
<!-- 2808363374192&#45;&#45;2808363156144 -->
<g id="edge16" class="edge"><title>2808363374192&#45;&#45;2808363156144</title>
<path fill="none" stroke="black" d="M638.274,-72.055C644.124,-54.2515 652.794,-27.8653 655.117,-20.7963"/>
</g>
<!-- 2808363158112 -->
<g id="node24" class="node"><title>2808363158112</title>
<ellipse fill="none" stroke="black" cx="796.707" cy="-18" rx="120.43" ry="18"/>
<text text-anchor="middle" x="796.707" y="-14.5" font-family="Times New Roman,serif" font-size="15.00">Send Appeal to Prefecture</text>
</g>
<!-- 2808363374192&#45;&#45;2808363158112 -->
<g id="edge17" class="edge"><title>2808363374192&#45;&#45;2808363158112</title>
<path fill="none" stroke="black" d="M654.825,-79.5595C681.491,-68.1774 726.736,-48.8657 758.961,-35.1109"/>
</g>
<!-- 2808363156288 -->
<g id="node26" class="node"><title>2808363156288</title>
<ellipse fill="none" stroke="black" cx="707.707" cy="-162" rx="46.6143" ry="18"/>
<text text-anchor="middle" x="707.707" y="-158.5" font-family="Times New Roman,serif" font-size="15.00">xor loop</text>
</g>
<!-- 2808205871616&#45;&#45;2808363156288 -->
<g id="edge23" class="edge"><title>2808205871616&#45;&#45;2808363156288</title>
<path fill="none" stroke="black" d="M707.707,-215.697C707.707,-204.846 707.707,-190.917 707.707,-180.104"/>
</g>
<!-- 2808363376016 -->
<g id="node29" class="node"><title>2808363376016</title>
<ellipse fill="none" stroke="black" cx="846.707" cy="-162" rx="46.6143" ry="18"/>
<text text-anchor="middle" x="846.707" y="-158.5" font-family="Times New Roman,serif" font-size="15.00">xor loop</text>
</g>
<!-- 2808205871616&#45;&#45;2808363376016 -->
<g id="edge26" class="edge"><title>2808205871616&#45;&#45;2808363376016</title>
<path fill="none" stroke="black" d="M728.516,-222.52C752.752,-210.316 792.861,-190.117 819.535,-176.684"/>
</g>
<!-- 2808363158544 -->
<g id="node27" class="node"><title>2808363158544</title>
<ellipse fill="black" stroke="black" cx="680.707" cy="-90" rx="2.7" ry="2.7"/>
</g>
<!-- 2808363156288&#45;&#45;2808363158544 -->
<g id="edge21" class="edge"><title>2808363156288&#45;&#45;2808363158544</title>
<path fill="none" stroke="black" d="M701.171,-144.055C694.304,-126.252 684.126,-99.8653 681.4,-92.7963"/>
</g>
<!-- 2808363159120 -->
<g id="node28" class="node"><title>2808363159120</title>
<ellipse fill="none" stroke="black" cx="763.707" cy="-90" rx="61.6894" ry="18"/>
<text text-anchor="middle" x="763.707" y="-86.5" font-family="Times New Roman,serif" font-size="15.00">Add Penalty</text>
</g>
<!-- 2808363156288&#45;&#45;2808363159120 -->
<g id="edge22" class="edge"><title>2808363156288&#45;&#45;2808363159120</title>
<path fill="none" stroke="black" d="M720.978,-144.411C729.775,-133.414 741.285,-119.027 750.142,-107.956"/>
</g>
<!-- 2808363157920 -->
<g id="node30" class="node"><title>2808363157920</title>
<ellipse fill="black" stroke="black" cx="846.707" cy="-90" rx="2.7" ry="2.7"/>
</g>
<!-- 2808363376016&#45;&#45;2808363157920 -->
<g id="edge24" class="edge"><title>2808363376016&#45;&#45;2808363157920</title>
<path fill="none" stroke="black" d="M846.707,-143.697C846.707,-125.883 846.707,-99.7686 846.707,-92.7764"/>
</g>
<!-- 2808363158928 -->
<g id="node31" class="node"><title>2808363158928</title>
<ellipse fill="none" stroke="black" cx="945.707" cy="-90" rx="78.5434" ry="18"/>
<text text-anchor="middle" x="945.707" y="-86.5" font-family="Times New Roman,serif" font-size="15.00">Appeal to Judge</text>
</g>
<!-- 2808363376016&#45;&#45;2808363158928 -->
<g id="edge25" class="edge"><title>2808363376016&#45;&#45;2808363158928</title>
<path fill="none" stroke="black" d="M868.188,-145.811C884.225,-134.472 906.112,-118.996 922.541,-107.38"/>
</g>
<!-- 2808205870176 -->
<g id="node33" class="node"><title>2808205870176</title>
<ellipse fill="black" stroke="black" cx="297.707" cy="-378" rx="2.7" ry="2.7"/>
</g>
<!-- 2808205871760&#45;&#45;2808205870176 -->
<g id="edge31" class="edge"><title>2808205871760&#45;&#45;2808205870176</title>
<path fill="none" stroke="black" d="M302.224,-431.697C300.697,-413.883 298.458,-387.769 297.859,-380.776"/>
</g>
<!-- 2808205872720 -->
<g id="node34" class="node"><title>2808205872720</title>
<ellipse fill="none" stroke="black" cx="439.707" cy="-378" rx="120.819" ry="18"/>
<text text-anchor="middle" x="439.707" y="-374.5" font-family="Times New Roman,serif" font-size="15.00">Send for Credit Collection</text>
</g>
<!-- 2808205871760&#45;&#45;2808205872720 -->
<g id="edge32" class="edge"><title>2808205871760&#45;&#45;2808205872720</title>
<path fill="none" stroke="black" d="M324.362,-438.369C346.506,-426.971 381.947,-408.729 407.705,-395.471"/>
</g>
</g>
</svg>
