<?xml version="1.0" encoding="UTF-8" standalone="no"?>
<!DOCTYPE svg PUBLIC "-//W3C//DTD SVG 1.1//EN"
 "http://www.w3.org/Graphics/SVG/1.1/DTD/svg11.dtd">
<!-- Generated by graphviz version 2.38.0 (20140413.2041)
 -->
<!-- Title: pt Pages: 1 -->
<svg width="2191pt" height="620pt"
 viewBox="0.00 0.00 2190.67 620.00" xmlns="http://www.w3.org/2000/svg" xmlns:xlink="http://www.w3.org/1999/xlink">
<g id="graph0" class="graph" transform="scale(1 1) rotate(0) translate(4 616)">
<title>pt</title>
<!-- 2808383964688 -->
<g id="node1" class="node"><title>2808383964688</title>
<ellipse fill="none" stroke="black" cx="430.811" cy="-594" rx="27" ry="18"/>
<text text-anchor="middle" x="430.811" y="-590.5" font-family="Times New Roman,serif" font-size="15.00">and</text>
</g>
<!-- 2808383966224 -->
<g id="node2" class="node"><title>2808383966224</title>
<ellipse fill="none" stroke="black" cx="305.811" cy="-522" rx="27" ry="18"/>
<text text-anchor="middle" x="305.811" y="-518.5" font-family="Times New Roman,serif" font-size="15.00">xor</text>
</g>
<!-- 2808383964688&#45;&#45;2808383966224 -->
<g id="edge22" class="edge"><title>2808383964688&#45;&#45;2808383966224</title>
<path fill="none" stroke="black" d="M410.728,-581.753C387.401,-568.691 349.15,-547.27 325.845,-534.219"/>
</g>
<!-- 2808383965744 -->
<g id="node24" class="node"><title>2808383965744</title>
<ellipse fill="none" stroke="black" cx="674.811" cy="-522" rx="27" ry="18"/>
<text text-anchor="middle" x="674.811" y="-518.5" font-family="Times New Roman,serif" font-size="15.00">seq</text>
</g>
<!-- 2808383964688&#45;&#45;2808383965744 -->
<g id="edge59" class="edge"><title>2808383964688&#45;&#45;2808383965744</title>
<path fill="none" stroke="black" d="M455.099,-586.032C501.748,-572.649 603.404,-543.486 650.259,-530.043"/>
</g>
<!-- 2808383289280 -->
<g id="node3" class="node"><title>2808383289280</title>
<ellipse fill="black" stroke="black" cx="257.811" cy="-450" rx="2.7" ry="2.7"/>
</g>
<!-- 2808383966224&#45;&#45;2808383289280 -->
<g id="edge1" class="edge"><title>2808383966224&#45;&#45;2808383289280</title>
<path fill="none" stroke="black" d="M294.919,-505.116C282.749,-487.367 264.091,-460.158 259.084,-452.857"/>
</g>
<!-- 2808383289376 -->
<g id="node4" class="node"><title>2808383289376</title>
<ellipse fill="none" stroke="black" cx="305.811" cy="-450" rx="27" ry="18"/>
<text text-anchor="middle" x="305.811" y="-446.5" font-family="Times New Roman,serif" font-size="15.00">and</text>
</g>
<!-- 2808383966224&#45;&#45;2808383289376 -->
<g id="edge21" class="edge"><title>2808383966224&#45;&#45;2808383289376</title>
<path fill="none" stroke="black" d="M305.811,-503.697C305.811,-492.846 305.811,-478.917 305.811,-468.104"/>
</g>
<!-- 2808383619328 -->
<g id="node5" class="node"><title>2808383619328</title>
<ellipse fill="none" stroke="black" cx="164.811" cy="-378" rx="46.6143" ry="18"/>
<text text-anchor="middle" x="164.811" y="-374.5" font-family="Times New Roman,serif" font-size="15.00">xor loop</text>
</g>
<!-- 2808383289376&#45;&#45;2808383619328 -->
<g id="edge4" class="edge"><title>2808383289376&#45;&#45;2808383619328</title>
<path fill="none" stroke="black" d="M284.702,-438.52C260.118,-426.316 219.432,-406.117 192.374,-392.684"/>
</g>
<!-- 2808383619520 -->
<g id="node8" class="node"><title>2808383619520</title>
<ellipse fill="none" stroke="black" cx="305.811" cy="-378" rx="27" ry="18"/>
<text text-anchor="middle" x="305.811" y="-374.5" font-family="Times New Roman,serif" font-size="15.00">xor</text>
</g>
<!-- 2808383289376&#45;&#45;2808383619520 -->
<g id="edge20" class="edge"><title>2808383289376&#45;&#45;2808383619520</title>
<path fill="none" stroke="black" d="M305.811,-431.697C305.811,-420.846 305.811,-406.917 305.811,-396.104"/>
</g>
<!-- 2808383619568 -->
<g id="node6" class="node"><title>2808383619568</title>
<ellipse fill="black" stroke="black" cx="97.8111" cy="-306" rx="2.7" ry="2.7"/>
</g>
<!-- 2808383619328&#45;&#45;2808383619568 -->
<g id="edge2" class="edge"><title>2808383619328&#45;&#45;2808383619568</title>
<path fill="none" stroke="black" d="M149.272,-360.765C131.953,-342.671 105.542,-315.078 99.2104,-308.462"/>
</g>
<!-- 2808383619664 -->
<g id="node7" class="node"><title>2808383619664</title>
<ellipse fill="none" stroke="black" cx="164.811" cy="-306" rx="45.7249" ry="18"/>
<text text-anchor="middle" x="164.811" y="-302.5" font-family="Times New Roman,serif" font-size="15.00">Payment</text>
</g>
<!-- 2808383619328&#45;&#45;2808383619664 -->
<g id="edge3" class="edge"><title>2808383619328&#45;&#45;2808383619664</title>
<path fill="none" stroke="black" d="M164.811,-359.697C164.811,-348.846 164.811,-334.917 164.811,-324.104"/>
</g>
<!-- 2808383619856 -->
<g id="node9" class="node"><title>2808383619856</title>
<ellipse fill="black" stroke="black" cx="231.811" cy="-306" rx="2.7" ry="2.7"/>
</g>
<!-- 2808383619520&#45;&#45;2808383619856 -->
<g id="edge5" class="edge"><title>2808383619520&#45;&#45;2808383619856</title>
<path fill="none" stroke="black" d="M290.836,-362.834C271.916,-344.937 240.915,-315.612 233.46,-308.56"/>
</g>
<!-- 2808383619952 -->
<g id="node10" class="node"><title>2808383619952</title>
<ellipse fill="none" stroke="black" cx="305.811" cy="-306" rx="52.6228" ry="18"/>
<text text-anchor="middle" x="305.811" y="-302.5" font-family="Times New Roman,serif" font-size="15.00">Send Fine</text>
</g>
<!-- 2808383619520&#45;&#45;2808383619952 -->
<g id="edge6" class="edge"><title>2808383619520&#45;&#45;2808383619952</title>
<path fill="none" stroke="black" d="M305.811,-359.697C305.811,-348.846 305.811,-334.917 305.811,-324.104"/>
</g>
<!-- 2808383620048 -->
<g id="node11" class="node"><title>2808383620048</title>
<ellipse fill="none" stroke="black" cx="403.811" cy="-306" rx="27" ry="18"/>
<text text-anchor="middle" x="403.811" y="-302.5" font-family="Times New Roman,serif" font-size="15.00">seq</text>
</g>
<!-- 2808383619520&#45;&#45;2808383620048 -->
<g id="edge19" class="edge"><title>2808383619520&#45;&#45;2808383620048</title>
<path fill="none" stroke="black" d="M323.786,-364.161C341.468,-351.531 368.307,-332.36 385.95,-319.758"/>
</g>
<!-- 2808383620288 -->
<g id="node12" class="node"><title>2808383620288</title>
<ellipse fill="none" stroke="black" cx="52.8111" cy="-234" rx="52.6228" ry="18"/>
<text text-anchor="middle" x="52.8111" y="-230.5" font-family="Times New Roman,serif" font-size="15.00">Send Fine</text>
</g>
<!-- 2808383620048&#45;&#45;2808383620288 -->
<g id="edge7" class="edge"><title>2808383620048&#45;&#45;2808383620288</title>
<path fill="none" stroke="black" d="M378.285,-299.909C319.048,-288.096 171.636,-258.697 97.2456,-243.862"/>
</g>
<!-- 2808383620384 -->
<g id="node13" class="node"><title>2808383620384</title>
<ellipse fill="none" stroke="black" cx="231.811" cy="-234" rx="107.914" ry="18"/>
<text text-anchor="middle" x="231.811" y="-230.5" font-family="Times New Roman,serif" font-size="15.00">Insert Fine Notification</text>
</g>
<!-- 2808383620048&#45;&#45;2808383620384 -->
<g id="edge8" class="edge"><title>2808383620048&#45;&#45;2808383620384</title>
<path fill="none" stroke="black" d="M381.325,-295.849C353.279,-284.434 304.87,-264.733 270.746,-250.846"/>
</g>
<!-- 2808383620480 -->
<g id="node14" class="node"><title>2808383620480</title>
<ellipse fill="none" stroke="black" cx="403.811" cy="-234" rx="46.6143" ry="18"/>
<text text-anchor="middle" x="403.811" y="-230.5" font-family="Times New Roman,serif" font-size="15.00">xor loop</text>
</g>
<!-- 2808383620048&#45;&#45;2808383620480 -->
<g id="edge11" class="edge"><title>2808383620048&#45;&#45;2808383620480</title>
<path fill="none" stroke="black" d="M403.811,-287.697C403.811,-276.846 403.811,-262.917 403.811,-252.104"/>
</g>
<!-- 2808383620672 -->
<g id="node17" class="node"><title>2808383620672</title>
<ellipse fill="none" stroke="black" cx="512.811" cy="-234" rx="27" ry="18"/>
<text text-anchor="middle" x="512.811" y="-230.5" font-family="Times New Roman,serif" font-size="15.00">and</text>
</g>
<!-- 2808383620048&#45;&#45;2808383620672 -->
<g id="edge18" class="edge"><title>2808383620048&#45;&#45;2808383620672</title>
<path fill="none" stroke="black" d="M422.797,-292.807C442.804,-279.959 474.119,-259.848 494.042,-247.053"/>
</g>
<!-- 2808383620720 -->
<g id="node15" class="node"><title>2808383620720</title>
<ellipse fill="black" stroke="black" cx="303.811" cy="-162" rx="2.7" ry="2.7"/>
</g>
<!-- 2808383620480&#45;&#45;2808383620720 -->
<g id="edge9" class="edge"><title>2808383620480&#45;&#45;2808383620720</title>
<path fill="none" stroke="black" d="M382.113,-217.811C355.919,-199.475 314.273,-170.323 305.476,-164.166"/>
</g>
<!-- 2808383620816 -->
<g id="node16" class="node"><title>2808383620816</title>
<ellipse fill="none" stroke="black" cx="386.811" cy="-162" rx="61.6894" ry="18"/>
<text text-anchor="middle" x="386.811" y="-158.5" font-family="Times New Roman,serif" font-size="15.00">Add penalty</text>
</g>
<!-- 2808383620480&#45;&#45;2808383620816 -->
<g id="edge10" class="edge"><title>2808383620480&#45;&#45;2808383620816</title>
<path fill="none" stroke="black" d="M399.696,-216.055C397.062,-205.211 393.655,-191.183 391.006,-180.275"/>
</g>
<!-- 2808383621200 -->
<g id="node18" class="node"><title>2808383621200</title>
<ellipse fill="none" stroke="black" cx="512.811" cy="-162" rx="46.6143" ry="18"/>
<text text-anchor="middle" x="512.811" y="-158.5" font-family="Times New Roman,serif" font-size="15.00">xor loop</text>
</g>
<!-- 2808383620672&#45;&#45;2808383621200 -->
<g id="edge14" class="edge"><title>2808383620672&#45;&#45;2808383621200</title>
<path fill="none" stroke="black" d="M512.811,-215.697C512.811,-204.846 512.811,-190.917 512.811,-180.104"/>
</g>
<!-- 2808383621008 -->
<g id="node21" class="node"><title>2808383621008</title>
<ellipse fill="none" stroke="black" cx="623.811" cy="-162" rx="46.6143" ry="18"/>
<text text-anchor="middle" x="623.811" y="-158.5" font-family="Times New Roman,serif" font-size="15.00">xor loop</text>
</g>
<!-- 2808383620672&#45;&#45;2808383621008 -->
<g id="edge17" class="edge"><title>2808383620672&#45;&#45;2808383621008</title>
<path fill="none" stroke="black" d="M531.893,-220.967C550.86,-209.005 579.988,-190.636 600.357,-177.791"/>
</g>
<!-- 2808383621536 -->
<g id="node19" class="node"><title>2808383621536</title>
<ellipse fill="black" stroke="black" cx="429.811" cy="-90" rx="2.7" ry="2.7"/>
</g>
<!-- 2808383621200&#45;&#45;2808383621536 -->
<g id="edge12" class="edge"><title>2808383621200&#45;&#45;2808383621536</title>
<path fill="none" stroke="black" d="M494.391,-145.465C472.995,-127.42 439.598,-99.254 431.583,-92.4944"/>
</g>
<!-- 2808383621632 -->
<g id="node20" class="node"><title>2808383621632</title>
<ellipse fill="none" stroke="black" cx="512.811" cy="-90" rx="61.6894" ry="18"/>
<text text-anchor="middle" x="512.811" y="-86.5" font-family="Times New Roman,serif" font-size="15.00">Add Penalty</text>
</g>
<!-- 2808383621200&#45;&#45;2808383621632 -->
<g id="edge13" class="edge"><title>2808383621200&#45;&#45;2808383621632</title>
<path fill="none" stroke="black" d="M512.811,-143.697C512.811,-132.846 512.811,-118.917 512.811,-108.104"/>
</g>
<!-- 2808383621248 -->
<g id="node22" class="node"><title>2808383621248</title>
<ellipse fill="black" stroke="black" cx="595.811" cy="-90" rx="2.7" ry="2.7"/>
</g>
<!-- 2808383621008&#45;&#45;2808383621248 -->
<g id="edge15" class="edge"><title>2808383621008&#45;&#45;2808383621248</title>
<path fill="none" stroke="black" d="M617.033,-144.055C609.912,-126.252 599.357,-99.8653 596.53,-92.7963"/>
</g>
<!-- 2808383621344 -->
<g id="node23" class="node"><title>2808383621344</title>
<ellipse fill="none" stroke="black" cx="694.811" cy="-90" rx="78.5434" ry="18"/>
<text text-anchor="middle" x="694.811" y="-86.5" font-family="Times New Roman,serif" font-size="15.00">Appeal to Judge</text>
</g>
<!-- 2808383621008&#45;&#45;2808383621344 -->
<g id="edge16" class="edge"><title>2808383621008&#45;&#45;2808383621344</title>
<path fill="none" stroke="black" d="M640.278,-144.765C651.585,-133.618 666.548,-118.865 677.94,-107.633"/>
</g>
<!-- 2808383965840 -->
<g id="node25" class="node"><title>2808383965840</title>
<ellipse fill="none" stroke="black" cx="612.811" cy="-450" rx="59.5207" ry="18"/>
<text text-anchor="middle" x="612.811" y="-446.5" font-family="Times New Roman,serif" font-size="15.00">Create Fine</text>
</g>
<!-- 2808383965744&#45;&#45;2808383965840 -->
<g id="edge23" class="edge"><title>2808383965744&#45;&#45;2808383965840</title>
<path fill="none" stroke="black" d="M661.662,-506.155C651.71,-494.918 638.033,-479.476 627.681,-467.789"/>
</g>
<!-- 2808383966128 -->
<g id="node26" class="node"><title>2808383966128</title>
<ellipse fill="none" stroke="black" cx="736.811" cy="-450" rx="46.6143" ry="18"/>
<text text-anchor="middle" x="736.811" y="-446.5" font-family="Times New Roman,serif" font-size="15.00">xor loop</text>
</g>
<!-- 2808383965744&#45;&#45;2808383966128 -->
<g id="edge55" class="edge"><title>2808383965744&#45;&#45;2808383966128</title>
<path fill="none" stroke="black" d="M687.96,-506.155C698.055,-494.757 711.981,-479.034 722.382,-467.29"/>
</g>
<!-- 2808383966080 -->
<g id="node58" class="node"><title>2808383966080</title>
<ellipse fill="none" stroke="black" cx="828.811" cy="-450" rx="27" ry="18"/>
<text text-anchor="middle" x="828.811" y="-446.5" font-family="Times New Roman,serif" font-size="15.00">xor</text>
</g>
<!-- 2808383965744&#45;&#45;2808383966080 -->
<g id="edge58" class="edge"><title>2808383965744&#45;&#45;2808383966080</title>
<path fill="none" stroke="black" d="M696.549,-511.119C725.899,-497.778 777.89,-474.146 807.184,-460.831"/>
</g>
<!-- 2808383966416 -->
<g id="node27" class="node"><title>2808383966416</title>
<ellipse fill="none" stroke="black" cx="736.811" cy="-378" rx="27" ry="18"/>
<text text-anchor="middle" x="736.811" y="-374.5" font-family="Times New Roman,serif" font-size="15.00">seq</text>
</g>
<!-- 2808383966128&#45;&#45;2808383966416 -->
<g id="edge53" class="edge"><title>2808383966128&#45;&#45;2808383966416</title>
<path fill="none" stroke="black" d="M736.811,-431.697C736.811,-420.846 736.811,-406.917 736.811,-396.104"/>
</g>
<!-- 2808383966560 -->
<g id="node57" class="node"><title>2808383966560</title>
<ellipse fill="black" stroke="black" cx="784.811" cy="-378" rx="2.7" ry="2.7"/>
</g>
<!-- 2808383966128&#45;&#45;2808383966560 -->
<g id="edge54" class="edge"><title>2808383966128&#45;&#45;2808383966560</title>
<path fill="none" stroke="black" d="M748.186,-432.411C760.385,-414.622 778.665,-387.962 783.566,-380.816"/>
</g>
<!-- 2808383967136 -->
<g id="node28" class="node"><title>2808383967136</title>
<ellipse fill="none" stroke="black" cx="699.811" cy="-306" rx="27" ry="18"/>
<text text-anchor="middle" x="699.811" y="-302.5" font-family="Times New Roman,serif" font-size="15.00">xor</text>
</g>
<!-- 2808383966416&#45;&#45;2808383967136 -->
<g id="edge26" class="edge"><title>2808383966416&#45;&#45;2808383967136</title>
<path fill="none" stroke="black" d="M728.23,-360.765C722.252,-349.456 714.313,-334.437 708.346,-323.147"/>
</g>
<!-- 2808383967040 -->
<g id="node31" class="node"><title>2808383967040</title>
<ellipse fill="none" stroke="black" cx="773.811" cy="-306" rx="27" ry="18"/>
<text text-anchor="middle" x="773.811" y="-302.5" font-family="Times New Roman,serif" font-size="15.00">xor</text>
</g>
<!-- 2808383966416&#45;&#45;2808383967040 -->
<g id="edge29" class="edge"><title>2808383966416&#45;&#45;2808383967040</title>
<path fill="none" stroke="black" d="M745.393,-360.765C751.37,-349.456 759.309,-334.437 765.276,-323.147"/>
</g>
<!-- 2808383966992 -->
<g id="node34" class="node"><title>2808383966992</title>
<ellipse fill="none" stroke="black" cx="1070.81" cy="-306" rx="27" ry="18"/>
<text text-anchor="middle" x="1070.81" y="-302.5" font-family="Times New Roman,serif" font-size="15.00">xor</text>
</g>
<!-- 2808383966416&#45;&#45;2808383966992 -->
<g id="edge52" class="edge"><title>2808383966416&#45;&#45;2808383966992</title>
<path fill="none" stroke="black" d="M762.189,-371.681C824.301,-358.664 983.4,-325.32 1045.47,-312.311"/>
</g>
<!-- 2808383966800 -->
<g id="node29" class="node"><title>2808383966800</title>
<ellipse fill="black" stroke="black" cx="625.811" cy="-234" rx="2.7" ry="2.7"/>
</g>
<!-- 2808383967136&#45;&#45;2808383966800 -->
<g id="edge24" class="edge"><title>2808383967136&#45;&#45;2808383966800</title>
<path fill="none" stroke="black" d="M684.836,-290.834C665.916,-272.937 634.915,-243.612 627.46,-236.56"/>
</g>
<!-- 2808383966656 -->
<g id="node30" class="node"><title>2808383966656</title>
<ellipse fill="none" stroke="black" cx="699.811" cy="-234" rx="52.6228" ry="18"/>
<text text-anchor="middle" x="699.811" y="-230.5" font-family="Times New Roman,serif" font-size="15.00">Send Fine</text>
</g>
<!-- 2808383967136&#45;&#45;2808383966656 -->
<g id="edge25" class="edge"><title>2808383967136&#45;&#45;2808383966656</title>
<path fill="none" stroke="black" d="M699.811,-287.697C699.811,-276.846 699.811,-262.917 699.811,-252.104"/>
</g>
<!-- 2808383287456 -->
<g id="node32" class="node"><title>2808383287456</title>
<ellipse fill="black" stroke="black" cx="773.811" cy="-234" rx="2.7" ry="2.7"/>
</g>
<!-- 2808383967040&#45;&#45;2808383287456 -->
<g id="edge27" class="edge"><title>2808383967040&#45;&#45;2808383287456</title>
<path fill="none" stroke="black" d="M773.811,-287.697C773.811,-269.883 773.811,-243.769 773.811,-236.776"/>
</g>
<!-- 2808383288656 -->
<g id="node33" class="node"><title>2808383288656</title>
<ellipse fill="none" stroke="black" cx="901.811" cy="-234" rx="107.914" ry="18"/>
<text text-anchor="middle" x="901.811" y="-230.5" font-family="Times New Roman,serif" font-size="15.00">Insert Fine Notification</text>
</g>
<!-- 2808383967040&#45;&#45;2808383288656 -->
<g id="edge28" class="edge"><title>2808383967040&#45;&#45;2808383288656</title>
<path fill="none" stroke="black" d="M794.093,-293.908C814.959,-282.497 847.701,-264.591 871.614,-251.514"/>
</g>
<!-- 2808383288944 -->
<g id="node35" class="node"><title>2808383288944</title>
<ellipse fill="black" stroke="black" cx="1070.81" cy="-234" rx="2.7" ry="2.7"/>
</g>
<!-- 2808383966992&#45;&#45;2808383288944 -->
<g id="edge30" class="edge"><title>2808383966992&#45;&#45;2808383288944</title>
<path fill="none" stroke="black" d="M1070.81,-287.697C1070.81,-269.883 1070.81,-243.769 1070.81,-236.776"/>
</g>
<!-- 2808383289232 -->
<g id="node36" class="node"><title>2808383289232</title>
<ellipse fill="none" stroke="black" cx="1170.81" cy="-234" rx="46.6143" ry="18"/>
<text text-anchor="middle" x="1170.81" y="-230.5" font-family="Times New Roman,serif" font-size="15.00">xor loop</text>
</g>
<!-- 2808383966992&#45;&#45;2808383289232 -->
<g id="edge51" class="edge"><title>2808383966992&#45;&#45;2808383289232</title>
<path fill="none" stroke="black" d="M1088.69,-292.485C1105.66,-280.609 1131.18,-262.743 1149.26,-250.085"/>
</g>
<!-- 2808383289424 -->
<g id="node37" class="node"><title>2808383289424</title>
<ellipse fill="none" stroke="black" cx="1170.81" cy="-162" rx="27" ry="18"/>
<text text-anchor="middle" x="1170.81" y="-158.5" font-family="Times New Roman,serif" font-size="15.00">seq</text>
</g>
<!-- 2808383289232&#45;&#45;2808383289424 -->
<g id="edge49" class="edge"><title>2808383289232&#45;&#45;2808383289424</title>
<path fill="none" stroke="black" d="M1170.81,-215.697C1170.81,-204.846 1170.81,-190.917 1170.81,-180.104"/>
</g>
<!-- 2808383289760 -->
<g id="node56" class="node"><title>2808383289760</title>
<ellipse fill="black" stroke="black" cx="1218.81" cy="-162" rx="2.7" ry="2.7"/>
</g>
<!-- 2808383289232&#45;&#45;2808383289760 -->
<g id="edge50" class="edge"><title>2808383289232&#45;&#45;2808383289760</title>
<path fill="none" stroke="black" d="M1182.19,-216.411C1194.38,-198.622 1212.67,-171.962 1217.57,-164.816"/>
</g>
<!-- 2808383289664 -->
<g id="node38" class="node"><title>2808383289664</title>
<ellipse fill="none" stroke="black" cx="818.811" cy="-90" rx="27" ry="18"/>
<text text-anchor="middle" x="818.811" y="-86.5" font-family="Times New Roman,serif" font-size="15.00">xor</text>
</g>
<!-- 2808383289424&#45;&#45;2808383289664 -->
<g id="edge33" class="edge"><title>2808383289424&#45;&#45;2808383289664</title>
<path fill="none" stroke="black" d="M1145.21,-155.909C1080.19,-142.979 909.232,-108.981 844.314,-96.0715"/>
</g>
<!-- 2808383289856 -->
<g id="node41" class="node"><title>2808383289856</title>
<ellipse fill="none" stroke="black" cx="978.811" cy="-90" rx="27" ry="18"/>
<text text-anchor="middle" x="978.811" y="-86.5" font-family="Times New Roman,serif" font-size="15.00">xor</text>
</g>
<!-- 2808383289424&#45;&#45;2808383289856 -->
<g id="edge36" class="edge"><title>2808383289424&#45;&#45;2808383289856</title>
<path fill="none" stroke="black" d="M1147.65,-152.556C1110.75,-139.102 1039.01,-112.947 1002.05,-99.4736"/>
</g>
<!-- 2808383290144 -->
<g id="node44" class="node"><title>2808383290144</title>
<ellipse fill="none" stroke="black" cx="1170.81" cy="-90" rx="27" ry="18"/>
<text text-anchor="middle" x="1170.81" y="-86.5" font-family="Times New Roman,serif" font-size="15.00">xor</text>
</g>
<!-- 2808383289424&#45;&#45;2808383290144 -->
<g id="edge39" class="edge"><title>2808383289424&#45;&#45;2808383290144</title>
<path fill="none" stroke="black" d="M1170.81,-143.697C1170.81,-132.846 1170.81,-118.917 1170.81,-108.104"/>
</g>
<!-- 2808383290432 -->
<g id="node47" class="node"><title>2808383290432</title>
<ellipse fill="none" stroke="black" cx="1343.81" cy="-90" rx="27" ry="18"/>
<text text-anchor="middle" x="1343.81" y="-86.5" font-family="Times New Roman,serif" font-size="15.00">xor</text>
</g>
<!-- 2808383289424&#45;&#45;2808383290432 -->
<g id="edge42" class="edge"><title>2808383289424&#45;&#45;2808383290432</title>
<path fill="none" stroke="black" d="M1193.43,-151.849C1226.58,-138.433 1288.03,-113.57 1321.19,-100.154"/>
</g>
<!-- 2808383290720 -->
<g id="node50" class="node"><title>2808383290720</title>
<ellipse fill="none" stroke="black" cx="1731.81" cy="-90" rx="27" ry="18"/>
<text text-anchor="middle" x="1731.81" y="-86.5" font-family="Times New Roman,serif" font-size="15.00">xor</text>
</g>
<!-- 2808383289424&#45;&#45;2808383290720 -->
<g id="edge45" class="edge"><title>2808383289424&#45;&#45;2808383290720</title>
<path fill="none" stroke="black" d="M1197.12,-157.718C1291.35,-145.96 1611.42,-106.022 1705.56,-94.2753"/>
</g>
<!-- 2808383291008 -->
<g id="node53" class="node"><title>2808383291008</title>
<ellipse fill="none" stroke="black" cx="2069.81" cy="-90" rx="27" ry="18"/>
<text text-anchor="middle" x="2069.81" y="-86.5" font-family="Times New Roman,serif" font-size="15.00">xor</text>
</g>
<!-- 2808383289424&#45;&#45;2808383291008 -->
<g id="edge48" class="edge"><title>2808383289424&#45;&#45;2808383291008</title>
<path fill="none" stroke="black" d="M1197.72,-158.905C1330.06,-148.6 1910.9,-103.373 2043.01,-93.0868"/>
</g>
<!-- 2808383289904 -->
<g id="node39" class="node"><title>2808383289904</title>
<ellipse fill="black" stroke="black" cx="565.811" cy="-18" rx="2.7" ry="2.7"/>
</g>
<!-- 2808383289664&#45;&#45;2808383289904 -->
<g id="edge31" class="edge"><title>2808383289664&#45;&#45;2808383289904</title>
<path fill="none" stroke="black" d="M794.092,-82.1607C734.907,-65.7853 588.462,-25.2669 568.16,-19.65"/>
</g>
<!-- 2808383290000 -->
<g id="node40" class="node"><title>2808383290000</title>
<ellipse fill="none" stroke="black" cx="730.811" cy="-18" rx="144.571" ry="18"/>
<text text-anchor="middle" x="730.811" y="-14.5" font-family="Times New Roman,serif" font-size="15.00">Insert Date Appeal to Prefecture</text>
</g>
<!-- 2808383289664&#45;&#45;2808383290000 -->
<g id="edge32" class="edge"><title>2808383289664&#45;&#45;2808383290000</title>
<path fill="none" stroke="black" d="M801.844,-75.5033C787.659,-64.2203 767.356,-48.0695 752.085,-35.9227"/>
</g>
<!-- 2808383290192 -->
<g id="node42" class="node"><title>2808383290192</title>
<ellipse fill="black" stroke="black" cx="895.811" cy="-18" rx="2.7" ry="2.7"/>
</g>
<!-- 2808383289856&#45;&#45;2808383290192 -->
<g id="edge34" class="edge"><title>2808383289856&#45;&#45;2808383290192</title>
<path fill="none" stroke="black" d="M962.413,-75.1703C941.248,-57.3201 906.13,-27.7024 897.681,-20.5768"/>
</g>
<!-- 2808383290288 -->
<g id="node43" class="node"><title>2808383290288</title>
<ellipse fill="none" stroke="black" cx="978.811" cy="-18" rx="61.6894" ry="18"/>
<text text-anchor="middle" x="978.811" y="-14.5" font-family="Times New Roman,serif" font-size="15.00">Add penalty</text>
</g>
<!-- 2808383289856&#45;&#45;2808383290288 -->
<g id="edge35" class="edge"><title>2808383289856&#45;&#45;2808383290288</title>
<path fill="none" stroke="black" d="M978.811,-71.6966C978.811,-60.8463 978.811,-46.9167 978.811,-36.1043"/>
</g>
<!-- 2808383290480 -->
<g id="node45" class="node"><title>2808383290480</title>
<ellipse fill="black" stroke="black" cx="1061.81" cy="-18" rx="2.7" ry="2.7"/>
</g>
<!-- 2808383290144&#45;&#45;2808383290480 -->
<g id="edge37" class="edge"><title>2808383290144&#45;&#45;2808383290480</title>
<path fill="none" stroke="black" d="M1151.82,-76.8069C1123.77,-58.7883 1073.47,-26.4857 1063.54,-20.1101"/>
</g>
<!-- 2808383290576 -->
<g id="node46" class="node"><title>2808383290576</title>
<ellipse fill="none" stroke="black" cx="1202.81" cy="-18" rx="120.43" ry="18"/>
<text text-anchor="middle" x="1202.81" y="-14.5" font-family="Times New Roman,serif" font-size="15.00">Send Appeal to Prefecture</text>
</g>
<!-- 2808383290144&#45;&#45;2808383290576 -->
<g id="edge38" class="edge"><title>2808383290144&#45;&#45;2808383290576</title>
<path fill="none" stroke="black" d="M1178.39,-72.411C1183.35,-61.5758 1189.81,-47.4498 1194.84,-36.4468"/>
</g>
<!-- 2808383290768 -->
<g id="node48" class="node"><title>2808383290768</title>
<ellipse fill="black" stroke="black" cx="1343.81" cy="-18" rx="2.7" ry="2.7"/>
</g>
<!-- 2808383290432&#45;&#45;2808383290768 -->
<g id="edge40" class="edge"><title>2808383290432&#45;&#45;2808383290768</title>
<path fill="none" stroke="black" d="M1343.81,-71.6966C1343.81,-53.8826 1343.81,-27.7686 1343.81,-20.7764"/>
</g>
<!-- 2808383290864 -->
<g id="node49" class="node"><title>2808383290864</title>
<ellipse fill="none" stroke="black" cx="1537.81" cy="-18" rx="173.941" ry="18"/>
<text text-anchor="middle" x="1537.81" y="-14.5" font-family="Times New Roman,serif" font-size="15.00">Receive Result Appeal from Prefecture</text>
</g>
<!-- 2808383290432&#45;&#45;2808383290864 -->
<g id="edge41" class="edge"><title>2808383290432&#45;&#45;2808383290864</title>
<path fill="none" stroke="black" d="M1367.21,-80.5564C1398.05,-69.4293 1452.96,-49.615 1492.16,-35.472"/>
</g>
<!-- 2808383291056 -->
<g id="node51" class="node"><title>2808383291056</title>
<ellipse fill="black" stroke="black" cx="1731.81" cy="-18" rx="2.7" ry="2.7"/>
</g>
<!-- 2808383290720&#45;&#45;2808383291056 -->
<g id="edge43" class="edge"><title>2808383290720&#45;&#45;2808383291056</title>
<path fill="none" stroke="black" d="M1731.81,-71.6966C1731.81,-53.8826 1731.81,-27.7686 1731.81,-20.7764"/>
</g>
<!-- 2808383291152 -->
<g id="node52" class="node"><title>2808383291152</title>
<ellipse fill="none" stroke="black" cx="1900.81" cy="-18" rx="148.91" ry="18"/>
<text text-anchor="middle" x="1900.81" y="-14.5" font-family="Times New Roman,serif" font-size="15.00">Notify Result Appeal to Offender</text>
</g>
<!-- 2808383290720&#45;&#45;2808383291152 -->
<g id="edge44" class="edge"><title>2808383290720&#45;&#45;2808383291152</title>
<path fill="none" stroke="black" d="M1754.25,-79.7045C1781.46,-68.4359 1827.79,-49.2446 1861.09,-35.4544"/>
</g>
<!-- 2808383291344 -->
<g id="node54" class="node"><title>2808383291344</title>
<ellipse fill="black" stroke="black" cx="2069.81" cy="-18" rx="2.7" ry="2.7"/>
</g>
<!-- 2808383291008&#45;&#45;2808383291344 -->
<g id="edge46" class="edge"><title>2808383291008&#45;&#45;2808383291344</title>
<path fill="none" stroke="black" d="M2069.81,-71.6966C2069.81,-53.8826 2069.81,-27.7686 2069.81,-20.7764"/>
</g>
<!-- 2808383619184 -->
<g id="node55" class="node"><title>2808383619184</title>
<ellipse fill="none" stroke="black" cx="2136.81" cy="-18" rx="45.7249" ry="18"/>
<text text-anchor="middle" x="2136.81" y="-14.5" font-family="Times New Roman,serif" font-size="15.00">Payment</text>
</g>
<!-- 2808383291008&#45;&#45;2808383619184 -->
<g id="edge47" class="edge"><title>2808383291008&#45;&#45;2808383619184</title>
<path fill="none" stroke="black" d="M2083.69,-74.496C2094.66,-63.0429 2109.95,-47.0688 2121.31,-35.1982"/>
</g>
<!-- 2808383288464 -->
<g id="node59" class="node"><title>2808383288464</title>
<ellipse fill="black" stroke="black" cx="817.811" cy="-378" rx="2.7" ry="2.7"/>
</g>
<!-- 2808383966080&#45;&#45;2808383288464 -->
<g id="edge56" class="edge"><title>2808383966080&#45;&#45;2808383288464</title>
<path fill="none" stroke="black" d="M826.148,-432.055C823.351,-414.252 819.204,-387.865 818.093,-380.796"/>
</g>
<!-- 2808383289616 -->
<g id="node60" class="node"><title>2808383289616</title>
<ellipse fill="none" stroke="black" cx="959.811" cy="-378" rx="120.819" ry="18"/>
<text text-anchor="middle" x="959.811" y="-374.5" font-family="Times New Roman,serif" font-size="15.00">Send for Credit Collection</text>
</g>
<!-- 2808383966080&#45;&#45;2808383289616 -->
<g id="edge57" class="edge"><title>2808383966080&#45;&#45;2808383289616</title>
<path fill="none" stroke="black" d="M849.28,-438.063C870.58,-426.681 904.195,-408.719 928.766,-395.589"/>
</g>
</g>
</svg>
