<?xml version="1.0" encoding="UTF-8" standalone="no"?>
<!DOCTYPE svg PUBLIC "-//W3C//DTD SVG 1.1//EN"
 "http://www.w3.org/Graphics/SVG/1.1/DTD/svg11.dtd">
<!-- Generated by graphviz version 2.38.0 (20140413.2041)
 -->
<!-- Title: pt Pages: 1 -->
<svg width="2015pt" height="692pt"
 viewBox="0.00 0.00 2014.52 692.00" xmlns="http://www.w3.org/2000/svg" xmlns:xlink="http://www.w3.org/1999/xlink">
<g id="graph0" class="graph" transform="scale(1 1) rotate(0) translate(4 688)">
<title>pt</title>
<!-- 2808399965440 -->
<g id="node1" class="node"><title>2808399965440</title>
<ellipse fill="none" stroke="black" cx="595.811" cy="-666" rx="27" ry="18"/>
<text text-anchor="middle" x="595.811" y="-662.5" font-family="Times New Roman,serif" font-size="15.00">seq</text>
</g>
<!-- 2808399964816 -->
<g id="node2" class="node"><title>2808399964816</title>
<ellipse fill="none" stroke="black" cx="490.811" cy="-594" rx="59.5207" ry="18"/>
<text text-anchor="middle" x="490.811" y="-590.5" font-family="Times New Roman,serif" font-size="15.00">Create Fine</text>
</g>
<!-- 2808399965440&#45;&#45;2808399964816 -->
<g id="edge1" class="edge"><title>2808399965440&#45;&#45;2808399964816</title>
<path fill="none" stroke="black" d="M577.039,-652.485C559.461,-640.767 533.134,-623.215 514.198,-610.591"/>
</g>
<!-- 2808386375200 -->
<g id="node3" class="node"><title>2808386375200</title>
<ellipse fill="none" stroke="black" cx="595.811" cy="-594" rx="27" ry="18"/>
<text text-anchor="middle" x="595.811" y="-590.5" font-family="Times New Roman,serif" font-size="15.00">and</text>
</g>
<!-- 2808399965440&#45;&#45;2808386375200 -->
<g id="edge49" class="edge"><title>2808399965440&#45;&#45;2808386375200</title>
<path fill="none" stroke="black" d="M595.811,-647.697C595.811,-636.846 595.811,-622.917 595.811,-612.104"/>
</g>
<!-- 2808386375152 -->
<g id="node51" class="node"><title>2808386375152</title>
<ellipse fill="none" stroke="black" cx="667.811" cy="-594" rx="27" ry="18"/>
<text text-anchor="middle" x="667.811" y="-590.5" font-family="Times New Roman,serif" font-size="15.00">xor</text>
</g>
<!-- 2808399965440&#45;&#45;2808386375152 -->
<g id="edge52" class="edge"><title>2808399965440&#45;&#45;2808386375152</title>
<path fill="none" stroke="black" d="M610.381,-650.834C622.791,-638.77 640.542,-621.512 653.015,-609.385"/>
</g>
<!-- 2808386372080 -->
<g id="node4" class="node"><title>2808386372080</title>
<ellipse fill="none" stroke="black" cx="305.811" cy="-522" rx="27" ry="18"/>
<text text-anchor="middle" x="305.811" y="-518.5" font-family="Times New Roman,serif" font-size="15.00">and</text>
</g>
<!-- 2808386375200&#45;&#45;2808386372080 -->
<g id="edge21" class="edge"><title>2808386375200&#45;&#45;2808386372080</title>
<path fill="none" stroke="black" d="M570.835,-586.971C516.016,-573.739 385.688,-542.281 330.83,-529.039"/>
</g>
<!-- 2808386374192 -->
<g id="node24" class="node"><title>2808386374192</title>
<ellipse fill="none" stroke="black" cx="601.811" cy="-522" rx="27" ry="18"/>
<text text-anchor="middle" x="601.811" y="-518.5" font-family="Times New Roman,serif" font-size="15.00">xor</text>
</g>
<!-- 2808386375200&#45;&#45;2808386374192 -->
<g id="edge48" class="edge"><title>2808386375200&#45;&#45;2808386374192</title>
<path fill="none" stroke="black" d="M597.294,-575.697C598.224,-564.846 599.418,-550.917 600.345,-540.104"/>
</g>
<!-- 2808380783632 -->
<g id="node5" class="node"><title>2808380783632</title>
<ellipse fill="none" stroke="black" cx="164.811" cy="-450" rx="46.6143" ry="18"/>
<text text-anchor="middle" x="164.811" y="-446.5" font-family="Times New Roman,serif" font-size="15.00">xor loop</text>
</g>
<!-- 2808386372080&#45;&#45;2808380783632 -->
<g id="edge4" class="edge"><title>2808386372080&#45;&#45;2808380783632</title>
<path fill="none" stroke="black" d="M284.702,-510.52C260.118,-498.316 219.432,-478.117 192.374,-464.684"/>
</g>
<!-- 2808380780800 -->
<g id="node8" class="node"><title>2808380780800</title>
<ellipse fill="none" stroke="black" cx="305.811" cy="-450" rx="27" ry="18"/>
<text text-anchor="middle" x="305.811" y="-446.5" font-family="Times New Roman,serif" font-size="15.00">xor</text>
</g>
<!-- 2808386372080&#45;&#45;2808380780800 -->
<g id="edge20" class="edge"><title>2808386372080&#45;&#45;2808380780800</title>
<path fill="none" stroke="black" d="M305.811,-503.697C305.811,-492.846 305.811,-478.917 305.811,-468.104"/>
</g>
<!-- 2808380783104 -->
<g id="node6" class="node"><title>2808380783104</title>
<ellipse fill="black" stroke="black" cx="97.8111" cy="-378" rx="2.7" ry="2.7"/>
</g>
<!-- 2808380783632&#45;&#45;2808380783104 -->
<g id="edge2" class="edge"><title>2808380783632&#45;&#45;2808380783104</title>
<path fill="none" stroke="black" d="M149.272,-432.765C131.953,-414.671 105.542,-387.078 99.2104,-380.462"/>
</g>
<!-- 2808380780752 -->
<g id="node7" class="node"><title>2808380780752</title>
<ellipse fill="none" stroke="black" cx="164.811" cy="-378" rx="45.7249" ry="18"/>
<text text-anchor="middle" x="164.811" y="-374.5" font-family="Times New Roman,serif" font-size="15.00">Payment</text>
</g>
<!-- 2808380783632&#45;&#45;2808380780752 -->
<g id="edge3" class="edge"><title>2808380783632&#45;&#45;2808380780752</title>
<path fill="none" stroke="black" d="M164.811,-431.697C164.811,-420.846 164.811,-406.917 164.811,-396.104"/>
</g>
<!-- 2808380781376 -->
<g id="node9" class="node"><title>2808380781376</title>
<ellipse fill="black" stroke="black" cx="231.811" cy="-378" rx="2.7" ry="2.7"/>
</g>
<!-- 2808380780800&#45;&#45;2808380781376 -->
<g id="edge5" class="edge"><title>2808380780800&#45;&#45;2808380781376</title>
<path fill="none" stroke="black" d="M290.836,-434.834C271.916,-416.937 240.915,-387.612 233.46,-380.56"/>
</g>
<!-- 2808380781472 -->
<g id="node10" class="node"><title>2808380781472</title>
<ellipse fill="none" stroke="black" cx="305.811" cy="-378" rx="52.6228" ry="18"/>
<text text-anchor="middle" x="305.811" y="-374.5" font-family="Times New Roman,serif" font-size="15.00">Send Fine</text>
</g>
<!-- 2808380780800&#45;&#45;2808380781472 -->
<g id="edge6" class="edge"><title>2808380780800&#45;&#45;2808380781472</title>
<path fill="none" stroke="black" d="M305.811,-431.697C305.811,-420.846 305.811,-406.917 305.811,-396.104"/>
</g>
<!-- 2808380781136 -->
<g id="node11" class="node"><title>2808380781136</title>
<ellipse fill="none" stroke="black" cx="403.811" cy="-378" rx="27" ry="18"/>
<text text-anchor="middle" x="403.811" y="-374.5" font-family="Times New Roman,serif" font-size="15.00">seq</text>
</g>
<!-- 2808380780800&#45;&#45;2808380781136 -->
<g id="edge19" class="edge"><title>2808380780800&#45;&#45;2808380781136</title>
<path fill="none" stroke="black" d="M323.786,-436.161C341.468,-423.531 368.307,-404.36 385.95,-391.758"/>
</g>
<!-- 2808380783488 -->
<g id="node12" class="node"><title>2808380783488</title>
<ellipse fill="none" stroke="black" cx="52.8111" cy="-306" rx="52.6228" ry="18"/>
<text text-anchor="middle" x="52.8111" y="-302.5" font-family="Times New Roman,serif" font-size="15.00">Send Fine</text>
</g>
<!-- 2808380781136&#45;&#45;2808380783488 -->
<g id="edge7" class="edge"><title>2808380781136&#45;&#45;2808380783488</title>
<path fill="none" stroke="black" d="M378.285,-371.909C319.048,-360.096 171.636,-330.697 97.2456,-315.862"/>
</g>
<!-- 2808380780992 -->
<g id="node13" class="node"><title>2808380780992</title>
<ellipse fill="none" stroke="black" cx="231.811" cy="-306" rx="107.914" ry="18"/>
<text text-anchor="middle" x="231.811" y="-302.5" font-family="Times New Roman,serif" font-size="15.00">Insert Fine Notification</text>
</g>
<!-- 2808380781136&#45;&#45;2808380780992 -->
<g id="edge8" class="edge"><title>2808380781136&#45;&#45;2808380780992</title>
<path fill="none" stroke="black" d="M381.325,-367.849C353.279,-356.434 304.87,-336.733 270.746,-322.846"/>
</g>
<!-- 2808380783248 -->
<g id="node14" class="node"><title>2808380783248</title>
<ellipse fill="none" stroke="black" cx="403.811" cy="-306" rx="46.6143" ry="18"/>
<text text-anchor="middle" x="403.811" y="-302.5" font-family="Times New Roman,serif" font-size="15.00">xor loop</text>
</g>
<!-- 2808380781136&#45;&#45;2808380783248 -->
<g id="edge11" class="edge"><title>2808380781136&#45;&#45;2808380783248</title>
<path fill="none" stroke="black" d="M403.811,-359.697C403.811,-348.846 403.811,-334.917 403.811,-324.104"/>
</g>
<!-- 2808380780848 -->
<g id="node17" class="node"><title>2808380780848</title>
<ellipse fill="none" stroke="black" cx="512.811" cy="-306" rx="27" ry="18"/>
<text text-anchor="middle" x="512.811" y="-302.5" font-family="Times New Roman,serif" font-size="15.00">and</text>
</g>
<!-- 2808380781136&#45;&#45;2808380780848 -->
<g id="edge18" class="edge"><title>2808380781136&#45;&#45;2808380780848</title>
<path fill="none" stroke="black" d="M422.797,-364.807C442.804,-351.959 474.119,-331.848 494.042,-319.053"/>
</g>
<!-- 2808380780896 -->
<g id="node15" class="node"><title>2808380780896</title>
<ellipse fill="black" stroke="black" cx="311.811" cy="-234" rx="2.7" ry="2.7"/>
</g>
<!-- 2808380783248&#45;&#45;2808380780896 -->
<g id="edge9" class="edge"><title>2808380783248&#45;&#45;2808380780896</title>
<path fill="none" stroke="black" d="M383.393,-289.465C359.677,-271.42 322.659,-243.254 313.775,-236.494"/>
</g>
<!-- 2808380781040 -->
<g id="node16" class="node"><title>2808380781040</title>
<ellipse fill="none" stroke="black" cx="394.811" cy="-234" rx="61.6894" ry="18"/>
<text text-anchor="middle" x="394.811" y="-230.5" font-family="Times New Roman,serif" font-size="15.00">Add penalty</text>
</g>
<!-- 2808380783248&#45;&#45;2808380781040 -->
<g id="edge10" class="edge"><title>2808380783248&#45;&#45;2808380781040</title>
<path fill="none" stroke="black" d="M401.586,-287.697C400.191,-276.846 398.4,-262.917 397.01,-252.104"/>
</g>
<!-- 2808380782048 -->
<g id="node18" class="node"><title>2808380782048</title>
<ellipse fill="none" stroke="black" cx="520.811" cy="-234" rx="46.6143" ry="18"/>
<text text-anchor="middle" x="520.811" y="-230.5" font-family="Times New Roman,serif" font-size="15.00">xor loop</text>
</g>
<!-- 2808380780848&#45;&#45;2808380782048 -->
<g id="edge14" class="edge"><title>2808380780848&#45;&#45;2808380782048</title>
<path fill="none" stroke="black" d="M514.789,-287.697C516.029,-276.846 517.621,-262.917 518.856,-252.104"/>
</g>
<!-- 2808380781616 -->
<g id="node21" class="node"><title>2808380781616</title>
<ellipse fill="none" stroke="black" cx="631.811" cy="-234" rx="46.6143" ry="18"/>
<text text-anchor="middle" x="631.811" y="-230.5" font-family="Times New Roman,serif" font-size="15.00">xor loop</text>
</g>
<!-- 2808380780848&#45;&#45;2808380781616 -->
<g id="edge17" class="edge"><title>2808380780848&#45;&#45;2808380781616</title>
<path fill="none" stroke="black" d="M532.461,-293.441C552.926,-281.403 585.03,-262.518 607.177,-249.491"/>
</g>
<!-- 2808380783680 -->
<g id="node19" class="node"><title>2808380783680</title>
<ellipse fill="black" stroke="black" cx="444.811" cy="-162" rx="2.7" ry="2.7"/>
</g>
<!-- 2808380782048&#45;&#45;2808380783680 -->
<g id="edge12" class="edge"><title>2808380782048&#45;&#45;2808380783680</title>
<path fill="none" stroke="black" d="M503.565,-217.116C483.945,-199.045 453.677,-171.166 446.416,-164.478"/>
</g>
<!-- 2808380782624 -->
<g id="node20" class="node"><title>2808380782624</title>
<ellipse fill="none" stroke="black" cx="527.811" cy="-162" rx="61.6894" ry="18"/>
<text text-anchor="middle" x="527.811" y="-158.5" font-family="Times New Roman,serif" font-size="15.00">Add Penalty</text>
</g>
<!-- 2808380782048&#45;&#45;2808380782624 -->
<g id="edge13" class="edge"><title>2808380782048&#45;&#45;2808380782624</title>
<path fill="none" stroke="black" d="M522.541,-215.697C523.626,-204.846 525.019,-190.917 526.101,-180.104"/>
</g>
<!-- 2808380783008 -->
<g id="node22" class="node"><title>2808380783008</title>
<ellipse fill="black" stroke="black" cx="624.811" cy="-162" rx="2.7" ry="2.7"/>
</g>
<!-- 2808380781616&#45;&#45;2808380783008 -->
<g id="edge15" class="edge"><title>2808380781616&#45;&#45;2808380783008</title>
<path fill="none" stroke="black" d="M630.081,-215.697C628.299,-197.883 625.688,-171.769 624.989,-164.776"/>
</g>
<!-- 2808380781760 -->
<g id="node23" class="node"><title>2808380781760</title>
<ellipse fill="none" stroke="black" cx="723.811" cy="-162" rx="78.5434" ry="18"/>
<text text-anchor="middle" x="723.811" y="-158.5" font-family="Times New Roman,serif" font-size="15.00">Appeal to Judge</text>
</g>
<!-- 2808380781616&#45;&#45;2808380781760 -->
<g id="edge16" class="edge"><title>2808380781616&#45;&#45;2808380781760</title>
<path fill="none" stroke="black" d="M652.229,-217.465C667.051,-206.187 687.07,-190.955 702.168,-179.467"/>
</g>
<!-- 2808380784400 -->
<g id="node25" class="node"><title>2808380784400</title>
<ellipse fill="black" stroke="black" cx="601.811" cy="-450" rx="2.7" ry="2.7"/>
</g>
<!-- 2808386374192&#45;&#45;2808380784400 -->
<g id="edge22" class="edge"><title>2808386374192&#45;&#45;2808380784400</title>
<path fill="none" stroke="black" d="M601.811,-503.697C601.811,-485.883 601.811,-459.769 601.811,-452.776"/>
</g>
<!-- 2808380783296 -->
<g id="node26" class="node"><title>2808380783296</title>
<ellipse fill="none" stroke="black" cx="960.811" cy="-450" rx="27" ry="18"/>
<text text-anchor="middle" x="960.811" y="-446.5" font-family="Times New Roman,serif" font-size="15.00">seq</text>
</g>
<!-- 2808386374192&#45;&#45;2808380783296 -->
<g id="edge47" class="edge"><title>2808386374192&#45;&#45;2808380783296</title>
<path fill="none" stroke="black" d="M627.342,-516.022C693.34,-503.153 869.051,-468.892 935.17,-456"/>
</g>
<!-- 2808380782384 -->
<g id="node27" class="node"><title>2808380782384</title>
<ellipse fill="none" stroke="black" cx="725.811" cy="-378" rx="27" ry="18"/>
<text text-anchor="middle" x="725.811" y="-374.5" font-family="Times New Roman,serif" font-size="15.00">xor</text>
</g>
<!-- 2808380783296&#45;&#45;2808380782384 -->
<g id="edge25" class="edge"><title>2808380783296&#45;&#45;2808380782384</title>
<path fill="none" stroke="black" d="M936.547,-441.772C891.398,-428.324 794.992,-399.607 749.943,-386.188"/>
</g>
<!-- 2808380784256 -->
<g id="node30" class="node"><title>2808380784256</title>
<ellipse fill="none" stroke="black" cx="960.811" cy="-378" rx="27" ry="18"/>
<text text-anchor="middle" x="960.811" y="-374.5" font-family="Times New Roman,serif" font-size="15.00">xor</text>
</g>
<!-- 2808380783296&#45;&#45;2808380784256 -->
<g id="edge28" class="edge"><title>2808380783296&#45;&#45;2808380784256</title>
<path fill="none" stroke="black" d="M960.811,-431.697C960.811,-420.846 960.811,-406.917 960.811,-396.104"/>
</g>
<!-- 2808380782096 -->
<g id="node33" class="node"><title>2808380782096</title>
<ellipse fill="none" stroke="black" cx="1172.81" cy="-378" rx="27" ry="18"/>
<text text-anchor="middle" x="1172.81" y="-374.5" font-family="Times New Roman,serif" font-size="15.00">xor</text>
</g>
<!-- 2808380783296&#45;&#45;2808380782096 -->
<g id="edge31" class="edge"><title>2808380783296&#45;&#45;2808380782096</title>
<path fill="none" stroke="black" d="M984.718,-441.106C1025.54,-427.626 1108.23,-400.325 1148.99,-386.865"/>
</g>
<!-- 2808380782912 -->
<g id="node36" class="node"><title>2808380782912</title>
<ellipse fill="none" stroke="black" cx="1338.81" cy="-378" rx="27" ry="18"/>
<text text-anchor="middle" x="1338.81" y="-374.5" font-family="Times New Roman,serif" font-size="15.00">xor</text>
</g>
<!-- 2808380783296&#45;&#45;2808380782912 -->
<g id="edge46" class="edge"><title>2808380783296&#45;&#45;2808380782912</title>
<path fill="none" stroke="black" d="M986.495,-444.244C1055.45,-431.473 1244.09,-396.541 1313.09,-383.763"/>
</g>
<!-- 2808380783056 -->
<g id="node28" class="node"><title>2808380783056</title>
<ellipse fill="black" stroke="black" cx="560.811" cy="-306" rx="2.7" ry="2.7"/>
</g>
<!-- 2808380782384&#45;&#45;2808380783056 -->
<g id="edge23" class="edge"><title>2808380782384&#45;&#45;2808380783056</title>
<path fill="none" stroke="black" d="M703.558,-367.559C662.391,-350.094 577.216,-313.96 562.88,-307.878"/>
</g>
<!-- 2808380780608 -->
<g id="node29" class="node"><title>2808380780608</title>
<ellipse fill="none" stroke="black" cx="725.811" cy="-306" rx="144.571" ry="18"/>
<text text-anchor="middle" x="725.811" y="-302.5" font-family="Times New Roman,serif" font-size="15.00">Insert Date Appeal to Prefecture</text>
</g>
<!-- 2808380782384&#45;&#45;2808380780608 -->
<g id="edge24" class="edge"><title>2808380782384&#45;&#45;2808380780608</title>
<path fill="none" stroke="black" d="M725.811,-359.697C725.811,-348.846 725.811,-334.917 725.811,-324.104"/>
</g>
<!-- 2808205657472 -->
<g id="node31" class="node"><title>2808205657472</title>
<ellipse fill="black" stroke="black" cx="890.811" cy="-306" rx="2.7" ry="2.7"/>
</g>
<!-- 2808380784256&#45;&#45;2808205657472 -->
<g id="edge26" class="edge"><title>2808380784256&#45;&#45;2808205657472</title>
<path fill="none" stroke="black" d="M946.307,-362.496C928.367,-344.555 899.333,-315.522 892.355,-308.544"/>
</g>
<!-- 2808205656224 -->
<g id="node32" class="node"><title>2808205656224</title>
<ellipse fill="none" stroke="black" cx="1031.81" cy="-306" rx="120.43" ry="18"/>
<text text-anchor="middle" x="1031.81" y="-302.5" font-family="Times New Roman,serif" font-size="15.00">Send Appeal to Prefecture</text>
</g>
<!-- 2808380784256&#45;&#45;2808205656224 -->
<g id="edge27" class="edge"><title>2808380784256&#45;&#45;2808205656224</title>
<path fill="none" stroke="black" d="M975.522,-362.496C986.895,-351.283 1002.66,-335.737 1014.62,-323.951"/>
</g>
<!-- 2808367317728 -->
<g id="node34" class="node"><title>2808367317728</title>
<ellipse fill="black" stroke="black" cx="1172.81" cy="-306" rx="2.7" ry="2.7"/>
</g>
<!-- 2808380782096&#45;&#45;2808367317728 -->
<g id="edge29" class="edge"><title>2808380782096&#45;&#45;2808367317728</title>
<path fill="none" stroke="black" d="M1172.81,-359.697C1172.81,-341.883 1172.81,-315.769 1172.81,-308.776"/>
</g>
<!-- 2808367319216 -->
<g id="node35" class="node"><title>2808367319216</title>
<ellipse fill="none" stroke="black" cx="1255.81" cy="-306" rx="61.6894" ry="18"/>
<text text-anchor="middle" x="1255.81" y="-302.5" font-family="Times New Roman,serif" font-size="15.00">Add penalty</text>
</g>
<!-- 2808380782096&#45;&#45;2808367319216 -->
<g id="edge30" class="edge"><title>2808380782096&#45;&#45;2808367319216</title>
<path fill="none" stroke="black" d="M1189.21,-363.17C1202.82,-351.695 1222.19,-335.357 1236.53,-323.257"/>
</g>
<!-- 2808367318928 -->
<g id="node37" class="node"><title>2808367318928</title>
<ellipse fill="black" stroke="black" cx="1338.81" cy="-306" rx="2.7" ry="2.7"/>
</g>
<!-- 2808380782912&#45;&#45;2808367318928 -->
<g id="edge32" class="edge"><title>2808380782912&#45;&#45;2808367318928</title>
<path fill="none" stroke="black" d="M1338.81,-359.697C1338.81,-341.883 1338.81,-315.769 1338.81,-308.776"/>
</g>
<!-- 2808367318688 -->
<g id="node38" class="node"><title>2808367318688</title>
<ellipse fill="none" stroke="black" cx="1405.81" cy="-306" rx="46.6143" ry="18"/>
<text text-anchor="middle" x="1405.81" y="-302.5" font-family="Times New Roman,serif" font-size="15.00">xor loop</text>
</g>
<!-- 2808380782912&#45;&#45;2808367318688 -->
<g id="edge45" class="edge"><title>2808380782912&#45;&#45;2808367318688</title>
<path fill="none" stroke="black" d="M1352.69,-362.496C1363.66,-351.043 1378.95,-335.069 1390.31,-323.198"/>
</g>
<!-- 2808367319984 -->
<g id="node39" class="node"><title>2808367319984</title>
<ellipse fill="none" stroke="black" cx="1381.81" cy="-234" rx="27" ry="18"/>
<text text-anchor="middle" x="1381.81" y="-230.5" font-family="Times New Roman,serif" font-size="15.00">xor</text>
</g>
<!-- 2808367318688&#45;&#45;2808367319984 -->
<g id="edge43" class="edge"><title>2808367318688&#45;&#45;2808367319984</title>
<path fill="none" stroke="black" d="M1400,-288.055C1396.23,-277.049 1391.33,-262.764 1387.57,-251.789"/>
</g>
<!-- 2808367318592 -->
<g id="node50" class="node"><title>2808367318592</title>
<ellipse fill="black" stroke="black" cx="1429.81" cy="-234" rx="2.7" ry="2.7"/>
</g>
<!-- 2808367318688&#45;&#45;2808367318592 -->
<g id="edge44" class="edge"><title>2808367318688&#45;&#45;2808367318592</title>
<path fill="none" stroke="black" d="M1411.62,-288.055C1417.72,-270.252 1426.77,-243.865 1429.2,-236.796"/>
</g>
<!-- 2808367320704 -->
<g id="node40" class="node"><title>2808367320704</title>
<ellipse fill="none" stroke="black" cx="1122.81" cy="-162" rx="120.43" ry="18"/>
<text text-anchor="middle" x="1122.81" y="-158.5" font-family="Times New Roman,serif" font-size="15.00">Send Appeal to Prefecture</text>
</g>
<!-- 2808367319984&#45;&#45;2808367320704 -->
<g id="edge33" class="edge"><title>2808367319984&#45;&#45;2808367320704</title>
<path fill="none" stroke="black" d="M1356.98,-226.288C1316.08,-215.235 1233.59,-192.94 1178.26,-177.987"/>
</g>
<!-- 2808367320800 -->
<g id="node41" class="node"><title>2808367320800</title>
<ellipse fill="none" stroke="black" cx="1381.81" cy="-162" rx="120.819" ry="18"/>
<text text-anchor="middle" x="1381.81" y="-158.5" font-family="Times New Roman,serif" font-size="15.00">Send for Credit Collection</text>
</g>
<!-- 2808367319984&#45;&#45;2808367320800 -->
<g id="edge34" class="edge"><title>2808367319984&#45;&#45;2808367320800</title>
<path fill="none" stroke="black" d="M1381.81,-215.697C1381.81,-204.846 1381.81,-190.917 1381.81,-180.104"/>
</g>
<!-- 2808367318016 -->
<g id="node42" class="node"><title>2808367318016</title>
<ellipse fill="none" stroke="black" cx="1547.81" cy="-162" rx="27" ry="18"/>
<text text-anchor="middle" x="1547.81" y="-158.5" font-family="Times New Roman,serif" font-size="15.00">seq</text>
</g>
<!-- 2808367319984&#45;&#45;2808367318016 -->
<g id="edge42" class="edge"><title>2808367319984&#45;&#45;2808367318016</title>
<path fill="none" stroke="black" d="M1404.2,-223.559C1435.97,-210.162 1493.79,-185.779 1525.51,-172.402"/>
</g>
<!-- 2808367318784 -->
<g id="node43" class="node"><title>2808367318784</title>
<ellipse fill="none" stroke="black" cx="1328.81" cy="-90" rx="173.941" ry="18"/>
<text text-anchor="middle" x="1328.81" y="-86.5" font-family="Times New Roman,serif" font-size="15.00">Receive Result Appeal from Prefecture</text>
</g>
<!-- 2808367318016&#45;&#45;2808367318784 -->
<g id="edge35" class="edge"><title>2808367318016&#45;&#45;2808367318784</title>
<path fill="none" stroke="black" d="M1523.96,-153.376C1489.59,-142.391 1425.3,-121.842 1379.92,-107.337"/>
</g>
<!-- 2808367320080 -->
<g id="node44" class="node"><title>2808367320080</title>
<ellipse fill="none" stroke="black" cx="1547.81" cy="-90" rx="27" ry="18"/>
<text text-anchor="middle" x="1547.81" y="-86.5" font-family="Times New Roman,serif" font-size="15.00">xor</text>
</g>
<!-- 2808367318016&#45;&#45;2808367320080 -->
<g id="edge38" class="edge"><title>2808367318016&#45;&#45;2808367320080</title>
<path fill="none" stroke="black" d="M1547.81,-143.697C1547.81,-132.846 1547.81,-118.917 1547.81,-108.104"/>
</g>
<!-- 2808367320608 -->
<g id="node47" class="node"><title>2808367320608</title>
<ellipse fill="none" stroke="black" cx="1688.81" cy="-90" rx="27" ry="18"/>
<text text-anchor="middle" x="1688.81" y="-86.5" font-family="Times New Roman,serif" font-size="15.00">xor</text>
</g>
<!-- 2808367318016&#45;&#45;2808367320608 -->
<g id="edge41" class="edge"><title>2808367318016&#45;&#45;2808367320608</title>
<path fill="none" stroke="black" d="M1568.92,-150.52C1595.5,-137.324 1640.91,-114.781 1667.56,-101.551"/>
</g>
<!-- 2808398240160 -->
<g id="node45" class="node"><title>2808398240160</title>
<ellipse fill="black" stroke="black" cx="1406.81" cy="-18" rx="2.7" ry="2.7"/>
</g>
<!-- 2808367320080&#45;&#45;2808398240160 -->
<g id="edge36" class="edge"><title>2808367320080&#45;&#45;2808398240160</title>
<path fill="none" stroke="black" d="M1526.7,-78.5203C1491.06,-60.8234 1421.55,-26.3188 1408.83,-20.0047"/>
</g>
<!-- 2808398241024 -->
<g id="node46" class="node"><title>2808398241024</title>
<ellipse fill="none" stroke="black" cx="1547.81" cy="-18" rx="120.43" ry="18"/>
<text text-anchor="middle" x="1547.81" y="-14.5" font-family="Times New Roman,serif" font-size="15.00">Send Appeal to Prefecture</text>
</g>
<!-- 2808367320080&#45;&#45;2808398241024 -->
<g id="edge37" class="edge"><title>2808367320080&#45;&#45;2808398241024</title>
<path fill="none" stroke="black" d="M1547.81,-71.6966C1547.81,-60.8463 1547.81,-46.9167 1547.81,-36.1043"/>
</g>
<!-- 2808398241744 -->
<g id="node48" class="node"><title>2808398241744</title>
<ellipse fill="black" stroke="black" cx="1688.81" cy="-18" rx="2.7" ry="2.7"/>
</g>
<!-- 2808367320608&#45;&#45;2808398241744 -->
<g id="edge39" class="edge"><title>2808367320608&#45;&#45;2808398241744</title>
<path fill="none" stroke="black" d="M1688.81,-71.6966C1688.81,-53.8826 1688.81,-27.7686 1688.81,-20.7764"/>
</g>
<!-- 2808398240400 -->
<g id="node49" class="node"><title>2808398240400</title>
<ellipse fill="none" stroke="black" cx="1857.81" cy="-18" rx="148.91" ry="18"/>
<text text-anchor="middle" x="1857.81" y="-14.5" font-family="Times New Roman,serif" font-size="15.00">Notify Result Appeal to Offender</text>
</g>
<!-- 2808367320608&#45;&#45;2808398240400 -->
<g id="edge40" class="edge"><title>2808367320608&#45;&#45;2808398240400</title>
<path fill="none" stroke="black" d="M1711.25,-79.7045C1738.46,-68.4359 1784.79,-49.2446 1818.09,-35.4544"/>
</g>
<!-- 2808380781184 -->
<g id="node52" class="node"><title>2808380781184</title>
<ellipse fill="black" stroke="black" cx="661.811" cy="-522" rx="2.7" ry="2.7"/>
</g>
<!-- 2808386375152&#45;&#45;2808380781184 -->
<g id="edge50" class="edge"><title>2808386375152&#45;&#45;2808380781184</title>
<path fill="none" stroke="black" d="M666.328,-575.697C664.801,-557.883 662.563,-531.769 661.963,-524.776"/>
</g>
<!-- 2808380783776 -->
<g id="node53" class="node"><title>2808380783776</title>
<ellipse fill="none" stroke="black" cx="760.811" cy="-522" rx="78.5434" ry="18"/>
<text text-anchor="middle" x="760.811" y="-518.5" font-family="Times New Roman,serif" font-size="15.00">Appeal to Judge</text>
</g>
<!-- 2808386375152&#45;&#45;2808380783776 -->
<g id="edge51" class="edge"><title>2808386375152&#45;&#45;2808380783776</title>
<path fill="none" stroke="black" d="M685.304,-579.834C700.563,-568.348 722.76,-551.641 739.141,-539.311"/>
</g>
</g>
</svg>
