<?xml version="1.0" encoding="UTF-8" standalone="no"?>
<!DOCTYPE svg PUBLIC "-//W3C//DTD SVG 1.1//EN"
 "http://www.w3.org/Graphics/SVG/1.1/DTD/svg11.dtd">
<!-- Generated by graphviz version 2.38.0 (20140413.2041)
 -->
<!-- Title: pt Pages: 1 -->
<svg width="1860pt" height="908pt"
 viewBox="0.00 0.00 1859.53 908.00" xmlns="http://www.w3.org/2000/svg" xmlns:xlink="http://www.w3.org/1999/xlink">
<g id="graph0" class="graph" transform="scale(1 1) rotate(0) translate(4 904)">
<title>pt</title>
<!-- 2808363949648 -->
<g id="node1" class="node"><title>2808363949648</title>
<ellipse fill="none" stroke="black" cx="646.811" cy="-882" rx="27" ry="18"/>
<text text-anchor="middle" x="646.811" y="-878.5" font-family="Times New Roman,serif" font-size="15.00">and</text>
</g>
<!-- 2808364191168 -->
<g id="node2" class="node"><title>2808364191168</title>
<ellipse fill="none" stroke="black" cx="305.811" cy="-810" rx="27" ry="18"/>
<text text-anchor="middle" x="305.811" y="-806.5" font-family="Times New Roman,serif" font-size="15.00">xor</text>
</g>
<!-- 2808363949648&#45;&#45;2808364191168 -->
<g id="edge22" class="edge"><title>2808363949648&#45;&#45;2808364191168</title>
<path fill="none" stroke="black" d="M621.459,-875.796C558.33,-862.837 394.636,-829.234 331.33,-816.238"/>
</g>
<!-- 2808364190496 -->
<g id="node24" class="node"><title>2808364190496</title>
<ellipse fill="none" stroke="black" cx="988.811" cy="-810" rx="27" ry="18"/>
<text text-anchor="middle" x="988.811" y="-806.5" font-family="Times New Roman,serif" font-size="15.00">seq</text>
</g>
<!-- 2808363949648&#45;&#45;2808364190496 -->
<g id="edge72" class="edge"><title>2808363949648&#45;&#45;2808364190496</title>
<path fill="none" stroke="black" d="M672.237,-875.796C735.552,-862.837 899.726,-829.234 963.217,-816.238"/>
</g>
<!-- 2808364149584 -->
<g id="node3" class="node"><title>2808364149584</title>
<ellipse fill="black" stroke="black" cx="257.811" cy="-738" rx="2.7" ry="2.7"/>
</g>
<!-- 2808364191168&#45;&#45;2808364149584 -->
<g id="edge1" class="edge"><title>2808364191168&#45;&#45;2808364149584</title>
<path fill="none" stroke="black" d="M294.919,-793.116C282.749,-775.367 264.091,-748.158 259.084,-740.857"/>
</g>
<!-- 2808364149344 -->
<g id="node4" class="node"><title>2808364149344</title>
<ellipse fill="none" stroke="black" cx="305.811" cy="-738" rx="27" ry="18"/>
<text text-anchor="middle" x="305.811" y="-734.5" font-family="Times New Roman,serif" font-size="15.00">and</text>
</g>
<!-- 2808364191168&#45;&#45;2808364149344 -->
<g id="edge21" class="edge"><title>2808364191168&#45;&#45;2808364149344</title>
<path fill="none" stroke="black" d="M305.811,-791.697C305.811,-780.846 305.811,-766.917 305.811,-756.104"/>
</g>
<!-- 2808364149152 -->
<g id="node5" class="node"><title>2808364149152</title>
<ellipse fill="none" stroke="black" cx="164.811" cy="-666" rx="46.6143" ry="18"/>
<text text-anchor="middle" x="164.811" y="-662.5" font-family="Times New Roman,serif" font-size="15.00">xor loop</text>
</g>
<!-- 2808364149344&#45;&#45;2808364149152 -->
<g id="edge4" class="edge"><title>2808364149344&#45;&#45;2808364149152</title>
<path fill="none" stroke="black" d="M284.702,-726.52C260.118,-714.316 219.432,-694.117 192.374,-680.684"/>
</g>
<!-- 2808364149872 -->
<g id="node8" class="node"><title>2808364149872</title>
<ellipse fill="none" stroke="black" cx="305.811" cy="-666" rx="27" ry="18"/>
<text text-anchor="middle" x="305.811" y="-662.5" font-family="Times New Roman,serif" font-size="15.00">xor</text>
</g>
<!-- 2808364149344&#45;&#45;2808364149872 -->
<g id="edge20" class="edge"><title>2808364149344&#45;&#45;2808364149872</title>
<path fill="none" stroke="black" d="M305.811,-719.697C305.811,-708.846 305.811,-694.917 305.811,-684.104"/>
</g>
<!-- 2808364148192 -->
<g id="node6" class="node"><title>2808364148192</title>
<ellipse fill="black" stroke="black" cx="97.8111" cy="-594" rx="2.7" ry="2.7"/>
</g>
<!-- 2808364149152&#45;&#45;2808364148192 -->
<g id="edge2" class="edge"><title>2808364149152&#45;&#45;2808364148192</title>
<path fill="none" stroke="black" d="M149.272,-648.765C131.953,-630.671 105.542,-603.078 99.2104,-596.462"/>
</g>
<!-- 2808364148048 -->
<g id="node7" class="node"><title>2808364148048</title>
<ellipse fill="none" stroke="black" cx="164.811" cy="-594" rx="45.7249" ry="18"/>
<text text-anchor="middle" x="164.811" y="-590.5" font-family="Times New Roman,serif" font-size="15.00">Payment</text>
</g>
<!-- 2808364149152&#45;&#45;2808364148048 -->
<g id="edge3" class="edge"><title>2808364149152&#45;&#45;2808364148048</title>
<path fill="none" stroke="black" d="M164.811,-647.697C164.811,-636.846 164.811,-622.917 164.811,-612.104"/>
</g>
<!-- 2808364149920 -->
<g id="node9" class="node"><title>2808364149920</title>
<ellipse fill="black" stroke="black" cx="231.811" cy="-594" rx="2.7" ry="2.7"/>
</g>
<!-- 2808364149872&#45;&#45;2808364149920 -->
<g id="edge5" class="edge"><title>2808364149872&#45;&#45;2808364149920</title>
<path fill="none" stroke="black" d="M290.836,-650.834C271.916,-632.937 240.915,-603.612 233.46,-596.56"/>
</g>
<!-- 2808364148624 -->
<g id="node10" class="node"><title>2808364148624</title>
<ellipse fill="none" stroke="black" cx="305.811" cy="-594" rx="52.6228" ry="18"/>
<text text-anchor="middle" x="305.811" y="-590.5" font-family="Times New Roman,serif" font-size="15.00">Send Fine</text>
</g>
<!-- 2808364149872&#45;&#45;2808364148624 -->
<g id="edge6" class="edge"><title>2808364149872&#45;&#45;2808364148624</title>
<path fill="none" stroke="black" d="M305.811,-647.697C305.811,-636.846 305.811,-622.917 305.811,-612.104"/>
</g>
<!-- 2808364148768 -->
<g id="node11" class="node"><title>2808364148768</title>
<ellipse fill="none" stroke="black" cx="403.811" cy="-594" rx="27" ry="18"/>
<text text-anchor="middle" x="403.811" y="-590.5" font-family="Times New Roman,serif" font-size="15.00">seq</text>
</g>
<!-- 2808364149872&#45;&#45;2808364148768 -->
<g id="edge19" class="edge"><title>2808364149872&#45;&#45;2808364148768</title>
<path fill="none" stroke="black" d="M323.786,-652.161C341.468,-639.531 368.307,-620.36 385.95,-607.758"/>
</g>
<!-- 2808390420560 -->
<g id="node12" class="node"><title>2808390420560</title>
<ellipse fill="none" stroke="black" cx="52.8111" cy="-522" rx="52.6228" ry="18"/>
<text text-anchor="middle" x="52.8111" y="-518.5" font-family="Times New Roman,serif" font-size="15.00">Send Fine</text>
</g>
<!-- 2808364148768&#45;&#45;2808390420560 -->
<g id="edge7" class="edge"><title>2808364148768&#45;&#45;2808390420560</title>
<path fill="none" stroke="black" d="M378.285,-587.909C319.048,-576.096 171.636,-546.697 97.2456,-531.862"/>
</g>
<!-- 2808390419024 -->
<g id="node13" class="node"><title>2808390419024</title>
<ellipse fill="none" stroke="black" cx="231.811" cy="-522" rx="107.914" ry="18"/>
<text text-anchor="middle" x="231.811" y="-518.5" font-family="Times New Roman,serif" font-size="15.00">Insert Fine Notification</text>
</g>
<!-- 2808364148768&#45;&#45;2808390419024 -->
<g id="edge8" class="edge"><title>2808364148768&#45;&#45;2808390419024</title>
<path fill="none" stroke="black" d="M381.325,-583.849C353.279,-572.434 304.87,-552.733 270.746,-538.846"/>
</g>
<!-- 2808390421184 -->
<g id="node14" class="node"><title>2808390421184</title>
<ellipse fill="none" stroke="black" cx="403.811" cy="-522" rx="46.6143" ry="18"/>
<text text-anchor="middle" x="403.811" y="-518.5" font-family="Times New Roman,serif" font-size="15.00">xor loop</text>
</g>
<!-- 2808364148768&#45;&#45;2808390421184 -->
<g id="edge11" class="edge"><title>2808364148768&#45;&#45;2808390421184</title>
<path fill="none" stroke="black" d="M403.811,-575.697C403.811,-564.846 403.811,-550.917 403.811,-540.104"/>
</g>
<!-- 2808390421232 -->
<g id="node17" class="node"><title>2808390421232</title>
<ellipse fill="none" stroke="black" cx="512.811" cy="-522" rx="27" ry="18"/>
<text text-anchor="middle" x="512.811" y="-518.5" font-family="Times New Roman,serif" font-size="15.00">and</text>
</g>
<!-- 2808364148768&#45;&#45;2808390421232 -->
<g id="edge18" class="edge"><title>2808364148768&#45;&#45;2808390421232</title>
<path fill="none" stroke="black" d="M422.797,-580.807C442.804,-567.959 474.119,-547.848 494.042,-535.053"/>
</g>
<!-- 2808390421136 -->
<g id="node15" class="node"><title>2808390421136</title>
<ellipse fill="black" stroke="black" cx="303.811" cy="-450" rx="2.7" ry="2.7"/>
</g>
<!-- 2808390421184&#45;&#45;2808390421136 -->
<g id="edge9" class="edge"><title>2808390421184&#45;&#45;2808390421136</title>
<path fill="none" stroke="black" d="M382.113,-505.811C355.919,-487.475 314.273,-458.323 305.476,-452.166"/>
</g>
<!-- 2808390419264 -->
<g id="node16" class="node"><title>2808390419264</title>
<ellipse fill="none" stroke="black" cx="386.811" cy="-450" rx="61.6894" ry="18"/>
<text text-anchor="middle" x="386.811" y="-446.5" font-family="Times New Roman,serif" font-size="15.00">Add penalty</text>
</g>
<!-- 2808390421184&#45;&#45;2808390419264 -->
<g id="edge10" class="edge"><title>2808390421184&#45;&#45;2808390419264</title>
<path fill="none" stroke="black" d="M399.696,-504.055C397.062,-493.211 393.655,-479.183 391.006,-468.275"/>
</g>
<!-- 2808390419168 -->
<g id="node18" class="node"><title>2808390419168</title>
<ellipse fill="none" stroke="black" cx="512.811" cy="-450" rx="46.6143" ry="18"/>
<text text-anchor="middle" x="512.811" y="-446.5" font-family="Times New Roman,serif" font-size="15.00">xor loop</text>
</g>
<!-- 2808390421232&#45;&#45;2808390419168 -->
<g id="edge14" class="edge"><title>2808390421232&#45;&#45;2808390419168</title>
<path fill="none" stroke="black" d="M512.811,-503.697C512.811,-492.846 512.811,-478.917 512.811,-468.104"/>
</g>
<!-- 2808390419840 -->
<g id="node21" class="node"><title>2808390419840</title>
<ellipse fill="none" stroke="black" cx="623.811" cy="-450" rx="46.6143" ry="18"/>
<text text-anchor="middle" x="623.811" y="-446.5" font-family="Times New Roman,serif" font-size="15.00">xor loop</text>
</g>
<!-- 2808390421232&#45;&#45;2808390419840 -->
<g id="edge17" class="edge"><title>2808390421232&#45;&#45;2808390419840</title>
<path fill="none" stroke="black" d="M531.893,-508.967C550.86,-497.005 579.988,-478.636 600.357,-465.791"/>
</g>
<!-- 2808390422240 -->
<g id="node19" class="node"><title>2808390422240</title>
<ellipse fill="black" stroke="black" cx="429.811" cy="-378" rx="2.7" ry="2.7"/>
</g>
<!-- 2808390419168&#45;&#45;2808390422240 -->
<g id="edge12" class="edge"><title>2808390419168&#45;&#45;2808390422240</title>
<path fill="none" stroke="black" d="M494.391,-433.465C472.995,-415.42 439.598,-387.254 431.583,-380.494"/>
</g>
<!-- 2808390421040 -->
<g id="node20" class="node"><title>2808390421040</title>
<ellipse fill="none" stroke="black" cx="512.811" cy="-378" rx="61.6894" ry="18"/>
<text text-anchor="middle" x="512.811" y="-374.5" font-family="Times New Roman,serif" font-size="15.00">Add Penalty</text>
</g>
<!-- 2808390419168&#45;&#45;2808390421040 -->
<g id="edge13" class="edge"><title>2808390419168&#45;&#45;2808390421040</title>
<path fill="none" stroke="black" d="M512.811,-431.697C512.811,-420.846 512.811,-406.917 512.811,-396.104"/>
</g>
<!-- 2808390420416 -->
<g id="node22" class="node"><title>2808390420416</title>
<ellipse fill="black" stroke="black" cx="595.811" cy="-378" rx="2.7" ry="2.7"/>
</g>
<!-- 2808390419840&#45;&#45;2808390420416 -->
<g id="edge15" class="edge"><title>2808390419840&#45;&#45;2808390420416</title>
<path fill="none" stroke="black" d="M617.033,-432.055C609.912,-414.252 599.357,-387.865 596.53,-380.796"/>
</g>
<!-- 2808390418880 -->
<g id="node23" class="node"><title>2808390418880</title>
<ellipse fill="none" stroke="black" cx="694.811" cy="-378" rx="78.5434" ry="18"/>
<text text-anchor="middle" x="694.811" y="-374.5" font-family="Times New Roman,serif" font-size="15.00">Appeal to Judge</text>
</g>
<!-- 2808390419840&#45;&#45;2808390418880 -->
<g id="edge16" class="edge"><title>2808390419840&#45;&#45;2808390418880</title>
<path fill="none" stroke="black" d="M640.278,-432.765C651.585,-421.618 666.548,-406.865 677.94,-395.633"/>
</g>
<!-- 2808364188864 -->
<g id="node25" class="node"><title>2808364188864</title>
<ellipse fill="none" stroke="black" cx="926.811" cy="-738" rx="59.5207" ry="18"/>
<text text-anchor="middle" x="926.811" y="-734.5" font-family="Times New Roman,serif" font-size="15.00">Create Fine</text>
</g>
<!-- 2808364190496&#45;&#45;2808364188864 -->
<g id="edge23" class="edge"><title>2808364190496&#45;&#45;2808364188864</title>
<path fill="none" stroke="black" d="M975.662,-794.155C965.71,-782.918 952.033,-767.476 941.681,-755.789"/>
</g>
<!-- 2808204579168 -->
<g id="node26" class="node"><title>2808204579168</title>
<ellipse fill="none" stroke="black" cx="1050.81" cy="-738" rx="46.6143" ry="18"/>
<text text-anchor="middle" x="1050.81" y="-734.5" font-family="Times New Roman,serif" font-size="15.00">xor loop</text>
</g>
<!-- 2808364190496&#45;&#45;2808204579168 -->
<g id="edge61" class="edge"><title>2808364190496&#45;&#45;2808204579168</title>
<path fill="none" stroke="black" d="M1001.96,-794.155C1012.05,-782.757 1025.98,-767.034 1036.38,-755.29"/>
</g>
<!-- 2808204582528 -->
<g id="node64" class="node"><title>2808204582528</title>
<ellipse fill="none" stroke="black" cx="1169.81" cy="-738" rx="27" ry="18"/>
<text text-anchor="middle" x="1169.81" y="-734.5" font-family="Times New Roman,serif" font-size="15.00">xor</text>
</g>
<!-- 2808364190496&#45;&#45;2808204582528 -->
<g id="edge71" class="edge"><title>2808364190496&#45;&#45;2808204582528</title>
<path fill="none" stroke="black" d="M1011.73,-800.134C1046.55,-786.67 1112.37,-761.215 1147.07,-747.794"/>
</g>
<!-- 2808204581952 -->
<g id="node27" class="node"><title>2808204581952</title>
<ellipse fill="none" stroke="black" cx="1026.81" cy="-666" rx="27" ry="18"/>
<text text-anchor="middle" x="1026.81" y="-662.5" font-family="Times New Roman,serif" font-size="15.00">seq</text>
</g>
<!-- 2808204579168&#45;&#45;2808204581952 -->
<g id="edge59" class="edge"><title>2808204579168&#45;&#45;2808204581952</title>
<path fill="none" stroke="black" d="M1045,-720.055C1041.23,-709.049 1036.33,-694.764 1032.57,-683.789"/>
</g>
<!-- 2808363751216 -->
<g id="node63" class="node"><title>2808363751216</title>
<ellipse fill="black" stroke="black" cx="1074.81" cy="-666" rx="2.7" ry="2.7"/>
</g>
<!-- 2808204579168&#45;&#45;2808363751216 -->
<g id="edge60" class="edge"><title>2808204579168&#45;&#45;2808363751216</title>
<path fill="none" stroke="black" d="M1056.62,-720.055C1062.72,-702.252 1071.77,-675.865 1074.2,-668.796"/>
</g>
<!-- 2808379622832 -->
<g id="node28" class="node"><title>2808379622832</title>
<ellipse fill="none" stroke="black" cx="999.811" cy="-594" rx="27" ry="18"/>
<text text-anchor="middle" x="999.811" y="-590.5" font-family="Times New Roman,serif" font-size="15.00">xor</text>
</g>
<!-- 2808204581952&#45;&#45;2808379622832 -->
<g id="edge26" class="edge"><title>2808204581952&#45;&#45;2808379622832</title>
<path fill="none" stroke="black" d="M1020.41,-648.411C1016.17,-637.414 1010.62,-623.027 1006.35,-611.956"/>
</g>
<!-- 2808379625136 -->
<g id="node31" class="node"><title>2808379625136</title>
<ellipse fill="none" stroke="black" cx="1073.81" cy="-594" rx="27" ry="18"/>
<text text-anchor="middle" x="1073.81" y="-590.5" font-family="Times New Roman,serif" font-size="15.00">xor</text>
</g>
<!-- 2808204581952&#45;&#45;2808379625136 -->
<g id="edge58" class="edge"><title>2808204581952&#45;&#45;2808379625136</title>
<path fill="none" stroke="black" d="M1037.48,-649.116C1045.17,-637.66 1055.51,-622.263 1063.19,-610.821"/>
</g>
<!-- 2808379622976 -->
<g id="node29" class="node"><title>2808379622976</title>
<ellipse fill="black" stroke="black" cx="925.811" cy="-522" rx="2.7" ry="2.7"/>
</g>
<!-- 2808379622832&#45;&#45;2808379622976 -->
<g id="edge24" class="edge"><title>2808379622832&#45;&#45;2808379622976</title>
<path fill="none" stroke="black" d="M984.836,-578.834C965.916,-560.937 934.915,-531.612 927.46,-524.56"/>
</g>
<!-- 2808379624896 -->
<g id="node30" class="node"><title>2808379624896</title>
<ellipse fill="none" stroke="black" cx="999.811" cy="-522" rx="52.6228" ry="18"/>
<text text-anchor="middle" x="999.811" y="-518.5" font-family="Times New Roman,serif" font-size="15.00">Send Fine</text>
</g>
<!-- 2808379622832&#45;&#45;2808379624896 -->
<g id="edge25" class="edge"><title>2808379622832&#45;&#45;2808379624896</title>
<path fill="none" stroke="black" d="M999.811,-575.697C999.811,-564.846 999.811,-550.917 999.811,-540.104"/>
</g>
<!-- 2808379623456 -->
<g id="node32" class="node"><title>2808379623456</title>
<ellipse fill="black" stroke="black" cx="1073.81" cy="-522" rx="2.7" ry="2.7"/>
</g>
<!-- 2808379625136&#45;&#45;2808379623456 -->
<g id="edge27" class="edge"><title>2808379625136&#45;&#45;2808379623456</title>
<path fill="none" stroke="black" d="M1073.81,-575.697C1073.81,-557.883 1073.81,-531.769 1073.81,-524.776"/>
</g>
<!-- 2808379623504 -->
<g id="node33" class="node"><title>2808379623504</title>
<ellipse fill="none" stroke="black" cx="1121.81" cy="-522" rx="27" ry="18"/>
<text text-anchor="middle" x="1121.81" y="-518.5" font-family="Times New Roman,serif" font-size="15.00">seq</text>
</g>
<!-- 2808379625136&#45;&#45;2808379623504 -->
<g id="edge57" class="edge"><title>2808379625136&#45;&#45;2808379623504</title>
<path fill="none" stroke="black" d="M1084.7,-577.116C1092.56,-565.66 1103.12,-550.263 1110.96,-538.821"/>
</g>
<!-- 2808379622928 -->
<g id="node34" class="node"><title>2808379622928</title>
<ellipse fill="none" stroke="black" cx="994.811" cy="-450" rx="27" ry="18"/>
<text text-anchor="middle" x="994.811" y="-446.5" font-family="Times New Roman,serif" font-size="15.00">xor</text>
</g>
<!-- 2808379623504&#45;&#45;2808379622928 -->
<g id="edge31" class="edge"><title>2808379623504&#45;&#45;2808379622928</title>
<path fill="none" stroke="black" d="M1101.69,-509.908C1078.05,-496.878 1039.04,-475.379 1015.26,-462.272"/>
</g>
<!-- 2808363750640 -->
<g id="node38" class="node"><title>2808363750640</title>
<ellipse fill="none" stroke="black" cx="1249.81" cy="-450" rx="27" ry="18"/>
<text text-anchor="middle" x="1249.81" y="-446.5" font-family="Times New Roman,serif" font-size="15.00">and</text>
</g>
<!-- 2808379623504&#45;&#45;2808363750640 -->
<g id="edge53" class="edge"><title>2808379623504&#45;&#45;2808363750640</title>
<path fill="none" stroke="black" d="M1142.09,-509.908C1166.06,-496.801 1205.7,-475.124 1229.62,-462.04"/>
</g>
<!-- 2808363750256 -->
<g id="node60" class="node"><title>2808363750256</title>
<ellipse fill="none" stroke="black" cx="1374.81" cy="-450" rx="27" ry="18"/>
<text text-anchor="middle" x="1374.81" y="-446.5" font-family="Times New Roman,serif" font-size="15.00">xor</text>
</g>
<!-- 2808379623504&#45;&#45;2808363750256 -->
<g id="edge56" class="edge"><title>2808379623504&#45;&#45;2808363750256</title>
<path fill="none" stroke="black" d="M1146.53,-514.161C1195.02,-500.744 1302.09,-471.12 1350.36,-457.764"/>
</g>
<!-- 2808379623168 -->
<g id="node35" class="node"><title>2808379623168</title>
<ellipse fill="black" stroke="black" cx="793.811" cy="-378" rx="2.7" ry="2.7"/>
</g>
<!-- 2808379622928&#45;&#45;2808379623168 -->
<g id="edge28" class="edge"><title>2808379622928&#45;&#45;2808379623168</title>
<path fill="none" stroke="black" d="M971.36,-440.833C922.481,-423.81 812.832,-385.624 795.998,-379.762"/>
</g>
<!-- 2808379622160 -->
<g id="node36" class="node"><title>2808379622160</title>
<ellipse fill="none" stroke="black" cx="892.811" cy="-378" rx="78.5434" ry="18"/>
<text text-anchor="middle" x="892.811" y="-374.5" font-family="Times New Roman,serif" font-size="15.00">Appeal to Judge</text>
</g>
<!-- 2808379622928&#45;&#45;2808379622160 -->
<g id="edge29" class="edge"><title>2808379622928&#45;&#45;2808379622160</title>
<path fill="none" stroke="black" d="M976.575,-436.485C959.843,-425.002 934.951,-407.92 916.649,-395.359"/>
</g>
<!-- 2808379622784 -->
<g id="node37" class="node"><title>2808379622784</title>
<ellipse fill="none" stroke="black" cx="1096.81" cy="-378" rx="107.914" ry="18"/>
<text text-anchor="middle" x="1096.81" y="-374.5" font-family="Times New Roman,serif" font-size="15.00">Insert Fine Notification</text>
</g>
<!-- 2808379622928&#45;&#45;2808379622784 -->
<g id="edge30" class="edge"><title>2808379622928&#45;&#45;2808379622784</title>
<path fill="none" stroke="black" d="M1013.05,-436.485C1029.66,-425.081 1054.33,-408.154 1072.6,-395.618"/>
</g>
<!-- 2808363749968 -->
<g id="node39" class="node"><title>2808363749968</title>
<ellipse fill="none" stroke="black" cx="1249.81" cy="-378" rx="27" ry="18"/>
<text text-anchor="middle" x="1249.81" y="-374.5" font-family="Times New Roman,serif" font-size="15.00">xor</text>
</g>
<!-- 2808363750640&#45;&#45;2808363749968 -->
<g id="edge34" class="edge"><title>2808363750640&#45;&#45;2808363749968</title>
<path fill="none" stroke="black" d="M1249.81,-431.697C1249.81,-420.846 1249.81,-406.917 1249.81,-396.104"/>
</g>
<!-- 2808363750112 -->
<g id="node42" class="node"><title>2808363750112</title>
<ellipse fill="none" stroke="black" cx="1326.81" cy="-378" rx="27" ry="18"/>
<text text-anchor="middle" x="1326.81" y="-374.5" font-family="Times New Roman,serif" font-size="15.00">xor</text>
</g>
<!-- 2808363750640&#45;&#45;2808363750112 -->
<g id="edge52" class="edge"><title>2808363750640&#45;&#45;2808363750112</title>
<path fill="none" stroke="black" d="M1265.39,-434.834C1278.84,-422.61 1298.15,-405.054 1311.51,-392.906"/>
</g>
<!-- 2808363750064 -->
<g id="node40" class="node"><title>2808363750064</title>
<ellipse fill="black" stroke="black" cx="1163.81" cy="-306" rx="2.7" ry="2.7"/>
</g>
<!-- 2808363749968&#45;&#45;2808363750064 -->
<g id="edge32" class="edge"><title>2808363749968&#45;&#45;2808363750064</title>
<path fill="none" stroke="black" d="M1233.23,-363.503C1211.36,-345.705 1174.61,-315.793 1165.77,-308.594"/>
</g>
<!-- 2808363749824 -->
<g id="node41" class="node"><title>2808363749824</title>
<ellipse fill="none" stroke="black" cx="1246.81" cy="-306" rx="61.6894" ry="18"/>
<text text-anchor="middle" x="1246.81" y="-302.5" font-family="Times New Roman,serif" font-size="15.00">Add penalty</text>
</g>
<!-- 2808363749968&#45;&#45;2808363749824 -->
<g id="edge33" class="edge"><title>2808363749968&#45;&#45;2808363749824</title>
<path fill="none" stroke="black" d="M1249.07,-359.697C1248.6,-348.846 1248.01,-334.917 1247.54,-324.104"/>
</g>
<!-- 2808364146896 -->
<g id="node43" class="node"><title>2808364146896</title>
<ellipse fill="black" stroke="black" cx="1329.81" cy="-306" rx="2.7" ry="2.7"/>
</g>
<!-- 2808363750112&#45;&#45;2808364146896 -->
<g id="edge35" class="edge"><title>2808363750112&#45;&#45;2808364146896</title>
<path fill="none" stroke="black" d="M1327.55,-359.697C1328.32,-341.883 1329.44,-315.769 1329.73,-308.776"/>
</g>
<!-- 2808364147520 -->
<g id="node44" class="node"><title>2808364147520</title>
<ellipse fill="none" stroke="black" cx="1377.81" cy="-306" rx="27" ry="18"/>
<text text-anchor="middle" x="1377.81" y="-302.5" font-family="Times New Roman,serif" font-size="15.00">seq</text>
</g>
<!-- 2808363750112&#45;&#45;2808364147520 -->
<g id="edge51" class="edge"><title>2808363750112&#45;&#45;2808364147520</title>
<path fill="none" stroke="black" d="M1338.13,-361.465C1346.58,-349.865 1358.08,-334.082 1366.52,-322.492"/>
</g>
<!-- 2808364149776 -->
<g id="node45" class="node"><title>2808364149776</title>
<ellipse fill="none" stroke="black" cx="1200.81" cy="-234" rx="27" ry="18"/>
<text text-anchor="middle" x="1200.81" y="-230.5" font-family="Times New Roman,serif" font-size="15.00">xor</text>
</g>
<!-- 2808364147520&#45;&#45;2808364149776 -->
<g id="edge38" class="edge"><title>2808364147520&#45;&#45;2808364149776</title>
<path fill="none" stroke="black" d="M1355.03,-295.992C1321.05,-282.551 1257.44,-257.394 1223.5,-243.973"/>
</g>
<!-- 2808364150640 -->
<g id="node48" class="node"><title>2808364150640</title>
<ellipse fill="none" stroke="black" cx="1377.81" cy="-234" rx="27" ry="18"/>
<text text-anchor="middle" x="1377.81" y="-230.5" font-family="Times New Roman,serif" font-size="15.00">xor</text>
</g>
<!-- 2808364147520&#45;&#45;2808364150640 -->
<g id="edge47" class="edge"><title>2808364147520&#45;&#45;2808364150640</title>
<path fill="none" stroke="black" d="M1377.81,-287.697C1377.81,-276.846 1377.81,-262.917 1377.81,-252.104"/>
</g>
<!-- 2808364148144 -->
<g id="node57" class="node"><title>2808364148144</title>
<ellipse fill="none" stroke="black" cx="1461.81" cy="-234" rx="27" ry="18"/>
<text text-anchor="middle" x="1461.81" y="-230.5" font-family="Times New Roman,serif" font-size="15.00">xor</text>
</g>
<!-- 2808364147520&#45;&#45;2808364148144 -->
<g id="edge50" class="edge"><title>2808364147520&#45;&#45;2808364148144</title>
<path fill="none" stroke="black" d="M1394.01,-291.503C1408.88,-279.108 1430.81,-260.838 1445.66,-248.455"/>
</g>
<!-- 2808364147040 -->
<g id="node46" class="node"><title>2808364147040</title>
<ellipse fill="black" stroke="black" cx="1035.81" cy="-162" rx="2.7" ry="2.7"/>
</g>
<!-- 2808364149776&#45;&#45;2808364147040 -->
<g id="edge36" class="edge"><title>2808364149776&#45;&#45;2808364147040</title>
<path fill="none" stroke="black" d="M1178.56,-223.559C1137.39,-206.094 1052.22,-169.96 1037.88,-163.878"/>
</g>
<!-- 2808364146752 -->
<g id="node47" class="node"><title>2808364146752</title>
<ellipse fill="none" stroke="black" cx="1200.81" cy="-162" rx="144.571" ry="18"/>
<text text-anchor="middle" x="1200.81" y="-158.5" font-family="Times New Roman,serif" font-size="15.00">Insert Date Appeal to Prefecture</text>
</g>
<!-- 2808364149776&#45;&#45;2808364146752 -->
<g id="edge37" class="edge"><title>2808364149776&#45;&#45;2808364146752</title>
<path fill="none" stroke="black" d="M1200.81,-215.697C1200.81,-204.846 1200.81,-190.917 1200.81,-180.104"/>
</g>
<!-- 2808364146992 -->
<g id="node49" class="node"><title>2808364146992</title>
<ellipse fill="black" stroke="black" cx="1365.81" cy="-162" rx="2.7" ry="2.7"/>
</g>
<!-- 2808364150640&#45;&#45;2808364146992 -->
<g id="edge39" class="edge"><title>2808364150640&#45;&#45;2808364146992</title>
<path fill="none" stroke="black" d="M1374.91,-216.055C1371.85,-198.252 1367.33,-171.865 1366.12,-164.796"/>
</g>
<!-- 2808364150592 -->
<g id="node50" class="node"><title>2808364150592</title>
<ellipse fill="none" stroke="black" cx="1413.81" cy="-162" rx="27" ry="18"/>
<text text-anchor="middle" x="1413.81" y="-158.5" font-family="Times New Roman,serif" font-size="15.00">and</text>
</g>
<!-- 2808364150640&#45;&#45;2808364150592 -->
<g id="edge46" class="edge"><title>2808364150640&#45;&#45;2808364150592</title>
<path fill="none" stroke="black" d="M1386.16,-216.765C1391.98,-205.456 1399.7,-190.437 1405.51,-179.147"/>
</g>
<!-- 2808364149008 -->
<g id="node51" class="node"><title>2808364149008</title>
<ellipse fill="none" stroke="black" cx="1342.81" cy="-90" rx="27" ry="18"/>
<text text-anchor="middle" x="1342.81" y="-86.5" font-family="Times New Roman,serif" font-size="15.00">xor</text>
</g>
<!-- 2808364150592&#45;&#45;2808364149008 -->
<g id="edge42" class="edge"><title>2808364150592&#45;&#45;2808364149008</title>
<path fill="none" stroke="black" d="M1399.1,-146.496C1386.91,-134.482 1369.68,-117.494 1357.5,-105.485"/>
</g>
<!-- 2808364149440 -->
<g id="node54" class="node"><title>2808364149440</title>
<ellipse fill="none" stroke="black" cx="1483.81" cy="-90" rx="27" ry="18"/>
<text text-anchor="middle" x="1483.81" y="-86.5" font-family="Times New Roman,serif" font-size="15.00">xor</text>
</g>
<!-- 2808364150592&#45;&#45;2808364149440 -->
<g id="edge45" class="edge"><title>2808364150592&#45;&#45;2808364149440</title>
<path fill="none" stroke="black" d="M1428.32,-146.496C1440.33,-134.482 1457.32,-117.494 1469.33,-105.485"/>
</g>
<!-- 2808364147472 -->
<g id="node52" class="node"><title>2808364147472</title>
<ellipse fill="black" stroke="black" cx="1201.81" cy="-18" rx="2.7" ry="2.7"/>
</g>
<!-- 2808364149008&#45;&#45;2808364147472 -->
<g id="edge40" class="edge"><title>2808364149008&#45;&#45;2808364147472</title>
<path fill="none" stroke="black" d="M1321.7,-78.5203C1286.06,-60.8234 1216.55,-26.3188 1203.83,-20.0047"/>
</g>
<!-- 2808364147616 -->
<g id="node53" class="node"><title>2808364147616</title>
<ellipse fill="none" stroke="black" cx="1342.81" cy="-18" rx="120.43" ry="18"/>
<text text-anchor="middle" x="1342.81" y="-14.5" font-family="Times New Roman,serif" font-size="15.00">Send Appeal to Prefecture</text>
</g>
<!-- 2808364149008&#45;&#45;2808364147616 -->
<g id="edge41" class="edge"><title>2808364149008&#45;&#45;2808364147616</title>
<path fill="none" stroke="black" d="M1342.81,-71.6966C1342.81,-60.8463 1342.81,-46.9167 1342.81,-36.1043"/>
</g>
<!-- 2808364149248 -->
<g id="node55" class="node"><title>2808364149248</title>
<ellipse fill="black" stroke="black" cx="1483.81" cy="-18" rx="2.7" ry="2.7"/>
</g>
<!-- 2808364149440&#45;&#45;2808364149248 -->
<g id="edge43" class="edge"><title>2808364149440&#45;&#45;2808364149248</title>
<path fill="none" stroke="black" d="M1483.81,-71.6966C1483.81,-53.8826 1483.81,-27.7686 1483.81,-20.7764"/>
</g>
<!-- 2808364149680 -->
<g id="node56" class="node"><title>2808364149680</title>
<ellipse fill="none" stroke="black" cx="1677.81" cy="-18" rx="173.941" ry="18"/>
<text text-anchor="middle" x="1677.81" y="-14.5" font-family="Times New Roman,serif" font-size="15.00">Receive Result Appeal from Prefecture</text>
</g>
<!-- 2808364149440&#45;&#45;2808364149680 -->
<g id="edge44" class="edge"><title>2808364149440&#45;&#45;2808364149680</title>
<path fill="none" stroke="black" d="M1507.21,-80.5564C1538.05,-69.4293 1592.96,-49.615 1632.16,-35.472"/>
</g>
<!-- 2808364147088 -->
<g id="node58" class="node"><title>2808364147088</title>
<ellipse fill="black" stroke="black" cx="1461.81" cy="-162" rx="2.7" ry="2.7"/>
</g>
<!-- 2808364148144&#45;&#45;2808364147088 -->
<g id="edge48" class="edge"><title>2808364148144&#45;&#45;2808364147088</title>
<path fill="none" stroke="black" d="M1461.81,-215.697C1461.81,-197.883 1461.81,-171.769 1461.81,-164.776"/>
</g>
<!-- 2808364149488 -->
<g id="node59" class="node"><title>2808364149488</title>
<ellipse fill="none" stroke="black" cx="1630.81" cy="-162" rx="148.91" ry="18"/>
<text text-anchor="middle" x="1630.81" y="-158.5" font-family="Times New Roman,serif" font-size="15.00">Notify Result Appeal to Offender</text>
</g>
<!-- 2808364148144&#45;&#45;2808364149488 -->
<g id="edge49" class="edge"><title>2808364148144&#45;&#45;2808364149488</title>
<path fill="none" stroke="black" d="M1484.25,-223.705C1511.46,-212.436 1557.79,-193.245 1591.09,-179.454"/>
</g>
<!-- 2808364150400 -->
<g id="node61" class="node"><title>2808364150400</title>
<ellipse fill="black" stroke="black" cx="1374.81" cy="-378" rx="2.7" ry="2.7"/>
</g>
<!-- 2808363750256&#45;&#45;2808364150400 -->
<g id="edge54" class="edge"><title>2808363750256&#45;&#45;2808364150400</title>
<path fill="none" stroke="black" d="M1374.81,-431.697C1374.81,-413.883 1374.81,-387.769 1374.81,-380.776"/>
</g>
<!-- 2808364147760 -->
<g id="node62" class="node"><title>2808364147760</title>
<ellipse fill="none" stroke="black" cx="1441.81" cy="-378" rx="45.7249" ry="18"/>
<text text-anchor="middle" x="1441.81" y="-374.5" font-family="Times New Roman,serif" font-size="15.00">Payment</text>
</g>
<!-- 2808363750256&#45;&#45;2808364147760 -->
<g id="edge55" class="edge"><title>2808363750256&#45;&#45;2808364147760</title>
<path fill="none" stroke="black" d="M1388.69,-434.496C1399.66,-423.043 1414.95,-407.069 1426.31,-395.198"/>
</g>
<!-- 2808364150496 -->
<g id="node65" class="node"><title>2808364150496</title>
<ellipse fill="none" stroke="black" cx="1169.81" cy="-666" rx="27" ry="18"/>
<text text-anchor="middle" x="1169.81" y="-662.5" font-family="Times New Roman,serif" font-size="15.00">seq</text>
</g>
<!-- 2808204582528&#45;&#45;2808364150496 -->
<g id="edge65" class="edge"><title>2808204582528&#45;&#45;2808364150496</title>
<path fill="none" stroke="black" d="M1169.81,-719.697C1169.81,-708.846 1169.81,-694.917 1169.81,-684.104"/>
</g>
<!-- 2808364149632 -->
<g id="node69" class="node"><title>2808364149632</title>
<ellipse fill="none" stroke="black" cx="1335.81" cy="-666" rx="27" ry="18"/>
<text text-anchor="middle" x="1335.81" y="-662.5" font-family="Times New Roman,serif" font-size="15.00">seq</text>
</g>
<!-- 2808204582528&#45;&#45;2808364149632 -->
<g id="edge70" class="edge"><title>2808204582528&#45;&#45;2808364149632</title>
<path fill="none" stroke="black" d="M1192.2,-727.559C1223.97,-714.162 1281.79,-689.779 1313.51,-676.402"/>
</g>
<!-- 2808364148864 -->
<g id="node66" class="node"><title>2808364148864</title>
<ellipse fill="none" stroke="black" cx="1169.81" cy="-594" rx="27" ry="18"/>
<text text-anchor="middle" x="1169.81" y="-590.5" font-family="Times New Roman,serif" font-size="15.00">xor</text>
</g>
<!-- 2808364150496&#45;&#45;2808364148864 -->
<g id="edge64" class="edge"><title>2808364150496&#45;&#45;2808364148864</title>
<path fill="none" stroke="black" d="M1169.81,-647.697C1169.81,-636.846 1169.81,-622.917 1169.81,-612.104"/>
</g>
<!-- 2808364146848 -->
<g id="node67" class="node"><title>2808364146848</title>
<ellipse fill="black" stroke="black" cx="1169.81" cy="-522" rx="2.7" ry="2.7"/>
</g>
<!-- 2808364148864&#45;&#45;2808364146848 -->
<g id="edge62" class="edge"><title>2808364148864&#45;&#45;2808364146848</title>
<path fill="none" stroke="black" d="M1169.81,-575.697C1169.81,-557.883 1169.81,-531.769 1169.81,-524.776"/>
</g>
<!-- 2808364148960 -->
<g id="node68" class="node"><title>2808364148960</title>
<ellipse fill="none" stroke="black" cx="1268.81" cy="-522" rx="78.5434" ry="18"/>
<text text-anchor="middle" x="1268.81" y="-518.5" font-family="Times New Roman,serif" font-size="15.00">Appeal to Judge</text>
</g>
<!-- 2808364148864&#45;&#45;2808364148960 -->
<g id="edge63" class="edge"><title>2808364148864&#45;&#45;2808364148960</title>
<path fill="none" stroke="black" d="M1187.97,-580.161C1204.16,-568.715 1227.94,-551.897 1245.53,-539.464"/>
</g>
<!-- 2808364148432 -->
<g id="node70" class="node"><title>2808364148432</title>
<ellipse fill="none" stroke="black" cx="1335.81" cy="-594" rx="120.819" ry="18"/>
<text text-anchor="middle" x="1335.81" y="-590.5" font-family="Times New Roman,serif" font-size="15.00">Send for Credit Collection</text>
</g>
<!-- 2808364149632&#45;&#45;2808364148432 -->
<g id="edge66" class="edge"><title>2808364149632&#45;&#45;2808364148432</title>
<path fill="none" stroke="black" d="M1335.81,-647.697C1335.81,-636.846 1335.81,-622.917 1335.81,-612.104"/>
</g>
<!-- 2808364149968 -->
<g id="node71" class="node"><title>2808364149968</title>
<ellipse fill="none" stroke="black" cx="1501.81" cy="-594" rx="27" ry="18"/>
<text text-anchor="middle" x="1501.81" y="-590.5" font-family="Times New Roman,serif" font-size="15.00">xor</text>
</g>
<!-- 2808364149632&#45;&#45;2808364149968 -->
<g id="edge69" class="edge"><title>2808364149632&#45;&#45;2808364149968</title>
<path fill="none" stroke="black" d="M1358.2,-655.559C1389.97,-642.162 1447.79,-617.779 1479.51,-604.402"/>
</g>
<!-- 2808364148576 -->
<g id="node72" class="node"><title>2808364148576</title>
<ellipse fill="black" stroke="black" cx="1434.81" cy="-522" rx="2.7" ry="2.7"/>
</g>
<!-- 2808364149968&#45;&#45;2808364148576 -->
<g id="edge67" class="edge"><title>2808364149968&#45;&#45;2808364148576</title>
<path fill="none" stroke="black" d="M1487.93,-578.496C1470.76,-560.555 1442.97,-531.522 1436.29,-524.544"/>
</g>
<!-- 2808364148336 -->
<g id="node73" class="node"><title>2808364148336</title>
<ellipse fill="none" stroke="black" cx="1575.81" cy="-522" rx="120.43" ry="18"/>
<text text-anchor="middle" x="1575.81" y="-518.5" font-family="Times New Roman,serif" font-size="15.00">Send Appeal to Prefecture</text>
</g>
<!-- 2808364149968&#45;&#45;2808364148336 -->
<g id="edge68" class="edge"><title>2808364149968&#45;&#45;2808364148336</title>
<path fill="none" stroke="black" d="M1516.79,-578.834C1528.7,-567.569 1545.39,-551.775 1557.99,-539.859"/>
</g>
</g>
</svg>
