<?xml version="1.0" encoding="UTF-8" standalone="no"?>
<!DOCTYPE svg PUBLIC "-//W3C//DTD SVG 1.1//EN"
 "http://www.w3.org/Graphics/SVG/1.1/DTD/svg11.dtd">
<!-- Generated by graphviz version 2.38.0 (20140413.2041)
 -->
<!-- Title: pt Pages: 1 -->
<svg width="1887pt" height="548pt"
 viewBox="0.00 0.00 1887.06 548.00" xmlns="http://www.w3.org/2000/svg" xmlns:xlink="http://www.w3.org/1999/xlink">
<g id="graph0" class="graph" transform="scale(1 1) rotate(0) translate(4 544)">
<title>pt</title>
<!-- 2808395778272 -->
<g id="node1" class="node"><title>2808395778272</title>
<ellipse fill="none" stroke="black" cx="609.536" cy="-522" rx="27" ry="18"/>
<text text-anchor="middle" x="609.536" y="-518.5" font-family="Times New Roman,serif" font-size="15.00">seq</text>
</g>
<!-- 2808397395664 -->
<g id="node2" class="node"><title>2808397395664</title>
<ellipse fill="none" stroke="black" cx="504.536" cy="-450" rx="59.5207" ry="18"/>
<text text-anchor="middle" x="504.536" y="-446.5" font-family="Times New Roman,serif" font-size="15.00">Create Fine</text>
</g>
<!-- 2808395778272&#45;&#45;2808397395664 -->
<g id="edge1" class="edge"><title>2808395778272&#45;&#45;2808397395664</title>
<path fill="none" stroke="black" d="M590.764,-508.485C573.185,-496.767 546.859,-479.215 527.922,-466.591"/>
</g>
<!-- 2808397395856 -->
<g id="node3" class="node"><title>2808397395856</title>
<ellipse fill="none" stroke="black" cx="609.536" cy="-450" rx="27" ry="18"/>
<text text-anchor="middle" x="609.536" y="-446.5" font-family="Times New Roman,serif" font-size="15.00">and</text>
</g>
<!-- 2808395778272&#45;&#45;2808397395856 -->
<g id="edge38" class="edge"><title>2808395778272&#45;&#45;2808397395856</title>
<path fill="none" stroke="black" d="M609.536,-503.697C609.536,-492.846 609.536,-478.917 609.536,-468.104"/>
</g>
<!-- 2808397393984 -->
<g id="node40" class="node"><title>2808397393984</title>
<ellipse fill="none" stroke="black" cx="705.536" cy="-450" rx="27" ry="18"/>
<text text-anchor="middle" x="705.536" y="-446.5" font-family="Times New Roman,serif" font-size="15.00">xor</text>
</g>
<!-- 2808395778272&#45;&#45;2808397393984 -->
<g id="edge41" class="edge"><title>2808395778272&#45;&#45;2808397393984</title>
<path fill="none" stroke="black" d="M627.143,-508.161C644.465,-495.531 670.756,-476.36 688.039,-463.758"/>
</g>
<!-- 2808397394416 -->
<g id="node4" class="node"><title>2808397394416</title>
<ellipse fill="none" stroke="black" cx="444.536" cy="-378" rx="27" ry="18"/>
<text text-anchor="middle" x="444.536" y="-374.5" font-family="Times New Roman,serif" font-size="15.00">xor</text>
</g>
<!-- 2808397395856&#45;&#45;2808397394416 -->
<g id="edge4" class="edge"><title>2808397395856&#45;&#45;2808397394416</title>
<path fill="none" stroke="black" d="M587.283,-439.559C555.704,-426.162 498.229,-401.779 466.698,-388.402"/>
</g>
<!-- 2808397395760 -->
<g id="node7" class="node"><title>2808397395760</title>
<ellipse fill="none" stroke="black" cx="575.536" cy="-378" rx="27" ry="18"/>
<text text-anchor="middle" x="575.536" y="-374.5" font-family="Times New Roman,serif" font-size="15.00">xor</text>
</g>
<!-- 2808397395856&#45;&#45;2808397395760 -->
<g id="edge17" class="edge"><title>2808397395856&#45;&#45;2808397395760</title>
<path fill="none" stroke="black" d="M601.65,-432.765C596.235,-421.618 589.07,-406.865 583.615,-395.633"/>
</g>
<!-- 2808397394512 -->
<g id="node20" class="node"><title>2808397394512</title>
<ellipse fill="none" stroke="black" cx="657.536" cy="-378" rx="27" ry="18"/>
<text text-anchor="middle" x="657.536" y="-374.5" font-family="Times New Roman,serif" font-size="15.00">and</text>
</g>
<!-- 2808397395856&#45;&#45;2808397394512 -->
<g id="edge37" class="edge"><title>2808397395856&#45;&#45;2808397394512</title>
<path fill="none" stroke="black" d="M620.427,-433.116C628.283,-421.66 638.841,-406.263 646.687,-394.821"/>
</g>
<!-- 2808397255296 -->
<g id="node5" class="node"><title>2808397255296</title>
<ellipse fill="black" stroke="black" cx="361.536" cy="-306" rx="2.7" ry="2.7"/>
</g>
<!-- 2808397394416&#45;&#45;2808397255296 -->
<g id="edge2" class="edge"><title>2808397394416&#45;&#45;2808397255296</title>
<path fill="none" stroke="black" d="M428.137,-363.17C406.972,-345.32 371.854,-315.702 363.405,-308.577"/>
</g>
<!-- 2808397256976 -->
<g id="node6" class="node"><title>2808397256976</title>
<ellipse fill="none" stroke="black" cx="444.536" cy="-306" rx="61.6894" ry="18"/>
<text text-anchor="middle" x="444.536" y="-302.5" font-family="Times New Roman,serif" font-size="15.00">Add penalty</text>
</g>
<!-- 2808397394416&#45;&#45;2808397256976 -->
<g id="edge3" class="edge"><title>2808397394416&#45;&#45;2808397256976</title>
<path fill="none" stroke="black" d="M444.536,-359.697C444.536,-348.846 444.536,-334.917 444.536,-324.104"/>
</g>
<!-- 2808397395088 -->
<g id="node8" class="node"><title>2808397395088</title>
<ellipse fill="black" stroke="black" cx="527.536" cy="-306" rx="2.7" ry="2.7"/>
</g>
<!-- 2808397395760&#45;&#45;2808397395088 -->
<g id="edge5" class="edge"><title>2808397395760&#45;&#45;2808397395088</title>
<path fill="none" stroke="black" d="M564.644,-361.116C552.473,-343.367 533.815,-316.158 528.809,-308.857"/>
</g>
<!-- 2808397257744 -->
<g id="node9" class="node"><title>2808397257744</title>
<ellipse fill="none" stroke="black" cx="575.536" cy="-306" rx="27" ry="18"/>
<text text-anchor="middle" x="575.536" y="-302.5" font-family="Times New Roman,serif" font-size="15.00">seq</text>
</g>
<!-- 2808397395760&#45;&#45;2808397257744 -->
<g id="edge16" class="edge"><title>2808397395760&#45;&#45;2808397257744</title>
<path fill="none" stroke="black" d="M575.536,-359.697C575.536,-348.846 575.536,-334.917 575.536,-324.104"/>
</g>
<!-- 2808397256880 -->
<g id="node10" class="node"><title>2808397256880</title>
<ellipse fill="none" stroke="black" cx="144.536" cy="-234" rx="144.571" ry="18"/>
<text text-anchor="middle" x="144.536" y="-230.5" font-family="Times New Roman,serif" font-size="15.00">Insert Date Appeal to Prefecture</text>
</g>
<!-- 2808397257744&#45;&#45;2808397256880 -->
<g id="edge6" class="edge"><title>2808397257744&#45;&#45;2808397256880</title>
<path fill="none" stroke="black" d="M549.545,-300.779C487.393,-290.685 327.971,-264.792 228.685,-248.667"/>
</g>
<!-- 2808397255440 -->
<g id="node11" class="node"><title>2808397255440</title>
<ellipse fill="none" stroke="black" cx="334.536" cy="-234" rx="27" ry="18"/>
<text text-anchor="middle" x="334.536" y="-230.5" font-family="Times New Roman,serif" font-size="15.00">xor</text>
</g>
<!-- 2808397257744&#45;&#45;2808397255440 -->
<g id="edge9" class="edge"><title>2808397257744&#45;&#45;2808397255440</title>
<path fill="none" stroke="black" d="M551.101,-297.903C504.91,-284.486 405.276,-255.547 359.035,-242.116"/>
</g>
<!-- 2808397257888 -->
<g id="node14" class="node"><title>2808397257888</title>
<ellipse fill="none" stroke="black" cx="537.536" cy="-234" rx="27" ry="18"/>
<text text-anchor="middle" x="537.536" y="-230.5" font-family="Times New Roman,serif" font-size="15.00">xor</text>
</g>
<!-- 2808397257744&#45;&#45;2808397257888 -->
<g id="edge12" class="edge"><title>2808397257744&#45;&#45;2808397257888</title>
<path fill="none" stroke="black" d="M566.722,-288.765C560.583,-277.456 552.43,-262.437 546.301,-251.147"/>
</g>
<!-- 2808397258224 -->
<g id="node17" class="node"><title>2808397258224</title>
<ellipse fill="none" stroke="black" cx="694.536" cy="-234" rx="27" ry="18"/>
<text text-anchor="middle" x="694.536" y="-230.5" font-family="Times New Roman,serif" font-size="15.00">xor</text>
</g>
<!-- 2808397257744&#45;&#45;2808397258224 -->
<g id="edge15" class="edge"><title>2808397257744&#45;&#45;2808397258224</title>
<path fill="none" stroke="black" d="M595.186,-293.441C617.235,-280.471 652.795,-259.553 674.856,-246.576"/>
</g>
<!-- 2808397255920 -->
<g id="node12" class="node"><title>2808397255920</title>
<ellipse fill="black" stroke="black" cx="61.5355" cy="-162" rx="2.7" ry="2.7"/>
</g>
<!-- 2808397255440&#45;&#45;2808397255920 -->
<g id="edge7" class="edge"><title>2808397255440&#45;&#45;2808397255920</title>
<path fill="none" stroke="black" d="M309.827,-226.665C247.088,-210.578 85.0843,-169.038 63.8448,-163.592"/>
</g>
<!-- 2808397256256 -->
<g id="node13" class="node"><title>2808397256256</title>
<ellipse fill="none" stroke="black" cx="202.536" cy="-162" rx="120.43" ry="18"/>
<text text-anchor="middle" x="202.536" y="-158.5" font-family="Times New Roman,serif" font-size="15.00">Send Appeal to Prefecture</text>
</g>
<!-- 2808397255440&#45;&#45;2808397256256 -->
<g id="edge8" class="edge"><title>2808397255440&#45;&#45;2808397256256</title>
<path fill="none" stroke="black" d="M313.911,-222.063C292.448,-210.681 258.577,-192.719 233.818,-179.589"/>
</g>
<!-- 2808397257648 -->
<g id="node15" class="node"><title>2808397257648</title>
<ellipse fill="black" stroke="black" cx="343.536" cy="-162" rx="2.7" ry="2.7"/>
</g>
<!-- 2808397257888&#45;&#45;2808397257648 -->
<g id="edge10" class="edge"><title>2808397257888&#45;&#45;2808397257648</title>
<path fill="none" stroke="black" d="M514.135,-224.556C466.568,-207.393 361.718,-169.561 345.626,-163.754"/>
</g>
<!-- 2808397258128 -->
<g id="node16" class="node"><title>2808397258128</title>
<ellipse fill="none" stroke="black" cx="537.536" cy="-162" rx="173.941" ry="18"/>
<text text-anchor="middle" x="537.536" y="-158.5" font-family="Times New Roman,serif" font-size="15.00">Receive Result Appeal from Prefecture</text>
</g>
<!-- 2808397257888&#45;&#45;2808397258128 -->
<g id="edge11" class="edge"><title>2808397257888&#45;&#45;2808397258128</title>
<path fill="none" stroke="black" d="M537.536,-215.697C537.536,-204.846 537.536,-190.917 537.536,-180.104"/>
</g>
<!-- 2808397257696 -->
<g id="node18" class="node"><title>2808397257696</title>
<ellipse fill="black" stroke="black" cx="731.536" cy="-162" rx="2.7" ry="2.7"/>
</g>
<!-- 2808397258224&#45;&#45;2808397257696 -->
<g id="edge13" class="edge"><title>2808397258224&#45;&#45;2808397257696</title>
<path fill="none" stroke="black" d="M703.117,-216.765C712.51,-198.994 726.747,-172.06 730.565,-164.836"/>
</g>
<!-- 2808397256064 -->
<g id="node19" class="node"><title>2808397256064</title>
<ellipse fill="none" stroke="black" cx="900.536" cy="-162" rx="148.91" ry="18"/>
<text text-anchor="middle" x="900.536" y="-158.5" font-family="Times New Roman,serif" font-size="15.00">Notify Result Appeal to Offender</text>
</g>
<!-- 2808397258224&#45;&#45;2808397256064 -->
<g id="edge14" class="edge"><title>2808397258224&#45;&#45;2808397256064</title>
<path fill="none" stroke="black" d="M718.166,-224.97C750.928,-213.838 810.872,-193.468 853.073,-179.128"/>
</g>
<!-- 2808397395232 -->
<g id="node21" class="node"><title>2808397395232</title>
<ellipse fill="none" stroke="black" cx="742.536" cy="-306" rx="46.6143" ry="18"/>
<text text-anchor="middle" x="742.536" y="-302.5" font-family="Times New Roman,serif" font-size="15.00">xor loop</text>
</g>
<!-- 2808397394512&#45;&#45;2808397395232 -->
<g id="edge20" class="edge"><title>2808397394512&#45;&#45;2808397395232</title>
<path fill="none" stroke="black" d="M673.924,-363.503C688.108,-351.823 708.625,-334.926 723.526,-322.655"/>
</g>
<!-- 2808397395376 -->
<g id="node24" class="node"><title>2808397395376</title>
<ellipse fill="none" stroke="black" cx="1020.54" cy="-306" rx="27" ry="18"/>
<text text-anchor="middle" x="1020.54" y="-302.5" font-family="Times New Roman,serif" font-size="15.00">xor</text>
</g>
<!-- 2808397394512&#45;&#45;2808397395376 -->
<g id="edge36" class="edge"><title>2808397394512&#45;&#45;2808397395376</title>
<path fill="none" stroke="black" d="M683.061,-372.078C749.549,-359.256 927.555,-324.93 994.552,-312.011"/>
</g>
<!-- 2808397394608 -->
<g id="node22" class="node"><title>2808397394608</title>
<ellipse fill="black" stroke="black" cx="742.536" cy="-234" rx="2.7" ry="2.7"/>
</g>
<!-- 2808397395232&#45;&#45;2808397394608 -->
<g id="edge18" class="edge"><title>2808397395232&#45;&#45;2808397394608</title>
<path fill="none" stroke="black" d="M742.536,-287.697C742.536,-269.883 742.536,-243.769 742.536,-236.776"/>
</g>
<!-- 2808397395424 -->
<g id="node23" class="node"><title>2808397395424</title>
<ellipse fill="none" stroke="black" cx="809.536" cy="-234" rx="45.7249" ry="18"/>
<text text-anchor="middle" x="809.536" y="-230.5" font-family="Times New Roman,serif" font-size="15.00">Payment</text>
</g>
<!-- 2808397395232&#45;&#45;2808397395424 -->
<g id="edge19" class="edge"><title>2808397395232&#45;&#45;2808397395424</title>
<path fill="none" stroke="black" d="M758.075,-288.765C768.899,-277.456 783.275,-262.437 794.08,-251.147"/>
</g>
<!-- 2808397395136 -->
<g id="node25" class="node"><title>2808397395136</title>
<ellipse fill="black" stroke="black" cx="983.536" cy="-234" rx="2.7" ry="2.7"/>
</g>
<!-- 2808397395376&#45;&#45;2808397395136 -->
<g id="edge21" class="edge"><title>2808397395376&#45;&#45;2808397395136</title>
<path fill="none" stroke="black" d="M1011.95,-288.765C1002.56,-270.994 988.324,-244.06 984.506,-236.836"/>
</g>
<!-- 2808396206720 -->
<g id="node26" class="node"><title>2808396206720</title>
<ellipse fill="none" stroke="black" cx="1057.54" cy="-234" rx="52.6228" ry="18"/>
<text text-anchor="middle" x="1057.54" y="-230.5" font-family="Times New Roman,serif" font-size="15.00">Send Fine</text>
</g>
<!-- 2808397395376&#45;&#45;2808396206720 -->
<g id="edge22" class="edge"><title>2808397395376&#45;&#45;2808396206720</title>
<path fill="none" stroke="black" d="M1029.12,-288.765C1034.92,-277.779 1042.58,-263.292 1048.48,-252.124"/>
</g>
<!-- 2808397256160 -->
<g id="node27" class="node"><title>2808397256160</title>
<ellipse fill="none" stroke="black" cx="1299.54" cy="-234" rx="27" ry="18"/>
<text text-anchor="middle" x="1299.54" y="-230.5" font-family="Times New Roman,serif" font-size="15.00">seq</text>
</g>
<!-- 2808397395376&#45;&#45;2808397256160 -->
<g id="edge35" class="edge"><title>2808397395376&#45;&#45;2808397256160</title>
<path fill="none" stroke="black" d="M1045.29,-298.788C1098.11,-285.538 1221.31,-254.626 1274.43,-241.299"/>
</g>
<!-- 2808397258176 -->
<g id="node28" class="node"><title>2808397258176</title>
<ellipse fill="none" stroke="black" cx="1120.54" cy="-162" rx="52.6228" ry="18"/>
<text text-anchor="middle" x="1120.54" y="-158.5" font-family="Times New Roman,serif" font-size="15.00">Send Fine</text>
</g>
<!-- 2808397256160&#45;&#45;2808397258176 -->
<g id="edge23" class="edge"><title>2808397256160&#45;&#45;2808397258176</title>
<path fill="none" stroke="black" d="M1276.87,-224.134C1245.82,-211.994 1189.85,-190.107 1153.98,-176.081"/>
</g>
<!-- 2808397258080 -->
<g id="node29" class="node"><title>2808397258080</title>
<ellipse fill="none" stroke="black" cx="1299.54" cy="-162" rx="107.914" ry="18"/>
<text text-anchor="middle" x="1299.54" y="-158.5" font-family="Times New Roman,serif" font-size="15.00">Insert Fine Notification</text>
</g>
<!-- 2808397256160&#45;&#45;2808397258080 -->
<g id="edge24" class="edge"><title>2808397256160&#45;&#45;2808397258080</title>
<path fill="none" stroke="black" d="M1299.54,-215.697C1299.54,-204.846 1299.54,-190.917 1299.54,-180.104"/>
</g>
<!-- 2808397258416 -->
<g id="node30" class="node"><title>2808397258416</title>
<ellipse fill="none" stroke="black" cx="1471.54" cy="-162" rx="46.6143" ry="18"/>
<text text-anchor="middle" x="1471.54" y="-158.5" font-family="Times New Roman,serif" font-size="15.00">xor loop</text>
</g>
<!-- 2808397256160&#45;&#45;2808397258416 -->
<g id="edge27" class="edge"><title>2808397256160&#45;&#45;2808397258416</title>
<path fill="none" stroke="black" d="M1322.02,-223.849C1352.34,-211.508 1406.47,-189.48 1440.61,-175.587"/>
</g>
<!-- 2808397258608 -->
<g id="node33" class="node"><title>2808397258608</title>
<ellipse fill="none" stroke="black" cx="1597.54" cy="-162" rx="27" ry="18"/>
<text text-anchor="middle" x="1597.54" y="-158.5" font-family="Times New Roman,serif" font-size="15.00">and</text>
</g>
<!-- 2808397256160&#45;&#45;2808397258608 -->
<g id="edge34" class="edge"><title>2808397256160&#45;&#45;2808397258608</title>
<path fill="none" stroke="black" d="M1324.69,-227.092C1380.95,-213.875 1516.45,-182.047 1572.56,-168.867"/>
</g>
<!-- 2808397255008 -->
<g id="node31" class="node"><title>2808397255008</title>
<ellipse fill="black" stroke="black" cx="1388.54" cy="-90" rx="2.7" ry="2.7"/>
</g>
<!-- 2808397258416&#45;&#45;2808397255008 -->
<g id="edge25" class="edge"><title>2808397258416&#45;&#45;2808397255008</title>
<path fill="none" stroke="black" d="M1453.12,-145.465C1431.72,-127.42 1398.32,-99.254 1390.31,-92.4944"/>
</g>
<!-- 2808397257120 -->
<g id="node32" class="node"><title>2808397257120</title>
<ellipse fill="none" stroke="black" cx="1471.54" cy="-90" rx="61.6894" ry="18"/>
<text text-anchor="middle" x="1471.54" y="-86.5" font-family="Times New Roman,serif" font-size="15.00">Add penalty</text>
</g>
<!-- 2808397258416&#45;&#45;2808397257120 -->
<g id="edge26" class="edge"><title>2808397258416&#45;&#45;2808397257120</title>
<path fill="none" stroke="black" d="M1471.54,-143.697C1471.54,-132.846 1471.54,-118.917 1471.54,-108.104"/>
</g>
<!-- 2808397256208 -->
<g id="node34" class="node"><title>2808397256208</title>
<ellipse fill="none" stroke="black" cx="1597.54" cy="-90" rx="46.6143" ry="18"/>
<text text-anchor="middle" x="1597.54" y="-86.5" font-family="Times New Roman,serif" font-size="15.00">xor loop</text>
</g>
<!-- 2808397258608&#45;&#45;2808397256208 -->
<g id="edge30" class="edge"><title>2808397258608&#45;&#45;2808397256208</title>
<path fill="none" stroke="black" d="M1597.54,-143.697C1597.54,-132.846 1597.54,-118.917 1597.54,-108.104"/>
</g>
<!-- 2808397257360 -->
<g id="node37" class="node"><title>2808397257360</title>
<ellipse fill="none" stroke="black" cx="1708.54" cy="-90" rx="46.6143" ry="18"/>
<text text-anchor="middle" x="1708.54" y="-86.5" font-family="Times New Roman,serif" font-size="15.00">xor loop</text>
</g>
<!-- 2808397258608&#45;&#45;2808397257360 -->
<g id="edge33" class="edge"><title>2808397258608&#45;&#45;2808397257360</title>
<path fill="none" stroke="black" d="M1616.62,-148.967C1635.58,-137.005 1664.71,-118.636 1685.08,-105.791"/>
</g>
<!-- 2808397254864 -->
<g id="node35" class="node"><title>2808397254864</title>
<ellipse fill="black" stroke="black" cx="1521.54" cy="-18" rx="2.7" ry="2.7"/>
</g>
<!-- 2808397256208&#45;&#45;2808397254864 -->
<g id="edge28" class="edge"><title>2808397256208&#45;&#45;2808397254864</title>
<path fill="none" stroke="black" d="M1580.29,-73.1159C1560.67,-55.0446 1530.4,-27.1656 1523.14,-20.4782"/>
</g>
<!-- 2808397255968 -->
<g id="node36" class="node"><title>2808397255968</title>
<ellipse fill="none" stroke="black" cx="1604.54" cy="-18" rx="61.6894" ry="18"/>
<text text-anchor="middle" x="1604.54" y="-14.5" font-family="Times New Roman,serif" font-size="15.00">Add Penalty</text>
</g>
<!-- 2808397256208&#45;&#45;2808397255968 -->
<g id="edge29" class="edge"><title>2808397256208&#45;&#45;2808397255968</title>
<path fill="none" stroke="black" d="M1599.27,-71.6966C1600.35,-60.8463 1601.74,-46.9167 1602.83,-36.1043"/>
</g>
<!-- 2808397256448 -->
<g id="node38" class="node"><title>2808397256448</title>
<ellipse fill="black" stroke="black" cx="1701.54" cy="-18" rx="2.7" ry="2.7"/>
</g>
<!-- 2808397257360&#45;&#45;2808397256448 -->
<g id="edge31" class="edge"><title>2808397257360&#45;&#45;2808397256448</title>
<path fill="none" stroke="black" d="M1706.81,-71.6966C1705.02,-53.8826 1702.41,-27.7686 1701.71,-20.7764"/>
</g>
<!-- 2808397256928 -->
<g id="node39" class="node"><title>2808397256928</title>
<ellipse fill="none" stroke="black" cx="1800.54" cy="-18" rx="78.5434" ry="18"/>
<text text-anchor="middle" x="1800.54" y="-14.5" font-family="Times New Roman,serif" font-size="15.00">Appeal to Judge</text>
</g>
<!-- 2808397257360&#45;&#45;2808397256928 -->
<g id="edge32" class="edge"><title>2808397257360&#45;&#45;2808397256928</title>
<path fill="none" stroke="black" d="M1728.95,-73.4647C1743.78,-62.1868 1763.79,-46.9552 1778.89,-35.4672"/>
</g>
<!-- 2808397256400 -->
<g id="node41" class="node"><title>2808397256400</title>
<ellipse fill="black" stroke="black" cx="705.536" cy="-378" rx="2.7" ry="2.7"/>
</g>
<!-- 2808397393984&#45;&#45;2808397256400 -->
<g id="edge39" class="edge"><title>2808397393984&#45;&#45;2808397256400</title>
<path fill="none" stroke="black" d="M705.536,-431.697C705.536,-413.883 705.536,-387.769 705.536,-380.776"/>
</g>
<!-- 2808397256304 -->
<g id="node42" class="node"><title>2808397256304</title>
<ellipse fill="none" stroke="black" cx="847.536" cy="-378" rx="120.819" ry="18"/>
<text text-anchor="middle" x="847.536" y="-374.5" font-family="Times New Roman,serif" font-size="15.00">Send for Credit Collection</text>
</g>
<!-- 2808397393984&#45;&#45;2808397256304 -->
<g id="edge40" class="edge"><title>2808397393984&#45;&#45;2808397256304</title>
<path fill="none" stroke="black" d="M726.794,-438.52C749.928,-427.116 787.219,-408.733 814.244,-395.412"/>
</g>
</g>
</svg>
