<?xml version="1.0" encoding="UTF-8" standalone="no"?>
<!DOCTYPE svg PUBLIC "-//W3C//DTD SVG 1.1//EN"
 "http://www.w3.org/Graphics/SVG/1.1/DTD/svg11.dtd">
<!-- Generated by graphviz version 2.38.0 (20140413.2041)
 -->
<!-- Title: pt Pages: 1 -->
<svg width="1431pt" height="980pt"
 viewBox="0.00 0.00 1431.23 980.00" xmlns="http://www.w3.org/2000/svg" xmlns:xlink="http://www.w3.org/1999/xlink">
<g id="graph0" class="graph" transform="scale(1 1) rotate(0) translate(4 976)">
<title>pt</title>
<!-- 2808374147296 -->
<g id="node1" class="node"><title>2808374147296</title>
<ellipse fill="none" stroke="black" cx="526.522" cy="-954" rx="27" ry="18"/>
<text text-anchor="middle" x="526.522" y="-950.5" font-family="Times New Roman,serif" font-size="15.00">seq</text>
</g>
<!-- 2808378421152 -->
<g id="node2" class="node"><title>2808378421152</title>
<ellipse fill="none" stroke="black" cx="464.522" cy="-882" rx="59.5207" ry="18"/>
<text text-anchor="middle" x="464.522" y="-878.5" font-family="Times New Roman,serif" font-size="15.00">Create Fine</text>
</g>
<!-- 2808374147296&#45;&#45;2808378421152 -->
<g id="edge1" class="edge"><title>2808374147296&#45;&#45;2808378421152</title>
<path fill="none" stroke="black" d="M513.373,-938.155C503.42,-926.918 489.743,-911.476 479.392,-899.789"/>
</g>
<!-- 2808378418032 -->
<g id="node3" class="node"><title>2808378418032</title>
<ellipse fill="none" stroke="black" cx="588.522" cy="-882" rx="46.6143" ry="18"/>
<text text-anchor="middle" x="588.522" y="-878.5" font-family="Times New Roman,serif" font-size="15.00">xor loop</text>
</g>
<!-- 2808374147296&#45;&#45;2808378418032 -->
<g id="edge41" class="edge"><title>2808374147296&#45;&#45;2808378418032</title>
<path fill="none" stroke="black" d="M539.67,-938.155C549.765,-926.757 563.692,-911.034 574.093,-899.29"/>
</g>
<!-- 2808378419088 -->
<g id="node4" class="node"><title>2808378419088</title>
<ellipse fill="none" stroke="black" cx="554.522" cy="-810" rx="46.6143" ry="18"/>
<text text-anchor="middle" x="554.522" y="-806.5" font-family="Times New Roman,serif" font-size="15.00">xor loop</text>
</g>
<!-- 2808378418032&#45;&#45;2808378419088 -->
<g id="edge39" class="edge"><title>2808378418032&#45;&#45;2808378419088</title>
<path fill="none" stroke="black" d="M580.291,-864.055C574.946,-853.049 568.007,-838.764 562.676,-827.789"/>
</g>
<!-- 2808378419232 -->
<g id="node42" class="node"><title>2808378419232</title>
<ellipse fill="black" stroke="black" cx="621.522" cy="-810" rx="2.7" ry="2.7"/>
</g>
<!-- 2808378418032&#45;&#45;2808378419232 -->
<g id="edge40" class="edge"><title>2808378418032&#45;&#45;2808378419232</title>
<path fill="none" stroke="black" d="M596.51,-864.055C604.903,-846.252 617.342,-819.865 620.675,-812.796"/>
</g>
<!-- 2808378418176 -->
<g id="node5" class="node"><title>2808378418176</title>
<ellipse fill="none" stroke="black" cx="530.522" cy="-738" rx="27" ry="18"/>
<text text-anchor="middle" x="530.522" y="-734.5" font-family="Times New Roman,serif" font-size="15.00">seq</text>
</g>
<!-- 2808378419088&#45;&#45;2808378418176 -->
<g id="edge37" class="edge"><title>2808378419088&#45;&#45;2808378418176</title>
<path fill="none" stroke="black" d="M548.712,-792.055C544.939,-781.049 540.041,-766.764 536.278,-755.789"/>
</g>
<!-- 2808378419520 -->
<g id="node41" class="node"><title>2808378419520</title>
<ellipse fill="black" stroke="black" cx="578.522" cy="-738" rx="2.7" ry="2.7"/>
</g>
<!-- 2808378419088&#45;&#45;2808378419520 -->
<g id="edge38" class="edge"><title>2808378419088&#45;&#45;2808378419520</title>
<path fill="none" stroke="black" d="M560.331,-792.055C566.435,-774.252 575.482,-747.865 577.906,-740.796"/>
</g>
<!-- 2808378418272 -->
<g id="node6" class="node"><title>2808378418272</title>
<ellipse fill="none" stroke="black" cx="344.522" cy="-666" rx="27" ry="18"/>
<text text-anchor="middle" x="344.522" y="-662.5" font-family="Times New Roman,serif" font-size="15.00">xor</text>
</g>
<!-- 2808378418176&#45;&#45;2808378418272 -->
<g id="edge6" class="edge"><title>2808378418176&#45;&#45;2808378418272</title>
<path fill="none" stroke="black" d="M507.341,-728.276C471.503,-714.789 403.07,-689.034 367.41,-675.614"/>
</g>
<!-- 2808378417984 -->
<g id="node11" class="node"><title>2808378417984</title>
<ellipse fill="none" stroke="black" cx="717.522" cy="-666" rx="27" ry="18"/>
<text text-anchor="middle" x="717.522" y="-662.5" font-family="Times New Roman,serif" font-size="15.00">xor</text>
</g>
<!-- 2808378418176&#45;&#45;2808378417984 -->
<g id="edge36" class="edge"><title>2808378418176&#45;&#45;2808378417984</title>
<path fill="none" stroke="black" d="M553.452,-728.417C589.342,-714.982 658.399,-689.132 694.404,-675.654"/>
</g>
<!-- 2808375664304 -->
<g id="node7" class="node"><title>2808375664304</title>
<ellipse fill="none" stroke="black" cx="78.5217" cy="-594" rx="78.5434" ry="18"/>
<text text-anchor="middle" x="78.5217" y="-590.5" font-family="Times New Roman,serif" font-size="15.00">Appeal to Judge</text>
</g>
<!-- 2808378418272&#45;&#45;2808375664304 -->
<g id="edge2" class="edge"><title>2808378418272&#45;&#45;2808375664304</title>
<path fill="none" stroke="black" d="M319.497,-658.415C275.783,-646.911 184.767,-622.959 127.953,-608.008"/>
</g>
<!-- 2808378417792 -->
<g id="node8" class="node"><title>2808378417792</title>
<ellipse fill="none" stroke="black" cx="227.522" cy="-594" rx="52.6228" ry="18"/>
<text text-anchor="middle" x="227.522" y="-590.5" font-family="Times New Roman,serif" font-size="15.00">Send Fine</text>
</g>
<!-- 2808378418272&#45;&#45;2808378417792 -->
<g id="edge3" class="edge"><title>2808378418272&#45;&#45;2808378417792</title>
<path fill="none" stroke="black" d="M324.939,-653.284C305.032,-641.374 274.124,-622.882 252.474,-609.929"/>
</g>
<!-- 2808370784144 -->
<g id="node9" class="node"><title>2808370784144</title>
<ellipse fill="none" stroke="black" cx="344.522" cy="-594" rx="45.7249" ry="18"/>
<text text-anchor="middle" x="344.522" y="-590.5" font-family="Times New Roman,serif" font-size="15.00">Payment</text>
</g>
<!-- 2808378418272&#45;&#45;2808370784144 -->
<g id="edge4" class="edge"><title>2808378418272&#45;&#45;2808370784144</title>
<path fill="none" stroke="black" d="M344.522,-647.697C344.522,-636.846 344.522,-622.917 344.522,-612.104"/>
</g>
<!-- 2808370784624 -->
<g id="node10" class="node"><title>2808370784624</title>
<ellipse fill="none" stroke="black" cx="552.522" cy="-594" rx="144.571" ry="18"/>
<text text-anchor="middle" x="552.522" y="-590.5" font-family="Times New Roman,serif" font-size="15.00">Insert Date Appeal to Prefecture</text>
</g>
<!-- 2808378418272&#45;&#45;2808370784624 -->
<g id="edge5" class="edge"><title>2808378418272&#45;&#45;2808370784624</title>
<path fill="none" stroke="black" d="M368.382,-656.97C401.462,-645.838 461.988,-625.468 504.598,-611.128"/>
</g>
<!-- 2808374082864 -->
<g id="node12" class="node"><title>2808374082864</title>
<ellipse fill="black" stroke="black" cx="717.522" cy="-594" rx="2.7" ry="2.7"/>
</g>
<!-- 2808378417984&#45;&#45;2808374082864 -->
<g id="edge7" class="edge"><title>2808378417984&#45;&#45;2808374082864</title>
<path fill="none" stroke="black" d="M717.522,-647.697C717.522,-629.883 717.522,-603.769 717.522,-596.776"/>
</g>
<!-- 2808374083056 -->
<g id="node13" class="node"><title>2808374083056</title>
<ellipse fill="none" stroke="black" cx="765.522" cy="-594" rx="27" ry="18"/>
<text text-anchor="middle" x="765.522" y="-590.5" font-family="Times New Roman,serif" font-size="15.00">and</text>
</g>
<!-- 2808378417984&#45;&#45;2808374083056 -->
<g id="edge35" class="edge"><title>2808378417984&#45;&#45;2808374083056</title>
<path fill="none" stroke="black" d="M728.414,-649.116C736.269,-637.66 746.827,-622.263 754.673,-610.821"/>
</g>
<!-- 2808374082576 -->
<g id="node14" class="node"><title>2808374082576</title>
<ellipse fill="none" stroke="black" cx="694.522" cy="-522" rx="27" ry="18"/>
<text text-anchor="middle" x="694.522" y="-518.5" font-family="Times New Roman,serif" font-size="15.00">xor</text>
</g>
<!-- 2808374083056&#45;&#45;2808374082576 -->
<g id="edge10" class="edge"><title>2808374083056&#45;&#45;2808374082576</title>
<path fill="none" stroke="black" d="M750.81,-578.496C738.625,-566.482 721.394,-549.494 709.214,-537.485"/>
</g>
<!-- 2808374081136 -->
<g id="node17" class="node"><title>2808374081136</title>
<ellipse fill="none" stroke="black" cx="835.522" cy="-522" rx="27" ry="18"/>
<text text-anchor="middle" x="835.522" y="-518.5" font-family="Times New Roman,serif" font-size="15.00">xor</text>
</g>
<!-- 2808374083056&#45;&#45;2808374081136 -->
<g id="edge34" class="edge"><title>2808374083056&#45;&#45;2808374081136</title>
<path fill="none" stroke="black" d="M780.026,-578.496C792.039,-566.482 809.028,-549.494 821.036,-537.485"/>
</g>
<!-- 2808374079600 -->
<g id="node15" class="node"><title>2808374079600</title>
<ellipse fill="black" stroke="black" cx="553.522" cy="-450" rx="2.7" ry="2.7"/>
</g>
<!-- 2808374082576&#45;&#45;2808374079600 -->
<g id="edge8" class="edge"><title>2808374082576&#45;&#45;2808374079600</title>
<path fill="none" stroke="black" d="M673.413,-510.52C637.766,-492.823 568.264,-458.319 555.545,-452.005"/>
</g>
<!-- 2808374082960 -->
<g id="node16" class="node"><title>2808374082960</title>
<ellipse fill="none" stroke="black" cx="694.522" cy="-450" rx="120.43" ry="18"/>
<text text-anchor="middle" x="694.522" y="-446.5" font-family="Times New Roman,serif" font-size="15.00">Send Appeal to Prefecture</text>
</g>
<!-- 2808374082576&#45;&#45;2808374082960 -->
<g id="edge9" class="edge"><title>2808374082576&#45;&#45;2808374082960</title>
<path fill="none" stroke="black" d="M694.522,-503.697C694.522,-492.846 694.522,-478.917 694.522,-468.104"/>
</g>
<!-- 2808374081856 -->
<g id="node18" class="node"><title>2808374081856</title>
<ellipse fill="black" stroke="black" cx="835.522" cy="-450" rx="2.7" ry="2.7"/>
</g>
<!-- 2808374081136&#45;&#45;2808374081856 -->
<g id="edge11" class="edge"><title>2808374081136&#45;&#45;2808374081856</title>
<path fill="none" stroke="black" d="M835.522,-503.697C835.522,-485.883 835.522,-459.769 835.522,-452.776"/>
</g>
<!-- 2808374080608 -->
<g id="node19" class="node"><title>2808374080608</title>
<ellipse fill="none" stroke="black" cx="883.522" cy="-450" rx="27" ry="18"/>
<text text-anchor="middle" x="883.522" y="-446.5" font-family="Times New Roman,serif" font-size="15.00">seq</text>
</g>
<!-- 2808374081136&#45;&#45;2808374080608 -->
<g id="edge33" class="edge"><title>2808374081136&#45;&#45;2808374080608</title>
<path fill="none" stroke="black" d="M846.414,-505.116C854.269,-493.66 864.827,-478.263 872.673,-466.821"/>
</g>
<!-- 2808374082096 -->
<g id="node20" class="node"><title>2808374082096</title>
<ellipse fill="none" stroke="black" cx="743.522" cy="-378" rx="27" ry="18"/>
<text text-anchor="middle" x="743.522" y="-374.5" font-family="Times New Roman,serif" font-size="15.00">xor</text>
</g>
<!-- 2808374080608&#45;&#45;2808374082096 -->
<g id="edge14" class="edge"><title>2808374080608&#45;&#45;2808374082096</title>
<path fill="none" stroke="black" d="M862.562,-438.52C836.169,-425.324 791.085,-402.781 764.624,-389.551"/>
</g>
<!-- 2808374083200 -->
<g id="node23" class="node"><title>2808374083200</title>
<ellipse fill="none" stroke="black" cx="883.522" cy="-378" rx="27" ry="18"/>
<text text-anchor="middle" x="883.522" y="-374.5" font-family="Times New Roman,serif" font-size="15.00">xor</text>
</g>
<!-- 2808374080608&#45;&#45;2808374083200 -->
<g id="edge29" class="edge"><title>2808374080608&#45;&#45;2808374083200</title>
<path fill="none" stroke="black" d="M883.522,-431.697C883.522,-420.846 883.522,-406.917 883.522,-396.104"/>
</g>
<!-- 2808374080512 -->
<g id="node38" class="node"><title>2808374080512</title>
<ellipse fill="none" stroke="black" cx="967.522" cy="-378" rx="27" ry="18"/>
<text text-anchor="middle" x="967.522" y="-374.5" font-family="Times New Roman,serif" font-size="15.00">xor</text>
</g>
<!-- 2808374080608&#45;&#45;2808374080512 -->
<g id="edge32" class="edge"><title>2808374080608&#45;&#45;2808374080512</title>
<path fill="none" stroke="black" d="M899.718,-435.503C914.592,-423.108 936.517,-404.838 951.375,-392.455"/>
</g>
<!-- 2808374082336 -->
<g id="node21" class="node"><title>2808374082336</title>
<ellipse fill="black" stroke="black" cx="615.522" cy="-306" rx="2.7" ry="2.7"/>
</g>
<!-- 2808374082096&#45;&#45;2808374082336 -->
<g id="edge12" class="edge"><title>2808374082096&#45;&#45;2808374082336</title>
<path fill="none" stroke="black" d="M723.24,-365.908C690.813,-348.175 629.704,-314.756 617.626,-308.151"/>
</g>
<!-- 2808374082144 -->
<g id="node22" class="node"><title>2808374082144</title>
<ellipse fill="none" stroke="black" cx="743.522" cy="-306" rx="107.914" ry="18"/>
<text text-anchor="middle" x="743.522" y="-302.5" font-family="Times New Roman,serif" font-size="15.00">Insert Fine Notification</text>
</g>
<!-- 2808374082096&#45;&#45;2808374082144 -->
<g id="edge13" class="edge"><title>2808374082096&#45;&#45;2808374082144</title>
<path fill="none" stroke="black" d="M743.522,-359.697C743.522,-348.846 743.522,-334.917 743.522,-324.104"/>
</g>
<!-- 2808374083008 -->
<g id="node24" class="node"><title>2808374083008</title>
<ellipse fill="black" stroke="black" cx="871.522" cy="-306" rx="2.7" ry="2.7"/>
</g>
<!-- 2808374083200&#45;&#45;2808374083008 -->
<g id="edge15" class="edge"><title>2808374083200&#45;&#45;2808374083008</title>
<path fill="none" stroke="black" d="M880.617,-360.055C877.565,-342.252 873.041,-315.865 871.83,-308.796"/>
</g>
<!-- 2808374079648 -->
<g id="node25" class="node"><title>2808374079648</title>
<ellipse fill="none" stroke="black" cx="919.522" cy="-306" rx="27" ry="18"/>
<text text-anchor="middle" x="919.522" y="-302.5" font-family="Times New Roman,serif" font-size="15.00">and</text>
</g>
<!-- 2808374083200&#45;&#45;2808374079648 -->
<g id="edge28" class="edge"><title>2808374083200&#45;&#45;2808374079648</title>
<path fill="none" stroke="black" d="M891.871,-360.765C897.687,-349.456 905.411,-334.437 911.217,-323.147"/>
</g>
<!-- 2808374080896 -->
<g id="node26" class="node"><title>2808374080896</title>
<ellipse fill="none" stroke="black" cx="877.522" cy="-234" rx="27" ry="18"/>
<text text-anchor="middle" x="877.522" y="-230.5" font-family="Times New Roman,serif" font-size="15.00">xor</text>
</g>
<!-- 2808374079648&#45;&#45;2808374080896 -->
<g id="edge18" class="edge"><title>2808374079648&#45;&#45;2808374080896</title>
<path fill="none" stroke="black" d="M909.991,-289.116C903.215,-277.821 894.139,-262.696 887.306,-251.307"/>
</g>
<!-- 2808374082768 -->
<g id="node29" class="node"><title>2808374082768</title>
<ellipse fill="none" stroke="black" cx="960.522" cy="-234" rx="27" ry="18"/>
<text text-anchor="middle" x="960.522" y="-230.5" font-family="Times New Roman,serif" font-size="15.00">xor</text>
</g>
<!-- 2808374079648&#45;&#45;2808374082768 -->
<g id="edge27" class="edge"><title>2808374079648&#45;&#45;2808374082768</title>
<path fill="none" stroke="black" d="M929.031,-288.765C935.655,-277.456 944.452,-262.437 951.064,-251.147"/>
</g>
<!-- 2808374080944 -->
<g id="node27" class="node"><title>2808374080944</title>
<ellipse fill="black" stroke="black" cx="794.522" cy="-162" rx="2.7" ry="2.7"/>
</g>
<!-- 2808374080896&#45;&#45;2808374080944 -->
<g id="edge16" class="edge"><title>2808374080896&#45;&#45;2808374080944</title>
<path fill="none" stroke="black" d="M861.124,-219.17C839.958,-201.32 804.84,-171.702 796.391,-164.577"/>
</g>
<!-- 2808374082288 -->
<g id="node28" class="node"><title>2808374082288</title>
<ellipse fill="none" stroke="black" cx="877.522" cy="-162" rx="61.6894" ry="18"/>
<text text-anchor="middle" x="877.522" y="-158.5" font-family="Times New Roman,serif" font-size="15.00">Add penalty</text>
</g>
<!-- 2808374080896&#45;&#45;2808374082288 -->
<g id="edge17" class="edge"><title>2808374080896&#45;&#45;2808374082288</title>
<path fill="none" stroke="black" d="M877.522,-215.697C877.522,-204.846 877.522,-190.917 877.522,-180.104"/>
</g>
<!-- 2808374080464 -->
<g id="node30" class="node"><title>2808374080464</title>
<ellipse fill="black" stroke="black" cx="960.522" cy="-162" rx="2.7" ry="2.7"/>
</g>
<!-- 2808374082768&#45;&#45;2808374080464 -->
<g id="edge19" class="edge"><title>2808374082768&#45;&#45;2808374080464</title>
<path fill="none" stroke="black" d="M960.522,-215.697C960.522,-197.883 960.522,-171.769 960.522,-164.776"/>
</g>
<!-- 2808374083296 -->
<g id="node31" class="node"><title>2808374083296</title>
<ellipse fill="none" stroke="black" cx="1008.52" cy="-162" rx="27" ry="18"/>
<text text-anchor="middle" x="1008.52" y="-158.5" font-family="Times New Roman,serif" font-size="15.00">seq</text>
</g>
<!-- 2808374082768&#45;&#45;2808374083296 -->
<g id="edge26" class="edge"><title>2808374082768&#45;&#45;2808374083296</title>
<path fill="none" stroke="black" d="M971.414,-217.116C979.269,-205.66 989.827,-190.263 997.673,-178.821"/>
</g>
<!-- 2808374081376 -->
<g id="node32" class="node"><title>2808374081376</title>
<ellipse fill="none" stroke="black" cx="911.522" cy="-90" rx="27" ry="18"/>
<text text-anchor="middle" x="911.522" y="-86.5" font-family="Times New Roman,serif" font-size="15.00">xor</text>
</g>
<!-- 2808374083296&#45;&#45;2808374081376 -->
<g id="edge22" class="edge"><title>2808374083296&#45;&#45;2808374081376</title>
<path fill="none" stroke="black" d="M990.73,-148.161C973.228,-135.531 946.663,-116.36 929.2,-103.758"/>
</g>
<!-- 2808374082624 -->
<g id="node35" class="node"><title>2808374082624</title>
<ellipse fill="none" stroke="black" cx="1105.52" cy="-90" rx="27" ry="18"/>
<text text-anchor="middle" x="1105.52" y="-86.5" font-family="Times New Roman,serif" font-size="15.00">xor</text>
</g>
<!-- 2808374083296&#45;&#45;2808374082624 -->
<g id="edge25" class="edge"><title>2808374083296&#45;&#45;2808374082624</title>
<path fill="none" stroke="black" d="M1026.31,-148.161C1043.81,-135.531 1070.38,-116.36 1087.84,-103.758"/>
</g>
<!-- 2808368928752 -->
<g id="node33" class="node"><title>2808368928752</title>
<ellipse fill="black" stroke="black" cx="717.522" cy="-18" rx="2.7" ry="2.7"/>
</g>
<!-- 2808374081376&#45;&#45;2808368928752 -->
<g id="edge20" class="edge"><title>2808374081376&#45;&#45;2808368928752</title>
<path fill="none" stroke="black" d="M888.121,-80.5564C840.554,-63.393 735.704,-25.5607 719.612,-19.7542"/>
</g>
<!-- 2808368929952 -->
<g id="node34" class="node"><title>2808368929952</title>
<ellipse fill="none" stroke="black" cx="911.522" cy="-18" rx="173.941" ry="18"/>
<text text-anchor="middle" x="911.522" y="-14.5" font-family="Times New Roman,serif" font-size="15.00">Receive Result Appeal from Prefecture</text>
</g>
<!-- 2808374081376&#45;&#45;2808368929952 -->
<g id="edge21" class="edge"><title>2808374081376&#45;&#45;2808368929952</title>
<path fill="none" stroke="black" d="M911.522,-71.6966C911.522,-60.8463 911.522,-46.9167 911.522,-36.1043"/>
</g>
<!-- 2808368927360 -->
<g id="node36" class="node"><title>2808368927360</title>
<ellipse fill="black" stroke="black" cx="1105.52" cy="-18" rx="2.7" ry="2.7"/>
</g>
<!-- 2808374082624&#45;&#45;2808368927360 -->
<g id="edge23" class="edge"><title>2808374082624&#45;&#45;2808368927360</title>
<path fill="none" stroke="black" d="M1105.52,-71.6966C1105.52,-53.8826 1105.52,-27.7686 1105.52,-20.7764"/>
</g>
<!-- 2808380167936 -->
<g id="node37" class="node"><title>2808380167936</title>
<ellipse fill="none" stroke="black" cx="1274.52" cy="-18" rx="148.91" ry="18"/>
<text text-anchor="middle" x="1274.52" y="-14.5" font-family="Times New Roman,serif" font-size="15.00">Notify Result Appeal to Offender</text>
</g>
<!-- 2808374082624&#45;&#45;2808380167936 -->
<g id="edge24" class="edge"><title>2808374082624&#45;&#45;2808380167936</title>
<path fill="none" stroke="black" d="M1127.96,-79.7045C1155.17,-68.4359 1201.5,-49.2446 1234.8,-35.4544"/>
</g>
<!-- 2808374083152 -->
<g id="node39" class="node"><title>2808374083152</title>
<ellipse fill="black" stroke="black" cx="967.522" cy="-306" rx="2.7" ry="2.7"/>
</g>
<!-- 2808374080512&#45;&#45;2808374083152 -->
<g id="edge30" class="edge"><title>2808374080512&#45;&#45;2808374083152</title>
<path fill="none" stroke="black" d="M967.522,-359.697C967.522,-341.883 967.522,-315.769 967.522,-308.776"/>
</g>
<!-- 2808374083248 -->
<g id="node40" class="node"><title>2808374083248</title>
<ellipse fill="none" stroke="black" cx="1109.52" cy="-306" rx="120.819" ry="18"/>
<text text-anchor="middle" x="1109.52" y="-302.5" font-family="Times New Roman,serif" font-size="15.00">Send for Credit Collection</text>
</g>
<!-- 2808374080512&#45;&#45;2808374083248 -->
<g id="edge31" class="edge"><title>2808374080512&#45;&#45;2808374083248</title>
<path fill="none" stroke="black" d="M988.781,-366.52C1011.91,-355.116 1049.21,-336.733 1076.23,-323.412"/>
</g>
</g>
</svg>
