<?xml version="1.0" encoding="UTF-8" standalone="no"?>
<!DOCTYPE svg PUBLIC "-//W3C//DTD SVG 1.1//EN"
 "http://www.w3.org/Graphics/SVG/1.1/DTD/svg11.dtd">
<!-- Generated by graphviz version 2.38.0 (20140413.2041)
 -->
<!-- Title: pt Pages: 1 -->
<svg width="750pt" height="260pt"
 viewBox="0.00 0.00 749.72 260.00" xmlns="http://www.w3.org/2000/svg" xmlns:xlink="http://www.w3.org/1999/xlink">
<g id="graph0" class="graph" transform="scale(1 1) rotate(0) translate(4 256)">
<title>pt</title>
<!-- 2808203258752 -->
<g id="node1" class="node"><title>2808203258752</title>
<ellipse fill="none" stroke="black" cx="227.811" cy="-234" rx="27" ry="18"/>
<text text-anchor="middle" x="227.811" y="-230.5" font-family="Times New Roman,serif" font-size="15.00">seq</text>
</g>
<!-- 2808203255280 -->
<g id="node2" class="node"><title>2808203255280</title>
<ellipse fill="none" stroke="black" cx="175.811" cy="-162" rx="59.5207" ry="18"/>
<text text-anchor="middle" x="175.811" y="-158.5" font-family="Times New Roman,serif" font-size="15.00">Create Fine</text>
</g>
<!-- 2808203258752&#45;&#45;2808203255280 -->
<g id="edge1" class="edge"><title>2808203258752&#45;&#45;2808203255280</title>
<path fill="none" stroke="black" d="M216.271,-217.465C208.012,-206.348 196.9,-191.39 188.411,-179.962"/>
</g>
<!-- 2808203255760 -->
<g id="node3" class="node"><title>2808203255760</title>
<ellipse fill="none" stroke="black" cx="280.811" cy="-162" rx="27" ry="18"/>
<text text-anchor="middle" x="280.811" y="-158.5" font-family="Times New Roman,serif" font-size="15.00">xor</text>
</g>
<!-- 2808203258752&#45;&#45;2808203255760 -->
<g id="edge8" class="edge"><title>2808203258752&#45;&#45;2808203255760</title>
<path fill="none" stroke="black" d="M239.573,-217.465C248.356,-205.865 260.306,-190.082 269.082,-178.492"/>
</g>
<!-- 2808203253504 -->
<g id="node4" class="node"><title>2808203253504</title>
<ellipse fill="none" stroke="black" cx="234.811" cy="-90" rx="45.7249" ry="18"/>
<text text-anchor="middle" x="234.811" y="-86.5" font-family="Times New Roman,serif" font-size="15.00">Payment</text>
</g>
<!-- 2808203255760&#45;&#45;2808203253504 -->
<g id="edge2" class="edge"><title>2808203255760&#45;&#45;2808203253504</title>
<path fill="none" stroke="black" d="M270.373,-145.116C263.057,-133.983 253.295,-119.127 245.849,-107.797"/>
</g>
<!-- 2808203252160 -->
<g id="node5" class="node"><title>2808203252160</title>
<ellipse fill="none" stroke="black" cx="325.811" cy="-90" rx="27" ry="18"/>
<text text-anchor="middle" x="325.811" y="-86.5" font-family="Times New Roman,serif" font-size="15.00">seq</text>
</g>
<!-- 2808203255760&#45;&#45;2808203252160 -->
<g id="edge7" class="edge"><title>2808203255760&#45;&#45;2808203252160</title>
<path fill="none" stroke="black" d="M291.022,-145.116C298.387,-133.66 308.285,-118.263 315.64,-106.821"/>
</g>
<!-- 2808203254464 -->
<g id="node6" class="node"><title>2808203254464</title>
<ellipse fill="none" stroke="black" cx="52.8111" cy="-18" rx="52.6228" ry="18"/>
<text text-anchor="middle" x="52.8111" y="-14.5" font-family="Times New Roman,serif" font-size="15.00">Send Fine</text>
</g>
<!-- 2808203252160&#45;&#45;2808203254464 -->
<g id="edge3" class="edge"><title>2808203252160&#45;&#45;2808203254464</title>
<path fill="none" stroke="black" d="M301.103,-82.6645C254.114,-70.6162 151.445,-44.2907 93.9336,-29.5442"/>
</g>
<!-- 2808203252544 -->
<g id="node7" class="node"><title>2808203252544</title>
<ellipse fill="none" stroke="black" cx="231.811" cy="-18" rx="107.914" ry="18"/>
<text text-anchor="middle" x="231.811" y="-14.5" font-family="Times New Roman,serif" font-size="15.00">Insert Fine Notification</text>
</g>
<!-- 2808203252160&#45;&#45;2808203252544 -->
<g id="edge4" class="edge"><title>2808203252160&#45;&#45;2808203252544</title>
<path fill="none" stroke="black" d="M308.13,-75.8335C292.92,-64.5068 270.889,-48.1005 254.403,-35.8238"/>
</g>
<!-- 2808203254080 -->
<g id="node8" class="node"><title>2808203254080</title>
<ellipse fill="none" stroke="black" cx="419.811" cy="-18" rx="61.6894" ry="18"/>
<text text-anchor="middle" x="419.811" y="-14.5" font-family="Times New Roman,serif" font-size="15.00">Add penalty</text>
</g>
<!-- 2808203252160&#45;&#45;2808203254080 -->
<g id="edge5" class="edge"><title>2808203252160&#45;&#45;2808203254080</title>
<path fill="none" stroke="black" d="M343.492,-75.8335C359.021,-64.2691 381.661,-47.4099 398.249,-35.0567"/>
</g>
<!-- 2808203253264 -->
<g id="node9" class="node"><title>2808203253264</title>
<ellipse fill="none" stroke="black" cx="620.811" cy="-18" rx="120.819" ry="18"/>
<text text-anchor="middle" x="620.811" y="-14.5" font-family="Times New Roman,serif" font-size="15.00">Send for Credit Collection</text>
</g>
<!-- 2808203252160&#45;&#45;2808203253264 -->
<g id="edge6" class="edge"><title>2808203252160&#45;&#45;2808203253264</title>
<path fill="none" stroke="black" d="M350.963,-83.0318C396.804,-72.1543 495.154,-48.8169 559.603,-33.524"/>
</g>
</g>
</svg>
