<?xml version="1.0" encoding="UTF-8" standalone="no"?>
<!DOCTYPE svg PUBLIC "-//W3C//DTD SVG 1.1//EN"
 "http://www.w3.org/Graphics/SVG/1.1/DTD/svg11.dtd">
<!-- Generated by graphviz version 2.38.0 (20140413.2041)
 -->
<!-- Title: pt Pages: 1 -->
<svg width="2191pt" height="620pt"
 viewBox="0.00 0.00 2190.67 620.00" xmlns="http://www.w3.org/2000/svg" xmlns:xlink="http://www.w3.org/1999/xlink">
<g id="graph0" class="graph" transform="scale(1 1) rotate(0) translate(4 616)">
<title>pt</title>
<!-- 2808394112832 -->
<g id="node1" class="node"><title>2808394112832</title>
<ellipse fill="none" stroke="black" cx="527.811" cy="-594" rx="27" ry="18"/>
<text text-anchor="middle" x="527.811" y="-590.5" font-family="Times New Roman,serif" font-size="15.00">and</text>
</g>
<!-- 2808394112640 -->
<g id="node2" class="node"><title>2808394112640</title>
<ellipse fill="none" stroke="black" cx="305.811" cy="-522" rx="27" ry="18"/>
<text text-anchor="middle" x="305.811" y="-518.5" font-family="Times New Roman,serif" font-size="15.00">xor</text>
</g>
<!-- 2808394112832&#45;&#45;2808394112640 -->
<g id="edge22" class="edge"><title>2808394112832&#45;&#45;2808394112640</title>
<path fill="none" stroke="black" d="M503.631,-585.376C460.815,-571.875 372.179,-543.927 329.626,-530.509"/>
</g>
<!-- 2808394110000 -->
<g id="node24" class="node"><title>2808394110000</title>
<ellipse fill="none" stroke="black" cx="749.811" cy="-522" rx="27" ry="18"/>
<text text-anchor="middle" x="749.811" y="-518.5" font-family="Times New Roman,serif" font-size="15.00">seq</text>
</g>
<!-- 2808394112832&#45;&#45;2808394110000 -->
<g id="edge63" class="edge"><title>2808394112832&#45;&#45;2808394110000</title>
<path fill="none" stroke="black" d="M551.992,-585.376C594.808,-571.875 683.443,-543.927 725.996,-530.509"/>
</g>
<!-- 2808394111200 -->
<g id="node3" class="node"><title>2808394111200</title>
<ellipse fill="black" stroke="black" cx="257.811" cy="-450" rx="2.7" ry="2.7"/>
</g>
<!-- 2808394112640&#45;&#45;2808394111200 -->
<g id="edge1" class="edge"><title>2808394112640&#45;&#45;2808394111200</title>
<path fill="none" stroke="black" d="M294.919,-505.116C282.749,-487.367 264.091,-460.158 259.084,-452.857"/>
</g>
<!-- 2808394111104 -->
<g id="node4" class="node"><title>2808394111104</title>
<ellipse fill="none" stroke="black" cx="305.811" cy="-450" rx="27" ry="18"/>
<text text-anchor="middle" x="305.811" y="-446.5" font-family="Times New Roman,serif" font-size="15.00">and</text>
</g>
<!-- 2808394112640&#45;&#45;2808394111104 -->
<g id="edge21" class="edge"><title>2808394112640&#45;&#45;2808394111104</title>
<path fill="none" stroke="black" d="M305.811,-503.697C305.811,-492.846 305.811,-478.917 305.811,-468.104"/>
</g>
<!-- 2808369457424 -->
<g id="node5" class="node"><title>2808369457424</title>
<ellipse fill="none" stroke="black" cx="164.811" cy="-378" rx="46.6143" ry="18"/>
<text text-anchor="middle" x="164.811" y="-374.5" font-family="Times New Roman,serif" font-size="15.00">xor loop</text>
</g>
<!-- 2808394111104&#45;&#45;2808369457424 -->
<g id="edge4" class="edge"><title>2808394111104&#45;&#45;2808369457424</title>
<path fill="none" stroke="black" d="M284.702,-438.52C260.118,-426.316 219.432,-406.117 192.374,-392.684"/>
</g>
<!-- 2808399311152 -->
<g id="node8" class="node"><title>2808399311152</title>
<ellipse fill="none" stroke="black" cx="305.811" cy="-378" rx="27" ry="18"/>
<text text-anchor="middle" x="305.811" y="-374.5" font-family="Times New Roman,serif" font-size="15.00">xor</text>
</g>
<!-- 2808394111104&#45;&#45;2808399311152 -->
<g id="edge20" class="edge"><title>2808394111104&#45;&#45;2808399311152</title>
<path fill="none" stroke="black" d="M305.811,-431.697C305.811,-420.846 305.811,-406.917 305.811,-396.104"/>
</g>
<!-- 2808369456560 -->
<g id="node6" class="node"><title>2808369456560</title>
<ellipse fill="black" stroke="black" cx="97.8111" cy="-306" rx="2.7" ry="2.7"/>
</g>
<!-- 2808369457424&#45;&#45;2808369456560 -->
<g id="edge2" class="edge"><title>2808369457424&#45;&#45;2808369456560</title>
<path fill="none" stroke="black" d="M149.272,-360.765C131.953,-342.671 105.542,-315.078 99.2104,-308.462"/>
</g>
<!-- 2808399311968 -->
<g id="node7" class="node"><title>2808399311968</title>
<ellipse fill="none" stroke="black" cx="164.811" cy="-306" rx="45.7249" ry="18"/>
<text text-anchor="middle" x="164.811" y="-302.5" font-family="Times New Roman,serif" font-size="15.00">Payment</text>
</g>
<!-- 2808369457424&#45;&#45;2808399311968 -->
<g id="edge3" class="edge"><title>2808369457424&#45;&#45;2808399311968</title>
<path fill="none" stroke="black" d="M164.811,-359.697C164.811,-348.846 164.811,-334.917 164.811,-324.104"/>
</g>
<!-- 2808399312640 -->
<g id="node9" class="node"><title>2808399312640</title>
<ellipse fill="black" stroke="black" cx="231.811" cy="-306" rx="2.7" ry="2.7"/>
</g>
<!-- 2808399311152&#45;&#45;2808399312640 -->
<g id="edge5" class="edge"><title>2808399311152&#45;&#45;2808399312640</title>
<path fill="none" stroke="black" d="M290.836,-362.834C271.916,-344.937 240.915,-315.612 233.46,-308.56"/>
</g>
<!-- 2808399313360 -->
<g id="node10" class="node"><title>2808399313360</title>
<ellipse fill="none" stroke="black" cx="305.811" cy="-306" rx="52.6228" ry="18"/>
<text text-anchor="middle" x="305.811" y="-302.5" font-family="Times New Roman,serif" font-size="15.00">Send Fine</text>
</g>
<!-- 2808399311152&#45;&#45;2808399313360 -->
<g id="edge6" class="edge"><title>2808399311152&#45;&#45;2808399313360</title>
<path fill="none" stroke="black" d="M305.811,-359.697C305.811,-348.846 305.811,-334.917 305.811,-324.104"/>
</g>
<!-- 2808399314704 -->
<g id="node11" class="node"><title>2808399314704</title>
<ellipse fill="none" stroke="black" cx="403.811" cy="-306" rx="27" ry="18"/>
<text text-anchor="middle" x="403.811" y="-302.5" font-family="Times New Roman,serif" font-size="15.00">seq</text>
</g>
<!-- 2808399311152&#45;&#45;2808399314704 -->
<g id="edge19" class="edge"><title>2808399311152&#45;&#45;2808399314704</title>
<path fill="none" stroke="black" d="M323.786,-364.161C341.468,-351.531 368.307,-332.36 385.95,-319.758"/>
</g>
<!-- 2808399314080 -->
<g id="node12" class="node"><title>2808399314080</title>
<ellipse fill="none" stroke="black" cx="52.8111" cy="-234" rx="52.6228" ry="18"/>
<text text-anchor="middle" x="52.8111" y="-230.5" font-family="Times New Roman,serif" font-size="15.00">Send Fine</text>
</g>
<!-- 2808399314704&#45;&#45;2808399314080 -->
<g id="edge7" class="edge"><title>2808399314704&#45;&#45;2808399314080</title>
<path fill="none" stroke="black" d="M378.285,-299.909C319.048,-288.096 171.636,-258.697 97.2456,-243.862"/>
</g>
<!-- 2808399314800 -->
<g id="node13" class="node"><title>2808399314800</title>
<ellipse fill="none" stroke="black" cx="231.811" cy="-234" rx="107.914" ry="18"/>
<text text-anchor="middle" x="231.811" y="-230.5" font-family="Times New Roman,serif" font-size="15.00">Insert Fine Notification</text>
</g>
<!-- 2808399314704&#45;&#45;2808399314800 -->
<g id="edge8" class="edge"><title>2808399314704&#45;&#45;2808399314800</title>
<path fill="none" stroke="black" d="M381.325,-295.849C353.279,-284.434 304.87,-264.733 270.746,-250.846"/>
</g>
<!-- 2808399312496 -->
<g id="node14" class="node"><title>2808399312496</title>
<ellipse fill="none" stroke="black" cx="403.811" cy="-234" rx="46.6143" ry="18"/>
<text text-anchor="middle" x="403.811" y="-230.5" font-family="Times New Roman,serif" font-size="15.00">xor loop</text>
</g>
<!-- 2808399314704&#45;&#45;2808399312496 -->
<g id="edge11" class="edge"><title>2808399314704&#45;&#45;2808399312496</title>
<path fill="none" stroke="black" d="M403.811,-287.697C403.811,-276.846 403.811,-262.917 403.811,-252.104"/>
</g>
<!-- 2808399311008 -->
<g id="node17" class="node"><title>2808399311008</title>
<ellipse fill="none" stroke="black" cx="512.811" cy="-234" rx="27" ry="18"/>
<text text-anchor="middle" x="512.811" y="-230.5" font-family="Times New Roman,serif" font-size="15.00">and</text>
</g>
<!-- 2808399314704&#45;&#45;2808399311008 -->
<g id="edge18" class="edge"><title>2808399314704&#45;&#45;2808399311008</title>
<path fill="none" stroke="black" d="M422.797,-292.807C442.804,-279.959 474.119,-259.848 494.042,-247.053"/>
</g>
<!-- 2808399313984 -->
<g id="node15" class="node"><title>2808399313984</title>
<ellipse fill="black" stroke="black" cx="303.811" cy="-162" rx="2.7" ry="2.7"/>
</g>
<!-- 2808399312496&#45;&#45;2808399313984 -->
<g id="edge9" class="edge"><title>2808399312496&#45;&#45;2808399313984</title>
<path fill="none" stroke="black" d="M382.113,-217.811C355.919,-199.475 314.273,-170.323 305.476,-164.166"/>
</g>
<!-- 2808399311872 -->
<g id="node16" class="node"><title>2808399311872</title>
<ellipse fill="none" stroke="black" cx="386.811" cy="-162" rx="61.6894" ry="18"/>
<text text-anchor="middle" x="386.811" y="-158.5" font-family="Times New Roman,serif" font-size="15.00">Add penalty</text>
</g>
<!-- 2808399312496&#45;&#45;2808399311872 -->
<g id="edge10" class="edge"><title>2808399312496&#45;&#45;2808399311872</title>
<path fill="none" stroke="black" d="M399.696,-216.055C397.062,-205.211 393.655,-191.183 391.006,-180.275"/>
</g>
<!-- 2808399311200 -->
<g id="node18" class="node"><title>2808399311200</title>
<ellipse fill="none" stroke="black" cx="512.811" cy="-162" rx="46.6143" ry="18"/>
<text text-anchor="middle" x="512.811" y="-158.5" font-family="Times New Roman,serif" font-size="15.00">xor loop</text>
</g>
<!-- 2808399311008&#45;&#45;2808399311200 -->
<g id="edge14" class="edge"><title>2808399311008&#45;&#45;2808399311200</title>
<path fill="none" stroke="black" d="M512.811,-215.697C512.811,-204.846 512.811,-190.917 512.811,-180.104"/>
</g>
<!-- 2808399314848 -->
<g id="node21" class="node"><title>2808399314848</title>
<ellipse fill="none" stroke="black" cx="623.811" cy="-162" rx="46.6143" ry="18"/>
<text text-anchor="middle" x="623.811" y="-158.5" font-family="Times New Roman,serif" font-size="15.00">xor loop</text>
</g>
<!-- 2808399311008&#45;&#45;2808399314848 -->
<g id="edge17" class="edge"><title>2808399311008&#45;&#45;2808399314848</title>
<path fill="none" stroke="black" d="M531.893,-220.967C550.86,-209.005 579.988,-190.636 600.357,-177.791"/>
</g>
<!-- 2808399312832 -->
<g id="node19" class="node"><title>2808399312832</title>
<ellipse fill="black" stroke="black" cx="429.811" cy="-90" rx="2.7" ry="2.7"/>
</g>
<!-- 2808399311200&#45;&#45;2808399312832 -->
<g id="edge12" class="edge"><title>2808399311200&#45;&#45;2808399312832</title>
<path fill="none" stroke="black" d="M494.391,-145.465C472.995,-127.42 439.598,-99.254 431.583,-92.4944"/>
</g>
<!-- 2808399314752 -->
<g id="node20" class="node"><title>2808399314752</title>
<ellipse fill="none" stroke="black" cx="512.811" cy="-90" rx="61.6894" ry="18"/>
<text text-anchor="middle" x="512.811" y="-86.5" font-family="Times New Roman,serif" font-size="15.00">Add Penalty</text>
</g>
<!-- 2808399311200&#45;&#45;2808399314752 -->
<g id="edge13" class="edge"><title>2808399311200&#45;&#45;2808399314752</title>
<path fill="none" stroke="black" d="M512.811,-143.697C512.811,-132.846 512.811,-118.917 512.811,-108.104"/>
</g>
<!-- 2808399314512 -->
<g id="node22" class="node"><title>2808399314512</title>
<ellipse fill="black" stroke="black" cx="595.811" cy="-90" rx="2.7" ry="2.7"/>
</g>
<!-- 2808399314848&#45;&#45;2808399314512 -->
<g id="edge15" class="edge"><title>2808399314848&#45;&#45;2808399314512</title>
<path fill="none" stroke="black" d="M617.033,-144.055C609.912,-126.252 599.357,-99.8653 596.53,-92.7963"/>
</g>
<!-- 2808399312112 -->
<g id="node23" class="node"><title>2808399312112</title>
<ellipse fill="none" stroke="black" cx="694.811" cy="-90" rx="78.5434" ry="18"/>
<text text-anchor="middle" x="694.811" y="-86.5" font-family="Times New Roman,serif" font-size="15.00">Appeal to Judge</text>
</g>
<!-- 2808399314848&#45;&#45;2808399312112 -->
<g id="edge16" class="edge"><title>2808399314848&#45;&#45;2808399312112</title>
<path fill="none" stroke="black" d="M640.278,-144.765C651.585,-133.618 666.548,-118.865 677.94,-107.633"/>
</g>
<!-- 2808394109616 -->
<g id="node25" class="node"><title>2808394109616</title>
<ellipse fill="none" stroke="black" cx="687.811" cy="-450" rx="59.5207" ry="18"/>
<text text-anchor="middle" x="687.811" y="-446.5" font-family="Times New Roman,serif" font-size="15.00">Create Fine</text>
</g>
<!-- 2808394110000&#45;&#45;2808394109616 -->
<g id="edge23" class="edge"><title>2808394110000&#45;&#45;2808394109616</title>
<path fill="none" stroke="black" d="M736.662,-506.155C726.71,-494.918 713.033,-479.476 702.681,-467.789"/>
</g>
<!-- 2808394109184 -->
<g id="node26" class="node"><title>2808394109184</title>
<ellipse fill="none" stroke="black" cx="811.811" cy="-450" rx="46.6143" ry="18"/>
<text text-anchor="middle" x="811.811" y="-446.5" font-family="Times New Roman,serif" font-size="15.00">xor loop</text>
</g>
<!-- 2808394110000&#45;&#45;2808394109184 -->
<g id="edge55" class="edge"><title>2808394110000&#45;&#45;2808394109184</title>
<path fill="none" stroke="black" d="M762.96,-506.155C773.055,-494.757 786.981,-479.034 797.382,-467.29"/>
</g>
<!-- 2808394109712 -->
<g id="node58" class="node"><title>2808394109712</title>
<ellipse fill="none" stroke="black" cx="962.811" cy="-450" rx="27" ry="18"/>
<text text-anchor="middle" x="962.811" y="-446.5" font-family="Times New Roman,serif" font-size="15.00">xor</text>
</g>
<!-- 2808394110000&#45;&#45;2808394109712 -->
<g id="edge62" class="edge"><title>2808394110000&#45;&#45;2808394109712</title>
<path fill="none" stroke="black" d="M773.42,-513.241C814.363,-499.786 898.08,-472.273 939.097,-458.793"/>
</g>
<!-- 2808394111296 -->
<g id="node27" class="node"><title>2808394111296</title>
<ellipse fill="none" stroke="black" cx="787.811" cy="-378" rx="27" ry="18"/>
<text text-anchor="middle" x="787.811" y="-374.5" font-family="Times New Roman,serif" font-size="15.00">seq</text>
</g>
<!-- 2808394109184&#45;&#45;2808394111296 -->
<g id="edge53" class="edge"><title>2808394109184&#45;&#45;2808394111296</title>
<path fill="none" stroke="black" d="M806.001,-432.055C802.228,-421.049 797.33,-406.764 793.567,-395.789"/>
</g>
<!-- 2808394109232 -->
<g id="node57" class="node"><title>2808394109232</title>
<ellipse fill="black" stroke="black" cx="835.811" cy="-378" rx="2.7" ry="2.7"/>
</g>
<!-- 2808394109184&#45;&#45;2808394109232 -->
<g id="edge54" class="edge"><title>2808394109184&#45;&#45;2808394109232</title>
<path fill="none" stroke="black" d="M817.621,-432.055C823.725,-414.252 832.772,-387.865 835.195,-380.796"/>
</g>
<!-- 2808394111440 -->
<g id="node28" class="node"><title>2808394111440</title>
<ellipse fill="none" stroke="black" cx="679.811" cy="-306" rx="27" ry="18"/>
<text text-anchor="middle" x="679.811" y="-302.5" font-family="Times New Roman,serif" font-size="15.00">xor</text>
</g>
<!-- 2808394111296&#45;&#45;2808394111440 -->
<g id="edge26" class="edge"><title>2808394111296&#45;&#45;2808394111440</title>
<path fill="none" stroke="black" d="M768.999,-364.807C749.176,-351.959 718.149,-331.848 698.408,-319.053"/>
</g>
<!-- 2808394112064 -->
<g id="node31" class="node"><title>2808394112064</title>
<ellipse fill="none" stroke="black" cx="787.811" cy="-306" rx="27" ry="18"/>
<text text-anchor="middle" x="787.811" y="-302.5" font-family="Times New Roman,serif" font-size="15.00">xor</text>
</g>
<!-- 2808394111296&#45;&#45;2808394112064 -->
<g id="edge29" class="edge"><title>2808394111296&#45;&#45;2808394112064</title>
<path fill="none" stroke="black" d="M787.811,-359.697C787.811,-348.846 787.811,-334.917 787.811,-324.104"/>
</g>
<!-- 2808394110384 -->
<g id="node34" class="node"><title>2808394110384</title>
<ellipse fill="none" stroke="black" cx="903.811" cy="-306" rx="27" ry="18"/>
<text text-anchor="middle" x="903.811" y="-302.5" font-family="Times New Roman,serif" font-size="15.00">xor</text>
</g>
<!-- 2808394111296&#45;&#45;2808394110384 -->
<g id="edge52" class="edge"><title>2808394111296&#45;&#45;2808394110384</title>
<path fill="none" stroke="black" d="M807.227,-365.284C828.64,-352.362 862.894,-331.692 884.332,-318.755"/>
</g>
<!-- 2808394110288 -->
<g id="node29" class="node"><title>2808394110288</title>
<ellipse fill="black" stroke="black" cx="605.811" cy="-234" rx="2.7" ry="2.7"/>
</g>
<!-- 2808394111440&#45;&#45;2808394110288 -->
<g id="edge24" class="edge"><title>2808394111440&#45;&#45;2808394110288</title>
<path fill="none" stroke="black" d="M664.836,-290.834C645.916,-272.937 614.915,-243.612 607.46,-236.56"/>
</g>
<!-- 2808394110768 -->
<g id="node30" class="node"><title>2808394110768</title>
<ellipse fill="none" stroke="black" cx="679.811" cy="-234" rx="52.6228" ry="18"/>
<text text-anchor="middle" x="679.811" y="-230.5" font-family="Times New Roman,serif" font-size="15.00">Send Fine</text>
</g>
<!-- 2808394111440&#45;&#45;2808394110768 -->
<g id="edge25" class="edge"><title>2808394111440&#45;&#45;2808394110768</title>
<path fill="none" stroke="black" d="M679.811,-287.697C679.811,-276.846 679.811,-262.917 679.811,-252.104"/>
</g>
<!-- 2808394110048 -->
<g id="node32" class="node"><title>2808394110048</title>
<ellipse fill="black" stroke="black" cx="753.811" cy="-234" rx="2.7" ry="2.7"/>
</g>
<!-- 2808394112064&#45;&#45;2808394110048 -->
<g id="edge27" class="edge"><title>2808394112064&#45;&#45;2808394110048</title>
<path fill="none" stroke="black" d="M779.925,-288.765C771.294,-270.994 758.212,-244.06 754.703,-236.836"/>
</g>
<!-- 2808394109328 -->
<g id="node33" class="node"><title>2808394109328</title>
<ellipse fill="none" stroke="black" cx="881.811" cy="-234" rx="107.914" ry="18"/>
<text text-anchor="middle" x="881.811" y="-230.5" font-family="Times New Roman,serif" font-size="15.00">Insert Fine Notification</text>
</g>
<!-- 2808394112064&#45;&#45;2808394109328 -->
<g id="edge28" class="edge"><title>2808394112064&#45;&#45;2808394109328</title>
<path fill="none" stroke="black" d="M805.492,-291.834C820.702,-280.507 842.733,-264.101 859.219,-251.824"/>
</g>
<!-- 2808394109088 -->
<g id="node35" class="node"><title>2808394109088</title>
<ellipse fill="black" stroke="black" cx="1009.81" cy="-234" rx="2.7" ry="2.7"/>
</g>
<!-- 2808394110384&#45;&#45;2808394109088 -->
<g id="edge30" class="edge"><title>2808394110384&#45;&#45;2808394109088</title>
<path fill="none" stroke="black" d="M922.275,-292.807C949.323,-274.945 997.626,-243.046 1007.87,-236.282"/>
</g>
<!-- 2808394110720 -->
<g id="node36" class="node"><title>2808394110720</title>
<ellipse fill="none" stroke="black" cx="1132.81" cy="-234" rx="46.6143" ry="18"/>
<text text-anchor="middle" x="1132.81" y="-230.5" font-family="Times New Roman,serif" font-size="15.00">xor loop</text>
</g>
<!-- 2808394110384&#45;&#45;2808394110720 -->
<g id="edge51" class="edge"><title>2808394110384&#45;&#45;2808394110720</title>
<path fill="none" stroke="black" d="M927.885,-297.641C968.422,-285.25 1050.47,-260.169 1097.52,-245.786"/>
</g>
<!-- 2808394109952 -->
<g id="node37" class="node"><title>2808394109952</title>
<ellipse fill="none" stroke="black" cx="1132.81" cy="-162" rx="27" ry="18"/>
<text text-anchor="middle" x="1132.81" y="-158.5" font-family="Times New Roman,serif" font-size="15.00">seq</text>
</g>
<!-- 2808394110720&#45;&#45;2808394109952 -->
<g id="edge49" class="edge"><title>2808394110720&#45;&#45;2808394109952</title>
<path fill="none" stroke="black" d="M1132.81,-215.697C1132.81,-204.846 1132.81,-190.917 1132.81,-180.104"/>
</g>
<!-- 2808394109520 -->
<g id="node56" class="node"><title>2808394109520</title>
<ellipse fill="black" stroke="black" cx="1180.81" cy="-162" rx="2.7" ry="2.7"/>
</g>
<!-- 2808394110720&#45;&#45;2808394109520 -->
<g id="edge50" class="edge"><title>2808394110720&#45;&#45;2808394109520</title>
<path fill="none" stroke="black" d="M1144.19,-216.411C1156.38,-198.622 1174.67,-171.962 1179.57,-164.816"/>
</g>
<!-- 2808394110480 -->
<g id="node38" class="node"><title>2808394110480</title>
<ellipse fill="none" stroke="black" cx="818.811" cy="-90" rx="27" ry="18"/>
<text text-anchor="middle" x="818.811" y="-86.5" font-family="Times New Roman,serif" font-size="15.00">xor</text>
</g>
<!-- 2808394109952&#45;&#45;2808394110480 -->
<g id="edge33" class="edge"><title>2808394109952&#45;&#45;2808394110480</title>
<path fill="none" stroke="black" d="M1107.65,-155.39C1048.85,-142.283 903.008,-109.77 844.096,-96.6368"/>
</g>
<!-- 2808394110096 -->
<g id="node41" class="node"><title>2808394110096</title>
<ellipse fill="none" stroke="black" cx="978.811" cy="-90" rx="27" ry="18"/>
<text text-anchor="middle" x="978.811" y="-86.5" font-family="Times New Roman,serif" font-size="15.00">xor</text>
</g>
<!-- 2808394109952&#45;&#45;2808394110096 -->
<g id="edge36" class="edge"><title>2808394109952&#45;&#45;2808394110096</title>
<path fill="none" stroke="black" d="M1111.07,-151.119C1081.72,-137.778 1029.73,-114.146 1000.44,-100.831"/>
</g>
<!-- 2808394111248 -->
<g id="node44" class="node"><title>2808394111248</title>
<ellipse fill="none" stroke="black" cx="1132.81" cy="-90" rx="27" ry="18"/>
<text text-anchor="middle" x="1132.81" y="-86.5" font-family="Times New Roman,serif" font-size="15.00">xor</text>
</g>
<!-- 2808394109952&#45;&#45;2808394111248 -->
<g id="edge39" class="edge"><title>2808394109952&#45;&#45;2808394111248</title>
<path fill="none" stroke="black" d="M1132.81,-143.697C1132.81,-132.846 1132.81,-118.917 1132.81,-108.104"/>
</g>
<!-- 2808394112544 -->
<g id="node47" class="node"><title>2808394112544</title>
<ellipse fill="none" stroke="black" cx="1343.81" cy="-90" rx="27" ry="18"/>
<text text-anchor="middle" x="1343.81" y="-86.5" font-family="Times New Roman,serif" font-size="15.00">xor</text>
</g>
<!-- 2808394109952&#45;&#45;2808394112544 -->
<g id="edge42" class="edge"><title>2808394109952&#45;&#45;2808394112544</title>
<path fill="none" stroke="black" d="M1156.61,-153.106C1197.24,-139.626 1279.53,-112.325 1320.1,-98.865"/>
</g>
<!-- 2808394111008 -->
<g id="node50" class="node"><title>2808394111008</title>
<ellipse fill="none" stroke="black" cx="1731.81" cy="-90" rx="27" ry="18"/>
<text text-anchor="middle" x="1731.81" y="-86.5" font-family="Times New Roman,serif" font-size="15.00">xor</text>
</g>
<!-- 2808394109952&#45;&#45;2808394111008 -->
<g id="edge45" class="edge"><title>2808394109952&#45;&#45;2808394111008</title>
<path fill="none" stroke="black" d="M1159.32,-157.902C1258.38,-146.326 1606.16,-105.684 1705.27,-94.102"/>
</g>
<!-- 2808394109376 -->
<g id="node53" class="node"><title>2808394109376</title>
<ellipse fill="none" stroke="black" cx="2069.81" cy="-90" rx="27" ry="18"/>
<text text-anchor="middle" x="2069.81" y="-86.5" font-family="Times New Roman,serif" font-size="15.00">xor</text>
</g>
<!-- 2808394109952&#45;&#45;2808394109376 -->
<g id="edge48" class="edge"><title>2808394109952&#45;&#45;2808394109376</title>
<path fill="none" stroke="black" d="M1159.84,-158.981C1296.22,-148.792 1907.53,-103.123 2043.12,-92.9941"/>
</g>
<!-- 2808394110336 -->
<g id="node39" class="node"><title>2808394110336</title>
<ellipse fill="black" stroke="black" cx="565.811" cy="-18" rx="2.7" ry="2.7"/>
</g>
<!-- 2808394110480&#45;&#45;2808394110336 -->
<g id="edge31" class="edge"><title>2808394110480&#45;&#45;2808394110336</title>
<path fill="none" stroke="black" d="M794.092,-82.1607C734.907,-65.7853 588.462,-25.2669 568.16,-19.65"/>
</g>
<!-- 2808394111536 -->
<g id="node40" class="node"><title>2808394111536</title>
<ellipse fill="none" stroke="black" cx="730.811" cy="-18" rx="144.571" ry="18"/>
<text text-anchor="middle" x="730.811" y="-14.5" font-family="Times New Roman,serif" font-size="15.00">Insert Date Appeal to Prefecture</text>
</g>
<!-- 2808394110480&#45;&#45;2808394111536 -->
<g id="edge32" class="edge"><title>2808394110480&#45;&#45;2808394111536</title>
<path fill="none" stroke="black" d="M801.844,-75.5033C787.659,-64.2203 767.356,-48.0695 752.085,-35.9227"/>
</g>
<!-- 2808394112256 -->
<g id="node42" class="node"><title>2808394112256</title>
<ellipse fill="black" stroke="black" cx="895.811" cy="-18" rx="2.7" ry="2.7"/>
</g>
<!-- 2808394110096&#45;&#45;2808394112256 -->
<g id="edge34" class="edge"><title>2808394110096&#45;&#45;2808394112256</title>
<path fill="none" stroke="black" d="M962.413,-75.1703C941.248,-57.3201 906.13,-27.7024 897.681,-20.5768"/>
</g>
<!-- 2808394110528 -->
<g id="node43" class="node"><title>2808394110528</title>
<ellipse fill="none" stroke="black" cx="978.811" cy="-18" rx="61.6894" ry="18"/>
<text text-anchor="middle" x="978.811" y="-14.5" font-family="Times New Roman,serif" font-size="15.00">Add penalty</text>
</g>
<!-- 2808394110096&#45;&#45;2808394110528 -->
<g id="edge35" class="edge"><title>2808394110096&#45;&#45;2808394110528</title>
<path fill="none" stroke="black" d="M978.811,-71.6966C978.811,-60.8463 978.811,-46.9167 978.811,-36.1043"/>
</g>
<!-- 2808394112208 -->
<g id="node45" class="node"><title>2808394112208</title>
<ellipse fill="black" stroke="black" cx="1061.81" cy="-18" rx="2.7" ry="2.7"/>
</g>
<!-- 2808394111248&#45;&#45;2808394112208 -->
<g id="edge37" class="edge"><title>2808394111248&#45;&#45;2808394112208</title>
<path fill="none" stroke="black" d="M1118.1,-74.496C1099.9,-56.5555 1070.45,-27.5217 1063.38,-20.5436"/>
</g>
<!-- 2808394111344 -->
<g id="node46" class="node"><title>2808394111344</title>
<ellipse fill="none" stroke="black" cx="1202.81" cy="-18" rx="120.43" ry="18"/>
<text text-anchor="middle" x="1202.81" y="-14.5" font-family="Times New Roman,serif" font-size="15.00">Send Appeal to Prefecture</text>
</g>
<!-- 2808394111248&#45;&#45;2808394111344 -->
<g id="edge38" class="edge"><title>2808394111248&#45;&#45;2808394111344</title>
<path fill="none" stroke="black" d="M1147.32,-74.496C1158.53,-63.2831 1174.07,-47.737 1185.86,-35.9506"/>
</g>
<!-- 2808203751872 -->
<g id="node48" class="node"><title>2808203751872</title>
<ellipse fill="black" stroke="black" cx="1343.81" cy="-18" rx="2.7" ry="2.7"/>
</g>
<!-- 2808394112544&#45;&#45;2808203751872 -->
<g id="edge40" class="edge"><title>2808394112544&#45;&#45;2808203751872</title>
<path fill="none" stroke="black" d="M1343.81,-71.6966C1343.81,-53.8826 1343.81,-27.7686 1343.81,-20.7764"/>
</g>
<!-- 2808369455984 -->
<g id="node49" class="node"><title>2808369455984</title>
<ellipse fill="none" stroke="black" cx="1537.81" cy="-18" rx="173.941" ry="18"/>
<text text-anchor="middle" x="1537.81" y="-14.5" font-family="Times New Roman,serif" font-size="15.00">Receive Result Appeal from Prefecture</text>
</g>
<!-- 2808394112544&#45;&#45;2808369455984 -->
<g id="edge41" class="edge"><title>2808394112544&#45;&#45;2808369455984</title>
<path fill="none" stroke="black" d="M1367.21,-80.5564C1398.05,-69.4293 1452.96,-49.615 1492.16,-35.472"/>
</g>
<!-- 2808369457904 -->
<g id="node51" class="node"><title>2808369457904</title>
<ellipse fill="black" stroke="black" cx="1731.81" cy="-18" rx="2.7" ry="2.7"/>
</g>
<!-- 2808394111008&#45;&#45;2808369457904 -->
<g id="edge43" class="edge"><title>2808394111008&#45;&#45;2808369457904</title>
<path fill="none" stroke="black" d="M1731.81,-71.6966C1731.81,-53.8826 1731.81,-27.7686 1731.81,-20.7764"/>
</g>
<!-- 2808369456896 -->
<g id="node52" class="node"><title>2808369456896</title>
<ellipse fill="none" stroke="black" cx="1900.81" cy="-18" rx="148.91" ry="18"/>
<text text-anchor="middle" x="1900.81" y="-14.5" font-family="Times New Roman,serif" font-size="15.00">Notify Result Appeal to Offender</text>
</g>
<!-- 2808394111008&#45;&#45;2808369456896 -->
<g id="edge44" class="edge"><title>2808394111008&#45;&#45;2808369456896</title>
<path fill="none" stroke="black" d="M1754.25,-79.7045C1781.46,-68.4359 1827.79,-49.2446 1861.09,-35.4544"/>
</g>
<!-- 2808369458288 -->
<g id="node54" class="node"><title>2808369458288</title>
<ellipse fill="black" stroke="black" cx="2069.81" cy="-18" rx="2.7" ry="2.7"/>
</g>
<!-- 2808394109376&#45;&#45;2808369458288 -->
<g id="edge46" class="edge"><title>2808394109376&#45;&#45;2808369458288</title>
<path fill="none" stroke="black" d="M2069.81,-71.6966C2069.81,-53.8826 2069.81,-27.7686 2069.81,-20.7764"/>
</g>
<!-- 2808369458096 -->
<g id="node55" class="node"><title>2808369458096</title>
<ellipse fill="none" stroke="black" cx="2136.81" cy="-18" rx="45.7249" ry="18"/>
<text text-anchor="middle" x="2136.81" y="-14.5" font-family="Times New Roman,serif" font-size="15.00">Payment</text>
</g>
<!-- 2808394109376&#45;&#45;2808369458096 -->
<g id="edge47" class="edge"><title>2808394109376&#45;&#45;2808369458096</title>
<path fill="none" stroke="black" d="M2083.69,-74.496C2094.66,-63.0429 2109.95,-47.0688 2121.31,-35.1982"/>
</g>
<!-- 2808394111776 -->
<g id="node59" class="node"><title>2808394111776</title>
<ellipse fill="black" stroke="black" cx="962.811" cy="-378" rx="2.7" ry="2.7"/>
</g>
<!-- 2808394109712&#45;&#45;2808394111776 -->
<g id="edge56" class="edge"><title>2808394109712&#45;&#45;2808394111776</title>
<path fill="none" stroke="black" d="M962.811,-431.697C962.811,-413.883 962.811,-387.769 962.811,-380.776"/>
</g>
<!-- 2808394110672 -->
<g id="node60" class="node"><title>2808394110672</title>
<ellipse fill="none" stroke="black" cx="1069.81" cy="-378" rx="27" ry="18"/>
<text text-anchor="middle" x="1069.81" y="-374.5" font-family="Times New Roman,serif" font-size="15.00">seq</text>
</g>
<!-- 2808394109712&#45;&#45;2808394110672 -->
<g id="edge61" class="edge"><title>2808394109712&#45;&#45;2808394110672</title>
<path fill="none" stroke="black" d="M981.449,-436.807C1000.97,-424.037 1031.45,-404.093 1051.03,-391.288"/>
</g>
<!-- 2808369455360 -->
<g id="node61" class="node"><title>2808369455360</title>
<ellipse fill="none" stroke="black" cx="1069.81" cy="-306" rx="120.819" ry="18"/>
<text text-anchor="middle" x="1069.81" y="-302.5" font-family="Times New Roman,serif" font-size="15.00">Send for Credit Collection</text>
</g>
<!-- 2808394110672&#45;&#45;2808369455360 -->
<g id="edge57" class="edge"><title>2808394110672&#45;&#45;2808369455360</title>
<path fill="none" stroke="black" d="M1069.81,-359.697C1069.81,-348.846 1069.81,-334.917 1069.81,-324.104"/>
</g>
<!-- 2808369458624 -->
<g id="node62" class="node"><title>2808369458624</title>
<ellipse fill="none" stroke="black" cx="1235.81" cy="-306" rx="27" ry="18"/>
<text text-anchor="middle" x="1235.81" y="-302.5" font-family="Times New Roman,serif" font-size="15.00">xor</text>
</g>
<!-- 2808394110672&#45;&#45;2808369458624 -->
<g id="edge60" class="edge"><title>2808394110672&#45;&#45;2808369458624</title>
<path fill="none" stroke="black" d="M1092.2,-367.559C1123.97,-354.162 1181.79,-329.779 1213.51,-316.402"/>
</g>
<!-- 2808369456944 -->
<g id="node63" class="node"><title>2808369456944</title>
<ellipse fill="black" stroke="black" cx="1223.81" cy="-234" rx="2.7" ry="2.7"/>
</g>
<!-- 2808369458624&#45;&#45;2808369456944 -->
<g id="edge58" class="edge"><title>2808369458624&#45;&#45;2808369456944</title>
<path fill="none" stroke="black" d="M1232.91,-288.055C1229.85,-270.252 1225.33,-243.865 1224.12,-236.796"/>
</g>
<!-- 2808369456464 -->
<g id="node64" class="node"><title>2808369456464</title>
<ellipse fill="none" stroke="black" cx="1364.81" cy="-234" rx="120.43" ry="18"/>
<text text-anchor="middle" x="1364.81" y="-230.5" font-family="Times New Roman,serif" font-size="15.00">Send Appeal to Prefecture</text>
</g>
<!-- 2808369458624&#45;&#45;2808369456464 -->
<g id="edge59" class="edge"><title>2808369458624&#45;&#45;2808369456464</title>
<path fill="none" stroke="black" d="M1256.25,-293.908C1277.28,-282.497 1310.28,-264.591 1334.38,-251.514"/>
</g>
</g>
</svg>
