<?xml version="1.0" encoding="UTF-8" standalone="no"?>
<!DOCTYPE svg PUBLIC "-//W3C//DTD SVG 1.1//EN"
 "http://www.w3.org/Graphics/SVG/1.1/DTD/svg11.dtd">
<!-- Generated by graphviz version 2.38.0 (20140413.2041)
 -->
<!-- Title: pt Pages: 1 -->
<svg width="1846pt" height="692pt"
 viewBox="0.00 0.00 1845.52 692.00" xmlns="http://www.w3.org/2000/svg" xmlns:xlink="http://www.w3.org/1999/xlink">
<g id="graph0" class="graph" transform="scale(1 1) rotate(0) translate(4 688)">
<title>pt</title>
<!-- 2808389970720 -->
<g id="node1" class="node"><title>2808389970720</title>
<ellipse fill="none" stroke="black" cx="696.811" cy="-666" rx="27" ry="18"/>
<text text-anchor="middle" x="696.811" y="-662.5" font-family="Times New Roman,serif" font-size="15.00">seq</text>
</g>
<!-- 2808389632832 -->
<g id="node2" class="node"><title>2808389632832</title>
<ellipse fill="none" stroke="black" cx="591.811" cy="-594" rx="59.5207" ry="18"/>
<text text-anchor="middle" x="591.811" y="-590.5" font-family="Times New Roman,serif" font-size="15.00">Create Fine</text>
</g>
<!-- 2808389970720&#45;&#45;2808389632832 -->
<g id="edge1" class="edge"><title>2808389970720&#45;&#45;2808389632832</title>
<path fill="none" stroke="black" d="M678.039,-652.485C660.461,-640.767 634.134,-623.215 615.198,-610.591"/>
</g>
<!-- 2808386803360 -->
<g id="node3" class="node"><title>2808386803360</title>
<ellipse fill="none" stroke="black" cx="696.811" cy="-594" rx="27" ry="18"/>
<text text-anchor="middle" x="696.811" y="-590.5" font-family="Times New Roman,serif" font-size="15.00">and</text>
</g>
<!-- 2808389970720&#45;&#45;2808386803360 -->
<g id="edge43" class="edge"><title>2808389970720&#45;&#45;2808386803360</title>
<path fill="none" stroke="black" d="M696.811,-647.697C696.811,-636.846 696.811,-622.917 696.811,-612.104"/>
</g>
<!-- 2808389634608 -->
<g id="node45" class="node"><title>2808389634608</title>
<ellipse fill="none" stroke="black" cx="768.811" cy="-594" rx="27" ry="18"/>
<text text-anchor="middle" x="768.811" y="-590.5" font-family="Times New Roman,serif" font-size="15.00">xor</text>
</g>
<!-- 2808389970720&#45;&#45;2808389634608 -->
<g id="edge46" class="edge"><title>2808389970720&#45;&#45;2808389634608</title>
<path fill="none" stroke="black" d="M711.381,-650.834C723.791,-638.77 741.542,-621.512 754.015,-609.385"/>
</g>
<!-- 2808386710496 -->
<g id="node4" class="node"><title>2808386710496</title>
<ellipse fill="none" stroke="black" cx="305.811" cy="-522" rx="27" ry="18"/>
<text text-anchor="middle" x="305.811" y="-518.5" font-family="Times New Roman,serif" font-size="15.00">and</text>
</g>
<!-- 2808386803360&#45;&#45;2808386710496 -->
<g id="edge21" class="edge"><title>2808386803360&#45;&#45;2808386710496</title>
<path fill="none" stroke="black" d="M670.854,-588.353C599.729,-575.62 402.315,-540.277 331.504,-527.6"/>
</g>
<!-- 2808386708672 -->
<g id="node24" class="node"><title>2808386708672</title>
<ellipse fill="none" stroke="black" cx="702.811" cy="-522" rx="27" ry="18"/>
<text text-anchor="middle" x="702.811" y="-518.5" font-family="Times New Roman,serif" font-size="15.00">xor</text>
</g>
<!-- 2808386803360&#45;&#45;2808386708672 -->
<g id="edge42" class="edge"><title>2808386803360&#45;&#45;2808386708672</title>
<path fill="none" stroke="black" d="M698.294,-575.697C699.224,-564.846 700.418,-550.917 701.345,-540.104"/>
</g>
<!-- 2808387221728 -->
<g id="node5" class="node"><title>2808387221728</title>
<ellipse fill="none" stroke="black" cx="164.811" cy="-450" rx="46.6143" ry="18"/>
<text text-anchor="middle" x="164.811" y="-446.5" font-family="Times New Roman,serif" font-size="15.00">xor loop</text>
</g>
<!-- 2808386710496&#45;&#45;2808387221728 -->
<g id="edge4" class="edge"><title>2808386710496&#45;&#45;2808387221728</title>
<path fill="none" stroke="black" d="M284.702,-510.52C260.118,-498.316 219.432,-478.117 192.374,-464.684"/>
</g>
<!-- 2808387221968 -->
<g id="node8" class="node"><title>2808387221968</title>
<ellipse fill="none" stroke="black" cx="305.811" cy="-450" rx="27" ry="18"/>
<text text-anchor="middle" x="305.811" y="-446.5" font-family="Times New Roman,serif" font-size="15.00">xor</text>
</g>
<!-- 2808386710496&#45;&#45;2808387221968 -->
<g id="edge20" class="edge"><title>2808386710496&#45;&#45;2808387221968</title>
<path fill="none" stroke="black" d="M305.811,-503.697C305.811,-492.846 305.811,-478.917 305.811,-468.104"/>
</g>
<!-- 2808379733088 -->
<g id="node6" class="node"><title>2808379733088</title>
<ellipse fill="black" stroke="black" cx="97.8111" cy="-378" rx="2.7" ry="2.7"/>
</g>
<!-- 2808387221728&#45;&#45;2808379733088 -->
<g id="edge2" class="edge"><title>2808387221728&#45;&#45;2808379733088</title>
<path fill="none" stroke="black" d="M149.272,-432.765C131.953,-414.671 105.542,-387.078 99.2104,-380.462"/>
</g>
<!-- 2808379734096 -->
<g id="node7" class="node"><title>2808379734096</title>
<ellipse fill="none" stroke="black" cx="164.811" cy="-378" rx="45.7249" ry="18"/>
<text text-anchor="middle" x="164.811" y="-374.5" font-family="Times New Roman,serif" font-size="15.00">Payment</text>
</g>
<!-- 2808387221728&#45;&#45;2808379734096 -->
<g id="edge3" class="edge"><title>2808387221728&#45;&#45;2808379734096</title>
<path fill="none" stroke="black" d="M164.811,-431.697C164.811,-420.846 164.811,-406.917 164.811,-396.104"/>
</g>
<!-- 2808379733424 -->
<g id="node9" class="node"><title>2808379733424</title>
<ellipse fill="black" stroke="black" cx="231.811" cy="-378" rx="2.7" ry="2.7"/>
</g>
<!-- 2808387221968&#45;&#45;2808379733424 -->
<g id="edge5" class="edge"><title>2808387221968&#45;&#45;2808379733424</title>
<path fill="none" stroke="black" d="M290.836,-434.834C271.916,-416.937 240.915,-387.612 233.46,-380.56"/>
</g>
<!-- 2808379732992 -->
<g id="node10" class="node"><title>2808379732992</title>
<ellipse fill="none" stroke="black" cx="305.811" cy="-378" rx="52.6228" ry="18"/>
<text text-anchor="middle" x="305.811" y="-374.5" font-family="Times New Roman,serif" font-size="15.00">Send Fine</text>
</g>
<!-- 2808387221968&#45;&#45;2808379732992 -->
<g id="edge6" class="edge"><title>2808387221968&#45;&#45;2808379732992</title>
<path fill="none" stroke="black" d="M305.811,-431.697C305.811,-420.846 305.811,-406.917 305.811,-396.104"/>
</g>
<!-- 2808379733328 -->
<g id="node11" class="node"><title>2808379733328</title>
<ellipse fill="none" stroke="black" cx="403.811" cy="-378" rx="27" ry="18"/>
<text text-anchor="middle" x="403.811" y="-374.5" font-family="Times New Roman,serif" font-size="15.00">seq</text>
</g>
<!-- 2808387221968&#45;&#45;2808379733328 -->
<g id="edge19" class="edge"><title>2808387221968&#45;&#45;2808379733328</title>
<path fill="none" stroke="black" d="M323.786,-436.161C341.468,-423.531 368.307,-404.36 385.95,-391.758"/>
</g>
<!-- 2808379732176 -->
<g id="node12" class="node"><title>2808379732176</title>
<ellipse fill="none" stroke="black" cx="52.8111" cy="-306" rx="52.6228" ry="18"/>
<text text-anchor="middle" x="52.8111" y="-302.5" font-family="Times New Roman,serif" font-size="15.00">Send Fine</text>
</g>
<!-- 2808379733328&#45;&#45;2808379732176 -->
<g id="edge7" class="edge"><title>2808379733328&#45;&#45;2808379732176</title>
<path fill="none" stroke="black" d="M378.285,-371.909C319.048,-360.096 171.636,-330.697 97.2456,-315.862"/>
</g>
<!-- 2808379732752 -->
<g id="node13" class="node"><title>2808379732752</title>
<ellipse fill="none" stroke="black" cx="231.811" cy="-306" rx="107.914" ry="18"/>
<text text-anchor="middle" x="231.811" y="-302.5" font-family="Times New Roman,serif" font-size="15.00">Insert Fine Notification</text>
</g>
<!-- 2808379733328&#45;&#45;2808379732752 -->
<g id="edge8" class="edge"><title>2808379733328&#45;&#45;2808379732752</title>
<path fill="none" stroke="black" d="M381.325,-367.849C353.279,-356.434 304.87,-336.733 270.746,-322.846"/>
</g>
<!-- 2808379735296 -->
<g id="node14" class="node"><title>2808379735296</title>
<ellipse fill="none" stroke="black" cx="403.811" cy="-306" rx="46.6143" ry="18"/>
<text text-anchor="middle" x="403.811" y="-302.5" font-family="Times New Roman,serif" font-size="15.00">xor loop</text>
</g>
<!-- 2808379733328&#45;&#45;2808379735296 -->
<g id="edge11" class="edge"><title>2808379733328&#45;&#45;2808379735296</title>
<path fill="none" stroke="black" d="M403.811,-359.697C403.811,-348.846 403.811,-334.917 403.811,-324.104"/>
</g>
<!-- 2808379734384 -->
<g id="node17" class="node"><title>2808379734384</title>
<ellipse fill="none" stroke="black" cx="512.811" cy="-306" rx="27" ry="18"/>
<text text-anchor="middle" x="512.811" y="-302.5" font-family="Times New Roman,serif" font-size="15.00">and</text>
</g>
<!-- 2808379733328&#45;&#45;2808379734384 -->
<g id="edge18" class="edge"><title>2808379733328&#45;&#45;2808379734384</title>
<path fill="none" stroke="black" d="M422.797,-364.807C442.804,-351.959 474.119,-331.848 494.042,-319.053"/>
</g>
<!-- 2808379732800 -->
<g id="node15" class="node"><title>2808379732800</title>
<ellipse fill="black" stroke="black" cx="303.811" cy="-234" rx="2.7" ry="2.7"/>
</g>
<!-- 2808379735296&#45;&#45;2808379732800 -->
<g id="edge9" class="edge"><title>2808379735296&#45;&#45;2808379732800</title>
<path fill="none" stroke="black" d="M382.113,-289.811C355.919,-271.475 314.273,-242.323 305.476,-236.166"/>
</g>
<!-- 2808379735680 -->
<g id="node16" class="node"><title>2808379735680</title>
<ellipse fill="none" stroke="black" cx="386.811" cy="-234" rx="61.6894" ry="18"/>
<text text-anchor="middle" x="386.811" y="-230.5" font-family="Times New Roman,serif" font-size="15.00">Add penalty</text>
</g>
<!-- 2808379735296&#45;&#45;2808379735680 -->
<g id="edge10" class="edge"><title>2808379735296&#45;&#45;2808379735680</title>
<path fill="none" stroke="black" d="M399.696,-288.055C397.062,-277.211 393.655,-263.183 391.006,-252.275"/>
</g>
<!-- 2808379735968 -->
<g id="node18" class="node"><title>2808379735968</title>
<ellipse fill="none" stroke="black" cx="512.811" cy="-234" rx="46.6143" ry="18"/>
<text text-anchor="middle" x="512.811" y="-230.5" font-family="Times New Roman,serif" font-size="15.00">xor loop</text>
</g>
<!-- 2808379734384&#45;&#45;2808379735968 -->
<g id="edge14" class="edge"><title>2808379734384&#45;&#45;2808379735968</title>
<path fill="none" stroke="black" d="M512.811,-287.697C512.811,-276.846 512.811,-262.917 512.811,-252.104"/>
</g>
<!-- 2808379735776 -->
<g id="node21" class="node"><title>2808379735776</title>
<ellipse fill="none" stroke="black" cx="623.811" cy="-234" rx="46.6143" ry="18"/>
<text text-anchor="middle" x="623.811" y="-230.5" font-family="Times New Roman,serif" font-size="15.00">xor loop</text>
</g>
<!-- 2808379734384&#45;&#45;2808379735776 -->
<g id="edge17" class="edge"><title>2808379734384&#45;&#45;2808379735776</title>
<path fill="none" stroke="black" d="M531.893,-292.967C550.86,-281.005 579.988,-262.636 600.357,-249.791"/>
</g>
<!-- 2808205302176 -->
<g id="node19" class="node"><title>2808205302176</title>
<ellipse fill="black" stroke="black" cx="429.811" cy="-162" rx="2.7" ry="2.7"/>
</g>
<!-- 2808379735968&#45;&#45;2808205302176 -->
<g id="edge12" class="edge"><title>2808379735968&#45;&#45;2808205302176</title>
<path fill="none" stroke="black" d="M494.391,-217.465C472.995,-199.42 439.598,-171.254 431.583,-164.494"/>
</g>
<!-- 2808205302704 -->
<g id="node20" class="node"><title>2808205302704</title>
<ellipse fill="none" stroke="black" cx="512.811" cy="-162" rx="61.6894" ry="18"/>
<text text-anchor="middle" x="512.811" y="-158.5" font-family="Times New Roman,serif" font-size="15.00">Add Penalty</text>
</g>
<!-- 2808379735968&#45;&#45;2808205302704 -->
<g id="edge13" class="edge"><title>2808379735968&#45;&#45;2808205302704</title>
<path fill="none" stroke="black" d="M512.811,-215.697C512.811,-204.846 512.811,-190.917 512.811,-180.104"/>
</g>
<!-- 2808379734576 -->
<g id="node22" class="node"><title>2808379734576</title>
<ellipse fill="black" stroke="black" cx="595.811" cy="-162" rx="2.7" ry="2.7"/>
</g>
<!-- 2808379735776&#45;&#45;2808379734576 -->
<g id="edge15" class="edge"><title>2808379735776&#45;&#45;2808379734576</title>
<path fill="none" stroke="black" d="M617.033,-216.055C609.912,-198.252 599.357,-171.865 596.53,-164.796"/>
</g>
<!-- 2808205302656 -->
<g id="node23" class="node"><title>2808205302656</title>
<ellipse fill="none" stroke="black" cx="694.811" cy="-162" rx="78.5434" ry="18"/>
<text text-anchor="middle" x="694.811" y="-158.5" font-family="Times New Roman,serif" font-size="15.00">Appeal to Judge</text>
</g>
<!-- 2808379735776&#45;&#45;2808205302656 -->
<g id="edge16" class="edge"><title>2808379735776&#45;&#45;2808205302656</title>
<path fill="none" stroke="black" d="M640.278,-216.765C651.585,-205.618 666.548,-190.865 677.94,-179.633"/>
</g>
<!-- 2808386709056 -->
<g id="node25" class="node"><title>2808386709056</title>
<ellipse fill="black" stroke="black" cx="702.811" cy="-450" rx="2.7" ry="2.7"/>
</g>
<!-- 2808386708672&#45;&#45;2808386709056 -->
<g id="edge22" class="edge"><title>2808386708672&#45;&#45;2808386709056</title>
<path fill="none" stroke="black" d="M702.811,-503.697C702.811,-485.883 702.811,-459.769 702.811,-452.776"/>
</g>
<!-- 2808386709536 -->
<g id="node26" class="node"><title>2808386709536</title>
<ellipse fill="none" stroke="black" cx="964.811" cy="-450" rx="46.6143" ry="18"/>
<text text-anchor="middle" x="964.811" y="-446.5" font-family="Times New Roman,serif" font-size="15.00">xor loop</text>
</g>
<!-- 2808386708672&#45;&#45;2808386709536 -->
<g id="edge41" class="edge"><title>2808386708672&#45;&#45;2808386709536</title>
<path fill="none" stroke="black" d="M727.459,-514.415C773.573,-502.094 873.129,-475.495 927.505,-460.967"/>
</g>
<!-- 2808387222016 -->
<g id="node27" class="node"><title>2808387222016</title>
<ellipse fill="none" stroke="black" cx="964.811" cy="-378" rx="27" ry="18"/>
<text text-anchor="middle" x="964.811" y="-374.5" font-family="Times New Roman,serif" font-size="15.00">seq</text>
</g>
<!-- 2808386709536&#45;&#45;2808387222016 -->
<g id="edge39" class="edge"><title>2808386709536&#45;&#45;2808387222016</title>
<path fill="none" stroke="black" d="M964.811,-431.697C964.811,-420.846 964.811,-406.917 964.811,-396.104"/>
</g>
<!-- 2808387220192 -->
<g id="node44" class="node"><title>2808387220192</title>
<ellipse fill="black" stroke="black" cx="1012.81" cy="-378" rx="2.7" ry="2.7"/>
</g>
<!-- 2808386709536&#45;&#45;2808387220192 -->
<g id="edge40" class="edge"><title>2808386709536&#45;&#45;2808387220192</title>
<path fill="none" stroke="black" d="M976.186,-432.411C988.385,-414.622 1006.67,-387.962 1011.57,-380.816"/>
</g>
<!-- 2808387222112 -->
<g id="node28" class="node"><title>2808387222112</title>
<ellipse fill="none" stroke="black" cx="964.811" cy="-306" rx="46.6143" ry="18"/>
<text text-anchor="middle" x="964.811" y="-302.5" font-family="Times New Roman,serif" font-size="15.00">xor loop</text>
</g>
<!-- 2808387222016&#45;&#45;2808387222112 -->
<g id="edge35" class="edge"><title>2808387222016&#45;&#45;2808387222112</title>
<path fill="none" stroke="black" d="M964.811,-359.697C964.811,-348.846 964.811,-334.917 964.811,-324.104"/>
</g>
<!-- 2808387221824 -->
<g id="node41" class="node"><title>2808387221824</title>
<ellipse fill="none" stroke="black" cx="1056.81" cy="-306" rx="27" ry="18"/>
<text text-anchor="middle" x="1056.81" y="-302.5" font-family="Times New Roman,serif" font-size="15.00">xor</text>
</g>
<!-- 2808387222016&#45;&#45;2808387221824 -->
<g id="edge38" class="edge"><title>2808387222016&#45;&#45;2808387221824</title>
<path fill="none" stroke="black" d="M982.116,-363.834C998.564,-351.319 1023.16,-332.603 1039.58,-320.107"/>
</g>
<!-- 2808387222976 -->
<g id="node29" class="node"><title>2808387222976</title>
<ellipse fill="none" stroke="black" cx="964.811" cy="-234" rx="27" ry="18"/>
<text text-anchor="middle" x="964.811" y="-230.5" font-family="Times New Roman,serif" font-size="15.00">xor</text>
</g>
<!-- 2808387222112&#45;&#45;2808387222976 -->
<g id="edge33" class="edge"><title>2808387222112&#45;&#45;2808387222976</title>
<path fill="none" stroke="black" d="M964.811,-287.697C964.811,-276.846 964.811,-262.917 964.811,-252.104"/>
</g>
<!-- 2808387220624 -->
<g id="node40" class="node"><title>2808387220624</title>
<ellipse fill="black" stroke="black" cx="1012.81" cy="-234" rx="2.7" ry="2.7"/>
</g>
<!-- 2808387222112&#45;&#45;2808387220624 -->
<g id="edge34" class="edge"><title>2808387222112&#45;&#45;2808387220624</title>
<path fill="none" stroke="black" d="M976.186,-288.411C988.385,-270.622 1006.67,-243.962 1011.57,-236.816"/>
</g>
<!-- 2808387222496 -->
<g id="node30" class="node"><title>2808387222496</title>
<ellipse fill="none" stroke="black" cx="852.811" cy="-162" rx="61.6894" ry="18"/>
<text text-anchor="middle" x="852.811" y="-158.5" font-family="Times New Roman,serif" font-size="15.00">Add penalty</text>
</g>
<!-- 2808387222976&#45;&#45;2808387222496 -->
<g id="edge23" class="edge"><title>2808387222976&#45;&#45;2808387222496</title>
<path fill="none" stroke="black" d="M945.812,-221.125C927.089,-209.424 898.377,-191.479 877.811,-178.625"/>
</g>
<!-- 2808387222880 -->
<g id="node31" class="node"><title>2808387222880</title>
<ellipse fill="none" stroke="black" cx="1076.81" cy="-162" rx="144.571" ry="18"/>
<text text-anchor="middle" x="1076.81" y="-158.5" font-family="Times New Roman,serif" font-size="15.00">Insert Date Appeal to Prefecture</text>
</g>
<!-- 2808387222976&#45;&#45;2808387222880 -->
<g id="edge24" class="edge"><title>2808387222976&#45;&#45;2808387222880</title>
<path fill="none" stroke="black" d="M983.81,-221.125C1001.91,-209.814 1029.34,-192.668 1049.73,-179.927"/>
</g>
<!-- 2808387220864 -->
<g id="node32" class="node"><title>2808387220864</title>
<ellipse fill="none" stroke="black" cx="1266.81" cy="-162" rx="27" ry="18"/>
<text text-anchor="middle" x="1266.81" y="-158.5" font-family="Times New Roman,serif" font-size="15.00">seq</text>
</g>
<!-- 2808387222976&#45;&#45;2808387220864 -->
<g id="edge32" class="edge"><title>2808387222976&#45;&#45;2808387220864</title>
<path fill="none" stroke="black" d="M990.04,-227.152C1046.89,-213.976 1184.46,-182.088 1241.44,-168.88"/>
</g>
<!-- 2808387223408 -->
<g id="node33" class="node"><title>2808387223408</title>
<ellipse fill="none" stroke="black" cx="1139.81" cy="-90" rx="27" ry="18"/>
<text text-anchor="middle" x="1139.81" y="-86.5" font-family="Times New Roman,serif" font-size="15.00">xor</text>
</g>
<!-- 2808387220864&#45;&#45;2808387223408 -->
<g id="edge28" class="edge"><title>2808387220864&#45;&#45;2808387223408</title>
<path fill="none" stroke="black" d="M1246.69,-149.908C1223.05,-136.878 1184.04,-115.379 1160.26,-102.272"/>
</g>
<!-- 2808387220960 -->
<g id="node37" class="node"><title>2808387220960</title>
<ellipse fill="none" stroke="black" cx="1519.81" cy="-90" rx="27" ry="18"/>
<text text-anchor="middle" x="1519.81" y="-86.5" font-family="Times New Roman,serif" font-size="15.00">xor</text>
</g>
<!-- 2808387220864&#45;&#45;2808387220960 -->
<g id="edge31" class="edge"><title>2808387220864&#45;&#45;2808387220960</title>
<path fill="none" stroke="black" d="M1291.53,-154.161C1340.02,-140.744 1447.09,-111.12 1495.36,-97.7641"/>
</g>
<!-- 2808387222784 -->
<g id="node34" class="node"><title>2808387222784</title>
<ellipse fill="none" stroke="black" cx="796.811" cy="-18" rx="78.5434" ry="18"/>
<text text-anchor="middle" x="796.811" y="-14.5" font-family="Times New Roman,serif" font-size="15.00">Appeal to Judge</text>
</g>
<!-- 2808387223408&#45;&#45;2808387222784 -->
<g id="edge25" class="edge"><title>2808387223408&#45;&#45;2808387222784</title>
<path fill="none" stroke="black" d="M1114.31,-83.7958C1059.43,-72.5952 928.98,-45.9733 853.475,-30.5641"/>
</g>
<!-- 2808387220816 -->
<g id="node35" class="node"><title>2808387220816</title>
<ellipse fill="none" stroke="black" cx="1013.81" cy="-18" rx="120.43" ry="18"/>
<text text-anchor="middle" x="1013.81" y="-14.5" font-family="Times New Roman,serif" font-size="15.00">Send Appeal to Prefecture</text>
</g>
<!-- 2808387223408&#45;&#45;2808387220816 -->
<g id="edge26" class="edge"><title>2808387223408&#45;&#45;2808387220816</title>
<path fill="none" stroke="black" d="M1119.57,-77.7533C1099.11,-66.391 1067.28,-48.705 1043.88,-35.7042"/>
</g>
<!-- 2808387222208 -->
<g id="node36" class="node"><title>2808387222208</title>
<ellipse fill="none" stroke="black" cx="1325.81" cy="-18" rx="173.941" ry="18"/>
<text text-anchor="middle" x="1325.81" y="-14.5" font-family="Times New Roman,serif" font-size="15.00">Receive Result Appeal from Prefecture</text>
</g>
<!-- 2808387223408&#45;&#45;2808387222208 -->
<g id="edge27" class="edge"><title>2808387223408&#45;&#45;2808387222208</title>
<path fill="none" stroke="black" d="M1162.99,-80.276C1192.69,-69.0978 1244.79,-49.4928 1282.05,-35.4675"/>
</g>
<!-- 2808379734816 -->
<g id="node38" class="node"><title>2808379734816</title>
<ellipse fill="black" stroke="black" cx="1519.81" cy="-18" rx="2.7" ry="2.7"/>
</g>
<!-- 2808387220960&#45;&#45;2808379734816 -->
<g id="edge29" class="edge"><title>2808387220960&#45;&#45;2808379734816</title>
<path fill="none" stroke="black" d="M1519.81,-71.6966C1519.81,-53.8826 1519.81,-27.7686 1519.81,-20.7764"/>
</g>
<!-- 2808379732848 -->
<g id="node39" class="node"><title>2808379732848</title>
<ellipse fill="none" stroke="black" cx="1688.81" cy="-18" rx="148.91" ry="18"/>
<text text-anchor="middle" x="1688.81" y="-14.5" font-family="Times New Roman,serif" font-size="15.00">Notify Result Appeal to Offender</text>
</g>
<!-- 2808387220960&#45;&#45;2808379732848 -->
<g id="edge30" class="edge"><title>2808387220960&#45;&#45;2808379732848</title>
<path fill="none" stroke="black" d="M1542.25,-79.7045C1569.46,-68.4359 1615.79,-49.2446 1649.09,-35.4544"/>
</g>
<!-- 2808387219664 -->
<g id="node42" class="node"><title>2808387219664</title>
<ellipse fill="black" stroke="black" cx="1045.81" cy="-234" rx="2.7" ry="2.7"/>
</g>
<!-- 2808387221824&#45;&#45;2808387219664 -->
<g id="edge36" class="edge"><title>2808387221824&#45;&#45;2808387219664</title>
<path fill="none" stroke="black" d="M1054.15,-288.055C1051.35,-270.252 1047.2,-243.865 1046.09,-236.796"/>
</g>
<!-- 2808387221248 -->
<g id="node43" class="node"><title>2808387221248</title>
<ellipse fill="none" stroke="black" cx="1187.81" cy="-234" rx="120.819" ry="18"/>
<text text-anchor="middle" x="1187.81" y="-230.5" font-family="Times New Roman,serif" font-size="15.00">Send for Credit Collection</text>
</g>
<!-- 2808387221824&#45;&#45;2808387221248 -->
<g id="edge37" class="edge"><title>2808387221824&#45;&#45;2808387221248</title>
<path fill="none" stroke="black" d="M1077.28,-294.063C1098.58,-282.681 1132.19,-264.719 1156.77,-251.589"/>
</g>
<!-- 2808387222640 -->
<g id="node46" class="node"><title>2808387222640</title>
<ellipse fill="black" stroke="black" cx="762.811" cy="-522" rx="2.7" ry="2.7"/>
</g>
<!-- 2808389634608&#45;&#45;2808387222640 -->
<g id="edge44" class="edge"><title>2808389634608&#45;&#45;2808387222640</title>
<path fill="none" stroke="black" d="M767.328,-575.697C765.801,-557.883 763.563,-531.769 762.963,-524.776"/>
</g>
<!-- 2808387223312 -->
<g id="node47" class="node"><title>2808387223312</title>
<ellipse fill="none" stroke="black" cx="861.811" cy="-522" rx="78.5434" ry="18"/>
<text text-anchor="middle" x="861.811" y="-518.5" font-family="Times New Roman,serif" font-size="15.00">Appeal to Judge</text>
</g>
<!-- 2808389634608&#45;&#45;2808387223312 -->
<g id="edge45" class="edge"><title>2808389634608&#45;&#45;2808387223312</title>
<path fill="none" stroke="black" d="M786.304,-579.834C801.563,-568.348 823.76,-551.641 840.141,-539.311"/>
</g>
</g>
</svg>
