<?xml version="1.0" encoding="UTF-8" standalone="no"?>
<!DOCTYPE svg PUBLIC "-//W3C//DTD SVG 1.1//EN"
 "http://www.w3.org/Graphics/SVG/1.1/DTD/svg11.dtd">
<!-- Generated by graphviz version 2.38.0 (20140413.2041)
 -->
<!-- Title: pt Pages: 1 -->
<svg width="1592pt" height="692pt"
 viewBox="0.00 0.00 1592.35 692.00" xmlns="http://www.w3.org/2000/svg" xmlns:xlink="http://www.w3.org/1999/xlink">
<g id="graph0" class="graph" transform="scale(1 1) rotate(0) translate(4 688)">
<title>pt</title>
<!-- 2808206511504 -->
<g id="node1" class="node"><title>2808206511504</title>
<ellipse fill="none" stroke="black" cx="528.811" cy="-666" rx="27" ry="18"/>
<text text-anchor="middle" x="528.811" y="-662.5" font-family="Times New Roman,serif" font-size="15.00">seq</text>
</g>
<!-- 2808206510736 -->
<g id="node2" class="node"><title>2808206510736</title>
<ellipse fill="none" stroke="black" cx="423.811" cy="-594" rx="59.5207" ry="18"/>
<text text-anchor="middle" x="423.811" y="-590.5" font-family="Times New Roman,serif" font-size="15.00">Create Fine</text>
</g>
<!-- 2808206511504&#45;&#45;2808206510736 -->
<g id="edge1" class="edge"><title>2808206511504&#45;&#45;2808206510736</title>
<path fill="none" stroke="black" d="M510.039,-652.485C492.461,-640.767 466.134,-623.215 447.198,-610.591"/>
</g>
<!-- 2808365041456 -->
<g id="node3" class="node"><title>2808365041456</title>
<ellipse fill="none" stroke="black" cx="528.811" cy="-594" rx="27" ry="18"/>
<text text-anchor="middle" x="528.811" y="-590.5" font-family="Times New Roman,serif" font-size="15.00">and</text>
</g>
<!-- 2808206511504&#45;&#45;2808365041456 -->
<g id="edge45" class="edge"><title>2808206511504&#45;&#45;2808365041456</title>
<path fill="none" stroke="black" d="M528.811,-647.697C528.811,-636.846 528.811,-622.917 528.811,-612.104"/>
</g>
<!-- 2808365041168 -->
<g id="node47" class="node"><title>2808365041168</title>
<ellipse fill="none" stroke="black" cx="600.811" cy="-594" rx="27" ry="18"/>
<text text-anchor="middle" x="600.811" y="-590.5" font-family="Times New Roman,serif" font-size="15.00">xor</text>
</g>
<!-- 2808206511504&#45;&#45;2808365041168 -->
<g id="edge48" class="edge"><title>2808206511504&#45;&#45;2808365041168</title>
<path fill="none" stroke="black" d="M543.381,-650.834C555.791,-638.77 573.542,-621.512 586.015,-609.385"/>
</g>
<!-- 2808365041264 -->
<g id="node4" class="node"><title>2808365041264</title>
<ellipse fill="none" stroke="black" cx="305.811" cy="-522" rx="27" ry="18"/>
<text text-anchor="middle" x="305.811" y="-518.5" font-family="Times New Roman,serif" font-size="15.00">and</text>
</g>
<!-- 2808365041456&#45;&#45;2808365041264 -->
<g id="edge21" class="edge"><title>2808365041456&#45;&#45;2808365041264</title>
<path fill="none" stroke="black" d="M504.946,-585.509C462.137,-572.071 372.77,-544.018 329.841,-530.543"/>
</g>
<!-- 2808365040160 -->
<g id="node24" class="node"><title>2808365040160</title>
<ellipse fill="none" stroke="black" cx="534.811" cy="-522" rx="27" ry="18"/>
<text text-anchor="middle" x="534.811" y="-518.5" font-family="Times New Roman,serif" font-size="15.00">xor</text>
</g>
<!-- 2808365041456&#45;&#45;2808365040160 -->
<g id="edge44" class="edge"><title>2808365041456&#45;&#45;2808365040160</title>
<path fill="none" stroke="black" d="M530.294,-575.697C531.224,-564.846 532.418,-550.917 533.345,-540.104"/>
</g>
<!-- 2808365041984 -->
<g id="node5" class="node"><title>2808365041984</title>
<ellipse fill="none" stroke="black" cx="164.811" cy="-450" rx="46.6143" ry="18"/>
<text text-anchor="middle" x="164.811" y="-446.5" font-family="Times New Roman,serif" font-size="15.00">xor loop</text>
</g>
<!-- 2808365041264&#45;&#45;2808365041984 -->
<g id="edge4" class="edge"><title>2808365041264&#45;&#45;2808365041984</title>
<path fill="none" stroke="black" d="M284.702,-510.52C260.118,-498.316 219.432,-478.117 192.374,-464.684"/>
</g>
<!-- 2808365039920 -->
<g id="node8" class="node"><title>2808365039920</title>
<ellipse fill="none" stroke="black" cx="305.811" cy="-450" rx="27" ry="18"/>
<text text-anchor="middle" x="305.811" y="-446.5" font-family="Times New Roman,serif" font-size="15.00">xor</text>
</g>
<!-- 2808365041264&#45;&#45;2808365039920 -->
<g id="edge20" class="edge"><title>2808365041264&#45;&#45;2808365039920</title>
<path fill="none" stroke="black" d="M305.811,-503.697C305.811,-492.846 305.811,-478.917 305.811,-468.104"/>
</g>
<!-- 2808365169728 -->
<g id="node6" class="node"><title>2808365169728</title>
<ellipse fill="black" stroke="black" cx="97.8111" cy="-378" rx="2.7" ry="2.7"/>
</g>
<!-- 2808365041984&#45;&#45;2808365169728 -->
<g id="edge2" class="edge"><title>2808365041984&#45;&#45;2808365169728</title>
<path fill="none" stroke="black" d="M149.272,-432.765C131.953,-414.671 105.542,-387.078 99.2104,-380.462"/>
</g>
<!-- 2808365201056 -->
<g id="node7" class="node"><title>2808365201056</title>
<ellipse fill="none" stroke="black" cx="164.811" cy="-378" rx="45.7249" ry="18"/>
<text text-anchor="middle" x="164.811" y="-374.5" font-family="Times New Roman,serif" font-size="15.00">Payment</text>
</g>
<!-- 2808365041984&#45;&#45;2808365201056 -->
<g id="edge3" class="edge"><title>2808365041984&#45;&#45;2808365201056</title>
<path fill="none" stroke="black" d="M164.811,-431.697C164.811,-420.846 164.811,-406.917 164.811,-396.104"/>
</g>
<!-- 2808365200672 -->
<g id="node9" class="node"><title>2808365200672</title>
<ellipse fill="black" stroke="black" cx="231.811" cy="-378" rx="2.7" ry="2.7"/>
</g>
<!-- 2808365039920&#45;&#45;2808365200672 -->
<g id="edge5" class="edge"><title>2808365039920&#45;&#45;2808365200672</title>
<path fill="none" stroke="black" d="M290.836,-434.834C271.916,-416.937 240.915,-387.612 233.46,-380.56"/>
</g>
<!-- 2808378108128 -->
<g id="node10" class="node"><title>2808378108128</title>
<ellipse fill="none" stroke="black" cx="305.811" cy="-378" rx="52.6228" ry="18"/>
<text text-anchor="middle" x="305.811" y="-374.5" font-family="Times New Roman,serif" font-size="15.00">Send Fine</text>
</g>
<!-- 2808365039920&#45;&#45;2808378108128 -->
<g id="edge6" class="edge"><title>2808365039920&#45;&#45;2808378108128</title>
<path fill="none" stroke="black" d="M305.811,-431.697C305.811,-420.846 305.811,-406.917 305.811,-396.104"/>
</g>
<!-- 2808378107456 -->
<g id="node11" class="node"><title>2808378107456</title>
<ellipse fill="none" stroke="black" cx="403.811" cy="-378" rx="27" ry="18"/>
<text text-anchor="middle" x="403.811" y="-374.5" font-family="Times New Roman,serif" font-size="15.00">seq</text>
</g>
<!-- 2808365039920&#45;&#45;2808378107456 -->
<g id="edge19" class="edge"><title>2808365039920&#45;&#45;2808378107456</title>
<path fill="none" stroke="black" d="M323.786,-436.161C341.468,-423.531 368.307,-404.36 385.95,-391.758"/>
</g>
<!-- 2808205560512 -->
<g id="node12" class="node"><title>2808205560512</title>
<ellipse fill="none" stroke="black" cx="52.8111" cy="-306" rx="52.6228" ry="18"/>
<text text-anchor="middle" x="52.8111" y="-302.5" font-family="Times New Roman,serif" font-size="15.00">Send Fine</text>
</g>
<!-- 2808378107456&#45;&#45;2808205560512 -->
<g id="edge7" class="edge"><title>2808378107456&#45;&#45;2808205560512</title>
<path fill="none" stroke="black" d="M378.285,-371.909C319.048,-360.096 171.636,-330.697 97.2456,-315.862"/>
</g>
<!-- 2808205559600 -->
<g id="node13" class="node"><title>2808205559600</title>
<ellipse fill="none" stroke="black" cx="231.811" cy="-306" rx="107.914" ry="18"/>
<text text-anchor="middle" x="231.811" y="-302.5" font-family="Times New Roman,serif" font-size="15.00">Insert Fine Notification</text>
</g>
<!-- 2808378107456&#45;&#45;2808205559600 -->
<g id="edge8" class="edge"><title>2808378107456&#45;&#45;2808205559600</title>
<path fill="none" stroke="black" d="M381.325,-367.849C353.279,-356.434 304.87,-336.733 270.746,-322.846"/>
</g>
<!-- 2808205560704 -->
<g id="node14" class="node"><title>2808205560704</title>
<ellipse fill="none" stroke="black" cx="403.811" cy="-306" rx="46.6143" ry="18"/>
<text text-anchor="middle" x="403.811" y="-302.5" font-family="Times New Roman,serif" font-size="15.00">xor loop</text>
</g>
<!-- 2808378107456&#45;&#45;2808205560704 -->
<g id="edge11" class="edge"><title>2808378107456&#45;&#45;2808205560704</title>
<path fill="none" stroke="black" d="M403.811,-359.697C403.811,-348.846 403.811,-334.917 403.811,-324.104"/>
</g>
<!-- 2808205561760 -->
<g id="node17" class="node"><title>2808205561760</title>
<ellipse fill="none" stroke="black" cx="512.811" cy="-306" rx="27" ry="18"/>
<text text-anchor="middle" x="512.811" y="-302.5" font-family="Times New Roman,serif" font-size="15.00">and</text>
</g>
<!-- 2808378107456&#45;&#45;2808205561760 -->
<g id="edge18" class="edge"><title>2808378107456&#45;&#45;2808205561760</title>
<path fill="none" stroke="black" d="M422.797,-364.807C442.804,-351.959 474.119,-331.848 494.042,-319.053"/>
</g>
<!-- 2808395778944 -->
<g id="node15" class="node"><title>2808395778944</title>
<ellipse fill="black" stroke="black" cx="303.811" cy="-234" rx="2.7" ry="2.7"/>
</g>
<!-- 2808205560704&#45;&#45;2808395778944 -->
<g id="edge9" class="edge"><title>2808205560704&#45;&#45;2808395778944</title>
<path fill="none" stroke="black" d="M382.113,-289.811C355.919,-271.475 314.273,-242.323 305.476,-236.166"/>
</g>
<!-- 2808365050032 -->
<g id="node16" class="node"><title>2808365050032</title>
<ellipse fill="none" stroke="black" cx="386.811" cy="-234" rx="61.6894" ry="18"/>
<text text-anchor="middle" x="386.811" y="-230.5" font-family="Times New Roman,serif" font-size="15.00">Add penalty</text>
</g>
<!-- 2808205560704&#45;&#45;2808365050032 -->
<g id="edge10" class="edge"><title>2808205560704&#45;&#45;2808365050032</title>
<path fill="none" stroke="black" d="M399.696,-288.055C397.062,-277.211 393.655,-263.183 391.006,-252.275"/>
</g>
<!-- 2808365048400 -->
<g id="node18" class="node"><title>2808365048400</title>
<ellipse fill="none" stroke="black" cx="512.811" cy="-234" rx="46.6143" ry="18"/>
<text text-anchor="middle" x="512.811" y="-230.5" font-family="Times New Roman,serif" font-size="15.00">xor loop</text>
</g>
<!-- 2808205561760&#45;&#45;2808365048400 -->
<g id="edge14" class="edge"><title>2808205561760&#45;&#45;2808365048400</title>
<path fill="none" stroke="black" d="M512.811,-287.697C512.811,-276.846 512.811,-262.917 512.811,-252.104"/>
</g>
<!-- 2808365049792 -->
<g id="node21" class="node"><title>2808365049792</title>
<ellipse fill="none" stroke="black" cx="623.811" cy="-234" rx="46.6143" ry="18"/>
<text text-anchor="middle" x="623.811" y="-230.5" font-family="Times New Roman,serif" font-size="15.00">xor loop</text>
</g>
<!-- 2808205561760&#45;&#45;2808365049792 -->
<g id="edge17" class="edge"><title>2808205561760&#45;&#45;2808365049792</title>
<path fill="none" stroke="black" d="M531.893,-292.967C550.86,-281.005 579.988,-262.636 600.357,-249.791"/>
</g>
<!-- 2808371371648 -->
<g id="node19" class="node"><title>2808371371648</title>
<ellipse fill="black" stroke="black" cx="429.811" cy="-162" rx="2.7" ry="2.7"/>
</g>
<!-- 2808365048400&#45;&#45;2808371371648 -->
<g id="edge12" class="edge"><title>2808365048400&#45;&#45;2808371371648</title>
<path fill="none" stroke="black" d="M494.391,-217.465C472.995,-199.42 439.598,-171.254 431.583,-164.494"/>
</g>
<!-- 2808371368384 -->
<g id="node20" class="node"><title>2808371368384</title>
<ellipse fill="none" stroke="black" cx="512.811" cy="-162" rx="61.6894" ry="18"/>
<text text-anchor="middle" x="512.811" y="-158.5" font-family="Times New Roman,serif" font-size="15.00">Add Penalty</text>
</g>
<!-- 2808365048400&#45;&#45;2808371368384 -->
<g id="edge13" class="edge"><title>2808365048400&#45;&#45;2808371368384</title>
<path fill="none" stroke="black" d="M512.811,-215.697C512.811,-204.846 512.811,-190.917 512.811,-180.104"/>
</g>
<!-- 2808365048544 -->
<g id="node22" class="node"><title>2808365048544</title>
<ellipse fill="black" stroke="black" cx="595.811" cy="-162" rx="2.7" ry="2.7"/>
</g>
<!-- 2808365049792&#45;&#45;2808365048544 -->
<g id="edge15" class="edge"><title>2808365049792&#45;&#45;2808365048544</title>
<path fill="none" stroke="black" d="M617.033,-216.055C609.912,-198.252 599.357,-171.865 596.53,-164.796"/>
</g>
<!-- 2808387396128 -->
<g id="node23" class="node"><title>2808387396128</title>
<ellipse fill="none" stroke="black" cx="694.811" cy="-162" rx="78.5434" ry="18"/>
<text text-anchor="middle" x="694.811" y="-158.5" font-family="Times New Roman,serif" font-size="15.00">Appeal to Judge</text>
</g>
<!-- 2808365049792&#45;&#45;2808387396128 -->
<g id="edge16" class="edge"><title>2808365049792&#45;&#45;2808387396128</title>
<path fill="none" stroke="black" d="M640.278,-216.765C651.585,-205.618 666.548,-190.865 677.94,-179.633"/>
</g>
<!-- 2808365043616 -->
<g id="node25" class="node"><title>2808365043616</title>
<ellipse fill="black" stroke="black" cx="534.811" cy="-450" rx="2.7" ry="2.7"/>
</g>
<!-- 2808365040160&#45;&#45;2808365043616 -->
<g id="edge22" class="edge"><title>2808365040160&#45;&#45;2808365043616</title>
<path fill="none" stroke="black" d="M534.811,-503.697C534.811,-485.883 534.811,-459.769 534.811,-452.776"/>
</g>
<!-- 2808365043040 -->
<g id="node26" class="node"><title>2808365043040</title>
<ellipse fill="none" stroke="black" cx="641.811" cy="-450" rx="27" ry="18"/>
<text text-anchor="middle" x="641.811" y="-446.5" font-family="Times New Roman,serif" font-size="15.00">seq</text>
</g>
<!-- 2808365040160&#45;&#45;2808365043040 -->
<g id="edge43" class="edge"><title>2808365040160&#45;&#45;2808365043040</title>
<path fill="none" stroke="black" d="M553.449,-508.807C572.968,-496.037 603.454,-476.093 623.028,-463.288"/>
</g>
<!-- 2808365042944 -->
<g id="node27" class="node"><title>2808365042944</title>
<ellipse fill="none" stroke="black" cx="641.811" cy="-378" rx="27" ry="18"/>
<text text-anchor="middle" x="641.811" y="-374.5" font-family="Times New Roman,serif" font-size="15.00">xor</text>
</g>
<!-- 2808365043040&#45;&#45;2808365042944 -->
<g id="edge25" class="edge"><title>2808365043040&#45;&#45;2808365042944</title>
<path fill="none" stroke="black" d="M641.811,-431.697C641.811,-420.846 641.811,-406.917 641.811,-396.104"/>
</g>
<!-- 2808365042272 -->
<g id="node30" class="node"><title>2808365042272</title>
<ellipse fill="none" stroke="black" cx="854.811" cy="-378" rx="27" ry="18"/>
<text text-anchor="middle" x="854.811" y="-374.5" font-family="Times New Roman,serif" font-size="15.00">xor</text>
</g>
<!-- 2808365043040&#45;&#45;2808365042272 -->
<g id="edge42" class="edge"><title>2808365043040&#45;&#45;2808365042272</title>
<path fill="none" stroke="black" d="M665.42,-441.241C706.363,-427.786 790.08,-400.273 831.097,-386.793"/>
</g>
<!-- 2808365039824 -->
<g id="node28" class="node"><title>2808365039824</title>
<ellipse fill="black" stroke="black" cx="592.811" cy="-306" rx="2.7" ry="2.7"/>
</g>
<!-- 2808365042944&#45;&#45;2808365039824 -->
<g id="edge23" class="edge"><title>2808365042944&#45;&#45;2808365039824</title>
<path fill="none" stroke="black" d="M630.936,-361.465C618.305,-343.42 598.589,-315.254 593.857,-308.494"/>
</g>
<!-- 2808365043664 -->
<g id="node29" class="node"><title>2808365043664</title>
<ellipse fill="none" stroke="black" cx="691.811" cy="-306" rx="78.5434" ry="18"/>
<text text-anchor="middle" x="691.811" y="-302.5" font-family="Times New Roman,serif" font-size="15.00">Appeal to Judge</text>
</g>
<!-- 2808365042944&#45;&#45;2808365043664 -->
<g id="edge24" class="edge"><title>2808365042944&#45;&#45;2808365043664</title>
<path fill="none" stroke="black" d="M652.908,-361.465C660.848,-350.348 671.533,-335.39 679.695,-323.962"/>
</g>
<!-- 2808365166704 -->
<g id="node31" class="node"><title>2808365166704</title>
<ellipse fill="black" stroke="black" cx="854.811" cy="-306" rx="2.7" ry="2.7"/>
</g>
<!-- 2808365042272&#45;&#45;2808365166704 -->
<g id="edge26" class="edge"><title>2808365042272&#45;&#45;2808365166704</title>
<path fill="none" stroke="black" d="M854.811,-359.697C854.811,-341.883 854.811,-315.769 854.811,-308.776"/>
</g>
<!-- 2808365167760 -->
<g id="node32" class="node"><title>2808365167760</title>
<ellipse fill="none" stroke="black" cx="918.811" cy="-306" rx="27" ry="18"/>
<text text-anchor="middle" x="918.811" y="-302.5" font-family="Times New Roman,serif" font-size="15.00">and</text>
</g>
<!-- 2808365042272&#45;&#45;2808365167760 -->
<g id="edge41" class="edge"><title>2808365042272&#45;&#45;2808365167760</title>
<path fill="none" stroke="black" d="M868.384,-362.155C879.245,-350.276 894.402,-333.697 905.258,-321.824"/>
</g>
<!-- 2808365167424 -->
<g id="node33" class="node"><title>2808365167424</title>
<ellipse fill="none" stroke="black" cx="918.811" cy="-234" rx="27" ry="18"/>
<text text-anchor="middle" x="918.811" y="-230.5" font-family="Times New Roman,serif" font-size="15.00">xor</text>
</g>
<!-- 2808365167760&#45;&#45;2808365167424 -->
<g id="edge29" class="edge"><title>2808365167760&#45;&#45;2808365167424</title>
<path fill="none" stroke="black" d="M918.811,-287.697C918.811,-276.846 918.811,-262.917 918.811,-252.104"/>
</g>
<!-- 2808365166896 -->
<g id="node36" class="node"><title>2808365166896</title>
<ellipse fill="none" stroke="black" cx="1119.81" cy="-234" rx="27" ry="18"/>
<text text-anchor="middle" x="1119.81" y="-230.5" font-family="Times New Roman,serif" font-size="15.00">seq</text>
</g>
<!-- 2808365167760&#45;&#45;2808365166896 -->
<g id="edge40" class="edge"><title>2808365167760&#45;&#45;2808365166896</title>
<path fill="none" stroke="black" d="M942.262,-296.833C980.992,-283.345 1057.88,-256.569 1096.51,-243.115"/>
</g>
<!-- 2808365202928 -->
<g id="node34" class="node"><title>2808365202928</title>
<ellipse fill="black" stroke="black" cx="793.811" cy="-162" rx="2.7" ry="2.7"/>
</g>
<!-- 2808365167424&#45;&#45;2808365202928 -->
<g id="edge27" class="edge"><title>2808365167424&#45;&#45;2808365202928</title>
<path fill="none" stroke="black" d="M898.728,-221.753C866.982,-203.976 807.592,-170.717 795.855,-164.145"/>
</g>
<!-- 2808365200960 -->
<g id="node35" class="node"><title>2808365200960</title>
<ellipse fill="none" stroke="black" cx="934.811" cy="-162" rx="120.43" ry="18"/>
<text text-anchor="middle" x="934.811" y="-158.5" font-family="Times New Roman,serif" font-size="15.00">Send Appeal to Prefecture</text>
</g>
<!-- 2808365167424&#45;&#45;2808365200960 -->
<g id="edge28" class="edge"><title>2808365167424&#45;&#45;2808365200960</title>
<path fill="none" stroke="black" d="M922.684,-216.055C925.163,-205.211 928.369,-191.183 930.862,-180.275"/>
</g>
<!-- 2808365201920 -->
<g id="node37" class="node"><title>2808365201920</title>
<ellipse fill="none" stroke="black" cx="1119.81" cy="-162" rx="46.6143" ry="18"/>
<text text-anchor="middle" x="1119.81" y="-158.5" font-family="Times New Roman,serif" font-size="15.00">xor loop</text>
</g>
<!-- 2808365166896&#45;&#45;2808365201920 -->
<g id="edge36" class="edge"><title>2808365166896&#45;&#45;2808365201920</title>
<path fill="none" stroke="black" d="M1119.81,-215.697C1119.81,-204.846 1119.81,-190.917 1119.81,-180.104"/>
</g>
<!-- 2808365200912 -->
<g id="node44" class="node"><title>2808365200912</title>
<ellipse fill="none" stroke="black" cx="1211.81" cy="-162" rx="27" ry="18"/>
<text text-anchor="middle" x="1211.81" y="-158.5" font-family="Times New Roman,serif" font-size="15.00">xor</text>
</g>
<!-- 2808365166896&#45;&#45;2808365200912 -->
<g id="edge39" class="edge"><title>2808365166896&#45;&#45;2808365200912</title>
<path fill="none" stroke="black" d="M1137.12,-219.834C1153.56,-207.319 1178.16,-188.603 1194.58,-176.107"/>
</g>
<!-- 2808365199760 -->
<g id="node38" class="node"><title>2808365199760</title>
<ellipse fill="none" stroke="black" cx="1088.81" cy="-90" rx="27" ry="18"/>
<text text-anchor="middle" x="1088.81" y="-86.5" font-family="Times New Roman,serif" font-size="15.00">xor</text>
</g>
<!-- 2808365201920&#45;&#45;2808365199760 -->
<g id="edge34" class="edge"><title>2808365201920&#45;&#45;2808365199760</title>
<path fill="none" stroke="black" d="M1112.31,-144.055C1107.43,-133.049 1101.11,-118.764 1096.25,-107.789"/>
</g>
<!-- 2808365203120 -->
<g id="node43" class="node"><title>2808365203120</title>
<ellipse fill="black" stroke="black" cx="1136.81" cy="-90" rx="2.7" ry="2.7"/>
</g>
<!-- 2808365201920&#45;&#45;2808365203120 -->
<g id="edge35" class="edge"><title>2808365201920&#45;&#45;2808365203120</title>
<path fill="none" stroke="black" d="M1123.93,-144.055C1128.25,-126.252 1134.66,-99.8653 1136.37,-92.7963"/>
</g>
<!-- 2808365200528 -->
<g id="node39" class="node"><title>2808365200528</title>
<ellipse fill="none" stroke="black" cx="621.811" cy="-18" rx="148.91" ry="18"/>
<text text-anchor="middle" x="621.811" y="-14.5" font-family="Times New Roman,serif" font-size="15.00">Notify Result Appeal to Offender</text>
</g>
<!-- 2808365199760&#45;&#45;2808365200528 -->
<g id="edge30" class="edge"><title>2808365199760&#45;&#45;2808365200528</title>
<path fill="none" stroke="black" d="M1062.7,-85.0865C996.529,-75.1676 819.801,-48.6773 711.251,-32.4064"/>
</g>
<!-- 2808365200624 -->
<g id="node40" class="node"><title>2808365200624</title>
<ellipse fill="none" stroke="black" cx="961.811" cy="-18" rx="173.941" ry="18"/>
<text text-anchor="middle" x="961.811" y="-14.5" font-family="Times New Roman,serif" font-size="15.00">Receive Result Appeal from Prefecture</text>
</g>
<!-- 2808365199760&#45;&#45;2808365200624 -->
<g id="edge31" class="edge"><title>2808365199760&#45;&#45;2808365200624</title>
<path fill="none" stroke="black" d="M1068.69,-77.9083C1048.12,-66.5743 1015.94,-48.833 992.255,-35.78"/>
</g>
<!-- 2808365201776 -->
<g id="node41" class="node"><title>2808365201776</title>
<ellipse fill="none" stroke="black" cx="1215.81" cy="-18" rx="61.6894" ry="18"/>
<text text-anchor="middle" x="1215.81" y="-14.5" font-family="Times New Roman,serif" font-size="15.00">Add penalty</text>
</g>
<!-- 2808365199760&#45;&#45;2808365201776 -->
<g id="edge32" class="edge"><title>2808365199760&#45;&#45;2808365201776</title>
<path fill="none" stroke="black" d="M1108.93,-77.9083C1130.34,-66.1117 1164.33,-47.3741 1188.22,-34.2058"/>
</g>
<!-- 2808365199808 -->
<g id="node42" class="node"><title>2808365199808</title>
<ellipse fill="none" stroke="black" cx="1439.81" cy="-18" rx="144.571" ry="18"/>
<text text-anchor="middle" x="1439.81" y="-14.5" font-family="Times New Roman,serif" font-size="15.00">Insert Date Appeal to Prefecture</text>
</g>
<!-- 2808365199760&#45;&#45;2808365199808 -->
<g id="edge33" class="edge"><title>2808365199760&#45;&#45;2808365199808</title>
<path fill="none" stroke="black" d="M1114.34,-83.9094C1166.71,-73.4642 1288.02,-49.2726 1366.83,-33.5539"/>
</g>
<!-- 2808365201248 -->
<g id="node45" class="node"><title>2808365201248</title>
<ellipse fill="black" stroke="black" cx="1193.81" cy="-90" rx="2.7" ry="2.7"/>
</g>
<!-- 2808365200912&#45;&#45;2808365201248 -->
<g id="edge37" class="edge"><title>2808365200912&#45;&#45;2808365201248</title>
<path fill="none" stroke="black" d="M1207.45,-144.055C1202.88,-126.252 1196.09,-99.8653 1194.27,-92.7963"/>
</g>
<!-- 2808378106160 -->
<g id="node46" class="node"><title>2808378106160</title>
<ellipse fill="none" stroke="black" cx="1335.81" cy="-90" rx="120.819" ry="18"/>
<text text-anchor="middle" x="1335.81" y="-86.5" font-family="Times New Roman,serif" font-size="15.00">Send for Credit Collection</text>
</g>
<!-- 2808365200912&#45;&#45;2808378106160 -->
<g id="edge38" class="edge"><title>2808365200912&#45;&#45;2808378106160</title>
<path fill="none" stroke="black" d="M1231.73,-149.753C1251.86,-138.391 1283.19,-120.705 1306.22,-107.704"/>
</g>
<!-- 2808365167232 -->
<g id="node48" class="node"><title>2808365167232</title>
<ellipse fill="black" stroke="black" cx="594.811" cy="-522" rx="2.7" ry="2.7"/>
</g>
<!-- 2808365041168&#45;&#45;2808365167232 -->
<g id="edge46" class="edge"><title>2808365041168&#45;&#45;2808365167232</title>
<path fill="none" stroke="black" d="M599.328,-575.697C597.801,-557.883 595.563,-531.769 594.963,-524.776"/>
</g>
<!-- 2808365200576 -->
<g id="node49" class="node"><title>2808365200576</title>
<ellipse fill="none" stroke="black" cx="693.811" cy="-522" rx="78.5434" ry="18"/>
<text text-anchor="middle" x="693.811" y="-518.5" font-family="Times New Roman,serif" font-size="15.00">Appeal to Judge</text>
</g>
<!-- 2808365041168&#45;&#45;2808365200576 -->
<g id="edge47" class="edge"><title>2808365041168&#45;&#45;2808365200576</title>
<path fill="none" stroke="black" d="M618.304,-579.834C633.563,-568.348 655.76,-551.641 672.141,-539.311"/>
</g>
</g>
</svg>
