<?xml version="1.0" encoding="UTF-8" standalone="no"?>
<!DOCTYPE svg PUBLIC "-//W3C//DTD SVG 1.1//EN"
 "http://www.w3.org/Graphics/SVG/1.1/DTD/svg11.dtd">
<!-- Generated by graphviz version 2.38.0 (20140413.2041)
 -->
<!-- Title: pt Pages: 1 -->
<svg width="847pt" height="476pt"
 viewBox="0.00 0.00 847.28 476.00" xmlns="http://www.w3.org/2000/svg" xmlns:xlink="http://www.w3.org/1999/xlink">
<g id="graph0" class="graph" transform="scale(1 1) rotate(0) translate(4 472)">
<title>pt</title>
<!-- 2808207621520 -->
<g id="node1" class="node"><title>2808207621520</title>
<ellipse fill="none" stroke="black" cx="164.76" cy="-450" rx="27" ry="18"/>
<text text-anchor="middle" x="164.76" y="-446.5" font-family="Times New Roman,serif" font-size="15.00">seq</text>
</g>
<!-- 2808207621808 -->
<g id="node2" class="node"><title>2808207621808</title>
<ellipse fill="none" stroke="black" cx="59.7599" cy="-378" rx="59.5207" ry="18"/>
<text text-anchor="middle" x="59.7599" y="-374.5" font-family="Times New Roman,serif" font-size="15.00">Create Fine</text>
</g>
<!-- 2808207621520&#45;&#45;2808207621808 -->
<g id="edge1" class="edge"><title>2808207621520&#45;&#45;2808207621808</title>
<path fill="none" stroke="black" d="M145.988,-436.485C128.41,-424.767 102.083,-407.215 83.1463,-394.591"/>
</g>
<!-- 2808207622000 -->
<g id="node3" class="node"><title>2808207622000</title>
<ellipse fill="none" stroke="black" cx="164.76" cy="-378" rx="27" ry="18"/>
<text text-anchor="middle" x="164.76" y="-374.5" font-family="Times New Roman,serif" font-size="15.00">and</text>
</g>
<!-- 2808207621520&#45;&#45;2808207622000 -->
<g id="edge21" class="edge"><title>2808207621520&#45;&#45;2808207622000</title>
<path fill="none" stroke="black" d="M164.76,-431.697C164.76,-420.846 164.76,-406.917 164.76,-396.104"/>
</g>
<!-- 2808207728752 -->
<g id="node23" class="node"><title>2808207728752</title>
<ellipse fill="none" stroke="black" cx="330.76" cy="-378" rx="120.819" ry="18"/>
<text text-anchor="middle" x="330.76" y="-374.5" font-family="Times New Roman,serif" font-size="15.00">Send for Credit Collection</text>
</g>
<!-- 2808207621520&#45;&#45;2808207728752 -->
<g id="edge22" class="edge"><title>2808207621520&#45;&#45;2808207728752</title>
<path fill="none" stroke="black" d="M187.147,-439.559C214.139,-428.177 259.935,-408.866 292.554,-395.111"/>
</g>
<!-- 2808207728848 -->
<g id="node4" class="node"><title>2808207728848</title>
<ellipse fill="none" stroke="black" cx="106.76" cy="-306" rx="46.6143" ry="18"/>
<text text-anchor="middle" x="106.76" y="-302.5" font-family="Times New Roman,serif" font-size="15.00">xor loop</text>
</g>
<!-- 2808207622000&#45;&#45;2808207728848 -->
<g id="edge4" class="edge"><title>2808207622000&#45;&#45;2808207728848</title>
<path fill="none" stroke="black" d="M152.175,-361.811C142.846,-350.552 130.138,-335.215 120.537,-323.628"/>
</g>
<!-- 2808207729040 -->
<g id="node7" class="node"><title>2808207729040</title>
<ellipse fill="none" stroke="black" cx="222.76" cy="-306" rx="27" ry="18"/>
<text text-anchor="middle" x="222.76" y="-302.5" font-family="Times New Roman,serif" font-size="15.00">xor</text>
</g>
<!-- 2808207622000&#45;&#45;2808207729040 -->
<g id="edge20" class="edge"><title>2808207622000&#45;&#45;2808207729040</title>
<path fill="none" stroke="black" d="M177.345,-361.811C187.074,-350.07 200.477,-333.893 210.199,-322.159"/>
</g>
<!-- 2808207729136 -->
<g id="node5" class="node"><title>2808207729136</title>
<ellipse fill="black" stroke="black" cx="39.7599" cy="-234" rx="2.7" ry="2.7"/>
</g>
<!-- 2808207728848&#45;&#45;2808207729136 -->
<g id="edge2" class="edge"><title>2808207728848&#45;&#45;2808207729136</title>
<path fill="none" stroke="black" d="M91.2203,-288.765C73.9019,-270.671 47.4913,-243.078 41.1593,-236.462"/>
</g>
<!-- 2808207729232 -->
<g id="node6" class="node"><title>2808207729232</title>
<ellipse fill="none" stroke="black" cx="106.76" cy="-234" rx="45.7249" ry="18"/>
<text text-anchor="middle" x="106.76" y="-230.5" font-family="Times New Roman,serif" font-size="15.00">Payment</text>
</g>
<!-- 2808207728848&#45;&#45;2808207729232 -->
<g id="edge3" class="edge"><title>2808207728848&#45;&#45;2808207729232</title>
<path fill="none" stroke="black" d="M106.76,-287.697C106.76,-276.846 106.76,-262.917 106.76,-252.104"/>
</g>
<!-- 2808207729568 -->
<g id="node8" class="node"><title>2808207729568</title>
<ellipse fill="black" stroke="black" cx="173.76" cy="-234" rx="2.7" ry="2.7"/>
</g>
<!-- 2808207729040&#45;&#45;2808207729568 -->
<g id="edge5" class="edge"><title>2808207729040&#45;&#45;2808207729568</title>
<path fill="none" stroke="black" d="M211.885,-289.465C199.254,-271.42 179.538,-243.254 174.806,-236.494"/>
</g>
<!-- 2808207729712 -->
<g id="node9" class="node"><title>2808207729712</title>
<ellipse fill="none" stroke="black" cx="247.76" cy="-234" rx="52.6228" ry="18"/>
<text text-anchor="middle" x="247.76" y="-230.5" font-family="Times New Roman,serif" font-size="15.00">Send Fine</text>
</g>
<!-- 2808207729040&#45;&#45;2808207729712 -->
<g id="edge6" class="edge"><title>2808207729040&#45;&#45;2808207729712</title>
<path fill="none" stroke="black" d="M228.685,-288.411C232.612,-277.414 237.75,-263.027 241.704,-251.956"/>
</g>
<!-- 2808207729856 -->
<g id="node10" class="node"><title>2808207729856</title>
<ellipse fill="none" stroke="black" cx="345.76" cy="-234" rx="27" ry="18"/>
<text text-anchor="middle" x="345.76" y="-230.5" font-family="Times New Roman,serif" font-size="15.00">seq</text>
</g>
<!-- 2808207729040&#45;&#45;2808207729856 -->
<g id="edge19" class="edge"><title>2808207729040&#45;&#45;2808207729856</title>
<path fill="none" stroke="black" d="M242.796,-293.597C265.668,-280.581 302.864,-259.413 325.733,-246.398"/>
</g>
<!-- 2808207730096 -->
<g id="node11" class="node"><title>2808207730096</title>
<ellipse fill="none" stroke="black" cx="80.7599" cy="-162" rx="52.6228" ry="18"/>
<text text-anchor="middle" x="80.7599" y="-158.5" font-family="Times New Roman,serif" font-size="15.00">Send Fine</text>
</g>
<!-- 2808207729856&#45;&#45;2808207730096 -->
<g id="edge7" class="edge"><title>2808207729856&#45;&#45;2808207730096</title>
<path fill="none" stroke="black" d="M320.829,-226.415C274.961,-214.298 176.814,-188.373 121.265,-173.699"/>
</g>
<!-- 2808207730240 -->
<g id="node12" class="node"><title>2808207730240</title>
<ellipse fill="none" stroke="black" cx="259.76" cy="-162" rx="107.914" ry="18"/>
<text text-anchor="middle" x="259.76" y="-158.5" font-family="Times New Roman,serif" font-size="15.00">Insert Fine Notification</text>
</g>
<!-- 2808207729856&#45;&#45;2808207730240 -->
<g id="edge8" class="edge"><title>2808207729856&#45;&#45;2808207730240</title>
<path fill="none" stroke="black" d="M329.178,-219.503C315.316,-208.22 295.474,-192.07 280.551,-179.923"/>
</g>
<!-- 2808207730384 -->
<g id="node13" class="node"><title>2808207730384</title>
<ellipse fill="none" stroke="black" cx="431.76" cy="-162" rx="46.6143" ry="18"/>
<text text-anchor="middle" x="431.76" y="-158.5" font-family="Times New Roman,serif" font-size="15.00">xor loop</text>
</g>
<!-- 2808207729856&#45;&#45;2808207730384 -->
<g id="edge11" class="edge"><title>2808207729856&#45;&#45;2808207730384</title>
<path fill="none" stroke="black" d="M362.342,-219.503C376.692,-207.823 397.451,-190.926 412.527,-178.655"/>
</g>
<!-- 2808207730528 -->
<g id="node16" class="node"><title>2808207730528</title>
<ellipse fill="none" stroke="black" cx="557.76" cy="-162" rx="27" ry="18"/>
<text text-anchor="middle" x="557.76" y="-158.5" font-family="Times New Roman,serif" font-size="15.00">and</text>
</g>
<!-- 2808207729856&#45;&#45;2808207730528 -->
<g id="edge18" class="edge"><title>2808207729856&#45;&#45;2808207730528</title>
<path fill="none" stroke="black" d="M369.667,-225.106C410.491,-211.626 493.176,-184.325 533.94,-170.865"/>
</g>
<!-- 2808207730624 -->
<g id="node14" class="node"><title>2808207730624</title>
<ellipse fill="black" stroke="black" cx="348.76" cy="-90" rx="2.7" ry="2.7"/>
</g>
<!-- 2808207730384&#45;&#45;2808207730624 -->
<g id="edge9" class="edge"><title>2808207730384&#45;&#45;2808207730624</title>
<path fill="none" stroke="black" d="M413.339,-145.465C391.944,-127.42 358.547,-99.254 350.532,-92.4944"/>
</g>
<!-- 2808207730768 -->
<g id="node15" class="node"><title>2808207730768</title>
<ellipse fill="none" stroke="black" cx="431.76" cy="-90" rx="61.6894" ry="18"/>
<text text-anchor="middle" x="431.76" y="-86.5" font-family="Times New Roman,serif" font-size="15.00">Add penalty</text>
</g>
<!-- 2808207730384&#45;&#45;2808207730768 -->
<g id="edge10" class="edge"><title>2808207730384&#45;&#45;2808207730768</title>
<path fill="none" stroke="black" d="M431.76,-143.697C431.76,-132.846 431.76,-118.917 431.76,-108.104"/>
</g>
<!-- 2808207731200 -->
<g id="node17" class="node"><title>2808207731200</title>
<ellipse fill="none" stroke="black" cx="557.76" cy="-90" rx="46.6143" ry="18"/>
<text text-anchor="middle" x="557.76" y="-86.5" font-family="Times New Roman,serif" font-size="15.00">xor loop</text>
</g>
<!-- 2808207730528&#45;&#45;2808207731200 -->
<g id="edge14" class="edge"><title>2808207730528&#45;&#45;2808207731200</title>
<path fill="none" stroke="black" d="M557.76,-143.697C557.76,-132.846 557.76,-118.917 557.76,-108.104"/>
</g>
<!-- 2808207731056 -->
<g id="node20" class="node"><title>2808207731056</title>
<ellipse fill="none" stroke="black" cx="668.76" cy="-90" rx="46.6143" ry="18"/>
<text text-anchor="middle" x="668.76" y="-86.5" font-family="Times New Roman,serif" font-size="15.00">xor loop</text>
</g>
<!-- 2808207730528&#45;&#45;2808207731056 -->
<g id="edge17" class="edge"><title>2808207730528&#45;&#45;2808207731056</title>
<path fill="none" stroke="black" d="M576.841,-148.967C595.809,-137.005 624.937,-118.636 645.305,-105.791"/>
</g>
<!-- 2808207731728 -->
<g id="node18" class="node"><title>2808207731728</title>
<ellipse fill="black" stroke="black" cx="481.76" cy="-18" rx="2.7" ry="2.7"/>
</g>
<!-- 2808207731200&#45;&#45;2808207731728 -->
<g id="edge12" class="edge"><title>2808207731200&#45;&#45;2808207731728</title>
<path fill="none" stroke="black" d="M540.514,-73.1159C520.894,-55.0446 490.625,-27.1656 483.365,-20.4782"/>
</g>
<!-- 2808207731872 -->
<g id="node19" class="node"><title>2808207731872</title>
<ellipse fill="none" stroke="black" cx="564.76" cy="-18" rx="61.6894" ry="18"/>
<text text-anchor="middle" x="564.76" y="-14.5" font-family="Times New Roman,serif" font-size="15.00">Add Penalty</text>
</g>
<!-- 2808207731200&#45;&#45;2808207731872 -->
<g id="edge13" class="edge"><title>2808207731200&#45;&#45;2808207731872</title>
<path fill="none" stroke="black" d="M559.49,-71.6966C560.575,-60.8463 561.968,-46.9167 563.049,-36.1043"/>
</g>
<!-- 2808207731296 -->
<g id="node21" class="node"><title>2808207731296</title>
<ellipse fill="black" stroke="black" cx="661.76" cy="-18" rx="2.7" ry="2.7"/>
</g>
<!-- 2808207731056&#45;&#45;2808207731296 -->
<g id="edge15" class="edge"><title>2808207731056&#45;&#45;2808207731296</title>
<path fill="none" stroke="black" d="M667.03,-71.6966C665.248,-53.8826 662.637,-27.7686 661.938,-20.7764"/>
</g>
<!-- 2808207731440 -->
<g id="node22" class="node"><title>2808207731440</title>
<ellipse fill="none" stroke="black" cx="760.76" cy="-18" rx="78.5434" ry="18"/>
<text text-anchor="middle" x="760.76" y="-14.5" font-family="Times New Roman,serif" font-size="15.00">Appeal to Judge</text>
</g>
<!-- 2808207731056&#45;&#45;2808207731440 -->
<g id="edge16" class="edge"><title>2808207731056&#45;&#45;2808207731440</title>
<path fill="none" stroke="black" d="M689.178,-73.4647C704,-62.1868 724.019,-46.9552 739.117,-35.4672"/>
</g>
</g>
</svg>
