<?xml version="1.0" encoding="UTF-8" standalone="no"?>
<!DOCTYPE svg PUBLIC "-//W3C//DTD SVG 1.1//EN"
 "http://www.w3.org/Graphics/SVG/1.1/DTD/svg11.dtd">
<!-- Generated by graphviz version 2.38.0 (20140413.2041)
 -->
<!-- Title: pt Pages: 1 -->
<svg width="1303pt" height="692pt"
 viewBox="0.00 0.00 1302.72 692.00" xmlns="http://www.w3.org/2000/svg" xmlns:xlink="http://www.w3.org/1999/xlink">
<g id="graph0" class="graph" transform="scale(1 1) rotate(0) translate(4 688)">
<title>pt</title>
<!-- 2101832634272 -->
<g id="node1" class="node"><title>2101832634272</title>
<ellipse fill="none" stroke="black" cx="422.811" cy="-666" rx="27" ry="18"/>
<text text-anchor="middle" x="422.811" y="-662.5" font-family="Times New Roman,serif" font-size="15.00">seq</text>
</g>
<!-- 2101832464752 -->
<g id="node2" class="node"><title>2101832464752</title>
<ellipse fill="none" stroke="black" cx="317.811" cy="-594" rx="59.5207" ry="18"/>
<text text-anchor="middle" x="317.811" y="-590.5" font-family="Times New Roman,serif" font-size="15.00">Create Fine</text>
</g>
<!-- 2101832634272&#45;&#45;2101832464752 -->
<g id="edge1" class="edge"><title>2101832634272&#45;&#45;2101832464752</title>
<path fill="none" stroke="black" d="M404.039,-652.485C386.461,-640.767 360.134,-623.215 341.198,-610.591"/>
</g>
<!-- 2101832464320 -->
<g id="node3" class="node"><title>2101832464320</title>
<ellipse fill="none" stroke="black" cx="422.811" cy="-594" rx="27" ry="18"/>
<text text-anchor="middle" x="422.811" y="-590.5" font-family="Times New Roman,serif" font-size="15.00">and</text>
</g>
<!-- 2101832634272&#45;&#45;2101832464320 -->
<g id="edge38" class="edge"><title>2101832634272&#45;&#45;2101832464320</title>
<path fill="none" stroke="black" d="M422.811,-647.697C422.811,-636.846 422.811,-622.917 422.811,-612.104"/>
</g>
<!-- 2101832462928 -->
<g id="node40" class="node"><title>2101832462928</title>
<ellipse fill="none" stroke="black" cx="494.811" cy="-594" rx="27" ry="18"/>
<text text-anchor="middle" x="494.811" y="-590.5" font-family="Times New Roman,serif" font-size="15.00">xor</text>
</g>
<!-- 2101832634272&#45;&#45;2101832462928 -->
<g id="edge41" class="edge"><title>2101832634272&#45;&#45;2101832462928</title>
<path fill="none" stroke="black" d="M437.381,-650.834C449.791,-638.77 467.542,-621.512 480.015,-609.385"/>
</g>
<!-- 2101832462400 -->
<g id="node4" class="node"><title>2101832462400</title>
<ellipse fill="none" stroke="black" cx="219.811" cy="-522" rx="27" ry="18"/>
<text text-anchor="middle" x="219.811" y="-518.5" font-family="Times New Roman,serif" font-size="15.00">and</text>
</g>
<!-- 2101832464320&#45;&#45;2101832462400 -->
<g id="edge14" class="edge"><title>2101832464320&#45;&#45;2101832462400</title>
<path fill="none" stroke="black" d="M399.127,-584.833C360.011,-571.345 282.361,-544.569 243.344,-531.115"/>
</g>
<!-- 2101832463648 -->
<g id="node17" class="node"><title>2101832463648</title>
<ellipse fill="none" stroke="black" cx="428.811" cy="-522" rx="27" ry="18"/>
<text text-anchor="middle" x="428.811" y="-518.5" font-family="Times New Roman,serif" font-size="15.00">xor</text>
</g>
<!-- 2101832464320&#45;&#45;2101832463648 -->
<g id="edge37" class="edge"><title>2101832464320&#45;&#45;2101832463648</title>
<path fill="none" stroke="black" d="M424.294,-575.697C425.224,-564.846 426.418,-550.917 427.345,-540.104"/>
</g>
<!-- 2101832466192 -->
<g id="node5" class="node"><title>2101832466192</title>
<ellipse fill="none" stroke="black" cx="78.8111" cy="-450" rx="46.6143" ry="18"/>
<text text-anchor="middle" x="78.8111" y="-446.5" font-family="Times New Roman,serif" font-size="15.00">xor loop</text>
</g>
<!-- 2101832462400&#45;&#45;2101832466192 -->
<g id="edge4" class="edge"><title>2101832462400&#45;&#45;2101832466192</title>
<path fill="none" stroke="black" d="M198.702,-510.52C174.118,-498.316 133.432,-478.117 106.374,-464.684"/>
</g>
<!-- 2101832465232 -->
<g id="node8" class="node"><title>2101832465232</title>
<ellipse fill="none" stroke="black" cx="219.811" cy="-450" rx="27" ry="18"/>
<text text-anchor="middle" x="219.811" y="-446.5" font-family="Times New Roman,serif" font-size="15.00">xor</text>
</g>
<!-- 2101832462400&#45;&#45;2101832465232 -->
<g id="edge13" class="edge"><title>2101832462400&#45;&#45;2101832465232</title>
<path fill="none" stroke="black" d="M219.811,-503.697C219.811,-492.846 219.811,-478.917 219.811,-468.104"/>
</g>
<!-- 2101832464944 -->
<g id="node6" class="node"><title>2101832464944</title>
<ellipse fill="black" stroke="black" cx="11.8111" cy="-378" rx="2.7" ry="2.7"/>
</g>
<!-- 2101832466192&#45;&#45;2101832464944 -->
<g id="edge2" class="edge"><title>2101832466192&#45;&#45;2101832464944</title>
<path fill="none" stroke="black" d="M63.2715,-432.765C45.9531,-414.671 19.5425,-387.078 13.2104,-380.462"/>
</g>
<!-- 2101837127840 -->
<g id="node7" class="node"><title>2101837127840</title>
<ellipse fill="none" stroke="black" cx="78.8111" cy="-378" rx="45.7249" ry="18"/>
<text text-anchor="middle" x="78.8111" y="-374.5" font-family="Times New Roman,serif" font-size="15.00">Payment</text>
</g>
<!-- 2101832466192&#45;&#45;2101837127840 -->
<g id="edge3" class="edge"><title>2101832466192&#45;&#45;2101837127840</title>
<path fill="none" stroke="black" d="M78.8111,-431.697C78.8111,-420.846 78.8111,-406.917 78.8111,-396.104"/>
</g>
<!-- 2101837127936 -->
<g id="node9" class="node"><title>2101837127936</title>
<ellipse fill="black" stroke="black" cx="145.811" cy="-378" rx="2.7" ry="2.7"/>
</g>
<!-- 2101832465232&#45;&#45;2101837127936 -->
<g id="edge5" class="edge"><title>2101832465232&#45;&#45;2101837127936</title>
<path fill="none" stroke="black" d="M204.836,-434.834C185.916,-416.937 154.915,-387.612 147.46,-380.56"/>
</g>
<!-- 2101837129568 -->
<g id="node10" class="node"><title>2101837129568</title>
<ellipse fill="none" stroke="black" cx="219.811" cy="-378" rx="52.6228" ry="18"/>
<text text-anchor="middle" x="219.811" y="-374.5" font-family="Times New Roman,serif" font-size="15.00">Send Fine</text>
</g>
<!-- 2101832465232&#45;&#45;2101837129568 -->
<g id="edge6" class="edge"><title>2101832465232&#45;&#45;2101837129568</title>
<path fill="none" stroke="black" d="M219.811,-431.697C219.811,-420.846 219.811,-406.917 219.811,-396.104"/>
</g>
<!-- 2101837130816 -->
<g id="node11" class="node"><title>2101837130816</title>
<ellipse fill="none" stroke="black" cx="317.811" cy="-378" rx="27" ry="18"/>
<text text-anchor="middle" x="317.811" y="-374.5" font-family="Times New Roman,serif" font-size="15.00">seq</text>
</g>
<!-- 2101832465232&#45;&#45;2101837130816 -->
<g id="edge12" class="edge"><title>2101832465232&#45;&#45;2101837130816</title>
<path fill="none" stroke="black" d="M237.786,-436.161C255.468,-423.531 282.307,-404.36 299.95,-391.758"/>
</g>
<!-- 2101837327904 -->
<g id="node12" class="node"><title>2101837327904</title>
<ellipse fill="none" stroke="black" cx="52.8111" cy="-306" rx="52.6228" ry="18"/>
<text text-anchor="middle" x="52.8111" y="-302.5" font-family="Times New Roman,serif" font-size="15.00">Send Fine</text>
</g>
<!-- 2101837130816&#45;&#45;2101837327904 -->
<g id="edge7" class="edge"><title>2101837130816&#45;&#45;2101837327904</title>
<path fill="none" stroke="black" d="M292.88,-370.415C247.012,-358.298 148.866,-332.373 93.3157,-317.699"/>
</g>
<!-- 2101832603968 -->
<g id="node13" class="node"><title>2101832603968</title>
<ellipse fill="none" stroke="black" cx="231.811" cy="-306" rx="107.914" ry="18"/>
<text text-anchor="middle" x="231.811" y="-302.5" font-family="Times New Roman,serif" font-size="15.00">Insert Fine Notification</text>
</g>
<!-- 2101837130816&#45;&#45;2101832603968 -->
<g id="edge8" class="edge"><title>2101837130816&#45;&#45;2101832603968</title>
<path fill="none" stroke="black" d="M301.229,-363.503C287.367,-352.22 267.525,-336.07 252.602,-323.923"/>
</g>
<!-- 2101837322992 -->
<g id="node14" class="node"><title>2101837322992</title>
<ellipse fill="none" stroke="black" cx="403.811" cy="-306" rx="46.6143" ry="18"/>
<text text-anchor="middle" x="403.811" y="-302.5" font-family="Times New Roman,serif" font-size="15.00">xor loop</text>
</g>
<!-- 2101837130816&#45;&#45;2101837322992 -->
<g id="edge11" class="edge"><title>2101837130816&#45;&#45;2101837322992</title>
<path fill="none" stroke="black" d="M334.393,-363.503C348.743,-351.823 369.502,-334.926 384.578,-322.655"/>
</g>
<!-- 2101837322416 -->
<g id="node15" class="node"><title>2101837322416</title>
<ellipse fill="black" stroke="black" cx="362.811" cy="-234" rx="2.7" ry="2.7"/>
</g>
<!-- 2101837322992&#45;&#45;2101837322416 -->
<g id="edge9" class="edge"><title>2101837322992&#45;&#45;2101837322416</title>
<path fill="none" stroke="black" d="M393.886,-288.055C383.458,-270.252 368.004,-243.865 363.863,-236.796"/>
</g>
<!-- 2101837320400 -->
<g id="node16" class="node"><title>2101837320400</title>
<ellipse fill="none" stroke="black" cx="445.811" cy="-234" rx="61.6894" ry="18"/>
<text text-anchor="middle" x="445.811" y="-230.5" font-family="Times New Roman,serif" font-size="15.00">Add penalty</text>
</g>
<!-- 2101837322992&#45;&#45;2101837320400 -->
<g id="edge10" class="edge"><title>2101837322992&#45;&#45;2101837320400</title>
<path fill="none" stroke="black" d="M413.764,-288.411C420.363,-277.414 428.995,-263.027 435.637,-251.956"/>
</g>
<!-- 2101832463360 -->
<g id="node18" class="node"><title>2101832463360</title>
<ellipse fill="black" stroke="black" cx="428.811" cy="-450" rx="2.7" ry="2.7"/>
</g>
<!-- 2101832463648&#45;&#45;2101832463360 -->
<g id="edge15" class="edge"><title>2101832463648&#45;&#45;2101832463360</title>
<path fill="none" stroke="black" d="M428.811,-503.697C428.811,-485.883 428.811,-459.769 428.811,-452.776"/>
</g>
<!-- 2101832466144 -->
<g id="node19" class="node"><title>2101832466144</title>
<ellipse fill="none" stroke="black" cx="546.811" cy="-450" rx="46.6143" ry="18"/>
<text text-anchor="middle" x="546.811" y="-446.5" font-family="Times New Roman,serif" font-size="15.00">xor loop</text>
</g>
<!-- 2101832463648&#45;&#45;2101832466144 -->
<g id="edge36" class="edge"><title>2101832463648&#45;&#45;2101832466144</title>
<path fill="none" stroke="black" d="M448.296,-509.441C468.589,-497.403 500.423,-478.518 522.384,-465.491"/>
</g>
<!-- 2101832464032 -->
<g id="node20" class="node"><title>2101832464032</title>
<ellipse fill="none" stroke="black" cx="546.811" cy="-378" rx="27" ry="18"/>
<text text-anchor="middle" x="546.811" y="-374.5" font-family="Times New Roman,serif" font-size="15.00">xor</text>
</g>
<!-- 2101832466144&#45;&#45;2101832464032 -->
<g id="edge34" class="edge"><title>2101832466144&#45;&#45;2101832464032</title>
<path fill="none" stroke="black" d="M546.811,-431.697C546.811,-420.846 546.811,-406.917 546.811,-396.104"/>
</g>
<!-- 2101832464464 -->
<g id="node39" class="node"><title>2101832464464</title>
<ellipse fill="black" stroke="black" cx="594.811" cy="-378" rx="2.7" ry="2.7"/>
</g>
<!-- 2101832466144&#45;&#45;2101832464464 -->
<g id="edge35" class="edge"><title>2101832466144&#45;&#45;2101832464464</title>
<path fill="none" stroke="black" d="M558.186,-432.411C570.385,-414.622 588.665,-387.962 593.566,-380.816"/>
</g>
<!-- 2101832464560 -->
<g id="node21" class="node"><title>2101832464560</title>
<ellipse fill="none" stroke="black" cx="546.811" cy="-306" rx="78.5434" ry="18"/>
<text text-anchor="middle" x="546.811" y="-302.5" font-family="Times New Roman,serif" font-size="15.00">Appeal to Judge</text>
</g>
<!-- 2101832464032&#45;&#45;2101832464560 -->
<g id="edge16" class="edge"><title>2101832464032&#45;&#45;2101832464560</title>
<path fill="none" stroke="black" d="M546.811,-359.697C546.811,-348.846 546.811,-334.917 546.811,-324.104"/>
</g>
<!-- 2101832463744 -->
<g id="node22" class="node"><title>2101832463744</title>
<ellipse fill="none" stroke="black" cx="670.811" cy="-306" rx="27" ry="18"/>
<text text-anchor="middle" x="670.811" y="-302.5" font-family="Times New Roman,serif" font-size="15.00">seq</text>
</g>
<!-- 2101832464032&#45;&#45;2101832463744 -->
<g id="edge33" class="edge"><title>2101832464032&#45;&#45;2101832463744</title>
<path fill="none" stroke="black" d="M566.734,-365.753C589.874,-352.691 627.819,-331.27 650.938,-318.219"/>
</g>
<!-- 2101832463888 -->
<g id="node23" class="node"><title>2101832463888</title>
<ellipse fill="none" stroke="black" cx="634.811" cy="-234" rx="27" ry="18"/>
<text text-anchor="middle" x="634.811" y="-230.5" font-family="Times New Roman,serif" font-size="15.00">xor</text>
</g>
<!-- 2101832463744&#45;&#45;2101832463888 -->
<g id="edge29" class="edge"><title>2101832463744&#45;&#45;2101832463888</title>
<path fill="none" stroke="black" d="M662.461,-288.765C656.646,-277.456 648.921,-262.437 643.115,-251.147"/>
</g>
<!-- 2101832462976 -->
<g id="node36" class="node"><title>2101832462976</title>
<ellipse fill="none" stroke="black" cx="706.811" cy="-234" rx="27" ry="18"/>
<text text-anchor="middle" x="706.811" y="-230.5" font-family="Times New Roman,serif" font-size="15.00">xor</text>
</g>
<!-- 2101832463744&#45;&#45;2101832462976 -->
<g id="edge32" class="edge"><title>2101832463744&#45;&#45;2101832462976</title>
<path fill="none" stroke="black" d="M679.161,-288.765C684.977,-277.456 692.701,-262.437 698.507,-251.147"/>
</g>
<!-- 2101832464896 -->
<g id="node24" class="node"><title>2101832464896</title>
<ellipse fill="none" stroke="black" cx="450.811" cy="-162" rx="144.571" ry="18"/>
<text text-anchor="middle" x="450.811" y="-158.5" font-family="Times New Roman,serif" font-size="15.00">Insert Date Appeal to Prefecture</text>
</g>
<!-- 2101832463888&#45;&#45;2101832464896 -->
<g id="edge17" class="edge"><title>2101832463888&#45;&#45;2101832464896</title>
<path fill="none" stroke="black" d="M611.879,-224.276C582.4,-213.061 530.625,-193.364 493.735,-179.33"/>
</g>
<!-- 2101832465136 -->
<g id="node25" class="node"><title>2101832465136</title>
<ellipse fill="none" stroke="black" cx="640.811" cy="-162" rx="27" ry="18"/>
<text text-anchor="middle" x="640.811" y="-158.5" font-family="Times New Roman,serif" font-size="15.00">seq</text>
</g>
<!-- 2101832463888&#45;&#45;2101832465136 -->
<g id="edge28" class="edge"><title>2101832463888&#45;&#45;2101832465136</title>
<path fill="none" stroke="black" d="M636.294,-215.697C637.224,-204.846 638.418,-190.917 639.345,-180.104"/>
</g>
<!-- 2101832465184 -->
<g id="node26" class="node"><title>2101832465184</title>
<ellipse fill="none" stroke="black" cx="368.811" cy="-90" rx="173.941" ry="18"/>
<text text-anchor="middle" x="368.811" y="-86.5" font-family="Times New Roman,serif" font-size="15.00">Receive Result Appeal from Prefecture</text>
</g>
<!-- 2101832465136&#45;&#45;2101832465184 -->
<g id="edge18" class="edge"><title>2101832465136&#45;&#45;2101832465184</title>
<path fill="none" stroke="black" d="M615.709,-154.54C573.953,-143.794 489.041,-121.942 430.553,-106.89"/>
</g>
<!-- 2101832465424 -->
<g id="node27" class="node"><title>2101832465424</title>
<ellipse fill="none" stroke="black" cx="587.811" cy="-90" rx="27" ry="18"/>
<text text-anchor="middle" x="587.811" y="-86.5" font-family="Times New Roman,serif" font-size="15.00">xor</text>
</g>
<!-- 2101832465136&#45;&#45;2101832465424 -->
<g id="edge21" class="edge"><title>2101832465136&#45;&#45;2101832465424</title>
<path fill="none" stroke="black" d="M629.049,-145.465C620.266,-133.865 608.316,-118.082 599.541,-106.492"/>
</g>
<!-- 2101832463984 -->
<g id="node30" class="node"><title>2101832463984</title>
<ellipse fill="none" stroke="black" cx="693.811" cy="-90" rx="27" ry="18"/>
<text text-anchor="middle" x="693.811" y="-86.5" font-family="Times New Roman,serif" font-size="15.00">xor</text>
</g>
<!-- 2101832465136&#45;&#45;2101832463984 -->
<g id="edge24" class="edge"><title>2101832465136&#45;&#45;2101832463984</title>
<path fill="none" stroke="black" d="M652.573,-145.465C661.356,-133.865 673.306,-118.082 682.082,-106.492"/>
</g>
<!-- 2101837130144 -->
<g id="node33" class="node"><title>2101837130144</title>
<ellipse fill="none" stroke="black" cx="1031.81" cy="-90" rx="27" ry="18"/>
<text text-anchor="middle" x="1031.81" y="-86.5" font-family="Times New Roman,serif" font-size="15.00">xor</text>
</g>
<!-- 2101832465136&#45;&#45;2101837130144 -->
<g id="edge27" class="edge"><title>2101832465136&#45;&#45;2101837130144</title>
<path fill="none" stroke="black" d="M666.768,-156.353C737.893,-143.62 935.308,-108.277 1006.12,-95.5998"/>
</g>
<!-- 2101837129856 -->
<g id="node28" class="node"><title>2101837129856</title>
<ellipse fill="black" stroke="black" cx="411.811" cy="-18" rx="2.7" ry="2.7"/>
</g>
<!-- 2101832465424&#45;&#45;2101837129856 -->
<g id="edge19" class="edge"><title>2101832465424&#45;&#45;2101837129856</title>
<path fill="none" stroke="black" d="M565.162,-79.992C521.713,-62.7109 429.568,-26.0624 414.051,-19.891"/>
</g>
<!-- 2101837130384 -->
<g id="node29" class="node"><title>2101837130384</title>
<ellipse fill="none" stroke="black" cx="552.811" cy="-18" rx="120.43" ry="18"/>
<text text-anchor="middle" x="552.811" y="-14.5" font-family="Times New Roman,serif" font-size="15.00">Send Appeal to Prefecture</text>
</g>
<!-- 2101832465424&#45;&#45;2101837130384 -->
<g id="edge20" class="edge"><title>2101832465424&#45;&#45;2101837130384</title>
<path fill="none" stroke="black" d="M579.693,-72.7646C574.201,-61.7791 566.957,-47.2919 561.373,-36.1239"/>
</g>
<!-- 2101837128032 -->
<g id="node31" class="node"><title>2101837128032</title>
<ellipse fill="black" stroke="black" cx="693.811" cy="-18" rx="2.7" ry="2.7"/>
</g>
<!-- 2101832463984&#45;&#45;2101837128032 -->
<g id="edge22" class="edge"><title>2101832463984&#45;&#45;2101837128032</title>
<path fill="none" stroke="black" d="M693.811,-71.6966C693.811,-53.8826 693.811,-27.7686 693.811,-20.7764"/>
</g>
<!-- 2101837131296 -->
<g id="node32" class="node"><title>2101837131296</title>
<ellipse fill="none" stroke="black" cx="862.811" cy="-18" rx="148.91" ry="18"/>
<text text-anchor="middle" x="862.811" y="-14.5" font-family="Times New Roman,serif" font-size="15.00">Notify Result Appeal to Offender</text>
</g>
<!-- 2101832463984&#45;&#45;2101837131296 -->
<g id="edge23" class="edge"><title>2101832463984&#45;&#45;2101837131296</title>
<path fill="none" stroke="black" d="M716.253,-79.7045C743.459,-68.4359 789.792,-49.2446 823.085,-35.4544"/>
</g>
<!-- 2101837130720 -->
<g id="node34" class="node"><title>2101837130720</title>
<ellipse fill="black" stroke="black" cx="1031.81" cy="-18" rx="2.7" ry="2.7"/>
</g>
<!-- 2101837130144&#45;&#45;2101837130720 -->
<g id="edge25" class="edge"><title>2101837130144&#45;&#45;2101837130720</title>
<path fill="none" stroke="black" d="M1031.81,-71.6966C1031.81,-53.8826 1031.81,-27.7686 1031.81,-20.7764"/>
</g>
<!-- 2101837128416 -->
<g id="node35" class="node"><title>2101837128416</title>
<ellipse fill="none" stroke="black" cx="1173.81" cy="-18" rx="120.819" ry="18"/>
<text text-anchor="middle" x="1173.81" y="-14.5" font-family="Times New Roman,serif" font-size="15.00">Send for Credit Collection</text>
</g>
<!-- 2101837130144&#45;&#45;2101837128416 -->
<g id="edge26" class="edge"><title>2101837130144&#45;&#45;2101837128416</title>
<path fill="none" stroke="black" d="M1053.07,-78.5203C1076.2,-67.1164 1113.49,-48.7333 1140.52,-35.4115"/>
</g>
<!-- 2101837130432 -->
<g id="node37" class="node"><title>2101837130432</title>
<ellipse fill="black" stroke="black" cx="700.811" cy="-162" rx="2.7" ry="2.7"/>
</g>
<!-- 2101832462976&#45;&#45;2101837130432 -->
<g id="edge30" class="edge"><title>2101832462976&#45;&#45;2101837130432</title>
<path fill="none" stroke="black" d="M705.328,-215.697C703.801,-197.883 701.563,-171.769 700.963,-164.776"/>
</g>
<!-- 2101837129184 -->
<g id="node38" class="node"><title>2101837129184</title>
<ellipse fill="none" stroke="black" cx="841.811" cy="-162" rx="120.43" ry="18"/>
<text text-anchor="middle" x="841.811" y="-158.5" font-family="Times New Roman,serif" font-size="15.00">Send Appeal to Prefecture</text>
</g>
<!-- 2101832462976&#45;&#45;2101837129184 -->
<g id="edge31" class="edge"><title>2101832462976&#45;&#45;2101837129184</title>
<path fill="none" stroke="black" d="M727.609,-222.216C749.65,-210.787 784.721,-192.602 810.188,-179.397"/>
</g>
<!-- 2101832463696 -->
<g id="node41" class="node"><title>2101832463696</title>
<ellipse fill="black" stroke="black" cx="488.811" cy="-522" rx="2.7" ry="2.7"/>
</g>
<!-- 2101832462928&#45;&#45;2101832463696 -->
<g id="edge39" class="edge"><title>2101832462928&#45;&#45;2101832463696</title>
<path fill="none" stroke="black" d="M493.328,-575.697C491.801,-557.883 489.563,-531.769 488.963,-524.776"/>
</g>
<!-- 2101832465952 -->
<g id="node42" class="node"><title>2101832465952</title>
<ellipse fill="none" stroke="black" cx="630.811" cy="-522" rx="120.819" ry="18"/>
<text text-anchor="middle" x="630.811" y="-518.5" font-family="Times New Roman,serif" font-size="15.00">Send for Credit Collection</text>
</g>
<!-- 2101832462928&#45;&#45;2101832465952 -->
<g id="edge40" class="edge"><title>2101832462928&#45;&#45;2101832465952</title>
<path fill="none" stroke="black" d="M515.467,-582.369C537.61,-570.971 573.051,-552.729 598.81,-539.471"/>
</g>
</g>
</svg>
