<?xml version="1.0" encoding="UTF-8" standalone="no"?>
<!DOCTYPE svg PUBLIC "-//W3C//DTD SVG 1.1//EN"
 "http://www.w3.org/Graphics/SVG/1.1/DTD/svg11.dtd">
<!-- Generated by graphviz version 2.38.0 (20140413.2041)
 -->
<!-- Title: pt Pages: 1 -->
<svg width="1087pt" height="404pt"
 viewBox="0.00 0.00 1086.67 404.00" xmlns="http://www.w3.org/2000/svg" xmlns:xlink="http://www.w3.org/1999/xlink">
<g id="graph0" class="graph" transform="scale(1 1) rotate(0) translate(4 400)">
<title>pt</title>
<!-- 2101816461056 -->
<g id="node1" class="node"><title>2101816461056</title>
<ellipse fill="none" stroke="black" cx="301.76" cy="-378" rx="27" ry="18"/>
<text text-anchor="middle" x="301.76" y="-374.5" font-family="Times New Roman,serif" font-size="15.00">seq</text>
</g>
<!-- 2101816462688 -->
<g id="node2" class="node"><title>2101816462688</title>
<ellipse fill="none" stroke="black" cx="59.7599" cy="-306" rx="59.5207" ry="18"/>
<text text-anchor="middle" x="59.7599" y="-302.5" font-family="Times New Roman,serif" font-size="15.00">Create Fine</text>
</g>
<!-- 2101816461056&#45;&#45;2101816462688 -->
<g id="edge1" class="edge"><title>2101816461056&#45;&#45;2101816462688</title>
<path fill="none" stroke="black" d="M277.224,-369.903C235.888,-357.946 151.93,-333.661 101.284,-319.011"/>
</g>
<!-- 2101816461680 -->
<g id="node3" class="node"><title>2101816461680</title>
<ellipse fill="none" stroke="black" cx="164.76" cy="-306" rx="27" ry="18"/>
<text text-anchor="middle" x="164.76" y="-302.5" font-family="Times New Roman,serif" font-size="15.00">xor</text>
</g>
<!-- 2101816461056&#45;&#45;2101816461680 -->
<g id="edge4" class="edge"><title>2101816461056&#45;&#45;2101816461680</title>
<path fill="none" stroke="black" d="M280.953,-366.369C255.203,-353.212 211.603,-330.934 185.763,-317.732"/>
</g>
<!-- 2101816462736 -->
<g id="node6" class="node"><title>2101816462736</title>
<ellipse fill="none" stroke="black" cx="301.76" cy="-306" rx="27" ry="18"/>
<text text-anchor="middle" x="301.76" y="-302.5" font-family="Times New Roman,serif" font-size="15.00">xor</text>
</g>
<!-- 2101816461056&#45;&#45;2101816462736 -->
<g id="edge7" class="edge"><title>2101816461056&#45;&#45;2101816462736</title>
<path fill="none" stroke="black" d="M301.76,-359.697C301.76,-348.846 301.76,-334.917 301.76,-324.104"/>
</g>
<!-- 2101816623504 -->
<g id="node9" class="node"><title>2101816623504</title>
<ellipse fill="none" stroke="black" cx="461.76" cy="-306" rx="27" ry="18"/>
<text text-anchor="middle" x="461.76" y="-302.5" font-family="Times New Roman,serif" font-size="15.00">xor</text>
</g>
<!-- 2101816461056&#45;&#45;2101816623504 -->
<g id="edge19" class="edge"><title>2101816461056&#45;&#45;2101816623504</title>
<path fill="none" stroke="black" d="M323.672,-367.414C354.226,-354.046 409.307,-329.948 439.857,-316.583"/>
</g>
<!-- 2101816624032 -->
<g id="node21" class="node"><title>2101816624032</title>
<ellipse fill="none" stroke="black" cx="628.76" cy="-306" rx="27" ry="18"/>
<text text-anchor="middle" x="628.76" y="-302.5" font-family="Times New Roman,serif" font-size="15.00">xor</text>
</g>
<!-- 2101816461056&#45;&#45;2101816624032 -->
<g id="edge23" class="edge"><title>2101816461056&#45;&#45;2101816624032</title>
<path fill="none" stroke="black" d="M327.147,-371.565C388.071,-358.524 542.027,-325.567 603.164,-312.479"/>
</g>
<!-- 2101816623552 -->
<g id="node4" class="node"><title>2101816623552</title>
<ellipse fill="black" stroke="black" cx="57.7599" cy="-234" rx="2.7" ry="2.7"/>
</g>
<!-- 2101816461680&#45;&#45;2101816623552 -->
<g id="edge2" class="edge"><title>2101816461680&#45;&#45;2101816623552</title>
<path fill="none" stroke="black" d="M146.122,-292.807C118.579,-274.788 69.2024,-242.486 59.4568,-236.11"/>
</g>
<!-- 2101816623408 -->
<g id="node5" class="node"><title>2101816623408</title>
<ellipse fill="none" stroke="black" cx="131.76" cy="-234" rx="52.6228" ry="18"/>
<text text-anchor="middle" x="131.76" y="-230.5" font-family="Times New Roman,serif" font-size="15.00">Send Fine</text>
</g>
<!-- 2101816461680&#45;&#45;2101816623408 -->
<g id="edge3" class="edge"><title>2101816461680&#45;&#45;2101816623408</title>
<path fill="none" stroke="black" d="M156.939,-288.411C151.755,-277.414 144.973,-263.027 139.754,-251.956"/>
</g>
<!-- 2101816623792 -->
<g id="node7" class="node"><title>2101816623792</title>
<ellipse fill="black" stroke="black" cx="205.76" cy="-234" rx="2.7" ry="2.7"/>
</g>
<!-- 2101816462736&#45;&#45;2101816623792 -->
<g id="edge5" class="edge"><title>2101816462736&#45;&#45;2101816623792</title>
<path fill="none" stroke="black" d="M284.152,-292.161C259.469,-274.163 216.571,-242.883 207.482,-236.256"/>
</g>
<!-- 2101816623888 -->
<g id="node8" class="node"><title>2101816623888</title>
<ellipse fill="none" stroke="black" cx="333.76" cy="-234" rx="107.914" ry="18"/>
<text text-anchor="middle" x="333.76" y="-230.5" font-family="Times New Roman,serif" font-size="15.00">Insert Fine Notification</text>
</g>
<!-- 2101816462736&#45;&#45;2101816623888 -->
<g id="edge6" class="edge"><title>2101816462736&#45;&#45;2101816623888</title>
<path fill="none" stroke="black" d="M309.343,-288.411C314.371,-277.414 320.947,-263.027 326.008,-251.956"/>
</g>
<!-- 2101816624080 -->
<g id="node10" class="node"><title>2101816624080</title>
<ellipse fill="black" stroke="black" cx="461.76" cy="-234" rx="2.7" ry="2.7"/>
</g>
<!-- 2101816623504&#45;&#45;2101816624080 -->
<g id="edge8" class="edge"><title>2101816623504&#45;&#45;2101816624080</title>
<path fill="none" stroke="black" d="M461.76,-287.697C461.76,-269.883 461.76,-243.769 461.76,-236.776"/>
</g>
<!-- 2101816624176 -->
<g id="node11" class="node"><title>2101816624176</title>
<ellipse fill="none" stroke="black" cx="509.76" cy="-234" rx="27" ry="18"/>
<text text-anchor="middle" x="509.76" y="-230.5" font-family="Times New Roman,serif" font-size="15.00">and</text>
</g>
<!-- 2101816623504&#45;&#45;2101816624176 -->
<g id="edge18" class="edge"><title>2101816623504&#45;&#45;2101816624176</title>
<path fill="none" stroke="black" d="M472.652,-289.116C480.507,-277.66 491.065,-262.263 498.911,-250.821"/>
</g>
<!-- 2101816624416 -->
<g id="node12" class="node"><title>2101816624416</title>
<ellipse fill="none" stroke="black" cx="434.76" cy="-162" rx="27" ry="18"/>
<text text-anchor="middle" x="434.76" y="-158.5" font-family="Times New Roman,serif" font-size="15.00">xor</text>
</g>
<!-- 2101816624176&#45;&#45;2101816624416 -->
<g id="edge11" class="edge"><title>2101816624176&#45;&#45;2101816624416</title>
<path fill="none" stroke="black" d="M494.583,-218.834C481.57,-206.69 462.92,-189.283 449.915,-177.144"/>
</g>
<!-- 2101816624608 -->
<g id="node15" class="node"><title>2101816624608</title>
<ellipse fill="none" stroke="black" cx="550.76" cy="-162" rx="27" ry="18"/>
<text text-anchor="middle" x="550.76" y="-158.5" font-family="Times New Roman,serif" font-size="15.00">xor</text>
</g>
<!-- 2101816624176&#45;&#45;2101816624608 -->
<g id="edge17" class="edge"><title>2101816624176&#45;&#45;2101816624608</title>
<path fill="none" stroke="black" d="M519.269,-216.765C525.893,-205.456 534.69,-190.437 541.302,-179.147"/>
</g>
<!-- 2101816624656 -->
<g id="node13" class="node"><title>2101816624656</title>
<ellipse fill="black" stroke="black" cx="351.76" cy="-90" rx="2.7" ry="2.7"/>
</g>
<!-- 2101816624416&#45;&#45;2101816624656 -->
<g id="edge9" class="edge"><title>2101816624416&#45;&#45;2101816624656</title>
<path fill="none" stroke="black" d="M418.362,-147.17C397.197,-129.32 362.078,-99.7024 353.63,-92.5768"/>
</g>
<!-- 2101816624752 -->
<g id="node14" class="node"><title>2101816624752</title>
<ellipse fill="none" stroke="black" cx="434.76" cy="-90" rx="61.6894" ry="18"/>
<text text-anchor="middle" x="434.76" y="-86.5" font-family="Times New Roman,serif" font-size="15.00">Add penalty</text>
</g>
<!-- 2101816624416&#45;&#45;2101816624752 -->
<g id="edge10" class="edge"><title>2101816624416&#45;&#45;2101816624752</title>
<path fill="none" stroke="black" d="M434.76,-143.697C434.76,-132.846 434.76,-118.917 434.76,-108.104"/>
</g>
<!-- 2101816624944 -->
<g id="node16" class="node"><title>2101816624944</title>
<ellipse fill="black" stroke="black" cx="517.76" cy="-90" rx="2.7" ry="2.7"/>
</g>
<!-- 2101816624608&#45;&#45;2101816624944 -->
<g id="edge12" class="edge"><title>2101816624608&#45;&#45;2101816624944</title>
<path fill="none" stroke="black" d="M542.939,-144.411C534.553,-126.622 521.985,-99.9625 518.616,-92.8163"/>
</g>
<!-- 2101816625040 -->
<g id="node17" class="node"><title>2101816625040</title>
<ellipse fill="none" stroke="black" cx="584.76" cy="-90" rx="46.6143" ry="18"/>
<text text-anchor="middle" x="584.76" y="-86.5" font-family="Times New Roman,serif" font-size="15.00">xor loop</text>
</g>
<!-- 2101816624608&#45;&#45;2101816625040 -->
<g id="edge15" class="edge"><title>2101816624608&#45;&#45;2101816625040</title>
<path fill="none" stroke="black" d="M558.646,-144.765C563.981,-133.779 571.018,-119.292 576.443,-108.124"/>
</g>
<!-- 2101816625232 -->
<g id="node20" class="node"><title>2101816625232</title>
<ellipse fill="none" stroke="black" cx="793.76" cy="-90" rx="144.571" ry="18"/>
<text text-anchor="middle" x="793.76" y="-86.5" font-family="Times New Roman,serif" font-size="15.00">Insert Date Appeal to Prefecture</text>
</g>
<!-- 2101816624608&#45;&#45;2101816625232 -->
<g id="edge16" class="edge"><title>2101816624608&#45;&#45;2101816625232</title>
<path fill="none" stroke="black" d="M575.397,-153.903C613.526,-142.919 687.768,-121.533 739.022,-106.768"/>
</g>
<!-- 2101816625280 -->
<g id="node18" class="node"><title>2101816625280</title>
<ellipse fill="none" stroke="black" cx="550.76" cy="-18" rx="45.7249" ry="18"/>
<text text-anchor="middle" x="550.76" y="-14.5" font-family="Times New Roman,serif" font-size="15.00">Payment</text>
</g>
<!-- 2101816625040&#45;&#45;2101816625280 -->
<g id="edge13" class="edge"><title>2101816625040&#45;&#45;2101816625280</title>
<path fill="none" stroke="black" d="M576.529,-72.055C571.184,-61.0492 564.245,-46.7636 558.915,-35.789"/>
</g>
<!-- 2101816625376 -->
<g id="node19" class="node"><title>2101816625376</title>
<ellipse fill="black" stroke="black" cx="617.76" cy="-18" rx="2.7" ry="2.7"/>
</g>
<!-- 2101816625040&#45;&#45;2101816625376 -->
<g id="edge14" class="edge"><title>2101816625040&#45;&#45;2101816625376</title>
<path fill="none" stroke="black" d="M592.748,-72.055C601.141,-54.2515 613.581,-27.8653 616.913,-20.7963"/>
</g>
<!-- 2101816624320 -->
<g id="node22" class="node"><title>2101816624320</title>
<ellipse fill="black" stroke="black" cx="557.76" cy="-234" rx="2.7" ry="2.7"/>
</g>
<!-- 2101816624032&#45;&#45;2101816624320 -->
<g id="edge20" class="edge"><title>2101816624032&#45;&#45;2101816624320</title>
<path fill="none" stroke="black" d="M614.049,-290.496C595.852,-272.555 566.403,-243.522 559.326,-236.544"/>
</g>
<!-- 2101816624848 -->
<g id="node23" class="node"><title>2101816624848</title>
<ellipse fill="none" stroke="black" cx="698.76" cy="-234" rx="120.43" ry="18"/>
<text text-anchor="middle" x="698.76" y="-230.5" font-family="Times New Roman,serif" font-size="15.00">Send Appeal to Prefecture</text>
</g>
<!-- 2101816624032&#45;&#45;2101816624848 -->
<g id="edge21" class="edge"><title>2101816624032&#45;&#45;2101816624848</title>
<path fill="none" stroke="black" d="M643.264,-290.496C654.477,-279.283 670.023,-263.737 681.809,-251.951"/>
</g>
<!-- 2101816625184 -->
<g id="node24" class="node"><title>2101816625184</title>
<ellipse fill="none" stroke="black" cx="957.76" cy="-234" rx="120.819" ry="18"/>
<text text-anchor="middle" x="957.76" y="-230.5" font-family="Times New Roman,serif" font-size="15.00">Send for Credit Collection</text>
</g>
<!-- 2101816624032&#45;&#45;2101816625184 -->
<g id="edge22" class="edge"><title>2101816624032&#45;&#45;2101816625184</title>
<path fill="none" stroke="black" d="M654.03,-299.623C704.286,-288.931 818.227,-264.688 891.377,-249.124"/>
</g>
</g>
</svg>
