<?xml version="1.0" encoding="UTF-8" standalone="no"?>
<!DOCTYPE svg PUBLIC "-//W3C//DTD SVG 1.1//EN"
 "http://www.w3.org/Graphics/SVG/1.1/DTD/svg11.dtd">
<!-- Generated by graphviz version 2.38.0 (20140413.2041)
 -->
<!-- Title: pt Pages: 1 -->
<svg width="1091pt" height="764pt"
 viewBox="0.00 0.00 1090.91 764.00" xmlns="http://www.w3.org/2000/svg" xmlns:xlink="http://www.w3.org/1999/xlink">
<g id="graph0" class="graph" transform="scale(1 1) rotate(0) translate(4 760)">
<title>pt</title>
<!-- 2101657343504 -->
<g id="node1" class="node"><title>2101657343504</title>
<ellipse fill="none" stroke="black" cx="427.7" cy="-738" rx="27" ry="18"/>
<text text-anchor="middle" x="427.7" y="-734.5" font-family="Times New Roman,serif" font-size="15.00">seq</text>
</g>
<!-- 2101826902912 -->
<g id="node2" class="node"><title>2101826902912</title>
<ellipse fill="none" stroke="black" cx="322.7" cy="-666" rx="59.5207" ry="18"/>
<text text-anchor="middle" x="322.7" y="-662.5" font-family="Times New Roman,serif" font-size="15.00">Create Fine</text>
</g>
<!-- 2101657343504&#45;&#45;2101826902912 -->
<g id="edge1" class="edge"><title>2101657343504&#45;&#45;2101826902912</title>
<path fill="none" stroke="black" d="M408.928,-724.485C391.35,-712.767 365.023,-695.215 346.086,-682.591"/>
</g>
<!-- 2101659408944 -->
<g id="node3" class="node"><title>2101659408944</title>
<ellipse fill="none" stroke="black" cx="427.7" cy="-666" rx="27" ry="18"/>
<text text-anchor="middle" x="427.7" y="-662.5" font-family="Times New Roman,serif" font-size="15.00">and</text>
</g>
<!-- 2101657343504&#45;&#45;2101659408944 -->
<g id="edge40" class="edge"><title>2101657343504&#45;&#45;2101659408944</title>
<path fill="none" stroke="black" d="M427.7,-719.697C427.7,-708.846 427.7,-694.917 427.7,-684.104"/>
</g>
<!-- 2101659409136 -->
<g id="node42" class="node"><title>2101659409136</title>
<ellipse fill="none" stroke="black" cx="499.7" cy="-666" rx="27" ry="18"/>
<text text-anchor="middle" x="499.7" y="-662.5" font-family="Times New Roman,serif" font-size="15.00">xor</text>
</g>
<!-- 2101657343504&#45;&#45;2101659409136 -->
<g id="edge43" class="edge"><title>2101657343504&#45;&#45;2101659409136</title>
<path fill="none" stroke="black" d="M442.27,-722.834C454.68,-710.77 472.431,-693.512 484.904,-681.385"/>
</g>
<!-- 2101659408320 -->
<g id="node4" class="node"><title>2101659408320</title>
<ellipse fill="none" stroke="black" cx="322.7" cy="-594" rx="27" ry="18"/>
<text text-anchor="middle" x="322.7" y="-590.5" font-family="Times New Roman,serif" font-size="15.00">xor</text>
</g>
<!-- 2101659408944&#45;&#45;2101659408320 -->
<g id="edge26" class="edge"><title>2101659408944&#45;&#45;2101659408320</title>
<path fill="none" stroke="black" d="M408.928,-652.485C389.816,-639.744 360.363,-620.108 341.309,-607.406"/>
</g>
<!-- 2101659408464 -->
<g id="node29" class="node"><title>2101659408464</title>
<ellipse fill="none" stroke="black" cx="433.7" cy="-594" rx="27" ry="18"/>
<text text-anchor="middle" x="433.7" y="-590.5" font-family="Times New Roman,serif" font-size="15.00">and</text>
</g>
<!-- 2101659408944&#45;&#45;2101659408464 -->
<g id="edge39" class="edge"><title>2101659408944&#45;&#45;2101659408464</title>
<path fill="none" stroke="black" d="M429.183,-647.697C430.113,-636.846 431.307,-622.917 432.234,-612.104"/>
</g>
<!-- 2101833104112 -->
<g id="node5" class="node"><title>2101833104112</title>
<ellipse fill="black" stroke="black" cx="255.7" cy="-522" rx="2.7" ry="2.7"/>
</g>
<!-- 2101659408320&#45;&#45;2101833104112 -->
<g id="edge2" class="edge"><title>2101659408320&#45;&#45;2101833104112</title>
<path fill="none" stroke="black" d="M308.818,-578.496C291.646,-560.555 263.857,-531.522 257.177,-524.544"/>
</g>
<!-- 2101833104016 -->
<g id="node6" class="node"><title>2101833104016</title>
<ellipse fill="none" stroke="black" cx="322.7" cy="-522" rx="46.6143" ry="18"/>
<text text-anchor="middle" x="322.7" y="-518.5" font-family="Times New Roman,serif" font-size="15.00">xor loop</text>
</g>
<!-- 2101659408320&#45;&#45;2101833104016 -->
<g id="edge25" class="edge"><title>2101659408320&#45;&#45;2101833104016</title>
<path fill="none" stroke="black" d="M322.7,-575.697C322.7,-564.846 322.7,-550.917 322.7,-540.104"/>
</g>
<!-- 2101833103632 -->
<g id="node7" class="node"><title>2101833103632</title>
<ellipse fill="none" stroke="black" cx="284.7" cy="-450" rx="27" ry="18"/>
<text text-anchor="middle" x="284.7" y="-446.5" font-family="Times New Roman,serif" font-size="15.00">xor</text>
</g>
<!-- 2101833104016&#45;&#45;2101833103632 -->
<g id="edge23" class="edge"><title>2101833104016&#45;&#45;2101833103632</title>
<path fill="none" stroke="black" d="M313.501,-504.055C307.439,-492.887 299.543,-478.343 293.552,-467.307"/>
</g>
<!-- 2101833104496 -->
<g id="node28" class="node"><title>2101833104496</title>
<ellipse fill="black" stroke="black" cx="332.7" cy="-450" rx="2.7" ry="2.7"/>
</g>
<!-- 2101833104016&#45;&#45;2101833104496 -->
<g id="edge24" class="edge"><title>2101833104016&#45;&#45;2101833104496</title>
<path fill="none" stroke="black" d="M325.172,-503.697C327.717,-485.883 331.447,-459.769 332.446,-452.776"/>
</g>
<!-- 2101833105120 -->
<g id="node8" class="node"><title>2101833105120</title>
<ellipse fill="none" stroke="black" cx="154.7" cy="-378" rx="144.571" ry="18"/>
<text text-anchor="middle" x="154.7" y="-374.5" font-family="Times New Roman,serif" font-size="15.00">Insert Date Appeal to Prefecture</text>
</g>
<!-- 2101833103632&#45;&#45;2101833105120 -->
<g id="edge3" class="edge"><title>2101833103632&#45;&#45;2101833105120</title>
<path fill="none" stroke="black" d="M264.387,-438.063C243.25,-426.681 209.892,-408.719 185.508,-395.589"/>
</g>
<!-- 2101833104880 -->
<g id="node9" class="node"><title>2101833104880</title>
<ellipse fill="none" stroke="black" cx="344.7" cy="-378" rx="27" ry="18"/>
<text text-anchor="middle" x="344.7" y="-374.5" font-family="Times New Roman,serif" font-size="15.00">seq</text>
</g>
<!-- 2101833103632&#45;&#45;2101833104880 -->
<g id="edge22" class="edge"><title>2101833103632&#45;&#45;2101833104880</title>
<path fill="none" stroke="black" d="M297.719,-433.811C307.783,-422.07 321.649,-405.893 331.706,-394.159"/>
</g>
<!-- 2101833104400 -->
<g id="node10" class="node"><title>2101833104400</title>
<ellipse fill="none" stroke="black" cx="217.7" cy="-306" rx="27" ry="18"/>
<text text-anchor="middle" x="217.7" y="-302.5" font-family="Times New Roman,serif" font-size="15.00">xor</text>
</g>
<!-- 2101833104880&#45;&#45;2101833104400 -->
<g id="edge7" class="edge"><title>2101833104880&#45;&#45;2101833104400</title>
<path fill="none" stroke="black" d="M324.576,-365.908C300.936,-352.878 261.931,-331.379 238.15,-318.272"/>
</g>
<!-- 2101833103776 -->
<g id="node14" class="node"><title>2101833103776</title>
<ellipse fill="none" stroke="black" cx="565.7" cy="-306" rx="27" ry="18"/>
<text text-anchor="middle" x="565.7" y="-302.5" font-family="Times New Roman,serif" font-size="15.00">xor</text>
</g>
<!-- 2101833104880&#45;&#45;2101833103776 -->
<g id="edge21" class="edge"><title>2101833104880&#45;&#45;2101833103776</title>
<path fill="none" stroke="black" d="M368.772,-369.376C411.283,-355.91 499.168,-328.073 541.658,-314.615"/>
</g>
<!-- 2101833104208 -->
<g id="node11" class="node"><title>2101833104208</title>
<ellipse fill="black" stroke="black" cx="2.7" cy="-234" rx="2.7" ry="2.7"/>
</g>
<!-- 2101833104400&#45;&#45;2101833104208 -->
<g id="edge4" class="edge"><title>2101833104400&#45;&#45;2101833104208</title>
<path fill="none" stroke="black" d="M193.87,-297.241C142.265,-280.44 23.3402,-241.72 5.0732,-235.773"/>
</g>
<!-- 2101829333776 -->
<g id="node12" class="node"><title>2101829333776</title>
<ellipse fill="none" stroke="black" cx="101.7" cy="-234" rx="78.5434" ry="18"/>
<text text-anchor="middle" x="101.7" y="-230.5" font-family="Times New Roman,serif" font-size="15.00">Appeal to Judge</text>
</g>
<!-- 2101833104400&#45;&#45;2101829333776 -->
<g id="edge5" class="edge"><title>2101833104400&#45;&#45;2101829333776</title>
<path fill="none" stroke="black" d="M198.284,-293.284C179.064,-281.685 149.499,-263.844 128.141,-250.956"/>
</g>
<!-- 2101829333968 -->
<g id="node13" class="node"><title>2101829333968</title>
<ellipse fill="none" stroke="black" cx="371.7" cy="-234" rx="173.941" ry="18"/>
<text text-anchor="middle" x="371.7" y="-230.5" font-family="Times New Roman,serif" font-size="15.00">Receive Result Appeal from Prefecture</text>
</g>
<!-- 2101833104400&#45;&#45;2101829333968 -->
<g id="edge6" class="edge"><title>2101833104400&#45;&#45;2101829333968</title>
<path fill="none" stroke="black" d="M239.438,-295.119C264.228,-283.851 305.17,-265.241 334.945,-251.707"/>
</g>
<!-- 2101829333680 -->
<g id="node15" class="node"><title>2101829333680</title>
<ellipse fill="black" stroke="black" cx="565.7" cy="-234" rx="2.7" ry="2.7"/>
</g>
<!-- 2101833103776&#45;&#45;2101829333680 -->
<g id="edge8" class="edge"><title>2101833103776&#45;&#45;2101829333680</title>
<path fill="none" stroke="black" d="M565.7,-287.697C565.7,-269.883 565.7,-243.769 565.7,-236.776"/>
</g>
<!-- 2101829335216 -->
<g id="node16" class="node"><title>2101829335216</title>
<ellipse fill="none" stroke="black" cx="632.7" cy="-234" rx="46.6143" ry="18"/>
<text text-anchor="middle" x="632.7" y="-230.5" font-family="Times New Roman,serif" font-size="15.00">xor loop</text>
</g>
<!-- 2101833103776&#45;&#45;2101829335216 -->
<g id="edge20" class="edge"><title>2101833103776&#45;&#45;2101829335216</title>
<path fill="none" stroke="black" d="M579.582,-290.496C590.545,-279.043 605.834,-263.069 617.196,-251.198"/>
</g>
<!-- 2101829333488 -->
<g id="node17" class="node"><title>2101829333488</title>
<ellipse fill="none" stroke="black" cx="608.7" cy="-162" rx="27" ry="18"/>
<text text-anchor="middle" x="608.7" y="-158.5" font-family="Times New Roman,serif" font-size="15.00">seq</text>
</g>
<!-- 2101829335216&#45;&#45;2101829333488 -->
<g id="edge18" class="edge"><title>2101829335216&#45;&#45;2101829333488</title>
<path fill="none" stroke="black" d="M626.89,-216.055C623.117,-205.049 618.219,-190.764 614.456,-179.789"/>
</g>
<!-- 2101829334352 -->
<g id="node27" class="node"><title>2101829334352</title>
<ellipse fill="black" stroke="black" cx="656.7" cy="-162" rx="2.7" ry="2.7"/>
</g>
<!-- 2101829335216&#45;&#45;2101829334352 -->
<g id="edge19" class="edge"><title>2101829335216&#45;&#45;2101829334352</title>
<path fill="none" stroke="black" d="M638.51,-216.055C644.614,-198.252 653.66,-171.865 656.084,-164.796"/>
</g>
<!-- 2101829335456 -->
<g id="node18" class="node"><title>2101829335456</title>
<ellipse fill="none" stroke="black" cx="368.7" cy="-90" rx="27" ry="18"/>
<text text-anchor="middle" x="368.7" y="-86.5" font-family="Times New Roman,serif" font-size="15.00">xor</text>
</g>
<!-- 2101829333488&#45;&#45;2101829335456 -->
<g id="edge11" class="edge"><title>2101829333488&#45;&#45;2101829335456</title>
<path fill="none" stroke="black" d="M584.367,-153.903C538.367,-140.486 439.147,-111.547 393.098,-98.116"/>
</g>
<!-- 2101829334784 -->
<g id="node21" class="node"><title>2101829334784</title>
<ellipse fill="none" stroke="black" cx="608.7" cy="-90" rx="27" ry="18"/>
<text text-anchor="middle" x="608.7" y="-86.5" font-family="Times New Roman,serif" font-size="15.00">xor</text>
</g>
<!-- 2101829333488&#45;&#45;2101829334784 -->
<g id="edge14" class="edge"><title>2101829333488&#45;&#45;2101829334784</title>
<path fill="none" stroke="black" d="M608.7,-143.697C608.7,-132.846 608.7,-118.917 608.7,-108.104"/>
</g>
<!-- 2101829334016 -->
<g id="node24" class="node"><title>2101829334016</title>
<ellipse fill="none" stroke="black" cx="821.7" cy="-90" rx="27" ry="18"/>
<text text-anchor="middle" x="821.7" y="-86.5" font-family="Times New Roman,serif" font-size="15.00">xor</text>
</g>
<!-- 2101829333488&#45;&#45;2101829334016 -->
<g id="edge17" class="edge"><title>2101829333488&#45;&#45;2101829334016</title>
<path fill="none" stroke="black" d="M632.309,-153.241C673.252,-139.786 756.969,-112.273 797.986,-98.7934"/>
</g>
<!-- 2101823467472 -->
<g id="node19" class="node"><title>2101823467472</title>
<ellipse fill="black" stroke="black" cx="199.7" cy="-18" rx="2.7" ry="2.7"/>
</g>
<!-- 2101829335456&#45;&#45;2101823467472 -->
<g id="edge9" class="edge"><title>2101829335456&#45;&#45;2101823467472</title>
<path fill="none" stroke="black" d="M346.258,-79.7045C304.237,-62.2995 216.585,-25.9938 201.83,-19.8823"/>
</g>
<!-- 2101833073904 -->
<g id="node20" class="node"><title>2101833073904</title>
<ellipse fill="none" stroke="black" cx="368.7" cy="-18" rx="148.91" ry="18"/>
<text text-anchor="middle" x="368.7" y="-14.5" font-family="Times New Roman,serif" font-size="15.00">Notify Result Appeal to Offender</text>
</g>
<!-- 2101829335456&#45;&#45;2101833073904 -->
<g id="edge10" class="edge"><title>2101829335456&#45;&#45;2101833073904</title>
<path fill="none" stroke="black" d="M368.7,-71.6966C368.7,-60.8463 368.7,-46.9167 368.7,-36.1043"/>
</g>
<!-- 2101833073184 -->
<g id="node22" class="node"><title>2101833073184</title>
<ellipse fill="black" stroke="black" cx="537.7" cy="-18" rx="2.7" ry="2.7"/>
</g>
<!-- 2101829334784&#45;&#45;2101833073184 -->
<g id="edge12" class="edge"><title>2101829334784&#45;&#45;2101833073184</title>
<path fill="none" stroke="black" d="M593.989,-74.496C575.792,-56.5555 546.343,-27.5217 539.266,-20.5436"/>
</g>
<!-- 2101658259264 -->
<g id="node23" class="node"><title>2101658259264</title>
<ellipse fill="none" stroke="black" cx="679.7" cy="-18" rx="120.819" ry="18"/>
<text text-anchor="middle" x="679.7" y="-14.5" font-family="Times New Roman,serif" font-size="15.00">Send for Credit Collection</text>
</g>
<!-- 2101829334784&#45;&#45;2101658259264 -->
<g id="edge13" class="edge"><title>2101829334784&#45;&#45;2101658259264</title>
<path fill="none" stroke="black" d="M623.411,-74.496C634.784,-63.2831 650.552,-47.737 662.507,-35.9506"/>
</g>
<!-- 2101824655952 -->
<g id="node25" class="node"><title>2101824655952</title>
<ellipse fill="black" stroke="black" cx="821.7" cy="-18" rx="2.7" ry="2.7"/>
</g>
<!-- 2101829334016&#45;&#45;2101824655952 -->
<g id="edge15" class="edge"><title>2101829334016&#45;&#45;2101824655952</title>
<path fill="none" stroke="black" d="M821.7,-71.6966C821.7,-53.8826 821.7,-27.7686 821.7,-20.7764"/>
</g>
<!-- 2101823311488 -->
<g id="node26" class="node"><title>2101823311488</title>
<ellipse fill="none" stroke="black" cx="962.7" cy="-18" rx="120.43" ry="18"/>
<text text-anchor="middle" x="962.7" y="-14.5" font-family="Times New Roman,serif" font-size="15.00">Send Appeal to Prefecture</text>
</g>
<!-- 2101829334016&#45;&#45;2101823311488 -->
<g id="edge16" class="edge"><title>2101829334016&#45;&#45;2101823311488</title>
<path fill="none" stroke="black" d="M842.809,-78.5203C865.78,-67.1164 902.809,-48.7333 929.642,-35.4115"/>
</g>
<!-- 2101833104784 -->
<g id="node30" class="node"><title>2101833104784</title>
<ellipse fill="none" stroke="black" cx="433.7" cy="-522" rx="46.6143" ry="18"/>
<text text-anchor="middle" x="433.7" y="-518.5" font-family="Times New Roman,serif" font-size="15.00">xor loop</text>
</g>
<!-- 2101659408464&#45;&#45;2101833104784 -->
<g id="edge29" class="edge"><title>2101659408464&#45;&#45;2101833104784</title>
<path fill="none" stroke="black" d="M433.7,-575.697C433.7,-564.846 433.7,-550.917 433.7,-540.104"/>
</g>
<!-- 2101833104640 -->
<g id="node33" class="node"><title>2101833104640</title>
<ellipse fill="none" stroke="black" cx="550.7" cy="-522" rx="27" ry="18"/>
<text text-anchor="middle" x="550.7" y="-518.5" font-family="Times New Roman,serif" font-size="15.00">xor</text>
</g>
<!-- 2101659408464&#45;&#45;2101833104640 -->
<g id="edge38" class="edge"><title>2101659408464&#45;&#45;2101833104640</title>
<path fill="none" stroke="black" d="M453.283,-581.284C474.881,-568.362 509.43,-547.692 531.053,-534.755"/>
</g>
<!-- 2101833104592 -->
<g id="node31" class="node"><title>2101833104592</title>
<ellipse fill="black" stroke="black" cx="366.7" cy="-450" rx="2.7" ry="2.7"/>
</g>
<!-- 2101833104784&#45;&#45;2101833104592 -->
<g id="edge27" class="edge"><title>2101833104784&#45;&#45;2101833104592</title>
<path fill="none" stroke="black" d="M418.16,-504.765C400.842,-486.671 374.431,-459.078 368.099,-452.462"/>
</g>
<!-- 2101829333872 -->
<g id="node32" class="node"><title>2101829333872</title>
<ellipse fill="none" stroke="black" cx="433.7" cy="-450" rx="45.7249" ry="18"/>
<text text-anchor="middle" x="433.7" y="-446.5" font-family="Times New Roman,serif" font-size="15.00">Payment</text>
</g>
<!-- 2101833104784&#45;&#45;2101829333872 -->
<g id="edge28" class="edge"><title>2101833104784&#45;&#45;2101829333872</title>
<path fill="none" stroke="black" d="M433.7,-503.697C433.7,-492.846 433.7,-478.917 433.7,-468.104"/>
</g>
<!-- 2101829334304 -->
<g id="node34" class="node"><title>2101829334304</title>
<ellipse fill="black" stroke="black" cx="500.7" cy="-450" rx="2.7" ry="2.7"/>
</g>
<!-- 2101833104640&#45;&#45;2101829334304 -->
<g id="edge30" class="edge"><title>2101833104640&#45;&#45;2101829334304</title>
<path fill="none" stroke="black" d="M539.603,-505.465C526.714,-487.42 506.596,-459.254 501.767,-452.494"/>
</g>
<!-- 2101829334688 -->
<g id="node35" class="node"><title>2101829334688</title>
<ellipse fill="none" stroke="black" cx="574.7" cy="-450" rx="52.6228" ry="18"/>
<text text-anchor="middle" x="574.7" y="-446.5" font-family="Times New Roman,serif" font-size="15.00">Send Fine</text>
</g>
<!-- 2101833104640&#45;&#45;2101829334688 -->
<g id="edge31" class="edge"><title>2101833104640&#45;&#45;2101829334688</title>
<path fill="none" stroke="black" d="M556.51,-504.055C560.228,-493.211 565.037,-479.183 568.777,-468.275"/>
</g>
<!-- 2101824851584 -->
<g id="node36" class="node"><title>2101824851584</title>
<ellipse fill="none" stroke="black" cx="672.7" cy="-450" rx="27" ry="18"/>
<text text-anchor="middle" x="672.7" y="-446.5" font-family="Times New Roman,serif" font-size="15.00">seq</text>
</g>
<!-- 2101833104640&#45;&#45;2101824851584 -->
<g id="edge37" class="edge"><title>2101833104640&#45;&#45;2101824851584</title>
<path fill="none" stroke="black" d="M570.573,-509.597C593.26,-496.581 630.152,-475.413 652.836,-462.398"/>
</g>
<!-- 2101831258016 -->
<g id="node37" class="node"><title>2101831258016</title>
<ellipse fill="none" stroke="black" cx="493.7" cy="-378" rx="52.6228" ry="18"/>
<text text-anchor="middle" x="493.7" y="-374.5" font-family="Times New Roman,serif" font-size="15.00">Send Fine</text>
</g>
<!-- 2101824851584&#45;&#45;2101831258016 -->
<g id="edge32" class="edge"><title>2101824851584&#45;&#45;2101831258016</title>
<path fill="none" stroke="black" d="M650.03,-440.134C618.985,-427.994 563.016,-406.107 527.149,-392.081"/>
</g>
<!-- 2101831257680 -->
<g id="node38" class="node"><title>2101831257680</title>
<ellipse fill="none" stroke="black" cx="672.7" cy="-378" rx="107.914" ry="18"/>
<text text-anchor="middle" x="672.7" y="-374.5" font-family="Times New Roman,serif" font-size="15.00">Insert Fine Notification</text>
</g>
<!-- 2101824851584&#45;&#45;2101831257680 -->
<g id="edge33" class="edge"><title>2101824851584&#45;&#45;2101831257680</title>
<path fill="none" stroke="black" d="M672.7,-431.697C672.7,-420.846 672.7,-406.917 672.7,-396.104"/>
</g>
<!-- 2101831257824 -->
<g id="node39" class="node"><title>2101831257824</title>
<ellipse fill="none" stroke="black" cx="844.7" cy="-378" rx="46.6143" ry="18"/>
<text text-anchor="middle" x="844.7" y="-374.5" font-family="Times New Roman,serif" font-size="15.00">xor loop</text>
</g>
<!-- 2101824851584&#45;&#45;2101831257824 -->
<g id="edge36" class="edge"><title>2101824851584&#45;&#45;2101831257824</title>
<path fill="none" stroke="black" d="M695.186,-439.849C725.509,-427.508 779.634,-405.48 813.773,-391.587"/>
</g>
<!-- 2101823063712 -->
<g id="node40" class="node"><title>2101823063712</title>
<ellipse fill="black" stroke="black" cx="802.7" cy="-306" rx="2.7" ry="2.7"/>
</g>
<!-- 2101831257824&#45;&#45;2101823063712 -->
<g id="edge34" class="edge"><title>2101831257824&#45;&#45;2101823063712</title>
<path fill="none" stroke="black" d="M834.747,-360.411C824.073,-342.622 808.077,-315.962 803.79,-308.816"/>
</g>
<!-- 2101823064528 -->
<g id="node41" class="node"><title>2101823064528</title>
<ellipse fill="none" stroke="black" cx="885.7" cy="-306" rx="61.6894" ry="18"/>
<text text-anchor="middle" x="885.7" y="-302.5" font-family="Times New Roman,serif" font-size="15.00">Add penalty</text>
</g>
<!-- 2101831257824&#45;&#45;2101823064528 -->
<g id="edge35" class="edge"><title>2101831257824&#45;&#45;2101823064528</title>
<path fill="none" stroke="black" d="M854.625,-360.055C861.071,-349.049 869.438,-334.764 875.866,-323.789"/>
</g>
<!-- 2101833104928 -->
<g id="node43" class="node"><title>2101833104928</title>
<ellipse fill="black" stroke="black" cx="493.7" cy="-594" rx="2.7" ry="2.7"/>
</g>
<!-- 2101659409136&#45;&#45;2101833104928 -->
<g id="edge41" class="edge"><title>2101659409136&#45;&#45;2101833104928</title>
<path fill="none" stroke="black" d="M498.217,-647.697C496.69,-629.883 494.452,-603.769 493.852,-596.776"/>
</g>
<!-- 2101833105168 -->
<g id="node44" class="node"><title>2101833105168</title>
<ellipse fill="none" stroke="black" cx="635.7" cy="-594" rx="120.819" ry="18"/>
<text text-anchor="middle" x="635.7" y="-590.5" font-family="Times New Roman,serif" font-size="15.00">Send for Credit Collection</text>
</g>
<!-- 2101659409136&#45;&#45;2101833105168 -->
<g id="edge42" class="edge"><title>2101659409136&#45;&#45;2101833105168</title>
<path fill="none" stroke="black" d="M520.355,-654.369C542.499,-642.971 577.94,-624.729 603.699,-611.471"/>
</g>
</g>
</svg>
