<?xml version="1.0" encoding="UTF-8" standalone="no"?>
<!DOCTYPE svg PUBLIC "-//W3C//DTD SVG 1.1//EN"
 "http://www.w3.org/Graphics/SVG/1.1/DTD/svg11.dtd">
<!-- Generated by graphviz version 2.38.0 (20140413.2041)
 -->
<!-- Title: pt Pages: 1 -->
<svg width="592pt" height="404pt"
 viewBox="0.00 0.00 591.54 404.00" xmlns="http://www.w3.org/2000/svg" xmlns:xlink="http://www.w3.org/1999/xlink">
<g id="graph0" class="graph" transform="scale(1 1) rotate(0) translate(4 400)">
<title>pt</title>
<!-- 2101656413616 -->
<g id="node1" class="node"><title>2101656413616</title>
<ellipse fill="none" stroke="black" cx="179.7" cy="-378" rx="27" ry="18"/>
<text text-anchor="middle" x="179.7" y="-374.5" font-family="Times New Roman,serif" font-size="15.00">seq</text>
</g>
<!-- 2101656415200 -->
<g id="node2" class="node"><title>2101656415200</title>
<ellipse fill="none" stroke="black" cx="74.7" cy="-306" rx="59.5207" ry="18"/>
<text text-anchor="middle" x="74.7" y="-302.5" font-family="Times New Roman,serif" font-size="15.00">Create Fine</text>
</g>
<!-- 2101656413616&#45;&#45;2101656415200 -->
<g id="edge1" class="edge"><title>2101656413616&#45;&#45;2101656415200</title>
<path fill="none" stroke="black" d="M160.928,-364.485C143.35,-352.767 117.023,-335.215 98.0864,-322.591"/>
</g>
<!-- 2101656413328 -->
<g id="node3" class="node"><title>2101656413328</title>
<ellipse fill="none" stroke="black" cx="179.7" cy="-306" rx="27" ry="18"/>
<text text-anchor="middle" x="179.7" y="-302.5" font-family="Times New Roman,serif" font-size="15.00">and</text>
</g>
<!-- 2101656413616&#45;&#45;2101656413328 -->
<g id="edge14" class="edge"><title>2101656413616&#45;&#45;2101656413328</title>
<path fill="none" stroke="black" d="M179.7,-359.697C179.7,-348.846 179.7,-334.917 179.7,-324.104"/>
</g>
<!-- 2101656414000 -->
<g id="node16" class="node"><title>2101656414000</title>
<ellipse fill="none" stroke="black" cx="251.7" cy="-306" rx="27" ry="18"/>
<text text-anchor="middle" x="251.7" y="-302.5" font-family="Times New Roman,serif" font-size="15.00">xor</text>
</g>
<!-- 2101656413616&#45;&#45;2101656414000 -->
<g id="edge17" class="edge"><title>2101656413616&#45;&#45;2101656414000</title>
<path fill="none" stroke="black" d="M194.27,-362.834C206.68,-350.77 224.431,-333.512 236.904,-321.385"/>
</g>
<!-- 2101656413808 -->
<g id="node4" class="node"><title>2101656413808</title>
<ellipse fill="none" stroke="black" cx="69.7" cy="-234" rx="46.6143" ry="18"/>
<text text-anchor="middle" x="69.7" y="-230.5" font-family="Times New Roman,serif" font-size="15.00">xor loop</text>
</g>
<!-- 2101656413328&#45;&#45;2101656413808 -->
<g id="edge4" class="edge"><title>2101656413328&#45;&#45;2101656413808</title>
<path fill="none" stroke="black" d="M160.539,-292.807C141.704,-280.821 112.935,-262.513 92.835,-249.722"/>
</g>
<!-- 2101656414480 -->
<g id="node7" class="node"><title>2101656414480</title>
<ellipse fill="none" stroke="black" cx="185.7" cy="-234" rx="27" ry="18"/>
<text text-anchor="middle" x="185.7" y="-230.5" font-family="Times New Roman,serif" font-size="15.00">xor</text>
</g>
<!-- 2101656413328&#45;&#45;2101656414480 -->
<g id="edge13" class="edge"><title>2101656413328&#45;&#45;2101656414480</title>
<path fill="none" stroke="black" d="M181.183,-287.697C182.113,-276.846 183.307,-262.917 184.234,-252.104"/>
</g>
<!-- 2101658502864 -->
<g id="node5" class="node"><title>2101658502864</title>
<ellipse fill="black" stroke="black" cx="2.7" cy="-162" rx="2.7" ry="2.7"/>
</g>
<!-- 2101656413808&#45;&#45;2101658502864 -->
<g id="edge2" class="edge"><title>2101656413808&#45;&#45;2101658502864</title>
<path fill="none" stroke="black" d="M54.1604,-216.765C36.842,-198.671 10.4314,-171.078 4.09939,-164.462"/>
</g>
<!-- 2101658501808 -->
<g id="node6" class="node"><title>2101658501808</title>
<ellipse fill="none" stroke="black" cx="69.7" cy="-162" rx="45.7249" ry="18"/>
<text text-anchor="middle" x="69.7" y="-158.5" font-family="Times New Roman,serif" font-size="15.00">Payment</text>
</g>
<!-- 2101656413808&#45;&#45;2101658501808 -->
<g id="edge3" class="edge"><title>2101656413808&#45;&#45;2101658501808</title>
<path fill="none" stroke="black" d="M69.7,-215.697C69.7,-204.846 69.7,-190.917 69.7,-180.104"/>
</g>
<!-- 2101658504976 -->
<g id="node8" class="node"><title>2101658504976</title>
<ellipse fill="black" stroke="black" cx="136.7" cy="-162" rx="2.7" ry="2.7"/>
</g>
<!-- 2101656414480&#45;&#45;2101658504976 -->
<g id="edge5" class="edge"><title>2101656414480&#45;&#45;2101658504976</title>
<path fill="none" stroke="black" d="M174.825,-217.465C162.194,-199.42 142.478,-171.254 137.746,-164.494"/>
</g>
<!-- 2101658502000 -->
<g id="node9" class="node"><title>2101658502000</title>
<ellipse fill="none" stroke="black" cx="210.7" cy="-162" rx="52.6228" ry="18"/>
<text text-anchor="middle" x="210.7" y="-158.5" font-family="Times New Roman,serif" font-size="15.00">Send Fine</text>
</g>
<!-- 2101656414480&#45;&#45;2101658502000 -->
<g id="edge6" class="edge"><title>2101656414480&#45;&#45;2101658502000</title>
<path fill="none" stroke="black" d="M191.625,-216.411C195.552,-205.414 200.69,-191.027 204.644,-179.956"/>
</g>
<!-- 2101658504736 -->
<g id="node10" class="node"><title>2101658504736</title>
<ellipse fill="none" stroke="black" cx="308.7" cy="-162" rx="27" ry="18"/>
<text text-anchor="middle" x="308.7" y="-158.5" font-family="Times New Roman,serif" font-size="15.00">seq</text>
</g>
<!-- 2101656414480&#45;&#45;2101658504736 -->
<g id="edge12" class="edge"><title>2101656414480&#45;&#45;2101658504736</title>
<path fill="none" stroke="black" d="M205.736,-221.597C228.608,-208.581 265.804,-187.413 288.673,-174.398"/>
</g>
<!-- 2101658503392 -->
<g id="node11" class="node"><title>2101658503392</title>
<ellipse fill="none" stroke="black" cx="129.7" cy="-90" rx="52.6228" ry="18"/>
<text text-anchor="middle" x="129.7" y="-86.5" font-family="Times New Roman,serif" font-size="15.00">Send Fine</text>
</g>
<!-- 2101658504736&#45;&#45;2101658503392 -->
<g id="edge7" class="edge"><title>2101658504736&#45;&#45;2101658503392</title>
<path fill="none" stroke="black" d="M286.03,-152.134C254.985,-139.994 199.016,-118.107 163.149,-104.081"/>
</g>
<!-- 2101658501184 -->
<g id="node12" class="node"><title>2101658501184</title>
<ellipse fill="none" stroke="black" cx="308.7" cy="-90" rx="107.914" ry="18"/>
<text text-anchor="middle" x="308.7" y="-86.5" font-family="Times New Roman,serif" font-size="15.00">Insert Fine Notification</text>
</g>
<!-- 2101658504736&#45;&#45;2101658501184 -->
<g id="edge8" class="edge"><title>2101658504736&#45;&#45;2101658501184</title>
<path fill="none" stroke="black" d="M308.7,-143.697C308.7,-132.846 308.7,-118.917 308.7,-108.104"/>
</g>
<!-- 2101658501760 -->
<g id="node13" class="node"><title>2101658501760</title>
<ellipse fill="none" stroke="black" cx="480.7" cy="-90" rx="46.6143" ry="18"/>
<text text-anchor="middle" x="480.7" y="-86.5" font-family="Times New Roman,serif" font-size="15.00">xor loop</text>
</g>
<!-- 2101658504736&#45;&#45;2101658501760 -->
<g id="edge11" class="edge"><title>2101658504736&#45;&#45;2101658501760</title>
<path fill="none" stroke="black" d="M331.186,-151.849C361.509,-139.508 415.634,-117.48 449.773,-103.587"/>
</g>
<!-- 2101658503584 -->
<g id="node14" class="node"><title>2101658503584</title>
<ellipse fill="black" stroke="black" cx="438.7" cy="-18" rx="2.7" ry="2.7"/>
</g>
<!-- 2101658501760&#45;&#45;2101658503584 -->
<g id="edge9" class="edge"><title>2101658501760&#45;&#45;2101658503584</title>
<path fill="none" stroke="black" d="M470.747,-72.411C460.073,-54.622 444.077,-27.9625 439.79,-20.8163"/>
</g>
<!-- 2101658503968 -->
<g id="node15" class="node"><title>2101658503968</title>
<ellipse fill="none" stroke="black" cx="521.7" cy="-18" rx="61.6894" ry="18"/>
<text text-anchor="middle" x="521.7" y="-14.5" font-family="Times New Roman,serif" font-size="15.00">Add penalty</text>
</g>
<!-- 2101658501760&#45;&#45;2101658503968 -->
<g id="edge10" class="edge"><title>2101658501760&#45;&#45;2101658503968</title>
<path fill="none" stroke="black" d="M490.625,-72.055C497.071,-61.0492 505.438,-46.7636 511.866,-35.789"/>
</g>
<!-- 2101658502384 -->
<g id="node17" class="node"><title>2101658502384</title>
<ellipse fill="black" stroke="black" cx="245.7" cy="-234" rx="2.7" ry="2.7"/>
</g>
<!-- 2101656414000&#45;&#45;2101658502384 -->
<g id="edge15" class="edge"><title>2101656414000&#45;&#45;2101658502384</title>
<path fill="none" stroke="black" d="M250.217,-287.697C248.69,-269.883 246.452,-243.769 245.852,-236.776"/>
</g>
<!-- 2101658502096 -->
<g id="node18" class="node"><title>2101658502096</title>
<ellipse fill="none" stroke="black" cx="387.7" cy="-234" rx="120.819" ry="18"/>
<text text-anchor="middle" x="387.7" y="-230.5" font-family="Times New Roman,serif" font-size="15.00">Send for Credit Collection</text>
</g>
<!-- 2101656414000&#45;&#45;2101658502096 -->
<g id="edge16" class="edge"><title>2101656414000&#45;&#45;2101658502096</title>
<path fill="none" stroke="black" d="M272.355,-294.369C294.499,-282.971 329.94,-264.729 355.699,-251.471"/>
</g>
</g>
</svg>
