<?xml version="1.0" encoding="UTF-8" standalone="no"?>
<!DOCTYPE svg PUBLIC "-//W3C//DTD SVG 1.1//EN"
 "http://www.w3.org/Graphics/SVG/1.1/DTD/svg11.dtd">
<!-- Generated by graphviz version 2.38.0 (20140413.2041)
 -->
<!-- Title: pt Pages: 1 -->
<svg width="978pt" height="836pt"
 viewBox="0.00 0.00 977.72 836.00" xmlns="http://www.w3.org/2000/svg" xmlns:xlink="http://www.w3.org/1999/xlink">
<g id="graph0" class="graph" transform="scale(1 1) rotate(0) translate(4 832)">
<title>pt</title>
<!-- 2101842066544 -->
<g id="node1" class="node"><title>2101842066544</title>
<ellipse fill="none" stroke="black" cx="422.811" cy="-810" rx="27" ry="18"/>
<text text-anchor="middle" x="422.811" y="-806.5" font-family="Times New Roman,serif" font-size="15.00">seq</text>
</g>
<!-- 2101849514336 -->
<g id="node2" class="node"><title>2101849514336</title>
<ellipse fill="none" stroke="black" cx="317.811" cy="-738" rx="59.5207" ry="18"/>
<text text-anchor="middle" x="317.811" y="-734.5" font-family="Times New Roman,serif" font-size="15.00">Create Fine</text>
</g>
<!-- 2101842066544&#45;&#45;2101849514336 -->
<g id="edge1" class="edge"><title>2101842066544&#45;&#45;2101849514336</title>
<path fill="none" stroke="black" d="M404.039,-796.485C386.461,-784.767 360.134,-767.215 341.198,-754.591"/>
</g>
<!-- 2101849515440 -->
<g id="node3" class="node"><title>2101849515440</title>
<ellipse fill="none" stroke="black" cx="422.811" cy="-738" rx="27" ry="18"/>
<text text-anchor="middle" x="422.811" y="-734.5" font-family="Times New Roman,serif" font-size="15.00">and</text>
</g>
<!-- 2101842066544&#45;&#45;2101849515440 -->
<g id="edge40" class="edge"><title>2101842066544&#45;&#45;2101849515440</title>
<path fill="none" stroke="black" d="M422.811,-791.697C422.811,-780.846 422.811,-766.917 422.811,-756.104"/>
</g>
<!-- 2101849514288 -->
<g id="node42" class="node"><title>2101849514288</title>
<ellipse fill="none" stroke="black" cx="494.811" cy="-738" rx="27" ry="18"/>
<text text-anchor="middle" x="494.811" y="-734.5" font-family="Times New Roman,serif" font-size="15.00">xor</text>
</g>
<!-- 2101842066544&#45;&#45;2101849514288 -->
<g id="edge43" class="edge"><title>2101842066544&#45;&#45;2101849514288</title>
<path fill="none" stroke="black" d="M437.381,-794.834C449.791,-782.77 467.542,-765.512 480.015,-753.385"/>
</g>
<!-- 2101849514192 -->
<g id="node4" class="node"><title>2101849514192</title>
<ellipse fill="none" stroke="black" cx="219.811" cy="-666" rx="27" ry="18"/>
<text text-anchor="middle" x="219.811" y="-662.5" font-family="Times New Roman,serif" font-size="15.00">and</text>
</g>
<!-- 2101849515440&#45;&#45;2101849514192 -->
<g id="edge14" class="edge"><title>2101849515440&#45;&#45;2101849514192</title>
<path fill="none" stroke="black" d="M399.127,-728.833C360.011,-715.345 282.361,-688.569 243.344,-675.115"/>
</g>
<!-- 2101839621472 -->
<g id="node17" class="node"><title>2101839621472</title>
<ellipse fill="none" stroke="black" cx="428.811" cy="-666" rx="27" ry="18"/>
<text text-anchor="middle" x="428.811" y="-662.5" font-family="Times New Roman,serif" font-size="15.00">xor</text>
</g>
<!-- 2101849515440&#45;&#45;2101839621472 -->
<g id="edge39" class="edge"><title>2101849515440&#45;&#45;2101839621472</title>
<path fill="none" stroke="black" d="M424.294,-719.697C425.224,-708.846 426.418,-694.917 427.345,-684.104"/>
</g>
<!-- 2101849543728 -->
<g id="node5" class="node"><title>2101849543728</title>
<ellipse fill="none" stroke="black" cx="78.8111" cy="-594" rx="46.6143" ry="18"/>
<text text-anchor="middle" x="78.8111" y="-590.5" font-family="Times New Roman,serif" font-size="15.00">xor loop</text>
</g>
<!-- 2101849514192&#45;&#45;2101849543728 -->
<g id="edge4" class="edge"><title>2101849514192&#45;&#45;2101849543728</title>
<path fill="none" stroke="black" d="M198.702,-654.52C174.118,-642.316 133.432,-622.117 106.374,-608.684"/>
</g>
<!-- 2101849543776 -->
<g id="node8" class="node"><title>2101849543776</title>
<ellipse fill="none" stroke="black" cx="219.811" cy="-594" rx="27" ry="18"/>
<text text-anchor="middle" x="219.811" y="-590.5" font-family="Times New Roman,serif" font-size="15.00">xor</text>
</g>
<!-- 2101849514192&#45;&#45;2101849543776 -->
<g id="edge13" class="edge"><title>2101849514192&#45;&#45;2101849543776</title>
<path fill="none" stroke="black" d="M219.811,-647.697C219.811,-636.846 219.811,-622.917 219.811,-612.104"/>
</g>
<!-- 2101849545216 -->
<g id="node6" class="node"><title>2101849545216</title>
<ellipse fill="black" stroke="black" cx="11.8111" cy="-522" rx="2.7" ry="2.7"/>
</g>
<!-- 2101849543728&#45;&#45;2101849545216 -->
<g id="edge2" class="edge"><title>2101849543728&#45;&#45;2101849545216</title>
<path fill="none" stroke="black" d="M63.2715,-576.765C45.9531,-558.671 19.5425,-531.078 13.2104,-524.462"/>
</g>
<!-- 2101849545984 -->
<g id="node7" class="node"><title>2101849545984</title>
<ellipse fill="none" stroke="black" cx="78.8111" cy="-522" rx="45.7249" ry="18"/>
<text text-anchor="middle" x="78.8111" y="-518.5" font-family="Times New Roman,serif" font-size="15.00">Payment</text>
</g>
<!-- 2101849543728&#45;&#45;2101849545984 -->
<g id="edge3" class="edge"><title>2101849543728&#45;&#45;2101849545984</title>
<path fill="none" stroke="black" d="M78.8111,-575.697C78.8111,-564.846 78.8111,-550.917 78.8111,-540.104"/>
</g>
<!-- 2101849662176 -->
<g id="node9" class="node"><title>2101849662176</title>
<ellipse fill="black" stroke="black" cx="145.811" cy="-522" rx="2.7" ry="2.7"/>
</g>
<!-- 2101849543776&#45;&#45;2101849662176 -->
<g id="edge5" class="edge"><title>2101849543776&#45;&#45;2101849662176</title>
<path fill="none" stroke="black" d="M204.836,-578.834C185.916,-560.937 154.915,-531.612 147.46,-524.56"/>
</g>
<!-- 2101849662128 -->
<g id="node10" class="node"><title>2101849662128</title>
<ellipse fill="none" stroke="black" cx="219.811" cy="-522" rx="52.6228" ry="18"/>
<text text-anchor="middle" x="219.811" y="-518.5" font-family="Times New Roman,serif" font-size="15.00">Send Fine</text>
</g>
<!-- 2101849543776&#45;&#45;2101849662128 -->
<g id="edge6" class="edge"><title>2101849543776&#45;&#45;2101849662128</title>
<path fill="none" stroke="black" d="M219.811,-575.697C219.811,-564.846 219.811,-550.917 219.811,-540.104"/>
</g>
<!-- 2101849663616 -->
<g id="node11" class="node"><title>2101849663616</title>
<ellipse fill="none" stroke="black" cx="317.811" cy="-522" rx="27" ry="18"/>
<text text-anchor="middle" x="317.811" y="-518.5" font-family="Times New Roman,serif" font-size="15.00">seq</text>
</g>
<!-- 2101849543776&#45;&#45;2101849663616 -->
<g id="edge12" class="edge"><title>2101849543776&#45;&#45;2101849663616</title>
<path fill="none" stroke="black" d="M237.786,-580.161C255.468,-567.531 282.307,-548.36 299.95,-535.758"/>
</g>
<!-- 2101849662656 -->
<g id="node12" class="node"><title>2101849662656</title>
<ellipse fill="none" stroke="black" cx="52.8111" cy="-450" rx="52.6228" ry="18"/>
<text text-anchor="middle" x="52.8111" y="-446.5" font-family="Times New Roman,serif" font-size="15.00">Send Fine</text>
</g>
<!-- 2101849663616&#45;&#45;2101849662656 -->
<g id="edge7" class="edge"><title>2101849663616&#45;&#45;2101849662656</title>
<path fill="none" stroke="black" d="M292.88,-514.415C247.012,-502.298 148.866,-476.373 93.3157,-461.699"/>
</g>
<!-- 2101849662944 -->
<g id="node13" class="node"><title>2101849662944</title>
<ellipse fill="none" stroke="black" cx="231.811" cy="-450" rx="107.914" ry="18"/>
<text text-anchor="middle" x="231.811" y="-446.5" font-family="Times New Roman,serif" font-size="15.00">Insert Fine Notification</text>
</g>
<!-- 2101849663616&#45;&#45;2101849662944 -->
<g id="edge8" class="edge"><title>2101849663616&#45;&#45;2101849662944</title>
<path fill="none" stroke="black" d="M301.229,-507.503C287.367,-496.22 267.525,-480.07 252.602,-467.923"/>
</g>
<!-- 2101849664624 -->
<g id="node14" class="node"><title>2101849664624</title>
<ellipse fill="none" stroke="black" cx="403.811" cy="-450" rx="46.6143" ry="18"/>
<text text-anchor="middle" x="403.811" y="-446.5" font-family="Times New Roman,serif" font-size="15.00">xor loop</text>
</g>
<!-- 2101849663616&#45;&#45;2101849664624 -->
<g id="edge11" class="edge"><title>2101849663616&#45;&#45;2101849664624</title>
<path fill="none" stroke="black" d="M334.393,-507.503C348.743,-495.823 369.502,-478.926 384.578,-466.655"/>
</g>
<!-- 2101849662320 -->
<g id="node15" class="node"><title>2101849662320</title>
<ellipse fill="black" stroke="black" cx="362.811" cy="-378" rx="2.7" ry="2.7"/>
</g>
<!-- 2101849664624&#45;&#45;2101849662320 -->
<g id="edge9" class="edge"><title>2101849664624&#45;&#45;2101849662320</title>
<path fill="none" stroke="black" d="M393.886,-432.055C383.458,-414.252 368.004,-387.865 363.863,-380.796"/>
</g>
<!-- 2101849665200 -->
<g id="node16" class="node"><title>2101849665200</title>
<ellipse fill="none" stroke="black" cx="445.811" cy="-378" rx="61.6894" ry="18"/>
<text text-anchor="middle" x="445.811" y="-374.5" font-family="Times New Roman,serif" font-size="15.00">Add penalty</text>
</g>
<!-- 2101849664624&#45;&#45;2101849665200 -->
<g id="edge10" class="edge"><title>2101849664624&#45;&#45;2101849665200</title>
<path fill="none" stroke="black" d="M413.764,-432.411C420.363,-421.414 428.995,-407.027 435.637,-395.956"/>
</g>
<!-- 2101839622000 -->
<g id="node18" class="node"><title>2101839622000</title>
<ellipse fill="black" stroke="black" cx="428.811" cy="-594" rx="2.7" ry="2.7"/>
</g>
<!-- 2101839621472&#45;&#45;2101839622000 -->
<g id="edge15" class="edge"><title>2101839621472&#45;&#45;2101839622000</title>
<path fill="none" stroke="black" d="M428.811,-647.697C428.811,-629.883 428.811,-603.769 428.811,-596.776"/>
</g>
<!-- 2101839620464 -->
<g id="node19" class="node"><title>2101839620464</title>
<ellipse fill="none" stroke="black" cx="546.811" cy="-594" rx="46.6143" ry="18"/>
<text text-anchor="middle" x="546.811" y="-590.5" font-family="Times New Roman,serif" font-size="15.00">xor loop</text>
</g>
<!-- 2101839621472&#45;&#45;2101839620464 -->
<g id="edge38" class="edge"><title>2101839621472&#45;&#45;2101839620464</title>
<path fill="none" stroke="black" d="M448.296,-653.441C468.589,-641.403 500.423,-622.518 522.384,-609.491"/>
</g>
<!-- 2101849546032 -->
<g id="node20" class="node"><title>2101849546032</title>
<ellipse fill="none" stroke="black" cx="546.811" cy="-522" rx="27" ry="18"/>
<text text-anchor="middle" x="546.811" y="-518.5" font-family="Times New Roman,serif" font-size="15.00">xor</text>
</g>
<!-- 2101839620464&#45;&#45;2101849546032 -->
<g id="edge36" class="edge"><title>2101839620464&#45;&#45;2101849546032</title>
<path fill="none" stroke="black" d="M546.811,-575.697C546.811,-564.846 546.811,-550.917 546.811,-540.104"/>
</g>
<!-- 2101849542960 -->
<g id="node41" class="node"><title>2101849542960</title>
<ellipse fill="black" stroke="black" cx="594.811" cy="-522" rx="2.7" ry="2.7"/>
</g>
<!-- 2101839620464&#45;&#45;2101849542960 -->
<g id="edge37" class="edge"><title>2101839620464&#45;&#45;2101849542960</title>
<path fill="none" stroke="black" d="M558.186,-576.411C570.385,-558.622 588.665,-531.962 593.566,-524.816"/>
</g>
<!-- 2101849544880 -->
<g id="node21" class="node"><title>2101849544880</title>
<ellipse fill="none" stroke="black" cx="546.811" cy="-450" rx="78.5434" ry="18"/>
<text text-anchor="middle" x="546.811" y="-446.5" font-family="Times New Roman,serif" font-size="15.00">Appeal to Judge</text>
</g>
<!-- 2101849546032&#45;&#45;2101849544880 -->
<g id="edge16" class="edge"><title>2101849546032&#45;&#45;2101849544880</title>
<path fill="none" stroke="black" d="M546.811,-503.697C546.811,-492.846 546.811,-478.917 546.811,-468.104"/>
</g>
<!-- 2101849545888 -->
<g id="node22" class="node"><title>2101849545888</title>
<ellipse fill="none" stroke="black" cx="670.811" cy="-450" rx="27" ry="18"/>
<text text-anchor="middle" x="670.811" y="-446.5" font-family="Times New Roman,serif" font-size="15.00">seq</text>
</g>
<!-- 2101849546032&#45;&#45;2101849545888 -->
<g id="edge35" class="edge"><title>2101849546032&#45;&#45;2101849545888</title>
<path fill="none" stroke="black" d="M566.734,-509.753C589.874,-496.691 627.819,-475.27 650.938,-462.219"/>
</g>
<!-- 2101849545120 -->
<g id="node23" class="node"><title>2101849545120</title>
<ellipse fill="none" stroke="black" cx="634.811" cy="-378" rx="27" ry="18"/>
<text text-anchor="middle" x="634.811" y="-374.5" font-family="Times New Roman,serif" font-size="15.00">xor</text>
</g>
<!-- 2101849545888&#45;&#45;2101849545120 -->
<g id="edge31" class="edge"><title>2101849545888&#45;&#45;2101849545120</title>
<path fill="none" stroke="black" d="M662.461,-432.765C656.646,-421.456 648.921,-406.437 643.115,-395.147"/>
</g>
<!-- 2101849546704 -->
<g id="node38" class="node"><title>2101849546704</title>
<ellipse fill="none" stroke="black" cx="706.811" cy="-378" rx="27" ry="18"/>
<text text-anchor="middle" x="706.811" y="-374.5" font-family="Times New Roman,serif" font-size="15.00">xor</text>
</g>
<!-- 2101849545888&#45;&#45;2101849546704 -->
<g id="edge34" class="edge"><title>2101849545888&#45;&#45;2101849546704</title>
<path fill="none" stroke="black" d="M679.161,-432.765C684.977,-421.456 692.701,-406.437 698.507,-395.147"/>
</g>
<!-- 2101849546656 -->
<g id="node24" class="node"><title>2101849546656</title>
<ellipse fill="none" stroke="black" cx="450.811" cy="-306" rx="144.571" ry="18"/>
<text text-anchor="middle" x="450.811" y="-302.5" font-family="Times New Roman,serif" font-size="15.00">Insert Date Appeal to Prefecture</text>
</g>
<!-- 2101849545120&#45;&#45;2101849546656 -->
<g id="edge17" class="edge"><title>2101849545120&#45;&#45;2101849546656</title>
<path fill="none" stroke="black" d="M611.879,-368.276C582.4,-357.061 530.625,-337.364 493.735,-323.33"/>
</g>
<!-- 2101849545024 -->
<g id="node25" class="node"><title>2101849545024</title>
<ellipse fill="none" stroke="black" cx="640.811" cy="-306" rx="27" ry="18"/>
<text text-anchor="middle" x="640.811" y="-302.5" font-family="Times New Roman,serif" font-size="15.00">seq</text>
</g>
<!-- 2101849545120&#45;&#45;2101849545024 -->
<g id="edge30" class="edge"><title>2101849545120&#45;&#45;2101849545024</title>
<path fill="none" stroke="black" d="M636.294,-359.697C637.224,-348.846 638.418,-334.917 639.345,-324.104"/>
</g>
<!-- 2101849545696 -->
<g id="node26" class="node"><title>2101849545696</title>
<ellipse fill="none" stroke="black" cx="421.811" cy="-234" rx="173.941" ry="18"/>
<text text-anchor="middle" x="421.811" y="-230.5" font-family="Times New Roman,serif" font-size="15.00">Receive Result Appeal from Prefecture</text>
</g>
<!-- 2101849545024&#45;&#45;2101849545696 -->
<g id="edge18" class="edge"><title>2101849545024&#45;&#45;2101849545696</title>
<path fill="none" stroke="black" d="M616.957,-297.376C582.591,-286.391 518.301,-265.842 472.921,-251.337"/>
</g>
<!-- 2101849546320 -->
<g id="node27" class="node"><title>2101849546320</title>
<ellipse fill="none" stroke="black" cx="640.811" cy="-234" rx="27" ry="18"/>
<text text-anchor="middle" x="640.811" y="-230.5" font-family="Times New Roman,serif" font-size="15.00">xor</text>
</g>
<!-- 2101849545024&#45;&#45;2101849546320 -->
<g id="edge26" class="edge"><title>2101849545024&#45;&#45;2101849546320</title>
<path fill="none" stroke="black" d="M640.811,-287.697C640.811,-276.846 640.811,-262.917 640.811,-252.104"/>
</g>
<!-- 2101849544496 -->
<g id="node35" class="node"><title>2101849544496</title>
<ellipse fill="none" stroke="black" cx="712.811" cy="-234" rx="27" ry="18"/>
<text text-anchor="middle" x="712.811" y="-230.5" font-family="Times New Roman,serif" font-size="15.00">xor</text>
</g>
<!-- 2101849545024&#45;&#45;2101849544496 -->
<g id="edge29" class="edge"><title>2101849545024&#45;&#45;2101849544496</title>
<path fill="none" stroke="black" d="M655.381,-290.834C667.791,-278.77 685.542,-261.512 698.015,-249.385"/>
</g>
<!-- 2101849545552 -->
<g id="node28" class="node"><title>2101849545552</title>
<ellipse fill="black" stroke="black" cx="598.811" cy="-162" rx="2.7" ry="2.7"/>
</g>
<!-- 2101849546320&#45;&#45;2101849545552 -->
<g id="edge19" class="edge"><title>2101849546320&#45;&#45;2101849545552</title>
<path fill="none" stroke="black" d="M631.281,-217.116C620.631,-199.367 604.306,-172.158 599.925,-164.857"/>
</g>
<!-- 2101849544400 -->
<g id="node29" class="node"><title>2101849544400</title>
<ellipse fill="none" stroke="black" cx="646.811" cy="-162" rx="27" ry="18"/>
<text text-anchor="middle" x="646.811" y="-158.5" font-family="Times New Roman,serif" font-size="15.00">seq</text>
</g>
<!-- 2101849546320&#45;&#45;2101849544400 -->
<g id="edge25" class="edge"><title>2101849546320&#45;&#45;2101849544400</title>
<path fill="none" stroke="black" d="M642.294,-215.697C643.224,-204.846 644.418,-190.917 645.345,-180.104"/>
</g>
<!-- 2101849545312 -->
<g id="node30" class="node"><title>2101849545312</title>
<ellipse fill="none" stroke="black" cx="549.811" cy="-90" rx="27" ry="18"/>
<text text-anchor="middle" x="549.811" y="-86.5" font-family="Times New Roman,serif" font-size="15.00">xor</text>
</g>
<!-- 2101849544400&#45;&#45;2101849545312 -->
<g id="edge23" class="edge"><title>2101849544400&#45;&#45;2101849545312</title>
<path fill="none" stroke="black" d="M629.02,-148.161C611.518,-135.531 584.952,-116.36 567.49,-103.758"/>
</g>
<!-- 2101849545648 -->
<g id="node34" class="node"><title>2101849545648</title>
<ellipse fill="none" stroke="black" cx="743.811" cy="-90" rx="148.91" ry="18"/>
<text text-anchor="middle" x="743.811" y="-86.5" font-family="Times New Roman,serif" font-size="15.00">Notify Result Appeal to Offender</text>
</g>
<!-- 2101849544400&#45;&#45;2101849545648 -->
<g id="edge24" class="edge"><title>2101849544400&#45;&#45;2101849545648</title>
<path fill="none" stroke="black" d="M664.602,-148.161C680.245,-136.873 703.127,-120.36 720.28,-107.981"/>
</g>
<!-- 2101849544016 -->
<g id="node31" class="node"><title>2101849544016</title>
<ellipse fill="black" stroke="black" cx="450.811" cy="-18" rx="2.7" ry="2.7"/>
</g>
<!-- 2101849545312&#45;&#45;2101849544016 -->
<g id="edge20" class="edge"><title>2101849545312&#45;&#45;2101849544016</title>
<path fill="none" stroke="black" d="M531.653,-76.1609C506.198,-58.1628 461.96,-26.8831 452.587,-20.2559"/>
</g>
<!-- 2101849542864 -->
<g id="node32" class="node"><title>2101849542864</title>
<ellipse fill="none" stroke="black" cx="549.811" cy="-18" rx="78.5434" ry="18"/>
<text text-anchor="middle" x="549.811" y="-14.5" font-family="Times New Roman,serif" font-size="15.00">Appeal to Judge</text>
</g>
<!-- 2101849545312&#45;&#45;2101849542864 -->
<g id="edge21" class="edge"><title>2101849545312&#45;&#45;2101849542864</title>
<path fill="none" stroke="black" d="M549.811,-71.6966C549.811,-60.8463 549.811,-46.9167 549.811,-36.1043"/>
</g>
<!-- 2101849543872 -->
<g id="node33" class="node"><title>2101849543872</title>
<ellipse fill="none" stroke="black" cx="766.811" cy="-18" rx="120.43" ry="18"/>
<text text-anchor="middle" x="766.811" y="-14.5" font-family="Times New Roman,serif" font-size="15.00">Send Appeal to Prefecture</text>
</g>
<!-- 2101849545312&#45;&#45;2101849543872 -->
<g id="edge22" class="edge"><title>2101849545312&#45;&#45;2101849543872</title>
<path fill="none" stroke="black" d="M573.863,-81.2413C608.623,-70.0285 673.645,-49.0535 718.536,-34.5726"/>
</g>
<!-- 2101849544544 -->
<g id="node36" class="node"><title>2101849544544</title>
<ellipse fill="black" stroke="black" cx="706.811" cy="-162" rx="2.7" ry="2.7"/>
</g>
<!-- 2101849544496&#45;&#45;2101849544544 -->
<g id="edge27" class="edge"><title>2101849544496&#45;&#45;2101849544544</title>
<path fill="none" stroke="black" d="M711.328,-215.697C709.801,-197.883 707.563,-171.769 706.963,-164.776"/>
</g>
<!-- 2101849544736 -->
<g id="node37" class="node"><title>2101849544736</title>
<ellipse fill="none" stroke="black" cx="848.811" cy="-162" rx="120.819" ry="18"/>
<text text-anchor="middle" x="848.811" y="-158.5" font-family="Times New Roman,serif" font-size="15.00">Send for Credit Collection</text>
</g>
<!-- 2101849544496&#45;&#45;2101849544736 -->
<g id="edge28" class="edge"><title>2101849544496&#45;&#45;2101849544736</title>
<path fill="none" stroke="black" d="M733.467,-222.369C755.61,-210.971 791.051,-192.729 816.81,-179.471"/>
</g>
<!-- 2101849546608 -->
<g id="node39" class="node"><title>2101849546608</title>
<ellipse fill="black" stroke="black" cx="700.811" cy="-306" rx="2.7" ry="2.7"/>
</g>
<!-- 2101849546704&#45;&#45;2101849546608 -->
<g id="edge32" class="edge"><title>2101849546704&#45;&#45;2101849546608</title>
<path fill="none" stroke="black" d="M705.328,-359.697C703.801,-341.883 701.563,-315.769 700.963,-308.776"/>
</g>
<!-- 2101849544448 -->
<g id="node40" class="node"><title>2101849544448</title>
<ellipse fill="none" stroke="black" cx="841.811" cy="-306" rx="120.43" ry="18"/>
<text text-anchor="middle" x="841.811" y="-302.5" font-family="Times New Roman,serif" font-size="15.00">Send Appeal to Prefecture</text>
</g>
<!-- 2101849546704&#45;&#45;2101849544448 -->
<g id="edge33" class="edge"><title>2101849546704&#45;&#45;2101849544448</title>
<path fill="none" stroke="black" d="M727.609,-366.216C749.65,-354.787 784.721,-336.602 810.188,-323.397"/>
</g>
<!-- 2101849542720 -->
<g id="node43" class="node"><title>2101849542720</title>
<ellipse fill="black" stroke="black" cx="488.811" cy="-666" rx="2.7" ry="2.7"/>
</g>
<!-- 2101849514288&#45;&#45;2101849542720 -->
<g id="edge41" class="edge"><title>2101849514288&#45;&#45;2101849542720</title>
<path fill="none" stroke="black" d="M493.328,-719.697C491.801,-701.883 489.563,-675.769 488.963,-668.776"/>
</g>
<!-- 2101849545504 -->
<g id="node44" class="node"><title>2101849545504</title>
<ellipse fill="none" stroke="black" cx="630.811" cy="-666" rx="120.819" ry="18"/>
<text text-anchor="middle" x="630.811" y="-662.5" font-family="Times New Roman,serif" font-size="15.00">Send for Credit Collection</text>
</g>
<!-- 2101849514288&#45;&#45;2101849545504 -->
<g id="edge42" class="edge"><title>2101849514288&#45;&#45;2101849545504</title>
<path fill="none" stroke="black" d="M515.467,-726.369C537.61,-714.971 573.051,-696.729 598.81,-683.471"/>
</g>
</g>
</svg>
