<?xml version="1.0" encoding="UTF-8" standalone="no"?>
<!DOCTYPE svg PUBLIC "-//W3C//DTD SVG 1.1//EN"
 "http://www.w3.org/Graphics/SVG/1.1/DTD/svg11.dtd">
<!-- Generated by graphviz version 2.38.0 (20140413.2041)
 -->
<!-- Title: pt Pages: 1 -->
<svg width="1582pt" height="476pt"
 viewBox="0.00 0.00 1582.38 476.00" xmlns="http://www.w3.org/2000/svg" xmlns:xlink="http://www.w3.org/1999/xlink">
<g id="graph0" class="graph" transform="scale(1 1) rotate(0) translate(4 472)">
<title>pt</title>
<!-- 2101844669536 -->
<g id="node1" class="node"><title>2101844669536</title>
<ellipse fill="none" stroke="black" cx="609.536" cy="-450" rx="27" ry="18"/>
<text text-anchor="middle" x="609.536" y="-446.5" font-family="Times New Roman,serif" font-size="15.00">seq</text>
</g>
<!-- 2101844668576 -->
<g id="node2" class="node"><title>2101844668576</title>
<ellipse fill="none" stroke="black" cx="504.536" cy="-378" rx="59.5207" ry="18"/>
<text text-anchor="middle" x="504.536" y="-374.5" font-family="Times New Roman,serif" font-size="15.00">Create Fine</text>
</g>
<!-- 2101844669536&#45;&#45;2101844668576 -->
<g id="edge1" class="edge"><title>2101844669536&#45;&#45;2101844668576</title>
<path fill="none" stroke="black" d="M590.764,-436.485C573.185,-424.767 546.859,-407.215 527.922,-394.591"/>
</g>
<!-- 2101843185472 -->
<g id="node3" class="node"><title>2101843185472</title>
<ellipse fill="none" stroke="black" cx="609.536" cy="-378" rx="27" ry="18"/>
<text text-anchor="middle" x="609.536" y="-374.5" font-family="Times New Roman,serif" font-size="15.00">and</text>
</g>
<!-- 2101844669536&#45;&#45;2101843185472 -->
<g id="edge31" class="edge"><title>2101844669536&#45;&#45;2101843185472</title>
<path fill="none" stroke="black" d="M609.536,-431.697C609.536,-420.846 609.536,-406.917 609.536,-396.104"/>
</g>
<!-- 2101843185184 -->
<g id="node33" class="node"><title>2101843185184</title>
<ellipse fill="none" stroke="black" cx="705.536" cy="-378" rx="27" ry="18"/>
<text text-anchor="middle" x="705.536" y="-374.5" font-family="Times New Roman,serif" font-size="15.00">xor</text>
</g>
<!-- 2101844669536&#45;&#45;2101843185184 -->
<g id="edge34" class="edge"><title>2101844669536&#45;&#45;2101843185184</title>
<path fill="none" stroke="black" d="M627.143,-436.161C644.465,-423.531 670.756,-404.36 688.039,-391.758"/>
</g>
<!-- 2101843183360 -->
<g id="node4" class="node"><title>2101843183360</title>
<ellipse fill="none" stroke="black" cx="428.536" cy="-306" rx="27" ry="18"/>
<text text-anchor="middle" x="428.536" y="-302.5" font-family="Times New Roman,serif" font-size="15.00">xor</text>
</g>
<!-- 2101843185472&#45;&#45;2101843183360 -->
<g id="edge4" class="edge"><title>2101843185472&#45;&#45;2101843183360</title>
<path fill="none" stroke="black" d="M586.612,-368.134C551.796,-354.67 485.978,-329.215 451.273,-315.794"/>
</g>
<!-- 2101843184464 -->
<g id="node7" class="node"><title>2101843184464</title>
<ellipse fill="none" stroke="black" cx="575.536" cy="-306" rx="27" ry="18"/>
<text text-anchor="middle" x="575.536" y="-302.5" font-family="Times New Roman,serif" font-size="15.00">xor</text>
</g>
<!-- 2101843185472&#45;&#45;2101843184464 -->
<g id="edge17" class="edge"><title>2101843185472&#45;&#45;2101843184464</title>
<path fill="none" stroke="black" d="M601.65,-360.765C596.235,-349.618 589.07,-334.865 583.615,-323.633"/>
</g>
<!-- 2101843182544 -->
<g id="node20" class="node"><title>2101843182544</title>
<ellipse fill="none" stroke="black" cx="657.536" cy="-306" rx="27" ry="18"/>
<text text-anchor="middle" x="657.536" y="-302.5" font-family="Times New Roman,serif" font-size="15.00">and</text>
</g>
<!-- 2101843185472&#45;&#45;2101843182544 -->
<g id="edge30" class="edge"><title>2101843185472&#45;&#45;2101843182544</title>
<path fill="none" stroke="black" d="M620.427,-361.116C628.283,-349.66 638.841,-334.263 646.687,-322.821"/>
</g>
<!-- 2101843183216 -->
<g id="node5" class="node"><title>2101843183216</title>
<ellipse fill="black" stroke="black" cx="329.536" cy="-234" rx="2.7" ry="2.7"/>
</g>
<!-- 2101843183360&#45;&#45;2101843183216 -->
<g id="edge2" class="edge"><title>2101843183360&#45;&#45;2101843183216</title>
<path fill="none" stroke="black" d="M410.377,-292.161C384.923,-274.163 340.684,-242.883 331.312,-236.256"/>
</g>
<!-- 2101843183936 -->
<g id="node6" class="node"><title>2101843183936</title>
<ellipse fill="none" stroke="black" cx="428.536" cy="-234" rx="78.5434" ry="18"/>
<text text-anchor="middle" x="428.536" y="-230.5" font-family="Times New Roman,serif" font-size="15.00">Appeal to Judge</text>
</g>
<!-- 2101843183360&#45;&#45;2101843183936 -->
<g id="edge3" class="edge"><title>2101843183360&#45;&#45;2101843183936</title>
<path fill="none" stroke="black" d="M428.536,-287.697C428.536,-276.846 428.536,-262.917 428.536,-252.104"/>
</g>
<!-- 2101843184848 -->
<g id="node8" class="node"><title>2101843184848</title>
<ellipse fill="black" stroke="black" cx="527.536" cy="-234" rx="2.7" ry="2.7"/>
</g>
<!-- 2101843184464&#45;&#45;2101843184848 -->
<g id="edge5" class="edge"><title>2101843184464&#45;&#45;2101843184848</title>
<path fill="none" stroke="black" d="M564.644,-289.116C552.473,-271.367 533.815,-244.158 528.809,-236.857"/>
</g>
<!-- 2101843185616 -->
<g id="node9" class="node"><title>2101843185616</title>
<ellipse fill="none" stroke="black" cx="575.536" cy="-234" rx="27" ry="18"/>
<text text-anchor="middle" x="575.536" y="-230.5" font-family="Times New Roman,serif" font-size="15.00">seq</text>
</g>
<!-- 2101843184464&#45;&#45;2101843185616 -->
<g id="edge16" class="edge"><title>2101843184464&#45;&#45;2101843185616</title>
<path fill="none" stroke="black" d="M575.536,-287.697C575.536,-276.846 575.536,-262.917 575.536,-252.104"/>
</g>
<!-- 2101843182880 -->
<g id="node10" class="node"><title>2101843182880</title>
<ellipse fill="none" stroke="black" cx="144.536" cy="-162" rx="144.571" ry="18"/>
<text text-anchor="middle" x="144.536" y="-158.5" font-family="Times New Roman,serif" font-size="15.00">Insert Date Appeal to Prefecture</text>
</g>
<!-- 2101843185616&#45;&#45;2101843182880 -->
<g id="edge6" class="edge"><title>2101843185616&#45;&#45;2101843182880</title>
<path fill="none" stroke="black" d="M549.545,-228.779C487.393,-218.685 327.971,-192.792 228.685,-176.667"/>
</g>
<!-- 2101843185088 -->
<g id="node11" class="node"><title>2101843185088</title>
<ellipse fill="none" stroke="black" cx="334.536" cy="-162" rx="27" ry="18"/>
<text text-anchor="middle" x="334.536" y="-158.5" font-family="Times New Roman,serif" font-size="15.00">xor</text>
</g>
<!-- 2101843185616&#45;&#45;2101843185088 -->
<g id="edge9" class="edge"><title>2101843185616&#45;&#45;2101843185088</title>
<path fill="none" stroke="black" d="M551.101,-225.903C504.91,-212.486 405.276,-183.547 359.035,-170.116"/>
</g>
<!-- 2101843183264 -->
<g id="node14" class="node"><title>2101843183264</title>
<ellipse fill="none" stroke="black" cx="537.536" cy="-162" rx="27" ry="18"/>
<text text-anchor="middle" x="537.536" y="-158.5" font-family="Times New Roman,serif" font-size="15.00">xor</text>
</g>
<!-- 2101843185616&#45;&#45;2101843183264 -->
<g id="edge12" class="edge"><title>2101843185616&#45;&#45;2101843183264</title>
<path fill="none" stroke="black" d="M566.722,-216.765C560.583,-205.456 552.43,-190.437 546.301,-179.147"/>
</g>
<!-- 2101843183552 -->
<g id="node17" class="node"><title>2101843183552</title>
<ellipse fill="none" stroke="black" cx="694.536" cy="-162" rx="27" ry="18"/>
<text text-anchor="middle" x="694.536" y="-158.5" font-family="Times New Roman,serif" font-size="15.00">xor</text>
</g>
<!-- 2101843185616&#45;&#45;2101843183552 -->
<g id="edge15" class="edge"><title>2101843185616&#45;&#45;2101843183552</title>
<path fill="none" stroke="black" d="M595.186,-221.441C617.235,-208.471 652.795,-187.553 674.856,-174.576"/>
</g>
<!-- 2101843184272 -->
<g id="node12" class="node"><title>2101843184272</title>
<ellipse fill="black" stroke="black" cx="61.5355" cy="-90" rx="2.7" ry="2.7"/>
</g>
<!-- 2101843185088&#45;&#45;2101843184272 -->
<g id="edge7" class="edge"><title>2101843185088&#45;&#45;2101843184272</title>
<path fill="none" stroke="black" d="M309.827,-154.665C247.088,-138.578 85.0843,-97.0382 63.8448,-91.5921"/>
</g>
<!-- 2101843184224 -->
<g id="node13" class="node"><title>2101843184224</title>
<ellipse fill="none" stroke="black" cx="202.536" cy="-90" rx="120.43" ry="18"/>
<text text-anchor="middle" x="202.536" y="-86.5" font-family="Times New Roman,serif" font-size="15.00">Send Appeal to Prefecture</text>
</g>
<!-- 2101843185088&#45;&#45;2101843184224 -->
<g id="edge8" class="edge"><title>2101843185088&#45;&#45;2101843184224</title>
<path fill="none" stroke="black" d="M313.911,-150.063C292.448,-138.681 258.577,-120.719 233.818,-107.589"/>
</g>
<!-- 2101843183984 -->
<g id="node15" class="node"><title>2101843183984</title>
<ellipse fill="black" stroke="black" cx="343.536" cy="-90" rx="2.7" ry="2.7"/>
</g>
<!-- 2101843183264&#45;&#45;2101843183984 -->
<g id="edge10" class="edge"><title>2101843183264&#45;&#45;2101843183984</title>
<path fill="none" stroke="black" d="M514.135,-152.556C466.568,-135.393 361.718,-97.5607 345.626,-91.7542"/>
</g>
<!-- 2101843182688 -->
<g id="node16" class="node"><title>2101843182688</title>
<ellipse fill="none" stroke="black" cx="537.536" cy="-90" rx="173.941" ry="18"/>
<text text-anchor="middle" x="537.536" y="-86.5" font-family="Times New Roman,serif" font-size="15.00">Receive Result Appeal from Prefecture</text>
</g>
<!-- 2101843183264&#45;&#45;2101843182688 -->
<g id="edge11" class="edge"><title>2101843183264&#45;&#45;2101843182688</title>
<path fill="none" stroke="black" d="M537.536,-143.697C537.536,-132.846 537.536,-118.917 537.536,-108.104"/>
</g>
<!-- 2101843182400 -->
<g id="node18" class="node"><title>2101843182400</title>
<ellipse fill="black" stroke="black" cx="731.536" cy="-90" rx="2.7" ry="2.7"/>
</g>
<!-- 2101843183552&#45;&#45;2101843182400 -->
<g id="edge13" class="edge"><title>2101843183552&#45;&#45;2101843182400</title>
<path fill="none" stroke="black" d="M703.117,-144.765C712.51,-126.994 726.747,-100.06 730.565,-92.8363"/>
</g>
<!-- 2101843184080 -->
<g id="node19" class="node"><title>2101843184080</title>
<ellipse fill="none" stroke="black" cx="900.536" cy="-90" rx="148.91" ry="18"/>
<text text-anchor="middle" x="900.536" y="-86.5" font-family="Times New Roman,serif" font-size="15.00">Notify Result Appeal to Offender</text>
</g>
<!-- 2101843183552&#45;&#45;2101843184080 -->
<g id="edge14" class="edge"><title>2101843183552&#45;&#45;2101843184080</title>
<path fill="none" stroke="black" d="M718.166,-152.97C750.928,-141.838 810.872,-121.468 853.073,-107.128"/>
</g>
<!-- 2101843185424 -->
<g id="node21" class="node"><title>2101843185424</title>
<ellipse fill="none" stroke="black" cx="742.536" cy="-234" rx="46.6143" ry="18"/>
<text text-anchor="middle" x="742.536" y="-230.5" font-family="Times New Roman,serif" font-size="15.00">xor loop</text>
</g>
<!-- 2101843182544&#45;&#45;2101843185424 -->
<g id="edge20" class="edge"><title>2101843182544&#45;&#45;2101843185424</title>
<path fill="none" stroke="black" d="M673.924,-291.503C688.108,-279.823 708.625,-262.926 723.526,-250.655"/>
</g>
<!-- 2101843182304 -->
<g id="node24" class="node"><title>2101843182304</title>
<ellipse fill="none" stroke="black" cx="1020.54" cy="-234" rx="27" ry="18"/>
<text text-anchor="middle" x="1020.54" y="-230.5" font-family="Times New Roman,serif" font-size="15.00">xor</text>
</g>
<!-- 2101843182544&#45;&#45;2101843182304 -->
<g id="edge29" class="edge"><title>2101843182544&#45;&#45;2101843182304</title>
<path fill="none" stroke="black" d="M683.061,-300.078C749.549,-287.256 927.555,-252.93 994.552,-240.011"/>
</g>
<!-- 2101843183696 -->
<g id="node22" class="node"><title>2101843183696</title>
<ellipse fill="black" stroke="black" cx="742.536" cy="-162" rx="2.7" ry="2.7"/>
</g>
<!-- 2101843185424&#45;&#45;2101843183696 -->
<g id="edge18" class="edge"><title>2101843185424&#45;&#45;2101843183696</title>
<path fill="none" stroke="black" d="M742.536,-215.697C742.536,-197.883 742.536,-171.769 742.536,-164.776"/>
</g>
<!-- 2101843184608 -->
<g id="node23" class="node"><title>2101843184608</title>
<ellipse fill="none" stroke="black" cx="809.536" cy="-162" rx="45.7249" ry="18"/>
<text text-anchor="middle" x="809.536" y="-158.5" font-family="Times New Roman,serif" font-size="15.00">Payment</text>
</g>
<!-- 2101843185424&#45;&#45;2101843184608 -->
<g id="edge19" class="edge"><title>2101843185424&#45;&#45;2101843184608</title>
<path fill="none" stroke="black" d="M758.075,-216.765C768.899,-205.456 783.275,-190.437 794.08,-179.147"/>
</g>
<!-- 2101843183168 -->
<g id="node25" class="node"><title>2101843183168</title>
<ellipse fill="black" stroke="black" cx="983.536" cy="-162" rx="2.7" ry="2.7"/>
</g>
<!-- 2101843182304&#45;&#45;2101843183168 -->
<g id="edge21" class="edge"><title>2101843182304&#45;&#45;2101843183168</title>
<path fill="none" stroke="black" d="M1011.95,-216.765C1002.56,-198.994 988.324,-172.06 984.506,-164.836"/>
</g>
<!-- 2101843184320 -->
<g id="node26" class="node"><title>2101843184320</title>
<ellipse fill="none" stroke="black" cx="1057.54" cy="-162" rx="52.6228" ry="18"/>
<text text-anchor="middle" x="1057.54" y="-158.5" font-family="Times New Roman,serif" font-size="15.00">Send Fine</text>
</g>
<!-- 2101843182304&#45;&#45;2101843184320 -->
<g id="edge22" class="edge"><title>2101843182304&#45;&#45;2101843184320</title>
<path fill="none" stroke="black" d="M1029.12,-216.765C1034.92,-205.779 1042.58,-191.292 1048.48,-180.124"/>
</g>
<!-- 2101843183648 -->
<g id="node27" class="node"><title>2101843183648</title>
<ellipse fill="none" stroke="black" cx="1227.54" cy="-162" rx="27" ry="18"/>
<text text-anchor="middle" x="1227.54" y="-158.5" font-family="Times New Roman,serif" font-size="15.00">seq</text>
</g>
<!-- 2101843182304&#45;&#45;2101843183648 -->
<g id="edge28" class="edge"><title>2101843182304&#45;&#45;2101843183648</title>
<path fill="none" stroke="black" d="M1044.28,-224.97C1084.21,-211.467 1164.32,-184.376 1204.07,-170.936"/>
</g>
<!-- 2101843181824 -->
<g id="node28" class="node"><title>2101843181824</title>
<ellipse fill="none" stroke="black" cx="1120.54" cy="-90" rx="52.6228" ry="18"/>
<text text-anchor="middle" x="1120.54" y="-86.5" font-family="Times New Roman,serif" font-size="15.00">Send Fine</text>
</g>
<!-- 2101843183648&#45;&#45;2101843181824 -->
<g id="edge23" class="edge"><title>2101843183648&#45;&#45;2101843181824</title>
<path fill="none" stroke="black" d="M1208.9,-148.807C1190.82,-136.977 1163.32,-118.991 1143.81,-106.227"/>
</g>
<!-- 2101843182352 -->
<g id="node29" class="node"><title>2101843182352</title>
<ellipse fill="none" stroke="black" cx="1299.54" cy="-90" rx="107.914" ry="18"/>
<text text-anchor="middle" x="1299.54" y="-86.5" font-family="Times New Roman,serif" font-size="15.00">Insert Fine Notification</text>
</g>
<!-- 2101843183648&#45;&#45;2101843182352 -->
<g id="edge24" class="edge"><title>2101843183648&#45;&#45;2101843182352</title>
<path fill="none" stroke="black" d="M1242.11,-146.834C1253.69,-135.569 1269.94,-119.775 1282.2,-107.859"/>
</g>
<!-- 2101843182064 -->
<g id="node30" class="node"><title>2101843182064</title>
<ellipse fill="none" stroke="black" cx="1471.54" cy="-90" rx="46.6143" ry="18"/>
<text text-anchor="middle" x="1471.54" y="-86.5" font-family="Times New Roman,serif" font-size="15.00">xor loop</text>
</g>
<!-- 2101843183648&#45;&#45;2101843182064 -->
<g id="edge27" class="edge"><title>2101843183648&#45;&#45;2101843182064</title>
<path fill="none" stroke="black" d="M1251.82,-154.032C1294.86,-141.687 1384.7,-115.912 1435.15,-101.438"/>
</g>
<!-- 2101843182016 -->
<g id="node31" class="node"><title>2101843182016</title>
<ellipse fill="black" stroke="black" cx="1429.54" cy="-18" rx="2.7" ry="2.7"/>
</g>
<!-- 2101843182064&#45;&#45;2101843182016 -->
<g id="edge25" class="edge"><title>2101843182064&#45;&#45;2101843182016</title>
<path fill="none" stroke="black" d="M1461.58,-72.411C1450.91,-54.622 1434.91,-27.9625 1430.63,-20.8163"/>
</g>
<!-- 2101843185232 -->
<g id="node32" class="node"><title>2101843185232</title>
<ellipse fill="none" stroke="black" cx="1512.54" cy="-18" rx="61.6894" ry="18"/>
<text text-anchor="middle" x="1512.54" y="-14.5" font-family="Times New Roman,serif" font-size="15.00">Add penalty</text>
</g>
<!-- 2101843182064&#45;&#45;2101843185232 -->
<g id="edge26" class="edge"><title>2101843182064&#45;&#45;2101843185232</title>
<path fill="none" stroke="black" d="M1481.46,-72.055C1487.91,-61.0492 1496.27,-46.7636 1502.7,-35.789"/>
</g>
<!-- 2101843182208 -->
<g id="node34" class="node"><title>2101843182208</title>
<ellipse fill="black" stroke="black" cx="705.536" cy="-306" rx="2.7" ry="2.7"/>
</g>
<!-- 2101843185184&#45;&#45;2101843182208 -->
<g id="edge32" class="edge"><title>2101843185184&#45;&#45;2101843182208</title>
<path fill="none" stroke="black" d="M705.536,-359.697C705.536,-341.883 705.536,-315.769 705.536,-308.776"/>
</g>
<!-- 2101843183504 -->
<g id="node35" class="node"><title>2101843183504</title>
<ellipse fill="none" stroke="black" cx="847.536" cy="-306" rx="120.819" ry="18"/>
<text text-anchor="middle" x="847.536" y="-302.5" font-family="Times New Roman,serif" font-size="15.00">Send for Credit Collection</text>
</g>
<!-- 2101843185184&#45;&#45;2101843183504 -->
<g id="edge33" class="edge"><title>2101843185184&#45;&#45;2101843183504</title>
<path fill="none" stroke="black" d="M726.794,-366.52C749.928,-355.116 787.219,-336.733 814.244,-323.412"/>
</g>
</g>
</svg>
