<?xml version="1.0" encoding="UTF-8" standalone="no"?>
<!DOCTYPE svg PUBLIC "-//W3C//DTD SVG 1.1//EN"
 "http://www.w3.org/Graphics/SVG/1.1/DTD/svg11.dtd">
<!-- Generated by graphviz version 2.38.0 (20140413.2041)
 -->
<!-- Title: pt Pages: 1 -->
<svg width="2033pt" height="620pt"
 viewBox="0.00 0.00 2032.67 620.00" xmlns="http://www.w3.org/2000/svg" xmlns:xlink="http://www.w3.org/1999/xlink">
<g id="graph0" class="graph" transform="scale(1 1) rotate(0) translate(4 616)">
<title>pt</title>
<!-- 2101827762784 -->
<g id="node1" class="node"><title>2101827762784</title>
<ellipse fill="none" stroke="black" cx="344.811" cy="-594" rx="27" ry="18"/>
<text text-anchor="middle" x="344.811" y="-590.5" font-family="Times New Roman,serif" font-size="15.00">and</text>
</g>
<!-- 2101827762640 -->
<g id="node2" class="node"><title>2101827762640</title>
<ellipse fill="none" stroke="black" cx="219.811" cy="-522" rx="27" ry="18"/>
<text text-anchor="middle" x="219.811" y="-518.5" font-family="Times New Roman,serif" font-size="15.00">xor</text>
</g>
<!-- 2101827762784&#45;&#45;2101827762640 -->
<g id="edge15" class="edge"><title>2101827762784&#45;&#45;2101827762640</title>
<path fill="none" stroke="black" d="M324.728,-581.753C301.401,-568.691 263.15,-547.27 239.845,-534.219"/>
</g>
<!-- 2101827763264 -->
<g id="node17" class="node"><title>2101827763264</title>
<ellipse fill="none" stroke="black" cx="620.811" cy="-522" rx="27" ry="18"/>
<text text-anchor="middle" x="620.811" y="-518.5" font-family="Times New Roman,serif" font-size="15.00">seq</text>
</g>
<!-- 2101827762784&#45;&#45;2101827763264 -->
<g id="edge55" class="edge"><title>2101827762784&#45;&#45;2101827763264</title>
<path fill="none" stroke="black" d="M369.791,-586.665C422.338,-573.337 543.763,-542.541 596.086,-529.271"/>
</g>
<!-- 2101827763600 -->
<g id="node3" class="node"><title>2101827763600</title>
<ellipse fill="black" stroke="black" cx="171.811" cy="-450" rx="2.7" ry="2.7"/>
</g>
<!-- 2101827762640&#45;&#45;2101827763600 -->
<g id="edge1" class="edge"><title>2101827762640&#45;&#45;2101827763600</title>
<path fill="none" stroke="black" d="M208.919,-505.116C196.749,-487.367 178.091,-460.158 173.084,-452.857"/>
</g>
<!-- 2101825516880 -->
<g id="node4" class="node"><title>2101825516880</title>
<ellipse fill="none" stroke="black" cx="219.811" cy="-450" rx="27" ry="18"/>
<text text-anchor="middle" x="219.811" y="-446.5" font-family="Times New Roman,serif" font-size="15.00">and</text>
</g>
<!-- 2101827762640&#45;&#45;2101825516880 -->
<g id="edge14" class="edge"><title>2101827762640&#45;&#45;2101825516880</title>
<path fill="none" stroke="black" d="M219.811,-503.697C219.811,-492.846 219.811,-478.917 219.811,-468.104"/>
</g>
<!-- 2101825517648 -->
<g id="node5" class="node"><title>2101825517648</title>
<ellipse fill="none" stroke="black" cx="78.8111" cy="-378" rx="46.6143" ry="18"/>
<text text-anchor="middle" x="78.8111" y="-374.5" font-family="Times New Roman,serif" font-size="15.00">xor loop</text>
</g>
<!-- 2101825516880&#45;&#45;2101825517648 -->
<g id="edge4" class="edge"><title>2101825516880&#45;&#45;2101825517648</title>
<path fill="none" stroke="black" d="M198.702,-438.52C174.118,-426.316 133.432,-406.117 106.374,-392.684"/>
</g>
<!-- 2101825516592 -->
<g id="node8" class="node"><title>2101825516592</title>
<ellipse fill="none" stroke="black" cx="219.811" cy="-378" rx="27" ry="18"/>
<text text-anchor="middle" x="219.811" y="-374.5" font-family="Times New Roman,serif" font-size="15.00">xor</text>
</g>
<!-- 2101825516880&#45;&#45;2101825516592 -->
<g id="edge13" class="edge"><title>2101825516880&#45;&#45;2101825516592</title>
<path fill="none" stroke="black" d="M219.811,-431.697C219.811,-420.846 219.811,-406.917 219.811,-396.104"/>
</g>
<!-- 2101825519184 -->
<g id="node6" class="node"><title>2101825519184</title>
<ellipse fill="black" stroke="black" cx="11.8111" cy="-306" rx="2.7" ry="2.7"/>
</g>
<!-- 2101825517648&#45;&#45;2101825519184 -->
<g id="edge2" class="edge"><title>2101825517648&#45;&#45;2101825519184</title>
<path fill="none" stroke="black" d="M63.2715,-360.765C45.9531,-342.671 19.5425,-315.078 13.2104,-308.462"/>
</g>
<!-- 2101825519136 -->
<g id="node7" class="node"><title>2101825519136</title>
<ellipse fill="none" stroke="black" cx="78.8111" cy="-306" rx="45.7249" ry="18"/>
<text text-anchor="middle" x="78.8111" y="-302.5" font-family="Times New Roman,serif" font-size="15.00">Payment</text>
</g>
<!-- 2101825517648&#45;&#45;2101825519136 -->
<g id="edge3" class="edge"><title>2101825517648&#45;&#45;2101825519136</title>
<path fill="none" stroke="black" d="M78.8111,-359.697C78.8111,-348.846 78.8111,-334.917 78.8111,-324.104"/>
</g>
<!-- 2101825519328 -->
<g id="node9" class="node"><title>2101825519328</title>
<ellipse fill="black" stroke="black" cx="145.811" cy="-306" rx="2.7" ry="2.7"/>
</g>
<!-- 2101825516592&#45;&#45;2101825519328 -->
<g id="edge5" class="edge"><title>2101825516592&#45;&#45;2101825519328</title>
<path fill="none" stroke="black" d="M204.836,-362.834C185.916,-344.937 154.915,-315.612 147.46,-308.56"/>
</g>
<!-- 2101825516976 -->
<g id="node10" class="node"><title>2101825516976</title>
<ellipse fill="none" stroke="black" cx="219.811" cy="-306" rx="52.6228" ry="18"/>
<text text-anchor="middle" x="219.811" y="-302.5" font-family="Times New Roman,serif" font-size="15.00">Send Fine</text>
</g>
<!-- 2101825516592&#45;&#45;2101825516976 -->
<g id="edge6" class="edge"><title>2101825516592&#45;&#45;2101825516976</title>
<path fill="none" stroke="black" d="M219.811,-359.697C219.811,-348.846 219.811,-334.917 219.811,-324.104"/>
</g>
<!-- 2101825519376 -->
<g id="node11" class="node"><title>2101825519376</title>
<ellipse fill="none" stroke="black" cx="317.811" cy="-306" rx="27" ry="18"/>
<text text-anchor="middle" x="317.811" y="-302.5" font-family="Times New Roman,serif" font-size="15.00">seq</text>
</g>
<!-- 2101825516592&#45;&#45;2101825519376 -->
<g id="edge12" class="edge"><title>2101825516592&#45;&#45;2101825519376</title>
<path fill="none" stroke="black" d="M237.786,-364.161C255.468,-351.531 282.307,-332.36 299.95,-319.758"/>
</g>
<!-- 2101825516544 -->
<g id="node12" class="node"><title>2101825516544</title>
<ellipse fill="none" stroke="black" cx="52.8111" cy="-234" rx="52.6228" ry="18"/>
<text text-anchor="middle" x="52.8111" y="-230.5" font-family="Times New Roman,serif" font-size="15.00">Send Fine</text>
</g>
<!-- 2101825519376&#45;&#45;2101825516544 -->
<g id="edge7" class="edge"><title>2101825519376&#45;&#45;2101825516544</title>
<path fill="none" stroke="black" d="M292.88,-298.415C247.012,-286.298 148.866,-260.373 93.3157,-245.699"/>
</g>
<!-- 2101825518656 -->
<g id="node13" class="node"><title>2101825518656</title>
<ellipse fill="none" stroke="black" cx="231.811" cy="-234" rx="107.914" ry="18"/>
<text text-anchor="middle" x="231.811" y="-230.5" font-family="Times New Roman,serif" font-size="15.00">Insert Fine Notification</text>
</g>
<!-- 2101825519376&#45;&#45;2101825518656 -->
<g id="edge8" class="edge"><title>2101825519376&#45;&#45;2101825518656</title>
<path fill="none" stroke="black" d="M301.229,-291.503C287.367,-280.22 267.525,-264.07 252.602,-251.923"/>
</g>
<!-- 2101825516064 -->
<g id="node14" class="node"><title>2101825516064</title>
<ellipse fill="none" stroke="black" cx="403.811" cy="-234" rx="46.6143" ry="18"/>
<text text-anchor="middle" x="403.811" y="-230.5" font-family="Times New Roman,serif" font-size="15.00">xor loop</text>
</g>
<!-- 2101825519376&#45;&#45;2101825516064 -->
<g id="edge11" class="edge"><title>2101825519376&#45;&#45;2101825516064</title>
<path fill="none" stroke="black" d="M334.393,-291.503C348.743,-279.823 369.502,-262.926 384.578,-250.655"/>
</g>
<!-- 2101827777584 -->
<g id="node15" class="node"><title>2101827777584</title>
<ellipse fill="black" stroke="black" cx="362.811" cy="-162" rx="2.7" ry="2.7"/>
</g>
<!-- 2101825516064&#45;&#45;2101827777584 -->
<g id="edge9" class="edge"><title>2101825516064&#45;&#45;2101827777584</title>
<path fill="none" stroke="black" d="M393.886,-216.055C383.458,-198.252 368.004,-171.865 363.863,-164.796"/>
</g>
<!-- 2101827777632 -->
<g id="node16" class="node"><title>2101827777632</title>
<ellipse fill="none" stroke="black" cx="445.811" cy="-162" rx="61.6894" ry="18"/>
<text text-anchor="middle" x="445.811" y="-158.5" font-family="Times New Roman,serif" font-size="15.00">Add penalty</text>
</g>
<!-- 2101825516064&#45;&#45;2101827777632 -->
<g id="edge10" class="edge"><title>2101825516064&#45;&#45;2101827777632</title>
<path fill="none" stroke="black" d="M413.764,-216.411C420.363,-205.414 428.995,-191.027 435.637,-179.956"/>
</g>
<!-- 2101827761056 -->
<g id="node18" class="node"><title>2101827761056</title>
<ellipse fill="none" stroke="black" cx="558.811" cy="-450" rx="59.5207" ry="18"/>
<text text-anchor="middle" x="558.811" y="-446.5" font-family="Times New Roman,serif" font-size="15.00">Create Fine</text>
</g>
<!-- 2101827763264&#45;&#45;2101827761056 -->
<g id="edge16" class="edge"><title>2101827763264&#45;&#45;2101827761056</title>
<path fill="none" stroke="black" d="M607.662,-506.155C597.71,-494.918 584.033,-479.476 573.681,-467.789"/>
</g>
<!-- 2101827762160 -->
<g id="node19" class="node"><title>2101827762160</title>
<ellipse fill="none" stroke="black" cx="682.811" cy="-450" rx="46.6143" ry="18"/>
<text text-anchor="middle" x="682.811" y="-446.5" font-family="Times New Roman,serif" font-size="15.00">xor loop</text>
</g>
<!-- 2101827763264&#45;&#45;2101827762160 -->
<g id="edge51" class="edge"><title>2101827763264&#45;&#45;2101827762160</title>
<path fill="none" stroke="black" d="M633.96,-506.155C644.055,-494.757 657.981,-479.034 668.382,-467.29"/>
</g>
<!-- 2101827761104 -->
<g id="node54" class="node"><title>2101827761104</title>
<ellipse fill="none" stroke="black" cx="774.811" cy="-450" rx="27" ry="18"/>
<text text-anchor="middle" x="774.811" y="-446.5" font-family="Times New Roman,serif" font-size="15.00">xor</text>
</g>
<!-- 2101827763264&#45;&#45;2101827761104 -->
<g id="edge54" class="edge"><title>2101827763264&#45;&#45;2101827761104</title>
<path fill="none" stroke="black" d="M642.549,-511.119C671.899,-497.778 723.89,-474.146 753.184,-460.831"/>
</g>
<!-- 2101827303120 -->
<g id="node20" class="node"><title>2101827303120</title>
<ellipse fill="none" stroke="black" cx="682.811" cy="-378" rx="27" ry="18"/>
<text text-anchor="middle" x="682.811" y="-374.5" font-family="Times New Roman,serif" font-size="15.00">seq</text>
</g>
<!-- 2101827762160&#45;&#45;2101827303120 -->
<g id="edge49" class="edge"><title>2101827762160&#45;&#45;2101827303120</title>
<path fill="none" stroke="black" d="M682.811,-431.697C682.811,-420.846 682.811,-406.917 682.811,-396.104"/>
</g>
<!-- 2101827304608 -->
<g id="node53" class="node"><title>2101827304608</title>
<ellipse fill="black" stroke="black" cx="730.811" cy="-378" rx="2.7" ry="2.7"/>
</g>
<!-- 2101827762160&#45;&#45;2101827304608 -->
<g id="edge50" class="edge"><title>2101827762160&#45;&#45;2101827304608</title>
<path fill="none" stroke="black" d="M694.186,-432.411C706.385,-414.622 724.665,-387.962 729.566,-380.816"/>
</g>
<!-- 2101827301776 -->
<g id="node21" class="node"><title>2101827301776</title>
<ellipse fill="none" stroke="black" cx="544.811" cy="-306" rx="27" ry="18"/>
<text text-anchor="middle" x="544.811" y="-302.5" font-family="Times New Roman,serif" font-size="15.00">xor</text>
</g>
<!-- 2101827303120&#45;&#45;2101827301776 -->
<g id="edge19" class="edge"><title>2101827303120&#45;&#45;2101827301776</title>
<path fill="none" stroke="black" d="M661.852,-366.369C635.914,-353.212 591.996,-330.934 565.968,-317.732"/>
</g>
<!-- 2101827304176 -->
<g id="node24" class="node"><title>2101827304176</title>
<ellipse fill="none" stroke="black" cx="682.811" cy="-306" rx="27" ry="18"/>
<text text-anchor="middle" x="682.811" y="-302.5" font-family="Times New Roman,serif" font-size="15.00">xor</text>
</g>
<!-- 2101827303120&#45;&#45;2101827304176 -->
<g id="edge22" class="edge"><title>2101827303120&#45;&#45;2101827304176</title>
<path fill="none" stroke="black" d="M682.811,-359.697C682.811,-348.846 682.811,-334.917 682.811,-324.104"/>
</g>
<!-- 2101827303168 -->
<g id="node27" class="node"><title>2101827303168</title>
<ellipse fill="none" stroke="black" cx="874.811" cy="-306" rx="27" ry="18"/>
<text text-anchor="middle" x="874.811" y="-302.5" font-family="Times New Roman,serif" font-size="15.00">xor</text>
</g>
<!-- 2101827303120&#45;&#45;2101827303168 -->
<g id="edge25" class="edge"><title>2101827303120&#45;&#45;2101827303168</title>
<path fill="none" stroke="black" d="M705.971,-368.556C742.874,-355.102 814.614,-328.947 851.569,-315.474"/>
</g>
<!-- 2101827304080 -->
<g id="node30" class="node"><title>2101827304080</title>
<ellipse fill="none" stroke="black" cx="1072.81" cy="-306" rx="27" ry="18"/>
<text text-anchor="middle" x="1072.81" y="-302.5" font-family="Times New Roman,serif" font-size="15.00">xor</text>
</g>
<!-- 2101827303120&#45;&#45;2101827304080 -->
<g id="edge48" class="edge"><title>2101827303120&#45;&#45;2101827304080</title>
<path fill="none" stroke="black" d="M708.702,-372.353C779.56,-359.635 976.082,-324.362 1046.93,-311.645"/>
</g>
<!-- 2101827303648 -->
<g id="node22" class="node"><title>2101827303648</title>
<ellipse fill="black" stroke="black" cx="470.811" cy="-234" rx="2.7" ry="2.7"/>
</g>
<!-- 2101827301776&#45;&#45;2101827303648 -->
<g id="edge17" class="edge"><title>2101827301776&#45;&#45;2101827303648</title>
<path fill="none" stroke="black" d="M529.836,-290.834C510.916,-272.937 479.915,-243.612 472.46,-236.56"/>
</g>
<!-- 2101827305376 -->
<g id="node23" class="node"><title>2101827305376</title>
<ellipse fill="none" stroke="black" cx="544.811" cy="-234" rx="52.6228" ry="18"/>
<text text-anchor="middle" x="544.811" y="-230.5" font-family="Times New Roman,serif" font-size="15.00">Send Fine</text>
</g>
<!-- 2101827301776&#45;&#45;2101827305376 -->
<g id="edge18" class="edge"><title>2101827301776&#45;&#45;2101827305376</title>
<path fill="none" stroke="black" d="M544.811,-287.697C544.811,-276.846 544.811,-262.917 544.811,-252.104"/>
</g>
<!-- 2101827302016 -->
<g id="node25" class="node"><title>2101827302016</title>
<ellipse fill="black" stroke="black" cx="618.811" cy="-234" rx="2.7" ry="2.7"/>
</g>
<!-- 2101827304176&#45;&#45;2101827302016 -->
<g id="edge20" class="edge"><title>2101827304176&#45;&#45;2101827302016</title>
<path fill="none" stroke="black" d="M669.238,-290.155C652.8,-272.175 626.52,-243.432 620.207,-236.527"/>
</g>
<!-- 2101827301536 -->
<g id="node26" class="node"><title>2101827301536</title>
<ellipse fill="none" stroke="black" cx="746.811" cy="-234" rx="107.914" ry="18"/>
<text text-anchor="middle" x="746.811" y="-230.5" font-family="Times New Roman,serif" font-size="15.00">Insert Fine Notification</text>
</g>
<!-- 2101827304176&#45;&#45;2101827301536 -->
<g id="edge21" class="edge"><title>2101827304176&#45;&#45;2101827301536</title>
<path fill="none" stroke="black" d="M696.384,-290.155C706.584,-278.998 720.574,-263.696 731.232,-252.04"/>
</g>
<!-- 2101827304128 -->
<g id="node28" class="node"><title>2101827304128</title>
<ellipse fill="black" stroke="black" cx="874.811" cy="-234" rx="2.7" ry="2.7"/>
</g>
<!-- 2101827303168&#45;&#45;2101827304128 -->
<g id="edge23" class="edge"><title>2101827303168&#45;&#45;2101827304128</title>
<path fill="none" stroke="black" d="M874.811,-287.697C874.811,-269.883 874.811,-243.769 874.811,-236.776"/>
</g>
<!-- 2101827303360 -->
<g id="node29" class="node"><title>2101827303360</title>
<ellipse fill="none" stroke="black" cx="973.811" cy="-234" rx="78.5434" ry="18"/>
<text text-anchor="middle" x="973.811" y="-230.5" font-family="Times New Roman,serif" font-size="15.00">Appeal to Judge</text>
</g>
<!-- 2101827303168&#45;&#45;2101827303360 -->
<g id="edge24" class="edge"><title>2101827303168&#45;&#45;2101827303360</title>
<path fill="none" stroke="black" d="M892.969,-292.161C909.157,-280.715 932.943,-263.897 950.526,-251.464"/>
</g>
<!-- 2101827301680 -->
<g id="node31" class="node"><title>2101827301680</title>
<ellipse fill="black" stroke="black" cx="1072.81" cy="-234" rx="2.7" ry="2.7"/>
</g>
<!-- 2101827304080&#45;&#45;2101827301680 -->
<g id="edge26" class="edge"><title>2101827304080&#45;&#45;2101827301680</title>
<path fill="none" stroke="black" d="M1072.81,-287.697C1072.81,-269.883 1072.81,-243.769 1072.81,-236.776"/>
</g>
<!-- 2101827303696 -->
<g id="node32" class="node"><title>2101827303696</title>
<ellipse fill="none" stroke="black" cx="1139.81" cy="-234" rx="46.6143" ry="18"/>
<text text-anchor="middle" x="1139.81" y="-230.5" font-family="Times New Roman,serif" font-size="15.00">xor loop</text>
</g>
<!-- 2101827304080&#45;&#45;2101827303696 -->
<g id="edge47" class="edge"><title>2101827304080&#45;&#45;2101827303696</title>
<path fill="none" stroke="black" d="M1086.69,-290.496C1097.66,-279.043 1112.95,-263.069 1124.31,-251.198"/>
</g>
<!-- 2101827304464 -->
<g id="node33" class="node"><title>2101827304464</title>
<ellipse fill="none" stroke="black" cx="1115.81" cy="-162" rx="27" ry="18"/>
<text text-anchor="middle" x="1115.81" y="-158.5" font-family="Times New Roman,serif" font-size="15.00">seq</text>
</g>
<!-- 2101827303696&#45;&#45;2101827304464 -->
<g id="edge45" class="edge"><title>2101827303696&#45;&#45;2101827304464</title>
<path fill="none" stroke="black" d="M1134,-216.055C1130.23,-205.049 1125.33,-190.764 1121.57,-179.789"/>
</g>
<!-- 2101827304320 -->
<g id="node52" class="node"><title>2101827304320</title>
<ellipse fill="black" stroke="black" cx="1163.81" cy="-162" rx="2.7" ry="2.7"/>
</g>
<!-- 2101827303696&#45;&#45;2101827304320 -->
<g id="edge46" class="edge"><title>2101827303696&#45;&#45;2101827304320</title>
<path fill="none" stroke="black" d="M1145.62,-216.055C1151.72,-198.252 1160.77,-171.865 1163.2,-164.796"/>
</g>
<!-- 2101827303072 -->
<g id="node34" class="node"><title>2101827303072</title>
<ellipse fill="none" stroke="black" cx="572.811" cy="-90" rx="27" ry="18"/>
<text text-anchor="middle" x="572.811" y="-86.5" font-family="Times New Roman,serif" font-size="15.00">xor</text>
</g>
<!-- 2101827304464&#45;&#45;2101827303072 -->
<g id="edge29" class="edge"><title>2101827304464&#45;&#45;2101827303072</title>
<path fill="none" stroke="black" d="M1089.62,-157.624C997.785,-145.785 690.977,-106.233 599.055,-94.3833"/>
</g>
<!-- 2101827303888 -->
<g id="node37" class="node"><title>2101827303888</title>
<ellipse fill="none" stroke="black" cx="820.811" cy="-90" rx="27" ry="18"/>
<text text-anchor="middle" x="820.811" y="-86.5" font-family="Times New Roman,serif" font-size="15.00">xor</text>
</g>
<!-- 2101827304464&#45;&#45;2101827303888 -->
<g id="edge32" class="edge"><title>2101827304464&#45;&#45;2101827303888</title>
<path fill="none" stroke="black" d="M1090.66,-155.032C1034.93,-141.807 901.574,-110.164 845.899,-96.9531"/>
</g>
<!-- 2101827301488 -->
<g id="node40" class="node"><title>2101827301488</title>
<ellipse fill="none" stroke="black" cx="1044.81" cy="-90" rx="27" ry="18"/>
<text text-anchor="middle" x="1044.81" y="-86.5" font-family="Times New Roman,serif" font-size="15.00">xor</text>
</g>
<!-- 2101827304464&#45;&#45;2101827301488 -->
<g id="edge35" class="edge"><title>2101827304464&#45;&#45;2101827301488</title>
<path fill="none" stroke="black" d="M1101.1,-146.496C1088.91,-134.482 1071.68,-117.494 1059.5,-105.485"/>
</g>
<!-- 2101827301584 -->
<g id="node43" class="node"><title>2101827301584</title>
<ellipse fill="none" stroke="black" cx="1185.81" cy="-90" rx="27" ry="18"/>
<text text-anchor="middle" x="1185.81" y="-86.5" font-family="Times New Roman,serif" font-size="15.00">xor</text>
</g>
<!-- 2101827304464&#45;&#45;2101827301584 -->
<g id="edge38" class="edge"><title>2101827304464&#45;&#45;2101827301584</title>
<path fill="none" stroke="black" d="M1130.32,-146.496C1142.33,-134.482 1159.32,-117.494 1171.33,-105.485"/>
</g>
<!-- 2101825519472 -->
<g id="node46" class="node"><title>2101825519472</title>
<ellipse fill="none" stroke="black" cx="1573.81" cy="-90" rx="27" ry="18"/>
<text text-anchor="middle" x="1573.81" y="-86.5" font-family="Times New Roman,serif" font-size="15.00">xor</text>
</g>
<!-- 2101827304464&#45;&#45;2101825519472 -->
<g id="edge41" class="edge"><title>2101827304464&#45;&#45;2101825519472</title>
<path fill="none" stroke="black" d="M1142.08,-156.985C1222.86,-144.638 1467.01,-107.323 1547.65,-94.9987"/>
</g>
<!-- 2101825518080 -->
<g id="node49" class="node"><title>2101825518080</title>
<ellipse fill="none" stroke="black" cx="1911.81" cy="-90" rx="27" ry="18"/>
<text text-anchor="middle" x="1911.81" y="-86.5" font-family="Times New Roman,serif" font-size="15.00">xor</text>
</g>
<!-- 2101827304464&#45;&#45;2101825518080 -->
<g id="edge44" class="edge"><title>2101827304464&#45;&#45;2101825518080</title>
<path fill="none" stroke="black" d="M1142.75,-158.631C1264.55,-147.92 1763.09,-104.078 1884.88,-93.3685"/>
</g>
<!-- 2101827302448 -->
<g id="node35" class="node"><title>2101827302448</title>
<ellipse fill="black" stroke="black" cx="407.811" cy="-18" rx="2.7" ry="2.7"/>
</g>
<!-- 2101827303072&#45;&#45;2101827302448 -->
<g id="edge27" class="edge"><title>2101827303072&#45;&#45;2101827302448</title>
<path fill="none" stroke="black" d="M550.558,-79.5595C509.391,-62.0945 424.216,-25.9596 409.88,-19.8779"/>
</g>
<!-- 2101827302400 -->
<g id="node36" class="node"><title>2101827302400</title>
<ellipse fill="none" stroke="black" cx="572.811" cy="-18" rx="144.571" ry="18"/>
<text text-anchor="middle" x="572.811" y="-14.5" font-family="Times New Roman,serif" font-size="15.00">Insert Date Appeal to Prefecture</text>
</g>
<!-- 2101827303072&#45;&#45;2101827302400 -->
<g id="edge28" class="edge"><title>2101827303072&#45;&#45;2101827302400</title>
<path fill="none" stroke="black" d="M572.811,-71.6966C572.811,-60.8463 572.811,-46.9167 572.811,-36.1043"/>
</g>
<!-- 2101827302880 -->
<g id="node38" class="node"><title>2101827302880</title>
<ellipse fill="black" stroke="black" cx="737.811" cy="-18" rx="2.7" ry="2.7"/>
</g>
<!-- 2101827303888&#45;&#45;2101827302880 -->
<g id="edge30" class="edge"><title>2101827303888&#45;&#45;2101827302880</title>
<path fill="none" stroke="black" d="M804.413,-75.1703C783.248,-57.3201 748.13,-27.7024 739.681,-20.5768"/>
</g>
<!-- 2101827302304 -->
<g id="node39" class="node"><title>2101827302304</title>
<ellipse fill="none" stroke="black" cx="820.811" cy="-18" rx="61.6894" ry="18"/>
<text text-anchor="middle" x="820.811" y="-14.5" font-family="Times New Roman,serif" font-size="15.00">Add penalty</text>
</g>
<!-- 2101827303888&#45;&#45;2101827302304 -->
<g id="edge31" class="edge"><title>2101827303888&#45;&#45;2101827302304</title>
<path fill="none" stroke="black" d="M820.811,-71.6966C820.811,-60.8463 820.811,-46.9167 820.811,-36.1043"/>
</g>
<!-- 2101825518800 -->
<g id="node41" class="node"><title>2101825518800</title>
<ellipse fill="black" stroke="black" cx="903.811" cy="-18" rx="2.7" ry="2.7"/>
</g>
<!-- 2101827301488&#45;&#45;2101825518800 -->
<g id="edge33" class="edge"><title>2101827301488&#45;&#45;2101825518800</title>
<path fill="none" stroke="black" d="M1023.7,-78.5203C988.055,-60.8234 918.553,-26.3188 905.835,-20.0047"/>
</g>
<!-- 2101825519424 -->
<g id="node42" class="node"><title>2101825519424</title>
<ellipse fill="none" stroke="black" cx="1044.81" cy="-18" rx="120.43" ry="18"/>
<text text-anchor="middle" x="1044.81" y="-14.5" font-family="Times New Roman,serif" font-size="15.00">Send Appeal to Prefecture</text>
</g>
<!-- 2101827301488&#45;&#45;2101825519424 -->
<g id="edge34" class="edge"><title>2101827301488&#45;&#45;2101825519424</title>
<path fill="none" stroke="black" d="M1044.81,-71.6966C1044.81,-60.8463 1044.81,-46.9167 1044.81,-36.1043"/>
</g>
<!-- 2101825518944 -->
<g id="node44" class="node"><title>2101825518944</title>
<ellipse fill="black" stroke="black" cx="1185.81" cy="-18" rx="2.7" ry="2.7"/>
</g>
<!-- 2101827301584&#45;&#45;2101825518944 -->
<g id="edge36" class="edge"><title>2101827301584&#45;&#45;2101825518944</title>
<path fill="none" stroke="black" d="M1185.81,-71.6966C1185.81,-53.8826 1185.81,-27.7686 1185.81,-20.7764"/>
</g>
<!-- 2101825518272 -->
<g id="node45" class="node"><title>2101825518272</title>
<ellipse fill="none" stroke="black" cx="1379.81" cy="-18" rx="173.941" ry="18"/>
<text text-anchor="middle" x="1379.81" y="-14.5" font-family="Times New Roman,serif" font-size="15.00">Receive Result Appeal from Prefecture</text>
</g>
<!-- 2101827301584&#45;&#45;2101825518272 -->
<g id="edge37" class="edge"><title>2101827301584&#45;&#45;2101825518272</title>
<path fill="none" stroke="black" d="M1209.21,-80.5564C1240.05,-69.4293 1294.96,-49.615 1334.16,-35.472"/>
</g>
<!-- 2101825516112 -->
<g id="node47" class="node"><title>2101825516112</title>
<ellipse fill="black" stroke="black" cx="1573.81" cy="-18" rx="2.7" ry="2.7"/>
</g>
<!-- 2101825519472&#45;&#45;2101825516112 -->
<g id="edge39" class="edge"><title>2101825519472&#45;&#45;2101825516112</title>
<path fill="none" stroke="black" d="M1573.81,-71.6966C1573.81,-53.8826 1573.81,-27.7686 1573.81,-20.7764"/>
</g>
<!-- 2101825516784 -->
<g id="node48" class="node"><title>2101825516784</title>
<ellipse fill="none" stroke="black" cx="1742.81" cy="-18" rx="148.91" ry="18"/>
<text text-anchor="middle" x="1742.81" y="-14.5" font-family="Times New Roman,serif" font-size="15.00">Notify Result Appeal to Offender</text>
</g>
<!-- 2101825519472&#45;&#45;2101825516784 -->
<g id="edge40" class="edge"><title>2101825519472&#45;&#45;2101825516784</title>
<path fill="none" stroke="black" d="M1596.25,-79.7045C1623.46,-68.4359 1669.79,-49.2446 1703.09,-35.4544"/>
</g>
<!-- 2101825516640 -->
<g id="node50" class="node"><title>2101825516640</title>
<ellipse fill="black" stroke="black" cx="1911.81" cy="-18" rx="2.7" ry="2.7"/>
</g>
<!-- 2101825518080&#45;&#45;2101825516640 -->
<g id="edge42" class="edge"><title>2101825518080&#45;&#45;2101825516640</title>
<path fill="none" stroke="black" d="M1911.81,-71.6966C1911.81,-53.8826 1911.81,-27.7686 1911.81,-20.7764"/>
</g>
<!-- 2101825517600 -->
<g id="node51" class="node"><title>2101825517600</title>
<ellipse fill="none" stroke="black" cx="1978.81" cy="-18" rx="45.7249" ry="18"/>
<text text-anchor="middle" x="1978.81" y="-14.5" font-family="Times New Roman,serif" font-size="15.00">Payment</text>
</g>
<!-- 2101825518080&#45;&#45;2101825517600 -->
<g id="edge43" class="edge"><title>2101825518080&#45;&#45;2101825517600</title>
<path fill="none" stroke="black" d="M1925.69,-74.496C1936.66,-63.0429 1951.95,-47.0688 1963.31,-35.1982"/>
</g>
<!-- 2101827302592 -->
<g id="node55" class="node"><title>2101827302592</title>
<ellipse fill="black" stroke="black" cx="763.811" cy="-378" rx="2.7" ry="2.7"/>
</g>
<!-- 2101827761104&#45;&#45;2101827302592 -->
<g id="edge52" class="edge"><title>2101827761104&#45;&#45;2101827302592</title>
<path fill="none" stroke="black" d="M772.148,-432.055C769.351,-414.252 765.204,-387.865 764.093,-380.796"/>
</g>
<!-- 2101827305136 -->
<g id="node56" class="node"><title>2101827305136</title>
<ellipse fill="none" stroke="black" cx="905.811" cy="-378" rx="120.819" ry="18"/>
<text text-anchor="middle" x="905.811" y="-374.5" font-family="Times New Roman,serif" font-size="15.00">Send for Credit Collection</text>
</g>
<!-- 2101827761104&#45;&#45;2101827305136 -->
<g id="edge53" class="edge"><title>2101827761104&#45;&#45;2101827305136</title>
<path fill="none" stroke="black" d="M795.28,-438.063C816.58,-426.681 850.195,-408.719 874.766,-395.589"/>
</g>
</g>
</svg>
