<?xml version="1.0" encoding="UTF-8" standalone="no"?>
<!DOCTYPE svg PUBLIC "-//W3C//DTD SVG 1.1//EN"
 "http://www.w3.org/Graphics/SVG/1.1/DTD/svg11.dtd">
<!-- Generated by graphviz version 2.38.0 (20140413.2041)
 -->
<!-- Title: pt Pages: 1 -->
<svg width="2116pt" height="548pt"
 viewBox="0.00 0.00 2115.67 548.00" xmlns="http://www.w3.org/2000/svg" xmlns:xlink="http://www.w3.org/1999/xlink">
<g id="graph0" class="graph" transform="scale(1 1) rotate(0) translate(4 544)">
<title>pt</title>
<!-- 2101818547696 -->
<g id="node1" class="node"><title>2101818547696</title>
<ellipse fill="none" stroke="black" cx="515.811" cy="-522" rx="27" ry="18"/>
<text text-anchor="middle" x="515.811" y="-518.5" font-family="Times New Roman,serif" font-size="15.00">and</text>
</g>
<!-- 2101819156848 -->
<g id="node2" class="node"><title>2101819156848</title>
<ellipse fill="none" stroke="black" cx="219.811" cy="-450" rx="27" ry="18"/>
<text text-anchor="middle" x="219.811" y="-446.5" font-family="Times New Roman,serif" font-size="15.00">xor</text>
</g>
<!-- 2101818547696&#45;&#45;2101819156848 -->
<g id="edge15" class="edge"><title>2101818547696&#45;&#45;2101819156848</title>
<path fill="none" stroke="black" d="M490.829,-515.092C435.078,-501.908 301.022,-470.205 245.04,-456.966"/>
</g>
<!-- 2101819154688 -->
<g id="node17" class="node"><title>2101819154688</title>
<ellipse fill="none" stroke="black" cx="873.811" cy="-450" rx="27" ry="18"/>
<text text-anchor="middle" x="873.811" y="-446.5" font-family="Times New Roman,serif" font-size="15.00">seq</text>
</g>
<!-- 2101818547696&#45;&#45;2101819154688 -->
<g id="edge48" class="edge"><title>2101818547696&#45;&#45;2101819154688</title>
<path fill="none" stroke="black" d="M541.558,-515.966C607.611,-503.05 782.501,-468.854 848.298,-455.989"/>
</g>
<!-- 2101819154832 -->
<g id="node3" class="node"><title>2101819154832</title>
<ellipse fill="black" stroke="black" cx="171.811" cy="-378" rx="2.7" ry="2.7"/>
</g>
<!-- 2101819156848&#45;&#45;2101819154832 -->
<g id="edge1" class="edge"><title>2101819156848&#45;&#45;2101819154832</title>
<path fill="none" stroke="black" d="M208.919,-433.116C196.749,-415.367 178.091,-388.158 173.084,-380.857"/>
</g>
<!-- 2101818794720 -->
<g id="node4" class="node"><title>2101818794720</title>
<ellipse fill="none" stroke="black" cx="219.811" cy="-378" rx="27" ry="18"/>
<text text-anchor="middle" x="219.811" y="-374.5" font-family="Times New Roman,serif" font-size="15.00">and</text>
</g>
<!-- 2101819156848&#45;&#45;2101818794720 -->
<g id="edge14" class="edge"><title>2101819156848&#45;&#45;2101818794720</title>
<path fill="none" stroke="black" d="M219.811,-431.697C219.811,-420.846 219.811,-406.917 219.811,-396.104"/>
</g>
<!-- 2101818794384 -->
<g id="node5" class="node"><title>2101818794384</title>
<ellipse fill="none" stroke="black" cx="78.8111" cy="-306" rx="46.6143" ry="18"/>
<text text-anchor="middle" x="78.8111" y="-302.5" font-family="Times New Roman,serif" font-size="15.00">xor loop</text>
</g>
<!-- 2101818794720&#45;&#45;2101818794384 -->
<g id="edge4" class="edge"><title>2101818794720&#45;&#45;2101818794384</title>
<path fill="none" stroke="black" d="M198.702,-366.52C174.118,-354.316 133.432,-334.117 106.374,-320.684"/>
</g>
<!-- 2101818797648 -->
<g id="node8" class="node"><title>2101818797648</title>
<ellipse fill="none" stroke="black" cx="219.811" cy="-306" rx="27" ry="18"/>
<text text-anchor="middle" x="219.811" y="-302.5" font-family="Times New Roman,serif" font-size="15.00">xor</text>
</g>
<!-- 2101818794720&#45;&#45;2101818797648 -->
<g id="edge13" class="edge"><title>2101818794720&#45;&#45;2101818797648</title>
<path fill="none" stroke="black" d="M219.811,-359.697C219.811,-348.846 219.811,-334.917 219.811,-324.104"/>
</g>
<!-- 2101818795104 -->
<g id="node6" class="node"><title>2101818795104</title>
<ellipse fill="black" stroke="black" cx="11.8111" cy="-234" rx="2.7" ry="2.7"/>
</g>
<!-- 2101818794384&#45;&#45;2101818795104 -->
<g id="edge2" class="edge"><title>2101818794384&#45;&#45;2101818795104</title>
<path fill="none" stroke="black" d="M63.2715,-288.765C45.9531,-270.671 19.5425,-243.078 13.2104,-236.462"/>
</g>
<!-- 2101818795344 -->
<g id="node7" class="node"><title>2101818795344</title>
<ellipse fill="none" stroke="black" cx="78.8111" cy="-234" rx="45.7249" ry="18"/>
<text text-anchor="middle" x="78.8111" y="-230.5" font-family="Times New Roman,serif" font-size="15.00">Payment</text>
</g>
<!-- 2101818794384&#45;&#45;2101818795344 -->
<g id="edge3" class="edge"><title>2101818794384&#45;&#45;2101818795344</title>
<path fill="none" stroke="black" d="M78.8111,-287.697C78.8111,-276.846 78.8111,-262.917 78.8111,-252.104"/>
</g>
<!-- 2101818795440 -->
<g id="node9" class="node"><title>2101818795440</title>
<ellipse fill="black" stroke="black" cx="145.811" cy="-234" rx="2.7" ry="2.7"/>
</g>
<!-- 2101818797648&#45;&#45;2101818795440 -->
<g id="edge5" class="edge"><title>2101818797648&#45;&#45;2101818795440</title>
<path fill="none" stroke="black" d="M204.836,-290.834C185.916,-272.937 154.915,-243.612 147.46,-236.56"/>
</g>
<!-- 2101818795296 -->
<g id="node10" class="node"><title>2101818795296</title>
<ellipse fill="none" stroke="black" cx="219.811" cy="-234" rx="52.6228" ry="18"/>
<text text-anchor="middle" x="219.811" y="-230.5" font-family="Times New Roman,serif" font-size="15.00">Send Fine</text>
</g>
<!-- 2101818797648&#45;&#45;2101818795296 -->
<g id="edge6" class="edge"><title>2101818797648&#45;&#45;2101818795296</title>
<path fill="none" stroke="black" d="M219.811,-287.697C219.811,-276.846 219.811,-262.917 219.811,-252.104"/>
</g>
<!-- 2101818797744 -->
<g id="node11" class="node"><title>2101818797744</title>
<ellipse fill="none" stroke="black" cx="317.811" cy="-234" rx="27" ry="18"/>
<text text-anchor="middle" x="317.811" y="-230.5" font-family="Times New Roman,serif" font-size="15.00">seq</text>
</g>
<!-- 2101818797648&#45;&#45;2101818797744 -->
<g id="edge12" class="edge"><title>2101818797648&#45;&#45;2101818797744</title>
<path fill="none" stroke="black" d="M237.786,-292.161C255.468,-279.531 282.307,-260.36 299.95,-247.758"/>
</g>
<!-- 2101820621536 -->
<g id="node12" class="node"><title>2101820621536</title>
<ellipse fill="none" stroke="black" cx="52.8111" cy="-162" rx="52.6228" ry="18"/>
<text text-anchor="middle" x="52.8111" y="-158.5" font-family="Times New Roman,serif" font-size="15.00">Send Fine</text>
</g>
<!-- 2101818797744&#45;&#45;2101820621536 -->
<g id="edge7" class="edge"><title>2101818797744&#45;&#45;2101820621536</title>
<path fill="none" stroke="black" d="M292.88,-226.415C247.012,-214.298 148.866,-188.373 93.3157,-173.699"/>
</g>
<!-- 2101820620912 -->
<g id="node13" class="node"><title>2101820620912</title>
<ellipse fill="none" stroke="black" cx="231.811" cy="-162" rx="107.914" ry="18"/>
<text text-anchor="middle" x="231.811" y="-158.5" font-family="Times New Roman,serif" font-size="15.00">Insert Fine Notification</text>
</g>
<!-- 2101818797744&#45;&#45;2101820620912 -->
<g id="edge8" class="edge"><title>2101818797744&#45;&#45;2101820620912</title>
<path fill="none" stroke="black" d="M301.229,-219.503C287.367,-208.22 267.525,-192.07 252.602,-179.923"/>
</g>
<!-- 2101820621440 -->
<g id="node14" class="node"><title>2101820621440</title>
<ellipse fill="none" stroke="black" cx="403.811" cy="-162" rx="46.6143" ry="18"/>
<text text-anchor="middle" x="403.811" y="-158.5" font-family="Times New Roman,serif" font-size="15.00">xor loop</text>
</g>
<!-- 2101818797744&#45;&#45;2101820621440 -->
<g id="edge11" class="edge"><title>2101818797744&#45;&#45;2101820621440</title>
<path fill="none" stroke="black" d="M334.393,-219.503C348.743,-207.823 369.502,-190.926 384.578,-178.655"/>
</g>
<!-- 2101820621584 -->
<g id="node15" class="node"><title>2101820621584</title>
<ellipse fill="black" stroke="black" cx="320.811" cy="-90" rx="2.7" ry="2.7"/>
</g>
<!-- 2101820621440&#45;&#45;2101820621584 -->
<g id="edge9" class="edge"><title>2101820621440&#45;&#45;2101820621584</title>
<path fill="none" stroke="black" d="M385.391,-145.465C363.995,-127.42 330.598,-99.254 322.583,-92.4944"/>
</g>
<!-- 2101820621968 -->
<g id="node16" class="node"><title>2101820621968</title>
<ellipse fill="none" stroke="black" cx="403.811" cy="-90" rx="61.6894" ry="18"/>
<text text-anchor="middle" x="403.811" y="-86.5" font-family="Times New Roman,serif" font-size="15.00">Add penalty</text>
</g>
<!-- 2101820621440&#45;&#45;2101820621968 -->
<g id="edge10" class="edge"><title>2101820621440&#45;&#45;2101820621968</title>
<path fill="none" stroke="black" d="M403.811,-143.697C403.811,-132.846 403.811,-118.917 403.811,-108.104"/>
</g>
<!-- 2101819157520 -->
<g id="node18" class="node"><title>2101819157520</title>
<ellipse fill="none" stroke="black" cx="821.811" cy="-378" rx="59.5207" ry="18"/>
<text text-anchor="middle" x="821.811" y="-374.5" font-family="Times New Roman,serif" font-size="15.00">Create Fine</text>
</g>
<!-- 2101819154688&#45;&#45;2101819157520 -->
<g id="edge16" class="edge"><title>2101819154688&#45;&#45;2101819157520</title>
<path fill="none" stroke="black" d="M862.271,-433.465C854.012,-422.348 842.9,-407.39 834.411,-395.962"/>
</g>
<!-- 2101819157568 -->
<g id="node19" class="node"><title>2101819157568</title>
<ellipse fill="none" stroke="black" cx="926.811" cy="-378" rx="27" ry="18"/>
<text text-anchor="middle" x="926.811" y="-374.5" font-family="Times New Roman,serif" font-size="15.00">xor</text>
</g>
<!-- 2101819154688&#45;&#45;2101819157568 -->
<g id="edge44" class="edge"><title>2101819154688&#45;&#45;2101819157568</title>
<path fill="none" stroke="black" d="M885.573,-433.465C894.356,-421.865 906.306,-406.082 915.082,-394.492"/>
</g>
<!-- 2101819158384 -->
<g id="node47" class="node"><title>2101819158384</title>
<ellipse fill="none" stroke="black" cx="1029.81" cy="-378" rx="27" ry="18"/>
<text text-anchor="middle" x="1029.81" y="-374.5" font-family="Times New Roman,serif" font-size="15.00">xor</text>
</g>
<!-- 2101819154688&#45;&#45;2101819158384 -->
<g id="edge47" class="edge"><title>2101819154688&#45;&#45;2101819158384</title>
<path fill="none" stroke="black" d="M895.502,-439.267C925.223,-425.931 978.298,-402.115 1008.05,-388.763"/>
</g>
<!-- 2101819156656 -->
<g id="node20" class="node"><title>2101819156656</title>
<ellipse fill="black" stroke="black" cx="895.811" cy="-306" rx="2.7" ry="2.7"/>
</g>
<!-- 2101819157568&#45;&#45;2101819156656 -->
<g id="edge17" class="edge"><title>2101819157568&#45;&#45;2101819156656</title>
<path fill="none" stroke="black" d="M919.464,-360.411C911.586,-342.622 899.78,-315.962 896.615,-308.816"/>
</g>
<!-- 2101819158144 -->
<g id="node21" class="node"><title>2101819158144</title>
<ellipse fill="none" stroke="black" cx="962.811" cy="-306" rx="46.6143" ry="18"/>
<text text-anchor="middle" x="962.811" y="-302.5" font-family="Times New Roman,serif" font-size="15.00">xor loop</text>
</g>
<!-- 2101819157568&#45;&#45;2101819158144 -->
<g id="edge43" class="edge"><title>2101819157568&#45;&#45;2101819158144</title>
<path fill="none" stroke="black" d="M935.161,-360.765C940.81,-349.779 948.261,-335.292 954.004,-324.124"/>
</g>
<!-- 2101819157376 -->
<g id="node22" class="node"><title>2101819157376</title>
<ellipse fill="none" stroke="black" cx="962.811" cy="-234" rx="27" ry="18"/>
<text text-anchor="middle" x="962.811" y="-230.5" font-family="Times New Roman,serif" font-size="15.00">seq</text>
</g>
<!-- 2101819158144&#45;&#45;2101819157376 -->
<g id="edge41" class="edge"><title>2101819158144&#45;&#45;2101819157376</title>
<path fill="none" stroke="black" d="M962.811,-287.697C962.811,-276.846 962.811,-262.917 962.811,-252.104"/>
</g>
<!-- 2101819157472 -->
<g id="node46" class="node"><title>2101819157472</title>
<ellipse fill="black" stroke="black" cx="1010.81" cy="-234" rx="2.7" ry="2.7"/>
</g>
<!-- 2101819158144&#45;&#45;2101819157472 -->
<g id="edge42" class="edge"><title>2101819158144&#45;&#45;2101819157472</title>
<path fill="none" stroke="black" d="M974.186,-288.411C986.385,-270.622 1004.67,-243.962 1009.57,-236.816"/>
</g>
<!-- 2101819154976 -->
<g id="node23" class="node"><title>2101819154976</title>
<ellipse fill="none" stroke="black" cx="560.811" cy="-162" rx="27" ry="18"/>
<text text-anchor="middle" x="560.811" y="-158.5" font-family="Times New Roman,serif" font-size="15.00">xor</text>
</g>
<!-- 2101819157376&#45;&#45;2101819154976 -->
<g id="edge20" class="edge"><title>2101819157376&#45;&#45;2101819154976</title>
<path fill="none" stroke="black" d="M937.053,-228.515C864.53,-215.886 659.192,-180.131 586.615,-167.493"/>
</g>
<!-- 2101819155648 -->
<g id="node26" class="node"><title>2101819155648</title>
<ellipse fill="none" stroke="black" cx="762.811" cy="-162" rx="27" ry="18"/>
<text text-anchor="middle" x="762.811" y="-158.5" font-family="Times New Roman,serif" font-size="15.00">xor</text>
</g>
<!-- 2101819157376&#45;&#45;2101819155648 -->
<g id="edge23" class="edge"><title>2101819157376&#45;&#45;2101819155648</title>
<path fill="none" stroke="black" d="M939.477,-224.833C901.042,-211.381 824.845,-184.712 786.306,-171.223"/>
</g>
<!-- 2101819158432 -->
<g id="node29" class="node"><title>2101819158432</title>
<ellipse fill="none" stroke="black" cx="926.811" cy="-162" rx="27" ry="18"/>
<text text-anchor="middle" x="926.811" y="-158.5" font-family="Times New Roman,serif" font-size="15.00">xor</text>
</g>
<!-- 2101819157376&#45;&#45;2101819158432 -->
<g id="edge28" class="edge"><title>2101819157376&#45;&#45;2101819158432</title>
<path fill="none" stroke="black" d="M954.461,-216.765C948.646,-205.456 940.921,-190.437 935.115,-179.147"/>
</g>
<!-- 2101819157136 -->
<g id="node34" class="node"><title>2101819157136</title>
<ellipse fill="none" stroke="black" cx="998.811" cy="-162" rx="27" ry="18"/>
<text text-anchor="middle" x="998.811" y="-158.5" font-family="Times New Roman,serif" font-size="15.00">xor</text>
</g>
<!-- 2101819157376&#45;&#45;2101819157136 -->
<g id="edge31" class="edge"><title>2101819157376&#45;&#45;2101819157136</title>
<path fill="none" stroke="black" d="M971.161,-216.765C976.977,-205.456 984.701,-190.437 990.507,-179.147"/>
</g>
<!-- 2101819157184 -->
<g id="node37" class="node"><title>2101819157184</title>
<ellipse fill="none" stroke="black" cx="1268.81" cy="-162" rx="27" ry="18"/>
<text text-anchor="middle" x="1268.81" y="-158.5" font-family="Times New Roman,serif" font-size="15.00">xor</text>
</g>
<!-- 2101819157376&#45;&#45;2101819157184 -->
<g id="edge34" class="edge"><title>2101819157376&#45;&#45;2101819157184</title>
<path fill="none" stroke="black" d="M988.113,-227.212C1045.68,-214.044 1185.89,-181.969 1243.48,-168.795"/>
</g>
<!-- 2101816392000 -->
<g id="node40" class="node"><title>2101816392000</title>
<ellipse fill="none" stroke="black" cx="1656.81" cy="-162" rx="27" ry="18"/>
<text text-anchor="middle" x="1656.81" y="-158.5" font-family="Times New Roman,serif" font-size="15.00">xor</text>
</g>
<!-- 2101819157376&#45;&#45;2101816392000 -->
<g id="edge37" class="edge"><title>2101819157376&#45;&#45;2101816392000</title>
<path fill="none" stroke="black" d="M989.591,-230.299C1100.07,-219.156 1519.78,-176.821 1630.11,-165.693"/>
</g>
<!-- 2101819158096 -->
<g id="node43" class="node"><title>2101819158096</title>
<ellipse fill="none" stroke="black" cx="1994.81" cy="-162" rx="27" ry="18"/>
<text text-anchor="middle" x="1994.81" y="-158.5" font-family="Times New Roman,serif" font-size="15.00">xor</text>
</g>
<!-- 2101819157376&#45;&#45;2101819158096 -->
<g id="edge40" class="edge"><title>2101819157376&#45;&#45;2101819158096</title>
<path fill="none" stroke="black" d="M989.621,-231.182C1134.54,-221.352 1823.06,-174.65 1967.99,-164.819"/>
</g>
<!-- 2101819155744 -->
<g id="node24" class="node"><title>2101819155744</title>
<ellipse fill="black" stroke="black" cx="486.811" cy="-90" rx="2.7" ry="2.7"/>
</g>
<!-- 2101819154976&#45;&#45;2101819155744 -->
<g id="edge18" class="edge"><title>2101819154976&#45;&#45;2101819155744</title>
<path fill="none" stroke="black" d="M545.836,-146.834C526.916,-128.937 495.915,-99.6118 488.46,-92.5602"/>
</g>
<!-- 2101819157232 -->
<g id="node25" class="node"><title>2101819157232</title>
<ellipse fill="none" stroke="black" cx="560.811" cy="-90" rx="52.6228" ry="18"/>
<text text-anchor="middle" x="560.811" y="-86.5" font-family="Times New Roman,serif" font-size="15.00">Send Fine</text>
</g>
<!-- 2101819154976&#45;&#45;2101819157232 -->
<g id="edge19" class="edge"><title>2101819154976&#45;&#45;2101819157232</title>
<path fill="none" stroke="black" d="M560.811,-143.697C560.811,-132.846 560.811,-118.917 560.811,-108.104"/>
</g>
<!-- 2101819156128 -->
<g id="node27" class="node"><title>2101819156128</title>
<ellipse fill="black" stroke="black" cx="634.811" cy="-90" rx="2.7" ry="2.7"/>
</g>
<!-- 2101819155648&#45;&#45;2101819156128 -->
<g id="edge21" class="edge"><title>2101819155648&#45;&#45;2101819156128</title>
<path fill="none" stroke="black" d="M742.529,-149.908C710.102,-132.175 648.993,-98.756 636.915,-92.1507"/>
</g>
<!-- 2101819157040 -->
<g id="node28" class="node"><title>2101819157040</title>
<ellipse fill="none" stroke="black" cx="762.811" cy="-90" rx="107.914" ry="18"/>
<text text-anchor="middle" x="762.811" y="-86.5" font-family="Times New Roman,serif" font-size="15.00">Insert Fine Notification</text>
</g>
<!-- 2101819155648&#45;&#45;2101819157040 -->
<g id="edge22" class="edge"><title>2101819155648&#45;&#45;2101819157040</title>
<path fill="none" stroke="black" d="M762.811,-143.697C762.811,-132.846 762.811,-118.917 762.811,-108.104"/>
</g>
<!-- 2101819155552 -->
<g id="node30" class="node"><title>2101819155552</title>
<ellipse fill="black" stroke="black" cx="890.811" cy="-90" rx="2.7" ry="2.7"/>
</g>
<!-- 2101819158432&#45;&#45;2101819155552 -->
<g id="edge24" class="edge"><title>2101819158432&#45;&#45;2101819155552</title>
<path fill="none" stroke="black" d="M918.461,-144.765C909.322,-126.994 895.471,-100.06 891.755,-92.8363"/>
</g>
<!-- 2101819158336 -->
<g id="node31" class="node"><title>2101819158336</title>
<ellipse fill="none" stroke="black" cx="938.811" cy="-90" rx="27" ry="18"/>
<text text-anchor="middle" x="938.811" y="-86.5" font-family="Times New Roman,serif" font-size="15.00">and</text>
</g>
<!-- 2101819158432&#45;&#45;2101819158336 -->
<g id="edge27" class="edge"><title>2101819158432&#45;&#45;2101819158336</title>
<path fill="none" stroke="black" d="M929.716,-144.055C931.575,-133.211 933.98,-119.183 935.85,-108.275"/>
</g>
<!-- 2101816392336 -->
<g id="node32" class="node"><title>2101816392336</title>
<ellipse fill="none" stroke="black" cx="826.811" cy="-18" rx="61.6894" ry="18"/>
<text text-anchor="middle" x="826.811" y="-14.5" font-family="Times New Roman,serif" font-size="15.00">Add penalty</text>
</g>
<!-- 2101819158336&#45;&#45;2101816392336 -->
<g id="edge25" class="edge"><title>2101819158336&#45;&#45;2101816392336</title>
<path fill="none" stroke="black" d="M919.812,-77.1255C901.089,-65.4235 872.377,-47.479 851.811,-34.625"/>
</g>
<!-- 2101816390272 -->
<g id="node33" class="node"><title>2101816390272</title>
<ellipse fill="none" stroke="black" cx="1050.81" cy="-18" rx="144.571" ry="18"/>
<text text-anchor="middle" x="1050.81" y="-14.5" font-family="Times New Roman,serif" font-size="15.00">Insert Date Appeal to Prefecture</text>
</g>
<!-- 2101819158336&#45;&#45;2101816390272 -->
<g id="edge26" class="edge"><title>2101819158336&#45;&#45;2101816390272</title>
<path fill="none" stroke="black" d="M957.81,-77.1255C975.909,-65.8136 1003.34,-48.6684 1023.73,-35.9269"/>
</g>
<!-- 2101816389936 -->
<g id="node35" class="node"><title>2101816389936</title>
<ellipse fill="black" stroke="black" cx="986.811" cy="-90" rx="2.7" ry="2.7"/>
</g>
<!-- 2101819157136&#45;&#45;2101816389936 -->
<g id="edge29" class="edge"><title>2101819157136&#45;&#45;2101816389936</title>
<path fill="none" stroke="black" d="M995.906,-144.055C992.854,-126.252 988.331,-99.8653 987.119,-92.7963"/>
</g>
<!-- 2101816391856 -->
<g id="node36" class="node"><title>2101816391856</title>
<ellipse fill="none" stroke="black" cx="1127.81" cy="-90" rx="120.43" ry="18"/>
<text text-anchor="middle" x="1127.81" y="-86.5" font-family="Times New Roman,serif" font-size="15.00">Send Appeal to Prefecture</text>
</g>
<!-- 2101819157136&#45;&#45;2101816391856 -->
<g id="edge30" class="edge"><title>2101819157136&#45;&#45;2101816391856</title>
<path fill="none" stroke="black" d="M1019.25,-149.908C1040.28,-138.497 1073.28,-120.591 1097.38,-107.514"/>
</g>
<!-- 2101816392816 -->
<g id="node38" class="node"><title>2101816392816</title>
<ellipse fill="black" stroke="black" cx="1268.81" cy="-90" rx="2.7" ry="2.7"/>
</g>
<!-- 2101819157184&#45;&#45;2101816392816 -->
<g id="edge32" class="edge"><title>2101819157184&#45;&#45;2101816392816</title>
<path fill="none" stroke="black" d="M1268.81,-143.697C1268.81,-125.883 1268.81,-99.7686 1268.81,-92.7764"/>
</g>
<!-- 2101816392480 -->
<g id="node39" class="node"><title>2101816392480</title>
<ellipse fill="none" stroke="black" cx="1462.81" cy="-90" rx="173.941" ry="18"/>
<text text-anchor="middle" x="1462.81" y="-86.5" font-family="Times New Roman,serif" font-size="15.00">Receive Result Appeal from Prefecture</text>
</g>
<!-- 2101819157184&#45;&#45;2101816392480 -->
<g id="edge33" class="edge"><title>2101819157184&#45;&#45;2101816392480</title>
<path fill="none" stroke="black" d="M1292.21,-152.556C1323.05,-141.429 1377.96,-121.615 1417.16,-107.472"/>
</g>
<!-- 2101816392384 -->
<g id="node41" class="node"><title>2101816392384</title>
<ellipse fill="black" stroke="black" cx="1656.81" cy="-90" rx="2.7" ry="2.7"/>
</g>
<!-- 2101816392000&#45;&#45;2101816392384 -->
<g id="edge35" class="edge"><title>2101816392000&#45;&#45;2101816392384</title>
<path fill="none" stroke="black" d="M1656.81,-143.697C1656.81,-125.883 1656.81,-99.7686 1656.81,-92.7764"/>
</g>
<!-- 2101818796112 -->
<g id="node42" class="node"><title>2101818796112</title>
<ellipse fill="none" stroke="black" cx="1825.81" cy="-90" rx="148.91" ry="18"/>
<text text-anchor="middle" x="1825.81" y="-86.5" font-family="Times New Roman,serif" font-size="15.00">Notify Result Appeal to Offender</text>
</g>
<!-- 2101816392000&#45;&#45;2101818796112 -->
<g id="edge36" class="edge"><title>2101816392000&#45;&#45;2101818796112</title>
<path fill="none" stroke="black" d="M1679.25,-151.705C1706.46,-140.436 1752.79,-121.245 1786.09,-107.454"/>
</g>
<!-- 2101818796736 -->
<g id="node44" class="node"><title>2101818796736</title>
<ellipse fill="black" stroke="black" cx="1994.81" cy="-90" rx="2.7" ry="2.7"/>
</g>
<!-- 2101819158096&#45;&#45;2101818796736 -->
<g id="edge38" class="edge"><title>2101819158096&#45;&#45;2101818796736</title>
<path fill="none" stroke="black" d="M1994.81,-143.697C1994.81,-125.883 1994.81,-99.7686 1994.81,-92.7764"/>
</g>
<!-- 2101818797696 -->
<g id="node45" class="node"><title>2101818797696</title>
<ellipse fill="none" stroke="black" cx="2061.81" cy="-90" rx="45.7249" ry="18"/>
<text text-anchor="middle" x="2061.81" y="-86.5" font-family="Times New Roman,serif" font-size="15.00">Payment</text>
</g>
<!-- 2101819158096&#45;&#45;2101818797696 -->
<g id="edge39" class="edge"><title>2101819158096&#45;&#45;2101818797696</title>
<path fill="none" stroke="black" d="M2008.69,-146.496C2019.66,-135.043 2034.95,-119.069 2046.31,-107.198"/>
</g>
<!-- 2101816393632 -->
<g id="node48" class="node"><title>2101816393632</title>
<ellipse fill="black" stroke="black" cx="1029.81" cy="-306" rx="2.7" ry="2.7"/>
</g>
<!-- 2101819158384&#45;&#45;2101816393632 -->
<g id="edge45" class="edge"><title>2101819158384&#45;&#45;2101816393632</title>
<path fill="none" stroke="black" d="M1029.81,-359.697C1029.81,-341.883 1029.81,-315.769 1029.81,-308.776"/>
</g>
<!-- 2101816391472 -->
<g id="node49" class="node"><title>2101816391472</title>
<ellipse fill="none" stroke="black" cx="1171.81" cy="-306" rx="120.819" ry="18"/>
<text text-anchor="middle" x="1171.81" y="-302.5" font-family="Times New Roman,serif" font-size="15.00">Send for Credit Collection</text>
</g>
<!-- 2101819158384&#45;&#45;2101816391472 -->
<g id="edge46" class="edge"><title>2101819158384&#45;&#45;2101816391472</title>
<path fill="none" stroke="black" d="M1051.07,-366.52C1074.2,-355.116 1111.49,-336.733 1138.52,-323.412"/>
</g>
</g>
</svg>
