<?xml version="1.0" encoding="UTF-8" standalone="no"?>
<!DOCTYPE svg PUBLIC "-//W3C//DTD SVG 1.1//EN"
 "http://www.w3.org/Graphics/SVG/1.1/DTD/svg11.dtd">
<!-- Generated by graphviz version 2.38.0 (20140413.2041)
 -->
<!-- Title: pt Pages: 1 -->
<svg width="1234pt" height="764pt"
 viewBox="0.00 0.00 1233.57 764.00" xmlns="http://www.w3.org/2000/svg" xmlns:xlink="http://www.w3.org/1999/xlink">
<g id="graph0" class="graph" transform="scale(1 1) rotate(0) translate(4 760)">
<title>pt</title>
<!-- 2172668563520 -->
<g id="node1" class="node"><title>2172668563520</title>
<ellipse fill="none" stroke="black" cx="665.721" cy="-738" rx="27" ry="18"/>
<text text-anchor="middle" x="665.721" y="-734.5" font-family="Times New Roman,serif" font-size="15.00">seq</text>
</g>
<!-- 2172668566976 -->
<g id="node2" class="node"><title>2172668566976</title>
<ellipse fill="none" stroke="black" cx="560.721" cy="-666" rx="59.5207" ry="18"/>
<text text-anchor="middle" x="560.721" y="-662.5" font-family="Times New Roman,serif" font-size="15.00">Create Fine</text>
</g>
<!-- 2172668563520&#45;&#45;2172668566976 -->
<g id="edge1" class="edge"><title>2172668563520&#45;&#45;2172668566976</title>
<path fill="none" stroke="black" d="M646.949,-724.485C629.37,-712.767 603.044,-695.215 584.107,-682.591"/>
</g>
<!-- 2172668563760 -->
<g id="node3" class="node"><title>2172668563760</title>
<ellipse fill="none" stroke="black" cx="665.721" cy="-666" rx="27" ry="18"/>
<text text-anchor="middle" x="665.721" y="-662.5" font-family="Times New Roman,serif" font-size="15.00">and</text>
</g>
<!-- 2172668563520&#45;&#45;2172668563760 -->
<g id="edge43" class="edge"><title>2172668563520&#45;&#45;2172668563760</title>
<path fill="none" stroke="black" d="M665.721,-719.697C665.721,-708.846 665.721,-694.917 665.721,-684.104"/>
</g>
<!-- 2172668564144 -->
<g id="node45" class="node"><title>2172668564144</title>
<ellipse fill="none" stroke="black" cx="737.721" cy="-666" rx="27" ry="18"/>
<text text-anchor="middle" x="737.721" y="-662.5" font-family="Times New Roman,serif" font-size="15.00">xor</text>
</g>
<!-- 2172668563520&#45;&#45;2172668564144 -->
<g id="edge46" class="edge"><title>2172668563520&#45;&#45;2172668564144</title>
<path fill="none" stroke="black" d="M680.291,-722.834C692.7,-710.77 710.451,-693.512 722.925,-681.385"/>
</g>
<!-- 2172668563712 -->
<g id="node4" class="node"><title>2172668563712</title>
<ellipse fill="none" stroke="black" cx="560.721" cy="-594" rx="27" ry="18"/>
<text text-anchor="middle" x="560.721" y="-590.5" font-family="Times New Roman,serif" font-size="15.00">xor</text>
</g>
<!-- 2172668563760&#45;&#45;2172668563712 -->
<g id="edge25" class="edge"><title>2172668563760&#45;&#45;2172668563712</title>
<path fill="none" stroke="black" d="M646.949,-652.485C627.837,-639.744 598.383,-620.108 579.33,-607.406"/>
</g>
<!-- 2172668566448 -->
<g id="node28" class="node"><title>2172668566448</title>
<ellipse fill="none" stroke="black" cx="671.721" cy="-594" rx="27" ry="18"/>
<text text-anchor="middle" x="671.721" y="-590.5" font-family="Times New Roman,serif" font-size="15.00">and</text>
</g>
<!-- 2172668563760&#45;&#45;2172668566448 -->
<g id="edge42" class="edge"><title>2172668563760&#45;&#45;2172668566448</title>
<path fill="none" stroke="black" d="M667.204,-647.697C668.134,-636.846 669.328,-622.917 670.254,-612.104"/>
</g>
<!-- 2172668565152 -->
<g id="node5" class="node"><title>2172668565152</title>
<ellipse fill="black" stroke="black" cx="493.721" cy="-522" rx="2.7" ry="2.7"/>
</g>
<!-- 2172668563712&#45;&#45;2172668565152 -->
<g id="edge2" class="edge"><title>2172668563712&#45;&#45;2172668565152</title>
<path fill="none" stroke="black" d="M546.838,-578.496C529.667,-560.555 501.877,-531.522 495.198,-524.544"/>
</g>
<!-- 2172668564816 -->
<g id="node6" class="node"><title>2172668564816</title>
<ellipse fill="none" stroke="black" cx="560.721" cy="-522" rx="46.6143" ry="18"/>
<text text-anchor="middle" x="560.721" y="-518.5" font-family="Times New Roman,serif" font-size="15.00">xor loop</text>
</g>
<!-- 2172668563712&#45;&#45;2172668564816 -->
<g id="edge24" class="edge"><title>2172668563712&#45;&#45;2172668564816</title>
<path fill="none" stroke="black" d="M560.721,-575.697C560.721,-564.846 560.721,-550.917 560.721,-540.104"/>
</g>
<!-- 2172657509664 -->
<g id="node7" class="node"><title>2172657509664</title>
<ellipse fill="none" stroke="black" cx="522.721" cy="-450" rx="27" ry="18"/>
<text text-anchor="middle" x="522.721" y="-446.5" font-family="Times New Roman,serif" font-size="15.00">xor</text>
</g>
<!-- 2172668564816&#45;&#45;2172657509664 -->
<g id="edge22" class="edge"><title>2172668564816&#45;&#45;2172657509664</title>
<path fill="none" stroke="black" d="M551.522,-504.055C545.459,-492.887 537.564,-478.343 531.573,-467.307"/>
</g>
<!-- 2172657511920 -->
<g id="node27" class="node"><title>2172657511920</title>
<ellipse fill="black" stroke="black" cx="570.721" cy="-450" rx="2.7" ry="2.7"/>
</g>
<!-- 2172668564816&#45;&#45;2172657511920 -->
<g id="edge23" class="edge"><title>2172668564816&#45;&#45;2172657511920</title>
<path fill="none" stroke="black" d="M563.192,-503.697C565.737,-485.883 569.468,-459.769 570.467,-452.776"/>
</g>
<!-- 2172657508560 -->
<g id="node8" class="node"><title>2172657508560</title>
<ellipse fill="none" stroke="black" cx="476.721" cy="-378" rx="78.5434" ry="18"/>
<text text-anchor="middle" x="476.721" y="-374.5" font-family="Times New Roman,serif" font-size="15.00">Appeal to Judge</text>
</g>
<!-- 2172657509664&#45;&#45;2172657508560 -->
<g id="edge3" class="edge"><title>2172657509664&#45;&#45;2172657508560</title>
<path fill="none" stroke="black" d="M512.282,-433.116C505.072,-422.144 495.486,-407.557 488.084,-396.292"/>
</g>
<!-- 2172657508464 -->
<g id="node9" class="node"><title>2172657508464</title>
<ellipse fill="none" stroke="black" cx="600.721" cy="-378" rx="27" ry="18"/>
<text text-anchor="middle" x="600.721" y="-374.5" font-family="Times New Roman,serif" font-size="15.00">seq</text>
</g>
<!-- 2172657509664&#45;&#45;2172657508464 -->
<g id="edge21" class="edge"><title>2172657509664&#45;&#45;2172657508464</title>
<path fill="none" stroke="black" d="M538.131,-435.17C551.805,-422.898 571.678,-405.064 585.342,-392.801"/>
</g>
<!-- 2172657512112 -->
<g id="node10" class="node"><title>2172657512112</title>
<ellipse fill="none" stroke="black" cx="509.721" cy="-306" rx="27" ry="18"/>
<text text-anchor="middle" x="509.721" y="-302.5" font-family="Times New Roman,serif" font-size="15.00">xor</text>
</g>
<!-- 2172657508464&#45;&#45;2172657512112 -->
<g id="edge6" class="edge"><title>2172657508464&#45;&#45;2172657512112</title>
<path fill="none" stroke="black" d="M583.604,-363.834C567.335,-351.319 543.004,-332.603 526.76,-320.107"/>
</g>
<!-- 2172665941152 -->
<g id="node13" class="node"><title>2172665941152</title>
<ellipse fill="none" stroke="black" cx="674.721" cy="-306" rx="27" ry="18"/>
<text text-anchor="middle" x="674.721" y="-302.5" font-family="Times New Roman,serif" font-size="15.00">xor</text>
</g>
<!-- 2172657508464&#45;&#45;2172665941152 -->
<g id="edge20" class="edge"><title>2172657508464&#45;&#45;2172665941152</title>
<path fill="none" stroke="black" d="M615.696,-362.834C628.534,-350.69 646.936,-333.283 659.768,-321.144"/>
</g>
<!-- 2172665941488 -->
<g id="node11" class="node"><title>2172665941488</title>
<ellipse fill="none" stroke="black" cx="173.721" cy="-234" rx="173.941" ry="18"/>
<text text-anchor="middle" x="173.721" y="-230.5" font-family="Times New Roman,serif" font-size="15.00">Receive Result Appeal from Prefecture</text>
</g>
<!-- 2172657512112&#45;&#45;2172665941488 -->
<g id="edge4" class="edge"><title>2172657512112&#45;&#45;2172665941488</title>
<path fill="none" stroke="black" d="M484.19,-299.681C434.341,-289.296 322.393,-265.973 247.45,-250.36"/>
</g>
<!-- 2172665938032 -->
<g id="node12" class="node"><title>2172665938032</title>
<ellipse fill="none" stroke="black" cx="509.721" cy="-234" rx="144.571" ry="18"/>
<text text-anchor="middle" x="509.721" y="-230.5" font-family="Times New Roman,serif" font-size="15.00">Insert Date Appeal to Prefecture</text>
</g>
<!-- 2172657512112&#45;&#45;2172665938032 -->
<g id="edge5" class="edge"><title>2172657512112&#45;&#45;2172665938032</title>
<path fill="none" stroke="black" d="M509.721,-287.697C509.721,-276.846 509.721,-262.917 509.721,-252.104"/>
</g>
<!-- 2172679372608 -->
<g id="node14" class="node"><title>2172679372608</title>
<ellipse fill="black" stroke="black" cx="674.721" cy="-234" rx="2.7" ry="2.7"/>
</g>
<!-- 2172665941152&#45;&#45;2172679372608 -->
<g id="edge7" class="edge"><title>2172665941152&#45;&#45;2172679372608</title>
<path fill="none" stroke="black" d="M674.721,-287.697C674.721,-269.883 674.721,-243.769 674.721,-236.776"/>
</g>
<!-- 2172679370496 -->
<g id="node15" class="node"><title>2172679370496</title>
<ellipse fill="none" stroke="black" cx="741.721" cy="-234" rx="46.6143" ry="18"/>
<text text-anchor="middle" x="741.721" y="-230.5" font-family="Times New Roman,serif" font-size="15.00">xor loop</text>
</g>
<!-- 2172665941152&#45;&#45;2172679370496 -->
<g id="edge19" class="edge"><title>2172665941152&#45;&#45;2172679370496</title>
<path fill="none" stroke="black" d="M688.603,-290.496C699.565,-279.043 714.855,-263.069 726.217,-251.198"/>
</g>
<!-- 2172679372272 -->
<g id="node16" class="node"><title>2172679372272</title>
<ellipse fill="none" stroke="black" cx="717.721" cy="-162" rx="27" ry="18"/>
<text text-anchor="middle" x="717.721" y="-158.5" font-family="Times New Roman,serif" font-size="15.00">seq</text>
</g>
<!-- 2172679370496&#45;&#45;2172679372272 -->
<g id="edge17" class="edge"><title>2172679370496&#45;&#45;2172679372272</title>
<path fill="none" stroke="black" d="M735.911,-216.055C732.137,-205.049 727.24,-190.764 723.477,-179.789"/>
</g>
<!-- 2172679372560 -->
<g id="node26" class="node"><title>2172679372560</title>
<ellipse fill="black" stroke="black" cx="765.721" cy="-162" rx="2.7" ry="2.7"/>
</g>
<!-- 2172679370496&#45;&#45;2172679372560 -->
<g id="edge18" class="edge"><title>2172679370496&#45;&#45;2172679372560</title>
<path fill="none" stroke="black" d="M747.53,-216.055C753.634,-198.252 762.681,-171.865 765.105,-164.796"/>
</g>
<!-- 2172679371744 -->
<g id="node17" class="node"><title>2172679371744</title>
<ellipse fill="none" stroke="black" cx="477.721" cy="-90" rx="27" ry="18"/>
<text text-anchor="middle" x="477.721" y="-86.5" font-family="Times New Roman,serif" font-size="15.00">xor</text>
</g>
<!-- 2172679372272&#45;&#45;2172679371744 -->
<g id="edge10" class="edge"><title>2172679372272&#45;&#45;2172679371744</title>
<path fill="none" stroke="black" d="M693.387,-153.903C647.388,-140.486 548.167,-111.547 502.118,-98.116"/>
</g>
<!-- 2172679372128 -->
<g id="node20" class="node"><title>2172679372128</title>
<ellipse fill="none" stroke="black" cx="717.721" cy="-90" rx="27" ry="18"/>
<text text-anchor="middle" x="717.721" y="-86.5" font-family="Times New Roman,serif" font-size="15.00">xor</text>
</g>
<!-- 2172679372272&#45;&#45;2172679372128 -->
<g id="edge13" class="edge"><title>2172679372272&#45;&#45;2172679372128</title>
<path fill="none" stroke="black" d="M717.721,-143.697C717.721,-132.846 717.721,-118.917 717.721,-108.104"/>
</g>
<!-- 2172669455568 -->
<g id="node23" class="node"><title>2172669455568</title>
<ellipse fill="none" stroke="black" cx="930.721" cy="-90" rx="27" ry="18"/>
<text text-anchor="middle" x="930.721" y="-86.5" font-family="Times New Roman,serif" font-size="15.00">xor</text>
</g>
<!-- 2172679372272&#45;&#45;2172669455568 -->
<g id="edge16" class="edge"><title>2172679372272&#45;&#45;2172669455568</title>
<path fill="none" stroke="black" d="M741.329,-153.241C782.272,-139.786 865.99,-112.273 907.006,-98.7934"/>
</g>
<!-- 2172679370736 -->
<g id="node18" class="node"><title>2172679370736</title>
<ellipse fill="black" stroke="black" cx="308.721" cy="-18" rx="2.7" ry="2.7"/>
</g>
<!-- 2172679371744&#45;&#45;2172679370736 -->
<g id="edge8" class="edge"><title>2172679371744&#45;&#45;2172679370736</title>
<path fill="none" stroke="black" d="M455.279,-79.7045C413.258,-62.2995 325.606,-25.9938 310.851,-19.8823"/>
</g>
<!-- 2172679370016 -->
<g id="node19" class="node"><title>2172679370016</title>
<ellipse fill="none" stroke="black" cx="477.721" cy="-18" rx="148.91" ry="18"/>
<text text-anchor="middle" x="477.721" y="-14.5" font-family="Times New Roman,serif" font-size="15.00">Notify Result Appeal to Offender</text>
</g>
<!-- 2172679371744&#45;&#45;2172679370016 -->
<g id="edge9" class="edge"><title>2172679371744&#45;&#45;2172679370016</title>
<path fill="none" stroke="black" d="M477.721,-71.6966C477.721,-60.8463 477.721,-46.9167 477.721,-36.1043"/>
</g>
<!-- 2172669453072 -->
<g id="node21" class="node"><title>2172669453072</title>
<ellipse fill="black" stroke="black" cx="646.721" cy="-18" rx="2.7" ry="2.7"/>
</g>
<!-- 2172679372128&#45;&#45;2172669453072 -->
<g id="edge11" class="edge"><title>2172679372128&#45;&#45;2172669453072</title>
<path fill="none" stroke="black" d="M703.009,-74.496C684.813,-56.5555 655.364,-27.5217 648.286,-20.5436"/>
</g>
<!-- 2172669454320 -->
<g id="node22" class="node"><title>2172669454320</title>
<ellipse fill="none" stroke="black" cx="788.721" cy="-18" rx="120.819" ry="18"/>
<text text-anchor="middle" x="788.721" y="-14.5" font-family="Times New Roman,serif" font-size="15.00">Send for Credit Collection</text>
</g>
<!-- 2172679372128&#45;&#45;2172669454320 -->
<g id="edge12" class="edge"><title>2172679372128&#45;&#45;2172669454320</title>
<path fill="none" stroke="black" d="M732.432,-74.496C743.805,-63.2831 759.573,-47.737 771.528,-35.9506"/>
</g>
<!-- 2172669454224 -->
<g id="node24" class="node"><title>2172669454224</title>
<ellipse fill="black" stroke="black" cx="930.721" cy="-18" rx="2.7" ry="2.7"/>
</g>
<!-- 2172669455568&#45;&#45;2172669454224 -->
<g id="edge14" class="edge"><title>2172669455568&#45;&#45;2172669454224</title>
<path fill="none" stroke="black" d="M930.721,-71.6966C930.721,-53.8826 930.721,-27.7686 930.721,-20.7764"/>
</g>
<!-- 2172669453312 -->
<g id="node25" class="node"><title>2172669453312</title>
<ellipse fill="none" stroke="black" cx="1071.72" cy="-18" rx="120.43" ry="18"/>
<text text-anchor="middle" x="1071.72" y="-14.5" font-family="Times New Roman,serif" font-size="15.00">Send Appeal to Prefecture</text>
</g>
<!-- 2172669455568&#45;&#45;2172669453312 -->
<g id="edge15" class="edge"><title>2172669455568&#45;&#45;2172669453312</title>
<path fill="none" stroke="black" d="M951.83,-78.5203C974.8,-67.1164 1011.83,-48.7333 1038.66,-35.4115"/>
</g>
<!-- 2172665939712 -->
<g id="node29" class="node"><title>2172665939712</title>
<ellipse fill="none" stroke="black" cx="671.721" cy="-522" rx="46.6143" ry="18"/>
<text text-anchor="middle" x="671.721" y="-518.5" font-family="Times New Roman,serif" font-size="15.00">xor loop</text>
</g>
<!-- 2172668566448&#45;&#45;2172665939712 -->
<g id="edge28" class="edge"><title>2172668566448&#45;&#45;2172665939712</title>
<path fill="none" stroke="black" d="M671.721,-575.697C671.721,-564.846 671.721,-550.917 671.721,-540.104"/>
</g>
<!-- 2172669453264 -->
<g id="node32" class="node"><title>2172669453264</title>
<ellipse fill="none" stroke="black" cx="788.721" cy="-522" rx="27" ry="18"/>
<text text-anchor="middle" x="788.721" y="-518.5" font-family="Times New Roman,serif" font-size="15.00">xor</text>
</g>
<!-- 2172668566448&#45;&#45;2172669453264 -->
<g id="edge41" class="edge"><title>2172668566448&#45;&#45;2172669453264</title>
<path fill="none" stroke="black" d="M691.304,-581.284C712.901,-568.362 747.45,-547.692 769.074,-534.755"/>
</g>
<!-- 2172669454032 -->
<g id="node30" class="node"><title>2172669454032</title>
<ellipse fill="black" stroke="black" cx="604.721" cy="-450" rx="2.7" ry="2.7"/>
</g>
<!-- 2172665939712&#45;&#45;2172669454032 -->
<g id="edge26" class="edge"><title>2172665939712&#45;&#45;2172669454032</title>
<path fill="none" stroke="black" d="M656.181,-504.765C638.863,-486.671 612.452,-459.078 606.12,-452.462"/>
</g>
<!-- 2172669454608 -->
<g id="node31" class="node"><title>2172669454608</title>
<ellipse fill="none" stroke="black" cx="671.721" cy="-450" rx="45.7249" ry="18"/>
<text text-anchor="middle" x="671.721" y="-446.5" font-family="Times New Roman,serif" font-size="15.00">Payment</text>
</g>
<!-- 2172665939712&#45;&#45;2172669454608 -->
<g id="edge27" class="edge"><title>2172665939712&#45;&#45;2172669454608</title>
<path fill="none" stroke="black" d="M671.721,-503.697C671.721,-492.846 671.721,-478.917 671.721,-468.104"/>
</g>
<!-- 2172669454416 -->
<g id="node33" class="node"><title>2172669454416</title>
<ellipse fill="black" stroke="black" cx="738.721" cy="-450" rx="2.7" ry="2.7"/>
</g>
<!-- 2172669453264&#45;&#45;2172669454416 -->
<g id="edge29" class="edge"><title>2172669453264&#45;&#45;2172669454416</title>
<path fill="none" stroke="black" d="M777.624,-505.465C764.735,-487.42 744.616,-459.254 739.788,-452.494"/>
</g>
<!-- 2172497353072 -->
<g id="node34" class="node"><title>2172497353072</title>
<ellipse fill="none" stroke="black" cx="812.721" cy="-450" rx="52.6228" ry="18"/>
<text text-anchor="middle" x="812.721" y="-446.5" font-family="Times New Roman,serif" font-size="15.00">Send Fine</text>
</g>
<!-- 2172669453264&#45;&#45;2172497353072 -->
<g id="edge30" class="edge"><title>2172669453264&#45;&#45;2172497353072</title>
<path fill="none" stroke="black" d="M794.53,-504.055C798.248,-493.211 803.058,-479.183 806.798,-468.275"/>
</g>
<!-- 2172497353360 -->
<g id="node35" class="node"><title>2172497353360</title>
<ellipse fill="none" stroke="black" cx="910.721" cy="-450" rx="27" ry="18"/>
<text text-anchor="middle" x="910.721" y="-446.5" font-family="Times New Roman,serif" font-size="15.00">seq</text>
</g>
<!-- 2172669453264&#45;&#45;2172497353360 -->
<g id="edge40" class="edge"><title>2172669453264&#45;&#45;2172497353360</title>
<path fill="none" stroke="black" d="M808.594,-509.597C831.28,-496.581 868.173,-475.413 890.856,-462.398"/>
</g>
<!-- 2172497551216 -->
<g id="node36" class="node"><title>2172497551216</title>
<ellipse fill="none" stroke="black" cx="731.721" cy="-378" rx="52.6228" ry="18"/>
<text text-anchor="middle" x="731.721" y="-374.5" font-family="Times New Roman,serif" font-size="15.00">Send Fine</text>
</g>
<!-- 2172497353360&#45;&#45;2172497551216 -->
<g id="edge31" class="edge"><title>2172497353360&#45;&#45;2172497551216</title>
<path fill="none" stroke="black" d="M888.05,-440.134C857.005,-427.994 801.037,-406.107 765.169,-392.081"/>
</g>
<!-- 2172497550304 -->
<g id="node37" class="node"><title>2172497550304</title>
<ellipse fill="none" stroke="black" cx="910.721" cy="-378" rx="107.914" ry="18"/>
<text text-anchor="middle" x="910.721" y="-374.5" font-family="Times New Roman,serif" font-size="15.00">Insert Fine Notification</text>
</g>
<!-- 2172497353360&#45;&#45;2172497550304 -->
<g id="edge32" class="edge"><title>2172497353360&#45;&#45;2172497550304</title>
<path fill="none" stroke="black" d="M910.721,-431.697C910.721,-420.846 910.721,-406.917 910.721,-396.104"/>
</g>
<!-- 2172497551264 -->
<g id="node38" class="node"><title>2172497551264</title>
<ellipse fill="none" stroke="black" cx="1063.72" cy="-378" rx="27" ry="18"/>
<text text-anchor="middle" x="1063.72" y="-374.5" font-family="Times New Roman,serif" font-size="15.00">and</text>
</g>
<!-- 2172497353360&#45;&#45;2172497551264 -->
<g id="edge39" class="edge"><title>2172497353360&#45;&#45;2172497551264</title>
<path fill="none" stroke="black" d="M932.317,-439.119C961.312,-425.853 1012.55,-402.412 1041.74,-389.057"/>
</g>
<!-- 2172497548480 -->
<g id="node39" class="node"><title>2172497548480</title>
<ellipse fill="none" stroke="black" cx="981.721" cy="-306" rx="27" ry="18"/>
<text text-anchor="middle" x="981.721" y="-302.5" font-family="Times New Roman,serif" font-size="15.00">xor</text>
</g>
<!-- 2172497551264&#45;&#45;2172497548480 -->
<g id="edge35" class="edge"><title>2172497551264&#45;&#45;2172497548480</title>
<path fill="none" stroke="black" d="M1047.52,-363.17C1033.05,-350.819 1011.98,-332.832 997.608,-320.563"/>
</g>
<!-- 2172497549680 -->
<g id="node42" class="node"><title>2172497549680</title>
<ellipse fill="none" stroke="black" cx="1080.72" cy="-306" rx="46.6143" ry="18"/>
<text text-anchor="middle" x="1080.72" y="-302.5" font-family="Times New Roman,serif" font-size="15.00">xor loop</text>
</g>
<!-- 2172497551264&#45;&#45;2172497549680 -->
<g id="edge38" class="edge"><title>2172497551264&#45;&#45;2172497549680</title>
<path fill="none" stroke="black" d="M1067.84,-360.055C1070.47,-349.211 1073.88,-335.183 1076.53,-324.275"/>
</g>
<!-- 2172497550208 -->
<g id="node40" class="node"><title>2172497550208</title>
<ellipse fill="black" stroke="black" cx="882.721" cy="-234" rx="2.7" ry="2.7"/>
</g>
<!-- 2172497548480&#45;&#45;2172497550208 -->
<g id="edge33" class="edge"><title>2172497548480&#45;&#45;2172497550208</title>
<path fill="none" stroke="black" d="M963.562,-292.161C938.108,-274.163 893.869,-242.883 884.497,-236.256"/>
</g>
<!-- 2172497549152 -->
<g id="node41" class="node"><title>2172497549152</title>
<ellipse fill="none" stroke="black" cx="981.721" cy="-234" rx="78.5434" ry="18"/>
<text text-anchor="middle" x="981.721" y="-230.5" font-family="Times New Roman,serif" font-size="15.00">Appeal to Judge</text>
</g>
<!-- 2172497548480&#45;&#45;2172497549152 -->
<g id="edge34" class="edge"><title>2172497548480&#45;&#45;2172497549152</title>
<path fill="none" stroke="black" d="M981.721,-287.697C981.721,-276.846 981.721,-262.917 981.721,-252.104"/>
</g>
<!-- 2172656489328 -->
<g id="node43" class="node"><title>2172656489328</title>
<ellipse fill="black" stroke="black" cx="1080.72" cy="-234" rx="2.7" ry="2.7"/>
</g>
<!-- 2172497549680&#45;&#45;2172656489328 -->
<g id="edge36" class="edge"><title>2172497549680&#45;&#45;2172656489328</title>
<path fill="none" stroke="black" d="M1080.72,-287.697C1080.72,-269.883 1080.72,-243.769 1080.72,-236.776"/>
</g>
<!-- 2172673457600 -->
<g id="node44" class="node"><title>2172673457600</title>
<ellipse fill="none" stroke="black" cx="1163.72" cy="-234" rx="61.6894" ry="18"/>
<text text-anchor="middle" x="1163.72" y="-230.5" font-family="Times New Roman,serif" font-size="15.00">Add penalty</text>
</g>
<!-- 2172497549680&#45;&#45;2172673457600 -->
<g id="edge37" class="edge"><title>2172497549680&#45;&#45;2172673457600</title>
<path fill="none" stroke="black" d="M1099.14,-289.465C1112.61,-278.106 1130.83,-262.737 1144.49,-251.222"/>
</g>
<!-- 2172497549920 -->
<g id="node46" class="node"><title>2172497549920</title>
<ellipse fill="black" stroke="black" cx="731.721" cy="-594" rx="2.7" ry="2.7"/>
</g>
<!-- 2172668564144&#45;&#45;2172497549920 -->
<g id="edge44" class="edge"><title>2172668564144&#45;&#45;2172497549920</title>
<path fill="none" stroke="black" d="M736.237,-647.697C734.711,-629.883 732.472,-603.769 731.873,-596.776"/>
</g>
<!-- 2172497353840 -->
<g id="node47" class="node"><title>2172497353840</title>
<ellipse fill="none" stroke="black" cx="873.721" cy="-594" rx="120.819" ry="18"/>
<text text-anchor="middle" x="873.721" y="-590.5" font-family="Times New Roman,serif" font-size="15.00">Send for Credit Collection</text>
</g>
<!-- 2172668564144&#45;&#45;2172497353840 -->
<g id="edge45" class="edge"><title>2172668564144&#45;&#45;2172497353840</title>
<path fill="none" stroke="black" d="M758.376,-654.369C780.52,-642.971 815.961,-624.729 841.719,-611.471"/>
</g>
</g>
</svg>
