<?xml version="1.0" encoding="UTF-8" standalone="no"?>
<!DOCTYPE svg PUBLIC "-//W3C//DTD SVG 1.1//EN"
 "http://www.w3.org/Graphics/SVG/1.1/DTD/svg11.dtd">
<!-- Generated by graphviz version 2.38.0 (20140413.2041)
 -->
<!-- Title: pt Pages: 1 -->
<svg width="1257pt" height="548pt"
 viewBox="0.00 0.00 1256.91 548.00" xmlns="http://www.w3.org/2000/svg" xmlns:xlink="http://www.w3.org/1999/xlink">
<g id="graph0" class="graph" transform="scale(1 1) rotate(0) translate(4 544)">
<title>pt</title>
<!-- 2172497554448 -->
<g id="node1" class="node"><title>2172497554448</title>
<ellipse fill="none" stroke="black" cx="300.7" cy="-522" rx="27" ry="18"/>
<text text-anchor="middle" x="300.7" y="-518.5" font-family="Times New Roman,serif" font-size="15.00">and</text>
</g>
<!-- 2172655619088 -->
<g id="node2" class="node"><title>2172655619088</title>
<ellipse fill="none" stroke="black" cx="210.7" cy="-450" rx="27" ry="18"/>
<text text-anchor="middle" x="210.7" y="-446.5" font-family="Times New Roman,serif" font-size="15.00">xor</text>
</g>
<!-- 2172497554448&#45;&#45;2172655619088 -->
<g id="edge19" class="edge"><title>2172497554448&#45;&#45;2172655619088</title>
<path fill="none" stroke="black" d="M283.772,-507.834C267.681,-495.319 243.618,-476.603 227.552,-464.107"/>
</g>
<!-- 2172497551808 -->
<g id="node21" class="node"><title>2172497551808</title>
<ellipse fill="none" stroke="black" cx="390.7" cy="-450" rx="27" ry="18"/>
<text text-anchor="middle" x="390.7" y="-446.5" font-family="Times New Roman,serif" font-size="15.00">seq</text>
</g>
<!-- 2172497554448&#45;&#45;2172497551808 -->
<g id="edge42" class="edge"><title>2172497554448&#45;&#45;2172497551808</title>
<path fill="none" stroke="black" d="M317.628,-507.834C333.719,-495.319 357.782,-476.603 373.848,-464.107"/>
</g>
<!-- 2172498320400 -->
<g id="node3" class="node"><title>2172498320400</title>
<ellipse fill="black" stroke="black" cx="162.7" cy="-378" rx="2.7" ry="2.7"/>
</g>
<!-- 2172655619088&#45;&#45;2172498320400 -->
<g id="edge1" class="edge"><title>2172655619088&#45;&#45;2172498320400</title>
<path fill="none" stroke="black" d="M199.808,-433.116C187.638,-415.367 168.98,-388.158 163.973,-380.857"/>
</g>
<!-- 2172498321072 -->
<g id="node4" class="node"><title>2172498321072</title>
<ellipse fill="none" stroke="black" cx="210.7" cy="-378" rx="27" ry="18"/>
<text text-anchor="middle" x="210.7" y="-374.5" font-family="Times New Roman,serif" font-size="15.00">and</text>
</g>
<!-- 2172655619088&#45;&#45;2172498321072 -->
<g id="edge18" class="edge"><title>2172655619088&#45;&#45;2172498321072</title>
<path fill="none" stroke="black" d="M210.7,-431.697C210.7,-420.846 210.7,-406.917 210.7,-396.104"/>
</g>
<!-- 2172498318096 -->
<g id="node5" class="node"><title>2172498318096</title>
<ellipse fill="none" stroke="black" cx="69.7" cy="-306" rx="46.6143" ry="18"/>
<text text-anchor="middle" x="69.7" y="-302.5" font-family="Times New Roman,serif" font-size="15.00">xor loop</text>
</g>
<!-- 2172498321072&#45;&#45;2172498318096 -->
<g id="edge4" class="edge"><title>2172498321072&#45;&#45;2172498318096</title>
<path fill="none" stroke="black" d="M189.591,-366.52C165.007,-354.316 124.321,-334.117 97.2629,-320.684"/>
</g>
<!-- 2172498319968 -->
<g id="node8" class="node"><title>2172498319968</title>
<ellipse fill="none" stroke="black" cx="210.7" cy="-306" rx="27" ry="18"/>
<text text-anchor="middle" x="210.7" y="-302.5" font-family="Times New Roman,serif" font-size="15.00">xor</text>
</g>
<!-- 2172498321072&#45;&#45;2172498319968 -->
<g id="edge17" class="edge"><title>2172498321072&#45;&#45;2172498319968</title>
<path fill="none" stroke="black" d="M210.7,-359.697C210.7,-348.846 210.7,-334.917 210.7,-324.104"/>
</g>
<!-- 2172498319872 -->
<g id="node6" class="node"><title>2172498319872</title>
<ellipse fill="black" stroke="black" cx="2.7" cy="-234" rx="2.7" ry="2.7"/>
</g>
<!-- 2172498318096&#45;&#45;2172498319872 -->
<g id="edge2" class="edge"><title>2172498318096&#45;&#45;2172498319872</title>
<path fill="none" stroke="black" d="M54.1604,-288.765C36.842,-270.671 10.4314,-243.078 4.09939,-236.462"/>
</g>
<!-- 2172498318384 -->
<g id="node7" class="node"><title>2172498318384</title>
<ellipse fill="none" stroke="black" cx="69.7" cy="-234" rx="45.7249" ry="18"/>
<text text-anchor="middle" x="69.7" y="-230.5" font-family="Times New Roman,serif" font-size="15.00">Payment</text>
</g>
<!-- 2172498318096&#45;&#45;2172498318384 -->
<g id="edge3" class="edge"><title>2172498318096&#45;&#45;2172498318384</title>
<path fill="none" stroke="black" d="M69.7,-287.697C69.7,-276.846 69.7,-262.917 69.7,-252.104"/>
</g>
<!-- 2172498318768 -->
<g id="node9" class="node"><title>2172498318768</title>
<ellipse fill="black" stroke="black" cx="136.7" cy="-234" rx="2.7" ry="2.7"/>
</g>
<!-- 2172498319968&#45;&#45;2172498318768 -->
<g id="edge5" class="edge"><title>2172498319968&#45;&#45;2172498318768</title>
<path fill="none" stroke="black" d="M195.725,-290.834C176.805,-272.937 145.804,-243.612 138.349,-236.56"/>
</g>
<!-- 2172498317856 -->
<g id="node10" class="node"><title>2172498317856</title>
<ellipse fill="none" stroke="black" cx="210.7" cy="-234" rx="52.6228" ry="18"/>
<text text-anchor="middle" x="210.7" y="-230.5" font-family="Times New Roman,serif" font-size="15.00">Send Fine</text>
</g>
<!-- 2172498319968&#45;&#45;2172498317856 -->
<g id="edge6" class="edge"><title>2172498319968&#45;&#45;2172498317856</title>
<path fill="none" stroke="black" d="M210.7,-287.697C210.7,-276.846 210.7,-262.917 210.7,-252.104"/>
</g>
<!-- 2172498321216 -->
<g id="node11" class="node"><title>2172498321216</title>
<ellipse fill="none" stroke="black" cx="308.7" cy="-234" rx="27" ry="18"/>
<text text-anchor="middle" x="308.7" y="-230.5" font-family="Times New Roman,serif" font-size="15.00">seq</text>
</g>
<!-- 2172498319968&#45;&#45;2172498321216 -->
<g id="edge16" class="edge"><title>2172498319968&#45;&#45;2172498321216</title>
<path fill="none" stroke="black" d="M228.675,-292.161C246.357,-279.531 273.196,-260.36 290.839,-247.758"/>
</g>
<!-- 2172498319440 -->
<g id="node12" class="node"><title>2172498319440</title>
<ellipse fill="none" stroke="black" cx="127.7" cy="-162" rx="52.6228" ry="18"/>
<text text-anchor="middle" x="127.7" y="-158.5" font-family="Times New Roman,serif" font-size="15.00">Send Fine</text>
</g>
<!-- 2172498321216&#45;&#45;2172498319440 -->
<g id="edge7" class="edge"><title>2172498321216&#45;&#45;2172498319440</title>
<path fill="none" stroke="black" d="M285.776,-224.134C254.289,-211.957 197.447,-189.974 161.193,-175.953"/>
</g>
<!-- 2172498318624 -->
<g id="node13" class="node"><title>2172498318624</title>
<ellipse fill="none" stroke="black" cx="306.7" cy="-162" rx="107.914" ry="18"/>
<text text-anchor="middle" x="306.7" y="-158.5" font-family="Times New Roman,serif" font-size="15.00">Insert Fine Notification</text>
</g>
<!-- 2172498321216&#45;&#45;2172498318624 -->
<g id="edge8" class="edge"><title>2172498321216&#45;&#45;2172498318624</title>
<path fill="none" stroke="black" d="M308.206,-215.697C307.896,-204.846 307.498,-190.917 307.189,-180.104"/>
</g>
<!-- 2172498319584 -->
<g id="node14" class="node"><title>2172498319584</title>
<ellipse fill="none" stroke="black" cx="459.7" cy="-162" rx="27" ry="18"/>
<text text-anchor="middle" x="459.7" y="-158.5" font-family="Times New Roman,serif" font-size="15.00">and</text>
</g>
<!-- 2172498321216&#45;&#45;2172498319584 -->
<g id="edge15" class="edge"><title>2172498321216&#45;&#45;2172498319584</title>
<path fill="none" stroke="black" d="M330.335,-222.971C359.04,-209.664 409.421,-186.308 438.106,-173.011"/>
</g>
<!-- 2172498317472 -->
<g id="node15" class="node"><title>2172498317472</title>
<ellipse fill="none" stroke="black" cx="360.7" cy="-90" rx="27" ry="18"/>
<text text-anchor="middle" x="360.7" y="-86.5" font-family="Times New Roman,serif" font-size="15.00">xor</text>
</g>
<!-- 2172498319584&#45;&#45;2172498317472 -->
<g id="edge11" class="edge"><title>2172498319584&#45;&#45;2172498317472</title>
<path fill="none" stroke="black" d="M441.542,-148.161C423.679,-135.531 396.566,-116.36 378.743,-103.758"/>
</g>
<!-- 2172498320016 -->
<g id="node18" class="node"><title>2172498320016</title>
<ellipse fill="none" stroke="black" cx="459.7" cy="-90" rx="46.6143" ry="18"/>
<text text-anchor="middle" x="459.7" y="-86.5" font-family="Times New Roman,serif" font-size="15.00">xor loop</text>
</g>
<!-- 2172498319584&#45;&#45;2172498320016 -->
<g id="edge14" class="edge"><title>2172498319584&#45;&#45;2172498320016</title>
<path fill="none" stroke="black" d="M459.7,-143.697C459.7,-132.846 459.7,-118.917 459.7,-108.104"/>
</g>
<!-- 2172498317568 -->
<g id="node16" class="node"><title>2172498317568</title>
<ellipse fill="black" stroke="black" cx="261.7" cy="-18" rx="2.7" ry="2.7"/>
</g>
<!-- 2172498317472&#45;&#45;2172498317568 -->
<g id="edge9" class="edge"><title>2172498317472&#45;&#45;2172498317568</title>
<path fill="none" stroke="black" d="M342.542,-76.1609C317.087,-58.1628 272.849,-26.8831 263.476,-20.2559"/>
</g>
<!-- 2172498320640 -->
<g id="node17" class="node"><title>2172498320640</title>
<ellipse fill="none" stroke="black" cx="360.7" cy="-18" rx="78.5434" ry="18"/>
<text text-anchor="middle" x="360.7" y="-14.5" font-family="Times New Roman,serif" font-size="15.00">Appeal to Judge</text>
</g>
<!-- 2172498317472&#45;&#45;2172498320640 -->
<g id="edge10" class="edge"><title>2172498317472&#45;&#45;2172498320640</title>
<path fill="none" stroke="black" d="M360.7,-71.6966C360.7,-60.8463 360.7,-46.9167 360.7,-36.1043"/>
</g>
<!-- 2172498320976 -->
<g id="node19" class="node"><title>2172498320976</title>
<ellipse fill="black" stroke="black" cx="459.7" cy="-18" rx="2.7" ry="2.7"/>
</g>
<!-- 2172498320016&#45;&#45;2172498320976 -->
<g id="edge12" class="edge"><title>2172498320016&#45;&#45;2172498320976</title>
<path fill="none" stroke="black" d="M459.7,-71.6966C459.7,-53.8826 459.7,-27.7686 459.7,-20.7764"/>
</g>
<!-- 2172498319920 -->
<g id="node20" class="node"><title>2172498319920</title>
<ellipse fill="none" stroke="black" cx="542.7" cy="-18" rx="61.6894" ry="18"/>
<text text-anchor="middle" x="542.7" y="-14.5" font-family="Times New Roman,serif" font-size="15.00">Add penalty</text>
</g>
<!-- 2172498320016&#45;&#45;2172498319920 -->
<g id="edge13" class="edge"><title>2172498320016&#45;&#45;2172498319920</title>
<path fill="none" stroke="black" d="M478.12,-73.4647C491.588,-62.1062 509.811,-46.7374 523.466,-35.2216"/>
</g>
<!-- 2172655619184 -->
<g id="node22" class="node"><title>2172655619184</title>
<ellipse fill="none" stroke="black" cx="338.7" cy="-378" rx="59.5207" ry="18"/>
<text text-anchor="middle" x="338.7" y="-374.5" font-family="Times New Roman,serif" font-size="15.00">Create Fine</text>
</g>
<!-- 2172497551808&#45;&#45;2172655619184 -->
<g id="edge20" class="edge"><title>2172497551808&#45;&#45;2172655619184</title>
<path fill="none" stroke="black" d="M379.16,-433.465C370.901,-422.348 359.789,-407.39 351.3,-395.962"/>
</g>
<!-- 2172655619520 -->
<g id="node23" class="node"><title>2172655619520</title>
<ellipse fill="none" stroke="black" cx="443.7" cy="-378" rx="27" ry="18"/>
<text text-anchor="middle" x="443.7" y="-374.5" font-family="Times New Roman,serif" font-size="15.00">and</text>
</g>
<!-- 2172497551808&#45;&#45;2172655619520 -->
<g id="edge38" class="edge"><title>2172497551808&#45;&#45;2172655619520</title>
<path fill="none" stroke="black" d="M402.462,-433.465C411.245,-421.865 423.195,-406.082 431.97,-394.492"/>
</g>
<!-- 2172655616496 -->
<g id="node41" class="node"><title>2172655616496</title>
<ellipse fill="none" stroke="black" cx="569.7" cy="-378" rx="27" ry="18"/>
<text text-anchor="middle" x="569.7" y="-374.5" font-family="Times New Roman,serif" font-size="15.00">xor</text>
</g>
<!-- 2172497551808&#45;&#45;2172655616496 -->
<g id="edge41" class="edge"><title>2172497551808&#45;&#45;2172655616496</title>
<path fill="none" stroke="black" d="M413.37,-440.134C447.708,-426.706 512.536,-401.355 546.932,-387.904"/>
</g>
<!-- 2172655616736 -->
<g id="node24" class="node"><title>2172655616736</title>
<ellipse fill="none" stroke="black" cx="429.7" cy="-306" rx="46.6143" ry="18"/>
<text text-anchor="middle" x="429.7" y="-302.5" font-family="Times New Roman,serif" font-size="15.00">xor loop</text>
</g>
<!-- 2172655619520&#45;&#45;2172655616736 -->
<g id="edge23" class="edge"><title>2172655619520&#45;&#45;2172655616736</title>
<path fill="none" stroke="black" d="M440.311,-360.055C438.142,-349.211 435.337,-335.183 433.155,-324.275"/>
</g>
<!-- 2172655620048 -->
<g id="node27" class="node"><title>2172655620048</title>
<ellipse fill="none" stroke="black" cx="521.7" cy="-306" rx="27" ry="18"/>
<text text-anchor="middle" x="521.7" y="-302.5" font-family="Times New Roman,serif" font-size="15.00">xor</text>
</g>
<!-- 2172655619520&#45;&#45;2172655620048 -->
<g id="edge37" class="edge"><title>2172655619520&#45;&#45;2172655620048</title>
<path fill="none" stroke="black" d="M459.11,-363.17C472.785,-350.898 492.657,-333.064 506.322,-320.801"/>
</g>
<!-- 2172655616448 -->
<g id="node25" class="node"><title>2172655616448</title>
<ellipse fill="black" stroke="black" cx="369.7" cy="-234" rx="2.7" ry="2.7"/>
</g>
<!-- 2172655616736&#45;&#45;2172655616448 -->
<g id="edge21" class="edge"><title>2172655616736&#45;&#45;2172655616448</title>
<path fill="none" stroke="black" d="M415.784,-288.765C400.275,-270.671 376.624,-243.078 370.953,-236.462"/>
</g>
<!-- 2172655620000 -->
<g id="node26" class="node"><title>2172655620000</title>
<ellipse fill="none" stroke="black" cx="436.7" cy="-234" rx="45.7249" ry="18"/>
<text text-anchor="middle" x="436.7" y="-230.5" font-family="Times New Roman,serif" font-size="15.00">Payment</text>
</g>
<!-- 2172655616736&#45;&#45;2172655620000 -->
<g id="edge22" class="edge"><title>2172655616736&#45;&#45;2172655620000</title>
<path fill="none" stroke="black" d="M431.43,-287.697C432.515,-276.846 433.908,-262.917 434.99,-252.104"/>
</g>
<!-- 2172655616976 -->
<g id="node28" class="node"><title>2172655616976</title>
<ellipse fill="black" stroke="black" cx="509.7" cy="-234" rx="2.7" ry="2.7"/>
</g>
<!-- 2172655620048&#45;&#45;2172655616976 -->
<g id="edge24" class="edge"><title>2172655620048&#45;&#45;2172655616976</title>
<path fill="none" stroke="black" d="M518.795,-288.055C515.743,-270.252 511.22,-243.865 510.008,-236.796"/>
</g>
<!-- 2172655618704 -->
<g id="node29" class="node"><title>2172655618704</title>
<ellipse fill="none" stroke="black" cx="583.7" cy="-234" rx="52.6228" ry="18"/>
<text text-anchor="middle" x="583.7" y="-230.5" font-family="Times New Roman,serif" font-size="15.00">Send Fine</text>
</g>
<!-- 2172655620048&#45;&#45;2172655618704 -->
<g id="edge25" class="edge"><title>2172655620048&#45;&#45;2172655618704</title>
<path fill="none" stroke="black" d="M534.849,-290.155C544.801,-278.918 558.478,-263.476 568.83,-251.789"/>
</g>
<!-- 2172655619472 -->
<g id="node30" class="node"><title>2172655619472</title>
<ellipse fill="none" stroke="black" cx="684.7" cy="-234" rx="27" ry="18"/>
<text text-anchor="middle" x="684.7" y="-230.5" font-family="Times New Roman,serif" font-size="15.00">seq</text>
</g>
<!-- 2172655620048&#45;&#45;2172655619472 -->
<g id="edge36" class="edge"><title>2172655620048&#45;&#45;2172655619472</title>
<path fill="none" stroke="black" d="M544.023,-295.414C575.237,-282.009 631.578,-257.813 662.647,-244.471"/>
</g>
<!-- 2172655616112 -->
<g id="node31" class="node"><title>2172655616112</title>
<ellipse fill="none" stroke="black" cx="684.7" cy="-162" rx="52.6228" ry="18"/>
<text text-anchor="middle" x="684.7" y="-158.5" font-family="Times New Roman,serif" font-size="15.00">Send Fine</text>
</g>
<!-- 2172655619472&#45;&#45;2172655616112 -->
<g id="edge26" class="edge"><title>2172655619472&#45;&#45;2172655616112</title>
<path fill="none" stroke="black" d="M684.7,-215.697C684.7,-204.846 684.7,-190.917 684.7,-180.104"/>
</g>
<!-- 2172655546576 -->
<g id="node32" class="node"><title>2172655546576</title>
<ellipse fill="none" stroke="black" cx="784.7" cy="-162" rx="27" ry="18"/>
<text text-anchor="middle" x="784.7" y="-158.5" font-family="Times New Roman,serif" font-size="15.00">seq</text>
</g>
<!-- 2172655619472&#45;&#45;2172655546576 -->
<g id="edge35" class="edge"><title>2172655619472&#45;&#45;2172655546576</title>
<path fill="none" stroke="black" d="M702.578,-220.485C720.668,-207.823 748.485,-188.351 766.64,-175.642"/>
</g>
<!-- 2172498319296 -->
<g id="node33" class="node"><title>2172498319296</title>
<ellipse fill="none" stroke="black" cx="631.7" cy="-90" rx="107.914" ry="18"/>
<text text-anchor="middle" x="631.7" y="-86.5" font-family="Times New Roman,serif" font-size="15.00">Insert Fine Notification</text>
</g>
<!-- 2172655546576&#45;&#45;2172498319296 -->
<g id="edge27" class="edge"><title>2172655546576&#45;&#45;2172498319296</title>
<path fill="none" stroke="black" d="M763.103,-151.119C738.062,-139.662 696.433,-120.616 666.741,-107.032"/>
</g>
<!-- 2172498317520 -->
<g id="node34" class="node"><title>2172498317520</title>
<ellipse fill="none" stroke="black" cx="784.7" cy="-90" rx="27" ry="18"/>
<text text-anchor="middle" x="784.7" y="-86.5" font-family="Times New Roman,serif" font-size="15.00">xor</text>
</g>
<!-- 2172655546576&#45;&#45;2172498317520 -->
<g id="edge30" class="edge"><title>2172655546576&#45;&#45;2172498317520</title>
<path fill="none" stroke="black" d="M784.7,-143.697C784.7,-132.846 784.7,-118.917 784.7,-108.104"/>
</g>
<!-- 2172498317760 -->
<g id="node37" class="node"><title>2172498317760</title>
<ellipse fill="none" stroke="black" cx="891.7" cy="-90" rx="61.6894" ry="18"/>
<text text-anchor="middle" x="891.7" y="-86.5" font-family="Times New Roman,serif" font-size="15.00">Add penalty</text>
</g>
<!-- 2172655546576&#45;&#45;2172498317760 -->
<g id="edge31" class="edge"><title>2172655546576&#45;&#45;2172498317760</title>
<path fill="none" stroke="black" d="M803.338,-148.807C821.181,-137.134 848.187,-119.466 867.645,-106.737"/>
</g>
<!-- 2172498317712 -->
<g id="node38" class="node"><title>2172498317712</title>
<ellipse fill="none" stroke="black" cx="998.7" cy="-90" rx="27" ry="18"/>
<text text-anchor="middle" x="998.7" y="-86.5" font-family="Times New Roman,serif" font-size="15.00">xor</text>
</g>
<!-- 2172655546576&#45;&#45;2172498317712 -->
<g id="edge34" class="edge"><title>2172655546576&#45;&#45;2172498317712</title>
<path fill="none" stroke="black" d="M808.419,-153.241C849.555,-139.786 933.665,-112.273 974.874,-98.7934"/>
</g>
<!-- 2172498320928 -->
<g id="node35" class="node"><title>2172498320928</title>
<ellipse fill="black" stroke="black" cx="636.7" cy="-18" rx="2.7" ry="2.7"/>
</g>
<!-- 2172498317520&#45;&#45;2172498320928 -->
<g id="edge28" class="edge"><title>2172498317520&#45;&#45;2172498320928</title>
<path fill="none" stroke="black" d="M763.18,-78.8214C725.98,-61.2272 652.328,-26.3918 638.846,-20.0148"/>
</g>
<!-- 2172498318336 -->
<g id="node36" class="node"><title>2172498318336</title>
<ellipse fill="none" stroke="black" cx="801.7" cy="-18" rx="144.571" ry="18"/>
<text text-anchor="middle" x="801.7" y="-14.5" font-family="Times New Roman,serif" font-size="15.00">Insert Date Appeal to Prefecture</text>
</g>
<!-- 2172498317520&#45;&#45;2172498318336 -->
<g id="edge29" class="edge"><title>2172498317520&#45;&#45;2172498318336</title>
<path fill="none" stroke="black" d="M788.815,-72.055C791.449,-61.2111 794.856,-47.183 797.505,-36.2753"/>
</g>
<!-- 2172498319632 -->
<g id="node39" class="node"><title>2172498319632</title>
<ellipse fill="black" stroke="black" cx="987.7" cy="-18" rx="2.7" ry="2.7"/>
</g>
<!-- 2172498317712&#45;&#45;2172498319632 -->
<g id="edge32" class="edge"><title>2172498317712&#45;&#45;2172498319632</title>
<path fill="none" stroke="black" d="M996.037,-72.055C993.24,-54.2515 989.093,-27.8653 987.982,-20.7963"/>
</g>
<!-- 2172498318672 -->
<g id="node40" class="node"><title>2172498318672</title>
<ellipse fill="none" stroke="black" cx="1128.7" cy="-18" rx="120.43" ry="18"/>
<text text-anchor="middle" x="1128.7" y="-14.5" font-family="Times New Roman,serif" font-size="15.00">Send Appeal to Prefecture</text>
</g>
<!-- 2172498317712&#45;&#45;2172498318672 -->
<g id="edge33" class="edge"><title>2172498317712&#45;&#45;2172498318672</title>
<path fill="none" stroke="black" d="M1019.01,-78.0625C1040.15,-66.6807 1073.51,-48.7187 1097.89,-35.589"/>
</g>
<!-- 2172655616304 -->
<g id="node42" class="node"><title>2172655616304</title>
<ellipse fill="black" stroke="black" cx="569.7" cy="-306" rx="2.7" ry="2.7"/>
</g>
<!-- 2172655616496&#45;&#45;2172655616304 -->
<g id="edge39" class="edge"><title>2172655616496&#45;&#45;2172655616304</title>
<path fill="none" stroke="black" d="M569.7,-359.697C569.7,-341.883 569.7,-315.769 569.7,-308.776"/>
</g>
<!-- 2172655616784 -->
<g id="node43" class="node"><title>2172655616784</title>
<ellipse fill="none" stroke="black" cx="711.7" cy="-306" rx="120.819" ry="18"/>
<text text-anchor="middle" x="711.7" y="-302.5" font-family="Times New Roman,serif" font-size="15.00">Send for Credit Collection</text>
</g>
<!-- 2172655616496&#45;&#45;2172655616784 -->
<g id="edge40" class="edge"><title>2172655616496&#45;&#45;2172655616784</title>
<path fill="none" stroke="black" d="M590.959,-366.52C614.092,-355.116 651.384,-336.733 678.408,-323.412"/>
</g>
</g>
</svg>
