<?xml version="1.0" encoding="UTF-8" standalone="no"?>
<!DOCTYPE svg PUBLIC "-//W3C//DTD SVG 1.1//EN"
 "http://www.w3.org/Graphics/SVG/1.1/DTD/svg11.dtd">
<!-- Generated by graphviz version 2.38.0 (20140413.2041)
 -->
<!-- Title: pt Pages: 1 -->
<svg width="1648pt" height="548pt"
 viewBox="0.00 0.00 1648.38 548.00" xmlns="http://www.w3.org/2000/svg" xmlns:xlink="http://www.w3.org/1999/xlink">
<g id="graph0" class="graph" transform="scale(1 1) rotate(0) translate(4 544)">
<title>pt</title>
<!-- 2172674242592 -->
<g id="node1" class="node"><title>2172674242592</title>
<ellipse fill="none" stroke="black" cx="907.536" cy="-522" rx="27" ry="18"/>
<text text-anchor="middle" x="907.536" y="-518.5" font-family="Times New Roman,serif" font-size="15.00">seq</text>
</g>
<!-- 2172674982000 -->
<g id="node2" class="node"><title>2172674982000</title>
<ellipse fill="none" stroke="black" cx="802.536" cy="-450" rx="59.5207" ry="18"/>
<text text-anchor="middle" x="802.536" y="-446.5" font-family="Times New Roman,serif" font-size="15.00">Create Fine</text>
</g>
<!-- 2172674242592&#45;&#45;2172674982000 -->
<g id="edge1" class="edge"><title>2172674242592&#45;&#45;2172674982000</title>
<path fill="none" stroke="black" d="M888.764,-508.485C871.185,-496.767 844.859,-479.215 825.922,-466.591"/>
</g>
<!-- 2172672367056 -->
<g id="node3" class="node"><title>2172672367056</title>
<ellipse fill="none" stroke="black" cx="907.536" cy="-450" rx="27" ry="18"/>
<text text-anchor="middle" x="907.536" y="-446.5" font-family="Times New Roman,serif" font-size="15.00">and</text>
</g>
<!-- 2172674242592&#45;&#45;2172672367056 -->
<g id="edge30" class="edge"><title>2172674242592&#45;&#45;2172672367056</title>
<path fill="none" stroke="black" d="M907.536,-503.697C907.536,-492.846 907.536,-478.917 907.536,-468.104"/>
</g>
<!-- 2172672365088 -->
<g id="node32" class="node"><title>2172672365088</title>
<ellipse fill="none" stroke="black" cx="979.536" cy="-450" rx="27" ry="18"/>
<text text-anchor="middle" x="979.536" y="-446.5" font-family="Times New Roman,serif" font-size="15.00">xor</text>
</g>
<!-- 2172674242592&#45;&#45;2172672365088 -->
<g id="edge33" class="edge"><title>2172674242592&#45;&#45;2172672365088</title>
<path fill="none" stroke="black" d="M922.106,-506.834C934.515,-494.77 952.266,-477.512 964.74,-465.385"/>
</g>
<!-- 2172672366048 -->
<g id="node4" class="node"><title>2172672366048</title>
<ellipse fill="none" stroke="black" cx="592.536" cy="-378" rx="27" ry="18"/>
<text text-anchor="middle" x="592.536" y="-374.5" font-family="Times New Roman,serif" font-size="15.00">xor</text>
</g>
<!-- 2172672367056&#45;&#45;2172672366048 -->
<g id="edge12" class="edge"><title>2172672367056&#45;&#45;2172672366048</title>
<path fill="none" stroke="black" d="M882.29,-443.39C823.309,-430.283 677.001,-397.77 617.901,-384.637"/>
</g>
<!-- 2172672365232 -->
<g id="node15" class="node"><title>2172672365232</title>
<ellipse fill="none" stroke="black" cx="913.536" cy="-378" rx="27" ry="18"/>
<text text-anchor="middle" x="913.536" y="-374.5" font-family="Times New Roman,serif" font-size="15.00">and</text>
</g>
<!-- 2172672367056&#45;&#45;2172672365232 -->
<g id="edge29" class="edge"><title>2172672367056&#45;&#45;2172672365232</title>
<path fill="none" stroke="black" d="M909.019,-431.697C909.949,-420.846 911.143,-406.917 912.069,-396.104"/>
</g>
<!-- 2172672364800 -->
<g id="node5" class="node"><title>2172672364800</title>
<ellipse fill="black" stroke="black" cx="544.536" cy="-306" rx="2.7" ry="2.7"/>
</g>
<!-- 2172672366048&#45;&#45;2172672364800 -->
<g id="edge2" class="edge"><title>2172672366048&#45;&#45;2172672364800</title>
<path fill="none" stroke="black" d="M581.644,-361.116C569.473,-343.367 550.815,-316.158 545.809,-308.857"/>
</g>
<!-- 2172672366624 -->
<g id="node6" class="node"><title>2172672366624</title>
<ellipse fill="none" stroke="black" cx="592.536" cy="-306" rx="27" ry="18"/>
<text text-anchor="middle" x="592.536" y="-302.5" font-family="Times New Roman,serif" font-size="15.00">seq</text>
</g>
<!-- 2172672366048&#45;&#45;2172672366624 -->
<g id="edge11" class="edge"><title>2172672366048&#45;&#45;2172672366624</title>
<path fill="none" stroke="black" d="M592.536,-359.697C592.536,-348.846 592.536,-334.917 592.536,-324.104"/>
</g>
<!-- 2172672365328 -->
<g id="node7" class="node"><title>2172672365328</title>
<ellipse fill="none" stroke="black" cx="144.536" cy="-234" rx="144.571" ry="18"/>
<text text-anchor="middle" x="144.536" y="-230.5" font-family="Times New Roman,serif" font-size="15.00">Insert Date Appeal to Prefecture</text>
</g>
<!-- 2172672366624&#45;&#45;2172672365328 -->
<g id="edge3" class="edge"><title>2172672366624&#45;&#45;2172672365328</title>
<path fill="none" stroke="black" d="M566.513,-300.934C502.365,-290.911 334.357,-264.66 230.721,-248.466"/>
</g>
<!-- 2172672365280 -->
<g id="node8" class="node"><title>2172672365280</title>
<ellipse fill="none" stroke="black" cx="427.536" cy="-234" rx="120.43" ry="18"/>
<text text-anchor="middle" x="427.536" y="-230.5" font-family="Times New Roman,serif" font-size="15.00">Send Appeal to Prefecture</text>
</g>
<!-- 2172672366624&#45;&#45;2172672365280 -->
<g id="edge4" class="edge"><title>2172672366624&#45;&#45;2172672365280</title>
<path fill="none" stroke="black" d="M570.283,-295.559C543.454,-284.177 497.933,-264.866 465.511,-251.111"/>
</g>
<!-- 2172672364752 -->
<g id="node9" class="node"><title>2172672364752</title>
<ellipse fill="none" stroke="black" cx="592.536" cy="-234" rx="27" ry="18"/>
<text text-anchor="middle" x="592.536" y="-230.5" font-family="Times New Roman,serif" font-size="15.00">xor</text>
</g>
<!-- 2172672366624&#45;&#45;2172672364752 -->
<g id="edge7" class="edge"><title>2172672366624&#45;&#45;2172672364752</title>
<path fill="none" stroke="black" d="M592.536,-287.697C592.536,-276.846 592.536,-262.917 592.536,-252.104"/>
</g>
<!-- 2172672364848 -->
<g id="node12" class="node"><title>2172672364848</title>
<ellipse fill="none" stroke="black" cx="725.536" cy="-234" rx="27" ry="18"/>
<text text-anchor="middle" x="725.536" y="-230.5" font-family="Times New Roman,serif" font-size="15.00">xor</text>
</g>
<!-- 2172672366624&#45;&#45;2172672364848 -->
<g id="edge10" class="edge"><title>2172672366624&#45;&#45;2172672364848</title>
<path fill="none" stroke="black" d="M613.025,-294.216C637.946,-281.1 679.774,-259.085 704.803,-245.912"/>
</g>
<!-- 2172672367920 -->
<g id="node10" class="node"><title>2172672367920</title>
<ellipse fill="black" stroke="black" cx="337.536" cy="-162" rx="2.7" ry="2.7"/>
</g>
<!-- 2172672364752&#45;&#45;2172672367920 -->
<g id="edge5" class="edge"><title>2172672364752&#45;&#45;2172672367920</title>
<path fill="none" stroke="black" d="M568.085,-226.288C508.748,-210 360.473,-169.296 339.915,-163.653"/>
</g>
<!-- 2172672367488 -->
<g id="node11" class="node"><title>2172672367488</title>
<ellipse fill="none" stroke="black" cx="531.536" cy="-162" rx="173.941" ry="18"/>
<text text-anchor="middle" x="531.536" y="-158.5" font-family="Times New Roman,serif" font-size="15.00">Receive Result Appeal from Prefecture</text>
</g>
<!-- 2172672364752&#45;&#45;2172672367488 -->
<g id="edge6" class="edge"><title>2172672364752&#45;&#45;2172672367488</title>
<path fill="none" stroke="black" d="M579.599,-218.155C569.877,-206.998 556.542,-191.696 546.385,-180.04"/>
</g>
<!-- 2172672366480 -->
<g id="node13" class="node"><title>2172672366480</title>
<ellipse fill="black" stroke="black" cx="725.536" cy="-162" rx="2.7" ry="2.7"/>
</g>
<!-- 2172672364848&#45;&#45;2172672366480 -->
<g id="edge8" class="edge"><title>2172672364848&#45;&#45;2172672366480</title>
<path fill="none" stroke="black" d="M725.536,-215.697C725.536,-197.883 725.536,-171.769 725.536,-164.776"/>
</g>
<!-- 2172672364896 -->
<g id="node14" class="node"><title>2172672364896</title>
<ellipse fill="none" stroke="black" cx="894.536" cy="-162" rx="148.91" ry="18"/>
<text text-anchor="middle" x="894.536" y="-158.5" font-family="Times New Roman,serif" font-size="15.00">Notify Result Appeal to Offender</text>
</g>
<!-- 2172672364848&#45;&#45;2172672364896 -->
<g id="edge9" class="edge"><title>2172672364848&#45;&#45;2172672364896</title>
<path fill="none" stroke="black" d="M747.977,-223.705C775.183,-212.436 821.516,-193.245 854.81,-179.454"/>
</g>
<!-- 2172672366576 -->
<g id="node16" class="node"><title>2172672366576</title>
<ellipse fill="none" stroke="black" cx="913.536" cy="-306" rx="46.6143" ry="18"/>
<text text-anchor="middle" x="913.536" y="-302.5" font-family="Times New Roman,serif" font-size="15.00">xor loop</text>
</g>
<!-- 2172672365232&#45;&#45;2172672366576 -->
<g id="edge15" class="edge"><title>2172672365232&#45;&#45;2172672366576</title>
<path fill="none" stroke="black" d="M913.536,-359.697C913.536,-348.846 913.536,-334.917 913.536,-324.104"/>
</g>
<!-- 2172672366720 -->
<g id="node19" class="node"><title>2172672366720</title>
<ellipse fill="none" stroke="black" cx="1104.54" cy="-306" rx="27" ry="18"/>
<text text-anchor="middle" x="1104.54" y="-302.5" font-family="Times New Roman,serif" font-size="15.00">xor</text>
</g>
<!-- 2172672365232&#45;&#45;2172672366720 -->
<g id="edge28" class="edge"><title>2172672365232&#45;&#45;2172672366720</title>
<path fill="none" stroke="black" d="M936.575,-368.556C973.286,-355.102 1044.65,-328.947 1081.41,-315.474"/>
</g>
<!-- 2172675185584 -->
<g id="node17" class="node"><title>2172675185584</title>
<ellipse fill="black" stroke="black" cx="880.536" cy="-234" rx="2.7" ry="2.7"/>
</g>
<!-- 2172672366576&#45;&#45;2172675185584 -->
<g id="edge13" class="edge"><title>2172672366576&#45;&#45;2172675185584</title>
<path fill="none" stroke="black" d="M905.547,-288.055C897.154,-270.252 884.715,-243.865 881.382,-236.796"/>
</g>
<!-- 2172675185920 -->
<g id="node18" class="node"><title>2172675185920</title>
<ellipse fill="none" stroke="black" cx="947.536" cy="-234" rx="45.7249" ry="18"/>
<text text-anchor="middle" x="947.536" y="-230.5" font-family="Times New Roman,serif" font-size="15.00">Payment</text>
</g>
<!-- 2172672366576&#45;&#45;2172675185920 -->
<g id="edge14" class="edge"><title>2172672366576&#45;&#45;2172675185920</title>
<path fill="none" stroke="black" d="M921.766,-288.055C927.112,-277.049 934.05,-262.764 939.381,-251.789"/>
</g>
<!-- 2172675186064 -->
<g id="node20" class="node"><title>2172675186064</title>
<ellipse fill="black" stroke="black" cx="1067.54" cy="-234" rx="2.7" ry="2.7"/>
</g>
<!-- 2172672366720&#45;&#45;2172675186064 -->
<g id="edge16" class="edge"><title>2172672366720&#45;&#45;2172675186064</title>
<path fill="none" stroke="black" d="M1095.95,-288.765C1086.56,-270.994 1072.32,-244.06 1068.51,-236.836"/>
</g>
<!-- 2172675186160 -->
<g id="node21" class="node"><title>2172675186160</title>
<ellipse fill="none" stroke="black" cx="1141.54" cy="-234" rx="52.6228" ry="18"/>
<text text-anchor="middle" x="1141.54" y="-230.5" font-family="Times New Roman,serif" font-size="15.00">Send Fine</text>
</g>
<!-- 2172672366720&#45;&#45;2172675186160 -->
<g id="edge17" class="edge"><title>2172672366720&#45;&#45;2172675186160</title>
<path fill="none" stroke="black" d="M1113.12,-288.765C1118.92,-277.779 1126.58,-263.292 1132.48,-252.124"/>
</g>
<!-- 2172675185536 -->
<g id="node22" class="node"><title>2172675185536</title>
<ellipse fill="none" stroke="black" cx="1266.54" cy="-234" rx="27" ry="18"/>
<text text-anchor="middle" x="1266.54" y="-230.5" font-family="Times New Roman,serif" font-size="15.00">seq</text>
</g>
<!-- 2172672366720&#45;&#45;2172675185536 -->
<g id="edge27" class="edge"><title>2172672366720&#45;&#45;2172675185536</title>
<path fill="none" stroke="black" d="M1126.72,-295.414C1157.66,-282.046 1213.43,-257.948 1244.36,-244.583"/>
</g>
<!-- 2172675185968 -->
<g id="node23" class="node"><title>2172675185968</title>
<ellipse fill="none" stroke="black" cx="1114.54" cy="-162" rx="52.6228" ry="18"/>
<text text-anchor="middle" x="1114.54" y="-158.5" font-family="Times New Roman,serif" font-size="15.00">Send Fine</text>
</g>
<!-- 2172675185536&#45;&#45;2172675185968 -->
<g id="edge18" class="edge"><title>2172675185536&#45;&#45;2172675185968</title>
<path fill="none" stroke="black" d="M1244.76,-222.971C1218.49,-210.873 1174.19,-190.472 1144.66,-176.872"/>
</g>
<!-- 2172675185872 -->
<g id="node24" class="node"><title>2172675185872</title>
<ellipse fill="none" stroke="black" cx="1293.54" cy="-162" rx="107.914" ry="18"/>
<text text-anchor="middle" x="1293.54" y="-158.5" font-family="Times New Roman,serif" font-size="15.00">Insert Fine Notification</text>
</g>
<!-- 2172675185536&#45;&#45;2172675185872 -->
<g id="edge19" class="edge"><title>2172675185536&#45;&#45;2172675185872</title>
<path fill="none" stroke="black" d="M1272.93,-216.411C1277.11,-205.576 1282.56,-191.45 1286.81,-180.447"/>
</g>
<!-- 2172675186208 -->
<g id="node25" class="node"><title>2172675186208</title>
<ellipse fill="none" stroke="black" cx="1446.54" cy="-162" rx="27" ry="18"/>
<text text-anchor="middle" x="1446.54" y="-158.5" font-family="Times New Roman,serif" font-size="15.00">and</text>
</g>
<!-- 2172675185536&#45;&#45;2172675186208 -->
<g id="edge26" class="edge"><title>2172675185536&#45;&#45;2172675186208</title>
<path fill="none" stroke="black" d="M1289.33,-224.134C1323.86,-210.706 1389.05,-185.355 1423.64,-171.904"/>
</g>
<!-- 2172673414240 -->
<g id="node26" class="node"><title>2172673414240</title>
<ellipse fill="none" stroke="black" cx="1396.54" cy="-90" rx="27" ry="18"/>
<text text-anchor="middle" x="1396.54" y="-86.5" font-family="Times New Roman,serif" font-size="15.00">xor</text>
</g>
<!-- 2172675186208&#45;&#45;2172673414240 -->
<g id="edge22" class="edge"><title>2172675186208&#45;&#45;2172673414240</title>
<path fill="none" stroke="black" d="M1435.44,-145.465C1427.15,-133.865 1415.88,-118.082 1407.6,-106.492"/>
</g>
<!-- 2172673416880 -->
<g id="node29" class="node"><title>2172673416880</title>
<ellipse fill="none" stroke="black" cx="1495.54" cy="-90" rx="46.6143" ry="18"/>
<text text-anchor="middle" x="1495.54" y="-86.5" font-family="Times New Roman,serif" font-size="15.00">xor loop</text>
</g>
<!-- 2172675186208&#45;&#45;2172673416880 -->
<g id="edge25" class="edge"><title>2172675186208&#45;&#45;2172673416880</title>
<path fill="none" stroke="black" d="M1457.41,-145.465C1465.3,-134.187 1475.97,-118.955 1484.01,-107.467"/>
</g>
<!-- 2172673417024 -->
<g id="node27" class="node"><title>2172673417024</title>
<ellipse fill="black" stroke="black" cx="1297.54" cy="-18" rx="2.7" ry="2.7"/>
</g>
<!-- 2172673414240&#45;&#45;2172673417024 -->
<g id="edge20" class="edge"><title>2172673414240&#45;&#45;2172673417024</title>
<path fill="none" stroke="black" d="M1378.38,-76.1609C1352.92,-58.1628 1308.68,-26.8831 1299.31,-20.2559"/>
</g>
<!-- 2172673414336 -->
<g id="node28" class="node"><title>2172673414336</title>
<ellipse fill="none" stroke="black" cx="1396.54" cy="-18" rx="78.5434" ry="18"/>
<text text-anchor="middle" x="1396.54" y="-14.5" font-family="Times New Roman,serif" font-size="15.00">Appeal to Judge</text>
</g>
<!-- 2172673414240&#45;&#45;2172673414336 -->
<g id="edge21" class="edge"><title>2172673414240&#45;&#45;2172673414336</title>
<path fill="none" stroke="black" d="M1396.54,-71.6966C1396.54,-60.8463 1396.54,-46.9167 1396.54,-36.1043"/>
</g>
<!-- 2172673415920 -->
<g id="node30" class="node"><title>2172673415920</title>
<ellipse fill="black" stroke="black" cx="1495.54" cy="-18" rx="2.7" ry="2.7"/>
</g>
<!-- 2172673416880&#45;&#45;2172673415920 -->
<g id="edge23" class="edge"><title>2172673416880&#45;&#45;2172673415920</title>
<path fill="none" stroke="black" d="M1495.54,-71.6966C1495.54,-53.8826 1495.54,-27.7686 1495.54,-20.7764"/>
</g>
<!-- 2172673416784 -->
<g id="node31" class="node"><title>2172673416784</title>
<ellipse fill="none" stroke="black" cx="1578.54" cy="-18" rx="61.6894" ry="18"/>
<text text-anchor="middle" x="1578.54" y="-14.5" font-family="Times New Roman,serif" font-size="15.00">Add penalty</text>
</g>
<!-- 2172673416880&#45;&#45;2172673416784 -->
<g id="edge24" class="edge"><title>2172673416880&#45;&#45;2172673416784</title>
<path fill="none" stroke="black" d="M1513.96,-73.4647C1527.42,-62.1062 1545.65,-46.7374 1559.3,-35.2216"/>
</g>
<!-- 2172672365712 -->
<g id="node33" class="node"><title>2172672365712</title>
<ellipse fill="black" stroke="black" cx="973.536" cy="-378" rx="2.7" ry="2.7"/>
</g>
<!-- 2172672365088&#45;&#45;2172672365712 -->
<g id="edge31" class="edge"><title>2172672365088&#45;&#45;2172672365712</title>
<path fill="none" stroke="black" d="M978.052,-431.697C976.525,-413.883 974.287,-387.769 973.688,-380.776"/>
</g>
<!-- 2172672366432 -->
<g id="node34" class="node"><title>2172672366432</title>
<ellipse fill="none" stroke="black" cx="1115.54" cy="-378" rx="120.819" ry="18"/>
<text text-anchor="middle" x="1115.54" y="-374.5" font-family="Times New Roman,serif" font-size="15.00">Send for Credit Collection</text>
</g>
<!-- 2172672365088&#45;&#45;2172672366432 -->
<g id="edge32" class="edge"><title>2172672365088&#45;&#45;2172672366432</title>
<path fill="none" stroke="black" d="M1000.19,-438.369C1022.33,-426.971 1057.78,-408.729 1083.53,-395.471"/>
</g>
</g>
</svg>
