<?xml version="1.0" encoding="UTF-8" standalone="no"?>
<!DOCTYPE svg PUBLIC "-//W3C//DTD SVG 1.1//EN"
 "http://www.w3.org/Graphics/SVG/1.1/DTD/svg11.dtd">
<!-- Generated by graphviz version 2.38.0 (20140413.2041)
 -->
<!-- Title: pt Pages: 1 -->
<svg width="2019pt" height="620pt"
 viewBox="0.00 0.00 2018.67 620.00" xmlns="http://www.w3.org/2000/svg" xmlns:xlink="http://www.w3.org/1999/xlink">
<g id="graph0" class="graph" transform="scale(1 1) rotate(0) translate(4 616)">
<title>pt</title>
<!-- 2172665615648 -->
<g id="node1" class="node"><title>2172665615648</title>
<ellipse fill="none" stroke="black" cx="375.811" cy="-594" rx="27" ry="18"/>
<text text-anchor="middle" x="375.811" y="-590.5" font-family="Times New Roman,serif" font-size="15.00">and</text>
</g>
<!-- 2172665616512 -->
<g id="node2" class="node"><title>2172665616512</title>
<ellipse fill="none" stroke="black" cx="276.811" cy="-522" rx="27" ry="18"/>
<text text-anchor="middle" x="276.811" y="-518.5" font-family="Times New Roman,serif" font-size="15.00">xor</text>
</g>
<!-- 2172665615648&#45;&#45;2172665616512 -->
<g id="edge19" class="edge"><title>2172665615648&#45;&#45;2172665616512</title>
<path fill="none" stroke="black" d="M357.653,-580.161C339.79,-567.531 312.677,-548.36 294.854,-535.758"/>
</g>
<!-- 2172665615600 -->
<g id="node21" class="node"><title>2172665615600</title>
<ellipse fill="none" stroke="black" cx="475.811" cy="-522" rx="27" ry="18"/>
<text text-anchor="middle" x="475.811" y="-518.5" font-family="Times New Roman,serif" font-size="15.00">seq</text>
</g>
<!-- 2172665615648&#45;&#45;2172665615600 -->
<g id="edge56" class="edge"><title>2172665615648&#45;&#45;2172665615600</title>
<path fill="none" stroke="black" d="M393.689,-580.485C411.779,-567.823 439.596,-548.351 457.751,-535.642"/>
</g>
<!-- 2172665617760 -->
<g id="node3" class="node"><title>2172665617760</title>
<ellipse fill="black" stroke="black" cx="228.811" cy="-450" rx="2.7" ry="2.7"/>
</g>
<!-- 2172665616512&#45;&#45;2172665617760 -->
<g id="edge1" class="edge"><title>2172665616512&#45;&#45;2172665617760</title>
<path fill="none" stroke="black" d="M265.919,-505.116C253.749,-487.367 235.091,-460.158 230.084,-452.857"/>
</g>
<!-- 2172665906944 -->
<g id="node4" class="node"><title>2172665906944</title>
<ellipse fill="none" stroke="black" cx="276.811" cy="-450" rx="27" ry="18"/>
<text text-anchor="middle" x="276.811" y="-446.5" font-family="Times New Roman,serif" font-size="15.00">and</text>
</g>
<!-- 2172665616512&#45;&#45;2172665906944 -->
<g id="edge18" class="edge"><title>2172665616512&#45;&#45;2172665906944</title>
<path fill="none" stroke="black" d="M276.811,-503.697C276.811,-492.846 276.811,-478.917 276.811,-468.104"/>
</g>
<!-- 2172665907040 -->
<g id="node5" class="node"><title>2172665907040</title>
<ellipse fill="none" stroke="black" cx="135.811" cy="-378" rx="46.6143" ry="18"/>
<text text-anchor="middle" x="135.811" y="-374.5" font-family="Times New Roman,serif" font-size="15.00">xor loop</text>
</g>
<!-- 2172665906944&#45;&#45;2172665907040 -->
<g id="edge4" class="edge"><title>2172665906944&#45;&#45;2172665907040</title>
<path fill="none" stroke="black" d="M255.702,-438.52C231.118,-426.316 190.432,-406.117 163.374,-392.684"/>
</g>
<!-- 2172665908384 -->
<g id="node8" class="node"><title>2172665908384</title>
<ellipse fill="none" stroke="black" cx="276.811" cy="-378" rx="27" ry="18"/>
<text text-anchor="middle" x="276.811" y="-374.5" font-family="Times New Roman,serif" font-size="15.00">xor</text>
</g>
<!-- 2172665906944&#45;&#45;2172665908384 -->
<g id="edge17" class="edge"><title>2172665906944&#45;&#45;2172665908384</title>
<path fill="none" stroke="black" d="M276.811,-431.697C276.811,-420.846 276.811,-406.917 276.811,-396.104"/>
</g>
<!-- 2172666100464 -->
<g id="node6" class="node"><title>2172666100464</title>
<ellipse fill="black" stroke="black" cx="68.8111" cy="-306" rx="2.7" ry="2.7"/>
</g>
<!-- 2172665907040&#45;&#45;2172666100464 -->
<g id="edge2" class="edge"><title>2172665907040&#45;&#45;2172666100464</title>
<path fill="none" stroke="black" d="M120.272,-360.765C102.953,-342.671 76.5425,-315.078 70.2104,-308.462"/>
</g>
<!-- 2172666100416 -->
<g id="node7" class="node"><title>2172666100416</title>
<ellipse fill="none" stroke="black" cx="135.811" cy="-306" rx="45.7249" ry="18"/>
<text text-anchor="middle" x="135.811" y="-302.5" font-family="Times New Roman,serif" font-size="15.00">Payment</text>
</g>
<!-- 2172665907040&#45;&#45;2172666100416 -->
<g id="edge3" class="edge"><title>2172665907040&#45;&#45;2172666100416</title>
<path fill="none" stroke="black" d="M135.811,-359.697C135.811,-348.846 135.811,-334.917 135.811,-324.104"/>
</g>
<!-- 2172666099888 -->
<g id="node9" class="node"><title>2172666099888</title>
<ellipse fill="black" stroke="black" cx="202.811" cy="-306" rx="2.7" ry="2.7"/>
</g>
<!-- 2172665908384&#45;&#45;2172666099888 -->
<g id="edge5" class="edge"><title>2172665908384&#45;&#45;2172666099888</title>
<path fill="none" stroke="black" d="M261.836,-362.834C242.916,-344.937 211.915,-315.612 204.46,-308.56"/>
</g>
<!-- 2172666100848 -->
<g id="node10" class="node"><title>2172666100848</title>
<ellipse fill="none" stroke="black" cx="276.811" cy="-306" rx="52.6228" ry="18"/>
<text text-anchor="middle" x="276.811" y="-302.5" font-family="Times New Roman,serif" font-size="15.00">Send Fine</text>
</g>
<!-- 2172665908384&#45;&#45;2172666100848 -->
<g id="edge6" class="edge"><title>2172665908384&#45;&#45;2172666100848</title>
<path fill="none" stroke="black" d="M276.811,-359.697C276.811,-348.846 276.811,-334.917 276.811,-324.104"/>
</g>
<!-- 2172666098160 -->
<g id="node11" class="node"><title>2172666098160</title>
<ellipse fill="none" stroke="black" cx="374.811" cy="-306" rx="27" ry="18"/>
<text text-anchor="middle" x="374.811" y="-302.5" font-family="Times New Roman,serif" font-size="15.00">seq</text>
</g>
<!-- 2172665908384&#45;&#45;2172666098160 -->
<g id="edge16" class="edge"><title>2172665908384&#45;&#45;2172666098160</title>
<path fill="none" stroke="black" d="M294.786,-364.161C312.468,-351.531 339.307,-332.36 356.95,-319.758"/>
</g>
<!-- 2172666097920 -->
<g id="node12" class="node"><title>2172666097920</title>
<ellipse fill="none" stroke="black" cx="52.8111" cy="-234" rx="52.6228" ry="18"/>
<text text-anchor="middle" x="52.8111" y="-230.5" font-family="Times New Roman,serif" font-size="15.00">Send Fine</text>
</g>
<!-- 2172666098160&#45;&#45;2172666097920 -->
<g id="edge7" class="edge"><title>2172666098160&#45;&#45;2172666097920</title>
<path fill="none" stroke="black" d="M349.544,-299.507C294.689,-287.582 164.153,-259.205 95.9659,-244.381"/>
</g>
<!-- 2172666098928 -->
<g id="node13" class="node"><title>2172666098928</title>
<ellipse fill="none" stroke="black" cx="231.811" cy="-234" rx="107.914" ry="18"/>
<text text-anchor="middle" x="231.811" y="-230.5" font-family="Times New Roman,serif" font-size="15.00">Insert Fine Notification</text>
</g>
<!-- 2172666098160&#45;&#45;2172666098928 -->
<g id="edge8" class="edge"><title>2172666098160&#45;&#45;2172666098928</title>
<path fill="none" stroke="black" d="M353.711,-294.671C330.326,-283.224 292.306,-264.613 264.941,-251.217"/>
</g>
<!-- 2172666098832 -->
<g id="node14" class="node"><title>2172666098832</title>
<ellipse fill="none" stroke="black" cx="384.811" cy="-234" rx="27" ry="18"/>
<text text-anchor="middle" x="384.811" y="-230.5" font-family="Times New Roman,serif" font-size="15.00">and</text>
</g>
<!-- 2172666098160&#45;&#45;2172666098832 -->
<g id="edge15" class="edge"><title>2172666098160&#45;&#45;2172666098832</title>
<path fill="none" stroke="black" d="M377.232,-288.055C378.781,-277.211 380.785,-263.183 382.343,-252.275"/>
</g>
<!-- 2172666100080 -->
<g id="node15" class="node"><title>2172666100080</title>
<ellipse fill="none" stroke="black" cx="277.811" cy="-162" rx="27" ry="18"/>
<text text-anchor="middle" x="277.811" y="-158.5" font-family="Times New Roman,serif" font-size="15.00">xor</text>
</g>
<!-- 2172666098832&#45;&#45;2172666100080 -->
<g id="edge11" class="edge"><title>2172666098832&#45;&#45;2172666100080</title>
<path fill="none" stroke="black" d="M366.173,-220.807C346.654,-208.037 316.168,-188.093 296.594,-175.288"/>
</g>
<!-- 2172666099264 -->
<g id="node18" class="node"><title>2172666099264</title>
<ellipse fill="none" stroke="black" cx="384.811" cy="-162" rx="46.6143" ry="18"/>
<text text-anchor="middle" x="384.811" y="-158.5" font-family="Times New Roman,serif" font-size="15.00">xor loop</text>
</g>
<!-- 2172666098832&#45;&#45;2172666099264 -->
<g id="edge14" class="edge"><title>2172666098832&#45;&#45;2172666099264</title>
<path fill="none" stroke="black" d="M384.811,-215.697C384.811,-204.846 384.811,-190.917 384.811,-180.104"/>
</g>
<!-- 2172666098304 -->
<g id="node16" class="node"><title>2172666098304</title>
<ellipse fill="black" stroke="black" cx="178.811" cy="-90" rx="2.7" ry="2.7"/>
</g>
<!-- 2172666100080&#45;&#45;2172666098304 -->
<g id="edge9" class="edge"><title>2172666100080&#45;&#45;2172666098304</title>
<path fill="none" stroke="black" d="M259.653,-148.161C234.198,-130.163 189.96,-98.8831 180.587,-92.2559"/>
</g>
<!-- 2172666101376 -->
<g id="node17" class="node"><title>2172666101376</title>
<ellipse fill="none" stroke="black" cx="277.811" cy="-90" rx="78.5434" ry="18"/>
<text text-anchor="middle" x="277.811" y="-86.5" font-family="Times New Roman,serif" font-size="15.00">Appeal to Judge</text>
</g>
<!-- 2172666100080&#45;&#45;2172666101376 -->
<g id="edge10" class="edge"><title>2172666100080&#45;&#45;2172666101376</title>
<path fill="none" stroke="black" d="M277.811,-143.697C277.811,-132.846 277.811,-118.917 277.811,-108.104"/>
</g>
<!-- 2172497665760 -->
<g id="node19" class="node"><title>2172497665760</title>
<ellipse fill="black" stroke="black" cx="376.811" cy="-90" rx="2.7" ry="2.7"/>
</g>
<!-- 2172666099264&#45;&#45;2172497665760 -->
<g id="edge12" class="edge"><title>2172666099264&#45;&#45;2172497665760</title>
<path fill="none" stroke="black" d="M382.834,-143.697C380.798,-125.883 377.813,-99.7686 377.014,-92.7764"/>
</g>
<!-- 2172497665280 -->
<g id="node20" class="node"><title>2172497665280</title>
<ellipse fill="none" stroke="black" cx="459.811" cy="-90" rx="61.6894" ry="18"/>
<text text-anchor="middle" x="459.811" y="-86.5" font-family="Times New Roman,serif" font-size="15.00">Add penalty</text>
</g>
<!-- 2172666099264&#45;&#45;2172497665280 -->
<g id="edge13" class="edge"><title>2172666099264&#45;&#45;2172497665280</title>
<path fill="none" stroke="black" d="M401.83,-145.116C413.931,-133.821 430.137,-118.696 442.339,-107.307"/>
</g>
<!-- 2172665615312 -->
<g id="node22" class="node"><title>2172665615312</title>
<ellipse fill="none" stroke="black" cx="413.811" cy="-450" rx="59.5207" ry="18"/>
<text text-anchor="middle" x="413.811" y="-446.5" font-family="Times New Roman,serif" font-size="15.00">Create Fine</text>
</g>
<!-- 2172665615600&#45;&#45;2172665615312 -->
<g id="edge20" class="edge"><title>2172665615600&#45;&#45;2172665615312</title>
<path fill="none" stroke="black" d="M462.662,-506.155C452.71,-494.918 439.033,-479.476 428.681,-467.789"/>
</g>
<!-- 2172665617952 -->
<g id="node23" class="node"><title>2172665617952</title>
<ellipse fill="none" stroke="black" cx="537.811" cy="-450" rx="46.6143" ry="18"/>
<text text-anchor="middle" x="537.811" y="-446.5" font-family="Times New Roman,serif" font-size="15.00">xor loop</text>
</g>
<!-- 2172665615600&#45;&#45;2172665617952 -->
<g id="edge52" class="edge"><title>2172665615600&#45;&#45;2172665617952</title>
<path fill="none" stroke="black" d="M488.96,-506.155C499.055,-494.757 512.981,-479.034 523.382,-467.29"/>
</g>
<!-- 2172665618000 -->
<g id="node55" class="node"><title>2172665618000</title>
<ellipse fill="none" stroke="black" cx="629.811" cy="-450" rx="27" ry="18"/>
<text text-anchor="middle" x="629.811" y="-446.5" font-family="Times New Roman,serif" font-size="15.00">xor</text>
</g>
<!-- 2172665615600&#45;&#45;2172665618000 -->
<g id="edge55" class="edge"><title>2172665615600&#45;&#45;2172665618000</title>
<path fill="none" stroke="black" d="M497.549,-511.119C526.899,-497.778 578.89,-474.146 608.184,-460.831"/>
</g>
<!-- 2172665617040 -->
<g id="node24" class="node"><title>2172665617040</title>
<ellipse fill="none" stroke="black" cx="537.811" cy="-378" rx="27" ry="18"/>
<text text-anchor="middle" x="537.811" y="-374.5" font-family="Times New Roman,serif" font-size="15.00">seq</text>
</g>
<!-- 2172665617952&#45;&#45;2172665617040 -->
<g id="edge50" class="edge"><title>2172665617952&#45;&#45;2172665617040</title>
<path fill="none" stroke="black" d="M537.811,-431.697C537.811,-420.846 537.811,-406.917 537.811,-396.104"/>
</g>
<!-- 2172665616272 -->
<g id="node54" class="node"><title>2172665616272</title>
<ellipse fill="black" stroke="black" cx="585.811" cy="-378" rx="2.7" ry="2.7"/>
</g>
<!-- 2172665617952&#45;&#45;2172665616272 -->
<g id="edge51" class="edge"><title>2172665617952&#45;&#45;2172665616272</title>
<path fill="none" stroke="black" d="M549.186,-432.411C561.385,-414.622 579.665,-387.962 584.566,-380.816"/>
</g>
<!-- 2172665618288 -->
<g id="node25" class="node"><title>2172665618288</title>
<ellipse fill="none" stroke="black" cx="526.811" cy="-306" rx="27" ry="18"/>
<text text-anchor="middle" x="526.811" y="-302.5" font-family="Times New Roman,serif" font-size="15.00">xor</text>
</g>
<!-- 2172665617040&#45;&#45;2172665618288 -->
<g id="edge23" class="edge"><title>2172665617040&#45;&#45;2172665618288</title>
<path fill="none" stroke="black" d="M535.148,-360.055C533.444,-349.211 531.24,-335.183 529.526,-324.275"/>
</g>
<!-- 2172665614736 -->
<g id="node28" class="node"><title>2172665614736</title>
<ellipse fill="none" stroke="black" cx="600.811" cy="-306" rx="27" ry="18"/>
<text text-anchor="middle" x="600.811" y="-302.5" font-family="Times New Roman,serif" font-size="15.00">xor</text>
</g>
<!-- 2172665617040&#45;&#45;2172665614736 -->
<g id="edge26" class="edge"><title>2172665617040&#45;&#45;2172665614736</title>
<path fill="none" stroke="black" d="M551.172,-362.155C561.863,-350.276 576.783,-333.697 587.47,-321.824"/>
</g>
<!-- 2172665615504 -->
<g id="node31" class="node"><title>2172665615504</title>
<ellipse fill="none" stroke="black" cx="887.811" cy="-306" rx="27" ry="18"/>
<text text-anchor="middle" x="887.811" y="-302.5" font-family="Times New Roman,serif" font-size="15.00">xor</text>
</g>
<!-- 2172665617040&#45;&#45;2172665615504 -->
<g id="edge49" class="edge"><title>2172665617040&#45;&#45;2172665615504</title>
<path fill="none" stroke="black" d="M563.264,-371.909C627.76,-359.01 797.078,-325.147 861.98,-312.166"/>
</g>
<!-- 2172665616944 -->
<g id="node26" class="node"><title>2172665616944</title>
<ellipse fill="black" stroke="black" cx="452.811" cy="-234" rx="2.7" ry="2.7"/>
</g>
<!-- 2172665618288&#45;&#45;2172665616944 -->
<g id="edge21" class="edge"><title>2172665618288&#45;&#45;2172665616944</title>
<path fill="none" stroke="black" d="M511.836,-290.834C492.916,-272.937 461.915,-243.612 454.46,-236.56"/>
</g>
<!-- 2172665616656 -->
<g id="node27" class="node"><title>2172665616656</title>
<ellipse fill="none" stroke="black" cx="526.811" cy="-234" rx="52.6228" ry="18"/>
<text text-anchor="middle" x="526.811" y="-230.5" font-family="Times New Roman,serif" font-size="15.00">Send Fine</text>
</g>
<!-- 2172665618288&#45;&#45;2172665616656 -->
<g id="edge22" class="edge"><title>2172665618288&#45;&#45;2172665616656</title>
<path fill="none" stroke="black" d="M526.811,-287.697C526.811,-276.846 526.811,-262.917 526.811,-252.104"/>
</g>
<!-- 2172665614592 -->
<g id="node29" class="node"><title>2172665614592</title>
<ellipse fill="black" stroke="black" cx="600.811" cy="-234" rx="2.7" ry="2.7"/>
</g>
<!-- 2172665614736&#45;&#45;2172665614592 -->
<g id="edge24" class="edge"><title>2172665614736&#45;&#45;2172665614592</title>
<path fill="none" stroke="black" d="M600.811,-287.697C600.811,-269.883 600.811,-243.769 600.811,-236.776"/>
</g>
<!-- 2172497634544 -->
<g id="node30" class="node"><title>2172497634544</title>
<ellipse fill="none" stroke="black" cx="728.811" cy="-234" rx="107.914" ry="18"/>
<text text-anchor="middle" x="728.811" y="-230.5" font-family="Times New Roman,serif" font-size="15.00">Insert Fine Notification</text>
</g>
<!-- 2172665614736&#45;&#45;2172497634544 -->
<g id="edge25" class="edge"><title>2172665614736&#45;&#45;2172497634544</title>
<path fill="none" stroke="black" d="M621.093,-293.908C641.959,-282.497 674.701,-264.591 698.614,-251.514"/>
</g>
<!-- 2172665905648 -->
<g id="node32" class="node"><title>2172665905648</title>
<ellipse fill="black" stroke="black" cx="887.811" cy="-234" rx="2.7" ry="2.7"/>
</g>
<!-- 2172665615504&#45;&#45;2172665905648 -->
<g id="edge27" class="edge"><title>2172665615504&#45;&#45;2172665905648</title>
<path fill="none" stroke="black" d="M887.811,-287.697C887.811,-269.883 887.811,-243.769 887.811,-236.776"/>
</g>
<!-- 2172665906368 -->
<g id="node33" class="node"><title>2172665906368</title>
<ellipse fill="none" stroke="black" cx="1015.81" cy="-234" rx="46.6143" ry="18"/>
<text text-anchor="middle" x="1015.81" y="-230.5" font-family="Times New Roman,serif" font-size="15.00">xor loop</text>
</g>
<!-- 2172665615504&#45;&#45;2172665906368 -->
<g id="edge48" class="edge"><title>2172665615504&#45;&#45;2172665906368</title>
<path fill="none" stroke="black" d="M908.093,-293.908C930.228,-281.803 965.727,-262.39 989.873,-249.185"/>
</g>
<!-- 2172665907616 -->
<g id="node34" class="node"><title>2172665907616</title>
<ellipse fill="none" stroke="black" cx="1015.81" cy="-162" rx="27" ry="18"/>
<text text-anchor="middle" x="1015.81" y="-158.5" font-family="Times New Roman,serif" font-size="15.00">seq</text>
</g>
<!-- 2172665906368&#45;&#45;2172665907616 -->
<g id="edge46" class="edge"><title>2172665906368&#45;&#45;2172665907616</title>
<path fill="none" stroke="black" d="M1015.81,-215.697C1015.81,-204.846 1015.81,-190.917 1015.81,-180.104"/>
</g>
<!-- 2172665905312 -->
<g id="node53" class="node"><title>2172665905312</title>
<ellipse fill="black" stroke="black" cx="1063.81" cy="-162" rx="2.7" ry="2.7"/>
</g>
<!-- 2172665906368&#45;&#45;2172665905312 -->
<g id="edge47" class="edge"><title>2172665906368&#45;&#45;2172665905312</title>
<path fill="none" stroke="black" d="M1027.19,-216.411C1039.38,-198.622 1057.67,-171.962 1062.57,-164.816"/>
</g>
<!-- 2172665907232 -->
<g id="node35" class="node"><title>2172665907232</title>
<ellipse fill="none" stroke="black" cx="566.811" cy="-90" rx="27" ry="18"/>
<text text-anchor="middle" x="566.811" y="-86.5" font-family="Times New Roman,serif" font-size="15.00">xor</text>
</g>
<!-- 2172665907616&#45;&#45;2172665907232 -->
<g id="edge30" class="edge"><title>2172665907616&#45;&#45;2172665907232</title>
<path fill="none" stroke="black" d="M989.73,-156.934C910.373,-144.562 672.417,-107.464 592.964,-95.0773"/>
</g>
<!-- 2172665905600 -->
<g id="node38" class="node"><title>2172665905600</title>
<ellipse fill="none" stroke="black" cx="806.811" cy="-90" rx="27" ry="18"/>
<text text-anchor="middle" x="806.811" y="-86.5" font-family="Times New Roman,serif" font-size="15.00">xor</text>
</g>
<!-- 2172665907616&#45;&#45;2172665905600 -->
<g id="edge33" class="edge"><title>2172665907616&#45;&#45;2172665905600</title>
<path fill="none" stroke="black" d="M992.242,-153.106C952.102,-139.662 870.914,-112.47 830.614,-98.9724"/>
</g>
<!-- 2172665906128 -->
<g id="node41" class="node"><title>2172665906128</title>
<ellipse fill="none" stroke="black" cx="1015.81" cy="-90" rx="27" ry="18"/>
<text text-anchor="middle" x="1015.81" y="-86.5" font-family="Times New Roman,serif" font-size="15.00">xor</text>
</g>
<!-- 2172665907616&#45;&#45;2172665906128 -->
<g id="edge36" class="edge"><title>2172665907616&#45;&#45;2172665906128</title>
<path fill="none" stroke="black" d="M1015.81,-143.697C1015.81,-132.846 1015.81,-118.917 1015.81,-108.104"/>
</g>
<!-- 2172665907568 -->
<g id="node44" class="node"><title>2172665907568</title>
<ellipse fill="none" stroke="black" cx="1171.81" cy="-90" rx="27" ry="18"/>
<text text-anchor="middle" x="1171.81" y="-86.5" font-family="Times New Roman,serif" font-size="15.00">xor</text>
</g>
<!-- 2172665907616&#45;&#45;2172665907568 -->
<g id="edge39" class="edge"><title>2172665907616&#45;&#45;2172665907568</title>
<path fill="none" stroke="black" d="M1037.5,-151.267C1067.22,-137.931 1120.3,-114.115 1150.05,-100.763"/>
</g>
<!-- 2172665908816 -->
<g id="node47" class="node"><title>2172665908816</title>
<ellipse fill="none" stroke="black" cx="1559.81" cy="-90" rx="27" ry="18"/>
<text text-anchor="middle" x="1559.81" y="-86.5" font-family="Times New Roman,serif" font-size="15.00">xor</text>
</g>
<!-- 2172665907616&#45;&#45;2172665908816 -->
<g id="edge42" class="edge"><title>2172665907616&#45;&#45;2172665908816</title>
<path fill="none" stroke="black" d="M1042.05,-157.624C1134.05,-145.785 1441.43,-106.233 1533.52,-94.3833"/>
</g>
<!-- 2172665909152 -->
<g id="node50" class="node"><title>2172665909152</title>
<ellipse fill="none" stroke="black" cx="1897.81" cy="-90" rx="27" ry="18"/>
<text text-anchor="middle" x="1897.81" y="-86.5" font-family="Times New Roman,serif" font-size="15.00">xor</text>
</g>
<!-- 2172665907616&#45;&#45;2172665909152 -->
<g id="edge45" class="edge"><title>2172665907616&#45;&#45;2172665909152</title>
<path fill="none" stroke="black" d="M1042.69,-158.867C1173.33,-148.499 1740.97,-103.447 1871.14,-93.1165"/>
</g>
<!-- 2172665908096 -->
<g id="node36" class="node"><title>2172665908096</title>
<ellipse fill="black" stroke="black" cx="393.811" cy="-18" rx="2.7" ry="2.7"/>
</g>
<!-- 2172665907232&#45;&#45;2172665908096 -->
<g id="edge28" class="edge"><title>2172665907232&#45;&#45;2172665908096</title>
<path fill="none" stroke="black" d="M544.194,-79.8487C501.331,-62.505 411.18,-26.028 396.002,-19.8866"/>
</g>
<!-- 2172665906416 -->
<g id="node37" class="node"><title>2172665906416</title>
<ellipse fill="none" stroke="black" cx="558.811" cy="-18" rx="144.571" ry="18"/>
<text text-anchor="middle" x="558.811" y="-14.5" font-family="Times New Roman,serif" font-size="15.00">Insert Date Appeal to Prefecture</text>
</g>
<!-- 2172665907232&#45;&#45;2172665906416 -->
<g id="edge29" class="edge"><title>2172665907232&#45;&#45;2172665906416</title>
<path fill="none" stroke="black" d="M564.834,-71.6966C563.593,-60.8463 562.002,-46.9167 560.766,-36.1043"/>
</g>
<!-- 2172665907760 -->
<g id="node39" class="node"><title>2172665907760</title>
<ellipse fill="black" stroke="black" cx="723.811" cy="-18" rx="2.7" ry="2.7"/>
</g>
<!-- 2172665905600&#45;&#45;2172665907760 -->
<g id="edge31" class="edge"><title>2172665905600&#45;&#45;2172665907760</title>
<path fill="none" stroke="black" d="M790.413,-75.1703C769.248,-57.3201 734.13,-27.7024 725.681,-20.5768"/>
</g>
<!-- 2172665905216 -->
<g id="node40" class="node"><title>2172665905216</title>
<ellipse fill="none" stroke="black" cx="806.811" cy="-18" rx="61.6894" ry="18"/>
<text text-anchor="middle" x="806.811" y="-14.5" font-family="Times New Roman,serif" font-size="15.00">Add penalty</text>
</g>
<!-- 2172665905600&#45;&#45;2172665905216 -->
<g id="edge32" class="edge"><title>2172665905600&#45;&#45;2172665905216</title>
<path fill="none" stroke="black" d="M806.811,-71.6966C806.811,-60.8463 806.811,-46.9167 806.811,-36.1043"/>
</g>
<!-- 2172665907808 -->
<g id="node42" class="node"><title>2172665907808</title>
<ellipse fill="black" stroke="black" cx="889.811" cy="-18" rx="2.7" ry="2.7"/>
</g>
<!-- 2172665906128&#45;&#45;2172665907808 -->
<g id="edge34" class="edge"><title>2172665906128&#45;&#45;2172665907808</title>
<path fill="none" stroke="black" d="M995.567,-77.7533C963.567,-59.9756 903.702,-26.7171 891.872,-20.1449"/>
</g>
<!-- 2172665905504 -->
<g id="node43" class="node"><title>2172665905504</title>
<ellipse fill="none" stroke="black" cx="1030.81" cy="-18" rx="120.43" ry="18"/>
<text text-anchor="middle" x="1030.81" y="-14.5" font-family="Times New Roman,serif" font-size="15.00">Send Appeal to Prefecture</text>
</g>
<!-- 2172665906128&#45;&#45;2172665905504 -->
<g id="edge35" class="edge"><title>2172665906128&#45;&#45;2172665905504</title>
<path fill="none" stroke="black" d="M1019.44,-72.055C1021.77,-61.2111 1024.77,-47.183 1027.11,-36.2753"/>
</g>
<!-- 2172665905792 -->
<g id="node45" class="node"><title>2172665905792</title>
<ellipse fill="black" stroke="black" cx="1171.81" cy="-18" rx="2.7" ry="2.7"/>
</g>
<!-- 2172665907568&#45;&#45;2172665905792 -->
<g id="edge37" class="edge"><title>2172665907568&#45;&#45;2172665905792</title>
<path fill="none" stroke="black" d="M1171.81,-71.6966C1171.81,-53.8826 1171.81,-27.7686 1171.81,-20.7764"/>
</g>
<!-- 2172665907472 -->
<g id="node46" class="node"><title>2172665907472</title>
<ellipse fill="none" stroke="black" cx="1365.81" cy="-18" rx="173.941" ry="18"/>
<text text-anchor="middle" x="1365.81" y="-14.5" font-family="Times New Roman,serif" font-size="15.00">Receive Result Appeal from Prefecture</text>
</g>
<!-- 2172665907568&#45;&#45;2172665907472 -->
<g id="edge38" class="edge"><title>2172665907568&#45;&#45;2172665907472</title>
<path fill="none" stroke="black" d="M1195.21,-80.5564C1226.05,-69.4293 1280.96,-49.615 1320.16,-35.472"/>
</g>
<!-- 2172665908048 -->
<g id="node48" class="node"><title>2172665908048</title>
<ellipse fill="black" stroke="black" cx="1559.81" cy="-18" rx="2.7" ry="2.7"/>
</g>
<!-- 2172665908816&#45;&#45;2172665908048 -->
<g id="edge40" class="edge"><title>2172665908816&#45;&#45;2172665908048</title>
<path fill="none" stroke="black" d="M1559.81,-71.6966C1559.81,-53.8826 1559.81,-27.7686 1559.81,-20.7764"/>
</g>
<!-- 2172665905408 -->
<g id="node49" class="node"><title>2172665905408</title>
<ellipse fill="none" stroke="black" cx="1728.81" cy="-18" rx="148.91" ry="18"/>
<text text-anchor="middle" x="1728.81" y="-14.5" font-family="Times New Roman,serif" font-size="15.00">Notify Result Appeal to Offender</text>
</g>
<!-- 2172665908816&#45;&#45;2172665905408 -->
<g id="edge41" class="edge"><title>2172665908816&#45;&#45;2172665905408</title>
<path fill="none" stroke="black" d="M1582.25,-79.7045C1609.46,-68.4359 1655.79,-49.2446 1689.09,-35.4544"/>
</g>
<!-- 2172665905264 -->
<g id="node51" class="node"><title>2172665905264</title>
<ellipse fill="black" stroke="black" cx="1897.81" cy="-18" rx="2.7" ry="2.7"/>
</g>
<!-- 2172665909152&#45;&#45;2172665905264 -->
<g id="edge43" class="edge"><title>2172665909152&#45;&#45;2172665905264</title>
<path fill="none" stroke="black" d="M1897.81,-71.6966C1897.81,-53.8826 1897.81,-27.7686 1897.81,-20.7764"/>
</g>
<!-- 2172665907904 -->
<g id="node52" class="node"><title>2172665907904</title>
<ellipse fill="none" stroke="black" cx="1964.81" cy="-18" rx="45.7249" ry="18"/>
<text text-anchor="middle" x="1964.81" y="-14.5" font-family="Times New Roman,serif" font-size="15.00">Payment</text>
</g>
<!-- 2172665909152&#45;&#45;2172665907904 -->
<g id="edge44" class="edge"><title>2172665909152&#45;&#45;2172665907904</title>
<path fill="none" stroke="black" d="M1911.69,-74.496C1922.66,-63.0429 1937.95,-47.0688 1949.31,-35.1982"/>
</g>
<!-- 2172665907376 -->
<g id="node56" class="node"><title>2172665907376</title>
<ellipse fill="black" stroke="black" cx="618.811" cy="-378" rx="2.7" ry="2.7"/>
</g>
<!-- 2172665618000&#45;&#45;2172665907376 -->
<g id="edge53" class="edge"><title>2172665618000&#45;&#45;2172665907376</title>
<path fill="none" stroke="black" d="M627.148,-432.055C624.351,-414.252 620.204,-387.865 619.093,-380.796"/>
</g>
<!-- 2172665906464 -->
<g id="node57" class="node"><title>2172665906464</title>
<ellipse fill="none" stroke="black" cx="760.811" cy="-378" rx="120.819" ry="18"/>
<text text-anchor="middle" x="760.811" y="-374.5" font-family="Times New Roman,serif" font-size="15.00">Send for Credit Collection</text>
</g>
<!-- 2172665618000&#45;&#45;2172665906464 -->
<g id="edge54" class="edge"><title>2172665618000&#45;&#45;2172665906464</title>
<path fill="none" stroke="black" d="M650.28,-438.063C671.58,-426.681 705.195,-408.719 729.766,-395.589"/>
</g>
</g>
</svg>
