<?xml version="1.0" encoding="UTF-8" standalone="no"?>
<!DOCTYPE svg PUBLIC "-//W3C//DTD SVG 1.1//EN"
 "http://www.w3.org/Graphics/SVG/1.1/DTD/svg11.dtd">
<!-- Generated by graphviz version 2.38.0 (20140413.2041)
 -->
<!-- Title: pt Pages: 1 -->
<svg width="1628pt" height="620pt"
 viewBox="0.00 0.00 1627.56 620.00" xmlns="http://www.w3.org/2000/svg" xmlns:xlink="http://www.w3.org/1999/xlink">
<g id="graph0" class="graph" transform="scale(1 1) rotate(0) translate(4 616)">
<title>pt</title>
<!-- 2172498623888 -->
<g id="node1" class="node"><title>2172498623888</title>
<ellipse fill="none" stroke="black" cx="530.7" cy="-594" rx="27" ry="18"/>
<text text-anchor="middle" x="530.7" y="-590.5" font-family="Times New Roman,serif" font-size="15.00">seq</text>
</g>
<!-- 2172498624080 -->
<g id="node2" class="node"><title>2172498624080</title>
<ellipse fill="none" stroke="black" cx="406.7" cy="-522" rx="59.5207" ry="18"/>
<text text-anchor="middle" x="406.7" y="-518.5" font-family="Times New Roman,serif" font-size="15.00">Create Fine</text>
</g>
<!-- 2172498623888&#45;&#45;2172498624080 -->
<g id="edge1" class="edge"><title>2172498623888&#45;&#45;2172498624080</title>
<path fill="none" stroke="black" d="M510.777,-581.753C489.828,-569.927 456.744,-551.251 433.513,-538.136"/>
</g>
<!-- 2172685861936 -->
<g id="node3" class="node"><title>2172685861936</title>
<ellipse fill="none" stroke="black" cx="530.7" cy="-522" rx="46.6143" ry="18"/>
<text text-anchor="middle" x="530.7" y="-518.5" font-family="Times New Roman,serif" font-size="15.00">xor loop</text>
</g>
<!-- 2172498623888&#45;&#45;2172685861936 -->
<g id="edge37" class="edge"><title>2172498623888&#45;&#45;2172685861936</title>
<path fill="none" stroke="black" d="M530.7,-575.697C530.7,-564.846 530.7,-550.917 530.7,-540.104"/>
</g>
<!-- 2172685861648 -->
<g id="node39" class="node"><title>2172685861648</title>
<ellipse fill="none" stroke="black" cx="622.7" cy="-522" rx="27" ry="18"/>
<text text-anchor="middle" x="622.7" y="-518.5" font-family="Times New Roman,serif" font-size="15.00">xor</text>
</g>
<!-- 2172498623888&#45;&#45;2172685861648 -->
<g id="edge44" class="edge"><title>2172498623888&#45;&#45;2172685861648</title>
<path fill="none" stroke="black" d="M548.004,-579.834C564.453,-567.319 589.051,-548.603 605.473,-536.107"/>
</g>
<!-- 2172685864288 -->
<g id="node4" class="node"><title>2172685864288</title>
<ellipse fill="none" stroke="black" cx="483.7" cy="-450" rx="27" ry="18"/>
<text text-anchor="middle" x="483.7" y="-446.5" font-family="Times New Roman,serif" font-size="15.00">seq</text>
</g>
<!-- 2172685861936&#45;&#45;2172685864288 -->
<g id="edge35" class="edge"><title>2172685861936&#45;&#45;2172685864288</title>
<path fill="none" stroke="black" d="M519.562,-504.411C511.961,-493.091 501.948,-478.178 494.435,-466.988"/>
</g>
<!-- 2172685862608 -->
<g id="node38" class="node"><title>2172685862608</title>
<ellipse fill="black" stroke="black" cx="531.7" cy="-450" rx="2.7" ry="2.7"/>
</g>
<!-- 2172685861936&#45;&#45;2172685862608 -->
<g id="edge36" class="edge"><title>2172685861936&#45;&#45;2172685862608</title>
<path fill="none" stroke="black" d="M530.947,-503.697C531.202,-485.883 531.575,-459.769 531.675,-452.776"/>
</g>
<!-- 2172685864192 -->
<g id="node5" class="node"><title>2172685864192</title>
<ellipse fill="none" stroke="black" cx="414.7" cy="-378" rx="27" ry="18"/>
<text text-anchor="middle" x="414.7" y="-374.5" font-family="Times New Roman,serif" font-size="15.00">xor</text>
</g>
<!-- 2172685864288&#45;&#45;2172685864192 -->
<g id="edge4" class="edge"><title>2172685864288&#45;&#45;2172685864192</title>
<path fill="none" stroke="black" d="M469.403,-434.496C457.561,-422.482 440.816,-405.494 428.979,-393.485"/>
</g>
<!-- 2172685862848 -->
<g id="node8" class="node"><title>2172685862848</title>
<ellipse fill="none" stroke="black" cx="488.7" cy="-378" rx="27" ry="18"/>
<text text-anchor="middle" x="488.7" y="-374.5" font-family="Times New Roman,serif" font-size="15.00">xor</text>
</g>
<!-- 2172685864288&#45;&#45;2172685862848 -->
<g id="edge34" class="edge"><title>2172685864288&#45;&#45;2172685862848</title>
<path fill="none" stroke="black" d="M484.936,-431.697C485.711,-420.846 486.706,-406.917 487.478,-396.104"/>
</g>
<!-- 2172685863088 -->
<g id="node6" class="node"><title>2172685863088</title>
<ellipse fill="black" stroke="black" cx="340.7" cy="-306" rx="2.7" ry="2.7"/>
</g>
<!-- 2172685864192&#45;&#45;2172685863088 -->
<g id="edge2" class="edge"><title>2172685864192&#45;&#45;2172685863088</title>
<path fill="none" stroke="black" d="M399.725,-362.834C380.805,-344.937 349.804,-315.612 342.349,-308.56"/>
</g>
<!-- 2172685863520 -->
<g id="node7" class="node"><title>2172685863520</title>
<ellipse fill="none" stroke="black" cx="414.7" cy="-306" rx="52.6228" ry="18"/>
<text text-anchor="middle" x="414.7" y="-302.5" font-family="Times New Roman,serif" font-size="15.00">Send Fine</text>
</g>
<!-- 2172685864192&#45;&#45;2172685863520 -->
<g id="edge3" class="edge"><title>2172685864192&#45;&#45;2172685863520</title>
<path fill="none" stroke="black" d="M414.7,-359.697C414.7,-348.846 414.7,-334.917 414.7,-324.104"/>
</g>
<!-- 2172685861696 -->
<g id="node9" class="node"><title>2172685861696</title>
<ellipse fill="black" stroke="black" cx="488.7" cy="-306" rx="2.7" ry="2.7"/>
</g>
<!-- 2172685862848&#45;&#45;2172685861696 -->
<g id="edge5" class="edge"><title>2172685862848&#45;&#45;2172685861696</title>
<path fill="none" stroke="black" d="M488.7,-359.697C488.7,-341.883 488.7,-315.769 488.7,-308.776"/>
</g>
<!-- 2172685861552 -->
<g id="node10" class="node"><title>2172685861552</title>
<ellipse fill="none" stroke="black" cx="536.7" cy="-306" rx="27" ry="18"/>
<text text-anchor="middle" x="536.7" y="-302.5" font-family="Times New Roman,serif" font-size="15.00">seq</text>
</g>
<!-- 2172685862848&#45;&#45;2172685861552 -->
<g id="edge33" class="edge"><title>2172685862848&#45;&#45;2172685861552</title>
<path fill="none" stroke="black" d="M499.592,-361.116C507.447,-349.66 518.006,-334.263 525.851,-322.821"/>
</g>
<!-- 2172685863280 -->
<g id="node11" class="node"><title>2172685863280</title>
<ellipse fill="none" stroke="black" cx="359.7" cy="-234" rx="27" ry="18"/>
<text text-anchor="middle" x="359.7" y="-230.5" font-family="Times New Roman,serif" font-size="15.00">xor</text>
</g>
<!-- 2172685861552&#45;&#45;2172685863280 -->
<g id="edge8" class="edge"><title>2172685861552&#45;&#45;2172685863280</title>
<path fill="none" stroke="black" d="M513.923,-295.992C479.936,-282.551 416.325,-257.394 382.39,-243.973"/>
</g>
<!-- 2172685863856 -->
<g id="node14" class="node"><title>2172685863856</title>
<ellipse fill="none" stroke="black" cx="536.7" cy="-234" rx="27" ry="18"/>
<text text-anchor="middle" x="536.7" y="-230.5" font-family="Times New Roman,serif" font-size="15.00">xor</text>
</g>
<!-- 2172685861552&#45;&#45;2172685863856 -->
<g id="edge11" class="edge"><title>2172685861552&#45;&#45;2172685863856</title>
<path fill="none" stroke="black" d="M536.7,-287.697C536.7,-276.846 536.7,-262.917 536.7,-252.104"/>
</g>
<!-- 2172685861216 -->
<g id="node17" class="node"><title>2172685861216</title>
<ellipse fill="none" stroke="black" cx="710.7" cy="-234" rx="46.6143" ry="18"/>
<text text-anchor="middle" x="710.7" y="-230.5" font-family="Times New Roman,serif" font-size="15.00">xor loop</text>
</g>
<!-- 2172685861552&#45;&#45;2172685861216 -->
<g id="edge32" class="edge"><title>2172685861552&#45;&#45;2172685861216</title>
<path fill="none" stroke="black" d="M559.447,-295.849C590.215,-283.471 645.206,-261.348 679.724,-247.462"/>
</g>
<!-- 2172685861264 -->
<g id="node12" class="node"><title>2172685861264</title>
<ellipse fill="black" stroke="black" cx="231.7" cy="-162" rx="2.7" ry="2.7"/>
</g>
<!-- 2172685863280&#45;&#45;2172685861264 -->
<g id="edge6" class="edge"><title>2172685863280&#45;&#45;2172685861264</title>
<path fill="none" stroke="black" d="M339.418,-221.908C306.991,-204.175 245.882,-170.756 233.804,-164.151"/>
</g>
<!-- 2172685862944 -->
<g id="node13" class="node"><title>2172685862944</title>
<ellipse fill="none" stroke="black" cx="359.7" cy="-162" rx="107.914" ry="18"/>
<text text-anchor="middle" x="359.7" y="-158.5" font-family="Times New Roman,serif" font-size="15.00">Insert Fine Notification</text>
</g>
<!-- 2172685863280&#45;&#45;2172685862944 -->
<g id="edge7" class="edge"><title>2172685863280&#45;&#45;2172685862944</title>
<path fill="none" stroke="black" d="M359.7,-215.697C359.7,-204.846 359.7,-190.917 359.7,-180.104"/>
</g>
<!-- 2172685863568 -->
<g id="node15" class="node"><title>2172685863568</title>
<ellipse fill="black" stroke="black" cx="487.7" cy="-162" rx="2.7" ry="2.7"/>
</g>
<!-- 2172685863856&#45;&#45;2172685863568 -->
<g id="edge9" class="edge"><title>2172685863856&#45;&#45;2172685863568</title>
<path fill="none" stroke="black" d="M525.825,-217.465C513.194,-199.42 493.478,-171.254 488.746,-164.494"/>
</g>
<!-- 2172685863712 -->
<g id="node16" class="node"><title>2172685863712</title>
<ellipse fill="none" stroke="black" cx="586.7" cy="-162" rx="78.5434" ry="18"/>
<text text-anchor="middle" x="586.7" y="-158.5" font-family="Times New Roman,serif" font-size="15.00">Appeal to Judge</text>
</g>
<!-- 2172685863856&#45;&#45;2172685863712 -->
<g id="edge10" class="edge"><title>2172685863856&#45;&#45;2172685863712</title>
<path fill="none" stroke="black" d="M547.797,-217.465C555.737,-206.348 566.422,-191.39 574.584,-179.962"/>
</g>
<!-- 2172685861360 -->
<g id="node18" class="node"><title>2172685861360</title>
<ellipse fill="none" stroke="black" cx="710.7" cy="-162" rx="27" ry="18"/>
<text text-anchor="middle" x="710.7" y="-158.5" font-family="Times New Roman,serif" font-size="15.00">seq</text>
</g>
<!-- 2172685861216&#45;&#45;2172685861360 -->
<g id="edge30" class="edge"><title>2172685861216&#45;&#45;2172685861360</title>
<path fill="none" stroke="black" d="M710.7,-215.697C710.7,-204.846 710.7,-190.917 710.7,-180.104"/>
</g>
<!-- 2172685864384 -->
<g id="node37" class="node"><title>2172685864384</title>
<ellipse fill="black" stroke="black" cx="758.7" cy="-162" rx="2.7" ry="2.7"/>
</g>
<!-- 2172685861216&#45;&#45;2172685864384 -->
<g id="edge31" class="edge"><title>2172685861216&#45;&#45;2172685864384</title>
<path fill="none" stroke="black" d="M722.075,-216.411C734.274,-198.622 752.554,-171.962 757.455,-164.816"/>
</g>
<!-- 2172685862032 -->
<g id="node19" class="node"><title>2172685862032</title>
<ellipse fill="none" stroke="black" cx="167.7" cy="-90" rx="27" ry="18"/>
<text text-anchor="middle" x="167.7" y="-86.5" font-family="Times New Roman,serif" font-size="15.00">xor</text>
</g>
<!-- 2172685861360&#45;&#45;2172685862032 -->
<g id="edge14" class="edge"><title>2172685861360&#45;&#45;2172685862032</title>
<path fill="none" stroke="black" d="M684.51,-157.624C592.674,-145.785 285.866,-106.233 193.944,-94.3833"/>
</g>
<!-- 2172685863904 -->
<g id="node22" class="node"><title>2172685863904</title>
<ellipse fill="none" stroke="black" cx="415.7" cy="-90" rx="27" ry="18"/>
<text text-anchor="middle" x="415.7" y="-86.5" font-family="Times New Roman,serif" font-size="15.00">xor</text>
</g>
<!-- 2172685861360&#45;&#45;2172685863904 -->
<g id="edge17" class="edge"><title>2172685861360&#45;&#45;2172685863904</title>
<path fill="none" stroke="black" d="M685.548,-155.032C629.815,-141.807 496.463,-110.164 440.788,-96.9531"/>
</g>
<!-- 2172685862752 -->
<g id="node25" class="node"><title>2172685862752</title>
<ellipse fill="none" stroke="black" cx="639.7" cy="-90" rx="27" ry="18"/>
<text text-anchor="middle" x="639.7" y="-86.5" font-family="Times New Roman,serif" font-size="15.00">xor</text>
</g>
<!-- 2172685861360&#45;&#45;2172685862752 -->
<g id="edge20" class="edge"><title>2172685861360&#45;&#45;2172685862752</title>
<path fill="none" stroke="black" d="M695.989,-146.496C683.803,-134.482 666.573,-117.494 654.392,-105.485"/>
</g>
<!-- 2172686416672 -->
<g id="node28" class="node"><title>2172686416672</title>
<ellipse fill="none" stroke="black" cx="780.7" cy="-90" rx="27" ry="18"/>
<text text-anchor="middle" x="780.7" y="-86.5" font-family="Times New Roman,serif" font-size="15.00">xor</text>
</g>
<!-- 2172685861360&#45;&#45;2172686416672 -->
<g id="edge23" class="edge"><title>2172685861360&#45;&#45;2172686416672</title>
<path fill="none" stroke="black" d="M725.204,-146.496C737.218,-134.482 754.206,-117.494 766.215,-105.485"/>
</g>
<!-- 2172686417488 -->
<g id="node31" class="node"><title>2172686417488</title>
<ellipse fill="none" stroke="black" cx="1168.7" cy="-90" rx="27" ry="18"/>
<text text-anchor="middle" x="1168.7" y="-86.5" font-family="Times New Roman,serif" font-size="15.00">xor</text>
</g>
<!-- 2172685861360&#45;&#45;2172686417488 -->
<g id="edge26" class="edge"><title>2172685861360&#45;&#45;2172686417488</title>
<path fill="none" stroke="black" d="M736.969,-156.985C817.752,-144.638 1061.9,-107.323 1142.54,-94.9987"/>
</g>
<!-- 2172686417776 -->
<g id="node34" class="node"><title>2172686417776</title>
<ellipse fill="none" stroke="black" cx="1506.7" cy="-90" rx="27" ry="18"/>
<text text-anchor="middle" x="1506.7" y="-86.5" font-family="Times New Roman,serif" font-size="15.00">xor</text>
</g>
<!-- 2172685861360&#45;&#45;2172686417776 -->
<g id="edge29" class="edge"><title>2172685861360&#45;&#45;2172686417776</title>
<path fill="none" stroke="black" d="M737.64,-158.631C859.441,-147.92 1357.98,-104.078 1479.77,-93.3685"/>
</g>
<!-- 2172686416912 -->
<g id="node20" class="node"><title>2172686416912</title>
<ellipse fill="black" stroke="black" cx="2.7" cy="-18" rx="2.7" ry="2.7"/>
</g>
<!-- 2172685862032&#45;&#45;2172686416912 -->
<g id="edge12" class="edge"><title>2172685862032&#45;&#45;2172686416912</title>
<path fill="none" stroke="black" d="M145.447,-79.5595C104.28,-62.0945 19.1048,-25.9596 4.76938,-19.8779"/>
</g>
<!-- 2172686417392 -->
<g id="node21" class="node"><title>2172686417392</title>
<ellipse fill="none" stroke="black" cx="167.7" cy="-18" rx="144.571" ry="18"/>
<text text-anchor="middle" x="167.7" y="-14.5" font-family="Times New Roman,serif" font-size="15.00">Insert Date Appeal to Prefecture</text>
</g>
<!-- 2172685862032&#45;&#45;2172686417392 -->
<g id="edge13" class="edge"><title>2172685862032&#45;&#45;2172686417392</title>
<path fill="none" stroke="black" d="M167.7,-71.6966C167.7,-60.8463 167.7,-46.9167 167.7,-36.1043"/>
</g>
<!-- 2172686416096 -->
<g id="node23" class="node"><title>2172686416096</title>
<ellipse fill="black" stroke="black" cx="332.7" cy="-18" rx="2.7" ry="2.7"/>
</g>
<!-- 2172685863904&#45;&#45;2172686416096 -->
<g id="edge15" class="edge"><title>2172685863904&#45;&#45;2172686416096</title>
<path fill="none" stroke="black" d="M399.302,-75.1703C378.137,-57.3201 343.019,-27.7024 334.57,-20.5768"/>
</g>
<!-- 2172686415712 -->
<g id="node24" class="node"><title>2172686415712</title>
<ellipse fill="none" stroke="black" cx="415.7" cy="-18" rx="61.6894" ry="18"/>
<text text-anchor="middle" x="415.7" y="-14.5" font-family="Times New Roman,serif" font-size="15.00">Add penalty</text>
</g>
<!-- 2172685863904&#45;&#45;2172686415712 -->
<g id="edge16" class="edge"><title>2172685863904&#45;&#45;2172686415712</title>
<path fill="none" stroke="black" d="M415.7,-71.6966C415.7,-60.8463 415.7,-46.9167 415.7,-36.1043"/>
</g>
<!-- 2172686417584 -->
<g id="node26" class="node"><title>2172686417584</title>
<ellipse fill="black" stroke="black" cx="498.7" cy="-18" rx="2.7" ry="2.7"/>
</g>
<!-- 2172685862752&#45;&#45;2172686417584 -->
<g id="edge18" class="edge"><title>2172685862752&#45;&#45;2172686417584</title>
<path fill="none" stroke="black" d="M618.591,-78.5203C582.944,-60.8234 513.442,-26.3188 500.724,-20.0047"/>
</g>
<!-- 2172686417728 -->
<g id="node27" class="node"><title>2172686417728</title>
<ellipse fill="none" stroke="black" cx="639.7" cy="-18" rx="120.43" ry="18"/>
<text text-anchor="middle" x="639.7" y="-14.5" font-family="Times New Roman,serif" font-size="15.00">Send Appeal to Prefecture</text>
</g>
<!-- 2172685862752&#45;&#45;2172686417728 -->
<g id="edge19" class="edge"><title>2172685862752&#45;&#45;2172686417728</title>
<path fill="none" stroke="black" d="M639.7,-71.6966C639.7,-60.8463 639.7,-46.9167 639.7,-36.1043"/>
</g>
<!-- 2172686417536 -->
<g id="node29" class="node"><title>2172686417536</title>
<ellipse fill="black" stroke="black" cx="780.7" cy="-18" rx="2.7" ry="2.7"/>
</g>
<!-- 2172686416672&#45;&#45;2172686417536 -->
<g id="edge21" class="edge"><title>2172686416672&#45;&#45;2172686417536</title>
<path fill="none" stroke="black" d="M780.7,-71.6966C780.7,-53.8826 780.7,-27.7686 780.7,-20.7764"/>
</g>
<!-- 2172498525344 -->
<g id="node30" class="node"><title>2172498525344</title>
<ellipse fill="none" stroke="black" cx="974.7" cy="-18" rx="173.941" ry="18"/>
<text text-anchor="middle" x="974.7" y="-14.5" font-family="Times New Roman,serif" font-size="15.00">Receive Result Appeal from Prefecture</text>
</g>
<!-- 2172686416672&#45;&#45;2172498525344 -->
<g id="edge22" class="edge"><title>2172686416672&#45;&#45;2172498525344</title>
<path fill="none" stroke="black" d="M804.101,-80.5564C834.939,-69.4293 889.853,-49.615 929.049,-35.472"/>
</g>
<!-- 2172498524768 -->
<g id="node32" class="node"><title>2172498524768</title>
<ellipse fill="black" stroke="black" cx="1168.7" cy="-18" rx="2.7" ry="2.7"/>
</g>
<!-- 2172686417488&#45;&#45;2172498524768 -->
<g id="edge24" class="edge"><title>2172686417488&#45;&#45;2172498524768</title>
<path fill="none" stroke="black" d="M1168.7,-71.6966C1168.7,-53.8826 1168.7,-27.7686 1168.7,-20.7764"/>
</g>
<!-- 2172498525248 -->
<g id="node33" class="node"><title>2172498525248</title>
<ellipse fill="none" stroke="black" cx="1337.7" cy="-18" rx="148.91" ry="18"/>
<text text-anchor="middle" x="1337.7" y="-14.5" font-family="Times New Roman,serif" font-size="15.00">Notify Result Appeal to Offender</text>
</g>
<!-- 2172686417488&#45;&#45;2172498525248 -->
<g id="edge25" class="edge"><title>2172686417488&#45;&#45;2172498525248</title>
<path fill="none" stroke="black" d="M1191.14,-79.7045C1218.35,-68.4359 1264.68,-49.2446 1297.97,-35.4544"/>
</g>
<!-- 2172498523472 -->
<g id="node35" class="node"><title>2172498523472</title>
<ellipse fill="black" stroke="black" cx="1506.7" cy="-18" rx="2.7" ry="2.7"/>
</g>
<!-- 2172686417776&#45;&#45;2172498523472 -->
<g id="edge27" class="edge"><title>2172686417776&#45;&#45;2172498523472</title>
<path fill="none" stroke="black" d="M1506.7,-71.6966C1506.7,-53.8826 1506.7,-27.7686 1506.7,-20.7764"/>
</g>
<!-- 2172498524624 -->
<g id="node36" class="node"><title>2172498524624</title>
<ellipse fill="none" stroke="black" cx="1573.7" cy="-18" rx="45.7249" ry="18"/>
<text text-anchor="middle" x="1573.7" y="-14.5" font-family="Times New Roman,serif" font-size="15.00">Payment</text>
</g>
<!-- 2172686417776&#45;&#45;2172498524624 -->
<g id="edge28" class="edge"><title>2172686417776&#45;&#45;2172498524624</title>
<path fill="none" stroke="black" d="M1520.58,-74.496C1531.54,-63.0429 1546.83,-47.0688 1558.2,-35.1982"/>
</g>
<!-- 2172685862656 -->
<g id="node40" class="node"><title>2172685862656</title>
<ellipse fill="black" stroke="black" cx="620.7" cy="-450" rx="2.7" ry="2.7"/>
</g>
<!-- 2172685861648&#45;&#45;2172685862656 -->
<g id="edge38" class="edge"><title>2172685861648&#45;&#45;2172685862656</title>
<path fill="none" stroke="black" d="M622.206,-503.697C621.697,-485.883 620.951,-459.769 620.751,-452.776"/>
</g>
<!-- 2172685864096 -->
<g id="node41" class="node"><title>2172685864096</title>
<ellipse fill="none" stroke="black" cx="668.7" cy="-450" rx="27" ry="18"/>
<text text-anchor="middle" x="668.7" y="-446.5" font-family="Times New Roman,serif" font-size="15.00">seq</text>
</g>
<!-- 2172685861648&#45;&#45;2172685864096 -->
<g id="edge43" class="edge"><title>2172685861648&#45;&#45;2172685864096</title>
<path fill="none" stroke="black" d="M633.138,-505.116C640.666,-493.66 650.785,-478.263 658.303,-466.821"/>
</g>
<!-- 2172685862560 -->
<g id="node42" class="node"><title>2172685862560</title>
<ellipse fill="none" stroke="black" cx="665.7" cy="-378" rx="120.819" ry="18"/>
<text text-anchor="middle" x="665.7" y="-374.5" font-family="Times New Roman,serif" font-size="15.00">Send for Credit Collection</text>
</g>
<!-- 2172685864096&#45;&#45;2172685862560 -->
<g id="edge39" class="edge"><title>2172685864096&#45;&#45;2172685862560</title>
<path fill="none" stroke="black" d="M667.958,-431.697C667.493,-420.846 666.896,-406.917 666.433,-396.104"/>
</g>
<!-- 2172686417008 -->
<g id="node43" class="node"><title>2172686417008</title>
<ellipse fill="none" stroke="black" cx="831.7" cy="-378" rx="27" ry="18"/>
<text text-anchor="middle" x="831.7" y="-374.5" font-family="Times New Roman,serif" font-size="15.00">xor</text>
</g>
<!-- 2172685864096&#45;&#45;2172686417008 -->
<g id="edge42" class="edge"><title>2172685864096&#45;&#45;2172686417008</title>
<path fill="none" stroke="black" d="M691.023,-439.414C722.237,-426.009 778.578,-401.813 809.647,-388.471"/>
</g>
<!-- 2172498522272 -->
<g id="node44" class="node"><title>2172498522272</title>
<ellipse fill="black" stroke="black" cx="760.7" cy="-306" rx="2.7" ry="2.7"/>
</g>
<!-- 2172686417008&#45;&#45;2172498522272 -->
<g id="edge40" class="edge"><title>2172686417008&#45;&#45;2172498522272</title>
<path fill="none" stroke="black" d="M816.989,-362.496C798.792,-344.555 769.343,-315.522 762.266,-308.544"/>
</g>
<!-- 2172498522848 -->
<g id="node45" class="node"><title>2172498522848</title>
<ellipse fill="none" stroke="black" cx="901.7" cy="-306" rx="120.43" ry="18"/>
<text text-anchor="middle" x="901.7" y="-302.5" font-family="Times New Roman,serif" font-size="15.00">Send Appeal to Prefecture</text>
</g>
<!-- 2172686417008&#45;&#45;2172498522848 -->
<g id="edge41" class="edge"><title>2172686417008&#45;&#45;2172498522848</title>
<path fill="none" stroke="black" d="M846.204,-362.496C857.417,-351.283 872.963,-335.737 884.749,-323.951"/>
</g>
</g>
</svg>
